<?xml version="1.0" encoding="UTF-8" standalone="no"?>
<svg
   width="32"
   height="32"
   viewBox="0 0 24 24"
   version="1.1"
   id="svg2"
   sodipodi:docname="weather-few-clouds-wind-night.svg"
   inkscape:version="1.4 (unknown)"
   xmlns:inkscape="http://www.inkscape.org/namespaces/inkscape"
   xmlns:sodipodi="http://sodipodi.sourceforge.net/DTD/sodipodi-0.dtd"
   xmlns="http://www.w3.org/2000/svg"
   xmlns:svg="http://www.w3.org/2000/svg">
  <defs
     id="defs2">
    <filter
       id="filter0_dd_2_322"
       x="464.09799"
       y="422.41199"
       width="264.22"
       height="264.41"
       filterUnits="userSpaceOnUse"
       color-interpolation-filters="sRGB">
      <feFlood
         flood-opacity="0"
         result="BackgroundImageFix"
         id="feFlood6" />
      <feColorMatrix
         in="SourceAlpha"
         type="matrix"
         values="0 0 0 0 0 0 0 0 0 0 0 0 0 0 0 0 0 0 127 0"
         result="hardAlpha"
         id="feColorMatrix6" />
      <feOffset
         dx="-21"
         dy="15"
         id="feOffset6" />
      <feGaussianBlur
         stdDeviation="25"
         id="feGaussianBlur6" />
      <feComposite
         in2="hardAlpha"
         operator="out"
         id="feComposite6" />
      <feColorMatrix
         type="matrix"
         values="0 0 0 0 0.113438 0 0 0 0 0.148981 0 0 0 0 0.275 0 0 0 0.25 0"
         id="feColorMatrix7" />
      <feBlend
         mode="normal"
         in2="BackgroundImageFix"
         result="effect1_dropShadow_2_322"
         id="feBlend7" />
      <feColorMatrix
         in="SourceAlpha"
         type="matrix"
         values="0 0 0 0 0 0 0 0 0 0 0 0 0 0 0 0 0 0 127 0"
         result="hardAlpha"
         id="feColorMatrix8" />
      <feOffset
         id="feOffset8" />
      <feGaussianBlur
         stdDeviation="19"
         id="feGaussianBlur8" />
      <feComposite
         in2="hardAlpha"
         operator="out"
         id="feComposite8" />
      <feColorMatrix
         type="matrix"
         values="0 0 0 0 0.619608 0 0 0 0 0.423529 0 0 0 0 1 0 0 0 0.4 0"
         id="feColorMatrix9" />
      <feBlend
         mode="normal"
         in2="effect1_dropShadow_2_322"
         result="effect2_dropShadow_2_322"
         id="feBlend9" />
      <feBlend
         mode="normal"
         in="SourceGraphic"
         in2="effect2_dropShadow_2_322"
         result="shape"
         id="feBlend10" />
    </filter>
    <linearGradient
       id="paint0_linear_2_322"
       x1="563.961"
       y1="477.98901"
       x2="638.15198"
       y2="622.22699"
       gradientUnits="userSpaceOnUse">
      <stop
         offset="0.0001"
         stop-color="#D4C0FF"
         id="stop12" />
      <stop
         offset="1"
         stop-color="#7E2FFF"
         id="stop13" />
    </linearGradient>
    <linearGradient
       id="paint1_linear_2_322"
       x1="572.03802"
       y1="398.677"
       x2="618.18298"
       y2="587.979"
       gradientUnits="userSpaceOnUse">
      <stop
         stop-color="white"
         id="stop14" />
      <stop
         offset="1"
         stop-color="white"
         stop-opacity="0"
         id="stop15" />
    </linearGradient>
    <mask
       id="path-1-inside-1_2_322"
       fill="#ffffff">
      <path
         fill-rule="evenodd"
         clip-rule="evenodd"
         d="m 604.339,460.456 c 3.453,-0.512 5.514,3.562 3.604,6.484 -12.939,19.798 -15.162,45.796 -3.57,68.331 15.295,29.736 49.483,43.411 80.363,33.906 3.339,-1.028 6.685,2.084 5.234,5.263 -7.299,15.984 -19.821,29.722 -36.659,38.383 -39.83,20.488 -88.728,4.807 -109.215,-35.023 -20.488,-39.83 -4.807,-88.727 35.023,-109.215 8.135,-4.184 16.648,-6.86 25.22,-8.129 z"
         id="path1" />
    </mask>
    <filter
       id="filter1_d_2_322"
       x="357"
       y="501.47198"
       width="316.04501"
       height="246.14799"
       filterUnits="userSpaceOnUse"
       color-interpolation-filters="sRGB">
      <feFlood
         flood-opacity="0"
         result="BackgroundImageFix"
         id="feFlood10" />
      <feColorMatrix
         in="SourceAlpha"
         type="matrix"
         values="0 0 0 0 0 0 0 0 0 0 0 0 0 0 0 0 0 0 127 0"
         result="hardAlpha"
         id="feColorMatrix10" />
      <feOffset
         dx="-21"
         dy="15"
         id="feOffset10" />
      <feGaussianBlur
         stdDeviation="25"
         id="feGaussianBlur10" />
      <feComposite
         in2="hardAlpha"
         operator="out"
         id="feComposite10" />
      <feColorMatrix
         type="matrix"
         values="0 0 0 0 0.113438 0 0 0 0 0.148981 0 0 0 0 0.275 0 0 0 0.25 0"
         id="feColorMatrix11" />
      <feBlend
         mode="normal"
         in2="BackgroundImageFix"
         result="effect1_dropShadow_2_322"
         id="feBlend11" />
      <feBlend
         mode="normal"
         in="SourceGraphic"
         in2="effect1_dropShadow_2_322"
         result="shape"
         id="feBlend12" />
    </filter>
    <linearGradient
       id="paint2_linear_2_322"
       x1="546.07098"
       y1="540.86798"
       x2="546.07098"
       y2="699.13397"
       gradientUnits="userSpaceOnUse">
      <stop
         stop-color="white"
         id="stop16" />
      <stop
         offset="1"
         stop-color="white"
         stop-opacity="0"
         id="stop17" />
    </linearGradient>
    <linearGradient
       id="paint3_linear_2_322"
       x1="536.02197"
       y1="536.47198"
       x2="536.02197"
       y2="682.62"
       gradientUnits="userSpaceOnUse">
      <stop
         stop-color="white"
         id="stop18" />
      <stop
         offset="1"
         stop-color="white"
         stop-opacity="0"
         id="stop19" />
    </linearGradient>
    <mask
       id="path-3-inside-2_2_322"
       fill="#ffffff">
      <path
         fill-rule="evenodd"
         clip-rule="evenodd"
         d="m 604.556,682.617 c 0.152,0.002 0.303,0.003 0.455,0.003 21.558,0 39.034,-17.476 39.034,-39.033 0,-21.558 -17.476,-39.033 -39.034,-39.033 -0.152,0 -0.303,0 -0.455,0.002 v -0.002 h -10.083 c 0.365,-2.672 0.553,-5.399 0.553,-8.171 0,-33.088 -26.824,-59.911 -59.912,-59.911 -33.088,0 -59.911,26.823 -59.911,59.911 0,3.123 0.239,6.189 0.699,9.183 -2.849,-0.662 -5.818,-1.012 -8.869,-1.012 -21.557,0 -39.033,17.475 -39.033,39.033 0,21.557 17.476,39.033 39.033,39.033 0.152,0 0.304,-10e-4 0.455,-0.003 l -0.002,0.003 h 137.07 z"
         id="path4" />
    </mask>
    <mask
       id="mask2"
       fill="#ffffff">
      <path
         fill-rule="evenodd"
         clip-rule="evenodd"
         d="m 604.339,460.456 c 3.453,-0.512 5.514,3.562 3.604,6.484 -12.939,19.798 -15.162,45.796 -3.57,68.331 15.295,29.736 49.483,43.411 80.363,33.906 3.339,-1.028 6.685,2.084 5.234,5.263 -7.299,15.984 -19.821,29.722 -36.659,38.383 -39.83,20.488 -88.728,4.807 -109.215,-35.023 -20.488,-39.83 -4.807,-88.727 35.023,-109.215 8.135,-4.184 16.648,-6.86 25.22,-8.129 z"
         id="path2" />
    </mask>
    <mask
       id="mask6"
       fill="#ffffff">
      <path
         fill-rule="evenodd"
         clip-rule="evenodd"
         d="m 604.556,682.617 c 0.152,0.002 0.303,0.003 0.455,0.003 21.558,0 39.034,-17.476 39.034,-39.033 0,-21.558 -17.476,-39.033 -39.034,-39.033 -0.152,0 -0.303,0 -0.455,0.002 v -0.002 h -10.083 c 0.365,-2.672 0.553,-5.399 0.553,-8.171 0,-33.088 -26.824,-59.911 -59.912,-59.911 -33.088,0 -59.911,26.823 -59.911,59.911 0,3.123 0.239,6.189 0.699,9.183 -2.849,-0.662 -5.818,-1.012 -8.869,-1.012 -21.557,0 -39.033,17.475 -39.033,39.033 0,21.557 17.476,39.033 39.033,39.033 0.152,0 0.304,-10e-4 0.455,-0.003 l -0.002,0.003 h 137.07 z"
         id="path6" />
    </mask>
  </defs>
  <sodipodi:namedview
     id="namedview2"
     pagecolor="#ffffff"
     bordercolor="#000000"
     borderopacity="0.25"
     inkscape:showpageshadow="2"
     inkscape:pageopacity="0.0"
     inkscape:pagecheckerboard="0"
     inkscape:deskcolor="#d1d1d1"
     inkscape:zoom="11.90625"
     inkscape:cx="16.965879"
     inkscape:cy="28.262467"
     inkscape:window-width="1920"
     inkscape:window-height="996"
     inkscape:window-x="0"
     inkscape:window-y="0"
     inkscape:window-maximized="1"
     inkscape:current-layer="svg2"
     showgrid="true">
    <inkscape:grid
       id="grid1"
       units="px"
       originx="0"
       originy="0"
       spacingx="0.75"
       spacingy="0.75"
       empcolor="#0099e5"
       empopacity="0.30196078"
       color="#0099e5"
       opacity="0.14901961"
       empspacing="5"
       enabled="true"
       visible="true" />
  </sodipodi:namedview>
  <g
     id="g1">
    <path
       fill-rule="evenodd"
       clip-rule="evenodd"
       d="m 604.339,460.456 c 3.453,-0.512 5.514,3.562 3.604,6.484 -12.939,19.798 -15.162,45.796 -3.57,68.331 15.295,29.736 49.483,43.411 80.363,33.906 3.339,-1.028 6.685,2.084 5.234,5.263 -7.299,15.984 -19.821,29.722 -36.659,38.383 -39.83,20.488 -88.728,4.807 -109.215,-35.023 -20.488,-39.83 -4.807,-88.727 35.023,-109.215 8.135,-4.184 16.648,-6.86 25.22,-8.129 z"
       id="path3"
       style="fill:url(#paint0_linear_2_322);filter:url(#filter0_dd_2_322)"
       transform="matrix(0.07149271,0,0,0.07149271,-27.834171,-28.699378)" />
  </g>
  <path
     d="m 604.339,460.456 0.293,1.978 z m 1.812,73.901 c -11.249,-21.87 -9.095,-47.102 3.466,-66.322 l -3.348,-2.189 c -13.316,20.376 -15.609,47.14 -3.675,70.34 z m 77.997,32.908 c -29.97,9.225 -63.153,-4.05 -77.997,-32.908 l -3.557,1.829 c 15.746,30.612 50.94,44.687 82.73,34.902 z m 4.002,6.344 c -7.118,15.59 -19.329,28.987 -35.754,37.436 l 1.83,3.557 c 17.251,-8.874 30.085,-22.954 37.563,-39.332 z m -35.754,37.436 c -38.848,19.982 -86.539,4.688 -106.522,-34.16 l -3.557,1.83 c 20.993,40.812 71.096,56.88 111.909,35.887 z m -106.522,-34.16 c -19.982,-38.848 -4.688,-86.539 34.16,-106.521 l -1.83,-3.557 c -40.812,20.992 -56.879,71.095 -35.887,111.908 z m 34.16,-106.521 c 7.937,-4.083 16.24,-6.692 24.598,-7.93 l -0.586,-3.957 c -8.786,1.301 -17.509,4.044 -25.842,8.33 z m 105.29,100.724 c 0.923,-0.284 1.844,0.003 2.428,0.574 0.554,0.541 0.726,1.228 0.398,1.947 l 3.639,1.661 c 1.123,-2.459 0.348,-4.917 -1.243,-6.47 -1.56,-1.524 -3.982,-2.279 -6.398,-1.535 z M 609.617,468.035 c 1.382,-2.115 1.328,-4.65 0.298,-6.57 -1.051,-1.958 -3.196,-3.384 -5.869,-2.988 l 0.586,3.957 c 0.78,-0.115 1.392,0.24 1.758,0.922 0.386,0.719 0.407,1.682 -0.121,2.49 z"
     id="path5"
     style="fill:url(#paint1_linear_2_322);filter:url(#filter0_dd_2_322)"
     transform="matrix(0.07149271,0,0,0.07149271,-27.834171,-28.699378)" />
  <path
     fill-rule="evenodd"
     clip-rule="evenodd"
     d="m 604.556,682.617 c 0.152,0.002 0.303,0.003 0.455,0.003 21.558,0 39.034,-17.476 39.034,-39.033 0,-21.558 -17.476,-39.033 -39.034,-39.033 -0.152,0 -0.303,0 -0.455,0.002 v -0.002 h -10.083 c 0.365,-2.672 0.553,-5.399 0.553,-8.171 0,-33.088 -26.824,-59.911 -59.912,-59.911 -33.088,0 -59.911,26.823 -59.911,59.911 0,3.123 0.239,6.189 0.699,9.183 -2.849,-0.662 -5.818,-1.012 -8.869,-1.012 -21.557,0 -39.033,17.475 -39.033,39.033 0,21.557 17.476,39.033 39.033,39.033 0.152,0 0.304,-10e-4 0.455,-0.003 l -0.002,0.003 h 137.07 z"
     shape-rendering="crispEdges"
     id="path7"
     style="fill:url(#paint2_linear_2_322);filter:url(#filter1_d_2_322)"
     transform="matrix(0.07149271,0,0,0.07149271,-27.834171,-28.699378)" />
  <path
     d="m 604.556,682.617 0.023,-1.999 c -0.534,-0.006 -1.049,0.202 -1.429,0.577 -0.38,0.376 -0.594,0.888 -0.594,1.422 z m 0,-78.061 h -2 c 0,0.535 0.214,1.047 0.594,1.422 0.38,0.376 0.895,0.584 1.429,0.578 z m 0,-0.002 h 2 c 0,-1.105 -0.895,-2 -2,-2 z m -10.083,0 -1.981,-0.271 c -0.078,0.573 0.095,1.151 0.475,1.586 0.379,0.435 0.929,0.685 1.506,0.685 z m -118.571,1.012 -0.453,1.948 c 0.647,0.15 1.326,-0.031 1.813,-0.482 0.487,-0.451 0.718,-1.114 0.617,-1.771 z m -8.414,77.051 1.57,1.24 c 0.478,-0.605 0.565,-1.43 0.225,-2.122 -0.34,-0.691 -1.047,-1.126 -1.817,-1.117 z m -0.002,0.003 -1.569,-1.239 c -0.475,0.601 -0.565,1.421 -0.23,2.111 0.334,0.69 1.033,1.128 1.799,1.128 z m 137.07,0 v 2 c 1.105,0 2,-0.895 2,-2 z m -0.022,1.997 c 0.159,0.002 0.318,0.003 0.477,0.003 v -4 c -0.144,0 -0.288,-10e-4 -0.432,-0.002 z m 0.477,0.003 c 22.662,0 41.034,-18.371 41.034,-41.033 h -4 c 0,20.453 -16.581,37.033 -37.034,37.033 z m 41.034,-41.033 c 0,-22.662 -18.372,-41.033 -41.034,-41.033 v 4 c 20.453,0 37.034,16.58 37.034,37.033 z m -41.034,-41.033 c -0.159,0 -0.318,0 -0.477,0.002 l 0.045,4 c 0.144,-0.002 0.288,-0.002 0.432,-0.002 z m -2.455,2 v 0.002 h 4 v -0.002 z m -8.083,2 h 10.083 v -4 h -10.083 z m 1.982,-1.73 c 0.376,-2.761 0.571,-5.579 0.571,-8.441 h -4 c 0,2.681 -0.182,5.318 -0.534,7.9 z m 0.571,-8.441 c 0,-34.192 -27.719,-61.911 -61.912,-61.911 v 4 c 31.984,0 57.912,25.928 57.912,57.911 z m -61.912,-61.911 c -34.192,0 -61.911,27.719 -61.911,61.911 h 4 c 0,-31.983 25.928,-57.911 57.911,-57.911 z m -61.911,61.911 c 0,3.225 0.246,6.393 0.722,9.487 l 3.954,-0.609 c -0.445,-2.893 -0.676,-5.857 -0.676,-8.878 z m 3.152,7.234 c -2.997,-0.696 -6.118,-1.063 -9.322,-1.063 v 4 c 2.897,0 5.715,0.332 8.416,0.96 z m -9.322,-1.063 c -22.662,0 -41.033,18.371 -41.033,41.033 h 4 c 0,-20.453 16.58,-37.033 37.033,-37.033 z M 426,643.587 c 0,22.662 18.371,41.033 41.033,41.033 v -4 C 446.58,680.62 430,664.04 430,643.587 Z m 41.033,41.033 c 0.16,0 0.319,-10e-4 0.478,-0.003 l -0.045,-3.999 c -0.144,10e-4 -0.288,0.002 -0.433,0.002 z m 2.023,-0.76 0.002,-0.003 -3.139,-2.479 -0.002,0.003 z m 135.5,-3.24 h -137.07 v 4 h 137.07 z m -2,1.997 v 0.003 h 4 v -0.003 z"
     id="path8"
     style="fill:url(#paint3_linear_2_322);filter:url(#filter1_d_2_322)"
     transform="matrix(0.07149271,0,0,0.07149271,-27.834171,-28.699378)" />
  <path
     id="path1-9"
     d="m 11.612796,16.921245 h 7.495889 c 0.208892,0 0.374798,0.167912 0.374798,0.374792 0,0.206885 -0.165906,0.374798 -0.374798,0.374798 h -7.495889 c -0.206889,0 -0.374796,-0.167913 -0.374796,-0.374798 0,-0.20688 0.167907,-0.374792 0.374796,-0.374792 z"
     style="fill:#3daee9;fill-opacity:1;fill-rule:nonzero;stroke:none;stroke-width:0.499721" />
  <path
     id="path2-5"
     d="m 19.494981,14.674477 c -0.200895,-0.0022 -0.399789,0.03696 -0.585183,0.114929 -0.560692,0.23238 -0.92549,0.779078 -0.92549,1.384252 h 0.755582 c -0.0022,-0.300845 0.179399,-0.574187 0.458754,-0.689127 0.278842,-0.114939 0.59917,-0.05097 0.81205,0.161915 0.214385,0.212874 0.276856,0.535209 0.161913,0.812051 -0.115434,0.279349 -0.386787,0.460749 -0.689124,0.460749 v 0.753583 c 0.607174,0 1.153874,-0.365301 1.385743,-0.925491 0.232373,-0.560188 0.103446,-1.20434 -0.325823,-1.633603 -0.277344,-0.27935 -0.654135,-0.435262 -1.048422,-0.439258 z"
     style="fill:#3daee9;fill-opacity:1;fill-rule:nonzero;stroke:none;stroke-width:0.499721" />
  <path
     id="path3-3"
     d="m 17.984308,19.550803 c 0.0022,-0.199387 -0.03697,-0.398281 -0.113441,-0.583682 -0.231873,-0.560193 -0.778575,-0.925492 -1.385738,-0.925492 v 0.753589 c 0.302334,0 0.573691,0.181402 0.689118,0.460749 0.114938,0.277349 0.05044,0.599172 -0.161908,0.812053 -0.212882,0.21289 -0.533207,0.277347 -0.812058,0.161915 -0.279345,-0.114938 -0.460744,-0.388289 -0.460744,-0.689124 h -0.753589 c 0,0.605176 0.364798,1.151874 0.925489,1.384239 0.560199,0.232378 1.204341,0.105448 1.633611,-0.324318 0.279345,-0.278844 0.43726,-0.65564 0.43926,-1.049929 z"
     style="fill:#3daee9;fill-opacity:1;fill-rule:nonzero;stroke:none;stroke-width:0.499721" />
  <path
     id="path4-5"
     d="m 16.496621,13.548088 c -0.200888,-0.0022 -0.399783,0.03696 -0.585184,0.114942 -0.560691,0.230367 -0.925489,0.777071 -0.925489,1.384242 h 0.755584 c -0.0022,-0.300835 0.179404,-0.573691 0.458749,-0.689119 0.278851,-0.114949 0.599176,-0.05043 0.812058,0.16191 0.214386,0.212882 0.276846,0.535206 0.161908,0.812048 -0.115427,0.279354 -0.386784,0.460754 -0.689118,0.460754 v 0.753589 c 0.607163,0 1.153865,-0.364799 1.385738,-0.925492 0.232379,-0.560198 0.10345,-1.20435 -0.325819,-1.63361 -0.277349,-0.279354 -0.65414,-0.435268 -1.048427,-0.439264 z"
     style="fill:#3daee9;fill-opacity:1;fill-rule:nonzero;stroke:none;stroke-width:0.499721" />
  <path
     id="path5-6"
     d="m 19.108685,16.919246 h 0.374798 v 0.749589 h -0.374798 z"
     style="fill:#3daee9;fill-opacity:1;fill-rule:nonzero;stroke:none;stroke-width:0.499721" />
  <path
     id="path6-2"
     d="m 12.737181,15.794864 h 2.623563 c 0.208887,0 0.374793,0.167906 0.374793,0.374798 0,0.206882 -0.165906,0.374791 -0.374793,0.374791 h -2.623563 c -0.206886,0 -0.374796,-0.167909 -0.374796,-0.374791 0,-0.206892 0.16791,-0.374798 0.374796,-0.374798 z"
     style="fill:#3daee9;fill-opacity:1;fill-rule:nonzero;stroke:none;stroke-width:0.499721" />
  <path
     id="path7-9"
     d="m 15.360744,15.794864 h 1.124385 v 0.749589 h -1.124385 z"
     style="fill:#3daee9;fill-opacity:1;fill-rule:nonzero;stroke:none;stroke-width:0.499721" />
  <path
     id="path8-1"
     d="m 12.362385,18.043631 h 3.373152 c 0.208892,0 0.374794,0.167905 0.374794,0.37479 0,0.206891 -0.165902,0.374797 -0.374794,0.374797 h -3.373152 c -0.206887,0 -0.374791,-0.167906 -0.374791,-0.374797 0,-0.206885 0.167904,-0.37479 0.374791,-0.37479 z"
     style="fill:#3daee9;fill-opacity:1;fill-rule:nonzero;stroke:none;stroke-width:0.499721" />
  <path
     id="path9-2"
     d="m 15.735537,18.043631 h 0.749591 v 0.749587 h -0.749591 z"
     style="fill:#3daee9;fill-opacity:1;fill-rule:nonzero;stroke:none;stroke-width:0.499721" />
  <path
     id="path10-7"
     d="m 16.491126,13.924881 c -0.09995,0 -0.199388,0.01952 -0.290845,0.05645 -0.279345,0.115435 -0.460744,0.388791 -0.460744,0.68912 h -0.702615 c -0.0049,0.01551 -0.0077,0.02947 -0.01199,0.04497 -0.0055,0.02946 -0.01349,0.06045 -0.0195,0.08996 -0.0022,0.01947 -0.0049,0.03898 -0.0055,0.05843 -0.0038,0.02901 -0.0071,0.05845 -0.0095,0.08795 -0.0022,0.03097 -0.005,0.06242 -0.005,0.09343 h 0.7536 c 0,-0.02346 0.0022,-0.047 0.0049,-0.07046 0.02498,-0.274848 0.200893,-0.513219 0.456753,-0.618664 0.276846,-0.114938 0.599173,-0.05046 0.812054,0.161917 0.09342,0.09395 0.159914,0.21088 0.192897,0.339814 0.06645,-0.255866 -0.0051,-0.527212 -0.192932,-0.71461 -0.138921,-0.138428 -0.326318,-0.216382 -0.521213,-0.218383 z m 1.479692,0.932995 c -0.01597,0.132923 -0.05097,0.263354 -0.10145,0.38679 -0.230374,0.560191 -0.777076,0.924996 -1.384239,0.924996 h -4.122744 c 0,0 0,0.0022 0,0.0022 0,0.202888 0.161915,0.366798 0.363302,0.372796 h 3.759442 c 0.607163,0 1.153865,-0.3648 1.384239,-0.924993 0.09745,-0.232373 0.132428,-0.484236 0.104949,-0.734099 0,0 0,-0.0022 0,-0.0022 -0.0016,-0.0077 -0.0016,-0.01551 -0.0038,-0.02548 z m 1.518663,0.193391 c -0.09994,0 -0.199391,0.01951 -0.290837,0.05644 -0.279355,0.115437 -0.460754,0.388292 -0.460754,0.689124 h -0.702615 c -0.005,0.01549 -0.0077,0.02945 -0.01199,0.04497 -0.0055,0.02901 -0.01348,0.06046 -0.01948,0.08995 -0.0022,0.0195 -0.005,0.03898 -0.0055,0.05846 -0.0038,0.02901 -0.0071,0.05843 -0.0095,0.08743 -0.0022,0.03148 -0.005,0.06298 -0.005,0.09395 h 0.753585 c 0,-0.02346 0.0022,-0.047 0.0049,-0.07042 0.02496,-0.274846 0.200891,-0.51322 0.456749,-0.618657 0.276849,-0.114941 0.599173,-0.05045 0.812057,0.161911 0.09342,0.09395 0.159912,0.210883 0.192894,0.339813 0.06643,-0.255863 -0.0051,-0.527212 -0.192896,-0.71461 -0.138954,-0.138426 -0.326352,-0.216387 -0.521245,-0.218389 z m 1.479693,0.932995 c -0.01596,0.132921 -0.05097,0.263348 -0.101447,0.386286 -0.23037,0.560687 -0.77707,0.925489 -1.384244,0.925489 v -0.0022 H 11.238 c 0,0.0022 0,0.0022 0,0.005 0,0.200889 0.155913,0.359303 0.353306,0.370796 h 4.893823 v -0.0049 c 0.03898,0 0.07796,0 0.116933,0.0049 h 2.881421 v 0.0022 c 0.607174,0 1.153874,-0.364801 1.385743,-0.925494 0.09595,-0.231874 0.130933,-0.483735 0.103446,-0.733602 0,0 0,-0.0022 0,-0.0022 -0.0016,-0.0077 -0.0016,-0.0155 -0.0038,-0.02547 z m -8.98158,2.434159 c 0,0 0,0.0022 0,0.0022 0,0.202888 0.161908,0.366798 0.363298,0.372794 h 4.134237 c 0.300834,0 0.573691,0.181403 0.689118,0.45875 0.01149,0.03298 0.02347,0.06645 0.03097,0.09944 0.041,-0.157912 0.03147,-0.323822 -0.03097,-0.47424 -0.115427,-0.27738 -0.388284,-0.458782 -0.689118,-0.458782 z m 5.983224,0.938991 c -0.04296,0.327821 -0.191397,0.63265 -0.42577,0.866522 -0.42927,0.42777 -1.073412,0.556698 -1.633611,0.324325 -0.433763,-0.179906 -0.755583,-0.552701 -0.874515,-1.005446 h -0.05097 c 0.0022,0.605172 0.366799,1.149872 0.925491,1.380235 0.560197,0.232382 1.20434,0.103454 1.63361,-0.324318 0.1779,-0.177401 0.308325,-0.398283 0.378794,-0.638145 0.01351,-0.047 0.02548,-0.09343 0.03501,-0.142431 0,0 0,-0.0022 0,-0.005 0.0077,-0.047 0.01552,-0.09544 0.01947,-0.142421 0.005,-0.03898 0.0055,-0.07797 0.0055,-0.116934 0,-0.05097 -0.0022,-0.101949 -0.0077,-0.150422 -0.0022,-0.0155 -0.0038,-0.03148 -0.0051,-0.047 z"
     style="fill:#000000;fill-opacity:0.22745;fill-rule:nonzero;stroke:none;stroke-width:0.499721" />
</svg>
