<?xml version="1.0" encoding="UTF-8" standalone="no"?>
<svg
   width="32"
   height="32"
   version="1.1"
   id="svg11"
   sodipodi:docname="weather-storm-tornado.svg"
   inkscape:version="1.4.1 (unknown)"
   xmlns:inkscape="http://www.inkscape.org/namespaces/inkscape"
   xmlns:sodipodi="http://sodipodi.sourceforge.net/DTD/sodipodi-0.dtd"
   xmlns:xlink="http://www.w3.org/1999/xlink"
   xmlns="http://www.w3.org/2000/svg"
   xmlns:svg="http://www.w3.org/2000/svg">
  <style
     id="current-color-scheme"
     type="text/css">
   .ColorScheme-Text { color:#dedede; }
</style>
  <sodipodi:namedview
     id="namedview13"
     pagecolor="#ffffff"
     bordercolor="#666666"
     borderopacity="1.0"
     inkscape:showpageshadow="2"
     inkscape:pageopacity="0.0"
     inkscape:pagecheckerboard="0"
     inkscape:deskcolor="#d1d1d1"
     showgrid="false"
     inkscape:zoom="7.375"
     inkscape:cx="16.135593"
     inkscape:cy="16.135593"
     inkscape:window-width="1920"
     inkscape:window-height="998"
     inkscape:window-x="0"
     inkscape:window-y="0"
     inkscape:window-maximized="1"
     inkscape:current-layer="svg11" />
  <defs
     id="defs7">
    <linearGradient
       id="linearGradient1"
       inkscape:collect="always">
      <stop
         style="stop-color:#4d4d4d;stop-opacity:1;"
         offset="0"
         id="stop1" />
      <stop
         style="stop-color:#999999;stop-opacity:1;"
         offset="1"
         id="stop3" />
    </linearGradient>
    <linearGradient
       id="linearGradient5478"
       x1="6"
       x2="26"
       y1="16"
       y2="16"
       gradientUnits="userSpaceOnUse">
      <stop
         stop-color="#f9f9f9"
         offset="0"
         id="stop2" />
      <stop
         stop-color="#b3b3b3"
         offset="1"
         id="stop4" />
    </linearGradient>
    <linearGradient
       inkscape:collect="always"
       xlink:href="#linearGradient1"
       id="linearGradient3"
       x1="20.237288"
       y1="25"
       x2="20.169491"
       y2="7"
       gradientUnits="userSpaceOnUse" />
  </defs>
  <path
     d="m7 7a1 1 0 1 0 0 2h18a1 1 0 1 0 0-2zm3 4a1 1 0 1 0 0 2h12a1 1 0 1 0 0-2zm3 4a1 1 0 1 0 0 2h10a1 1 0 1 0 0-2zm1 4a1 1 0 1 0 0 2h5a1 1 0 1 0 0-2zm0 4a1 1 0 1 0 0 2h1a1 1 0 1 0 0-2z"
     id="path9"
     style="fill-opacity:1;fill:url(#linearGradient3)"
     class="ColorScheme-Text" />
</svg>
