<?xml version="1.0" encoding="UTF-8" standalone="no"?>
<svg
   enable-background="new"
   viewBox="0 0 24 24"
   version="1.1"
   id="svg2"
   sodipodi:docname="weather-severe-alert.svg"
   inkscape:version="1.4 (unknown)"
   xmlns:inkscape="http://www.inkscape.org/namespaces/inkscape"
   xmlns:sodipodi="http://sodipodi.sourceforge.net/DTD/sodipodi-0.dtd"
   xmlns="http://www.w3.org/2000/svg"
   xmlns:svg="http://www.w3.org/2000/svg">
  <defs
     id="defs2">
    <filter
       id="filter0_d_2_27"
       x="321"
       y="431"
       width="272"
       height="216.353"
       filterUnits="userSpaceOnUse"
       color-interpolation-filters="sRGB">
      <feFlood
         flood-opacity="0"
         result="BackgroundImageFix"
         id="feFlood9" />
      <feColorMatrix
         in="SourceAlpha"
         type="matrix"
         values="0 0 0 0 0 0 0 0 0 0 0 0 0 0 0 0 0 0 127 0"
         result="hardAlpha"
         id="feColorMatrix9" />
      <feOffset
         dx="-21"
         dy="15"
         id="feOffset9" />
      <feGaussianBlur
         stdDeviation="25"
         id="feGaussianBlur9" />
      <feComposite
         in2="hardAlpha"
         operator="out"
         id="feComposite9" />
      <feColorMatrix
         type="matrix"
         values="0 0 0 0 0.113438 0 0 0 0 0.148981 0 0 0 0 0.275 0 0 0 0.25 0"
         id="feColorMatrix10" />
      <feBlend
         mode="normal"
         in2="BackgroundImageFix"
         result="effect1_dropShadow_2_27"
         id="feBlend10" />
      <feBlend
         mode="normal"
         in="SourceGraphic"
         in2="effect1_dropShadow_2_27"
         result="shape"
         id="feBlend11" />
    </filter>
    <linearGradient
       id="paint0_linear_2_27"
       x1="486"
       y1="469.5"
       x2="486"
       y2="595.5"
       gradientUnits="userSpaceOnUse">
      <stop
         stop-color="white"
         id="stop15" />
      <stop
         offset="1"
         stop-color="white"
         stop-opacity="0"
         id="stop16" />
    </linearGradient>
    <linearGradient
       id="paint1_linear_2_27"
       x1="478"
       y1="466"
       x2="478"
       y2="582.35303"
       gradientUnits="userSpaceOnUse">
      <stop
         stop-color="white"
         id="stop17" />
      <stop
         offset="1"
         stop-color="white"
         stop-opacity="0"
         id="stop18" />
    </linearGradient>
    <mask
       id="path-1-inside-1_2_27"
       fill="#ffffff">
      <path
         fill-rule="evenodd"
         clip-rule="evenodd"
         d="m 532.563,582.351 c 0.12,10e-4 0.241,0.002 0.361,0.002 17.163,0 31.076,-13.913 31.076,-31.076 0,-17.162 -13.913,-31.075 -31.076,-31.075 -0.12,0 -0.241,0 -0.361,0.002 v -0.002 h -8.028 c 0.29,-2.127 0.44,-4.298 0.44,-6.505 0,-26.342 -21.355,-47.697 -47.698,-47.697 -26.342,0 -47.697,21.355 -47.697,47.697 0,2.486 0.19,4.927 0.556,7.31 -2.268,-0.527 -4.632,-0.805 -7.06,-0.805 -17.163,0 -31.076,13.913 -31.076,31.075 0,17.163 13.913,31.076 31.076,31.076 0.121,0 0.242,-10e-4 0.363,-0.002 l -0.002,0.002 h 109.126 z"
         id="path1-1" />
    </mask>
    <filter
       id="filter1_d_2_27"
       x="361"
       y="466"
       width="338"
       height="261"
       filterUnits="userSpaceOnUse"
       color-interpolation-filters="sRGB">
      <feFlood
         flood-opacity="0"
         result="BackgroundImageFix"
         id="feFlood11" />
      <feColorMatrix
         in="SourceAlpha"
         type="matrix"
         values="0 0 0 0 0 0 0 0 0 0 0 0 0 0 0 0 0 0 127 0"
         result="hardAlpha"
         id="feColorMatrix11" />
      <feOffset
         dx="-21"
         dy="15"
         id="feOffset11" />
      <feGaussianBlur
         stdDeviation="25"
         id="feGaussianBlur11" />
      <feComposite
         in2="hardAlpha"
         operator="out"
         id="feComposite11" />
      <feColorMatrix
         type="matrix"
         values="0 0 0 0 0.113725 0 0 0 0 0.14902 0 0 0 0 0.27451 0 0 0 0.25 0"
         id="feColorMatrix12" />
      <feBlend
         mode="normal"
         in2="BackgroundImageFix"
         result="effect1_dropShadow_2_27"
         id="feBlend12" />
      <feBlend
         mode="normal"
         in="SourceGraphic"
         in2="effect1_dropShadow_2_27"
         result="shape"
         id="feBlend13" />
    </filter>
    <linearGradient
       id="paint2_linear_2_27"
       x1="551"
       y1="449.5"
       x2="551"
       y2="684.5"
       gradientUnits="userSpaceOnUse">
      <stop
         stop-color="white"
         id="stop19" />
      <stop
         offset="1"
         stop-color="white"
         stop-opacity="0"
         id="stop20" />
    </linearGradient>
    <linearGradient
       id="paint3_linear_2_27"
       x1="551"
       y1="501"
       x2="551"
       y2="662"
       gradientUnits="userSpaceOnUse">
      <stop
         stop-color="white"
         id="stop21" />
      <stop
         offset="1"
         stop-color="white"
         stop-opacity="0"
         id="stop22" />
    </linearGradient>
    <mask
       id="path-3-inside-2_2_27"
       fill="#ffffff">
      <path
         fill-rule="evenodd"
         clip-rule="evenodd"
         d="m 626.5,661.997 c 0.166,0.002 0.333,0.003 0.5,0.003 23.748,0 43,-19.252 43,-43 0,-23.748 -19.252,-43 -43,-43 -0.167,0 -0.334,10e-4 -0.5,0.003 V 576 h -11.109 c 0.402,-2.943 0.609,-5.947 0.609,-9 0,-36.451 -29.549,-66 -66,-66 -36.451,0 -66,29.549 -66,66 0,3.439 0.263,6.817 0.77,10.115 C 481.631,576.386 478.361,576 475,576 c -23.748,0 -43,19.252 -43,43 0,23.748 19.252,43 43,43 0.168,0 0.335,-10e-4 0.502,-0.003 L 475.5,662 h 151 z"
         id="path4" />
    </mask>
    <filter
       id="filter2_d_2_27"
       x="493"
       y="466"
       width="272"
       height="216.353"
       filterUnits="userSpaceOnUse"
       color-interpolation-filters="sRGB">
      <feFlood
         flood-opacity="0"
         result="BackgroundImageFix"
         id="feFlood13" />
      <feColorMatrix
         in="SourceAlpha"
         type="matrix"
         values="0 0 0 0 0 0 0 0 0 0 0 0 0 0 0 0 0 0 127 0"
         result="hardAlpha"
         id="feColorMatrix13" />
      <feOffset
         dx="-21"
         dy="15"
         id="feOffset13" />
      <feGaussianBlur
         stdDeviation="25"
         id="feGaussianBlur13" />
      <feComposite
         in2="hardAlpha"
         operator="out"
         id="feComposite13" />
      <feColorMatrix
         type="matrix"
         values="0 0 0 0 0.113438 0 0 0 0 0.148981 0 0 0 0 0.275 0 0 0 0.25 0"
         id="feColorMatrix14" />
      <feBlend
         mode="normal"
         in2="BackgroundImageFix"
         result="effect1_dropShadow_2_27"
         id="feBlend14" />
      <feBlend
         mode="normal"
         in="SourceGraphic"
         in2="effect1_dropShadow_2_27"
         result="shape"
         id="feBlend15" />
    </filter>
    <linearGradient
       id="paint4_linear_2_27"
       x1="658"
       y1="504.5"
       x2="658"
       y2="630.5"
       gradientUnits="userSpaceOnUse">
      <stop
         stop-color="white"
         id="stop23" />
      <stop
         offset="1"
         stop-color="white"
         stop-opacity="0"
         id="stop24" />
    </linearGradient>
    <linearGradient
       id="paint5_linear_2_27"
       x1="650"
       y1="501"
       x2="650"
       y2="617.35303"
       gradientUnits="userSpaceOnUse">
      <stop
         stop-color="white"
         id="stop25" />
      <stop
         offset="1"
         stop-color="white"
         stop-opacity="0"
         id="stop26" />
    </linearGradient>
    <mask
       id="path-5-inside-3_2_27"
       fill="#ffffff">
      <path
         fill-rule="evenodd"
         clip-rule="evenodd"
         d="m 704.563,617.351 c 0.12,10e-4 0.241,0.002 0.361,0.002 17.163,0 31.076,-13.913 31.076,-31.076 0,-17.162 -13.913,-31.075 -31.076,-31.075 -0.12,0 -0.241,0 -0.361,0.002 v -0.002 h -8.028 c 0.29,-2.127 0.44,-4.298 0.44,-6.505 0,-26.342 -21.355,-47.697 -47.698,-47.697 -26.342,0 -47.697,21.355 -47.697,47.697 0,2.486 0.19,4.927 0.556,7.31 -2.268,-0.527 -4.632,-0.805 -7.06,-0.805 -17.163,0 -31.076,13.913 -31.076,31.075 0,17.163 13.913,31.076 31.076,31.076 0.121,0 0.242,-10e-4 0.363,-0.002 l -0.002,0.002 h 109.126 z"
         id="path7" />
    </mask>
  </defs>
  <sodipodi:namedview
     id="namedview2"
     pagecolor="#ffffff"
     bordercolor="#000000"
     borderopacity="0.25"
     inkscape:showpageshadow="2"
     inkscape:pageopacity="0.0"
     inkscape:pagecheckerboard="0"
     inkscape:deskcolor="#d1d1d1"
     inkscape:zoom="16.104167"
     inkscape:cx="10.680465"
     inkscape:cy="15.368693"
     inkscape:window-width="1920"
     inkscape:window-height="996"
     inkscape:window-x="0"
     inkscape:window-y="0"
     inkscape:window-maximized="1"
     inkscape:current-layer="svg2" />
  <g
     id="g26"
     transform="matrix(0.42857143,0,0,0.42857143,-140.0268,-181.71428)">
    <g
       filter="url(#filter0_d_2_27)"
       data-figma-bg-blur-radius="14"
       id="g3"
       transform="matrix(0.14189189,0,0,0.14189189,275.4527,369.84459)">
      <mask
         id="mask2"
         fill="#ffffff">
        <path
           fill-rule="evenodd"
           clip-rule="evenodd"
           d="m 532.563,582.351 c 0.12,10e-4 0.241,0.002 0.361,0.002 17.163,0 31.076,-13.913 31.076,-31.076 0,-17.162 -13.913,-31.075 -31.076,-31.075 -0.12,0 -0.241,0 -0.361,0.002 v -0.002 h -8.028 c 0.29,-2.127 0.44,-4.298 0.44,-6.505 0,-26.342 -21.355,-47.697 -47.698,-47.697 -26.342,0 -47.697,21.355 -47.697,47.697 0,2.486 0.19,4.927 0.556,7.31 -2.268,-0.527 -4.632,-0.805 -7.06,-0.805 -17.163,0 -31.076,13.913 -31.076,31.075 0,17.163 13.913,31.076 31.076,31.076 0.121,0 0.242,-10e-4 0.363,-0.002 l -0.002,0.002 h 109.126 z"
           id="path2-3" />
      </mask>
      <path
         fill-rule="evenodd"
         clip-rule="evenodd"
         d="m 532.563,582.351 c 0.12,10e-4 0.241,0.002 0.361,0.002 17.163,0 31.076,-13.913 31.076,-31.076 0,-17.162 -13.913,-31.075 -31.076,-31.075 -0.12,0 -0.241,0 -0.361,0.002 v -0.002 h -8.028 c 0.29,-2.127 0.44,-4.298 0.44,-6.505 0,-26.342 -21.355,-47.697 -47.698,-47.697 -26.342,0 -47.697,21.355 -47.697,47.697 0,2.486 0.19,4.927 0.556,7.31 -2.268,-0.527 -4.632,-0.805 -7.06,-0.805 -17.163,0 -31.076,13.913 -31.076,31.075 0,17.163 13.913,31.076 31.076,31.076 0.121,0 0.242,-10e-4 0.363,-0.002 l -0.002,0.002 h 109.126 z"
         shape-rendering="crispEdges"
         id="path3"
         style="fill:url(#paint0_linear_2_27)" />
      <path
         d="m 532.563,582.351 0.023,-2 c -0.534,-0.006 -1.049,0.202 -1.429,0.578 -0.38,0.375 -0.594,0.887 -0.594,1.422 z m 0,-62.147 h -2 c 0,0.534 0.214,1.046 0.594,1.422 0.38,0.376 0.894,0.584 1.429,0.578 z m 0,-0.002 h 2 c 0,-1.105 -0.895,-2 -2,-2 z m -8.028,0 -1.982,-0.271 c -0.078,0.573 0.096,1.151 0.475,1.586 0.38,0.435 0.929,0.685 1.507,0.685 z m -94.399,0.805 -0.452,1.948 c 0.646,0.151 1.325,-0.03 1.812,-0.481 0.487,-0.451 0.718,-1.115 0.617,-1.771 z m -6.697,61.344 1.569,1.239 c 0.478,-0.605 0.565,-1.43 0.225,-2.122 -0.34,-0.691 -1.047,-1.126 -1.817,-1.117 z m -0.002,0.002 -1.57,-1.239 c -0.475,0.601 -0.564,1.421 -0.23,2.111 0.334,0.69 1.033,1.128 1.8,1.128 z m 109.126,0 v 2 c 1.105,0 2,-0.895 2,-2 z m -0.023,1.998 c 0.128,10e-4 0.256,0.002 0.384,0.002 v -4 c -0.113,0 -0.225,-10e-4 -0.338,-0.002 z m 0.384,0.002 c 18.268,0 33.076,-14.809 33.076,-33.076 h -4 c 0,16.058 -13.018,29.076 -29.076,29.076 z M 566,551.277 c 0,-18.267 -14.808,-33.075 -33.076,-33.075 v 4 c 16.058,0 29.076,13.017 29.076,29.075 z m -33.076,-33.075 c -0.128,0 -0.256,0 -0.384,0.002 l 0.046,4 c 0.113,-0.002 0.225,-0.002 0.338,-0.002 z m -2.361,2 v 0.002 h 4 v -0.002 z m -6.028,2 h 8.028 v -4 h -8.028 z m 1.982,-1.73 c 0.302,-2.216 0.458,-4.478 0.458,-6.775 h -4 c 0,2.116 -0.144,4.197 -0.422,6.234 z m 0.458,-6.775 C 526.975,486.25 504.724,464 477.277,464 v 4 c 25.238,0 45.698,20.459 45.698,45.697 z M 477.277,464 c -27.447,0 -49.697,22.25 -49.697,49.697 h 4 C 431.58,488.459 452.039,468 477.277,468 Z m -49.697,49.697 c 0,2.588 0.198,5.131 0.58,7.614 l 3.953,-0.608 c -0.351,-2.282 -0.533,-4.622 -0.533,-7.006 z m 3.009,5.362 c -2.416,-0.561 -4.931,-0.857 -7.513,-0.857 v 4 c 2.275,0 4.487,0.261 6.608,0.753 z m -7.513,-0.857 C 404.808,518.202 390,533.01 390,551.277 h 4 c 0,-16.058 13.018,-29.075 29.076,-29.075 z M 390,551.277 c 0,18.267 14.808,33.076 33.076,33.076 v -4 C 407.018,580.353 394,567.335 394,551.277 Z m 33.076,33.076 c 0.128,0 0.257,-10e-4 0.385,-0.002 l -0.045,-4 c -0.113,10e-4 -0.227,0.002 -0.34,0.002 z m 1.931,-0.761 10e-4,-0.002 -3.139,-2.478 -0.002,0.002 z m 107.556,-3.239 H 423.437 v 4 h 109.126 z m -2,1.998 v 0.002 h 4 v -0.002 z"
         id="path5"
         style="fill:url(#paint1_linear_2_27)" />
    </g>
    <g
       filter="url(#filter1_d_2_27)"
       data-figma-bg-blur-radius="14"
       id="g6"
       transform="matrix(0.14189189,0,0,0.14189189,275.4527,369.84459)">
      <mask
         id="mask6"
         fill="#ffffff">
        <path
           fill-rule="evenodd"
           clip-rule="evenodd"
           d="m 626.5,661.997 c 0.166,0.002 0.333,0.003 0.5,0.003 23.748,0 43,-19.252 43,-43 0,-23.748 -19.252,-43 -43,-43 -0.167,0 -0.334,10e-4 -0.5,0.003 V 576 h -11.109 c 0.402,-2.943 0.609,-5.947 0.609,-9 0,-36.451 -29.549,-66 -66,-66 -36.451,0 -66,29.549 -66,66 0,3.439 0.263,6.817 0.77,10.115 C 481.631,576.386 478.361,576 475,576 c -23.748,0 -43,19.252 -43,43 0,23.748 19.252,43 43,43 0.168,0 0.335,-10e-4 0.502,-0.003 L 475.5,662 h 151 z"
           id="path6" />
      </mask>
      <path
         fill-rule="evenodd"
         clip-rule="evenodd"
         d="m 626.5,661.997 c 0.166,0.002 0.333,0.003 0.5,0.003 23.748,0 43,-19.252 43,-43 0,-23.748 -19.252,-43 -43,-43 -0.167,0 -0.334,10e-4 -0.5,0.003 V 576 h -11.109 c 0.402,-2.943 0.609,-5.947 0.609,-9 0,-36.451 -29.549,-66 -66,-66 -36.451,0 -66,29.549 -66,66 0,3.439 0.263,6.817 0.77,10.115 C 481.631,576.386 478.361,576 475,576 c -23.748,0 -43,19.252 -43,43 0,23.748 19.252,43 43,43 0.168,0 0.335,-10e-4 0.502,-0.003 L 475.5,662 h 151 z"
         shape-rendering="crispEdges"
         id="path8"
         style="fill:url(#paint2_linear_2_27)" />
      <path
         d="m 626.5,661.997 0.023,-2 c -0.535,-0.006 -1.049,0.202 -1.429,0.578 -0.38,0.376 -0.594,0.888 -0.594,1.422 z m 0,-85.994 h -2 c 0,0.534 0.214,1.046 0.594,1.422 0.38,0.376 0.894,0.584 1.429,0.578 z m 0,-0.003 h 2 c 0,-1.105 -0.895,-2 -2,-2 z m -11.109,0 -1.981,-0.27 c -0.078,0.572 0.095,1.15 0.475,1.585 0.38,0.435 0.929,0.685 1.506,0.685 z m -130.621,1.115 -0.452,1.948 c 0.646,0.15 1.325,-0.03 1.812,-0.481 0.487,-0.452 0.718,-1.115 0.617,-1.771 z m -9.268,84.882 1.57,1.24 c 0.477,-0.605 0.565,-1.43 0.225,-2.122 -0.34,-0.692 -1.047,-1.127 -1.818,-1.118 z M 475.5,662 l -1.569,-1.24 c -0.476,0.602 -0.565,1.422 -0.231,2.112 0.334,0.69 1.033,1.128 1.8,1.128 z m 151,0 v 2 c 1.105,0 2,-0.895 2,-2 z m -0.023,1.997 c 0.174,0.002 0.348,0.003 0.523,0.003 v -4 c -0.159,0 -0.318,-10e-4 -0.477,-0.003 z M 627,664 c 24.853,0 45,-20.147 45,-45 h -4 c 0,22.644 -18.356,41 -41,41 z m 45,-45 c 0,-24.853 -20.147,-45 -45,-45 v 4 c 22.644,0 41,18.356 41,41 z m -45,-45 c -0.174,0 -0.349,10e-4 -0.523,0.003 l 0.046,4 C 626.682,578.001 626.841,578 627,578 Z m -2.5,2 v 0.003 h 4 V 576 Z m -9.109,2 H 626.5 v -4 h -11.109 z m 1.982,-1.73 C 617.787,573.238 618,570.143 618,567 h -4 c 0,2.962 -0.201,5.876 -0.59,8.73 z M 618,567 c 0,-37.555 -30.445,-68 -68,-68 v 4 c 35.346,0 64,28.654 64,64 z m -68,-68 c -37.555,0 -68,30.445 -68,68 h 4 c 0,-35.346 28.654,-64 64,-64 z m -68,68 c 0,3.542 0.271,7.021 0.793,10.419 l 3.954,-0.608 C 486.255,573.614 486,570.337 486,567 Z m 3.223,8.167 C 481.937,574.403 478.514,574 475,574 v 4 c 3.207,0 6.326,0.368 9.318,1.063 z M 475,574 c -24.853,0 -45,20.147 -45,45 h 4 c 0,-22.644 18.356,-41 41,-41 z m -45,45 c 0,24.853 20.147,45 45,45 v -4 c -22.644,0 -41,-18.356 -41,-41 z m 45,45 c 0.175,0 0.35,-10e-4 0.525,-0.003 l -0.046,-4 C 475.32,659.999 475.16,660 475,660 Z m 2.069,-0.76 0.003,-0.003 -3.139,-2.48 -0.002,0.003 z M 626.5,660 h -151 v 4 h 151 z m -2,1.997 V 662 h 4 v -0.003 z"
         id="path9"
         style="fill:url(#paint3_linear_2_27)" />
    </g>
    <g
       filter="url(#filter2_d_2_27)"
       data-figma-bg-blur-radius="14"
       id="g9"
       transform="matrix(0.14189189,0,0,0.14189189,275.4527,369.84459)">
      <mask
         id="mask10"
         fill="#ffffff">
        <path
           fill-rule="evenodd"
           clip-rule="evenodd"
           d="m 704.563,617.351 c 0.12,10e-4 0.241,0.002 0.361,0.002 17.163,0 31.076,-13.913 31.076,-31.076 0,-17.162 -13.913,-31.075 -31.076,-31.075 -0.12,0 -0.241,0 -0.361,0.002 v -0.002 h -8.028 c 0.29,-2.127 0.44,-4.298 0.44,-6.505 0,-26.342 -21.355,-47.697 -47.698,-47.697 -26.342,0 -47.697,21.355 -47.697,47.697 0,2.486 0.19,4.927 0.556,7.31 -2.268,-0.527 -4.632,-0.805 -7.06,-0.805 -17.163,0 -31.076,13.913 -31.076,31.075 0,17.163 13.913,31.076 31.076,31.076 0.121,0 0.242,-10e-4 0.363,-0.002 l -0.002,0.002 h 109.126 z"
           id="path10" />
      </mask>
      <path
         fill-rule="evenodd"
         clip-rule="evenodd"
         d="m 704.563,617.351 c 0.12,10e-4 0.241,0.002 0.361,0.002 17.163,0 31.076,-13.913 31.076,-31.076 0,-17.162 -13.913,-31.075 -31.076,-31.075 -0.12,0 -0.241,0 -0.361,0.002 v -0.002 h -8.028 c 0.29,-2.127 0.44,-4.298 0.44,-6.505 0,-26.342 -21.355,-47.697 -47.698,-47.697 -26.342,0 -47.697,21.355 -47.697,47.697 0,2.486 0.19,4.927 0.556,7.31 -2.268,-0.527 -4.632,-0.805 -7.06,-0.805 -17.163,0 -31.076,13.913 -31.076,31.075 0,17.163 13.913,31.076 31.076,31.076 0.121,0 0.242,-10e-4 0.363,-0.002 l -0.002,0.002 h 109.126 z"
         shape-rendering="crispEdges"
         id="path11"
         style="fill:url(#paint4_linear_2_27)" />
      <path
         d="m 704.563,617.351 0.023,-2 c -0.534,-0.006 -1.049,0.202 -1.429,0.578 -0.38,0.375 -0.594,0.887 -0.594,1.422 z m 0,-62.147 h -2 c 0,0.534 0.214,1.046 0.594,1.422 0.38,0.376 0.894,0.584 1.429,0.578 z m 0,-0.002 h 2 c 0,-1.105 -0.895,-2 -2,-2 z m -8.028,0 -1.982,-0.271 c -0.078,0.573 0.096,1.151 0.475,1.586 0.38,0.435 0.929,0.685 1.507,0.685 z m -94.399,0.805 -0.452,1.948 c 0.646,0.151 1.325,-0.03 1.812,-0.481 0.487,-0.451 0.718,-1.115 0.617,-1.771 z m -6.697,61.344 1.569,1.239 c 0.478,-0.605 0.565,-1.43 0.225,-2.122 -0.34,-0.691 -1.047,-1.126 -1.817,-1.117 z m -0.002,0.002 -1.57,-1.239 c -0.475,0.601 -0.564,1.421 -0.23,2.111 0.334,0.69 1.033,1.128 1.8,1.128 z m 109.126,0 v 2 c 1.105,0 2,-0.895 2,-2 z m -0.023,1.998 c 0.128,10e-4 0.256,0.002 0.384,0.002 v -4 c -0.113,0 -0.225,-10e-4 -0.338,-0.002 z m 0.384,0.002 c 18.268,0 33.076,-14.809 33.076,-33.076 h -4 c 0,16.058 -13.018,29.076 -29.076,29.076 z M 738,586.277 c 0,-18.267 -14.808,-33.075 -33.076,-33.075 v 4 c 16.058,0 29.076,13.017 29.076,29.075 z m -33.076,-33.075 c -0.128,0 -0.256,0 -0.384,0.002 l 0.046,4 c 0.113,-0.002 0.225,-0.002 0.338,-0.002 z m -2.361,2 v 0.002 h 4 v -0.002 z m -6.028,2 h 8.028 v -4 h -8.028 z m 1.982,-1.73 c 0.302,-2.216 0.458,-4.478 0.458,-6.775 h -4 c 0,2.116 -0.144,4.197 -0.422,6.234 z m 0.458,-6.775 C 698.975,521.25 676.724,499 649.277,499 v 4 c 25.238,0 45.698,20.459 45.698,45.697 z M 649.277,499 c -27.447,0 -49.697,22.25 -49.697,49.697 h 4 C 603.58,523.459 624.039,503 649.277,503 Z m -49.697,49.697 c 0,2.588 0.198,5.131 0.58,7.614 l 3.953,-0.608 c -0.351,-2.282 -0.533,-4.622 -0.533,-7.006 z m 3.009,5.362 c -2.416,-0.561 -4.931,-0.857 -7.513,-0.857 v 4 c 2.275,0 4.487,0.261 6.608,0.753 z m -7.513,-0.857 C 576.808,553.202 562,568.01 562,586.277 h 4 c 0,-16.058 13.018,-29.075 29.076,-29.075 z M 562,586.277 c 0,18.267 14.808,33.076 33.076,33.076 v -4 C 579.018,615.353 566,602.335 566,586.277 Z m 33.076,33.076 c 0.128,0 0.257,-10e-4 0.385,-0.002 l -0.045,-4 c -0.113,10e-4 -0.227,0.002 -0.34,0.002 z m 1.931,-0.761 0.001,-0.002 -3.139,-2.478 -0.002,0.002 z m 107.556,-3.239 H 595.437 v 4 h 109.126 z m -2,1.998 v 0.002 h 4 v -0.002 z"
         id="path12"
         style="fill:url(#paint5_linear_2_27)" />
    </g>
  </g>
  <path
     d="m 17.678711,11.047 0.272222,6.53333 h 1.633339 L 19.856489,11.047 Z m 0,7.622222 V 20.847 h 2.177778 v -2.177778 z"
     id="path2"
     style="fill:#c83771;stroke-width:0.54444" />
</svg>
