<?xml version="1.0" encoding="UTF-8" standalone="no"?>
<svg
   width="32"
   height="32"
   viewBox="0 0 24 24"
   version="1.1"
   id="svg2"
   sodipodi:docname="weather-few-clouds-night.svg"
   inkscape:version="1.4 (unknown)"
   xmlns:inkscape="http://www.inkscape.org/namespaces/inkscape"
   xmlns:sodipodi="http://sodipodi.sourceforge.net/DTD/sodipodi-0.dtd"
   xmlns="http://www.w3.org/2000/svg"
   xmlns:svg="http://www.w3.org/2000/svg">
  <defs
     id="defs2">
    <filter
       id="filter0_dd_2_322"
       x="464.09799"
       y="422.41199"
       width="264.22"
       height="264.41"
       filterUnits="userSpaceOnUse"
       color-interpolation-filters="sRGB">
      <feFlood
         flood-opacity="0"
         result="BackgroundImageFix"
         id="feFlood6" />
      <feColorMatrix
         in="SourceAlpha"
         type="matrix"
         values="0 0 0 0 0 0 0 0 0 0 0 0 0 0 0 0 0 0 127 0"
         result="hardAlpha"
         id="feColorMatrix6" />
      <feOffset
         dx="-21"
         dy="15"
         id="feOffset6" />
      <feGaussianBlur
         stdDeviation="25"
         id="feGaussianBlur6" />
      <feComposite
         in2="hardAlpha"
         operator="out"
         id="feComposite6" />
      <feColorMatrix
         type="matrix"
         values="0 0 0 0 0.113438 0 0 0 0 0.148981 0 0 0 0 0.275 0 0 0 0.25 0"
         id="feColorMatrix7" />
      <feBlend
         mode="normal"
         in2="BackgroundImageFix"
         result="effect1_dropShadow_2_322"
         id="feBlend7" />
      <feColorMatrix
         in="SourceAlpha"
         type="matrix"
         values="0 0 0 0 0 0 0 0 0 0 0 0 0 0 0 0 0 0 127 0"
         result="hardAlpha"
         id="feColorMatrix8" />
      <feOffset
         id="feOffset8" />
      <feGaussianBlur
         stdDeviation="19"
         id="feGaussianBlur8" />
      <feComposite
         in2="hardAlpha"
         operator="out"
         id="feComposite8" />
      <feColorMatrix
         type="matrix"
         values="0 0 0 0 0.619608 0 0 0 0 0.423529 0 0 0 0 1 0 0 0 0.4 0"
         id="feColorMatrix9" />
      <feBlend
         mode="normal"
         in2="effect1_dropShadow_2_322"
         result="effect2_dropShadow_2_322"
         id="feBlend9" />
      <feBlend
         mode="normal"
         in="SourceGraphic"
         in2="effect2_dropShadow_2_322"
         result="shape"
         id="feBlend10" />
    </filter>
    <linearGradient
       id="paint0_linear_2_322"
       x1="563.961"
       y1="477.98901"
       x2="638.15198"
       y2="622.22699"
       gradientUnits="userSpaceOnUse">
      <stop
         offset="0.0001"
         stop-color="#D4C0FF"
         id="stop12" />
      <stop
         offset="1"
         stop-color="#7E2FFF"
         id="stop13" />
    </linearGradient>
    <linearGradient
       id="paint1_linear_2_322"
       x1="572.03802"
       y1="398.677"
       x2="618.18298"
       y2="587.979"
       gradientUnits="userSpaceOnUse">
      <stop
         stop-color="white"
         id="stop14" />
      <stop
         offset="1"
         stop-color="white"
         stop-opacity="0"
         id="stop15" />
    </linearGradient>
    <mask
       id="path-1-inside-1_2_322"
       fill="#ffffff">
      <path
         fill-rule="evenodd"
         clip-rule="evenodd"
         d="m 604.339,460.456 c 3.453,-0.512 5.514,3.562 3.604,6.484 -12.939,19.798 -15.162,45.796 -3.57,68.331 15.295,29.736 49.483,43.411 80.363,33.906 3.339,-1.028 6.685,2.084 5.234,5.263 -7.299,15.984 -19.821,29.722 -36.659,38.383 -39.83,20.488 -88.728,4.807 -109.215,-35.023 -20.488,-39.83 -4.807,-88.727 35.023,-109.215 8.135,-4.184 16.648,-6.86 25.22,-8.129 z"
         id="path1" />
    </mask>
    <filter
       id="filter1_d_2_322"
       x="357"
       y="501.47198"
       width="316.04501"
       height="246.14799"
       filterUnits="userSpaceOnUse"
       color-interpolation-filters="sRGB">
      <feFlood
         flood-opacity="0"
         result="BackgroundImageFix"
         id="feFlood10" />
      <feColorMatrix
         in="SourceAlpha"
         type="matrix"
         values="0 0 0 0 0 0 0 0 0 0 0 0 0 0 0 0 0 0 127 0"
         result="hardAlpha"
         id="feColorMatrix10" />
      <feOffset
         dx="-21"
         dy="15"
         id="feOffset10" />
      <feGaussianBlur
         stdDeviation="25"
         id="feGaussianBlur10" />
      <feComposite
         in2="hardAlpha"
         operator="out"
         id="feComposite10" />
      <feColorMatrix
         type="matrix"
         values="0 0 0 0 0.113438 0 0 0 0 0.148981 0 0 0 0 0.275 0 0 0 0.25 0"
         id="feColorMatrix11" />
      <feBlend
         mode="normal"
         in2="BackgroundImageFix"
         result="effect1_dropShadow_2_322"
         id="feBlend11" />
      <feBlend
         mode="normal"
         in="SourceGraphic"
         in2="effect1_dropShadow_2_322"
         result="shape"
         id="feBlend12" />
    </filter>
    <linearGradient
       id="paint2_linear_2_322"
       x1="546.07098"
       y1="540.86798"
       x2="546.07098"
       y2="699.13397"
       gradientUnits="userSpaceOnUse">
      <stop
         stop-color="white"
         id="stop16" />
      <stop
         offset="1"
         stop-color="white"
         stop-opacity="0"
         id="stop17" />
    </linearGradient>
    <linearGradient
       id="paint3_linear_2_322"
       x1="536.02197"
       y1="536.47198"
       x2="536.02197"
       y2="682.62"
       gradientUnits="userSpaceOnUse">
      <stop
         stop-color="white"
         id="stop18" />
      <stop
         offset="1"
         stop-color="white"
         stop-opacity="0"
         id="stop19" />
    </linearGradient>
    <mask
       id="path-3-inside-2_2_322"
       fill="#ffffff">
      <path
         fill-rule="evenodd"
         clip-rule="evenodd"
         d="m 604.556,682.617 c 0.152,0.002 0.303,0.003 0.455,0.003 21.558,0 39.034,-17.476 39.034,-39.033 0,-21.558 -17.476,-39.033 -39.034,-39.033 -0.152,0 -0.303,0 -0.455,0.002 v -0.002 h -10.083 c 0.365,-2.672 0.553,-5.399 0.553,-8.171 0,-33.088 -26.824,-59.911 -59.912,-59.911 -33.088,0 -59.911,26.823 -59.911,59.911 0,3.123 0.239,6.189 0.699,9.183 -2.849,-0.662 -5.818,-1.012 -8.869,-1.012 -21.557,0 -39.033,17.475 -39.033,39.033 0,21.557 17.476,39.033 39.033,39.033 0.152,0 0.304,-10e-4 0.455,-0.003 l -0.002,0.003 h 137.07 z"
         id="path4" />
    </mask>
  </defs>
  <sodipodi:namedview
     id="namedview2"
     pagecolor="#ffffff"
     bordercolor="#000000"
     borderopacity="0.25"
     inkscape:showpageshadow="2"
     inkscape:pageopacity="0.0"
     inkscape:pagecheckerboard="0"
     inkscape:deskcolor="#d1d1d1"
     inkscape:zoom="11.90625"
     inkscape:cx="17.091864"
     inkscape:cy="21.543307"
     inkscape:window-width="1920"
     inkscape:window-height="996"
     inkscape:window-x="0"
     inkscape:window-y="0"
     inkscape:window-maximized="1"
     inkscape:current-layer="svg2"
     showgrid="true">
    <inkscape:grid
       id="grid1"
       units="px"
       originx="0"
       originy="0"
       spacingx="0.75"
       spacingy="0.75"
       empcolor="#0099e5"
       empopacity="0.30196078"
       color="#0099e5"
       opacity="0.14901961"
       empspacing="5"
       enabled="true"
       visible="true" />
  </sodipodi:namedview>
  <g
     filter="url(#filter0_dd_2_322)"
     data-figma-bg-blur-radius="14"
     id="g3"
     transform="matrix(0.07149271,0,0,0.07149271,-27.834171,-28.099378)">
    <mask
       id="mask2"
       fill="#ffffff">
      <path
         fill-rule="evenodd"
         clip-rule="evenodd"
         d="m 604.339,460.456 c 3.453,-0.512 5.514,3.562 3.604,6.484 -12.939,19.798 -15.162,45.796 -3.57,68.331 15.295,29.736 49.483,43.411 80.363,33.906 3.339,-1.028 6.685,2.084 5.234,5.263 -7.299,15.984 -19.821,29.722 -36.659,38.383 -39.83,20.488 -88.728,4.807 -109.215,-35.023 -20.488,-39.83 -4.807,-88.727 35.023,-109.215 8.135,-4.184 16.648,-6.86 25.22,-8.129 z"
         id="path2" />
    </mask>
    <path
       fill-rule="evenodd"
       clip-rule="evenodd"
       d="m 604.339,460.456 c 3.453,-0.512 5.514,3.562 3.604,6.484 -12.939,19.798 -15.162,45.796 -3.57,68.331 15.295,29.736 49.483,43.411 80.363,33.906 3.339,-1.028 6.685,2.084 5.234,5.263 -7.299,15.984 -19.821,29.722 -36.659,38.383 -39.83,20.488 -88.728,4.807 -109.215,-35.023 -20.488,-39.83 -4.807,-88.727 35.023,-109.215 8.135,-4.184 16.648,-6.86 25.22,-8.129 z"
       id="path3"
       style="fill:url(#paint0_linear_2_322)" />
    <path
       d="m 604.339,460.456 0.293,1.978 z m 1.812,73.901 c -11.249,-21.87 -9.095,-47.102 3.466,-66.322 l -3.348,-2.189 c -13.316,20.376 -15.609,47.14 -3.675,70.34 z m 77.997,32.908 c -29.97,9.225 -63.153,-4.05 -77.997,-32.908 l -3.557,1.829 c 15.746,30.612 50.94,44.687 82.73,34.902 z m 4.002,6.344 c -7.118,15.59 -19.329,28.987 -35.754,37.436 l 1.83,3.557 c 17.251,-8.874 30.085,-22.954 37.563,-39.332 z m -35.754,37.436 c -38.848,19.982 -86.539,4.688 -106.522,-34.16 l -3.557,1.83 c 20.993,40.812 71.096,56.88 111.909,35.887 z m -106.522,-34.16 c -19.982,-38.848 -4.688,-86.539 34.16,-106.521 l -1.83,-3.557 c -40.812,20.992 -56.879,71.095 -35.887,111.908 z m 34.16,-106.521 c 7.937,-4.083 16.24,-6.692 24.598,-7.93 l -0.586,-3.957 c -8.786,1.301 -17.509,4.044 -25.842,8.33 z m 105.29,100.724 c 0.923,-0.284 1.844,0.003 2.428,0.574 0.554,0.541 0.726,1.228 0.398,1.947 l 3.639,1.661 c 1.123,-2.459 0.348,-4.917 -1.243,-6.47 -1.56,-1.524 -3.982,-2.279 -6.398,-1.535 z M 609.617,468.035 c 1.382,-2.115 1.328,-4.65 0.298,-6.57 -1.051,-1.958 -3.196,-3.384 -5.869,-2.988 l 0.586,3.957 c 0.78,-0.115 1.392,0.24 1.758,0.922 0.386,0.719 0.407,1.682 -0.121,2.49 z"
       id="path5"
       style="fill:url(#paint1_linear_2_322)" />
  </g>
  <g
     filter="url(#filter1_d_2_322)"
     data-figma-bg-blur-radius="14"
     id="g6"
     transform="matrix(0.07149271,0,0,0.07149271,-27.834171,-28.699378)">
    <mask
       id="mask6"
       fill="#ffffff">
      <path
         fill-rule="evenodd"
         clip-rule="evenodd"
         d="m 604.556,682.617 c 0.152,0.002 0.303,0.003 0.455,0.003 21.558,0 39.034,-17.476 39.034,-39.033 0,-21.558 -17.476,-39.033 -39.034,-39.033 -0.152,0 -0.303,0 -0.455,0.002 v -0.002 h -10.083 c 0.365,-2.672 0.553,-5.399 0.553,-8.171 0,-33.088 -26.824,-59.911 -59.912,-59.911 -33.088,0 -59.911,26.823 -59.911,59.911 0,3.123 0.239,6.189 0.699,9.183 -2.849,-0.662 -5.818,-1.012 -8.869,-1.012 -21.557,0 -39.033,17.475 -39.033,39.033 0,21.557 17.476,39.033 39.033,39.033 0.152,0 0.304,-10e-4 0.455,-0.003 l -0.002,0.003 h 137.07 z"
         id="path6" />
    </mask>
    <path
       fill-rule="evenodd"
       clip-rule="evenodd"
       d="m 604.556,682.617 c 0.152,0.002 0.303,0.003 0.455,0.003 21.558,0 39.034,-17.476 39.034,-39.033 0,-21.558 -17.476,-39.033 -39.034,-39.033 -0.152,0 -0.303,0 -0.455,0.002 v -0.002 h -10.083 c 0.365,-2.672 0.553,-5.399 0.553,-8.171 0,-33.088 -26.824,-59.911 -59.912,-59.911 -33.088,0 -59.911,26.823 -59.911,59.911 0,3.123 0.239,6.189 0.699,9.183 -2.849,-0.662 -5.818,-1.012 -8.869,-1.012 -21.557,0 -39.033,17.475 -39.033,39.033 0,21.557 17.476,39.033 39.033,39.033 0.152,0 0.304,-10e-4 0.455,-0.003 l -0.002,0.003 h 137.07 z"
       shape-rendering="crispEdges"
       id="path7"
       style="fill:url(#paint2_linear_2_322)" />
    <path
       d="m 604.556,682.617 0.023,-1.999 c -0.534,-0.006 -1.049,0.202 -1.429,0.577 -0.38,0.376 -0.594,0.888 -0.594,1.422 z m 0,-78.061 h -2 c 0,0.535 0.214,1.047 0.594,1.422 0.38,0.376 0.895,0.584 1.429,0.578 z m 0,-0.002 h 2 c 0,-1.105 -0.895,-2 -2,-2 z m -10.083,0 -1.981,-0.271 c -0.078,0.573 0.095,1.151 0.475,1.586 0.379,0.435 0.929,0.685 1.506,0.685 z m -118.571,1.012 -0.453,1.948 c 0.647,0.15 1.326,-0.031 1.813,-0.482 0.487,-0.451 0.718,-1.114 0.617,-1.771 z m -8.414,77.051 1.57,1.24 c 0.478,-0.605 0.565,-1.43 0.225,-2.122 -0.34,-0.691 -1.047,-1.126 -1.817,-1.117 z m -0.002,0.003 -1.569,-1.239 c -0.475,0.601 -0.565,1.421 -0.23,2.111 0.334,0.69 1.033,1.128 1.799,1.128 z m 137.07,0 v 2 c 1.105,0 2,-0.895 2,-2 z m -0.022,1.997 c 0.159,0.002 0.318,0.003 0.477,0.003 v -4 c -0.144,0 -0.288,-10e-4 -0.432,-0.002 z m 0.477,0.003 c 22.662,0 41.034,-18.371 41.034,-41.033 h -4 c 0,20.453 -16.581,37.033 -37.034,37.033 z m 41.034,-41.033 c 0,-22.662 -18.372,-41.033 -41.034,-41.033 v 4 c 20.453,0 37.034,16.58 37.034,37.033 z m -41.034,-41.033 c -0.159,0 -0.318,0 -0.477,0.002 l 0.045,4 c 0.144,-0.002 0.288,-0.002 0.432,-0.002 z m -2.455,2 v 0.002 h 4 v -0.002 z m -8.083,2 h 10.083 v -4 h -10.083 z m 1.982,-1.73 c 0.376,-2.761 0.571,-5.579 0.571,-8.441 h -4 c 0,2.681 -0.182,5.318 -0.534,7.9 z m 0.571,-8.441 c 0,-34.192 -27.719,-61.911 -61.912,-61.911 v 4 c 31.984,0 57.912,25.928 57.912,57.911 z m -61.912,-61.911 c -34.192,0 -61.911,27.719 -61.911,61.911 h 4 c 0,-31.983 25.928,-57.911 57.911,-57.911 z m -61.911,61.911 c 0,3.225 0.246,6.393 0.722,9.487 l 3.954,-0.609 c -0.445,-2.893 -0.676,-5.857 -0.676,-8.878 z m 3.152,7.234 c -2.997,-0.696 -6.118,-1.063 -9.322,-1.063 v 4 c 2.897,0 5.715,0.332 8.416,0.96 z m -9.322,-1.063 c -22.662,0 -41.033,18.371 -41.033,41.033 h 4 c 0,-20.453 16.58,-37.033 37.033,-37.033 z M 426,643.587 c 0,22.662 18.371,41.033 41.033,41.033 v -4 C 446.58,680.62 430,664.04 430,643.587 Z m 41.033,41.033 c 0.16,0 0.319,-10e-4 0.478,-0.003 l -0.045,-3.999 c -0.144,10e-4 -0.288,0.002 -0.433,0.002 z m 2.023,-0.76 0.002,-0.003 -3.139,-2.479 -0.002,0.003 z m 135.5,-3.24 h -137.07 v 4 h 137.07 z m -2,1.997 v 0.003 h 4 v -0.003 z"
       id="path8"
       style="fill:url(#paint3_linear_2_322)" />
  </g>
</svg>
