<?xml version="1.0" encoding="UTF-8" standalone="no"?>
<svg
   width="48"
   height="48"
   version="1.1"
   id="svg12"
   sodipodi:docname="weather-freezing-rain-day-symbolic.svg"
   inkscape:version="1.4 (unknown)"
   xmlns:inkscape="http://www.inkscape.org/namespaces/inkscape"
   xmlns:sodipodi="http://sodipodi.sourceforge.net/DTD/sodipodi-0.dtd"
   xmlns="http://www.w3.org/2000/svg"
   xmlns:svg="http://www.w3.org/2000/svg">
  <defs
     id="defs12" />
  <sodipodi:namedview
     id="namedview12"
     pagecolor="#ffffff"
     bordercolor="#000000"
     borderopacity="0.25"
     inkscape:showpageshadow="2"
     inkscape:pageopacity="0.0"
     inkscape:pagecheckerboard="0"
     inkscape:deskcolor="#d1d1d1"
     inkscape:zoom="6.6666667"
     inkscape:cx="27.075"
     inkscape:cy="31.425"
     inkscape:window-width="1920"
     inkscape:window-height="996"
     inkscape:window-x="0"
     inkscape:window-y="0"
     inkscape:window-maximized="1"
     inkscape:current-layer="svg12" />
  <style
     id="current-color-scheme"
     type="text/css">.ColorScheme-Text {
    color:#232629;
  }</style>
  <path
     class="ColorScheme-Text"
     id="cloud"
     d="M 36.95,17.08 A 9,9 0 0 0 28,9 9,9 0 0 0 19.64,21.31 5,5 0 1 0 18.01,31 h 18 a 7,7 0 0 0 0.95,-13.92 z"
     fill="none"
     stroke="currentColor"
     stroke-width="2"
     style="stroke-linejoin:bevel;stroke:#f1f2f3;stroke-opacity:1" />
  <path
     d="m 16,33 -3,3 3,3 3,-3 z"
     id="path1"
     style="color:#232629;fill:#f2f2f2;fill-opacity:1;stroke-linejoin:bevel" />
  <path
     d="m 32,33 -3,3 3,3 3,-3 z"
     id="path2"
     style="color:#232629;fill:#f2f2f2;fill-opacity:1;stroke-linejoin:bevel" />
  <path
     d="m 20,39 -3,3 3,3 3,-3 z"
     id="path3"
     style="color:#232629;fill:#f2f2f2;fill-opacity:1;stroke-linejoin:bevel" />
  <path
     d="m 36,39 -3,3 3,3 3,-3 z"
     id="path4"
     style="color:#232629;fill:#f2f2f2;fill-opacity:1;stroke-linejoin:bevel" />
  <path
     d="m 26.6,40.58 a 2,2 0 0 0 0,2.8284 2,2 0 0 0 2.8284,0 2,2 0 0 0 0,-2.8284 l -1.4142,-1.4142 z"
     id="path5"
     style="color:#232629;fill:#f2f2f2;stroke-linejoin:bevel;fill-opacity:1" />
  <path
     d="m 10.58,40.58 a 2,2 0 0 0 0,2.8284 2,2 0 0 0 2.8284,0 2,2 0 0 0 0,-2.8284 l -1.4142,-1.4142 z"
     id="path6"
     style="color:#232629;fill:#f2f2f2;stroke-linejoin:bevel;fill-opacity:1" />
  <path
     d="m 38.58,34.58 a 2,2 0 0 0 0,2.8284 2,2 0 0 0 2.8284,0 2,2 0 0 0 0,-2.8284 l -1.4142,-1.4142 z"
     id="path7"
     style="color:#232629;fill:#f2f2f2;stroke-linejoin:bevel;fill-opacity:1" />
  <path
     d="m 22.58,34.58 a 2,2 0 0 0 0,2.8284 2,2 0 0 0 2.8284,0 2,2 0 0 0 0,-2.8284 l -1.4142,-1.4142 z"
     id="path8"
     style="color:#232629;fill:#f2f2f2;stroke-linejoin:bevel;fill-opacity:1" />
  <path
     id="path9"
     class="ColorScheme-Text"
     d="M 12.9,25.5 A 9,9 0 0 1 21.6,11.15"
     stroke="currentColor"
     stroke-linecap="round"
     stroke-width="2"
     fill="none"
     style="stroke:#f1f2f3;stroke-linejoin:bevel;stroke-opacity:1" />
  <path
     d="M 4,20 H 9"
     fill="none"
     stroke="currentColor"
     stroke-width="2"
     id="sunfrd"
     class="ColorScheme-Text"
     style="stroke-linejoin:bevel;stroke:#f1f2f3;stroke-opacity:1" />
  <use
     transform="rotate(36,20,20)"
     href="#sunfrd"
     id="use9"
     style="color:#232629;fill:#232629;stroke-linejoin:bevel;stroke:#f1f2f3;stroke-opacity:1" />
  <use
     transform="rotate(72,20,20)"
     href="#sunfrd"
     id="use10"
     style="color:#232629;fill:#232629;stroke-linejoin:bevel;stroke:#f1f2f3;stroke-opacity:1" />
  <use
     transform="rotate(108,20,20)"
     href="#sunfrd"
     id="use11"
     style="color:#232629;fill:#232629;stroke-linejoin:bevel" />
  <use
     transform="rotate(-36,20,20)"
     href="#sunfrd"
     id="use12"
     style="color:#232629;fill:#232629;stroke-linejoin:bevel;stroke:#f1f2f3;stroke-opacity:1" />
  <rect
     width="48"
     height="48"
     fill="none"
     id="rect12"
     x="0"
     y="0"
     style="stroke-linejoin:bevel" />
</svg>
