<?xml version="1.0" encoding="UTF-8" standalone="no"?>
<svg
   width="48"
   height="48"
   version="1.1"
   id="svg1"
   sodipodi:docname="weather-showers-scattered-night-symbolic.svg"
   inkscape:version="1.4 (unknown)"
   xmlns:inkscape="http://www.inkscape.org/namespaces/inkscape"
   xmlns:sodipodi="http://sodipodi.sourceforge.net/DTD/sodipodi-0.dtd"
   xmlns="http://www.w3.org/2000/svg"
   xmlns:svg="http://www.w3.org/2000/svg">
  <defs
     id="defs1" />
  <sodipodi:namedview
     id="namedview1"
     pagecolor="#ffffff"
     bordercolor="#000000"
     borderopacity="0.25"
     inkscape:showpageshadow="2"
     inkscape:pageopacity="0.0"
     inkscape:pagecheckerboard="0"
     inkscape:deskcolor="#d1d1d1"
     inkscape:zoom="8.0520833"
     inkscape:cx="19.187581"
     inkscape:cy="15.337646"
     inkscape:window-width="1920"
     inkscape:window-height="996"
     inkscape:window-x="0"
     inkscape:window-y="0"
     inkscape:window-maximized="1"
     inkscape:current-layer="svg1" />
  <style
     id="current-color-scheme"
     type="text/css">.ColorScheme-Text {
    color:#232629;
  }</style>
  <path
     id="cloud"
     d="M 37,16 C 37,11.5 32.7,8 28,8 20.3825,8 17.412,14.6 19.6426,20.279 16.6004,19.2171 13,21.3735 13,24.9997 c 0,2.7614 2.2386,5 5,5 h 18 c 3.866,0 7,-3.134 7,-7 0,-3.5 -2.5858,-6.4601 -7,-7 z"
     fill="none"
     stroke="currentColor"
     stroke-width="2"
     style="color:#232629;stroke-linejoin:bevel;stroke:#f1f2f3;stroke-opacity:1" />
  <path
     id="rainwsd"
     d="m 16,42 5,-7"
     stroke="currentColor"
     stroke-width="2"
     style="color:#232629;stroke-linejoin:bevel;stroke:#f1f2f3;stroke-opacity:1" />
  <use
     transform="translate(16)"
     href="#rainwsd"
     id="use1"
     style="color:#232629;stroke-linejoin:bevel;stroke:#f1f2f3;stroke-opacity:1" />
  <path
     d="m 14,21.5 a 14,14 0 0 1 2,-17 12,12 0 0 0 -2.5,23"
     fill="none"
     stroke="currentColor"
     stroke-width="2"
     id="path1"
     style="color:#232629;stroke-linejoin:bevel;stroke:#f1f2f3;stroke-opacity:1" />
  <rect
     id="rect3"
     width="48"
     height="48"
     fill="none"
     x="0"
     y="0"
     style="color:#232629;stroke-linejoin:bevel" />
</svg>
