<?xml version="1.0" encoding="UTF-8" standalone="no"?>
<svg
   height="22"
   width="22"
   version="1.1"
   id="svg257"
   sodipodi:docname="preferences-desktop-touchpad.svg"
   inkscape:version="1.2.1 (9c6d41e410, 2022-07-14)"
   xmlns:inkscape="http://www.inkscape.org/namespaces/inkscape"
   xmlns:sodipodi="http://sodipodi.sourceforge.net/DTD/sodipodi-0.dtd"
   xmlns:xlink="http://www.w3.org/1999/xlink"
   xmlns="http://www.w3.org/2000/svg"
   xmlns:svg="http://www.w3.org/2000/svg">
  <defs
     id="defs261">
    <linearGradient
       gradientTransform="matrix(0.44998101,0,0,0.44995578,-194.84978,-224.68102)"
       gradientUnits="userSpaceOnUse"
       x2="426.69501"
       y2="499.92099"
       y1="547.67499"
       id="a-6"
       x1="389.32001">
      <stop
         stop-color="#18222a"
         style="stop-color:#1e2b35;stop-opacity:1"
         id="stop216-3" />
      <stop
         stop-color="#566069"
         offset="1"
         style="stop-color:#6d7983;stop-opacity:1"
         id="stop218" />
    </linearGradient>
    <linearGradient
       id="c-3"
       gradientTransform="matrix(2.0428665,-6.8308524,5.7819337,2.3633129,25.219113,34.652812)"
       gradientUnits="userSpaceOnUse"
       x1="24"
       x2="24"
       y1="35"
       y2="13">
      <stop
         offset="0"
         stop-color="#23a2cd"
         id="stop253" />
      <stop
         offset=".53"
         stop-color="#00b8f5"
         id="stop255" />
      <stop
         offset="1"
         stop-color="#2ecbff"
         id="stop257" />
    </linearGradient>
    <linearGradient
       id="linearGradient1052"
       gradientUnits="userSpaceOnUse"
       x1="11"
       x2="11"
       y1="19"
       y2="16"
       gradientTransform="matrix(0.77391056,0,0,0.77391056,-34.445912,-9.86736)">
      <stop
         offset="0"
         stop-color="#253440"
         id="stop224-6" />
      <stop
         offset="1"
         stop-color="#566069"
         stop-opacity=".463277"
         id="stop226-7" />
    </linearGradient>
    <linearGradient
       id="linearGradient1056"
       gradientUnits="userSpaceOnUse"
       x1="7.8789058"
       x2="19"
       y1="11.189453"
       y2="11.189453"
       gradientTransform="matrix(0.77391056,0,0,0.77391056,-33.291604,-7.545626)">
      <stop
         offset="0"
         stop-color="#292c2f"
         id="stop234-5" />
      <stop
         offset="1"
         stop-opacity="0"
         id="stop236-3" />
    </linearGradient>
    <linearGradient
       id="linearGradient1060"
       gradientUnits="userSpaceOnUse"
       x1="15"
       x2="7"
       y1="15"
       y2="5"
       gradientTransform="matrix(0.77391056,0,0,0.77391056,-33.291604,-7.545626)">
      <stop
         offset="0"
         stop-color="#197cf1"
         id="stop229-5" />
      <stop
         offset="1"
         stop-color="#21c9fb"
         id="stop231-6" />
    </linearGradient>
    <linearGradient
       inkscape:collect="always"
       xlink:href="#c"
       id="linearGradient1068"
       gradientUnits="userSpaceOnUse"
       gradientTransform="matrix(0.86086932,0,0,0.86086932,1.2950736,-1.2095185)"
       x1="11"
       y1="19"
       x2="11"
       y2="16" />
    <linearGradient
       inkscape:collect="always"
       xlink:href="#e"
       id="linearGradient1070"
       gradientUnits="userSpaceOnUse"
       gradientTransform="matrix(0.86086932,0,0,0.86086932,2.579083,1.3730918)"
       x1="7.878906"
       y1="11.189453"
       x2="19"
       y2="11.189453" />
    <linearGradient
       inkscape:collect="always"
       xlink:href="#d"
       id="linearGradient1072"
       gradientUnits="userSpaceOnUse"
       gradientTransform="matrix(0.86086932,0,0,0.86086932,2.579083,1.3730918)"
       x1="15"
       y1="15"
       x2="7"
       y2="5" />
  </defs>
  <sodipodi:namedview
     id="namedview259"
     pagecolor="#ffffff"
     bordercolor="#666666"
     borderopacity="1.0"
     inkscape:showpageshadow="2"
     inkscape:pageopacity="0.0"
     inkscape:pagecheckerboard="0"
     inkscape:deskcolor="#d1d1d1"
     showgrid="false"
     inkscape:zoom="10.727273"
     inkscape:cx="11"
     inkscape:cy="11.04661"
     inkscape:window-width="1920"
     inkscape:window-height="1000"
     inkscape:window-x="0"
     inkscape:window-y="0"
     inkscape:window-maximized="1"
     inkscape:current-layer="svg257" />
  <radialGradient
     id="a"
     cx="11"
     cy="11"
     gradientUnits="userSpaceOnUse"
     r="9">
    <stop
       offset="0"
       stop-color="#566069"
       id="stop214" />
    <stop
       offset="1"
       stop-color="#18222a"
       id="stop216" />
  </radialGradient>
  <linearGradient
     id="b"
     gradientUnits="userSpaceOnUse"
     x1="11"
     x2="11"
     y1="19"
     y2="3"
     gradientTransform="translate(-1.4915254,-3)">
    <stop
       offset="0"
       stop-color="#18222a"
       id="stop219" />
    <stop
       offset="1"
       stop-color="#566069"
       id="stop221" />
  </linearGradient>
  <linearGradient
     id="c"
     gradientUnits="userSpaceOnUse"
     x1="11"
     x2="11"
     y1="19"
     y2="16"
     gradientTransform="matrix(0.77391056,0,0,0.77391056,-34.445912,-9.86736)">
    <stop
       offset="0"
       stop-color="#253440"
       id="stop224" />
    <stop
       offset="1"
       stop-color="#566069"
       stop-opacity=".463277"
       id="stop226" />
  </linearGradient>
  <linearGradient
     id="d"
     gradientUnits="userSpaceOnUse"
     x1="15"
     x2="7"
     y1="15"
     y2="5"
     gradientTransform="matrix(0.77391056,0,0,0.77391056,-33.291604,-7.545626)">
    <stop
       offset="0"
       stop-color="#197cf1"
       id="stop229" />
    <stop
       offset="1"
       stop-color="#21c9fb"
       id="stop231" />
  </linearGradient>
  <linearGradient
     id="e"
     gradientUnits="userSpaceOnUse"
     x1="7.878906"
     x2="19"
     y1="11.189453"
     y2="11.189453"
     gradientTransform="matrix(0.77391056,0,0,0.77391056,-33.291604,-7.545626)">
    <stop
       offset="0"
       stop-color="#292c2f"
       id="stop234" />
    <stop
       offset="1"
       stop-opacity="0"
       id="stop236" />
  </linearGradient>
  <rect
     width="17.999218"
     x="-19.99995"
     y="2.0066307"
     rx="8.9996099"
     height="17.998232"
     transform="scale(-1,1)"
     style="display:inline;overflow:visible;fill:url(#a-6);stroke-width:1.2598;stroke-opacity:0.55"
     id="rect223"
     ry="8.9991159" />
  <path
     style="display:inline;overflow:visible;opacity:0.3;fill:#000000;fill-opacity:1;stroke-width:1.2598;stroke-opacity:0.55"
     d="m 2.005776,10.780843 c -0.0027,0.07501 -0.0054,0.149597 -0.0054,0.225037 0,4.985548 4.013852,8.999121 8.999595,8.999121 4.985773,0 8.999653,-4.013573 8.999653,-8.999121 0,-0.07545 -0.0044,-0.149594 -0.0054,-0.225037 -0.118834,4.880666 -4.085858,8.774134 -8.994246,8.774134 -4.910195,0 -8.875418,-3.893468 -8.994196,-8.774134"
     id="path225" />
  <path
     d="m 2.005776,11.229158 c -0.0027,-0.07501 -0.0054,-0.149168 -0.0054,-0.225034 0,-4.985516 4.013852,-8.999124 8.999595,-8.999124 4.985773,0 8.999653,4.013608 8.999653,8.999124 0,0.07544 -0.0044,0.15002 -0.0054,0.225034 -0.118782,-4.880669 -4.085808,-8.774126 -8.994194,-8.774126 -4.910195,0 -8.87542,3.893457 -8.994194,8.774126"
     style="display:inline;overflow:visible;opacity:0.3;fill:#ffffff;fill-opacity:1;stroke-width:1.2598;stroke-opacity:0.55"
     id="path229" />
  <path
     d="m 3.8776813,12.56439 v 0.860867 0.860866 c 0,0.476924 0.3839461,0.860876 0.8608683,0.860876 H 8.182025 9.042894 9.9037661 V 14.286123 13.425257 12.56439 H 9.042894 4.7385496 Z m 7.7478217,0 v 0.860867 0.860866 0.860876 h 1.721741 3.443473 c 0.476925,0 0.860871,-0.383952 0.860871,-0.860876 V 13.425257 12.56439 Z"
     fill="#83878a"
     id="path243-2"
     style="stroke-width:1.39476;stroke-linejoin:round" />
  <path
     d="m 3.8776813,13.425257 v 0.860866 c 0,0.476924 0.3839461,0.860876 0.8608683,0.860876 H 8.182025 9.042894 9.9037661 V 14.286123 H 9.042894 8.182025 4.7385496 c -0.4769222,0 -0.8608683,-0.383946 -0.8608683,-0.860866 z m 13.7739067,0 c 0,0.47692 -0.383946,0.860866 -0.860871,0.860866 h -3.443473 -1.721741 v 0.860876 h 1.721741 3.443473 c 0.476925,0 0.860871,-0.383952 0.860871,-0.860876 z"
     fill="url(#c)"
     id="path245-9"
     style="fill:url(#linearGradient1068);stroke-width:1.39476;stroke-linejoin:round" />
  <path
     d="m 13.013759,6.4340574 -3.5477229,0.1042504 -0.10424,3.5477212 1.8259809,1.825987 v 1.943683 l 1.721741,1.721737 v -0.430434 h 6.026084 V 12.3559 Z"
     fill="url(#e)"
     opacity="0.4"
     id="path251-1"
     style="fill:url(#linearGradient1070);stroke-width:0.860871" />
  <path
     d="m 11.187771,5.6774354 c -1.4263289,0 -2.582603,1.1562729 -2.582603,2.5826054 0.0022,0.698098 0.2840897,1.346765 0.7566221,1.8192592 l 0.564946,0.564946 0.04374,0.04372 c 0.2665569,0.266612 0.5938329,0.477378 0.9651139,0.60866 V 10.36009 L 10.326928,9.7514278 c -0.0045,-0.0023 -0.0087,-0.0057 -0.01347,-0.0084 -0.153586,-0.260614 -0.238817,-0.561332 -0.238757,-0.87432 0,-0.9508906 0.770855,-1.7217391 1.721742,-1.7217391 0.319315,0 0.61799,0.08731 0.874315,0.2387565 0.151482,0.2563384 0.238764,0.5550189 0.238764,0.8743249 -0.0015,0.08565 -0.0094,0.1710757 -0.02355,0.2555696 l 0.608663,0.6086601 0.736444,0.588487 c 0.09598,-0.271157 0.145983,-0.55643 0.147963,-0.844055 0,-0.7131706 -0.289257,-1.358629 -0.756625,-1.8259847 l -0.04369,-0.04366 -0.564948,-0.5649462 c -0.467352,-0.4672814 -1.112827,-0.756547 -1.82597,-0.756547 z m 0,2.5826054 v 5.5956542 l 0.608663,0.608658 1.291303,-1.506521 0.215218,-0.645649 h 2.797828 L 15.492121,11.70352 Z"
     opacity="0.2"
     id="path253-2"
     style="stroke-width:0.860871" />
  <path
     d="m 11.187771,5.6774354 c -1.4263329,0 -2.582603,1.1562709 -2.582603,2.5826054 0.0029,1.091899 0.6922811,2.0639592 1.721739,2.4279222 V 9.7514298 C 9.7940971,9.4438128 9.4659191,8.8752748 9.4660361,8.2600408 c 0,-0.9508873 0.7708469,-1.7217371 1.7217349,-1.7217371 0.950889,0 1.721742,0.7708498 1.721742,1.7217371 -0.0015,0.08565 -0.0093,0.1710894 -0.02354,0.2555756 l 0.736445,0.5884824 c 0.09597,-0.271152 0.145984,-0.5564284 0.147959,-0.844058 0,-1.4263345 -1.156273,-2.5826054 -2.582608,-2.5826054 z m 0,2.5826054 v 5.5956542 l 1.291305,-1.506526 0.215221,-0.645649 h 2.797824 z"
     fill="url(#d)"
     id="path255-7"
     style="fill:url(#linearGradient1072);stroke-width:0.860871" />
</svg>
