<?xml version="1.0" encoding="UTF-8" standalone="no"?>
<svg
   height="22"
   width="22"
   version="1.1"
   id="svg2675"
   sodipodi:docname="preferences-desktop-gestures-screenedges.svg"
   inkscape:version="1.2.1 (9c6d41e410, 2022-07-14)"
   xmlns:inkscape="http://www.inkscape.org/namespaces/inkscape"
   xmlns:sodipodi="http://sodipodi.sourceforge.net/DTD/sodipodi-0.dtd"
   xmlns:xlink="http://www.w3.org/1999/xlink"
   xmlns="http://www.w3.org/2000/svg"
   xmlns:svg="http://www.w3.org/2000/svg">
  <defs
     id="defs2679">
    <linearGradient
       gradientTransform="matrix(0.44998119,0,0,0.44995571,-194.84934,-224.68682)"
       gradientUnits="userSpaceOnUse"
       x2="426.69501"
       y2="499.92099"
       y1="547.67499"
       id="a-6"
       x1="389.32001">
      <stop
         stop-color="#18222a"
         style="stop-color:#1e2b35;stop-opacity:1"
         id="stop216" />
      <stop
         stop-color="#566069"
         offset="1"
         style="stop-color:#6d7983;stop-opacity:1"
         id="stop218" />
    </linearGradient>
    <linearGradient
       id="a-9"
       gradientTransform="matrix(0.5487924,0,0,-0.57703444,-238.87401,-312.68514)"
       gradientUnits="userSpaceOnUse"
       x2="0"
       y1="-545.29028"
       y2="-521.02832">
      <stop
         offset="0"
         stop-color="#faae2a"
         id="stop2067-1" />
      <stop
         offset="1"
         stop-color="#ffc35a"
         id="stop2069-2" />
    </linearGradient>
  </defs>
  <sodipodi:namedview
     id="namedview2677"
     pagecolor="#ffffff"
     bordercolor="#666666"
     borderopacity="1.0"
     inkscape:showpageshadow="2"
     inkscape:pageopacity="0.0"
     inkscape:pagecheckerboard="0"
     inkscape:deskcolor="#d1d1d1"
     showgrid="false"
     inkscape:zoom="10.727273"
     inkscape:cx="11"
     inkscape:cy="11.04661"
     inkscape:window-width="1920"
     inkscape:window-height="1000"
     inkscape:window-x="0"
     inkscape:window-y="0"
     inkscape:window-maximized="1"
     inkscape:current-layer="svg2675" />
  <linearGradient
     id="a"
     gradientTransform="matrix(1,0,0,1.0285724,-1e-5,-14.394733)"
     gradientUnits="userSpaceOnUse"
     x1="418.16971"
     x2="384.57144"
     y1="503.07938"
     y2="531.45813">
    <stop
       offset="0"
       stop-color="#1abc9c"
       id="stop2628" />
    <stop
       offset="1"
       stop-color="#2980b9"
       id="stop2630" />
  </linearGradient>
  <linearGradient
     id="b"
     gradientUnits="userSpaceOnUse"
     x1="29.85095"
     x2="54.317608"
     y1="22.348567"
     y2="28.506301">
    <stop
       offset="0"
       stop-color="#cc4a5e"
       id="stop2633" />
    <stop
       offset="1"
       stop-color="#aa478a"
       id="stop2635" />
  </linearGradient>
  <linearGradient
     id="c"
     gradientUnits="userSpaceOnUse"
     x1="24.393862"
     x2="20.645595"
     xlink:href="#d"
     y1="41.223652"
     y2="25.343179" />
  <linearGradient
     id="d">
    <stop
       offset="0"
       stop-color="#334545"
       id="stop2639" />
    <stop
       offset="1"
       stop-color="#536161"
       id="stop2641" />
  </linearGradient>
  <linearGradient
     id="e"
     gradientTransform="matrix(-1,0,0,1,839.14285,-40.00001)"
     gradientUnits="userSpaceOnUse"
     x1="430.57141"
     x2="440.17142"
     xlink:href="#d"
     y1="569.97992"
     y2="562.49939" />
  <linearGradient
     id="f"
     gradientTransform="matrix(-0.41666647,0,0,0.53472146,190.40467,-283.78051)"
     gradientUnits="userSpaceOnUse"
     x1="430.57141"
     x2="440.17142"
     xlink:href="#d"
     y1="569.97992"
     y2="562.49939" />
  <linearGradient
     id="g"
     gradientTransform="matrix(-0.41666647,0,0,0.53472146,194.40467,-286.3305)"
     gradientUnits="userSpaceOnUse"
     x1="430.57141"
     x2="440.17142"
     xlink:href="#d"
     y1="569.97992"
     y2="562.49939" />
  <rect
     width="17.99925"
     x="-19.999626"
     y="2.000885"
     rx="8.9996252"
     height="17.99823"
     transform="scale(-1,1)"
     style="display:inline;overflow:visible;fill:url(#a-6);stroke-width:1.25991;stroke-opacity:0.55"
     id="rect223"
     ry="8.999115" />
  <path
     style="display:inline;overflow:visible;opacity:0.3;fill:#000000;fill-opacity:1;stroke-width:1.25991;stroke-opacity:0.55"
     d="m 2.0052863,10.775041 c -0.0017,0.07501 -0.0054,0.149594 -0.0054,0.225034 0,4.985548 4.013844,8.999121 8.9995997,8.999121 4.985758,0 8.999661,-4.013573 8.999661,-8.999121 0,-0.07544 -0.0034,-0.149594 -0.0054,-0.225034 -0.118842,4.880661 -4.085869,8.774131 -8.994257,8.774131 -4.9101917,0 -8.8754177,-3.89347 -8.9941997,-8.774131"
     id="path225" />
  <path
     d="m 2.0052863,11.223351 c -0.0017,-0.07501 -0.0054,-0.149165 -0.0054,-0.225034 0,-4.9855046 4.013844,-8.9991206 8.9995997,-8.9991206 4.985758,0 8.999661,4.013616 8.999661,8.9991206 0,0.07544 -0.0034,0.150023 -0.0054,0.225034 -0.118842,-4.8806596 -4.085869,-8.7741296 -8.994257,-8.7741296 -4.9101917,0 -8.8754177,3.89347 -8.9941997,8.7741296"
     style="display:inline;overflow:visible;opacity:0.3;fill:#ffffff;fill-opacity:1;stroke-width:1.25991;stroke-opacity:0.55"
     id="path229" />
  <path
     d="M 10.618051,2.1946137 A 9,9 0 0 0 1.9432465,11.188755 9,9 0 0 0 2.0399265,12.501841 11.299665,11.299665 0 0 0 10.618051,2.1946137 Z"
     id="path1003"
     style="fill:#b380ff;fill-opacity:1" />
  <path
     d="M 6.9436375,3.1268407 A 9,9 0 0 0 2.2895355,8.7160983 7.768299,7.768299 0 0 0 6.9436375,3.1268407 Z"
     style="opacity:0.15;stroke-width:2.66943;paint-order:markers stroke fill"
     id="path1005" />
  <path
     d="M 19.605313,9.367679 A 11.319943,11.319943 0 0 0 10.980899,19.727053 9,9 0 0 0 19.70961,10.731741 9,9 0 0 0 19.605313,9.367679 Z"
     id="path1009-1"
     style="fill:#2a7fff;fill-opacity:1" />
  <path
     d="m 19.379727,13.145804 a 7.7822394,7.7822394 0 0 0 -4.727344,5.675976 9,9 0 0 0 4.727344,-5.675976 z"
     style="opacity:0.15;stroke-width:2.67422;paint-order:markers stroke fill"
     id="path1011-8" />
</svg>
