<?xml version="1.0" encoding="UTF-8" standalone="no"?>
<svg
   height="22"
   width="22"
   version="1.1"
   id="svg272"
   sodipodi:docname="preferences-system-network-proxy.svg"
   inkscape:version="1.2.1 (9c6d41e410, 2022-07-14)"
   xmlns:inkscape="http://www.inkscape.org/namespaces/inkscape"
   xmlns:sodipodi="http://sodipodi.sourceforge.net/DTD/sodipodi-0.dtd"
   xmlns:xlink="http://www.w3.org/1999/xlink"
   xmlns="http://www.w3.org/2000/svg"
   xmlns:svg="http://www.w3.org/2000/svg">
  <defs
     id="defs276">
    <linearGradient
       id="a-3"
       gradientTransform="matrix(0.64286,0,0,0.64286,-246.51,-330.87)"
       gradientUnits="userSpaceOnUse"
       x2="0"
       y1="545.79797"
       y2="517.79797">
      <stop
         offset="0"
         stop-color="#197cf1"
         id="stop2" />
      <stop
         offset="1"
         stop-color="#20bcfa"
         id="stop4" />
    </linearGradient>
    <linearGradient
       id="b-6"
       gradientUnits="userSpaceOnUse"
       x1="20"
       x2="6"
       y1="19"
       y2="5">
      <stop
         offset="0"
         stop-color="#292c2f"
         id="stop14" />
      <stop
         offset="1"
         stop-opacity="0"
         id="stop16" />
    </linearGradient>
    <linearGradient
       id="c-7"
       gradientUnits="userSpaceOnUse"
       x1="11"
       x2="11"
       y1="19"
       y2="1">
      <stop
         offset="0"
         stop-color="#7cbaf8"
         id="stop9" />
      <stop
         offset="1"
         stop-color="#f4fcff"
         id="stop11" />
    </linearGradient>
  </defs>
  <sodipodi:namedview
     id="namedview274"
     pagecolor="#ffffff"
     bordercolor="#666666"
     borderopacity="1.0"
     inkscape:showpageshadow="2"
     inkscape:pageopacity="0.0"
     inkscape:pagecheckerboard="0"
     inkscape:deskcolor="#d1d1d1"
     showgrid="false"
     inkscape:zoom="10.727273"
     inkscape:cx="11"
     inkscape:cy="3.6822033"
     inkscape:window-width="1920"
     inkscape:window-height="1000"
     inkscape:window-x="0"
     inkscape:window-y="0"
     inkscape:window-maximized="1"
     inkscape:current-layer="svg272" />
  <linearGradient
     id="a"
     gradientUnits="userSpaceOnUse"
     x1="5.08194"
     x2="5.08194"
     y1="19.653846"
     y2="1.346154">
    <stop
       offset="0"
       stop-color="#54d883"
       id="stop208" />
    <stop
       offset="1"
       stop-color="#abf9c7"
       id="stop210" />
  </linearGradient>
  <linearGradient
     id="b"
     gradientUnits="userSpaceOnUse"
     x1="7.697324"
     x2="20.774247"
     y1="3.961539"
     y2="17.038462">
    <stop
       offset="0"
       stop-color="#292c2f"
       id="stop213" />
    <stop
       offset="1"
       stop-opacity="0"
       id="stop215" />
  </linearGradient>
  <linearGradient
     id="c"
     gradientUnits="userSpaceOnUse"
     x1="5.08194"
     x2="5.08194"
     y1="19.653846"
     y2="1.346154">
    <stop
       offset="0"
       stop-color="#197cf1"
       id="stop218" />
    <stop
       offset="1"
       stop-color="#20bcfa"
       id="stop220" />
  </linearGradient>
  <linearGradient
     id="d"
     gradientUnits="userSpaceOnUse">
    <stop
       offset="0"
       stop-color="#433a35"
       id="stop223" />
    <stop
       offset="1"
       stop-color="#997657"
       id="stop225" />
  </linearGradient>
  <linearGradient
     id="e"
     gradientUnits="userSpaceOnUse">
    <stop
       offset="0"
       stop-color="#6c5548"
       id="stop228" />
    <stop
       offset="1"
       stop-color="#997657"
       id="stop230" />
  </linearGradient>
  <radialGradient
     id="f"
     cx="6"
     cy="10.999999"
     gradientUnits="userSpaceOnUse"
     r="1"
     gradientTransform="translate(-32.687649,-14.889831)">
    <stop
       offset="0"
       stop-color="#eff0f1"
       id="stop233" />
    <stop
       offset="1"
       stop-color="#bdc3c7"
       id="stop235" />
  </radialGradient>
  <linearGradient
     id="g"
     x1="19"
     x2="19"
     xlink:href="#e"
     y1="19.782609"
     y2="1.695653"
     gradientTransform="translate(-32.687649,-14.889831)" />
  <linearGradient
     id="h"
     x1="18.999999"
     x2="18.295986"
     xlink:href="#e"
     y1="19.999999"
     y2="19.999999"
     gradientTransform="translate(-32.687649,-14.889831)" />
  <linearGradient
     id="i"
     gradientTransform="matrix(1.0000002,0,0,0.67999998,-35.687651,-15.609831)"
     x1="11"
     x2="12"
     xlink:href="#d"
     y1="29"
     y2="29" />
  <linearGradient
     id="j"
     gradientUnits="userSpaceOnUse"
     x1="4"
     x2="9"
     y1="11"
     y2="11">
    <stop
       offset="0"
       stop-color="#997657"
       id="stop241" />
    <stop
       offset="1"
       stop-color="#d4ba94"
       id="stop243" />
  </linearGradient>
  <linearGradient
     id="k"
     x1="5"
     x2="8"
     xlink:href="#e"
     y1="3"
     y2="3" />
  <linearGradient
     id="l"
     x1="3"
     x2="5"
     xlink:href="#d"
     y1="11"
     y2="11" />
  <rect
     style="fill:url(#a-3);stroke-width:0.642858"
     height="18"
     rx="9"
     width="18"
     x="2.0000005"
     y="2.000001"
     id="rect19" />
  <path
     style="fill:#5edc8b;fill-opacity:1;stroke-width:2;stroke-linejoin:round"
     d="M 11,2 A 8.9999999,9 0 0 0 2.945,7 H 4 L 5,8 V 7 H 6 V 6 L 8,4 V 5 L 9,4 V 3 H 9.9999999 V 4 H 11 L 12,3 V 2.057 A 8.9999999,9 0 0 0 11,2 Z M 17.361,4.639 17,5 v 1 h 1 L 18.283,5.717 A 8.9999999,9 0 0 0 17.361,4.639 Z M 18.684,6.316 18,7 16,8 15,11 h 1 v 1 l 2,1 1.918,-0.959 A 8.9999999,9 0 0 0 20,11 8.9999999,9 0 0 0 18.684,6.316 Z M 3,9 v 1 H 2.078 A 8.9999999,9 0 0 0 2,11 h 1 l 2,2 h 1 v 1 H 5 v 1 l 2,2 v 2.055 A 8.9999999,9 0 0 0 11,20 l 1,-1 v -1 h 1 l 1,-1 v -1 l 1,-1 -1,-1 H 12 L 11,13 H 9.9999999 L 9,12 H 7 V 11 L 6,12 H 5 V 11 L 4,10 V 9 Z"
     id="path21" />
  <path
     style="opacity:0.3;fill:#292c2f;stroke-width:2;stroke-linejoin:round"
     d="M 19.975,10.36 A 8.9999999,9 0 0 1 11,19 8.9999999,9 0 0 1 2.035,10.5 8.9999999,9 0 0 0 2,11 a 8.9999999,9 0 0 0 9,9 8.9999999,9 0 0 0 9,-9 8.9999999,9 0 0 0 -0.025,-0.64 z"
     id="path29" />
  <text
     xml:space="preserve"
     style="font-style:italic;font-variant:normal;font-weight:normal;font-stretch:normal;font-size:5.33333px;line-height:1.25;font-family:sans-serif;-inkscape-font-specification:'sans-serif Italic';fill:#000000;fill-opacity:1;stroke:none"
     x="4.2033544"
     y="12.321598"
     id="text934"><tspan
       sodipodi:role="line"
       id="tspan932"
       x="4.2033544"
       y="12.321598">Proxy</tspan></text>
</svg>
