<?xml version="1.0" encoding="UTF-8" standalone="no"?>
<svg
   height="32"
   width="32"
   version="1.1"
   id="svg786"
   sodipodi:docname="plasma.svg"
   inkscape:version="1.2.1 (9c6d41e410, 2022-07-14)"
   xmlns:inkscape="http://www.inkscape.org/namespaces/inkscape"
   xmlns:sodipodi="http://sodipodi.sourceforge.net/DTD/sodipodi-0.dtd"
   xmlns:xlink="http://www.w3.org/1999/xlink"
   xmlns="http://www.w3.org/2000/svg"
   xmlns:svg="http://www.w3.org/2000/svg">
  <defs
     id="defs790">
    <linearGradient
       id="a-3"
       x1="428.81601"
       x2="388.86499"
       y1="547.63397"
       y2="499.67899"
       gradientTransform="matrix(0.4500002,0,0,0.44685936,-172.85657,-223.00208)"
       gradientUnits="userSpaceOnUse">
      <stop
         stop-color="#bdc3c7"
         offset="0"
         id="stop2193" />
      <stop
         stop-color="#eff0f1"
         offset="1"
         id="stop2195" />
    </linearGradient>
    <linearGradient
       id="c-3"
       y1="521.15002"
       x1="394.22"
       y2="533.40997"
       gradientUnits="userSpaceOnUse"
       x2="416.85001"
       gradientTransform="translate(-12.764,-10.07)">
      <stop
         stop-color="#292c2f"
         id="stop225" />
      <stop
         offset="1"
         stop-opacity="0"
         id="stop227" />
    </linearGradient>
    <linearGradient
       id="linearGradient1889"
       gradientUnits="userSpaceOnUse"
       x1="19.915001"
       x2="33.915001"
       y1="-5.5933328"
       y2="8.4066668"
       gradientTransform="translate(-43.932612,-24.930416)">
      <stop
         offset="0"
         stop-color="#292c2f"
         id="stop743-6" />
      <stop
         offset="1"
         stop-opacity="0"
         id="stop745-7" />
    </linearGradient>
    <linearGradient
       id="linearGradient1893"
       gradientUnits="userSpaceOnUse"
       x1="6.9150009"
       x2="6.9150009"
       y1="18.041945"
       y2="9.8719463"
       gradientTransform="translate(-43.932612,-28.932366)">
      <stop
         offset="0"
         stop-color="#eff0f1"
         id="stop738-5" />
      <stop
         offset="1"
         stop-color="#fcfcfc"
         id="stop740-3" />
    </linearGradient>
    <linearGradient
       inkscape:collect="always"
       xlink:href="#linearGradient1495"
       id="linearGradient4210"
       x1="-33.715141"
       y1="-15.190534"
       x2="-47.270638"
       y2="-3.3954711"
       gradientUnits="userSpaceOnUse"
       gradientTransform="matrix(1.5555556,0,0,1.5555556,47.658966,31.225987)" />
    <linearGradient
       inkscape:collect="always"
       id="linearGradient1495">
      <stop
         style="stop-color:#5e81ac;stop-opacity:1;"
         offset="0"
         id="stop1491" />
      <stop
         style="stop-color:#b48ead;stop-opacity:1;"
         offset="0.55899495"
         id="stop1663" />
      <stop
         style="stop-color:#a3be8c;stop-opacity:1;"
         offset="0.74595666"
         id="stop1661" />
      <stop
         style="stop-color:#88c0d0;stop-opacity:1;"
         offset="1"
         id="stop1493" />
    </linearGradient>
    <filter
       id="filter30427-0"
       x="-0.1339518"
       y="-0.3388412"
       width="1.2679036"
       height="1.6776824"
       color-interpolation-filters="sRGB">
      <feGaussianBlur
         stdDeviation="0.48299559"
         id="feGaussianBlur37-2" />
    </filter>
    <linearGradient
       inkscape:collect="always"
       xlink:href="#linearGradient29728"
       id="linearGradient4313"
       gradientUnits="userSpaceOnUse"
       gradientTransform="matrix(1.7540192,0,0,1.7540192,4.1809026,4.8732386)"
       x1="8.9888"
       y1="6.2073998"
       x2="8.9888"
       y2="12.653" />
    <linearGradient
       id="linearGradient29728"
       x1="8.9888"
       x2="8.9888"
       y1="6.2073998"
       y2="12.653"
       gradientUnits="userSpaceOnUse"
       gradientTransform="matrix(1.1275838,0,0,1.1275838,1.2427669,1.4742125)">
      <stop
         stop-color="#2e3440"
         offset="0"
         id="stop32" />
      <stop
         stop-color="#4c566a"
         offset="1"
         id="stop34" />
    </linearGradient>
    <linearGradient
       inkscape:collect="always"
       xlink:href="#i"
       id="linearGradient880"
       gradientUnits="userSpaceOnUse"
       gradientTransform="matrix(1.4614364,0,0,1.5555556,-0.83638298,-3.2161806)"
       x1="19.915001"
       y1="-5.5933328"
       x2="33.915001"
       y2="8.4066668" />
    <linearGradient
       inkscape:collect="always"
       xlink:href="#linearGradient29728"
       id="linearGradient1493"
       x1="40.810593"
       y1="-13.856024"
       x2="41.264694"
       y2="-22.335516"
       gradientUnits="userSpaceOnUse"
       gradientTransform="matrix(1.5593637,0,0,1.5555556,-48.177278,42.246703)" />
  </defs>
  <sodipodi:namedview
     id="namedview788"
     pagecolor="#ffffff"
     bordercolor="#666666"
     borderopacity="1.0"
     inkscape:showpageshadow="2"
     inkscape:pageopacity="0.0"
     inkscape:pagecheckerboard="0"
     inkscape:deskcolor="#d1d1d1"
     showgrid="false"
     inkscape:zoom="10.727273"
     inkscape:cx="11"
     inkscape:cy="15.334745"
     inkscape:window-width="1920"
     inkscape:window-height="1000"
     inkscape:window-x="0"
     inkscape:window-y="0"
     inkscape:window-maximized="1"
     inkscape:current-layer="svg786" />
  <linearGradient
     id="a"
     gradientTransform="matrix(0.41666647,0,0,0.54999974,-188.65687,-279.08879)"
     gradientUnits="userSpaceOnUse"
     x1="418.16971"
     x2="384.57144"
     y1="503.07938"
     y2="531.45813">
    <stop
       offset="0"
       stop-color="#1abc9c"
       id="stop719" />
    <stop
       offset="1"
       stop-color="#2980b9"
       id="stop721" />
  </linearGradient>
  <linearGradient
     id="b"
     gradientUnits="userSpaceOnUse"
     x1="29.85095"
     x2="54.317608"
     y1="22.348566"
     y2="28.506302"
     gradientTransform="matrix(0.45454545,0,0,0.58333277,-4.4545431,-1.5000305)">
    <stop
       offset="0"
       stop-color="#cc4a5e"
       id="stop724" />
    <stop
       offset="1"
       stop-color="#aa478a"
       id="stop726" />
  </linearGradient>
  <linearGradient
     id="c"
     gradientUnits="userSpaceOnUse"
     x1="24.393862"
     x2="20.645596"
     xlink:href="#d"
     y1="41.223652"
     y2="25.34318"
     gradientTransform="matrix(0.45454545,0,0,0.58333277,-4.4545431,-1.5000305)" />
  <linearGradient
     id="d">
    <stop
       offset="0"
       stop-color="#334545"
       id="stop730" />
    <stop
       offset="1"
       stop-color="#536161"
       id="stop732" />
  </linearGradient>
  <linearGradient
     id="e"
     gradientTransform="matrix(-0.41666647,0,0,0.53472146,212.28397,-306.82071)"
     gradientUnits="userSpaceOnUse"
     x1="430.57141"
     x2="440.17142"
     xlink:href="#d"
     y1="569.97992"
     y2="562.49939" />
  <linearGradient
     id="f"
     gradientTransform="matrix(-0.41666647,0,0,0.53472146,190.40467,-283.78051)"
     gradientUnits="userSpaceOnUse"
     x1="430.57141"
     x2="440.17142"
     xlink:href="#d"
     y1="569.97992"
     y2="562.49939" />
  <linearGradient
     id="g"
     gradientTransform="matrix(-0.41666647,0,0,0.53472146,194.40467,-286.3305)"
     gradientUnits="userSpaceOnUse"
     x1="430.57141"
     x2="440.17142"
     xlink:href="#d"
     y1="569.97992"
     y2="562.49939" />
  <linearGradient
     id="h"
     gradientUnits="userSpaceOnUse"
     x1="6.9150009"
     x2="6.9150009"
     y1="18.041945"
     y2="9.8719463"
     gradientTransform="translate(-43.932612,-28.932366)">
    <stop
       offset="0"
       stop-color="#eff0f1"
       id="stop738" />
    <stop
       offset="1"
       stop-color="#fcfcfc"
       id="stop740" />
  </linearGradient>
  <linearGradient
     id="i"
     gradientUnits="userSpaceOnUse"
     x1="19.915001"
     x2="33.915001"
     y1="-5.5933328"
     y2="8.4066668"
     gradientTransform="translate(-43.932612,-24.930416)">
    <stop
       offset="0"
       stop-color="#292c2f"
       id="stop743" />
    <stop
       offset="1"
       stop-opacity="0"
       id="stop745" />
  </linearGradient>
  <rect
     width="27.998838"
     x="-29.999958"
     y="2.0026286"
     rx="13.999418"
     height="27.99725"
     transform="scale(-1,1)"
     id="rect223"
     ry="13.998625"
     style="fill:url(#linearGradient4210);fill-opacity:1;stroke-width:1.55557" />
  <path
     style="display:inline;overflow:visible;opacity:0.3;fill:#000000;fill-opacity:1;stroke-width:1.95988;stroke-opacity:0.55"
     d="m 2.0087685,15.651315 c -0.00265,0.11668 -0.0084,0.232702 -0.0084,0.350052 C 2.0003718,23.756664 8.2441291,30 15.999751,30 c 7.755623,0 13.999473,-6.243336 13.999473,-13.998633 0,-0.11735 -0.0052,-0.232701 -0.0083,-0.350052 -0.184867,7.592137 -6.355796,13.648646 -13.991068,13.648646 -7.6380757,0 -13.8062065,-6.056509 -13.9909785,-13.648646"
     id="path225" />
  <path
     d="m 2.0087685,16.348687 c -0.00265,-0.116681 -0.0084,-0.232035 -0.0084,-0.350053 C 2.0003685,8.2434027 8.2441258,2 15.999748,2 c 7.755623,0 13.999473,6.2434027 13.999473,13.998634 0,0.11735 -0.0052,0.233369 -0.0083,0.350053 C 29.805955,8.7565477 23.635026,2.7000373 15.999754,2.7000373 c -7.6380765,0 -13.8062073,6.0565104 -13.9909793,13.6486497"
     style="display:inline;overflow:visible;opacity:0.3;fill:#ffffff;fill-opacity:1;stroke-width:1.95988;stroke-opacity:0.55"
     id="path229" />
  <path
     class="cls-1"
     d="m 4.4937,12.863 c 0.79782,-0.16981 1.5191,0.92213 2.254,0.24718 A 0.93573,1.1228 2.0368 0 0 7.11142,12.31524 0.61221,0.73459 2.0368 0 0 7.059896,11.9587 0.66725,0.80064 2.0368 0 0 6.987168,11.81535 c -0.36628,-0.57026 -1.0384,-0.455 -1.5081,-0.11786 -0.43162,0.3095 -0.76819,0.81278 -0.9858,1.1652 z m 4.226,-2.0996 a 3.0504,3.6602 2.0368 0 1 0.30656,1.5337 l 3.751,-1.5318 c 0.2343,-0.09037 0.38941,-0.19106 0.36778,-0.54916 A 0.36508,0.43806 2.0368 0 0 12.98942,9.9619 0.39822,0.47782 2.0368 0 0 12.71739,9.92533 Z m -1.396,0.84843 c 0.10427,0.1743 0.20648,0.51347 0.15161,0.78765 l 1.324,-0.04386 c -0.00293,-0.56822 -0.085608,-1.1013 -0.30522,-1.572 -0.57814,0.3633 -0.55485,0.51948 -1.1704,0.82816 z"
     fill="#2e3440"
     filter="url(#filter30427)"
     opacity="0.4"
     stroke-width="0.061524"
     id="path60-5"
     style="fill-rule:evenodd;filter:url(#filter30427-0)"
     transform="matrix(1.7540193,0,0,1.7540193,4.1809027,4.5701557)" />
  <path
     class="cls-1"
     d="m 12.096092,27.480791 c 1.383061,-0.990598 3.600651,0.07326 4.471871,-1.654941 a 1.9694127,1.9694127 0 0 0 0.07328,-1.58046 1.2884845,1.2884845 0 0 0 -0.374728,-0.514212 1.4043378,1.4043378 0 0 0 -0.249422,-0.159592 c -1.138358,-0.565035 -2.325128,0.225793 -2.955172,1.182105 -0.57923,0.878319 -0.827477,1.975378 -0.966957,2.727151 z m 6.393925,-7.135177 a 6.4200621,6.4200621 0 0 1 1.77314,2.134815 l 5.932971,-5.811243 c 0.374727,-0.354628 0.591051,-0.653706 0.271865,-1.197472 a 0.76836572,0.76836572 0 0 0 -0.492924,-0.258867 0.83810539,0.83810539 0 0 0 -0.544948,0.189141 z m -1.991863,2.600687 c 0.333351,0.179681 0.790817,0.620606 0.899585,1.101714 l 2.480008,-1.269566 c -0.446836,-0.891308 -1.017788,-1.65494 -1.800327,-2.196391 -0.815652,1.095794 -0.650145,1.320409 -1.579283,2.364243 z"
     fill="url(#linearGradient29728)"
     stroke-width="0.118212"
     id="path62-9"
     style="fill:url(#linearGradient4313);fill-rule:evenodd" />
  <path
     d="m 12.253748,5.9135926 c -0.549514,0 -0.993318,0.4754416 -0.993318,1.060329 0,0.2809333 0.10455,0.5517913 0.291144,0.7504341 l 4.475649,4.7638893 -0.291145,0.309896 1.492834,1.588976 8.306212,8.841145 h 4.318657 V 19.351524 L 17.228912,5.9135926 15.736078,7.5025677 18.225087,10.151873 17.434428,10.990416 12.958777,6.2265269 C 12.778728,6.0348187 12.528515,5.9135926 12.253748,5.9135926 Z m -1.741163,4.7669304 c -0.329861,0 -0.645886,0.140622 -0.8791457,0.388889 -0.2332455,0.248265 -0.3653592,0.584674 -0.3653592,0.935763 0,0.365711 0.1402979,0.696207 0.3653592,0.935765 l 2.9371437,3.126299 c -0.201294,0.276796 -0.316835,0.615309 -0.316835,0.969185 0,0.421401 0.156824,0.823205 0.436718,1.121091 l 4.763941,5.070747 h 5.363359 L 11.391731,11.06941 c -0.233246,-0.248267 -0.549287,-0.388888 -0.879146,-0.388887 z"
     fill="url(#i)"
     opacity="0.2"
     id="path780-5-6"
     style="opacity:0.041;fill:url(#linearGradient880);stroke-width:1.50776" />
  <path
     d="M 12.45445,5.914932 A 1.061667,1.0590741 0 0 0 11.392786,6.9740055 1.061667,1.0590741 0 0 0 12.45445,8.0330807 1.061667,1.0590741 0 0 0 13.516113,6.9740055 1.061667,1.0590741 0 0 0 12.45445,5.914932 Z m 5.308333,0 -1.592496,1.5886111 2.654161,2.6476849 -2.654161,2.647686 1.592496,1.588608 4.246666,-4.236294 z m -7.166247,4.765834 a 1.3270833,1.3238426 0 0 0 -1.3270865,1.323842 1.3270833,1.3238426 0 0 0 1.3270865,1.323843 1.3270833,1.3238426 0 0 0 1.327077,-1.323843 1.3270833,1.3238426 0 0 0 -1.327077,-1.323842 z m 3.450412,4.765831 a 1.5925004,1.588611 0 0 0 -1.592498,1.588612 1.5925004,1.588611 0 0 0 1.592498,1.588609 1.5925004,1.588611 0 0 0 1.592501,-1.58861 1.5925004,1.588611 0 0 0 -1.592501,-1.588611 z"
     stroke-width="2.12073"
     id="path782-6-2"
     style="fill:url(#linearGradient1493);fill-opacity:1" />
</svg>
