<?xml version="1.0" encoding="UTF-8" standalone="no"?>
<svg
   height="32"
   width="32"
   version="1.1"
   id="svg786"
   sodipodi:docname="preferences-desktop-plasma-theme.svg"
   inkscape:version="1.2.1 (9c6d41e410, 2022-07-14)"
   xmlns:inkscape="http://www.inkscape.org/namespaces/inkscape"
   xmlns:sodipodi="http://sodipodi.sourceforge.net/DTD/sodipodi-0.dtd"
   xmlns:xlink="http://www.w3.org/1999/xlink"
   xmlns="http://www.w3.org/2000/svg"
   xmlns:svg="http://www.w3.org/2000/svg">
  <defs
     id="defs790">
    <linearGradient
       id="a-3"
       x1="428.81601"
       x2="388.86499"
       y1="547.63397"
       y2="499.67899"
       gradientTransform="matrix(0.4500002,0,0,0.44685936,-172.85657,-223.00208)"
       gradientUnits="userSpaceOnUse">
      <stop
         stop-color="#bdc3c7"
         offset="0"
         id="stop2193" />
      <stop
         stop-color="#eff0f1"
         offset="1"
         id="stop2195" />
    </linearGradient>
    <linearGradient
       id="c-3"
       y1="521.15002"
       x1="394.22"
       y2="533.40997"
       gradientUnits="userSpaceOnUse"
       x2="416.85001"
       gradientTransform="translate(-12.764,-10.07)">
      <stop
         stop-color="#292c2f"
         id="stop225" />
      <stop
         offset="1"
         stop-opacity="0"
         id="stop227" />
    </linearGradient>
    <linearGradient
       id="linearGradient1889"
       gradientUnits="userSpaceOnUse"
       x1="19.915001"
       x2="33.915001"
       y1="-5.5933328"
       y2="8.4066668"
       gradientTransform="translate(-43.932612,-24.930416)">
      <stop
         offset="0"
         stop-color="#292c2f"
         id="stop743-6" />
      <stop
         offset="1"
         stop-opacity="0"
         id="stop745-7" />
    </linearGradient>
    <linearGradient
       id="linearGradient1893"
       gradientUnits="userSpaceOnUse"
       x1="6.9150009"
       x2="6.9150009"
       y1="18.041945"
       y2="9.8719463"
       gradientTransform="translate(-43.932612,-28.932366)">
      <stop
         offset="0"
         stop-color="#eff0f1"
         id="stop738-5" />
      <stop
         offset="1"
         stop-color="#fcfcfc"
         id="stop740-3" />
    </linearGradient>
    <linearGradient
       inkscape:collect="always"
       xlink:href="#linearGradient1495"
       id="linearGradient4210"
       x1="-33.715141"
       y1="-15.190534"
       x2="-47.270638"
       y2="-3.3954711"
       gradientUnits="userSpaceOnUse"
       gradientTransform="matrix(1.5555556,0,0,1.5555556,47.658968,31.225989)" />
    <linearGradient
       inkscape:collect="always"
       id="linearGradient1495">
      <stop
         style="stop-color:#5e81ac;stop-opacity:1;"
         offset="0"
         id="stop1491" />
      <stop
         style="stop-color:#b48ead;stop-opacity:1;"
         offset="0.55899495"
         id="stop1663" />
      <stop
         style="stop-color:#a3be8c;stop-opacity:1;"
         offset="0.74595666"
         id="stop1661" />
      <stop
         style="stop-color:#88c0d0;stop-opacity:1;"
         offset="1"
         id="stop1493" />
    </linearGradient>
    <filter
       id="filter30427-0"
       x="-0.1339518"
       y="-0.3388412"
       width="1.2679036"
       height="1.6776824"
       color-interpolation-filters="sRGB">
      <feGaussianBlur
         stdDeviation="0.48299559"
         id="feGaussianBlur37-2" />
    </filter>
    <linearGradient
       inkscape:collect="always"
       xlink:href="#linearGradient29728"
       id="linearGradient4313"
       gradientUnits="userSpaceOnUse"
       gradientTransform="matrix(1.7540193,0,0,1.7540193,4.1809029,4.8732388)"
       x1="8.9888"
       y1="6.2073998"
       x2="8.9888"
       y2="12.653" />
    <linearGradient
       id="linearGradient29728"
       x1="8.9888"
       x2="8.9888"
       y1="6.2073998"
       y2="12.653"
       gradientUnits="userSpaceOnUse"
       gradientTransform="matrix(1.1275838,0,0,1.1275838,1.2427669,1.4742125)">
      <stop
         stop-color="#2e3440"
         offset="0"
         id="stop32" />
      <stop
         stop-color="#4c566a"
         offset="1"
         id="stop34" />
    </linearGradient>
    <linearGradient
       inkscape:collect="always"
       xlink:href="#i"
       id="linearGradient880"
       gradientUnits="userSpaceOnUse"
       gradientTransform="matrix(1.461436,0,0,1.5555556,-1.0384879,-3.2161807)"
       x1="19.915001"
       y1="-5.5933328"
       x2="33.915001"
       y2="8.4066668" />
    <linearGradient
       inkscape:collect="always"
       xlink:href="#linearGradient29728"
       id="linearGradient1493"
       x1="40.810593"
       y1="-13.856024"
       x2="41.264694"
       y2="-22.335516"
       gradientUnits="userSpaceOnUse"
       gradientTransform="matrix(1.5566975,0,0,1.5556222,-48.281164,42.248257)" />
  </defs>
  <sodipodi:namedview
     id="namedview788"
     pagecolor="#ffffff"
     bordercolor="#666666"
     borderopacity="1.0"
     inkscape:showpageshadow="2"
     inkscape:pageopacity="0.0"
     inkscape:pagecheckerboard="0"
     inkscape:deskcolor="#d1d1d1"
     showgrid="false"
     inkscape:zoom="10.727273"
     inkscape:cx="22.18644"
     inkscape:cy="31.601694"
     inkscape:window-width="1920"
     inkscape:window-height="1000"
     inkscape:window-x="0"
     inkscape:window-y="0"
     inkscape:window-maximized="1"
     inkscape:current-layer="svg786" />
  <linearGradient
     id="a"
     gradientTransform="matrix(0.41666647,0,0,0.54999974,-188.65687,-279.08879)"
     gradientUnits="userSpaceOnUse"
     x1="418.16971"
     x2="384.57144"
     y1="503.07938"
     y2="531.45813">
    <stop
       offset="0"
       stop-color="#1abc9c"
       id="stop719" />
    <stop
       offset="1"
       stop-color="#2980b9"
       id="stop721" />
  </linearGradient>
  <linearGradient
     id="b"
     gradientUnits="userSpaceOnUse"
     x1="29.85095"
     x2="54.317608"
     y1="22.348566"
     y2="28.506302"
     gradientTransform="matrix(0.45454545,0,0,0.58333277,-4.4545431,-1.5000305)">
    <stop
       offset="0"
       stop-color="#cc4a5e"
       id="stop724" />
    <stop
       offset="1"
       stop-color="#aa478a"
       id="stop726" />
  </linearGradient>
  <linearGradient
     id="c"
     gradientUnits="userSpaceOnUse"
     x1="24.393862"
     x2="20.645596"
     xlink:href="#d"
     y1="41.223652"
     y2="25.34318"
     gradientTransform="matrix(0.45454545,0,0,0.58333277,-4.4545431,-1.5000305)" />
  <linearGradient
     id="d">
    <stop
       offset="0"
       stop-color="#334545"
       id="stop730" />
    <stop
       offset="1"
       stop-color="#536161"
       id="stop732" />
  </linearGradient>
  <linearGradient
     id="e"
     gradientTransform="matrix(-0.41666647,0,0,0.53472146,212.28397,-306.82071)"
     gradientUnits="userSpaceOnUse"
     x1="430.57141"
     x2="440.17142"
     xlink:href="#d"
     y1="569.97992"
     y2="562.49939" />
  <linearGradient
     id="f"
     gradientTransform="matrix(-0.41666647,0,0,0.53472146,190.40467,-283.78051)"
     gradientUnits="userSpaceOnUse"
     x1="430.57141"
     x2="440.17142"
     xlink:href="#d"
     y1="569.97992"
     y2="562.49939" />
  <linearGradient
     id="g"
     gradientTransform="matrix(-0.41666647,0,0,0.53472146,194.40467,-286.3305)"
     gradientUnits="userSpaceOnUse"
     x1="430.57141"
     x2="440.17142"
     xlink:href="#d"
     y1="569.97992"
     y2="562.49939" />
  <linearGradient
     id="h"
     gradientUnits="userSpaceOnUse"
     x1="6.9150009"
     x2="6.9150009"
     y1="18.041945"
     y2="9.8719463"
     gradientTransform="translate(-43.932612,-28.932366)">
    <stop
       offset="0"
       stop-color="#eff0f1"
       id="stop738" />
    <stop
       offset="1"
       stop-color="#fcfcfc"
       id="stop740" />
  </linearGradient>
  <linearGradient
     id="i"
     gradientUnits="userSpaceOnUse"
     x1="19.915001"
     x2="33.915001"
     y1="-5.5933328"
     y2="8.4066668"
     gradientTransform="translate(-43.932612,-24.930416)">
    <stop
       offset="0"
       stop-color="#292c2f"
       id="stop743" />
    <stop
       offset="1"
       stop-opacity="0"
       id="stop745" />
  </linearGradient>
  <rect
     width="27.998837"
     x="-29.999958"
     y="2.0026288"
     rx="13.999418"
     height="27.99725"
     transform="scale(-1,1)"
     id="rect223"
     ry="13.998625"
     style="fill:url(#linearGradient4210);fill-opacity:1;stroke-width:1.55556" />
  <path
     style="display:inline;overflow:visible;opacity:0.3;fill:#000000;fill-opacity:1;stroke-width:1.95988;stroke-opacity:0.55"
     d="m 2.0087685,15.651314 c -0.00264,0.116683 -0.0084,0.232702 -0.0084,0.350053 C 2.0003685,23.756664 8.2441258,30 15.999747,30 c 7.755625,0 13.999474,-6.243336 13.999474,-13.998633 0,-0.117351 -0.0053,-0.232701 -0.0084,-0.350053 -0.184867,7.59214 -6.355796,13.648647 -13.991068,13.648647 -7.6380754,0 -13.8062063,-6.056507 -13.9909783,-13.648647"
     id="path225" />
  <path
     d="m 2.0087685,16.348687 c -0.00264,-0.116682 -0.0084,-0.232036 -0.0084,-0.350053 C 2.0003685,8.2434027 8.2441258,2 15.999747,2 c 7.755625,0 13.999474,6.2434027 13.999474,13.998634 0,0.117351 -0.0053,0.233368 -0.0084,0.350053 C 29.805954,8.7565478 23.635025,2.7000373 15.999753,2.7000373 c -7.6380754,0 -13.8062063,6.0565105 -13.9909783,13.6486497"
     style="display:inline;overflow:visible;opacity:0.3;fill:#ffffff;fill-opacity:1;stroke-width:1.95988;stroke-opacity:0.55"
     id="path229" />
  <path
     class="cls-1"
     d="m 4.4937,12.863 c 0.79782,-0.16981 1.5191,0.92213 2.254,0.24718 A 0.93573,1.1228 2.0368 0 0 7.11142,12.31524 0.61221,0.73459 2.0368 0 0 7.059896,11.9587 0.66725,0.80064 2.0368 0 0 6.987168,11.81535 c -0.36628,-0.57026 -1.0384,-0.455 -1.5081,-0.11786 -0.43162,0.3095 -0.76819,0.81278 -0.9858,1.1652 z m 4.226,-2.0996 a 3.0504,3.6602 2.0368 0 1 0.30656,1.5337 l 3.751,-1.5318 c 0.2343,-0.09037 0.38941,-0.19106 0.36778,-0.54916 A 0.36508,0.43806 2.0368 0 0 12.98942,9.9619 0.39822,0.47782 2.0368 0 0 12.71739,9.92533 Z m -1.396,0.84843 c 0.10427,0.1743 0.20648,0.51347 0.15161,0.78765 l 1.324,-0.04386 c -0.00293,-0.56822 -0.085608,-1.1013 -0.30522,-1.572 -0.57814,0.3633 -0.55485,0.51948 -1.1704,0.82816 z"
     fill="#2e3440"
     filter="url(#filter30427)"
     opacity="0.4"
     stroke-width="0.061524"
     id="path60-5"
     style="fill-rule:evenodd;filter:url(#filter30427-0)"
     transform="matrix(1.7540192,0,0,1.7030736,4.1809027,5.3191349)" />
  <path
     class="cls-1"
     d="m 12.096092,27.48079 c 1.383062,-0.990598 3.60065,0.07327 4.471871,-1.65494 a 1.9694127,1.9694127 0 0 0 0.07328,-1.580461 1.2884846,1.2884846 0 0 0 -0.374729,-0.514211 1.4043379,1.4043379 0 0 0 -0.249421,-0.159591 c -1.138358,-0.565035 -2.325128,0.225791 -2.955172,1.182104 -0.57923,0.878318 -0.827476,1.975379 -0.966957,2.727151 z m 6.393924,-7.135176 a 6.4200621,6.4200621 0 0 1 1.773142,2.134816 l 5.932971,-5.811244 c 0.374726,-0.354626 0.591051,-0.653705 0.271864,-1.197471 a 0.76836573,0.76836573 0 0 0 -0.492924,-0.258868 0.8381054,0.8381054 0 0 0 -0.544948,0.189141 z m -1.991861,2.600688 c 0.333351,0.179679 0.790816,0.620605 0.899584,1.101713 l 2.480008,-1.269567 c -0.446836,-0.891308 -1.017789,-1.654938 -1.800327,-2.19639 -0.815652,1.095794 -0.650144,1.320409 -1.579282,2.364244 z"
     fill="url(#linearGradient29728)"
     stroke-width="0.118212"
     id="path62-9"
     style="fill:url(#linearGradient4313);fill-rule:evenodd" />
  <path
     d="m 12.05164,5.9135927 c -0.549515,0 -0.99332,0.4754415 -0.99332,1.0603289 0,0.2809333 0.104551,0.5517913 0.291146,0.7504342 l 4.475648,4.7638892 -0.291145,0.309896 1.492834,1.588974 8.306207,8.841147 h 4.318658 V 19.351524 L 17.026803,5.9135927 15.533969,7.5025678 18.022977,10.151873 17.232316,10.990416 12.756668,6.2265269 C 12.57662,6.0348187 12.326406,5.9135927 12.05164,5.9135927 Z m -1.741164,4.7669303 c -0.3298609,0 -0.6458848,0.140622 -0.8791444,0.388889 -0.2332453,0.248266 -0.3653591,0.584674 -0.3653591,0.935763 0,0.365711 0.1402971,0.696207 0.3653591,0.935764 l 2.9371424,3.1263 c -0.201293,0.276795 -0.316834,0.615308 -0.316834,0.969184 0,0.421402 0.156825,0.823205 0.436717,1.121094 l 4.76394,5.070745 h 5.363357 L 11.189622,11.06941 c -0.233246,-0.248267 -0.549285,-0.388889 -0.879146,-0.388887 z"
     fill="url(#i)"
     opacity="0.2"
     id="path780-5-6"
     style="opacity:0.041;fill:url(#linearGradient880);stroke-width:1.50776" />
  <path
     d="m 12.246896,5.914932 a 1.0598515,1.0591193 0 0 0 -1.059851,1.059119 1.0598515,1.0591193 0 0 0 1.059851,1.05912 1.0598515,1.0591193 0 0 0 1.059852,-1.05912 1.0598515,1.0591193 0 0 0 -1.059852,-1.059119 z m 5.299261,0 -1.589774,1.5886789 2.649626,2.6477961 -2.649626,2.6478 1.589774,1.588679 4.239407,-4.236479 z m -7.154001,4.766037 a 1.3248143,1.3238992 0 0 0 -1.3248141,1.323898 1.3248143,1.3238992 0 0 0 1.3248141,1.3239 1.3248143,1.3238992 0 0 0 1.324814,-1.3239 1.3248143,1.3238992 0 0 0 -1.324814,-1.323898 z m 3.444517,4.766037 a 1.5897773,1.5886789 0 0 0 -1.589777,1.58868 1.5897773,1.5886789 0 0 0 1.589777,1.588676 1.5897773,1.5886789 0 0 0 1.58978,-1.588678 1.5897773,1.5886789 0 0 0 -1.58978,-1.588678 z"
     stroke-width="2.11896"
     id="path782-6-2"
     style="fill:url(#linearGradient1493);fill-opacity:1" />
</svg>
