<?xml version="1.0" encoding="UTF-8" standalone="no"?>
<svg
   height="32"
   width="32"
   version="1.1"
   id="svg41"
   sodipodi:docname="preferences-desktop-activities.svg"
   inkscape:version="1.2.1 (9c6d41e410, 2022-07-14)"
   xmlns:inkscape="http://www.inkscape.org/namespaces/inkscape"
   xmlns:sodipodi="http://sodipodi.sourceforge.net/DTD/sodipodi-0.dtd"
   xmlns:xlink="http://www.w3.org/1999/xlink"
   xmlns="http://www.w3.org/2000/svg"
   xmlns:svg="http://www.w3.org/2000/svg">
  <defs
     id="defs45">
    <linearGradient
       id="linearGradient1058"
       x1="-184.75"
       x2="-170.19"
       y1="-8.5412998"
       y2="-15.811"
       gradientTransform="matrix(1.9241615,0,0,1.9226597,357.47866,32.410369)"
       gradientUnits="userSpaceOnUse">
      <stop
         stop-color="#505f64"
         offset="0"
         id="stop2-3" />
      <stop
         stop-color="#647378"
         offset="1"
         id="stop4-6" />
    </linearGradient>
    <linearGradient
       xlink:href="#b-3"
       id="c-5"
       y1="542.78998"
       y2="530.78998"
       x2="0"
       gradientUnits="userSpaceOnUse"
       gradientTransform="matrix(0.42857143,0,0,0.42857143,-194.39387,-242.32573)" />
    <linearGradient
       id="b-3"
       y1="523.79999"
       y2="503.79999"
       x2="0"
       gradientUnits="userSpaceOnUse">
      <stop
         stop-color="#2a2c2f"
         id="stop202-5" />
      <stop
         offset="1"
         stop-color="#424649"
         id="stop204-6" />
    </linearGradient>
    <linearGradient
       id="d-7"
       y1="29"
       x1="25"
       y2="44"
       x2="40"
       gradientUnits="userSpaceOnUse"
       gradientTransform="translate(-79.427,-14.3585)">
      <stop
         stop-color="#383e51"
         id="stop208" />
      <stop
         offset="1"
         stop-color="#655c6f"
         stop-opacity="0"
         id="stop210" />
    </linearGradient>
    <linearGradient
       id="c-53"
       gradientUnits="userSpaceOnUse"
       x1="11"
       x2="14.857143"
       xlink:href="#a"
       y1="6.5"
       y2="10.357143"
       gradientTransform="translate(-17.351695,-34.025424)" />
    <linearGradient
       id="linearGradient1409">
      <stop
         offset="0"
         stop-color="#292c2f"
         id="stop2-5" />
      <stop
         offset="1"
         stop-opacity="0"
         id="stop4-62" />
    </linearGradient>
    <linearGradient
       id="b-9"
       gradientUnits="userSpaceOnUse"
       x1="10.000001"
       x2="14"
       xlink:href="#a"
       y1="14.999999"
       y2="18.999998"
       gradientTransform="translate(-17.351695,-34.025424)" />
    <linearGradient
       inkscape:collect="always"
       xlink:href="#a"
       id="linearGradient1505"
       gradientUnits="userSpaceOnUse"
       x1="11"
       y1="6.5"
       x2="14.857143"
       y2="10.357143"
       gradientTransform="matrix(1.5555556,0,0,1.5555556,-0.91864376,-1.105648)" />
    <linearGradient
       inkscape:collect="always"
       xlink:href="#a"
       id="linearGradient1507"
       gradientUnits="userSpaceOnUse"
       x1="10.000001"
       y1="14.999999"
       x2="14"
       y2="18.999998"
       gradientTransform="matrix(1.5555556,0,0,1.5555556,-0.91864376,-1.105648)" />
  </defs>
  <sodipodi:namedview
     id="namedview43"
     pagecolor="#ffffff"
     bordercolor="#666666"
     borderopacity="1.0"
     inkscape:showpageshadow="2"
     inkscape:pageopacity="0.0"
     inkscape:pagecheckerboard="0"
     inkscape:deskcolor="#d1d1d1"
     showgrid="false"
     inkscape:zoom="10.727273"
     inkscape:cx="11"
     inkscape:cy="3.6822033"
     inkscape:window-width="1920"
     inkscape:window-height="1000"
     inkscape:window-x="0"
     inkscape:window-y="0"
     inkscape:window-maximized="1"
     inkscape:current-layer="svg41" />
  <linearGradient
     id="a">
    <stop
       offset="0"
       stop-color="#292c2f"
       id="stop2" />
    <stop
       offset="1"
       stop-opacity="0"
       id="stop4" />
  </linearGradient>
  <linearGradient
     id="b"
     gradientUnits="userSpaceOnUse"
     x1="10.000001"
     x2="14"
     xlink:href="#a"
     y1="14.999999"
     y2="18.999998" />
  <linearGradient
     id="c"
     gradientUnits="userSpaceOnUse"
     x1="11"
     x2="14.857143"
     xlink:href="#a"
     y1="6.5"
     y2="10.357143" />
  <linearGradient
     id="d"
     gradientUnits="userSpaceOnUse"
     x1="14.857143"
     x2="19.357143"
     xlink:href="#e"
     y1="15.5"
     y2="20" />
  <linearGradient
     id="e">
    <stop
       offset="0"
       id="stop10" />
    <stop
       offset="1"
       stop-opacity="0"
       id="stop12" />
  </linearGradient>
  <linearGradient
     id="f"
     gradientUnits="userSpaceOnUse"
     x1="14.857143"
     x2="20"
     xlink:href="#e"
     y1="6.5"
     y2="11.642857" />
  <linearGradient
     id="g"
     gradientTransform="matrix(0.5625,0,0,0.64285714,2,0.714286)"
     gradientUnits="userSpaceOnUse"
     x1="32"
     x2="32"
     y1="30"
     y2="2">
    <stop
       offset="0"
       stop-color="#171d25"
       id="stop16" />
    <stop
       offset="1"
       stop-color="#303236"
       id="stop18" />
  </linearGradient>
  <path
     d="M 15.999998,2 A 13.999998,13.98907 0 0 0 2,15.989071 h 27.892667 c 0.03774,0 0.06925,0.01979 0.106664,0.02186 a 13.999998,13.98907 0 0 0 6.67e-4,-0.02186 A 13.999998,13.98907 0 0 0 16.000162,2 Z"
     fill="url(#linearGradient1058)"
     stroke-width="1.92348"
     id="path32"
     style="fill:url(#linearGradient1058)" />
  <path
     d="M 16.000002,30 A 13.999998,13.98907 0 0 0 30,16.010929 H 2.1073333 c -0.037738,0 -0.069253,-0.01979 -0.1066644,-0.02186 A 13.999998,13.98907 0 0 0 2.0000016,16.010929 13.999998,13.98907 0 0 0 15.999838,30 Z"
     stroke-width="1.92348"
     id="path32-7"
     style="fill:#397da1;fill-opacity:1" />
  <path
     d="M 17.748023,3.5610187 13.081356,5.1165742 V 14.449908 H 28.636912 Z"
     fill="url(#c)"
     opacity="0.2"
     id="path33-1-3"
     style="fill:url(#linearGradient1505);stroke-width:1" />
  <path
     d="m 13.081356,19.116574 -1.555555,6.222222 4.666666,3.111112 h 12.444445 l -8.595053,-9.293837 z"
     fill="url(#b)"
     opacity="0.2"
     id="path35-2-6"
     style="fill:url(#linearGradient1507);stroke-width:1" />
  <path
     d="M 11.525801,3.5610187 V 14.449908 h 9.333333 V 6.6721298 L 17.748023,3.5610187 Z m 1.555555,1.5555555 h 3.111111 v 3.1111111 h 3.111111 v 4.6666667 h -6.222222 z m 3.111111,12.4444448 a 5.4444444,5.4444444 0 0 0 -5.444444,5.444444 5.4444444,5.4444444 0 0 0 5.444444,5.444445 5.4444444,5.4444444 0 0 0 5.444445,-5.444445 5.4444444,5.4444444 0 0 0 -5.444445,-5.444444 z m 0,1.555555 a 3.8888889,3.8888889 0 0 1 2.309028,0.759548 v 0.0031 a 0.36473764,0.36473764 0 0 1 0,0.139751 c -0.02759,0.07098 -0.09948,0.06275 -0.182291,0.06076 -0.02268,0 -0.0431,0.002 -0.06381,0 -0.138989,-0.0089 -0.274149,-0.05398 -0.337239,0.04558 0.0039,0.07591 0.01675,0.1183 0,0.185329 -0.0126,0.0483 -0.06577,0.07915 -0.06381,0.121536 9.86e-4,0.0207 0.04369,0.06462 0.04861,0.09419 0.0039,0.01675 -0.0068,0.04597 0,0.06076 0.02366,0.04337 0.08014,-0.0068 0.121535,0 0.03943,0.0059 0.07596,0.06501 0.07596,0.109371 a 0.26615991,0.26615991 0 0 1 -0.02735,0.121535 c -0.03943,0.05914 -0.112964,0.04441 -0.170138,0.07596 -0.04634,0.0276 -0.06658,0.09343 -0.09419,0.139751 -0.02957,0.0493 -0.05841,0.06574 -0.04558,0.136718 a 0.332207,0.332207 0 0 1 -0.170123,0.173102 0.39233941,0.39233941 0 0 0 -0.136718,0.106338 c -0.03251,0.03352 -0.07744,0.04934 -0.09419,0.07596 -0.0126,0.01971 -0.0014,0.06659 -0.01525,0.09419 -0.01971,0.03746 -0.05133,0.06692 -0.07596,0.106338 -0.01182,0.01675 -0.03279,0.04015 -0.04558,0.06381 -0.02957,0.05126 -0.06869,0.09137 -0.06379,0.136718 0.0039,0.04437 0.06085,0.05575 0.06379,0.09419 0.002,0.02169 -0.0192,0.0371 -0.01823,0.06076 9.88e-4,0.03352 0.01509,0.04836 0.01823,0.07596 0.0059,0.06605 -0.03581,0.09439 -0.04861,0.139751 -0.0059,0.02168 0.005,0.04401 0,0.06076 -0.0098,0.03251 -0.06076,0.05474 -0.06076,0.09419 -9.86e-4,0.0276 0.0436,0.05171 0.04558,0.09114 0.002,0.02661 -0.02013,0.05132 -0.01525,0.07596 0.0098,0.0493 0.102293,0.116511 0.139751,0.154949 0.05126,0.05029 0.09985,0.08349 0.121536,0.136717 0.01971,0.04633 0.02833,0.120447 0.06381,0.154949 0.02562,0.02464 0.07583,0.03817 0.109371,0.06381 0.03057,0.02464 0.07281,0.03413 0.106338,0.06076 0.05423,0.04239 0.128955,0.1295 0.21571,0.124569 0.04632,-0.0039 0.08644,-0.02455 0.136718,-0.03343 0.05321,-0.0089 0.11592,-0.0353 0.170139,-0.03038 0.04141,0.005 0.0812,0.03334 0.124569,0.03038 a 0.51457582,0.51457582 0 0 0 0.151915,-0.04558 c 0.08871,-0.03844 0.226333,-0.109869 0.355469,-0.09114 0.09858,0.01384 0.101143,0.125783 0.170139,0.170139 0.07887,0.0068 0.137434,-0.01579 0.200521,0 0.04732,0.01089 0.101406,0.09926 0.106338,0.136718 0.005,0.03943 -0.02545,0.06748 -0.03038,0.09114 -0.0126,0.05225 -0.0215,0.122422 -0.03038,0.154949 -0.0068,0.02661 -0.01616,0.05032 -0.01525,0.07596 0,0.02366 0.0371,0.0788 0.06076,0.109371 0.02957,0.03746 0.07291,0.06493 0.109371,0.106338 0.06507,0.07491 0.09137,0.179951 0.136718,0.279514 0.01182,0.02562 -0.0098,0.02921 0,0.06076 -0.01971,0.149831 -0.06852,0.249637 -0.167101,0.416234 -0.04732,0.05322 -0.09518,0.1183 -0.09419,0.185329 -0.0031,0.127571 0.05038,0.205934 0.06988,0.309896 a 3.8888889,3.8888889 0 0 1 -3.165635,1.652777 3.8888889,3.8888889 0 0 1 -1.206164,-0.200521 c -0.0079,-0.01766 1.79e-4,-0.03872 -0.0092,-0.05469 -0.02168,-0.03055 -0.05493,-0.04578 -0.06381,-0.09114 0.06505,-0.0126 0.153425,0.07121 0.246096,0.04558 0.04436,-0.0126 0.120042,-0.09631 0.139751,-0.136718 0.0068,-0.0126 -0.0059,-0.06418 0,-0.07899 0.0089,-0.01675 0.02842,-0.0215 0.03038,-0.03038 0.0059,-0.02464 -0.005,-0.0308 0,-0.04558 0.01577,-0.04632 0.06757,-0.07587 0.09419,-0.109371 0.01971,-0.02464 0.04203,-0.04934 0.06076,-0.07596 0.02168,-0.02761 0.03176,-0.03712 0.04558,-0.06076 0.01384,-0.08182 -0.05009,-0.143764 -0.03038,-0.215712 0.0217,-0.08083 0.137838,-0.133669 0.215711,-0.170139 0.02662,-0.0126 0.05328,-0.03771 0.07596,-0.04558 0.05323,-0.01873 0.118875,-0.01244 0.170137,-0.03038 0.0838,-0.02957 0.11354,-0.12362 0.154949,-0.20052 0.01971,-0.03548 0.04164,-0.06854 0.04558,-0.09419 0.003,-0.02268 -0.005,-0.04835 0,-0.07596 0.005,-0.0266 0.0084,-0.04637 0.01524,-0.07596 a 0.78073574,0.78073574 0 0 0 0.01524,-0.154948 c 0,-0.03648 -0.01416,-0.04646 -0.01524,-0.07899 -0.0059,-0.116324 0.03259,-0.119202 0.07596,-0.18229 0.0207,-0.03156 0.0308,-0.08669 0.04558,-0.109372 0.07296,-0.106462 0.194201,-0.158406 0.18533,-0.322048 -0.0039,-0.05322 -0.02134,-0.168571 -0.06076,-0.185329 -0.02168,-0.0098 -0.07585,-0.0023 -0.109371,-0.01524 -0.105482,-0.03943 -0.181258,-0.160281 -0.291667,-0.170139 h -0.06076 c -0.04337,0 -0.0894,-0.04065 -0.136718,-0.04558 -0.03155,-0.0039 -0.09164,0.0089 -0.109371,0 -0.02759,-0.01384 -0.0229,-0.06322 -0.04558,-0.07899 -0.01775,-0.01182 -0.0514,-0.01748 -0.07899,-0.02735 a 0.36769497,0.36769497 0 0 0 -0.121535,-0.03343 c -0.01675,-9.87e-4 -0.06126,0.003 -0.07899,0 -0.02859,-0.005 -0.05031,-0.02883 -0.07596,-0.04558 -0.03253,-0.01971 -0.04794,-0.03317 -0.06076,-0.06076 0.02957,-0.0976 -0.07448,-0.11396 -0.09419,-0.170139 -0.0089,-0.02662 0.0098,-0.06748 0,-0.09114 -0.01089,-0.03351 -0.0385,-0.0514 -0.07596,-0.07899 a 0.42092696,0.42092696 0 0 0 -0.21571,-0.106338 c -0.04041,-0.005 -0.09047,0.003 -0.139751,0 a 0.24250125,0.24250125 0 0 1 -0.151916,-0.07899 c -0.03839,-0.04334 -0.04544,-0.0856 -0.07896,-0.106291 -0.03057,-0.01971 -0.08465,-0.02487 -0.106338,-0.04558 -0.01,-0.0089 -0.0072,-0.02792 -0.01524,-0.04861 -0.01677,-0.03251 -0.0501,-0.03653 -0.03038,-0.07596 -0.0355,-0.01775 -0.02536,0.02209 -0.06381,0.01525 -0.03548,-0.0493 -0.05785,-0.07555 -0.136718,-0.06076 -0.03648,0.0068 -0.06798,0.05978 -0.109371,0.06076 -0.03548,0 -0.06001,-0.05387 -0.106338,-0.06076 -0.0345,-0.005 -0.08473,0.03629 -0.109371,0.03038 -0.03844,-0.0068 -0.04145,-0.05228 -0.07596,-0.07596 -0.02564,-0.01675 -0.08038,-0.06176 -0.09419,-0.06076 -0.04437,0 -0.0756,0.09428 -0.136718,0.06076 -0.03057,-0.03845 0.05167,-0.0425 0.01524,-0.07899 -0.02661,-0.02662 -0.03908,0.0034 -0.06076,0.01823 -0.02563,0.01675 -0.05139,0.03573 -0.07899,0.04558 -0.0621,0.02268 -0.1036,0.01994 -0.151915,0.04558 -0.04437,0.02268 -0.05238,0.06099 -0.07899,0.106338 -0.01971,0.03746 -0.06059,0.09221 -0.09114,0.09419 -0.03844,0.002 -0.07487,-0.04902 -0.109372,-0.06381 -0.102526,-0.04436 -0.160331,0.03242 -0.246093,0.03343 -0.07887,9.83e-4 -0.18525,-0.125596 -0.182293,-0.200522 0.002,-0.04534 0.0234,-0.112964 0.02735,-0.170139 0.0059,-0.04436 0.04763,-0.08318 0.04861,-0.124569 0,-0.05423 -0.08907,-0.100395 -0.124569,-0.106338 -0.03621,-0.007 -0.07649,-0.0044 -0.118486,0 a 3.8888889,3.8888889 0 0 1 0.401042,-1.151476 c 0.02697,0.0087 0.06915,0.05696 0.07291,0.08811 0.0039,0.03942 -0.02704,0.08022 -0.01524,0.124569 0.04141,0.04337 0.125191,0.06551 0.18533,0.09114 0.03943,-0.03251 0.0059,-0.106571 0,-0.151915 -9.86e-4,-0.0207 0.002,-0.0451 0,-0.06381 -0.005,-0.03253 -0.01823,-0.06355 -0.01823,-0.09114 0,-0.128147 0.09858,-0.180628 0.185329,-0.230902 0.03648,-0.02169 0.07684,-0.06322 0.109371,-0.07899 0.04534,-0.02268 0.07093,-0.02391 0.109371,-0.04558 0.06802,-0.03942 0.130044,-0.07719 0.182292,-0.121536 0.02464,-0.05914 -0.002,-0.128146 0,-0.18533 0.02464,-0.01478 0.03719,0.002 0.06381,0 0.04041,-0.0089 0.0523,-0.07149 0.07596,-0.09419 0.01276,-0.01384 0.05919,-0.01658 0.07596,-0.03038 0.04141,-0.03155 0.04351,-0.07734 0.07899,-0.09114 0.01276,-0.005 0.04105,-0.0092 0.06076,-0.01524 0.0276,-0.0068 0.06297,-0.03383 0.106338,-0.04861 0.02759,-0.0098 0.09755,-0.0023 0.109371,-0.01213 0.01276,-0.01384 -0.005,-0.07348 0,-0.09419 0.0207,-0.101515 0.170591,-0.103195 0.261283,-0.136717 0.0621,-0.02464 0.130527,-0.07761 0.200522,-0.06379 -0.01384,0.0483 -0.07465,0.03296 -0.06381,0.09114 0.01577,0.08182 0.111175,-0.01747 0.139751,-0.02735 0.05521,-0.02366 0.159926,-0.03817 0.230902,-0.06379 0.06309,-0.02266 0.168536,-0.06378 0.109371,-0.136718 -0.04931,-0.003 -0.06602,0.04205 -0.109371,0.06076 -0.02959,0.005 -0.03612,-0.01322 -0.06076,-0.01524 -0.02464,-9.85e-4 -0.03611,0.01912 -0.06076,0.01524 -0.02365,-0.005 -0.05986,-0.05041 -0.06379,-0.07899 -0.0098,-0.07492 0.07784,-0.09671 0.109371,-0.151915 -0.02168,-0.06803 -0.111968,-0.0037 -0.170138,-0.03038 0.0059,-0.04041 0.03069,-0.0863 0.07899,-0.09419 a 0.3095341,0.3095341 0 0 1 0.151915,0.03038 c 0.0126,0.01182 -0.0045,0.04506 0.01525,0.06381 0.02366,0.01971 0.06362,0.005 0.09419,0 0.01089,-0.05126 -0.07269,-0.03029 -0.06379,-0.06381 0.06014,-0.03943 0.174213,-0.02052 0.249132,-0.03038 0.04239,-0.0068 0.0831,-0.04007 0.121535,-0.06076 0.03548,-0.02071 0.07092,-0.04872 0.109371,-0.01525 0.0098,0.03648 -0.02792,0.05821 -0.04861,0.07596 -0.069,0.06112 -0.129049,0.129547 -0.182291,0.200521 0.03253,0.03253 0.08151,0.0092 0.136718,0.01524 0.02168,0.003 0.05427,0.0112 0.07596,0.01525 0.0276,0.005 0.05829,-0.005 0.07899,0 0.03844,0.0089 0.0375,0.06379 0.07596,0.06379 0.06014,0 0.06586,-0.05278 0.03038,-0.09419 0.01182,-0.04239 0.03099,-0.0798 0.01524,-0.109371 -0.0276,-0.05423 -0.131786,0.01011 -0.136717,-0.06076 -0.0039,-0.04437 0.04499,-0.05762 0.06076,-0.09114 -0.0068,-0.08675 0.06964,-0.09228 0.06076,-0.170139 -0.005,-0.03251 -0.0381,-0.03019 -0.06076,-0.06076 -0.0072,-0.0096 -0.0126,-0.02564 -0.01823,-0.0395 a 3.8888889,3.8888889 0 0 1 0.680425,-0.06084 z m 2.649306,1.045139 a 3.8888889,3.8888889 0 0 1 0.40408,0.434462 c -0.01198,0.003 -0.02252,0.0061 -0.03343,0.0061 -0.03943,0 -0.120851,-0.01912 -0.170138,-0.01525 -0.02957,0.002 -0.04836,0.01322 -0.07596,0.01525 -0.07887,0.0059 -0.124211,-0.005 -0.185331,0 a 0.64864156,0.64864156 0 0 0 -0.170137,0.04558 c -0.01971,0.0098 -0.03414,0.03276 -0.06076,0.04558 -0.0126,0.0059 -0.02884,0.01042 -0.04558,0.01823 -0.02564,0.01182 -0.07053,0.03867 -0.09419,0.04558 -0.0345,0.0089 -0.07362,-0.003 -0.136717,0 -0.04632,0.002 -0.123589,-0.0086 -0.124569,-0.06381 0,-0.0828 0.15204,-0.04696 0.230903,-0.06076 0.02959,-0.0059 0.04048,-0.04007 0.07596,-0.06076 0.01675,-0.0098 0.03186,-0.01954 0.04861,-0.03038 0.02662,-0.01971 0.07103,-0.05427 0.07596,-0.07596 0.003,-0.01971 -0.01717,-0.04903 -0.01524,-0.06381 0.0039,-0.01873 0.0361,-0.0371 0.06076,-0.06076 0.03746,-0.03746 0.06207,-0.08473 0.109372,-0.109371 0.03055,-0.01675 0.09156,-0.02094 0.106337,-0.04558 0.0016,-0.01182 3.13e-4,-0.01708 0,-0.02431 z m -6.516927,2.582465 c 0.0058,0.0048 0.01244,0.01182 0.01823,0.01524 0.002,0.02957 -0.0098,0.05427 0,0.07596 0.02268,0.03156 0.06691,0.04311 0.106338,0.06381 0.04436,0.02464 0.06395,0.08661 0.106338,0.106338 0.01577,0.0059 0.04113,-0.0068 0.06381,0 0.05914,0.01775 0.07026,0.106929 0.121535,0.09114 0.03352,-0.0098 0.0427,-0.05863 0.04861,-0.09114 0.02268,-0.02366 0.04048,-0.06076 0.07596,-0.06076 0.05521,-9.86e-4 0.07044,0.06732 0.09114,0.12152 0.01089,0.02957 0.03974,0.06166 0.04861,0.09419 a 0.80932328,0.80932328 0 0 1 0,0.246093 c -0.01478,0.04141 -0.07487,0.06101 -0.109371,0.106338 -0.01577,0.02071 -0.03276,0.05 -0.04558,0.06381 -0.0207,0.02662 -0.04499,0.03612 -0.06076,0.06076 -0.0098,0.0126 -0.0093,0.04203 -0.01823,0.06076 -0.02662,0.05718 -0.06824,0.101158 -0.04558,0.17014 0.0098,0.0276 0.04558,0.05763 0.04558,0.09114 0,0.03943 -0.08523,0.05082 -0.09114,0.09419 -0.005,0.03057 0.03572,0.09433 0.04558,0.136718 0.0068,0.03155 0.05821,0.05829 0.07596,0.07899 0.03155,0.03548 0.0656,0.07716 0.09419,0.121536 0.05718,0.08675 0.08251,0.19375 0.136717,0.279513 0.02957,0.04337 0.08966,0.07423 0.109371,0.121535 0.0098,0.02268 -0.0089,0.07044 0,0.09114 0.03253,0.07294 0.188338,0.148852 0.261286,0.185331 0.03352,0.01675 0.06264,0.03088 0.09419,0.04861 0.04732,0.02662 0.143438,0.07913 0.1671,0.121536 0.02168,0.03746 0.03777,0.125206 0.04861,0.18533 0.01384,0.07887 -0.0039,0.145133 0,0.230902 0.002,0.04632 0.01524,0.07725 0.01524,0.124569 v 0.06076 c -9.86e-4,0.05521 0.005,0.113944 0,0.170139 a 3.8888889,3.8888889 0 0 1 -1.42492,-3.004853 3.8888889,3.8888889 0 0 1 0.02126,-0.261285 z"
     fill="#eff0f1"
     id="path37-7-0"
     style="stroke-width:1" />
</svg>
