<?xml version="1.0" encoding="UTF-8" standalone="no"?>
<svg
   height="32"
   width="32"
   version="1.1"
   id="svg461"
   sodipodi:docname="preferences-system-network-server-dhcp.svg"
   inkscape:version="1.2.1 (9c6d41e410, 2022-07-14)"
   xmlns:inkscape="http://www.inkscape.org/namespaces/inkscape"
   xmlns:sodipodi="http://sodipodi.sourceforge.net/DTD/sodipodi-0.dtd"
   xmlns:xlink="http://www.w3.org/1999/xlink"
   xmlns="http://www.w3.org/2000/svg"
   xmlns:svg="http://www.w3.org/2000/svg">
  <defs
     id="defs465">
    <linearGradient
       gradientTransform="matrix(0.69997044,0,0,0.69993119,-301.98799,-350.62385)"
       gradientUnits="userSpaceOnUse"
       x2="426.69501"
       y2="499.92099"
       y1="547.67499"
       id="a-6"
       x1="389.32001">
      <stop
         stop-color="#18222a"
         style="stop-color:#1e2b35;stop-opacity:1"
         id="stop216-3" />
      <stop
         stop-color="#566069"
         offset="1"
         style="stop-color:#6d7983;stop-opacity:1"
         id="stop218" />
    </linearGradient>
    <linearGradient
       inkscape:collect="always"
       xlink:href="#e-3"
       id="linearGradient1270"
       gradientUnits="userSpaceOnUse"
       gradientTransform="matrix(1.5555555,0,0,1.5555555,0.44449176,4.0786182)"
       x1="7.00001"
       y1="4.99997"
       x2="13.50001"
       y2="11.49997" />
    <linearGradient
       id="e-3">
      <stop
         offset="0"
         id="stop232" />
      <stop
         offset="1"
         stop-opacity="0"
         id="stop234" />
    </linearGradient>
    <linearGradient
       inkscape:collect="always"
       xlink:href="#e-3"
       id="linearGradient1272"
       gradientUnits="userSpaceOnUse"
       gradientTransform="matrix(1.5555555,0,0,1.5555555,0.44449176,4.0786182)"
       x1="7.00001"
       y1="6.99997"
       x2="12.45399"
       y2="12.45298" />
    <linearGradient
       inkscape:collect="always"
       xlink:href="#e-3"
       id="linearGradient1274"
       gradientUnits="userSpaceOnUse"
       gradientTransform="matrix(1.5555555,0,0,1.5555555,0.44449176,4.0786182)"
       x1="7.00001"
       y1="10.99997"
       x2="12.45399"
       y2="16.45298" />
    <linearGradient
       inkscape:collect="always"
       xlink:href="#e-3"
       id="linearGradient1276"
       gradientUnits="userSpaceOnUse"
       gradientTransform="matrix(1.5555555,0,0,1.5555555,0.44449176,4.0786182)"
       x1="7.00001"
       y1="8.9999704"
       x2="11.50001"
       y2="13.49997" />
    <linearGradient
       inkscape:collect="always"
       xlink:href="#c-6"
       id="linearGradient1278"
       gradientUnits="userSpaceOnUse"
       gradientTransform="matrix(3.1111104,0,0,1.5555555,-1200.6667,-798.27381)"
       x1="389.57101"
       y1="526.79797"
       x2="389.52429"
       y2="519.54938" />
    <linearGradient
       id="c-6">
      <stop
         offset="0"
         stop-color="#c6cdd1"
         id="stop226" />
      <stop
         offset="1"
         stop-color="#e0e5e7"
         id="stop228" />
    </linearGradient>
    <linearGradient
       inkscape:collect="always"
       xlink:href="#e-3"
       id="linearGradient1280"
       gradientUnits="userSpaceOnUse"
       gradientTransform="matrix(1.5555555,0,0,1.5555555,0.44449176,4.0786182)"
       x1="3.00001"
       y1="4.99997"
       x2="6.00001"
       y2="7.99997" />
    <linearGradient
       inkscape:collect="always"
       xlink:href="#e-3"
       id="linearGradient1282"
       gradientUnits="userSpaceOnUse"
       gradientTransform="matrix(1.5555555,0,0,1.5555555,0.44449176,4.0786182)"
       x1="3.00001"
       y1="6.99997"
       x2="6.00001"
       y2="9.9999704" />
    <linearGradient
       inkscape:collect="always"
       xlink:href="#e-3"
       id="linearGradient1284"
       gradientUnits="userSpaceOnUse"
       gradientTransform="matrix(1.5555555,0,0,1.5555555,0.44449176,4.0786182)"
       x1="3.00001"
       y1="8.9999704"
       x2="6.00001"
       y2="11.99997" />
    <linearGradient
       inkscape:collect="always"
       xlink:href="#e-3"
       id="linearGradient1286"
       gradientUnits="userSpaceOnUse"
       gradientTransform="matrix(1.5555555,0,0,1.5555555,0.44449176,4.0786182)"
       x1="3.00001"
       y1="10.99997"
       x2="6.00001"
       y2="13.99997" />
  </defs>
  <sodipodi:namedview
     id="namedview463"
     pagecolor="#ffffff"
     bordercolor="#666666"
     borderopacity="1.0"
     inkscape:showpageshadow="2"
     inkscape:pageopacity="0.0"
     inkscape:pagecheckerboard="0"
     inkscape:deskcolor="#d1d1d1"
     showgrid="false"
     inkscape:zoom="20.85965"
     inkscape:cx="18.504625"
     inkscape:cy="21.069385"
     inkscape:window-width="1920"
     inkscape:window-height="1002"
     inkscape:window-x="0"
     inkscape:window-y="0"
     inkscape:window-maximized="1"
     inkscape:current-layer="svg461" />
  <linearGradient
     id="f"
     gradientUnits="userSpaceOnUse"
     x1="5"
     x2="18"
     y1="12"
     y2="25">
    <stop
       offset="0"
       stop-color="#292c2f"
       id="stop423" />
    <stop
       offset="1"
       stop-opacity="0"
       id="stop425" />
  </linearGradient>
  <linearGradient
     id="b"
     gradientTransform="matrix(.7 0 0 .7 -.7 -1.1)"
     gradientUnits="userSpaceOnUse"
     x2="0"
     y1="44"
     y2="4">
    <stop
       offset="0"
       stop-color="#1d1e1e"
       id="stop428" />
    <stop
       offset="1"
       stop-color="#44484c"
       id="stop430" />
  </linearGradient>
  <linearGradient
     id="c"
     x1="6"
     x2="6"
     xlink:href="#a"
     y1="5"
     y2="4" />
  <linearGradient
     id="d"
     x1="6"
     x2="6"
     xlink:href="#a"
     y1="16"
     y2="15" />
  <linearGradient
     id="e"
     x1="6"
     x2="6"
     xlink:href="#a"
     y1="27"
     y2="26" />
  <linearGradient
     id="a"
     gradientUnits="userSpaceOnUse"
     x2="0"
     y1="507.8"
     y2="506.8">
    <stop
       offset="0"
       stop-color="#3da103"
       id="stop436" />
    <stop
       offset="1"
       stop-color="#7ddf07"
       id="stop438" />
  </linearGradient>
  <rect
     width="27.998781"
     x="-29.99939"
     y="2.0013762"
     rx="13.999393"
     height="27.997248"
     transform="scale(-1,1)"
     style="display:inline;overflow:visible;fill:url(#a-6);stroke-width:1.95969;stroke-opacity:0.55"
     id="rect223"
     ry="13.998624" />
  <path
     style="display:inline;overflow:visible;opacity:0.3;fill:#000000;fill-opacity:1;stroke-width:1.95969;stroke-opacity:0.55"
     d="m 2.0084538,15.650151 c -0.0042,0.116682 -0.0084,0.232706 -0.0084,0.350057 0,7.755297 6.243769,13.998632 13.9993692,13.998632 7.755645,0 13.99946,-6.243335 13.99946,-13.998632 0,-0.117367 -0.0068,-0.232702 -0.0084,-0.350057 -0.184853,7.592146 -6.355778,13.648652 -13.991047,13.648652 -7.6380812,0 -13.8062052,-6.056506 -13.9909712,-13.648652"
     id="path225" />
  <path
     d="m 2.0084538,16.347529 c -0.0042,-0.116682 -0.0084,-0.232039 -0.0084,-0.350052 0,-7.7552468 6.243769,-13.9986368 13.9993692,-13.9986368 7.755645,0 13.99946,6.24339 13.99946,13.9986368 0,0.117351 -0.0068,0.233364 -0.0084,0.350052 -0.184772,-7.5921508 -6.3557,-13.6486388 -13.990966,-13.6486388 -7.6380812,0 -13.8062092,6.056488 -13.9909682,13.6486388"
     style="display:inline;overflow:visible;opacity:0.3;fill:#ffffff;fill-opacity:1;stroke-width:1.95969;stroke-opacity:0.55"
     id="path229" />
  <path
     d="m 11.333383,11.856403 1.555555,1.555555 h 10.888886 l 3.11111,3.111111 3.111111,-3.111111 -3.111111,-3.111111 z"
     fill="url(#l)"
     opacity="0.2"
     id="path261-1"
     style="fill:url(#linearGradient1270);stroke-width:1.55556" />
  <path
     d="m 11.333383,14.967514 1.555555,1.555555 h 7.777775 l 3.111111,3.111111 3.11111,-3.111111 -3.11111,-3.111111 z"
     fill="url(#m)"
     opacity="0.2"
     id="path263-2"
     style="fill:url(#linearGradient1272);stroke-width:1.55556" />
  <path
     d="m 23.77782,19.634172 -12.444442,1.555556 4.666666,4.666666 H 30.00004 Z"
     fill="url(#n)"
     opacity="0.2"
     id="path265-7"
     style="fill:url(#linearGradient1274);stroke-width:1.55556" />
  <path
     d="m 11.333383,18.078625 1.555555,1.555555 h 10.888886 l -3.111111,-3.111111 z"
     fill="url(#o)"
     opacity="0.2"
     id="path267-0"
     style="fill:url(#linearGradient1276);stroke-width:1.55556" />
  <path
     d="m 11.18649,9.9140942 h 10 v 1.9999998 h -10 z m 0,8.9999998 h 10 v 2 h -10 z m 0,-6 h 10 v 2 h -10 z m 0,3 h 10 v 2 h -10 z"
     stroke-width="2.19988"
     id="path269-9"
     style="fill:url(#linearGradient1278)"
     sodipodi:nodetypes="cccccccccccccccccccc" />
  <path
     d="m 5.1111618,11.856403 1.555555,1.555555 h 3.111111 l 1.5555552,1.555556 1.555555,-1.555556 -3.1111102,-3.111111 z"
     fill="url(#h)"
     opacity="0.2"
     id="path271-3"
     style="fill:url(#linearGradient1280);stroke-width:1.55556" />
  <path
     d="m 5.1111618,14.967514 1.555555,1.555555 h 3.111111 l 1.5555552,1.555556 1.555555,-1.555556 -3.1111102,-3.111111 z"
     fill="url(#i)"
     opacity="0.2"
     id="path273-6"
     style="fill:url(#linearGradient1282);stroke-width:1.55556" />
  <path
     d="m 5.1111618,18.078625 1.555555,1.555555 h 3.111111 l 1.5555552,1.555556 1.555555,-1.555556 -3.1111102,-3.111111 z"
     fill="url(#j)"
     opacity="0.2"
     id="path275-0"
     style="fill:url(#linearGradient1284);stroke-width:1.55556" />
  <path
     d="m 9.7778228,19.634172 -4.666666,1.555556 4.666666,4.666666 h 6.2222212 z"
     fill="url(#k)"
     opacity="0.2"
     id="path277-6"
     style="fill:url(#linearGradient1286);stroke-width:1.55556" />
  <path
     d="M 5.1864898,9.9140942 H 10.18649 V 11.914094 H 5.1864898 Z m 0,2.9999998 H 10.18649 v 2 H 5.1864898 Z m 0,3 H 10.18649 v 2 H 5.1864898 Z m 0,3 H 10.18649 v 2 H 5.1864898 Z"
     fill="#11d116"
     id="path279-2"
     style="stroke-width:1.55556"
     sodipodi:nodetypes="cccccccccccccccccccc" />
  <rect
     fill="#eff0f1"
     height="8"
     rx="0.99999988"
     width="8"
     x="18.000053"
     y="17.99884"
     id="rect36-5"
     style="stroke-width:0.5" />
  <path
     d="m 21.500049,18.99884 v 0.500004 h 3 v 3.499992 h -3 v 1.5 h -0.499992 c -0.277008,0 -0.500004,-0.222996 -0.500004,-0.499992 v -2.500008 h 0.500004 v -1.999992 h -1.5 v 1.999992 h 0.499992 v 2.500008 c 0,0.553992 0.446004,0.999996 1.000008,0.999996 h 2.499996 v -0.500004 h -0.999996 v -0.499992 h 2.499996 V 18.99884 Z m -1.5,1.5 h 0.500004 v 0.500004 h -0.500004 z m -0.999996,1.5 v 2.000004 h 0.500004 V 21.99884 Z"
     fill="#232629"
     id="path459-3"
     style="stroke-width:0.500004" />
</svg>
