<?xml version="1.0" encoding="UTF-8" standalone="no"?>
<svg
   version="1.1"
   viewBox="0 0 32 32"
   id="svg162"
   sodipodi:docname="preferences-desktop-color.svg"
   inkscape:version="1.2.2 (b0a8486541, 2022-12-01)"
   width="32"
   height="32"
   xmlns:inkscape="http://www.inkscape.org/namespaces/inkscape"
   xmlns:sodipodi="http://sodipodi.sourceforge.net/DTD/sodipodi-0.dtd"
   xmlns:xlink="http://www.w3.org/1999/xlink"
   xmlns="http://www.w3.org/2000/svg"
   xmlns:svg="http://www.w3.org/2000/svg">
  <sodipodi:namedview
     id="namedview164"
     pagecolor="#ffffff"
     bordercolor="#666666"
     borderopacity="1.0"
     inkscape:showpageshadow="2"
     inkscape:pageopacity="0.0"
     inkscape:pagecheckerboard="0"
     inkscape:deskcolor="#d1d1d1"
     showgrid="false"
     inkscape:zoom="10.727273"
     inkscape:cx="8.2499998"
     inkscape:cy="3.7754236"
     inkscape:window-width="1920"
     inkscape:window-height="1002"
     inkscape:window-x="0"
     inkscape:window-y="0"
     inkscape:window-maximized="1"
     inkscape:current-layer="svg162" />
  <defs
     id="defs110">
    <linearGradient
       id="linearGradient4149"
       x2="0"
       y1="545.79797"
       y2="517.79797"
       gradientTransform="matrix(0.64285714,0,0,0.64285714,138.06132,184.92822)"
       gradientUnits="userSpaceOnUse">
      <stop
         stop-color="#1d1e1e"
         offset="0"
         id="stop2" />
      <stop
         stop-color="#44484c"
         offset="1"
         id="stop4" />
    </linearGradient>
    <linearGradient
       id="linearGradient4274"
       x1="8"
       x2="24.00001"
       y1="23.999973"
       y2="8"
       gradientUnits="userSpaceOnUse"
       xlink:href="#linearGradient4288" />
    <linearGradient
       id="linearGradient4288">
      <stop
         stop-color="#e81877"
         offset="0"
         id="stop8" />
      <stop
         stop-color="#dd1d8c"
         offset=".312499"
         id="stop10" />
      <stop
         stop-color="#6d57b1"
         offset=".562499"
         id="stop12" />
      <stop
         stop-color="#2a78c1"
         offset=".75"
         id="stop14" />
      <stop
         stop-color="#018dcb"
         offset="1"
         id="stop16" />
    </linearGradient>
    <clipPath
       id="clipPath4534">
      <rect
         x="8.0000095"
         y="8"
         width="31.999989"
         height="31.999971"
         rx="15.999986"
         id="rect19" />
    </clipPath>
    <linearGradient
       id="linearGradient4278"
       x1="8"
       x2="24.00001"
       y1="24.000031"
       y2="8"
       gradientTransform="matrix(1,0,0,-1,384.57143,547.798)"
       gradientUnits="userSpaceOnUse"
       xlink:href="#linearGradient4300" />
    <linearGradient
       id="linearGradient4300">
      <stop
         stop-color="#e51561"
         offset="0"
         id="stop23" />
      <stop
         stop-color="#e4156c"
         offset=".312499"
         id="stop25" />
      <stop
         stop-color="#e71e2c"
         offset=".562499"
         id="stop27" />
      <stop
         stop-color="#e8301e"
         offset=".75"
         id="stop29" />
      <stop
         stop-color="#e6320e"
         offset="1"
         id="stop31" />
    </linearGradient>
    <clipPath
       id="clipPath4584">
      <rect
         x="392.57144"
         y="507.798"
         width="31.999989"
         height="31.999971"
         rx="15.999986"
         id="rect34" />
    </clipPath>
    <linearGradient
       id="linearGradient4284"
       x1="8"
       x2="24.00001"
       y1="23.999973"
       y2="8"
       gradientTransform="matrix(-1,0,0,1,432.57143,499.798)"
       gradientUnits="userSpaceOnUse"
       xlink:href="#linearGradient4328" />
    <linearGradient
       id="linearGradient4328">
      <stop
         stop-color="#bec900"
         offset="0"
         id="stop38" />
      <stop
         stop-color="#9ec80a"
         offset=".312499"
         id="stop40" />
      <stop
         stop-color="#71b93d"
         offset=".562499"
         id="stop42" />
      <stop
         stop-color="#35a48f"
         offset=".75"
         id="stop44" />
      <stop
         stop-color="#018fca"
         offset="1"
         id="stop46" />
    </linearGradient>
    <clipPath
       id="clipPath4550">
      <rect
         x="392.57144"
         y="507.798"
         width="31.999989"
         height="31.999971"
         rx="15.999986"
         id="rect49" />
    </clipPath>
    <linearGradient
       id="linearGradient4286"
       x1="8"
       x2="24.00001"
       y1="24"
       y2="8"
       gradientTransform="rotate(180,216.28571,273.899)"
       gradientUnits="userSpaceOnUse"
       xlink:href="#linearGradient4316" />
    <linearGradient
       id="linearGradient4316">
      <stop
         stop-color="#c1cc00"
         offset="0"
         id="stop53" />
      <stop
         stop-color="#dfcd00"
         offset=".312499"
         id="stop55" />
      <stop
         stop-color="#f0cc00"
         offset=".562499"
         id="stop57" />
      <stop
         stop-color="#fd8c08"
         offset=".75"
         id="stop59" />
      <stop
         stop-color="#f25c13"
         offset="1"
         id="stop61" />
    </linearGradient>
    <clipPath
       id="clipPath4568">
      <rect
         x="392.57144"
         y="507.798"
         width="31.999989"
         height="31.999971"
         rx="15.999986"
         id="rect64" />
    </clipPath>
    <clipPath
       id="clipPath4528">
      <rect
         x="8.0000095"
         y="8"
         width="31.999989"
         height="31.999971"
         rx="15.999986"
         id="rect67" />
    </clipPath>
    <filter
       id="filter4390"
       x="-0.060000002"
       y="-0.060000002"
       width="1.12"
       height="1.12"
       color-interpolation-filters="sRGB">
      <feGaussianBlur
         stdDeviation="0.4"
         id="feGaussianBlur70" />
    </filter>
    <clipPath
       id="clipPath4578">
      <rect
         x="392.57144"
         y="507.798"
         width="31.999989"
         height="31.999971"
         rx="15.999986"
         id="rect73" />
    </clipPath>
    <clipPath
       id="clipPath4562">
      <rect
         x="392.57144"
         y="507.798"
         width="31.999989"
         height="31.999971"
         rx="15.999986"
         id="rect76" />
    </clipPath>
    <clipPath
       id="clipPath4544">
      <rect
         x="392.57144"
         y="507.798"
         width="31.999989"
         height="31.999971"
         rx="15.999986"
         id="rect79" />
    </clipPath>
    <clipPath
       id="clipPath4528-1">
      <rect
         x="8.0000095"
         y="8"
         width="31.999989"
         height="31.999971"
         rx="15.999986"
         id="rect82" />
    </clipPath>
    <clipPath
       id="clipPath4578-8">
      <rect
         x="392.57144"
         y="507.798"
         width="31.999989"
         height="31.999971"
         rx="15.999986"
         id="rect85" />
    </clipPath>
    <clipPath
       id="clipPath4562-8">
      <rect
         x="392.57144"
         y="507.798"
         width="31.999989"
         height="31.999971"
         rx="15.999986"
         id="rect88" />
    </clipPath>
    <clipPath
       id="clipPath4544-1">
      <rect
         x="392.57144"
         y="507.798"
         width="31.999989"
         height="31.999971"
         rx="15.999986"
         id="rect91" />
    </clipPath>
    <linearGradient
       id="linearGradient4314"
       x2="0"
       y1="543.79797"
       y2="503.798"
       gradientTransform="matrix(0.12857147,0,0,0.12857152,343.04079,-594.14351)"
       gradientUnits="userSpaceOnUse">
      <stop
         stop-color="#2a2c2f"
         offset="0"
         id="stop94" />
      <stop
         stop-color="#424649"
         offset="1"
         id="stop96" />
    </linearGradient>
    <linearGradient
       id="linearGradient4917"
       x2="0"
       y1="524.79797"
       y2="522.79797"
       gradientTransform="matrix(1.0000033,0,0,1.0000033,-13.001377,2.9982667)"
       gradientUnits="userSpaceOnUse">
      <stop
         stop-color="#989a9b"
         offset="0"
         id="stop99" />
      <stop
         stop-color="#f6f6f7"
         offset="1"
         id="stop101" />
    </linearGradient>
    <linearGradient
       id="linearGradient4499"
       x1="393.57144"
       x2="407.57147"
       y1="524.79797"
       y2="538.79797"
       gradientTransform="matrix(0.64285714,0,0,0.64285714,138.06123,184.92785)"
       gradientUnits="userSpaceOnUse">
      <stop
         stop-color="#292c2f"
         offset="0"
         id="stop104" />
      <stop
         stop-opacity="0"
         offset="1"
         id="stop106" />
    </linearGradient>
    <linearGradient
       id="linearGradient923"
       x1="8"
       x2="24.00001"
       y1="24"
       y2="8"
       gradientTransform="rotate(180,216.28571,273.899)"
       gradientUnits="userSpaceOnUse"
       xlink:href="#linearGradient4316" />
  </defs>
  <g
     id="surface1"
     transform="matrix(0.64137437,0,0,0.64137437,0.72727265,0.4867573)">
    <path
       style="fill:#5c68bf;fill-opacity:1;fill-rule:nonzero;stroke:none"
       d="m 23.8125,2.359375 c 3.289062,0 5.953125,4.441406 5.953125,9.921875 0,5.480469 -2.664063,9.921875 -5.953125,9.921875 -3.289062,0 -5.953125,-4.441406 -5.953125,-9.921875 0,-5.480469 2.664063,-9.921875 5.953125,-9.921875 z m 0,0"
       id="path266" />
    <path
       style="fill:#7d57c2;fill-opacity:1;fill-rule:nonzero;stroke:none"
       d="m 39.246094,8.753906 c 2.324218,2.324219 1.070312,7.347656 -2.804688,11.222656 -3.875,3.875 -8.902344,5.132813 -11.226562,2.808594 -2.324219,-2.324218 -1.066406,-7.351562 2.808594,-11.226562 3.875,-3.875 8.898437,-5.128906 11.222656,-2.804688 z m 0,0"
       id="path268" />
    <path
       style="fill:#eb3f78;fill-opacity:1;fill-rule:nonzero;stroke:none"
       d="m 45.640625,24.1875 c 0,3.289062 -4.441406,5.953125 -9.921875,5.953125 -5.480469,0 -9.921875,-2.664063 -9.921875,-5.953125 0,-3.289062 4.441406,-5.953125 9.921875,-5.953125 5.480469,0 9.921875,2.664063 9.921875,5.953125 z m 0,0"
       id="path270" />
    <path
       style="fill:#ee514f;fill-opacity:1;fill-rule:nonzero;stroke:none"
       d="m 39.246094,39.621094 c -2.324219,2.324218 -7.347656,1.070312 -11.222656,-2.804688 -3.875,-3.875 -5.132813,-8.902344 -2.808594,-11.226562 2.324218,-2.324219 7.351562,-1.066406 11.226562,2.808594 3.875,3.875 5.128906,8.898437 2.804688,11.222656 z m 0,0"
       id="path272" />
    <path
       style="fill:#ff6e42;fill-opacity:1;fill-rule:nonzero;stroke:none"
       d="m 23.8125,26.171875 c 3.289062,0 5.953125,4.441406 5.953125,9.921875 0,5.480469 -2.664063,9.921875 -5.953125,9.921875 -3.289062,0 -5.953125,-4.441406 -5.953125,-9.921875 0,-5.480469 2.664063,-9.921875 5.953125,-9.921875 z m 0,0"
       id="path274-3" />
    <path
       style="fill:#ffa623;fill-opacity:1;fill-rule:nonzero;stroke:none"
       d="m 22.410156,25.589844 c 2.324219,2.324218 1.066406,7.351562 -2.808594,11.226562 -3.875,3.875 -8.898437,5.128906 -11.222656,2.804688 -2.324218,-2.324219 -1.070312,-7.347656 2.804688,-11.222656 3.875,-3.875 8.902344,-5.132813 11.226562,-2.808594 z m 0,0"
       id="path276-6" />
    <path
       style="fill:#9ccc63;fill-opacity:1;fill-rule:nonzero;stroke:none"
       d="m 21.828125,24.1875 c 0,3.289062 -4.441406,5.953125 -9.921875,5.953125 -5.480469,0 -9.921875,-2.664063 -9.921875,-5.953125 0,-3.289062 4.441406,-5.953125 9.921875,-5.953125 5.480469,0 9.921875,2.664063 9.921875,5.953125 z m 0,0"
       id="path278-7" />
    <path
       style="fill:#23a699;fill-opacity:1;fill-rule:nonzero;stroke:none"
       d="m 22.410156,22.785156 c -2.324218,2.324219 -7.351562,1.066406 -11.226562,-2.808594 -3.875,-3.875 -5.128906,-8.898437 -2.804688,-11.222656 2.324219,-2.324218 7.347656,-1.070312 11.222656,2.804688 3.875,3.875 5.132813,8.902344 2.808594,11.226562 z m 0,0"
       id="path280-5" />
    <path
       style="fill:#5c68bf;fill-opacity:1;fill-rule:nonzero;stroke:none"
       d="m 23.8125,2.359375 c -3.296875,0 -5.953125,4.425781 -5.953125,9.921875 0,5.496094 2.65625,9.921875 5.953125,9.921875 z m 0,0"
       id="path282-3" />
    <path
       style="fill:#f0ecf8;fill-opacity:1;fill-rule:nonzero;stroke:none"
       d="m 23.8125,15.257812 c -1.960938,2.9375 -6.820312,5.851563 -6.941406,10.726563 0,0.0078 0,0.01172 0,0.01953 -0.0039,0.05469 -0.0039,0.113282 -0.0039,0.167969 0,3.847656 3.097656,6.945313 6.945312,6.945313 3.847656,0 6.945312,-3.097657 6.945312,-6.945313 0,-0.05469 0,-0.113281 -0.0039,-0.167969 0,-0.0078 0,-0.01172 0,-0.01953 -0.121094,-4.875 -4.980468,-7.789063 -6.941406,-10.726563 z m 0,0"
       id="path284-5" />
  </g>
</svg>
