<?xml version="1.0" encoding="UTF-8" standalone="no"?>
<svg
   height="32"
   width="32"
   version="1.1"
   id="svg272"
   sodipodi:docname="preferences-system-network-proxy.svg"
   inkscape:version="1.2.1 (9c6d41e410, 2022-07-14)"
   xmlns:inkscape="http://www.inkscape.org/namespaces/inkscape"
   xmlns:sodipodi="http://sodipodi.sourceforge.net/DTD/sodipodi-0.dtd"
   xmlns:xlink="http://www.w3.org/1999/xlink"
   xmlns="http://www.w3.org/2000/svg"
   xmlns:svg="http://www.w3.org/2000/svg">
  <defs
     id="defs276">
    <linearGradient
       id="a-3"
       gradientTransform="matrix(1.0000044,0,0,1.0000044,-384.5711,-515.79776)"
       gradientUnits="userSpaceOnUse"
       x2="0"
       y1="545.79797"
       y2="517.79797">
      <stop
         offset="0"
         stop-color="#197cf1"
         id="stop2" />
      <stop
         offset="1"
         stop-color="#20bcfa"
         id="stop4" />
    </linearGradient>
    <linearGradient
       id="b-6"
       gradientUnits="userSpaceOnUse"
       x1="20"
       x2="6"
       y1="19"
       y2="5">
      <stop
         offset="0"
         stop-color="#292c2f"
         id="stop14" />
      <stop
         offset="1"
         stop-opacity="0"
         id="stop16" />
    </linearGradient>
    <linearGradient
       id="c-7"
       gradientUnits="userSpaceOnUse"
       x1="11"
       x2="11"
       y1="19"
       y2="1">
      <stop
         offset="0"
         stop-color="#7cbaf8"
         id="stop9" />
      <stop
         offset="1"
         stop-color="#f4fcff"
         id="stop11" />
    </linearGradient>
  </defs>
  <sodipodi:namedview
     id="namedview274"
     pagecolor="#ffffff"
     bordercolor="#666666"
     borderopacity="1.0"
     inkscape:showpageshadow="2"
     inkscape:pageopacity="0.0"
     inkscape:pagecheckerboard="0"
     inkscape:deskcolor="#d1d1d1"
     showgrid="false"
     inkscape:zoom="10.727273"
     inkscape:cx="11"
     inkscape:cy="3.7754236"
     inkscape:window-width="1920"
     inkscape:window-height="1000"
     inkscape:window-x="0"
     inkscape:window-y="0"
     inkscape:window-maximized="1"
     inkscape:current-layer="svg272" />
  <linearGradient
     id="a"
     gradientUnits="userSpaceOnUse"
     x1="5.0819402"
     x2="5.0819402"
     y1="19.653847"
     y2="1.346154">
    <stop
       offset="0"
       stop-color="#54d883"
       id="stop208" />
    <stop
       offset="1"
       stop-color="#abf9c7"
       id="stop210" />
  </linearGradient>
  <linearGradient
     id="b"
     gradientUnits="userSpaceOnUse"
     x1="7.6973238"
     x2="20.774246"
     y1="3.961539"
     y2="17.038462">
    <stop
       offset="0"
       stop-color="#292c2f"
       id="stop213" />
    <stop
       offset="1"
       stop-opacity="0"
       id="stop215" />
  </linearGradient>
  <linearGradient
     id="c"
     gradientUnits="userSpaceOnUse"
     x1="5.0819402"
     x2="5.0819402"
     y1="19.653847"
     y2="1.346154">
    <stop
       offset="0"
       stop-color="#197cf1"
       id="stop218" />
    <stop
       offset="1"
       stop-color="#20bcfa"
       id="stop220" />
  </linearGradient>
  <linearGradient
     id="d"
     gradientUnits="userSpaceOnUse">
    <stop
       offset="0"
       stop-color="#433a35"
       id="stop223" />
    <stop
       offset="1"
       stop-color="#997657"
       id="stop225" />
  </linearGradient>
  <linearGradient
     id="e"
     gradientUnits="userSpaceOnUse">
    <stop
       offset="0"
       stop-color="#6c5548"
       id="stop228" />
    <stop
       offset="1"
       stop-color="#997657"
       id="stop230" />
  </linearGradient>
  <radialGradient
     id="f"
     cx="6"
     cy="10.999999"
     gradientUnits="userSpaceOnUse"
     r="1"
     gradientTransform="translate(-32.687649,-14.889831)">
    <stop
       offset="0"
       stop-color="#eff0f1"
       id="stop233" />
    <stop
       offset="1"
       stop-color="#bdc3c7"
       id="stop235" />
  </radialGradient>
  <linearGradient
     id="g"
     x1="19"
     x2="19"
     xlink:href="#e"
     y1="19.78261"
     y2="1.695653"
     gradientTransform="translate(-32.687649,-14.889831)" />
  <linearGradient
     id="h"
     x1="18.999998"
     x2="18.295986"
     xlink:href="#e"
     y1="19.999998"
     y2="19.999998"
     gradientTransform="translate(-32.687649,-14.889831)" />
  <linearGradient
     id="i"
     gradientTransform="matrix(1.0000002,0,0,0.67999998,-35.687651,-15.609831)"
     x1="11"
     x2="12"
     xlink:href="#d"
     y1="29"
     y2="29" />
  <linearGradient
     id="j"
     gradientUnits="userSpaceOnUse"
     x1="4"
     x2="9"
     y1="11"
     y2="11">
    <stop
       offset="0"
       stop-color="#997657"
       id="stop241" />
    <stop
       offset="1"
       stop-color="#d4ba94"
       id="stop243" />
  </linearGradient>
  <linearGradient
     id="k"
     x1="5"
     x2="8"
     xlink:href="#e"
     y1="3"
     y2="3" />
  <linearGradient
     id="l"
     x1="3"
     x2="5"
     xlink:href="#d"
     y1="11"
     y2="11" />
  <rect
     style="fill:url(#a-3);stroke-width:1"
     height="27.999998"
     rx="13.999999"
     width="27.999998"
     x="2.0000007"
     y="2.0000014"
     id="rect19" />
  <path
     style="fill:#5edc8b;fill-opacity:1;stroke-width:3.11111;stroke-linejoin:round"
     d="M 15.999999,2 A 13.999999,13.999999 0 0 0 3.4699999,9.7777774 h 1.641111 L 6.6666664,11.333333 V 9.7777774 H 8.2222219 V 8.2222219 L 11.333333,5.1111109 V 6.6666664 L 12.888888,5.1111109 V 3.5555555 h 1.555556 v 1.5555554 h 1.555555 L 17.555555,3.5555555 V 2.0886667 A 13.999999,13.999999 0 0 0 15.999999,2 Z m 9.894889,4.1051109 -0.561556,0.5615555 v 1.5555555 h 1.555556 L 27.32911,7.7819997 A 13.999999,13.999999 0 0 0 25.894888,6.1051109 Z m 2.058,2.6086665 -1.064,1.064 -3.111111,1.5555556 -1.555556,4.666666 h 1.555556 v 1.555556 l 3.111111,1.555555 2.983555,-1.491777 A 13.999999,13.999999 0 0 0 29.999999,15.999999 13.999999,13.999999 0 0 0 27.952888,8.7137774 Z M 3.5555555,12.888888 v 1.555556 H 2.1213333 A 13.999999,13.999999 0 0 0 2,15.999999 h 1.5555555 l 3.1111109,3.111111 h 1.5555555 v 1.555556 H 6.6666664 v 1.555555 l 3.111111,3.111111 v 3.196667 a 13.999999,13.999999 0 0 0 6.2222216,1.47 l 1.555556,-1.555556 v -1.555555 h 1.555555 l 1.555556,-1.555556 v -1.555555 l 1.555555,-1.555556 -1.555555,-1.555555 H 17.555555 L 15.999999,19.11111 H 14.444444 L 12.888888,17.555555 H 9.7777774 V 15.999999 L 8.2222219,17.555555 H 6.6666664 V 15.999999 L 5.1111109,14.444444 v -1.555556 z"
     id="path21" />
  <path
     style="opacity:0.3;fill:#292c2f;stroke-width:3.11111;stroke-linejoin:round"
     d="M 29.96111,15.004444 A 13.999999,13.999999 0 0 1 15.999999,28.444443 13.999999,13.999999 0 0 1 2.0544444,15.222222 13.999999,13.999999 0 0 0 2,15.999999 a 13.999999,13.999999 0 0 0 13.999999,14 13.999999,13.999999 0 0 0 14,-14 13.999999,13.999999 0 0 0 -0.03889,-0.995555 z"
     id="path29" />
  <text
     xml:space="preserve"
     style="font-style:italic;font-variant:normal;font-weight:normal;font-stretch:normal;font-size:8.29629px;line-height:1.25;font-family:sans-serif;-inkscape-font-specification:'sans-serif Italic';fill:#000000;fill-opacity:1;stroke:none;stroke-width:1.55556"
     x="5.4274402"
     y="18.055819"
     id="text934"><tspan
       sodipodi:role="line"
       id="tspan932"
       x="5.4274402"
       y="18.055819"
       style="stroke-width:1.55556">Proxy</tspan></text>
</svg>
