<?xml version="1.0" encoding="UTF-8" standalone="no"?>
<svg
   height="32"
   width="32"
   version="1.1"
   id="svg7122"
   sodipodi:docname="preferences-system-network-server.svg"
   inkscape:version="1.2.1 (9c6d41e410, 2022-07-14)"
   xmlns:inkscape="http://www.inkscape.org/namespaces/inkscape"
   xmlns:sodipodi="http://sodipodi.sourceforge.net/DTD/sodipodi-0.dtd"
   xmlns:xlink="http://www.w3.org/1999/xlink"
   xmlns="http://www.w3.org/2000/svg"
   xmlns:svg="http://www.w3.org/2000/svg">
  <defs
     id="defs7126">
    <linearGradient
       gradientTransform="matrix(0.69997044,0,0,0.69993119,-301.98793,-350.62269)"
       gradientUnits="userSpaceOnUse"
       x2="426.69501"
       y2="499.92099"
       y1="547.67499"
       id="a-6"
       x1="389.32001">
      <stop
         stop-color="#18222a"
         style="stop-color:#1e2b35;stop-opacity:1"
         id="stop216-3" />
      <stop
         stop-color="#566069"
         offset="1"
         style="stop-color:#6d7983;stop-opacity:1"
         id="stop218" />
    </linearGradient>
    <linearGradient
       inkscape:collect="always"
       xlink:href="#c-6"
       id="linearGradient1278"
       gradientUnits="userSpaceOnUse"
       gradientTransform="matrix(3.1111104,0,0,1.5555555,-1197.8664,-797.57294)"
       x1="389.57101"
       y1="526.79797"
       x2="389.52429"
       y2="519.54938" />
    <linearGradient
       id="c-6">
      <stop
         offset="0"
         stop-color="#c6cdd1"
         id="stop226" />
      <stop
         offset="1"
         stop-color="#e0e5e7"
         id="stop228" />
    </linearGradient>
    <linearGradient
       inkscape:collect="always"
       xlink:href="#e-3"
       id="linearGradient1280"
       gradientUnits="userSpaceOnUse"
       gradientTransform="matrix(1.5555555,0,0,1.5555555,3.244847,4.77949)"
       x1="3.00001"
       y1="4.99997"
       x2="6.00001"
       y2="7.99997" />
    <linearGradient
       id="e-3">
      <stop
         offset="0"
         id="stop232" />
      <stop
         offset="1"
         stop-opacity="0"
         id="stop234" />
    </linearGradient>
    <linearGradient
       inkscape:collect="always"
       xlink:href="#e-3"
       id="linearGradient1282"
       gradientUnits="userSpaceOnUse"
       gradientTransform="matrix(1.5555555,0,0,1.5555555,3.244847,4.77949)"
       x1="1.0054113"
       y1="7.4388428"
       x2="6.00001"
       y2="9.9999704" />
  </defs>
  <sodipodi:namedview
     id="namedview7124"
     pagecolor="#ffffff"
     bordercolor="#666666"
     borderopacity="1.0"
     inkscape:showpageshadow="2"
     inkscape:pageopacity="0.0"
     inkscape:pagecheckerboard="0"
     inkscape:deskcolor="#d1d1d1"
     showgrid="false"
     inkscape:zoom="7.375"
     inkscape:cx="16"
     inkscape:cy="16.067797"
     inkscape:window-width="1920"
     inkscape:window-height="1002"
     inkscape:window-x="0"
     inkscape:window-y="0"
     inkscape:window-maximized="1"
     inkscape:current-layer="svg7122" />
  <linearGradient
     id="f"
     gradientUnits="userSpaceOnUse"
     x1="5"
     x2="18"
     y1="12"
     y2="25">
    <stop
       offset="0"
       stop-color="#292c2f"
       id="stop7088" />
    <stop
       offset="1"
       stop-opacity="0"
       id="stop7090" />
  </linearGradient>
  <linearGradient
     id="b"
     gradientTransform="matrix(.7 0 0 .7 -.7 -1.1)"
     gradientUnits="userSpaceOnUse"
     x2="0"
     y1="44"
     y2="4">
    <stop
       offset="0"
       stop-color="#1d1e1e"
       id="stop7093" />
    <stop
       offset="1"
       stop-color="#44484c"
       id="stop7095" />
  </linearGradient>
  <linearGradient
     id="c"
     x1="6"
     x2="6"
     xlink:href="#a"
     y1="5"
     y2="4" />
  <linearGradient
     id="d"
     x1="6"
     x2="6"
     xlink:href="#a"
     y1="16"
     y2="15" />
  <linearGradient
     id="e"
     x1="6"
     x2="6"
     xlink:href="#a"
     y1="27"
     y2="26" />
  <linearGradient
     id="a"
     gradientUnits="userSpaceOnUse"
     x2="0"
     y1="507.8"
     y2="506.8">
    <stop
       offset="0"
       stop-color="#3da103"
       id="stop7101" />
    <stop
       offset="1"
       stop-color="#7ddf07"
       id="stop7103" />
  </linearGradient>
  <rect
     width="27.998781"
     x="-29.999338"
     y="2.0025358"
     rx="13.999393"
     height="27.997248"
     transform="scale(-1,1)"
     style="display:inline;overflow:visible;fill:url(#a-6);stroke-width:1.95969;stroke-opacity:0.55"
     id="rect223"
     ry="13.998624" />
  <path
     d="M 2.0084,16.348689 C 2.0042,16.232007 2,16.11665 2,15.998637 2,8.24339 8.243769,2 15.999369,2 c 7.755645,0 13.99946,6.24339 13.99946,13.998637 0,0.117351 -0.0068,0.233364 -0.0084,0.350052 C 29.805657,8.756538 23.634729,2.70005 15.999463,2.70005 8.361382,2.70005 2.193254,8.756538 2.008495,16.348689"
     style="display:inline;overflow:visible;opacity:0.3;fill:#ffffff;fill-opacity:1;stroke-width:1.95969;stroke-opacity:0.55"
     id="path229" />
  <path
     d="m 13.986845,10.614966 h 10 v 2 h -10 z m 0,9 h 10 v 2 h -10 z m 0,-6 h 10 v 2 h -10 z m 0,3 h 10 v 2 h -10 z"
     stroke-width="2.19988"
     id="path269-9"
     style="fill:url(#linearGradient1278)"
     sodipodi:nodetypes="cccccccccccccccccccc" />
  <path
     d="m 7.911517,12.557275 1.555555,1.555555 h 3.111111 l 1.555555,1.555556 1.555555,-1.555556 -3.11111,-3.111111 z"
     fill="url(#h)"
     opacity="0.2"
     id="path271-3"
     style="fill:url(#linearGradient1280);stroke-width:1.55556" />
  <path
     d="m 7.986845,15.614966 c 0,0 0.961709,1.090457 1.480227,1.608975 h 3.111111 l 1.555555,1.555556 1.555555,-1.555556 -3.11111,-3.111111 z"
     fill="url(#i)"
     opacity="0.2"
     id="path273-6"
     style="fill:url(#linearGradient1282);stroke-width:1.55556"
     sodipodi:nodetypes="ccccccc" />
  <path
     d="m 7.986845,10.614966 h 5 v 2 h -5 z m 0,3 h 5 v 2 h -5 z m 0,3 h 5 v 2 h -5 z m 0,3 h 5 v 2 h -5 z"
     fill="#11d116"
     id="path279-2"
     style="stroke-width:1.55556"
     sodipodi:nodetypes="cccccccccccccccccccc" />
</svg>
