<?xml version="1.0" encoding="UTF-8" standalone="no"?>
<svg
   height="32"
   width="32"
   version="1.1"
   id="svg1303"
   sodipodi:docname="preferences-system-network-server-iscsi.svg"
   inkscape:version="1.2.1 (9c6d41e410, 2022-07-14)"
   xmlns:inkscape="http://www.inkscape.org/namespaces/inkscape"
   xmlns:sodipodi="http://sodipodi.sourceforge.net/DTD/sodipodi-0.dtd"
   xmlns:xlink="http://www.w3.org/1999/xlink"
   xmlns="http://www.w3.org/2000/svg"
   xmlns:svg="http://www.w3.org/2000/svg">
  <defs
     id="defs1307">
    <linearGradient
       gradientTransform="matrix(0.69997042,0,0,0.69993119,-301.98792,-350.62269)"
       gradientUnits="userSpaceOnUse"
       x2="426.69501"
       y2="499.92099"
       y1="547.67499"
       id="a-6"
       x1="389.32001">
      <stop
         stop-color="#18222a"
         style="stop-color:#1e2b35;stop-opacity:1"
         id="stop216-3" />
      <stop
         stop-color="#566069"
         offset="1"
         style="stop-color:#6d7983;stop-opacity:1"
         id="stop218" />
    </linearGradient>
    <linearGradient
       inkscape:collect="always"
       xlink:href="#c-6"
       id="linearGradient1278"
       gradientUnits="userSpaceOnUse"
       gradientTransform="matrix(3.1111103,0,0,1.5555555,-1200.6667,-798.27265)"
       x1="389.57101"
       y1="526.79797"
       x2="389.52429"
       y2="519.54938" />
    <linearGradient
       id="c-6">
      <stop
         offset="0"
         stop-color="#c6cdd1"
         id="stop226" />
      <stop
         offset="1"
         stop-color="#e0e5e7"
         id="stop228" />
    </linearGradient>
    <linearGradient
       inkscape:collect="always"
       xlink:href="#e-3"
       id="linearGradient1280"
       gradientUnits="userSpaceOnUse"
       gradientTransform="matrix(1.5555555,0,0,1.5555555,0.444438,4.079778)"
       x1="3.00001"
       y1="4.99997"
       x2="6.00001"
       y2="7.99997" />
    <linearGradient
       id="e-3">
      <stop
         offset="0"
         id="stop232" />
      <stop
         offset="1"
         stop-opacity="0"
         id="stop234" />
    </linearGradient>
    <linearGradient
       inkscape:collect="always"
       xlink:href="#e-3"
       id="linearGradient1282"
       gradientUnits="userSpaceOnUse"
       gradientTransform="matrix(1.5555555,0,0,1.5555555,0.444438,4.079778)"
       x1="1.0054113"
       y1="7.4388428"
       x2="6.00001"
       y2="9.9999704" />
    <linearGradient
       inkscape:collect="always"
       xlink:href="#e-3"
       id="linearGradient1284"
       gradientUnits="userSpaceOnUse"
       gradientTransform="matrix(1.5555555,0,0,1.5555555,0.444438,4.079778)"
       x1="3.0484273"
       y1="8.8942347"
       x2="6.00001"
       y2="11.99997" />
    <linearGradient
       inkscape:collect="always"
       xlink:href="#e-3"
       id="linearGradient1286"
       gradientUnits="userSpaceOnUse"
       gradientTransform="matrix(1.5555555,0,0,1.5555555,0.444438,4.079778)"
       x1="3.0484273"
       y1="10.822806"
       x2="6.00001"
       y2="13.99997" />
  </defs>
  <sodipodi:namedview
     id="namedview1305"
     pagecolor="#ffffff"
     bordercolor="#666666"
     borderopacity="1.0"
     inkscape:showpageshadow="2"
     inkscape:pageopacity="0.0"
     inkscape:pagecheckerboard="0"
     inkscape:deskcolor="#d1d1d1"
     showgrid="false"
     inkscape:zoom="7.375"
     inkscape:cx="16"
     inkscape:cy="16.067797"
     inkscape:window-width="1920"
     inkscape:window-height="1002"
     inkscape:window-x="0"
     inkscape:window-y="0"
     inkscape:window-maximized="1"
     inkscape:current-layer="svg1303" />
  <linearGradient
     id="b"
     gradientTransform="matrix(.7 0 0 .7 -.7 -1.1)"
     gradientUnits="userSpaceOnUse"
     x2="0"
     y1="44"
     y2="4">
    <stop
       offset="0"
       stop-color="#1d1e1e"
       id="stop1265" />
    <stop
       offset="1"
       stop-color="#44484c"
       id="stop1267" />
  </linearGradient>
  <linearGradient
     id="c"
     x1="6"
     x2="6"
     xlink:href="#a"
     y1="5"
     y2="4" />
  <linearGradient
     id="a"
     gradientUnits="userSpaceOnUse"
     x2="0"
     y1="507.8"
     y2="506.8">
    <stop
       offset="0"
       stop-color="#3da103"
       id="stop1271" />
    <stop
       offset="1"
       stop-color="#7ddf07"
       id="stop1273" />
  </linearGradient>
  <linearGradient
     id="d"
     x1="6"
     x2="6"
     xlink:href="#a"
     y1="16"
     y2="15" />
  <linearGradient
     id="e"
     x1="6"
     x2="6"
     xlink:href="#a"
     y1="27"
     y2="26" />
  <linearGradient
     id="f"
     gradientUnits="userSpaceOnUse"
     x1="5"
     x2="18"
     y1="12"
     y2="25">
    <stop
       offset="0"
       stop-color="#292c2f"
       id="stop1278" />
    <stop
       offset="1"
       stop-opacity="0"
       id="stop1280" />
  </linearGradient>
  <rect
     width="27.998781"
     x="-29.99934"
     y="2.0025356"
     rx="13.999393"
     height="27.997248"
     transform="scale(-1,1)"
     style="display:inline;overflow:visible;fill:url(#a-6);stroke-width:1.95969;stroke-opacity:0.55"
     id="rect223"
     ry="13.998624" />
  <path
     style="display:inline;overflow:visible;opacity:0.3;fill:#000000;fill-opacity:1;stroke-width:1.95969;stroke-opacity:0.55"
     d="M 2.0084,15.651311 C 2.0042,15.767993 2,15.884017 2,16.001368 2,23.756665 8.2437689,30 15.999369,30 c 7.755645,0 13.999459,-6.243335 13.999459,-13.998632 0,-0.117367 -0.0068,-0.232702 -0.0084,-0.350057 -0.184853,7.592146 -6.355777,13.648652 -13.991046,13.648652 -7.6380811,0 -13.806205,-6.056506 -13.990971,-13.648652"
     id="path225" />
  <path
     d="M 2.0084,16.348689 C 2.0042,16.232007 2,16.11665 2,15.998637 2,8.24339 8.2437689,2 15.999369,2 c 7.755645,0 13.999459,6.24339 13.999459,13.998637 0,0.117351 -0.0068,0.233364 -0.0084,0.350052 C 29.805656,8.756538 23.634729,2.70005 15.999463,2.70005 8.3613819,2.70005 2.193254,8.756538 2.008495,16.348689"
     style="display:inline;overflow:visible;opacity:0.3;fill:#ffffff;fill-opacity:1;stroke-width:1.95969;stroke-opacity:0.55"
     id="path229" />
  <path
     d="m 11.186436,9.915254 h 10 v 2 h -10 z m 0,9 h 10 v 2 h -10 z m 0,-6 h 10 v 2 h -10 z m 0,3 h 10 v 2 h -10 z"
     stroke-width="2.19988"
     id="path269-9"
     style="fill:url(#linearGradient1278)"
     sodipodi:nodetypes="cccccccccccccccccccc" />
  <path
     d="m 5.1111079,11.857563 1.555555,1.555555 h 3.1111109 l 1.5555552,1.555556 1.555555,-1.555556 -3.1111102,-3.111111 z"
     fill="url(#h)"
     opacity="0.2"
     id="path271-3"
     style="fill:url(#linearGradient1280);stroke-width:1.55556" />
  <path
     d="m 5.1864359,14.915254 c 0,0 0.961709,1.090457 1.480227,1.608975 h 3.1111109 l 1.5555552,1.555556 1.555555,-1.555556 -3.1111102,-3.111111 z"
     fill="url(#i)"
     opacity="0.2"
     id="path273-6"
     style="fill:url(#linearGradient1282);stroke-width:1.55556"
     sodipodi:nodetypes="ccccccc" />
  <path
     d="m 5.1864359,17.915254 1.480227,1.720086 h 3.1111109 l 1.5555552,1.555556 1.555555,-1.555556 -3.1111102,-3.111111 z"
     fill="url(#j)"
     opacity="0.2"
     id="path275-0"
     style="fill:url(#linearGradient1284);stroke-width:1.55556"
     sodipodi:nodetypes="ccccccc" />
  <path
     d="m 9.7777688,19.635332 -4.5913329,1.279922 4.5913329,4.9423 H 15.99999 Z"
     fill="url(#k)"
     opacity="0.2"
     id="path277-6"
     style="fill:url(#linearGradient1286);stroke-width:1.55556"
     sodipodi:nodetypes="ccccc" />
  <path
     d="m 5.1864359,9.915254 h 5.0000001 v 2 H 5.1864359 Z m 0,3 h 5.0000001 v 2 H 5.1864359 Z m 0,3 h 5.0000001 v 2 H 5.1864359 Z m 0,3 h 5.0000001 v 2 H 5.1864359 Z"
     fill="#11d116"
     id="path279-2"
     style="stroke-width:1.55556"
     sodipodi:nodetypes="cccccccccccccccccccc" />
  <rect
     fill="#eff0f1"
     height="8"
     rx="0.99999988"
     width="8"
     x="18"
     y="18"
     id="rect36-5"
     style="stroke-width:0.5" />
  <path
     d="m 19.5,19 v 6 h 5.000005 v -6 z m 1.5,0.500005 h 2.000005 A 0.99999954,0.99999954 0 0 1 24,20.5 v 0.500005 A 0.50000005,0.50000005 0 1 0 24,22 v 0.999995 L 23.499995,23.5 h -3 l -0.49999,-0.500005 V 22 a 0.50000005,0.50000005 0 1 0 0,-0.999995 V 20.5 A 0.99999954,0.99999954 0 0 1 21,19.500005 Z m -0.999995,4.5 h 1.99999 v 0.49999 h -1.99999 z m 3,0 H 24 v 0.49999 h -0.999995 z"
     fill="#232629"
     id="path1301-6"
     style="stroke-width:0.500005" />
</svg>
