<?xml version="1.0" encoding="UTF-8" standalone="no"?>
<svg
   height="32"
   width="32"
   version="1.1"
   id="svg42"
   sodipodi:docname="preferences-system-backup.svg"
   inkscape:version="1.2.1 (9c6d41e410, 2022-07-14)"
   xmlns:inkscape="http://www.inkscape.org/namespaces/inkscape"
   xmlns:sodipodi="http://sodipodi.sourceforge.net/DTD/sodipodi-0.dtd"
   xmlns:xlink="http://www.w3.org/1999/xlink"
   xmlns="http://www.w3.org/2000/svg"
   xmlns:svg="http://www.w3.org/2000/svg">
  <defs
     id="defs46">
    <linearGradient
       gradientTransform="matrix(0.69997077,0,0,0.69993111,-301.98804,-350.62269)"
       gradientUnits="userSpaceOnUse"
       x2="426.69501"
       y2="499.92099"
       y1="547.67499"
       id="a-6"
       x1="389.32001">
      <stop
         stop-color="#18222a"
         style="stop-color:#1e2b35;stop-opacity:1"
         id="stop216" />
      <stop
         stop-color="#566069"
         offset="1"
         style="stop-color:#6d7983;stop-opacity:1"
         id="stop218" />
    </linearGradient>
    <linearGradient
       inkscape:collect="always"
       xlink:href="#a"
       id="linearGradient2704"
       gradientUnits="userSpaceOnUse"
       gradientTransform="matrix(0.73076415,0,0,0.73076416,4.148222,4.091575)"
       x1="-421.44699"
       y1="-504.20401"
       x2="-410.44699"
       y2="-493.20401" />
    <linearGradient
       id="linearGradient623">
      <stop
         offset="0"
         stop-color="#292c2f"
         id="stop8-3" />
      <stop
         offset="1"
         stop-opacity="0"
         id="stop10-6" />
    </linearGradient>
    <linearGradient
       inkscape:collect="always"
       xlink:href="#d-7"
       id="linearGradient2706"
       gradientUnits="userSpaceOnUse"
       gradientTransform="matrix(0.38126885,0,0,0.39348724,3.63961,3.192736)"
       x1="1.3329999"
       y1="48.714001"
       x2="1.3329999"
       y2="9.7139997" />
    <linearGradient
       id="d-7"
       gradientTransform="matrix(0.52174,0,0,0.53846,45.597466,-33.196963)"
       gradientUnits="userSpaceOnUse"
       x1="1.3329999"
       x2="1.3329999"
       y1="48.714001"
       y2="9.7139997">
      <stop
         offset="0"
         stop-color="#eef1f2"
         id="stop19-5" />
      <stop
         offset="1"
         stop-color="#f9fafb"
         id="stop21-3" />
    </linearGradient>
    <linearGradient
       inkscape:collect="always"
       xlink:href="#a"
       id="linearGradient2708"
       gradientUnits="userSpaceOnUse"
       gradientTransform="matrix(0.73076415,0,0,0.73076416,4.148222,4.091575)"
       x1="10"
       y1="9"
       x2="24"
       y2="23" />
    <linearGradient
       inkscape:collect="always"
       xlink:href="#f-5"
       id="linearGradient2710"
       gradientUnits="userSpaceOnUse"
       gradientTransform="matrix(0.73076415,0,0,0.73076416,4.148222,4.091575)"
       x1="-11.306"
       y1="23.620001"
       x2="-11.306"
       y2="7.6199999" />
    <linearGradient
       id="f-5"
       gradientUnits="userSpaceOnUse"
       x1="-11.306"
       x2="-11.306"
       y1="23.620001"
       y2="7.6199999"
       gradientTransform="translate(46.293466,-31.966963)">
      <stop
         offset="0"
         stop-color="#3e3e3e"
         id="stop2-6" />
      <stop
         offset="1"
         stop-color="#5c5c5c"
         id="stop4-2" />
    </linearGradient>
  </defs>
  <sodipodi:namedview
     id="namedview44"
     pagecolor="#ffffff"
     bordercolor="#666666"
     borderopacity="1.0"
     inkscape:showpageshadow="2"
     inkscape:pageopacity="0.0"
     inkscape:pagecheckerboard="0"
     inkscape:deskcolor="#d1d1d1"
     showgrid="false"
     inkscape:zoom="7.375"
     inkscape:cx="16"
     inkscape:cy="16.067797"
     inkscape:window-width="1920"
     inkscape:window-height="1000"
     inkscape:window-x="0"
     inkscape:window-y="0"
     inkscape:window-maximized="1"
     inkscape:current-layer="svg42" />
  <linearGradient
     id="f"
     gradientUnits="userSpaceOnUse"
     x1="-11.306"
     x2="-11.306"
     y1="23.62"
     y2="7.62">
    <stop
       offset="0"
       stop-color="#3e3e3e"
       id="stop2" />
    <stop
       offset="1"
       stop-color="#5c5c5c"
       id="stop4" />
  </linearGradient>
  <linearGradient
     id="e"
     gradientUnits="userSpaceOnUse"
     x1="10"
     x2="24"
     xlink:href="#a"
     y1="9"
     y2="23" />
  <linearGradient
     id="a">
    <stop
       offset="0"
       stop-color="#292c2f"
       id="stop8" />
    <stop
       offset="1"
       stop-opacity="0"
       id="stop10" />
  </linearGradient>
  <linearGradient
     id="b"
     gradientTransform="matrix(.58696 0 0 .53846 -227.988 -270.353)"
     gradientUnits="userSpaceOnUse"
     x1="388.423"
     x2="388.423"
     y1="557.798"
     y2="505.798">
    <stop
       offset="0"
       stop-color="#7f8c8d"
       id="stop13" />
    <stop
       offset="1"
       stop-color="#afb0b3"
       id="stop15" />
  </linearGradient>
  <linearGradient
     id="c"
     gradientUnits="userSpaceOnUse"
     x1="-421.447"
     x2="-410.447"
     xlink:href="#a"
     y1="-504.204"
     y2="-493.204" />
  <linearGradient
     id="d"
     gradientTransform="matrix(.52174 0 0 .53846 -.696 -1.23)"
     gradientUnits="userSpaceOnUse"
     x1="1.333"
     x2="1.333"
     y1="48.714"
     y2="9.714">
    <stop
       offset="0"
       stop-color="#eef1f2"
       id="stop19" />
    <stop
       offset="1"
       stop-color="#f9fafb"
       id="stop21" />
  </linearGradient>
  <rect
     width="27.998837"
     x="-29.999586"
     y="2.0026262"
     rx="13.999418"
     height="27.99725"
     transform="scale(-1,1)"
     style="display:inline;fill:url(#a-6);stroke-width:1.95987;stroke-opacity:0.55"
     id="rect223"
     ry="13.998625" />
  <path
     style="display:inline;opacity:0.3;fill:#000000;fill-opacity:1;stroke-width:1.95987;stroke-opacity:0.55"
     d="M 2.0084,15.651314 C 2.0057,15.767998 2,15.884016 2,16.001367 2,23.756664 8.2437559,30 15.999374,30 c 7.75563,0 13.999479,-6.243336 13.999479,-13.998633 0,-0.117351 -0.0053,-0.232702 -0.0084,-0.350053 -0.184865,7.59214 -6.355795,13.648648 -13.991071,13.648648 -7.6380731,0 -13.806203,-6.056508 -13.990975,-13.648648"
     id="path225" />
  <path
     d="M 2.0084,16.348686 C 2.0057,16.232002 2,16.116651 2,15.998633 2,8.243403 8.2437559,2 15.999374,2 c 7.75563,0 13.999479,6.243403 13.999479,13.998633 0,0.117351 -0.0053,0.233369 -0.0084,0.350053 C 29.805588,8.756548 23.634658,2.700038 15.999382,2.700038 c -7.6380731,0 -13.806203,6.05651 -13.990975,13.648648"
     style="display:inline;opacity:0.3;fill:#ffffff;fill-opacity:1;stroke-width:1.95987;stroke-opacity:0.55"
     id="path229" />
  <path
     sodipodi:nodetypes="ccc"
     id="path5098-0"
     d="M 28.056964,17.864366 V 17.455338 Z"
     style="fill:#ffffff;fill-opacity:0.756881;fill-rule:nonzero;stroke:none;stroke-width:0.0731788;stroke-linecap:round;stroke-linejoin:round;stroke-miterlimit:4;stroke-dasharray:none;stroke-dashoffset:4;stroke-opacity:1" />
  <path
     d="M 9.2635679,23.822207 H 22.417325 v 2.19229 H 9.2635679 Z"
     fill="#292c2e"
     id="path26-6"
     style="stroke-width:0.730775" />
  <path
     d="m 10.725096,24.552969 h 6.576881 v 0.730766 h -6.576881 z m 7.307643,0 h 2.923057 v 0.730766 h -2.923057 z"
     fill="#f6b44d"
     id="path28-2"
     style="stroke-width:0.730775" />
  <path
     d="m 22.077516,8.085202 2.532098,2.530637 V 26.014497 H 14.378916 l -5.8461101,-5.84611 z"
     fill="url(#c)"
     opacity="0.2"
     id="path34-9"
     style="fill:url(#linearGradient2704);stroke-width:0.730775" />
  <path
     d="m 12.186629,7.014631 a 3.6538202,3.6538203 0 0 0 -3.6538231,3.653823 v 3.484278 a 2.1922923,2.1922923 0 0 1 0.727844,1.547032 1.461528,1.461528 0 0 1 0.0027,0.08404 1.461528,1.461528 0 0 1 -0.0073,0.146148 2.1922923,2.1922923 0 0 1 0,0.0035 2.1922923,2.1922923 0 0 1 -0.723177,1.479988 v 2.754981 l 2.1922901,2.192287 h 10.2307 l 2.19229,-2.192287 v -2.753558 a 2.1922923,2.1922923 0 0 1 -0.727839,-1.547028 1.461528,1.461528 0 0 1 -0.0027,-0.08403 1.461528,1.461528 0 0 1 0.0073,-0.149811 2.1922923,2.1922923 0 0 1 0.723454,-1.479795 v -3.485743 a 3.6538202,3.6538203 0 0 0 -3.65405,-3.653823 z"
     fill="url(#d)"
     id="path36-1"
     style="fill:url(#linearGradient2706);stroke-width:0.730775" />
  <path
     d="m 17.065207,23.822207 h 7.544407 v -9.005936 l -4.63085,-4.631584 -4.138315,-1.708527 -4.384586,2.192294 -1.139991,3.65382 1.387717,4.137582 z"
     fill="url(#e)"
     opacity="0.2"
     id="path38-2"
     style="fill:url(#linearGradient2708);stroke-width:0.730775" />
  <path
     d="m 15.840449,8.47616 c -3.23875,0 -5.8461152,2.607364 -5.8461152,5.846114 0,3.238744 2.6073652,5.846113 5.8461152,5.846113 3.238744,0 5.846113,-2.607369 5.846113,-5.846113 0,-3.23875 -2.607369,-5.846114 -5.846113,-5.846114 m 0,0.730761 c 2.833902,0 5.115347,2.281445 5.115347,5.115353 0,2.833902 -2.281445,5.115347 -5.115347,5.115347 -2.833908,0 -5.115353,-2.281445 -5.115353,-5.115347 0,-2.833908 2.281445,-5.115353 5.115353,-5.115353 m -0.730767,0.730768 v 5.115347 h 4.384585 V 14.322274 H 15.840449 V 9.937689 Z"
     fill="url(#f)"
     id="path40-7"
     style="fill:url(#linearGradient2710);stroke-width:0.730775" />
</svg>
