<?xml version="1.0" encoding="UTF-8" standalone="no"?>
<svg
   height="32"
   width="32"
   version="1.1"
   id="svg279"
   sodipodi:docname="preferences-devices-tree.svg"
   inkscape:version="1.2.1 (9c6d41e410, 2022-07-14)"
   xmlns:inkscape="http://www.inkscape.org/namespaces/inkscape"
   xmlns:sodipodi="http://sodipodi.sourceforge.net/DTD/sodipodi-0.dtd"
   xmlns:xlink="http://www.w3.org/1999/xlink"
   xmlns="http://www.w3.org/2000/svg"
   xmlns:svg="http://www.w3.org/2000/svg">
  <defs
     id="defs283">
    <linearGradient
       id="a-3"
       x1="428.81601"
       x2="388.86499"
       y1="547.63397"
       y2="499.67899"
       gradientTransform="matrix(0.70000044,0,0,0.68747458,-269.99917,-343.84866)"
       gradientUnits="userSpaceOnUse">
      <stop
         stop-color="#bdc3c7"
         offset="0"
         id="stop2193" />
      <stop
         stop-color="#eff0f1"
         offset="1"
         id="stop2195" />
    </linearGradient>
    <linearGradient
       id="c-36"
       gradientUnits="userSpaceOnUse"
       x1="11.000006"
       x2="19.750025"
       y1="6.9999809"
       y2="15.74998"
       gradientTransform="matrix(0.85899609,0,0,0.85899609,30.443088,-6.5148203)">
      <stop
         offset="0"
         stop-color="#292c2f"
         id="stop188" />
      <stop
         offset="1"
         stop-opacity="0"
         id="stop190" />
    </linearGradient>
    <linearGradient
       id="linearGradient1104"
       gradientUnits="userSpaceOnUse"
       x1="5"
       x2="5"
       y1="18"
       y2="14"
       gradientTransform="translate(-28.733457,-19.255704)">
      <stop
         offset="0"
         stop-color="#208c4e"
         id="stop230-3" />
      <stop
         offset="1"
         stop-color="#6dbd7f"
         id="stop232-6" />
    </linearGradient>
    <linearGradient
       id="linearGradient1108"
       gradientUnits="userSpaceOnUse"
       x1="8"
       x2="8"
       y1="13"
       y2="9"
       gradientTransform="translate(-28.733457,-19.255704)">
      <stop
         offset="0"
         stop-color="#8e44ad"
         id="stop225-7" />
      <stop
         offset="1"
         stop-color="#b08bc4"
         id="stop227-5" />
    </linearGradient>
    <linearGradient
       id="linearGradient1112"
       gradientUnits="userSpaceOnUse"
       x1="11"
       x2="11"
       y1="7"
       y2="3"
       gradientTransform="translate(-28.733457,-19.255704)">
      <stop
         offset="0"
         stop-color="#da4453"
         id="stop220-3" />
      <stop
         offset="1"
         stop-color="#e4848f"
         id="stop222-5" />
    </linearGradient>
    <linearGradient
       inkscape:collect="always"
       xlink:href="#c"
       id="linearGradient1118"
       gradientUnits="userSpaceOnUse"
       gradientTransform="matrix(0.98518547,0,0,0.97435715,5.4766668,8.2964576)"
       x1="5"
       y1="18"
       x2="5"
       y2="14" />
    <linearGradient
       inkscape:collect="always"
       xlink:href="#b"
       id="linearGradient1120"
       gradientUnits="userSpaceOnUse"
       gradientTransform="matrix(0.98518547,0,0,0.97435715,5.4766668,8.2964576)"
       x1="8"
       y1="13"
       x2="8"
       y2="9" />
    <linearGradient
       inkscape:collect="always"
       xlink:href="#a"
       id="linearGradient1122"
       gradientUnits="userSpaceOnUse"
       gradientTransform="matrix(0.98518547,0,0,0.97435715,5.4766668,8.2964576)"
       x1="11"
       y1="7"
       x2="11"
       y2="3" />
  </defs>
  <sodipodi:namedview
     id="namedview281"
     pagecolor="#ffffff"
     bordercolor="#666666"
     borderopacity="1.0"
     inkscape:showpageshadow="2"
     inkscape:pageopacity="0.0"
     inkscape:pagecheckerboard="0"
     inkscape:deskcolor="#d1d1d1"
     showgrid="false"
     inkscape:zoom="10.727273"
     inkscape:cx="11"
     inkscape:cy="11.13983"
     inkscape:window-width="1920"
     inkscape:window-height="1000"
     inkscape:window-x="0"
     inkscape:window-y="0"
     inkscape:window-maximized="1"
     inkscape:current-layer="svg279" />
  <linearGradient
     id="a"
     gradientUnits="userSpaceOnUse"
     x1="11"
     x2="11"
     y1="7"
     y2="3"
     gradientTransform="translate(-28.733457,-19.255704)">
    <stop
       offset="0"
       stop-color="#da4453"
       id="stop220" />
    <stop
       offset="1"
       stop-color="#e4848f"
       id="stop222" />
  </linearGradient>
  <linearGradient
     id="b"
     gradientUnits="userSpaceOnUse"
     x1="8"
     x2="8"
     y1="13"
     y2="9"
     gradientTransform="translate(-28.733457,-19.255704)">
    <stop
       offset="0"
       stop-color="#8e44ad"
       id="stop225" />
    <stop
       offset="1"
       stop-color="#b08bc4"
       id="stop227" />
  </linearGradient>
  <linearGradient
     id="c"
     gradientUnits="userSpaceOnUse"
     x1="5"
     x2="5"
     y1="18"
     y2="14"
     gradientTransform="translate(-28.733457,-19.255704)">
    <stop
       offset="0"
       stop-color="#208c4e"
       id="stop230" />
    <stop
       offset="1"
       stop-color="#6dbd7f"
       id="stop232" />
  </linearGradient>
  <linearGradient
     id="d"
     gradientUnits="userSpaceOnUse"
     x1="11.428572"
     x2="16.571428"
     xlink:href="#j"
     y1="12.5"
     y2="17.642857" />
  <linearGradient
     id="e"
     gradientUnits="userSpaceOnUse"
     x1="5.4282589"
     x2="10.571116"
     xlink:href="#j"
     y1="12.500328"
     y2="17.643185" />
  <linearGradient
     id="f"
     gradientUnits="userSpaceOnUse"
     x1="13.428572"
     x2="18.571428"
     xlink:href="#j"
     y1="17.500328"
     y2="22.643185" />
  <linearGradient
     id="g"
     gradientUnits="userSpaceOnUse"
     x1="7.4285722"
     x2="12.571429"
     xlink:href="#j"
     y1="17.500328"
     y2="22.643185" />
  <linearGradient
     id="h"
     gradientUnits="userSpaceOnUse"
     x1="2.4282589"
     x2="7.571116"
     xlink:href="#j"
     y1="17.500328"
     y2="22.643185" />
  <linearGradient
     id="i"
     gradientUnits="userSpaceOnUse"
     x1="7.7857151"
     x2="7.7857151"
     y1="13.571429"
     y2="2">
    <stop
       offset="0"
       stop-color="#c3c8cd"
       id="stop240" />
    <stop
       offset="1"
       stop-color="#e4e6e8"
       id="stop242" />
  </linearGradient>
  <linearGradient
     id="j">
    <stop
       offset="0"
       stop-color="#292c2f"
       id="stop245" />
    <stop
       offset="1"
       stop-opacity="0"
       id="stop247" />
  </linearGradient>
  <linearGradient
     id="k"
     gradientUnits="userSpaceOnUse"
     x1="8.4285717"
     x2="13.571429"
     xlink:href="#j"
     y1="6.5"
     y2="11.642857" />
  <rect
     x="2.000001"
     y="2.5010293"
     width="28"
     height="27.49897"
     rx="14"
     ry="13.749485"
     fill="#95a5a6"
     id="rect2220"
     style="stroke-width:0.693708" />
  <rect
     x="2.000001"
     y="2.5010293"
     width="28"
     height="26.811502"
     rx="14"
     ry="13.405751"
     id="rect2222"
     style="fill:url(#a-3);stroke-width:0.693708" />
  <path
     d="m 15.967722,2.0000614 c -4.776581,0 -9.5531636,2.6806382 -12.1461668,6.7015962 l 18.9230898,2.52e-4 c 0.01838,0 0.03379,0.00945 0.05205,0.010385 l 5.317221,-0.010708 C 25.589139,4.680638 21.426687,2 15.967808,2 Z"
     stroke-width="0.929865"
     id="path32"
     style="fill:#566069;fill-opacity:1"
     sodipodi:nodetypes="scsccss" />
  <rect
     width="2.0000005"
     x="22.676666"
     y="6.1829586"
     rx="1.0000002"
     height="1.9642123"
     id="rect25-8-7"
     style="fill:#ffffff;stroke-width:0.0660674"
     inkscape:transform-center-x="4.8706652"
     inkscape:transform-center-y="-3.9189313" />
  <rect
     width="23.800003"
     x="4.1333351"
     y="8.8657341"
     rx="0"
     height="0.65473741"
     id="rect27-9"
     style="fill:#3385ff;fill-opacity:1;stroke-width:0.0607598" />
  <path
     d="m 9.4174073,21.937465 c -0.5457918,0 -0.9851847,0.43455 -0.9851847,0.974347 v 1.948724 c 0,0.539782 0.4393929,0.974347 0.9851847,0.974347 h 1.9703717 c 0.545793,0 0.985184,-0.434565 0.985184,-0.974347 v -1.948724 c 0,-0.539797 -0.439391,-0.974347 -0.985184,-0.974347 z m 4.9259257,0 c -0.545792,0 -0.985182,0.43455 -0.985182,0.974347 v 1.948724 c 0,0.539782 0.43939,0.974347 0.985182,0.974347 h 1.970376 c 0.545783,0 0.985182,-0.434565 0.985182,-0.974347 v -1.948724 c 0,-0.539797 -0.439399,-0.974347 -0.985182,-0.974347 z m 5.911113,0 c -0.545797,0 -0.985175,0.43455 -0.985175,0.974347 v 1.948724 c 0,0.539782 0.439378,0.974347 0.985175,0.974347 h 1.97038 c 0.545781,0 0.985177,-0.434565 0.985177,-0.974347 v -1.948724 c 0,-0.539797 -0.439396,-0.974347 -0.985177,-0.974347 z"
     fill="url(#c)"
     id="path269-6"
     style="fill:url(#linearGradient1118);stroke-width:1.95957" />
  <path
     d="m 12.372963,17.06567 c -0.545791,0 -0.985184,0.434568 -0.985184,0.974353 v 1.948718 c 0,0.539799 0.439393,0.974352 0.985184,0.974352 h 1.97037 c 0.545796,0 0.985182,-0.434553 0.985182,-0.974352 v -1.948718 c 0,-0.539785 -0.439386,-0.974353 -0.985182,-0.974353 z m 5.911106,0 c -0.545781,0 -0.985178,0.434568 -0.985178,0.974353 v 1.948718 c 0,0.539799 0.439397,0.974352 0.985178,0.974352 h 1.970377 c 0.545802,0 0.985184,-0.434553 0.985184,-0.974352 v -1.948718 c 0,-0.539785 -0.439382,-0.974353 -0.985184,-0.974353 z"
     fill="url(#b)"
     id="path271-2"
     style="fill:url(#linearGradient1120);stroke-width:1.95957" />
  <path
     d="m 15.328515,11.219528 c -0.545785,0 -0.985182,0.434564 -0.985182,0.974357 V 14.1426 c 0,0.539795 0.439397,0.974357 0.985182,0.974357 h 1.970376 c 0.545796,0 0.985178,-0.434562 0.985178,-0.974357 v -1.948715 c 0,-0.539793 -0.439382,-0.974357 -0.985178,-0.974357 z"
     fill="url(#a)"
     id="path273-9"
     style="fill:url(#linearGradient1122);stroke-width:1.95957" />
</svg>
