<?xml version="1.0" encoding="UTF-8" standalone="no"?>
<svg
   width="111.00007"
   height="128"
   version="1"
   id="svg10"
   sodipodi:docname="actionbutton.svg"
   inkscape:version="1.3.2 (091e20ef0f, 2023-11-25)"
   xmlns:inkscape="http://www.inkscape.org/namespaces/inkscape"
   xmlns:sodipodi="http://sodipodi.sourceforge.net/DTD/sodipodi-0.dtd"
   xmlns="http://www.w3.org/2000/svg"
   xmlns:svg="http://www.w3.org/2000/svg">
  <defs
     id="defs10" />
  <sodipodi:namedview
     id="namedview10"
     pagecolor="#201933"
     bordercolor="#0d0d0d"
     borderopacity="1"
     inkscape:showpageshadow="2"
     inkscape:pageopacity="0.0"
     inkscape:pagecheckerboard="true"
     inkscape:deskcolor="#2b2244"
     showgrid="true"
     inkscape:zoom="2"
     inkscape:cx="72.000001"
     inkscape:cy="128.75"
     inkscape:window-width="1920"
     inkscape:window-height="996"
     inkscape:window-x="0"
     inkscape:window-y="0"
     inkscape:window-maximized="1"
     inkscape:current-layer="svg10">
    <inkscape:grid
       id="grid10"
       units="px"
       originx="124.99983"
       originy="41"
       spacingx="1"
       spacingy="1"
       empcolor="#0099e5"
       empopacity="0.30196078"
       color="#0099e5"
       opacity="0.14901961"
       empspacing="5"
       dotted="false"
       gridanglex="30"
       gridanglez="30"
       visible="true" />
  </sodipodi:namedview>
  <g
     id="focus"
     transform="matrix(1.6,0,0,1.6,146.34407,99.056)">
    <rect
       width="20"
       height="20"
       x="-42.09"
       y="-1.91"
       style="opacity:0.00100002"
       id="rect1" />
    <path
       style="fill:#634c99;fill-opacity:1"
       transform="matrix(0.625,0,0,0.625,-42.090149,-61.91)"
       d="m 16,98 c -7.7157088,0 -14,6.28429 -14,14 0,7.71571 6.2842912,14 14,14 7.715709,0 14,-6.28429 14,-14 0,-7.71571 -6.284291,-14 -14,-14 z"
       id="path1" />
  </g>
  <g
     id="22-22-focus"
     transform="matrix(1.1,0,0,1.1,46.299168,104.101)">
    <rect
       width="20"
       height="20"
       x="-42.09"
       y="-1.91"
       style="opacity:0.00100002"
       id="rect3" />
    <path
       style="fill:#634c99;fill-opacity:1"
       transform="matrix(0.90909091,0,0,0.90909091,-83.908336,-94.637273)"
       d="m 57,103 c -5.511221,0 -10,4.48878 -10,10 0,5.51122 4.488779,10 10,10 5.511219,0 10,-4.48878 10,-10 0,-5.51122 -4.488781,-10 -10,-10 z"
       id="path3" />
  </g>
  <g
     id="pressed"
     transform="translate(78.99983,31)">
    <path
       d="M 0,4.9999999e-8 H 32 V 32 H 0 Z"
       style="opacity:0.01;fill:#3a6ab0;fill-opacity:1"
       id="path7" />
    <path
       style="fill:#6d55aa;fill-opacity:1"
       d="M 16,2 C 8.28429,2 2,8.284292 2,16 2,23.715709 8.28429,30 16,30 23.715708,30 30,23.715709 30,16 30,8.284292 23.715708,2 16,2 Z"
       id="path6-3" />
  </g>
  <g
     id="22-22-pressed"
     transform="translate(0,41)">
    <rect
       width="22"
       height="22"
       x="0"
       y="0"
       style="opacity:0.00100002"
       id="rect10" />
    <path
       style="fill:#6d55aa;fill-opacity:1"
       d="M 11,1 C 5.488779,1 1,5.488779 1,11 1,16.51122 5.488779,21 11,21 16.51122,21 21,16.51122 21,11 21,5.488779 16.51122,1 11,1 Z"
       id="path10-6" />
  </g>
  <g
     id="normal"
     transform="translate(79.000068)">
    <rect
       width="32"
       height="32"
       x="-2.4414064e-07"
       y="-4.6594238e-08"
       style="opacity:0.00100002;stroke-width:1.6"
       id="rect5" />
    <circle
       cx="16"
       cy="16"
       r="13"
       style="fill:#303650;fill-opacity:1;stroke-width:1.62499"
       id="circle5" />
    <circle
       cx="16"
       cy="16"
       r="14"
       style="fill:#303650;fill-opacity:0.2;stroke-width:1.75"
       id="circle5-7" />
  </g>
  <g
     id="22-22-normal"
     transform="translate(1.7e-4,11)">
    <rect
       width="22"
       height="22"
       x="-1.6784668e-07"
       y="3.6716461e-08"
       style="opacity:0.00100002;stroke-width:1.1"
       id="rect7" />
    <path
       d="m 19.99983,11 a 9,9 0 0 1 -9,9 9,9 0 0 1 -9.0000005,-9 9,9 0 0 1 9.0000005,-9 9,9 0 0 1 9,9 z"
       style="fill:#303650;fill-opacity:1;stroke-width:1.125"
       id="path9" />
    <path
       d="M 21,11 A 10,10 0 0 1 11,21 10,10 0 0 1 0.99999973,11 10,10 0 0 1 11,1 10,10 0 0 1 21,11 Z"
       style="fill:#303650;fill-opacity:0.2;stroke-width:1.25"
       id="path9-5" />
  </g>
  <g
     id="hover"
     transform="translate(79.000068,62)">
    <g
       id="g10">
      <rect
         width="32"
         height="32"
         x="-2.4414064e-07"
         y="-4.6594238e-08"
         style="opacity:0.00100002;stroke-width:1.6"
         id="rect2" />
      <circle
         cx="16"
         cy="16"
         r="13"
         style="fill:#3a405f;fill-opacity:1;stroke-width:1.625"
         id="circle2" />
      <circle
         cx="15.999939"
         cy="16"
         r="14.000004"
         style="fill:#303650;fill-opacity:0.2;stroke-width:1.75"
         id="circle2-3" />
    </g>
  </g>
  <g
     id="22-22-hover"
     transform="translate(1.7e-4,69)">
    <rect
       width="22"
       height="22"
       x="-1.6784668e-07"
       y="3.6716461e-08"
       style="opacity:0.00100002;stroke-width:1.1"
       id="rect4" />
    <circle
       cx="11"
       cy="11"
       r="9"
       style="fill:#3a405f;fill-opacity:1;stroke-width:1.125"
       id="circle4" />
    <circle
       cx="11"
       cy="11"
       r="10.000001"
       style="fill:#30364f;fill-opacity:0.2;stroke-width:1.25"
       id="circle4-5" />
  </g>
</svg>
