<?xml version="1.0" encoding="UTF-8" standalone="no"?>
<svg
   width="102"
   height="34"
   version="1.1"
   id="svg48"
   sodipodi:docname="menubaritem.svg"
   inkscape:version="1.3.2 (091e20ef0f, 2023-11-25)"
   xmlns:inkscape="http://www.inkscape.org/namespaces/inkscape"
   xmlns:sodipodi="http://sodipodi.sourceforge.net/DTD/sodipodi-0.dtd"
   xmlns="http://www.w3.org/2000/svg"
   xmlns:svg="http://www.w3.org/2000/svg">
  <sodipodi:namedview
     id="namedview48"
     pagecolor="#201933"
     bordercolor="#000000"
     borderopacity="1"
     inkscape:showpageshadow="2"
     inkscape:pageopacity="0.0"
     inkscape:pagecheckerboard="true"
     inkscape:deskcolor="#151122"
     inkscape:zoom="4.3431373"
     inkscape:cx="44.668171"
     inkscape:cy="24.636569"
     inkscape:window-width="1920"
     inkscape:window-height="996"
     inkscape:window-x="0"
     inkscape:window-y="0"
     inkscape:window-maximized="1"
     inkscape:current-layer="svg48"
     showgrid="true">
    <inkscape:grid
       id="grid1"
       units="px"
       originx="0"
       originy="0"
       spacingx="1"
       spacingy="1"
       empcolor="#0099e5"
       empopacity="0.30196078"
       color="#0099e5"
       opacity="0.14902"
       empspacing="5"
       dotted="false"
       gridanglex="30"
       gridanglez="30"
       visible="true" />
  </sodipodi:namedview>
  <defs
     id="nova">
    <style
       id="current-color-scheme"
       type="text/css">.ColorScheme-Background { color:#181818; }
.ColorScheme-ButtonBackground { color:#343434; }
.ColorScheme-Highlight { color:#4285f4; }
.ColorScheme-Text { color:#dfdfdf; }
.ColorScheme-ViewBackground { color:#242424; }
.ColorScheme-NegativeText { color:#f44336; }
.ColorScheme-PositiveText { color:#4caf50; }
.ColorScheme-NeutralText { color:#ff9800; }
</style>
  </defs>
  <path
     id="hover-center"
     style="opacity:0.1;fill:#d3dae3;fill-opacity:1"
     class=" "
     d="M 62,6 V 28 H 40 V 6 Z" />
  <g
     id="hover-left"
     transform="translate(34)"
     style="opacity:1;fill:#d3dae3;fill-opacity:1">
    <path
       style="opacity:0.001;fill:#d3dae3;fill-opacity:1"
       d="M 0,6 H 6 V 28 H 0 Z"
       id="path1" />
    <path
       style="opacity:0.1;fill:#d3dae3;fill-opacity:1"
       d="M 2,6 H 6 V 28 H 2 Z"
       id="path2" />
  </g>
  <g
     id="hover-topleft"
     transform="translate(34)"
     style="opacity:1;fill:#d3dae3;fill-opacity:1">
    <path
       style="opacity:0.001;fill:#d3dae3;fill-opacity:1"
       d="M 0,0 H 6 V 6 H 0 Z"
       id="path3" />
    <path
       style="opacity:0.1;fill:#d3dae3;fill-opacity:1"
       d="M 6,2 V 6 H 2 C 2,2 6,2 6,2 Z"
       id="path4" />
  </g>
  <g
     id="hover-right"
     transform="translate(34)"
     style="opacity:1;fill:#d3dae3;fill-opacity:1">
    <path
       style="opacity:0.001;fill:#d3dae3;fill-opacity:1"
       d="m 28,6 h 6 v 22 h -6 z"
       id="path5" />
    <path
       style="opacity:0.1;fill:#d3dae3;fill-opacity:1"
       d="m 28,6 h 4 v 22 h -4 z"
       id="path6" />
  </g>
  <g
     id="hover-top"
     transform="translate(34)"
     style="opacity:1;fill:#d3dae3;fill-opacity:1">
    <path
       style="opacity:0.001;fill:#d3dae3;fill-opacity:1"
       d="M 28,0 V 6 H 6 V 0 Z"
       id="path7" />
    <path
       style="opacity:0.1;fill:#d3dae3;fill-opacity:1"
       d="M 28,2 V 6 H 6 V 2 Z"
       id="path8" />
  </g>
  <g
     id="hover-bottom"
     transform="translate(34)"
     style="opacity:1;fill:#d3dae3;fill-opacity:1">
    <path
       style="opacity:0.001;fill:#d3dae3;fill-opacity:1"
       d="m 28,28 v 6 H 6 v -6 z"
       id="path9" />
    <path
       style="opacity:0.1;fill:#d3dae3;fill-opacity:1"
       d="m 28,28 v 4 H 6 v -4 z"
       id="path10" />
  </g>
  <g
     id="hover-bottomright"
     transform="translate(34)"
     style="opacity:1;fill:#d3dae3;fill-opacity:1">
    <path
       style="opacity:0.001;fill:#d3dae3;fill-opacity:1"
       d="m 28,28 h 6 v 6 h -6 z"
       id="path11" />
    <path
       style="opacity:0.1;fill:#d3dae3;fill-opacity:1"
       d="m 28,32 v -4 h 4 c 0,4 -4,4 -4,4 z"
       id="path12" />
  </g>
  <g
     id="hover-topright"
     transform="translate(34)"
     style="opacity:1;fill:#d3dae3;fill-opacity:1">
    <path
       style="opacity:0.001;fill:#d3dae3;fill-opacity:1"
       d="m 28,0 h 6 v 6 h -6 z"
       id="path13" />
    <path
       style="opacity:0.1;fill:#d3dae3;fill-opacity:1"
       d="m 28,2 v 4 h 4 C 32,2 28,2 28,2 Z"
       id="path14" />
  </g>
  <g
     id="hover-bottomleft"
     transform="translate(34)"
     style="opacity:1;fill:#d3dae3;fill-opacity:1">
    <path
       style="opacity:0.001;fill:#d3dae3;fill-opacity:1"
       d="m 0,28 h 6 v 6 H 0 Z"
       id="path15" />
    <path
       style="opacity:0.1;fill:#d3dae3;fill-opacity:1"
       d="M 6,32 V 28 H 2 c 0,4 4,4 4,4 z"
       id="path16" />
  </g>
  <path
     id="pressed-center"
     style="opacity:0.25;fill:#d3dae3;fill-opacity:1"
     d="M 96,6 V 28 H 74 V 6 Z" />
  <g
     id="pressed-left"
     transform="translate(68)"
     style="opacity:1;fill:#d3dae3;fill-opacity:1">
    <path
       style="opacity:0.001;fill:#d3dae3;fill-opacity:1"
       d="M 0,6 H 6 V 28 H 0 Z"
       id="path33" />
    <path
       style="opacity:0.25;fill:#d3dae3;fill-opacity:1"
       d="M 2,6 H 6 V 28 H 2 Z"
       id="path34" />
  </g>
  <g
     id="pressed-topleft"
     transform="translate(68)"
     style="opacity:1;fill:#d3dae3;fill-opacity:1">
    <path
       style="opacity:0.001;fill:#d3dae3;fill-opacity:1"
       d="M 0,0 H 6 V 6 H 0 Z"
       id="path35" />
    <path
       style="opacity:0.25;fill:#d3dae3;fill-opacity:1"
       d="M 6,2 V 6 H 2 C 2,2 6,2 6,2 Z"
       id="path36" />
  </g>
  <g
     id="pressed-right"
     transform="translate(68)"
     style="opacity:1;fill:#d3dae3;fill-opacity:1">
    <path
       style="opacity:0.001;fill:#d3dae3;fill-opacity:1"
       d="m 28,6 h 6 v 22 h -6 z"
       id="path37" />
    <path
       style="opacity:0.25;fill:#d3dae3;fill-opacity:1"
       d="m 28,6 h 4 v 22 h -4 z"
       id="path38" />
  </g>
  <g
     id="pressed-top"
     transform="translate(68)"
     style="opacity:1;fill:#d3dae3;fill-opacity:1">
    <path
       style="opacity:0.001;fill:#d3dae3;fill-opacity:1"
       d="M 28,0 V 6 H 6 V 0 Z"
       id="path39" />
    <path
       style="opacity:0.25;fill:#d3dae3;fill-opacity:1"
       d="M 28,2 V 6 H 6 V 2 Z"
       id="path40" />
  </g>
  <g
     id="pressed-bottom"
     transform="translate(68)"
     style="opacity:1;fill:#d3dae3;fill-opacity:1">
    <path
       style="opacity:0.001;fill:#d3dae3;fill-opacity:1"
       d="m 28,28 v 6 H 6 v -6 z"
       id="path41" />
    <path
       style="opacity:0.25;fill:#d3dae3;fill-opacity:1"
       d="m 28,28 v 4 H 6 v -4 z"
       id="path42" />
  </g>
  <g
     id="pressed-bottomright"
     transform="translate(68)"
     style="opacity:1;fill:#d3dae3;fill-opacity:1">
    <path
       style="opacity:0.001;fill:#d3dae3;fill-opacity:1"
       d="m 28,28 h 6 v 6 h -6 z"
       id="path43" />
    <path
       style="opacity:0.25;fill:#d3dae3;fill-opacity:1"
       d="m 28,32 v -4 h 4 c 0,4 -4,4 -4,4 z"
       id="path44" />
  </g>
  <g
     id="pressed-topright"
     transform="translate(68)"
     style="opacity:1;fill:#d3dae3;fill-opacity:1">
    <path
       style="opacity:0.001;fill:#d3dae3;fill-opacity:1"
       d="m 28,0 h 6 v 6 h -6 z"
       id="path45" />
    <path
       style="opacity:0.25;fill:#d3dae3;fill-opacity:1"
       d="m 28,2 v 4 h 4 C 32,2 28,2 28,2 Z"
       id="path46" />
  </g>
  <g
     id="pressed-bottomleft"
     transform="translate(68)"
     style="opacity:1;fill:#d3dae3;fill-opacity:1">
    <path
       style="opacity:0.001;fill:#d3dae3;fill-opacity:1"
       d="m 0,28 h 6 v 6 H 0 Z"
       id="path47" />
    <path
       style="opacity:0.25;fill:#d3dae3;fill-opacity:1"
       d="M 6,32 V 28 H 2 c 0,4 4,4 4,4 z"
       id="path48" />
  </g>
  <path
     id="normal-hint-top-margin"
     style="fill:#008080;opacity:0.01"
     d="m 16,-62 h 2 v 6 h -2 z" />
  <path
     id="normal-hint-bottom-margin"
     style="fill:#008080;opacity:0.01"
     d="m 16,-34 h 2 v 6 h -2 z" />
  <path
     id="normal-hint-left-margin"
     style="fill:#008080;opacity:0.01"
     d="m 0,-46 h 6.0000002 v 2 H 0 Z" />
  <path
     id="normal-hint-right-margin"
     style="fill:#008080;opacity:0.01"
     d="m 28,-46 h 6 v 2 h -6 z" />
  <path
     id="hover-hint-top-margin"
     style="fill:#008080;opacity:0.01"
     d="m 50,-62 h 2 v 6 h -2 z" />
  <path
     id="hover-hint-bottom-margin"
     style="fill:#008080;opacity:0.01"
     d="m 50,-34 h 2 v 6 h -2 z" />
  <path
     id="hover-hint-left-margin"
     style="fill:#008080;opacity:0.01"
     d="m 34,-46 h 6 v 2 h -6 z" />
  <path
     id="hover-hint-right-margin"
     style="fill:#008080;opacity:0.01"
     d="m 62,-46 h 6 v 2 h -6 z" />
  <path
     id="pressed-hint-top-margin"
     style="fill:#008080;opacity:0.01"
     d="m 84,-62 h 2 v 6 h -2 z" />
  <path
     id="pressed-hint-bottom-margin"
     style="fill:#008080;opacity:0.01"
     d="m 84,-34 h 2 v 6 h -2 z" />
  <path
     id="pressed-hint-left-margin"
     style="fill:#008080;opacity:0.01"
     d="m 68,-46 h 6 v 2 h -6 z" />
  <path
     id="pressed-hint-right-margin"
     style="fill:#008080;opacity:0.01"
     d="m 96,-46 h 6 v 2 h -6 z" />
  <rect
     id="hint-stretch-borders"
     style="fill:#008080"
     width="2"
     height="2"
     x="98"
     y="-2" />
  <path
     id="normal-center"
     fill="transparent"
     d="M 28,6 V 28 H 6 V 6 Z" />
  <g
     id="normal-left">
    <path
       style="opacity:0.00100002"
       d="M 0,6 H 6 V 28 H 0 Z"
       id="path17" />
    <path
       fill="transparent"
       d="M 2,6 H 6 V 28 H 2 Z"
       id="path18" />
  </g>
  <g
     id="normal-topleft">
    <path
       style="opacity:0.00100002"
       d="M 0,0 H 6 V 6 H 0 Z"
       id="path19" />
    <path
       fill="transparent"
       d="M 6,2 V 6 H 2 C 2,2 6,2 6,2 Z"
       id="path20" />
  </g>
  <g
     id="normal-right">
    <path
       style="opacity:0.00100002"
       d="m 28,6 h 6 v 22 h -6 z"
       id="path21" />
    <path
       fill="transparent"
       d="m 28,6 h 4 v 22 h -4 z"
       id="path22" />
  </g>
  <g
     id="normal-top">
    <path
       style="opacity:0.00100002"
       d="M 28,0 V 6 H 6 V 0 Z"
       id="path23" />
    <path
       fill="transparent"
       d="M 28,2 V 6 H 6 V 2 Z"
       id="path24" />
  </g>
  <g
     id="normal-bottom">
    <path
       style="opacity:0.00100002"
       d="m 28,28 v 6 H 6 v -6 z"
       id="path25" />
    <path
       fill="transparent"
       d="m 28,28 v 4 H 6 v -4 z"
       id="path26" />
  </g>
  <g
     id="normal-bottomright">
    <path
       style="opacity:0.00100002"
       d="m 28,28 h 6 v 6 h -6 z"
       id="path27" />
    <path
       fill="transparent"
       d="m 28,32 v -4 h 4 c 0,4 -4,4 -4,4 z"
       id="path28" />
  </g>
  <g
     id="normal-topright">
    <path
       style="opacity:0.00100002"
       d="m 28,0 h 6 v 6 h -6 z"
       id="path29" />
    <path
       fill="transparent"
       d="m 28,2 v 4 h 4 C 32,2 28,2 28,2 Z"
       id="path30" />
  </g>
  <g
     id="normal-bottomleft">
    <path
       style="opacity:0.00100002"
       d="m 0,28 h 6 v 6 H 0 Z"
       id="path31" />
    <path
       fill="transparent"
       d="M 6,32 V 28 H 2 c 0,4 4,4 4,4 z"
       id="path32" />
  </g>
</svg>
