<?xml version="1.0" encoding="UTF-8" standalone="no"?>
<svg
   id="svg2"
   viewBox="0 0 116 56.000004"
   version="1.1"
   sodipodi:docname="plasmoidheading.svg"
   inkscape:version="1.3 (0e150ed6c4, 2023-07-21)"
   width="116"
   height="56.000004"
   xmlns:inkscape="http://www.inkscape.org/namespaces/inkscape"
   xmlns:sodipodi="http://sodipodi.sourceforge.net/DTD/sodipodi-0.dtd"
   xmlns:xlink="http://www.w3.org/1999/xlink"
   xmlns="http://www.w3.org/2000/svg"
   xmlns:svg="http://www.w3.org/2000/svg">
  <defs
     id="defs41" />
  <sodipodi:namedview
     pagecolor="#201933"
     bordercolor="#000000"
     borderopacity="0.98823529"
     objecttolerance="10"
     gridtolerance="10"
     guidetolerance="10"
     inkscape:pageopacity="0"
     inkscape:pageshadow="2"
     inkscape:window-width="1920"
     inkscape:window-height="994"
     id="namedview39"
     showgrid="true"
     inkscape:zoom="3.5962203"
     inkscape:cx="64.790247"
     inkscape:cy="47.688958"
     inkscape:window-x="0"
     inkscape:window-y="0"
     inkscape:window-maximized="1"
     inkscape:current-layer="svg2"
     inkscape:document-rotation="0"
     inkscape:pagecheckerboard="true"
     inkscape:showpageshadow="2"
     inkscape:deskcolor="#201933">
    <inkscape:grid
       type="xygrid"
       id="grid960"
       originx="0"
       originy="0"
       spacingy="1"
       spacingx="1"
       units="px"
       visible="true" />
  </sodipodi:namedview>
  <style
     id="current-color-scheme"
     type="text/css">.ColorScheme-Text {&#10;            color:#ffffff;&#10;        }&#10;        .ColorScheme-Background {&#10;            color:#363636;&#10;        }</style>
  <path
     id="hint-stretch-borders"
     d="m -7,-7 h 5 v 5 h -5 z"
     opacity="0.6"
     style="fill:#008080;opacity:0.01" />
  <path
     id="header-center"
     class="ColorScheme-Background"
     d="M 19,12 H 51 V 44 H 19 Z"
     fill="currentColor"
     style="opacity:0" />
  <path
     id="header-right"
     class="ColorScheme-Background"
     d="m 51,12 h 6 v 32 h -6 z"
     fill="currentColor"
     style="opacity:0" />
  <g
     id="header-bottom"
     style="opacity:1"
     transform="translate(0,5)">
    <path
       id="rect3152"
       d="M 51,44.5 V 45 H 19 v -0.5 z"
       style="opacity:0.2;fill:#5586c8;fill-opacity:1;stroke-width:0.707108" />
    <path
       id="path851"
       d="M 51,39.000016 V 44 H 19 v -4.999984 z"
       class="ColorScheme-Background"
       fill="currentColor"
       style="opacity:0" />
  </g>
  <path
     id="header-left"
     class="ColorScheme-Background"
     d="M 19,44 H 13 V 12 h 6 z"
     fill="currentColor"
     style="opacity:0" />
  <g
     id="header-bottomright"
     style="opacity:1"
     transform="translate(0,5)">
    <path
       id="path3176"
       d="m 57,44 h -6 v 0.999997 h 6 v -0.833331 z"
       style="opacity:0.01;fill:#ffffff" />
    <path
       id="path853"
       d="M 57,39.000016 H 51 V 44 h 6 v -4.166654 z"
       class="ColorScheme-Background"
       fill="currentColor"
       style="opacity:0" />
  </g>
  <g
     id="header-bottomleft"
     style="opacity:1"
     transform="translate(0,5)">
    <path
       id="path3182"
       d="M 19,44.999997 V 44 h -6 v 0.999997 c 6,7e-6 0,0 4,0 h 1 z"
       style="opacity:0.01;fill:#ffffff" />
    <path
       id="path855"
       d="M 19,44 V 39.000016 H 13 V 44 c 6,3.5e-5 0,0 4,0 h 1 z"
       class="ColorScheme-Background"
       fill="currentColor"
       style="opacity:0" />
  </g>
  <path
     id="footer-center"
     class="ColorScheme-Background"
     d="M 67,44 H 99 V 12 H 67 Z"
     fill="currentColor"
     style="opacity:0" />
  <path
     id="footer-right"
     class="ColorScheme-Background"
     d="m 99,44 h 6 V 12 h -6 z"
     fill="currentColor"
     style="opacity:0" />
  <path
     id="footer-bottom"
     class="ColorScheme-Background"
     d="m 67,44 v 6 h 32 v -6 z"
     fill="currentColor"
     style="opacity:0" />
  <g
     id="footer-top"
     style="opacity:1">
    <path
       id="rect3152-0"
       class="ColorScheme-Background"
       fill="currentColor"
       d="M 99,11.999985 V 7 H 67 v 4.999985 z"
       style="opacity:0" />
    <path
       id="path967"
       d="m 99,6.4999852 v -0.5 H 67 v 0.5 z"
       style="opacity:0.2;fill:#5586c8;fill-opacity:1;stroke-width:0.707108" />
  </g>
  <path
     id="footer-left"
     class="ColorScheme-Background"
     d="m 67,12 h -6 v 32 h 6 z"
     fill="currentColor"
     style="opacity:0" />
  <g
     id="footer-topright"
     style="opacity:1">
    <path
       id="path3176-6"
       class="ColorScheme-Background"
       fill="currentColor"
       d="M 105,11.999985 H 99 V 7 h 6 v 4.166654 z"
       style="opacity:0" />
    <path
       id="path969"
       d="m 105,6.9999822 h -6 v -0.999997 h 6 V 6.833316 Z"
       style="opacity:0.01;fill:#ffffff" />
  </g>
  <g
     id="footer-topleft"
     style="opacity:1">
    <path
       id="path3182-1"
       class="ColorScheme-Background"
       fill="currentColor"
       d="m 67,7 v 4.999985 H 61 V 7 c 6,-3.33e-5 0,0 4,0 h 1 z"
       style="opacity:0" />
    <path
       id="path971"
       d="m 67,5.9999852 v 0.999997 h -6 v -0.999997 c 6,-6.7e-6 0,0 4,0 h 1 z"
       style="opacity:0.01;fill:#ffffff" />
  </g>
  <path
     id="footer-bottomleft"
     class="ColorScheme-Background"
     d="m 64,50 c -2,0 -3,-1 -3,-3 v -3 h 6 v 6 h -1 1 z"
     fill="currentColor"
     style="opacity:0" />
  <path
     id="footer-bottomright"
     class="ColorScheme-Background"
     d="m 99,50 v -6 h 6 v 3 c 0,2 -1,3 -3,3 h -2 z"
     fill="currentColor"
     style="opacity:0" />
  <path
     id="hint-top-margin"
     d="m 33,12 h 4 v 6 h -4 z"
     fill="#ff00ff"
     style="stroke-width:1;fill:#008080;opacity:0.01" />
  <path
     id="hint-bottom-margin"
     d="m 33,39 h 4 v 6 h -4 z"
     fill="#ff00ff"
     style="stroke-width:0.999996;fill:#008080;opacity:0.01" />
  <path
     id="hint-right-margin"
     d="m 51,26 v 4 h -6 v -4 z"
     fill="#ff00ff"
     style="fill:#008080;opacity:0.01" />
  <path
     id="hint-left-margin"
     d="m 25,26 v 4 h -6 v -4 z"
     fill="#ff00ff"
     style="fill:#008080;opacity:0.01" />
  <g
     id="header-topleft">
    <path
       id="path877"
       style="opacity:0"
       class="ColorScheme-Background"
       d="m 19,6 c -3.324,0 -6,2.676 -6,6 h 6 z"
       fill="currentColor" />
  </g>
  <g
     id="header-top">
    <path
       id="path865"
       class="ColorScheme-Background"
       transform="rotate(-90)"
       d="m -12,19 h 6 v 32 h -6 z"
       fill="currentColor"
       style="opacity:0" />
  </g>
  <use
     x="0"
     y="0"
     xlink:href="#header-topleft"
     id="header-topright"
     transform="matrix(-1,0,0,1,70,0)"
     width="100%"
     height="100%" />
</svg>
