<?xml version="1.0" encoding="UTF-8" standalone="no"?>
<svg
   inkscape:version="1.3 (0e150ed6c4, 2023-07-21)"
   sodipodi:docname="change_user.svg"
   id="svg8"
   version="1.1"
   height="34"
   width="34"
   viewBox="0 0 34 34"
   style="isolation:isolate"
   xmlns:inkscape="http://www.inkscape.org/namespaces/inkscape"
   xmlns:sodipodi="http://sodipodi.sourceforge.net/DTD/sodipodi-0.dtd"
   xmlns:xlink="http://www.w3.org/1999/xlink"
   xmlns="http://www.w3.org/2000/svg"
   xmlns:svg="http://www.w3.org/2000/svg"
   xmlns:rdf="http://www.w3.org/1999/02/22-rdf-syntax-ns#"
   xmlns:cc="http://creativecommons.org/ns#"
   xmlns:dc="http://purl.org/dc/elements/1.1/">
  <metadata
     id="metadata14">
    <rdf:RDF>
      <cc:Work
         rdf:about="">
        <dc:format>image/svg+xml</dc:format>
        <dc:type
           rdf:resource="http://purl.org/dc/dcmitype/StillImage" />
      </cc:Work>
    </rdf:RDF>
  </metadata>
  <defs
     id="defs12">
    <linearGradient
       inkscape:collect="always"
       xlink:href="#linearGradient3"
       id="linearGradient23"
       x1="50.000004"
       y1="16"
       x2="76.038071"
       y2="16"
       gradientUnits="userSpaceOnUse"
       gradientTransform="matrix(1.1905787,0,0,1.1538461,-58.029339,-1.4615367)" />
    <linearGradient
       id="linearGradient3"
       inkscape:collect="always">
      <stop
         style="stop-color:#bc5fd3;stop-opacity:1"
         offset="0"
         id="stop7" />
      <stop
         style="stop-color:#00ccff;stop-opacity:1"
         offset="1"
         id="stop8" />
    </linearGradient>
    <linearGradient
       inkscape:collect="always"
       xlink:href="#linearGradient3"
       id="linearGradient25"
       x1="61.651638"
       y1="17.822474"
       x2="71.220978"
       y2="17.822474"
       gradientUnits="userSpaceOnUse"
       gradientTransform="matrix(1.1905787,0,0,1.1538461,-58.029339,-1.4615367)" />
    <linearGradient
       inkscape:collect="always"
       xlink:href="#linearGradient3"
       id="linearGradient27"
       x1="54.720638"
       y1="12.522474"
       x2="64.290047"
       y2="12.522474"
       gradientUnits="userSpaceOnUse"
       gradientTransform="matrix(1.1905787,0,0,1.1538461,-58.029339,-1.4615367)" />
  </defs>
  <sodipodi:namedview
     inkscape:current-layer="svg8"
     inkscape:window-maximized="1"
     inkscape:window-y="0"
     inkscape:window-x="0"
     inkscape:cy="19.923372"
     inkscape:cx="19.991486"
     inkscape:zoom="14.68125"
     showgrid="false"
     id="namedview10"
     inkscape:window-height="994"
     inkscape:window-width="1920"
     inkscape:pageshadow="2"
     inkscape:pageopacity="0"
     guidetolerance="10"
     gridtolerance="10"
     objecttolerance="10"
     borderopacity="1"
     bordercolor="#000000"
     pagecolor="#cccccc"
     inkscape:showpageshadow="2"
     inkscape:pagecheckerboard="0"
     inkscape:deskcolor="#808080"
     inkscape:document-units="px">
    <inkscape:grid
       type="xygrid"
       id="grid139"
       originx="0"
       originy="0"
       spacingy="1"
       spacingx="1"
       units="px"
       visible="false" />
  </sodipodi:namedview>
  <path
     d="m 17.00398,2 c 0,0 0.355064,0.015129 1.020354,0.043063 0.166124,0.011266 0.353055,0.00543 0.555612,0.032978 0.202535,0.028706 0.423903,0.059739 0.663283,0.093494 0.238565,0.037629 0.498355,0.061683 0.769357,0.1175468 0.269802,0.062849 0.556397,0.1295723 0.85903,0.2001783 1.199676,0.3064754 2.651942,0.7941187 4.143428,1.6891018 1.488291,0.8860601 3.049036,2.129813 4.375195,3.832877 1.308162,1.7034572 2.381755,3.8588671 2.865308,6.3370431 0.07131,0.307637 0.08689,0.624202 0.132484,0.941145 l 0.05767,0.479107 0.02842,0.241309 0.0058,0.278153 c 0.003,0.617212 0.05924,1.192528 -0.03086,1.913716 -0.03611,0.342563 -0.04964,0.705286 -0.110861,1.042013 -0.06522,0.335962 -0.130895,0.673471 -0.196542,1.01293 -0.05283,0.344869 -0.173729,0.672303 -0.271001,1.010577 l -0.156587,0.506272 c -0.04792,0.171081 -0.110129,0.337509 -0.183728,0.499672 -0.501566,1.339167 -1.26173,2.605812 -2.163185,3.802222 -0.240177,0.287472 -0.485152,0.57416 -0.734933,0.859296 -0.239783,0.294838 -0.538001,0.536132 -0.8078,0.807308 l -0.417481,0.396478 c -0.141712,0.12996 -0.299024,0.242463 -0.448728,0.364659 -0.305029,0.237819 -0.607645,0.482606 -0.928686,0.703738 -1.288538,0.885663 -2.735589,1.573103 -4.261114,2.067338 -1.534346,0.484163 -3.152327,0.680457 -4.764309,0.727786 l -0.367474,-0.01551 -0.265796,-0.01478 -0.531987,-0.02951 -0.265796,-0.01478 c -0.08575,-0.003 -0.176124,-0.0091 -0.28861,-0.02754 l -0.635659,-0.09117 -0.634461,-0.09658 -0.316241,-0.05045 -0.293811,-0.07253 C 13.013566,31.490961 12.626467,31.381934 12.239385,31.277574 10.714288,30.781 9.2640219,30.099 7.9754771,29.211764 7.6536403,28.991801 7.3530197,28.743518 7.044791,28.509975 6.8950862,28.387775 6.7373714,28.274875 6.5956697,28.14492 L 6.1776565,27.74811 C 5.907456,27.476582 5.6092384,27.23528 5.3694711,26.940059 5.1232889,26.652978 4.8774995,26.366673 4.6325252,26.081539 3.7318662,24.883182 2.9685156,23.61733 2.4673404,22.276598 1.9713816,20.940521 1.6327337,19.579227 1.5522743,18.233853 1.4650041,17.56659 1.5122712,16.900487 1.5170333,16.251841 l 0.00835,-0.290559 0.028457,-0.225397 0.056787,-0.448856 c 0.045245,-0.304141 0.057979,-0.581911 0.1292969,-0.901956 0.070839,-0.316175 0.1412982,-0.630414 0.2109587,-0.94231 0.03798,-0.153636 0.064885,-0.311531 0.1125111,-0.458169 L 2.2110966,12.549321 C 2.3095512,12.26224 2.4068344,11.977496 2.503699,11.695076 2.6214477,11.420018 2.7498874,11.152342 2.8707664,10.885823 3.08933,10.343486 3.4031551,9.8554541 3.6797615,9.3678029 3.8102612,9.1195239 3.9827871,8.8976159 4.1420984,8.6729999 4.3010185,8.4487729 4.457937,8.2268649 4.613641,8.0072919 5.9410152,6.3042209 7.5029525,5.060868 8.9920405,4.1755817 10.483931,3.280599 11.936595,2.794119 13.136277,2.4872564 c 0.30261,-0.070215 0.589228,-0.1369446 0.859029,-0.1997916 0.270989,-0.05586 0.530392,-0.079917 0.768956,-0.1175457 0.238985,-0.033749 0.460346,-0.064788 0.662897,-0.093494 0.202934,-0.027544 0.390284,-0.021722 0.556,-0.032978 C 16.648938,2.0151301 17.00398,2.0000001 17.00398,2 Z m 0,0 c 0,0 -0.354657,0.019787 -1.019536,0.05664 C 15.818722,2.070218 15.631791,2.066705 15.429642,2.096987 15.227484,2.12841 15.00732,2.162162 14.769145,2.1990126 14.531771,2.2397436 14.273187,2.2669046 14.004189,2.3262572 13.737596,2.3972512 13.454583,2.4725114 13.15517,2.5520395 11.975118,2.9015762 10.550059,3.4373252 9.1594434,4.4219234 7.7644309,5.380912 6.3730095,6.7305759 5.3218359,8.4662209 4.8194722,9.3449129 4.355932,10.288008 4.056918,11.317216 c -0.073695,0.257213 -0.1541206,0.513645 -0.2233646,0.774342 -0.048815,0.265734 -0.097631,0.533418 -0.1473107,0.803033 l -0.074893,0.403077 c -0.023221,0.134615 -0.023221,0.26767 -0.036071,0.401127 -0.020832,0.264964 -0.042032,0.531877 -0.063222,0.800712 -0.024051,0.26458 0.00483,0.586184 0.00352,0.879864 l 0.00949,0.452335 0.00483,0.227328 c -7.98e-4,0.05358 0.00114,-0.04074 0.00242,-0.02129 l 0.00352,0.02638 0.00713,0.05277 0.014402,0.105486 c 0.083697,0.562515 0.120487,1.131252 0.2834053,1.68678 0.2261747,1.125805 0.7045132,2.205071 1.2405173,3.241644 0.148901,0.252165 0.2986176,0.505491 0.4487214,0.759978 0.1517027,0.251779 0.3470609,0.480275 0.5127688,0.724293 l 0.2578044,0.361175 0.2946024,0.336732 c 0.2009472,0.220749 0.3842842,0.455063 0.5964432,0.666096 0.8338005,0.861238 1.8081267,1.585139 2.8320685,2.225249 l 0.800983,0.430993 c 0.259802,0.156735 0.558007,0.241694 0.830611,0.373201 l 0.416305,0.184662 c 0.140501,0.05738 0.289011,0.09618 0.432719,0.14587 0.291012,0.09 0.575211,0.200572 0.869835,0.277767 0.298217,0.06675 0.596834,0.128793 0.89265,0.203287 l 0.221751,0.05427 0.209373,0.02714 0.417903,0.05896 0.4171,0.0648 c 0.06202,0.01436 0.148911,0.01858 0.240977,0.02129 l 0.266183,0.011 0.532401,0.02254 0.266194,0.011 0.132902,0.0058 0.06639,0.0034 0.03325,0.0017 c -0.03406,-3.92e-4 0.123287,0.0034 -0.06812,-7.8e-4 1.228905,-0.01748 2.446992,-0.177289 3.630252,-0.480658 0.295017,-0.07719 0.579229,-0.188154 0.870241,-0.278156 0.143709,-0.04968 0.292222,-0.08885 0.432719,-0.146255 l 0.416697,-0.183788 c 0.275001,-0.127248 0.572022,-0.215694 0.832218,-0.371649 l 0.801374,-0.431508 c 1.028756,-0.635836 1.99866,-1.365944 2.836871,-2.224074 0.212167,-0.211429 0.395498,-0.445747 0.59645,-0.666873 l 0.2946,-0.337124 0.257792,-0.36156 c 0.166927,-0.243628 0.36267,-0.472128 0.514377,-0.724677 0.150119,-0.254492 0.299818,-0.508203 0.448739,-0.760753 0.166109,-0.247121 0.254188,-0.526052 0.389086,-0.786363 0.120074,-0.265737 0.266593,-0.524111 0.348239,-0.801877 0.09724,-0.274661 0.193746,-0.548162 0.289828,-0.820499 0.09367,-0.272722 0.136096,-0.535747 0.209344,-0.80459 0.160517,-0.501611 0.205748,-1.161117 0.288206,-1.755054 l 0.01444,-0.113294 0.0068,-0.05669 0.003,-0.0283 c 0.002,-0.02016 -0.001,0.07453 0,0.02171 l 0.0042,-0.211427 0.01061,-0.422081 c 0,-0.280484 0.03116,-0.563682 0.0068,-0.840285 C 30.41083,12.307759 29.735919,10.196964 28.688762,8.4620809 27.637032,6.7270279 26.244016,5.377766 24.848189,4.4199343 23.457435,3.4357754 22.031576,2.9008033 20.851921,2.5512671 20.552504,2.4717381 20.26949,2.3964776 20.002897,2.3258717 19.733506,2.2665172 19.475318,2.2393609 19.237934,2.1990145 18.999753,2.1621595 18.779209,2.1280205 18.577459,2.0969861 18.375324,2.0667261 18.187971,2.0702177 18.022259,2.0566393 17.358643,2.0197855 17.00398,2 17.00398,2 Z"
     id="path2-8"
     style="fill:url(#linearGradient23);fill-opacity:1;stroke-width:0.394069" />
  <path
     d="m 15.371853,20.73909 c 0,0.226134 0.189053,0.408945 0.421985,0.408945 h 5.485604 v 2.453276 c 0,0.362776 0.454497,0.54677 0.720257,0.28917 L 26.6418,19.392003 c 0.07892,-0.0764 0.123049,-0.180361 0.123049,-0.289124 0,-0.108785 -0.04429,-0.212259 -0.123554,-0.289117 l -4.642117,-4.49846 c -0.264084,-0.256406 -0.719797,-0.07649 -0.719797,0.289126 v 2.454102 h -5.485615 c -0.233362,0 -0.421969,0.183628 -0.421969,0.408954 z m 6.329526,-2.862654 c 0.233351,0 0.421963,-0.182806 0.421963,-0.408952 v -1.875848 l 3.623434,3.511243 -3.623434,3.511246 V 20.73909 c 0,-0.226154 -0.188612,-0.408965 -0.421963,-0.408965 h -5.485604 v -2.453689 z"
     id="path4-0-7"
     style="fill:url(#linearGradient25);fill-opacity:1;stroke-width:0.415423" />
  <path
     d="m 18.513026,11.35123 c 0,-0.226156 -0.188993,-0.408957 -0.421914,-0.408957 h -5.48558 V 8.4889839 c 0,-0.362732 -0.454443,-0.546776 -0.72035,-0.289122 L 7.2430882,12.698303 c -0.078471,0.07647 -0.1231957,0.180342 -0.1231957,0.289126 0,0.10879 0.044741,0.212241 0.1236566,0.289133 l 4.6421029,4.498442 c 0.264152,0.256416 0.71988,0.07647 0.71988,-0.289124 v -2.45412 h 5.48558 c 0.233303,0 0.421914,-0.183616 0.421914,-0.408938 z m -6.329501,2.862643 c -0.233321,0 -0.421986,0.182797 -0.421986,0.408949 v 1.875864 L 8.138134,12.987429 11.761539,9.4761939 V 11.35123 c 0,0.226153 0.188665,0.408943 0.421986,0.408943 h 5.485562 v 2.4537 z"
     id="path4-0-5"
     style="fill:url(#linearGradient27);fill-opacity:1;stroke-width:0.415428" />
</svg>
