<?xml version="1.0" encoding="UTF-8" standalone="no"?>
<svg
   style="isolation:isolate"
   viewBox="0 0 34 34"
   width="34"
   height="34"
   version="1.1"
   id="svg16"
   sodipodi:docname="restart.svg"
   inkscape:version="1.3 (0e150ed6c4, 2023-07-21)"
   xmlns:inkscape="http://www.inkscape.org/namespaces/inkscape"
   xmlns:sodipodi="http://sodipodi.sourceforge.net/DTD/sodipodi-0.dtd"
   xmlns:xlink="http://www.w3.org/1999/xlink"
   xmlns="http://www.w3.org/2000/svg"
   xmlns:svg="http://www.w3.org/2000/svg"
   xmlns:rdf="http://www.w3.org/1999/02/22-rdf-syntax-ns#"
   xmlns:cc="http://creativecommons.org/ns#"
   xmlns:dc="http://purl.org/dc/elements/1.1/">
  <metadata
     id="metadata22">
    <rdf:RDF>
      <cc:Work
         rdf:about="">
        <dc:format>image/svg+xml</dc:format>
        <dc:type
           rdf:resource="http://purl.org/dc/dcmitype/StillImage" />
      </cc:Work>
    </rdf:RDF>
  </metadata>
  <defs
     id="defs20">
    <linearGradient
       inkscape:collect="always"
       xlink:href="#linearGradient3"
       id="linearGradient13"
       x1="2.9996879"
       y1="16"
       x2="29.037756"
       y2="16"
       gradientUnits="userSpaceOnUse"
       gradientTransform="matrix(-1.1906031,0,0,-1.1538455,36.072432,35.461535)" />
    <linearGradient
       id="linearGradient3"
       inkscape:collect="always">
      <stop
         style="stop-color:#bc5fd3;stop-opacity:1"
         offset="0"
         id="stop7" />
      <stop
         style="stop-color:#00ccff;stop-opacity:1"
         offset="1"
         id="stop8" />
    </linearGradient>
    <linearGradient
       inkscape:collect="always"
       xlink:href="#linearGradient3"
       id="linearGradient15"
       x1="7.1400747"
       y1="14.800005"
       x2="24.897369"
       y2="14.800005"
       gradientUnits="userSpaceOnUse"
       gradientTransform="matrix(1.1906031,0,0,1.1538455,-2.0714318,-1.4615147)" />
  </defs>
  <sodipodi:namedview
     pagecolor="#cccccc"
     bordercolor="#000000"
     borderopacity="1"
     objecttolerance="10"
     gridtolerance="10"
     guidetolerance="10"
     inkscape:pageopacity="0"
     inkscape:pageshadow="2"
     inkscape:window-width="1920"
     inkscape:window-height="994"
     id="namedview18"
     showgrid="false"
     inkscape:zoom="12.848416"
     inkscape:cx="22.220638"
     inkscape:cy="21.753654"
     inkscape:window-x="0"
     inkscape:window-y="0"
     inkscape:window-maximized="1"
     inkscape:current-layer="svg16"
     inkscape:document-rotation="0"
     inkscape:showpageshadow="2"
     inkscape:pagecheckerboard="0"
     inkscape:deskcolor="#808080"
     inkscape:document-units="px">
    <inkscape:grid
       type="xygrid"
       id="grid247"
       originx="0"
       originy="0"
       spacingy="1"
       spacingx="1"
       units="px"
       visible="false" />
  </sodipodi:namedview>
  <linearGradient
     id="_lgradient_2"
     x1="0"
     y1="0.5"
     x2="1"
     y2="0.5">
    <stop
       offset="0%"
       stop-opacity="1"
       style="stop-color:#89ddff"
       id="stop2" />
    <stop
       offset="100%"
       stop-opacity="1"
       style="stop-color:#89ddff"
       id="stop4" />
  </linearGradient>
  <linearGradient
     id="_lgradient_3"
     x1="0"
     y1="0.5"
     x2="1"
     y2="0.5"
     gradientTransform="matrix(33,0,0,33,0.5,0.5)"
     gradientUnits="userSpaceOnUse">
    <stop
       offset="0%"
       stop-opacity="1"
       style="stop-color:#89ddff"
       id="stop9" />
    <stop
       offset="100%"
       stop-opacity="1"
       style="stop-color:#89ddff"
       id="stop11" />
  </linearGradient>
  <path
     d="m 17.004305,2.0000225 c 0,0 0.355056,0.015128 1.020358,0.043063 0.166124,0.011327 0.353066,0.00548 0.555623,0.03298 0.202557,0.028709 0.42392,0.05974 0.663291,0.093499 0.238587,0.037621 0.498369,0.061689 0.76938,0.1175461 0.269803,0.062853 0.556411,0.129572 0.85905,0.2001782 1.1997,0.3064741 2.651995,0.7941175 4.14351,1.6891004 1.488317,0.8860596 3.049094,2.1298025 4.375287,3.832869 1.308185,1.7034581 2.38179,3.8588708 2.865349,6.3370408 0.0713,0.307647 0.08688,0.624203 0.132505,0.941143 l 0.05771,0.479115 0.02837,0.241307 0.0052,0.278148 c 0.003,0.617212 0.05922,1.192529 -0.03086,1.913716 -0.03614,0.34256 -0.04963,0.705281 -0.110888,1.04201 -0.06521,0.335962 -0.130893,0.673471 -0.196546,1.012928 -0.05283,0.34487 -0.173732,0.672304 -0.271004,1.010578 l -0.156516,0.50627 c -0.04799,0.171082 -0.110157,0.337509 -0.183736,0.499675 -0.501575,1.339178 -1.261754,2.605806 -2.163229,3.802218 -0.240184,0.287468 -0.485169,0.574161 -0.734958,0.859292 -0.239777,0.294842 -0.537994,0.536132 -0.807804,0.807305 l -0.417516,0.396484 c -0.141708,0.12996 -0.299024,0.242466 -0.448737,0.364654 -0.305025,0.237821 -0.607645,0.482613 -0.928694,0.703737 -1.288566,0.885663 -2.735663,1.573107 -4.261206,2.067339 C 20.233895,31.756375 18.615886,31.952664 17.003875,32 L 16.636392,31.98454 16.370593,31.96976 15.838596,31.94021 15.57279,31.92543 c -0.08566,-0.003 -0.176137,-0.0088 -0.288612,-0.02748 l -0.635666,-0.09112 -0.634471,-0.09652 -0.316238,-0.0505 -0.293818,-0.07248 C 13.013541,31.49103 12.626456,31.382011 12.239356,31.277648 10.714152,30.781083 9.2638692,30.099083 7.9752972,29.211848 7.6536482,28.991886 7.3530212,28.743601 7.0447863,28.510065 6.8950912,28.387859 6.7373721,28.274954 6.595667,28.144998 L 6.1777533,27.748129 C 5.9075589,27.476577 5.6093246,27.235279 5.3695495,26.940058 5.1233674,26.652977 4.8775797,26.366666 4.6326015,26.08154 3.7319235,24.883182 2.9685438,23.617331 2.4673715,22.276599 1.9713916,20.940522 1.6327368,19.579229 1.5522753,18.233858 1.4650037,17.566593 1.5122712,16.900492 1.5170329,16.251847 l 0.00838,-0.290558 0.028461,-0.225398 0.056788,-0.448853 c 0.045236,-0.304144 0.057981,-0.581915 0.1292994,-0.901957 0.070849,-0.316176 0.1413126,-0.630418 0.2109626,-0.942308 0.037983,-0.15364 0.06489,-0.311531 0.1125094,-0.45817 L 2.2111197,12.549328 C 2.3095812,12.262264 2.4068658,11.977504 2.5037338,11.695087 2.6213657,11.420029 2.7499268,11.152359 2.8708085,10.885832 3.0893738,10.343498 3.4032043,9.855467 3.6798173,9.3678153 3.8103171,9.1195423 3.9828351,8.8976313 4.1421616,8.6730123 4.3010877,8.4487853 4.4579967,8.2268823 4.6137155,8.0073056 5.9411181,6.3042391 7.503092,5.060885 8.9922032,4.1756008 10.484141,3.2806181 11.936823,2.7941375 13.136527,2.4872761 13.439156,2.4170561 13.725763,2.350332 13.995567,2.2874859 14.266566,2.2316239 14.525965,2.2075749 14.76454,2.169939 15.003528,2.136191 15.224884,2.105149 15.427449,2.07644 15.630389,2.048891 15.817735,2.05472 15.983468,2.04346 16.649552,2.015149 17.004644,2 17.004644,2 Z m 0,0 c 0,0 -0.354658,0.01979 -1.019565,0.056648 -0.16573,0.013579 -0.35267,0.010007 -0.554822,0.040354 -0.202162,0.031423 -0.422323,0.065177 -0.66049,0.1020306 -0.237383,0.040735 -0.495982,0.067891 -0.764985,0.1272455 -0.266605,0.070996 -0.549612,0.146252 -0.84903,0.225781 -1.180094,0.3495342 -2.605167,0.8852829 -3.9958028,1.8698807 -1.395058,0.9589918 -2.7865027,2.308643 -3.8376858,4.044295 -0.502387,0.878685 -0.965923,1.8217857 -1.2649547,2.8509827 -0.073696,0.257219 -0.1541119,0.513647 -0.2233701,0.774346 -0.048816,0.265731 -0.097627,0.533417 -0.1473126,0.80303 l -0.074895,0.403079 c -0.023218,0.134615 -0.023218,0.267671 -0.036071,0.401127 -0.020832,0.264966 -0.042032,0.531873 -0.063214,0.800711 -0.024054,0.264579 0.00488,0.586184 0.0035,0.879859 l 0.00949,0.452347 0.00488,0.227332 c -8.093e-4,0.05359 0.00111,-0.04078 0.00248,-0.02129 l 0.0035,0.02644 0.0071,0.05282 0.014407,0.105471 c 0.083695,0.562518 0.1204899,1.131246 0.2834111,1.686778 0.2261789,1.125805 0.7045273,2.205062 1.2405363,3.241641 0.148909,0.25217 0.2986271,0.505489 0.4487378,0.759983 0.1517072,0.251776 0.347061,0.48027 0.5127804,0.724293 l 0.2578007,0.361172 0.2946152,0.336728 c 0.2009501,0.220742 0.3842907,0.455058 0.5964565,0.666099 0.8338212,0.861227 1.8081512,1.585127 2.832121,2.225239 l 0.800993,0.431004 c 0.259804,0.156724 0.558024,0.241683 0.830632,0.373201 l 0.416323,0.184655 c 0.140495,0.05736 0.289008,0.09618 0.432717,0.145867 0.291023,0.09 0.575226,0.20057 0.869854,0.277764 0.298225,0.06668 0.596854,0.128806 0.89266,0.203291 l 0.221782,0.05427 0.20936,0.02714 0.417908,0.05899 0.417109,0.06484 c 0.06201,0.01442 0.14891,0.01856 0.240988,0.02129 l 0.26619,0.01103 0.532404,0.02251 0.26621,0.01103 0.132891,0.0052 0.06635,0.0034 0.03328,0.0017 c -0.03405,-3.88e-4 0.123276,0.0034 -0.06811,-7.73e-4 1.228923,-0.01751 2.447045,-0.177289 3.630317,-0.480663 0.295028,-0.07724 0.579242,-0.188153 0.870264,-0.278156 0.143709,-0.0497 0.292222,-0.08888 0.432724,-0.146251 l 0.416715,-0.183839 c 0.275002,-0.127242 0.572037,-0.215695 0.83223,-0.37165 l 0.801396,-0.431392 c 1.028767,-0.635973 1.99871,-1.366085 2.836929,-2.224211 0.212174,-0.211428 0.395503,-0.445743 0.596456,-0.666868 l 0.294611,-0.337001 0.257802,-0.361561 c 0.166921,-0.243631 0.362663,-0.472127 0.514386,-0.72468 0.150111,-0.254486 0.299817,-0.508203 0.448735,-0.760755 0.16613,-0.24712 0.254185,-0.526047 0.389089,-0.786359 0.120088,-0.265742 0.2666,-0.52411 0.348263,-0.801875 0.09718,-0.274665 0.193754,-0.548162 0.289813,-0.820498 0.09362,-0.272721 0.136106,-0.535749 0.209366,-0.804591 0.16051,-0.50161 0.205752,-1.161107 0.288221,-1.755052 l 0.01447,-0.113285 0.0062,-0.05669 0.003,-0.02828 c 0.002,-0.02019 -9.99e-4,0.07453 0,0.02168 l 0.004,-0.211425 0.01036,-0.422079 c 0,-0.280485 0.03116,-0.563681 0.0062,-0.840286 C 30.410121,12.307718 29.735224,10.196923 28.688037,8.4620493 27.638011,6.7271175 26.24495,5.3778544 24.849116,4.4200248 23.458064,3.4358148 22.032199,2.9008433 20.852504,2.5513068 20.553081,2.4717838 20.270066,2.3965182 20.003463,2.325912 19.734055,2.2665573 19.475865,2.2393973 19.238499,2.1990552 19.000309,2.1622011 18.779747,2.1280593 18.577987,2.0970216 18.375838,2.0667676 18.188506,2.0702506 18.022786,2.0566706 17.357471,2.0198156 17.002819,2.0000286 17.002819,2.0000286 Z"
     style="fill:url(#linearGradient13);fill-opacity:1;stroke-width:1.17213"
     id="path1" />
  <path
     d="M 12.926403,8.5679903 C 10.870317,9.6843103 9.5262902,11.536665 8.9743602,13.58759 L 7.0133646,13.54086 a 0.5683926,0.55084452 0 0 0 -0.4238008,0.933764 l 3.6598182,3.701556 a 0.5683926,0.55084452 0 0 0 0.80395,0.01736 l 3.814293,-3.544028 a 0.5683926,0.55084452 0 0 0 -0.380133,-0.951059 l -1.958091,-0.04176 c 0.417023,-0.898977 1.105566,-1.685362 2.063671,-2.205551 2.020728,-1.097121 4.487563,-0.668523 5.999037,0.892627 a 0.5683926,0.55084452 0 0 0 0.69156,0.104646 l 2.019455,-1.09645 a 0.5683926,0.55084452 0 0 0 0.166603,-0.827008 C 20.96147,7.5263928 16.513804,6.6202622 12.926403,8.5679843 Z m 0.555567,0.961048 c 2.897456,-1.5731339 6.401143,-0.971344 8.619991,1.2123567 l -1.02263,0.555223 c -1.878649,-1.6653097 -4.705543,-2.0749897 -7.041802,-0.806555 -1.466538,0.796236 -2.46212,2.098492 -2.878129,3.555284 a 0.5683926,0.55084452 0 0 0 0.53504,0.702554 l 1.392798,0.02645 -2.409142,2.24186 -2.3161598,-2.339762 1.010975,0.02332 A 0.5683926,0.55084452 0 0 0 9.94225,14.252552 c 0.397129,-1.932088 1.625812,-3.684254 3.539709,-4.7233757 z m 9.539631,3.4488387 a 0.5683926,0.55084452 0 0 0 -0.07401,0.05985 l -3.814311,3.544042 a 0.5683926,0.55084452 0 0 0 0.380138,0.951049 l 1.958107,0.04175 c -0.417023,0.898994 -1.10558,1.685375 -2.063685,2.205564 -2.020718,1.097118 -4.487559,0.668511 -5.999028,-0.892634 a 0.5683926,0.55084452 0 0 0 -0.691548,-0.104645 l -2.019462,1.096443 a 0.5683926,0.55084452 0 0 0 -0.166599,0.826996 c 2.078733,2.485035 5.484979,3.533312 8.637007,2.709129 a 0.5683926,0.55084452 0 1 0 -0.295444,-1.062814 c -2.498607,0.653333 -5.172109,-0.07191 -6.984122,-1.857201 l 1.032971,-0.56083 c 1.878643,1.665319 4.705536,2.074978 7.041793,0.806544 1.466521,-0.796231 2.462104,-2.098487 2.878114,-3.555283 A 0.5683926,0.55084452 0 0 0 22.30652,16.483283 l -1.392802,-0.02646 2.409132,-2.241853 2.316168,2.339772 -1.010976,-0.02332 a 0.5683926,0.55084452 0 0 0 -0.569351,0.447225 c -0.397113,1.932087 -1.625809,3.684263 -3.53969,4.723383 a 0.5683926,0.55084452 0 1 0 0.555549,0.961032 c 2.056091,-1.116318 3.400126,-2.968667 3.952059,-5.019591 l 1.960995,0.04678 a 0.5683926,0.55084452 0 0 0 0.423801,-0.933781 l -3.659832,-3.70154 a 0.5683926,0.55084452 0 0 0 -0.72998,-0.07723 z"
     id="path1-93"
     style="fill:url(#linearGradient15);stroke-width:1.17213" />
</svg>
