<?xml version="1.0" encoding="UTF-8" standalone="no"?>
<svg
   style="isolation:isolate"
   viewBox="0 0 34 34"
   width="34"
   height="34"
   version="1.1"
   id="svg9"
   sodipodi:docname="shutdown.svg"
   inkscape:version="1.3 (0e150ed6c4, 2023-07-21)"
   xmlns:inkscape="http://www.inkscape.org/namespaces/inkscape"
   xmlns:sodipodi="http://sodipodi.sourceforge.net/DTD/sodipodi-0.dtd"
   xmlns:xlink="http://www.w3.org/1999/xlink"
   xmlns="http://www.w3.org/2000/svg"
   xmlns:svg="http://www.w3.org/2000/svg"
   xmlns:rdf="http://www.w3.org/1999/02/22-rdf-syntax-ns#"
   xmlns:cc="http://creativecommons.org/ns#"
   xmlns:dc="http://purl.org/dc/elements/1.1/">
  <metadata
     id="metadata15">
    <rdf:RDF>
      <cc:Work
         rdf:about="">
        <dc:format>image/svg+xml</dc:format>
        <dc:type
           rdf:resource="http://purl.org/dc/dcmitype/StillImage" />
      </cc:Work>
    </rdf:RDF>
  </metadata>
  <defs
     id="defs13">
    <linearGradient
       inkscape:collect="always"
       xlink:href="#linearGradient3"
       id="linearGradient2"
       x1="-138.98537"
       y1="15.351603"
       x2="-112.9616"
       y2="16"
       gradientUnits="userSpaceOnUse"
       gradientTransform="matrix(1.1906064,0,0,1.1538445,166.99388,-1.4615162)" />
    <linearGradient
       id="linearGradient3"
       inkscape:collect="always">
      <stop
         style="stop-color:#bc5fd3;stop-opacity:1"
         offset="0"
         id="stop7" />
      <stop
         style="stop-color:#00ccff;stop-opacity:1"
         offset="1"
         id="stop8" />
    </linearGradient>
    <linearGradient
       inkscape:collect="always"
       xlink:href="#linearGradient3"
       id="linearGradient4"
       x1="-127.80077"
       y1="9.6863499"
       x2="-124.15397"
       y2="9.6863499"
       gradientUnits="userSpaceOnUse"
       gradientTransform="matrix(1.1906064,0,0,1.1538445,166.99388,-1.4615162)" />
  </defs>
  <sodipodi:namedview
     pagecolor="#cccccc"
     bordercolor="#000000"
     borderopacity="1"
     objecttolerance="10"
     gridtolerance="10"
     guidetolerance="10"
     inkscape:pageopacity="0"
     inkscape:pageshadow="2"
     inkscape:window-width="1920"
     inkscape:window-height="994"
     id="namedview11"
     showgrid="false"
     inkscape:zoom="13.083994"
     inkscape:cx="17.005511"
     inkscape:cy="20.291969"
     inkscape:window-x="0"
     inkscape:window-y="0"
     inkscape:window-maximized="1"
     inkscape:current-layer="svg9"
     inkscape:document-rotation="0"
     inkscape:showpageshadow="2"
     inkscape:pagecheckerboard="0"
     inkscape:deskcolor="#808080"
     inkscape:document-units="px">
    <inkscape:grid
       type="xygrid"
       id="grid140"
       originx="0"
       originy="0"
       spacingy="1"
       spacingx="1"
       units="px"
       visible="false" />
  </sodipodi:namedview>
  <linearGradient
     id="_lgradient_1"
     x1="0"
     y1="0.5"
     x2="1"
     y2="0.5"
     gradientTransform="matrix(33,0,0,33,0.5,0.5)"
     gradientUnits="userSpaceOnUse">
    <stop
       offset="0%"
       stop-opacity="1"
       style="stop-color:#ff5370)"
       id="stop2" />
    <stop
       offset="100%"
       stop-opacity="1"
       style="stop-color:#ff5370"
       id="stop4" />
  </linearGradient>
  <path
     d="m 17.004339,2.0000214 c 0,0 0.35508,0.015132 1.020378,0.043065 0.166126,0.011274 0.353058,0.0055 0.555633,0.032978 0.202541,0.028712 0.423905,0.059738 0.663285,0.093501 0.238589,0.037624 0.498379,0.061691 0.769386,0.1175469 0.2698,0.062848 0.556412,0.1295726 0.859049,0.2001782 1.199695,0.3064747 2.652004,0.7941174 4.143515,1.6891006 1.488334,0.8860593 3.049112,2.1298026 4.375311,3.8328693 1.30818,1.7034583 2.381797,3.8588656 2.86536,6.3370386 0.0712,0.307648 0.08688,0.624203 0.132511,0.941142 l 0.0577,0.479109 0.02837,0.241313 0.0051,0.27815 c 0.003,0.61721 0.05922,1.192532 -0.03086,1.913715 -0.03613,0.342559 -0.04963,0.705282 -0.110886,1.042011 -0.06521,0.335961 -0.130894,0.673472 -0.196546,1.012929 -0.05283,0.344869 -0.173737,0.672303 -0.271004,1.010576 l -0.156314,0.506271 c -0.04816,0.171084 -0.110154,0.337508 -0.183749,0.499675 -0.501578,1.339178 -1.261745,2.605807 -2.163223,3.802219 -0.24018,0.287466 -0.485174,0.57416 -0.734962,0.859289 -0.239774,0.294842 -0.537997,0.536132 -0.807803,0.807307 l -0.417539,0.396482 c -0.141707,0.129961 -0.299024,0.242463 -0.448746,0.364655 -0.305031,0.23782 -0.60766,0.482613 -0.928698,0.703736 -1.288566,0.885664 -2.735662,1.573107 -4.26121,2.067339 C 20.234036,31.756376 18.616016,31.952665 17.003992,32 L 16.636523,31.98455 16.37072,31.96977 15.838715,31.94022 15.572919,31.92544 c -0.08577,-0.003 -0.176136,-0.0085 -0.288627,-0.02748 L 14.648668,31.80687 14.014197,31.71033 13.697955,31.65984 13.404128,31.58735 C 13.01362,31.49102 12.62653,31.382017 12.239425,31.277656 10.714331,30.781071 9.2640303,30.099073 7.9754633,29.211837 7.6536383,28.991874 7.3530115,28.743586 7.0447879,28.510053 6.8950879,28.387841 6.7373683,28.274942 6.5956623,28.144986 L 6.1777478,27.748116 C 5.907562,27.47657 5.6093394,27.235272 5.3695631,26.940051 5.1233695,26.652974 4.8775917,26.366659 4.6326012,26.081534 3.7319188,24.883176 2.9685492,23.617324 2.4673648,22.276594 1.9713935,20.940518 1.6327377,19.579223 1.5522763,18.23385 1.4650041,17.566588 1.5122705,16.900487 1.5170325,16.251844 l 0.00837,-0.290559 0.028461,-0.225399 0.056785,-0.448851 C 1.6558865,14.982889 1.6687545,14.705118 1.739948,14.385076 1.810793,14.0689 1.8812494,13.75466 1.9509,13.442766 1.988883,13.28913 2.015796,13.131239 2.0634104,12.984599 l 0.147709,-0.435276 C 2.3095842,12.262245 2.4068712,11.9775 2.5037386,11.695082 2.6213703,11.420026 2.7499208,11.152353 2.870815,10.885826 3.0893687,10.343491 3.4032,9.855462 3.6798136,9.3678097 3.8103005,9.1195367 3.9828319,8.8976277 4.1421591,8.6730067 4.3010654,8.4487807 4.4579863,8.2268757 4.6137066,8.0072998 5.9411099,6.3042334 7.5030793,5.0608786 8.9922063,4.1755945 10.484124,3.2806127 11.936825,2.7941331 13.136544,2.4872702 c 0.302618,-0.070215 0.589238,-0.1369444 0.859045,-0.1997905 0.270996,-0.055856 0.530396,-0.079909 0.768976,-0.1175467 0.23898,-0.033751 0.460346,-0.064788 0.662903,-0.0935 C 15.630417,2.048882 15.817761,2.054714 15.98349,2.043455 16.649579,2.015143 17.004648,2 17.004648,2 Z m 0,0 c 0,0 -0.354657,0.019787 -1.019551,0.056647 -0.165747,0.013572 -0.352671,0.010023 -0.554822,0.040339 -0.202152,0.031428 -0.422327,0.065165 -0.660502,0.1020254 -0.237375,0.040742 -0.49597,0.067886 -0.764976,0.1272461 -0.26661,0.070998 -0.549617,0.1462538 -0.849039,0.225782 -1.180096,0.349535 -2.605173,0.8852829 -3.9958147,1.86988 C 7.7645753,5.3809354 6.3731244,6.7305859 5.3219264,8.4662417 4.8195497,9.3449317 4.356,10.288021 4.0569789,11.317225 c -0.073694,0.257217 -0.1541116,0.513646 -0.2233706,0.774344 -0.048813,0.265733 -0.097624,0.533417 -0.1473136,0.803033 l -0.074892,0.403076 c -0.023218,0.134616 -0.023218,0.267675 -0.036075,0.40113 -0.020829,0.264957 -0.042035,0.531871 -0.063214,0.800712 -0.024056,0.264579 0.00487,0.586183 0.0035,0.879855 l 0.00949,0.45234 0.00487,0.227327 c -7.974e-4,0.0536 0.00112,-0.04073 0.00249,-0.02129 l 0.0035,0.02645 0.00711,0.05285 0.014416,0.105472 c 0.083693,0.562515 0.1204891,1.131245 0.2834111,1.68678 0.2261677,1.125803 0.7045297,2.205063 1.2405411,3.241637 0.148909,0.252167 0.2986155,0.50549 0.4487393,0.759982 0.1517074,0.251778 0.3470617,0.480272 0.5127822,0.724291 l 0.2577907,0.361178 0.2946267,0.336726 c 0.2009509,0.220744 0.384292,0.45506 0.5964463,0.666097 0.8338192,0.86123 1.8081632,1.585129 2.8321389,2.225243 l 0.800991,0.430999 c 0.259798,0.15673 0.558028,0.241684 0.830644,0.373199 l 0.416307,0.184658 c 0.140509,0.05736 0.289006,0.09618 0.432734,0.145869 0.291015,0.09 0.575232,0.20057 0.869857,0.277764 0.298226,0.06666 0.596841,0.1288 0.892659,0.20329 l 0.221774,0.05427 0.209356,0.02713 0.41792,0.05902 0.417099,0.06487 c 0.06201,0.01443 0.148921,0.01854 0.241001,0.02129 l 0.266202,0.01106 0.532397,0.02251 0.266198,0.01106 0.132903,0.0051 0.06643,0.0034 0.03328,0.0017 c -0.03405,-3.88e-4 0.123289,0.0034 -0.06811,-7.78e-4 1.22894,-0.01753 2.447046,-0.177289 3.630332,-0.480661 0.295028,-0.07726 0.579252,-0.188152 0.870273,-0.278155 0.143702,-0.04964 0.292224,-0.08891 0.432722,-0.14625 l 0.416718,-0.183884 c 0.274998,-0.127225 0.572025,-0.215674 0.832218,-0.371626 L 23.987277,26.2289 c 1.028784,-0.635838 1.998718,-1.365942 2.83695,-2.224074 0.212161,-0.21143 0.395488,-0.445748 0.596439,-0.666872 l 0.294627,-0.337121 0.257797,-0.361564 c 0.166926,-0.243628 0.362682,-0.472123 0.51439,-0.724674 0.15011,-0.254494 0.299818,-0.508204 0.448731,-0.760757 0.166129,-0.247119 0.254191,-0.52605 0.389101,-0.786356 0.120086,-0.265744 0.2666,-0.52411 0.348253,-0.80188 0.09718,-0.274665 0.193751,-0.548158 0.289827,-0.820496 0.09363,-0.272721 0.136101,-0.535748 0.209368,-0.804593 0.160509,-0.501607 0.205738,-1.161111 0.28821,-1.755049 l 0.01446,-0.113286 0.0061,-0.05669 0.003,-0.02826 c 0.002,-0.0202 -9.81e-4,0.07456 0,0.02165 l 0.004,-0.211431 0.01,-0.422082 c 0,-0.280483 0.03116,-0.56368 0.0061,-0.840282 C 30.409284,12.307792 29.734401,10.196999 28.687207,8.4621187 27.63809,6.7271798 26.245028,5.3779171 24.849169,4.4200874 23.45813,3.435878 22.03224,2.9009063 20.852562,2.5513701 20.553128,2.4718411 20.27012,2.3965806 20.003526,2.3259755 19.734118,2.2666205 19.47591,2.2394655 19.238543,2.1991183 19.000357,2.1622633 18.779798,2.1281253 18.578048,2.0970898 c -0.20215,-0.030259 -0.389485,-0.026768 -0.555231,-0.040347 -0.665301,-0.036854 -1.01997,-0.056639 -1.01997,-0.056639 z"
     id="path2-675"
     style="fill:url(#linearGradient2);fill-opacity:1;stroke-width:0.394067" />
  <path
     d="m 17.004399,2.0000173 c -1.196915,0 -2.17092,0.9434302 -2.17092,2.1036668 0,0.056659 0.0051,0.1104216 0.01436,0.1780958 V 16.714668 c 0,0.39514 0.329909,0.715362 0.737926,0.715362 h 2.837931 c 0.407762,0 0.737708,-0.320221 0.737708,-0.715361 V 4.2810415 c 0.0082,-0.058262 0.01417,-0.1166535 0.01417,-0.1775998 0,-1.1599942 -0.974014,-2.1034244 -2.170928,-2.1034244 z m 0.694638,2.0899244 c -2.54e-4,0 -2.54e-4,6.229e-4 -0.003,0.0034 -0.0051,0.025966 -0.0051,0.051687 -0.0092,0.078238 -0.0051,0.02192 -0.0051,0.044536 -0.0051,0.06692 V 15.999042 h -1.36408 V 4.2382688 c 0,-0.023761 -0.003,-0.046968 -0.0051,-0.06992 -0.0051,-0.021689 -0.0051,-0.044767 -0.0092,-0.081239 0.0092,-0.3639337 0.317286,-0.6569299 0.694611,-0.6569299 0.378881,0 0.687642,0.295754 0.695118,0.6611766 2.76e-4,-3.81e-4 2.76e-4,-6.231e-4 2.76e-4,-6.231e-4 z"
     id="path8-35"
     style="fill:url(#linearGradient4);fill-opacity:1;stroke-width:0.253738" />
</svg>
