<?xml version="1.0" encoding="UTF-8" standalone="no"?>
<svg
   viewBox="0 0 24 24"
   version="1.1"
   id="svg2"
   sodipodi:docname="weather-clouds-night.svg"
   inkscape:version="1.4 (unknown)"
   xmlns:inkscape="http://www.inkscape.org/namespaces/inkscape"
   xmlns:sodipodi="http://sodipodi.sourceforge.net/DTD/sodipodi-0.dtd"
   xmlns="http://www.w3.org/2000/svg"
   xmlns:svg="http://www.w3.org/2000/svg">
  <defs
     id="defs2">
    <filter
       id="filter0_dd_2_300"
       x="427.46701"
       y="400.07599"
       width="232.43401"
       height="231.793"
       filterUnits="userSpaceOnUse"
       color-interpolation-filters="sRGB">
      <feFlood
         flood-opacity="0"
         result="BackgroundImageFix"
         id="feFlood11" />
      <feColorMatrix
         in="SourceAlpha"
         type="matrix"
         values="0 0 0 0 0 0 0 0 0 0 0 0 0 0 0 0 0 0 127 0"
         result="hardAlpha"
         id="feColorMatrix11" />
      <feOffset
         dx="-21"
         dy="15"
         id="feOffset11" />
      <feGaussianBlur
         stdDeviation="25"
         id="feGaussianBlur11" />
      <feComposite
         in2="hardAlpha"
         operator="out"
         id="feComposite11" />
      <feColorMatrix
         type="matrix"
         values="0 0 0 0 0.113438 0 0 0 0 0.148981 0 0 0 0 0.275 0 0 0 0.25 0"
         id="feColorMatrix12" />
      <feBlend
         mode="normal"
         in2="BackgroundImageFix"
         result="effect1_dropShadow_2_300"
         id="feBlend12" />
      <feColorMatrix
         in="SourceAlpha"
         type="matrix"
         values="0 0 0 0 0 0 0 0 0 0 0 0 0 0 0 0 0 0 127 0"
         result="hardAlpha"
         id="feColorMatrix13" />
      <feOffset
         id="feOffset13" />
      <feGaussianBlur
         stdDeviation="19"
         id="feGaussianBlur13" />
      <feComposite
         in2="hardAlpha"
         operator="out"
         id="feComposite13" />
      <feColorMatrix
         type="matrix"
         values="0 0 0 0 0.619608 0 0 0 0 0.423529 0 0 0 0 1 0 0 0 0.4 0"
         id="feColorMatrix14" />
      <feBlend
         mode="normal"
         in2="effect1_dropShadow_2_300"
         result="effect2_dropShadow_2_300"
         id="feBlend14" />
      <feBlend
         mode="normal"
         in="SourceGraphic"
         in2="effect2_dropShadow_2_300"
         result="shape"
         id="feBlend15" />
    </filter>
    <linearGradient
       id="paint0_linear_2_300"
       x1="521.06702"
       y1="452.108"
       x2="580.39001"
       y2="567.44"
       gradientUnits="userSpaceOnUse">
      <stop
         offset="0.0001"
         stop-color="#D4C0FF"
         id="stop20" />
      <stop
         offset="1"
         stop-color="#7E2FFF"
         id="stop21" />
    </linearGradient>
    <linearGradient
       id="paint1_linear_2_300"
       x1="527.19702"
       y1="388.85999"
       x2="563.703"
       y2="540.22498"
       gradientUnits="userSpaceOnUse">
      <stop
         stop-color="white"
         id="stop22" />
      <stop
         offset="1"
         stop-color="white"
         stop-opacity="0"
         id="stop23" />
    </linearGradient>
    <mask
       id="path-1-inside-1_2_300"
       fill="#ffffff">
      <path
         fill-rule="evenodd"
         clip-rule="evenodd"
         d="m 552.019,438.137 c 3.437,-0.609 5.526,3.459 3.716,6.444 -9.471,15.621 -10.845,35.648 -1.877,53.083 11.939,23.21 38.274,34.183 62.49,27.622 3.373,-0.914 6.706,2.224 5.165,5.36 -5.928,12.069 -15.648,22.405 -28.524,29.028 -31.848,16.382 -70.946,3.844 -87.327,-28.004 -16.382,-31.848 -3.844,-70.946 28.004,-87.327 5.931,-3.051 12.113,-5.099 18.353,-6.206 z"
         id="path1-1" />
    </mask>
    <mask
       id="mask0_2_300"
       maskUnits="userSpaceOnUse"
       x="525"
       y="520"
       width="118"
       height="85">
      <path
         d="m 643,546 c 0,32.585 -26.415,59 -59,59 -32.585,0 -59,-26.415 -59,-59 0,-32.585 21.915,-25 54.5,-25 32.585,0 63.5,-7.585 63.5,25 z"
         fill="url(#paint2_linear_2_300)"
         id="path4" />
    </mask>
    <linearGradient
       id="paint2_linear_2_300"
       x1="584"
       y1="487"
       x2="584"
       y2="605"
       gradientUnits="userSpaceOnUse">
      <stop
         stop-color="#FFD600"
         id="stop24" />
      <stop
         offset="1"
         stop-color="#FF7A00"
         id="stop25" />
    </linearGradient>
    <filter
       id="filter1_f_2_300"
       x="422"
       y="597"
       width="266"
       height="114"
       filterUnits="userSpaceOnUse"
       color-interpolation-filters="sRGB">
      <feFlood
         flood-opacity="0"
         result="BackgroundImageFix"
         id="feFlood15" />
      <feBlend
         mode="normal"
         in="SourceGraphic"
         in2="BackgroundImageFix"
         result="shape"
         id="feBlend16" />
      <feGaussianBlur
         stdDeviation="7"
         result="effect1_foregroundBlur_2_300"
         id="feGaussianBlur16" />
    </filter>
    <filter
       id="filter2_d_2_300"
       x="340"
       y="506"
       width="338"
       height="261"
       filterUnits="userSpaceOnUse"
       color-interpolation-filters="sRGB">
      <feFlood
         flood-opacity="0"
         result="BackgroundImageFix"
         id="feFlood16" />
      <feColorMatrix
         in="SourceAlpha"
         type="matrix"
         values="0 0 0 0 0 0 0 0 0 0 0 0 0 0 0 0 0 0 127 0"
         result="hardAlpha"
         id="feColorMatrix16" />
      <feOffset
         dx="-21"
         dy="15"
         id="feOffset16" />
      <feGaussianBlur
         stdDeviation="25"
         id="feGaussianBlur17" />
      <feComposite
         in2="hardAlpha"
         operator="out"
         id="feComposite17" />
      <feColorMatrix
         type="matrix"
         values="0 0 0 0 0.113725 0 0 0 0 0.14902 0 0 0 0 0.27451 0 0 0 0.25 0"
         id="feColorMatrix17" />
      <feBlend
         mode="normal"
         in2="BackgroundImageFix"
         result="effect1_dropShadow_2_300"
         id="feBlend17" />
      <feBlend
         mode="normal"
         in="SourceGraphic"
         in2="effect1_dropShadow_2_300"
         result="shape"
         id="feBlend18" />
    </filter>
    <linearGradient
       id="paint3_linear_2_300"
       x1="530"
       y1="489.5"
       x2="530"
       y2="724.5"
       gradientUnits="userSpaceOnUse">
      <stop
         stop-color="white"
         id="stop26" />
      <stop
         offset="1"
         stop-color="white"
         stop-opacity="0"
         id="stop27" />
    </linearGradient>
    <linearGradient
       id="paint4_linear_2_300"
       x1="530"
       y1="541"
       x2="530"
       y2="702"
       gradientUnits="userSpaceOnUse">
      <stop
         stop-color="white"
         id="stop28" />
      <stop
         offset="1"
         stop-color="white"
         stop-opacity="0"
         id="stop29" />
    </linearGradient>
    <mask
       id="path-5-inside-2_2_300"
       fill="#ffffff">
      <path
         fill-rule="evenodd"
         clip-rule="evenodd"
         d="m 605.5,701.997 c 0.166,0.002 0.333,0.003 0.5,0.003 23.748,0 43,-19.252 43,-43 0,-23.748 -19.252,-43 -43,-43 -0.167,0 -0.334,10e-4 -0.5,0.003 V 616 h -11.109 c 0.402,-2.943 0.609,-5.947 0.609,-9 0,-36.451 -29.549,-66 -66,-66 -36.451,0 -66,29.549 -66,66 0,3.439 0.263,6.817 0.77,10.115 C 460.631,616.386 457.361,616 454,616 c -23.748,0 -43,19.252 -43,43 0,23.748 19.252,43 43,43 0.168,0 0.335,-10e-4 0.502,-0.003 L 454.5,702 h 151 z"
         id="path6" />
    </mask>
    <filter
       id="filter3_d_2_300"
       x="472"
       y="506"
       width="272"
       height="216.353"
       filterUnits="userSpaceOnUse"
       color-interpolation-filters="sRGB">
      <feFlood
         flood-opacity="0"
         result="BackgroundImageFix"
         id="feFlood18" />
      <feColorMatrix
         in="SourceAlpha"
         type="matrix"
         values="0 0 0 0 0 0 0 0 0 0 0 0 0 0 0 0 0 0 127 0"
         result="hardAlpha"
         id="feColorMatrix18" />
      <feOffset
         dx="-21"
         dy="15"
         id="feOffset18" />
      <feGaussianBlur
         stdDeviation="25"
         id="feGaussianBlur18" />
      <feComposite
         in2="hardAlpha"
         operator="out"
         id="feComposite18" />
      <feColorMatrix
         type="matrix"
         values="0 0 0 0 0.113438 0 0 0 0 0.148981 0 0 0 0 0.275 0 0 0 0.25 0"
         id="feColorMatrix19" />
      <feBlend
         mode="normal"
         in2="BackgroundImageFix"
         result="effect1_dropShadow_2_300"
         id="feBlend19" />
      <feBlend
         mode="normal"
         in="SourceGraphic"
         in2="effect1_dropShadow_2_300"
         result="shape"
         id="feBlend20" />
    </filter>
    <linearGradient
       id="paint5_linear_2_300"
       x1="637"
       y1="544.5"
       x2="637"
       y2="670.5"
       gradientUnits="userSpaceOnUse">
      <stop
         stop-color="white"
         id="stop30" />
      <stop
         offset="1"
         stop-color="white"
         stop-opacity="0"
         id="stop31" />
    </linearGradient>
    <linearGradient
       id="paint6_linear_2_300"
       x1="629"
       y1="541"
       x2="629"
       y2="657.35303"
       gradientUnits="userSpaceOnUse">
      <stop
         stop-color="white"
         id="stop32" />
      <stop
         offset="1"
         stop-color="white"
         stop-opacity="0"
         id="stop33" />
    </linearGradient>
    <mask
       id="path-7-inside-3_2_300"
       fill="#ffffff">
      <path
         fill-rule="evenodd"
         clip-rule="evenodd"
         d="m 683.563,657.351 c 0.12,10e-4 0.241,0.002 0.361,0.002 17.163,0 31.076,-13.913 31.076,-31.076 0,-17.162 -13.913,-31.075 -31.076,-31.075 -0.12,0 -0.241,0 -0.361,0.002 v -0.002 h -8.028 c 0.29,-2.127 0.44,-4.298 0.44,-6.505 0,-26.342 -21.355,-47.697 -47.698,-47.697 -26.342,0 -47.697,21.355 -47.697,47.697 0,2.486 0.19,4.927 0.556,7.31 -2.268,-0.527 -4.632,-0.805 -7.06,-0.805 -17.163,0 -31.076,13.913 -31.076,31.075 0,17.163 13.913,31.076 31.076,31.076 0.121,0 0.242,-10e-4 0.363,-0.002 l -0.002,0.002 h 109.126 z"
         id="path9" />
    </mask>
    <mask
       id="mask12"
       fill="#ffffff">
      <path
         fill-rule="evenodd"
         clip-rule="evenodd"
         d="m 683.563,657.351 c 0.12,10e-4 0.241,0.002 0.361,0.002 17.163,0 31.076,-13.913 31.076,-31.076 0,-17.162 -13.913,-31.075 -31.076,-31.075 -0.12,0 -0.241,0 -0.361,0.002 v -0.002 h -8.028 c 0.29,-2.127 0.44,-4.298 0.44,-6.505 0,-26.342 -21.355,-47.697 -47.698,-47.697 -26.342,0 -47.697,21.355 -47.697,47.697 0,2.486 0.19,4.927 0.556,7.31 -2.268,-0.527 -4.632,-0.805 -7.06,-0.805 -17.163,0 -31.076,13.913 -31.076,31.075 0,17.163 13.913,31.076 31.076,31.076 0.121,0 0.242,-10e-4 0.363,-0.002 l -0.002,0.002 h 109.126 z"
         id="path12" />
    </mask>
    <mask
       id="mask2"
       fill="#ffffff">
      <path
         fill-rule="evenodd"
         clip-rule="evenodd"
         d="m 552.019,438.137 c 3.437,-0.609 5.526,3.459 3.716,6.444 -9.471,15.621 -10.845,35.648 -1.877,53.083 11.939,23.21 38.274,34.183 62.49,27.622 3.373,-0.914 6.706,2.224 5.165,5.36 -5.928,12.069 -15.648,22.405 -28.524,29.028 -31.848,16.382 -70.946,3.844 -87.327,-28.004 -16.382,-31.848 -3.844,-70.946 28.004,-87.327 5.931,-3.051 12.113,-5.099 18.353,-6.206 z"
         id="path2-2" />
    </mask>
    <mask
       id="mask8"
       fill="#ffffff">
      <path
         fill-rule="evenodd"
         clip-rule="evenodd"
         d="m 605.5,701.997 c 0.166,0.002 0.333,0.003 0.5,0.003 23.748,0 43,-19.252 43,-43 0,-23.748 -19.252,-43 -43,-43 -0.167,0 -0.334,10e-4 -0.5,0.003 V 616 h -11.109 c 0.402,-2.943 0.609,-5.947 0.609,-9 0,-36.451 -29.549,-66 -66,-66 -36.451,0 -66,29.549 -66,66 0,3.439 0.263,6.817 0.77,10.115 C 460.631,616.386 457.361,616 454,616 c -23.748,0 -43,19.252 -43,43 0,23.748 19.252,43 43,43 0.168,0 0.335,-10e-4 0.502,-0.003 L 454.5,702 h 151 z"
         id="path8" />
    </mask>
  </defs>
  <sodipodi:namedview
     id="namedview2"
     pagecolor="#ffffff"
     bordercolor="#000000"
     borderopacity="0.25"
     inkscape:showpageshadow="2"
     inkscape:pageopacity="0.0"
     inkscape:pagecheckerboard="0"
     inkscape:deskcolor="#d1d1d1"
     inkscape:zoom="8.0520833"
     inkscape:cx="19.311772"
     inkscape:cy="17.697283"
     inkscape:window-width="1920"
     inkscape:window-height="996"
     inkscape:window-x="0"
     inkscape:window-y="0"
     inkscape:window-maximized="1"
     inkscape:current-layer="svg2"
     showgrid="true">
    <inkscape:grid
       id="grid1"
       units="px"
       originx="0"
       originy="0"
       spacingx="1"
       spacingy="1"
       empcolor="#0099e5"
       empopacity="0.30196078"
       color="#0099e5"
       opacity="0.14901961"
       empspacing="5"
       enabled="true"
       visible="true" />
  </sodipodi:namedview>
  <g
     id="g1">
    <path
       fill-rule="evenodd"
       clip-rule="evenodd"
       d="m 552.019,438.137 c 3.437,-0.609 5.526,3.459 3.716,6.444 -9.471,15.621 -10.845,35.648 -1.877,53.083 11.939,23.21 38.274,34.183 62.49,27.622 3.373,-0.914 6.706,2.224 5.165,5.36 -5.928,12.069 -15.648,22.405 -28.524,29.028 -31.848,16.382 -70.946,3.844 -87.327,-28.004 -16.382,-31.848 -3.844,-70.946 28.004,-87.327 5.931,-3.051 12.113,-5.099 18.353,-6.206 z"
       id="path3"
       style="fill:url(#paint0_linear_2_300);filter:url(#filter0_dd_2_300)"
       transform="matrix(0.06378891,0,0,0.06378893,-22.569655,-23.070419)" />
    <path
       d="m 621.513,530.646 1.795,0.881 z M 555.637,496.75 C 547,479.958 548.32,460.669 557.445,445.618 l -3.42,-2.073 c -9.817,16.189 -11.244,36.955 -1.945,55.034 z m 60.188,26.606 c -23.325,6.319 -48.69,-4.253 -60.188,-26.606 l -3.557,1.829 c 12.379,24.067 39.683,35.44 64.791,28.637 z m 3.893,6.408 c -5.745,11.697 -15.163,21.712 -27.644,28.132 l 1.83,3.557 c 13.271,-6.827 23.293,-17.484 29.404,-29.926 z m -27.644,28.132 c -30.866,15.876 -68.758,3.725 -84.634,-27.141 l -3.557,1.83 c 16.887,32.83 57.191,45.755 90.021,28.868 z M 507.44,530.755 c -15.876,-30.866 -3.725,-68.758 27.141,-84.634 l -1.83,-3.557 c -32.83,16.887 -45.755,57.191 -28.868,90.021 z m 27.141,-84.634 c 5.751,-2.958 11.742,-4.942 17.787,-6.014 l -0.699,-3.939 c -6.434,1.142 -12.807,3.253 -18.918,6.396 z m 82.29,81.095 c 0.954,-0.258 1.902,0.059 2.488,0.646 0.549,0.549 0.698,1.213 0.359,1.902 l 3.59,1.763 c 1.202,-2.447 0.454,-4.919 -1.121,-6.494 -1.538,-1.538 -3.943,-2.333 -6.362,-1.677 z m -59.426,-81.598 c 1.298,-2.141 1.201,-4.67 0.15,-6.573 -1.076,-1.949 -3.243,-3.353 -5.926,-2.877 l 0.699,3.939 c 0.755,-0.134 1.351,0.192 1.726,0.871 0.4,0.725 0.442,1.723 -0.069,2.567 z"
       id="path5"
       style="fill:url(#paint1_linear_2_300);filter:url(#filter0_dd_2_300)"
       transform="matrix(0.06378891,0,0,0.06378893,-22.569655,-23.070419)" />
    <path
       fill-rule="evenodd"
       clip-rule="evenodd"
       d="m 605.5,701.997 c 0.166,0.002 0.333,0.003 0.5,0.003 23.748,0 43,-19.252 43,-43 0,-23.748 -19.252,-43 -43,-43 -0.167,0 -0.334,10e-4 -0.5,0.003 V 616 h -11.109 c 0.402,-2.943 0.609,-5.947 0.609,-9 0,-36.451 -29.549,-66 -66,-66 -36.451,0 -66,29.549 -66,66 0,3.439 0.263,6.817 0.77,10.115 C 460.631,616.386 457.361,616 454,616 c -23.748,0 -43,19.252 -43,43 0,23.748 19.252,43 43,43 0.168,0 0.335,-10e-4 0.502,-0.003 L 454.5,702 h 151 z"
       shape-rendering="crispEdges"
       id="path10"
       style="fill:url(#paint3_linear_2_300);filter:url(#filter2_d_2_300)"
       transform="matrix(0.06378891,0,0,0.06378893,-24.069229,-24.776199)" />
    <path
       d="m 605.5,701.997 0.023,-2 c -0.535,-0.006 -1.049,0.202 -1.429,0.578 -0.38,0.376 -0.594,0.888 -0.594,1.422 z m 0,-85.994 h -2 c 0,0.534 0.214,1.046 0.594,1.422 0.38,0.376 0.894,0.584 1.429,0.578 z m 0,-0.003 h 2 c 0,-1.105 -0.895,-2 -2,-2 z m -11.109,0 -1.981,-0.27 c -0.078,0.572 0.095,1.15 0.475,1.585 0.38,0.435 0.929,0.685 1.506,0.685 z m -130.621,1.115 -0.452,1.948 c 0.646,0.15 1.325,-0.03 1.812,-0.481 0.487,-0.452 0.718,-1.115 0.617,-1.771 z m -9.268,84.882 1.57,1.24 c 0.477,-0.605 0.565,-1.43 0.225,-2.122 -0.34,-0.692 -1.047,-1.127 -1.818,-1.118 z M 454.5,702 l -1.569,-1.24 c -0.476,0.602 -0.565,1.422 -0.231,2.112 0.334,0.69 1.033,1.128 1.8,1.128 z m 151,0 v 2 c 1.105,0 2,-0.895 2,-2 z m -0.023,1.997 c 0.174,0.002 0.348,0.003 0.523,0.003 v -4 c -0.159,0 -0.318,-10e-4 -0.477,-0.003 z M 606,704 c 24.853,0 45,-20.147 45,-45 h -4 c 0,22.644 -18.356,41 -41,41 z m 45,-45 c 0,-24.853 -20.147,-45 -45,-45 v 4 c 22.644,0 41,18.356 41,41 z m -45,-45 c -0.174,0 -0.349,10e-4 -0.523,0.003 l 0.046,4 C 605.682,618.001 605.841,618 606,618 Z m -2.5,2 v 0.003 h 4 V 616 Z m -9.109,2 H 605.5 v -4 h -11.109 z m 1.982,-1.73 C 596.787,613.238 597,610.143 597,607 h -4 c 0,2.962 -0.201,5.876 -0.59,8.73 z M 597,607 c 0,-37.555 -30.445,-68 -68,-68 v 4 c 35.346,0 64,28.654 64,64 z m -68,-68 c -37.555,0 -68,30.445 -68,68 h 4 c 0,-35.346 28.654,-64 64,-64 z m -68,68 c 0,3.542 0.271,7.021 0.793,10.419 l 3.954,-0.608 C 465.255,613.614 465,610.337 465,607 Z m 3.223,8.167 C 460.937,614.403 457.514,614 454,614 v 4 c 3.207,0 6.326,0.368 9.318,1.063 z M 454,614 c -24.853,0 -45,20.147 -45,45 h 4 c 0,-22.644 18.356,-41 41,-41 z m -45,45 c 0,24.853 20.147,45 45,45 v -4 c -22.644,0 -41,-18.356 -41,-41 z m 45,45 c 0.175,0 0.35,-10e-4 0.525,-0.003 l -0.046,-4 C 454.32,699.999 454.16,700 454,700 Z m 2.069,-0.76 0.003,-0.003 -3.139,-2.48 -0.002,0.003 z M 605.5,700 h -151 v 4 h 151 z m -2,1.997 V 702 h 4 v -0.003 z"
       id="path11"
       style="fill:url(#paint4_linear_2_300);filter:url(#filter2_d_2_300)"
       transform="matrix(0.06378891,0,0,0.06378893,-24.069229,-24.776199)" />
    <path
       fill-rule="evenodd"
       clip-rule="evenodd"
       d="m 683.563,657.351 c 0.12,10e-4 0.241,0.002 0.361,0.002 17.163,0 31.076,-13.913 31.076,-31.076 0,-17.162 -13.913,-31.075 -31.076,-31.075 -0.12,0 -0.241,0 -0.361,0.002 v -0.002 h -8.028 c 0.29,-2.127 0.44,-4.298 0.44,-6.505 0,-26.342 -21.355,-47.697 -47.698,-47.697 -26.342,0 -47.697,21.355 -47.697,47.697 0,2.486 0.19,4.927 0.556,7.31 -2.268,-0.527 -4.632,-0.805 -7.06,-0.805 -17.163,0 -31.076,13.913 -31.076,31.075 0,17.163 13.913,31.076 31.076,31.076 0.121,0 0.242,-10e-4 0.363,-0.002 l -0.002,0.002 h 109.126 z"
       shape-rendering="crispEdges"
       id="path13"
       style="fill:url(#paint5_linear_2_300);filter:url(#filter3_d_2_300)"
       transform="matrix(0.06378891,0,0,0.06378893,-24.069229,-24.776199)" />
    <path
       d="m 683.563,657.351 0.023,-2 c -0.534,-0.006 -1.049,0.202 -1.429,0.578 -0.38,0.375 -0.594,0.887 -0.594,1.422 z m 0,-62.147 h -2 c 0,0.534 0.214,1.046 0.594,1.422 0.38,0.376 0.894,0.584 1.429,0.578 z m 0,-0.002 h 2 c 0,-1.105 -0.895,-2 -2,-2 z m -8.028,0 -1.982,-0.271 c -0.078,0.573 0.096,1.151 0.475,1.586 0.38,0.435 0.929,0.685 1.507,0.685 z m -94.399,0.805 -0.452,1.948 c 0.646,0.151 1.325,-0.03 1.812,-0.481 0.487,-0.451 0.718,-1.115 0.617,-1.771 z m -6.697,61.344 1.569,1.239 c 0.478,-0.605 0.565,-1.43 0.225,-2.122 -0.34,-0.691 -1.047,-1.126 -1.817,-1.117 z m -0.002,0.002 -1.57,-1.239 c -0.475,0.601 -0.564,1.421 -0.23,2.111 0.334,0.69 1.033,1.128 1.8,1.128 z m 109.126,0 v 2 c 1.105,0 2,-0.895 2,-2 z m -0.023,1.998 c 0.128,10e-4 0.256,0.002 0.384,0.002 v -4 c -0.113,0 -0.225,-10e-4 -0.338,-0.002 z m 0.384,0.002 c 18.268,0 33.076,-14.809 33.076,-33.076 h -4 c 0,16.058 -13.018,29.076 -29.076,29.076 z M 717,626.277 c 0,-18.267 -14.808,-33.075 -33.076,-33.075 v 4 c 16.058,0 29.076,13.017 29.076,29.075 z m -33.076,-33.075 c -0.128,0 -0.256,0 -0.384,0.002 l 0.046,4 c 0.113,-0.002 0.225,-0.002 0.338,-0.002 z m -2.361,2 v 0.002 h 4 v -0.002 z m -6.028,2 h 8.028 v -4 h -8.028 z m 1.982,-1.73 c 0.302,-2.216 0.458,-4.478 0.458,-6.775 h -4 c 0,2.116 -0.144,4.197 -0.422,6.234 z m 0.458,-6.775 C 677.975,561.25 655.724,539 628.277,539 v 4 c 25.238,0 45.698,20.459 45.698,45.697 z M 628.277,539 c -27.447,0 -49.697,22.25 -49.697,49.697 h 4 C 582.58,563.459 603.039,543 628.277,543 Z m -49.697,49.697 c 0,2.588 0.198,5.131 0.58,7.614 l 3.953,-0.608 c -0.351,-2.282 -0.533,-4.622 -0.533,-7.006 z m 3.009,5.362 c -2.416,-0.561 -4.931,-0.857 -7.513,-0.857 v 4 c 2.275,0 4.487,0.261 6.608,0.753 z m -7.513,-0.857 C 555.808,593.202 541,608.01 541,626.277 h 4 c 0,-16.058 13.018,-29.075 29.076,-29.075 z M 541,626.277 c 0,18.267 14.808,33.076 33.076,33.076 v -4 C 558.018,655.353 545,642.335 545,626.277 Z m 33.076,33.076 c 0.128,0 0.257,-10e-4 0.385,-0.002 l -0.045,-4 c -0.113,10e-4 -0.227,0.002 -0.34,0.002 z m 1.931,-0.761 0.001,-0.002 -3.139,-2.478 -0.002,0.002 z m 107.556,-3.239 H 574.437 v 4 h 109.126 z m -2,1.998 v 0.002 h 4 v -0.002 z"
       id="path14"
       style="fill:url(#paint6_linear_2_300);filter:url(#filter3_d_2_300)"
       transform="matrix(0.06378891,0,0,0.06378893,-24.069229,-24.776199)" />
  </g>
</svg>
