<?xml version="1.0" encoding="UTF-8" standalone="no"?>
<svg
   inkscape:version="1.3.2 (091e20ef0f, 2023-11-25)"
   sodipodi:docname="help.svg"
   style="enable-background:new"
   version="1.1"
   height="22"
   width="22"
   id="svg4306"
   xmlns:inkscape="http://www.inkscape.org/namespaces/inkscape"
   xmlns:sodipodi="http://sodipodi.sourceforge.net/DTD/sodipodi-0.dtd"
   xmlns="http://www.w3.org/2000/svg"
   xmlns:svg="http://www.w3.org/2000/svg"
   xmlns:rdf="http://www.w3.org/1999/02/22-rdf-syntax-ns#"
   xmlns:cc="http://creativecommons.org/ns#"
   xmlns:dc="http://purl.org/dc/elements/1.1/">
  <g
     id="inactive-center"
     transform="translate(-44,22)">
    <rect
       y="0"
       x="0"
       height="22"
       width="22"
       id="rect861-7"
       style="opacity:0.00100002;fill:#000000;fill-opacity:1;stroke-width:1.02253" />
    <path
       id="path839-3-36-9"
       style="fill:#2b4254;fill-opacity:1;stroke-width:1.125;enable-background:new"
       d="M 11,2 C 6.02953,2 2,6.029441 2,10.999998 2,15.970557 6.02953,20 11,20 15.97048,20 20,15.970557 20,10.999998 20,6.029441 15.97048,2 11,2 Z m 0,1.125 c 4.34919,0 7.875,3.525746 7.875,7.874998 C 18.875,15.349232 15.34919,18.875 11,18.875 6.6508,18.875 3.125,15.349232 3.125,10.999998 3.125,6.650746 6.6508,3.125 11,3.125 Z m 0,0 z"
       sodipodi:nodetypes="ssssssssssccccc" />
    <rect
       style="fill:#b48ead;fill-opacity:0.6;stroke:none;stroke-width:0.39374;enable-background:new"
       id="center-3-35-5-7-1"
       width="15.749992"
       height="15.749992"
       x="3.1250012"
       y="3.125001"
       ry="7.8749838"
       rx="7.8749962" />
  </g>
  <metadata
     id="metadata28">
    <rdf:RDF>
      <cc:Work
         rdf:about="">
        <dc:format>image/svg+xml</dc:format>
        <dc:type
           rdf:resource="http://purl.org/dc/dcmitype/StillImage" />
      </cc:Work>
    </rdf:RDF>
  </metadata>
  <defs
     id="defs26" />
  <sodipodi:namedview
     inkscape:bbox-nodes="true"
     inkscape:snap-bbox="true"
     inkscape:current-layer="svg4306"
     inkscape:window-maximized="1"
     inkscape:window-y="0"
     inkscape:window-x="0"
     inkscape:cy="28.625883"
     inkscape:cx="-15.115295"
     inkscape:zoom="9.6590906"
     showgrid="true"
     id="namedview24"
     inkscape:window-height="994"
     inkscape:window-width="1920"
     inkscape:pageshadow="2"
     inkscape:pageopacity="1"
     guidetolerance="10"
     gridtolerance="10"
     objecttolerance="10"
     borderopacity="1"
     bordercolor="#000000"
     pagecolor="#2e3238"
     inkscape:document-rotation="0"
     inkscape:lockguides="false"
     inkscape:pagecheckerboard="true"
     inkscape:showpageshadow="2"
     inkscape:deskcolor="#2e3238">
    <inkscape:grid
       id="grid853"
       type="xygrid"
       originx="-44"
       originy="0"
       spacingy="1"
       spacingx="1"
       units="px"
       visible="true" />
  </sodipodi:namedview>
  <style
     id="current-color-scheme"
     type="text/css" />
  <g
     id="active-center"
     transform="translate(-44)">
    <rect
       style="opacity:0.013;fill:#000000;fill-opacity:1;stroke-width:1.02253"
       id="rect861"
       width="22"
       height="22"
       x="0"
       y="0" />
    <path
       id="path839-3-36"
       style="fill:#2b4254;fill-opacity:1;stroke-width:1.125;enable-background:new"
       d="M 11,2 C 6.02953,2 2,6.029441 2,10.999998 2,15.970557 6.02953,20 11,20 15.97048,20 20,15.970557 20,10.999998 20,6.029441 15.97048,2 11,2 Z m 0,1.125 c 4.34919,0 7.875,3.525746 7.875,7.874998 C 18.875,15.349232 15.34919,18.875 11,18.875 6.6508,18.875 3.125,15.349232 3.125,10.999998 3.125,6.650746 6.6508,3.125 11,3.125 Z m 0,0 z"
       sodipodi:nodetypes="ssssssssssccccc" />
    <rect
       style="fill:#b48ead;fill-opacity:1;stroke:none;stroke-width:0.39374;enable-background:new"
       id="center-3-35-5-7"
       width="15.749992"
       height="15.749992"
       x="3.125"
       y="3.1249998"
       ry="7.8749838"
       rx="7.8749962" />
  </g>
  <g
     id="hover-center"
     transform="translate(-22)">
    <rect
       y="0"
       x="0"
       height="22"
       width="22"
       id="rect861-6"
       style="opacity:0.00100002;fill:#000000;fill-opacity:1;stroke-width:1.02253" />
    <path
       id="path839-3-36-6"
       style="fill:#2b4254;fill-opacity:1;stroke-width:1.125;enable-background:new"
       d="M 11,2 C 6.02953,2 2,6.029441 2,10.999998 2,15.970557 6.02953,20 11,20 15.97048,20 20,15.970557 20,10.999998 20,6.029441 15.97048,2 11,2 Z m 0,1.125 c 4.34919,0 7.875,3.525746 7.875,7.874998 C 18.875,15.349232 15.34919,18.875 11,18.875 6.6508,18.875 3.125,15.349232 3.125,10.999998 3.125,6.650746 6.6508,3.125 11,3.125 Z m 0,0 z"
       sodipodi:nodetypes="ssssssssssccccc" />
    <rect
       style="fill:#b48ead;fill-opacity:0.702972;stroke:none;stroke-width:0.39374;enable-background:new"
       id="center-3-35-5-7-7"
       width="15.749992"
       height="15.749992"
       x="3.125"
       y="3.125"
       ry="7.8749838"
       rx="7.8749962" />
    <path
       d="m 11.076852,13.692185 c -0.203952,0 -0.399677,-0.08105 -0.543916,-0.225309 -0.144261,-0.144246 -0.2253,-0.339828 -0.2253,-0.543813 0.09974,-0.977388 0.598916,-1.870095 1.379164,-2.466913 0.477825,-0.477675 0.928566,-0.9285748 0.928566,-1.3793108 0,-0.549684 -0.293241,-1.0574641 -0.769241,-1.3323141 -0.476,-0.27484 -1.0625,-0.27484 -1.538489,0 -0.476,0.274825 -0.769261,0.7826301 -0.769261,1.3323141 0,0.274826 -0.146623,0.528736 -0.384627,0.6661358 -0.237999,0.137413 -0.531098,0.137413 -0.769098,0 C 8.14665,9.6055522 8,9.3516502 8,9.0768392 8,7.9776591 8.58635,6.9618751 9.53835,6.4122491 c 0.951998,-0.549645 2.124998,-0.549686 3.076984,0 0.951991,0.549676 1.538345,1.56541 1.538345,2.6645901 -0.09974,0.9773858 -0.598778,1.8700948 -1.379166,2.4669108 -0.477679,0.477676 -0.928438,0.928425 -0.928438,1.379313 0,0.203962 -0.0811,0.399573 -0.2253,0.543813 -0.14425,0.144263 -0.339975,0.225309 -0.543923,0.225309 z"
       id="path2"
       style="fill:#ffffff;fill-opacity:0.8;stroke-width:0.0357148" />
    <path
       d="M 11.846148,15.23075 C 11.846148,15.655575 11.5017,16 11.0769,16 c -0.4248,0 -0.76925,-0.34445 -0.76925,-0.76925 0,-0.4248 0.34445,-0.769238 0.76925,-0.769238 0.4248,0 0.769248,0.344438 0.769248,0.769238"
       id="path4"
       style="fill:#ffffff;fill-opacity:0.8;stroke-width:0.0357148" />
  </g>
  <g
     id="pressed-center">
    <rect
       style="opacity:0.00100002;fill:#000000;fill-opacity:1;stroke-width:1.02253"
       id="rect861-6-6"
       width="22"
       height="22"
       x="0"
       y="0" />
    <path
       id="path839-3-36-3"
       style="fill:#2b4254;fill-opacity:1;stroke-width:1.125;enable-background:new"
       d="M 11,2 C 6.02953,2 2,6.029441 2,10.999998 2,15.970557 6.02953,20 11,20 15.97048,20 20,15.970557 20,10.999998 20,6.029441 15.97048,2 11,2 Z m 0,1.125 c 4.34919,0 7.875,3.525746 7.875,7.874998 C 18.875,15.349232 15.34919,18.875 11,18.875 6.6508,18.875 3.125,15.349232 3.125,10.999998 3.125,6.650746 6.6508,3.125 11,3.125 Z m 0,0 z"
       sodipodi:nodetypes="ssssssssssccccc" />
    <rect
       style="fill:#b48ead;fill-opacity:1;stroke:none;stroke-width:0.39374;enable-background:new"
       id="center-3-35-5-7-5"
       width="15.749992"
       height="15.749992"
       x="3.125"
       y="3.125"
       ry="7.8749838"
       rx="7.8749962" />
    <path
       d="m 11.076852,13.692185 c -0.203952,0 -0.399677,-0.08105 -0.543916,-0.225309 -0.144261,-0.144246 -0.2253,-0.339828 -0.2253,-0.543813 0.09974,-0.977388 0.598916,-1.870095 1.379164,-2.466913 0.477825,-0.477675 0.928566,-0.9285749 0.928566,-1.3793109 0,-0.549684 -0.293241,-1.057464 -0.769241,-1.332314 -0.476,-0.27484 -1.0625,-0.27484 -1.538489,0 -0.476,0.274825 -0.769261,0.78263 -0.769261,1.332314 0,0.274826 -0.146623,0.528736 -0.384627,0.666136 -0.237999,0.1374129 -0.531098,0.1374129 -0.769098,0 C 8.14665,9.6055521 8,9.3516501 8,9.0768391 c 0,-1.09918 0.58635,-2.114964 1.53835,-2.66459 0.951998,-0.549645 2.124998,-0.549686 3.076984,0 0.951991,0.549676 1.538345,1.56541 1.538345,2.66459 -0.09974,0.9773859 -0.598778,1.8700949 -1.379166,2.4669109 -0.477679,0.477676 -0.928438,0.928425 -0.928438,1.379313 0,0.203962 -0.0811,0.399573 -0.2253,0.543813 -0.14425,0.144263 -0.339975,0.225309 -0.543923,0.225309 z"
       id="path2-3"
       style="fill:#ffffff;fill-opacity:0.8;stroke-width:0.0357148;enable-background:new" />
    <path
       d="M 11.846148,15.23075 C 11.846148,15.655575 11.5017,16 11.0769,16 c -0.4248,0 -0.76925,-0.34445 -0.76925,-0.76925 0,-0.4248 0.34445,-0.769238 0.76925,-0.769238 0.4248,0 0.769248,0.344438 0.769248,0.769238"
       id="path4-6"
       style="fill:#ffffff;fill-opacity:0.8;stroke-width:0.0357148;enable-background:new" />
  </g>
  <g
     id="pressed-inactive-center"
     transform="translate(0,22)">
    <rect
       y="0"
       x="0"
       height="22"
       width="22"
       id="rect861-6-6-5"
       style="opacity:0.00100002;fill:#000000;fill-opacity:1;stroke-width:1.02253" />
    <path
       id="path839-3-36-5"
       style="fill:#2b4254;fill-opacity:1;stroke-width:1.125;enable-background:new"
       d="M 11,2 C 6.02953,2 2,6.029441 2,10.999998 2,15.970557 6.02953,20 11,20 15.970478,20 19.999998,15.970557 19.999998,10.999998 19.999998,6.029441 15.970478,2 11,2 Z m 0,1.125 c 4.349188,0 7.874998,3.525746 7.874998,7.874998 0,4.349234 -3.52581,7.875002 -7.874998,7.875002 -4.3492,0 -7.875,-3.525768 -7.875,-7.875002 C 3.125,6.650746 6.6508,3.125 11,3.125 Z m 0,0 z"
       sodipodi:nodetypes="ssssssssssccccc" />
    <rect
       style="fill:#b48ead;fill-opacity:1;stroke:none;stroke-width:0.39374;enable-background:new"
       id="center-3-35-5-7-6"
       width="15.749992"
       height="15.749992"
       x="3.1249974"
       y="3.1250014"
       ry="7.8749838"
       rx="7.8749962" />
    <path
       d="m 11.076852,13.692185 c -0.203952,0 -0.399677,-0.08105 -0.543916,-0.225309 -0.144261,-0.144246 -0.2253,-0.339828 -0.2253,-0.543813 0.09974,-0.977388 0.598916,-1.870095 1.379164,-2.466913 0.477825,-0.477675 0.928566,-0.9285749 0.928566,-1.3793109 0,-0.549684 -0.293241,-1.057464 -0.769241,-1.332314 -0.476,-0.27484 -1.0625,-0.27484 -1.538489,0 -0.476,0.274825 -0.769261,0.78263 -0.769261,1.332314 0,0.274826 -0.146623,0.5287359 -0.384627,0.6661359 -0.237999,0.137413 -0.531098,0.137413 -0.769098,0 C 8.14665,9.605552 8,9.3516501 8,9.0768391 c 0,-1.09918 0.58635,-2.114964 1.53835,-2.66459 0.951998,-0.549645 2.124998,-0.549686 3.076984,0 0.951991,0.549676 1.538345,1.56541 1.538345,2.66459 -0.09974,0.9773859 -0.598778,1.8700949 -1.379166,2.4669109 -0.477679,0.477676 -0.928438,0.928425 -0.928438,1.379313 0,0.203962 -0.0811,0.399573 -0.2253,0.543813 -0.14425,0.144263 -0.339975,0.225309 -0.543923,0.225309 z"
       id="path2-7"
       style="fill:#ffffff;fill-opacity:0.8;stroke-width:0.0357148;enable-background:new" />
    <path
       d="M 11.846148,15.23075 C 11.846148,15.655575 11.5017,16 11.0769,16 c -0.4248,0 -0.76925,-0.34445 -0.76925,-0.76925 0,-0.4248 0.34445,-0.769238 0.76925,-0.769238 0.4248,0 0.769248,0.344438 0.769248,0.769238"
       id="path4-5"
       style="fill:#ffffff;fill-opacity:0.8;stroke-width:0.0357148;enable-background:new" />
  </g>
  <g
     id="hover-inactive-center"
     transform="translate(-22,22)">
    <rect
       style="opacity:0.00100002;fill:#000000;fill-opacity:1;stroke-width:1.02253"
       id="rect861-6-67"
       width="22"
       height="22"
       x="0"
       y="0" />
    <path
       id="path839-3-36-36"
       style="fill:#2b4254;fill-opacity:1;stroke-width:1.125;enable-background:new"
       d="M 11.000001,2 C 6.02953,2 2,6.029441 2,10.999998 2,15.970557 6.02953,20 11.000001,20 c 4.97048,0 9,-4.029443 9,-9.000002 0,-4.970557 -4.02952,-8.999998 -9,-8.999998 z m 0,1.125 c 4.34919,0 7.875,3.525746 7.875,7.874998 0,4.349234 -3.52581,7.875002 -7.875,7.875002 C 6.6508,18.875 3.125,15.349232 3.125,10.999998 3.125,6.650746 6.6508,3.125 11.000001,3.125 Z m 0,0 z"
       sodipodi:nodetypes="ssssssssssccccc" />
    <rect
       style="fill:#b48ead;fill-opacity:0.701961;stroke:none;stroke-width:0.39374;enable-background:new"
       id="center-3-35-5-7-75"
       width="15.749992"
       height="15.749992"
       x="3.1249983"
       y="3.1249998"
       ry="7.8749838"
       rx="7.8749962" />
    <path
       d="m 11.076852,13.692185 c -0.203952,0 -0.399677,-0.08105 -0.543916,-0.225309 -0.144261,-0.144246 -0.2253,-0.339828 -0.2253,-0.543813 0.09974,-0.977388 0.598916,-1.870095 1.379164,-2.466913 0.477825,-0.477675 0.928566,-0.928575 0.928566,-1.3793109 0,-0.549684 -0.293241,-1.057464 -0.769241,-1.332314 -0.476,-0.27484 -1.0625,-0.27484 -1.538489,0 -0.476,0.274825 -0.769261,0.78263 -0.769261,1.332314 0,0.274826 -0.146623,0.5287359 -0.384627,0.6661359 -0.237999,0.137413 -0.531098,0.137413 -0.769098,0 C 8.14665,9.605552 8,9.3516501 8,9.0768391 c 0,-1.09918 0.58635,-2.114964 1.53835,-2.66459 0.951998,-0.549645 2.124998,-0.549686 3.076984,0 0.951991,0.549676 1.538345,1.56541 1.538345,2.66459 -0.09974,0.9773859 -0.598778,1.8700949 -1.379166,2.4669109 -0.477679,0.477676 -0.928438,0.928425 -0.928438,1.379313 0,0.203962 -0.0811,0.399573 -0.2253,0.543813 -0.14425,0.144263 -0.339975,0.225309 -0.543923,0.225309 z"
       id="path2-35"
       style="fill:#ffffff;fill-opacity:0.8;stroke-width:0.0357148;enable-background:new" />
    <path
       d="M 11.846148,15.23075 C 11.846148,15.655575 11.5017,16 11.0769,16 c -0.4248,0 -0.76925,-0.34445 -0.76925,-0.76925 0,-0.4248 0.34445,-0.769238 0.76925,-0.769238 0.4248,0 0.769248,0.344438 0.769248,0.769238"
       id="path4-62"
       style="fill:#ffffff;fill-opacity:0.8;stroke-width:0.0357148;enable-background:new" />
  </g>
</svg>
