<?xml version="1.0" encoding="UTF-8" standalone="no"?>
<svg
   height="48"
   width="48"
   version="1.1"
   id="svg42"
   sodipodi:docname="kup.svg"
   inkscape:version="1.2.1 (9c6d41e410, 2022-07-14)"
   xmlns:inkscape="http://www.inkscape.org/namespaces/inkscape"
   xmlns:sodipodi="http://sodipodi.sourceforge.net/DTD/sodipodi-0.dtd"
   xmlns:xlink="http://www.w3.org/1999/xlink"
   xmlns="http://www.w3.org/2000/svg"
   xmlns:svg="http://www.w3.org/2000/svg">
  <defs
     id="defs46">
    <linearGradient
       gradientTransform="matrix(1.0499636,0,0,1.0499041,-452.98598,-525.93377)"
       gradientUnits="userSpaceOnUse"
       x2="426.69501"
       y2="499.92099"
       y1="547.67499"
       id="a-6"
       x1="389.32001">
      <stop
         stop-color="#18222a"
         style="stop-color:#1e2b35;stop-opacity:1"
         id="stop216" />
      <stop
         stop-color="#566069"
         offset="1"
         style="stop-color:#6d7983;stop-opacity:1"
         id="stop218" />
    </linearGradient>
    <linearGradient
       id="linearGradient3770">
      <stop
         style="stop-color:#eeeeec;stop-opacity:1;"
         offset="0"
         id="stop3772" />
      <stop
         style="stop-color:#9f9f94;stop-opacity:1;"
         offset="1"
         id="stop3774" />
    </linearGradient>
    <linearGradient
       id="linearGradient2285">
      <stop
         id="stop2287"
         offset="0"
         style="stop-color:#5e5e5e;stop-opacity:1;" />
      <stop
         style="stop-color:#dedede;stop-opacity:1;"
         offset="0.75901806"
         id="stop2293" />
      <stop
         id="stop2295"
         offset="0.93379617"
         style="stop-color:#8d8d8d;stop-opacity:1;" />
      <stop
         id="stop2289"
         offset="1"
         style="stop-color:#616161;stop-opacity:1;" />
    </linearGradient>
    <linearGradient
       id="linearGradient2681"
       gradientUnits="userSpaceOnUse"
       x1="-421.44699"
       x2="-410.44699"
       xlink:href="#a"
       y1="-504.20401"
       y2="-493.20401"
       gradientTransform="translate(46.293466,-31.966963)" />
    <linearGradient
       id="linearGradient2685">
      <stop
         offset="0"
         stop-color="#292c2f"
         id="stop8-3" />
      <stop
         offset="1"
         stop-opacity="0"
         id="stop10-6" />
    </linearGradient>
    <linearGradient
       id="linearGradient2689"
       gradientTransform="matrix(0.52174,0,0,0.53846,45.597466,-33.196963)"
       gradientUnits="userSpaceOnUse"
       x1="1.3329999"
       x2="1.3329999"
       y1="48.714001"
       y2="9.7139997">
      <stop
         offset="0"
         stop-color="#eef1f2"
         id="stop19-7" />
      <stop
         offset="1"
         stop-color="#f9fafb"
         id="stop21-5" />
    </linearGradient>
    <linearGradient
       id="linearGradient2691"
       gradientUnits="userSpaceOnUse"
       x1="10"
       x2="24"
       xlink:href="#a"
       y1="9"
       y2="23"
       gradientTransform="translate(46.293466,-31.966963)" />
    <linearGradient
       id="linearGradient2695"
       gradientUnits="userSpaceOnUse"
       x1="-11.306"
       x2="-11.306"
       y1="23.620001"
       y2="7.6199999"
       gradientTransform="translate(46.293466,-31.966963)">
      <stop
         offset="0"
         stop-color="#3e3e3e"
         id="stop2-3" />
      <stop
         offset="1"
         stop-color="#5c5c5c"
         id="stop4-5" />
    </linearGradient>
    <linearGradient
       inkscape:collect="always"
       xlink:href="#a"
       id="linearGradient2704"
       gradientUnits="userSpaceOnUse"
       gradientTransform="matrix(1.096154,0,0,1.096154,6.2230771,6.1413853)"
       x1="-421.44699"
       y1="-504.20401"
       x2="-410.44699"
       y2="-493.20401" />
    <linearGradient
       inkscape:collect="always"
       xlink:href="#d"
       id="linearGradient2706"
       gradientUnits="userSpaceOnUse"
       gradientTransform="matrix(0.57190733,0,0,0.59023503,5.4601544,4.7931158)"
       x1="1.3329999"
       y1="48.714001"
       x2="1.3329999"
       y2="9.7139997" />
    <linearGradient
       inkscape:collect="always"
       xlink:href="#a"
       id="linearGradient2708"
       gradientUnits="userSpaceOnUse"
       gradientTransform="matrix(1.096154,0,0,1.096154,6.2230771,6.1413853)"
       x1="10"
       y1="9"
       x2="24"
       y2="23" />
    <linearGradient
       inkscape:collect="always"
       xlink:href="#f"
       id="linearGradient2710"
       gradientUnits="userSpaceOnUse"
       gradientTransform="matrix(1.096154,0,0,1.096154,6.2230771,6.1413853)"
       x1="-11.306"
       y1="23.620001"
       x2="-11.306"
       y2="7.6199999" />
  </defs>
  <sodipodi:namedview
     id="namedview44"
     pagecolor="#ffffff"
     bordercolor="#666666"
     borderopacity="1.0"
     inkscape:showpageshadow="2"
     inkscape:pageopacity="0.0"
     inkscape:pagecheckerboard="0"
     inkscape:deskcolor="#d1d1d1"
     showgrid="false"
     inkscape:zoom="7.375"
     inkscape:cx="16.271186"
     inkscape:cy="16"
     inkscape:window-width="1920"
     inkscape:window-height="1009"
     inkscape:window-x="0"
     inkscape:window-y="0"
     inkscape:window-maximized="1"
     inkscape:current-layer="svg42" />
  <linearGradient
     id="f"
     gradientUnits="userSpaceOnUse"
     x1="-11.306"
     x2="-11.306"
     y1="23.620001"
     y2="7.6199999"
     gradientTransform="translate(46.293466,-31.966963)">
    <stop
       offset="0"
       stop-color="#3e3e3e"
       id="stop2" />
    <stop
       offset="1"
       stop-color="#5c5c5c"
       id="stop4" />
  </linearGradient>
  <linearGradient
     id="e"
     gradientUnits="userSpaceOnUse"
     x1="10"
     x2="24"
     xlink:href="#a"
     y1="9"
     y2="23"
     gradientTransform="translate(46.293466,-31.966963)" />
  <linearGradient
     id="a">
    <stop
       offset="0"
       stop-color="#292c2f"
       id="stop8" />
    <stop
       offset="1"
       stop-opacity="0"
       id="stop10" />
  </linearGradient>
  <linearGradient
     id="b"
     gradientTransform="matrix(0.58696,0,0,0.53846,-284.85221,-290.31996)"
     gradientUnits="userSpaceOnUse"
     x1="388.423"
     x2="388.423"
     y1="557.79797"
     y2="505.798">
    <stop
       offset="0"
       stop-color="#7f8c8d"
       id="stop13" />
    <stop
       offset="1"
       stop-color="#afb0b3"
       id="stop15" />
  </linearGradient>
  <linearGradient
     id="c"
     gradientUnits="userSpaceOnUse"
     x1="-421.44699"
     x2="-410.44699"
     xlink:href="#a"
     y1="-504.20401"
     y2="-493.20401"
     gradientTransform="translate(46.293466,-31.966963)" />
  <linearGradient
     id="d"
     gradientTransform="matrix(0.52174,0,0,0.53846,45.597466,-33.196963)"
     gradientUnits="userSpaceOnUse"
     x1="1.3329999"
     x2="1.3329999"
     y1="48.714001"
     y2="9.7139997">
    <stop
       offset="0"
       stop-color="#eef1f2"
       id="stop19" />
    <stop
       offset="1"
       stop-color="#f9fafb"
       id="stop21" />
  </linearGradient>
  <rect
     width="41.99855"
     x="-45.000404"
     y="3.0079379"
     rx="20.999275"
     height="41.99617"
     transform="scale(-1,1)"
     style="display:inline;fill:url(#a-6);stroke-width:2.93982;stroke-opacity:0.55"
     id="rect223"
     ry="20.998085" />
  <path
     style="display:inline;opacity:0.3;fill:#000000;fill-opacity:1;stroke-width:2.93982;stroke-opacity:0.55"
     d="m 3.0133212,23.481116 c -0.004,0.175027 -0.01261,0.349056 -0.01261,0.525083 0,11.633027 9.3656998,20.998098 20.9992098,20.998098 11.633527,0 20.999368,-9.365071 20.999368,-20.998098 0,-0.176027 -0.008,-0.349055 -0.0126,-0.525083 -0.2773,11.38829 -9.533761,20.473116 -20.986757,20.473116 -11.45719,0 -20.7094507,-9.084826 -20.9866107,-20.473116"
     id="path225" />
  <path
     d="m 3.0133212,24.527181 c -0.004,-0.175027 -0.01261,-0.348055 -0.01261,-0.525083 0,-11.632927 9.3656998,-20.998098 20.9992098,-20.998098 11.633527,0 20.999368,9.365171 20.999368,20.998098 0,0.176028 -0.008,0.350056 -0.0126,0.525083 -0.2773,-11.388288 -9.533761,-20.473116 -20.986757,-20.473116 -11.45719,0 -20.7094507,9.084828 -20.9866107,20.473116"
     style="display:inline;opacity:0.3;fill:#ffffff;fill-opacity:1;stroke-width:2.93982;stroke-opacity:0.55"
     id="path229" />
  <path
     sodipodi:nodetypes="ccc"
     id="path5098-0"
     d="M 42.086444,26.800717 V 26.187171 Z"
     style="fill:#ffffff;fill-opacity:0.756881;fill-rule:nonzero;stroke:none;stroke-width:0.109769;stroke-linecap:round;stroke-linejoin:round;stroke-miterlimit:4;stroke-dasharray:none;stroke-dashoffset:4;stroke-opacity:1" />
  <path
     d="M 13.89615,35.737542 H 33.626925 V 39.026 H 13.89615 Z"
     fill="#292c2e"
     id="path26-6"
     style="stroke-width:1.09617" />
  <path
     d="m 16.088458,36.833692 h 9.865392 v 1.096158 h -9.865392 z m 10.961542,0 h 4.384617 V 37.92985 H 27.05 Z"
     fill="#f6b44d"
     id="path28-2"
     style="stroke-width:1.09617" />
  <path
     d="m 33.117208,12.131867 3.798175,3.795983 V 39.026 H 21.569227 L 12.8,30.256773 Z"
     fill="url(#c)"
     opacity="0.2"
     id="path34-9"
     style="fill:url(#linearGradient2704);stroke-width:1.09617" />
  <path
     d="M 18.280773,10.526 A 5.4807692,5.4807692 0 0 0 12.8,16.006773 v 5.226454 a 3.2884617,3.2884617 0 0 1 1.091773,2.320565 2.1923075,2.1923075 0 0 1 0.004,0.126058 2.1923075,2.1923075 0 0 1 -0.011,0.219225 3.2884617,3.2884617 0 0 1 0,0.0052 A 3.2884617,3.2884617 0 0 1 12.8,26.124273 v 4.1325 l 3.288458,3.288454 h 15.346159 l 3.288458,-3.288454 v -4.130315 a 3.2884617,3.2884617 0 0 1 -1.091767,-2.320558 2.1923075,2.1923075 0 0 1 -0.004,-0.12605 2.1923075,2.1923075 0 0 1 0.01099,-0.224717 3.2884617,3.2884617 0 0 1 1.085189,-2.219708 V 16.006773 A 5.4807692,5.4807692 0 0 0 29.242374,10.526 Z"
     fill="url(#d)"
     id="path36-1"
     style="fill:url(#linearGradient2706);stroke-width:1.09617" />
  <path
     d="m 25.598692,35.737542 h 11.316691 v -13.509 l -6.946325,-6.947425 -6.207516,-2.562809 -6.576925,3.288465 -1.71,5.480769 2.081591,6.206416 z"
     fill="url(#e)"
     opacity="0.2"
     id="path38-2"
     style="fill:url(#linearGradient2708);stroke-width:1.09617" />
  <path
     d="m 23.761542,12.718308 c -4.858159,0 -8.769234,3.911075 -8.769234,8.769234 0,4.85815 3.911075,8.769231 8.769234,8.769231 4.85815,0 8.769231,-3.911081 8.769231,-8.769231 0,-4.858159 -3.911081,-8.769234 -8.769231,-8.769234 m 0,1.09615 c 4.250883,0 7.673075,3.422192 7.673075,7.673084 0,4.250883 -3.422192,7.673075 -7.673075,7.673075 -4.250892,0 -7.673084,-3.422192 -7.673084,-7.673075 0,-4.250892 3.422192,-7.673084 7.673084,-7.673084 m -1.096159,1.096159 v 7.673075 h 6.576925 v -1.09615 h -5.480766 v -6.576925 z"
     fill="url(#f)"
     id="path40-7"
     style="fill:url(#linearGradient2710);stroke-width:1.09617" />
</svg>
