<?xml version="1.0" encoding="UTF-8" standalone="no"?>
<svg
   width="48"
   height="48"
   version="1.1"
   id="svg2"
   inkscape:version="1.2.2 (b0a8486541, 2022-12-01)"
   sodipodi:docname="applications-all.svg"
   xmlns:inkscape="http://www.inkscape.org/namespaces/inkscape"
   xmlns:sodipodi="http://sodipodi.sourceforge.net/DTD/sodipodi-0.dtd"
   xmlns="http://www.w3.org/2000/svg"
   xmlns:svg="http://www.w3.org/2000/svg"
   xmlns:rdf="http://www.w3.org/1999/02/22-rdf-syntax-ns#"
   xmlns:cc="http://creativecommons.org/ns#"
   xmlns:dc="http://purl.org/dc/elements/1.1/">
  <metadata
     id="metadata49">
    <rdf:RDF>
      <cc:Work
         rdf:about="">
        <dc:format>image/svg+xml</dc:format>
        <dc:type
           rdf:resource="http://purl.org/dc/dcmitype/StillImage" />
      </cc:Work>
    </rdf:RDF>
  </metadata>
  <sodipodi:namedview
     pagecolor="#ffffff"
     bordercolor="#666666"
     borderopacity="1"
     objecttolerance="10"
     gridtolerance="10"
     guidetolerance="10"
     inkscape:pageopacity="0"
     inkscape:pageshadow="2"
     inkscape:window-width="1920"
     inkscape:window-height="1002"
     id="namedview47"
     showgrid="true"
     inkscape:zoom="6.9532167"
     inkscape:cx="7.3347347"
     inkscape:cy="25.096298"
     inkscape:window-x="0"
     inkscape:window-y="0"
     inkscape:window-maximized="1"
     inkscape:current-layer="svg2"
     inkscape:object-nodes="true"
     inkscape:snap-bbox="true"
     inkscape:snap-intersection-paths="true"
     inkscape:snap-smooth-nodes="true"
     inkscape:showpageshadow="2"
     inkscape:pagecheckerboard="0"
     inkscape:deskcolor="#d1d1d1">
    <inkscape:grid
       type="xygrid"
       id="grid4177" />
  </sodipodi:namedview>
  <defs
     id="defs4">
    <linearGradient
       id="linearGradient4252">
      <stop
         style="stop-color:#000000;stop-opacity:1;"
         offset="0"
         id="stop7" />
      <stop
         style="stop-color:#000000;stop-opacity:0;"
         offset="1"
         id="stop9" />
    </linearGradient>
    <linearGradient
       id="c-5"
       y1="-.883"
       x1="-41.26"
       y2="37.956"
       x2="-2.994"
       gradientUnits="userSpaceOnUse"
       gradientTransform="matrix(1.0454421,0,0,1.0298842,103.07684,-29.143158)">
      <stop
         stop-color="#21c9fb"
         id="stop13" />
      <stop
         offset="1"
         stop-color="#1a86f2"
         id="stop15" />
    </linearGradient>
  </defs>
  <path
     id="circle2"
     style="opacity:0.99;fill:#b49ddf;stroke-width:1.58694;fill-opacity:1"
     d="M 44.999994,23.999999 A 20.999997,21 0 0 1 23.999997,45 20.999997,21 0 0 1 3,23.999999 20.999997,21 0 0 1 23.999997,3 20.999997,21 0 0 1 44.999994,23.999999 Z" />
  <path
     id="path4490"
     style="fill:#d1d1e0;fill-opacity:1;stroke-width:16.9045;stroke-linecap:round;stroke-linejoin:bevel"
     d="M 42.031471,23.999999 A 18.031474,18.031474 0 0 1 23.999998,42.031472 18.031474,18.031474 0 0 1 5.968523,23.999999 18.031474,18.031474 0 0 1 23.999998,5.968525 18.031474,18.031474 0 0 1 42.031471,23.999999 Z" />
  <g
     id="g839"
     transform="matrix(0.92188643,0,0,0.92188643,1.890733,1.161491)">
    <g
       id="g4500"
       transform="translate(-0.23770428,-7.4466717)">
      <path
         id="path4494"
         style="opacity:1;fill:#5681ac;fill-opacity:1;stroke-width:15;stroke-linecap:round;stroke-linejoin:bevel"
         d="m 21.237288,24.542374 a 5,5 0 0 1 -5,5 5,5 0 0 1 -5,-5 5,5 0 0 1 5,-5 5,5 0 0 1 5,5 z" />
      <path
         id="circle4496"
         style="opacity:1;fill:#9b6892;stroke-width:15;stroke-linecap:round;stroke-linejoin:bevel;fill-opacity:1"
         d="m 37.203388,24.542374 a 5,5 0 0 1 -5,5 5,5 0 0 1 -5,-5 5,5 0 0 1 5,-5 5,5 0 0 1 5,5 z" />
    </g>
    <g
       id="g831"
       transform="translate(-0.23770428,7.9092604)">
      <path
         id="circle827"
         style="opacity:1;fill:#d99e26;fill-opacity:1;stroke-width:15;stroke-linecap:round;stroke-linejoin:bevel"
         d="m 21.237288,24.542374 a 5,5 0 0 1 -5,5 5,5 0 0 1 -5,-5 5,5 0 0 1 5,-5 5,5 0 0 1 5,5 z" />
      <path
         id="circle829"
         style="opacity:1;fill:#c87358;fill-opacity:1;stroke-width:15;stroke-linecap:round;stroke-linejoin:bevel"
         d="m 37.203388,24.542374 a 5,5 0 0 1 -5,5 5,5 0 0 1 -5,-5 5,5 0 0 1 5,-5 5,5 0 0 1 5,5 z" />
    </g>
  </g>
</svg>
