<?xml version="1.0" encoding="UTF-8" standalone="no"?>
<svg
   width="32"
   height="32"
   version="1.1"
   id="svg1"
   sodipodi:docname="weather-clear-wind-night.svg"
   inkscape:version="1.4.1 (unknown)"
   xmlns:inkscape="http://www.inkscape.org/namespaces/inkscape"
   xmlns:sodipodi="http://sodipodi.sourceforge.net/DTD/sodipodi-0.dtd"
   xmlns="http://www.w3.org/2000/svg"
   xmlns:svg="http://www.w3.org/2000/svg">
  <sodipodi:namedview
     id="namedview1"
     pagecolor="#ffffff"
     bordercolor="#000000"
     borderopacity="0.25"
     inkscape:showpageshadow="2"
     inkscape:pageopacity="0.0"
     inkscape:pagecheckerboard="0"
     inkscape:deskcolor="#d1d1d1"
     inkscape:zoom="8.41899"
     inkscape:cx="6.948577"
     inkscape:cy="28.150645"
     inkscape:window-width="1920"
     inkscape:window-height="998"
     inkscape:window-x="0"
     inkscape:window-y="0"
     inkscape:window-maximized="1"
     inkscape:current-layer="g1" />
  <defs
     id="defs1">
    <style
       id="current-color-scheme"
       type="text/css">
   .ColorScheme-Text { color:#dedede; } .ColorScheme-Highlight { color:#5294e2; }
  </style>
    <linearGradient
       id="paint0_linear_2_336"
       x1="511.961"
       y1="493.98901"
       x2="586.15198"
       y2="638.22699"
       gradientUnits="userSpaceOnUse">
      <stop
         offset="0.0001"
         stop-color="#D6C2FF"
         id="stop31" />
      <stop
         offset="1"
         stop-color="#7E2FFF"
         id="stop32" />
    </linearGradient>
    <filter
       id="filter0_dd_2_336"
       x="412.09799"
       y="438.41199"
       width="264.22"
       height="264.41"
       filterUnits="userSpaceOnUse"
       color-interpolation-filters="sRGB">
      <feFlood
         flood-opacity="0"
         result="BackgroundImageFix"
         id="feFlood11" />
      <feColorMatrix
         in="SourceAlpha"
         type="matrix"
         values="0 0 0 0 0 0 0 0 0 0 0 0 0 0 0 0 0 0 127 0"
         result="hardAlpha"
         id="feColorMatrix11" />
      <feOffset
         dx="-21"
         dy="15"
         id="feOffset11" />
      <feGaussianBlur
         stdDeviation="25"
         id="feGaussianBlur11" />
      <feComposite
         in2="hardAlpha"
         operator="out"
         id="feComposite11" />
      <feColorMatrix
         type="matrix"
         values="0 0 0 0 0.113438 0 0 0 0 0.148981 0 0 0 0 0.275 0 0 0 0.25 0"
         id="feColorMatrix12" />
      <feBlend
         mode="normal"
         in2="BackgroundImageFix"
         result="effect1_dropShadow_2_336"
         id="feBlend12" />
      <feColorMatrix
         in="SourceAlpha"
         type="matrix"
         values="0 0 0 0 0 0 0 0 0 0 0 0 0 0 0 0 0 0 127 0"
         result="hardAlpha"
         id="feColorMatrix13" />
      <feOffset
         id="feOffset13" />
      <feGaussianBlur
         stdDeviation="19"
         id="feGaussianBlur13" />
      <feComposite
         in2="hardAlpha"
         operator="out"
         id="feComposite13" />
      <feColorMatrix
         type="matrix"
         values="0 0 0 0 0.619608 0 0 0 0 0.423529 0 0 0 0 1 0 0 0 0.4 0"
         id="feColorMatrix14" />
      <feBlend
         mode="normal"
         in2="effect1_dropShadow_2_336"
         result="effect2_dropShadow_2_336"
         id="feBlend14" />
      <feBlend
         mode="normal"
         in="SourceGraphic"
         in2="effect2_dropShadow_2_336"
         result="shape"
         id="feBlend15" />
    </filter>
    <linearGradient
       id="paint1_linear_2_336"
       x1="520.03802"
       y1="414.677"
       x2="566.18298"
       y2="603.979"
       gradientUnits="userSpaceOnUse">
      <stop
         stop-color="white"
         id="stop33" />
      <stop
         offset="1"
         stop-color="white"
         stop-opacity="0"
         id="stop34" />
    </linearGradient>
    <mask
       id="path-1-inside-1_2_336"
       fill="#ffffff">
      <path
         fill-rule="evenodd"
         clip-rule="evenodd"
         d="m 552.339,476.456 c 3.453,-0.512 5.514,3.562 3.604,6.484 -12.939,19.798 -15.162,45.796 -3.57,68.331 15.295,29.736 49.483,43.411 80.363,33.906 3.339,-1.028 6.685,2.084 5.234,5.263 -7.299,15.984 -19.821,29.722 -36.659,38.383 -39.83,20.488 -88.728,4.807 -109.215,-35.023 -20.488,-39.83 -4.807,-88.727 35.023,-109.215 8.135,-4.184 16.648,-6.86 25.22,-8.129 z"
         id="path1-5" />
    </mask>
    <filter
       id="filter5"
       x="412.09799"
       y="438.41199"
       width="264.22"
       height="264.41"
       filterUnits="userSpaceOnUse"
       color-interpolation-filters="sRGB">
      <feFlood
         flood-opacity="0"
         result="BackgroundImageFix"
         id="feFlood1" />
      <feColorMatrix
         in="SourceAlpha"
         type="matrix"
         values="0 0 0 0 0 0 0 0 0 0 0 0 0 0 0 0 0 0 127 0"
         result="hardAlpha"
         id="feColorMatrix1" />
      <feOffset
         dx="-21"
         dy="15"
         id="feOffset1" />
      <feGaussianBlur
         stdDeviation="25"
         id="feGaussianBlur1" />
      <feComposite
         in2="hardAlpha"
         operator="out"
         id="feComposite1" />
      <feColorMatrix
         type="matrix"
         values="0 0 0 0 0.113438 0 0 0 0 0.148981 0 0 0 0 0.275 0 0 0 0.25 0"
         id="feColorMatrix2" />
      <feBlend
         mode="normal"
         in2="BackgroundImageFix"
         result="effect1_dropShadow_2_336"
         id="feBlend2" />
      <feColorMatrix
         in="SourceAlpha"
         type="matrix"
         values="0 0 0 0 0 0 0 0 0 0 0 0 0 0 0 0 0 0 127 0"
         result="hardAlpha"
         id="feColorMatrix3" />
      <feOffset
         id="feOffset3" />
      <feGaussianBlur
         stdDeviation="19"
         id="feGaussianBlur3" />
      <feComposite
         in2="hardAlpha"
         operator="out"
         id="feComposite3" />
      <feColorMatrix
         type="matrix"
         values="0 0 0 0 0.619608 0 0 0 0 0.423529 0 0 0 0 1 0 0 0 0.4 0"
         id="feColorMatrix4" />
      <feBlend
         mode="normal"
         in2="effect1_dropShadow_2_336"
         result="effect2_dropShadow_2_336"
         id="feBlend4" />
      <feBlend
         mode="normal"
         in="SourceGraphic"
         in2="effect2_dropShadow_2_336"
         result="shape"
         id="feBlend5" />
    </filter>
    <linearGradient
       id="paint2_linear_2_336"
       x1="587.13702"
       y1="473.01599"
       x2="587.13702"
       y2="511.01599"
       gradientUnits="userSpaceOnUse">
      <stop
         offset="0.0001"
         stop-color="#D6C2FF"
         id="stop35" />
      <stop
         offset="1"
         stop-color="#7E2FFF"
         id="stop36" />
    </linearGradient>
    <filter
       id="filter1_dd_2_336"
       x="503.073"
       y="442.75299"
       width="127.855"
       height="127.855"
       filterUnits="userSpaceOnUse"
       color-interpolation-filters="sRGB">
      <feFlood
         flood-opacity="0"
         result="BackgroundImageFix"
         id="feFlood15" />
      <feColorMatrix
         in="SourceAlpha"
         type="matrix"
         values="0 0 0 0 0 0 0 0 0 0 0 0 0 0 0 0 0 0 127 0"
         result="hardAlpha"
         id="feColorMatrix15" />
      <feOffset
         dx="-21"
         dy="15"
         id="feOffset15" />
      <feGaussianBlur
         stdDeviation="25"
         id="feGaussianBlur15" />
      <feComposite
         in2="hardAlpha"
         operator="out"
         id="feComposite15" />
      <feColorMatrix
         type="matrix"
         values="0 0 0 0 0.113438 0 0 0 0 0.148981 0 0 0 0 0.275 0 0 0 0.25 0"
         id="feColorMatrix16" />
      <feBlend
         mode="normal"
         in2="BackgroundImageFix"
         result="effect1_dropShadow_2_336"
         id="feBlend16" />
      <feColorMatrix
         in="SourceAlpha"
         type="matrix"
         values="0 0 0 0 0 0 0 0 0 0 0 0 0 0 0 0 0 0 127 0"
         result="hardAlpha"
         id="feColorMatrix17" />
      <feOffset
         id="feOffset17" />
      <feGaussianBlur
         stdDeviation="9"
         id="feGaussianBlur17" />
      <feComposite
         in2="hardAlpha"
         operator="out"
         id="feComposite17" />
      <feColorMatrix
         type="matrix"
         values="0 0 0 0 0.607843 0 0 0 0 0.392157 0 0 0 0 1 0 0 0 0.56 0"
         id="feColorMatrix18" />
      <feBlend
         mode="normal"
         in2="effect1_dropShadow_2_336"
         result="effect2_dropShadow_2_336"
         id="feBlend18" />
      <feBlend
         mode="normal"
         in="SourceGraphic"
         in2="effect2_dropShadow_2_336"
         result="shape"
         id="feBlend19" />
    </filter>
    <linearGradient
       id="paint3_linear_2_336"
       x1="588"
       y1="472.681"
       x2="588"
       y2="496.181"
       gradientUnits="userSpaceOnUse">
      <stop
         stop-color="white"
         id="stop37" />
      <stop
         offset="1"
         stop-color="white"
         stop-opacity="0"
         id="stop38" />
    </linearGradient>
    <filter
       id="filter9"
       x="503.073"
       y="442.75299"
       width="127.855"
       height="127.855"
       filterUnits="userSpaceOnUse"
       color-interpolation-filters="sRGB">
      <feFlood
         flood-opacity="0"
         result="BackgroundImageFix"
         id="feFlood5" />
      <feColorMatrix
         in="SourceAlpha"
         type="matrix"
         values="0 0 0 0 0 0 0 0 0 0 0 0 0 0 0 0 0 0 127 0"
         result="hardAlpha"
         id="feColorMatrix5" />
      <feOffset
         dx="-21"
         dy="15"
         id="feOffset5" />
      <feGaussianBlur
         stdDeviation="25"
         id="feGaussianBlur5" />
      <feComposite
         in2="hardAlpha"
         operator="out"
         id="feComposite5" />
      <feColorMatrix
         type="matrix"
         values="0 0 0 0 0.113438 0 0 0 0 0.148981 0 0 0 0 0.275 0 0 0 0.25 0"
         id="feColorMatrix6" />
      <feBlend
         mode="normal"
         in2="BackgroundImageFix"
         result="effect1_dropShadow_2_336"
         id="feBlend6" />
      <feColorMatrix
         in="SourceAlpha"
         type="matrix"
         values="0 0 0 0 0 0 0 0 0 0 0 0 0 0 0 0 0 0 127 0"
         result="hardAlpha"
         id="feColorMatrix7" />
      <feOffset
         id="feOffset7" />
      <feGaussianBlur
         stdDeviation="9"
         id="feGaussianBlur7" />
      <feComposite
         in2="hardAlpha"
         operator="out"
         id="feComposite7" />
      <feColorMatrix
         type="matrix"
         values="0 0 0 0 0.607843 0 0 0 0 0.392157 0 0 0 0 1 0 0 0 0.56 0"
         id="feColorMatrix8" />
      <feBlend
         mode="normal"
         in2="effect1_dropShadow_2_336"
         result="effect2_dropShadow_2_336"
         id="feBlend8" />
      <feBlend
         mode="normal"
         in="SourceGraphic"
         in2="effect2_dropShadow_2_336"
         result="shape"
         id="feBlend9" />
    </filter>
    <linearGradient
       id="paint4_linear_2_336"
       x1="604"
       y1="522.68103"
       x2="604"
       y2="572.68103"
       gradientUnits="userSpaceOnUse">
      <stop
         stop-color="#FFE600"
         id="stop39" />
      <stop
         offset="1"
         stop-color="#FF7A00"
         id="stop40" />
    </linearGradient>
    <filter
       id="filter2_dd_2_336"
       x="513.073"
       y="492.75299"
       width="139.855"
       height="139.855"
       filterUnits="userSpaceOnUse"
       color-interpolation-filters="sRGB">
      <feFlood
         flood-opacity="0"
         result="BackgroundImageFix"
         id="feFlood19" />
      <feColorMatrix
         in="SourceAlpha"
         type="matrix"
         values="0 0 0 0 0 0 0 0 0 0 0 0 0 0 0 0 0 0 127 0"
         result="hardAlpha"
         id="feColorMatrix19" />
      <feOffset
         dx="-21"
         dy="15"
         id="feOffset19" />
      <feGaussianBlur
         stdDeviation="25"
         id="feGaussianBlur19" />
      <feComposite
         in2="hardAlpha"
         operator="out"
         id="feComposite19" />
      <feColorMatrix
         type="matrix"
         values="0 0 0 0 0.113438 0 0 0 0 0.148981 0 0 0 0 0.275 0 0 0 0.25 0"
         id="feColorMatrix20" />
      <feBlend
         mode="normal"
         in2="BackgroundImageFix"
         result="effect1_dropShadow_2_336"
         id="feBlend20" />
      <feColorMatrix
         in="SourceAlpha"
         type="matrix"
         values="0 0 0 0 0 0 0 0 0 0 0 0 0 0 0 0 0 0 127 0"
         result="hardAlpha"
         id="feColorMatrix21" />
      <feOffset
         id="feOffset21" />
      <feGaussianBlur
         stdDeviation="9"
         id="feGaussianBlur21" />
      <feComposite
         in2="hardAlpha"
         operator="out"
         id="feComposite21" />
      <feColorMatrix
         type="matrix"
         values="0 0 0 0 0.996078 0 0 0 0 0.764706 0 0 0 0 0.0117647 0 0 0 0.47 0"
         id="feColorMatrix22" />
      <feBlend
         mode="normal"
         in2="effect1_dropShadow_2_336"
         result="effect2_dropShadow_2_336"
         id="feBlend22" />
      <feBlend
         mode="normal"
         in="SourceGraphic"
         in2="effect2_dropShadow_2_336"
         result="shape"
         id="feBlend23" />
    </filter>
    <linearGradient
       id="paint5_linear_2_336"
       x1="604"
       y1="522.68103"
       x2="604"
       y2="553.60199"
       gradientUnits="userSpaceOnUse">
      <stop
         stop-color="white"
         id="stop41" />
      <stop
         offset="1"
         stop-color="white"
         stop-opacity="0"
         id="stop42" />
    </linearGradient>
    <filter
       id="filter25"
       x="513.073"
       y="492.75299"
       width="139.855"
       height="139.855"
       filterUnits="userSpaceOnUse"
       color-interpolation-filters="sRGB">
      <feFlood
         flood-opacity="0"
         result="BackgroundImageFix"
         id="feFlood9" />
      <feColorMatrix
         in="SourceAlpha"
         type="matrix"
         values="0 0 0 0 0 0 0 0 0 0 0 0 0 0 0 0 0 0 127 0"
         result="hardAlpha"
         id="feColorMatrix9" />
      <feOffset
         dx="-21"
         dy="15"
         id="feOffset9" />
      <feGaussianBlur
         stdDeviation="25"
         id="feGaussianBlur9" />
      <feComposite
         in2="hardAlpha"
         operator="out"
         id="feComposite9" />
      <feColorMatrix
         type="matrix"
         values="0 0 0 0 0.113438 0 0 0 0 0.148981 0 0 0 0 0.275 0 0 0 0.25 0"
         id="feColorMatrix10" />
      <feBlend
         mode="normal"
         in2="BackgroundImageFix"
         result="effect1_dropShadow_2_336"
         id="feBlend10" />
      <feColorMatrix
         in="SourceAlpha"
         type="matrix"
         values="0 0 0 0 0 0 0 0 0 0 0 0 0 0 0 0 0 0 127 0"
         result="hardAlpha"
         id="feColorMatrix23" />
      <feOffset
         id="feOffset23" />
      <feGaussianBlur
         stdDeviation="9"
         id="feGaussianBlur23" />
      <feComposite
         in2="hardAlpha"
         operator="out"
         id="feComposite23" />
      <feColorMatrix
         type="matrix"
         values="0 0 0 0 0.996078 0 0 0 0 0.764706 0 0 0 0 0.0117647 0 0 0 0.47 0"
         id="feColorMatrix24" />
      <feBlend
         mode="normal"
         in2="effect1_dropShadow_2_336"
         result="effect2_dropShadow_2_336"
         id="feBlend24" />
      <feBlend
         mode="normal"
         in="SourceGraphic"
         in2="effect2_dropShadow_2_336"
         result="shape"
         id="feBlend25" />
    </filter>
    <linearGradient
       id="paint6_linear_2_336"
       x1="655.27301"
       y1="511.96301"
       x2="655.27301"
       y2="543.96301"
       gradientUnits="userSpaceOnUse">
      <stop
         offset="0.0001"
         stop-color="#D6C2FF"
         id="stop43" />
      <stop
         offset="1"
         stop-color="#7E2FFF"
         id="stop44" />
    </linearGradient>
    <filter
       id="filter3_dd_2_336"
       x="574.073"
       y="481.75299"
       width="121.855"
       height="121.855"
       filterUnits="userSpaceOnUse"
       color-interpolation-filters="sRGB">
      <feFlood
         flood-opacity="0"
         result="BackgroundImageFix"
         id="feFlood23" />
      <feColorMatrix
         in="SourceAlpha"
         type="matrix"
         values="0 0 0 0 0 0 0 0 0 0 0 0 0 0 0 0 0 0 127 0"
         result="hardAlpha"
         id="feColorMatrix25" />
      <feOffset
         dx="-21"
         dy="15"
         id="feOffset25" />
      <feGaussianBlur
         stdDeviation="25"
         id="feGaussianBlur25" />
      <feComposite
         in2="hardAlpha"
         operator="out"
         id="feComposite25" />
      <feColorMatrix
         type="matrix"
         values="0 0 0 0 0.113438 0 0 0 0 0.148981 0 0 0 0 0.275 0 0 0 0.25 0"
         id="feColorMatrix26" />
      <feBlend
         mode="normal"
         in2="BackgroundImageFix"
         result="effect1_dropShadow_2_336"
         id="feBlend26" />
      <feColorMatrix
         in="SourceAlpha"
         type="matrix"
         values="0 0 0 0 0 0 0 0 0 0 0 0 0 0 0 0 0 0 127 0"
         result="hardAlpha"
         id="feColorMatrix27" />
      <feOffset
         id="feOffset27" />
      <feGaussianBlur
         stdDeviation="9"
         id="feGaussianBlur27" />
      <feComposite
         in2="hardAlpha"
         operator="out"
         id="feComposite27" />
      <feColorMatrix
         type="matrix"
         values="0 0 0 0 0.607843 0 0 0 0 0.392157 0 0 0 0 1 0 0 0 0.56 0"
         id="feColorMatrix28" />
      <feBlend
         mode="normal"
         in2="effect1_dropShadow_2_336"
         result="effect2_dropShadow_2_336"
         id="feBlend28" />
      <feBlend
         mode="normal"
         in="SourceGraphic"
         in2="effect2_dropShadow_2_336"
         result="shape"
         id="feBlend27" />
    </filter>
    <linearGradient
       id="paint7_linear_2_336"
       x1="656"
       y1="511.681"
       x2="656"
       y2="531.46997"
       gradientUnits="userSpaceOnUse">
      <stop
         stop-color="white"
         id="stop45" />
      <stop
         offset="1"
         stop-color="white"
         stop-opacity="0"
         id="stop46" />
    </linearGradient>
    <filter
       id="filter33"
       x="574.073"
       y="481.75299"
       width="121.855"
       height="121.855"
       filterUnits="userSpaceOnUse"
       color-interpolation-filters="sRGB">
      <feFlood
         flood-opacity="0"
         result="BackgroundImageFix"
         id="feFlood28" />
      <feColorMatrix
         in="SourceAlpha"
         type="matrix"
         values="0 0 0 0 0 0 0 0 0 0 0 0 0 0 0 0 0 0 127 0"
         result="hardAlpha"
         id="feColorMatrix29" />
      <feOffset
         dx="-21"
         dy="15"
         id="feOffset29" />
      <feGaussianBlur
         stdDeviation="25"
         id="feGaussianBlur29" />
      <feComposite
         in2="hardAlpha"
         operator="out"
         id="feComposite29" />
      <feColorMatrix
         type="matrix"
         values="0 0 0 0 0.113438 0 0 0 0 0.148981 0 0 0 0 0.275 0 0 0 0.25 0"
         id="feColorMatrix30" />
      <feBlend
         mode="normal"
         in2="BackgroundImageFix"
         result="effect1_dropShadow_2_336"
         id="feBlend30" />
      <feColorMatrix
         in="SourceAlpha"
         type="matrix"
         values="0 0 0 0 0 0 0 0 0 0 0 0 0 0 0 0 0 0 127 0"
         result="hardAlpha"
         id="feColorMatrix31" />
      <feOffset
         id="feOffset31" />
      <feGaussianBlur
         stdDeviation="9"
         id="feGaussianBlur31" />
      <feComposite
         in2="hardAlpha"
         operator="out"
         id="feComposite31" />
      <feColorMatrix
         type="matrix"
         values="0 0 0 0 0.607843 0 0 0 0 0.392157 0 0 0 0 1 0 0 0 0.56 0"
         id="feColorMatrix32" />
      <feBlend
         mode="normal"
         in2="effect1_dropShadow_2_336"
         result="effect2_dropShadow_2_336"
         id="feBlend32" />
      <feBlend
         mode="normal"
         in="SourceGraphic"
         in2="effect2_dropShadow_2_336"
         result="shape"
         id="feBlend33" />
    </filter>
    <linearGradient
       id="paint8_linear_2_336"
       x1="638"
       y1="464.681"
       x2="638"
       y2="496.681"
       gradientUnits="userSpaceOnUse">
      <stop
         stop-color="#FFE600"
         id="stop47" />
      <stop
         offset="1"
         stop-color="#FF7A00"
         id="stop48" />
    </linearGradient>
    <filter
       id="filter4_dd_2_336"
       x="556.073"
       y="434.75299"
       width="121.855"
       height="121.855"
       filterUnits="userSpaceOnUse"
       color-interpolation-filters="sRGB">
      <feFlood
         flood-opacity="0"
         result="BackgroundImageFix"
         id="feFlood27" />
      <feColorMatrix
         in="SourceAlpha"
         type="matrix"
         values="0 0 0 0 0 0 0 0 0 0 0 0 0 0 0 0 0 0 127 0"
         result="hardAlpha"
         id="feColorMatrix33" />
      <feOffset
         dx="-21"
         dy="15"
         id="feOffset33" />
      <feGaussianBlur
         stdDeviation="25"
         id="feGaussianBlur33" />
      <feComposite
         in2="hardAlpha"
         operator="out"
         id="feComposite33" />
      <feColorMatrix
         type="matrix"
         values="0 0 0 0 0.113438 0 0 0 0 0.148981 0 0 0 0 0.275 0 0 0 0.25 0"
         id="feColorMatrix34" />
      <feBlend
         mode="normal"
         in2="BackgroundImageFix"
         result="effect1_dropShadow_2_336"
         id="feBlend34" />
      <feColorMatrix
         in="SourceAlpha"
         type="matrix"
         values="0 0 0 0 0 0 0 0 0 0 0 0 0 0 0 0 0 0 127 0"
         result="hardAlpha"
         id="feColorMatrix35" />
      <feOffset
         id="feOffset35" />
      <feGaussianBlur
         stdDeviation="9"
         id="feGaussianBlur35" />
      <feComposite
         in2="hardAlpha"
         operator="out"
         id="feComposite35" />
      <feColorMatrix
         type="matrix"
         values="0 0 0 0 0.996078 0 0 0 0 0.764706 0 0 0 0 0.0117647 0 0 0 0.47 0"
         id="feColorMatrix36" />
      <feBlend
         mode="normal"
         in2="effect1_dropShadow_2_336"
         result="effect2_dropShadow_2_336"
         id="feBlend36" />
      <feBlend
         mode="normal"
         in="SourceGraphic"
         in2="effect2_dropShadow_2_336"
         result="shape"
         id="feBlend31" />
    </filter>
    <linearGradient
       id="paint9_linear_2_336"
       x1="638"
       y1="464.681"
       x2="638"
       y2="484.47"
       gradientUnits="userSpaceOnUse">
      <stop
         stop-color="white"
         id="stop49" />
      <stop
         offset="1"
         stop-color="white"
         stop-opacity="0"
         id="stop50" />
    </linearGradient>
    <filter
       id="filter41"
       x="556.073"
       y="434.75299"
       width="121.855"
       height="121.855"
       filterUnits="userSpaceOnUse"
       color-interpolation-filters="sRGB">
      <feFlood
         flood-opacity="0"
         result="BackgroundImageFix"
         id="feFlood36" />
      <feColorMatrix
         in="SourceAlpha"
         type="matrix"
         values="0 0 0 0 0 0 0 0 0 0 0 0 0 0 0 0 0 0 127 0"
         result="hardAlpha"
         id="feColorMatrix37" />
      <feOffset
         dx="-21"
         dy="15"
         id="feOffset37" />
      <feGaussianBlur
         stdDeviation="25"
         id="feGaussianBlur37" />
      <feComposite
         in2="hardAlpha"
         operator="out"
         id="feComposite37" />
      <feColorMatrix
         type="matrix"
         values="0 0 0 0 0.113438 0 0 0 0 0.148981 0 0 0 0 0.275 0 0 0 0.25 0"
         id="feColorMatrix38" />
      <feBlend
         mode="normal"
         in2="BackgroundImageFix"
         result="effect1_dropShadow_2_336"
         id="feBlend38" />
      <feColorMatrix
         in="SourceAlpha"
         type="matrix"
         values="0 0 0 0 0 0 0 0 0 0 0 0 0 0 0 0 0 0 127 0"
         result="hardAlpha"
         id="feColorMatrix39" />
      <feOffset
         id="feOffset39" />
      <feGaussianBlur
         stdDeviation="9"
         id="feGaussianBlur39" />
      <feComposite
         in2="hardAlpha"
         operator="out"
         id="feComposite39" />
      <feColorMatrix
         type="matrix"
         values="0 0 0 0 0.996078 0 0 0 0 0.764706 0 0 0 0 0.0117647 0 0 0 0.47 0"
         id="feColorMatrix40" />
      <feBlend
         mode="normal"
         in2="effect1_dropShadow_2_336"
         result="effect2_dropShadow_2_336"
         id="feBlend40" />
      <feBlend
         mode="normal"
         in="SourceGraphic"
         in2="effect2_dropShadow_2_336"
         result="shape"
         id="feBlend41" />
    </filter>
  </defs>
  <g
     id="g50"
     transform="matrix(0.11191205,0,0,0.11191149,-46.816731,-45.293855)">
    <path
       fill-rule="evenodd"
       clip-rule="evenodd"
       d="m 552.339,476.456 c 3.453,-0.512 5.514,3.562 3.604,6.484 -12.939,19.798 -15.162,45.796 -3.57,68.331 15.295,29.736 49.483,43.411 80.363,33.906 3.339,-1.028 6.685,2.084 5.234,5.263 -7.299,15.984 -19.821,29.722 -36.659,38.383 -39.83,20.488 -88.728,4.807 -109.215,-35.023 -20.488,-39.83 -4.807,-88.727 35.023,-109.215 8.135,-4.184 16.648,-6.86 25.22,-8.129 z"
       id="path2"
       style="fill:url(#paint0_linear_2_336);filter:url(#filter0_dd_2_336)" />
    <path
       d="m 637.97,590.44 -1.82,-0.831 z m -85.631,-113.984 0.293,1.978 z m 1.812,73.901 c -11.249,-21.87 -9.095,-47.102 3.466,-66.322 l -3.348,-2.189 c -13.316,20.376 -15.609,47.14 -3.675,70.34 z m 77.997,32.908 c -29.97,9.225 -63.153,-4.05 -77.997,-32.908 l -3.557,1.829 c 15.746,30.612 50.94,44.687 82.73,34.902 z m 4.002,6.344 c -7.118,15.59 -19.329,28.987 -35.754,37.436 l 1.83,3.557 c 17.251,-8.874 30.085,-22.954 37.563,-39.332 z m -35.754,37.436 c -38.848,19.982 -86.539,4.688 -106.522,-34.16 l -3.557,1.83 c 20.993,40.812 71.096,56.88 111.909,35.887 z m -106.522,-34.16 c -19.982,-38.848 -4.688,-86.539 34.16,-106.521 l -1.83,-3.557 c -40.812,20.992 -56.879,71.095 -35.887,111.908 z m 34.16,-106.521 c 7.937,-4.083 16.24,-6.692 24.598,-7.93 l -0.586,-3.957 c -8.786,1.301 -17.509,4.044 -25.842,8.33 z m 105.29,100.724 c 0.923,-0.284 1.844,0.003 2.428,0.574 0.554,0.541 0.726,1.228 0.398,1.947 l 3.639,1.661 c 1.123,-2.459 0.348,-4.917 -1.243,-6.47 -1.56,-1.524 -3.982,-2.279 -6.398,-1.535 z M 557.617,484.035 c 1.382,-2.115 1.328,-4.65 0.298,-6.57 -1.051,-1.958 -3.196,-3.384 -5.869,-2.988 l 0.586,3.957 c 0.78,-0.115 1.392,0.24 1.758,0.922 0.386,0.719 0.407,1.682 -0.121,2.49 z"
       id="path3"
       style="fill:url(#paint1_linear_2_336);filter:url(#filter0_dd_2_336)" />
    <path
       d="m 586.082,479.188 c 0.563,-1.913 3.273,-1.913 3.836,0 l 2.1,7.122 c 0.192,0.651 0.702,1.161 1.353,1.353 l 7.122,2.1 c 1.913,0.563 1.913,3.272 0,3.836 l -7.122,2.1 c -0.651,0.192 -1.161,0.701 -1.353,1.353 l -2.1,7.122 c -0.563,1.912 -3.273,1.912 -3.836,0 l -2.1,-7.122 c -0.192,-0.652 -0.702,-1.161 -1.353,-1.353 l -7.122,-2.1 c -1.913,-0.564 -1.913,-3.273 0,-3.836 l 7.122,-2.1 c 0.651,-0.192 1.161,-0.702 1.353,-1.353 z"
       fill="url(#paint2_linear_2_336)"
       id="path4"
       style="fill:url(#paint2_linear_2_336);filter:url(#filter1_dd_2_336)" />
    <path
       d="m 587.041,479.471 c 0.282,-0.957 1.636,-0.957 1.918,0 l 2.1,7.122 c 0.288,0.977 1.052,1.741 2.029,2.029 l 7.122,2.1 c 0.956,0.282 0.956,1.636 0,1.918 l -7.122,2.1 c -0.977,0.288 -1.741,1.052 -2.029,2.029 l -2.1,7.122 c -0.282,0.956 -1.636,0.956 -1.918,0 l -2.1,-7.122 c -0.288,-0.977 -1.052,-1.741 -2.029,-2.029 l -7.122,-2.1 c -0.956,-0.282 -0.956,-1.636 0,-1.918 l 7.122,-2.1 c 0.977,-0.288 1.741,-1.052 2.029,-2.029 z"
       stroke-width="2"
       id="path5"
       style="fill:#ffffff;fill-opacity:1;stroke:url(#paint3_linear_2_336);filter:url(#filter1_dd_2_336)" />
    <path
       d="m 602.082,529.188 c 0.563,-1.913 3.273,-1.913 3.836,0 l 3.466,11.756 c 0.192,0.651 0.702,1.161 1.353,1.353 l 11.756,3.466 c 1.913,0.563 1.913,3.272 0,3.836 l -11.756,3.466 c -0.651,0.192 -1.161,0.702 -1.353,1.353 l -3.466,11.756 c -0.563,1.912 -3.273,1.912 -3.836,0 l -3.466,-11.756 c -0.192,-0.651 -0.702,-1.161 -1.353,-1.353 l -11.756,-3.466 c -1.913,-0.564 -1.913,-3.273 0,-3.836 l 11.756,-3.466 c 0.651,-0.192 1.161,-0.702 1.353,-1.353 z"
       fill="url(#paint4_linear_2_336)"
       id="path6"
       style="fill:url(#paint4_linear_2_336);filter:url(#filter2_dd_2_336)" />
    <path
       d="m 603.041,529.471 c 0.282,-0.957 1.636,-0.957 1.918,0 l 3.466,11.756 c 0.288,0.977 1.052,1.741 2.029,2.029 l 11.756,3.466 c 0.956,0.282 0.956,1.636 0,1.918 l -11.756,3.466 c -0.977,0.288 -1.741,1.052 -2.029,2.029 l -3.466,11.756 c -0.282,0.956 -1.636,0.956 -1.918,0 l -3.466,-11.756 c -0.288,-0.977 -1.052,-1.741 -2.029,-2.029 L 585.79,548.64 c -0.956,-0.282 -0.956,-1.636 0,-1.918 l 11.756,-3.466 c 0.977,-0.288 1.741,-1.052 2.029,-2.029 z"
       stroke-width="2"
       id="path7"
       style="fill:#ffffff;fill-opacity:1;stroke:url(#paint5_linear_2_336);filter:url(#filter2_dd_2_336)" />
    <path
       d="m 654.082,518.188 c 0.563,-1.913 3.273,-1.913 3.836,0 l 1.417,4.805 c 0.192,0.651 0.701,1.161 1.353,1.353 l 4.805,1.417 c 1.913,0.563 1.913,3.272 0,3.836 l -4.805,1.417 c -0.652,0.192 -1.161,0.701 -1.353,1.353 l -1.417,4.805 c -0.563,1.912 -3.273,1.912 -3.836,0 l -1.417,-4.805 c -0.192,-0.652 -0.701,-1.161 -1.353,-1.353 l -4.805,-1.417 c -1.913,-0.564 -1.913,-3.273 0,-3.836 l 4.805,-1.417 c 0.652,-0.192 1.161,-0.702 1.353,-1.353 z"
       fill="url(#paint6_linear_2_336)"
       id="path8"
       style="fill:url(#paint6_linear_2_336);filter:url(#filter3_dd_2_336)" />
    <path
       d="m 655.041,518.471 c 0.282,-0.957 1.636,-0.957 1.918,0 l 1.417,4.805 c 0.288,0.977 1.052,1.741 2.029,2.029 l 4.805,1.417 c 0.956,0.282 0.956,1.636 0,1.918 l -4.805,1.417 c -0.977,0.288 -1.741,1.052 -2.029,2.029 l -1.417,4.805 c -0.282,0.956 -1.636,0.956 -1.918,0 l -1.417,-4.805 c -0.288,-0.977 -1.052,-1.741 -2.029,-2.029 l -4.805,-1.417 c -0.956,-0.282 -0.956,-1.636 0,-1.918 l 4.805,-1.417 -0.283,-0.959 0.283,0.959 c 0.977,-0.288 1.741,-1.052 2.029,-2.029 z"
       stroke-width="2"
       id="path9"
       style="fill:#ffffff;fill-opacity:1;stroke:url(#paint7_linear_2_336);filter:url(#filter3_dd_2_336)" />
    <path
       d="m 636.082,471.188 c 0.563,-1.913 3.273,-1.913 3.836,0 l 1.417,4.805 c 0.192,0.651 0.701,1.161 1.353,1.353 l 4.805,1.417 c 1.913,0.563 1.913,3.272 0,3.836 l -4.805,1.417 c -0.652,0.192 -1.161,0.701 -1.353,1.353 l -1.417,4.805 c -0.563,1.912 -3.273,1.912 -3.836,0 l -1.417,-4.805 c -0.192,-0.652 -0.701,-1.161 -1.353,-1.353 l -4.805,-1.417 c -1.913,-0.564 -1.913,-3.273 0,-3.836 l 4.805,-1.417 c 0.652,-0.192 1.161,-0.702 1.353,-1.353 z"
       fill="url(#paint8_linear_2_336)"
       id="path10"
       style="fill:url(#paint8_linear_2_336);filter:url(#filter4_dd_2_336)" />
    <path
       d="m 637.041,471.471 c 0.282,-0.957 1.636,-0.957 1.918,0 l 1.417,4.805 c 0.288,0.977 1.052,1.741 2.029,2.029 l 4.805,1.417 c 0.956,0.282 0.956,1.636 0,1.918 l -4.805,1.417 c -0.977,0.288 -1.741,1.052 -2.029,2.029 l -1.417,4.805 c -0.282,0.956 -1.636,0.956 -1.918,0 l -1.417,-4.805 c -0.288,-0.977 -1.052,-1.741 -2.029,-2.029 l -4.805,-1.417 c -0.956,-0.282 -0.956,-1.636 0,-1.918 l 4.805,-1.417 -0.283,-0.959 0.283,0.959 c 0.977,-0.288 1.741,-1.052 2.029,-2.029 z"
       stroke-width="2"
       id="path11"
       style="fill:#ffffff;fill-opacity:1;stroke:url(#paint9_linear_2_336);filter:url(#filter4_dd_2_336)" />
  </g>
  <g
     id="g1"
     inkscape:groupmode="layer"
     inkscape:label="1"
     transform="matrix(0.43969422,0,0,0.43969422,16.516586,17.326119)">
    <path
       id="path1"
       d="M -3.3202433,11.729171 H 16.679754 c 0.557334,0 1,0.448 1,1.000001 0,0.552 -0.442666,1 -1,1 H -3.3202433 c -0.552,0 -1,-0.448 -1,-1 0,-0.552001 0.448,-1.000001 1,-1.000001 z"
       style="fill:#3daee9;fill-opacity:1;fill-rule:nonzero;stroke:none;stroke-width:1.33333" />
    <path
       id="path2-5"
       d="m 17.710421,5.7345029 c -0.536,-0.00533 -1.066667,0.098667 -1.561333,0.3066666 -1.496,0.62 -2.469334,2.0786666 -2.469334,3.6933333 h 2.016 c -0.0053,-0.8026667 0.478667,-1.532 1.224,-1.8386667 0.744,-0.3066666 1.598667,-0.136 2.166667,0.432 0.572,0.568 0.738667,1.428 0.432,2.1666669 -0.308,0.745334 -1.032,1.229334 -1.838667,1.229334 v 2.010668 c 1.62,0 3.078667,-0.974667 3.697333,-2.469335 0.62,-1.4946672 0.276,-3.2133339 -0.869333,-4.3586672 -0.74,-0.7453333 -1.745333,-1.1613333 -2.797333,-1.1719999 z"
       style="fill:#3daee9;fill-opacity:1;fill-rule:nonzero;stroke:none;stroke-width:1.33333" />
    <path
       id="path3-3"
       d="m 13.679754,18.745172 c 0.0053,-0.532 -0.09867,-1.062667 -0.302666,-1.557334 -0.618667,-1.494666 -2.077334,-2.469333 -3.6973336,-2.469333 v 2.010667 c 0.8066666,0 1.5306666,0.484 1.8386666,1.229333 0.306667,0.74 0.134667,1.598667 -0.432,2.166667 -0.568,0.568 -1.4226666,0.74 -2.1666666,0.432 -0.745333,-0.306667 -1.229333,-1.036 -1.229333,-1.838667 H 5.6797563 c 0,1.614667 0.9733329,3.073333 2.4693321,3.693333 1.494666,0.62 3.2133326,0.281334 4.3586656,-0.865333 0.745334,-0.744 1.166667,-1.749333 1.172,-2.801333 z"
       style="fill:#3daee9;fill-opacity:1;fill-rule:nonzero;stroke:none;stroke-width:1.33333" />
    <path
       id="path4-5"
       d="m 9.7104214,2.7291696 c -0.536,-0.00533 -1.066667,0.098667 -1.561333,0.3066666 C 6.6530892,3.650503 5.6797563,5.1091695 5.6797563,6.7291695 h 2.0159981 c -0.0053,-0.8026666 0.478667,-1.5306666 1.224,-1.8386666 0.744,-0.3066667 1.5986666,-0.1346667 2.1666666,0.432 0.572,0.568 0.738667,1.4279999 0.432,2.1666666 -0.308,0.7453333 -1.032,1.2293333 -1.8386666,1.2293333 V 10.72917 c 1.6199996,0 3.0786666,-0.9733339 3.6973336,-2.4693339 0.62,-1.4946666 0.276,-3.2133332 -0.869334,-4.3586665 -0.74,-0.7453333 -1.745333,-1.1613334 -2.7973326,-1.172 z"
       style="fill:#3daee9;fill-opacity:1;fill-rule:nonzero;stroke:none;stroke-width:1.33333" />
    <path
       id="path5-6"
       d="m 16.679754,11.723837 h 1 v 2.000001 h -1 z"
       style="fill:#3daee9;fill-opacity:1;fill-rule:nonzero;stroke:none;stroke-width:1.33333" />
    <path
       id="path6-2"
       d="M -0.32024349,8.7238361 H 6.6797562 c 0.5573326,0 0.9999982,0.448 0.9999982,1 0,0.5519999 -0.4426656,1.0000009 -0.9999982,1.0000009 h -6.99999969 c -0.552,0 -1.00000001,-0.448001 -1.00000001,-1.0000009 0,-0.552 0.44800001,-1 1.00000001,-1 z"
       style="fill:#3daee9;fill-opacity:1;fill-rule:nonzero;stroke:none;stroke-width:1.33333" />
    <path
       id="path7-9"
       d="M 6.6797562,8.7238361 H 9.6797544 V 10.723837 H 6.6797562 Z"
       style="fill:#3daee9;fill-opacity:1;fill-rule:nonzero;stroke:none;stroke-width:1.33333" />
    <path
       id="path8-1"
       d="m -1.3202435,14.723838 h 8.9999979 c 0.557334,0 1,0.448 1,1 0,0.552 -0.442666,1 -1,1 h -8.9999979 c -0.552,0 -0.9999999,-0.448 -0.9999999,-1 0,-0.552 0.4479999,-1 0.9999999,-1 z"
       style="fill:#3daee9;fill-opacity:1;fill-rule:nonzero;stroke:none;stroke-width:1.33333" />
    <path
       id="path9-2"
       d="m 7.6797544,14.723838 h 2 v 2 h -2 z"
       style="fill:#3daee9;fill-opacity:1;fill-rule:nonzero;stroke:none;stroke-width:1.33333" />
    <path
       id="path10-7"
       d="m 9.6957544,3.7345029 c -0.266666,0 -0.532,0.052 -0.776,0.1506667 -0.745333,0.308 -1.229333,1.0373333 -1.229333,1.8386666 H 5.8157563 c -0.010667,0.041333 -0.021333,0.078667 -0.032,0.12 -0.016,0.078667 -0.036,0.1613333 -0.052,0.24 -0.00533,0.052 -0.010667,0.104 -0.016,0.156 -0.00933,0.077333 -0.02,0.156 -0.025333,0.2346666 -0.00533,0.082667 -0.010667,0.1666667 -0.010667,0.2493334 h 2.0106651 c 0,-0.062667 0.0053,-0.1253334 0.01067,-0.188 0.06667,-0.7333333 0.536,-1.3693333 1.218666,-1.6506667 0.738667,-0.3066666 1.5986666,-0.1346666 2.1666666,0.432 0.249333,0.2506667 0.426667,0.5626667 0.514667,0.9066667 0.17733,-0.6826667 -0.01467,-1.4066667 -0.51467,-1.9066666 C 10.715754,3.9478362 10.215754,3.7398362 9.6957544,3.7345029 Z m 3.9479996,2.4893333 c -0.04267,0.3546666 -0.136,0.7026666 -0.270666,1.032 -0.614667,1.4946666 -2.073334,2.4679999 -3.6933336,2.4679999 H -1.3202435 c 0,0 0,0.00533 0,0.00533 0,0.5413339 0.43200001,0.9786669 0.96933331,0.9946669 H 9.6797544 c 1.6199996,0 3.0786666,-0.9733335 3.6933336,-2.4680002 0.26,-0.62 0.353333,-1.2919999 0.28,-1.9586666 0,0 0,-0.00533 0,-0.00533 -0.004,-0.021333 -0.004,-0.041333 -0.0093,-0.068 z m 4.052,0.516 c -0.266666,0 -0.532,0.052 -0.776,0.1506666 -0.745333,0.308 -1.229333,1.036 -1.229333,1.8386667 h -1.874667 c -0.01067,0.041333 -0.02133,0.078667 -0.032,0.1199999 -0.016,0.077333 -0.036,0.1613334 -0.052,0.24 -0.0053,0.052 -0.01067,0.104 -0.016,0.156 -0.0093,0.077333 -0.02,0.156 -0.02533,0.2333334 -0.0053,0.084 -0.01067,0.168 -0.01067,0.2506666 h 2.010667 c 0,-0.062667 0.0053,-0.1253333 0.01067,-0.188 0.06667,-0.7333333 0.536,-1.3693333 1.218666,-1.6506666 0.738667,-0.3066667 1.598667,-0.1346667 2.166667,0.432 0.249333,0.2506667 0.426667,0.5626666 0.514667,0.9066666 0.17733,-0.6826666 -0.01467,-1.4066666 -0.51467,-1.9066666 C 18.715754,6.9531695 18.215754,6.7451695 17.695754,6.7398362 Z m 3.948,2.4893332 c -0.04267,0.3546667 -0.136,0.7026667 -0.270667,1.0306666 -0.614666,1.496001 -2.073333,2.469336 -3.693333,2.469336 v -0.0053 H -4.3202433 c 0,0.0053 0,0.0053 0,0.01067 0,0.536 0.416,0.958667 0.9426667,0.989333 h 13.057331 v -0.01067 c 0.104,0 0.208,0 0.312,0.01067 h 7.6879996 v 0.0053 c 1.62,0 3.078667,-0.973334 3.697333,-2.469335 0.256,-0.618667 0.349334,-1.2906676 0.276,-1.9573342 0,0 0,-0.00533 0,-0.00533 -0.004,-0.021333 -0.004,-0.041333 -0.0093,-0.068 z M -2.3202434,15.723838 c 0,0 0,0.0053 0,0.0053 0,0.541333 0.4319999,0.978666 0.9693332,0.994666 H 9.6797544 c 0.8026666,0 1.5306666,0.484 1.8386666,1.224 0.03067,0.088 0.06267,0.177334 0.08267,0.265334 0.109333,-0.421334 0.084,-0.864 -0.08267,-1.265334 -0.308,-0.74 -1.036,-1.224 -1.8386666,-1.224 z m 15.9639974,2.505334 c -0.114666,0.874666 -0.510666,1.688 -1.136,2.312 -1.145333,1.141333 -2.8639996,1.485333 -4.3586656,0.865333 -1.1573334,-0.48 -2.0159986,-1.474667 -2.3333321,-2.682667 h -0.136 c 0.00533,1.614667 0.9786659,3.068 2.4693321,3.682667 1.494666,0.62 3.2133326,0.276 4.3586656,-0.865333 0.474667,-0.473334 0.822667,-1.062667 1.010667,-1.702667 0.036,-0.125333 0.068,-0.249333 0.09333,-0.38 0,0 0,-0.0053 0,-0.01067 0.02133,-0.125333 0.04133,-0.254666 0.052,-0.38 0.01067,-0.104 0.016,-0.208 0.016,-0.312 0,-0.136 -0.0053,-0.272 -0.02133,-0.401333 -0.0053,-0.04133 -0.0093,-0.084 -0.01467,-0.125333 z"
       style="fill:#000000;fill-opacity:0.22745;fill-rule:nonzero;stroke:none;stroke-width:1.33333" />
  </g>
</svg>
