<?xml version="1.0" encoding="UTF-8" standalone="no"?>
<svg
   width="48"
   height="48"
   version="1.1"
   id="svg4"
   sodipodi:docname="weather-freezing-scattered-rain-storm-symbolic.svg"
   inkscape:version="1.4 (unknown)"
   xmlns:inkscape="http://www.inkscape.org/namespaces/inkscape"
   xmlns:sodipodi="http://sodipodi.sourceforge.net/DTD/sodipodi-0.dtd"
   xmlns="http://www.w3.org/2000/svg"
   xmlns:svg="http://www.w3.org/2000/svg">
  <defs
     id="defs4" />
  <sodipodi:namedview
     id="namedview4"
     pagecolor="#ffffff"
     bordercolor="#000000"
     borderopacity="0.25"
     inkscape:showpageshadow="2"
     inkscape:pageopacity="0.0"
     inkscape:pagecheckerboard="0"
     inkscape:deskcolor="#d1d1d1"
     inkscape:zoom="8.0520833"
     inkscape:cx="23.782665"
     inkscape:cy="21.050453"
     inkscape:window-width="1920"
     inkscape:window-height="996"
     inkscape:window-x="0"
     inkscape:window-y="0"
     inkscape:window-maximized="1"
     inkscape:current-layer="svg4" />
  <style
     id="current-color-scheme"
     type="text/css">.ColorScheme-Text {
    color:#232629;
  }</style>
  <path
     id="lightning"
     d="m 25.415,22 -3.4145,9 h 3.2442 l -5.2442,13 h 0.3171 l 9.6829,-15 h -3.841 l 3.841,-7 z"
     fill="currentColor"
     style="color:#232629;stroke-linejoin:bevel;fill:#f1f3f3;fill-opacity:1" />
  <path
     d="m 33,37 -3,3 3,3 3,-3 z"
     class="ColorScheme-Text"
     fill="currentColor"
     id="path1"
     style="stroke-linejoin:bevel;fill:#f1f3f3;fill-opacity:1" />
  <path
     d="m 17,32 -3,3 3,3 3,-3 z"
     class="ColorScheme-Text"
     fill="currentColor"
     id="path2"
     style="stroke-linejoin:bevel;fill:#f1f3f3;fill-opacity:1" />
  <path
     d="m 9,38 a 2,2.0711 0 0 0 0,2.9289 2,2.0711 0 0 0 2.8284,0 2,2.0711 0 0 0 0,-2.9289 l -1.4142,-1.4645 z"
     stroke-width="1.0176"
     class="ColorScheme-Text"
     fill="currentColor"
     id="path3"
     style="stroke-linejoin:bevel;fill:#f1f3f3;fill-opacity:1" />
  <path
     d="m 37,34 a 2,2.0711 0 0 0 0,2.9289 2,2.0711 0 0 0 2.8284,0 2,2.0711 0 0 0 0,-2.9289 l -1.4142,-1.4645 z"
     stroke-width="1.0176"
     class="ColorScheme-Text"
     fill="currentColor"
     id="path4"
     style="stroke-linejoin:bevel;fill:#f1f3f3;fill-opacity:1" />
  <path
     id="cloud"
     d="m 31,30 h 5 A 7,7 0 0 0 36.95,16.08 9,9 0 0 0 28,8 9,9 0 0 0 19.64,20.31 5,5 0 1 0 18.01,30 h 2"
     fill="none"
     stroke="currentColor"
     stroke-width="2"
     style="color:#232629;stroke-linejoin:bevel;stroke:#f1f3f3;stroke-opacity:1" />
  <rect
     width="48"
     height="48"
     fill="none"
     id="rect4"
     x="0"
     y="0"
     style="color:#232629;stroke-linejoin:bevel" />
</svg>
