<?xml version="1.0" encoding="UTF-8" standalone="no"?>
<svg
   width="48"
   height="48"
   version="1.1"
   id="svg2"
   sodipodi:docname="weather-many-clouds-wind-symbolic.svg"
   inkscape:version="1.4 (unknown)"
   xmlns:inkscape="http://www.inkscape.org/namespaces/inkscape"
   xmlns:sodipodi="http://sodipodi.sourceforge.net/DTD/sodipodi-0.dtd"
   xmlns="http://www.w3.org/2000/svg"
   xmlns:svg="http://www.w3.org/2000/svg">
  <defs
     id="defs2" />
  <sodipodi:namedview
     id="namedview2"
     pagecolor="#ffffff"
     bordercolor="#000000"
     borderopacity="0.25"
     inkscape:showpageshadow="2"
     inkscape:pageopacity="0.0"
     inkscape:pagecheckerboard="0"
     inkscape:deskcolor="#d1d1d1"
     inkscape:zoom="8.0520833"
     inkscape:cx="37.443726"
     inkscape:cy="32.72445"
     inkscape:window-width="1920"
     inkscape:window-height="996"
     inkscape:window-x="0"
     inkscape:window-y="0"
     inkscape:window-maximized="1"
     inkscape:current-layer="svg2" />
  <style
     id="current-color-scheme"
     type="text/css">
  .ColorScheme-Text {
    color:#232629;
  }
 </style>
  <path
     id="cloud"
     d="m 34,39 h 2 a 7,7 0 0 0 0.95,-13.92 h -3 A 9,9 0 0 0 25,17 9,9 0 0 0 16.64,29.31 5,5 0 1 0 15.01,39 h 1"
     style="color:#232629;fill:none;stroke:#f1f2f3;stroke-width:2;stroke-linejoin:bevel;stroke-opacity:1" />
  <path
     id="wind1"
     d="M 18,32 H 29 A 3,3 0 1 0 26,29"
     style="color:#232629;fill:none;stroke:#f2f3f4;stroke-width:2;stroke-linejoin:bevel;stroke-opacity:1" />
  <path
     id="wind2"
     d="M 15,35 H 37 A 3,3 0 1 0 34,32"
     style="color:#232629;fill:none;stroke:#f2f3f4;stroke-width:2;stroke-linejoin:bevel;stroke-opacity:1" />
  <path
     id="wind3"
     d="m 17,38 h 12 a 3,3 0 1 1 -3,3"
     style="color:#232629;fill:none;stroke:#f2f3f4;stroke-width:2;stroke-linejoin:bevel;stroke-opacity:1" />
  <path
     d="m 19,12 c 0,0 2.5,-3 6,-3 h 7.5 c 1.5,0 5.5,2 5.5,6 5.8099,0.82999 6.4532,7.1711 2.7875,9.8749 -0.75085,0.55383 -1.3098,0.71247 -2.4149,0.88248"
     id="path1"
     style="color:#232629;fill:none;stroke:#f1f2f4;stroke-width:2;stroke-linejoin:bevel;stroke-opacity:1" />
  <path
     d="m 26,17 v -0.57812 c 0,-2.493 -2.007,-4.5 -4.5,-4.5 h -6 c -2.493,0 -4.5,2.007 -4.5,4.5 v 0.5 H 9 c -3.878,0 -7,3.122 -7,7 0,3.878 3.122,7 7,7 h 2.5"
     id="path2"
     style="color:#232629;fill:none;stroke:#f1f2f3;stroke-width:2;stroke-linejoin:bevel;stroke-opacity:1" />
  <rect
     width="48"
     height="48"
     fill="none"
     stroke="none"
     id="rect2"
     x="0"
     y="0"
     style="color:#232629;stroke-width:2;stroke-linejoin:bevel" />
</svg>
