<?xml version="1.0" encoding="UTF-8" standalone="no"?>
<svg
   width="48"
   height="48"
   version="1.1"
   id="svg2"
   sodipodi:docname="weather-few-clouds-wind-night-symbolic.svg"
   inkscape:version="1.4 (unknown)"
   xmlns:inkscape="http://www.inkscape.org/namespaces/inkscape"
   xmlns:sodipodi="http://sodipodi.sourceforge.net/DTD/sodipodi-0.dtd"
   xmlns="http://www.w3.org/2000/svg"
   xmlns:svg="http://www.w3.org/2000/svg">
  <defs
     id="defs2" />
  <sodipodi:namedview
     id="namedview2"
     pagecolor="#ffffff"
     bordercolor="#000000"
     borderopacity="0.25"
     inkscape:showpageshadow="2"
     inkscape:pageopacity="0.0"
     inkscape:pagecheckerboard="0"
     inkscape:deskcolor="#d1d1d1"
     inkscape:zoom="6.6666667"
     inkscape:cx="27.525"
     inkscape:cy="49.275"
     inkscape:window-width="1920"
     inkscape:window-height="996"
     inkscape:window-x="0"
     inkscape:window-y="0"
     inkscape:window-maximized="1"
     inkscape:current-layer="svg2" />
  <style
     id="current-color-scheme"
     type="text/css">
  .ColorScheme-Text {
    color:#232629;
  }
  </style>
  <path
     class="ColorScheme-Text"
     d="M 19.4,31 A 13,13 0 0 1 15.5,19 m -5.4,0 a 15,15 0 0 0 8.3,18.9 M 16.23,11 a 13,13 0 0 1 5.9,-2 13,13 0 0 0 -3.6,3"
     stroke="currentColor"
     stroke-width="2"
     id="path1"
     style="fill:none;stroke-linejoin:bevel;stroke:#f1f3f3;stroke-opacity:1" />
  <rect
     x="5"
     y="11"
     width="15"
     height="8"
     rx="4.5"
     ry="4.5"
     stroke="currentColor"
     stroke-width="2"
     id="rect1"
     style="color:#232629;fill:none;stroke-linejoin:bevel;stroke:#f1f3f3;stroke-opacity:1" />
  <path
     id="wind1"
     class="ColorScheme-Text"
     d="M 22,32 H 33 A 3,3 0 1 0 30,29"
     stroke="currentColor"
     stroke-width="2"
     fill="none"
     style="stroke-linejoin:bevel;stroke:#f1f2f4;stroke-opacity:1" />
  <path
     id="wind2"
     class="ColorScheme-Text"
     d="M 19,35 H 41 A 3,3 0 1 0 38,32"
     stroke="currentColor"
     stroke-width="2"
     fill="none"
     style="stroke-linejoin:bevel;stroke:#f1f2f4;stroke-opacity:1" />
  <path
     id="wind3"
     class="ColorScheme-Text"
     d="m 21,38 h 12 a 3,3 0 1 1 -3,3"
     stroke="currentColor"
     stroke-width="2"
     fill="none"
     style="stroke-linejoin:bevel;stroke:#f1f2f4;stroke-opacity:1" />
  <rect
     width="48"
     height="48"
     id="rect2"
     x="0"
     y="0"
     style="color:#232629;fill:none;stroke-linejoin:bevel" />
</svg>
