<?xml version="1.0" encoding="UTF-8" standalone="no"?>
<svg
   version="1.1"
   viewBox="0 0 48 48"
   width="48"
   height="48"
   id="svg3"
   sodipodi:docname="weather-many-clouds-symbolic.svg"
   inkscape:version="1.4 (unknown)"
   xmlns:inkscape="http://www.inkscape.org/namespaces/inkscape"
   xmlns:sodipodi="http://sodipodi.sourceforge.net/DTD/sodipodi-0.dtd"
   xmlns="http://www.w3.org/2000/svg"
   xmlns:svg="http://www.w3.org/2000/svg">
  <defs
     id="defs3" />
  <sodipodi:namedview
     id="namedview3"
     pagecolor="#ffffff"
     bordercolor="#000000"
     borderopacity="0.25"
     inkscape:showpageshadow="2"
     inkscape:pageopacity="0.0"
     inkscape:pagecheckerboard="0"
     inkscape:deskcolor="#d1d1d1"
     inkscape:zoom="8.0520833"
     inkscape:cx="26.266494"
     inkscape:cy="15.337646"
     inkscape:window-width="1920"
     inkscape:window-height="996"
     inkscape:window-x="0"
     inkscape:window-y="0"
     inkscape:window-maximized="1"
     inkscape:current-layer="svg3" />
  <style
     id="current-color-scheme"
     type="text/css">.ColorScheme-Text {
    color:#232629;
  }</style>
  <path
     d="m 28,16 v -0.57812 c 0,-2.493 -2.007,-4.5 -4.5,-4.5 h -6 c -2.493,0 -4.5,2.007 -4.5,4.5 v 0.5 h -2 c -3.878,0 -7,3.122 -7,7 0,3.878 3.122,7 7,7 h 2.5"
     id="path1"
     style="color:#232629;fill:none;stroke:#f1f3f3;stroke-width:2;stroke-linejoin:bevel;stroke-opacity:1" />
  <path
     d="m 28,16 a 10.01,10.01 0 0 1 9.8497,8.2309 8.008,8.008 0 0 1 6.1663,7.7851 8.008,8.008 0 0 1 -8.008,8.008 H 17.99 A 6.006,6.006 0 0 1 11.984,34.018 6.006,6.006 0 0 1 17.99,28.012 6.006,6.006 0 0 1 18.20506,28.0241 10.01,10.01 0 0 1 17.99,26.0104 10.01,10.01 0 0 1 28,16.0004 Z"
     fill="currentColor"
     id="path2"
     style="color:#232629;stroke:#f2f2f2;stroke-width:2;stroke-linejoin:bevel;stroke-opacity:1;fill:#f1f3f3;fill-opacity:1" />
  <path
     d="m 20,11 c 0,0 2.5,-3 6,-3 h 7.5 c 1.5,0 5.5,2 5.5,6 5.8099,0.82999 6.4532,7.1711 2.7875,9.8749 -0.75085,0.55383 -1.3098,0.71247 -2.4149,0.88248"
     id="path3"
     style="color:#232629;fill:none;stroke:#f1f3f3;stroke-width:2;stroke-linejoin:bevel;stroke-opacity:1" />
</svg>
