<?xml version="1.0" encoding="UTF-8" standalone="no"?>
<svg
   width="48"
   height="48"
   version="1.1"
   id="svg7"
   sodipodi:docname="weather-freezing-scattered-rain-day-symbolic.svg"
   inkscape:version="1.4 (unknown)"
   xmlns:inkscape="http://www.inkscape.org/namespaces/inkscape"
   xmlns:sodipodi="http://sodipodi.sourceforge.net/DTD/sodipodi-0.dtd"
   xmlns="http://www.w3.org/2000/svg"
   xmlns:svg="http://www.w3.org/2000/svg">
  <defs
     id="defs7" />
  <sodipodi:namedview
     id="namedview7"
     pagecolor="#ffffff"
     bordercolor="#000000"
     borderopacity="0.25"
     inkscape:showpageshadow="2"
     inkscape:pageopacity="0.0"
     inkscape:pagecheckerboard="0"
     inkscape:deskcolor="#d1d1d1"
     inkscape:zoom="9.4280904"
     inkscape:cx="17.766058"
     inkscape:cy="31.02431"
     inkscape:window-width="1920"
     inkscape:window-height="996"
     inkscape:window-x="0"
     inkscape:window-y="0"
     inkscape:window-maximized="1"
     inkscape:current-layer="svg7" />
  <style
     id="current-color-scheme"
     type="text/css">.ColorScheme-Text {
    color:#232629;
  }</style>
  <path
     id="line12"
     class="ColorScheme-Text"
     d="M 4,18 H 9"
     fill="none"
     stroke="currentColor"
     stroke-width="2"
     style="stroke-linejoin:bevel;fill:#f0f1f2;fill-opacity:1;stroke:#f1f2f4;stroke-opacity:1" />
  <use
     transform="rotate(36,20,19)"
     href="#line12"
     id="use1"
     style="color:#232629;fill:#f0f1f2;stroke-linejoin:bevel;fill-opacity:1;stroke:#f1f2f4;stroke-opacity:1" />
  <use
     transform="rotate(72,20,19)"
     href="#line12"
     id="use2"
     style="color:#232629;fill:#232629;stroke-linejoin:bevel" />
  <use
     transform="rotate(108,20,19)"
     href="#line12"
     id="use3"
     style="color:#232629;fill:#232629;stroke-linejoin:bevel" />
  <use
     transform="rotate(-36,20,19)"
     href="#line12"
     id="use4"
     style="color:#232629;fill:#f0f1f2;stroke-linejoin:bevel;fill-opacity:1;stroke:#f1f2f4;stroke-opacity:1" />
  <path
     id="path3"
     d="M 12.2,23.5 A 9,9 0 0 1 22,10.2"
     stroke="currentColor"
     stroke-width="2"
     fill="none"
     style="color:#232629;stroke:#f1f2f4;stroke-linejoin:bevel;stroke-opacity:1" />
  <path
     id="cloud"
     d="M 35.95,17.08 A 9,9 0 0 0 27,9 9,9 0 0 0 18.64,21.31 5,5 0 1 0 17.01,31 h 18 a 7,7 0 0 0 0.95,-13.92 z"
     fill="none"
     stroke="currentColor"
     stroke-width="2"
     style="color:#232629;stroke:#f1f3f3;stroke-linejoin:bevel;stroke-opacity:1" />
  <path
     d="m 21,33 -3,3 3,3 3,-3 z"
     id="path4"
     style="color:#232629;fill:#f0f1f2;stroke-linejoin:bevel;fill-opacity:1" />
  <path
     d="m 31,39 -3,3 3,3 3,-3 z"
     id="path5"
     style="color:#232629;fill:#f0f1f2;stroke-linejoin:bevel;fill-opacity:1" />
  <path
     d="m 32.59,35 a 2,2 0 0 0 0,2.8284 2,2 0 0 0 2.8284,0 2,2 0 0 0 0,-2.8284 l -1.4142,-1.4142 z"
     id="path6"
     style="color:#232629;fill:#f0f1f2;stroke-linejoin:bevel;fill-opacity:1" />
  <path
     d="m 15.59,41 a 2,2 0 0 0 0,2.8284 2,2 0 0 0 2.8284,0 2,2 0 0 0 0,-2.8284 l -1.4142,-1.4142 z"
     id="path7"
     style="color:#232629;fill:#f0f1f2;stroke-linejoin:bevel;fill-opacity:1" />
  <rect
     width="48"
     height="48"
     fill="none"
     id="rect7"
     x="0"
     y="0"
     style="color:#232629;stroke-linejoin:bevel" />
</svg>
