<?xml version="1.0" encoding="UTF-8" standalone="no"?>
<svg
   width="48"
   height="48"
   version="1.1"
   id="svg2"
   sodipodi:docname="weather-snow-storm-symbolic.svg"
   inkscape:version="1.4 (unknown)"
   xmlns:inkscape="http://www.inkscape.org/namespaces/inkscape"
   xmlns:sodipodi="http://sodipodi.sourceforge.net/DTD/sodipodi-0.dtd"
   xmlns="http://www.w3.org/2000/svg"
   xmlns:svg="http://www.w3.org/2000/svg">
  <defs
     id="defs2" />
  <sodipodi:namedview
     id="namedview2"
     pagecolor="#ffffff"
     bordercolor="#000000"
     borderopacity="0.25"
     inkscape:showpageshadow="2"
     inkscape:pageopacity="0.0"
     inkscape:pagecheckerboard="0"
     inkscape:deskcolor="#d1d1d1"
     inkscape:zoom="6.6666667"
     inkscape:cx="24.525"
     inkscape:cy="25.125"
     inkscape:window-width="1920"
     inkscape:window-height="996"
     inkscape:window-x="0"
     inkscape:window-y="0"
     inkscape:window-maximized="1"
     inkscape:current-layer="svg2" />
  <style
     id="current-color-scheme"
     type="text/css">.ColorScheme-Text {
    color:#232629;
  }</style>
  <path
     d="m 20,11 c 0,0 2.5,-3 6,-3 h 7.5 c 1.5,0 5.5,2 5.5,6 5.8099,0.82999 6.4532,7.1711 2.7875,9.8749 -0.75085,0.55383 -1.3098,0.71247 -2.4149,0.88248"
     stroke-width="2"
     fill="none"
     stroke="currentColor"
     id="path1"
     style="color:#232629;stroke-linejoin:bevel;stroke:#f2f3f4;stroke-opacity:1" />
  <path
     d="m 28,16 v -0.57812 c 0,-2.493 -2.007,-4.5 -4.5,-4.5 h -6 c -2.493,0 -4.5,2.007 -4.5,4.5 v 0.5 h -2 c -3.878,0 -7,3.122 -7,7 0,3.878 3.122,7 7,7 h 2.5"
     stroke-width="2"
     fill="none"
     stroke="currentColor"
     id="path2"
     style="color:#232629;stroke-linejoin:bevel;stroke:#f1f2f3;stroke-opacity:1" />
  <path
     id="cloud"
     d="m 26.281,9 c -5.5,0 -10,4.5 -10,10 0,0.67593 0,1.3498 0.21463,2 H 16.281 c -3.3137,0 -6,2.6857 -6,6 0,3 2.1722,5.7078 5.2371,6 h 4.344 l 4.1726,-11 h 9.344 l -3.8399,7 h 4.158 l -2.615,4 h 3.2137 c 4.418,-0.04657 7.9096,-3.3519 7.9854,-7.9536 0,-3.7055 -2.4854,-6.9696 -6.1454,-7.822 -0.85988,-4.7586 -5,-8.2199 -9.84,-8.2204 z"
     fill="currentColor"
     stroke="none"
     style="color:#232629;stroke-linejoin:bevel;fill:#f1f2f3;fill-opacity:1" />
  <path
     id="lightning"
     d="m 25.415,24 -3.4145,9 h 3.2442 l -5.2442,13 h 0.3171 l 9.6829,-15 h -3.841 l 3.841,-7 z"
     fill="currentColor"
     style="color:#232629;stroke-linejoin:bevel;fill:#f1f2f3;fill-opacity:1" />
  <path
     id="snowflake1"
     d="m 11,33.5 0.86052,1.5 h 1.7376 l -0.90486,1.5 0.90486,1.5 h -1.7284 l -0.86965,1.4937 -0.84804,-1.5 h -1.75 l 0.90485,-1.5 -0.90485,-1.5 h 1.7333 z"
     style="color:#232629;fill:#f1f2f3;stroke-linejoin:bevel;fill-opacity:1" />
  <use
     id="use5"
     transform="translate(8)"
     href="#snowflake1"
     style="color:#232629;fill:#f1f2f3;stroke-linejoin:bevel;fill-opacity:1" />
  <use
     id="use6"
     transform="translate(22)"
     href="#snowflake1"
     style="color:#232629;fill:#f1f2f3;stroke-linejoin:bevel;fill-opacity:1" />
  <use
     id="use7"
     transform="translate(30)"
     href="#snowflake1"
     style="color:#232629;fill:#f1f2f3;stroke-linejoin:bevel;fill-opacity:1" />
  <use
     id="use8"
     transform="translate(-4,5.5)"
     href="#snowflake1"
     style="color:#232629;fill:#f1f2f3;stroke-linejoin:bevel;fill-opacity:1" />
  <use
     id="use9"
     transform="translate(4,5.5)"
     href="#snowflake1"
     style="color:#232629;fill:#f1f2f3;stroke-linejoin:bevel;fill-opacity:1" />
  <use
     id="use10"
     transform="translate(18,5.5)"
     href="#snowflake1"
     style="color:#232629;fill:#f1f2f3;stroke-linejoin:bevel;fill-opacity:1" />
  <use
     id="use11"
     transform="translate(26,5.5)"
     href="#snowflake1"
     style="color:#232629;fill:#f1f2f3;stroke-linejoin:bevel;fill-opacity:1" />
  <rect
     width="48"
     height="48"
     fill="none"
     id="rect2"
     x="0"
     y="0"
     style="color:#232629;stroke-linejoin:bevel" />
</svg>
