<?xml version="1.0" encoding="UTF-8" standalone="no"?>
<svg
   width="48"
   height="48"
   version="1.1"
   id="svg8"
   sodipodi:docname="weather-freezing-rain-symbolic.svg"
   inkscape:version="1.4 (unknown)"
   xmlns:inkscape="http://www.inkscape.org/namespaces/inkscape"
   xmlns:sodipodi="http://sodipodi.sourceforge.net/DTD/sodipodi-0.dtd"
   xmlns="http://www.w3.org/2000/svg"
   xmlns:svg="http://www.w3.org/2000/svg">
  <defs
     id="defs8" />
  <sodipodi:namedview
     id="namedview8"
     pagecolor="#ffffff"
     bordercolor="#000000"
     borderopacity="0.25"
     inkscape:showpageshadow="2"
     inkscape:pageopacity="0.0"
     inkscape:pagecheckerboard="0"
     inkscape:deskcolor="#d1d1d1"
     inkscape:zoom="8.0520833"
     inkscape:cx="26.266494"
     inkscape:cy="26.514877"
     inkscape:window-width="1920"
     inkscape:window-height="996"
     inkscape:window-x="0"
     inkscape:window-y="0"
     inkscape:window-maximized="1"
     inkscape:current-layer="svg8" />
  <style
     id="current-color-scheme"
     type="text/css">.ColorScheme-Text {
    color:#232629;
  }</style>
  <path
     id="cloud"
     d="M 32.95,17.08 A 9,9 0 0 0 24,9 9,9 0 0 0 15.64,21.31 5,5 0 1 0 14.01,31 h 18 a 7,7 0 0 0 0.95,-13.92 z"
     fill="none"
     stroke="currentColor"
     stroke-width="2"
     style="color:#232629;stroke:#f1f2f3;stroke-linejoin:bevel;stroke-opacity:1" />
  <path
     d="m 12,33 -3,3 3,3 3,-3 z"
     id="path1"
     style="color:#232629;fill:#f2f2f3;fill-opacity:1;stroke-linejoin:bevel" />
  <path
     d="m 28,33 -3,3 3,3 3,-3 z"
     id="path2"
     style="color:#232629;fill:#f2f2f3;stroke-linejoin:bevel;fill-opacity:1" />
  <path
     d="m 16,39 -3,3 3,3 3,-3 z"
     id="path3"
     style="color:#232629;fill:#f2f2f3;stroke-linejoin:bevel;fill-opacity:1" />
  <path
     d="m 32,39 -3,3 3,3 3,-3 z"
     id="path4"
     style="color:#232629;fill:#f2f2f3;stroke-linejoin:bevel;fill-opacity:1" />
  <path
     d="m 22.59,40.59 a 2,2 0 0 0 0,2.8284 2,2 0 0 0 2.8284,0 2,2 0 0 0 0,-2.8284 l -1.4142,-1.4142 z"
     id="path5"
     style="color:#232629;fill:#f2f2f3;stroke-linejoin:bevel;fill-opacity:1" />
  <path
     d="m 6.59,40.59 a 2,2 0 0 0 0,2.8284 2,2 0 0 0 2.8284,0 2,2 0 0 0 0,-2.8284 L 8.0042,39.1758 Z"
     id="path6"
     style="color:#232629;fill:#f2f2f3;stroke-linejoin:bevel;fill-opacity:1" />
  <path
     d="m 34.59,34.59 a 2,2 0 0 0 0,2.8284 2,2 0 0 0 2.8284,0 2,2 0 0 0 0,-2.8284 l -1.4142,-1.4142 z"
     id="path7"
     style="color:#232629;fill:#f2f2f3;stroke-linejoin:bevel;fill-opacity:1" />
  <path
     d="m 18.59,34.59 a 2,2 0 0 0 0,2.8284 2,2 0 0 0 2.8284,0 2,2 0 0 0 0,-2.8284 l -1.4142,-1.4142 z"
     id="path8"
     style="color:#232629;fill:#f2f2f3;stroke-linejoin:bevel;fill-opacity:1" />
  <rect
     width="48"
     height="48"
     fill="none"
     id="rect8"
     x="0"
     y="0"
     style="color:#232629;stroke-linejoin:bevel" />
</svg>
