<?xml version="1.0" encoding="UTF-8" standalone="no"?>
<svg
   viewBox="0 0 24 24"
   version="1.1"
   id="svg6"
   sodipodi:docname="weather-clouds-wind.svg"
   inkscape:version="1.4 (unknown)"
   xmlns:inkscape="http://www.inkscape.org/namespaces/inkscape"
   xmlns:sodipodi="http://sodipodi.sourceforge.net/DTD/sodipodi-0.dtd"
   xmlns:xlink="http://www.w3.org/1999/xlink"
   xmlns="http://www.w3.org/2000/svg"
   xmlns:svg="http://www.w3.org/2000/svg">
  <defs
     id="defs10">
    <linearGradient
       id="paint0_linear_2_336"
       x1="511.961"
       y1="493.98901"
       x2="586.15198"
       y2="638.22699"
       gradientUnits="userSpaceOnUse">
      <stop
         offset="0.0001"
         stop-color="#D6C2FF"
         id="stop31" />
      <stop
         offset="1"
         stop-color="#7E2FFF"
         id="stop32" />
    </linearGradient>
    <filter
       id="filter0_dd_2_336"
       x="412.09799"
       y="438.41199"
       width="264.22"
       height="264.41"
       filterUnits="userSpaceOnUse"
       color-interpolation-filters="sRGB">
      <feFlood
         flood-opacity="0"
         result="BackgroundImageFix"
         id="feFlood11" />
      <feColorMatrix
         in="SourceAlpha"
         type="matrix"
         values="0 0 0 0 0 0 0 0 0 0 0 0 0 0 0 0 0 0 127 0"
         result="hardAlpha"
         id="feColorMatrix11" />
      <feOffset
         dx="-21"
         dy="15"
         id="feOffset11" />
      <feGaussianBlur
         stdDeviation="25"
         id="feGaussianBlur11" />
      <feComposite
         in2="hardAlpha"
         operator="out"
         id="feComposite11" />
      <feColorMatrix
         type="matrix"
         values="0 0 0 0 0.113438 0 0 0 0 0.148981 0 0 0 0 0.275 0 0 0 0.25 0"
         id="feColorMatrix12" />
      <feBlend
         mode="normal"
         in2="BackgroundImageFix"
         result="effect1_dropShadow_2_336"
         id="feBlend12" />
      <feColorMatrix
         in="SourceAlpha"
         type="matrix"
         values="0 0 0 0 0 0 0 0 0 0 0 0 0 0 0 0 0 0 127 0"
         result="hardAlpha"
         id="feColorMatrix13" />
      <feOffset
         id="feOffset13" />
      <feGaussianBlur
         stdDeviation="19"
         id="feGaussianBlur13" />
      <feComposite
         in2="hardAlpha"
         operator="out"
         id="feComposite13" />
      <feColorMatrix
         type="matrix"
         values="0 0 0 0 0.619608 0 0 0 0 0.423529 0 0 0 0 1 0 0 0 0.4 0"
         id="feColorMatrix14" />
      <feBlend
         mode="normal"
         in2="effect1_dropShadow_2_336"
         result="effect2_dropShadow_2_336"
         id="feBlend14" />
      <feBlend
         mode="normal"
         in="SourceGraphic"
         in2="effect2_dropShadow_2_336"
         result="shape"
         id="feBlend15" />
    </filter>
    <linearGradient
       id="paint1_linear_2_336"
       x1="520.03802"
       y1="414.677"
       x2="566.18298"
       y2="603.979"
       gradientUnits="userSpaceOnUse">
      <stop
         stop-color="white"
         id="stop33" />
      <stop
         offset="1"
         stop-color="white"
         stop-opacity="0"
         id="stop34" />
    </linearGradient>
    <mask
       id="path-1-inside-1_2_336"
       fill="#ffffff">
      <path
         fill-rule="evenodd"
         clip-rule="evenodd"
         d="m 552.339,476.456 c 3.453,-0.512 5.514,3.562 3.604,6.484 -12.939,19.798 -15.162,45.796 -3.57,68.331 15.295,29.736 49.483,43.411 80.363,33.906 3.339,-1.028 6.685,2.084 5.234,5.263 -7.299,15.984 -19.821,29.722 -36.659,38.383 -39.83,20.488 -88.728,4.807 -109.215,-35.023 -20.488,-39.83 -4.807,-88.727 35.023,-109.215 8.135,-4.184 16.648,-6.86 25.22,-8.129 z"
         id="path1" />
    </mask>
    <filter
       id="filter5"
       x="412.09799"
       y="438.41199"
       width="264.22"
       height="264.41"
       filterUnits="userSpaceOnUse"
       color-interpolation-filters="sRGB">
      <feFlood
         flood-opacity="0"
         result="BackgroundImageFix"
         id="feFlood1" />
      <feColorMatrix
         in="SourceAlpha"
         type="matrix"
         values="0 0 0 0 0 0 0 0 0 0 0 0 0 0 0 0 0 0 127 0"
         result="hardAlpha"
         id="feColorMatrix1" />
      <feOffset
         dx="-21"
         dy="15"
         id="feOffset1" />
      <feGaussianBlur
         stdDeviation="25"
         id="feGaussianBlur1" />
      <feComposite
         in2="hardAlpha"
         operator="out"
         id="feComposite1" />
      <feColorMatrix
         type="matrix"
         values="0 0 0 0 0.113438 0 0 0 0 0.148981 0 0 0 0 0.275 0 0 0 0.25 0"
         id="feColorMatrix2" />
      <feBlend
         mode="normal"
         in2="BackgroundImageFix"
         result="effect1_dropShadow_2_336"
         id="feBlend2" />
      <feColorMatrix
         in="SourceAlpha"
         type="matrix"
         values="0 0 0 0 0 0 0 0 0 0 0 0 0 0 0 0 0 0 127 0"
         result="hardAlpha"
         id="feColorMatrix3" />
      <feOffset
         id="feOffset3" />
      <feGaussianBlur
         stdDeviation="19"
         id="feGaussianBlur3" />
      <feComposite
         in2="hardAlpha"
         operator="out"
         id="feComposite3" />
      <feColorMatrix
         type="matrix"
         values="0 0 0 0 0.619608 0 0 0 0 0.423529 0 0 0 0 1 0 0 0 0.4 0"
         id="feColorMatrix4" />
      <feBlend
         mode="normal"
         in2="effect1_dropShadow_2_336"
         result="effect2_dropShadow_2_336"
         id="feBlend4" />
      <feBlend
         mode="normal"
         in="SourceGraphic"
         in2="effect2_dropShadow_2_336"
         result="shape"
         id="feBlend5" />
    </filter>
    <linearGradient
       id="paint2_linear_2_336"
       x1="587.13702"
       y1="473.01599"
       x2="587.13702"
       y2="511.01599"
       gradientUnits="userSpaceOnUse">
      <stop
         offset="0.0001"
         stop-color="#D6C2FF"
         id="stop35" />
      <stop
         offset="1"
         stop-color="#7E2FFF"
         id="stop36" />
    </linearGradient>
    <filter
       id="filter1_dd_2_336"
       x="503.073"
       y="442.75299"
       width="127.855"
       height="127.855"
       filterUnits="userSpaceOnUse"
       color-interpolation-filters="sRGB">
      <feFlood
         flood-opacity="0"
         result="BackgroundImageFix"
         id="feFlood15" />
      <feColorMatrix
         in="SourceAlpha"
         type="matrix"
         values="0 0 0 0 0 0 0 0 0 0 0 0 0 0 0 0 0 0 127 0"
         result="hardAlpha"
         id="feColorMatrix15" />
      <feOffset
         dx="-21"
         dy="15"
         id="feOffset15" />
      <feGaussianBlur
         stdDeviation="25"
         id="feGaussianBlur15" />
      <feComposite
         in2="hardAlpha"
         operator="out"
         id="feComposite15" />
      <feColorMatrix
         type="matrix"
         values="0 0 0 0 0.113438 0 0 0 0 0.148981 0 0 0 0 0.275 0 0 0 0.25 0"
         id="feColorMatrix16" />
      <feBlend
         mode="normal"
         in2="BackgroundImageFix"
         result="effect1_dropShadow_2_336"
         id="feBlend16" />
      <feColorMatrix
         in="SourceAlpha"
         type="matrix"
         values="0 0 0 0 0 0 0 0 0 0 0 0 0 0 0 0 0 0 127 0"
         result="hardAlpha"
         id="feColorMatrix17" />
      <feOffset
         id="feOffset17" />
      <feGaussianBlur
         stdDeviation="9"
         id="feGaussianBlur17" />
      <feComposite
         in2="hardAlpha"
         operator="out"
         id="feComposite17" />
      <feColorMatrix
         type="matrix"
         values="0 0 0 0 0.607843 0 0 0 0 0.392157 0 0 0 0 1 0 0 0 0.56 0"
         id="feColorMatrix18" />
      <feBlend
         mode="normal"
         in2="effect1_dropShadow_2_336"
         result="effect2_dropShadow_2_336"
         id="feBlend18" />
      <feBlend
         mode="normal"
         in="SourceGraphic"
         in2="effect2_dropShadow_2_336"
         result="shape"
         id="feBlend19" />
    </filter>
    <linearGradient
       id="paint3_linear_2_336"
       x1="588"
       y1="472.681"
       x2="588"
       y2="496.181"
       gradientUnits="userSpaceOnUse">
      <stop
         stop-color="white"
         id="stop37" />
      <stop
         offset="1"
         stop-color="white"
         stop-opacity="0"
         id="stop38" />
    </linearGradient>
    <filter
       id="filter9"
       x="503.073"
       y="442.75299"
       width="127.855"
       height="127.855"
       filterUnits="userSpaceOnUse"
       color-interpolation-filters="sRGB">
      <feFlood
         flood-opacity="0"
         result="BackgroundImageFix"
         id="feFlood5" />
      <feColorMatrix
         in="SourceAlpha"
         type="matrix"
         values="0 0 0 0 0 0 0 0 0 0 0 0 0 0 0 0 0 0 127 0"
         result="hardAlpha"
         id="feColorMatrix5" />
      <feOffset
         dx="-21"
         dy="15"
         id="feOffset5" />
      <feGaussianBlur
         stdDeviation="25"
         id="feGaussianBlur5" />
      <feComposite
         in2="hardAlpha"
         operator="out"
         id="feComposite5" />
      <feColorMatrix
         type="matrix"
         values="0 0 0 0 0.113438 0 0 0 0 0.148981 0 0 0 0 0.275 0 0 0 0.25 0"
         id="feColorMatrix6" />
      <feBlend
         mode="normal"
         in2="BackgroundImageFix"
         result="effect1_dropShadow_2_336"
         id="feBlend6" />
      <feColorMatrix
         in="SourceAlpha"
         type="matrix"
         values="0 0 0 0 0 0 0 0 0 0 0 0 0 0 0 0 0 0 127 0"
         result="hardAlpha"
         id="feColorMatrix7" />
      <feOffset
         id="feOffset7" />
      <feGaussianBlur
         stdDeviation="9"
         id="feGaussianBlur7" />
      <feComposite
         in2="hardAlpha"
         operator="out"
         id="feComposite7" />
      <feColorMatrix
         type="matrix"
         values="0 0 0 0 0.607843 0 0 0 0 0.392157 0 0 0 0 1 0 0 0 0.56 0"
         id="feColorMatrix8" />
      <feBlend
         mode="normal"
         in2="effect1_dropShadow_2_336"
         result="effect2_dropShadow_2_336"
         id="feBlend8" />
      <feBlend
         mode="normal"
         in="SourceGraphic"
         in2="effect2_dropShadow_2_336"
         result="shape"
         id="feBlend9" />
    </filter>
    <linearGradient
       id="paint4_linear_2_336"
       x1="604"
       y1="522.68103"
       x2="604"
       y2="572.68103"
       gradientUnits="userSpaceOnUse">
      <stop
         stop-color="#FFE600"
         id="stop39" />
      <stop
         offset="1"
         stop-color="#FF7A00"
         id="stop40" />
    </linearGradient>
    <filter
       id="filter2_dd_2_336"
       x="513.073"
       y="492.75299"
       width="139.855"
       height="139.855"
       filterUnits="userSpaceOnUse"
       color-interpolation-filters="sRGB">
      <feFlood
         flood-opacity="0"
         result="BackgroundImageFix"
         id="feFlood19" />
      <feColorMatrix
         in="SourceAlpha"
         type="matrix"
         values="0 0 0 0 0 0 0 0 0 0 0 0 0 0 0 0 0 0 127 0"
         result="hardAlpha"
         id="feColorMatrix19" />
      <feOffset
         dx="-21"
         dy="15"
         id="feOffset19" />
      <feGaussianBlur
         stdDeviation="25"
         id="feGaussianBlur19" />
      <feComposite
         in2="hardAlpha"
         operator="out"
         id="feComposite19" />
      <feColorMatrix
         type="matrix"
         values="0 0 0 0 0.113438 0 0 0 0 0.148981 0 0 0 0 0.275 0 0 0 0.25 0"
         id="feColorMatrix20" />
      <feBlend
         mode="normal"
         in2="BackgroundImageFix"
         result="effect1_dropShadow_2_336"
         id="feBlend20" />
      <feColorMatrix
         in="SourceAlpha"
         type="matrix"
         values="0 0 0 0 0 0 0 0 0 0 0 0 0 0 0 0 0 0 127 0"
         result="hardAlpha"
         id="feColorMatrix21" />
      <feOffset
         id="feOffset21" />
      <feGaussianBlur
         stdDeviation="9"
         id="feGaussianBlur21" />
      <feComposite
         in2="hardAlpha"
         operator="out"
         id="feComposite21" />
      <feColorMatrix
         type="matrix"
         values="0 0 0 0 0.996078 0 0 0 0 0.764706 0 0 0 0 0.0117647 0 0 0 0.47 0"
         id="feColorMatrix22" />
      <feBlend
         mode="normal"
         in2="effect1_dropShadow_2_336"
         result="effect2_dropShadow_2_336"
         id="feBlend22" />
      <feBlend
         mode="normal"
         in="SourceGraphic"
         in2="effect2_dropShadow_2_336"
         result="shape"
         id="feBlend23" />
    </filter>
    <linearGradient
       id="paint5_linear_2_336"
       x1="604"
       y1="522.68103"
       x2="604"
       y2="553.60199"
       gradientUnits="userSpaceOnUse">
      <stop
         stop-color="white"
         id="stop41" />
      <stop
         offset="1"
         stop-color="white"
         stop-opacity="0"
         id="stop42" />
    </linearGradient>
    <filter
       id="filter25"
       x="513.073"
       y="492.75299"
       width="139.855"
       height="139.855"
       filterUnits="userSpaceOnUse"
       color-interpolation-filters="sRGB">
      <feFlood
         flood-opacity="0"
         result="BackgroundImageFix"
         id="feFlood9" />
      <feColorMatrix
         in="SourceAlpha"
         type="matrix"
         values="0 0 0 0 0 0 0 0 0 0 0 0 0 0 0 0 0 0 127 0"
         result="hardAlpha"
         id="feColorMatrix9" />
      <feOffset
         dx="-21"
         dy="15"
         id="feOffset9" />
      <feGaussianBlur
         stdDeviation="25"
         id="feGaussianBlur9" />
      <feComposite
         in2="hardAlpha"
         operator="out"
         id="feComposite9" />
      <feColorMatrix
         type="matrix"
         values="0 0 0 0 0.113438 0 0 0 0 0.148981 0 0 0 0 0.275 0 0 0 0.25 0"
         id="feColorMatrix10" />
      <feBlend
         mode="normal"
         in2="BackgroundImageFix"
         result="effect1_dropShadow_2_336"
         id="feBlend10" />
      <feColorMatrix
         in="SourceAlpha"
         type="matrix"
         values="0 0 0 0 0 0 0 0 0 0 0 0 0 0 0 0 0 0 127 0"
         result="hardAlpha"
         id="feColorMatrix23" />
      <feOffset
         id="feOffset23" />
      <feGaussianBlur
         stdDeviation="9"
         id="feGaussianBlur23" />
      <feComposite
         in2="hardAlpha"
         operator="out"
         id="feComposite23" />
      <feColorMatrix
         type="matrix"
         values="0 0 0 0 0.996078 0 0 0 0 0.764706 0 0 0 0 0.0117647 0 0 0 0.47 0"
         id="feColorMatrix24" />
      <feBlend
         mode="normal"
         in2="effect1_dropShadow_2_336"
         result="effect2_dropShadow_2_336"
         id="feBlend24" />
      <feBlend
         mode="normal"
         in="SourceGraphic"
         in2="effect2_dropShadow_2_336"
         result="shape"
         id="feBlend25" />
    </filter>
    <linearGradient
       id="paint6_linear_2_336"
       x1="655.27301"
       y1="511.96301"
       x2="655.27301"
       y2="543.96301"
       gradientUnits="userSpaceOnUse">
      <stop
         offset="0.0001"
         stop-color="#D6C2FF"
         id="stop43" />
      <stop
         offset="1"
         stop-color="#7E2FFF"
         id="stop44" />
    </linearGradient>
    <filter
       id="filter3_dd_2_336"
       x="574.073"
       y="481.75299"
       width="121.855"
       height="121.855"
       filterUnits="userSpaceOnUse"
       color-interpolation-filters="sRGB">
      <feFlood
         flood-opacity="0"
         result="BackgroundImageFix"
         id="feFlood23" />
      <feColorMatrix
         in="SourceAlpha"
         type="matrix"
         values="0 0 0 0 0 0 0 0 0 0 0 0 0 0 0 0 0 0 127 0"
         result="hardAlpha"
         id="feColorMatrix25" />
      <feOffset
         dx="-21"
         dy="15"
         id="feOffset25" />
      <feGaussianBlur
         stdDeviation="25"
         id="feGaussianBlur25" />
      <feComposite
         in2="hardAlpha"
         operator="out"
         id="feComposite25" />
      <feColorMatrix
         type="matrix"
         values="0 0 0 0 0.113438 0 0 0 0 0.148981 0 0 0 0 0.275 0 0 0 0.25 0"
         id="feColorMatrix26" />
      <feBlend
         mode="normal"
         in2="BackgroundImageFix"
         result="effect1_dropShadow_2_336"
         id="feBlend26" />
      <feColorMatrix
         in="SourceAlpha"
         type="matrix"
         values="0 0 0 0 0 0 0 0 0 0 0 0 0 0 0 0 0 0 127 0"
         result="hardAlpha"
         id="feColorMatrix27" />
      <feOffset
         id="feOffset27" />
      <feGaussianBlur
         stdDeviation="9"
         id="feGaussianBlur27" />
      <feComposite
         in2="hardAlpha"
         operator="out"
         id="feComposite27" />
      <feColorMatrix
         type="matrix"
         values="0 0 0 0 0.607843 0 0 0 0 0.392157 0 0 0 0 1 0 0 0 0.56 0"
         id="feColorMatrix28" />
      <feBlend
         mode="normal"
         in2="effect1_dropShadow_2_336"
         result="effect2_dropShadow_2_336"
         id="feBlend28" />
      <feBlend
         mode="normal"
         in="SourceGraphic"
         in2="effect2_dropShadow_2_336"
         result="shape"
         id="feBlend27" />
    </filter>
    <linearGradient
       id="paint7_linear_2_336"
       x1="656"
       y1="511.681"
       x2="656"
       y2="531.46997"
       gradientUnits="userSpaceOnUse">
      <stop
         stop-color="white"
         id="stop45" />
      <stop
         offset="1"
         stop-color="white"
         stop-opacity="0"
         id="stop46" />
    </linearGradient>
    <filter
       id="filter33"
       x="574.073"
       y="481.75299"
       width="121.855"
       height="121.855"
       filterUnits="userSpaceOnUse"
       color-interpolation-filters="sRGB">
      <feFlood
         flood-opacity="0"
         result="BackgroundImageFix"
         id="feFlood28" />
      <feColorMatrix
         in="SourceAlpha"
         type="matrix"
         values="0 0 0 0 0 0 0 0 0 0 0 0 0 0 0 0 0 0 127 0"
         result="hardAlpha"
         id="feColorMatrix29" />
      <feOffset
         dx="-21"
         dy="15"
         id="feOffset29" />
      <feGaussianBlur
         stdDeviation="25"
         id="feGaussianBlur29" />
      <feComposite
         in2="hardAlpha"
         operator="out"
         id="feComposite29" />
      <feColorMatrix
         type="matrix"
         values="0 0 0 0 0.113438 0 0 0 0 0.148981 0 0 0 0 0.275 0 0 0 0.25 0"
         id="feColorMatrix30" />
      <feBlend
         mode="normal"
         in2="BackgroundImageFix"
         result="effect1_dropShadow_2_336"
         id="feBlend30" />
      <feColorMatrix
         in="SourceAlpha"
         type="matrix"
         values="0 0 0 0 0 0 0 0 0 0 0 0 0 0 0 0 0 0 127 0"
         result="hardAlpha"
         id="feColorMatrix31" />
      <feOffset
         id="feOffset31" />
      <feGaussianBlur
         stdDeviation="9"
         id="feGaussianBlur31" />
      <feComposite
         in2="hardAlpha"
         operator="out"
         id="feComposite31" />
      <feColorMatrix
         type="matrix"
         values="0 0 0 0 0.607843 0 0 0 0 0.392157 0 0 0 0 1 0 0 0 0.56 0"
         id="feColorMatrix32" />
      <feBlend
         mode="normal"
         in2="effect1_dropShadow_2_336"
         result="effect2_dropShadow_2_336"
         id="feBlend32" />
      <feBlend
         mode="normal"
         in="SourceGraphic"
         in2="effect2_dropShadow_2_336"
         result="shape"
         id="feBlend33" />
    </filter>
    <linearGradient
       id="paint8_linear_2_336"
       x1="638"
       y1="464.681"
       x2="638"
       y2="496.681"
       gradientUnits="userSpaceOnUse">
      <stop
         stop-color="#FFE600"
         id="stop47" />
      <stop
         offset="1"
         stop-color="#FF7A00"
         id="stop48" />
    </linearGradient>
    <filter
       id="filter4_dd_2_336"
       x="556.073"
       y="434.75299"
       width="121.855"
       height="121.855"
       filterUnits="userSpaceOnUse"
       color-interpolation-filters="sRGB">
      <feFlood
         flood-opacity="0"
         result="BackgroundImageFix"
         id="feFlood27" />
      <feColorMatrix
         in="SourceAlpha"
         type="matrix"
         values="0 0 0 0 0 0 0 0 0 0 0 0 0 0 0 0 0 0 127 0"
         result="hardAlpha"
         id="feColorMatrix33" />
      <feOffset
         dx="-21"
         dy="15"
         id="feOffset33" />
      <feGaussianBlur
         stdDeviation="25"
         id="feGaussianBlur33" />
      <feComposite
         in2="hardAlpha"
         operator="out"
         id="feComposite33" />
      <feColorMatrix
         type="matrix"
         values="0 0 0 0 0.113438 0 0 0 0 0.148981 0 0 0 0 0.275 0 0 0 0.25 0"
         id="feColorMatrix34" />
      <feBlend
         mode="normal"
         in2="BackgroundImageFix"
         result="effect1_dropShadow_2_336"
         id="feBlend34" />
      <feColorMatrix
         in="SourceAlpha"
         type="matrix"
         values="0 0 0 0 0 0 0 0 0 0 0 0 0 0 0 0 0 0 127 0"
         result="hardAlpha"
         id="feColorMatrix35" />
      <feOffset
         id="feOffset35" />
      <feGaussianBlur
         stdDeviation="9"
         id="feGaussianBlur35" />
      <feComposite
         in2="hardAlpha"
         operator="out"
         id="feComposite35" />
      <feColorMatrix
         type="matrix"
         values="0 0 0 0 0.996078 0 0 0 0 0.764706 0 0 0 0 0.0117647 0 0 0 0.47 0"
         id="feColorMatrix36" />
      <feBlend
         mode="normal"
         in2="effect1_dropShadow_2_336"
         result="effect2_dropShadow_2_336"
         id="feBlend36" />
      <feBlend
         mode="normal"
         in="SourceGraphic"
         in2="effect2_dropShadow_2_336"
         result="shape"
         id="feBlend31" />
    </filter>
    <linearGradient
       id="paint9_linear_2_336"
       x1="638"
       y1="464.681"
       x2="638"
       y2="484.47"
       gradientUnits="userSpaceOnUse">
      <stop
         stop-color="white"
         id="stop49" />
      <stop
         offset="1"
         stop-color="white"
         stop-opacity="0"
         id="stop50" />
    </linearGradient>
    <filter
       id="filter41"
       x="556.073"
       y="434.75299"
       width="121.855"
       height="121.855"
       filterUnits="userSpaceOnUse"
       color-interpolation-filters="sRGB">
      <feFlood
         flood-opacity="0"
         result="BackgroundImageFix"
         id="feFlood36" />
      <feColorMatrix
         in="SourceAlpha"
         type="matrix"
         values="0 0 0 0 0 0 0 0 0 0 0 0 0 0 0 0 0 0 127 0"
         result="hardAlpha"
         id="feColorMatrix37" />
      <feOffset
         dx="-21"
         dy="15"
         id="feOffset37" />
      <feGaussianBlur
         stdDeviation="25"
         id="feGaussianBlur37" />
      <feComposite
         in2="hardAlpha"
         operator="out"
         id="feComposite37" />
      <feColorMatrix
         type="matrix"
         values="0 0 0 0 0.113438 0 0 0 0 0.148981 0 0 0 0 0.275 0 0 0 0.25 0"
         id="feColorMatrix38" />
      <feBlend
         mode="normal"
         in2="BackgroundImageFix"
         result="effect1_dropShadow_2_336"
         id="feBlend38" />
      <feColorMatrix
         in="SourceAlpha"
         type="matrix"
         values="0 0 0 0 0 0 0 0 0 0 0 0 0 0 0 0 0 0 127 0"
         result="hardAlpha"
         id="feColorMatrix39" />
      <feOffset
         id="feOffset39" />
      <feGaussianBlur
         stdDeviation="9"
         id="feGaussianBlur39" />
      <feComposite
         in2="hardAlpha"
         operator="out"
         id="feComposite39" />
      <feColorMatrix
         type="matrix"
         values="0 0 0 0 0.996078 0 0 0 0 0.764706 0 0 0 0 0.0117647 0 0 0 0.47 0"
         id="feColorMatrix40" />
      <feBlend
         mode="normal"
         in2="effect1_dropShadow_2_336"
         result="effect2_dropShadow_2_336"
         id="feBlend40" />
      <feBlend
         mode="normal"
         in="SourceGraphic"
         in2="effect2_dropShadow_2_336"
         result="shape"
         id="feBlend41" />
    </filter>
    <filter
       id="filter0_f_2_2"
       x="480"
       y="410"
       width="210"
       height="210"
       filterUnits="userSpaceOnUse"
       color-interpolation-filters="sRGB">
      <feFlood
         flood-opacity="0"
         result="BackgroundImageFix"
         id="feFlood9-0" />
      <feBlend
         mode="normal"
         in="SourceGraphic"
         in2="BackgroundImageFix"
         result="shape"
         id="feBlend9-9" />
      <feGaussianBlur
         stdDeviation="22"
         result="effect1_foregroundBlur_2_2"
         id="feGaussianBlur9-1" />
    </filter>
    <linearGradient
       id="paint0_linear_2_2"
       x1="585"
       y1="458"
       x2="585"
       y2="576"
       gradientUnits="userSpaceOnUse"
       gradientTransform="matrix(0.06615854,0,0,0.06615854,-25.124057,-25.374604)">
      <stop
         stop-color="#FFE600"
         id="stop15" />
      <stop
         offset="1"
         stop-color="#FF7A00"
         id="stop16" />
    </linearGradient>
    <linearGradient
       id="paint1_linear_2_2"
       x1="585"
       y1="458"
       x2="585"
       y2="576"
       gradientUnits="userSpaceOnUse"
       gradientTransform="matrix(0.06615854,0,0,0.06615854,-25.124057,-25.374604)">
      <stop
         stop-color="white"
         id="stop17" />
      <stop
         offset="1"
         stop-color="white"
         stop-opacity="0"
         id="stop18" />
    </linearGradient>
    <linearGradient
       id="paint2_linear_2_2"
       x1="585"
       y1="458"
       x2="585"
       y2="576"
       gradientUnits="userSpaceOnUse"
       gradientTransform="matrix(0.06615854,0,0,0.06615854,-25.124057,-24.574997)">
      <stop
         stop-color="#FFD600"
         id="stop19" />
      <stop
         offset="1"
         stop-color="#FF7A00"
         id="stop20" />
    </linearGradient>
    <filter
       id="filter1_f_2_2"
       x="423"
       y="491"
       width="266"
       height="191"
       filterUnits="userSpaceOnUse"
       color-interpolation-filters="sRGB">
      <feFlood
         flood-opacity="0"
         result="BackgroundImageFix"
         id="feFlood10" />
      <feBlend
         mode="normal"
         in="SourceGraphic"
         in2="BackgroundImageFix"
         result="shape"
         id="feBlend10-7" />
      <feGaussianBlur
         stdDeviation="7"
         result="effect1_foregroundBlur_2_2"
         id="feGaussianBlur10" />
    </filter>
    <filter
       id="filter2_d_2_2"
       x="341"
       y="477"
       width="338"
       height="261"
       filterUnits="userSpaceOnUse"
       color-interpolation-filters="sRGB">
      <feFlood
         flood-opacity="0"
         result="BackgroundImageFix"
         id="feFlood11-1" />
      <feColorMatrix
         in="SourceAlpha"
         type="matrix"
         values="0 0 0 0 0 0 0 0 0 0 0 0 0 0 0 0 0 0 127 0"
         result="hardAlpha"
         id="feColorMatrix11-1" />
      <feOffset
         dx="-21"
         dy="15"
         id="feOffset11-5" />
      <feGaussianBlur
         stdDeviation="25"
         id="feGaussianBlur11-9" />
      <feComposite
         in2="hardAlpha"
         operator="out"
         id="feComposite11-7" />
      <feColorMatrix
         type="matrix"
         values="0 0 0 0 0.113725 0 0 0 0 0.14902 0 0 0 0 0.27451 0 0 0 0.25 0"
         id="feColorMatrix12-7" />
      <feBlend
         mode="normal"
         in2="BackgroundImageFix"
         result="effect1_dropShadow_2_2"
         id="feBlend12-6" />
      <feBlend
         mode="normal"
         in="SourceGraphic"
         in2="effect1_dropShadow_2_2"
         result="shape"
         id="feBlend13" />
    </filter>
    <linearGradient
       id="paint3_linear_2_2"
       x1="531"
       y1="460.5"
       x2="531"
       y2="695.5"
       gradientUnits="userSpaceOnUse">
      <stop
         stop-color="white"
         id="stop21" />
      <stop
         offset="1"
         stop-color="white"
         stop-opacity="0"
         id="stop22" />
    </linearGradient>
    <linearGradient
       id="paint4_linear_2_2"
       x1="531"
       y1="512"
       x2="531"
       y2="673"
       gradientUnits="userSpaceOnUse">
      <stop
         stop-color="white"
         id="stop23" />
      <stop
         offset="1"
         stop-color="white"
         stop-opacity="0"
         id="stop24" />
    </linearGradient>
    <mask
       id="path-5-inside-1_2_2"
       fill="#ffffff">
      <path
         fill-rule="evenodd"
         clip-rule="evenodd"
         d="m 606.5,672.997 c 0.166,0.002 0.333,0.003 0.5,0.003 23.748,0 43,-19.252 43,-43 0,-23.748 -19.252,-43 -43,-43 -0.167,0 -0.334,10e-4 -0.5,0.003 V 587 h -11.109 c 0.402,-2.943 0.609,-5.947 0.609,-9 0,-36.451 -29.549,-66 -66,-66 -36.451,0 -66,29.549 -66,66 0,3.439 0.263,6.817 0.77,10.115 C 461.631,587.386 458.361,587 455,587 c -23.748,0 -43,19.252 -43,43 0,23.748 19.252,43 43,43 0.168,0 0.335,-10e-4 0.502,-0.003 L 455.5,673 h 151 z"
         id="path4-7" />
    </mask>
    <filter
       id="filter3_d_2_2"
       x="473"
       y="477"
       width="272"
       height="216.353"
       filterUnits="userSpaceOnUse"
       color-interpolation-filters="sRGB">
      <feFlood
         flood-opacity="0"
         result="BackgroundImageFix"
         id="feFlood13" />
      <feColorMatrix
         in="SourceAlpha"
         type="matrix"
         values="0 0 0 0 0 0 0 0 0 0 0 0 0 0 0 0 0 0 127 0"
         result="hardAlpha"
         id="feColorMatrix13-3" />
      <feOffset
         dx="-21"
         dy="15"
         id="feOffset13-6" />
      <feGaussianBlur
         stdDeviation="25"
         id="feGaussianBlur13-5" />
      <feComposite
         in2="hardAlpha"
         operator="out"
         id="feComposite13-6" />
      <feColorMatrix
         type="matrix"
         values="0 0 0 0 0.113438 0 0 0 0 0.148981 0 0 0 0 0.275 0 0 0 0.25 0"
         id="feColorMatrix14-3" />
      <feBlend
         mode="normal"
         in2="BackgroundImageFix"
         result="effect1_dropShadow_2_2"
         id="feBlend14-9" />
      <feBlend
         mode="normal"
         in="SourceGraphic"
         in2="effect1_dropShadow_2_2"
         result="shape"
         id="feBlend15-4" />
    </filter>
    <linearGradient
       id="paint5_linear_2_2"
       x1="638"
       y1="515.5"
       x2="638"
       y2="641.5"
       gradientUnits="userSpaceOnUse">
      <stop
         stop-color="white"
         id="stop25" />
      <stop
         offset="1"
         stop-color="white"
         stop-opacity="0"
         id="stop26" />
    </linearGradient>
    <linearGradient
       id="paint6_linear_2_2"
       x1="630"
       y1="512"
       x2="630"
       y2="628.35303"
       gradientUnits="userSpaceOnUse">
      <stop
         stop-color="white"
         id="stop27" />
      <stop
         offset="1"
         stop-color="white"
         stop-opacity="0"
         id="stop28" />
    </linearGradient>
    <mask
       id="path-7-inside-2_2_2"
       fill="#ffffff">
      <path
         fill-rule="evenodd"
         clip-rule="evenodd"
         d="m 684.563,628.351 c 0.12,10e-4 0.241,0.002 0.361,0.002 17.163,0 31.076,-13.913 31.076,-31.076 0,-17.162 -13.913,-31.075 -31.076,-31.075 -0.12,0 -0.241,0 -0.361,0.002 v -0.002 h -8.028 c 0.29,-2.127 0.44,-4.298 0.44,-6.505 0,-26.342 -21.355,-47.697 -47.698,-47.697 -26.342,0 -47.697,21.355 -47.697,47.697 0,2.486 0.19,4.927 0.556,7.31 -2.268,-0.527 -4.632,-0.805 -7.06,-0.805 -17.163,0 -31.076,13.913 -31.076,31.075 0,17.163 13.913,31.076 31.076,31.076 0.121,0 0.242,-10e-4 0.363,-0.002 l -0.002,0.002 h 109.126 z"
         id="path7" />
    </mask>
    <mask
       id="mask8"
       fill="#ffffff">
      <path
         fill-rule="evenodd"
         clip-rule="evenodd"
         d="m 684.563,628.351 c 0.12,10e-4 0.241,0.002 0.361,0.002 17.163,0 31.076,-13.913 31.076,-31.076 0,-17.162 -13.913,-31.075 -31.076,-31.075 -0.12,0 -0.241,0 -0.361,0.002 v -0.002 h -8.028 c 0.29,-2.127 0.44,-4.298 0.44,-6.505 0,-26.342 -21.355,-47.697 -47.698,-47.697 -26.342,0 -47.697,21.355 -47.697,47.697 0,2.486 0.19,4.927 0.556,7.31 -2.268,-0.527 -4.632,-0.805 -7.06,-0.805 -17.163,0 -31.076,13.913 -31.076,31.075 0,17.163 13.913,31.076 31.076,31.076 0.121,0 0.242,-10e-4 0.363,-0.002 l -0.002,0.002 h 109.126 z"
         id="path8" />
    </mask>
    <mask
       maskUnits="userSpaceOnUse"
       id="mask2">
      <g
         id="g4"
         transform="matrix(15.115207,0,0,15.115207,379.75531,371.45616)">
        <path
           d="m 17.482043,9.6289682 c 0,2.1557758 -1.747578,3.9033538 -3.903354,3.9033538 -2.155776,0 -3.903354,-1.747578 -3.903354,-3.9033538 0,-2.155776 1.449864,-1.6539635 3.60564,-1.6539635 2.155776,0 4.201068,-0.5018125 4.201068,1.6539635 z"
           fill="url(#paint2_linear_2_2)"
           id="path2"
           style="fill:url(#linearGradient4);stroke-width:0.0661585" />
      </g>
    </mask>
    <linearGradient
       inkscape:collect="always"
       xlink:href="#paint2_linear_2_2"
       id="linearGradient4"
       gradientUnits="userSpaceOnUse"
       gradientTransform="matrix(0.06615854,0,0,0.06615854,-25.124057,-24.574997)"
       x1="585"
       y1="458"
       x2="585"
       y2="576" />
    <mask
       id="mask1"
       fill="#ffffff">
      <path
         fill-rule="evenodd"
         clip-rule="evenodd"
         d="m 606.5,672.997 c 0.166,0.002 0.333,0.003 0.5,0.003 23.748,0 43,-19.252 43,-43 0,-23.748 -19.252,-43 -43,-43 -0.167,0 -0.334,10e-4 -0.5,0.003 V 587 h -11.109 c 0.402,-2.943 0.609,-5.947 0.609,-9 0,-36.451 -29.549,-66 -66,-66 -36.451,0 -66,29.549 -66,66 0,3.439 0.263,6.817 0.77,10.115 C 461.631,587.386 458.361,587 455,587 c -23.748,0 -43,19.252 -43,43 0,23.748 19.252,43 43,43 0.168,0 0.335,-10e-4 0.502,-0.003 L 455.5,673 h 151 z"
         id="path1-8" />
    </mask>
  </defs>
  <sodipodi:namedview
     id="namedview8"
     pagecolor="#ffffff"
     bordercolor="#666666"
     borderopacity="1.0"
     inkscape:showpageshadow="2"
     inkscape:pageopacity="0.0"
     inkscape:pagecheckerboard="0"
     inkscape:deskcolor="#d1d1d1"
     showgrid="true"
     inkscape:zoom="9.8333333"
     inkscape:cx="12"
     inkscape:cy="12.050847"
     inkscape:window-width="1920"
     inkscape:window-height="996"
     inkscape:window-x="0"
     inkscape:window-y="0"
     inkscape:window-maximized="1"
     inkscape:current-layer="svg6">
    <inkscape:grid
       id="grid1"
       units="px"
       originx="0"
       originy="0"
       spacingx="1"
       spacingy="1"
       empcolor="#0099e5"
       empopacity="0.30196078"
       color="#0099e5"
       opacity="0.14901961"
       empspacing="5"
       enabled="true"
       visible="true" />
  </sodipodi:namedview>
  <g
     id="g1">
    <circle
       cx="585"
       cy="515"
       r="61"
       fill="#ffc701"
       fill-opacity="0.5"
       id="circle1"
       transform="matrix(0.06615854,0,0,0.06615854,-25.124057,-24.574997)"
       style="filter:url(#filter0_f_2_2)" />
    <circle
       cx="13.578688"
       cy="8.8293533"
       r="3.8371952"
       stroke-width="0.132317"
       id="circle2"
       style="fill:url(#paint0_linear_2_2);stroke:url(#paint1_linear_2_2)" />
    <g
       filter="url(#filter1_f_2_2)"
       id="g3"
       transform="matrix(0.06615854,0,0,0.06615854,-25.124057,-25.374604)"
       mask="url(#mask2)" />
    <path
       fill-rule="evenodd"
       clip-rule="evenodd"
       d="m 606.5,672.997 c 0.166,0.002 0.333,0.003 0.5,0.003 23.748,0 43,-19.252 43,-43 0,-23.748 -19.252,-43 -43,-43 -0.167,0 -0.334,10e-4 -0.5,0.003 V 587 h -11.109 c 0.402,-2.943 0.609,-5.947 0.609,-9 0,-36.451 -29.549,-66 -66,-66 -36.451,0 -66,29.549 -66,66 0,3.439 0.263,6.817 0.77,10.115 C 461.631,587.386 458.361,587 455,587 c -23.748,0 -43,19.252 -43,43 0,23.748 19.252,43 43,43 0.168,0 0.335,-10e-4 0.502,-0.003 L 455.5,673 h 151 z"
       shape-rendering="crispEdges"
       id="path5"
       style="fill:url(#paint3_linear_2_2);filter:url(#filter2_d_2_2)"
       transform="matrix(0.06615854,0,0,0.06615854,-25.124057,-24.574997)" />
    <path
       d="m 606.5,672.997 0.023,-2 c -0.535,-0.006 -1.049,0.202 -1.429,0.578 -0.38,0.376 -0.594,0.888 -0.594,1.422 z m 0,-85.994 h -2 c 0,0.534 0.214,1.046 0.594,1.422 0.38,0.376 0.894,0.584 1.429,0.578 z m 0,-0.003 h 2 c 0,-1.105 -0.895,-2 -2,-2 z m -11.109,0 -1.981,-0.27 c -0.078,0.572 0.095,1.15 0.475,1.585 0.38,0.435 0.929,0.685 1.506,0.685 z m -130.621,1.115 -0.452,1.948 c 0.646,0.15 1.325,-0.03 1.812,-0.481 0.487,-0.452 0.718,-1.115 0.617,-1.771 z m -9.268,84.882 1.57,1.24 c 0.477,-0.605 0.565,-1.43 0.225,-2.122 -0.34,-0.692 -1.047,-1.127 -1.818,-1.118 z M 455.5,673 l -1.569,-1.24 c -0.476,0.602 -0.565,1.422 -0.231,2.112 0.334,0.69 1.033,1.128 1.8,1.128 z m 151,0 v 2 c 1.105,0 2,-0.895 2,-2 z m -0.023,1.997 c 0.174,0.002 0.348,0.003 0.523,0.003 v -4 c -0.159,0 -0.318,-10e-4 -0.477,-0.003 z M 607,675 c 24.853,0 45,-20.147 45,-45 h -4 c 0,22.644 -18.356,41 -41,41 z m 45,-45 c 0,-24.853 -20.147,-45 -45,-45 v 4 c 22.644,0 41,18.356 41,41 z m -45,-45 c -0.174,0 -0.349,10e-4 -0.523,0.003 l 0.046,4 C 606.682,589.001 606.841,589 607,589 Z m -2.5,2 v 0.003 h 4 V 587 Z m -9.109,2 H 606.5 v -4 h -11.109 z m 1.982,-1.73 C 597.787,584.238 598,581.143 598,578 h -4 c 0,2.962 -0.201,5.876 -0.59,8.73 z M 598,578 c 0,-37.555 -30.445,-68 -68,-68 v 4 c 35.346,0 64,28.654 64,64 z m -68,-68 c -37.555,0 -68,30.445 -68,68 h 4 c 0,-35.346 28.654,-64 64,-64 z m -68,68 c 0,3.542 0.271,7.021 0.793,10.419 l 3.954,-0.608 C 466.255,584.614 466,581.337 466,578 Z m 3.223,8.167 C 461.937,585.403 458.514,585 455,585 v 4 c 3.207,0 6.326,0.368 9.318,1.063 z M 455,585 c -24.853,0 -45,20.147 -45,45 h 4 c 0,-22.644 18.356,-41 41,-41 z m -45,45 c 0,24.853 20.147,45 45,45 v -4 c -22.644,0 -41,-18.356 -41,-41 z m 45,45 c 0.175,0 0.35,-10e-4 0.525,-0.003 l -0.046,-4 C 455.32,670.999 455.16,671 455,671 Z m 2.069,-0.76 0.003,-0.003 -3.139,-2.48 -0.002,0.003 z M 606.5,671 h -151 v 4 h 151 z m -2,1.997 V 673 h 4 v -0.003 z"
       id="path6"
       style="fill:url(#paint4_linear_2_2);filter:url(#filter2_d_2_2)"
       transform="matrix(0.06615854,0,0,0.06615854,-25.124057,-24.574997)" />
    <path
       fill-rule="evenodd"
       clip-rule="evenodd"
       d="m 684.563,628.351 c 0.12,10e-4 0.241,0.002 0.361,0.002 17.163,0 31.076,-13.913 31.076,-31.076 0,-17.162 -13.913,-31.075 -31.076,-31.075 -0.12,0 -0.241,0 -0.361,0.002 v -0.002 h -8.028 c 0.29,-2.127 0.44,-4.298 0.44,-6.505 0,-26.342 -21.355,-47.697 -47.698,-47.697 -26.342,0 -47.697,21.355 -47.697,47.697 0,2.486 0.19,4.927 0.556,7.31 -2.268,-0.527 -4.632,-0.805 -7.06,-0.805 -17.163,0 -31.076,13.913 -31.076,31.075 0,17.163 13.913,31.076 31.076,31.076 0.121,0 0.242,-10e-4 0.363,-0.002 l -0.002,0.002 h 109.126 z"
       shape-rendering="crispEdges"
       id="path9"
       style="fill:url(#paint5_linear_2_2);filter:url(#filter3_d_2_2)"
       transform="matrix(0.06615854,0,0,0.06615854,-25.124057,-24.574997)" />
    <path
       d="m 684.563,628.351 0.023,-2 c -0.534,-0.006 -1.049,0.202 -1.429,0.578 -0.38,0.375 -0.594,0.887 -0.594,1.422 z m 0,-62.147 h -2 c 0,0.534 0.214,1.046 0.594,1.422 0.38,0.376 0.894,0.584 1.429,0.578 z m 0,-0.002 h 2 c 0,-1.105 -0.895,-2 -2,-2 z m -8.028,0 -1.982,-0.271 c -0.078,0.573 0.096,1.151 0.475,1.586 0.38,0.435 0.929,0.685 1.507,0.685 z m -94.399,0.805 -0.452,1.948 c 0.646,0.151 1.325,-0.03 1.812,-0.481 0.487,-0.451 0.718,-1.115 0.617,-1.771 z m -6.697,61.344 1.569,1.239 c 0.478,-0.605 0.565,-1.43 0.225,-2.122 -0.34,-0.691 -1.047,-1.126 -1.817,-1.117 z m -0.002,0.002 -1.57,-1.239 c -0.475,0.601 -0.564,1.421 -0.23,2.111 0.334,0.69 1.033,1.128 1.8,1.128 z m 109.126,0 v 2 c 1.105,0 2,-0.895 2,-2 z m -0.023,1.998 c 0.128,10e-4 0.256,0.002 0.384,0.002 v -4 c -0.113,0 -0.225,-10e-4 -0.338,-0.002 z m 0.384,0.002 c 18.268,0 33.076,-14.809 33.076,-33.076 h -4 c 0,16.058 -13.018,29.076 -29.076,29.076 z M 718,597.277 c 0,-18.267 -14.808,-33.075 -33.076,-33.075 v 4 c 16.058,0 29.076,13.017 29.076,29.075 z m -33.076,-33.075 c -0.128,0 -0.256,0 -0.384,0.002 l 0.046,4 c 0.113,-0.002 0.225,-0.002 0.338,-0.002 z m -2.361,2 v 0.002 h 4 v -0.002 z m -6.028,2 h 8.028 v -4 h -8.028 z m 1.982,-1.73 c 0.302,-2.216 0.458,-4.478 0.458,-6.775 h -4 c 0,2.116 -0.144,4.197 -0.422,6.234 z m 0.458,-6.775 C 678.975,532.25 656.724,510 629.277,510 v 4 c 25.238,0 45.698,20.459 45.698,45.697 z M 629.277,510 c -27.447,0 -49.697,22.25 -49.697,49.697 h 4 C 583.58,534.459 604.039,514 629.277,514 Z m -49.697,49.697 c 0,2.588 0.198,5.131 0.58,7.614 l 3.953,-0.608 c -0.351,-2.282 -0.533,-4.622 -0.533,-7.006 z m 3.009,5.362 c -2.416,-0.561 -4.931,-0.857 -7.513,-0.857 v 4 c 2.275,0 4.487,0.261 6.608,0.753 z m -7.513,-0.857 C 556.808,564.202 542,579.01 542,597.277 h 4 c 0,-16.058 13.018,-29.075 29.076,-29.075 z M 542,597.277 c 0,18.267 14.808,33.076 33.076,33.076 v -4 C 559.018,626.353 546,613.335 546,597.277 Z m 33.076,33.076 c 0.128,0 0.257,-10e-4 0.385,-0.002 l -0.045,-4 c -0.113,10e-4 -0.227,0.002 -0.34,0.002 z m 1.931,-0.761 0.001,-0.002 -3.139,-2.478 -0.002,0.002 z m 107.556,-3.239 H 575.437 v 4 h 109.126 z m -2,1.998 v 0.002 h 4 v -0.002 z"
       id="path10"
       style="fill:url(#paint6_linear_2_2);filter:url(#filter3_d_2_2)"
       transform="matrix(0.06615854,0,0,0.06615854,-25.124057,-24.574997)" />
    <path
       id="path1-9"
       d="m 10.429694,16.556221 h 8.793883 c 0.245057,0 0.439695,0.196983 0.439695,0.439694 0,0.242711 -0.194638,0.439694 -0.439695,0.439694 h -8.793883 c -0.242711,0 -0.439694,-0.196983 -0.439694,-0.439694 0,-0.242711 0.196983,-0.439694 0.439694,-0.439694 z"
       style="fill:#3daee9;fill-opacity:1;fill-rule:nonzero;stroke:none;stroke-width:0.586258" />
    <path
       id="path2-5"
       d="m 19.676756,13.920401 c -0.235676,-0.0023 -0.469008,0.04338 -0.686509,0.134839 -0.657783,0.27261 -1.085752,0.913978 -1.085752,1.623937 h 0.886423 c -0.0023,-0.352928 0.210467,-0.673611 0.538186,-0.808451 0.327133,-0.134839 0.702925,-0.0598 0.952671,0.189948 0.251505,0.249746 0.324788,0.627883 0.189948,0.952671 -0.135426,0.327719 -0.453765,0.540531 -0.808451,0.540531 v 0.884078 c 0.712304,0 1.353672,-0.428555 1.625696,-1.085751 0.27261,-0.657197 0.121355,-1.412885 -0.382241,-1.916481 -0.325374,-0.327719 -0.767413,-0.510631 -1.229971,-0.515321 z"
       style="fill:#3daee9;fill-opacity:1;fill-rule:nonzero;stroke:none;stroke-width:0.586258" />
    <path
       id="path3-3"
       d="m 17.904495,19.641115 c 0.0023,-0.233917 -0.04339,-0.467248 -0.133081,-0.68475 -0.272024,-0.657196 -0.913391,-1.085752 -1.625696,-1.085752 v 0.884079 c 0.354687,0 0.673025,0.212812 0.808451,0.54053 0.13484,0.325374 0.05921,0.702925 -0.189948,0.952671 -0.249746,0.249747 -0.625538,0.325374 -0.952671,0.189948 -0.327718,-0.134839 -0.54053,-0.455523 -0.54053,-0.808451 h -0.884078 c 0,0.70996 0.427969,1.351327 1.085751,1.623937 0.657196,0.272611 1.412884,0.123701 1.91648,-0.380482 0.327719,-0.327132 0.512977,-0.769171 0.515322,-1.23173 z"
       style="fill:#3daee9;fill-opacity:1;fill-rule:nonzero;stroke:none;stroke-width:0.586258" />
    <path
       id="path4-5"
       d="m 16.159202,12.598974 c -0.235676,-0.0023 -0.469007,0.04338 -0.686509,0.134838 -0.657782,0.270266 -1.085751,0.911633 -1.085751,1.623939 h 0.886423 c -0.0023,-0.352928 0.210467,-0.673026 0.538185,-0.808451 0.327133,-0.13484 0.702925,-0.05921 0.952671,0.189947 0.251505,0.249746 0.324788,0.627884 0.189948,0.95267 -0.135426,0.327719 -0.453764,0.540531 -0.808451,0.540531 v 0.884078 c 0.712305,0 1.353672,-0.427968 1.625696,-1.085751 0.272611,-0.657196 0.121356,-1.412884 -0.382241,-1.91648 -0.325374,-0.327719 -0.767413,-0.510631 -1.229971,-0.515321 z"
       style="fill:#3daee9;fill-opacity:1;fill-rule:nonzero;stroke:none;stroke-width:0.586258" />
    <path
       id="path5-6"
       d="m 19.223577,16.553876 h 0.439695 v 0.879388 h -0.439695 z"
       style="fill:#3daee9;fill-opacity:1;fill-rule:nonzero;stroke:none;stroke-width:0.586258" />
    <path
       id="path6-2"
       d="m 11.748777,15.234793 h 3.077859 c 0.245056,0 0.439694,0.196983 0.439694,0.439694 0,0.242711 -0.194638,0.439694 -0.439694,0.439694 h -3.077859 c -0.242712,0 -0.439695,-0.196983 -0.439695,-0.439694 0,-0.242711 0.196983,-0.439694 0.439695,-0.439694 z"
       style="fill:#3daee9;fill-opacity:1;fill-rule:nonzero;stroke:none;stroke-width:0.586258" />
    <path
       id="path7-9"
       d="m 14.826636,15.234793 h 1.319082 v 0.879388 h -1.319082 z"
       style="fill:#3daee9;fill-opacity:1;fill-rule:nonzero;stroke:none;stroke-width:0.586258" />
    <path
       id="path8-1"
       d="m 11.309082,17.872958 h 3.957248 c 0.245056,0 0.439694,0.196983 0.439694,0.439694 0,0.242712 -0.194638,0.439695 -0.439694,0.439695 h -3.957248 c -0.242711,0 -0.439694,-0.196983 -0.439694,-0.439695 0,-0.242711 0.196983,-0.439694 0.439694,-0.439694 z"
       style="fill:#3daee9;fill-opacity:1;fill-rule:nonzero;stroke:none;stroke-width:0.586258" />
    <path
       id="path9-2"
       d="m 15.26633,17.872958 h 0.879388 v 0.879389 H 15.26633 Z"
       style="fill:#3daee9;fill-opacity:1;fill-rule:nonzero;stroke:none;stroke-width:0.586258" />
    <path
       id="path10-7"
       d="m 16.152753,13.041012 c -0.117251,0 -0.233917,0.02286 -0.341203,0.06625 -0.327718,0.135427 -0.54053,0.456111 -0.54053,0.808451 h -0.82428 c -0.0047,0.01817 -0.0094,0.03459 -0.01407,0.05276 -0.007,0.03459 -0.01583,0.07094 -0.02286,0.105527 -0.0023,0.02286 -0.0047,0.04573 -0.007,0.06859 -0.0041,0.034 -0.0088,0.06859 -0.01114,0.103181 -0.0023,0.03635 -0.0047,0.07328 -0.0047,0.109631 h 0.884078 c 0,-0.02755 0.0023,-0.05511 0.0047,-0.08266 0.02932,-0.322443 0.235676,-0.602088 0.535841,-0.725789 0.324787,-0.134839 0.702924,-0.05921 0.952671,0.189948 0.10963,0.110217 0.187603,0.247401 0.226296,0.398656 0.07793,-0.300164 -0.0065,-0.618503 -0.226335,-0.83835 -0.16298,-0.162393 -0.382827,-0.25385 -0.611468,-0.256195 z m 1.735913,1.094546 c -0.01876,0.155944 -0.0598,0.308958 -0.119011,0.453764 -0.270265,0.657196 -0.911632,1.085165 -1.623937,1.085165 h -4.836636 c 0,0 0,0.0023 0,0.0023 0,0.238021 0.189948,0.430314 0.426211,0.437349 h 4.410425 c 0.712305,0 1.353672,-0.427969 1.623937,-1.085165 0.114321,-0.272611 0.155359,-0.568085 0.123115,-0.861215 0,0 0,-0.0023 0,-0.0023 -0.0018,-0.0094 -0.0018,-0.01817 -0.0041,-0.0299 z m 1.781641,0.226882 c -0.117252,0 -0.233918,0.02286 -0.341203,0.06625 -0.327719,0.135426 -0.540531,0.455523 -0.540531,0.808451 h -0.82428 c -0.0047,0.01817 -0.0094,0.03459 -0.01407,0.05276 -0.007,0.034 -0.01583,0.07094 -0.02286,0.105527 -0.0023,0.02286 -0.0047,0.04573 -0.007,0.06859 -0.0041,0.034 -0.0088,0.06859 -0.01114,0.102596 -0.0023,0.03693 -0.0047,0.07387 -0.0047,0.110216 h 0.884078 c 0,-0.02755 0.0023,-0.05511 0.0047,-0.08266 0.02931,-0.322443 0.235676,-0.602088 0.53584,-0.725789 0.324788,-0.134839 0.702925,-0.05921 0.952671,0.189948 0.109631,0.110217 0.187603,0.247401 0.226296,0.398656 0.07797,-0.300164 -0.0065,-0.618503 -0.226297,-0.83835 -0.16298,-0.162394 -0.382827,-0.253851 -0.611468,-0.256196 z m 1.735913,1.094545 c -0.01876,0.155945 -0.0598,0.308959 -0.119011,0.453178 -0.270265,0.657783 -0.911633,1.085752 -1.623937,1.085752 v -0.0023 H 9.99 c 0,0.0023 0,0.0023 0,0.0047 0,0.235676 0.182913,0.42152 0.414485,0.435004 h 5.741233 v -0.0047 c 0.04573,0 0.09146,0 0.137185,0.0047 h 3.380369 v 0.0023 c 0.712304,0 1.353672,-0.427969 1.625696,-1.085751 0.112561,-0.272025 0.1536,-0.567499 0.121355,-0.860629 0,0 0,-0.0023 0,-0.0023 -0.0018,-0.0094 -0.0018,-0.01817 -0.0041,-0.0299 z m -10.536832,2.855667 c 0,0 0,0.0023 0,0.0023 0,0.238021 0.189948,0.430314 0.42621,0.43735 h 4.85012 c 0.352928,0 0.673025,0.212811 0.808451,0.538184 0.01349,0.03869 0.02756,0.07797 0.03635,0.116666 0.04807,-0.185258 0.03693,-0.379896 -0.03635,-0.55636 -0.135426,-0.325374 -0.455523,-0.538186 -0.808451,-0.538186 z m 7.019278,1.101581 c -0.05042,0.384586 -0.224537,0.742204 -0.499493,1.016573 -0.503596,0.501838 -1.259284,0.653093 -1.91648,0.380482 C 14.96382,20.600235 14.58627,20.162886 14.44674,19.631736 h -0.0598 c 0.0023,0.709959 0.430314,1.348981 1.085751,1.619247 0.657196,0.272611 1.412884,0.121356 1.91648,-0.380482 0.208708,-0.208122 0.361722,-0.467249 0.444385,-0.748652 0.01583,-0.05511 0.0299,-0.109631 0.04104,-0.167084 0,0 0,-0.0023 0,-0.0047 0.0094,-0.05511 0.01817,-0.111975 0.02286,-0.167084 0.0047,-0.04573 0.007,-0.09146 0.007,-0.137184 0,-0.0598 -0.0023,-0.119597 -0.0094,-0.176464 -0.0023,-0.01817 -0.0041,-0.03693 -0.0065,-0.05511 z"
       style="fill:#000000;fill-opacity:0.22745;fill-rule:nonzero;stroke:none;stroke-width:0.586258" />
  </g>
</svg>
