<?xml version="1.0" encoding="UTF-8" standalone="no"?>
<svg
   enable-background="new"
   viewBox="0 0 32 32"
   version="1.1"
   id="svg9"
   sodipodi:docname="weather-few-clouds.svg"
   inkscape:version="1.4 (unknown)"
   width="32"
   height="32"
   xmlns:inkscape="http://www.inkscape.org/namespaces/inkscape"
   xmlns:sodipodi="http://sodipodi.sourceforge.net/DTD/sodipodi-0.dtd"
   xmlns:xlink="http://www.w3.org/1999/xlink"
   xmlns="http://www.w3.org/2000/svg"
   xmlns:svg="http://www.w3.org/2000/svg">
  <defs
     id="defs9">
    <linearGradient
       id="linearGradient1"
       inkscape:collect="always">
      <stop
         style="stop-color:#ffb17c;stop-opacity:1;"
         offset="0"
         id="stop1" />
      <stop
         style="stop-color:#ffd42a;stop-opacity:1"
         offset="1"
         id="stop2" />
    </linearGradient>
    <filter
       id="filter0_f_2_54"
       x="399"
       y="410"
       width="241.241"
       height="241.241"
       filterUnits="userSpaceOnUse"
       color-interpolation-filters="sRGB">
      <feFlood
         flood-opacity="0"
         result="BackgroundImageFix"
         id="feFlood6" />
      <feBlend
         mode="normal"
         in="SourceGraphic"
         in2="BackgroundImageFix"
         result="shape"
         id="feBlend6" />
      <feGaussianBlur
         stdDeviation="22"
         result="effect1_foregroundBlur_2_54"
         id="feGaussianBlur6" />
    </filter>
    <linearGradient
       id="paint0_linear_2_54"
       x1="519.62"
       y1="459.02399"
       x2="519.62"
       y2="607.24103"
       gradientUnits="userSpaceOnUse">
      <stop
         stop-color="#FFE600"
         id="stop10" />
      <stop
         offset="1"
         stop-color="#FF7A00"
         id="stop11" />
    </linearGradient>
    <linearGradient
       id="paint1_linear_2_54"
       x1="519.62"
       y1="459.02399"
       x2="519.62"
       y2="607.24103"
       gradientUnits="userSpaceOnUse">
      <stop
         stop-color="white"
         id="stop12" />
      <stop
         offset="1"
         stop-color="white"
         stop-opacity="0"
         id="stop13" />
    </linearGradient>
    <mask
       id="mask0_2_54"
       maskUnits="userSpaceOnUse"
       x="445"
       y="500"
       width="149"
       height="108">
      <path
         d="m 593.729,533.133 c 0,40.928 -33.18,74.108 -74.109,74.108 -40.929,0 -74.108,-33.18 -74.108,-74.108 0,-40.929 27.527,-31.402 68.456,-31.402 40.929,0 79.761,-9.527 79.761,31.402 z"
         fill="url(#paint2_linear_2_54)"
         id="path2" />
    </mask>
    <linearGradient
       id="paint2_linear_2_54"
       x1="519.62"
       y1="459.02399"
       x2="519.62"
       y2="607.24103"
       gradientUnits="userSpaceOnUse">
      <stop
         stop-color="#FFD600"
         id="stop14" />
      <stop
         offset="1"
         stop-color="#FF7A00"
         id="stop15" />
    </linearGradient>
    <filter
       id="filter1_f_2_54"
       x="319.72198"
       y="600.77698"
       width="326.94501"
       height="136.02299"
       filterUnits="userSpaceOnUse"
       color-interpolation-filters="sRGB">
      <feFlood
         flood-opacity="0"
         result="BackgroundImageFix"
         id="feFlood7" />
      <feBlend
         mode="normal"
         in="SourceGraphic"
         in2="BackgroundImageFix"
         result="shape"
         id="feBlend7" />
      <feGaussianBlur
         stdDeviation="7"
         result="effect1_foregroundBlur_2_54"
         id="feGaussianBlur7" />
    </filter>
    <filter
       id="filter2_d_2_54"
       x="397.121"
       y="491.85199"
       width="316.04501"
       height="246.14799"
       filterUnits="userSpaceOnUse"
       color-interpolation-filters="sRGB">
      <feFlood
         flood-opacity="0"
         result="BackgroundImageFix"
         id="feFlood8" />
      <feColorMatrix
         in="SourceAlpha"
         type="matrix"
         values="0 0 0 0 0 0 0 0 0 0 0 0 0 0 0 0 0 0 127 0"
         result="hardAlpha"
         id="feColorMatrix8" />
      <feOffset
         dx="-21"
         dy="15"
         id="feOffset8" />
      <feGaussianBlur
         stdDeviation="25"
         id="feGaussianBlur8" />
      <feComposite
         in2="hardAlpha"
         operator="out"
         id="feComposite8" />
      <feColorMatrix
         type="matrix"
         values="0 0 0 0 0.113438 0 0 0 0 0.148981 0 0 0 0 0.275 0 0 0 0.25 0"
         id="feColorMatrix9" />
      <feBlend
         mode="normal"
         in2="BackgroundImageFix"
         result="effect1_dropShadow_2_54"
         id="feBlend9" />
      <feBlend
         mode="normal"
         in="SourceGraphic"
         in2="effect1_dropShadow_2_54"
         result="shape"
         id="feBlend10" />
    </filter>
    <linearGradient
       id="paint3_linear_2_54"
       x1="586.19202"
       y1="531.24799"
       x2="586.19202"
       y2="689.51398"
       gradientUnits="userSpaceOnUse"
       gradientTransform="matrix(1.0098003,0,0,1.0098003,-4.5877313,-5.1633132)">
      <stop
         stop-color="white"
         id="stop16" />
      <stop
         offset="1"
         stop-color="white"
         stop-opacity="0"
         id="stop17" />
    </linearGradient>
    <linearGradient
       id="paint4_linear_2_54"
       x1="576.14398"
       y1="526.85199"
       x2="576.14398"
       y2="673"
       gradientUnits="userSpaceOnUse">
      <stop
         stop-color="white"
         id="stop18" />
      <stop
         offset="1"
         stop-color="white"
         stop-opacity="0"
         id="stop19" />
    </linearGradient>
    <mask
       id="path-5-inside-1_2_54"
       fill="#ffffff">
      <path
         fill-rule="evenodd"
         clip-rule="evenodd"
         d="m 644.678,672.997 c 0.151,0.002 0.303,0.003 0.455,0.003 21.557,0 39.033,-17.476 39.033,-39.033 0,-21.558 -17.476,-39.034 -39.033,-39.034 -0.152,0 -0.304,10e-4 -0.455,0.003 v -0.003 h -10.083 c 0.364,-2.671 0.552,-5.398 0.552,-8.17 0,-33.088 -26.823,-59.911 -59.911,-59.911 -33.089,0 -59.912,26.823 -59.912,59.911 0,3.123 0.239,6.189 0.699,9.182 -2.849,-0.662 -5.818,-1.012 -8.868,-1.012 -21.558,0 -39.034,17.476 -39.034,39.034 0,21.557 17.476,39.033 39.034,39.033 0.152,0 0.303,-10e-4 0.455,-0.003 L 507.608,673 h 137.07 z"
         id="path4" />
    </mask>
    <linearGradient
       inkscape:collect="always"
       xlink:href="#linearGradient1"
       id="linearGradient2"
       x1="540.66272"
       y1="463.11755"
       x2="518"
       y2="595.64099"
       gradientUnits="userSpaceOnUse"
       gradientTransform="matrix(0.0945122,0,0,0.0945122,-37.49478,-36.850002)" />
  </defs>
  <sodipodi:namedview
     id="namedview9"
     pagecolor="#ffffff"
     bordercolor="#000000"
     borderopacity="0.25"
     inkscape:showpageshadow="2"
     inkscape:pageopacity="0.0"
     inkscape:pagecheckerboard="0"
     inkscape:deskcolor="#d1d1d1"
     inkscape:zoom="8.0520833"
     inkscape:cx="15.586029"
     inkscape:cy="20.305304"
     inkscape:window-width="1920"
     inkscape:window-height="996"
     inkscape:window-x="0"
     inkscape:window-y="0"
     inkscape:window-maximized="1"
     inkscape:current-layer="svg9"
     showgrid="true">
    <inkscape:grid
       id="grid1"
       units="px"
       originx="0"
       originy="0"
       spacingx="1"
       spacingy="1"
       empcolor="#0099e5"
       empopacity="0.30196078"
       color="#0099e5"
       opacity="0.14901961"
       empspacing="5"
       enabled="true"
       visible="true" />
  </sodipodi:namedview>
  <g
     filter="url(#filter0_f_2_54)"
     id="g1"
     transform="matrix(0.0945122,0,0,0.0945122,-37.49478,-36.850002)">
    <circle
       cx="519.62"
       cy="530.62"
       r="76.6203"
       fill="#ffc701"
       fill-opacity="0.5"
       id="circle1" />
  </g>
  <circle
     cx="11.615649"
     cy="13.537478"
     r="6.909626"
     stroke-width="0.189024"
     id="circle2"
     style="fill:url(#linearGradient2)" />
  <g
     mask="url(#mask0_2_54)"
     id="g4"
     transform="matrix(0.0945122,0,0,0.0945122,-37.49478,-36.850002)">
    <g
       filter="url(#filter1_f_2_54)"
       id="g3" />
  </g>
  <g
     filter="url(#filter2_d_2_54)"
     data-figma-bg-blur-radius="14"
     id="g6"
     transform="matrix(0.0945122,0,0,0.0945122,-37.49478,-36.850002)">
    <mask
       id="mask1"
       fill="#ffffff">
      <path
         fill-rule="evenodd"
         clip-rule="evenodd"
         d="m 644.678,672.997 c 0.151,0.002 0.303,0.003 0.455,0.003 21.557,0 39.033,-17.476 39.033,-39.033 0,-21.558 -17.476,-39.034 -39.033,-39.034 -0.152,0 -0.304,10e-4 -0.455,0.003 v -0.003 h -10.083 c 0.364,-2.671 0.552,-5.398 0.552,-8.17 0,-33.088 -26.823,-59.911 -59.911,-59.911 -33.089,0 -59.912,26.823 -59.912,59.911 0,3.123 0.239,6.189 0.699,9.182 -2.849,-0.662 -5.818,-1.012 -8.868,-1.012 -21.558,0 -39.034,17.476 -39.034,39.034 0,21.557 17.476,39.033 39.034,39.033 0.152,0 0.303,-10e-4 0.455,-0.003 L 507.608,673 h 137.07 z"
         id="path1" />
    </mask>
    <path
       fill-rule="evenodd"
       clip-rule="evenodd"
       d="m 646.40831,674.42926 c 0.15248,0.002 0.30598,0.003 0.45946,0.003 21.76826,0 39.41554,-17.64727 39.41554,-39.41554 0,-21.76927 -17.64728,-39.41655 -39.41554,-39.41655 -0.15348,0 -0.30698,10e-4 -0.45946,0.003 v -0.003 H 636.2265 c 0.36756,-2.69717 0.55741,-5.4509 0.55741,-8.25006 0,-33.41228 -27.08588,-60.49815 -60.49815,-60.49815 -33.41328,0 -60.49916,27.08587 -60.49916,60.49815 0,3.1536 0.24134,6.24965 0.70586,9.27199 -2.87693,-0.6685 -5.87503,-1.02193 -8.95491,-1.02193 -21.76928,0 -39.41655,17.64728 -39.41655,39.41655 0,21.76827 17.64727,39.41554 39.41655,39.41554 0.15349,0 0.30597,-0.001 0.45945,-0.003 l -0.002,0.003 h 138.41333 z"
       shape-rendering="crispEdges"
       id="path5"
       style="fill:url(#paint3_linear_2_54);stroke-width:1.0098" />
    <path
       d="m 644.678,672.997 0.022,-1.999 c -0.534,-0.007 -1.048,0.201 -1.428,0.577 -0.38,0.376 -0.594,0.888 -0.594,1.422 z m 0,-78.061 h -2 c 0,0.534 0.214,1.047 0.594,1.422 0.38,0.376 0.894,0.584 1.429,0.578 z m 0,-0.003 h 2 c 0,-1.104 -0.896,-2 -2,-2 z m -10.083,0 -1.982,-0.27 c -0.078,0.573 0.095,1.151 0.475,1.586 0.38,0.435 0.929,0.684 1.507,0.684 z m -118.572,1.012 -0.452,1.949 c 0.646,0.15 1.325,-0.031 1.812,-0.482 0.487,-0.451 0.718,-1.115 0.617,-1.771 z m -8.413,77.052 1.569,1.24 c 0.478,-0.605 0.566,-1.43 0.226,-2.122 -0.34,-0.691 -1.047,-1.126 -1.818,-1.117 z m -0.002,0.003 -1.57,-1.24 c -0.475,0.602 -0.564,1.422 -0.23,2.112 0.334,0.69 1.033,1.128 1.8,1.128 z m 137.07,0 v 2 c 1.104,0 2,-0.895 2,-2 z m -0.023,1.997 c 0.159,0.002 0.318,0.003 0.478,0.003 v -4 c -0.145,0 -0.289,-10e-4 -0.433,-0.002 z m 0.478,0.003 c 22.662,0 41.033,-18.371 41.033,-41.033 h -4 c 0,20.453 -16.58,37.033 -37.033,37.033 z m 41.033,-41.033 c 0,-22.662 -18.371,-41.034 -41.033,-41.034 v 4 c 20.453,0 37.033,16.581 37.033,37.034 z m -41.033,-41.034 c -0.16,0 -0.319,10e-4 -0.478,0.003 l 0.046,4 c 0.143,-0.002 0.287,-0.003 0.432,-0.003 z m -2.455,2 v 0.003 h 4 v -0.003 z m -8.083,2 h 10.083 v -4 h -10.083 z m 1.981,-1.729 c 0.377,-2.761 0.571,-5.579 0.571,-8.441 h -4 c 0,2.681 -0.182,5.318 -0.534,7.9 z m 0.571,-8.441 c 0,-34.192 -27.719,-61.911 -61.911,-61.911 v 4 c 31.983,0 57.911,25.928 57.911,57.911 z m -61.911,-61.911 c -34.193,0 -61.912,27.719 -61.912,61.911 h 4 c 0,-31.983 25.928,-57.911 57.912,-57.911 z m -61.912,61.911 c 0,3.225 0.247,6.393 0.723,9.486 L 518,595.641 c -0.445,-2.893 -0.676,-5.858 -0.676,-8.878 z m 3.152,7.234 c -2.997,-0.696 -6.117,-1.064 -9.321,-1.064 v 4 c 2.897,0 5.714,0.333 8.416,0.961 z m -9.321,-1.064 c -22.662,0 -41.034,18.372 -41.034,41.034 h 4 c 0,-20.453 16.581,-37.034 37.034,-37.034 z m -41.034,41.034 c 0,22.662 18.372,41.033 41.034,41.033 v -4 c -20.453,0 -37.034,-16.58 -37.034,-37.033 z M 507.155,675 c 0.159,0 0.318,-10e-4 0.478,-0.003 l -0.046,-3.999 c -0.144,10e-4 -0.288,0.002 -0.432,0.002 z m 2.022,-0.76 0.002,-0.003 -3.139,-2.479 -0.002,0.002 z M 644.678,671 h -137.07 v 4 h 137.07 z m -2,1.997 V 673 h 4 v -0.003 z"
       fill="url(#paint4_linear_2_54)"
       mask="url(#path-5-inside-1_2_54)"
       id="path6"
       style="fill:url(#paint4_linear_2_54)" />
  </g>
</svg>
