<?xml version="1.0" encoding="UTF-8" standalone="no"?>
<svg
   version="1.1"
   viewBox="0 0 48 48"
   width="48"
   height="48"
   id="svg4"
   sodipodi:docname="weather-snow-scattered-day-symbolic.svg"
   inkscape:version="1.4 (unknown)"
   xmlns:inkscape="http://www.inkscape.org/namespaces/inkscape"
   xmlns:sodipodi="http://sodipodi.sourceforge.net/DTD/sodipodi-0.dtd"
   xmlns="http://www.w3.org/2000/svg"
   xmlns:svg="http://www.w3.org/2000/svg">
  <defs
     id="defs4" />
  <sodipodi:namedview
     id="namedview4"
     pagecolor="#ffffff"
     bordercolor="#000000"
     borderopacity="0.25"
     inkscape:showpageshadow="2"
     inkscape:pageopacity="0.0"
     inkscape:pagecheckerboard="0"
     inkscape:deskcolor="#d1d1d1"
     inkscape:zoom="8.0520833"
     inkscape:cx="19.001294"
     inkscape:cy="26.142303"
     inkscape:window-width="1920"
     inkscape:window-height="996"
     inkscape:window-x="0"
     inkscape:window-y="0"
     inkscape:window-maximized="1"
     inkscape:current-layer="svg4" />
  <style
     id="current-color-scheme"
     type="text/css">.ColorScheme-Text {
    color:#232629;
  }</style>
  <path
     id="line12"
     d="M 3,19 H 8"
     fill="none"
     stroke="currentColor"
     stroke-width="2"
     style="color:#232629;stroke-linejoin:bevel;fill:#f2f2f2;fill-opacity:1;stroke:#f1f2f3;stroke-opacity:1" />
  <use
     transform="rotate(36,19,19)"
     href="#line12"
     id="use1"
     style="color:#232629;stroke-linejoin:bevel;fill:#f2f2f2;fill-opacity:1;stroke:#f1f2f3;stroke-opacity:1" />
  <use
     transform="rotate(72,19,19)"
     href="#line12"
     id="use2"
     style="color:#232629;stroke-linejoin:bevel" />
  <use
     transform="rotate(108,19,19)"
     href="#line12"
     id="use3"
     style="color:#232629;stroke-linejoin:bevel" />
  <use
     transform="rotate(-36,19,19)"
     href="#line12"
     id="use4"
     style="color:#232629;stroke-linejoin:bevel;fill:#f2f2f2;fill-opacity:1;stroke:#f1f2f3;stroke-opacity:1" />
  <path
     id="sun"
     d="M 11.4,23.83 A 9,9 0 0 1 21.34,10.31"
     stroke="currentColor"
     stroke-width="2"
     fill="none"
     style="color:#232629;stroke-linejoin:bevel;stroke:#f1f2f3;stroke-opacity:1" />
  <path
     id="snowflake1"
     d="m 19,32.5 0.86052,1.5 h 1.7376 l -0.90486,1.5 0.90486,1.5 h -1.7284 l -0.86965,1.4937 -0.84804,-1.5 h -1.75 l 0.90485,-1.5 -0.90485,-1.5 h 1.7333 z"
     fill="currentColor"
     style="color:#232629;stroke-linejoin:bevel;fill:#f2f2f2;fill-opacity:1" />
  <use
     id="use6"
     transform="translate(16)"
     href="#snowflake1"
     style="color:#232629;stroke-linejoin:bevel;fill:#f2f2f2;fill-opacity:1" />
  <use
     id="use8"
     transform="translate(-8,5.5)"
     href="#snowflake1"
     style="color:#232629;stroke-linejoin:bevel;fill:#f2f2f2;fill-opacity:1" />
  <use
     id="use9"
     transform="translate(8,5.5)"
     href="#snowflake1"
     style="color:#232629;stroke-linejoin:bevel;fill:#f2f2f2;fill-opacity:1" />
  <path
     id="cloud"
     d="m 29,31 h 5 A 7,7 0 0 0 34.95,17.08 9,9 0 0 0 26,9 9,9 0 0 0 17.64,21.31 5,5 0 1 0 16.01,31 h 2 z"
     fill="none"
     stroke="currentColor"
     stroke-width="2"
     style="color:#232629;stroke-linejoin:bevel;stroke:#f1f2f3;stroke-opacity:1" />
  <rect
     id="rect11"
     width="48"
     height="48"
     fill="none"
     x="0"
     y="0"
     style="color:#232629;stroke-linejoin:bevel" />
</svg>
