<svg xmlns="http://www.w3.org/2000/svg" height="32" width="32">
    <path d="M4.6 29.5c0 1 1 2 2 2h19.9c1 0 2-1 2-2v-17c0-1 0-1-1-2l-9-9c-.531-.401-1-1-2-1h-10c-1 0-2 1-2 2z" fill="#323232" stroke="#323232"/>
    <g transform="translate(5 8)">
            <g fill="#807F7F">
        <path d="M6.5 3A1.5 1.5 0 0 0 5 4.5a1.5 1.5 0 0 0 1 1.412V15a2 2 0 0 0 2 2h1v2l3-2.5L9 14v2H8a1 1 0 0 1-1-1V5.912A1.5 1.5 0 0 0 8 4.5 1.5 1.5 0 0 0 6.5 3zm0 1a.5.5 0 0 1 .5.5.5.5 0 0 1-.5.5.5.5 0 0 1-.5-.5.5.5 0 0 1 .5-.5zM15.5 19a1.5 1.5 0 0 0 1.5-1.5 1.5 1.5 0 0 0-1-1.412V7a2 2 0 0 0-2-2h-1V3l-3 2.5L13 8V6h1a1 1 0 0 1 1 1v9.088a1.5 1.5 0 0 0-1 1.412 1.5 1.5 0 0 0 1.5 1.5zm0-1a.5.5 0 0 1-.5-.5.5.5 0 0 1 .5-.5.5.5 0 0 1 .5.5.5.5 0 0 1-.5.5z"/>
    </g>

    </g>
    <path fill="#807F7F" d="M7 31h19v1H7z"/>
</svg>
