<svg xmlns="http://www.w3.org/2000/svg" height="32" width="32">
    <path d="M4.6 29.5c0 1 1 2 2 2h19.9c1 0 2-1 2-2v-17c0-1 0-1-1-2l-9-9c-.531-.401-1-1-2-1h-10c-1 0-2 1-2 2z" fill="#323232" stroke="#323232"/>
    <g transform="translate(5 8)">
            <path d="M16.627 6.297l-3.955.65c.057 2.46-2.565 4.17-5.025-.465l-4.653.652c.724 2.505 3.324 2.814 5.059 4.132-.868 1.236-4.807.491-4.701 4.349l3.955-.652c-.057-2.46 4.507-4.53 6.967.103l4.653-.651c-.726-2.512-3.49-2.75-5.223-4.076.86-1.796 3.702-.181 2.923-4.042z" fill="#FE1919"/>

    </g>
    <path fill="#FE1919" d="M7 31h19v1H7z"/>
</svg>
