<svg xmlns="http://www.w3.org/2000/svg" height="32" width="32">
    <path d="M4.6 29.5c0 1 1 2 2 2h19.9c1 0 2-1 2-2v-17c0-1 0-1-1-2l-9-9c-.531-.401-1-1-2-1h-10c-1 0-2 1-2 2z" fill="#323232" stroke="#323232"/>
    <g transform="translate(5 8)">
            <g fill="#FF19C5">
        <path d="M11 3a8 3 0 0 0-8 3v5a8 3 0 0 0 7 2.973V16H7v-1H3v4h4v-1h8v1h4v-4h-4v1h-3v-2.027A8 3 0 0 0 19 11v-1h-1v1a7 2 0 0 1-7 2 7 2 0 0 1-7-2V7.451A8 3 0 0 0 11 9a8 3 0 0 0 3-.223v-.972A7 2 0 0 1 11 8a7 2 0 0 1-7-2 7 2 0 0 1 7-2 7 2 0 0 1 3 .195v-.974A8 3 0 0 0 11 3zM4 16h2v2H4v-2zm12 0h2v2h-2v-2z"/>
        <path d="M15 3v3h1V5h.5c.831 0 1.5.669 1.5 1.5S17.331 8 16.5 8H15v1h1.5C17.885 9 19 7.885 19 6.5S17.885 4 16.5 4H18V3h-3z"/>
    </g>

    </g>
    <path fill="#FF19C5" d="M7 31h19v1H7z"/>
</svg>
