<svg xmlns="http://www.w3.org/2000/svg" height="32" width="32">
    <path d="M4.6 29.5c0 1 1 2 2 2h19.9c1 0 2-1 2-2v-17c0-1 0-1-1-2l-9-9c-.531-.401-1-1-2-1h-10c-1 0-2 1-2 2z" fill="#323232" stroke="#323232"/>
    <g transform="translate(5 8)">
            <path d="M7 3c-.554 0-1 .446-1 1s.446 1 1 1 1-.446 1-1-.446-1-1-1zm7 0l-2 2 3 3-3 3 2 2 3-3 2-2-5-5zM4.5 9C3.669 9 3 9.669 3 10.5S3.669 12 4.5 12 6 11.331 6 10.5 5.331 9 4.5 9zM9 15c-1.108 0-2 .892-2 2s.892 2 2 2 2-.892 2-2-.892-2-2-2z" fill="#FF19C5"/>

    </g>
    <path fill="#FF19C5" d="M7 31h19v1H7z"/>
</svg>
