<svg xmlns="http://www.w3.org/2000/svg" height="32" width="32">
    <path d="M4.6 29.5c0 1 1 2 2 2h19.9c1 0 2-1 2-2v-17c0-1 0-1-1-2l-9-9c-.531-.401-1-1-2-1h-10c-1 0-2 1-2 2z" fill="#323232" stroke="#323232"/>
    <g transform="translate(5 8)">
            <path style="isolation:auto;mix-blend-mode:normal;solid-color:#000;solid-opacity:1;filter-blend-mode:normal;filter-gaussianBlur-deviation:0" d="M17.406 3c-1.168.017-5.962.505-7.88 7.232-1.74 6.097-5.178 5.533-5.182 5.536 0 0-.346-.025-.344-.028V19l.346-.002c.18-.036 5.405.608 7.76-6.365h4.228V9.414h-2.838s.822-3.133 4.17-3.19c0 0 .34-.004.334-.005V3h-.344v.006c-.006 0-.09-.008-.25-.006z" fill="#FE1952" color="#807F7F" overflow="visible"/>

    </g>
    <path fill="#807F7F" d="M7 31h19v1H7z"/>
</svg>
