<svg xmlns="http://www.w3.org/2000/svg" height="32" width="32">
    <path d="M4.6 29.5c0 1 1 2 2 2h19.9c1 0 2-1 2-2v-17c0-1 0-1-1-2l-9-9c-.531-.401-1-1-2-1h-10c-1 0-2 1-2 2z" fill="#323232" stroke="#323232"/>
    <g transform="translate(5 8)">
            <defs id="defs3871">
        <style id="current-color-scheme" type="text/css">
        </style>
    </defs>
    <g id="layer1-8" transform="translate(0 -1030.362)" fill="#FE8C19">
        <g transform="translate(-421.714 503.571)" id="layer1" fill="#807F7F" fill-opacity="1">
            <path id="rect4144" transform="translate(421.714 525.79)" d="M4 6v1H3v8h1v1h14v-1h1V7h-1V6H4zm.908 1h12.184c.15.425.483.758.908.908V14.092a1.49 1.49 0 0 0-.908.908H4.908A1.49 1.49 0 0 0 4 14.092V7.908A1.49 1.49 0 0 0 4.908 7zM11 8c-1.662 0-3 1.338-3 3s1.338 3 3 3 3-1.338 3-3-1.338-3-3-3zm0 1c1.108 0 2 .892 2 2s-.892 2-2 2-2-.892-2-2 .892-2 2-2z" color="#807F7F" opacity="1" fill="#807F7F" fill-opacity="1" stroke="none" stroke-width="2.8" stroke-miterlimit="4" stroke-dasharray="none" stroke-opacity=".55"/>
        </g>
    </g>

    </g>
    <path fill="#807F7F" d="M7 31h19v1H7z"/>
</svg>
