<svg xmlns="http://www.w3.org/2000/svg" height="32" width="32">
    <path d="M4.6 29.5c0 1 1 2 2 2h19.9c1 0 2-1 2-2v-17c0-1 0-1-1-2l-9-9c-.531-.401-1-1-2-1h-10c-1 0-2 1-2 2z" fill="#323232" stroke="#323232"/>
    <g transform="translate(5 8)">
            <path d="M10.992 2.5a8.242 8.242 0 0 0-2.576.414c-2.567.837-4.446 2.88-5.152 5.602C3 9.523 2.996 9.617 3 12.536c.004 2.444.009 2.654.082 3.009.26 1.26 1.097 2.25 2.285 2.736.128.052.26.106.397.147.052.015.114.024.166.045.115.046.212.109.26.15.03.026.064.039.097.053.008.03.02.058.04.076.083.078.167.08.228.096.133.057.287.038.433.04l.063.003a1.89 1.89 0 0 0 .513-.057c.145-.039.271-.09.344-.215.035-.06.025-.066.028-.092a1.45 1.45 0 0 0 .01-.091c.004-.072.007-.17.011-.288.004-.126.005-.324.008-.492.404 1.225.506 1.495.51 1.338.003-.106.518-4.038.552-4.213.044-.225.167-.19.252.07.04.124.342 1.351.67 2.73h-.002c.375 1.573.611 2.471.635 2.417.021-.048.208-1.407.414-3.021.47-3.68.434-3.468.594-3.414.094.033.09.022.666 2.802.26 1.253.48 2.298.49 2.324.03.074.073-.186.27-1.619.313-2.275.452-3.168.502-3.215.085-.079.161.05.312.524l.129.398c.016.961.034 2.038.037 2.52l.008 1.353.166.121a.86.86 0 0 0 .295.137h.004l.004.002.01.002a.644.644 0 0 0 .078.012c.104.012.246.018.373.012.187-.007.346-.036.478-.092a.608.608 0 0 0 .186-.121c.054-.033.107-.07.166-.118.029-.026.195-.09.293-.134.09-.04.201-.058.308-.094.6-.2.997-.45 1.473-.922.473-.468.726-.86.937-1.451.31-1.053.205-2.219.211-3.31.013-3.186-.046-3.25-.285-4.217a7.663 7.663 0 0 0-2.13-3.72 7.805 7.805 0 0 0-3.016-1.827 8.219 8.219 0 0 0-2.56-.43h-.003zm.156 1.324c.417 0 .824.024 1.084.069 1.995.347 3.747 1.662 4.686 3.521.407.805.51 1.487.615 2.432.36 2.017.533 1.99-1.205 1.384a6.259 6.259 0 0 1-.598-.218l-.148-.116c-.222-.172-.553-.204-.867-.177a1.546 1.546 0 0 0-.444.097c-.132.052-.249.124-.314.246-.028.05-.022.068-.025.1a1.618 1.618 0 0 0-.01.123c-.005.1-.008.243-.008.438 0 .163.009.55.012.795l-.242-.737c-.202-.616-.313-.888-.338-.83-.021.047-.11.678-.2 1.4-.177 1.437-.304 2.35-.347 2.477-.016.046-.06.082-.098.082-.135 0-.184-.172-.814-2.863-.228-.968-.444-1.878-.48-2.02l-.067-.257-.07.562c-.212 1.705-.755 5.51-.8 5.6-.06.126-.136.135-.202.023-.07-.117-.627-2.242-1.01-3.85-.18-.755-.343-1.373-.363-1.373-.02 0-.053.196-.07.436-.06.753-.404 3.937-.47 4.35-.063.4-.142.507-.244.337-.011-.019-.081-.245-.119-.353.008-.676.011-1.205.024-1.883.025-1.335.042-1.95.005-2.285-.019-.167-.054-.283-.138-.363s-.172-.097-.254-.131c-.24-.097-.556-.104-.84-.067a1.567 1.567 0 0 0-.383.094.46.46 0 0 0-.22.15 3.964 3.964 0 0 1-.45.172c-1.776.94-1.704.453-1.285-1.382.48-3.341 2.4-5.431 5.559-5.914a8.29 8.29 0 0 1 1.138-.069z" fill="#198CFE"/>

    </g>
    <path fill="#198CFE" d="M7 31h19v1H7z"/>
</svg>
