<svg xmlns="http://www.w3.org/2000/svg" height="32" width="32">
    <path d="M4.6 29.5c0 1 1 2 2 2h19.9c1 0 2-1 2-2v-17c0-1 0-1-1-2l-9-9c-.531-.401-1-1-2-1h-10c-1 0-2 1-2 2z" fill="#323232" stroke="#323232"/>
    <g transform="translate(5 8)">
            <path d="M18 18.997L13.316 19l-3.192-4.807s-.514-.901-.83-1.162c-.263-.218-.376-.296-.636-.296h-.593l.001 6.259L4 18.995V3h8.853s3.588.674 3.66 4.296c.082 4.037-3.467 5.224-3.467 5.224.487.203 4.401 5.541 4.954 6.474M10.98 6.469l-2.874-.001v2.72l2.875-.001s1.332-.004 1.332-1.383c0-1.407-1.332-1.334-1.332-1.334" fill="#198CFE" fill-rule="evenodd"/>

    </g>
    <path fill="#198CFE" d="M7 31h19v1H7z"/>
</svg>
