<svg xmlns="http://www.w3.org/2000/svg" height="32" width="32">
    <path d="M4.6 29.5c0 1 1 2 2 2h19.9c1 0 2-1 2-2v-17c0-1 0-1-1-2l-9-9c-.531-.401-1-1-2-1h-10c-1 0-2 1-2 2z" fill="#323232" stroke="#323232"/>
    <g transform="translate(5 8)">
            <path d="M3 3v14h16V3H3zm1 1h14v12H4V4zm1 1v4h2l2-2V5H5zm8.5 1A3.492 3.492 0 0 0 10 9.5c0 1.939 1.561 3.5 3.5 3.5S17 11.439 17 9.5 15.439 6 13.5 6zm0 1C14.885 7 16 8.115 16 9.5S14.885 12 13.5 12A2.495 2.495 0 0 1 11 9.5C11 8.115 12.115 7 13.5 7zM9 8L8 9h1V8zm4 0v2h2V9h-1V8h-1zm-8 4v2h2l1 1v-1h.236v-2H5zm-2 6v1h16v-1H3z" fill="#807F7F"/>

    </g>
    <path fill="#807F7F" d="M7 31h19v1H7z"/>
</svg>
