<?xml version="1.0" encoding="UTF-8" standalone="no"?>
<svg
   height="32"
   width="32"
   version="1.1"
   id="svg3"
   sodipodi:docname="application-x-kmymoney.svg"
   inkscape:version="1.3.2 (091e20ef0f, 2023-11-25)"
   xmlns:inkscape="http://www.inkscape.org/namespaces/inkscape"
   xmlns:sodipodi="http://sodipodi.sourceforge.net/DTD/sodipodi-0.dtd"
   xmlns:xlink="http://www.w3.org/1999/xlink"
   xmlns="http://www.w3.org/2000/svg"
   xmlns:svg="http://www.w3.org/2000/svg">
  <defs
     id="defs3">
    <linearGradient
       id="linearGradient3"
       inkscape:collect="always">
      <stop
         style="stop-color:#d4b2ff;stop-opacity:0.10196079;"
         offset="0"
         id="stop3" />
      <stop
         style="stop-color:#70a9ff;stop-opacity:0.80000001;"
         offset="1"
         id="stop4" />
    </linearGradient>
    <linearGradient
       inkscape:collect="always"
       xlink:href="#linearGradient3"
       id="linearGradient4"
       x1="4.5834422"
       y1="0.68839633"
       x2="28.291395"
       y2="31.853977"
       gradientUnits="userSpaceOnUse" />
  </defs>
  <sodipodi:namedview
     id="namedview3"
     pagecolor="#ffffff"
     bordercolor="#000000"
     borderopacity="0.25"
     inkscape:showpageshadow="2"
     inkscape:pageopacity="0.0"
     inkscape:pagecheckerboard="0"
     inkscape:deskcolor="#d1d1d1"
     inkscape:zoom="11.984375"
     inkscape:cx="17.439374"
     inkscape:cy="13.809648"
     inkscape:window-width="1920"
     inkscape:window-height="994"
     inkscape:window-x="0"
     inkscape:window-y="0"
     inkscape:window-maximized="1"
     inkscape:current-layer="svg3" />
  <path
     d="M4.6 29.5c0 1 1 2 2 2h19.9c1 0 2-1 2-2v-17c0-1 0-1-1-2l-9-9c-.531-.401-1-1-2-1h-10c-1 0-2 1-2 2z"
     id="path1"
     style="fill:url(#linearGradient4)" />
  <path
     d="M7 31h19v1H7z"
     id="path3"
     style="fill:#ffb380;fill-opacity:1" />
  <path
     d="m 15.166666,11.666667 v 4.666667 h 0.78125 l 3.942709,-3.942709 -0.723959,-0.723958 z M 12.5,13 9.166667,16.333334 v 5.333333 L 12.5,25 V 21.666667 H 9.8333331 V 20.333333 H 12.5 V 17.666667 H 9.8333331 V 16.333334 H 12.5 Z m 9.276041,1.276041 -2.057291,2.057293 h 3.447916 v 1.333333 h -4.78125 L 17.052083,19 l 1.333333,1.333333 h 4.78125 v 1.333334 H 19.71875 l 2.057291,2.057292 2.057292,-2.057292 v -5.333333 z m -6.609375,7.390626 v 4.666666 h 4 l 0.723959,-0.723958 -3.942709,-3.942708 z"
     id="path20-1"
     style="fill:#ffb380;fill-rule:evenodd;stroke-width:1.33333" />
  <path
     d="M 16.499999,11 A 7.9999998,7.9999998 0 0 0 8.5,19 a 7.9999998,7.9999998 0 0 0 7.999999,8 7.9999998,7.9999998 0 0 0 8,-8 7.9999998,7.9999998 0 0 0 -8,-8 z m 0,1.333333 A 6.6666665,6.6666665 0 0 1 23.166666,19 6.6666665,6.6666665 0 0 1 16.499999,25.666667 6.6666665,6.6666665 0 0 1 9.8333331,19 6.6666665,6.6666665 0 0 1 16.499999,12.333333 Z"
     id="path22-0"
     style="fill:#ffb380;fill-rule:evenodd;stroke-width:1.33333" />
</svg>
