<svg xmlns="http://www.w3.org/2000/svg" height="32" width="32">
    <path d="M4.6 29.5c0 1 1 2 2 2h19.9c1 0 2-1 2-2v-17c0-1 0-1-1-2l-9-9c-.531-.401-1-1-2-1h-10c-1 0-2 1-2 2z" fill="#323232" stroke="#323232"/>
    <g transform="translate(5 8)">
            <g fill="#FE8C19" color="#807F7F">
        <path d="M5 8v3h1v-1h4v1h1V8h-1v1H6V8H5zm6 6v3h1v-1h4v1h1v-3h-1v1h-4v-1h-1z"/>
        <path d="M6 3S5 3 5 4H3v15h16V4h-2c0-1-1-1-1-1h-3s-1 0-1 1h-2c0-1-1-1-1-1H6zm0 1h3v1H6V4zm7 0h3v1h-3V4zM4 7h14v11H4V7z"/>
    </g>

    </g>
    <path fill="#807F7F" d="M7 31h19v1H7z"/>
</svg>
