<svg xmlns="http://www.w3.org/2000/svg" height="32" width="32">
    <path d="M4.6 29.5c0 1 1 2 2 2h19.9c1 0 2-1 2-2v-17c0-1 0-1-1-2l-9-9c-.531-.401-1-1-2-1h-10c-1 0-2 1-2 2z" fill="#323232" stroke="#323232"/>
    <g transform="translate(5 8)">
            <path d="M17 6l-5 5 5 5 5-5z" fill="#FE8C19"/>
    <path d="M2.5 3a.5.5 0 0 0-.5.5V7H1v1h1v11h1V8h2V7H3V4h2V3zM6 3v16h4.5a.5.5 0 0 0 .5-.5v-11a.5.5 0 0 0-.5-.5H7V3zm1 5h3v10H7z" fill="currentColor" color="#807F7F"/>

    </g>
    <path fill="#807F7F" d="M7 31h19v1H7z"/>
</svg>
