<svg xmlns="http://www.w3.org/2000/svg" height="32" width="32">
    <path d="M4.6 29.5c0 1 1 2 2 2h19.9c1 0 2-1 2-2v-17c0-1 0-1-1-2l-9-9c-.531-.401-1-1-2-1h-10c-1 0-2 1-2 2z" fill="#323232" stroke="#323232"/>
    <g transform="translate(5 8)">
            <g fill="#807F7F">
        <path d="M3 3v16h16V3h-2v3h-2V3H7v3H5V3H3zm1 4h14v11H4V7z"/>
        <path d="M6 8v2h2V8H6zm4 0v2h2V8h-2zm4 0v2h2V8h-2zm-8 3v2h2v-2H6zm4 0v2h2v-2h-2zm4 0v2h2v-2h-2zm0 3v2h2v-2h-2z"/>
    </g>

    </g>
    <path fill="#807F7F" d="M7 31h19v1H7z"/>
</svg>
