<svg xmlns="http://www.w3.org/2000/svg" height="32" width="32">
    <path d="M4.6 29.5c0 1 1 2 2 2h19.9c1 0 2-1 2-2v-17c0-1 0-1-1-2l-9-9c-.531-.401-1-1-2-1h-10c-1 0-2 1-2 2z" fill="#323232" stroke="#323232"/>
    <g transform="translate(5 8)">
            <g fill="#807F7F">
        <path d="M8 8v7l4 4v-4h7V8H8zm1 1h9v5H9V9z"/>
        <path d="M3 3v11h4V7h8V3H3zm1 1h2v2H4V4zm3 0h4v2H7V4zm5 0h2v2h-2V4zM4 7h2v3H4V7zm0 4h2v2H4v-2z"/>
    </g>

    </g>
    <path fill="#807F7F" d="M7 31h19v1H7z"/>
</svg>
