<?xml version="1.0" encoding="UTF-8" standalone="no"?>
<svg
   height="32"
   width="32"
   version="1.1"
   id="svg3"
   sodipodi:docname="application-x-labplot2.svg"
   inkscape:version="1.3.2 (091e20ef0f, 2023-11-25)"
   xmlns:inkscape="http://www.inkscape.org/namespaces/inkscape"
   xmlns:sodipodi="http://sodipodi.sourceforge.net/DTD/sodipodi-0.dtd"
   xmlns="http://www.w3.org/2000/svg"
   xmlns:svg="http://www.w3.org/2000/svg">
  <defs
     id="defs3" />
  <sodipodi:namedview
     id="namedview3"
     pagecolor="#ffffff"
     bordercolor="#000000"
     borderopacity="0.25"
     inkscape:showpageshadow="2"
     inkscape:pageopacity="0.0"
     inkscape:pagecheckerboard="0"
     inkscape:deskcolor="#d1d1d1"
     inkscape:zoom="11.984375"
     inkscape:cx="31.958279"
     inkscape:cy="32"
     inkscape:window-width="1920"
     inkscape:window-height="994"
     inkscape:window-x="0"
     inkscape:window-y="0"
     inkscape:window-maximized="1"
     inkscape:current-layer="svg3" />
  <path
     d="m 3.8981606,29.677585 c 0,1.013329 1.017911,2.026658 2.034037,2.026658 H 26.16899 c 1.017314,0 2.034036,-1.013329 2.034036,-2.026658 V 12.455138 c 0,-1.01333 0,-1.01333 -1.016722,-2.026659 L 18.034032,1.3102937 C 17.494124,0.90377679 17.016717,0.29696448 15.999995,0.29696448 H 5.8310014 c -1.0173163,0 -2.0340369,1.01332922 -2.0340369,2.02665842 z"
     fill="#323232"
     stroke="#323232"
     id="path1"
     style="stroke-width:0.593929" />
  <path
     d="M 5.8804086,31.407947 H 26.119583 v 0.592591 H 5.8804086 Z"
     id="path2"
     style="fill:#bfbfbf;fill-opacity:1;stroke-width:0.593929" />
  <path
     d="m 9.501698,18.481038 c 4.192485,0 4.968121,5.310794 6.817625,5.327386 1.849504,0.01422 2.682881,-5.33983 6.87358,-5.33983"
     id="path17"
     inkscape:connector-curvature="0"
     style="fill:none;stroke:#1d99f3;stroke-width:0.593929" />
  <path
     d="m 9.501698,17.907411 c 4.192485,0 5.044912,-3.615392 6.836674,-3.611836 1.779857,0.0041 2.663832,4.173019 6.854531,4.173019"
     id="path19"
     inkscape:connector-curvature="0"
     style="fill:none;stroke:#da4453;stroke-width:0.593929" />
  <path
     d="m 9.501698,17.907411 c 4.192485,0 4.446665,-5.934197 6.827745,-5.934197 2.381078,0 2.672761,6.494787 6.86346,6.494787"
     id="path21"
     inkscape:connector-curvature="0"
     style="fill:none;stroke:#d6d6d6;stroke-width:0.593929" />
  <g
     id="g29"
     style="fill:#d6d6d6"
     transform="matrix(0.59526977,0,0,0.59259016,-2.9989671,-0.19325512)">
    <path
       d="m 20,20 h 1 v 23 h -1 z"
       id="path23"
       inkscape:connector-curvature="0"
       style="color:#000000" />
    <path
       d="m 20,31 h 24 v 1 H 20 Z"
       id="path25"
       inkscape:connector-curvature="0" />
    <path
       d="m 26,30 h 1 v 3 h -1 z m 6,0 h 1 v 3 h -1 z m 6,0 h 1 v 3 h -1 z"
       id="path27"
       inkscape:connector-curvature="0" />
  </g>
</svg>
