<svg xmlns="http://www.w3.org/2000/svg" height="32" width="32">
    <path d="M4.6 29.5c0 1 1 2 2 2h19.9c1 0 2-1 2-2v-17c0-1 0-1-1-2l-9-9c-.531-.401-1-1-2-1h-10c-1 0-2 1-2 2z" fill="#323232" stroke="#323232"/>
    <g transform="translate(5 8)">
            <g fill="#807F7F">
        <path d="M3 3v16h16V3H3zm1 4h14v11H4V7z"/>
        <path d="M11.465 14.16l-1.427-1.411.017-.017a9.843 9.843 0 0 0 2.085-3.669h1.646V7.94H9.853V6.816H8.729v1.123H4.796v1.118h6.276a8.828 8.828 0 0 1-1.781 3.012 8.79 8.79 0 0 1-1.298-1.882H6.87c.41.916.972 1.78 1.675 2.562l-2.86 2.82.798.798 2.809-2.81 1.747 1.748.427-1.146zm3.164-2.85h-1.124l-2.528 6.743H12.1l.63-1.686h2.669l.634 1.686h1.124L14.63 11.31zm-1.472 3.933l.91-2.432.91 2.432h-1.82z"/>
    </g>

    </g>
    <path fill="#807F7F" d="M7 31h19v1H7z"/>
</svg>
