<svg xmlns="http://www.w3.org/2000/svg" height="32" width="32">
    <path d="M4.6 29.5c0 1 1 2 2 2h19.9c1 0 2-1 2-2v-17c0-1 0-1-1-2l-9-9c-.531-.401-1-1-2-1h-10c-1 0-2 1-2 2z" fill="#323232" stroke="#323232"/>
    <g transform="translate(5 8)">
            <g transform="translate(-326 -534.362)" fill="#807F7F" stroke-width="6">
        <path d="M329 537.362h16v1h-16zM329 552.362h16v1h-16zM332 540.362h11v1h-11zM332 543.362h5v1h-5zM332 546.362h11v1h-11zM332 549.362h5v1h-5z"/>
        <circle cx="329.5" cy="540.862" r=".5"/>
        <circle cx="329.5" cy="546.862" r=".5"/>
    </g>

    </g>
    <path fill="#807F7F" d="M7 31h19v1H7z"/>
</svg>
