<svg xmlns="http://www.w3.org/2000/svg" height="32" width="32">
    <path d="M4.6 29.5c0 1 1 2 2 2h19.9c1 0 2-1 2-2v-17c0-1 0-1-1-2l-9-9c-.531-.401-1-1-2-1h-10c-1 0-2 1-2 2z" fill="#323232" stroke="#323232"/>
    <g transform="translate(5 8)">
            <path d="M11 3a8 8 0 0 0-8 8 8 8 0 0 0 8 8 8 8 0 0 0 5.654-2.346l-.707-.707A7 7 0 0 1 11 18a7 7 0 0 1-7-7 7 7 0 0 1 7-7 7 7 0 0 1 4.947 2.053l.707-.707A8 8 0 0 0 11 3z" fill="#19C5FF" fill-rule="evenodd"/>

    </g>
    <path fill="#19C5FF" d="M7 31h19v1H7z"/>
</svg>
