<svg xmlns="http://www.w3.org/2000/svg" height="32" width="32">
    <path d="M4.6 29.5c0 1 1 2 2 2h19.9c1 0 2-1 2-2v-17c0-1 0-1-1-2l-9-9c-.531-.401-1-1-2-1h-10c-1 0-2 1-2 2z" fill="#323232" stroke="#323232"/>
    <g transform="translate(5 8)">
            <path d="M3 3v16h16V3h-1v1h-2V3h-1v1h-2V3h-1v1h-2V3H9v1H7V3H6v1H4V3H3zm1 3h14v12H4V6zm2 2v1h10V8H6zm0 3v1h6v-1H6zm0 3v1h8v-1H6zm8 2v1h2v-1h-2z" class="ColorScheme-Text" fill="#FFC519"/>

    </g>
    <path fill="#FFC519" d="M7 31h19v1H7z"/>
</svg>
