<svg xmlns="http://www.w3.org/2000/svg" height="32" width="32">
    <path d="M4.6 29.5c0 1 1 2 2 2h19.9c1 0 2-1 2-2v-17c0-1 0-1-1-2l-9-9c-.531-.401-1-1-2-1h-10c-1 0-2 1-2 2z" fill="#323232" stroke="#323232"/>
    <g transform="translate(5 8)">
            <defs>
        <linearGradient id="c">
            <stop stop-color="#FE8C19"/>
            <stop offset="1" stop-color="#FE8C19"/>
        </linearGradient>
        <linearGradient id="b">
            <stop stop-color="#807F7F"/>
            <stop offset="1" stop-color="#807F7F" stop-opacity="0"/>
        </linearGradient>
        <linearGradient id="a">
            <stop stop-color="#807F7F"/>
            <stop offset="1" stop-color="#807F7F"/>
        </linearGradient>
    </defs>
    <path d="M10 3v3h3V3h-3zm0 3.25L7 7l.824.824L10 7.281V6.25zm3 .25v1.031l3.938.985L12 9.75v9L19 17V8l-6-1.5zM4.867 7.533L3 8v9l8 2v-9L5.062 8.516l.63-.157-.825-.826zM18 9.281v6.44l-5-1.25v-3.94l5-1.25zM13 15.5l3.941.984-3.941.987V15.5z" fill="#807F7F" fill-rule="evenodd"/>

    </g>
    <path fill="#807F7F" d="M7 31h19v1H7z"/>
</svg>
