<svg xmlns="http://www.w3.org/2000/svg" height="32" width="32">
    <path d="M4.6 29.5c0 1 1 2 2 2h19.9c1 0 2-1 2-2v-17c0-1 0-1-1-2l-9-9c-.531-.401-1-1-2-1h-10c-1 0-2 1-2 2z" fill="#323232" stroke="#323232"/>
    <g transform="translate(5 8)">
            <g fill="#19C5FF">
        <path d="M3 3v16h16V3H3zm1 1h14v12H4V4zm0 13h14v1H4v-1z"/>
        <path d="M6 5v4h4V5H6zm6 0v4h4V5h-4zm-6 6v4h4v-4H6zm6 0v4h4v-4h-4z" stroke-width="2"/>
    </g>

    </g>
    <path fill="#19C5FF" d="M7 31h19v1H7z"/>
</svg>
