<svg xmlns="http://www.w3.org/2000/svg" height="32" width="32">
    <path d="M4.6 29.5c0 1 1 2 2 2h19.9c1 0 2-1 2-2v-17c0-1 0-1-1-2l-9-9c-.531-.401-1-1-2-1h-10c-1 0-2 1-2 2z" fill="#323232" stroke="#323232"/>
    <g transform="translate(5 8)">
            <path d="M3 5v12h8v-1H4v-.377l.17-.16L7.863 12H6.734L4 14.562V6h.105l3.438 3.223.389-.698L5.238 6h4.096l.555-1H3zm8 0v1h5.762l-4.266 4h1.133l4.266-4H18v8.562l-2.982-2.794-.387.695 3.2 3 .169.16V16h-5.334l-.555 1H19V5h-8z" stroke-opacity=".55" fill="#FE1952" stroke-width="2.8"/>

    </g>
    <path fill="#FE1952" d="M7 31h19v1H7z"/>
</svg>
