<svg xmlns="http://www.w3.org/2000/svg" height="32" width="32">
    <path d="M4.6 29.5c0 1 1 2 2 2h19.9c1 0 2-1 2-2v-17c0-1 0-1-1-2l-9-9c-.531-.401-1-1-2-1h-10c-1 0-2 1-2 2z" fill="#323232" stroke="#323232"/>
    <g transform="translate(5 8)">
            <defs>
        <linearGradient id="c">
            <stop stop-color="#FE8C19"/>
            <stop offset="1" stop-color="#FE8C19"/>
        </linearGradient>
        <linearGradient id="b">
            <stop stop-color="#807F7F"/>
            <stop offset="1" stop-color="#807F7F" stop-opacity="0"/>
        </linearGradient>
        <linearGradient id="a">
            <stop stop-color="#807F7F"/>
            <stop offset="1" stop-color="#807F7F"/>
        </linearGradient>
    </defs>
    <g transform="translate(-326 -534.362)" fill="#807F7F" stroke-width="2">
        <path d="M331 537.362v16h15v-16h-15zm1 1h13v14h-13v-14z"/>
        <rect width="5" x="333" y="543.362" rx="0" height="5"/>
        <rect width="11" x="333" y="550.362" rx="0" height="1"/>
        <rect width="5" x="339" y="547.362" rx="0" height="1"/>
        <rect width="5" x="339" y="543.362" rx="0" height="1"/>
        <rect width="11" x="333" y="540.362" rx="0" height="1"/>
        <rect width="1" x="328" y="541.362" rx="0" height="9"/>
        <rect width="2" x="329" y="541.362" rx="0" height="1"/>
        <path d="M328 550.362a3 3 0 0 0 3 3v-1a2 2 0 0 1-2-2h-1z"/>
    </g>

    </g>
    <path fill="#807F7F" d="M7 31h19v1H7z"/>
</svg>
