<svg xmlns="http://www.w3.org/2000/svg" height="32" width="32">
    <path d="M4.6 29.5c0 1 1 2 2 2h19.9c1 0 2-1 2-2v-17c0-1 0-1-1-2l-9-9c-.531-.401-1-1-2-1h-10c-1 0-2 1-2 2z" fill="#323232" stroke="#323232"/>
    <g transform="translate(5 8)">
            <path d="M1 3v16h20V3H1zm1 1h.049l5.974 5.977L2 16V4zm1.463 0h15.074L11 11.537 3.463 4zM19.95 4H20v12l-6.023-6.023L19.95 4zm-11.22 6.684L11 12.95l2.27-2.267 6.267 6.267.463.463V18H2v-.586l.463-.463 6.267-6.267z" stroke-opacity=".55" fill="#19C5FF" stroke-width="2.8"/>

    </g>
    <path fill="#19C5FF" d="M7 31h19v1H7z"/>
</svg>
