<svg xmlns="http://www.w3.org/2000/svg" height="32" width="32">
    <path d="M4.6 29.5c0 1 1 2 2 2h19.9c1 0 2-1 2-2v-17c0-1 0-1-1-2l-9-9c-.531-.401-1-1-2-1h-10c-1 0-2 1-2 2z" fill="#323232" stroke="#323232"/>
    <g transform="translate(5 8)">
            <path d="M3.854 4A.864.864 0 0 0 3 4.875v12.25c0 .484.382.875.854.875h14.292c.47 0 .854-.391.854-.875V4.873A.866.866 0 0 0 18.145 4H3.854zm9.625 1a.5.5 0 0 1 .521.47v.03a.5.5 0 0 1-.492.5.5.5 0 0 1-.508-.486.5.5 0 0 1 .479-.514zm2 0a.5.5 0 0 1 .521.47v.03a.5.5 0 0 1-.492.5.5.5 0 0 1-.508-.486.5.5 0 0 1 .479-.514zm2 0a.5.5 0 0 1 .521.47v.03a.5.5 0 0 1-.492.5.5.5 0 0 1-.508-.486.5.5 0 0 1 .479-.514zM4 7h14v10H4V7z" fill="#19FE8C"/>

    </g>
    <path fill="#19FE8C" d="M7 31h19v1H7z"/>
</svg>
