<svg xmlns="http://www.w3.org/2000/svg" height="32" width="32">
    <path d="M4.6 29.5c0 1 1 2 2 2h19.9c1 0 2-1 2-2v-17c0-1 0-1-1-2l-9-9c-.531-.401-1-1-2-1h-10c-1 0-2 1-2 2z" fill="#323232" stroke="#323232"/>
    <g transform="translate(5 8)">
            <g fill="#807F7F">
        <path d="M3 3v16h11V9h4v4h1V3H3zm1 1h14v4H4V4zm0 5h4v4H4V9zm5 0h4v4H9V9zm-5 5h4v4H4v-4zm5 0h4v4H9v-4z" stroke-width="2"/>
        <path d="M16.5 14c-.831 0-1.5.638-1.5 1.43 0 .763.623 1.376 1.412 1.42.058.261.087.528.088.795A3.773 3.773 0 0 1 16.242 19c1.1-.734 1.756-1.933 1.758-3.213v-.357c0-.792-.669-1.43-1.5-1.43z"/>
    </g>

    </g>
    <path fill="#807F7F" d="M7 31h19v1H7z"/>
</svg>
