<svg xmlns="http://www.w3.org/2000/svg" height="32" width="32">
    <path d="M4.6 29.5c0 1 1 2 2 2h19.9c1 0 2-1 2-2v-17c0-1 0-1-1-2l-9-9c-.531-.401-1-1-2-1h-10c-1 0-2 1-2 2z" fill="#323232" stroke="#323232"/>
    <g transform="translate(5 8)">
            <g transform="translate(-326 -534.362)" fill="#FE1952">
        <path d="M335 538.31v14.052h1v-7.361a4 4 0 0 0 3 1.361 4 4 0 1 0 0-8 4 4 0 0 0-3 1.362v-1.415h-1zm4 1.052a3 3 0 1 1 0 6 3 3 0 0 1 0-6z"/>
        <circle cx="331" cy="544.362" r="1" stroke-width="2"/>
    </g>

    </g>
    <path fill="#FE1952" d="M7 31h19v1H7z"/>
</svg>
