<svg xmlns="http://www.w3.org/2000/svg" height="32" width="32">
    <path d="M4.6 29.5c0 1 1 2 2 2h19.9c1 0 2-1 2-2v-17c0-1 0-1-1-2l-9-9c-.531-.401-1-1-2-1h-10c-1 0-2 1-2 2z" fill="#323232" stroke="#323232"/>
    <g transform="translate(5 8)">
            <defs>
        <linearGradient id="c">
            <stop stop-color="#FE8C19"/>
            <stop offset="1" stop-color="#FE8C19"/>
        </linearGradient>
        <linearGradient id="b">
            <stop stop-color="#807F7F"/>
            <stop offset="1" stop-color="#807F7F" stop-opacity="0"/>
        </linearGradient>
        <linearGradient id="a">
            <stop stop-color="#807F7F"/>
            <stop offset="1" stop-color="#807F7F"/>
        </linearGradient>
    </defs>
    <path d="M3 3v1h16V3H3zm6 2.666v1.025l4.287 5.643L9 17.463V19h10v-4h-.564c0 .74.001 1.496-.649 1.94-.712.486-1.651.578-2.476.578h-3.93l3.808-5.184-3.808-5.928h2.238c1.588 0 3.848-.143 4.477 1.713.107.317.178 1.548.205 1.881H19V5.666H9zM3 7v1h5V7H3zm0 3v1h7v-1H3zm0 3v1h7v-1H3zm0 3v1h5v-1H3z" fill="#FF19C5"/>

    </g>
    <path fill="#FF19C5" d="M7 31h19v1H7z"/>
</svg>
