<?xml version="1.0" encoding="UTF-8" standalone="no"?>
<svg
   height="32"
   width="32"
   version="1.1"
   id="svg3"
   sodipodi:docname="text-x-sass.svg"
   inkscape:version="1.3.2 (091e20ef0f, 2023-11-25)"
   xmlns:inkscape="http://www.inkscape.org/namespaces/inkscape"
   xmlns:sodipodi="http://sodipodi.sourceforge.net/DTD/sodipodi-0.dtd"
   xmlns:xlink="http://www.w3.org/1999/xlink"
   xmlns="http://www.w3.org/2000/svg"
   xmlns:svg="http://www.w3.org/2000/svg">
  <defs
     id="defs3">
    <linearGradient
       id="linearGradient3"
       inkscape:collect="always">
      <stop
         style="stop-color:#d4b2ff;stop-opacity:0.10196079;"
         offset="0"
         id="stop3" />
      <stop
         style="stop-color:#70a9ff;stop-opacity:0.80000001;"
         offset="1"
         id="stop4" />
    </linearGradient>
    <linearGradient
       inkscape:collect="always"
       xlink:href="#linearGradient3"
       id="linearGradient4"
       x1="4.5834422"
       y1="0.68839633"
       x2="28.291395"
       y2="31.853977"
       gradientUnits="userSpaceOnUse" />
  </defs>
  <sodipodi:namedview
     id="namedview3"
     pagecolor="#ffffff"
     bordercolor="#000000"
     borderopacity="0.25"
     inkscape:showpageshadow="2"
     inkscape:pageopacity="0.0"
     inkscape:pagecheckerboard="0"
     inkscape:deskcolor="#d1d1d1"
     inkscape:zoom="11.984375"
     inkscape:cx="17.439374"
     inkscape:cy="13.809648"
     inkscape:window-width="1920"
     inkscape:window-height="994"
     inkscape:window-x="0"
     inkscape:window-y="0"
     inkscape:window-maximized="1"
     inkscape:current-layer="svg3" />
  <path
     d="M4.6 29.5c0 1 1 2 2 2h19.9c1 0 2-1 2-2v-17c0-1 0-1-1-2l-9-9c-.531-.401-1-1-2-1h-10c-1 0-2 1-2 2z"
     id="path1"
     style="fill:url(#linearGradient4)" />
  <path
     d="m 23.62752,20.070991 a 4.2770464,4.2770464 0 0 0 -1.776615,0.394104 c -0.183402,-0.346503 -0.367506,-0.649607 -0.398306,-0.875009 -0.0343,-0.263202 -0.077,-0.423505 -0.0343,-0.737808 0.042,-0.313604 0.233804,-0.758808 0.233804,-0.795208 -0.0043,-0.03289 -0.042,-0.193201 -0.436807,-0.196701 -0.3941,-0.008 -0.735002,0.0728 -0.773503,0.171501 a 4.0460443,4.0460443 0 0 0 -0.164507,0.557904 c -0.0686,0.343005 -0.788211,1.558218 -1.198415,2.196625 -0.133701,-0.248503 -0.248501,-0.467605 -0.271602,-0.642607 -0.035,-0.262503 -0.077,-0.422804 -0.035,-0.736409 0.04272,-0.314303 0.233801,-0.758808 0.233801,-0.795909 -0.0036,-0.0329 -0.042,-0.193201 -0.436105,-0.196001 -0.394106,-0.009 -0.73501,0.0728 -0.773511,0.170801 -0.03852,0.098 -0.08052,0.331805 -0.164502,0.557907 -0.08052,0.226802 -1.037414,2.254725 -1.286614,2.78393 -0.126002,0.270203 -0.237303,0.485104 -0.317803,0.631406 -0.08051,0.145599 -0.0037,0.01049 -0.0112,0.0252 l -0.107101,0.1932 v 0.008 c -0.05391,0.091 -0.111303,0.179201 -0.137903,0.179201 -0.01887,0 -0.0574,-0.245002 0.0069,-0.581004 0.142104,-0.703508 0.486507,-1.801822 0.483007,-1.841023 0,-0.0196 0.06513,-0.212101 -0.221902,-0.310803 -0.280005,-0.098 -0.379406,0.0658 -0.401806,0.0658 -0.02311,0 -0.042,0.05812 -0.042,0.05812 0,0 0.309404,-1.236214 -0.593605,-1.236214 -0.567003,0 -1.348212,0.587306 -1.734618,1.123512 -0.245002,0.127402 -0.76581,0.397605 -1.316716,0.686008 -0.210666,0.109201 -0.429068,0.226104 -0.63557,0.331805 l -0.04201,-0.04403 c -1.095402,-1.112723 -3.120524,-1.900235 -3.036523,-3.396153 0.030801,-0.543904 0.2303026,-1.977527 3.889942,-3.714242 2.998137,-1.422415 5.398463,-1.03251 5.815669,-0.163799 0.593609,1.240405 -1.282416,3.545538 -4.398856,3.878041 -1.187211,0.127402 -1.810916,-0.310103 -1.967718,-0.474603 -0.165204,-0.171503 -0.187603,-0.178503 -0.249203,-0.145602 -0.0994,0.0511 -0.03847,0.203701 0,0.295402 0.0917,0.229603 0.474604,0.638408 1.125611,0.84281 0.570502,0.178503 1.964224,0.277202 3.648444,-0.343004 1.887922,-0.697207 3.361437,-2.630637 2.928833,-4.246945 -0.440302,-1.645025 -3.304035,-2.184733 -6.010275,-1.269118 -1.612114,0.546707 -3.3579312,1.400019 -4.613045,2.520723 -1.4938162,1.32792 -1.7311193,2.487834 -1.6310183,2.96944 0.3479037,1.718521 2.8322315,2.838533 3.8276423,3.66664 l -0.137194,0.07352 c -0.4977482,0.233102 -2.3933686,1.178109 -2.867974,2.177023 -0.5362058,1.131213 0.084001,1.945318 0.4977056,2.054519 1.2789133,0.339504 2.5879274,-0.270204 3.2970364,-1.27331 0.703507,-1.003114 0.619505,-2.305825 0.294003,-2.900131 l -0.0112,-0.0224 0.390604,-0.218402 c 0.252002,-0.1428 0.501206,-0.273701 0.719608,-0.387102 -0.1225,0.317101 -0.210002,0.693005 -0.256902,1.24041 -0.0532,0.641904 0.222602,1.474215 0.58591,1.802519 0.161,0.142103 0.352104,0.145603 0.471105,0.145603 0.421402,0 0.612502,-0.331806 0.823204,-0.729411 0.260403,-0.485107 0.490002,-1.047209 0.490002,-1.047209 0,0 -0.287,1.521115 0.497004,1.521115 0.287704,0 0.57471,-0.353505 0.70491,-0.536207 v 0.008 l 0.0231,-0.0364 c 0.0308,-0.0434 0.0462,-0.07 0.0462,-0.07 v -0.008 c 0.114803,-0.189003 0.371006,-0.623008 0.75391,-1.342612 0.494205,-0.926108 0.968811,-2.086022 0.968811,-2.086022 0,0 0.0462,0.284203 0.187602,0.75111 0.084,0.277202 0.268102,0.580305 0.409503,0.875007 -0.114796,0.153997 -0.183396,0.241497 -0.183396,0.241497 l 0.0037,0.008 c -0.0917,0.116201 -0.195302,0.240801 -0.302404,0.364003 -0.390604,0.445905 -0.85751,0.952711 -0.91911,1.099013 -0.0728,0.171501 -0.0574,0.298902 0.084,0.401103 0.103602,0.0728 0.287004,0.08752 0.483006,0.0728 a 2.2442242,2.2442242 0 0 0 0.719556,-0.156761 c 0.191102,-0.06511 0.409507,-0.163801 0.620209,-0.310103 0.382904,-0.270203 0.616007,-0.653107 0.593607,-1.163413 -0.01189,-0.281402 -0.107102,-0.558607 -0.226103,-0.821109 a 15.217466,15.217466 0 0 0 1.175959,-1.915143 c 0,0 0.04547,0.284204 0.186901,0.75111 0.0728,0.238003 0.218403,0.497005 0.348604,0.751808 -0.567005,0.441006 -0.922609,0.95201 -1.045109,1.288014 -0.226103,0.620207 -0.04969,0.900908 0.282802,0.966009 0.149802,0.03011 0.364002,-0.03569 0.525004,-0.1015 a 2.4220268,2.4220268 0 0 0 0.662214,-0.324804 c 0.382878,-0.270203 0.75038,-0.645407 0.73078,-1.152912 A 2.1231231,2.1231231 0 0 0 22.065145,20.94442 c 0.483006,-0.189703 1.106014,-0.299603 1.899122,-0.207903 1.703819,0.189002 2.040522,1.204013 1.97542,1.626818 -0.0651,0.423504 -0.420704,0.656606 -0.539704,0.729407 -0.119,0.06932 -0.1568,0.0952 -0.1456,0.146301 0.0154,0.077 0.06929,0.0728 0.1722,0.0588 0.142101,-0.0224 0.896008,-0.347204 0.926808,-1.127011 0.0455,-1.003811 -0.953408,-2.098624 -2.725828,-2.087424 z m -13.139143,4.221045 c -0.5635059,0.588006 -1.3559144,0.80991 -1.6926177,0.620207 -0.3640046,-0.200902 -0.2219031,-1.065412 0.4711047,-1.689121 0.4207042,-0.379404 0.968111,-0.729406 1.327914,-0.945009 0.0805,-0.0476 0.203002,-0.1169 0.348603,-0.2002 a 0.49630543,0.49630543 0 0 1 0.03849,-0.0224 c 0.0266,-0.014 0.0574,-0.03289 0.0882,-0.0511 0.256204,0.890408 0.0112,1.670916 -0.582405,2.287624 z m 4.115345,-2.667027 c -0.196002,0.456404 -0.609004,1.627514 -0.857504,1.561713 -0.214902,-0.0553 -0.345104,-0.941508 -0.042,-1.817216 0.152602,-0.441005 0.4781,-0.966011 0.669902,-1.170415 0.310103,-0.329002 0.646803,-0.438203 0.730803,-0.303102 0.0994,0.175002 -0.3787,1.444816 -0.501201,1.72902 z m 3.39574,1.547012 c -0.084,0.0399 -0.161002,0.07 -0.195303,0.0476 -0.0266,-0.0154 0.035,-0.07 0.035,-0.07 0,0 0.424206,-0.434004 0.592907,-0.634204 0.09591,-0.116902 0.21,-0.252004 0.3332,-0.405304 v 0.0434 c 0,0.525003 -0.528502,0.875007 -0.765805,1.017809 z m 2.618024,-0.569104 c -0.06089,-0.0434 -0.0532,-0.178502 0.154003,-0.602005 0.08054,-0.168001 0.263903,-0.448004 0.581709,-0.714707 0.03851,0.109201 0.0616,0.214902 0.0574,0.313603 -0.0037,0.656606 -0.493508,0.900908 -0.792413,1.003109 z"
     id="path17"
     inkscape:connector-curvature="0"
     style="opacity:1;fill:#c87cdb;stroke-width:0.70001;fill-opacity:1" />
</svg>
