<svg xmlns="http://www.w3.org/2000/svg" height="32" width="32">
    <path d="M4.6 29.5c0 1 1 2 2 2h19.9c1 0 2-1 2-2v-17c0-1 0-1-1-2l-9-9c-.531-.401-1-1-2-1h-10c-1 0-2 1-2 2z" fill="#323232" stroke="#323232"/>
    <g transform="translate(5 8)">
            <g fill="#FE1919">
        <path stroke-width="6" d="M3 3h8v1H3zM3 7h16v1H3zM3 11h6v1H3zM3 14h4v1H3zM3 18h6v1H3z"/>
        <path d="M12 11v4h-1l4 4 4-4h-1v-4h-6zm1 1h4v3h.584L15 17.584 12.416 15H13v-3z"/>
    </g>

    </g>
    <path fill="#FE1919" d="M7 31h19v1H7z"/>
</svg>
