<svg xmlns="http://www.w3.org/2000/svg" height="32" width="32">
    <path d="M4.6 29.5c0 1 1 2 2 2h19.9c1 0 2-1 2-2v-17c0-1 0-1-1-2l-9-9c-.531-.401-1-1-2-1h-10c-1 0-2 1-2 2z" fill="#323232" stroke="#323232"/>
    <g transform="translate(5 8)">
            <path d="M18.272 18.997L13.406 19l-3.316-4.807s-.534-.901-.862-1.162c-.274-.218-.39-.296-.662-.296h-.615v6.259l-4.223.001V3h9.197s3.727.674 3.803 4.296c.085 4.037-3.602 5.224-3.602 5.224.505.203 4.572 5.541 5.146 6.474M10.98 6.469l-2.986-.001-.001 2.72 2.988-.001s1.384-.004 1.384-1.383c0-1.407-1.384-1.334-1.384-1.334" fill="#19C5FF" fill-rule="evenodd"/>

    </g>
    <path fill="#19C5FF" d="M7 31h19v1H7z"/>
</svg>
