<svg xmlns="http://www.w3.org/2000/svg" height="32" width="32">
    <path d="M4.6 29.5c0 1 1 2 2 2h19.9c1 0 2-1 2-2v-17c0-1 0-1-1-2l-9-9c-.531-.401-1-1-2-1h-10c-1 0-2 1-2 2z" fill="#323232" stroke="#323232"/>
    <g transform="translate(5 8)">
            <path d="M12.5 2A1.5 1.5 0 0 0 11 3.5 1.5 1.5 0 0 0 12.5 5 1.5 1.5 0 0 0 14 3.5 1.5 1.5 0 0 0 12.5 2m-5 1A5.5 5.5 0 0 0 2 8.5 5.5 5.5 0 0 0 7.5 14 5.5 5.5 0 0 0 13 8.5a5.5 5.5 0 0 0-1.283-3.523A2 2 0 0 1 12 6a2 2 0 0 1-2 2 2 2 0 0 1-2-2 2 2 0 0 1 2-2 2 2 0 0 1 1.053.303A5.5 5.5 0 0 0 7.5 3" fill="#198CFE" color="#807F7F"/>

    </g>
    <path fill="#807F7F" d="M7 31h19v1H7z"/>
</svg>
