<svg xmlns="http://www.w3.org/2000/svg" height="32" width="32">
    <path d="M4.6 29.5c0 1 1 2 2 2h19.9c1 0 2-1 2-2v-17c0-1 0-1-1-2l-9-9c-.531-.401-1-1-2-1h-10c-1 0-2 1-2 2z" fill="#323232" stroke="#323232"/>
    <g transform="translate(5 8)">
            <defs>
        <linearGradient gradientTransform="translate(327.391 535.741) scale(.39877)" xlink:href="#a" id="f" x1="44" x2="4" gradientUnits="userSpaceOnUse"/>
        <linearGradient id="a">
            <stop stop-color="#8CFF19"/>
            <stop offset="1" stop-color="#8CFF19"/>
        </linearGradient>
        <linearGradient gradientTransform="translate(327.391 535.741) scale(.39877)" xlink:href="#b" id="e" y1="4" x1="24" y2="44" x2="4" gradientUnits="userSpaceOnUse"/>
        <linearGradient id="b">
            <stop stop-color="#198CFE"/>
            <stop offset="1" stop-color="#19C5FF"/>
        </linearGradient>
        <linearGradient gradientTransform="translate(327.391 535.741) scale(.39877)" xlink:href="#c" id="d" y1="44" x1="44" y2="4" x2="24" gradientUnits="userSpaceOnUse"/>
        <linearGradient id="c">
            <stop stop-color="#FE1952"/>
            <stop offset="1" stop-color="#FE1952"/>
        </linearGradient>
    </defs>
    <g fill-rule="evenodd">
        <path d="M336.962 537.336l1.171 13.278 6.804 2.673-7.975-15.95z" fill="url(#d)" transform="translate(-326 -534.362)"/>
        <path d="M336.962 537.336l-7.976 15.951 8.692-7.843-.716-8.108z" fill="url(#e)" transform="translate(-326 -534.362)"/>
        <path d="M333.825 548.922l-4.837 4.363 15.95.001-11.113-4.365zM329 553.259l-.028.027h.015l.014-.027z" fill="url(#f)" transform="translate(-326 -534.362)"/>
    </g>

    </g>
    <path fill="#FE1952" d="M7 31h19v1H7z"/>
</svg>
