<svg xmlns="http://www.w3.org/2000/svg" height="32" width="32">
    <path d="M4.6 29.5c0 1 1 2 2 2h19.9c1 0 2-1 2-2v-17c0-1 0-1-1-2l-9-9c-.531-.401-1-1-2-1h-10c-1 0-2 1-2 2z" fill="#323232" stroke="#323232"/>
    <g transform="translate(5 8)">
            <path style="isolation:auto;mix-blend-mode:normal;solid-color:#000;solid-opacity:1;marker:none" d="M9 5v2h2V5zm3 0v2h2V5zm4.684 2.674c-.637.436-.789 1.225-.59 1.97.2.745.707 1.282 1.476 1.342a1.822 1.822 0 0 0 1.715 1.215A1.822 1.822 0 0 0 21 10.986a1.82 1.82 0 0 0-1.715-1.213 1.82 1.82 0 0 0-1.03.323c.124-.347.139-.725.044-1.08a1.821 1.821 0 0 0-1.615-1.342zm.886 3.312H3c0 4.024 3.262 6.073 7.285 6.073 4.024 0 7.285-2.05 7.285-6.073zM5 8v2h2V8zm3 0v2h2V8zm3 0v2h2V8zm3 0v2h2V8zm-8 4a1 1 0 0 1 1 1 1 1 0 0 1-1 1 1 1 0 0 1-1-1 1 1 0 0 1 1-1z" color="#807F7F" overflow="visible" fill="#19C5FF" stroke-width=".016"/>

    </g>
    <path fill="#19C5FF" d="M7 31h19v1H7z"/>
</svg>
