<svg xmlns="http://www.w3.org/2000/svg" height="32" width="32">
    <path d="M4.6 29.5c0 1 1 2 2 2h19.9c1 0 2-1 2-2v-17c0-1 0-1-1-2l-9-9c-.531-.401-1-1-2-1h-10c-1 0-2 1-2 2z" fill="#323232" stroke="#323232"/>
    <g transform="translate(5 8)">
            <path d="M3 3v16h16V3H3zm1 1h14v14H4V4zm1 1v1h1V5H5zm1 1v2h2V6H6zm2 0h1V5H8v1zm0 2v1h1V8H8zM6 8H5v1h1V8zm7-3v1h1V5h-1zm1 1v2h2V6h-2zm2 0h1V5h-1v1zm0 2v1h1V8h-1zm-2 0h-1v1h1V8zm-5 3v2h4v-2H9zm4 2v2h2v-2h-2zm2 2v2h2v-2h-2zm-6-2H7v2h2v-2zm-2 2H5v2h2v-2z" fill="#FE1919"/>

    </g>
    <path fill="#FE1919" d="M7 31h19v1H7z"/>
</svg>
