<svg xmlns="http://www.w3.org/2000/svg" height="32" width="32">
    <path d="M4.6 29.5c0 1 1 2 2 2h19.9c1 0 2-1 2-2v-17c0-1 0-1-1-2l-9-9c-.531-.401-1-1-2-1h-10c-1 0-2 1-2 2z" fill="#323232" stroke="#323232"/>
    <g transform="translate(5 8)">
            <path d="M12.17 13.636l-1.964-1.94.023-.023a13.544 13.544 0 0 0 2.869-5.048h2.265V5.078H9.95V3.532H8.405v1.546H2.993v1.539h8.636a12.147 12.147 0 0 1-2.451 4.144 12.095 12.095 0 0 1-1.786-2.59H5.846a13.577 13.577 0 0 0 2.304 3.525l-3.935 3.88 1.098 1.099 3.865-3.866 2.404 2.405.588-1.578zm4.352-3.92h-1.546l-3.479 9.278h1.546l.866-2.32h3.672l.874 2.32h1.546l-3.479-9.277zm-2.025 5.412l1.252-3.347 1.253 3.347h-2.505z" fill="#807F7F"/>

    </g>
    <path fill="#807F7F" d="M7 31h19v1H7z"/>
</svg>
