<svg xmlns="http://www.w3.org/2000/svg" height="32" width="32">
    <path d="M4.6 29.5c0 1 1 2 2 2h19.9c1 0 2-1 2-2v-17c0-1 0-1-1-2l-9-9c-.531-.401-1-1-2-1h-10c-1 0-2 1-2 2z" fill="#323232" stroke="#323232"/>
    <g transform="translate(5 8)">
            <path d="M3 3l4 8-4 8h2.236l4-8-4-8H3zm4 0l4 8h-.01l.006.01L7 19h2.236l2.877-5.754L14.99 19h2.237l-3.997-7.99.006-.01-4-8H7zm7.473 6l1 2H19V9h-4.527zm2 4l1 2H19v-2h-2.527z" fill="#807F7F" color="#807F7F" fill-rule="evenodd" stroke-width="4"/>

    </g>
    <path fill="#807F7F" d="M7 31h19v1H7z"/>
</svg>
