<svg xmlns="http://www.w3.org/2000/svg" height="32" width="32">
    <path d="M4.6 29.5c0 1 1 2 2 2h19.9c1 0 2-1 2-2v-17c0-1 0-1-1-2l-9-9c-.531-.401-1-1-2-1h-10c-1 0-2 1-2 2z" fill="#323232" stroke="#323232"/>
    <g transform="translate(5 8)">
            <path d="M3 3v16h16V3H3zm1 1h14v2H4V4zm0 3h1v2H4V7zm2 0h1v2H6V7zm2 0h1v2H8V7zm2 0h1v2h-1V7zm2 0h1v2h-1V7zm2 0h1v2h-1V7zm2 0h2v1h-2V7zM4 10h14v2H4v-2zm0 3h1v2H4v-2zm2 0h1v2H6v-2zm2 0h1v2H8v-2zm2 0h1v2h-1v-2zm2 0h1v2h-1v-2zm2 0h1v2h-1v-2zm2 0h2v1h-2v-1zM4 16h14v2H4v-2z" fill="#FF19C5" stroke-linecap="square" stroke-width="2"/>

    </g>
    <path fill="#FF19C5" d="M7 31h19v1H7z"/>
</svg>
