<svg xmlns="http://www.w3.org/2000/svg" height="32" width="32">
    <path d="M4.6 29.5c0 1 1 2 2 2h19.9c1 0 2-1 2-2v-17c0-1 0-1-1-2l-9-9c-.531-.401-1-1-2-1h-10c-1 0-2 1-2 2z" fill="#323232" stroke="#323232"/>
    <g transform="translate(5 8)">
            <path d="M11 3a4 4 0 0 0-3.87 3H10v2H7v2h3v2H7.133A4 4 0 0 0 11 15a4 4 0 0 0 3.87-3H12v-2h3V8h-3V6h2.867A4 4 0 0 0 11 3zm-6 9a6 5 0 0 0 5 4.93V17l-2 2h6l-2-2v-.076A6 5 0 0 0 17 12h-1a5 4 0 0 1-5 4 5 4 0 0 1-5-4H5z" fill="#FF19C5" fill-rule="evenodd"/>

    </g>
    <path fill="#FF19C5" d="M7 31h19v1H7z"/>
</svg>
