<?xml version="1.0" encoding="UTF-8" standalone="no"?>
<svg
   width="22"
   height="22"
   version="1.1"
   id="svg4"
   sodipodi:docname="media-playback-paused.svg"
   inkscape:version="1.4.2 (unknown)"
   xmlns:inkscape="http://www.inkscape.org/namespaces/inkscape"
   xmlns:sodipodi="http://sodipodi.sourceforge.net/DTD/sodipodi-0.dtd"
   xmlns="http://www.w3.org/2000/svg"
   xmlns:svg="http://www.w3.org/2000/svg">
  <defs
     id="defs4" />
  <sodipodi:namedview
     id="namedview4"
     pagecolor="#ffffff"
     bordercolor="#000000"
     borderopacity="0.25"
     inkscape:showpageshadow="2"
     inkscape:pageopacity="0.0"
     inkscape:pagecheckerboard="0"
     inkscape:deskcolor="#d1d1d1"
     inkscape:zoom="17.204545"
     inkscape:cx="10.200793"
     inkscape:cy="11.479524"
     inkscape:current-layer="svg4" />
  <style
     type="text/css"
     id="current-color-scheme">
        .ColorScheme-Text {
            color:#232629;
        }
    </style>
  <path
     d="m 8,8 h 2 v 6 H 8 Z"
     id="path2"
     style="color:#232629;fill:#232629;fill-rule:evenodd" />
  <path
     d="m 12,8 h 2 v 6 h -2 z"
     id="path3"
     style="color:#232629;fill:#232629;fill-rule:evenodd" />
  <path
     d="m 11,3 a 8,8 0 0 0 -8,8 8,8 0 0 0 8,8 8,8 0 0 0 8,-8 8,8 0 0 0 -8,-8 z m 0,1 a 7,7 0 0 1 7,7 7,7 0 0 1 -7,7 7,7 0 0 1 -7,-7 7,7 0 0 1 7,-7 z"
     id="path4"
     style="color:#232629;fill:#232629;fill-rule:evenodd" />
</svg>
