<?xml version="1.0" encoding="UTF-8" standalone="no"?>
<svg
   height="22"
   width="22"
   version="1.1"
   id="svg45"
   sodipodi:docname="preferences-system-login.svg"
   inkscape:version="1.2.1 (9c6d41e410, 2022-07-14)"
   xmlns:inkscape="http://www.inkscape.org/namespaces/inkscape"
   xmlns:sodipodi="http://sodipodi.sourceforge.net/DTD/sodipodi-0.dtd"
   xmlns:xlink="http://www.w3.org/1999/xlink"
   xmlns="http://www.w3.org/2000/svg"
   xmlns:svg="http://www.w3.org/2000/svg">
  <defs
     id="defs49">
    <linearGradient
       inkscape:collect="always"
       xlink:href="#linearGradient929"
       id="linearGradient931"
       x1="-20.000109"
       y1="19.99992"
       x2="-2.0008564"
       y2="2.001688"
       gradientUnits="userSpaceOnUse"
       gradientTransform="translate(4.8276904e-4)" />
    <linearGradient
       inkscape:collect="always"
       id="linearGradient929">
      <stop
         style="stop-color:#4d6f89;stop-opacity:1;"
         offset="0"
         id="stop925" />
      <stop
         style="stop-color:#364e60;stop-opacity:0.94117647;"
         offset="1"
         id="stop927" />
    </linearGradient>
    <linearGradient
       id="c-3"
       gradientUnits="userSpaceOnUse"
       x1="10.355895"
       x2="10.355895"
       y1="18.065456"
       y2="1.9994709"
       gradientTransform="matrix(0.85549446,0,0,0.85549446,-34.342004,-6.4521974)">
      <stop
         offset="0"
         stop-color="#1d1e1e"
         id="stop2610" />
      <stop
         offset="1"
         stop-color="#44484c"
         id="stop2612" />
    </linearGradient>
    <linearGradient
       id="b-7"
       gradientUnits="userSpaceOnUse"
       x1="11.886601"
       x2="11.661686"
       y1="18.022402"
       y2="9.4762812">
      <stop
         offset="0"
         stop-color="#fcfcfc"
         id="stop2605-5" />
      <stop
         offset="1"
         stop-color="#eff0f1"
         id="stop2607-3" />
    </linearGradient>
    <linearGradient
       id="e-5"
       gradientUnits="userSpaceOnUse"
       x1="7.1428261"
       x2="7.1428261"
       xlink:href="#a-6"
       y1="19.993298"
       y2="14.209132" />
    <linearGradient
       id="a-6">
      <stop
         offset="0"
         stop-color="#f39c1f"
         id="stop2600" />
      <stop
         offset="1"
         stop-color="#fdbc4b"
         id="stop2602" />
    </linearGradient>
    <linearGradient
       id="f-9"
       gradientUnits="userSpaceOnUse"
       x1="9.1779842"
       x2="11.427132"
       y1="7.534945"
       y2="9.7840929">
      <stop
         offset="0"
         id="stop2617-1" />
      <stop
         offset="1"
         stop-opacity="0"
         id="stop2619-2" />
    </linearGradient>
    <linearGradient
       id="linearGradient1035"
       gradientUnits="userSpaceOnUse"
       x1="4.00001"
       x2="18.000019"
       y1="4.0001602"
       y2="18"
       gradientTransform="translate(8.999993,-22.865799)">
      <stop
         offset="0"
         stop-color="#383e51"
         id="stop8-7" />
      <stop
         offset="1"
         stop-color="#655c6f"
         stop-opacity="0"
         id="stop10-5" />
    </linearGradient>
    <linearGradient
       id="linearGradient1037"
       gradientUnits="userSpaceOnUse"
       x1="11.00001"
       x2="11.00001"
       xlink:href="#a"
       y1="9.9999905"
       y2="4.99999"
       gradientTransform="translate(8.999993,-22.865799)" />
    <linearGradient
       id="linearGradient1041">
      <stop
         offset="0"
         stop-color="#c6cdd1"
         id="stop2-3" />
      <stop
         offset="1"
         stop-color="#e0e5e7"
         id="stop4-5" />
    </linearGradient>
    <linearGradient
       inkscape:collect="always"
       xlink:href="#c"
       id="linearGradient1047"
       gradientUnits="userSpaceOnUse"
       gradientTransform="translate(0,2.4999998)"
       x1="4.00001"
       y1="4.00016"
       x2="18.00002"
       y2="18" />
    <linearGradient
       inkscape:collect="always"
       xlink:href="#a"
       id="linearGradient1049"
       gradientUnits="userSpaceOnUse"
       gradientTransform="translate(0,2.4999998)"
       x1="11.00001"
       y1="9.99999"
       x2="11.00001"
       y2="4.99999" />
  </defs>
  <sodipodi:namedview
     id="namedview47"
     pagecolor="#ffffff"
     bordercolor="#666666"
     borderopacity="1.0"
     inkscape:showpageshadow="2"
     inkscape:pageopacity="0.0"
     inkscape:pagecheckerboard="0"
     inkscape:deskcolor="#d1d1d1"
     showgrid="false"
     inkscape:zoom="10.727273"
     inkscape:cx="11"
     inkscape:cy="11.04661"
     inkscape:window-width="1920"
     inkscape:window-height="1000"
     inkscape:window-x="0"
     inkscape:window-y="0"
     inkscape:window-maximized="1"
     inkscape:current-layer="svg45" />
  <linearGradient
     id="a">
    <stop
       offset="0"
       stop-color="#c6cdd1"
       id="stop2" />
    <stop
       offset="1"
       stop-color="#e0e5e7"
       id="stop4" />
  </linearGradient>
  <linearGradient
     id="b"
     gradientUnits="userSpaceOnUse"
     x1="11.00001"
     x2="11.00001"
     xlink:href="#a"
     y1="9.99999"
     y2="4.99999"
     gradientTransform="translate(8.999993,-22.865799)" />
  <linearGradient
     id="c"
     gradientUnits="userSpaceOnUse"
     x1="4.00001"
     x2="18.00002"
     y1="4.00016"
     y2="18"
     gradientTransform="translate(8.999993,-22.865799)">
    <stop
       offset="0"
       stop-color="#383e51"
       id="stop8" />
    <stop
       offset="1"
       stop-color="#655c6f"
       stop-opacity="0"
       id="stop10" />
  </linearGradient>
  <linearGradient
     id="d"
     gradientTransform="matrix(.62500129 0 0 .78947505 -241.2327 -408.36755)"
     gradientUnits="userSpaceOnUse"
     x2="0"
     y1="538.79797"
     y2="519.79797">
    <stop
       offset="0"
       stop-color="#2a2c2f"
       id="stop13" />
    <stop
       offset="1"
       stop-color="#424649"
       id="stop15" />
  </linearGradient>
  <linearGradient
     id="e"
     gradientTransform="matrix(.66666658 0 0 .50000001 -256.04766 -252.39899)"
     gradientUnits="userSpaceOnUse"
     x2="0"
     xlink:href="#a"
     y1="542.79797"
     y2="538.79797" />
  <linearGradient
     id="f"
     gradientUnits="userSpaceOnUse"
     x1="6.78569"
     x2="17.714262"
     y1="3.285716"
     y2="14.214288">
    <stop
       offset="0"
       id="stop19" />
    <stop
       offset="1"
       stop-opacity="0"
       id="stop21" />
  </linearGradient>
  <linearGradient
     id="g"
     gradientTransform="matrix(.6 0 0 .61111111 -229.34287 -314.04322)"
     gradientUnits="userSpaceOnUse"
     x2="0"
     y1="536.79797"
     y2="518.79797">
    <stop
       offset="0"
       stop-color="#39a1d8"
       id="stop24" />
    <stop
       offset="1"
       stop-color="#4db4e8"
       id="stop26" />
  </linearGradient>
  <rect
     width="17.999252"
     x="-19.999626"
     y="2.001688"
     rx="8.9996262"
     height="17.998232"
     transform="scale(-1,1)"
     id="rect223"
     ry="8.9991159"
     style="fill:url(#linearGradient931);fill-opacity:1" />
  <path
     style="display:inline;overflow:visible;opacity:0.3;fill:#000000;fill-opacity:1;stroke-width:1.25991;stroke-opacity:0.55"
     d="m 2.0052862,10.775845 c -0.0017,0.07501 -0.0054,0.149594 -0.0054,0.225034 0,4.985548 4.013844,8.999121 8.9995998,8.999121 4.985759,0 8.999662,-4.013573 8.999662,-8.999121 0,-0.07544 -0.0034,-0.149594 -0.0054,-0.225034 -0.118842,4.880661 -4.085868,8.77413 -8.994257,8.77413 -4.9101918,0 -8.8754188,-3.893469 -8.9942008,-8.77413"
     id="path225" />
  <path
     d="m 2.0052862,11.224155 c -0.0017,-0.07501 -0.0054,-0.149165 -0.0054,-0.225034 C 1.9998862,6.013616 6.0137302,2 10.999486,2 c 4.985759,0 8.999662,4.013616 8.999662,8.999121 0,0.07544 -0.0034,0.150023 -0.0054,0.225034 -0.118842,-4.88066 -4.085868,-8.77413 -8.994257,-8.77413 -4.9101918,0 -8.8754188,3.89347 -8.9942008,8.77413"
     style="display:inline;overflow:visible;opacity:0.3;fill:#ffffff;fill-opacity:1;stroke-width:1.25991;stroke-opacity:0.55"
     id="path229" />
  <path
     style="display:inline;overflow:visible;opacity:0.3;fill:#000000;fill-opacity:1;stroke-width:1.25991;stroke-opacity:0.55"
     d="m 2.0052862,10.775845 c -0.0017,0.07501 -0.0054,0.149594 -0.0054,0.225034 0,4.985548 4.013844,8.999121 8.9995998,8.999121 4.985759,0 8.999662,-4.013573 8.999662,-8.999121 0,-0.07544 -0.0034,-0.149594 -0.0054,-0.225034 -0.118842,4.880661 -4.085868,8.77413 -8.994257,8.77413 -4.9101918,0 -8.8754188,-3.893469 -8.9942008,-8.77413"
     id="path3401" />
  <path
     d="M 18,7.4999998 V 10.5 H 4 l 4,4 H 4 l 2,2 12,0.123592 V 8.9999999 Z"
     fill="url(#c)"
     fill-rule="evenodd"
     id="path39-6"
     style="fill:url(#linearGradient1047)"
     sodipodi:nodetypes="ccccccccc" />
  <path
     d="M 4,7.4999998 V 10.5 H 18 V 7.4999998 Z M 4,11.5 v 3 h 14 v -3 z"
     id="path41-2"
     style="fill:url(#linearGradient1049)" />
  <path
     d="m 5.5,8.4999998 a 0.5,0.5 0 0 0 -0.5,0.5 0.5,0.5 0 0 0 0.5,0.5 0.5,0.5 0 0 0 0.5,-0.5 0.5,0.5 0 0 0 -0.5,-0.5 z M 5.5,12.5 A 0.5,0.5 0 0 0 5,13 0.5,0.5 0 0 0 5.5,13.5 0.5,0.5 0 0 0 6,13 0.5,0.5 0 0 0 5.5,12.5 Z m 2,0 A 0.5,0.5 0 0 0 7,13 0.5,0.5 0 0 0 7.5,13.5 0.5,0.5 0 0 0 8,13 0.5,0.5 0 0 0 7.5,12.5 Z m 2,0 A 0.5,0.5 0 0 0 9,13 0.5,0.5 0 0 0 9.5,13.5 0.5,0.5 0 0 0 10,13 0.5,0.5 0 0 0 9.5,12.5 Z"
     fill="#4d4d4d"
     id="path43-9" />
</svg>
