<?xml version="1.0" encoding="UTF-8" standalone="no"?>
<svg
   height="22"
   width="22"
   version="1.1"
   id="svg1699"
   sodipodi:docname="preferences-other.svg"
   inkscape:version="1.2.1 (9c6d41e410, 2022-07-14)"
   xmlns:inkscape="http://www.inkscape.org/namespaces/inkscape"
   xmlns:sodipodi="http://sodipodi.sourceforge.net/DTD/sodipodi-0.dtd"
   xmlns:xlink="http://www.w3.org/1999/xlink"
   xmlns="http://www.w3.org/2000/svg"
   xmlns:svg="http://www.w3.org/2000/svg">
  <defs
     id="defs1703">
    <linearGradient
       inkscape:collect="always"
       id="linearGradient2227">
      <stop
         style="stop-color:#74848c;stop-opacity:1;"
         offset="0"
         id="stop2223" />
      <stop
         style="stop-color:#445055;stop-opacity:1;"
         offset="1"
         id="stop2225" />
    </linearGradient>
    <linearGradient
       inkscape:collect="always"
       xlink:href="#linearGradient2227"
       id="linearGradient2229"
       x1="9.4073839"
       y1="2.1392694"
       x2="11"
       y2="20.000008"
       gradientUnits="userSpaceOnUse" />
  </defs>
  <sodipodi:namedview
     id="namedview1701"
     pagecolor="#ffffff"
     bordercolor="#666666"
     borderopacity="1.0"
     inkscape:showpageshadow="2"
     inkscape:pageopacity="0.0"
     inkscape:pagecheckerboard="0"
     inkscape:deskcolor="#d1d1d1"
     showgrid="false"
     inkscape:zoom="10.727273"
     inkscape:cx="8.576271"
     inkscape:cy="11.13983"
     inkscape:window-width="1920"
     inkscape:window-height="1004"
     inkscape:window-x="0"
     inkscape:window-y="0"
     inkscape:window-maximized="1"
     inkscape:current-layer="svg1699" />
  <linearGradient
     id="a"
     gradientTransform="matrix(.64285741 0 0 .64285741 -246.51032 -330.87026)"
     gradientUnits="userSpaceOnUse"
     x2="0"
     y1="545.79797"
     y2="517.79797">
    <stop
       offset="0"
       stop-color="#c6cdd1"
       id="stop1678"
       style="stop-color:#71858e;stop-opacity:1;" />
    <stop
       offset="1"
       stop-color="#e0e5e7"
       id="stop1680"
       style="stop-color:#99a8b3;stop-opacity:1;" />
  </linearGradient>
  <linearGradient
     id="b"
     gradientUnits="userSpaceOnUse"
     x1="11"
     x2="11"
     y1="12"
     y2="10">
    <stop
       offset="0"
       stop-color="#2a2c2f"
       id="stop1683"
       style="stop-color:#b3b6bb;stop-opacity:1;" />
    <stop
       offset="1"
       stop-color="#424649"
       id="stop1685"
       style="stop-color:#b5b9bc;stop-opacity:1;" />
  </linearGradient>
  <linearGradient
     id="c"
     gradientUnits="userSpaceOnUse"
     x1="6"
     x2="15"
     y1="6"
     y2="18">
    <stop
       offset="0"
       stop-color="#292c2f"
       id="stop1688" />
    <stop
       offset="1"
       stop-opacity="0"
       id="stop1690" />
  </linearGradient>
  <rect
     height="18.000008"
     rx="9"
     stroke-width=".642857"
     width="18"
     x="2"
     y="2"
     id="rect1693"
     style="fill-opacity:1;fill:url(#linearGradient2229)" />
  <path
     d="m7.7070312 10.292969-1.4140624 1.414062 7.7460932 7.746094c.662448-.240307 1.294381-.557584 1.882813-.945313zm3.9999998 0-1.414062 1.414062 6.308593 6.308594c.522421-.417361.996702-.891642 1.414063-1.414063zm4 0-1.414062 1.414062 4.214843 4.214844c.387729-.588432.705006-1.220365.945313-1.882813z"
     fill="url(#c)"
     opacity=".2"
     id="path1695" />
  <path
     d="m7 10a1 1 0 0 0 -1 1 1 1 0 0 0 1 1 1 1 0 0 0 1-1 1 1 0 0 0 -1-1zm4 0a1 1 0 0 0 -1 1 1 1 0 0 0 1 1 1 1 0 0 0 1-1 1 1 0 0 0 -1-1zm4 0a1 1 0 0 0 -1 1 1 1 0 0 0 1 1 1 1 0 0 0 1-1 1 1 0 0 0 -1-1z"
     id="path1697"
     style="fill:#ffffff;fill-opacity:1" />
</svg>
