<?xml version="1.0" encoding="UTF-8" standalone="no"?>
<svg
   height="22"
   width="22"
   version="1.1"
   id="svg786"
   sodipodi:docname="preferences-desktop-theme-global.svg"
   inkscape:version="1.2.1 (9c6d41e410, 2022-07-14)"
   xmlns:inkscape="http://www.inkscape.org/namespaces/inkscape"
   xmlns:sodipodi="http://sodipodi.sourceforge.net/DTD/sodipodi-0.dtd"
   xmlns:xlink="http://www.w3.org/1999/xlink"
   xmlns="http://www.w3.org/2000/svg"
   xmlns:svg="http://www.w3.org/2000/svg">
  <defs
     id="defs790">
    <linearGradient
       inkscape:collect="always"
       id="linearGradient1495">
      <stop
         style="stop-color:#5e81ac;stop-opacity:1;"
         offset="0"
         id="stop1491" />
      <stop
         style="stop-color:#b48ead;stop-opacity:1;"
         offset="0.55899495"
         id="stop1663" />
      <stop
         style="stop-color:#a3be8c;stop-opacity:1;"
         offset="0.74595666"
         id="stop1661" />
      <stop
         style="stop-color:#88c0d0;stop-opacity:1;"
         offset="1"
         id="stop1493" />
    </linearGradient>
    <linearGradient
       id="a-3"
       x1="428.81601"
       x2="388.86499"
       y1="547.63397"
       y2="499.67899"
       gradientTransform="matrix(0.4500002,0,0,0.44685936,-172.85657,-223.00208)"
       gradientUnits="userSpaceOnUse">
      <stop
         stop-color="#bdc3c7"
         offset="0"
         id="stop2193"
         style="stop-color:#ff99ff;stop-opacity:1;" />
      <stop
         stop-color="#eff0f1"
         offset="1"
         id="stop2195"
         style="stop-color:#ffccaa;stop-opacity:1" />
    </linearGradient>
    <linearGradient
       id="c-3"
       y1="521.15002"
       x1="394.22"
       y2="533.40997"
       gradientUnits="userSpaceOnUse"
       x2="416.85001"
       gradientTransform="translate(-12.764,-10.07)">
      <stop
         stop-color="#292c2f"
         id="stop225" />
      <stop
         offset="1"
         stop-opacity="0"
         id="stop227" />
    </linearGradient>
    <linearGradient
       id="linearGradient1889"
       gradientUnits="userSpaceOnUse"
       x1="19.915001"
       x2="33.915001"
       y1="-5.5933328"
       y2="8.4066668"
       gradientTransform="translate(-43.932612,-24.930416)">
      <stop
         offset="0"
         stop-color="#292c2f"
         id="stop743-6" />
      <stop
         offset="1"
         stop-opacity="0"
         id="stop745-7" />
    </linearGradient>
    <linearGradient
       id="linearGradient1893"
       gradientUnits="userSpaceOnUse"
       x1="6.9150009"
       x2="6.9150009"
       y1="18.041945"
       y2="9.8719463"
       gradientTransform="translate(-43.932612,-28.932366)">
      <stop
         offset="0"
         stop-color="#eff0f1"
         id="stop738-5" />
      <stop
         offset="1"
         stop-color="#fcfcfc"
         id="stop740-3" />
    </linearGradient>
    <linearGradient
       id="a-2"
       gradientUnits="userSpaceOnUse"
       x1="9.7101107"
       x2="16.78154"
       y1="7.142858"
       y2="14.214287">
      <stop
         offset="0"
         stop-color="#292c2f"
         id="stop204" />
      <stop
         offset="1"
         stop-opacity="0"
         id="stop206" />
    </linearGradient>
    <linearGradient
       id="b-7"
       gradientUnits="userSpaceOnUse"
       x1="8"
       x2="8"
       y1="13"
       y2="5">
      <stop
         offset="0"
         stop-color="#eff0f1"
         id="stop209" />
      <stop
         offset="1"
         stop-color="#fcfcfc"
         id="stop211" />
    </linearGradient>
    <linearGradient
       id="linearGradient6495"
       x1="12.05"
       x2="12.066"
       y1="1.9716001"
       y2="2.8515"
       gradientUnits="userSpaceOnUse">
      <stop
         stop-color="#ebcb8b"
         offset="0"
         id="stop15-9" />
      <stop
         stop-color="#eac57b"
         offset="1"
         id="stop17-3" />
    </linearGradient>
    <linearGradient
       id="linearGradient6567"
       x1="13.286"
       x2="13.275"
       y1="1.9581"
       y2="2.8476"
       gradientUnits="userSpaceOnUse">
      <stop
         stop-color="#a3be8c"
         offset="0"
         id="stop20" />
      <stop
         stop-color="#97b67c"
         offset="1"
         id="stop22" />
    </linearGradient>
    <linearGradient
       id="linearGradient6639"
       x1="14.461"
       x2="14.467"
       y1="1.9502"
       y2="2.8203001"
       gradientUnits="userSpaceOnUse">
      <stop
         stop-color="#bf616a"
         offset="0"
         id="stop25" />
      <stop
         stop-color="#b54a55"
         offset="1"
         id="stop27" />
    </linearGradient>
    <filter
       id="filter30427"
       x="-0.1339518"
       y="-0.3388412"
       width="1.2679036"
       height="1.6776824"
       color-interpolation-filters="sRGB">
      <feGaussianBlur
         stdDeviation="0.48299559"
         id="feGaussianBlur37" />
    </filter>
    <linearGradient
       id="linearGradient29728"
       x1="8.9888"
       x2="8.9888"
       y1="6.2073998"
       y2="12.653"
       gradientUnits="userSpaceOnUse"
       gradientTransform="matrix(1.1275838,0,0,1.1275838,1.2427669,1.4742125)">
      <stop
         stop-color="#2e3440"
         offset="0"
         id="stop32" />
      <stop
         stop-color="#4c566a"
         offset="1"
         id="stop34" />
    </linearGradient>
    <linearGradient
       inkscape:collect="always"
       xlink:href="#linearGradient1495"
       id="linearGradient4210"
       x1="-33.715141"
       y1="-15.190534"
       x2="-47.270638"
       y2="-3.3954711"
       gradientUnits="userSpaceOnUse"
       gradientTransform="translate(29.923969,20.78733)" />
    <filter
       id="filter30427-0"
       x="-0.1339518"
       y="-0.3388412"
       width="1.2679036"
       height="1.6776824"
       color-interpolation-filters="sRGB">
      <feGaussianBlur
         stdDeviation="0.48299559"
         id="feGaussianBlur37-2" />
    </filter>
    <linearGradient
       inkscape:collect="always"
       xlink:href="#linearGradient29728"
       id="linearGradient4313"
       gradientUnits="userSpaceOnUse"
       gradientTransform="matrix(1.1275838,0,0,1.1275838,1.2427667,0.40986467)"
       x1="8.9888"
       y1="6.2073998"
       x2="8.9888"
       y2="12.653" />
  </defs>
  <sodipodi:namedview
     id="namedview788"
     pagecolor="#ffffff"
     bordercolor="#666666"
     borderopacity="1.0"
     inkscape:showpageshadow="2"
     inkscape:pageopacity="0.0"
     inkscape:pagecheckerboard="0"
     inkscape:deskcolor="#d1d1d1"
     showgrid="false"
     inkscape:zoom="10.727273"
     inkscape:cx="11"
     inkscape:cy="3.7754236"
     inkscape:window-width="1920"
     inkscape:window-height="1000"
     inkscape:window-x="0"
     inkscape:window-y="0"
     inkscape:window-maximized="1"
     inkscape:current-layer="svg786" />
  <linearGradient
     id="a"
     gradientTransform="matrix(0.41666647,0,0,0.54999974,-188.65687,-279.08879)"
     gradientUnits="userSpaceOnUse"
     x1="418.16971"
     x2="384.57144"
     y1="503.07938"
     y2="531.45813">
    <stop
       offset="0"
       stop-color="#1abc9c"
       id="stop719" />
    <stop
       offset="1"
       stop-color="#2980b9"
       id="stop721" />
  </linearGradient>
  <linearGradient
     id="b"
     gradientUnits="userSpaceOnUse"
     x1="29.85095"
     x2="54.317608"
     y1="22.348567"
     y2="28.506301"
     gradientTransform="matrix(0.45454545,0,0,0.58333277,-4.4545431,-1.5000305)">
    <stop
       offset="0"
       stop-color="#cc4a5e"
       id="stop724" />
    <stop
       offset="1"
       stop-color="#aa478a"
       id="stop726" />
  </linearGradient>
  <linearGradient
     id="c"
     gradientUnits="userSpaceOnUse"
     x1="24.393862"
     x2="20.645595"
     xlink:href="#d"
     y1="41.223652"
     y2="25.343179"
     gradientTransform="matrix(0.45454545,0,0,0.58333277,-4.4545431,-1.5000305)" />
  <linearGradient
     id="d">
    <stop
       offset="0"
       stop-color="#334545"
       id="stop730" />
    <stop
       offset="1"
       stop-color="#536161"
       id="stop732" />
  </linearGradient>
  <linearGradient
     id="e"
     gradientTransform="matrix(-0.41666647,0,0,0.53472146,212.28397,-306.82071)"
     gradientUnits="userSpaceOnUse"
     x1="430.57141"
     x2="440.17142"
     xlink:href="#d"
     y1="569.97992"
     y2="562.49939" />
  <linearGradient
     id="f"
     gradientTransform="matrix(-0.41666647,0,0,0.53472146,190.40467,-283.78051)"
     gradientUnits="userSpaceOnUse"
     x1="430.57141"
     x2="440.17142"
     xlink:href="#d"
     y1="569.97992"
     y2="562.49939" />
  <linearGradient
     id="g"
     gradientTransform="matrix(-0.41666647,0,0,0.53472146,194.40467,-286.3305)"
     gradientUnits="userSpaceOnUse"
     x1="430.57141"
     x2="440.17142"
     xlink:href="#d"
     y1="569.97992"
     y2="562.49939" />
  <linearGradient
     id="h"
     gradientUnits="userSpaceOnUse"
     x1="6.915001"
     x2="6.915001"
     y1="18.041945"
     y2="9.871946"
     gradientTransform="translate(-43.932612,-28.932366)">
    <stop
       offset="0"
       stop-color="#eff0f1"
       id="stop738" />
    <stop
       offset="1"
       stop-color="#fcfcfc"
       id="stop740" />
  </linearGradient>
  <linearGradient
     id="i"
     gradientUnits="userSpaceOnUse"
     x1="19.915"
     x2="33.915"
     y1="-5.593333"
     y2="8.406667"
     gradientTransform="translate(-43.932612,-24.930416)">
    <stop
       offset="0"
       stop-color="#292c2f"
       id="stop743" />
    <stop
       offset="1"
       stop-opacity="0"
       id="stop745" />
  </linearGradient>
  <rect
     width="17.999252"
     x="-19.999626"
     y="2.0008841"
     rx="8.9996262"
     height="17.998232"
     transform="scale(-1,1)"
     id="rect223"
     ry="8.9991159"
     style="fill:url(#linearGradient4210);fill-opacity:1" />
  <path
     style="display:inline;overflow:visible;opacity:0.3;fill:#000000;fill-opacity:1;stroke-width:1.25992;stroke-opacity:0.55"
     d="m 2.0052897,10.77504 c -0.0017,0.07501 -0.0054,0.149594 -0.0054,0.225034 0,4.985548 4.013844,8.999121 8.9996003,8.999121 4.985759,0 8.999663,-4.013573 8.999663,-8.999121 0,-0.07544 -0.0034,-0.149594 -0.0054,-0.225034 -0.118843,4.880661 -4.085869,8.77413 -8.994258,8.77413 -4.9101923,0 -8.8754193,-3.893469 -8.9942013,-8.77413"
     id="path225" />
  <path
     d="m 2.0052897,11.223351 c -0.0017,-0.07501 -0.0054,-0.149166 -0.0054,-0.225034 0,-4.9855063 4.013844,-8.9991223 8.9996003,-8.9991223 4.985759,0 8.999663,4.013616 8.999663,8.9991223 0,0.07544 -0.0034,0.150022 -0.0054,0.225034 -0.118843,-4.8806613 -4.085869,-8.7741323 -8.994258,-8.7741323 -4.9101923,0 -8.8754193,3.893471 -8.9942013,8.7741323"
     style="display:inline;overflow:visible;opacity:0.3;fill:#ffffff;fill-opacity:1;stroke-width:1.25992;stroke-opacity:0.55"
     id="path229" />
  <path
     class="cls-1"
     d="m 4.4937,12.863 c 0.79782,-0.16981 1.5191,0.92213 2.254,0.24718 A 0.93573,1.1228 2.0368 0 0 7.11142,12.31524 0.61221,0.73459 2.0368 0 0 7.059896,11.9587 0.66725,0.80064 2.0368 0 0 6.987168,11.81535 c -0.36628,-0.57026 -1.0384,-0.455 -1.5081,-0.11786 -0.43162,0.3095 -0.76819,0.81278 -0.9858,1.1652 z m 4.226,-2.0996 a 3.0504,3.6602 2.0368 0 1 0.30656,1.5337 l 3.751,-1.5318 c 0.2343,-0.09037 0.38941,-0.19106 0.36778,-0.54916 A 0.36508,0.43806 2.0368 0 0 12.98942,9.9619 0.39822,0.47782 2.0368 0 0 12.71739,9.92533 Z m -1.396,0.84843 c 0.10427,0.1743 0.20648,0.51347 0.15161,0.78765 l 1.324,-0.04386 c -0.00293,-0.56822 -0.085608,-1.1013 -0.30522,-1.572 -0.57814,0.3633 -0.55485,0.51948 -1.1704,0.82816 z"
     fill="#2e3440"
     filter="url(#filter30427)"
     opacity="0.4"
     stroke-width="0.061524"
     id="path60-5"
     style="fill-rule:evenodd;filter:url(#filter30427-0)"
     transform="matrix(1.1275838,0,0,1.1275838,1.2427667,0.40986167)" />
  <path
     class="cls-1"
     d="m 6.3311027,14.943291 c 0.889111,-0.636813 2.314704,0.0471 2.874775,-1.06389 a 1.266051,1.266051 0 0 0 0.04711,-1.016011 0.82831154,0.82831154 0 0 0 -0.240897,-0.330564 0.90278862,0.90278862 0 0 0 -0.160342,-0.102594 c -0.731802,-0.363237 -1.494725,0.145151 -1.899753,0.759924 -0.372362,0.564633 -0.531949,1.269886 -0.621615,1.753168 z m 4.1103803,-4.586899 a 4.1271828,4.1271828 0 0 1 1.139876,1.372382 l 3.814053,-3.7358003 c 0.240895,-0.227974 0.379962,-0.420239 0.17477,-0.769803 a 0.4939494,0.4939494 0 0 0 -0.31688,-0.166415 0.53878204,0.53878204 0 0 0 -0.350324,0.121591 z m -1.2804833,1.671871 c 0.214297,0.115508 0.508382,0.39896 0.578304,0.708244 l 1.5942913,-0.81615 c -0.287252,-0.572984 -0.654293,-1.063889 -1.157353,-1.411965 -0.5243483,0.704439 -0.4179503,0.848834 -1.0152533,1.519871 z"
     fill="url(#linearGradient29728)"
     stroke-width="0.0759935"
     id="path62-9"
     style="fill:url(#linearGradient4313);fill-rule:evenodd" />
</svg>
