<?xml version="1.0" encoding="UTF-8" standalone="no"?>
<svg
   width="48"
   height="48"
   version="1.1"
   id="svg5"
   sodipodi:docname="podcast.svg"
   inkscape:version="1.3.2 (091e20ef0f, 2023-11-25)"
   xmlns:inkscape="http://www.inkscape.org/namespaces/inkscape"
   xmlns:sodipodi="http://sodipodi.sourceforge.net/DTD/sodipodi-0.dtd"
   xmlns="http://www.w3.org/2000/svg"
   xmlns:svg="http://www.w3.org/2000/svg">
  <sodipodi:namedview
     id="namedview5"
     pagecolor="#ffffff"
     bordercolor="#999999"
     borderopacity="1"
     inkscape:showpageshadow="2"
     inkscape:pageopacity="0"
     inkscape:pagecheckerboard="0"
     inkscape:deskcolor="#d1d1d1"
     inkscape:zoom="6.2265625"
     inkscape:cx="29.069009"
     inkscape:cy="41.194479"
     inkscape:window-width="1920"
     inkscape:window-height="994"
     inkscape:window-x="0"
     inkscape:window-y="0"
     inkscape:window-maximized="1"
     inkscape:current-layer="svg5" />
  <defs
     id="defs1">
    <clipPath
       id="a">
      <circle
         cx="8.467"
         cy="288.53"
         r="6.8790002"
         fill="#d86eb0"
         stroke-opacity="0.039"
         stroke-width="0.491"
         style="paint-order:stroke markers fill"
         id="circle1" />
    </clipPath>
  </defs>
  <g
     id="g6"
     transform="matrix(0.77777778,0,0,0.77777778,-0.88989438,-0.88888896)">
    <circle
       cx="32"
       cy="32"
       r="27"
       style="paint-order:stroke markers fill;fill:#c83771"
       id="circle2" />
    <rect
       width="12"
       height="20"
       x="26"
       y="20.040001"
       fill="#ffffff"
       rx="6"
       ry="6"
       style="paint-order:stroke markers fill"
       id="rect2" />
    <path
       fill="#ffffff"
       d="m 23.5,33.54 a 0.499,0.499 0 0 0 -0.5,0.5 0.499,0.499 0 0 0 0.006,0.062 9,9 0 0 0 8.994,8.938 9,9 0 0 0 8.996,-8.95 0.499,0.499 0 0 0 0.002,-0.036 9,9 0 0 0 0,-0.014 0.499,0.499 0 0 0 -0.5,-0.498 A 0.499,0.499 0 0 0 40,34.04 h -0.002 a 7.998,7.998 0 0 1 -7.998,8 7.998,7.998 0 0 1 -7.996,-8 H 23.998 A 0.499,0.499 0 0 0 23.5,33.542 Z"
       style="paint-order:stroke markers fill"
       id="path2" />
    <g
       fill="none"
       stroke="#ffffff"
       stroke-opacity="0.937"
       stroke-width="0.127"
       clip-path="url(#a)"
       transform="matrix(3.9251,0,0,3.9251,-1.232,-1101)"
       id="g5">
      <path
         d="m 1.485,287.74 c 0.72,0.155 1.391,0.625 1.983,1.98 0.674,1.545 1.623,2.23 2.772,2.284 1.48,0.07 2.673,-1.226 3.459,-2.385 1.602,-2.362 4.519,-2.136 5.816,-1.251"
         opacity="0.35"
         id="path3" />
      <path
         d="m 1.493,288.13 c 0.894,-0.35 2.083,-0.424 2.872,0.827 0.722,1.143 1.576,2.867 4.049,2.709 1.478,-0.095 2.956,-0.71 3.718,-2.15 0.53,-0.933 1.26,-1.872 2.293,-2.104 0.382,-0.081 0.655,-0.07 0.976,0.057"
         opacity="0.35"
         id="path4" />
      <path
         d="m 1.775,290.25 c 0.947,-0.444 2.745,-0.953 4.197,-0.53 1.297,0.38 2.937,1.847 6.056,1.504 0.824,-0.09 1.522,-0.563 2.183,-1.464 0.478,-0.652 0.75,-1.02 1.306,-1.167"
         opacity="0.35"
         id="path5" />
    </g>
  </g>
</svg>
