<?xml version="1.0" encoding="UTF-8" standalone="no"?>
<svg
   enable-background="new"
   id="svg2985"
   height="48"
   width="48"
   version="1.1"
   sodipodi:docname="acetoneiso.svg"
   inkscape:version="1.4 (e7c3feb100, 2024-10-09)"
   xmlns:inkscape="http://www.inkscape.org/namespaces/inkscape"
   xmlns:sodipodi="http://sodipodi.sourceforge.net/DTD/sodipodi-0.dtd"
   xmlns:xlink="http://www.w3.org/1999/xlink"
   xmlns="http://www.w3.org/2000/svg"
   xmlns:svg="http://www.w3.org/2000/svg"
   xmlns:rdf="http://www.w3.org/1999/02/22-rdf-syntax-ns#"
   xmlns:cc="http://creativecommons.org/ns#"
   xmlns:dc="http://purl.org/dc/elements/1.1/">
  <sodipodi:namedview
     pagecolor="#ffffff"
     bordercolor="#666666"
     borderopacity="1"
     objecttolerance="10"
     gridtolerance="10"
     guidetolerance="10"
     inkscape:pageopacity="0"
     inkscape:pageshadow="2"
     inkscape:window-width="1920"
     inkscape:window-height="998"
     id="namedview43"
     showgrid="false"
     inkscape:zoom="7.375"
     inkscape:cx="13.966102"
     inkscape:cy="45.016949"
     inkscape:window-x="0"
     inkscape:window-y="0"
     inkscape:window-maximized="1"
     inkscape:current-layer="svg2985"
     inkscape:showpageshadow="2"
     inkscape:pagecheckerboard="0"
     inkscape:deskcolor="#d1d1d1">
    <inkscape:grid
       type="xygrid"
       id="grid921"
       originx="0.89999998"
       originy="2"
       spacingy="1"
       spacingx="1"
       units="px"
       visible="false" />
  </sodipodi:namedview>
  <title
     id="title462">Krita icon - 2021</title>
  <defs
     id="defs2987">
    <linearGradient
       id="linearGradient1292">
      <stop
         style="stop-color:#ffff66;stop-opacity:1;"
         offset="0"
         id="stop1288" />
      <stop
         style="stop-color:#ffff70;stop-opacity:0;"
         offset="1"
         id="stop1290" />
    </linearGradient>
    <linearGradient
       id="linearGradient1262">
      <stop
         style="stop-color:#00ffff;stop-opacity:1"
         offset="0"
         id="stop1258" />
      <stop
         style="stop-color:#00ffff;stop-opacity:0"
         offset="1"
         id="stop1260" />
    </linearGradient>
    <linearGradient
       id="linearGradient1228">
      <stop
         id="stop1224"
         offset="0"
         style="stop-color:#ff80ff;stop-opacity:1;" />
      <stop
         id="stop1226"
         offset="1"
         style="stop-color:#ff00ff;stop-opacity:0" />
    </linearGradient>
    <linearGradient
       id="linearGradient1373">
      <stop
         id="stop1369"
         offset="0"
         style="stop-color:#343434;stop-opacity:1" />
      <stop
         id="stop1371"
         offset="1"
         style="stop-color:#4d4d4d;stop-opacity:1" />
    </linearGradient>
    <linearGradient
       id="linearGradient4663-8-4">
      <stop
         offset="0"
         style="stop-color:#5596ea;stop-opacity:1"
         id="stop4665-6-3" />
      <stop
         offset="1"
         style="stop-color:#5596ea;stop-opacity:0"
         id="stop4667-8-0" />
    </linearGradient>
    <linearGradient
       y2="200.87404"
       x2="1280.8954"
       y1="62.713318"
       x1="1142.5884"
       gradientTransform="matrix(0.16867449,-0.01739739,0.01739739,0.16867444,-191.93531,13.433428)"
       gradientUnits="userSpaceOnUse"
       id="linearGradient1403"
       xlink:href="#linearGradient1373" />
    <linearGradient
       gradientTransform="matrix(0.00203556,0.17810423,0.1830211,-0.00198088,-11.204513,-204.3128)"
       y2="89.862335"
       x2="1324.9103"
       y1="230.86234"
       x1="1327.5938"
       gradientUnits="userSpaceOnUse"
       id="linearGradient1405"
       xlink:href="#linearGradient4663-8-4" />
    <clipPath
       clipPathUnits="userSpaceOnUse"
       id="clipPath839-4">
      <circle
         style="opacity:1;vector-effect:none;fill:#000000;fill-opacity:0.47451;stroke:none;stroke-width:4;stroke-linecap:square;stroke-linejoin:round;stroke-miterlimit:4;stroke-dasharray:none;stroke-dashoffset:3.2;stroke-opacity:1"
         id="circle841-5"
         cx="532"
         cy="538"
         r="400" />
    </clipPath>
    <linearGradient
       y2="512"
       x2="711.86438"
       y1="512"
       x1="112"
       gradientTransform="matrix(0.05250004,0,0,0.05250012,41.947462,-84.031585)"
       gradientUnits="userSpaceOnUse"
       id="linearGradient1351"
       xlink:href="#linearGradient1292" />
    <linearGradient
       y2="512"
       x2="711.86438"
       y1="512"
       x1="112"
       gradientTransform="matrix(0.0525,0,0,0.0525001,-110.78844,-57.910585)"
       gradientUnits="userSpaceOnUse"
       id="linearGradient1353"
       xlink:href="#linearGradient1262" />
    <linearGradient
       y2="512"
       x2="711.86438"
       y1="512"
       x1="112"
       gradientTransform="matrix(0.05250007,0,0,0.05250006,-11.799034,61.302114)"
       gradientUnits="userSpaceOnUse"
       id="linearGradient1355"
       xlink:href="#linearGradient1228" />
    <linearGradient
       y2="512"
       x2="711.86438"
       y1="512"
       x1="112"
       gradientTransform="matrix(0.05250004,0,0,0.05250012,21.920682,-86.940005)"
       gradientUnits="userSpaceOnUse"
       id="linearGradient1351-3"
       xlink:href="#linearGradient1292" />
    <linearGradient
       y2="512"
       x2="711.86438"
       y1="512"
       x1="112"
       gradientTransform="matrix(0.0525,0,0,0.0525001,-103.29381,-39.112675)"
       gradientUnits="userSpaceOnUse"
       id="linearGradient1353-5"
       xlink:href="#linearGradient1262" />
    <linearGradient
       y2="512"
       x2="711.86438"
       y1="512"
       x1="112"
       gradientTransform="matrix(0.05250007,0,0,0.05250006,0.7331233,45.412624)"
       gradientUnits="userSpaceOnUse"
       id="linearGradient1355-6"
       xlink:href="#linearGradient1228" />
    <linearGradient
       y2="512"
       x2="711.86438"
       y1="512"
       x1="112"
       gradientTransform="matrix(0.04773593,0,0,0.04773601,-62.459733,-35.018217)"
       gradientUnits="userSpaceOnUse"
       id="linearGradient1351-9"
       xlink:href="#linearGradient1292" />
    <linearGradient
       y2="512"
       x2="711.86438"
       y1="512"
       x1="112"
       gradientTransform="matrix(0.04773589,0,0,0.04773599,-14.591626,13.773237)"
       gradientUnits="userSpaceOnUse"
       id="linearGradient1353-2"
       xlink:href="#linearGradient1262" />
    <linearGradient
       y2="512"
       x2="711.86438"
       y1="512"
       x1="112"
       gradientTransform="matrix(0.04773597,0,0,0.04773596,3.7289593,-52.077456)"
       gradientUnits="userSpaceOnUse"
       id="linearGradient1355-5"
       xlink:href="#linearGradient1228" />
  </defs>
  <metadata
     id="metadata2990">
    <rdf:RDF>
      <cc:Work
         rdf:about="">
        <dc:title>Krita icon - 2021</dc:title>
      </cc:Work>
    </rdf:RDF>
  </metadata>
  <path
     style="opacity:0.2;stroke-width:1.03491"
     d="m 24.125,3.7368394 c -11.426249,0 -20.6249993,9.2016946 -20.6249993,20.6315836 0,11.429898 9.1987503,20.631578 20.6249993,20.631578 11.426251,0 20.625,-9.20168 20.625,-20.631578 0,-11.429889 -9.198749,-20.6315836 -20.625,-20.6315836 z m 0,11.7894776 A 8.8392841,8.8421048 0 0 1 32.964289,24.368423 8.8392841,8.8421048 0 0 1 24.125,33.21053 8.8392841,8.8421048 0 0 1 15.285719,24.368423 8.8392841,8.8421048 0 0 1 24.125,15.526317 Z"
     id="path1" />
  <path
     style="fill:#676767;fill-opacity:1;stroke-width:1.03491"
     d="M 24.125,12.578948 A 11.049104,11.05263 0 0 0 13.075893,23.631575 11.049104,11.05263 0 0 0 24.125,34.684209 11.049104,11.05263 0 0 0 35.174108,23.631575 11.049104,11.05263 0 0 0 24.125,12.578948 Z m 0,6.631579 c 2.440969,0 4.419642,1.979315 4.419642,4.421048 0,2.441753 -1.978673,4.421056 -4.419642,4.421056 -2.440963,0 -4.419642,-1.979303 -4.419642,-4.421056 0,-2.441733 1.978679,-4.421048 4.419642,-4.421048 z"
     id="path2" />
  <path
     style="fill:#cccccc;stroke-width:1.03491;fill-opacity:1"
     d="m 24.125,3.0000006 c -11.426249,0 -20.6249993,9.2016804 -20.6249993,20.6315744 0,11.429903 9.1987503,20.63159 20.6249993,20.63159 11.426251,0 20.625,-9.201687 20.625,-20.63159 0,-11.429894 -9.198749,-20.6315744 -20.625,-20.6315744 z m 0,11.7894704 A 8.8392841,8.8421048 0 0 1 32.964289,23.631575 8.8392841,8.8421048 0 0 1 24.125,32.473686 8.8392841,8.8421048 0 0 1 15.285719,23.631575 8.8392841,8.8421048 0 0 1 24.125,14.789471 Z"
     id="path3" />
  <path
     style="opacity:0.2;fill:#ffffff;stroke-width:1.03491"
     d="m 24.125,3.0000006 c -11.426249,0 -20.6249993,9.2016804 -20.6249993,20.6315744 0,0.08362 0.00807,0.165078 0.012904,0.247546 C 3.7718554,12.677822 12.862766,3.7368394 24.124955,3.7368394 c 11.261227,0 20.353066,8.9394326 20.61349,20.1393956 0.004,-0.08154 0.0115,-0.161971 0.0115,-0.24466 C 44.749994,12.201681 35.551244,3.0000006 24.124991,3.0000006 Z M 15.323121,24.365547 a 8.8392841,8.8421048 0 0 0 -0.03739,0.739715 8.8392841,8.8421048 0 0 0 0.01873,0.368426 8.8392841,8.8421048 0 0 1 0.01875,-0.371302 8.8392841,8.8421048 0 0 0 8.801882,8.108144 8.8392841,8.8421048 0 0 0 8.801881,-8.102384 8.8392841,8.8421048 0 0 1 0.02152,0.436054 8.8392841,8.8421048 0 0 0 0.01583,-0.438938 8.8392841,8.8421048 0 0 0 -0.03739,-0.733962 8.8392841,8.8421048 0 0 1 -8.801894,8.102386 8.8392841,8.8421048 0 0 1 -8.801878,-8.108139 z"
     id="path4" />
  <g
     id="g1"
     transform="matrix(0.91096303,0,0,0.90572009,-2.4665575,-3.5965436)">
    <path
       style="opacity:0.2;stroke-width:1.37987"
       d="m 55.370973,45.589584 a 10.702927,10.706342 0 0 1 -10.674838,10.13891 10.702927,10.706342 0 0 1 -10.674833,-9.935488 10.702927,10.706342 0 0 0 -0.02803,0.567437 10.702927,10.706342 0 0 0 10.702927,10.706353 10.702927,10.706342 0 0 0 10.702929,-10.706353 10.702927,10.706342 0 0 0 -0.02882,-0.771081 z"
       id="path5" />
    <ellipse
       style="fill:#ba22ff;stroke-width:1.37987"
       cx="44.696121"
       cy="45.691246"
       id="circle5"
       rx="10.702911"
       ry="10.706327" />
    <path
       style="fill:#ffffff;stroke-width:1.37987"
       d="m 39.344673,46.138288 c 0,2.956557 2.395983,5.353163 5.351462,5.353163 2.925508,0 5.298216,-2.349237 5.346248,-5.264308 a 0.89191532,0.89219996 0 0 0 0.0055,-0.08891 0.89191532,0.89219996 0 0 0 -0.891921,-0.892206 0.89191532,0.89219996 0 0 0 -0.891912,0.892206 c 0,1.9709 -1.597281,3.568826 -3.567695,3.568826 -1.970272,0 -3.567689,-1.59778 -3.567689,-3.568826 0,-1.970911 1.597285,-3.568821 3.567689,-3.568821 v 1.784332 l 3.567654,-2.676587 -3.567155,-2.677389 v 1.784351 c -2.955609,0 -5.351461,2.396753 -5.351461,5.353177 z"
       id="path6" />
  </g>
  <circle
     style="fill:#ba22ff;stroke-width:0.676763"
     cx="24.125"
     cy="23.631578"
     id="circle5-5"
     r="5.25" />
</svg>
