<?xml version="1.0" encoding="UTF-8" standalone="no"?>
<svg
   width="48"
   height="48"
   version="1.1"
   id="svg8397"
   sodipodi:docname="utilities-log-viewer.svg"
   inkscape:version="1.2.1 (9c6d41e410, 2022-07-14)"
   xmlns:inkscape="http://www.inkscape.org/namespaces/inkscape"
   xmlns:sodipodi="http://sodipodi.sourceforge.net/DTD/sodipodi-0.dtd"
   xmlns="http://www.w3.org/2000/svg"
   xmlns:svg="http://www.w3.org/2000/svg">
  <sodipodi:namedview
     id="namedview8399"
     pagecolor="#ffffff"
     bordercolor="#666666"
     borderopacity="1.0"
     inkscape:showpageshadow="2"
     inkscape:pageopacity="0.0"
     inkscape:pagecheckerboard="0"
     inkscape:deskcolor="#d1d1d1"
     showgrid="false"
     inkscape:zoom="4.9166667"
     inkscape:cx="24"
     inkscape:cy="24"
     inkscape:window-width="1920"
     inkscape:window-height="1009"
     inkscape:window-x="0"
     inkscape:window-y="0"
     inkscape:window-maximized="1"
     inkscape:current-layer="svg8397" />
  <defs
     id="defs8295">
    <linearGradient
       id="a"
       y1="543.8"
       y2="503.8"
       x2="0"
       gradientUnits="userSpaceOnUse"
       gradientTransform="matrix(1,0,0,0.9,-470.07432,-455.58927)">
      <stop
         stop-color="#1d1e1e"
         id="stop8285" />
      <stop
         offset="1"
         stop-color="#44484c"
         id="stop8287" />
    </linearGradient>
    <linearGradient
       id="b"
       y1="44"
       y2="4"
       x2="0"
       gradientUnits="userSpaceOnUse"
       gradientTransform="translate(-85.50432,-10.16927)">
      <stop
         stop-color="#c6cdd1"
         id="stop8290" />
      <stop
         offset="1"
         stop-color="#e0e5e7"
         id="stop8292" />
    </linearGradient>
    <linearGradient
       gradientTransform="matrix(1.0499636,0,0,1.0499041,-452.98542,-525.93792)"
       gradientUnits="userSpaceOnUse"
       x2="426.69501"
       y2="499.92099"
       y1="547.67499"
       id="a-6"
       x1="389.32001">
      <stop
         stop-color="#18222a"
         style="stop-color:#1e2b35;stop-opacity:1"
         id="stop216" />
      <stop
         stop-color="#566069"
         offset="1"
         style="stop-color:#6d7983;stop-opacity:1"
         id="stop218" />
    </linearGradient>
    <linearGradient
       id="paint0_linear-3"
       x1="51"
       y1="10"
       x2="11"
       y2="50"
       gradientUnits="userSpaceOnUse"
       gradientTransform="matrix(0.66000112,0,0,0.66000112,4.1270676,5.6818615)">
      <stop
         stop-color="#6EB4D9"
         id="stop229" />
      <stop
         offset="1"
         stop-color="#004E6E"
         id="stop231" />
    </linearGradient>
    <linearGradient
       id="paint1_linear-6"
       x1="8"
       y1="8"
       x2="48"
       y2="48"
       gradientUnits="userSpaceOnUse"
       gradientTransform="matrix(0.66000112,0,0,0.66000112,4.1270676,5.6818615)">
      <stop
         stop-color="#44F0D3"
         id="stop234" />
      <stop
         offset="1"
         stop-color="#3DAEE9"
         id="stop236" />
    </linearGradient>
    <linearGradient
       id="c"
       y1="503.79999"
       x1="388.57001"
       y2="533.79999"
       x2="418.57001"
       gradientUnits="userSpaceOnUse"
       gradientTransform="translate(-359.57,-505.8)">
      <stop
         stop-color="#292c2f"
         id="stop1743" />
      <stop
         offset="1"
         stop-opacity="0"
         id="stop1745" />
    </linearGradient>
    <linearGradient
       id="b-1"
       y1="515.79999"
       y2="509.79999"
       x2="0"
       gradientUnits="userSpaceOnUse"
       gradientTransform="translate(-366.76287,-500.51813)">
      <stop
         stop-color="#c61423"
         id="stop1738-2" />
      <stop
         offset="1"
         stop-color="#dc2b41"
         id="stop1740-7" />
    </linearGradient>
    <linearGradient
       id="d-0"
       y1="9"
       y2="5"
       x2="0"
       gradientUnits="userSpaceOnUse"
       gradientTransform="translate(-7.1928639,5.2818735)">
      <stop
         stop-color="#f7aeb4"
         id="stop1748-9" />
      <stop
         offset="1"
         stop-color="#f8d4d9"
         id="stop1750-3" />
    </linearGradient>
  </defs>
  <rect
     width="41.99855"
     x="-44.999847"
     y="3.0037899"
     rx="20.999275"
     height="41.99617"
     transform="scale(-1,1)"
     style="display:inline;overflow:visible;fill:url(#a-6);stroke-width:2.93982;stroke-opacity:0.55"
     id="rect223"
     ry="20.998085" />
  <path
     style="display:inline;overflow:visible;opacity:0.3;fill:#000000;fill-opacity:1;stroke-width:2.93982;stroke-opacity:0.55"
     d="m 3.0127616,23.476967 c -0.004,0.175027 -0.01261,0.349056 -0.01261,0.525083 0,11.633027 9.3657024,20.998098 20.9992164,20.998098 11.63352,0 20.999364,-9.365071 20.999364,-20.998098 0,-0.176027 -0.008,-0.349055 -0.0126,-0.525083 -0.2773,11.38829 -9.533764,20.473116 -20.986754,20.473116 -11.457195,0 -20.7094574,-9.084826 -20.9866174,-20.473116"
     id="path225" />
  <path
     d="m 3.0127616,24.523032 c -0.004,-0.175027 -0.01261,-0.348055 -0.01261,-0.525083 0,-11.632926 9.3657024,-20.9980975 20.9992164,-20.9980975 11.63352,0 20.999364,9.3651715 20.999364,20.9980975 0,0.176028 -0.008,0.350056 -0.0126,0.525083 -0.2773,-11.388288 -9.533764,-20.4731155 -20.986754,-20.4731155 -11.457195,0 -20.7094574,9.0848275 -20.9866174,20.4731155"
     style="display:inline;overflow:visible;opacity:0.3;fill:#ffffff;fill-opacity:1;stroke-width:2.93982;stroke-opacity:0.55"
     id="path229" />
  <circle
     fill="#eff0f1"
     cx="11.599006"
     cy="33.622982"
     r="3.5"
     id="circle8313-2"
     style="color:#000000;stroke-width:3;stroke-linecap:round;stroke-linejoin:round" />
  <circle
     fill="#3daefd"
     cx="11.599006"
     cy="33.622982"
     r="2.5"
     id="circle8315-0"
     style="color:#000000;stroke-width:3;stroke-linecap:round;stroke-linejoin:round" />
  <circle
     fill="#eff0f1"
     cx="11.599006"
     cy="24.622988"
     r="3.5"
     id="circle8317-2"
     style="color:#000000;stroke-width:3;stroke-linecap:round;stroke-linejoin:round" />
  <circle
     fill="#3daefd"
     cx="11.599006"
     cy="24.622988"
     r="2.5"
     id="circle8319-3"
     style="color:#000000;stroke-width:3;stroke-linecap:round;stroke-linejoin:round" />
  <rect
     width="2"
     x="16.099005"
     y="14.122991"
     height="1"
     id="rect8323-7"
     style="fill:#da4453" />
  <rect
     width="3"
     x="19.099005"
     y="14.122991"
     height="1"
     id="rect8325-5"
     style="fill:#da4453" />
  <rect
     width="3"
     x="25.099005"
     y="14.122991"
     height="1"
     id="rect8329-9"
     style="fill:#95a5a6" />
  <rect
     width="6"
     x="30.099005"
     y="14.122991"
     height="1"
     id="rect8331-2"
     style="fill:#95a5a6" />
  <rect
     width="4"
     x="37.09901"
     y="14.122991"
     height="1"
     id="rect8333-2"
     style="fill:#95a5a6" />
  <rect
     width="4"
     x="16.099005"
     y="16.122986"
     height="1"
     id="rect8337-8"
     style="fill:#bdc3c7" />
  <rect
     width="2"
     x="21.099005"
     y="16.122986"
     height="1"
     id="rect8339-9"
     style="fill:#bdc3c7" />
  <rect
     width="8"
     x="25.099005"
     y="16.122986"
     fill="#95a5a6"
     height="1"
     id="rect8343-7" />
  <rect
     width="2"
     x="16.099005"
     y="23.122988"
     height="1"
     id="rect8345-3"
     style="fill:#3daefd" />
  <rect
     width="3"
     x="19.099005"
     y="23.122988"
     height="1"
     id="rect8347-6"
     style="fill:#3daefd" />
  <rect
     width="4"
     x="25.099005"
     y="23.122988"
     height="1"
     id="rect8351-1"
     style="fill:#95a5a6" />
  <rect
     width="4"
     x="31.099005"
     y="23.122988"
     height="1"
     id="rect8353-2"
     style="fill:#95a5a6" />
  <rect
     width="5"
     x="36.09901"
     y="23.122988"
     height="1"
     id="rect8355-9"
     style="fill:#95a5a6" />
  <rect
     width="3"
     x="16.099005"
     y="25.122988"
     fill="#bdc3c7"
     height="1"
     id="rect8359-3" />
  <rect
     width="3"
     x="25.099005"
     y="25.122988"
     height="1"
     id="rect8361-1"
     style="fill:#95a5a6" />
  <rect
     width="1"
     x="29.099005"
     y="25.122988"
     height="1"
     id="rect8363-9"
     style="fill:#95a5a6" />
  <rect
     width="5"
     x="31.099005"
     y="25.122988"
     height="1"
     id="rect8365-4"
     style="fill:#95a5a6" />
  <rect
     width="2"
     x="-36.09901"
     y="34.122982"
     height="1"
     id="rect8367-7"
     transform="scale(-1,1)"
     style="fill:#95a5a6" />
  <rect
     width="8"
     x="-33.09901"
     y="34.122982"
     height="1"
     id="rect8369-8"
     transform="scale(-1,1)"
     style="fill:#95a5a6" />
  <rect
     width="7"
     x="-23.099005"
     y="34.122982"
     fill="#bdc3c7"
     height="1"
     id="rect8375-4"
     transform="scale(-1,1)" />
  <rect
     width="2"
     x="-41.09901"
     y="32.122986"
     height="1"
     id="rect8377-5"
     transform="scale(-1,1)"
     style="fill:#95a5a6" />
  <rect
     width="3"
     x="-38.09901"
     y="32.122986"
     height="1"
     id="rect8379-0"
     transform="scale(-1,1)"
     style="fill:#95a5a6" />
  <rect
     width="9"
     x="-34.09901"
     y="32.122986"
     height="1"
     id="rect8381-3"
     transform="scale(-1,1)"
     style="fill:#95a5a6" />
  <rect
     width="5"
     x="-21.099005"
     y="32.122986"
     fill="#3daefd"
     height="1"
     id="rect8385-6"
     transform="scale(-1,1)" />
  <path
     fill="#eff0f1"
     color-rendering="auto"
     shape-rendering="auto"
     color-interpolation-filters="linearRGB"
     image-rendering="auto"
     text-rendering="auto"
     color-interpolation="sRGB"
     color="#000000"
     stroke-width="2"
     d="M 11.599001,12.043 8.098,13.51 c 0,0 0.416,1.902 0.867,3 0.225,0.551 0.5,1.121 0.889,1.617 0.389,0.496 0.965,0.99 1.745,0.99 0.78,0 1.354,-0.494 1.743,-0.99 0.389,-0.496 0.664,-1.066 0.889,-1.617 0.451,-1.102 0.869,-3 0.869,-3 z"
     id="path8389-1"
     style="fill-rule:evenodd" />
  <path
     fill="#da4453"
     d="m 9.099,14.123 2.500001,-1 2.5,1 c 0,0 -0.928,4 -2.5,4 -1.572,0 -2.500001,-4 -2.500001,-4"
     id="path8391-0"
     style="fill-rule:evenodd" />
</svg>
