<?xml version="1.0" encoding="UTF-8" standalone="no"?>
<svg
   width="48"
   height="48"
   version="1.1"
   id="svg47"
   sodipodi:docname="alienarena.svg"
   inkscape:version="1.2.1 (9c6d41e410, 2022-07-14)"
   xmlns:inkscape="http://www.inkscape.org/namespaces/inkscape"
   xmlns:sodipodi="http://sodipodi.sourceforge.net/DTD/sodipodi-0.dtd"
   xmlns="http://www.w3.org/2000/svg"
   xmlns:svg="http://www.w3.org/2000/svg"
   xmlns:rdf="http://www.w3.org/1999/02/22-rdf-syntax-ns#"
   xmlns:cc="http://creativecommons.org/ns#"
   xmlns:dc="http://purl.org/dc/elements/1.1/">
  <sodipodi:namedview
     id="namedview49"
     pagecolor="#ffffff"
     bordercolor="#666666"
     borderopacity="1.0"
     inkscape:showpageshadow="2"
     inkscape:pageopacity="0.0"
     inkscape:pagecheckerboard="0"
     inkscape:deskcolor="#d1d1d1"
     showgrid="false"
     inkscape:zoom="3.6875"
     inkscape:cx="32"
     inkscape:cy="32"
     inkscape:window-width="1920"
     inkscape:window-height="1011"
     inkscape:window-x="0"
     inkscape:window-y="0"
     inkscape:window-maximized="1"
     inkscape:current-layer="svg47" />
  <metadata
     id="metadata2">
    <rdf:RDF>
      <cc:Work
         rdf:about="">
        <dc:format>image/svg+xml</dc:format>
        <dc:type
           rdf:resource="http://purl.org/dc/dcmitype/StillImage" />
      </cc:Work>
    </rdf:RDF>
  </metadata>
  <defs
     id="defs27">
    <linearGradient
       id="b"
       x1="32"
       x2="32"
       y1="2"
       y2="62"
       gradientUnits="userSpaceOnUse"
       gradientTransform="matrix(0.7,0,0,0.69999991,1.5999973,1.5999988)">
      <stop
         stop-color="#323c41"
         offset="0"
         id="stop4" />
      <stop
         stop-color="#0f4d3e"
         offset="1"
         id="stop6"
         style="stop-color:#1c8f73;stop-opacity:1;" />
    </linearGradient>
    <linearGradient
       id="e"
       x1="24.705"
       x2="25.061001"
       y1="43.938999"
       y2="4.4050002"
       gradientTransform="translate(8.5029,9.2229)"
       gradientUnits="userSpaceOnUse">
      <stop
         stop-color="#14cd46"
         offset="0"
         id="stop9" />
      <stop
         stop-color="#5adc19"
         offset="1"
         id="stop11" />
    </linearGradient>
    <linearGradient
       id="d"
       x1="31"
       x2="31"
       y1="34"
       y2="24"
       gradientTransform="translate(8.5029,9.2229)"
       gradientUnits="userSpaceOnUse">
      <stop
         stop-color="#323232"
         offset="0"
         id="stop14" />
      <stop
         stop-color="#3c503c"
         offset="1"
         id="stop16" />
    </linearGradient>
    <linearGradient
       id="c"
       x1="18"
       x2="18"
       y1="34"
       y2="24"
       gradientTransform="translate(8.5029,9.2229)"
       gradientUnits="userSpaceOnUse">
      <stop
         stop-color="#323232"
         offset="0"
         id="stop19" />
      <stop
         stop-color="#3c503c"
         offset="1"
         id="stop21" />
    </linearGradient>
    <filter
       id="f"
       x="-0.067499995"
       y="-0.053999998"
       width="1.135"
       height="1.108"
       color-interpolation-filters="sRGB">
      <feGaussianBlur
         stdDeviation="0.89999995"
         id="feGaussianBlur24" />
    </filter>
  </defs>
  <ellipse
     cx="24.000002"
     cy="24"
     style="fill:url(#b);stroke-width:0.7;paint-order:stroke markers fill"
     id="circle29"
     rx="21.000002"
     ry="21" />
  <g
     transform="matrix(0.7,0,0,0.6999999,1.2479392,0.74396894)"
     opacity="0.5"
     id="g37">
    <path
       d="m 16.503,28.701 c 0,10.29 8.4961,24.521 16,24.521 7.0642,0 16,-14.232 16,-24.521 0,-10.29 -7.1634,-15.479 -16,-15.479 -8.8366,0 -16,5.1888 -16,15.479 z"
       id="path31" />
    <path
       d="m 36.885,35.605 c 2.0206,-2.0206 4.8396,-2.7554 7.4415,-2.2055 0.54985,2.6018 -0.18496,5.4209 -2.2055,7.4414 -2.0206,2.0206 -4.8396,2.7554 -7.4414,2.2055 -0.54992,-2.6019 0.18495,-5.4209 2.2055,-7.4414 z"
       id="path33" />
    <path
       d="m 20.679,33.536 c 2.6018,-0.54222 5.4209,0.18239 7.4414,2.1749 2.0206,1.9925 2.7554,4.7724 2.2055,7.3381 -2.6018,0.54222 -5.4209,-0.18238 -7.4415,-2.1749 -2.0206,-1.9926 -2.7554,-4.7724 -2.2055,-7.3381 z"
       id="path35" />
  </g>
  <g
     transform="matrix(0.7,0,0,0.6999999,1.2479392,0.74396894)"
     id="g45">
    <path
       d="m 16.503,28.701 c 0,10.29 8.4961,24.521 16,24.521 7.0642,0 16,-14.232 16,-24.521 0,-10.29 -7.1634,-15.479 -16,-15.479 -8.8366,0 -16,5.1888 -16,15.479 z"
       id="path39"
       style="fill:url(#e)" />
    <path
       d="m 36.885,35.605 c 2.0206,-2.0206 4.8396,-2.7554 7.4415,-2.2055 0.54985,2.6018 -0.18496,5.4209 -2.2055,7.4414 -2.0206,2.0206 -4.8396,2.7554 -7.4414,2.2055 -0.54992,-2.6019 0.18495,-5.4209 2.2055,-7.4414 z"
       id="path41"
       style="fill:url(#d)" />
    <path
       d="m 20.679,33.536 c 2.6018,-0.54222 5.4209,0.18239 7.4414,2.1749 2.0206,1.9925 2.7554,4.7724 2.2055,7.3381 -2.6018,0.54222 -5.4209,-0.18238 -7.4415,-2.1749 -2.0206,-1.9926 -2.7554,-4.7724 -2.2055,-7.3381 z"
       id="path43"
       style="fill:url(#c)" />
  </g>
</svg>
