<?xml version="1.0" encoding="UTF-8" standalone="no"?>
<svg
   width="48"
   version="1.1"
   height="48"
   viewBox="0 0 48 48"
   id="svg24"
   sodipodi:docname="bitcoin128.svg"
   inkscape:version="1.2.1 (9c6d41e410, 2022-07-14)"
   xmlns:inkscape="http://www.inkscape.org/namespaces/inkscape"
   xmlns:sodipodi="http://sodipodi.sourceforge.net/DTD/sodipodi-0.dtd"
   xmlns:xlink="http://www.w3.org/1999/xlink"
   xmlns="http://www.w3.org/2000/svg"
   xmlns:svg="http://www.w3.org/2000/svg">
  <sodipodi:namedview
     id="namedview26"
     pagecolor="#ffffff"
     bordercolor="#666666"
     borderopacity="1.0"
     inkscape:showpageshadow="2"
     inkscape:pageopacity="0.0"
     inkscape:pagecheckerboard="0"
     inkscape:deskcolor="#d1d1d1"
     showgrid="false"
     inkscape:zoom="4.9166667"
     inkscape:cx="24"
     inkscape:cy="24.101695"
     inkscape:window-width="1920"
     inkscape:window-height="1000"
     inkscape:window-x="0"
     inkscape:window-y="0"
     inkscape:window-maximized="1"
     inkscape:current-layer="svg24" />
  <defs
     id="defs14">
    <linearGradient
       id="linearGradient4219">
      <stop
         style="stop-color:#000000;stop-opacity:1;"
         offset="0"
         id="stop2" />
      <stop
         style="stop-color:#000000;stop-opacity:0;"
         offset="1"
         id="stop4" />
    </linearGradient>
    <linearGradient
       id="linearGradient4153">
      <stop
         style="stop-color:#f48b0b;stop-opacity:1"
         offset="0"
         id="stop7" />
      <stop
         style="stop-color:#ffba6b;stop-opacity:1"
         offset="1"
         id="stop9" />
    </linearGradient>
    <linearGradient
       xlink:href="#linearGradient4153"
       id="linearGradient4159"
       x1="23"
       y1="43.866"
       x2="23"
       y2="5"
       gradientUnits="userSpaceOnUse"
       gradientTransform="matrix(1.0499999,0,0,1.0499999,-1.1999962,-1.2000234)" />
    <linearGradient
       xlink:href="#linearGradient4219"
       id="linearGradient4225"
       x1="15.233"
       y1="11.995"
       x2="39.609"
       y2="36.37"
       gradientUnits="userSpaceOnUse"
       gradientTransform="matrix(1.0499999,0,0,1.0499999,-1.1999962,-1.1999973)" />
  </defs>
  <circle
     style="fill:url(#linearGradient4159);fill-opacity:1;stroke-width:1.05"
     r="20.999994"
     cx="23.999994"
     cy="23.999994"
     id="circle16" />
  <path
     style="opacity:0.2;fill:url(#linearGradient4225);fill-opacity:1;stroke:none;stroke-width:2.1;stroke-linecap:butt;stroke-linejoin:round;stroke-miterlimit:4;stroke-dasharray:none;stroke-opacity:1"
     d="m 26.083599,11.385651 -1.298148,1.298143 0.0964,1.698048 -2.975685,-2.975685 -1.16485,1.792377 -0.734178,5.346392 -3.685246,-2.606542 -1.77188,1.77187 4.897262,4.897272 -1.103321,8.037007 -3.775483,1.743166 12.464649,12.464644 A 21,21 0 0 0 44.296583,29.598634 Z"
     id="path18" />
  <path
     style="fill:#ffffff;fill-opacity:1;stroke-width:1.05"
     d="m 19.800004,11.400003 v 4.2 c -0.516274,0.021 -1.463941,0 -1.958494,0 h -3.291506 v 2.1 c 0,0 1.804776,-0.0315 1.775981,0 0.966263,-0.01471 1.273979,0.686787 1.374019,1.154589 v 10.395411 c -0.03707,0.295631 -0.0053,1.029 -0.680858,1.05 0.03115,0.02729 -2.469142,0 -2.469142,0 v 2.1 h 3.416606 c 0.577709,-0.021 1.275296,0 1.833394,0 v 4.2 l 2.1,-0.03892 v -4.16108 h 2.06719 l 0.06565,4.2 h 2.1 l -0.06565,-4.2 c 6.33281,0 6.33281,-3.15 6.33281,-4.727053 0,-1.572947 -0.665944,-3.670936 -3.15,-3.672947 1.434056,0.0019 2.1,-2.36933 2.1,-4.2 0,-2.36944 -2.1,-4.2 -5.25,-4.2 v -4.2 h -2.1 v 4.2 c -0.627107,0 -1.463338,-0.02311 -2.1,0 v -4.2 z m 2.1,6.3 c 2.1,0 5.250367,3.8e-5 5.25,2.625 3.67e-4,2.625168 -3.15,2.625 -5.25,2.625 z m 0,7.35 c 4.2,1.3e-4 6.300436,3.8e-5 6.3,2.625 4.36e-4,2.625168 -2.1,2.625 -6.3,2.625 z"
     id="path20" />
  <path
     style="opacity:0.2;fill:#000000;fill-opacity:1;stroke-width:1.05"
     d="M 44.977445,23.388872 A 21,21 0 0 1 24.000004,43.950003 21,21 0 0 1 3.0225622,23.561134 a 21,21 0 0 0 -0.022558,0.438869 21,21 0 0 0 20.9999998,21 21,21 0 0 0 21,-21 21,21 0 0 0 -0.02255,-0.611131 z"
     id="path22" />
</svg>
