<?xml version="1.0" encoding="UTF-8" standalone="no"?>
<svg
   width="48"
   height="48"
   version="1.1"
   viewBox="0 0 48 48"
   id="svg27"
   sodipodi:docname="bovo.svg"
   inkscape:version="1.2.1 (9c6d41e410, 2022-07-14)"
   xmlns:inkscape="http://www.inkscape.org/namespaces/inkscape"
   xmlns:sodipodi="http://sodipodi.sourceforge.net/DTD/sodipodi-0.dtd"
   xmlns="http://www.w3.org/2000/svg"
   xmlns:svg="http://www.w3.org/2000/svg">
  <sodipodi:namedview
     id="namedview29"
     pagecolor="#ffffff"
     bordercolor="#666666"
     borderopacity="1.0"
     inkscape:showpageshadow="2"
     inkscape:pageopacity="0.0"
     inkscape:pagecheckerboard="0"
     inkscape:deskcolor="#d1d1d1"
     showgrid="false"
     inkscape:zoom="3.6875"
     inkscape:cx="32"
     inkscape:cy="32"
     inkscape:window-width="1920"
     inkscape:window-height="1011"
     inkscape:window-x="0"
     inkscape:window-y="0"
     inkscape:window-maximized="1"
     inkscape:current-layer="svg27" />
  <defs
     id="defs7">
    <linearGradient
       id="linearGradient1005"
       x1="0.73910999"
       x2="16.388"
       y1="16.296"
       y2="0.64687002"
       gradientTransform="matrix(2.6456628,0,0,2.6456628,1.5057564,1.6184637)"
       gradientUnits="userSpaceOnUse">
      <stop
         stop-color="#00a0ff"
         offset="0"
         id="stop2"
         style="stop-color:#008080;stop-opacity:1" />
      <stop
         stop-color="#37beff"
         offset="1"
         id="stop4"
         style="stop-color:#00ccff;stop-opacity:1" />
    </linearGradient>
  </defs>
  <path
     d="m 44.999231,24.000384 c 0,2.517496 -0.443146,4.930973 -1.255772,7.167847 -0.564848,1.554807 -1.307994,3.024774 -2.206216,4.384422 -0.376268,0.571706 -0.78083,1.123686 -1.21027,1.654278 -1.374771,1.69795 -3.008674,3.176669 -4.842636,4.376721 -0.675436,0.442279 -1.37743,0.846845 -2.104225,1.209364 C 30.557703,44.205516 27.371301,45 23.999616,45 20.627926,45 17.441246,44.205448 14.619117,42.792878 13.892253,42.430286 13.1894,42.025766 12.513914,41.583513 10.656503,40.36722 9.0031412,38.865334 7.6173099,37.139311 7.1870714,36.604467 6.7833482,36.047336 6.4070361,35.470477 5.5327553,34.133437 4.808551,32.690699 4.2547928,31.165988 3.4423205,28.92961 3,26.51704 3,24.000245 3,12.402197 12.401495,3 24.000245,3 c 5.821772,0 11.08986,2.3691685 14.893578,6.1950771 1.096245,1.1021949 2.070835,2.3263289 2.900455,3.6497199 0.784266,1.246251 1.440009,2.581681 1.950021,3.986485 0.812682,2.23715 1.255772,4.650838 1.255772,7.167842 z"
     stroke-width="0.0820296"
     id="path9"
     style="fill:url(#linearGradient1005)" />
  <g
     transform="matrix(0.69998484,0,0,0.69998484,-33.811364,-14.241186)"
     id="g25">
    <path
       d="m 62.957,49.926 c -0.43456,0.43456 -0.43456,1.1342 0,1.5688 l 3.1376,3.1376 -3.1376,3.1376 c -0.43456,0.43456 -0.43456,1.1342 0,1.5688 0.43456,0.43456 1.1342,0.43456 1.5688,0 l 3.1376,-3.1376 3.1376,3.1376 c 0.43456,0.43456 1.1342,0.43456 1.5688,0 0.43456,-0.43456 0.43456,-1.1342 0,-1.5688 l -3.1376,-3.1376 3.1376,-3.1376 c 0.43456,-0.43456 0.43456,-1.1342 0,-1.5688 -0.43456,-0.43456 -1.1342,-0.43456 -1.5688,0 l -3.1376,3.1376 -3.1376,-3.1376 c -0.43456,-0.43456 -1.1342,-0.43456 -1.5688,0 z"
       id="path11" />
    <path
       d="m 102.22,63.364 c 0.43456,0.43456 0.43456,1.1342 0,1.5688 l -3.1376,3.1376 3.1376,3.1376 c 0.43456,0.43456 0.43456,1.1342 0,1.5688 -0.43456,0.43456 -1.1342,0.43456 -1.5688,0 l -3.1376,-3.1376 -3.1376,3.1376 c -0.43456,0.43456 -1.1342,0.43456 -1.5688,0 -0.43456,-0.43456 -0.43456,-1.1342 0,-1.5688 l 3.1376,-3.1376 -3.1376,-3.1376 c -0.43456,-0.43456 -0.43456,-1.1342 0,-1.5688 0.43456,-0.43456 1.1342,-0.43456 1.5688,0 l 3.1376,3.1376 3.1376,-3.1376 c 0.43456,-0.43456 1.1342,-0.43456 1.5688,0 z"
       id="path13" />
    <path
       d="m 62.957,37.001 c -0.43456,0.43456 -0.43456,1.1342 0,1.5688 l 3.1376,3.1376 -3.1376,3.1376 c -0.43456,0.43456 -0.43456,1.1342 0,1.5688 0.43456,0.43456 1.1342,0.43456 1.5688,0 l 3.1376,-3.1376 3.1376,3.1376 c 0.43456,0.43456 1.1342,0.43456 1.5688,0 0.43456,-0.43456 0.43456,-1.1342 0,-1.5688 l -3.1376,-3.1376 3.1376,-3.1376 c 0.43456,-0.43456 0.43456,-1.1342 0,-1.5688 -0.43456,-0.43456 -1.1342,-0.43456 -1.5688,0 l -3.1376,3.1376 -3.1376,-3.1376 c -0.43456,-0.43456 -1.1342,-0.43456 -1.5688,0 z"
       id="path15" />
    <path
       d="m 82.074,49.6 c -3.0728,0 -5.5466,2.4738 -5.5466,5.5466 0,3.0728 2.4738,5.5466 5.5466,5.5466 3.0728,0 5.5466,-2.4738 5.5466,-5.5466 0,-3.0728 -2.4738,-5.5466 -5.5466,-5.5466 z m 0,2.2186 c 1.8437,0 3.3279,1.4843 3.3279,3.3279 0,1.8437 -1.4843,3.3279 -3.3279,3.3279 -1.8436,0 -3.3279,-1.4843 -3.3279,-3.3279 0,-1.8437 1.4843,-3.3279 3.3279,-3.3279 z"
       id="path17" />
    <path
       d="m 86.78,63.364 c 0.43456,0.43456 0.43456,1.1342 0,1.5688 l -3.1376,3.1376 3.1376,3.1376 c 0.43456,0.43456 0.43456,1.1342 0,1.5688 -0.43456,0.43456 -1.1342,0.43456 -1.5688,0 l -3.1376,-3.1376 -3.1376,3.1376 c -0.43456,0.43456 -1.1342,0.43456 -1.5688,0 -0.43456,-0.43456 -0.43456,-1.1342 0,-1.5688 l 3.1376,-3.1376 -3.1376,-3.1376 c -0.43456,-0.43456 -0.43456,-1.1342 0,-1.5688 0.43456,-0.43456 1.1342,-0.43456 1.5688,0 l 3.1376,3.1376 3.1376,-3.1376 c 0.43456,-0.43456 1.1342,-0.43456 1.5688,0 z"
       id="path19" />
    <path
       d="m 82.074,36.161 c -3.0728,0 -5.5466,2.4738 -5.5466,5.5466 0,3.0728 2.4738,5.5466 5.5466,5.5466 3.0728,0 5.5466,-2.4738 5.5466,-5.5466 0,-3.0728 -2.4738,-5.5466 -5.5466,-5.5466 z m 0,2.2186 c 1.8437,0 3.3279,1.4843 3.3279,3.3279 0,1.8437 -1.4843,3.3279 -3.3279,3.3279 -1.8436,0 -3.3279,-1.4843 -3.3279,-3.3279 0,-1.8437 1.4843,-3.3279 3.3279,-3.3279 z"
       id="path21" />
    <path
       d="m 97,36.161 c -3.0728,0 -5.5466,2.4738 -5.5466,5.5466 0,3.0728 2.4738,5.5466 5.5466,5.5466 3.0728,0 5.5466,-2.4738 5.5466,-5.5466 0,-3.0728 -2.4738,-5.5466 -5.5466,-5.5466 z m 0,2.2186 c 1.8437,0 3.3279,1.4843 3.3279,3.3279 0,1.8437 -1.4843,3.3279 -3.3279,3.3279 -1.8436,0 -3.3279,-1.4843 -3.3279,-3.3279 0,-1.8437 1.4843,-3.3279 3.3279,-3.3279 z"
       id="path23" />
  </g>
</svg>
