<?xml version="1.0" encoding="UTF-8" standalone="no"?>
<svg
   width="48"
   height="48"
   version="1.1"
   viewBox="0 0 48 48"
   id="svg2987"
   sodipodi:docname="calamares.svg"
   inkscape:version="1.2.1 (9c6d41e410, 2022-07-14)"
   xmlns:inkscape="http://www.inkscape.org/namespaces/inkscape"
   xmlns:sodipodi="http://sodipodi.sourceforge.net/DTD/sodipodi-0.dtd"
   xmlns="http://www.w3.org/2000/svg"
   xmlns:svg="http://www.w3.org/2000/svg">
  <defs
     id="defs2991" />
  <sodipodi:namedview
     id="namedview2989"
     pagecolor="#ffffff"
     bordercolor="#666666"
     borderopacity="1.0"
     inkscape:showpageshadow="2"
     inkscape:pageopacity="0.0"
     inkscape:pagecheckerboard="0"
     inkscape:deskcolor="#d1d1d1"
     showgrid="false"
     inkscape:zoom="3.6875"
     inkscape:cx="32"
     inkscape:cy="32"
     inkscape:window-width="1920"
     inkscape:window-height="1011"
     inkscape:window-x="0"
     inkscape:window-y="0"
     inkscape:window-maximized="1"
     inkscape:current-layer="svg2987" />
  <g
     transform="matrix(0.77777778,0,0,0.77742973,-0.88589622,-823.77772)"
     id="g2985">
    <circle
       transform="rotate(-15)"
       cx="-251.33"
       cy="1061.6"
       fill="#e0e0e0"
       id="ellipse2959"
       style="fill:#cccccc;fill-opacity:1"
       r="27" />
    <circle
       cx="32"
       cy="1090.5"
       r="10"
       fill="#bdbdbd"
       id="circle2961" />
    <circle
       cx="32"
       cy="1090.5"
       r="5"
       fill="#424242"
       id="circle2963" />
    <rect
       x="44"
       y="1089.5"
       width="9"
       height="10"
       ry="0.99994999"
       fill="#4a606a"
       id="rect2965" />
    <path
       transform="translate(0,1058.5)"
       d="m 43,39 c -0.55397,0 -1,0.44603 -1,1 v 16 c 0,1.662 1.338,3 3,3 h 7 c 1.662,0 3,-1.338 3,-3 V 40 c 0,-0.55397 -0.44603,-1 -1,-1 z"
       fill="#f6744a"
       id="path2967" />
    <g
       fill="#ffffff"
       id="g2975">
      <rect
         x="45"
         y="1100.5"
         width="7"
         height="1"
         ry="0.5"
         id="rect2969" />
      <rect
         x="46"
         y="1102.5"
         width="5"
         height="0.99994999"
         ry="0.45311999"
         id="rect2971" />
      <rect
         x="47"
         y="1104.5"
         width="3"
         height="1"
         ry="0.45311999"
         id="rect2973" />
    </g>
    <g
       fill="#ffd54f"
       id="g2983">
      <rect
         x="46"
         y="1091.5"
         width="1"
         height="5"
         id="rect2977" />
      <rect
         x="50"
         y="1091.5"
         width="1"
         height="5"
         id="rect2979" />
      <rect
         x="48"
         y="1093.5"
         width="1"
         height="3"
         id="rect2981" />
    </g>
  </g>
</svg>
