<?xml version="1.0" encoding="UTF-8" standalone="no"?>
<svg
   width="48"
   height="48"
   version="1.1"
   id="svg4621"
   sodipodi:docname="calligraflow.svg"
   inkscape:version="1.2.1 (9c6d41e410, 2022-07-14)"
   xmlns:inkscape="http://www.inkscape.org/namespaces/inkscape"
   xmlns:sodipodi="http://sodipodi.sourceforge.net/DTD/sodipodi-0.dtd"
   xmlns:xlink="http://www.w3.org/1999/xlink"
   xmlns="http://www.w3.org/2000/svg"
   xmlns:svg="http://www.w3.org/2000/svg">
  <sodipodi:namedview
     id="namedview4623"
     pagecolor="#ffffff"
     bordercolor="#666666"
     borderopacity="1.0"
     inkscape:showpageshadow="2"
     inkscape:pageopacity="0.0"
     inkscape:pagecheckerboard="0"
     inkscape:deskcolor="#d1d1d1"
     showgrid="false"
     inkscape:zoom="4.9166667"
     inkscape:cx="24"
     inkscape:cy="24.101695"
     inkscape:window-width="1920"
     inkscape:window-height="1000"
     inkscape:window-x="0"
     inkscape:window-y="0"
     inkscape:window-maximized="1"
     inkscape:current-layer="svg4621" />
  <defs
     id="defs4597">
    <linearGradient
       id="a"
       y1="37"
       x1="13"
       y2="24"
       x2="8"
       gradientUnits="userSpaceOnUse">
      <stop
         stop-color="#ec4c21"
         id="stop4570" />
      <stop
         offset="1"
         stop-color="#ec7b0f"
         id="stop4572" />
    </linearGradient>
    <linearGradient
       id="b"
       y1="33"
       x1="36"
       y2="40"
       x2="23"
       gradientUnits="userSpaceOnUse">
      <stop
         stop-color="#06a370"
         id="stop4575" />
      <stop
         offset="1"
         stop-color="#22d1b0"
         id="stop4577" />
    </linearGradient>
    <linearGradient
       id="c"
       y1="12"
       x1="33"
       y2="24"
       x2="38"
       gradientUnits="userSpaceOnUse">
      <stop
         stop-color="#faae2a"
         id="stop4580" />
      <stop
         offset="1"
         stop-color="#ffc35a"
         id="stop4582" />
    </linearGradient>
    <linearGradient
       id="d"
       y1="15"
       x1="12"
       y2="8"
       x2="24"
       gradientUnits="userSpaceOnUse">
      <stop
         stop-color="#2e5d89"
         id="stop4585" />
      <stop
         offset="1"
         stop-color="#1b92f4"
         id="stop4587" />
    </linearGradient>
    <linearGradient
       id="e"
       y1="10.361"
       x1="9.404"
       y2="15.713"
       x2="14.756"
       gradientUnits="userSpaceOnUse">
      <stop
         id="stop4590" />
      <stop
         offset="1"
         stop-opacity="0"
         id="stop4592" />
    </linearGradient>
    <linearGradient
       xlink:href="#e"
       id="f"
       y1="30.28"
       x1="34.21"
       y2="35.79"
       x2="39.724"
       gradientUnits="userSpaceOnUse" />
    <linearGradient
       xlink:href="#e"
       id="g"
       y1="34.21"
       x1="17.725"
       y2="41.873"
       x2="25.387"
       gradientUnits="userSpaceOnUse" />
    <linearGradient
       inkscape:collect="always"
       xlink:href="#d"
       id="linearGradient4742"
       gradientUnits="userSpaceOnUse"
       x1="12"
       y1="15"
       x2="24"
       y2="8"
       gradientTransform="matrix(1.0500108,0,0,1.0500107,-1.2000425,-1.1997306)" />
    <linearGradient
       inkscape:collect="always"
       xlink:href="#e"
       id="linearGradient4744"
       gradientUnits="userSpaceOnUse"
       x1="9.404"
       y1="10.361"
       x2="14.756"
       y2="15.713"
       gradientTransform="matrix(1.0500108,0,0,1.0500107,-1.2000425,-1.1997306)" />
    <linearGradient
       inkscape:collect="always"
       xlink:href="#d"
       id="linearGradient4746"
       gradientUnits="userSpaceOnUse"
       x1="12"
       y1="15"
       x2="24"
       y2="8" />
  </defs>
  <path
     fill="url(#d)"
     stroke-linejoin="bevel"
     stroke-width="6.51007"
     d="M 24.000213,3.0003115 A 21.000213,21.000212 0 0 0 8.5248606,9.841789 l 2.9277244,13.108722 c 0.546006,-6.52581 5.999764,-11.550117 12.547628,-11.550117 l 3.150028,-4.20004 -0.90301,-4.0729911 A 21.000213,21.000212 0 0 0 24.000213,3.0003115"
     id="path4599"
     style="fill:url(#linearGradient4742)" />
  <path
     opacity="0.2"
     fill="url(#e)"
     fill-rule="evenodd"
     d="m 8.6745696,9.679777 a 21.000213,21.000212 0 0 0 -0.9228613,1.052058 l -2.7272878,9.997906 6.9867705,-0.537606 a 12.600129,12.600128 0 0 1 2.606598,-4.569143 z"
     id="path4601"
     style="fill:url(#linearGradient4744);stroke-width:1.05001" />
  <g
     stroke-linejoin="bevel"
     stroke-width="6.2"
     id="g4611"
     transform="matrix(1.0500107,0,0,1.0500106,-1.2000425,-1.1997305)">
    <path
       fill="url(#a)"
       d="M 9.40625,10.361328 A 20,20 0 0 0 4,24 20,20 0 0 0 10.443359,38.669922 L 23,35.949 C 16.785,35.43 12,30.24 12,24 h 5.525 l -4.953,-8.32 z"
       id="path4603"
       style="fill:url(#a)" />
    <path
       fill="url(#b)"
       d="M 35.949,25 C 35.429,31.215 30.236,35.995 24,36 v -5.525 l -13.639,8.119 a 20,20 0 0 0 13.638672,5.40625 20,20 0 0 0 14.775391,-6.556641 c -0.003,-0.004 -0.005,-0.008 -0.008,-0.012 z"
       id="path4605"
       style="fill:url(#b)" />
    <path
       fill="url(#c)"
       d="M 36.451,9.143 25,12.051 c 6.215,0.52 10.995,5.713 11,11.949 h -5.525 l 8.119,13.639 A 20,20 0 0 0 44.00025,24.000328 20,20 0 0 0 37.424078,9.207359 c -0.324,-0.018 -0.649,-0.048 -0.973,-0.064"
       id="path4607"
       style="fill:url(#c)" />
    <path
       fill="url(#d)"
       d="m 24.03,4 -0.025,7.998 v 5.525 L 37.644,9.404 A 20,20 0 0 0 24.030719,3.999703"
       id="path4609"
       style="fill:url(#linearGradient4746)" />
  </g>
  <g
     fill-rule="evenodd"
     id="g4617"
     transform="matrix(1.0500107,0,0,1.0500106,-1.2000425,-1.1997305)">
    <path
       opacity="0.2"
       fill="url(#f)"
       d="m 34.21,30.28 4.387,7.367 a 20,20 0 0 0 1.357422,-1.623046 z"
       id="path4613"
       style="fill:url(#f)" />
    <path
       opacity="0.2"
       fill="url(#g)"
       d="m 17.725,34.21 -7.371,4.389 a 20,20 0 0 0 13.646484,5.400391 20,20 0 0 0 3.226562,-0.287109 z"
       id="path4615"
       style="fill:url(#g)" />
  </g>
  <path
     opacity="0.2"
     stroke-linejoin="bevel"
     fill-opacity="0.314"
     stroke-width="6.49374"
     d="M 44.977869,23.389385 A 21.000213,21.000212 0 0 1 24.000213,43.950723 21.000213,21.000212 0 0 1 3.0225542,23.561649 21.000213,21.000212 0 0 0 3,24.000523 21.000213,21.000212 0 0 0 24.000213,45.000734 21.000213,21.000212 0 0 0 45.000427,24.000523 21.000213,21.000212 0 0 0 44.977867,23.389385"
     id="path4619" />
</svg>
