<?xml version="1.0" encoding="UTF-8" standalone="no"?>
<!-- Created with Inkscape (http://www.inkscape.org/) -->

<svg
   width="48"
   height="48"
   version="1.1"
   viewBox="0 0 48 48"
   id="svg5104"
   sodipodi:docname="calligrasheets.svg"
   inkscape:version="1.2.1 (9c6d41e410, 2022-07-14)"
   xmlns:inkscape="http://www.inkscape.org/namespaces/inkscape"
   xmlns:sodipodi="http://sodipodi.sourceforge.net/DTD/sodipodi-0.dtd"
   xmlns="http://www.w3.org/2000/svg"
   xmlns:svg="http://www.w3.org/2000/svg">
  <sodipodi:namedview
     id="namedview5106"
     pagecolor="#ffffff"
     bordercolor="#666666"
     borderopacity="1.0"
     inkscape:showpageshadow="2"
     inkscape:pageopacity="0.0"
     inkscape:pagecheckerboard="0"
     inkscape:deskcolor="#d1d1d1"
     showgrid="false"
     inkscape:zoom="3.6875"
     inkscape:cx="32"
     inkscape:cy="32"
     inkscape:window-width="1920"
     inkscape:window-height="1011"
     inkscape:window-x="0"
     inkscape:window-y="0"
     inkscape:window-maximized="1"
     inkscape:current-layer="svg5104" />
  <defs
     id="defs5064">
    <linearGradient
       id="linearGradient959"
       x1="22.816"
       x2="38.476002"
       y1="14.449"
       y2="-1.0493"
       gradientTransform="translate(-24.428,3.551)"
       gradientUnits="userSpaceOnUse">
      <stop
         stop-color="#dc3282"
         offset="0"
         id="stop5034" />
      <stop
         stop-color="#f05a50"
         offset="1"
         id="stop5036"
         style="stop-color:#ff9955;stop-opacity:1" />
    </linearGradient>
    <linearGradient
       id="linearGradient875"
       x1="-123.61"
       x2="-124.83"
       y1="-218.50999"
       y2="-149.55"
       gradientTransform="matrix(0.044571,0,0,0.045384,11.938,21.687)"
       gradientUnits="userSpaceOnUse">
      <stop
         stop-color="#d9d9d9"
         offset="0"
         id="stop5039" />
      <stop
         stop-color="#fff"
         offset="1"
         id="stop5041" />
    </linearGradient>
    <linearGradient
       id="linearGradient841"
       x1="-194.48"
       x2="-194.66"
       y1="-239.97"
       y2="-166.64"
       gradientTransform="matrix(0.044571,0,0,0.045384,11.938,21.687)"
       gradientUnits="userSpaceOnUse">
      <stop
         stop-color="#f35966"
         offset="0"
         id="stop5044" />
      <stop
         stop-color="#e0283f"
         offset="1"
         id="stop5046" />
    </linearGradient>
    <linearGradient
       id="linearGradient851"
       x1="-145.39999"
       x2="-145.58"
       y1="-167.25999"
       y2="-280.64999"
       gradientTransform="matrix(0.044571,0,0,0.045384,11.938,21.687)"
       gradientUnits="userSpaceOnUse">
      <stop
         stop-color="#f06712"
         offset="0"
         id="stop5049" />
      <stop
         stop-color="#ffb436"
         offset="1"
         id="stop5051" />
    </linearGradient>
    <linearGradient
       id="linearGradient859"
       x1="-98.577003"
       x2="-101.03"
       y1="-166.03"
       y2="-348.97"
       gradientTransform="matrix(0.044571,0,0,0.045384,11.938,21.687)"
       gradientUnits="userSpaceOnUse">
      <stop
         stop-color="#01bb22"
         offset="0"
         id="stop5054" />
      <stop
         stop-color="#51e784"
         offset="1"
         id="stop5056" />
    </linearGradient>
    <linearGradient
       id="linearGradient867"
       x1="-50.257999"
       x2="-52.706001"
       y1="-167.99001"
       y2="-309.35001"
       gradientTransform="matrix(0.044571,0,0,0.045384,11.938,21.687)"
       gradientUnits="userSpaceOnUse">
      <stop
         stop-color="#017bf5"
         offset="0"
         id="stop5059" />
      <stop
         stop-color="#52cdfb"
         offset="1"
         id="stop5061" />
    </linearGradient>
  </defs>
  <g
     transform="matrix(2.6456692,0,0,2.6456693,7.8320497,-3.120757)"
     id="g5102">
    <circle
       cx="6.1111002"
       cy="10.251"
       r="7.9375"
       fill="url(#linearGradient959)"
       id="circle5066"
       style="fill:url(#linearGradient959)" />
    <g
       id="g5088">
      <path
         d="m 1.0504,15.356 h 10.147 c 0.11887,0 0.1868,-0.08242 0.18832,-0.19727 l 0.0024,-0.17971 -0.84254,-3.6966 c -0.02437,-0.10696 -0.1091,-0.19132 -0.22796,-0.19138 l -8.3929,-0.0043 c -0.11887,-4.5e-5 -0.20618,0.06076 -0.22389,0.14119 l -0.86844,3.7385 0.003215,0.19232 c 0.001826,0.10927 0.095693,0.19727 0.21456,0.19727 z"
         opacity="0.25"
         id="path5068" />
      <path
         d="m 1.0504,15.14 h 10.147 c 0.11887,0 0.19624,-0.08781 0.18832,-0.19727 l -0.28028,-3.8763 c -0.0079,-0.10946 -0.07514,-0.19132 -0.19401,-0.19137 l -9.688,-0.0043 c -0.11887,-4.6e-5 -0.16026,0.0589 -0.16492,0.14119 l -0.22295,3.9308 c -0.006215,0.10959 0.095693,0.19727 0.21456,0.19727 z"
         fill="url(#linearGradient875)"
         stroke="#999999"
         stroke-width="0.032335"
         id="path5070"
         style="fill:url(#linearGradient875)" />
      <rect
         x="2.3599999"
         y="10.548"
         width="1.8451"
         height="3.6536"
         ry="0.22549"
         fill="url(#linearGradient841)"
         id="rect5072"
         style="fill:url(#linearGradient841)" />
      <path
         d="m 2.512,10.179 h 1.5411 c 0.08384,0 0.12311,0.06886 0.12775,0.1541 l 0.023585,0.43294 c 0.00465,0.08524 -0.067496,0.1541 -0.15134,0.1541 h -1.5411 c -0.08384,0 -0.15598,-0.06886 -0.15134,-0.1541 L 2.38424,10.3331 C 2.38888,10.24786 2.42815,10.179 2.51199,10.179 Z"
         fill="#fe8f8a"
         id="path5074" />
      <rect
         x="4.4804001"
         y="8.5707998"
         width="1.8451"
         height="5.6307001"
         ry="0.22622"
         fill="url(#linearGradient851)"
         id="rect5076"
         style="fill:url(#linearGradient851)" />
      <path
         d="m 4.6324,8.202 h 1.5411 c 0.08384,0 0.12311,0.056745 0.12775,0.12698 l 0.023585,0.35677 c 0.00465,0.070242 -0.067496,0.12698 -0.15134,0.12698 h -1.5411 c -0.08384,0 -0.15598,-0.056742 -0.15134,-0.12698 L 4.50464,8.32898 C 4.50929,8.258741 4.548551,8.202 4.63239,8.202 Z"
         fill="#ffc966"
         id="path5078" />
      <rect
         x="6.6008"
         y="5.3231001"
         width="1.8451"
         height="8.8752003"
         ry="0.26890999"
         fill="url(#linearGradient859)"
         id="rect5080"
         style="fill:url(#linearGradient859)" />
      <path
         d="m 6.7528,5.1453 h 1.5411 c 0.08384,0 0.12311,0.048574 0.12775,0.1087 l 0.023585,0.3054 c 0.00465,0.060128 -0.067496,0.1087 -0.15134,0.1087 h -1.5411 c -0.08384,0 -0.15598,-0.048574 -0.15134,-0.1087 L 6.62504,5.254 C 6.62969,5.193873 6.668951,5.1453 6.75279,5.1453 Z"
         fill="#87ffa3"
         id="path5082" />
      <rect
         x="8.7208004"
         y="7.2038999"
         width="1.8451"
         height="6.9944"
         ry="0.21193001"
         fill="url(#linearGradient867)"
         id="rect5084"
         style="fill:url(#linearGradient867)" />
      <path
         d="m 8.8728,6.895 h 1.5411 c 0.08384,0 0.12311,0.056542 0.12775,0.12653 l 0.02359,0.3555 c 0.0046,0.069993 -0.0675,0.12653 -0.15134,0.12653 H 8.8728 c -0.08384,0 -0.15598,-0.056541 -0.15134,-0.12653 L 8.745045,7.02153 C 8.749695,6.951537 8.788955,6.895 8.872795,6.895 Z"
         fill="#79d7ff"
         id="path5086" />
    </g>
    <g
       fill="#808080"
       id="g5100">
      <path
         d="m 1.6021,11.325 0.00167,-0.04775 0.23571,0.0082 -0.011605,0.33315 -0.12778,-0.0045 0.00994,-0.2854 z"
         id="path5090" />
      <path
         d="M 1.958,12.302 1.95633,12.34975 1.45017,12.33212 1.64495,12.23175 Q 1.78402,12.16186 1.80824,12.14402 1.833722,12.12568 1.834143,12.1136 1.835493,12.1103 1.835603,12.1071 1.8363703,12.08515 1.803464,12.06697 1.771801,12.04884 1.718455,12.04698 1.665109,12.04508 1.633426,12.06325 1.602983,12.08142 1.602027,12.10886 l -0.13398,-0.0047 q 0.00172,-0.0494 0.068581,-0.07894 0.06812,-0.03005 0.18225,-0.02608 0.10297,0.0036 0.17261,0.03679 0.069643,0.0332 0.068037,0.0793 -0.00151,0.04336 -0.15432,0.11552 l -0.13008,0.06141 z"
         id="path5092" />
      <path
         d="m 1.4632,12.814 q 0.011472,-0.04411 0.073161,-0.06779 0.061688,-0.02368 0.15969,-0.02026 0.099247,0.0035 0.15792,0.03078 0.058669,0.02732 0.057159,0.07068 -0.00169,0.0483 -0.074383,0.0672 0.096116,0.02203 0.093936,0.0846 -0.00169,0.0483 -0.073409,0.07492 -0.070468,0.02612 -0.18088,0.02228 -0.10297,-0.0036 -0.17511,-0.03632 Q 1.429141,13.00735 1.430689,12.9629 l 0.12778,0.0045 q -8.467e-4,0.02415 0.034562,0.04187 0.035404,0.01771 0.08999,0.01961 0.055827,0.002 0.088713,-0.01505 0.034127,-0.01695 0.035026,-0.04274 7.408e-4,-0.02141 -0.034601,-0.04077 -0.034086,-0.01987 -0.078748,-0.02143 -0.00496,-1.73e-4 -0.00995,3.18e-4 l -0.027331,1.4e-4 0.00132,-0.03787 0.016129,5.56e-4 q 0.047142,0.0016 0.081136,-0.01147 0.035253,-0.01361 0.035998,-0.03501 0.00177,-0.05104 -0.10243,-0.05467 -0.10297,-0.0036 -0.10475,0.04745 z"
         id="path5094" />
      <path
         d="m 1.9268,13.697 -0.00151,0.04336 -0.089323,-0.0031 -0.0022,0.06312 -0.11786,-0.0041 0.0022,-0.06312 -0.3424,-0.01193 8.731e-4,-0.0247 0.34496,-0.23966 0.12406,0.0043 -0.00811,0.23271 z m -0.20183,-0.16089 -0.19889,0.14693 0.19353,0.0067 z"
         id="path5096" />
      <path
         d="m 1.6138,14.234 -0.031858,0.05879 0.058346,9.53e-4 q 0.10793,0.0038 0.17374,0.04012 0.067066,0.03586 0.065384,0.08415 -0.00188,0.05379 -0.078697,0.08408 -0.076823,0.03029 -0.19964,0.02601 -0.13647,-0.0048 -0.22178,-0.05169 l 0.0389,-0.047 q 0.070406,0.04696 0.17462,0.05059 0.064511,0.0022 0.10986,-0.01595 0.046609,-0.0187 0.047795,-0.05274 0.00122,-0.03458 -0.045269,-0.05543 -0.046473,-0.02085 -0.11843,-0.02336 -0.071954,-0.0025 -0.11862,0.01785 l -0.023572,-8.2e-4 0.084046,-0.16632 0.32752,0.01141 -0.00167,0.04775 z"
         id="path5098" />
    </g>
  </g>
</svg>
