<?xml version="1.0" encoding="UTF-8" standalone="no"?>
<svg
   width="48"
   height="48"
   version="1.1"
   id="svg7404"
   sodipodi:docname="cantor.svg"
   inkscape:version="1.2.1 (9c6d41e410, 2022-07-14)"
   xmlns:inkscape="http://www.inkscape.org/namespaces/inkscape"
   xmlns:sodipodi="http://sodipodi.sourceforge.net/DTD/sodipodi-0.dtd"
   xmlns="http://www.w3.org/2000/svg"
   xmlns:svg="http://www.w3.org/2000/svg">
  <sodipodi:namedview
     id="namedview7406"
     pagecolor="#ffffff"
     bordercolor="#666666"
     borderopacity="1.0"
     inkscape:showpageshadow="2"
     inkscape:pageopacity="0.0"
     inkscape:pagecheckerboard="0"
     inkscape:deskcolor="#d1d1d1"
     showgrid="false"
     inkscape:zoom="4.9166667"
     inkscape:cx="24"
     inkscape:cy="24.406779"
     inkscape:window-width="1920"
     inkscape:window-height="1011"
     inkscape:window-x="0"
     inkscape:window-y="0"
     inkscape:window-maximized="1"
     inkscape:current-layer="svg7404" />
  <defs
     id="defs7384">
    <linearGradient
       id="a"
       y1="543.8"
       y2="503.8"
       x1="434.57"
       gradientUnits="userSpaceOnUse"
       x2="384.57"
       gradientTransform="matrix(0.87499994,0,0,1.0499997,-333.49627,-525.98976)">
      <stop
         stop-color="#343b40"
         id="stop7369" />
      <stop
         offset="1"
         stop-color="#555e63"
         id="stop7371" />
    </linearGradient>
    <linearGradient
       id="b"
       y1="543.8"
       y2="503.8"
       x2="0"
       gradientUnits="userSpaceOnUse"
       gradientTransform="matrix(1.15625,0,0,1,-447.91,-499.8)">
      <stop
         stop-color="#bd8d48"
         id="stop7374" />
      <stop
         offset="1"
         stop-color="#e8b971"
         id="stop7376" />
    </linearGradient>
    <linearGradient
       id="c"
       y1="17.14"
       y2="33.14"
       x1="37.581"
       gradientUnits="userSpaceOnUse"
       x2="53.58"
       gradientTransform="matrix(1.18421,0,0,1.18421,-32.302971,-5.329253)">
      <stop
         stop-color="#383e51"
         id="stop7379" />
      <stop
         offset="1"
         stop-color="#655c6f"
         stop-opacity="0"
         id="stop7381" />
    </linearGradient>
  </defs>
  <rect
     width="42"
     x="3"
     y="3"
     fill="url(#a)"
     height="42"
     id="rect7388"
     ry="21"
     style="fill:url(#a);stroke-width:1.21865"
     rx="21" />
  <rect
     width="4.7368383"
     x="29.726009"
     y="37.468132"
     fill="#ffffff"
     height="1.1842096"
     id="rect7392"
     style="color:#000000;stroke-width:1.1841" />
  <rect
     width="4.7368383"
     x="23.804905"
     y="37.468132"
     fill="#007ad9"
     height="1.1842096"
     id="rect7394"
     style="color:#000000;stroke-width:1.1841" />
  <path
     opacity="0.2"
     fill="url(#c)"
     fill-rule="evenodd"
     d="m 31.147045,18.520762 -1.184225,2.368409 v -1.184225 h -8.289478 l -4.736823,8.289468 h -1.184226 l -1.184188,-2.368409 h -2.36842 l 5.921027,5.921054 H 12.199685 L 28.778622,48.126 h 11.830241 c 0.006,0 0.01196,-4.225255 0.01196,-9.473687 V 27.994414 Z"
     id="path7398"
     style="fill:url(#c);stroke-width:1.1841" />
  <path
     fill="#d6d6d6"
     d="m 35.204101,13.621 -11.752464,0.0041 -6.524073,11.298494 -2.284379,-3.959105 h -2.938107 v 1.469092 h 2.09782 l 3.133478,5.425245 7.374673,-12.770484 h 9.43131 v 1.469117 h 1.469065 z m -7.345288,4.407141 c -2.441579,0 -4.407176,1.965592 -4.407176,4.407163 0,2.441586 1.965597,4.407177 4.407176,4.407177 1.135563,0 2.158051,-0.437772 2.938098,-1.13853 v 1.13853 h 1.469069 v -8.81434 h -1.469069 v 1.138541 c -0.780047,-0.700771 -1.802535,-1.138541 -2.938098,-1.138541 m 0,1.469071 c 1.627723,0 2.938098,1.310372 2.938098,2.938092 0,1.627725 -1.310375,2.938097 -2.938098,2.938097 -1.627719,0 -2.938103,-1.310372 -2.938103,-2.938097 0,-1.62772 1.310384,-2.938092 2.938103,-2.938092 M 11.71391,28.296833 c -0.007,0 -0.01491,0.327606 -0.01491,0.734529 0,0.406936 0.0041,0.73454 0.01491,0.73454 h 23.475511 c 0.007,0 0.01489,-0.327604 0.01489,-0.73454 0,-0.406923 -0.0041,-0.734529 -0.01489,-0.734529 z m 10.283374,2.938106 c -0.007,0 -0.01491,0.327596 -0.01491,0.734538 0,0.406923 0.0041,0.734523 0.01491,0.734523 h 2.908713 c 0.007,0 0.01491,-0.3276 0.01491,-0.734523 0,-0.406942 -0.005,-0.734538 -0.01491,-0.734538 z"
     id="path7400"
     style="stroke-width:1.469" />
</svg>
