<?xml version="1.0" encoding="UTF-8" standalone="no"?>
<svg
   width="48"
   height="48"
   viewBox="0 0 12.699752 12.699752"
   version="1.1"
   id="svg2"
   sodipodi:docname="phpstorm.svg"
   inkscape:version="1.3.2 (091e20ef0f, 2023-11-25)"
   xmlns:inkscape="http://www.inkscape.org/namespaces/inkscape"
   xmlns:sodipodi="http://sodipodi.sourceforge.net/DTD/sodipodi-0.dtd"
   xmlns="http://www.w3.org/2000/svg"
   xmlns:svg="http://www.w3.org/2000/svg">
  <defs
     id="defs2" />
  <sodipodi:namedview
     id="namedview2"
     pagecolor="#ffffff"
     bordercolor="#999999"
     borderopacity="1"
     inkscape:showpageshadow="2"
     inkscape:pageopacity="0"
     inkscape:pagecheckerboard="0"
     inkscape:deskcolor="#d1d1d1"
     inkscape:zoom="6.2265625"
     inkscape:cx="32.602258"
     inkscape:cy="29.14931"
     inkscape:window-width="1920"
     inkscape:window-height="994"
     inkscape:window-x="0"
     inkscape:window-y="0"
     inkscape:window-maximized="1"
     inkscape:current-layer="svg2" />
  <g
     id="g2"
     transform="translate(-0.5292655,-0.5292655)">
    <path
       fill="#c86fc3"
       d="M 12.435283,6.8787526 A 5.5565304,5.5565304 0 0 1 6.8787526,12.435283 5.5565304,5.5565304 0 0 1 1.323,6.8787526 5.5565304,5.5565304 0 0 1 6.8787526,1.323 5.5565304,5.5565304 0 0 1 12.435283,6.8787526 Z"
       id="path1"
       style="stroke-width:0.77779" />
    <rect
       width="6.1733174"
       height="6.1733174"
       x="3.7924829"
       y="3.7924829"
       fill="#303030"
       rx="1.0290159"
       ry="1.0290159"
       style="stroke-width:0.77779;paint-order:markers stroke fill"
       id="rect1" />
    <path
       fill="#f0f0f0"
       d="M 4.2218226,8.8115603 H 6.6376378 V 9.2945678 H 4.2218226 Z M 4.7048301,4.4629375 V 7.1198674 H 5.1878376 V 6.1538525 h 0.4837852 c 0.581009,0 0.966015,-0.2372259 0.966015,-0.8330129 V 5.308395 c 0,-0.5382306 -0.2621152,-0.8454575 -0.8874582,-0.8454575 z m 3.3880524,0 c -0.5234525,0 -0.9776818,0.2628929 -0.9776818,0.7427892 v 0.014778 c 0,0.336783 0.3383386,0.6362321 0.8617911,0.7669008 C 8.4125541,6.104074 8.57589,6.2090756 8.57589,6.3545223 v 0.014778 c 0,0.1594469 -0.2504484,0.2683375 -0.4822297,0.2683375 -0.2916712,0 -0.492341,-0.1088906 -0.7249001,-0.2978935 L 7.0529775,6.6819718 c 0.3048936,0.2761154 0.6478989,0.4238954 1.039905,0.4386734 0.5522308,0 0.9566815,-0.3453386 0.9566815,-0.7949011 V 6.3101883 C 9.049564,5.9127377 8.7368925,5.7462906 8.2142177,5.6016217 7.7778776,5.4849533 7.609875,5.4032853 7.609875,5.2282826 v -0.044334 c 0,-0.1314465 0.2644486,-0.2372259 0.4830075,-0.2372259 0.2177811,0 0.3818948,0.015556 0.6144539,0.1750027 L 8.9764517,4.7553864 C 8.7018919,4.5889394 8.4708883,4.4629375 8.0928825,4.4629375 Z M 5.1878376,4.9459449 H 5.670845 c 0.2908934,0 0.4837853,0.1011127 0.4837853,0.3624501 V 5.32084 c 0,0.2177812 -0.1928919,0.3500054 -0.4837853,0.3500054 H 5.1886154 Z"
       id="path2"
       style="stroke-width:0.77779" />
  </g>
</svg>
