<?xml version="1.0" encoding="UTF-8" standalone="no"?>
<svg
   width="48"
   height="48"
   version="1"
   id="svg5"
   sodipodi:docname="google-chrome-unstable.svg"
   inkscape:version="1.3.2 (091e20ef0f, 2023-11-25)"
   xmlns:inkscape="http://www.inkscape.org/namespaces/inkscape"
   xmlns:sodipodi="http://sodipodi.sourceforge.net/DTD/sodipodi-0.dtd"
   xmlns="http://www.w3.org/2000/svg"
   xmlns:svg="http://www.w3.org/2000/svg">
  <defs
     id="defs5" />
  <sodipodi:namedview
     id="namedview5"
     pagecolor="#ffffff"
     bordercolor="#999999"
     borderopacity="1"
     inkscape:showpageshadow="2"
     inkscape:pageopacity="0"
     inkscape:pagecheckerboard="0"
     inkscape:deskcolor="#d1d1d1"
     inkscape:zoom="6.2265625"
     inkscape:cx="27.784191"
     inkscape:cy="29.952321"
     inkscape:window-width="1920"
     inkscape:window-height="994"
     inkscape:window-x="0"
     inkscape:window-y="0"
     inkscape:window-maximized="1"
     inkscape:current-layer="svg5" />
  <g
     fill-rule="evenodd"
     stroke-width="1.095"
     id="g3"
     transform="matrix(0.77777778,0,0,0.77777778,-0.88887879,-0.8888889)">
    <path
       d="M 10.407,15.799 A 27.151,27.149 0 0 0 5,32.084 C 5,47.042 17.043,59 32.003,59 l 9.45,-19.355 -17.55,-3.596 z"
       id="path1"
       style="fill:#d35f8d" />
    <path
       d="m 33.348,19.846 8.1,19.711 -9.45,19.44 A 26.943,26.941 0 0 0 59,31.997 c 0,-4.382 -1.057,-8.5 -2.893,-12.152 z"
       id="path2"
       style="fill:#de87aa" />
    <path
       d="M 31.995,5 C 23.13,5 15.316,9.248 10.398,15.806 l 13.496,20.245 17.551,3.51 -8.101,-19.712 H 56.103 C 51.669,11.035 42.571,5 31.993,5 Z"
       id="path3"
       style="fill:#c83771" />
  </g>
  <path
     fill="#ffffff"
     d="m 23.996117,13.88344 c 5.602338,0 10.112667,4.50956 10.112667,10.11112 0,5.601554 -4.510329,10.111108 -10.112668,10.111108 -5.602325,0 -10.112663,-4.509554 -10.112663,-10.111108 0,-5.60156 4.510337,-10.11112 10.112664,-10.11112 z"
     id="path4"
     style="stroke-width:0.77778" />
  <path
     d="m 23.996117,16.217555 a 7.7606663,7.7606663 0 0 1 7.778558,7.777777 c 0,4.30889 -3.468884,7.777783 -7.778558,7.777783 a 7.7614446,7.7606663 0 0 1 -7.778552,-7.777783 c 0,-4.308887 3.46889,-7.777777 7.778552,-7.777777 z"
     id="path5"
     style="stroke-width:0.77778;fill:#c83771" />
</svg>
