<?xml version="1.0" encoding="UTF-8" standalone="no"?>
<svg
   width="48"
   height="48"
   version="1.1"
   id="svg71"
   sodipodi:docname="darktable.svg"
   inkscape:version="1.2.1 (9c6d41e410, 2022-07-14)"
   xmlns:inkscape="http://www.inkscape.org/namespaces/inkscape"
   xmlns:sodipodi="http://sodipodi.sourceforge.net/DTD/sodipodi-0.dtd"
   xmlns:xlink="http://www.w3.org/1999/xlink"
   xmlns="http://www.w3.org/2000/svg"
   xmlns:svg="http://www.w3.org/2000/svg">
  <sodipodi:namedview
     id="namedview73"
     pagecolor="#ffffff"
     bordercolor="#666666"
     borderopacity="1.0"
     inkscape:showpageshadow="2"
     inkscape:pageopacity="0.0"
     inkscape:pagecheckerboard="0"
     inkscape:deskcolor="#d1d1d1"
     showgrid="false"
     inkscape:zoom="4.9166667"
     inkscape:cx="24"
     inkscape:cy="24.101695"
     inkscape:window-width="1920"
     inkscape:window-height="1000"
     inkscape:window-x="0"
     inkscape:window-y="0"
     inkscape:window-maximized="1"
     inkscape:current-layer="svg71" />
  <defs
     id="defs49">
    <linearGradient
       id="linearGradient4212">
      <stop
         style="stop-color:#cd7223;stop-opacity:1"
         offset="0"
         id="stop2" />
      <stop
         style="stop-color:#ffc169;stop-opacity:1"
         offset="1"
         id="stop4" />
    </linearGradient>
    <linearGradient
       id="linearGradient4204">
      <stop
         style="stop-color:#ffa92d;stop-opacity:1"
         offset="0"
         id="stop7" />
      <stop
         style="stop-color:#edf573;stop-opacity:1"
         offset="1"
         id="stop9" />
    </linearGradient>
    <linearGradient
       id="linearGradient4196">
      <stop
         style="stop-color:#2b4d37;stop-opacity:1"
         offset="0"
         id="stop12" />
      <stop
         style="stop-color:#3bb566;stop-opacity:1"
         offset="1"
         id="stop14" />
    </linearGradient>
    <linearGradient
       id="linearGradient4188">
      <stop
         style="stop-color:#375a7d;stop-opacity:1"
         offset="0"
         id="stop17" />
      <stop
         style="stop-color:#54a3d8;stop-opacity:1"
         offset="1"
         id="stop19" />
    </linearGradient>
    <linearGradient
       id="linearGradient4174">
      <stop
         style="stop-color:#68377d;stop-opacity:1"
         offset="0"
         id="stop22" />
      <stop
         style="stop-color:#cb7cec;stop-opacity:1"
         offset="1"
         id="stop24" />
    </linearGradient>
    <linearGradient
       id="linearGradient4166">
      <stop
         style="stop-color:#bf4231;stop-opacity:1"
         offset="0"
         id="stop27" />
      <stop
         style="stop-color:#f58273;stop-opacity:1"
         offset="1"
         id="stop29" />
    </linearGradient>
    <linearGradient
       id="linearGradient4366">
      <stop
         style="stop-color:#010609;stop-opacity:1;"
         offset="0"
         id="stop32" />
      <stop
         style="stop-color:#010609;stop-opacity:0;"
         offset="1"
         id="stop34" />
    </linearGradient>
    <linearGradient
       id="m"
       y1="268.7"
       y2="231.54"
       x1="272.35"
       gradientUnits="userSpaceOnUse"
       x2="220.97"
       gradientTransform="matrix(0.09843327,0,0,0.09842756,-1.2045229,-1.1931682)">
      <stop
         stop-color="#b0b0b0"
         offset="0"
         id="stop37" />
      <stop
         stop-color="#ffffff"
         offset="1"
         id="stop39" />
    </linearGradient>
    <linearGradient
       xlink:href="#linearGradient4366"
       id="linearGradient4372"
       x1="15.718"
       y1="6.277"
       x2="42.144"
       y2="32.703"
       gradientUnits="userSpaceOnUse"
       gradientTransform="matrix(1.05,0,0,1.05,-1.2000002,-1.2000002)" />
    <linearGradient
       xlink:href="#linearGradient4166"
       id="linearGradient4172"
       x1="21.523"
       y1="22.219"
       x2="13.091"
       y2="6.458"
       gradientUnits="userSpaceOnUse"
       gradientTransform="matrix(1.05,0,0,1.05,-1.2000002,-1.2000002)" />
    <linearGradient
       xlink:href="#linearGradient4174"
       id="linearGradient4180"
       x1="16.92"
       y1="29.54"
       x2="5.917"
       y2="11.505"
       gradientUnits="userSpaceOnUse"
       gradientTransform="matrix(1.05,0,0,1.05,-1.2981277,-1.2000002)" />
    <linearGradient
       xlink:href="#linearGradient4188"
       id="linearGradient4194"
       x1="21.153"
       y1="41.488"
       x2="14.308"
       y2="30.856"
       gradientUnits="userSpaceOnUse"
       gradientTransform="matrix(1.05,0,0,1.05,-1.2000002,-1.2000002)" />
    <linearGradient
       xlink:href="#linearGradient4196"
       id="linearGradient4202"
       x1="33.954"
       y1="41.037"
       x2="25.384"
       y2="31.491"
       gradientUnits="userSpaceOnUse"
       gradientTransform="matrix(1.05,0,0,1.05,-1.2000002,-1.2000002)" />
    <linearGradient
       xlink:href="#linearGradient4204"
       id="linearGradient4210"
       x1="42.56"
       y1="31.19"
       x2="29.652"
       y2="18.776"
       gradientUnits="userSpaceOnUse"
       gradientTransform="matrix(1.05,0,0,1.05,-1.2000002,-1.2000002)" />
    <linearGradient
       xlink:href="#linearGradient4212"
       id="linearGradient4218"
       x1="40.262"
       y1="16.121"
       x2="24.036"
       y2="7.317"
       gradientUnits="userSpaceOnUse"
       gradientTransform="matrix(1.05,0,0,1.05,-1.2000002,-1.2000002)" />
  </defs>
  <circle
     style="opacity:1;fill:#33393e;fill-opacity:1;stroke:none;stroke-width:2.1;stroke-linecap:round;stroke-linejoin:round;stroke-miterlimit:4;stroke-dasharray:none;stroke-opacity:0"
     cx="23.999992"
     cy="23.999992"
     r="20.474998"
     id="circle51" />
  <path
     style="fill:url(#linearGradient4218);fill-opacity:1;stroke-width:1.05"
     d="M 27.821524,3.3981459 22.814727,17.556538 42.526847,14.261699 C 39.606304,8.6904314 34.225367,4.597025 27.817376,3.3981459"
     id="path53" />
  <path
     style="fill:url(#linearGradient4210);fill-opacity:1;stroke-width:1.05"
     d="M 43.823364,17.34705 28.97709,20.119199 41.708095,35.432911 C 45.105383,30.13544 45.984236,23.459677 43.823364,17.34705"
     id="path55" />
  <path
     style="fill:url(#linearGradient4202);fill-opacity:1;stroke-width:1.05"
     d="M 39.791816,37.757044 29.952332,26.3708 22.967075,44.980393 c 6.316792,0.272756 12.576583,-2.308569 16.825775,-7.223349"
     id="path57" />
  <path
     style="fill:url(#linearGradient4194);fill-opacity:1;stroke-width:1.05"
     d="M 20.048605,44.612226 25.055402,30.45383 5.3432778,33.748673 c 2.9205445,5.571266 8.3014782,9.664669 14.7094732,10.863553"
     id="path59" />
  <path
     style="fill:url(#linearGradient4180);fill-opacity:1;stroke-width:1.05"
     d="M 4.1766331,30.642583 19.02291,27.87043 6.2919035,12.556713 C 2.8946202,17.854185 2.0157624,24.529959 4.1766331,30.642583"
     id="path61" />
  <circle
     style="fill:url(#m);stroke-width:1.05"
     cy="23.999992"
     cx="23.999992"
     r="3.1499999"
     id="circle63" />
  <path
     style="opacity:0.2;fill:url(#linearGradient4372);fill-opacity:1;stroke:none;stroke-width:2.1;stroke-linecap:round;stroke-linejoin:round;stroke-miterlimit:4;stroke-dasharray:none;stroke-opacity:0"
     d="m 24.908495,3.0451167 -4.507614,1.1976569 -6.907034,7.8483424 4.446094,9.484863 18.973828,18.973826 a 21.000001,21.000001 0 0 0 8.086232,-16.549804 21.000001,21.000001 0 0 0 -0.03692,-1.047947 L 25.064353,3.0533206 a 21.000001,21.000001 0 0 0 -0.155858,-0.00821 z"
     id="path65" />
  <path
     style="fill:url(#linearGradient4172);fill-opacity:1;stroke-width:1.05"
     d="M 8.1612196,10.242957 18.000698,21.629201 24.985962,3.019607 C 18.66917,2.7468515 12.409378,5.3281765 8.1601837,10.242957"
     id="path67" />
  <path
     style="opacity:0.15;fill:#000000;fill-opacity:1;stroke-width:1.05"
     d="m 3.0184565,23.464748 c -0.037174,2.402731 0.3291268,4.831074 1.1586917,7.17773 l 0.2645507,-0.0492 a 21.000001,21.000001 0 0 1 -1.4232424,-7.12853 z m 41.9671905,0.246094 c -0.100438,3.775284 -1.226356,7.47441 -3.277152,10.672265 l -0.06765,-0.08207 a 21.000001,21.000001 0 0 1 -0.377343,0.596779 l 0.445015,0.535259 c 2.240398,-3.49351 3.377047,-7.586735 3.277152,-11.722267 z M 5.8833982,33.65918 5.3440431,33.749435 c 2.9199432,5.570114 8.2978529,9.663159 14.7041049,10.862984 l 0.352733,-0.994631 a 21.000001,21.000001 0 0 1 -1.00078,-0.194829 c -0.506854,-0.111646 -1.00888,-0.236131 -1.501174,-0.383496 a 21.000001,21.000001 0 0 1 -0.06765,-0.01843 21.000001,21.000001 0 0 1 -0.164064,-0.05534 C 17.038502,42.769426 16.42307,42.544881 15.821484,42.29297 11.64945,40.545918 8.1639561,37.499794 5.8833982,33.65918 Z m 33.4646508,3.584762 a 21.000001,21.000001 0 0 1 -12.604107,6.500981 c -0.07299,0.0095 -0.146289,0.01739 -0.219429,0.02664 a 21.000001,21.000001 0 0 1 -2.020023,0.159963 c -0.0098,3.06e-4 -0.0205,0.0017 -0.03075,0.002 a 21.000001,21.000001 0 0 1 -0.01843,0 21.000001,21.000001 0 0 1 -0.455283,0.0164 21.000001,21.000001 0 0 1 -0.299416,-0.01434 c -0.114232,-9.42e-4 -0.228165,0.0027 -0.342476,0 l -0.391703,1.043845 c 6.316791,0.27276 12.577465,-2.308067 16.826664,-7.222848 h -0.002 z"
     id="path69" />
</svg>
