<?xml version="1.0" encoding="UTF-8" standalone="no"?>
<svg
   width="48px"
   height="48px"
   viewBox="0 0 48 48"
   version="1.1"
   id="svg4294"
   sodipodi:docname="distributor-logo-manjaro.svg"
   inkscape:version="1.2.2 (b0a8486541, 2022-12-01)"
   xmlns:inkscape="http://www.inkscape.org/namespaces/inkscape"
   xmlns:sodipodi="http://sodipodi.sourceforge.net/DTD/sodipodi-0.dtd"
   xmlns:xlink="http://www.w3.org/1999/xlink"
   xmlns="http://www.w3.org/2000/svg"
   xmlns:svg="http://www.w3.org/2000/svg">
  <defs
     id="defs4298">
    <linearGradient
       inkscape:collect="always"
       xlink:href="#linearGradient963"
       id="linearGradient965"
       x1="19.737022"
       y1="27.035355"
       x2="19.737022"
       y2="7.5547256"
       gradientUnits="userSpaceOnUse"
       gradientTransform="matrix(1.0696272,0,0,1.0651715,6.4161083,6.5764405)" />
    <linearGradient
       inkscape:collect="always"
       id="linearGradient963">
      <stop
         style="stop-color:#ffffff;stop-opacity:1;"
         offset="0"
         id="stop959" />
      <stop
         style="stop-color:#64e6c0;stop-opacity:1;"
         offset="1"
         id="stop961" />
    </linearGradient>
  </defs>
  <sodipodi:namedview
     id="namedview4296"
     pagecolor="#ffffff"
     bordercolor="#000000"
     borderopacity="0.25"
     inkscape:showpageshadow="2"
     inkscape:pageopacity="0.0"
     inkscape:pagecheckerboard="0"
     inkscape:deskcolor="#d1d1d1"
     showgrid="true"
     inkscape:zoom="6.9532167"
     inkscape:cx="22.867114"
     inkscape:cy="31.999578"
     inkscape:window-width="1920"
     inkscape:window-height="1002"
     inkscape:window-x="0"
     inkscape:window-y="0"
     inkscape:window-maximized="1"
     inkscape:current-layer="svg4294">
    <inkscape:grid
       type="xygrid"
       id="grid253" />
  </sodipodi:namedview>
  <rect
     style="fill:#1ba97f;fill-opacity:1;stroke-width:3.88082;stroke-linecap:round;stroke-linejoin:round"
     id="rect910"
     width="42"
     height="42"
     x="3"
     y="3"
     rx="20.999998"
     ry="20.999998" />
  <path
     id="rect932"
     style="fill:url(#linearGradient965);fill-opacity:1;stroke:none;stroke-width:2.13478;stroke-linecap:round;stroke-linejoin:round;stroke-miterlimit:4;stroke-dasharray:none;stroke-opacity:1"
     d="m 16.557595,13.745141 c -1.705896,0 -3.079342,1.36773 -3.079342,3.066512 0,0.02275 0.0028,0.04461 0.0033,0.06713 -4.92e-4,0.02237 -0.0033,0.04409 -0.0033,0.0666 v 15.672768 c 0,1.698788 1.373446,3.066521 3.079342,3.066521 1.705887,0 3.078796,-1.367733 3.078796,-3.066521 v -9.79401 c 0.0024,-6.1e-5 0.0039,4.2e-5 0.006,0 0.06283,-1.619702 1.372626,-2.907953 3.006386,-2.942655 -7.2e-5,-0.0014 -4.89e-4,-0.0025 -5.51e-4,-0.0035 h 1.827897 c 1.705893,0 3.079346,-1.367731 3.079346,-3.066516 0,-1.698785 -1.373453,-3.066516 -3.079346,-3.066516 z m 15.738316,0.134307 c -1.705891,10e-7 -3.079345,1.367184 -3.079345,3.065965 v 15.672755 c 0,1.698782 1.373454,3.066515 3.079345,3.066515 1.705891,0 3.078793,-1.367733 3.078793,-3.066515 V 16.945413 c 0,-1.698781 -1.372902,-3.065965 -3.078793,-3.065965 z m -7.869432,7.786564 c -1.705892,0 -3.079344,1.367725 -3.079344,3.066512 v 7.885644 c 0,1.698782 1.373452,3.066515 3.079344,3.066515 1.705894,0 3.079344,-1.367733 3.079344,-3.066515 v -7.885644 c 0,-1.698787 -1.37345,-3.066512 -3.079344,-3.066512 z" />
</svg>
