<?xml version="1.0" encoding="UTF-8" standalone="no"?>
<svg
   viewBox="0 0 48 48"
   version="1.1"
   id="svg52"
   sodipodi:docname="falkon.svg"
   inkscape:version="1.2.1 (9c6d41e410, 2022-07-14)"
   xmlns:inkscape="http://www.inkscape.org/namespaces/inkscape"
   xmlns:sodipodi="http://sodipodi.sourceforge.net/DTD/sodipodi-0.dtd"
   xmlns:xlink="http://www.w3.org/1999/xlink"
   xmlns="http://www.w3.org/2000/svg"
   xmlns:svg="http://www.w3.org/2000/svg">
  <defs
     id="defs56" />
  <sodipodi:namedview
     id="namedview54"
     pagecolor="#ffffff"
     bordercolor="#666666"
     borderopacity="1.0"
     inkscape:showpageshadow="2"
     inkscape:pageopacity="0.0"
     inkscape:pagecheckerboard="0"
     inkscape:deskcolor="#d1d1d1"
     showgrid="false"
     inkscape:zoom="4.9166667"
     inkscape:cx="24"
     inkscape:cy="24.20339"
     inkscape:window-width="1920"
     inkscape:window-height="1011"
     inkscape:window-x="0"
     inkscape:window-y="0"
     inkscape:window-maximized="1"
     inkscape:current-layer="svg52" />
  <linearGradient
     id="s"
     x1="24"
     x2="44"
     y1="24"
     y2="44"
     gradientUnits="userSpaceOnUse"
     gradientTransform="matrix(1.0359166,0,0,1.0500848,-1.140651,-1.2023181)">
    <stop
       stop-color="#292c2f"
       offset="0"
       id="stop2" />
    <stop
       stop-opacity="0"
       offset="1"
       id="stop4" />
  </linearGradient>
  <linearGradient
     id="t"
     x1="189.344"
     x2="-27.88"
     y1="-34.773"
     y2="126.119"
     gradientTransform="matrix(0.32849951,0,0,0.32857155,3.2847847,3.2678928)"
     gradientUnits="userSpaceOnUse">
    <stop
       stop-color="#d446ff"
       offset="0"
       id="stop7" />
    <stop
       stop-color="#a0d8ff"
       offset="1"
       id="stop9" />
  </linearGradient>
  <linearGradient
     id="l">
    <stop
       stop-color="#fff"
       offset="0"
       id="stop12" />
    <stop
       stop-color="#dadada"
       offset="1"
       id="stop14" />
  </linearGradient>
  <linearGradient
     id="r"
     x1="49.298"
     x2="95.398"
     y1="81.098"
     y2="56.09"
     gradientTransform="matrix(0.37868,0,0,0.26203,4.272,4.257)"
     gradientUnits="userSpaceOnUse"
     xlink:href="#l" />
  <linearGradient
     id="q"
     x1="61.021"
     x2="27.009"
     y1="119.444"
     y2="77.338"
     gradientTransform="matrix(0.35013,0,0,0.2834,4.272,4.257)"
     gradientUnits="userSpaceOnUse"
     xlink:href="#l" />
  <linearGradient
     id="p"
     x1="87.486"
     x2="39.143"
     y1="37.283"
     y2="58.524"
     gradientTransform="matrix(0.42584,0,0,0.23301,4.272,4.257)"
     gradientUnits="userSpaceOnUse">
    <stop
       stop-color="#d0d0d0"
       offset="0"
       id="stop19" />
    <stop
       stop-color="#fff"
       offset="1"
       id="stop21" />
  </linearGradient>
  <linearGradient
     id="k">
    <stop
       stop-color="#ffdc68"
       offset="0"
       id="stop24" />
    <stop
       stop-color="#ce4300"
       offset="1"
       id="stop26" />
  </linearGradient>
  <linearGradient
     id="o"
     x1="39.132"
     x2="-14.568"
     y1="94.824"
     y2="160.96"
     gradientTransform="matrix(0.36573,0,0,0.2713,4.272,4.257)"
     gradientUnits="userSpaceOnUse"
     xlink:href="#k" />
  <linearGradient
     id="n"
     x1="24.439"
     x2="12.066"
     y1="54.424"
     y2="58.197"
     gradientTransform="matrix(0.67462,0,0,0.14709,4.272,4.257)"
     gradientUnits="userSpaceOnUse"
     xlink:href="#k" />
  <linearGradient
     id="m"
     x1="32.174"
     x2="-13.135"
     y1="91.75"
     y2="161.326"
     gradientTransform="matrix(0.47125,0,0,0.21056,4.272,4.257)"
     gradientUnits="userSpaceOnUse"
     xlink:href="#k" />
  <ellipse
     cx="24"
     cy="23.999714"
     rx="20.709009"
     ry="20.708723"
     fill="url(#t)"
     stroke="#a3a3a3"
     stroke-width="0.58198"
     id="ellipse32"
     style="fill:url(#t)" />
  <path
     d="m 39.763545,19.259633 -18.11403,-7.860934 -9.090169,0.508241 4.946502,4.998404 -8.7690353,11.739947 1.6336423,1.654933 1.955811,3.150255 -0.483776,7.288631 a 20.718329,21.001695 0 0 0 0.825628,0.574402 l 24.554328,-1.407112 0.004,0.004 c 4.659553,-3.872714 7.389189,-9.591477 7.469989,-15.650465 z"
     fill="url(#s)"
     opacity="0.4"
     id="path34"
     style="fill:url(#s);stroke-width:1.04297" />
  <g
     fill-rule="evenodd"
     stroke-width="3.16"
     id="g50"
     transform="matrix(1.0359166,0,0,1.0500848,-1.140651,-1.2023181)">
    <path
       d="m 11.262,43.28 c 0,0 6.247,-21.963 30.565,-19.17 0,0 -15.455,-9.218 -30.458,3.209 -4.432,10.312 -0.107,15.96 -0.107,15.96 z"
       fill="url(#r)"
       id="path36"
       style="fill:url(#r)" />
    <path
       d="m 13.122,40.502 c 0,0 6.518,-15.79 23.918,-16.067 -13.226,3.237 0.022,14.714 0.022,14.714 0,0 -10.462,9.523 -23.94,1.353 z"
       fill="url(#q)"
       id="path38"
       style="fill:url(#q)" />
    <path
       d="m 9.492,28.398 c 0,0 13.02,-14.388 32.463,-4.447 -0.348,-2.704 -2.648,-5.756 -6.77,-6.628 -0.912,-0.436 -7.595,-10.813 -21.96,-4.84 4.419,0.346 6.315,0.968 6.423,1.44 -7.643,-1.32 -9.908,9.606 -10.156,14.475 z"
       fill="url(#p)"
       id="path40"
       style="fill:url(#p)" />
    <path
       d="m 28.165,16.192 c 0,0 3.331,-1.198 3.765,2.367 -3.285,0.31 -3.765,-2.367 -3.765,-2.367 z"
       fill="#202020"
       id="path42" />
    <path
       d="m 11.175,43.35 c 0,0 5.694,-18.662 24.734,-19.385 0,0 -15.45,-2.832 -26.362,14.534 -0.06,2.457 1.628,4.852 1.628,4.852 z"
       fill="url(#o)"
       id="path44"
       style="fill:url(#o)" />
    <path
       d="m 13.24,12.485 c 0,0 4.75,0.278 6.445,1.45 0.708,-0.147 1.31,-0.634 1.411,-1.297 -0.607,-0.253 -6.167,-0.707 -7.855,-0.153 z"
       fill="url(#n)"
       id="path46"
       style="fill:url(#n)" />
    <path
       d="m 9.535,28.423 c 0,0 5.946,-7.175 17.948,-8.032 0,0 -16.34,0.742 -17.71,5.377 -0.382,1.115 -0.238,2.655 -0.238,2.655 z"
       fill="url(#m)"
       id="path48"
       style="fill:url(#m)" />
  </g>
</svg>
