<?xml version="1.0" encoding="UTF-8" standalone="no"?>
<svg
   width="48"
   height="48"
   version="1.1"
   id="svg48"
   sodipodi:docname="ffmulticonverter.svg"
   inkscape:version="1.2.1 (9c6d41e410, 2022-07-14)"
   xmlns:inkscape="http://www.inkscape.org/namespaces/inkscape"
   xmlns:sodipodi="http://sodipodi.sourceforge.net/DTD/sodipodi-0.dtd"
   xmlns:xlink="http://www.w3.org/1999/xlink"
   xmlns="http://www.w3.org/2000/svg"
   xmlns:svg="http://www.w3.org/2000/svg">
  <sodipodi:namedview
     id="namedview50"
     pagecolor="#ffffff"
     bordercolor="#666666"
     borderopacity="1.0"
     inkscape:showpageshadow="2"
     inkscape:pageopacity="0.0"
     inkscape:pagecheckerboard="0"
     inkscape:deskcolor="#d1d1d1"
     showgrid="false"
     inkscape:zoom="4.9166667"
     inkscape:cx="24"
     inkscape:cy="24"
     inkscape:window-width="1920"
     inkscape:window-height="1011"
     inkscape:window-x="0"
     inkscape:window-y="0"
     inkscape:window-maximized="1"
     inkscape:current-layer="svg48" />
  <defs
     id="defs32">
    <linearGradient
       id="linearGradient4199">
      <stop
         style="stop-color:#000000;stop-opacity:1;"
         offset="0"
         id="stop2" />
      <stop
         style="stop-color:#000000;stop-opacity:0"
         offset="1"
         id="stop4" />
    </linearGradient>
    <linearGradient
       id="linearGradient4184">
      <stop
         style="stop-color:#000000;stop-opacity:1;"
         offset="0"
         id="stop7" />
      <stop
         style="stop-color:#000000;stop-opacity:0;"
         offset="1"
         id="stop9" />
    </linearGradient>
    <linearGradient
       id="linearGradient4169">
      <stop
         style="stop-color:#c81c1c;stop-opacity:1"
         offset="0"
         id="stop12" />
      <stop
         style="stop-color:#ee6d6d;stop-opacity:1"
         offset="1"
         id="stop14" />
    </linearGradient>
    <linearGradient
       id="linearGradient4161">
      <stop
         style="stop-color:#37e737;stop-opacity:1"
         offset="0"
         id="stop17" />
      <stop
         style="stop-color:#83f383;stop-opacity:1"
         offset="1"
         id="stop19" />
    </linearGradient>
    <linearGradient
       id="linearGradient3764"
       x1="1"
       x2="47"
       gradientUnits="userSpaceOnUse"
       gradientTransform="matrix(0,-1,1,0,-1.5e-6,47.999998)">
      <stop
         style="stop-color:#3d3d3d;stop-opacity:1"
         id="stop22" />
      <stop
         offset="1"
         style="stop-color:#6f6f6f;stop-opacity:1"
         id="stop24" />
    </linearGradient>
    <linearGradient
       xlink:href="#linearGradient3764"
       id="linearGradient4178"
       x1="412.88"
       y1="543.798"
       x2="401.325"
       y2="503.798"
       gradientUnits="userSpaceOnUse"
       gradientTransform="translate(0,-0.06176652)" />
    <linearGradient
       xlink:href="#linearGradient4161"
       id="linearGradient4167"
       x1="16.351"
       y1="33.59"
       x2="13.534"
       y2="8.515"
       gradientUnits="userSpaceOnUse" />
    <linearGradient
       xlink:href="#linearGradient4169"
       id="linearGradient4175"
       x1="34.038"
       y1="36.018"
       x2="29.516"
       y2="12.147"
       gradientUnits="userSpaceOnUse" />
    <linearGradient
       xlink:href="#linearGradient4184"
       id="linearGradient4190"
       x1="25"
       y1="23"
       x2="39"
       y2="37"
       gradientUnits="userSpaceOnUse" />
    <linearGradient
       xlink:href="#linearGradient4199"
       id="linearGradient4205"
       x1="10.523"
       y1="16.232"
       x2="17.889"
       y2="19.736"
       gradientUnits="userSpaceOnUse" />
  </defs>
  <g
     transform="matrix(1.0486139,0,0,1.0482575,-404.50183,-525.08067)"
     id="g46">
    <rect
       style="fill:url(#linearGradient4178);fill-opacity:1;stroke-width:2.8;stroke-opacity:0.550265"
       height="40"
       rx="20"
       y="503.76999"
       x="388.60999"
       width="40"
       id="rect34" />
    <path
       d="m 388.67456,523.33648 c -0.004,0.16686 -0.0117,0.33212 -0.0117,0.5 0,11.07999 8.92001,20 20,20 11.07999,0 20,-8.92001 20,-20 0,-0.16788 -0.008,-0.33315 -0.0117,-0.5 -0.26418,10.84657 -9.07584,19.5 -19.98828,19.5 -10.91244,0 -19.7241,-8.65343 -19.98828,-19.5 z"
       style="opacity:0.15;fill:#000000;fill-opacity:1;stroke-width:2.8;stroke-opacity:0.550265"
       id="path36" />
    <path
       style="opacity:0.2;fill:url(#linearGradient4190);fill-opacity:1;stroke:none;stroke-width:4;stroke-linecap:round;stroke-linejoin:round;stroke-miterlimit:4;stroke-dasharray:none;stroke-opacity:1"
       d="m 31.423828,13.564453 2.138672,2.861328 1.84375,4.419922 -1.478516,4.314453 -2.378906,-1.404297 -6.498047,-0.230468 5.591797,5.591797 -5.355469,3.986328 -3.583984,3.148437 7.126953,7.126953 c 8.089244,-1.979807 14.224189,-8.832547 15.097656,-17.310547 z"
       transform="translate(384.57143,499.798)"
       id="path38" />
    <path
       style="fill:url(#linearGradient4175);fill-opacity:1;fill-rule:nonzero;stroke:none"
       d="m 30.617188,12.886719 c 5.95,7.599 5.382593,10.538906 -5.566407,10.628906 C 38.413781,25.671625 26.805,30.977 21,32 l 0.691406,4.28125 C 32.84349,34.102936 44.637187,24.698719 30.617188,12.886719 Z"
       transform="translate(384.57143,499.798)"
       id="path40" />
    <path
       transform="translate(384.57143,499.798)"
       d="M 25,10 C 16.195,12.281 1.7866287,21.893314 16,34 10,26 11.051,23.094 22,23 8.6370003,20.848 20.199,15.023 26,14 Z"
       style="opacity:0.15;fill:none;fill-opacity:1;fill-rule:nonzero;stroke:url(#linearGradient4205);stroke-width:2;stroke-linejoin:round;stroke-miterlimit:4;stroke-dasharray:none;stroke-opacity:1"
       id="path42" />
    <path
       style="fill:url(#linearGradient4167);fill-opacity:1;fill-rule:nonzero;stroke:none"
       d="M 25,10 C 16.195,12.281 1.7866287,21.893314 16,34 10,26 11.051,23.094 22,23 8.6370003,20.848 20.199,15.023 26,14 Z"
       transform="translate(384.57143,499.798)"
       id="path44" />
  </g>
</svg>
