<?xml version="1.0" encoding="UTF-8" standalone="no"?>
<svg
   width="48"
   height="48"
   version="1.1"
   viewBox="0 0 48 48"
   id="svg40"
   sodipodi:docname="fifteenpuzzle.svg"
   inkscape:version="1.3.2 (091e20ef0f, 2023-11-25)"
   xmlns:inkscape="http://www.inkscape.org/namespaces/inkscape"
   xmlns:sodipodi="http://sodipodi.sourceforge.net/DTD/sodipodi-0.dtd"
   xmlns="http://www.w3.org/2000/svg"
   xmlns:svg="http://www.w3.org/2000/svg">
  <sodipodi:namedview
     id="namedview42"
     pagecolor="#ffffff"
     bordercolor="#666666"
     borderopacity="1.0"
     inkscape:showpageshadow="2"
     inkscape:pageopacity="0.0"
     inkscape:pagecheckerboard="0"
     inkscape:deskcolor="#d1d1d1"
     showgrid="false"
     inkscape:zoom="3.6875"
     inkscape:cx="32"
     inkscape:cy="32.135593"
     inkscape:window-width="1920"
     inkscape:window-height="994"
     inkscape:window-x="0"
     inkscape:window-y="0"
     inkscape:window-maximized="1"
     inkscape:current-layer="svg40" />
  <defs
     id="defs20">
    <linearGradient
       id="linearGradient1978"
       x1="-59.235001"
       x2="-59.235001"
       y1="0.70410001"
       y2="-11.929"
       gradientTransform="matrix(2.8862356,0,0,2.8862362,194.46532,42.90783)"
       gradientUnits="userSpaceOnUse">
      <stop
         stop-color="#0fd3cd"
         offset="0"
         id="stop2" />
      <stop
         stop-color="#52ffb9"
         offset="1"
         id="stop4" />
    </linearGradient>
    <linearGradient
       id="linearGradient1988"
       x1="-59.235001"
       x2="-59.235001"
       y1="0.70410001"
       y2="-11.929"
       gradientTransform="matrix(2.4166181,0,0,2.4166186,166.70887,39.830849)"
       gradientUnits="userSpaceOnUse">
      <stop
         stop-color="#00a0a2"
         offset="0"
         id="stop7" />
      <stop
         stop-color="#2fde8b"
         offset="1"
         id="stop9" />
    </linearGradient>
    <filter
       id="filter1877"
       x="-0.027478284"
       y="-0.021303294"
       width="1.0549566"
       height="1.0426066"
       color-interpolation-filters="sRGB">
      <feGaussianBlur
         stdDeviation="0.072702461"
         id="feGaussianBlur12" />
    </filter>
    <linearGradient
       id="k"
       x1="430.56"
       x2="433.31"
       y1="536.57001"
       y2="524.16998"
       gradientTransform="matrix(1.3951511,0,0,1.3951514,-578.18826,-716.37433)"
       gradientUnits="userSpaceOnUse">
      <stop
         stop-color="#c4e7f9"
         offset="0"
         id="stop15" />
      <stop
         stop-color="#edfafd"
         offset="1"
         id="stop17" />
    </linearGradient>
  </defs>
  <path
     d="m 44.999569,23.999791 c 0,2.517473 -0.443096,4.93114 -1.25573,7.16838 -0.564877,1.554808 -1.307993,3.024864 -2.206321,4.384522 -0.376279,0.571651 -0.780833,1.123746 -1.21028,1.654288 -1.374835,1.697984 -3.008752,3.176475 -4.842778,4.376582 -0.675423,0.442289 -1.377454,0.846885 -2.104257,1.209405 C 30.557728,44.205466 27.371728,45 23.999733,45 20.627738,45 17.44174,44.205466 14.619265,42.792913 13.892402,42.430311 13.189533,42.025759 12.514103,41.583509 10.656663,40.367218 9.0032086,38.865279 7.61737,37.139195 7.1871197,36.604337 6.7833545,36.0472 6.4070755,35.470371 5.5327663,34.133268 4.8085215,32.690503 4.2548471,31.165752 3.4423412,28.929426 3,26.516657 3,24.000029 3,12.401901 12.401898,3 24.000024,3 c 5.821959,0 11.089882,2.369127 14.893929,6.1952634 1.096256,1.1022156 2.070863,2.3263186 2.900259,3.6495346 0.784306,1.246302 1.439976,2.581686 1.949964,3.986599 0.812716,2.237158 1.255788,4.650947 1.255788,7.168367 z"
     fill="url(#linearGradient1978)"
     stroke-width="0.0820325"
     id="path22"
     style="fill:url(#linearGradient1978)" />
  <path
     d="m 41.560109,24.000056 c 0,2.10786 -0.371024,4.128678 -1.05142,6.001853 -0.472975,1.301843 -1.095142,2.532628 -1.847309,3.670974 -0.315042,0.478633 -0.653778,0.940907 -1.013354,1.385117 -1.151116,1.421732 -2.519099,2.659773 -4.054861,3.664626 -0.565539,0.370321 -1.153341,0.709085 -1.76187,1.012599 -2.363194,1.182673 -5.030888,1.847947 -7.854421,1.847947 -2.823269,0 -5.490967,-0.665274 -7.854406,-1.847974 -0.6086,-0.303597 -1.197091,-0.642333 -1.762617,-1.012599 C 12.804632,37.704217 11.42017,36.446732 10.260014,35.001372 9.8997695,34.553549 9.5617244,34.08703 9.246642,33.604065 8.5146207,32.484525 7.908217,31.276574 7.4446032,30.000037 6.7643308,28.127568 6.3939272,26.107361 6.3939272,24.000293 c 0,-9.710921 7.8721318,-17.5830567 17.5830528,-17.5830567 4.874518,0 9.285222,1.9836444 12.470693,5.1872377 0.917878,0.922888 1.733933,1.947767 2.428451,3.055829 0.656683,1.043507 1.205653,2.161623 1.632675,3.337866 0.680461,1.873131 1.051447,3.893999 1.051447,6.00186 z"
     fill="url(#linearGradient1988)"
     stroke-width="0.0686833"
     id="path24"
     style="fill:url(#linearGradient1988)" />
  <text
     x="10.645632"
     y="42.770206"
     transform="scale(1.153457,0.86695907)"
     style="font-style:normal;font-weight:normal;font-size:40.4836px;font-family:'Bitstream Vera Sans';fill:#ffffff;fill-opacity:1;stroke:none;stroke-width:0.667088px;stroke-linecap:butt;stroke-linejoin:miter;stroke-opacity:1"
     id="text2254"
     xml:space="preserve"><tspan
       x="10.645632"
       y="42.770206"
       id="tspan2256"
       style="stroke-width:0.667088px">?</tspan></text>
</svg>
