<?xml version="1.0" encoding="UTF-8" standalone="no"?>
<svg
   viewBox="0 0 48 48"
   version="1.1"
   id="svg243"
   sodipodi:docname="flatpak-discover.svg"
   width="48"
   height="48"
   inkscape:version="1.2.2 (b0a8486541, 2022-12-01)"
   xmlns:inkscape="http://www.inkscape.org/namespaces/inkscape"
   xmlns:sodipodi="http://sodipodi.sourceforge.net/DTD/sodipodi-0.dtd"
   xmlns="http://www.w3.org/2000/svg"
   xmlns:svg="http://www.w3.org/2000/svg">
  <defs
     id="defs247" />
  <sodipodi:namedview
     id="namedview245"
     pagecolor="#ffffff"
     bordercolor="#666666"
     borderopacity="1.0"
     inkscape:showpageshadow="2"
     inkscape:pageopacity="0.0"
     inkscape:pagecheckerboard="0"
     inkscape:deskcolor="#d1d1d1"
     showgrid="true"
     inkscape:zoom="3.6875"
     inkscape:cx="9.6271186"
     inkscape:cy="42.711864"
     inkscape:window-width="1920"
     inkscape:window-height="1002"
     inkscape:window-x="0"
     inkscape:window-y="0"
     inkscape:window-maximized="1"
     inkscape:current-layer="svg243">
    <inkscape:grid
       type="xygrid"
       id="grid990" />
  </sodipodi:namedview>
  <style
     type="text/css"
     id="current-color-scheme">
        .ColorScheme-Text {
            color:#232629;
        }
    </style>
  <g
     transform="matrix(3.0527692,0,0,3.0527692,-1.8477968,-856.81549)"
     stroke-width="0.92729"
     id="g221">
    <circle
       cx="8.467"
       cy="288.53"
       r="6.8790002"
       fill="#225a84"
       style="paint-order:stroke markers fill"
       id="circle219" />
  </g>
  <path
     style="opacity:0.2;stroke-width:0.598223"
     d="m 9.0065128,17.572546 c -0.00264,0.0635 -0.00528,0.127136 -0.00558,0.190814 v 12.987526 c 3.941e-4,1.356536 0.7256258,2.609868 1.9026032,3.28803 l 11.194291,6.452101 c 1.177313,0.678644 2.627905,0.678644 3.805212,0 l 11.194313,-6.452101 c 1.177481,-0.678451 1.902792,-1.93253 1.902604,-3.289656 v -12.9859 c -0.0012,-0.04777 -0.0049,-0.0957 -0.008,-0.143519 0.008,-0.0012 -29.9842496,-0.04743 -29.9842496,-0.04743 z"
     id="path779" />
  <path
     style="fill:#e4ba75;stroke-width:0.598223"
     d="m 9.0065128,16.976069 c -0.00264,0.06355 -0.00528,0.127129 -0.00558,0.190829 v 12.987527 c 3.941e-4,1.356535 0.7256258,2.60986 1.9026032,3.288028 l 11.194246,6.452095 c 1.177312,0.678636 2.627904,0.678636 3.805211,0 L 37.097357,33.442453 C 38.274883,32.763986 39.000193,31.509918 39,30.15278 V 17.166898 c -0.0012,-0.04777 -0.0049,-0.09571 -0.008,-0.14352 C 39,17.022178 9.007759,16.975959 9.007759,16.975959 Z"
     id="path781" />
  <path
     style="fill:#b89863;stroke-width:0.598223"
     d="m 24.089052,7.0012142 v 0.0012 A 3.8074846,3.8429473 0 0 0 22.09541,7.5140271 L 10.892646,14.04294 a 3.8074846,3.8429473 0 0 0 -1.892643,3.081245 3.8074846,3.8429473 0 0 0 1.892643,3.112623 l 11.202764,6.528888 a 3.8074846,3.8429473 0 0 0 3.808098,0 L 37.106287,20.236977 A 3.8074846,3.8429473 0 0 0 38.99893,17.155734 3.8074846,3.8429473 0 0 0 37.106287,14.043113 L 25.903508,7.5141468 A 3.8074846,3.8429473 0 0 0 24.089052,7.0009074 Z"
     id="path783" />
  <path
     style="opacity:0.07;stroke-width:0.598223"
     d="m 24.088522,7.0012142 v 0.0013 a 3.8074846,3.8429473 0 0 0 -0.08907,0.0013 V 27.270142 a 3.8074846,3.8429473 0 0 0 1.903059,-0.505597 L 37.10523,20.23599 a 3.8074846,3.8429473 0 0 0 1.893675,-3.081296 3.8074846,3.8429473 0 0 0 -1.893678,-3.112817 L 25.902512,7.51366 A 3.8074846,3.8429473 0 0 0 24.088506,7 Z"
     id="path785" />
  <path
     style="opacity:0.1;fill:#ffffff;stroke-width:0.598223"
     d="m 24.088522,7.0012142 v 0.0013 A 3.8074846,3.8429473 0 0 0 22.09641,7.512804 l -11.202728,6.52855 a 3.8074846,3.8429473 0 0 0 -1.893679,3.082539 3.8074846,3.8429473 0 0 0 0.032833,0.284255 3.8074846,3.8429473 0 0 1 1.860877,-2.77032 L 22.096424,8.1092292 a 3.8074846,3.8429473 0 0 1 1.992105,-0.5102459 v -0.0013 a 3.8074846,3.8429473 0 0 1 1.814005,0.5125933 l 11.202715,6.5285274 a 3.8074846,3.8429473 0 0 1 1.860875,2.797124 3.8074846,3.8429473 0 0 0 0.03281,-0.28077 3.8074846,3.8429473 0 0 0 -1.893674,-3.112834 L 25.902583,7.5138098 A 3.8074846,3.8429473 0 0 0 24.088571,7.0012212 Z"
     id="path787" />
  <path
     style="opacity:0.1;stroke-width:0.598223"
     d="m 9.0070451,16.975786 c -0.0012,0.04179 -0.00234,0.08386 -0.00496,0.125818 a 3.8074846,3.8429473 0 0 1 0.012538,-0.125818 c -9.9e-6,0 -0.00789,0 -0.00789,0 z m -0.00518,0.159596 c -1.808e-4,0.01051 -0.0012,0.02094 -0.0012,0.0314 V 30.154 c 3.917e-4,1.35653 0.7260724,2.610578 1.9030659,3.288733 l 11.193326,6.451647 c 0.605765,0.349185 1.227049,0.519252 1.903075,0.509102 V 27.277649 A 3.8074846,3.8429473 0 0 1 22.095735,26.766215 L 10.893055,20.237673 A 3.8074846,3.8429473 0 0 1 9.0017991,17.135326 Z"
     id="path789" />
  <path
     style="opacity:0.1;stroke-width:0.598223"
     d="M 9.0328226,16.844134 A 3.8074846,3.8429473 0 0 0 9,17.124899 a 3.8074846,3.8429473 0 0 0 1.893674,3.112834 l 11.202732,6.528546 a 3.8074846,3.8429473 0 0 0 3.806108,0 l 11.202725,-6.528546 a 3.8074846,3.8429473 0 0 0 1.893679,-3.082548 3.8074846,3.8429473 0 0 0 -0.0328,-0.284251 3.8074846,3.8429473 0 0 1 -1.860869,2.77032 L 25.90252,26.169802 a 3.8074846,3.8429473 0 0 1 -3.806106,0 L 10.893673,19.641254 A 3.8074846,3.8429473 0 0 1 9.0328144,16.844133 Z"
     id="path791" />
</svg>
