<?xml version="1.0" encoding="UTF-8" standalone="no"?>
<svg
   version="1.1"
   x="0"
   y="0"
   viewBox="0 0 48 48"
   xml:space="preserve"
   width="48"
   height="48"
   id="svg434"
   sodipodi:docname="freemind.svg"
   inkscape:version="1.2.1 (9c6d41e410, 2022-07-14)"
   xmlns:inkscape="http://www.inkscape.org/namespaces/inkscape"
   xmlns:sodipodi="http://sodipodi.sourceforge.net/DTD/sodipodi-0.dtd"
   xmlns:xlink="http://www.w3.org/1999/xlink"
   xmlns="http://www.w3.org/2000/svg"
   xmlns:svg="http://www.w3.org/2000/svg"><sodipodi:namedview
   id="namedview436"
   pagecolor="#ffffff"
   bordercolor="#666666"
   borderopacity="1.0"
   inkscape:showpageshadow="2"
   inkscape:pageopacity="0.0"
   inkscape:pagecheckerboard="0"
   inkscape:deskcolor="#d1d1d1"
   showgrid="false"
   inkscape:zoom="4.9166667"
   inkscape:cx="24"
   inkscape:cy="24"
   inkscape:window-width="1920"
   inkscape:window-height="1009"
   inkscape:window-x="0"
   inkscape:window-y="0"
   inkscape:window-maximized="1"
   inkscape:current-layer="svg434" />
 <defs
   id="defs380">
  <linearGradient
   id="linearGradient4513">
   <stop
   style="stop-color:#000000;stop-opacity:1;"
   offset="0"
   id="stop353" />
   <stop
   style="stop-color:#000000;stop-opacity:0;"
   offset="1"
   id="stop355" />
  </linearGradient>
  <linearGradient
   id="linearGradient4325">
   <stop
   offset="0"
   style="stop-color:#2a2c2f;stop-opacity:1"
   id="stop358" />
   <stop
   offset="1"
   style="stop-color:#424649;stop-opacity:1"
   id="stop360" />
  </linearGradient>
  <linearGradient
   id="linearGradient4308">
   <stop
   style="stop-color:#884d2c;stop-opacity:1"
   offset="0"
   id="stop363" />
   <stop
   style="stop-color:#ffc169;stop-opacity:1"
   offset="1"
   id="stop365" />
  </linearGradient>
  <linearGradient
   xlink:href="#linearGradient4308"
   id="linearGradient4314"
   x1="24.065"
   y1="41.806"
   x2="24.065"
   y2="5.466"
   gradientUnits="userSpaceOnUse"
   gradientTransform="matrix(0.77221844,0,0,0.77221844,-55.216398,-14.76102)" />
  <linearGradient
   xlink:href="#linearGradient4325"
   id="linearGradient4323"
   x1="24.015"
   y1="31.94"
   x2="23.63"
   y2="19.969"
   gradientUnits="userSpaceOnUse"
   gradientTransform="matrix(0.77221844,0,0,0.77221844,-55.216398,-14.76102)" />
  <linearGradient
   xlink:href="#linearGradient4513"
   id="linearGradient4519"
   x1="8.371"
   y1="9.37"
   x2="21.722"
   y2="22.721"
   gradientUnits="userSpaceOnUse"
   gradientTransform="matrix(0.77221844,0,0,0.77221844,-55.216398,-14.76102)" />
  <linearGradient
   xlink:href="#linearGradient4513"
   id="linearGradient4521"
   x1="11.377"
   y1="13.89"
   x2="21.886"
   y2="24.399"
   gradientUnits="userSpaceOnUse"
   gradientTransform="matrix(0.77221844,0,0,0.77221844,-55.216398,-14.76102)" />
  <linearGradient
   xlink:href="#linearGradient4513"
   id="linearGradient4523"
   x1="8.664"
   y1="19.421"
   x2="21.623"
   y2="32.38"
   gradientUnits="userSpaceOnUse"
   gradientTransform="matrix(0.77221844,0,0,0.77221844,-55.216398,-14.76102)" />
  <linearGradient
   xlink:href="#linearGradient4513"
   id="linearGradient4525"
   x1="10.576"
   y1="30.595"
   x2="19.144"
   y2="39.163"
   gradientUnits="userSpaceOnUse"
   gradientTransform="matrix(0.77221844,0,0,0.77221844,-55.216398,-14.76102)" />
  <linearGradient
   xlink:href="#linearGradient4513"
   id="linearGradient4527"
   x1="12.658"
   y1="36.549"
   x2="17.235"
   y2="41.126"
   gradientUnits="userSpaceOnUse"
   gradientTransform="matrix(0.77221844,0,0,0.77221844,-55.216398,-14.76102)" />
  <linearGradient
   xlink:href="#linearGradient4513"
   id="linearGradient4535"
   x1="32.742"
   y1="36.406"
   x2="37.389"
   y2="41.053"
   gradientUnits="userSpaceOnUse"
   gradientTransform="matrix(0.77221844,0,0,0.77221844,-55.216398,-14.76102)" />
  <linearGradient
   xlink:href="#linearGradient4513"
   id="linearGradient4537"
   x1="35.752"
   y1="30.354"
   x2="40.572"
   y2="35.174"
   gradientUnits="userSpaceOnUse"
   gradientTransform="matrix(0.77221844,0,0,0.77221844,-55.216398,-14.76102)" />
  <linearGradient
   xlink:href="#linearGradient4513"
   id="linearGradient4539"
   x1="36.58"
   y1="19.541"
   x2="41.485"
   y2="24.446"
   gradientUnits="userSpaceOnUse"
   gradientTransform="matrix(0.77221844,0,0,0.77221844,-55.216398,-14.76102)" />
  <linearGradient
   xlink:href="#linearGradient4513"
   id="linearGradient4541"
   x1="34.643"
   y1="14.02"
   x2="42.643"
   y2="22.021"
   gradientUnits="userSpaceOnUse"
   gradientTransform="matrix(0.77221844,0,0,0.77221844,-55.216398,-14.76102)" />
  <linearGradient
   xlink:href="#linearGradient4513"
   id="linearGradient4543"
   x1="38.246"
   y1="9.42"
   x2="41.225"
   y2="12.399"
   gradientUnits="userSpaceOnUse"
   gradientTransform="matrix(0.77221844,0,0,0.77221844,-55.216398,-14.76102)" />
 <linearGradient
   xlink:href="#linearGradient4763"
   id="linearGradient4151"
   gradientUnits="userSpaceOnUse"
   x1="4.0000024"
   y1="43.999989"
   x2="43.999992"
   y2="3.9999998"
   gradientTransform="matrix(1.0499999,0,0,1.0499999,-1.1999925,-1.1999905)" /><linearGradient
   id="linearGradient4763"><stop
     style="stop-color:#f2f2f2;stop-opacity:1"
     offset="0"
     id="stop267" /><stop
     style="stop-color:#cccccc;stop-opacity:1"
     offset="1"
     id="stop269" /></linearGradient><linearGradient
   id="shadow-3"><stop
     style="stop-color:#31363b;stop-opacity:0.208"
     offset="0"
     id="stop210" /><stop
     style="stop-color:#31363b;stop-opacity:0;"
     offset="1"
     id="stop212" /></linearGradient><linearGradient
   id="darker-shadow-6"><stop
     offset="0"
     style="stop-color:#31363b;stop-opacity:0.404"
     id="stop205" /><stop
     offset="1"
     style="stop-color:#31363b;stop-opacity:0;"
     id="stop207" /></linearGradient><linearGradient
   inkscape:collect="always"
   xlink:href="#linearGradient4308"
   id="linearGradient1797"
   gradientUnits="userSpaceOnUse"
   gradientTransform="matrix(0.77221844,0,0,0.77221844,5.7226015,5.8388573)"
   x1="24.065"
   y1="41.806"
   x2="24.065"
   y2="5.466" /><linearGradient
   inkscape:collect="always"
   xlink:href="#linearGradient4513"
   id="linearGradient1799"
   gradientUnits="userSpaceOnUse"
   gradientTransform="matrix(0.77221844,0,0,0.77221844,5.7226015,5.8388573)"
   x1="32.742"
   y1="36.406"
   x2="37.389"
   y2="41.053" /><linearGradient
   inkscape:collect="always"
   xlink:href="#linearGradient4513"
   id="linearGradient1801"
   gradientUnits="userSpaceOnUse"
   gradientTransform="matrix(0.77221844,0,0,0.77221844,5.7226015,5.8388573)"
   x1="36.58"
   y1="19.541"
   x2="41.485"
   y2="24.446" /><linearGradient
   inkscape:collect="always"
   xlink:href="#linearGradient4513"
   id="linearGradient1803"
   gradientUnits="userSpaceOnUse"
   gradientTransform="matrix(0.77221844,0,0,0.77221844,5.7226015,5.8388573)"
   x1="8.371"
   y1="9.37"
   x2="21.722"
   y2="22.721" /><linearGradient
   inkscape:collect="always"
   xlink:href="#linearGradient4513"
   id="linearGradient1805"
   gradientUnits="userSpaceOnUse"
   gradientTransform="matrix(0.77221844,0,0,0.77221844,5.7226015,5.8388573)"
   x1="12.658"
   y1="36.549"
   x2="17.235"
   y2="41.126" /><linearGradient
   inkscape:collect="always"
   xlink:href="#linearGradient4513"
   id="linearGradient1807"
   gradientUnits="userSpaceOnUse"
   gradientTransform="matrix(0.77221844,0,0,0.77221844,5.7226015,5.8388573)"
   x1="8.664"
   y1="19.421"
   x2="21.623"
   y2="32.38" /><linearGradient
   inkscape:collect="always"
   xlink:href="#linearGradient4513"
   id="linearGradient1809"
   gradientUnits="userSpaceOnUse"
   gradientTransform="matrix(0.77221844,0,0,0.77221844,5.7226015,5.8388573)"
   x1="10.576"
   y1="30.595"
   x2="19.144"
   y2="39.163" /><linearGradient
   inkscape:collect="always"
   xlink:href="#linearGradient4513"
   id="linearGradient1811"
   gradientUnits="userSpaceOnUse"
   gradientTransform="matrix(0.77221844,0,0,0.77221844,5.7226015,5.8388573)"
   x1="11.377"
   y1="13.89"
   x2="21.886"
   y2="24.399" /><linearGradient
   inkscape:collect="always"
   xlink:href="#linearGradient4513"
   id="linearGradient1813"
   gradientUnits="userSpaceOnUse"
   gradientTransform="matrix(0.77221844,0,0,0.77221844,5.7226015,5.8388573)"
   x1="34.643"
   y1="14.02"
   x2="42.643"
   y2="22.021" /><linearGradient
   inkscape:collect="always"
   xlink:href="#linearGradient4513"
   id="linearGradient1815"
   gradientUnits="userSpaceOnUse"
   gradientTransform="matrix(0.77221844,0,0,0.77221844,5.7226015,5.8388573)"
   x1="38.246"
   y1="9.42"
   x2="41.225"
   y2="12.399" /><linearGradient
   inkscape:collect="always"
   xlink:href="#linearGradient4513"
   id="linearGradient1817"
   gradientUnits="userSpaceOnUse"
   gradientTransform="matrix(0.77221844,0,0,0.77221844,5.7226015,5.8388573)"
   x1="35.752"
   y1="30.354"
   x2="40.572"
   y2="35.174" /><linearGradient
   inkscape:collect="always"
   xlink:href="#linearGradient4325"
   id="linearGradient1819"
   gradientUnits="userSpaceOnUse"
   gradientTransform="matrix(0.77221844,0,0,0.77221844,5.7226015,5.8388573)"
   x1="24.015"
   y1="31.94"
   x2="23.63"
   y2="19.969" /></defs>
 
 
 
 <ellipse
   cy="38"
   cx="14"
   style="opacity:1;fill:#ffffff;fill-opacity:1;stroke:none;stroke-width:2;stroke-linecap:round;stroke-linejoin:round;stroke-miterlimit:4;stroke-dasharray:none;stroke-opacity:1"
   r="2"
   id="ellipse388" />
 
 
 
 
 
 
 
 
 
 
 
 
 
 
 
 
 
 
 
 
 
 
<rect
   style="fill:url(#linearGradient4151);fill-opacity:1;stroke:none;stroke-width:1.05"
   width="41.999985"
   height="41.999985"
   x="3.0000076"
   y="3.0000076"
   ry="20.999992"
   rx="20.999992"
   id="rect16" /><path
   style="fill:url(#linearGradient1797);fill-opacity:1;stroke-width:0.772219"
   d="m 8.8114915,10.47217 c 0.25313,2.786593 2.2832095,3.431571 2.3935895,6.408507 0.0588,1.257243 -1.5960395,4.146902 -1.5791595,5.818786 0.01,0.792315 0.3944895,1.536207 1.0467295,1.9954 1.23593,0.869615 3.82922,1.221672 7.28782,1.221672 h 0.20665 c -2.92093,0 -5.1114,0.775345 -6.15513,1.470537 -0.55089,0.367088 -0.87676,0.962322 -0.88387,1.595714 0.12782,4.24024 0.71702,9.157441 5.57601,9.289245 5.59188,-0.06287 6.7361,-8.75955 6.77953,-12.355496 C 23.414161,23.494739 17.305891,10.47217 8.8114915,10.47217 Z m 30.8887295,0 c -8.49439,0 -14.60244,13.022569 -14.67216,15.444365 0.0433,3.595946 1.18765,12.292622 6.77953,12.355496 4.85906,-0.131804 5.44816,-5.049005 5.57594,-9.289245 -0.009,-0.633392 -0.3329,-1.228626 -0.88378,-1.595714 -1.04375,-0.695192 -3.23415,-1.470537 -6.15514,-1.470537 h 0.20661 c 3.45864,0 6.05195,-0.352057 7.28784,-1.221672 0.65228,-0.459193 1.03836,-1.203085 1.04671,-1.9954 0.0168,-1.671884 -1.63771,-4.561543 -1.57911,-5.818786 0.11035,-2.976936 2.14052,-3.621914 2.39356,-6.408507 z"
   id="path382-6" /><path
   style="fill:none;stroke:#272b2d;stroke-width:0.772219px;stroke-linecap:butt;stroke-linejoin:miter;stroke-opacity:1"
   d="m 25.414141,20.51101 c 0,-2.316658 0.49266,-7.378348 3.475,-7.336081"
   id="path384-2" /><path
   d="m 23.102961,20.51101 c 0,-2.316658 -0.49257,-7.378348 -3.47494,-7.336081"
   style="fill:none;stroke:#272b2d;stroke-width:0.772219px;stroke-linecap:butt;stroke-linejoin:miter;stroke-opacity:1"
   id="path386-9" /><path
   style="opacity:0.2;fill:url(#linearGradient1799);fill-opacity:1;stroke:none;stroke-width:1.54445;stroke-linecap:round;stroke-linejoin:round;stroke-miterlimit:4;stroke-dasharray:none;stroke-opacity:1"
   d="m 33.073011,34.094209 -2.1839,2.183931 1.88831,1.888314 c 1.21298,-0.223541 2.10227,-0.802826 2.75704,-1.610799 z"
   id="path390-1" /><path
   style="opacity:0.2;fill:url(#linearGradient1801);fill-opacity:1;stroke:none;stroke-width:1.54445;stroke-linecap:round;stroke-linejoin:round;stroke-miterlimit:4;stroke-dasharray:none;stroke-opacity:1"
   d="m 36.154381,20.952922 -2.18397,2.182425 2.24272,2.242745 c 0.66904,-0.178747 1.22534,-0.401377 1.62593,-0.683229 0.41775,-0.294058 0.71072,-0.710916 0.8808,-1.176428 z"
   id="path392-2" /><path
   style="opacity:0.2;fill:url(#linearGradient1803);fill-opacity:1;stroke:none;stroke-width:1.54445;stroke-linecap:round;stroke-linejoin:round;stroke-miterlimit:4;stroke-dasharray:none;stroke-opacity:1"
   d="m 13.215531,13.007521 -1.09192,1.090451 11.28309,11.28314 c -0.17143,-0.804821 -0.64743,-2.080065 -1.36647,-3.548889 z"
   id="path394-7" /><path
   style="opacity:0.2;fill:url(#linearGradient1805);fill-opacity:1;stroke:none;stroke-width:1.54445;stroke-linecap:round;stroke-linejoin:round;stroke-miterlimit:4;stroke-dasharray:none;stroke-opacity:1"
   d="m 17.618091,34.07611 -2.18397,2.18393 1.95321,1.95317 c 1.14432,-0.168522 2.07868,-0.725903 2.84451,-1.523322 z"
   id="path396-0" /><path
   style="opacity:0.2;fill:url(#linearGradient1807);fill-opacity:1;stroke:none;stroke-width:1.54445;stroke-linecap:round;stroke-linejoin:round;stroke-miterlimit:4;stroke-dasharray:none;stroke-opacity:1"
   d="m 14.533761,20.957449 -2.18394,2.183927 2.66356,2.663552 c 0.89289,0.07297 1.87235,0.111607 2.94709,0.111607 h 0.20665 c -1.02757,0 -1.95862,0.100228 -2.78723,0.254895 l 6.90921,6.909243 c 0.40144,-1.147203 0.67983,-2.356476 0.86427,-3.503641 z"
   id="path398-9" /><path
   style="opacity:0.2;fill:url(#linearGradient1809);fill-opacity:1;stroke:none;stroke-width:1.54445;stroke-linecap:round;stroke-linejoin:round;stroke-miterlimit:4;stroke-dasharray:none;stroke-opacity:1"
   d="m 15.399451,29.320631 -1.63642,1.63644 6.09626,6.096303 c 0.56648,-0.494858 1.04917,-1.114726 1.45851,-1.814411 z"
   id="path400-3" /><path
   style="opacity:0.2;fill:url(#linearGradient1811);fill-opacity:1;stroke:none;stroke-width:1.54445;stroke-linecap:round;stroke-linejoin:round;stroke-miterlimit:4;stroke-dasharray:none;stroke-opacity:1"
   d="m 16.144541,16.65142 -1.63643,1.636444 8.91523,8.915198 c 0.0316,-0.463688 0.0559,-0.916082 0.0601,-1.286527 -0.0147,-0.514563 -0.31664,-1.522524 -0.84158,-2.767617 z"
   id="path402-6" /><path
   style="opacity:0.2;fill:url(#linearGradient1813);fill-opacity:1;stroke:none;stroke-width:1.54445;stroke-linecap:round;stroke-linejoin:round;stroke-miterlimit:4;stroke-dasharray:none;stroke-opacity:1"
   d="m 33.934201,16.683095 -1.63636,1.636442 5.98009,5.980164 c 0.38335,-0.439852 0.60164,-1.006715 0.60784,-1.600238 0.005,-0.372706 -0.0833,-0.810791 -0.20814,-1.272954 z"
   id="path404-0" /><path
   style="opacity:0.2;fill:url(#linearGradient1815);fill-opacity:1;stroke:none;stroke-width:1.54445;stroke-linecap:round;stroke-linejoin:round;stroke-miterlimit:4;stroke-dasharray:none;stroke-opacity:1"
   d="m 36.348931,12.978861 -1.092,1.091966 2.11908,2.119075 c 0.0995,-0.645606 0.30005,-1.167962 0.53999,-1.642472 z"
   id="path406-6" /><circle
   r="0.77221841"
   style="fill:#ffffff;fill-opacity:1;stroke:none;stroke-width:1.54445;stroke-linecap:round;stroke-linejoin:round;stroke-miterlimit:4;stroke-dasharray:none;stroke-opacity:1"
   cx="12.672563"
   cy="13.561046"
   id="circle408-2" /><circle
   cy="17.518661"
   cx="15.37532"
   style="fill:#ffffff;fill-opacity:1;stroke:none;stroke-width:1.54445;stroke-linecap:round;stroke-linejoin:round;stroke-miterlimit:4;stroke-dasharray:none;stroke-opacity:1"
   r="1.1583275"
   id="circle410-6" /><circle
   style="fill:#ffffff;fill-opacity:1;stroke:none;stroke-width:1.54445;stroke-linecap:round;stroke-linejoin:round;stroke-miterlimit:4;stroke-dasharray:none;stroke-opacity:1"
   cx="13.444794"
   cy="22.055447"
   r="1.5444368"
   id="circle412-1" /><circle
   r="1.1583275"
   style="fill:#ffffff;fill-opacity:1;stroke:none;stroke-width:1.54445;stroke-linecap:round;stroke-linejoin:round;stroke-miterlimit:4;stroke-dasharray:none;stroke-opacity:1"
   cx="14.603119"
   cy="30.163738"
   id="circle414-8" /><circle
   r="1.5444368"
   cy="35.183159"
   cx="16.533661"
   style="fill:#ffffff;fill-opacity:1;stroke:none;stroke-width:1.54445;stroke-linecap:round;stroke-linejoin:round;stroke-miterlimit:4;stroke-dasharray:none;stroke-opacity:1"
   id="circle416-7" /><circle
   r="1.5444368"
   cy="22.055447"
   cx="-35.066933"
   style="fill:#ffffff;fill-opacity:1;stroke:none;stroke-width:1.54445;stroke-linecap:round;stroke-linejoin:round;stroke-miterlimit:4;stroke-dasharray:none;stroke-opacity:1"
   transform="scale(-1,1)"
   id="circle418-9" /><circle
   r="1.1583275"
   style="fill:#ffffff;fill-opacity:1;stroke:none;stroke-width:1.54445;stroke-linecap:round;stroke-linejoin:round;stroke-miterlimit:4;stroke-dasharray:none;stroke-opacity:1"
   cx="-33.136375"
   cy="17.518661"
   transform="scale(-1,1)"
   id="circle420-2" /><circle
   cy="13.561046"
   cx="-35.839195"
   style="fill:#ffffff;fill-opacity:1;stroke:none;stroke-width:1.54445;stroke-linecap:round;stroke-linejoin:round;stroke-miterlimit:4;stroke-dasharray:none;stroke-opacity:1"
   r="0.77221841"
   transform="scale(-1,1)"
   id="circle422-0" /><path
   style="opacity:0.2;fill:url(#linearGradient1817);fill-opacity:1;stroke:none;stroke-width:1.54445;stroke-linecap:round;stroke-linejoin:round;stroke-miterlimit:4;stroke-dasharray:none;stroke-opacity:1"
   d="m 34.732061,29.346273 -1.63638,1.636437 3.5262,3.526264 c 0.28205,-0.837515 0.44924,-1.762487 0.56262,-2.710306 z"
   id="path424-2" /><circle
   cy="30.163738"
   cx="-33.908623"
   style="fill:#ffffff;fill-opacity:1;stroke:none;stroke-width:1.54445;stroke-linecap:round;stroke-linejoin:round;stroke-miterlimit:4;stroke-dasharray:none;stroke-opacity:1"
   r="1.1583275"
   transform="scale(-1,1)"
   id="circle426-3" /><circle
   style="fill:#ffffff;fill-opacity:1;stroke:none;stroke-width:1.54445;stroke-linecap:round;stroke-linejoin:round;stroke-miterlimit:4;stroke-dasharray:none;stroke-opacity:1"
   cx="-31.978004"
   cy="35.183159"
   r="1.5444368"
   transform="scale(-1,1)"
   id="circle428-7" /><path
   style="opacity:0.15;fill:#000000;fill-opacity:1;stroke-width:0.772219"
   d="m 8.8114915,10.47217 c 0.2406,2.649434 2.0842395,3.366763 2.3604095,5.989213 0.0158,-0.122168 0.0378,-0.250777 0.0331,-0.352927 -0.0992,-2.67649 -1.7461495,-3.472573 -2.2623595,-5.630256 -0.0438,-6.99e-4 -0.0868,-0.0062 -0.13117,-0.0062 z m 30.8887295,0 c -0.044,0 -0.0869,0.0053 -0.13121,0.0062 -0.51619,2.157683 -2.16315,2.953763 -2.26235,5.630258 -0.006,0.102148 0.0171,0.230755 0.0332,0.352927 0.2761,-2.622454 2.11974,-3.339781 2.36037,-5.989217 z M 9.6682015,22.254532 c -0.0192,0.151778 -0.0435,0.307936 -0.0422,0.444931 0.01,0.792315 0.3944895,1.536207 1.0467295,1.9954 0.71335,0.501916 1.89005,0.82764 3.41316,1.016549 1.09613,-0.327577 2.47212,-0.567093 4.08131,-0.567093 h -0.20665 c -3.45859,0 -6.0519,-0.352062 -7.28782,-1.221674 -0.56059,-0.394659 -0.9079295,-1.002856 -1.0044495,-1.668113 z m 29.1753695,0 c -0.0966,0.665257 -0.44389,1.273454 -1.00451,1.668113 -1.23589,0.869612 -3.8292,1.221674 -7.28784,1.221674 h -0.20661 c 1.60915,0 2.98514,0.239516 4.08133,0.567093 1.52303,-0.188909 2.69979,-0.514633 3.41312,-1.016549 0.65228,-0.459193 1.03836,-1.203085 1.04671,-1.9954 0.002,-0.136995 -0.0229,-0.293153 -0.042,-0.444931 z m -15.38703,3.471966 c -0.14623,3.853247 -1.42122,11.713372 -6.75241,11.773315 -4.64352,-0.125958 -5.38047,-4.618347 -5.54883,-8.717621 -0.01,0.06723 -0.026,0.132226 -0.027,0.200594 0.12781,4.24024 0.71699,9.157441 5.57601,9.289245 5.59185,-0.06287 6.73607,-8.75955 6.77945,-12.355496 -0.002,-0.05022 -0.0204,-0.130972 -0.0269,-0.190037 z m 1.59869,0 c -0.009,0.05908 -0.0251,0.139865 -0.027,0.190037 0.0432,3.595946 1.18763,12.292622 6.77953,12.355496 4.85903,-0.131804 5.44816,-5.049005 5.57593,-9.289245 -7.3e-4,-0.06836 -0.0191,-0.133353 -0.0269,-0.200594 -0.16841,4.099274 -0.90532,8.591663 -5.54879,8.717621 -5.33128,-0.05994 -6.60623,-7.920068 -6.75238,-11.773315 z"
   id="path430-5" /><path
   style="fill:url(#linearGradient1819);fill-opacity:1;stroke-width:0.772219"
   d="m 24.255861,18.194352 c -1.27944,0 -2.31664,1.037201 -2.31664,2.316658 0,1.544437 1.54444,1.544437 0.77223,3.088868 v 2.316657 3.86109 c 0,0.85562 0.6888,1.544441 1.54441,1.544441 0.8556,0 1.54444,-0.688821 1.54444,-1.544441 v -3.86109 -2.316657 c -0.77224,-1.544431 0.77221,-1.544431 0.77221,-3.088868 0,-1.279457 -1.03716,-2.316658 -2.31665,-2.316658 z"
   id="path432-9" /></svg>
