<?xml version="1.0" encoding="UTF-8" standalone="no"?>
<!-- Created with Inkscape (http://www.inkscape.org/) -->

<svg
   width="48"
   height="48"
   viewBox="0 0 48 48"
   id="svg4250"
   version="1.1"
   inkscape:version="1.2.1 (9c6d41e410, 2022-07-14)"
   sodipodi:docname="gcompris-qt.svg"
   inkscape:export-filename="GCompris-icon-86.png"
   inkscape:export-xdpi="129"
   inkscape:export-ydpi="129"
   xmlns:inkscape="http://www.inkscape.org/namespaces/inkscape"
   xmlns:sodipodi="http://sodipodi.sourceforge.net/DTD/sodipodi-0.dtd"
   xmlns:xlink="http://www.w3.org/1999/xlink"
   xmlns="http://www.w3.org/2000/svg"
   xmlns:svg="http://www.w3.org/2000/svg"
   xmlns:rdf="http://www.w3.org/1999/02/22-rdf-syntax-ns#"
   xmlns:cc="http://creativecommons.org/ns#"
   xmlns:dc="http://purl.org/dc/elements/1.1/">
  <sodipodi:namedview
     id="base"
     pagecolor="#b8b8b8"
     bordercolor="#666666"
     borderopacity="1.0"
     inkscape:pageopacity="0"
     inkscape:pageshadow="2"
     inkscape:zoom="5.6568543"
     inkscape:cx="80.25662"
     inkscape:cy="28.814601"
     inkscape:document-units="px"
     inkscape:current-layer="layer1"
     showgrid="false"
     fit-margin-top="0"
     fit-margin-left="0"
     fit-margin-right="0"
     fit-margin-bottom="0"
     units="px"
     inkscape:window-width="1920"
     inkscape:window-height="1011"
     inkscape:window-x="0"
     inkscape:window-y="0"
     inkscape:window-maximized="1"
     showguides="false"
     inkscape:showpageshadow="2"
     inkscape:pagecheckerboard="0"
     inkscape:deskcolor="#b8b8b8">
    <inkscape:grid
       empspacing="4"
       id="grid5573"
       type="xygrid"
       originx="0"
       originy="0" />
  </sodipodi:namedview>
  <defs
     id="defs4252">
    <linearGradient
       inkscape:collect="always"
       id="linearGradient9138">
      <stop
         style="stop-color:#000000;stop-opacity:0.25120774"
         offset="0"
         id="stop9140" />
      <stop
         style="stop-color:#ffffff;stop-opacity:0;"
         offset="1"
         id="stop9142" />
    </linearGradient>
    <linearGradient
       inkscape:collect="always"
       id="linearGradient8988">
      <stop
         style="stop-color:#132a43;stop-opacity:0.50196081"
         offset="0"
         id="stop8990" />
      <stop
         style="stop-color:#133e6b;stop-opacity:0"
         offset="1"
         id="stop8992" />
    </linearGradient>
    <linearGradient
       id="linearGradient4243"
       inkscape:collect="always">
      <stop
         id="stop4245"
         offset="0"
         style="stop-color:#cf5e19;stop-opacity:1" />
      <stop
         id="stop4247"
         offset="1"
         style="stop-color:#e77936;stop-opacity:0;" />
    </linearGradient>
    <linearGradient
       gradientUnits="userSpaceOnUse"
       y2="563.45239"
       x2="448.15787"
       y1="615.15955"
       x1="448.15787"
       id="linearGradient4249"
       xlink:href="#linearGradient4243"
       inkscape:collect="always"
       gradientTransform="matrix(0.65910148,0,0,0.66022345,146.37109,190.97684)" />
    <linearGradient
       inkscape:collect="always"
       xlink:href="#linearGradient8988"
       id="linearGradient8994"
       x1="45.289051"
       y1="95.745857"
       x2="45.289051"
       y2="48.76894"
       gradientUnits="userSpaceOnUse"
       gradientTransform="matrix(0.36986246,0,0,0.36986246,452.1339,577.361)" />
    <linearGradient
       inkscape:collect="always"
       xlink:href="#linearGradient9138"
       id="linearGradient9144"
       x1="33.010448"
       y1="63.643616"
       x2="33.010448"
       y2="1.4182189"
       gradientUnits="userSpaceOnUse"
       gradientTransform="matrix(0.65910148,0,0,0.66022345,422.9793,555.90477)" />
    <linearGradient
       inkscape:collect="always"
       xlink:href="#linearGradient9138"
       id="linearGradient9167"
       x1="451.07458"
       y1="614.4151"
       x2="451.07458"
       y2="555.28333"
       gradientUnits="userSpaceOnUse"
       gradientTransform="matrix(0.65910148,0,0,0.66022345,145.69367,190.78001)" />
  </defs>
  <metadata
     id="metadata4255">
    <rdf:RDF>
      <cc:Work
         rdf:about="">
        <dc:format>image/svg+xml</dc:format>
        <dc:type
           rdf:resource="http://purl.org/dc/dcmitype/StillImage" />
      </cc:Work>
    </rdf:RDF>
  </metadata>
  <g
     style="display:inline"
     transform="translate(-420.70247,-553.03209)"
     id="layer1"
     inkscape:groupmode="layer"
     inkscape:label="Calque 1">
    <g
       transform="matrix(0.10556921,1.2503055e-4,-1.250672e-4,0.10553828,419.16473,577.10572)"
       id="g3692-1-0-0-7-4-3"
       style="stroke:none;stroke-width:18.9477;stroke-miterlimit:4;stroke-dasharray:none;stroke-opacity:1" />
    <g
       style="display:inline;stroke:none;stroke-width:4.38669;stroke-miterlimit:4;stroke-dasharray:none;stroke-opacity:1"
       id="g5453"
       transform="matrix(0.45592428,0,0,0.45592433,235.24139,380.98274)">
      <g
         inkscape:label="ball"
         id="layer3-2"
         style="stroke:none;stroke-width:4.38669;stroke-miterlimit:4;stroke-dasharray:none" />
    </g>
    <path
       sodipodi:nodetypes="cccccccc"
       inkscape:connector-curvature="0"
       id="path18961-1-9"
       d="m 458.97629,578.18473 c -0.367,-0.0122 -2.04208,0.008 -2.38281,0.0219 l -0.32955,17.32956 c 1.03352,-0.18416 3.71062,-0.54717 4.73085,-0.74145 1.74599,-0.71229 1.89052,-2.90474 2.90417,-4.26309 0.75086,-1.56655 1.70691,-3.22463 1.80352,-4.9478 -1.26219,-2.60064 -3.27043,-4.76116 -5.14408,-6.91688 -0.45545,-0.34704 -1.01905,-0.4591 -1.5821,-0.48227 z"
       style="display:inline;fill:#ffffff;fill-opacity:1;fill-rule:evenodd;stroke:none;stroke-width:0.659662px;stroke-linecap:butt;stroke-linejoin:miter;stroke-opacity:1" />
    <path
       inkscape:connector-curvature="0"
       id="path4182-3"
       d="m 428.87074,558.74838 c -7.95185,8.59636 -6.52133,23.55227 2.87071,30.51083 8.03139,6.60218 20.69725,5.72871 27.9513,-1.64798 -2.19349,-2.16089 -4.17599,-1.6752 -6.75578,1.77564 -8.07443,5.71278 -23.187,-3.19369 -25.43849,-12.61387 -1.54277,-5.21449 0.0894,-11.05066 3.81429,-14.94917 -1.53244,-0.29501 -0.81751,-3.7284 -2.44203,-3.07545 z"
       style="color:#000000;clip-rule:nonzero;display:inline;overflow:visible;visibility:visible;opacity:1;isolation:auto;mix-blend-mode:normal;color-interpolation:sRGB;color-interpolation-filters:linearRGB;solid-color:#000000;solid-opacity:1;fill:#ffffff;fill-opacity:1;fill-rule:nonzero;stroke:none;stroke-width:1.31933;stroke-linecap:butt;stroke-linejoin:miter;stroke-miterlimit:4;stroke-dasharray:none;stroke-dashoffset:0;stroke-opacity:1;marker:none;color-rendering:auto;image-rendering:auto;shape-rendering:auto;text-rendering:auto;enable-background:accumulate"
       sodipodi:nodetypes="ccccccc" />
    <path
       inkscape:connector-curvature="0"
       id="rect5297-5"
       d="m 443.55044,591.89022 c -4.19023,0.41582 -9.81822,0.0652 -12.53739,3.71242 -1.77219,3.36628 2.7219,2.20533 4.98628,2.34323 7.61852,0 15.23703,0 22.85554,0 0.47318,-4.72595 -5.69914,-5.41899 -9.32114,-5.83933 -1.98659,-0.19758 -3.98671,-0.25844 -5.98329,-0.21632 z"
       style="color:#000000;clip-rule:nonzero;display:inline;overflow:visible;visibility:visible;opacity:1;isolation:auto;mix-blend-mode:normal;color-interpolation:sRGB;color-interpolation-filters:linearRGB;solid-color:#000000;solid-opacity:1;fill:#ffffff;fill-opacity:1;fill-rule:nonzero;stroke:none;stroke-width:1.31933;stroke-linecap:butt;stroke-linejoin:miter;stroke-miterlimit:4;stroke-dasharray:none;stroke-dashoffset:0;stroke-opacity:1;marker:none;color-rendering:auto;image-rendering:auto;shape-rendering:auto;text-rendering:auto;enable-background:accumulate" />
    <rect
       rx="1.0857993e-07"
       y="591.79584"
       x="443.47803"
       height="3.1956179"
       width="2.5521498"
       id="rect5300"
       style="color:#000000;clip-rule:nonzero;display:inline;overflow:visible;visibility:visible;opacity:1;isolation:auto;mix-blend-mode:normal;color-interpolation:sRGB;color-interpolation-filters:linearRGB;solid-color:#000000;solid-opacity:1;fill:#e77936;fill-opacity:0.972549;fill-rule:nonzero;stroke:none;stroke-width:1.31933;stroke-linecap:butt;stroke-linejoin:miter;stroke-miterlimit:4;stroke-dasharray:none;stroke-dashoffset:0;stroke-opacity:1;marker:none;color-rendering:auto;image-rendering:auto;shape-rendering:auto;text-rendering:auto;enable-background:accumulate" />
    <ellipse
       style="color:#000000;clip-rule:nonzero;display:inline;overflow:visible;visibility:visible;opacity:1;isolation:auto;mix-blend-mode:normal;color-interpolation:sRGB;color-interpolation-filters:linearRGB;solid-color:#000000;solid-opacity:1;fill:#ffffff;fill-opacity:1;fill-rule:nonzero;stroke:none;stroke-width:12.4991;stroke-linecap:butt;stroke-linejoin:miter;stroke-miterlimit:4;stroke-dasharray:none;stroke-dashoffset:0;stroke-opacity:1;marker:none;color-rendering:auto;image-rendering:auto;shape-rendering:auto;text-rendering:auto;enable-background:accumulate"
       id="path4848-6"
       cx="444.66895"
       cy="572.62219"
       rx="15.2331"
       ry="15.259032" />
    <rect
       transform="matrix(0.70650519,-0.70770786,0.70650519,0.70770786,0,0)"
       style="color:#000000;clip-rule:nonzero;display:inline;overflow:visible;visibility:visible;opacity:1;isolation:auto;mix-blend-mode:normal;color-interpolation:sRGB;color-interpolation-filters:linearRGB;solid-color:#000000;solid-opacity:1;fill:#ffffff;fill-opacity:1;fill-rule:nonzero;stroke:none;stroke-width:1.31933;stroke-linecap:butt;stroke-linejoin:miter;stroke-miterlimit:4;stroke-dasharray:none;stroke-dashoffset:0;stroke-opacity:1;marker:none;color-rendering:auto;image-rendering:auto;shape-rendering:auto;text-rendering:auto;enable-background:accumulate"
       id="rect4180-3-7"
       width="5.0391426"
       height="42.544682"
       x="-92.55941"
       y="698.15997"
       rx="2.1438839e-07"
       ry="0" />
    <path
       style="display:inline;fill:url(#linearGradient9144);fill-opacity:1;fill-rule:evenodd;stroke:none;stroke-width:0.659662px;stroke-linecap:butt;stroke-linejoin:miter;stroke-opacity:1"
       d="m 431.42018,556.03243 -3.56069,3.56546 0.15448,0.15474 c -6.97053,8.7143 -5.30889,22.81084 3.72804,29.50631 1.68838,1.38794 3.58223,2.44241 5.58692,3.17861 -2.49889,0.38523 -4.83749,1.1832 -6.31553,3.16573 -1.77219,3.36627 2.72135,2.20512 4.98573,2.34301 h 22.85615 c 0.11119,-1.11059 -0.14792,-1.99656 -0.65138,-2.71052 1.07868,-0.16088 2.18821,-0.32624 2.79089,-0.44101 1.74598,-0.71229 1.89051,-2.90473 2.90416,-4.26308 0.75087,-1.56655 1.70692,-3.22463 1.80352,-4.9478 -1.26219,-2.60064 -3.27043,-4.76116 -5.14407,-6.91688 -0.45546,-0.34705 -1.01905,-0.45909 -1.58211,-0.48227 -0.0214,-6.6e-4 -0.10924,0.002 -0.13904,0.001 0.69852,-1.7719 1.0596,-3.65916 1.06461,-5.56419 -2.2e-4,-8.42703 -6.82,-15.25843 -15.2327,-15.25865 -3.22793,0.007 -6.37031,1.04022 -8.97383,2.95167 l -4.27515,-4.28243 z m -0.68999,6.44104 1.43663,1.43908 c -1.77601,2.55599 -2.72879,5.5951 -2.73038,8.70928 -4.9e-4,8.42753 6.81951,15.25971 15.23272,15.25993 3.10689,-0.007 6.13753,-0.96441 8.68546,-2.74534 l 1.86272,1.8659 c -0.71776,0.50868 -1.46915,1.29992 -2.27982,2.38428 -8.07442,5.71278 -23.18699,-3.19369 -25.43847,-12.61387 -1.45951,-4.93301 -0.076,-10.42035 3.23114,-14.29926 z m 25.63287,27.83899 -0.0643,3.36946 c -1.25561,-0.64184 -2.79726,-0.99923 -4.27386,-1.23792 1.52045,-0.54108 2.97936,-1.25268 4.33822,-2.13154 z"
       id="path18961-1-9-3"
       inkscape:connector-curvature="0"
       sodipodi:nodetypes="cccccccccccccccccccccccccccccccccc" />
    <path
       sodipodi:nodetypes="ccccccccc"
       inkscape:connector-curvature="0"
       id="path4182"
       d="m 429.87237,559.6075 c -3.14892,3.60283 -4.88867,8.22613 -4.89745,13.01466 0,10.94231 8.85543,19.81281 19.77916,19.81281 4.78197,-0.005 9.40027,-1.74503 13.00002,-4.89828 l -2.3216,-2.32555 c -2.97967,2.54252 -6.76423,3.94186 -10.67842,3.94833 -9.11778,0 -16.50922,-7.404 -16.50922,-16.53731 6.6e-4,-3.92303 1.39483,-7.71783 3.93167,-10.70658 z"
       style="color:#000000;clip-rule:nonzero;display:inline;overflow:visible;visibility:visible;opacity:1;isolation:auto;mix-blend-mode:normal;color-interpolation:sRGB;color-interpolation-filters:linearRGB;solid-color:#000000;solid-opacity:1;fill:#e77936;fill-opacity:1;fill-rule:nonzero;stroke:none;stroke-width:1.31933;stroke-linecap:butt;stroke-linejoin:miter;stroke-miterlimit:4;stroke-dasharray:none;stroke-dashoffset:0;stroke-opacity:1;marker:none;color-rendering:auto;image-rendering:auto;shape-rendering:auto;text-rendering:auto;enable-background:accumulate" />
    <rect
       transform="matrix(0.70650519,-0.70770786,0.70650519,0.70770786,0,0)"
       style="color:#000000;clip-rule:nonzero;display:inline;overflow:visible;visibility:visible;opacity:1;isolation:auto;mix-blend-mode:normal;color-interpolation:sRGB;color-interpolation-filters:linearRGB;solid-color:#000000;solid-opacity:1;fill:#e77936;fill-opacity:1;fill-rule:nonzero;stroke:none;stroke-width:1.31933;stroke-linecap:butt;stroke-linejoin:miter;stroke-miterlimit:4;stroke-dasharray:none;stroke-dashoffset:0;stroke-opacity:1;marker:none;color-rendering:auto;image-rendering:auto;shape-rendering:auto;text-rendering:auto;enable-background:accumulate"
       id="rect4180-3"
       width="3.1187544"
       height="40.070946"
       x="-91.424278"
       y="699.22198"
       rx="1.3268621e-07"
       ry="0" />
    <ellipse
       style="color:#000000;clip-rule:nonzero;display:inline;overflow:visible;visibility:visible;opacity:1;isolation:auto;mix-blend-mode:normal;color-interpolation:sRGB;color-interpolation-filters:linearRGB;solid-color:#000000;solid-opacity:1;fill:#e77935;fill-opacity:1;fill-rule:nonzero;stroke:none;stroke-width:12.4991;stroke-linecap:butt;stroke-linejoin:miter;stroke-miterlimit:4;stroke-dasharray:none;stroke-dashoffset:0;stroke-opacity:1;marker:none;color-rendering:auto;image-rendering:auto;shape-rendering:auto;text-rendering:auto;enable-background:accumulate"
       id="path4848"
       cx="444.66895"
       cy="572.62219"
       rx="13.997284"
       ry="14.021114" />
    <path
       sodipodi:nodetypes="cccsc"
       inkscape:connector-curvature="0"
       id="rect5297"
       d="m 457.51483,596.86664 h -12.76074 -12.76074 c 0,-2.5565 6.38037,-3.83474 12.76074,-3.83474 6.38037,0 12.76074,1.27824 12.76074,3.83474 z"
       style="color:#000000;clip-rule:nonzero;display:inline;overflow:visible;visibility:visible;opacity:1;isolation:auto;mix-blend-mode:normal;color-interpolation:sRGB;color-interpolation-filters:linearRGB;solid-color:#000000;solid-opacity:1;fill:#e77936;fill-opacity:1;fill-rule:nonzero;stroke:none;stroke-width:1.31933;stroke-linecap:butt;stroke-linejoin:miter;stroke-miterlimit:4;stroke-dasharray:none;stroke-dashoffset:0;stroke-opacity:1;marker:none;color-rendering:auto;image-rendering:auto;shape-rendering:auto;text-rendering:auto;enable-background:accumulate" />
    <path
       style="color:#000000;clip-rule:nonzero;display:inline;overflow:visible;visibility:visible;opacity:1;isolation:auto;mix-blend-mode:normal;color-interpolation:sRGB;color-interpolation-filters:linearRGB;solid-color:#000000;solid-opacity:1;fill:url(#linearGradient4249);fill-opacity:1;fill-rule:nonzero;stroke:none;stroke-width:1.31933;stroke-linecap:butt;stroke-linejoin:miter;stroke-miterlimit:4;stroke-dasharray:none;stroke-dashoffset:0;stroke-opacity:1;marker:none;color-rendering:auto;image-rendering:auto;shape-rendering:auto;text-rendering:auto;enable-background:accumulate"
       d="m 431.61585,557.33998 -2.20387,2.20633 0.27806,0.27853 c -3.03145,3.5707 -4.70681,8.10353 -4.71542,12.79699 0,10.5127 8.17502,19.10888 18.50377,19.76802 v 0.6744 c -5.92619,0.1598 -11.48536,1.41751 -11.48536,3.80273 h 12.76108 12.76108 c 0,-2.38522 -5.55916,-3.64293 -11.48535,-3.80273 v -0.67699 c 4.22813,-0.27833 8.26455,-1.90881 11.50724,-4.66799 l 0.18537,0.18569 2.20387,-2.20762 -4.32922,-4.33659 a 13.997283,14.021113 0 0 0 3.06895,-8.73893 13.997283,14.021113 0 0 0 -13.9969,-14.02073 13.997283,14.021113 0 0 0 -8.7331,3.06645 z m 0.38619,4.8008 1.73916,1.74211 a 13.997283,14.021113 0 0 0 -3.06894,8.73894 13.997283,14.021113 0 0 0 13.99689,14.02201 13.997283,14.021113 0 0 0 8.73309,-3.06643 l 1.8061,1.80917 c -2.94501,2.42629 -6.63523,3.76677 -10.45423,3.77307 -9.11778,0 -16.50972,-7.40451 -16.50972,-16.53782 6.5e-4,-3.82742 1.33712,-7.5272 3.75765,-10.48105 z"
       id="rect5300-3"
       inkscape:connector-curvature="0" />
    <path
       sodipodi:nodetypes="csssccccsscc"
       inkscape:connector-curvature="0"
       d="m 450.14526,566.603 c 0,0 -2.14159,-2.08034 -5.80721,-2.08468 -3.66561,-0.005 -7.33646,4.42394 -7.34091,8.16399 -0.005,3.74003 2.13455,8.03669 7.80588,8.04341 5.67134,0.006 8.30303,-2.96833 7.34295,-9.89547 l -6.98805,2.20804 1.31245,1.38674 0.83022,-0.20678 c 0,0 1.3812,1.73314 -0.69401,2.00772 -2.07521,0.27457 -3.94196,-0.28172 -4.21548,-2.91393 -0.27354,-2.63222 1.80355,-4.49977 4.22302,-3.45801 z"
       id="path8810-6-7-0-4-9-8"
       style="display:inline;opacity:1;fill:#ffffff;fill-opacity:1;fill-rule:evenodd;stroke:none;stroke-width:12.4991;stroke-linecap:butt;stroke-linejoin:miter;stroke-miterlimit:4;stroke-dasharray:none;stroke-opacity:1" />
    <g
       id="g9169"
       transform="matrix(0.65910148,0,0,0.66022345,145.69368,190.78001)">
      <path
         inkscape:connector-curvature="0"
         style="fill:#1a5694;fill-opacity:1;fill-rule:evenodd;stroke:none;stroke-width:1px;stroke-linecap:butt;stroke-linejoin:miter;stroke-opacity:1"
         d="m 457.13665,602.06436 c 0.10664,0.89458 6.39338,9.71429 7.31096,10.14147 0.91757,0.42718 13.26601,-1.27392 14.00407,-1.9078 0.73806,-0.63388 5.83702,-10.90789 5.66342,-11.94886 -0.1736,-1.04097 -6.74224,-9.48681 -7.72284,-9.94064 -0.9806,-0.45384 -13.29544,0.34712 -14.21002,0.80328 -1.03499,0.51622 -5.15223,11.95797 -5.04559,12.85255 z"
         id="path18961"
         sodipodi:nodetypes="zzzzzsz" />
      <path
         inkscape:connector-curvature="0"
         style="fill:#3f8cdf;fill-opacity:1;fill-rule:evenodd;stroke:none;stroke-width:1px;stroke-linecap:butt;stroke-linejoin:miter;stroke-opacity:1"
         d="m 458.78419,602.08957 c 0.11275,0.93259 5.74923,8.33886 6.59054,8.76072 0.84132,0.42186 11.29498,-1.11587 11.95085,-1.69851 0.65587,-0.58264 5.54036,-10.26076 5.12719,-11.37332 -0.41317,-1.11257 -5.87168,-7.74904 -6.88467,-8.1148 -1.01298,-0.36576 -11.09095,0.0164 -12.12659,0.71516 -1.03565,0.6987 -4.77007,10.77816 -4.65732,11.71075 z"
         id="path19848"
         sodipodi:nodetypes="zzzzzzz" />
      <path
         sodipodi:nodetypes="zzzzz"
         inkscape:connector-curvature="0"
         style="fill:#2e66a4;fill-opacity:1;fill-rule:evenodd;stroke:none;stroke-width:1px;stroke-linecap:butt;stroke-linejoin:miter;stroke-opacity:1"
         d="m 465.19679,611.24287 c -0.914,-0.0458 4.94201,-11.9549 5.49852,-12.5058 0.55651,-0.55089 11.7149,-1.26484 12.35138,-0.62854 0.63648,0.6363 -5.00787,11.15616 -5.58679,11.59733 -0.57891,0.44117 -11.34911,1.58278 -12.26311,1.53701 z"
         id="path22551" />
      <path
         inkscape:connector-curvature="0"
         style="fill:#1a5694;fill-opacity:1;fill-rule:evenodd;stroke:none;stroke-width:1px;stroke-linecap:butt;stroke-linejoin:miter;stroke-opacity:1"
         d="m 462.80007,590.81838 c 2.12232,2.99499 6.6667,7.46619 6.89906,8.5349 0.23237,1.06871 -3.43202,7.76541 -5.40954,11.71393 l 1.80555,0.53974 c 1.29568,-4.3166 3.94151,-11.25358 4.83965,-11.95244 0.89814,-0.69886 11.8635,-1.41184 12.64822,-0.86596 0.78472,0.54588 -1.08615,-1.61743 -1.08615,-1.61743 -3.8502,0.79988 -11.17038,1.24255 -12.07693,0.97723 -0.90655,-0.26532 -4.58215,-5.86985 -6.59015,-8.33408 z"
         id="path19850"
         sodipodi:nodetypes="czcczzczcc" />
      <path
         style="color:#000000;display:inline;overflow:visible;visibility:visible;opacity:1;fill:#c0d5eb;fill-opacity:1;fill-rule:nonzero;stroke:none;stroke-width:1;stroke-linecap:round;stroke-linejoin:round;stroke-miterlimit:4;stroke-dasharray:none;stroke-dashoffset:0;stroke-opacity:1;marker:none;enable-background:accumulate"
         d="m 473.89203,594.84891 c -1.9332,-0.15828 -3.06051,-2.50922 -1.1271,-2.35363 1.93341,0.15558 3.0603,2.51191 1.1271,2.35363 z"
         id="path4146"
         inkscape:connector-curvature="0"
         sodipodi:nodetypes="zzz" />
      <path
         style="color:#000000;display:inline;overflow:visible;visibility:visible;opacity:1;fill:#c0d5eb;fill-opacity:1;fill-rule:nonzero;stroke:none;stroke-width:1;stroke-linecap:round;stroke-linejoin:round;stroke-miterlimit:4;stroke-dasharray:none;stroke-dashoffset:0;stroke-opacity:1;marker:none;enable-background:accumulate"
         d="m 464.44137,595.62752 c 0.16007,1.93305 -1.97482,3.42972 -2.13757,1.4969 -0.16276,-1.93281 1.97751,-3.42995 2.13757,-1.4969 z"
         id="path4146-3"
         inkscape:connector-curvature="0"
         sodipodi:nodetypes="zzz" />
      <path
         style="color:#000000;display:inline;overflow:visible;visibility:visible;opacity:1;fill:#c0d5eb;fill-opacity:1;fill-rule:nonzero;stroke:none;stroke-width:1;stroke-linecap:round;stroke-linejoin:round;stroke-miterlimit:4;stroke-dasharray:none;stroke-dashoffset:0;stroke-opacity:1;marker:none;enable-background:accumulate"
         d="m 462.25786,600.35905 c 0.16006,1.93305 -1.97482,3.42972 -2.13758,1.4969 -0.16276,-1.93282 1.97751,-3.42996 2.13758,-1.4969 z"
         id="path4146-3-6"
         inkscape:connector-curvature="0"
         sodipodi:nodetypes="zzz" />
      <path
         style="color:#000000;display:inline;overflow:visible;visibility:visible;opacity:1;fill:#c0d5eb;fill-opacity:1;fill-rule:nonzero;stroke:none;stroke-width:1;stroke-linecap:round;stroke-linejoin:round;stroke-miterlimit:4;stroke-dasharray:none;stroke-dashoffset:0;stroke-opacity:1;marker:none;enable-background:accumulate"
         d="m 467.4573,599.73511 c 0.16007,1.93305 -1.97481,3.42972 -2.13757,1.4969 -0.16276,-1.93281 1.97751,-3.42995 2.13757,-1.4969 z"
         id="path4146-3-7"
         inkscape:connector-curvature="0"
         sodipodi:nodetypes="zzz" />
      <path
         style="color:#000000;display:inline;overflow:visible;visibility:visible;opacity:1;fill:#c0d5eb;fill-opacity:1;fill-rule:nonzero;stroke:none;stroke-width:1;stroke-linecap:round;stroke-linejoin:round;stroke-miterlimit:4;stroke-dasharray:none;stroke-dashoffset:0;stroke-opacity:1;marker:none;enable-background:accumulate"
         d="m 465.22154,604.51861 c 0.16006,1.93305 -1.97482,3.42972 -2.13758,1.4969 -0.16276,-1.93282 1.97752,-3.42996 2.13758,-1.4969 z"
         id="path4146-3-5"
         inkscape:connector-curvature="0"
         sodipodi:nodetypes="zzz" />
      <path
         style="color:#000000;display:inline;overflow:visible;visibility:visible;opacity:1;fill:#97bbdf;fill-opacity:1;fill-rule:nonzero;stroke:none;stroke-width:1;stroke-linecap:round;stroke-linejoin:round;stroke-miterlimit:4;stroke-dasharray:none;stroke-dashoffset:0;stroke-opacity:1;marker:none;enable-background:accumulate"
         d="m 477.29179,606.68666 c -0.17034,1.93218 -2.52827,3.04479 -2.36062,1.11239 0.16764,-1.9324 2.53096,-3.04456 2.36062,-1.11239 z"
         id="path4146-3-56"
         inkscape:connector-curvature="0"
         sodipodi:nodetypes="zzz" />
      <path
         style="color:#000000;display:inline;overflow:visible;visibility:visible;opacity:1;fill:#97bbdf;fill-opacity:1;fill-rule:nonzero;stroke:none;stroke-width:1;stroke-linecap:round;stroke-linejoin:round;stroke-miterlimit:4;stroke-dasharray:none;stroke-dashoffset:0;stroke-opacity:1;marker:none;enable-background:accumulate"
         d="m 473.86769,602.04836 c -0.28209,1.91904 -2.70057,2.89305 -2.42115,0.97363 0.27942,-1.91943 2.70325,-2.89267 2.42115,-0.97363 z"
         id="path4146-3-56-9"
         inkscape:connector-curvature="0"
         sodipodi:nodetypes="zzz" />
      <path
         inkscape:connector-curvature="0"
         style="display:inline;fill:url(#linearGradient8994);fill-opacity:1;fill-rule:evenodd;stroke:none;stroke-width:1px;stroke-linecap:butt;stroke-linejoin:miter;stroke-opacity:1"
         d="m 457.13666,602.06436 c 0.10663,0.89458 6.39337,9.71429 7.31095,10.14147 0.91758,0.42718 13.26601,-1.27392 14.00407,-1.9078 0.73806,-0.63388 5.83702,-10.90789 5.66342,-11.94886 -0.1736,-1.04097 -6.74224,-9.48681 -7.72284,-9.94064 -0.9806,-0.45384 -13.29544,0.34712 -14.21002,0.80328 -1.03499,0.51622 -5.15223,11.95798 -5.04558,12.85255 z"
         id="path18961-1"
         sodipodi:nodetypes="zzzzzsz" />
    </g>
    <path
       sodipodi:nodetypes="csssccccsscc"
       inkscape:connector-curvature="0"
       d="m 450.14526,566.603 c 0,0 -2.14159,-2.08034 -5.80721,-2.08468 -3.66561,-0.005 -7.33646,4.42394 -7.34091,8.16399 -0.005,3.74003 2.13455,8.03669 7.80588,8.04341 5.67134,0.006 8.30303,-2.96833 7.34295,-9.89547 l -6.98805,2.20804 1.31245,1.38674 0.83022,-0.20678 c 0,0 1.3812,1.73313 -0.69401,2.00771 -2.07521,0.27458 -3.94196,-0.28171 -4.21548,-2.91392 -0.27354,-2.63222 1.80355,-4.49977 4.22302,-3.45801 z"
       id="path8810-6-7-0-4-9-8-6"
       style="display:inline;opacity:1;fill:url(#linearGradient9167);fill-opacity:1;fill-rule:evenodd;stroke:none;stroke-width:12.4991;stroke-linecap:butt;stroke-linejoin:miter;stroke-miterlimit:4;stroke-dasharray:none;stroke-opacity:1" />
  </g>
  <g
     inkscape:label="Layer 1"
     id="layer3"
     inkscape:groupmode="layer"
     style="display:inline" />
</svg>
