<?xml version="1.0" encoding="UTF-8" standalone="no"?>
<svg
   width="48"
   height="48"
   version="1.1"
   id="svg25"
   sodipodi:docname="internet-telephony.svg"
   inkscape:version="1.2.1 (9c6d41e410, 2022-07-14)"
   xmlns:inkscape="http://www.inkscape.org/namespaces/inkscape"
   xmlns:sodipodi="http://sodipodi.sourceforge.net/DTD/sodipodi-0.dtd"
   xmlns:xlink="http://www.w3.org/1999/xlink"
   xmlns="http://www.w3.org/2000/svg"
   xmlns:svg="http://www.w3.org/2000/svg">
  <sodipodi:namedview
     id="namedview27"
     pagecolor="#ffffff"
     bordercolor="#666666"
     borderopacity="1.0"
     inkscape:showpageshadow="2"
     inkscape:pageopacity="0.0"
     inkscape:pagecheckerboard="0"
     inkscape:deskcolor="#d1d1d1"
     showgrid="false"
     inkscape:zoom="4.9166667"
     inkscape:cx="24"
     inkscape:cy="24"
     inkscape:window-width="1920"
     inkscape:window-height="1011"
     inkscape:window-x="0"
     inkscape:window-y="0"
     inkscape:window-maximized="1"
     inkscape:current-layer="svg25" />
  <defs
     id="defs13">
    <linearGradient
       id="a"
       y1="543.8"
       y2="503.8"
       x2="0"
       gradientUnits="userSpaceOnUse">
      <stop
         stop-color="#a1adb3"
         id="stop2" />
      <stop
         offset="1"
         stop-color="#bfc7cb"
         id="stop4" />
    </linearGradient>
    <linearGradient
       xlink:href="#a"
       id="b"
       y1="537.8"
       y2="509.8"
       x2="0"
       gradientUnits="userSpaceOnUse"
       gradientTransform="translate(0,-1047.6)" />
    <linearGradient
       id="c"
       y1="31"
       y2="17"
       x2="0"
       gradientUnits="userSpaceOnUse"
       gradientTransform="matrix(1,0,0,-1,384.57,547.8)">
      <stop
         stop-color="#1d1e1e"
         id="stop8" />
      <stop
         offset="1"
         stop-color="#44484c"
         id="stop10" />
    </linearGradient>
    <linearGradient
       inkscape:collect="always"
       xlink:href="#a"
       id="linearGradient202"
       gradientUnits="userSpaceOnUse"
       y1="543.8"
       x2="0"
       y2="503.8" />
  </defs>
  <g
     transform="matrix(1.0499997,0,0,1.0499997,-404.99838,-525.98984)"
     id="g23">
    <circle
       fill="url(#a)"
       cx="408.57001"
       cy="523.79999"
       id="ellipse15"
       style="fill:url(#linearGradient202)"
       r="20" />
    <circle
       fill="url(#b)"
       cx="408.57001"
       cy="-523.79999"
       transform="scale(1,-1)"
       id="ellipse17"
       style="fill:url(#b)"
       r="14" />
    <path
       fill="url(#c)"
       d="m 408.57143,530.798 a 1,1 0 0 1 -1,-1 1,1 0 0 1 1,-1 1,1 0 0 1 1,1 1,1 0 0 1 -1,1 m -4.22852,-1.75781 a 1,1 0 0 1 -0.7207,-0.29297 1,1 0 0 1 0,-1.41406 1,1 0 0 1 1.41406,0 1,1 0 0 1 0,1.41406 1,1 0 0 1 -0.69336,0.29297 m 8.45704,0 a 1,1 0 0 1 -0.69336,-0.29297 1,1 0 0 1 0,-1.41406 1,1 0 0 1 1.41406,0 1,1 0 0 1 0,1.41406 1,1 0 0 1 -0.7207,0.29297 m -4.22852,-3.24219 a 2,2 0 0 1 -2,-2 2,2 0 0 1 2,-2 2,2 0 0 1 2,2 2,2 0 0 1 -2,2 m -6,-1 a 1,1 0 0 1 -1,-1 1,1 0 0 1 1,-1 1,1 0 0 1 1,1 1,1 0 0 1 -1,1 m 12,0 a 1,1 0 0 1 -1,-1 1,1 0 0 1 1,-1 1,1 0 0 1 1,1 1,1 0 0 1 -1,1 m -10.25781,-4.24219 a 1,1 0 0 1 -0.69141,-0.29297 1,1 0 0 1 0,-1.41406 1,1 0 0 1 1.41406,0 1,1 0 0 1 0,1.41406 1,1 0 0 1 -0.72265,0.29297 m 8.51562,0 a 1,1 0 0 1 -0.72265,-0.29297 1,1 0 0 1 0,-1.41406 1,1 0 0 1 1.41406,0 1,1 0 0 1 0,1.41406 1,1 0 0 1 -0.69141,0.29297 m -4.25781,-1.75781 a 1,1 0 0 1 -1,-1 1,1 0 0 1 1,-1 1,1 0 0 1 1,1 1,1 0 0 1 -1,1"
       id="path19"
       style="fill:url(#c)" />
    <path
       fill="#737b81"
       d="M 43.978516,23.417969 A 19.999985,20 0 0 1 24,43 19.999985,20 0 0 1 4.02148,23.582031 19.999985,20 0 0 0 4,24 19.999985,20 0 0 0 24,44 19.999985,20 0 0 0 44,24 19.999985,20 0 0 0 43.978516,23.417969"
       transform="translate(384.57,499.8)"
       id="path21" />
  </g>
</svg>
