<?xml version="1.0" encoding="UTF-8" standalone="no"?>
<svg
   width="48"
   viewBox="0 0 48 48"
   height="48"
   version="1.1"
   id="svg33"
   sodipodi:docname="jdownloader.svg"
   inkscape:version="1.2.2 (b0a8486541, 2022-12-01)"
   xmlns:inkscape="http://www.inkscape.org/namespaces/inkscape"
   xmlns:sodipodi="http://sodipodi.sourceforge.net/DTD/sodipodi-0.dtd"
   xmlns="http://www.w3.org/2000/svg"
   xmlns:svg="http://www.w3.org/2000/svg">
  <sodipodi:namedview
     id="namedview35"
     pagecolor="#ffffff"
     bordercolor="#666666"
     borderopacity="1.0"
     inkscape:showpageshadow="2"
     inkscape:pageopacity="0.0"
     inkscape:pagecheckerboard="0"
     inkscape:deskcolor="#d1d1d1"
     showgrid="false"
     inkscape:zoom="4.9166667"
     inkscape:cx="20.338983"
     inkscape:cy="24.508474"
     inkscape:window-width="1920"
     inkscape:window-height="1000"
     inkscape:window-x="0"
     inkscape:window-y="0"
     inkscape:window-maximized="1"
     inkscape:current-layer="svg33" />
  <defs
     id="defs17">
    <linearGradient
       id="a"
       y1="9"
       y2="-30"
       x2="0"
       gradientUnits="userSpaceOnUse">
      <stop
         stop-color="#f2a922"
         id="stop2" />
      <stop
         offset="1"
         stop-color="#f3d23b"
         id="stop4" />
    </linearGradient>
    <linearGradient
       id="b"
       y1="503.8"
       y2="543.8"
       x2="0"
       gradientUnits="userSpaceOnUse">
      <stop
         stop-color="#abf9c7"
         id="stop7" />
      <stop
         offset="1"
         stop-color="#54d883"
         id="stop9" />
    </linearGradient>
    <linearGradient
       id="c"
       y1="543.8"
       y2="503.8"
       gradientUnits="userSpaceOnUse"
       x2="0">
      <stop
         stop-color="#197cf1"
         id="stop12" />
      <stop
         offset="1"
         stop-color="#20bcfa"
         id="stop14" />
    </linearGradient>
  </defs>
  <circle
     cx="23.848015"
     cy="23.229017"
     r="20.848015"
     style="fill:#5a9cfe;stroke-width:2.91842;paint-order:stroke fill markers"
     id="circle212" />
  <path
     d="m 14.867745,4.434982 a 20.848015,20.848015 0 0 0 -1.631367,0.875409 h 0.213681 l 0.108402,0.348167 -0.307514,0.287076 1.313435,0.03669 0.201186,0.474389 -1.47812,-0.05504 L 13.214468,6.03725 12.353447,5.849931 A 20.848015,20.848015 0 0 0 11.47156,6.481098 h 0.514955 v 0.34411 l -0.226204,0.301239 h -1.07888 v -0.04472 a 20.848015,20.848015 0 0 0 -6.5025286,9.304794 l 0.113947,0.0542 v 1.740808 l 0.873424,1.496886 0.71259,0.109452 0.09163,-0.512853 -0.840796,-1.296742 -0.162942,-1.262362 h 0.490674 l 0.207631,1.298843 1.213449,1.773114 -0.311483,0.572273 0.771572,1.183127 1.9158251,0.476373 v -0.311687 l 0.7651215,0.109452 -0.07089,0.548313 0.600436,0.109452 0.930858,0.254346 1.313435,1.50106 1.679316,0.126131 0.162602,1.371802 -1.147697,0.804725 -0.05316,1.225853 -0.164716,0.748457 1.660551,2.084802 0.126131,0.712999 c 0,0 0.602507,0.164686 0.676519,0.164686 0.07297,0 1.349914,0.969441 1.349914,0.969441 v 3.766219 l 0.455536,0.128206 -0.309586,1.736634 0.766173,1.024685 -0.140738,1.722043 1.012166,1.783562 1.290495,1.127881 a 20.848015,20.848015 0 0 0 0.06881,0.01225 l 1.248792,0.02189 0.126131,-0.421127 -0.959021,-0.809949 0.05527,-0.403413 0.170961,-0.493067 0.03647,-0.502434 -0.649407,-0.02073 -0.328351,-0.410709 0.539966,-0.5212 0.07297,-0.390893 -0.602507,-0.173034 0.03647,-0.364831 0.856847,-0.130307 1.305089,-0.628569 0.437792,-0.804725 1.36868,-1.754349 -0.309587,-1.372795 0.419056,-0.730713 1.258188,0.03855 0.84748,-0.673396 0.275201,-2.648757 0.938155,-1.195618 0.164716,-0.769296 -0.856877,-0.275206 -0.566027,-0.92867 -1.934708,-0.0197 -1.532345,-0.586865 -0.07193,-1.094524 -0.512854,-0.89648 -1.386395,-0.01979 -0.79953,-1.260261 -0.712999,-0.348167 -0.03647,0.382576 -1.294669,0.07712 L 17.354934,22.949586 16.00607,22.675431 14.891731,23.963854 13.141526,23.666759 13.012243,21.687254 11.734267,21.469391 12.247121,20.4989 12.100135,19.941219 10.420818,21.067 9.363826,20.938799 8.987613,20.110085 9.217671,19.25636 l 0.581875,-1.074708 1.342618,-0.679641 2.589338,-0.0021 -0.0062,0.792234 0.930859,0.433648 -0.07402,-1.351986 0.670274,-0.678591 1.354087,-0.889184 0.09382,-0.627519 1.349915,-1.408282 1.434343,-0.796406 -0.12613,-0.105282 0.971512,-0.916268 0.356485,0.09278 0.164715,0.206396 0.369005,-0.41176 0.08859,-0.03857 -0.402362,-0.05733 -0.41176,-0.137598 V 11.21101 l 0.217846,-0.177209 h 0.478446 l 0.219955,0.0959 0.189706,0.384647 0.233494,-0.0344 v -0.03544 l 0.06566,0.02294 0.673395,-0.102156 0.09591,-0.329402 0.382576,0.0959 v 0.357536 l -0.354413,0.244963 0.05316,0.390893 1.217535,0.376301 c 0,0 0.0021,0.0063 0.0042,0.01669 l 0.281441,-0.02501 0.01771,-0.529548 -0.966318,-0.440943 -0.05524,-0.253301 0.801602,-0.274153 0.03543,-0.770346 -0.837119,-0.510782 -0.05525,-1.296741 -1.149768,0.566027 h -0.42002 L 21.735068,7.9959 20.171466,7.625319 19.524132,8.116081 v 1.494814 l -1.165411,0.370055 -0.465956,0.975686 -0.506608,0.08131 V 9.789167 L 16.292684,9.639061 15.745423,9.282547 15.525467,8.474379 l 1.956595,-1.148311 0.956921,-0.291141 0.09695,0.643365 0.533721,-0.02647 0.04066,-0.323653 0.557681,-0.08141 0.01042,-0.112055 -0.239742,-0.09976 -0.05527,-0.343994 0.685887,-0.05701 0.412781,-0.433648 0.02279,-0.03054 0.0062,0.002 0.126131,-0.130299 1.44164,-0.183252 0.636916,0.543613 -1.67097,0.891781 2.127528,0.502844 0.274158,-0.71259 h 0.930888 L 24.704974,6.462867 24.049293,6.297959 V 5.512088 L 21.98743,4.595909 20.564555,4.760817 19.761903,5.182266 19.817143,6.20631 18.975939,6.078092 18.847723,5.512065 l 0.804725,-0.732903 -1.460406,-0.0713 -0.419055,0.126237 -0.181374,0.492746 0.54519,0.09361 -0.10736,0.547671 -0.930859,0.05494 -0.143861,0.36454 -1.349914,0.03867 c 0,0 -0.03754,-0.767631 -0.09174,-0.767631 -0.0542,1.03e-4 1.056992,-0.01824 1.056992,-0.01824 L 17.373765,4.852461 16.935944,4.63262 16.352202,5.200631 15.384863,5.145591 Z m 22.600232,3.023482 -0.662976,0.260601 -0.42635,0.464173 0.098,0.54163 0.523271,0.07297 0.313755,0.790133 0.901678,-0.364832 0.149071,1.054921 h -0.271032 l -0.741133,-0.109452 -0.82037,0.138639 -0.794303,1.123709 -1.136226,0.179297 -0.164688,0.974634 0.480544,0.111539 -0.138624,0.627519 -1.127879,-0.226201 -1.034054,0.226201 -0.219961,0.576446 0.179278,1.21126 0.606681,0.284575 1.01844,-0.0063 0.68799,-0.06046 0.209515,-0.549334 1.074701,-1.398914 0.708825,0.143851 0.69634,-0.630641 0.130308,0.493067 1.713694,1.160188 -0.209515,0.280405 -0.77347,-0.04065 0.2971,0.422178 0.47637,0.103199 0.555608,-0.231413 -0.01166,-0.672346 0.2481,-0.124044 -0.199184,-0.211609 -1.144488,-0.638987 -0.299169,-0.849553 h 0.950678 l 0.303339,0.301269 0.818294,0.708825 0.03436,0.854776 0.84955,0.903776 0.314813,-1.239423 0.586865,-0.322106 0.109437,1.014267 0.574371,0.630641 0.266863,-0.0042 a 20.848015,20.848015 0 0 0 -3.094691,-5.278836 l -1.382218,-0.01249 -0.09383,-0.312709 0.82247,-0.420077 A 20.848015,20.848015 0 0 0 37.467969,7.458343 Z M 11.96888,7.674243 c 0.04067,0 0,0.478475 0,0.478475 l -1.082003,0.06921 -0.205352,-0.24632 0.766172,-0.219947 c 0,0 0.479497,-0.08141 0.521201,-0.08141 z m 1.314456,2.330707 0.519128,0.125087 -0.179293,0.698407 -0.561854,0.178252 -0.354413,-0.728642 z m 1.422875,1.65743 h 0.862072 v 0.262684 h 0.188664 v 0.452413 h -1.312384 l -0.490966,-0.136553 0.121967,-0.31586 z m 1.285272,0.193885 0.451362,0.410709 -0.451362,0.110495 z m 0.993399,0.630641 0.333576,0.209522 -0.26791,0.22203 -0.26476,-0.22203 z m -2.524694,0.06984 h 0.724468 l -0.929808,1.300914 -0.382546,-0.206396 0.0813,-0.547262 z m 1.164361,0 h 0.736989 v 0.43782 l -0.32733,0.21161 -0.409659,0.07714 z m 0.916267,0.480547 h 0.05527 l 0.834959,0.246007 v 0.425302 h -0.698408 l -0.191816,-0.276234 z m -0.343993,0.395065 v 0.427374 l -0.31376,0.31481 h -0.698407 l 0.110486,-0.478475 0.329402,-0.02814 0.06776,-0.164701 z m 21.702816,1.811697 -2.463203,0.190759 -0.763047,0.41176 h -0.977787 l -0.480548,-0.04901 -1.186249,0.661926 v 1.243596 l -2.428796,1.7554 0.201196,0.749479 h 0.493067 l -0.128206,0.711949 -0.346066,0.128214 -0.02072,1.86487 2.099393,2.394387 h 0.912093 l 0.05627,-0.144894 h 1.641785 l 0.472107,-0.438842 h 0.931915 l 0.508677,0.512853 1.389514,0.143849 -0.183447,1.849227 1.538586,2.723789 -0.809947,1.553182 0.05529,0.731764 0.636916,0.638988 v 1.758522 l 0.839133,1.129953 v 0.770346 a 20.848015,20.848015 0 0 0 4.808679,-13.307404 20.848015,20.848015 0 0 0 -0.886035,-5.955325 h -1.036155 l -1.066393,-0.796407 -1.121632,0.110494 v 0.685887 h -0.356517 l -0.382546,-0.275186 -1.947223,-0.494089 z"
     fill="#5d9c21"
     stroke-width="0.744576"
     id="path214" />
  <circle
     cx="23.848015"
     cy="23.229017"
     r="16.215025"
     fill="#ffffff"
     opacity="0.15"
     stroke-width="2.26989"
     style="paint-order:stroke fill markers"
     id="circle216" />
  <circle
     cx="23.848015"
     cy="23.229017"
     r="11.582327"
     fill="#ffffff"
     opacity="0.15"
     stroke-width="1.62136"
     style="paint-order:stroke fill markers"
     id="circle218" />
  <path
     d="m 34.571736,5.381717 c 1.93544,7.843542 0.968801,14.8816 -2.117367,20.744119 -3.608333,6.85449 -10.246276,12.224672 -19.148036,15.061958 a 20.848015,20.848015 0 0 0 9.361119,2.829961 C 29.377189,40.449697 34.681119,35.324663 37.990027,29.039265 40.572652,24.133403 41.877646,18.56185 41.76675,12.619367 A 20.848015,20.848015 0 0 0 34.571682,5.381688 Z"
     fill="#eab100"
     stroke-width="0.744576"
     id="path220" />
  <path
     d="m 23.848186,2.381 c -2.211684,0.0091 -4.40777,0.369993 -6.506025,1.06928 4.644513,4.240753 9.581673,12.55756 13.210803,21.69756 1.783447,4.491087 3.075108,9.23961 4.530391,13.579122 0,0 0.747796,1.483773 0.346865,-0.05429 l 2.915197,-0.464497 c 3.262047,-0.307658 3.262047,-1.079782 2.517069,-2.952876 C 39.665337,31.161178 38.236621,26.9222 36.580962,22.753334 33.577511,15.189997 30.023126,7.888575 25.566942,2.468045 24.995285,2.415735 24.421681,2.387055 23.847661,2.382085 Z"
     fill="#ffd517"
     id="path222"
     style="stroke-width:0.772157" />
  <path
     d="m 45.868934,35.613323 a 1.0203375,1.4278655 75.748 0 0 -0.41222,0.03458 l -14.172427,2.714393 a 1.0203375,1.4278655 75.748 0 0 -0.963807,0.501384 1.0203375,1.4278655 75.748 0 0 -0.04643,1.25346 l 4.136859,3.769138 4.136857,3.770888 a 1.0203375,1.4278655 75.748 0 0 2.425469,-0.465078 l 2.949349,-5.126203 2.95082,-5.127953 a 1.0203375,1.4278655 75.748 0 0 -1.00444,-1.324349 z"
     fill="#ffd517"
     stroke-width="0.772157"
     id="path224" />
</svg>
