<?xml version="1.0" encoding="UTF-8" standalone="no"?>
<svg
   width="48"
   height="48"
   version="1"
   id="svg7"
   sodipodi:docname="kahla.svg"
   inkscape:version="1.4.2 (unknown)"
   xmlns:inkscape="http://www.inkscape.org/namespaces/inkscape"
   xmlns:sodipodi="http://sodipodi.sourceforge.net/DTD/sodipodi-0.dtd"
   xmlns:xlink="http://www.w3.org/1999/xlink"
   xmlns="http://www.w3.org/2000/svg"
   xmlns:svg="http://www.w3.org/2000/svg">
  <defs
     id="defs7">
    <linearGradient
       id="linearGradient7"
       inkscape:collect="always">
      <stop
         style="stop-color:#2a7fff;stop-opacity:1"
         offset="0"
         id="stop8" />
      <stop
         style="stop-color:#1a75ff;stop-opacity:1;"
         offset="0.59162253"
         id="stop10" />
      <stop
         style="stop-color:#eff2f6;stop-opacity:1;"
         offset="0.92173076"
         id="stop11" />
      <stop
         style="stop-color:#eff2f6;stop-opacity:1;"
         offset="1"
         id="stop9" />
    </linearGradient>
    <linearGradient
       id="linearGradient1"
       inkscape:collect="always">
      <stop
         style="stop-color:#5599ff;stop-opacity:1"
         offset="0"
         id="stop5" />
      <stop
         style="stop-color:#5599ff;stop-opacity:1"
         offset="0.28848785"
         id="stop7" />
      <stop
         style="stop-color:#2a7fff;stop-opacity:1"
         offset="1"
         id="stop6" />
    </linearGradient>
    <linearGradient
       id="c-3"
       gradientUnits="userSpaceOnUse"
       x1="24.072048"
       x2="23.959682"
       y1="0.75082099"
       y2="46.056854">
      <stop
         offset="0"
         stop-color="#fff"
         id="stop3" />
      <stop
         offset="1"
         stop-color="#d9d9d9"
         id="stop4" />
    </linearGradient>
    <linearGradient
       id="b-6"
       gradientUnits="userSpaceOnUse"
       x1="29.203026"
       x2="34.121048"
       xlink:href="#a-7"
       y1="24.827356"
       y2="29.224836" />
    <linearGradient
       id="a-7">
      <stop
         offset="0"
         id="stop1" />
      <stop
         offset="1"
         stop-opacity="0"
         id="stop2" />
    </linearGradient>
    <linearGradient
       id="d"
       gradientUnits="userSpaceOnUse"
       x1="15.948756"
       x2="25.031786"
       xlink:href="#a-7"
       y1="23.618279"
       y2="33.69899" />
    <linearGradient
       id="e"
       gradientUnits="userSpaceOnUse"
       x1="21.990562"
       x2="29.320522"
       xlink:href="#a-7"
       y1="33.780373"
       y2="41.931858" />
    <linearGradient
       id="paint154_linear_890_11"
       x1="778"
       y1="812.29199"
       x2="788"
       y2="812.29199"
       gradientUnits="userSpaceOnUse"
       gradientTransform="translate(-751,-696)">
      <stop
         stop-color="#EFF2F6"
         id="stop1050" />
      <stop
         offset="0.600785"
         stop-color="#B7C6CD"
         id="stop1051" />
    </linearGradient>
    <linearGradient
       id="paint155_linear_890_11"
       x1="783"
       y1="813"
       x2="783"
       y2="817"
       gradientUnits="userSpaceOnUse"
       gradientTransform="translate(-751,-696)">
      <stop
         stop-color="#EFF2F6"
         id="stop1052" />
      <stop
         offset="0.734138"
         stop-color="#B7C6CD"
         id="stop1053" />
    </linearGradient>
    <radialGradient
       id="paint156_radial_890_11"
       cx="0"
       cy="0"
       r="1"
       gradientUnits="userSpaceOnUse"
       gradientTransform="matrix(27.999986,27.999976,-27.999986,27.999976,32.302392,33.999998)">
      <stop
         offset="0.60067803"
         stop-color="#B7C6CD"
         id="stop1054"
         style="stop-color:#384850;stop-opacity:1;" />
      <stop
         offset="0.876735"
         stop-color="#EFF2F6"
         id="stop1055" />
    </radialGradient>
    <linearGradient
       id="paint157_linear_890_11"
       x1="796.84485"
       y1="799.43359"
       x2="768.90088"
       y2="770.81476"
       gradientUnits="userSpaceOnUse"
       gradientTransform="matrix(1.1666666,0,0,1.1666668,-881.19764,-881.8333)">
      <stop
         offset="0.00000057"
         stop-color="#2E2E41"
         id="stop1056"
         style="stop-color:#495361;stop-opacity:1;" />
      <stop
         offset="0.711139"
         stop-color="#566C80"
         id="stop1057" />
    </linearGradient>
    <linearGradient
       id="paint158_linear_890_11"
       x1="792"
       y1="794"
       x2="774"
       y2="776"
       gradientUnits="userSpaceOnUse"
       gradientTransform="translate(-751,-696)">
      <stop
         offset="0.304478"
         stop-color="#2E2E41"
         id="stop1058" />
      <stop
         offset="1"
         stop-color="#566C80"
         id="stop1059" />
    </linearGradient>
    <linearGradient
       id="paint159_linear_890_11"
       x1="788"
       y1="790"
       x2="778"
       y2="780"
       gradientUnits="userSpaceOnUse"
       gradientTransform="translate(-751,-696)">
      <stop
         offset="0.391394"
         stop-color="#5200FF"
         id="stop1060" />
      <stop
         offset="1"
         stop-color="#0085FF"
         id="stop1061" />
    </linearGradient>
    <linearGradient
       id="paint160_linear_890_11"
       x1="784"
       y1="798"
       x2="782"
       y2="796"
       gradientUnits="userSpaceOnUse"
       gradientTransform="translate(-751,-696)">
      <stop
         stop-color="#FF7E07"
         id="stop1062" />
      <stop
         offset="1"
         stop-color="#FFE607"
         id="stop1063" />
    </linearGradient>
    <linearGradient
       inkscape:collect="always"
       xlink:href="#linearGradient1"
       id="linearGradient6"
       x1="17.408081"
       y1="16.037786"
       x2="49.155514"
       y2="50.137749"
       gradientUnits="userSpaceOnUse"
       gradientTransform="matrix(1.3333333,0,0,1.3333333,-2.7365163,-5)" />
    <radialGradient
       inkscape:collect="always"
       xlink:href="#linearGradient7"
       id="radialGradient9"
       cx="25.302387"
       cy="34"
       fx="25.302387"
       fy="34"
       r="28"
       gradientUnits="userSpaceOnUse"
       gradientTransform="matrix(1,0.99999999,-0.99999994,0.99999994,39.697613,-28.302387)" />
    <linearGradient
       id="c-3-6"
       gradientUnits="userSpaceOnUse"
       x1="24.072048"
       x2="23.959682"
       y1="0.75082099"
       y2="46.056854"
       gradientTransform="matrix(0.91471346,0,0,0.90068147,9.0468769,9.3836444)">
      <stop
         offset="0"
         stop-color="#fff"
         id="stop3-2" />
      <stop
         offset="1"
         stop-color="#d9d9d9"
         id="stop4-9" />
    </linearGradient>
    <linearGradient
       id="b-6-1"
       gradientUnits="userSpaceOnUse"
       x1="29.203026"
       x2="34.121048"
       xlink:href="#a-7"
       y1="24.827356"
       y2="29.224836"
       gradientTransform="matrix(1.1104534,0,0,1.0934187,4.3491158,4.7861435)" />
    <linearGradient
       id="d-0"
       gradientUnits="userSpaceOnUse"
       x1="15.948756"
       x2="25.031786"
       xlink:href="#a-7"
       y1="23.618279"
       y2="33.69899"
       gradientTransform="matrix(1.1104534,0,0,1.0934187,4.3491158,4.7861435)" />
    <linearGradient
       id="e-9"
       gradientUnits="userSpaceOnUse"
       x1="21.990562"
       x2="29.320522"
       xlink:href="#a-7"
       y1="33.780373"
       y2="41.931858"
       gradientTransform="matrix(1.1104534,0,0,1.0934187,4.3491158,4.7861435)" />
    <linearGradient
       id="linearGradient773"
       gradientTransform="matrix(2.0428665,-6.8308524,5.7819337,2.3633129,-33.356582,5.3194785)"
       gradientUnits="userSpaceOnUse"
       x1="24"
       x2="24"
       y1="35"
       y2="13">
      <stop
         offset="0"
         stop-color="#cd7223"
         id="stop224-5"
         style="stop-color:#ffb380;stop-opacity:1" />
      <stop
         offset=".53"
         stop-color="#f48e00"
         id="stop226-3" />
      <stop
         offset="1"
         stop-color="#ffa92d"
         id="stop228-5" />
    </linearGradient>
  </defs>
  <sodipodi:namedview
     id="namedview7"
     pagecolor="#ffffff"
     bordercolor="#000000"
     borderopacity="0.25"
     inkscape:showpageshadow="2"
     inkscape:pageopacity="0.0"
     inkscape:pagecheckerboard="0"
     inkscape:deskcolor="#d1d1d1"
     inkscape:zoom="8.3306018"
     inkscape:cx="30.429974"
     inkscape:cy="36.491961"
     inkscape:window-width="1920"
     inkscape:window-height="996"
     inkscape:window-x="0"
     inkscape:window-y="0"
     inkscape:window-maximized="1"
     inkscape:current-layer="svg7" />
  <g
     id="g2"
     transform="matrix(0.75,0,0,0.75,0.75000002,0.75)"
     style="stroke-width:1.33333">
    <path
       d="M 59,31 C 59,46.46415 46.464172,59 30.999998,59 15.535835,59 3.0000001,46.46415 3.0000001,31 3.0000001,15.535835 15.535835,3 30.999998,3 46.464172,3 59,15.535835 59,31 Z"
       id="path154"
       style="fill:url(#radialGradient9);stroke-width:1.33333" />
    <path
       d="m 54.333333,31 c 0,12.88701 -10.446332,23.33332 -23.333335,23.33332 C 18.112999,54.33332 7.6666671,43.88701 7.6666671,31 7.6666671,18.113006 18.112999,7.666668 30.999998,7.666668 43.887001,7.666668 54.333333,18.113006 54.333333,31 Z"
       id="path155"
       style="fill:url(#linearGradient6);stroke-width:1.33333" />
    <g
       id="g1"
       transform="translate(-2.9094331,-61.508866)"
       style="stroke-width:1.33333">
      <path
         style="opacity:0.1;stroke-width:1.33333"
         d="m 25.825379,112.71941 c -0.7823,-0.99654 -1.452756,-3.04337 -1.758854,-5.36954 -0.16836,-1.27955 -0.207644,-3.78992 -0.0867,-4.85135 0.11588,-1.89855 1.284888,-3.129233 2.284402,-4.681747 0.03096,-0.0013 0.18238,0.13088 0.33651,0.2937 0.15416,0.16286 0.394544,0.36998 0.534202,0.460312 0.785392,0.507988 2.550084,0.518164 3.376872,0.02426 0.447112,-0.26709 1.041482,-1.212146 1.251544,-1.989946 0.1517,-0.56172 0.13936,-1.093982 -0.02524,-1.682458 -0.352068,-1.258804 -1.34239,-2.599502 -2.329504,-3.272846 -0.606284,-0.413564 -1.683236,-0.574088 -2.866402,-0.729498 -0.32865,-0.0432 -0.339032,-0.04986 -0.407836,-0.264238 -0.15976,-0.497716 -0.205472,-1.539114 -0.13594,-3.096352 0.04206,-0.9421 0.06816,-3.89335 0.07024,-7.947175 0.0019,-3.546707 0.02226,-6.497682 0.0453,-6.557725 0.0352,-0.09147 0.07034,-0.05799 0.216754,0.206471 0.260952,0.471318 0.4349,0.919112 0.897392,2.31016 0.230604,0.693576 0.516044,1.472078 0.634322,1.730001 0.298842,0.651696 0.833482,1.430634 2.055556,2.994857 1.584206,2.027731 2.493576,3.481015 2.064458,3.299247 -0.833794,-0.353182 -1.806184,-0.202536 -2.252108,0.348928 -0.583478,0.721562 -0.757182,1.561784 -0.519082,2.510792 0.221886,0.88435 0.76048,1.727176 1.6764,2.62332 0.53878,0.527134 2.39503,1.425772 2.567516,1.42514 0.12354,-4.16e-4 0.705764,-0.507718 0.873764,-0.761258 0.461962,-0.697182 0.468126,-1.476833 0.0192,-3.105607 -0.0908,-0.32958 -0.15054,-0.62325 -0.13268,-0.6526 0.07062,-0.11644 0.308258,-0.03812 0.8986,0.296168 0.832864,0.471632 1.240226,0.776382 1.656196,1.239002 0.76038,0.845666 1.182216,1.947191 1.182216,3.627343 0,0.308206 -0.02074,0.560372 -0.04614,0.560372 -0.02536,0 -0.16034,-0.1115 -0.299896,-0.247812 -0.272478,-0.26614 -0.669346,-0.423086 -0.912532,-0.360866 -0.16646,0.04262 -0.46254,0.287636 -0.550878,0.455888 -0.361312,0.688186 0.595892,1.875249 1.429076,2.308539 0.521592,0.271248 1.22104,0.19434 2.019878,-0.222098 2.134236,-1.112592 2.293656,-3.281343 2.171132,-5.745593 -0.0186,-0.381442 -0.12574,-1.233898 -0.237284,-1.89435 -0.290678,-1.721124 -0.29669,-1.762738 -0.266168,-1.843822 0.0902,-0.23961 0.305534,0.04138 0.949748,1.23951 1.035536,1.925876 1.622488,3.877552 1.69099,5.622756 0.0519,1.322322 -0.11648,2.327508 -0.69573,4.152768 -0.200604,0.63216 -0.401064,1.207418 -0.445456,1.278348 -0.05658,0.0905 -0.13534,0.12896 -0.263706,0.12896 -0.232578,0 -0.393798,0.11538 -0.509978,0.364936 -0.1412,0.30339 -0.122,0.43738 0.06294,0.438432 0.284632,0.0013 0.320134,0.06502 0.215768,0.385334 -0.05112,0.15674 -0.16742,0.404824 -0.258516,0.55126 -0.15644,0.251466 -0.17952,0.266258 -0.415328,0.266258 -0.368232,0 -0.414916,0.0346 -0.62727,0.46439 -0.279738,0.566242 -0.254602,0.682018 0.14806,0.682018 0.206584,0 0.20639,0.0672 -0.0013,0.332951 -0.09082,0.11638 -0.322538,0.52113 -0.514976,0.89944 -0.41593,0.8177 -0.697716,1.2366 -1.349466,2.00615 -1.101474,1.30055 -2.599282,2.60272 -4.465888,3.88259 -0.432636,0.29664 -0.99264,0.6856 -1.244466,0.86436 -0.89287,0.63381 -1.71763,0.91526 -1.196638,0.40835 0.408934,-0.39788 1.154956,-1.91437 1.415504,-2.88946 0.209456,-1.01482 0.15732,-1.3903 -0.158,-2.05363 -0.636578,-1.2288 -1.453496,-1.27361 -2.354264,-1.01582 -2.20819,0.63198 -4.067246,3.39988 -4.671632,6.37088 -0.20306,0.9982 -0.309042,1.98301 -0.353424,3.28416 -0.02374,0.69578 -0.06274,1.17692 -0.09616,1.18647 -0.03096,0.009 -0.164,-0.12118 -0.295724,-0.28902 z"
         id="path2" />
      <path
         style="fill:#e8f2fd;fill-opacity:1;stroke-width:1.33333"
         d="m 25.825379,111.71941 c -0.7823,-0.99654 -1.452756,-3.04337 -1.758854,-5.36954 -0.16836,-1.27955 -0.207644,-3.78992 -0.0867,-4.85135 0.11588,-1.898551 1.284888,-3.129233 2.284402,-4.681747 0.03096,-0.0013 0.18238,0.13088 0.33651,0.2937 0.15416,0.16286 0.394544,0.36998 0.534202,0.460312 0.785392,0.507988 2.550084,0.518164 3.376872,0.02426 0.447112,-0.26709 1.041482,-1.212146 1.251544,-1.989946 0.1517,-0.56172 0.13936,-1.093982 -0.02524,-1.682458 -0.352068,-1.258804 -1.34239,-2.599502 -2.329504,-3.272846 -0.606284,-0.413564 -1.683236,-0.574088 -2.866402,-0.729498 -0.32865,-0.0432 -0.339032,-0.04986 -0.407836,-0.264238 -0.15976,-0.497716 -0.205472,-1.539114 -0.13594,-3.096352 0.04206,-0.9421 0.06816,-3.89335 0.07024,-7.947175 0.0019,-3.546707 0.02226,-6.497682 0.0453,-6.557725 0.0352,-0.09147 0.07034,-0.05799 0.216754,0.206471 0.260952,0.471318 0.4349,0.919112 0.897392,2.31016 0.230604,0.693576 0.516044,1.472078 0.634322,1.730001 0.298842,0.651696 0.833482,1.430634 2.055556,2.994857 1.584206,2.027731 2.493576,3.481015 2.064458,3.299247 -0.833794,-0.353182 -1.806184,-0.202536 -2.252108,0.348928 -0.583478,0.721562 -0.757182,1.561784 -0.519082,2.510792 0.221886,0.88435 0.76048,1.727176 1.6764,2.62332 0.53878,0.527134 2.39503,1.425772 2.567516,1.42514 0.12354,-4.16e-4 0.705764,-0.507718 0.873764,-0.761258 0.461962,-0.697182 0.468126,-1.476833 0.0192,-3.105607 -0.0908,-0.32958 -0.15054,-0.62325 -0.13268,-0.6526 0.07062,-0.11644 0.308258,-0.03812 0.8986,0.296168 0.832864,0.471632 1.240226,0.776382 1.656196,1.239002 0.76038,0.845666 1.182216,1.947191 1.182216,3.627343 0,0.308206 -0.02074,0.560372 -0.04614,0.560372 -0.02536,0 -0.16034,-0.1115 -0.299896,-0.247812 -0.272478,-0.26614 -0.669346,-0.423086 -0.912532,-0.360866 -0.16646,0.04262 -0.46254,0.287636 -0.550878,0.455888 -0.361312,0.688186 0.595892,1.875249 1.429076,2.308539 0.521592,0.271248 1.22104,0.19434 2.019878,-0.222098 2.134236,-1.112592 2.293656,-3.281343 2.171132,-5.745593 -0.0186,-0.381442 -0.12574,-1.233898 -0.237284,-1.89435 -0.290678,-1.721124 -0.29669,-1.762738 -0.266168,-1.843822 0.0902,-0.23961 0.305534,0.04138 0.949748,1.23951 1.035536,1.925876 1.622488,3.877552 1.69099,5.622756 0.0519,1.322322 -0.11648,2.327508 -0.69573,4.152768 -0.200604,0.63216 -0.401064,1.207418 -0.445456,1.278348 -0.05658,0.0905 -0.13534,0.12896 -0.263706,0.12896 -0.232578,0 -0.393798,0.11538 -0.509978,0.364936 -0.1412,0.30339 -0.122,0.43738 0.06294,0.438432 0.284632,0.0013 0.320134,0.06502 0.215768,0.385334 -0.05112,0.15674 -0.16742,0.404824 -0.258516,0.55126 -0.15644,0.251466 -0.17952,0.266258 -0.415328,0.266258 -0.368232,0 -0.414916,0.0346 -0.62727,0.46439 -0.279738,0.566242 -0.254602,0.682018 0.14806,0.682018 0.206584,0 0.20639,0.0672 -0.0013,0.33295 -0.09082,0.11638 -0.322538,0.521126 -0.514976,0.899444 -0.41593,0.817697 -0.697716,1.236597 -1.349466,2.006147 -1.101474,1.30055 -2.599282,2.60272 -4.465888,3.88259 -0.432636,0.29664 -0.99264,0.6856 -1.244466,0.86436 -0.89287,0.63381 -1.71763,0.91526 -1.196638,0.40835 0.408934,-0.39788 1.154956,-1.91437 1.415504,-2.88946 0.209456,-1.01482 0.15732,-1.3903 -0.158,-2.05363 -0.636578,-1.2288 -1.453496,-1.27361 -2.354264,-1.01582 -2.20819,0.63198 -4.067246,3.39988 -4.671632,6.37088 -0.20306,0.9982 -0.309042,1.98301 -0.353424,3.28416 -0.02374,0.69578 -0.06274,1.17692 -0.09616,1.18647 -0.03096,0.009 -0.164,-0.12118 -0.295724,-0.28902 z"
         id="path3" />
    </g>
  </g>
</svg>
