<?xml version="1.0" encoding="UTF-8" standalone="no"?>
<svg
   width="48"
   height="48"
   version="1.1"
   id="svg370"
   sodipodi:docname="kalgebra.svg"
   inkscape:version="1.2.1 (9c6d41e410, 2022-07-14)"
   xmlns:inkscape="http://www.inkscape.org/namespaces/inkscape"
   xmlns:sodipodi="http://sodipodi.sourceforge.net/DTD/sodipodi-0.dtd"
   xmlns="http://www.w3.org/2000/svg"
   xmlns:svg="http://www.w3.org/2000/svg">
  <sodipodi:namedview
     id="namedview372"
     pagecolor="#ffffff"
     bordercolor="#666666"
     borderopacity="1.0"
     inkscape:showpageshadow="2"
     inkscape:pageopacity="0.0"
     inkscape:pagecheckerboard="0"
     inkscape:deskcolor="#d1d1d1"
     showgrid="false"
     inkscape:zoom="9.8333333"
     inkscape:cx="22.779661"
     inkscape:cy="15.457627"
     inkscape:window-width="1920"
     inkscape:window-height="1009"
     inkscape:window-x="0"
     inkscape:window-y="0"
     inkscape:window-maximized="1"
     inkscape:current-layer="svg370" />
  <defs
     id="defs344">
    <linearGradient
       id="a"
       y1="543.8"
       y2="503.8"
       gradientUnits="userSpaceOnUse"
       x2="0"
       gradientTransform="matrix(1,0,0,0.9,-468.15012,-502.21164)">
      <stop
         stop-color="#e3dfd6"
         id="stop319" />
      <stop
         offset="1"
         stop-color="#f4f1e8"
         id="stop321" />
    </linearGradient>
    <linearGradient
       id="b"
       y1="543.8"
       y2="503.8"
       x2="0"
       gradientUnits="userSpaceOnUse"
       gradientTransform="matrix(1.125,0,0,1,-435.64001,-499.79999)">
      <stop
         stop-color="#343b40"
         id="stop324" />
      <stop
         offset="1"
         stop-color="#555e63"
         id="stop326" />
    </linearGradient>
    <linearGradient
       id="c"
       y1="542.8"
       y2="504.8"
       x2="0"
       gradientUnits="userSpaceOnUse"
       gradientTransform="translate(-384.57001,-499.79999)">
      <stop
         stop-color="#2a2c2f"
         id="stop329" />
      <stop
         offset="1"
         stop-color="#424649"
         id="stop331" />
    </linearGradient>
    <linearGradient
       id="d"
       y1="528.8"
       x1="413.57"
       y2="533.8"
       x2="418.57"
       gradientUnits="userSpaceOnUse"
       gradientTransform="translate(-384.57001,-499.79999)">
      <stop
         stop-color="#bdb49e"
         stop-opacity=".259"
         id="stop334" />
      <stop
         offset="1"
         stop-color="#bdb49e"
         stop-opacity="0"
         id="stop336" />
    </linearGradient>
    <linearGradient
       id="e"
       y1="531.8"
       x1="414.57"
       y2="543.8"
       x2="426.57"
       gradientUnits="userSpaceOnUse"
       gradientTransform="translate(-384.57001,-499.79999)">
      <stop
         stop-color="#383e51"
         id="stop339" />
      <stop
         offset="1"
         stop-color="#655c6f"
         stop-opacity="0"
         id="stop341" />
    </linearGradient>
    <linearGradient
       gradientTransform="matrix(1.0499636,0,0,1.0499041,-452.98486,-525.93779)"
       gradientUnits="userSpaceOnUse"
       x2="426.69501"
       y2="499.92099"
       y1="547.67499"
       id="a-6"
       x1="389.32001">
      <stop
         stop-color="#18222a"
         style="stop-color:#1e2b35;stop-opacity:1"
         id="stop216" />
      <stop
         stop-color="#566069"
         offset="1"
         style="stop-color:#6d7983;stop-opacity:1"
         id="stop218" />
    </linearGradient>
  </defs>
  <rect
     width="41.99855"
     x="-44.999275"
     y="3.0039377"
     rx="20.999275"
     height="41.99617"
     transform="scale(-1,1)"
     style="display:inline;fill:url(#a-6);stroke-width:2.93982;stroke-opacity:0.55"
     id="rect223"
     ry="20.998085" />
  <path
     style="display:inline;opacity:0.3;fill:#000000;fill-opacity:1;stroke-width:2.93982;stroke-opacity:0.55"
     d="m 3.0121995,23.477117 c -0.0042,0.175027 -0.0126,0.349055 -0.0126,0.525082 0,11.633028 9.3656975,20.998099 20.9992155,20.998099 11.63353,0 20.99937,-9.365071 20.99937,-20.998099 0,-0.176027 -0.008,-0.349055 -0.0126,-0.525082 -0.2773,11.388289 -9.53376,20.473116 -20.98676,20.473116 -11.457195,0 -20.7094525,-9.084827 -20.9866105,-20.473116"
     id="path225" />
  <path
     d="m 3.0121995,24.523181 c -0.0042,-0.175027 -0.0126,-0.348055 -0.0126,-0.525082 C 2.9995995,12.365171 12.365297,3 23.998815,3 c 11.63353,0 20.99937,9.365171 20.99937,20.998099 0,0.176027 -0.008,0.350055 -0.0126,0.525082 -0.2773,-11.388289 -9.53376,-20.473116 -20.98676,-20.473116 -11.457195,0 -20.7094525,9.084827 -20.9866105,20.473116"
     style="display:inline;opacity:0.3;fill:#ffffff;fill-opacity:1;stroke-width:2.93982;stroke-opacity:0.55"
     id="path229" />
  <rect
     width="0.79761666"
     x="12.867325"
     opacity="0.4"
     y="7.244"
     fill="#da4453"
     height="33.608002"
     id="rect352-3"
     style="stroke-width:0.986878;opacity:1" />
  <rect
     width="28.471001"
     x="9.8673248"
     opacity="0.4"
     y="9.7436972"
     fill="#007ad9"
     height="0.94198269"
     id="rect354-6"
     style="stroke-width:0.982884;opacity:1" />
  <path
     fill="#bdb49e"
     d="m 17.867315,14.743711 v 2 h 0.008 l 4.592,7.949 -4.6,7.965 v 2.086 h 16 v -4 h -2 v 2 h -11.738 l 4.646,-8.05 v -0.002 l -4.59,-7.949 h 9.682 v 1 h 2 v -3 h -12.836 z"
     id="path358-7" />
</svg>
