<?xml version="1.0" encoding="UTF-8" standalone="no"?>
<svg
   width="48"
   height="48"
   version="1.1"
   id="svg4857"
   sodipodi:docname="calligrakarbon.svg"
   inkscape:version="1.2.1 (9c6d41e410, 2022-07-14)"
   xmlns:inkscape="http://www.inkscape.org/namespaces/inkscape"
   xmlns:sodipodi="http://sodipodi.sourceforge.net/DTD/sodipodi-0.dtd"
   xmlns:xlink="http://www.w3.org/1999/xlink"
   xmlns="http://www.w3.org/2000/svg"
   xmlns:svg="http://www.w3.org/2000/svg">
  <sodipodi:namedview
     id="namedview4859"
     pagecolor="#ffffff"
     bordercolor="#666666"
     borderopacity="1.0"
     inkscape:showpageshadow="2"
     inkscape:pageopacity="0.0"
     inkscape:pagecheckerboard="0"
     inkscape:deskcolor="#d1d1d1"
     showgrid="false"
     inkscape:zoom="4.9166667"
     inkscape:cx="24"
     inkscape:cy="24.101695"
     inkscape:window-width="1920"
     inkscape:window-height="1000"
     inkscape:window-x="0"
     inkscape:window-y="0"
     inkscape:window-maximized="1"
     inkscape:current-layer="svg4857" />
  <defs
     id="defs4813">
    <linearGradient
       id="a"
       y1="45"
       y2="13"
       x2="0"
       gradientUnits="userSpaceOnUse">
      <stop
         stop-color="#663579"
         id="stop4782" />
      <stop
         offset="1"
         stop-color="#16a085"
         id="stop4784" />
    </linearGradient>
    <linearGradient
       id="b"
       y1="14.849"
       y2="26.16"
       x2="0"
       gradientUnits="userSpaceOnUse">
      <stop
         id="stop4787" />
      <stop
         offset="1"
         stop-opacity="0"
         id="stop4789" />
    </linearGradient>
    <linearGradient
       xlink:href="#b"
       id="c"
       y1="31.885"
       y2="44.48"
       x2="0"
       gradientUnits="userSpaceOnUse" />
    <linearGradient
       xlink:href="#b"
       id="d"
       y1="36.77"
       y2="48.08"
       x2="0"
       gradientUnits="userSpaceOnUse" />
    <linearGradient
       xlink:href="#b"
       id="e"
       y1="24.02"
       x1="18.19"
       y2="40.19"
       x2="34.36"
       gradientUnits="userSpaceOnUse" />
    <linearGradient
       id="f"
       y1="42.827"
       y2="4.113"
       x2="0"
       gradientUnits="userSpaceOnUse"
       gradientTransform="matrix(1.0499999,0,0,1.0499999,-1.1999973,-1.1999973)">
      <stop
         stop-color="#c6cdd1"
         id="stop4795" />
      <stop
         offset="1"
         stop-color="#e0e5e7"
         id="stop4797" />
    </linearGradient>
    <linearGradient
       id="g"
       x1="8.213"
       x2="40.551"
       gradientUnits="userSpaceOnUse">
      <stop
         stop-color="#1d1e1e"
         id="stop4800" />
      <stop
         offset="1"
         stop-color="#2c2f32"
         id="stop4802" />
    </linearGradient>
    <linearGradient
       id="h"
       x1="7"
       x2="11"
       gradientUnits="userSpaceOnUse"
       gradientTransform="translate(-21-3)">
      <stop
         stop-color="#1d1e1e"
         id="stop4805" />
      <stop
         offset="1"
         stop-color="#44484c"
         id="stop4807" />
    </linearGradient>
    <linearGradient
       xlink:href="#h"
       id="i"
       x1="23"
       x2="28"
       gradientUnits="userSpaceOnUse"
       gradientTransform="translate(-45,6)" />
    <linearGradient
       xlink:href="#h"
       id="j"
       x1="19"
       x2="25"
       gradientUnits="userSpaceOnUse"
       gradientTransform="translate(-52,-8)" />
    <linearGradient
       xlink:href="#h"
       id="k"
       x1="34"
       x2="42"
       gradientUnits="userSpaceOnUse"
       gradientTransform="translate(-73,3)" />
    <linearGradient
       inkscape:collect="always"
       xlink:href="#b"
       id="linearGradient4978"
       gradientUnits="userSpaceOnUse"
       y1="14.849"
       x2="0"
       y2="26.16" />
    <linearGradient
       inkscape:collect="always"
       xlink:href="#h"
       id="linearGradient4980"
       gradientUnits="userSpaceOnUse"
       gradientTransform="translate(-21,-3)"
       x1="7"
       x2="11" />
  </defs>
  <circle
     fill="url(#f)"
     cx="23.999998"
     cy="23.999998"
     stroke-linejoin="bevel"
     r="20.999998"
     stroke-linecap="round"
     stroke-width="2.1"
     id="circle4815"
     style="fill:url(#f)" />
  <g
     fill-rule="evenodd"
     id="g4825"
     transform="matrix(1.05,0,0,1.05,-1.1999973,-1.1999973)">
    <path
       opacity="0.2"
       fill="url(#e)"
       d="M 24.426,16 12,31 24.965,43.965 A 20,20 0 0 0 41.701328,33.275547 Z"
       id="path4817"
       style="fill:url(#e)" />
    <path
       fill="url(#a)"
       d="M 8.235,11.732 C 5.499,15.237 4.008,19.554 4,24 4,35.05 12.954,44 24,44 30.631,43.999 36.831,40.711 40.552,35.222 38.301,35.195 23.846,34.861 21.956,30.134 19.911,25.022 27.068,24 26.045,18.888 24.765,12.488 12.386,11.781 8.235,11.731"
       id="path4819"
       style="fill:url(#a)" />
    <path
       fill="#4f2c60"
       d="M 4.02,23.639 C 4.018,23.76 4.005,23.879 4.004,24 c 0,11.05 8.954,20 20,20 6.631,-10e-4 12.83,-3.288 16.551,-8.777 C 40.409,35.221 40.087,35.211 39.844,35.205 36.073,40.1 30.229,42.999 24.004,43 13.172,43 4.358,34.388 4.02,23.639"
       id="path4821" />
    <path
       fill="url(#g)"
       d="m 8.234,11.732 c -0.007,0.01 -0.014,0.02 -0.021,0.029 4.798,0.144 15.634,1.137 16.832,7.127 1.022,5.112 -6.179,6.09 -4.134,11.202 1.891,4.726 16.838,6.883 19.09,6.909 l 0.551,-1.777 C 38.301,35.195 23.847,34.861 21.956,30.134 19.911,25.022 27.068,24 26.046,18.888 24.766,12.488 12.386,11.781 8.235,11.732"
       id="path4823"
       style="fill:url(#g)" />
  </g>
  <g
     stroke-linejoin="bevel"
     stroke-width="2"
     id="g4855"
     transform="matrix(1.05,0,0,1.05,-1.1999973,-1.1999973)">
    <g
       stroke-linecap="round"
       id="g4837">
      <rect
         width="4"
         x="-4.1199999"
         opacity="0.2"
         y="14.85"
         fill="url(#b)"
         height="15"
         transform="rotate(-45)"
         id="rect4827"
         style="fill:url(#linearGradient4978)" />
      <circle
         fill="url(#h)"
         cx="-12"
         cy="9"
         r="2"
         transform="rotate(-90)"
         id="circle4829"
         style="fill:url(#linearGradient4980)" />
      <circle
         fill="#ffffff"
         cx="9"
         cy="12"
         r="1"
         id="circle4831" />
      <rect
         width="6"
         x="-8.6599998"
         opacity="0.2"
         y="36.77"
         fill="url(#d)"
         height="12"
         transform="rotate(-45)"
         id="rect4833"
         style="fill:url(#d)" />
      <circle
         fill="url(#j)"
         cx="-30"
         cy="22"
         r="3"
         transform="rotate(-90)"
         id="circle4835"
         style="fill:url(#j)" />
    </g>
    <path
       opacity="0.2"
       fill="url(#c)"
       d="m 1.743,31.82 h 5 v 14 h -5 z"
       transform="rotate(-45)"
       id="path4839"
       style="fill:url(#c)" />
    <g
       stroke-linecap="round"
       id="g4853">
      <circle
         fill="url(#i)"
         cx="-19.5"
         cy="25.5"
         r="2.5"
         transform="rotate(-90)"
         id="circle4841"
         style="fill:url(#i)" />
      <g
         fill="#ffffff"
         id="g4847">
        <circle
           cx="25.5"
           cy="19.5"
           r="1.5"
           id="circle4843" />
        <circle
           cx="22"
           cy="30"
           r="2"
           id="circle4845" />
      </g>
      <circle
         fill="url(#k)"
         cx="-35"
         cy="38"
         r="4"
         transform="rotate(-90)"
         id="circle4849"
         style="fill:url(#k)" />
      <circle
         fill="#ffffff"
         cx="38"
         cy="35"
         r="3"
         id="circle4851" />
    </g>
  </g>
</svg>
