<?xml version="1.0" encoding="UTF-8" standalone="no"?>
<svg
   version="1.1"
   viewBox="0 0 48 48"
   height="48"
   width="48"
   id="svg52"
   sodipodi:docname="kblackbox.svg"
   inkscape:version="1.2.1 (9c6d41e410, 2022-07-14)"
   xmlns:inkscape="http://www.inkscape.org/namespaces/inkscape"
   xmlns:sodipodi="http://sodipodi.sourceforge.net/DTD/sodipodi-0.dtd"
   xmlns:xlink="http://www.w3.org/1999/xlink"
   xmlns="http://www.w3.org/2000/svg"
   xmlns:svg="http://www.w3.org/2000/svg">
  <sodipodi:namedview
     id="namedview54"
     pagecolor="#ffffff"
     bordercolor="#666666"
     borderopacity="1.0"
     inkscape:showpageshadow="2"
     inkscape:pageopacity="0.0"
     inkscape:pagecheckerboard="0"
     inkscape:deskcolor="#d1d1d1"
     showgrid="false"
     inkscape:zoom="4.9166667"
     inkscape:cx="24"
     inkscape:cy="24"
     inkscape:window-width="1920"
     inkscape:window-height="1009"
     inkscape:window-x="0"
     inkscape:window-y="0"
     inkscape:window-maximized="1"
     inkscape:current-layer="svg52" />
  <defs
     id="defs34">
    <linearGradient
       id="linearGradient4180">
      <stop
         style="stop-color:#172525;stop-opacity:1"
         offset="0"
         id="stop2" />
      <stop
         style="stop-color:#354848;stop-opacity:1"
         offset="1"
         id="stop4" />
    </linearGradient>
    <linearGradient
       id="linearGradient4174">
      <stop
         style="stop-color:#172525;stop-opacity:1"
         offset="0"
         id="stop7" />
      <stop
         style="stop-color:#394d4d;stop-opacity:1"
         offset="1"
         id="stop9" />
    </linearGradient>
    <linearGradient
       id="linearGradient4456">
      <stop
         style="stop-color:#000000;stop-opacity:1;"
         offset="0"
         id="stop12" />
      <stop
         style="stop-color:#000000;stop-opacity:0;"
         offset="1"
         id="stop14" />
    </linearGradient>
    <linearGradient
       id="linearGradient4432">
      <stop
         style="stop-color:#eff1f1;stop-opacity:1"
         offset="0"
         id="stop17" />
      <stop
         style="stop-color:#6f8181;stop-opacity:1"
         offset="1"
         id="stop19" />
    </linearGradient>
    <linearGradient
       id="linearGradient4211">
      <stop
         offset="0"
         style="stop-color:#172525;stop-opacity:1"
         id="stop22" />
      <stop
         offset="1"
         style="stop-color:#334545;stop-opacity:1"
         id="stop24" />
    </linearGradient>
    <linearGradient
       gradientUnits="userSpaceOnUse"
       y2="9.136"
       x2=".204"
       y1="42.16"
       x1="42.961"
       id="linearGradient4217"
       xlink:href="#linearGradient4180" />
    <linearGradient
       gradientUnits="userSpaceOnUse"
       y2="25.25"
       x2="13.173"
       y1="59.821"
       x1="39.597"
       id="linearGradient4225"
       xlink:href="#linearGradient4174"
       gradientTransform="translate(81.35929,-18.621466)" />
    <linearGradient
       gradientUnits="userSpaceOnUse"
       y2="9.673"
       x2="11.236"
       y1="31.12"
       x1="36.447"
       id="linearGradient4233"
       xlink:href="#linearGradient4211" />
    <linearGradient
       gradientTransform="matrix(0.97222222,0,0,0.975,0.66666667,0.6)"
       y2="21.905"
       x2="5.928"
       y1="34.488"
       x1="21.796"
       gradientUnits="userSpaceOnUse"
       id="linearGradient4241"
       xlink:href="#linearGradient4211" />
    <linearGradient
       xlink:href="#linearGradient4432"
       id="linearGradient4438"
       x1="8.808"
       y1="15.038"
       x2="17.168"
       y2="35.845"
       gradientUnits="userSpaceOnUse"
       gradientTransform="translate(81.35929,-18.621466)" />
    <linearGradient
       xlink:href="#linearGradient4456"
       id="linearGradient4470"
       x1="8.662"
       y1="20"
       x2="14.783"
       y2="26.122"
       gradientUnits="userSpaceOnUse"
       gradientTransform="translate(81.35929,-18.621466)" />
    <linearGradient
       xlink:href="#linearGradient4456"
       id="linearGradient4481"
       x1="13.076"
       y1="32.974"
       x2="19.142"
       y2="43.481"
       gradientUnits="userSpaceOnUse"
       gradientTransform="translate(81.35929,-18.621466)" />
    <linearGradient
       gradientTransform="matrix(1.0499636,0,0,1.0499041,-452.98597,-525.9368)"
       gradientUnits="userSpaceOnUse"
       x2="426.69501"
       y2="499.92099"
       y1="547.67499"
       id="a-6"
       x1="389.32001">
      <stop
         stop-color="#18222a"
         style="stop-color:#1e2b35;stop-opacity:1"
         id="stop216" />
      <stop
         stop-color="#566069"
         offset="1"
         style="stop-color:#6d7983;stop-opacity:1"
         id="stop218" />
    </linearGradient>
    <linearGradient
       inkscape:collect="always"
       xlink:href="#i"
       id="linearGradient1289"
       gradientUnits="userSpaceOnUse"
       gradientTransform="translate(-384.57001,-495.79898)"
       x1="421.57001"
       y1="530.79999"
       x2="398.57001"
       y2="507.79999" />
    <linearGradient
       id="i"
       y1="530.79999"
       x1="421.57001"
       y2="507.79999"
       x2="398.57001"
       gradientUnits="userSpaceOnUse">
      <stop
         stop-color="#c6cdd1"
         id="stop22-2" />
      <stop
         offset="1"
         stop-color="#e0e5e7"
         id="stop24-6" />
    </linearGradient>
    <linearGradient
       inkscape:collect="always"
       xlink:href="#d"
       id="linearGradient1291"
       gradientUnits="userSpaceOnUse"
       gradientTransform="rotate(180,216.28499,271.90051)"
       x1="398.57001"
       y1="508.79999"
       x2="418.57001"
       y2="528.79999" />
    <linearGradient
       id="d"
       y1="508.79999"
       x1="398.57001"
       y2="528.79999"
       x2="418.57001"
       gradientUnits="userSpaceOnUse"
       gradientTransform="translate(-817.14,-1039.6)">
      <stop
         stop-color="#2f3943"
         id="stop9-1" />
      <stop
         offset="1"
         stop-color="#4d5662"
         id="stop11" />
    </linearGradient>
    <linearGradient
       id="g"
       y1="534.79999"
       x1="405.57001"
       y2="538.79999"
       x2="411.57001"
       gradientUnits="userSpaceOnUse"
       gradientTransform="matrix(1,0,0,0.60001,0,213.91)">
      <stop
         stop-color="#18222a"
         id="stop16" />
      <stop
         offset="1"
         stop-color="#566069"
         id="stop18" />
    </linearGradient>
    <linearGradient
       id="a"
       y1="514.63"
       x1="402.41"
       y2="527.79999"
       x2="415.57001"
       gradientUnits="userSpaceOnUse">
      <stop
         stop-color="#2e5d89"
         id="stop2-8" />
      <stop
         offset="1"
         stop-color="#1b92f4"
         id="stop4-7" />
    </linearGradient>
    <linearGradient
       inkscape:collect="always"
       xlink:href="#linearGradient4456"
       id="linearGradient2911"
       gradientUnits="userSpaceOnUse"
       gradientTransform="translate(9.0014285,-4.9990005)"
       x1="8.662"
       y1="20"
       x2="14.783"
       y2="26.122" />
    <linearGradient
       inkscape:collect="always"
       xlink:href="#linearGradient4432"
       id="linearGradient2913"
       gradientUnits="userSpaceOnUse"
       gradientTransform="rotate(-15.86546,1.4912847,-6.178384)"
       x1="8.808"
       y1="15.038"
       x2="17.168"
       y2="35.845" />
  </defs>
  <rect
     width="41.99855"
     x="-45.000385"
     y="3.0049391"
     rx="20.999275"
     height="41.99617"
     transform="scale(-1,1)"
     style="display:inline;fill:url(#a-6);stroke-width:2.93982;stroke-opacity:0.55"
     id="rect223"
     ry="20.998085" />
  <path
     style="display:inline;opacity:0.3;fill:#000000;fill-opacity:1;stroke-width:2.93982;stroke-opacity:0.55"
     d="m 3.0133065,23.478117 c -0.0042,0.175027 -0.0126,0.349055 -0.0126,0.525082 0,11.633028 9.3656975,20.998099 20.9992155,20.998099 11.633531,0 20.999371,-9.365071 20.999371,-20.998099 0,-0.176027 -0.008,-0.349055 -0.0126,-0.525082 -0.2773,11.388289 -9.533761,20.473116 -20.986761,20.473116 -11.457195,0 -20.7094525,-9.084827 -20.9866105,-20.473116"
     id="path225" />
  <path
     d="m 3.0133065,24.524181 c -0.0042,-0.175027 -0.0126,-0.348055 -0.0126,-0.525082 0,-11.632928 9.3656975,-20.998099 20.9992155,-20.998099 11.633531,0 20.999371,9.365171 20.999371,20.998099 0,0.176027 -0.008,0.350055 -0.0126,0.525082 -0.2773,-11.388289 -9.533761,-20.473116 -20.986761,-20.473116 -11.457195,0 -20.7094515,9.084827 -20.9866095,20.473116"
     style="display:inline;opacity:0.3;fill:#ffffff;fill-opacity:1;stroke-width:2.93982;stroke-opacity:0.55"
     id="path229" />
  <circle
     fill="url(#i)"
     cx="23.999998"
     cy="24.000999"
     r="16"
     id="circle58-9"
     style="fill:url(#linearGradient1289);stroke-width:2;stroke-linecap:round;stroke-linejoin:round" />
  <path
     fill="url(#d)"
     d="m 10.001458,23.998981 a 13.999973,13.999973 0 0 1 13.999971,-13.99997 13.999973,13.999973 0 0 1 13.99997,13.99997 13.999973,13.999973 0 0 1 -13.99997,13.99998 13.999973,13.999973 0 0 1 -13.999971,-13.99998"
     id="path62-1"
     style="fill:url(#linearGradient1291);stroke-width:2;stroke-linejoin:round" />
  <path
     style="opacity:0.4;fill:url(#linearGradient2911);fill-opacity:1;stroke:none;stroke-width:2;stroke-linecap:round;stroke-linejoin:round;stroke-miterlimit:4;stroke-dasharray:none;stroke-opacity:1"
     d="m 21.737757,15.975608 -4.755859,0.855469 16.019531,16.019531 v -6.839843 z"
     id="path42-2" />
  <path
     d="m 21.792075,16.024001 c -2.154579,-0.542573 -4.031608,-0.567746 -5.197485,-0.02475 -1.165107,0.545756 -1.561838,1.637491 -1.178416,3.009793 0,0 4.4346,1.116738 4.4346,1.116738 -0.208252,-0.74519 0.009,-1.139286 0.437614,-1.340827 0.428774,-0.200849 1.124233,-0.234381 2.293956,0.06018 1.16972,0.294564 1.990608,0.709949 2.605013,1.173494 0.614405,0.463547 1.101606,1.035669 1.309816,1.78087 0.1808,0.647133 0.05753,0.872263 -0.141751,1.048722 -0.199281,0.17646 -0.57279,0.296846 -1.142987,0.423554 -0.570195,0.126716 -1.342622,0.243589 -1.976469,0.636772 -0.633845,0.393187 -0.979736,1.143314 -0.700323,2.143362 0,0 0.197175,0.705844 0.197175,0.705844 0,0 4.4346,1.116737 4.4346,1.116737 0,0 -0.197175,-0.705845 -0.197175,-0.705845 -0.115009,-0.411621 -0.04206,-0.458099 0.147133,-0.575461 0.189194,-0.117363 0.644014,-0.224981 1.285595,-0.367141 0.641595,-0.142123 1.468432,-0.335188 2.042981,-0.845384 0.574557,-0.510204 0.798219,-1.346329 0.485614,-2.465166 -0.383754,-1.372212 -1.497537,-2.844508 -3.16595,-4.103811 -1.669521,-1.259577 -3.81477,-2.244741 -5.969349,-2.787315 m 1.338368,12.149426 c 0,0 0.788842,2.823339 0.788842,2.823339 0,0 4.4346,1.116737 4.4346,1.116737 0,0 -0.788842,-2.823338 -0.788842,-2.823338 0,0 -4.4346,-1.116738 -4.4346,-1.116738"
     style="fill:url(#linearGradient2913);fill-opacity:1;stroke-width:2;stroke-linejoin:round"
     id="path50-2" />
</svg>
