<?xml version="1.0" encoding="UTF-8" standalone="no"?>
<svg
   viewBox="0 0 48 48"
   version="1.1"
   id="svg32"
   sodipodi:docname="kcachegrind.svg"
   inkscape:version="1.2.1 (9c6d41e410, 2022-07-14)"
   xmlns:inkscape="http://www.inkscape.org/namespaces/inkscape"
   xmlns:sodipodi="http://sodipodi.sourceforge.net/DTD/sodipodi-0.dtd"
   xmlns="http://www.w3.org/2000/svg"
   xmlns:svg="http://www.w3.org/2000/svg">
  <defs
     id="defs36" />
  <sodipodi:namedview
     id="namedview34"
     pagecolor="#ffffff"
     bordercolor="#666666"
     borderopacity="1.0"
     inkscape:showpageshadow="2"
     inkscape:pageopacity="0.0"
     inkscape:pagecheckerboard="0"
     inkscape:deskcolor="#d1d1d1"
     showgrid="false"
     inkscape:zoom="4.9166667"
     inkscape:cx="24"
     inkscape:cy="24"
     inkscape:window-width="1920"
     inkscape:window-height="1011"
     inkscape:window-x="0"
     inkscape:window-y="0"
     inkscape:window-maximized="1"
     inkscape:current-layer="svg32" />
  <linearGradient
     id="a"
     gradientTransform="matrix(-1.014624,-0.27186753,0.27186754,-1.014624,41.826516,54.871531)"
     gradientUnits="userSpaceOnUse"
     x1="394.57169"
     x2="422.57166"
     y1="525.79797"
     y2="553.79797">
    <stop
       offset="0"
       stop-color="#d6d9dc"
       id="stop2" />
    <stop
       offset="1"
       stop-color="#a1a9b1"
       id="stop4" />
  </linearGradient>
  <linearGradient
     id="b"
     gradientUnits="userSpaceOnUse"
     x1="25"
     x2="38"
     y1="15.303711"
     y2="28.303711"
     gradientTransform="matrix(1.0499936,0,0,1.0499936,-1.1999775,-1.1999772)">
    <stop
       offset="0"
       stop-color="#3daee9"
       id="stop7" />
    <stop
       offset="1"
       stop-color="#2980b9"
       id="stop9" />
  </linearGradient>
  <circle
     cx="23.999884"
     cy="23.999846"
     fill="#232629"
     fill-rule="evenodd"
     r="14.699913"
     id="circle12"
     style="stroke-width:1.04999" />
  <path
     d="m 16.649915,9.299962 v 1.049988 h 5.249972 V 9.299962 Z m -1.049994,0.233782 a 16.799899,16.799899 0 0 0 -1.320692,0.816206 h 1.320692 z m -2.602426,1.866202 a 16.799899,16.799899 0 0 0 -0.547556,0.449119 v 0.600874 h 4.199976 v -1.049993 z m -2.009752,2.099985 a 16.799899,16.799899 0 0 0 -0.859275,1.049994 h 8.621436 v -1.049994 z m 8.812155,0 v 1.049994 h 2.099989 v -1.049994 z m -10.266154,2.09999 a 16.799899,16.799899 0 0 0 -0.5619075,1.049994 h 4.5280945 v -1.049994 z m 5.016181,0 v 1.049994 h 8.399952 v -1.049994 z m -6.1092377,2.09999 a 16.799899,16.799899 0 0 0 -0.1907217,0.627533 v 0.42246 h 8.3999494 v -1.049993 z m -0.6377889,2.099988 a 16.799899,16.799899 0 0 0 -0.29326,1.049992 h 3.8903076 v -1.049992 z m 4.6470406,0 v 1.049992 h 5.249972 v -1.049992 z m -5.2499667,4.19997 a 16.799899,16.799899 0 0 0 0.1025367,1.049996 h 8.297412 v -1.049996 z m 9.4499427,0 v 1.049996 h 2.099989 v -1.049996 z m -8.3999494,2.09999 v 1.049991 h 5.2499654 v -1.049991 z m 6.2999594,0 v 1.049991 h 10.49994 v -1.049991 z m -6.7470266,2.099987 a 16.799899,16.799899 0 0 0 0.3178688,1.049993 h 4.3291718 v -1.049993 z m 5.6970326,0 v 1.049993 h 5.249973 v -1.049993 z m 6.299967,0 v 1.049993 h 2.099989 v -1.049993 z m 4.199971,1.049993 v 4.199976 h 1.049996 v -4.199976 z m 3.149981,0 v 4.199976 h 3.149986 v -4.199976 z m 5.249975,0 v 4.199976 h 1.04999 v -4.199976 z m 3.149976,0 v 4.199976 h 2.321475 a 16.799899,16.799899 0 0 0 0.828507,-1.486803 v -2.713173 z m -7.349955,1.049997 h 1.049993 v 2.099989 h -1.049993 z m 8.399947,0 h 1.049995 v 2.099989 H 36.599793 Z M 9.533744,32.399825 a 16.799899,16.799899 0 0 0 0.594724,1.04999 h 7.571443 v -1.04999 z m 9.21616,0 v 1.04999 h 2.099987 v -1.04999 z m -7.349958,2.099985 v 0.502439 a 16.799899,16.799899 0 0 0 0.449119,0.547552 h 3.750856 V 34.49981 Z m 5.249969,0 v 1.049991 h 5.249972 V 34.49981 Z m 7.349954,0 v 4.199973 H 27.14985 V 34.49981 Z m 5.24997,0 v 4.199973 h 1.049997 V 34.49981 Z m 3.149986,0 v 3.966186 a 16.799899,16.799899 0 0 0 1.320687,-0.816208 h -0.270697 v -2.099987 h 1.049995 v 1.462201 a 16.799899,16.799899 0 0 0 1.049991,-0.861327 V 34.49981 Z m -7.34996,1.049991 h 1.049994 v 2.099987 h -1.049994 z m -12.05237,1.049992 a 16.799899,16.799899 0 0 0 1.281734,1.049995 h 3.420682 v -1.049995 z"
     fill="#eff0f1"
     opacity="0.394"
     id="path14"
     style="stroke-width:1.04999" />
  <path
     d="m 24.89607,23.103662 -0.371193,0.371179 -0.371181,0.371193 11.025796,11.025826 0.742374,-0.742373 z"
     fill="#ed1515"
     stroke-miterlimit="0"
     id="path16"
     style="stroke-width:1.04999" />
  <path
     d="m 23.999879,9.299925 h 1.049996 v 14.174916 h -1.049996 z"
     fill="#fcfcfc"
     fill-rule="evenodd"
     id="path18"
     style="stroke-width:1.04999" />
  <path
     d="M 25.049865,9.299962 V 23.257494 L 35.879977,34.0876 a 15.749907,15.749907 0 0 0 2.819806,-4.686004 V 18.587891 a 15.749907,15.749907 0 0 0 -9.34125,-9.287929 z"
     fill="url(#b)"
     fill-rule="evenodd"
     id="path20"
     style="fill:url(#b);stroke-width:1.04999" />
  <path
     d="m 21.848611,44.886069 a 21.008233,21.008232 0 0 0 4.303601,0.006 l 0.498948,-3.256284 a 17.857002,17.857002 0 0 0 3.873225,-1.035142 l 2.054605,2.564045 a 21.008233,21.008232 0 0 0 3.727877,-2.157313 l -1.192215,-3.057673 a 17.857002,17.857002 0 0 0 2.846427,-2.831036 l 3.038844,1.183818 a 21.008233,21.008232 0 0 0 2.153433,-3.732512 l -2.544109,-2.03881 a 17.857002,17.857002 0 0 0 0.63928,-1.910182 17.857002,17.857002 0 0 0 0.387983,-1.971152 l 3.24997,-0.498948 a 21.008233,21.008232 0 0 0 0.006,-4.303596 l -3.25617,-0.498848 a 17.857002,17.857002 0 0 0 -1.035123,-3.873239 l 2.564046,-2.05461 a 21.008233,21.008232 0 0 0 -2.157295,-3.727854 l -3.057741,1.19221 A 17.857002,17.857002 0 0 0 35.11958,10.038815 L 36.303533,7.0001793 A 21.008233,21.008232 0 0 0 32.570884,4.8467371 L 30.533647,7.3909344 A 17.857002,17.857002 0 0 0 28.62182,6.7515092 17.857002,17.857002 0 0 0 26.650665,6.3635161 L 26.153432,3.113659 a 21.008233,21.008232 0 0 0 -4.303604,-0.00629 l -0.50098,3.2561679 A 17.857002,17.857002 0 0 0 17.475937,7.3989827 L 15.421371,4.8351872 a 21.008233,21.008232 0 0 0 -3.727877,2.1573167 l 1.192218,3.0577511 a 17.857002,17.857002 0 0 0 -2.846429,2.831032 L 7.0002212,11.696474 a 21.008233,21.008232 0 0 0 -2.1534323,3.732497 l 2.5440931,2.038847 a 17.857002,17.857002 0 0 0 -0.6392676,1.91019 17.857002,17.857002 0 0 0 -0.3879832,1.971142 l -3.2499724,0.498948 a 21.008233,21.008232 0 0 0 -0.00629,4.3036 l 3.2562721,0.498947 a 17.857002,17.857002 0 0 0 1.0351573,3.873224 l -2.5640531,2.054605 a 21.008233,21.008232 0 0 0 2.157317,3.727883 l 3.0577519,-1.192218 a 17.857002,17.857002 0 0 0 2.831029,2.846427 l -1.18381,3.038835 a 21.008233,21.008232 0 0 0 3.732494,2.153435 l 2.03886,-2.544093 a 17.857002,17.857002 0 0 0 1.910181,0.639267 17.857002,17.857002 0 0 0 1.971152,0.387983 z M 20.193844,38.204614 A 14.705766,14.705766 0 0 1 9.795306,20.193804 14.705766,14.705766 0 0 1 27.80611,9.795264 14.705766,14.705766 0 0 1 38.204656,27.806068 14.705766,14.705766 0 0 1 20.193844,38.204614"
     fill="url(#a)"
     stroke-linejoin="round"
     stroke-width="3.14998"
     id="path22"
     style="fill:url(#a)" />
  <path
     d="m 12.019276,6.7816125 c -0.109335,0.069401 -0.218029,0.1398173 -0.326064,0.2112274 l 1.1925,3.0574151 c 0.100199,-0.09136 0.20131,-0.181622 0.303505,-0.270702 z m 23.957084,0.0084 -1.160262,2.9762625 c 0.102145,0.08974 0.203385,0.18068 0.303511,0.272751 L 36.304484,7.0012506 C 36.195767,6.9298511 36.086389,6.8594066 35.97636,6.7900125 Z M 24.54948,8.254271 C 17.693662,7.998377 11.571811,12.517004 9.796248,19.143853 9.471169,20.437179 9.323533,21.768709 9.357384,23.101832 9.406134,22.120277 9.553153,21.146075 9.796248,20.193844 11.898838,12.349765 19.96173,7.694908 27.8061,9.79645 34.054737,11.474499 38.472554,17.039441 38.689527,23.505836 38.949055,16.649535 34.432806,10.524914 27.8061,8.7464555 26.742412,8.4609621 25.65002,8.2958614 24.54948,8.254271 Z m 18.235442,6.423 -2.456316,1.967665 c 0.09763,0.274597 0.188618,0.551534 0.272752,0.83057 l 2.565008,-2.053796 c -0.122199,-0.250658 -0.249378,-0.498847 -0.381444,-0.744439 z m -37.5577934,0.008 C 5.0957427,14.930996 4.9692604,15.179192 4.8477449,15.42983 L 7.390882,17.467947 C 7.47635,17.18958 7.5687088,16.913333 7.6677341,16.639462 Z m 39.7664614,8.75483 c -0.0135,0.554898 -0.04916,1.109048 -0.106634,1.661132 l -3.250466,0.498342 c -0.0921,0.663678 -0.221526,1.321641 -0.387609,1.970781 -0.177115,0.648642 -0.667397,2.115081 -0.916485,2.739627 l 0.276851,0.221481 c 0.132511,-0.356977 0.530219,-1.546398 0.639634,-1.911112 0.166083,-0.649142 0.295483,-1.307105 0.387609,-1.970782 l 3.250466,-0.498342 c 0.09394,-0.900466 0.12955,-1.806063 0.106634,-2.711127 z m -41.966933,0.04928 c -0.029608,0.888109 -0.0032,1.777193 0.080012,2.661904 l 3.2566283,0.50041 c 0.164618,1.034176 0.6925443,2.882943 1.0355249,3.872369 l 0.2727556,-0.21922 C 7.1821539,29.057225 6.5621113,26.927356 6.3632952,25.601965 L 3.1066661,25.101574 C 3.0594181,24.56549 3.0326431,24.027803 3.0266551,23.48967 Z m 39.745957,8.775332 c -0.507123,1.043192 -1.099771,2.042602 -1.771862,2.987966 l -3.03924,-1.183274 c -0.839449,1.047329 -2.098203,2.26811 -3.150368,3.101482 l 0.303508,0.779296 c 0.931878,-0.765081 2.087778,-1.894001 2.84686,-2.830783 l 3.03924,1.183288 c 0.843796,-1.167034 1.565361,-2.417743 2.153303,-3.732397 z m -37.5557333,0.008 -0.3814417,0.305563 c 0.5894873,1.313404 1.3124288,2.562735 2.1574008,3.728293 l 3.0576992,-1.191336 c 0.753173,0.940971 1.903413,2.075077 2.830294,2.84552 l 0.303517,-0.777234 c -1.047328,-0.83909 -2.300429,-2.065758 -3.133811,-3.117924 L 6.9928398,35.257192 C 6.3195314,34.313276 5.725508,33.315246 5.2168807,32.273331 Z M 30.523364,39.55089 c -1.24766,0.489411 -2.546453,0.836811 -3.871849,1.035637 l -0.498341,3.256619 c -1.431277,0.14536 -2.873707,0.1433 -4.304563,-0.006 l -0.498336,-3.2504 c -0.663678,-0.0921 -1.321649,-0.221525 -1.970782,-0.387595 -0.64865,-0.17713 -1.286773,-0.390753 -1.91132,-0.639842 l -2.038463,2.542962 c -1.193512,-0.539589 -2.333918,-1.189777 -3.406328,-1.941917 l -0.326078,0.838768 c 1.167048,0.843806 2.417763,1.565373 3.732406,2.153305 l 2.038463,-2.542952 c 0.624547,0.249093 1.26267,0.462716 1.91132,0.639839 0.649133,0.166076 1.307104,0.295476 1.970782,0.387591 l 0.498336,3.250476 c 1.430856,0.149434 2.873286,0.151494 4.304563,0.006 l 0.498341,-3.256611 c 1.325396,-0.198832 2.624189,-0.546231 3.871849,-1.035646 l 2.054873,2.563455 c 1.313407,-0.589484 2.562737,-1.31243 3.728296,-2.157397 l -0.326066,-0.838737 c -1.070952,0.753323 -2.209988,1.404889 -3.40223,1.946168 z"
     opacity="0.208"
     stroke-linejoin="round"
     stroke-width="3.14213"
     id="path24" />
  <g
     fill-rule="evenodd"
     id="g30"
     transform="matrix(1.0499934,0,0,1.0499934,-1.1999775,-1.1999772)">
    <circle
       cx="24.50001"
       cy="23.499969"
       fill="#fcfcfc"
       r="1.5"
       id="circle26" />
    <circle
       cx="24.50001"
       cy="23.499969"
       fill="#232629"
       r="0.5"
       id="circle28" />
  </g>
</svg>
