<?xml version="1.0" encoding="UTF-8" standalone="no"?>
<!-- Created with Inkscape (http://www.inkscape.org/) -->

<svg
   version="1.1"
   id="svg2"
   width="48"
   height="48"
   viewBox="0 0 48 48"
   sodipodi:docname="kfourinline.svg"
   inkscape:version="1.2.1 (9c6d41e410, 2022-07-14)"
   xmlns:inkscape="http://www.inkscape.org/namespaces/inkscape"
   xmlns:sodipodi="http://sodipodi.sourceforge.net/DTD/sodipodi-0.dtd"
   xmlns:xlink="http://www.w3.org/1999/xlink"
   xmlns="http://www.w3.org/2000/svg"
   xmlns:svg="http://www.w3.org/2000/svg"
   xmlns:rdf="http://www.w3.org/1999/02/22-rdf-syntax-ns#"
   xmlns:cc="http://creativecommons.org/ns#"
   xmlns:dc="http://purl.org/dc/elements/1.1/">
  <metadata
     id="metadata8">
    <rdf:RDF>
      <cc:Work
         rdf:about="">
        <dc:format>image/svg+xml</dc:format>
        <dc:type
           rdf:resource="http://purl.org/dc/dcmitype/StillImage" />
      </cc:Work>
    </rdf:RDF>
  </metadata>
  <defs
     id="defs6">
    <linearGradient
       id="linearGradient4197">
      <stop
         id="stop824"
         offset="0"
         style="stop-color:#c6cdd1;stop-opacity:1" />
      <stop
         id="stop826"
         offset="1"
         style="stop-color:#e0e5e7;stop-opacity:1" />
    </linearGradient>
    <linearGradient
       id="linearGradient4184">
      <stop
         id="stop829"
         offset="0"
         style="stop-color:#000000;stop-opacity:1;" />
      <stop
         id="stop831"
         offset="1"
         style="stop-color:#000000;stop-opacity:0;" />
    </linearGradient>
    <linearGradient
       id="linearGradient4167">
      <stop
         id="stop834"
         offset="0"
         style="stop-color:#d01c2d;stop-opacity:1" />
      <stop
         id="stop836"
         offset="1"
         style="stop-color:#e05e4c;stop-opacity:1" />
    </linearGradient>
    <linearGradient
       gradientUnits="userSpaceOnUse"
       y2="43.208984"
       x2="45.792969"
       y1="12.696203"
       x1="11.79297"
       id="linearGradient4190"
       xlink:href="#linearGradient4184"
       gradientTransform="translate(-46.134538,-30.208548)" />
    <linearGradient
       gradientTransform="translate(65.007066,2.1680782)"
       id="c-1"
       gradientUnits="userSpaceOnUse"
       x1="4"
       x2="4"
       y1="3"
       y2="45">
      <stop
         offset="0"
         stop-color="#21c9fb"
         id="stop12-8" />
      <stop
         offset="1"
         stop-color="#197cf1"
         id="stop14-7" />
    </linearGradient>
    <linearGradient
       id="m"
       x1="68.210472"
       x2="148.52051"
       y1="177.75131"
       y2="258.06134"
       gradientUnits="userSpaceOnUse"
       gradientTransform="matrix(0.37626177,0,0,0.37626188,-16.518337,-57.726174)">
      <stop
         stop-color="#59f"
         offset="0"
         id="stop3371" />
      <stop
         stop-color="#06f"
         offset="1"
         id="stop3373" />
    </linearGradient>
    <linearGradient
       id="l"
       x1="220.30621"
       x2="54.439178"
       y1="207.9187"
       y2="42.051666"
       gradientTransform="matrix(0.16799417,0,0,0.1635966,5.9313031,-1.39177)"
       gradientUnits="userSpaceOnUse"
       xlink:href="#a-3" />
    <linearGradient
       id="a-3">
      <stop
         stop-color="#2a7fff"
         offset="0"
         id="stop3327"
         style="stop-color:#2a7fff;stop-opacity:1;" />
      <stop
         stop-color="#0cf"
         offset="1"
         id="stop3329" />
    </linearGradient>
    <linearGradient
       id="KugelLinie1">
      <stop
         style="stop-color:#000000;stop-opacity:0.94117647;"
         offset="0.0000000"
         id="stop3531" />
      <stop
         style="stop-color:#000000;stop-opacity:0;"
         offset="1"
         id="stop3533" />
    </linearGradient>
    <linearGradient
       inkscape:collect="always"
       xlink:href="#linearGradient4184"
       id="linearGradient3613"
       gradientUnits="userSpaceOnUse"
       gradientTransform="translate(-0.10996114,-1.2100652)"
       x1="11.79297"
       y1="12.696203"
       x2="45.792969"
       y2="43.208984" />
    <linearGradient
       inkscape:collect="always"
       xlink:href="#linearGradient4167"
       id="linearGradient3615"
       gradientUnits="userSpaceOnUse"
       gradientTransform="translate(9.6830088,-11.00108)"
       x1="34"
       y1="53.969002"
       x2="-6"
       y2="14" />
    <linearGradient
       inkscape:collect="always"
       xlink:href="#linearGradient4197"
       id="linearGradient3617"
       gradientUnits="userSpaceOnUse"
       gradientTransform="translate(-0.31699116,-1.0010813)"
       x1="44"
       y1="44"
       x2="7"
       y2="7" />
  </defs>
  <sodipodi:namedview
     pagecolor="#ffffff"
     bordercolor="#666666"
     borderopacity="1"
     objecttolerance="10"
     gridtolerance="10"
     guidetolerance="10"
     inkscape:pageopacity="0"
     inkscape:pageshadow="2"
     inkscape:window-width="1920"
     inkscape:window-height="1009"
     id="namedview4"
     showgrid="false"
     inkscape:zoom="8"
     inkscape:cx="5.875"
     inkscape:cy="22.25"
     inkscape:window-x="0"
     inkscape:window-y="0"
     inkscape:window-maximized="1"
     inkscape:current-layer="svg2"
     inkscape:showpageshadow="2"
     inkscape:pagecheckerboard="0"
     inkscape:deskcolor="#d1d1d1">
    <inkscape:grid
       type="xygrid"
       id="grid877" />
  </sodipodi:namedview>
  <ellipse
     cx="24"
     cy="24"
     fill="url(#m)"
     stroke-width="0.0173423"
     id="circle3376"
     style="fill:url(#m)"
     rx="20.999992"
     ry="20.999998" />
  <ellipse
     cx="24"
     cy="24"
     rx="20.999992"
     ry="20.450277"
     fill="url(#l)"
     stroke-width="0.0171139"
     id="ellipse3378"
     style="fill:url(#l)" />
  <path
     inkscape:connector-curvature="0"
     style="opacity:0.2;fill:url(#linearGradient3613);fill-opacity:1;stroke:none;stroke-width:2;stroke-linecap:round;stroke-linejoin:round;stroke-miterlimit:4;stroke-dasharray:none;stroke-opacity:1"
     d="m 26.183009,10.87392 -5.609375,5.59375 5.3125,4.609375 -5.306028,5.49954 3.948223,3.842179 -1.84532,2.580155 -3,2 8,8 v 0 l -11.259534,-11.850524 -5.812388,5.419417 6.563689,6.431107 26.50836,-0.0049 -1.28e-4,-9.9951 v -5 z"
     id="path846-9"
     sodipodi:nodetypes="cccccccccccccccc" />
  <path
     style="fill:url(#linearGradient3615);fill-opacity:1;stroke:none;stroke-width:2;stroke-linecap:round;stroke-linejoin:round;stroke-miterlimit:4;stroke-dasharray:none;stroke-opacity:1"
     d="m 23.815821,10.000873 a 4,4 0 0 0 -0.40039,0.0078 4,4 0 0 0 -3.728516,4.167968 4,4 0 0 0 4.085938,3.820313 4,4 0 0 0 3.910156,-3.998047 l -0.01563,-0.357422 A 4,4 0 0 0 23.815816,10.00086 Z m 0,10 a 4,4 0 0 0 -0.40039,0.0078 4,4 0 0 0 -3.728516,4.167968 4,4 0 0 0 4.085938,3.820312 4,4 0 0 0 3.910156,-3.998046 l -0.01563,-0.357422 a 4,4 0 0 0 -3.851558,-3.640622 z m 0,9.999999 a 4,4 0 0 0 -0.40039,0.0078 4,4 0 0 0 -3.728516,4.167968 4,4 0 0 0 4.085938,3.820313 4,4 0 0 0 3.910156,-3.998047 l -0.01563,-0.357422 a 4,4 0 0 0 -3.851563,-3.640625 z"
     id="path879-5-2-7-2" />
  <path
     style="fill:url(#linearGradient3617);fill-opacity:1;stroke:none;stroke-width:2;stroke-linecap:round;stroke-linejoin:round;stroke-miterlimit:4;stroke-dasharray:none;stroke-opacity:1"
     d="m 33.815821,20.000873 a 4,4 0 0 0 -0.40039,0.0078 4,4 0 0 0 -3.728516,4.167968 4,4 0 0 0 4.085938,3.820312 4,4 0 0 0 3.910155,-3.998046 l -0.01563,-0.357422 A 4,4 0 0 0 33.81582,20.000863 Z m -20,9.999999 a 4,4 0 0 0 -0.40039,0.0078 4,4 0 0 0 -3.7285162,4.167968 4,4 0 0 0 4.0859382,3.820313 4,4 0 0 0 3.910156,-3.998047 l -0.01563,-0.357422 a 4,4 0 0 0 -3.851563,-3.640625 z m 20,0 a 4,4 0 0 0 -0.40039,0.0078 4,4 0 0 0 -3.728516,4.167968 4,4 0 0 0 4.085938,3.820313 4,4 0 0 0 3.910155,-3.998047 l -0.01563,-0.357422 a 4,4 0 0 0 -3.851562,-3.640625 z"
     id="path879-2" />
</svg>
