<?xml version="1.0" encoding="UTF-8" standalone="no"?>
<svg
   width="48"
   height="48"
   version="1.1"
   id="svg279"
   sodipodi:docname="kipi-expoblending.svg"
   inkscape:version="1.2.1 (9c6d41e410, 2022-07-14)"
   xmlns:inkscape="http://www.inkscape.org/namespaces/inkscape"
   xmlns:sodipodi="http://sodipodi.sourceforge.net/DTD/sodipodi-0.dtd"
   xmlns:xlink="http://www.w3.org/1999/xlink"
   xmlns="http://www.w3.org/2000/svg"
   xmlns:svg="http://www.w3.org/2000/svg">
  <sodipodi:namedview
     id="namedview281"
     pagecolor="#ffffff"
     bordercolor="#666666"
     borderopacity="1.0"
     inkscape:showpageshadow="2"
     inkscape:pageopacity="0.0"
     inkscape:pagecheckerboard="0"
     inkscape:deskcolor="#d1d1d1"
     showgrid="false"
     inkscape:zoom="4.9166667"
     inkscape:cx="24"
     inkscape:cy="24"
     inkscape:window-width="1920"
     inkscape:window-height="1009"
     inkscape:window-x="0"
     inkscape:window-y="0"
     inkscape:window-maximized="1"
     inkscape:current-layer="svg279" />
  <defs
     id="defs241">
    <linearGradient
       id="a"
       y1="532.8"
       x1="409.57"
       y2="543.8"
       x2="420.57"
       gradientUnits="userSpaceOnUse"
       gradientTransform="translate(-361.574,-558.82377)">
      <stop
         stop-opacity=".314"
         id="stop225" />
      <stop
         offset="1"
         stop-opacity="0"
         id="stop227" />
    </linearGradient>
    <linearGradient
       id="c"
       y1="531.8"
       y2="507.82"
       x2="0"
       gradientUnits="userSpaceOnUse"
       gradientTransform="matrix(1,0,0,1.33561,-446.22333,-712.25)">
      <stop
         stop-color="#2a2c2f"
         id="stop230" />
      <stop
         offset="1"
         stop-color="#424649"
         id="stop232" />
    </linearGradient>
    <linearGradient
       id="d"
       y1="577.8"
       y2="541.8"
       gradientUnits="userSpaceOnUse"
       x2="0"
       gradientTransform="matrix(1.50001,0,0,1,-650.51033,-577.81)">
      <stop
         stop-color="#c6cdd1"
         id="stop235" />
      <stop
         offset="1"
         stop-color="#e0e5e7"
         id="stop237" />
    </linearGradient>
    <path
       fill="#feb70d"
       stroke-linejoin="bevel"
       id="e"
       d="m410.57 528.8l-1.996-10h12z" />
    <linearGradient
       gradientTransform="matrix(1.0499636,0,0,1.0499041,-452.98486,-525.93779)"
       gradientUnits="userSpaceOnUse"
       x2="426.69501"
       y2="499.92099"
       y1="547.67499"
       id="a-6"
       x1="389.32001">
      <stop
         stop-color="#18222a"
         style="stop-color:#1e2b35;stop-opacity:1"
         id="stop216" />
      <stop
         stop-color="#566069"
         offset="1"
         style="stop-color:#6d7983;stop-opacity:1"
         id="stop218" />
    </linearGradient>
    <linearGradient
       id="linearGradient4235">
      <stop
         style="stop-color:#abdaf9;stop-opacity:1"
         offset="0"
         id="stop7" />
      <stop
         style="stop-color:#7cbcec;stop-opacity:1"
         offset="1"
         id="stop9" />
    </linearGradient>
    <linearGradient
       id="linearGradient4255">
      <stop
         style="stop-color:#000000;stop-opacity:1;"
         offset="0"
         id="stop2" />
      <stop
         style="stop-color:#000000;stop-opacity:0;"
         offset="1"
         id="stop4" />
    </linearGradient>
    <linearGradient
       id="linearGradient4216">
      <stop
         style="stop-color:#c42c2c;stop-opacity:1"
         offset="0"
         id="stop17" />
      <stop
         style="stop-color:#f36856;stop-opacity:1"
         offset="1"
         id="stop19" />
    </linearGradient>
    <linearGradient
       id="linearGradient4224">
      <stop
         style="stop-color:#375a7d;stop-opacity:1"
         offset="0"
         id="stop12" />
      <stop
         style="stop-color:#54a3d8;stop-opacity:1"
         offset="1"
         id="stop14" />
    </linearGradient>
    <linearGradient
       inkscape:collect="always"
       xlink:href="#a"
       id="linearGradient984"
       gradientUnits="userSpaceOnUse"
       gradientTransform="translate(-387.57001,-508.32488)"
       x1="409.57"
       y1="532.8"
       x2="420.57"
       y2="543.8" />
  </defs>
  <rect
     width="41.99855"
     x="-44.999275"
     y="3.0039382"
     rx="20.999275"
     height="41.99617"
     transform="scale(-1,1)"
     style="display:inline;fill:url(#a-6);stroke-width:2.93982;stroke-opacity:0.55"
     id="rect223"
     ry="20.998085" />
  <path
     style="display:inline;opacity:0.3;fill:#000000;fill-opacity:1;stroke-width:2.93982;stroke-opacity:0.55"
     d="m 3.0121906,23.477117 c -0.0042,0.175027 -0.0126,0.349055 -0.0126,0.525082 0,11.633028 9.3656964,20.998099 20.9992144,20.998099 11.633533,0 20.999373,-9.365071 20.999373,-20.998099 0,-0.176027 -0.008,-0.349055 -0.0126,-0.525082 -0.2773,11.388289 -9.53376,20.473116 -20.986763,20.473116 -11.457195,0 -20.7094524,-9.084827 -20.9866104,-20.473116"
     id="path225" />
  <path
     d="m 3.0133856,24.527119 c -0.0042,-0.175027 -0.0126,-0.348055 -0.0126,-0.525082 C 3.0007856,12.369109 12.366482,3.0039382 24,3.0039382 c 11.633533,0 20.999373,9.3651708 20.999373,20.9980988 0,0.176027 -0.008,0.350055 -0.0126,0.525082 C 44.709473,13.13883 35.453013,4.0540032 24.00001,4.0540032 12.542815,4.0540032 3.2905586,13.13883 3.0134006,24.527119"
     style="display:inline;opacity:0.3;fill:#ffffff;fill-opacity:1;stroke-width:2.93982;stroke-opacity:0.55"
     id="path229" />
  <path
     fill="#6af804"
     fill-rule="evenodd"
     d="m 11,33.473117 4.14,-5.64 5.86,-4.36 2,10 z"
     id="path249-7" />
  <use
     xlink:href="#e"
     id="use251-5"
     transform="translate(-399.57001,-495.32689)" />
  <path
     fill="#ffffff"
     stroke-linejoin="bevel"
     fill-opacity="0.353"
     d="m 11.01,33.474117 -2,-10 h 12 l 1.994,10 z"
     id="path255-3" />
  <path
     fill="#6af804"
     fill-rule="evenodd"
     d="m 18,28.473117 3.751,-6.06 6.249,-3.936 2,10 z"
     id="path259-5" />
  <use
     xlink:href="#e"
     id="use261-6"
     transform="translate(-392.57001,-500.32689)" />
  <path
     fill="url(#a)"
     d="M 29.99,28.474117 H 18.008 l 4.984,5 h -11.99 v -0.002 l -0.004,0.002 8,8 h 26.000003 v -18 l -9.992003,-9.992 1.992003,9.992 H 25 Z"
     id="path265-2"
     style="fill:url(#linearGradient984);fill-rule:evenodd" />
  <path
     fill="#6af804"
     d="m 25,23.474117 4.627,-5.577 5.373,-4.423 2.000003,10 z"
     id="path267-9"
     style="fill-rule:evenodd" />
  <use
     xlink:href="#e"
     id="use271-1"
     transform="translate(-385.57001,-505.32588)" />
  <path
     stroke-linejoin="bevel"
     fill-opacity="0.353"
     d="m 25,23.474117 -1.996,-10 h 12 l 1.994003,10 z"
     id="path273-2" />
</svg>
