<?xml version="1.0" encoding="UTF-8" standalone="no"?>
<svg
   width="48"
   height="48"
   version="1.1"
   id="svg29"
   sodipodi:docname="kmouth.svg"
   inkscape:version="1.2.1 (9c6d41e410, 2022-07-14)"
   xmlns:inkscape="http://www.inkscape.org/namespaces/inkscape"
   xmlns:sodipodi="http://sodipodi.sourceforge.net/DTD/sodipodi-0.dtd"
   xmlns:xlink="http://www.w3.org/1999/xlink"
   xmlns="http://www.w3.org/2000/svg"
   xmlns:svg="http://www.w3.org/2000/svg">
  <sodipodi:namedview
     id="namedview31"
     pagecolor="#ffffff"
     bordercolor="#666666"
     borderopacity="1.0"
     inkscape:showpageshadow="2"
     inkscape:pageopacity="0.0"
     inkscape:pagecheckerboard="0"
     inkscape:deskcolor="#d1d1d1"
     showgrid="false"
     inkscape:zoom="4.9166667"
     inkscape:cx="24"
     inkscape:cy="24"
     inkscape:window-width="1920"
     inkscape:window-height="1009"
     inkscape:window-x="0"
     inkscape:window-y="0"
     inkscape:window-maximized="1"
     inkscape:current-layer="svg29" />
  <defs
     id="defs17">
    <linearGradient
       id="a"
       y1="44"
       y2="4"
       x2="0"
       gradientUnits="userSpaceOnUse">
      <stop
         stop-color="#42a603"
         id="stop2" />
      <stop
         offset="1"
         stop-color="#78da06"
         id="stop4" />
    </linearGradient>
    <linearGradient
       id="b"
       y1="514"
       x1="398.57"
       y2="534"
       x2="418.57"
       gradientUnits="userSpaceOnUse"
       gradientTransform="translate(-469.47656,-518.778)">
      <stop
         stop-color="#383e51"
         id="stop7" />
      <stop
         offset="1"
         stop-color="#655c6f"
         stop-opacity="0"
         id="stop9" />
    </linearGradient>
    <linearGradient
       id="c"
       y1="19.04"
       y2="3.036"
       x2="0"
       gradientUnits="userSpaceOnUse"
       gradientTransform="translate(-71.90656,-11.018)">
      <stop
         stop-color="#bcfd93"
         id="stop12" />
      <stop
         offset="1"
         stop-color="#fafff5"
         id="stop14" />
    </linearGradient>
    <linearGradient
       xlink:href="#b-3"
       id="linearGradient4412"
       gradientUnits="userSpaceOnUse"
       gradientTransform="matrix(1.0499606,0,0,1.0499043,30.300551,-1.1957995)"
       x1="-7.283"
       y1="15.656"
       x2="11.881"
       y2="33.522999" />
    <linearGradient
       id="b-3"
       y1="23.775"
       x1="22.540001"
       y2="44.054001"
       x2="42.646"
       gradientUnits="userSpaceOnUse"
       gradientTransform="translate(30)">
      <stop
         stop-color="#292c2f"
         id="stop7-6" />
      <stop
         offset="1"
         stop-color="#292c2f"
         stop-opacity="0"
         id="stop9-7" />
    </linearGradient>
    <linearGradient
       xlink:href="#b-3"
       id="linearGradient4384"
       gradientUnits="userSpaceOnUse"
       gradientTransform="matrix(1.0499606,0,0,1.0499043,30.300551,-1.1957995)"
       x1="-21.261"
       y1="13.899"
       x2="10.555"
       y2="48.902" />
    <linearGradient
       xlink:href="#linearGradient4416"
       id="linearGradient4422"
       x1="-30.500999"
       y1="28.25"
       x2="-10.501"
       y2="7.875"
       gradientUnits="userSpaceOnUse"
       gradientTransform="matrix(1.0499606,0,0,1.0499043,1.1982669,-1.1957995)" />
    <linearGradient
       id="linearGradient4416">
      <stop
         style="stop-color:#ffffff;stop-opacity:0"
         offset="0"
         id="stop2-5" />
      <stop
         style="stop-color:#ffffff;stop-opacity:1"
         offset="1"
         id="stop4-3" />
    </linearGradient>
    <linearGradient
       id="c-2"
       y1="19.040001"
       y2="3.036"
       x2="0"
       gradientUnits="userSpaceOnUse"
       gradientTransform="translate(12.999,12.404357)">
      <stop
         stop-color="#bcfd93"
         id="stop12-7" />
      <stop
         offset="1"
         stop-color="#fafff5"
         id="stop14-0" />
    </linearGradient>
  </defs>
  <rect
     style="color:#000000;clip-rule:nonzero;display:inline;overflow:visible;visibility:visible;isolation:auto;mix-blend-mode:normal;color-interpolation:sRGB;color-interpolation-filters:linearRGB;solid-color:#000000;solid-opacity:1;fill:#1dc979;fill-opacity:1;fill-rule:nonzero;stroke-width:1.04993;stroke-linecap:butt;stroke-linejoin:miter;stroke-miterlimit:4;stroke-dasharray:none;stroke-dashoffset:0;stroke-opacity:1;color-rendering:auto;image-rendering:auto;shape-rendering:auto;text-rendering:auto;enable-background:accumulate"
     transform="scale(-1,1)"
     height="41.996174"
     rx="20.999212"
     y="3.0038178"
     x="-45"
     width="41.998425"
     id="rect17" />
  <path
     d="m 3.0126001,23.476962 c -0.0042,0.175334 -0.012599,0.348568 -0.012599,0.524952 C 3.0000006,35.634854 12.365649,45 23.999213,45 c 11.633563,0 20.999212,-9.365146 20.999212,-20.998086 0,-0.176384 -0.0084,-0.349618 -0.0126,-0.524952 -0.27719,11.388312 -9.533642,20.473134 -20.986612,20.473134 -11.457171,0 -20.7094233,-9.084822 -20.9866129,-20.473134"
     style="opacity:0.3;fill:#161e25;stroke-width:2.93981;stroke-opacity:0.55"
     id="path19-5" />
  <path
     style="opacity:0.3;fill:#ffffff;fill-opacity:1;stroke-width:2.93981;stroke-opacity:0.55"
     d="m 3.0126001,24.523038 c -0.0042,-0.175334 -0.012599,-0.348568 -0.012599,-0.524952 0,-11.632939 9.3656489,-20.9980863 20.9992119,-20.9980863 11.633563,0 20.999212,9.3651473 20.999212,20.9980863 0,0.176384 -0.0084,0.349618 -0.0126,0.524952 C 44.708635,13.134726 35.452183,4.049904 23.999213,4.049904 c -11.457171,0 -20.7094233,9.084822 -20.9866129,20.473134"
     id="path21-6" />
  <rect
     width="41.998425"
     x="-45"
     y="3.0038178"
     rx="20.999212"
     height="41.996174"
     transform="scale(-1,1)"
     style="color:#000000;clip-rule:nonzero;display:inline;overflow:visible;visibility:visible;opacity:0.45;isolation:auto;mix-blend-mode:normal;color-interpolation:sRGB;color-interpolation-filters:linearRGB;solid-color:#000000;solid-opacity:1;fill:url(#linearGradient4422);fill-opacity:1;fill-rule:nonzero;stroke-width:1.04993;stroke-linecap:butt;stroke-linejoin:miter;stroke-miterlimit:4;stroke-dasharray:none;stroke-dashoffset:0;stroke-opacity:1;color-rendering:auto;image-rendering:auto;shape-rendering:auto;text-rendering:auto;enable-background:accumulate"
     id="rect45" />
  <path
     d="m 35.668373,11.802232 -23.335192,0.0083 v 0 c -1.1661,0 -2.332189,1.166233 -2.332189,2.33242 l 0.01333,17.297477 c 0,1.166146 1.16608,2.33234 2.332188,2.33234 v 0 l 7.129868,-0.0011 3.741674,5.612757 2.26e-4,-2.26e-4 c 0.173027,0.259722 0.464131,0.415804 0.776085,0.415804 0.311946,0 0.603004,-0.155656 0.776096,-0.415804 l 3.741705,-5.612749 7.156213,0.0012 h 1e-5 c 1.166086,0 2.332197,-1.166195 2.332185,-2.332428 l 1.2e-5,-17.307795 c 0,-1.166195 -1.1661,-2.332428 -2.332197,-2.332428 z m 0.466436,17.772672 c 0,2.332387 0,2.332387 -2.33062,2.332651 H 28.01299 c -0.31195,-2.19e-4 -0.603036,0.15565 -0.776277,0.415366 l -3.242556,4.866412 -3.242583,-4.863548 c -0.173246,-0.259711 -0.464353,-0.415362 -0.776256,-0.415362 h -8.108571 l -0.045,-15.909842 c 0,-2.332385 0,-2.332385 2.355254,-2.321849 l 19.625608,-0.0083 c 2.33219,0 2.33219,0 2.318927,2.295567 z"
     id="path2-3"
     style="fill:#d6dbf1;fill-opacity:1;stroke-width:0.0533102"
     sodipodi:nodetypes="ccccccccccscccccccccccccccsccccc" />
  <path
     stroke-opacity="1.0"
     stroke-width="2.8"
     d="m 23.987,15.444357 -4.988,3.996 v 7.968 l 4.988,3.996 h 1.012 v -15.964 h -1 z m 0.012,1.232 v 13.457 l -4,-3.205 v -7.05 z m 6.03,0.158 -0.771,0.631 c 1.137,1.772 1.742,3.834 1.742,5.939 -0.004,2.104 -0.611,4.162 -1.75,5.932 l 0.783,0.643 c 1.282,-1.953 1.965,-4.238 1.967,-6.574 -0.004,-2.335 -0.689,-4.619 -1.971,-6.57 m -2.34,1.916 -0.781,0.639 c 0.712,1.219 1.088,2.604 1.092,4.02 -0.002,1.412 -0.378,2.798 -1.09,4.02 l 0.781,0.641 c 0.853,-1.404 1.306,-3.02 1.309,-4.658 -0.004,-1.642 -0.457,-3.251 -1.311,-4.654 m -11.689,1.69 v 6 h 2 v -6 z"
     id="path25-3"
     style="fill:#d6dbf1;fill-opacity:1" />
</svg>
