<?xml version="1.0" encoding="UTF-8" standalone="no"?>
<!-- Generator: Adobe Illustrator 12.0.0, SVG Export Plug-In . SVG Version: 6.00 Build 51448)  -->

<svg
   version="1.0"
   id="Livello_1"
   width="48"
   height="48"
   viewBox="0 0 48 48"
   overflow="visible"
   enable-background="new 0 0 126 111.715"
   xml:space="preserve"
   sodipodi:version="0.32"
   inkscape:version="1.2.1 (9c6d41e410, 2022-07-14)"
   sodipodi:docname="kmplot.svg"
   xmlns:inkscape="http://www.inkscape.org/namespaces/inkscape"
   xmlns:sodipodi="http://sodipodi.sourceforge.net/DTD/sodipodi-0.dtd"
   xmlns:xlink="http://www.w3.org/1999/xlink"
   xmlns="http://www.w3.org/2000/svg"
   xmlns:svg="http://www.w3.org/2000/svg"
   xmlns:rdf="http://www.w3.org/1999/02/22-rdf-syntax-ns#"
   xmlns:cc="http://creativecommons.org/ns#"
   xmlns:dc="http://purl.org/dc/elements/1.1/"><metadata
   id="metadata244"><rdf:RDF><cc:Work
       rdf:about=""><dc:format>image/svg+xml</dc:format><dc:type
         rdf:resource="http://purl.org/dc/dcmitype/StillImage" /></cc:Work></rdf:RDF></metadata><defs
   id="defs242"><linearGradient
     inkscape:collect="always"
     id="linearGradient3270"><stop
       style="stop-color:#6193cf;stop-opacity:1;"
       offset="0"
       id="stop3272" /><stop
       style="stop-color:#6193cf;stop-opacity:0;"
       offset="1"
       id="stop3274" /></linearGradient><linearGradient
     inkscape:collect="always"
     id="linearGradient3198"><stop
       style="stop-color:black;stop-opacity:1;"
       offset="0"
       id="stop3200" /><stop
       style="stop-color:black;stop-opacity:0;"
       offset="1"
       id="stop3202" /></linearGradient><linearGradient
     id="linearGradient2866"><stop
       id="stop2868"
       offset="0"
       style="stop-color:#efefef;stop-opacity:1;" /><stop
       style="stop-color:#f8f8f8;stop-opacity:1;"
       offset="0.5"
       id="stop2874" /><stop
       id="stop2870"
       offset="1"
       style="stop-color:#e0e0e0;stop-opacity:1;" /></linearGradient><linearGradient
     id="linearGradient3670"><stop
       style="stop-color:#e8e8e8;stop-opacity:1;"
       offset="0"
       id="stop3672" /><stop
       style="stop-color:#969696;stop-opacity:0;"
       offset="1"
       id="stop3674" /></linearGradient><linearGradient
     id="linearGradient3650"><stop
       style="stop-color:#545454;stop-opacity:1;"
       offset="0"
       id="stop3652" /><stop
       style="stop-color:#b1b1b1;stop-opacity:1;"
       offset="1"
       id="stop3654" /></linearGradient><linearGradient
     id="linearGradient3396"><stop
       id="stop3398"
       offset="0"
       style="stop-color:#040404;stop-opacity:0;" /><stop
       style="stop-color:#040404;stop-opacity:0;"
       offset="0.64971751"
       id="stop3402" /><stop
       id="stop3400"
       offset="1"
       style="stop-color:#040404;stop-opacity:1;" /></linearGradient><linearGradient
     id="linearGradient3251"><stop
       style="stop-color:white;stop-opacity:1;"
       offset="0"
       id="stop3253" /><stop
       style="stop-color:#efefef;stop-opacity:1;"
       offset="1"
       id="stop3255" /></linearGradient><linearGradient
     id="linearGradient3243"><stop
       style="stop-color:yellow;stop-opacity:1;"
       offset="0"
       id="stop3245" /><stop
       style="stop-color:#ffbf00;stop-opacity:1;"
       offset="1"
       id="stop3247" /></linearGradient><linearGradient
     id="linearGradient2995"><stop
       style="stop-color:#4b4b4b;stop-opacity:1;"
       offset="0"
       id="stop2997" /><stop
       style="stop-color:#676767;stop-opacity:1;"
       offset="1"
       id="stop2999" /></linearGradient><linearGradient
     inkscape:collect="always"
     id="linearGradient2979"><stop
       style="stop-color:white;stop-opacity:1;"
       offset="0"
       id="stop2981" /><stop
       style="stop-color:white;stop-opacity:0;"
       offset="1"
       id="stop2983" /></linearGradient><linearGradient
     id="a-3"
     x1="428.81601"
     x2="388.86499"
     y1="547.63397"
     y2="499.67899"
     gradientTransform="matrix(1.0511003,0,0,1.0500003,-405.426,-525.99017)"
     gradientUnits="userSpaceOnUse"><stop
       stop-color="#bdc3c7"
       offset="0"
       id="stop2193" /><stop
       stop-color="#eff0f1"
       offset="1"
       id="stop2195" /></linearGradient><linearGradient
     id="f"
     y1="42"
     x1="41"
     y2="10"
     x2="5"
     gradientUnits="userSpaceOnUse"
     gradientTransform="translate(38,-40.04)"><stop
       stop-color="#2e5d89"
       id="stop23" /><stop
       offset="1"
       stop-color="#1b92f4"
       id="stop25" /></linearGradient><linearGradient
     id="g"
     y1="42"
     x1="41"
     y2="10"
     x2="5"
     gradientUnits="userSpaceOnUse"
     gradientTransform="translate(-106.4344,-56.0605)"><stop
       stop-color="#06a370"
       id="stop28" /><stop
       offset="1"
       stop-color="#22d1b0"
       id="stop30" /></linearGradient><linearGradient
     inkscape:collect="always"
     xlink:href="#linearGradient3270"
     id="linearGradient4768"
     gradientUnits="userSpaceOnUse"
     gradientTransform="matrix(0.27286201,0.0483004,-0.048351,0.27257646,10.037852,4.9034597)"
     x1="27.054956"
     y1="63.925987"
     x2="131.27696"
     y2="13.462614" /><radialGradient
     inkscape:collect="always"
     xlink:href="#linearGradient3198"
     id="radialGradient3142-3"
     cx="56.617783"
     cy="53.387711"
     fx="56.617783"
     fy="53.387711"
     r="6.0582042"
     gradientTransform="matrix(0.29127063,-0.00138059,-0.10664304,2.0070841,12.14262,-87.244882)"
     gradientUnits="userSpaceOnUse" /><radialGradient
     inkscape:collect="always"
     xlink:href="#linearGradient3198"
     id="radialGradient3186-8"
     cx="56.530136"
     cy="53.387711"
     fx="55.982952"
     fy="56.927387"
     r="6.7226977"
     gradientTransform="matrix(0.29039138,-0.04495755,0.2251433,2.3863595,-5.5209695,-105.03007)"
     gradientUnits="userSpaceOnUse" /><linearGradient
     inkscape:collect="always"
     xlink:href="#linearGradient3198"
     id="linearGradient5104"
     gradientUnits="userSpaceOnUse"
     gradientTransform="matrix(0.29127063,-0.00138059,-0.01568004,0.29510571,7.2863107,4.1537514)"
     x1="26.194651"
     y1="55.315872"
     x2="35.331177"
     y2="55.315872" /><linearGradient
     inkscape:collect="always"
     xlink:href="#linearGradient3198"
     id="linearGradient5106"
     gradientUnits="userSpaceOnUse"
     gradientTransform="matrix(0.29127063,-0.00138059,-0.01568004,0.29510571,7.2863107,4.1537514)"
     x1="38.464756"
     y1="54.439438"
     x2="49.003582"
     y2="54.439438" /><linearGradient
     inkscape:collect="always"
     xlink:href="#linearGradient2979"
     id="linearGradient5108"
     gradientUnits="userSpaceOnUse"
     gradientTransform="matrix(0.29127063,-0.00138059,-0.01568004,0.29510571,7.2863107,4.1537514)"
     x1="26.994236"
     y1="91.863266"
     x2="62.675987"
     y2="53.387733" /><linearGradient
     inkscape:collect="always"
     xlink:href="#linearGradient3198"
     id="linearGradient5110"
     gradientUnits="userSpaceOnUse"
     gradientTransform="matrix(0.29127063,-0.00138059,-0.01568004,0.29510571,7.2863107,4.1537514)"
     x1="62.479111"
     y1="52.423634"
     x2="76.173103"
     y2="52.423634" /><linearGradient
     inkscape:collect="always"
     xlink:href="#linearGradient3198"
     id="linearGradient5112"
     gradientUnits="userSpaceOnUse"
     gradientTransform="matrix(0.29127063,-0.00138059,-0.01568004,0.29510571,7.2863107,4.1537514)"
     x1="74.398643"
     y1="51.196621"
     x2="90.020798"
     y2="51.196621" /><radialGradient
     inkscape:collect="always"
     xlink:href="#linearGradient3198"
     id="radialGradient3130-5"
     cx="64.505707"
     cy="63.379086"
     fx="64.505707"
     fy="63.379086"
     r="45.848412"
     gradientTransform="matrix(0.34099426,-0.00161627,-0.0016185,0.0304612,1.5476293,22.670351)"
     gradientUnits="userSpaceOnUse" /><radialGradient
     inkscape:collect="always"
     xlink:href="#linearGradient3198"
     id="radialGradient3196-8"
     cx="64.680992"
     cy="63.379086"
     fx="58.185638"
     fy="64.542931"
     r="46.600548"
     gradientTransform="matrix(0.44556365,-0.03894727,8.7620254e-4,0.03152883,-5.374133,25.017287)"
     gradientUnits="userSpaceOnUse" /><linearGradient
     inkscape:collect="always"
     xlink:href="#linearGradient3198"
     id="linearGradient5756"
     gradientUnits="userSpaceOnUse"
     gradientTransform="matrix(0.34099426,-0.00161627,-0.01835693,0.34548401,2.6084796,2.704481)"
     x1="20.41017"
     y1="83.537117"
     x2="115.08688"
     y2="83.537117" /><linearGradient
     inkscape:collect="always"
     xlink:href="#linearGradient3198"
     id="linearGradient5758"
     gradientUnits="userSpaceOnUse"
     gradientTransform="matrix(0.34099426,-0.00161627,-0.01835693,0.34548401,2.6084796,2.704481)"
     x1="19.358446"
     y1="73.282814"
     x2="112.98343"
     y2="73.282814" /><linearGradient
     inkscape:collect="always"
     xlink:href="#linearGradient2979"
     id="linearGradient5760"
     gradientUnits="userSpaceOnUse"
     gradientTransform="matrix(0.34099426,-0.00161627,-0.01835693,0.34548401,2.6084796,2.704481)"
     x1="26.994236"
     y1="91.863266"
     x2="62.675987"
     y2="53.387733" /><linearGradient
     inkscape:collect="always"
     xlink:href="#linearGradient2979"
     id="linearGradient5762"
     gradientUnits="userSpaceOnUse"
     gradientTransform="matrix(0.34099426,-0.00161627,-0.01835693,0.34548401,2.6084796,2.704481)"
     x1="26.994236"
     y1="91.863266"
     x2="62.675987"
     y2="53.387733" /><linearGradient
     inkscape:collect="always"
     xlink:href="#linearGradient3198"
     id="linearGradient5764"
     gradientUnits="userSpaceOnUse"
     gradientTransform="matrix(0.34099426,-0.00161627,-0.01835693,0.34548401,2.6084796,2.704481)"
     x1="17.430286"
     y1="53.212425"
     x2="108.25067"
     y2="53.212425" /><linearGradient
     inkscape:collect="always"
     xlink:href="#linearGradient3198"
     id="linearGradient5766"
     gradientUnits="userSpaceOnUse"
     gradientTransform="matrix(0.34099426,-0.00161627,-0.01835693,0.34548401,2.6084796,2.704481)"
     x1="16.729137"
     y1="43.133408"
     x2="105.62136"
     y2="43.133408" /></defs><sodipodi:namedview
   inkscape:window-height="1009"
   inkscape:window-width="1920"
   inkscape:pageshadow="2"
   inkscape:pageopacity="0.0"
   borderopacity="1.0"
   bordercolor="#666666"
   pagecolor="#ffffff"
   id="base"
   inkscape:zoom="3.9709576"
   inkscape:cx="105.26428"
   inkscape:cy="63.208935"
   inkscape:window-x="0"
   inkscape:window-y="0"
   inkscape:current-layer="Livello_1"
   showguides="true"
   inkscape:guide-bbox="true"
   inkscape:showpageshadow="2"
   inkscape:pagecheckerboard="0"
   inkscape:deskcolor="#d1d1d1"
   showgrid="false"
   inkscape:window-maximized="1"><sodipodi:guide
     orientation="horizontal"
     position="0,524.53683"
     id="guide1993"
     inkscape:locked="false" /></sodipodi:namedview>




<rect
   x="3"
   y="3"
   width="42.043999"
   height="42"
   rx="21.021999"
   ry="21"
   fill="#95a5a6"
   id="rect2220"
   style="stroke-width:1.05055" /><rect
   x="3"
   y="3"
   width="42.043999"
   height="40.950008"
   rx="21.021999"
   ry="20.475004"
   id="rect2222"
   style="fill:url(#a-3);stroke-width:1.05055" /><path
   style="fill:url(#linearGradient4768);fill-opacity:1;fill-rule:evenodd;stroke:none;stroke-width:0.690531;stroke-linecap:butt;stroke-linejoin:miter;stroke-miterlimit:4;stroke-dasharray:none;stroke-opacity:1"
   d="m 35.14636,10.77666 c -0.278968,3.145961 -0.733904,8.582665 -3.082664,10.875096 -4.892627,4.77527 -11.763174,4.784183 -16.569626,9.266956 -2.233583,2.080528 -3.052024,4.958333 -3.575188,6.304628 l 0.839553,-0.09006 c 0.403471,-1.133025 1.079551,-3.522504 2.93661,-5.611156 3.754297,-4.222518 11.927138,-4.751048 16.818861,-9.525448 2.235044,-2.18143 2.750938,-6.943563 2.937128,-9.530174 z"
   id="path3251-4-5"
   sodipodi:nodetypes="cssccsscc" /><ellipse
   transform="matrix(0.99998877,-0.00473962,-0.05305855,0.9985914,0,0)"
   id="path2088-8"
   style="opacity:0.66;fill:#2e3436;fill-opacity:1;fill-rule:nonzero;stroke:none;stroke-width:0.27267;stroke-linecap:round;stroke-linejoin:round;stroke-miterlimit:4;stroke-dasharray:none;stroke-dashoffset:4;stroke-opacity:1"
   cx="32.756699"
   cy="7.0864563"
   rx="0.31276837"
   ry="0.23077719" /><ellipse
   style="opacity:0.66;fill:#6193cf;fill-opacity:1;fill-rule:nonzero;stroke:none;stroke-width:0.27267;stroke-linecap:round;stroke-linejoin:round;stroke-miterlimit:4;stroke-dasharray:none;stroke-dashoffset:4;stroke-opacity:1"
   id="path2090-4"
   transform="matrix(0.99998877,-0.00473962,-0.05305855,0.9985914,0,0)"
   cx="29.256506"
   cy="7.3428955"
   rx="0.31276837"
   ry="0.23077719" /><ellipse
   transform="matrix(0.99998877,-0.00473962,-0.05305855,0.9985914,0,0)"
   id="path2092-3"
   style="opacity:0.66;fill:#2e3436;fill-opacity:1;fill-rule:nonzero;stroke:none;stroke-width:0.27267;stroke-linecap:round;stroke-linejoin:round;stroke-miterlimit:4;stroke-dasharray:none;stroke-dashoffset:4;stroke-opacity:1"
   cx="25.756313"
   cy="7.5993328"
   rx="0.31276837"
   ry="0.23077719" /><ellipse
   style="opacity:0.66;fill:#6193cf;fill-opacity:1;fill-rule:nonzero;stroke:none;stroke-width:0.27267;stroke-linecap:round;stroke-linejoin:round;stroke-miterlimit:4;stroke-dasharray:none;stroke-dashoffset:4;stroke-opacity:1"
   id="path2094-1"
   transform="matrix(0.99998877,-0.00473962,-0.05305855,0.9985914,0,0)"
   cx="22.256124"
   cy="7.855772"
   rx="0.31276837"
   ry="0.23077719" /><ellipse
   transform="matrix(0.99998877,-0.00473962,-0.05305855,0.9985914,0,0)"
   id="path2096-4"
   style="opacity:0.66;fill:#2e3436;fill-opacity:1;fill-rule:nonzero;stroke:none;stroke-width:0.27267;stroke-linecap:round;stroke-linejoin:round;stroke-miterlimit:4;stroke-dasharray:none;stroke-dashoffset:4;stroke-opacity:1"
   cx="18.755932"
   cy="8.0829916"
   rx="0.31276837"
   ry="0.23077719" /><ellipse
   style="opacity:0.66;fill:#6193cf;fill-opacity:1;fill-rule:nonzero;stroke:none;stroke-width:0.27267;stroke-linecap:round;stroke-linejoin:round;stroke-miterlimit:4;stroke-dasharray:none;stroke-dashoffset:4;stroke-opacity:1"
   id="path2098-9"
   transform="matrix(0.99998877,-0.00473962,-0.05305855,0.9985914,0,0)"
   cx="15.264777"
   cy="8.3627119"
   rx="0.31276837"
   ry="0.23077719" /><path
   style="opacity:0.229508;fill:none;fill-opacity:1;fill-rule:evenodd;stroke:url(#linearGradient5104);stroke-width:0.0577128;stroke-linecap:butt;stroke-linejoin:miter;stroke-miterlimit:4;stroke-dasharray:none;stroke-opacity:1"
   d="M 14.727383,8.2077428 16.031207,32.662861"
   id="path2221-2" /><path
   style="opacity:0.229508;fill:none;fill-opacity:1;fill-rule:evenodd;stroke:url(#linearGradient5106);stroke-width:0.0577128;stroke-linecap:butt;stroke-linejoin:miter;stroke-miterlimit:4;stroke-dasharray:none;stroke-opacity:1"
   d="M 18.315045,7.9321612 20.027312,32.385349"
   id="path2223-0" /><path
   style="fill:url(#linearGradient5108);fill-opacity:1;fill-rule:evenodd;stroke:url(#radialGradient3142-3);stroke-width:0.0577128;stroke-linecap:butt;stroke-linejoin:miter;stroke-miterlimit:4;stroke-dasharray:none;stroke-opacity:1"
   d="M 21.848903,7.7085504 24.031667,31.952642"
   id="path2225-6" /><path
   style="opacity:0.229508;fill:none;fill-opacity:1;fill-rule:evenodd;stroke:url(#linearGradient5110);stroke-width:0.0577128;stroke-linecap:butt;stroke-linejoin:miter;stroke-miterlimit:4;stroke-dasharray:none;stroke-opacity:1"
   d="M 25.3317,7.4851815 27.982221,31.571907"
   id="path2227-8" /><path
   style="opacity:0.229508;fill:none;fill-opacity:1;fill-rule:evenodd;stroke:url(#linearGradient5112);stroke-width:0.0577128;stroke-linecap:butt;stroke-linejoin:miter;stroke-miterlimit:4;stroke-dasharray:none;stroke-opacity:1"
   d="m 28.825492,7.0549003 3.20665,24.1875237"
   id="path2229-9" /><path
   style="opacity:0.508197;fill:none;fill-opacity:0.75;fill-rule:evenodd;stroke:url(#radialGradient3186-8);stroke-width:0.293144px;stroke-linecap:butt;stroke-linejoin:miter;stroke-opacity:1"
   d="M 21.752285,7.6055785 24.077226,32.05586"
   id="path3178-2" /><ellipse
   style="opacity:0.66;fill:#2e3436;fill-opacity:1;fill-rule:nonzero;stroke:none;stroke-width:0.409277;stroke-linecap:round;stroke-linejoin:round;stroke-miterlimit:4;stroke-dasharray:none;stroke-dashoffset:4;stroke-opacity:1"
   id="path2072-7"
   transform="matrix(0.99998877,-0.00473993,-0.05305815,0.99859142,0,0)"
   cx="38.057755"
   cy="34.141804"
   rx="0.4152334"
   ry="0.39165846" /><ellipse
   transform="matrix(0.99998877,-0.00473993,-0.05305815,0.99859142,0,0)"
   id="path2074-2"
   style="opacity:0.66;fill:#6193cf;fill-opacity:1;fill-rule:nonzero;stroke:none;stroke-width:0.409277;stroke-linecap:round;stroke-linejoin:round;stroke-miterlimit:4;stroke-dasharray:none;stroke-dashoffset:4;stroke-opacity:1"
   cx="33.410812"
   cy="34.576988"
   rx="0.4152334"
   ry="0.39165846" /><ellipse
   style="opacity:0.66;fill:#2e3436;fill-opacity:1;fill-rule:nonzero;stroke:none;stroke-width:0.409277;stroke-linecap:round;stroke-linejoin:round;stroke-miterlimit:4;stroke-dasharray:none;stroke-dashoffset:4;stroke-opacity:1"
   id="path2076-7"
   transform="matrix(0.99998877,-0.00473993,-0.05305815,0.99859142,0,0)"
   cx="28.76403"
   cy="35.012157"
   rx="0.4152334"
   ry="0.39165846" /><ellipse
   transform="matrix(0.99998877,-0.00473993,-0.05305815,0.99859142,0,0)"
   id="path2078-2"
   style="opacity:0.66;fill:#6193cf;fill-opacity:1;fill-rule:nonzero;stroke:none;stroke-width:0.409277;stroke-linecap:round;stroke-linejoin:round;stroke-miterlimit:4;stroke-dasharray:none;stroke-dashoffset:4;stroke-opacity:1"
   cx="24.117182"
   cy="35.447361"
   rx="0.4152334"
   ry="0.39165846" /><ellipse
   style="opacity:0.66;fill:#2e3436;fill-opacity:1;fill-rule:nonzero;stroke:none;stroke-width:0.409277;stroke-linecap:round;stroke-linejoin:round;stroke-miterlimit:4;stroke-dasharray:none;stroke-dashoffset:4;stroke-opacity:1"
   id="path2080-2"
   transform="matrix(0.99998877,-0.00473993,-0.05305815,0.99859142,0,0)"
   cx="19.470251"
   cy="35.882572"
   rx="0.4152334"
   ry="0.39165846" /><ellipse
   transform="matrix(0.99998877,-0.00473993,-0.05305815,0.99859142,0,0)"
   id="path2082-6"
   style="opacity:0.66;fill:#6193cf;fill-opacity:1;fill-rule:nonzero;stroke:none;stroke-width:0.409277;stroke-linecap:round;stroke-linejoin:round;stroke-miterlimit:4;stroke-dasharray:none;stroke-dashoffset:4;stroke-opacity:1"
   cx="14.823281"
   cy="36.317696"
   rx="0.4152334"
   ry="0.39165846" /><ellipse
   style="opacity:0.66;fill:#6193cf;fill-opacity:1;fill-rule:nonzero;stroke:none;stroke-width:0.319228;stroke-linecap:round;stroke-linejoin:round;stroke-miterlimit:4;stroke-dasharray:none;stroke-dashoffset:4;stroke-opacity:1"
   id="path2102-1"
   transform="matrix(0.99998877,-0.00473962,-0.05305855,0.9985914,0,0)"
   cx="8.2552671"
   cy="14.701634"
   rx="0.3661617"
   ry="0.2701737" /><ellipse
   transform="matrix(-0.99998877,0.00473908,-0.05305848,0.99859141,0,0)"
   id="path2138-0"
   style="opacity:0.66;fill:#2e3436;fill-opacity:1;fill-rule:nonzero;stroke:none;stroke-width:0.403398;stroke-linecap:round;stroke-linejoin:round;stroke-miterlimit:4;stroke-dasharray:none;stroke-dashoffset:4;stroke-opacity:1"
   cx="-8.2552805"
   cy="15.343131"
   rx="0.4254494"
   ry="0.37131581" /><ellipse
   style="opacity:0.66;fill:#6193cf;fill-opacity:1;fill-rule:nonzero;stroke:none;stroke-width:0.407458;stroke-linecap:round;stroke-linejoin:round;stroke-miterlimit:4;stroke-dasharray:none;stroke-dashoffset:4;stroke-opacity:1"
   id="path2140-6"
   transform="matrix(-0.99998877,0.00473887,-0.05305814,0.99859142,0,0)"
   cx="-8.5245228"
   cy="18.897022"
   rx="0.42974791"
   ry="0.37506694" /><ellipse
   transform="matrix(-0.99998876,0.00474037,-0.05305836,0.99859141,0,0)"
   id="path2142-1"
   style="opacity:0.66;fill:#2e3436;fill-opacity:1;fill-rule:nonzero;stroke:none;stroke-width:0.411579;stroke-linecap:round;stroke-linejoin:round;stroke-miterlimit:4;stroke-dasharray:none;stroke-dashoffset:4;stroke-opacity:1"
   cx="-8.7616625"
   cy="22.359137"
   rx="0.43408787"
   ry="0.3788546" /><ellipse
   style="opacity:0.66;fill:#6193cf;fill-opacity:1;fill-rule:nonzero;stroke:none;stroke-width:0.415735;stroke-linecap:round;stroke-linejoin:round;stroke-miterlimit:4;stroke-dasharray:none;stroke-dashoffset:4;stroke-opacity:1"
   id="path2144-5"
   transform="matrix(-0.99998877,0.00474002,-0.05305831,0.99859142,0,0)"
   cx="-9.1121016"
   cy="25.95631"
   rx="0.43847266"
   ry="0.38268188" /><ellipse
   transform="matrix(-0.99998876,0.00474069,-0.05305794,0.99859144,0,0)"
   id="path2146-9"
   style="opacity:0.66;fill:#2e3436;fill-opacity:1;fill-rule:nonzero;stroke:none;stroke-width:0.419939;stroke-linecap:round;stroke-linejoin:round;stroke-miterlimit:4;stroke-dasharray:none;stroke-dashoffset:4;stroke-opacity:1"
   cx="-9.4272404"
   cy="29.489691"
   rx="0.4429017"
   ry="0.38654721" /><ellipse
   style="opacity:0.66;fill:#6193cf;fill-opacity:1;fill-rule:nonzero;stroke:none;stroke-width:0.42417;stroke-linecap:round;stroke-linejoin:round;stroke-miterlimit:4;stroke-dasharray:none;stroke-dashoffset:4;stroke-opacity:1"
   id="path2148-4"
   transform="matrix(-0.99998877,0.00474015,-0.05305862,0.9985914,0,0)"
   cx="-9.7512026"
   cy="33.067829"
   rx="0.44737539"
   ry="0.39045256" /><ellipse
   transform="matrix(-0.99998877,0.00474015,-0.05305862,0.9985914,0,0)"
   id="path2150-9"
   style="opacity:0.66;fill:#2e3436;fill-opacity:1;fill-rule:nonzero;stroke:none;stroke-width:0.42417;stroke-linecap:round;stroke-linejoin:round;stroke-miterlimit:4;stroke-dasharray:none;stroke-dashoffset:4;stroke-opacity:1"
   cx="-10.18125"
   cy="36.722275"
   rx="0.44737539"
   ry="0.39045256" /><ellipse
   transform="matrix(-0.9904044,0.1381996,0.08493771,0.99638626,0,0)"
   id="path2195-0"
   style="opacity:0.66;fill:#2e3436;fill-opacity:1;fill-rule:nonzero;stroke:none;stroke-width:0.406123;stroke-linecap:round;stroke-linejoin:round;stroke-miterlimit:4;stroke-dasharray:none;stroke-dashoffset:4;stroke-opacity:1"
   cx="-36.367123"
   cy="21.379105"
   rx="0.43671113"
   ry="0.36667597" /><ellipse
   style="opacity:0.66;fill:#6193cf;fill-opacity:1;fill-rule:nonzero;stroke:none;stroke-width:0.410228;stroke-linecap:round;stroke-linejoin:round;stroke-miterlimit:4;stroke-dasharray:none;stroke-dashoffset:4;stroke-opacity:1"
   id="path2197-9"
   transform="matrix(-0.99040431,0.13820022,0.08493653,0.99638636,0,0)"
   cx="-36.683731"
   cy="24.86105"
   rx="0.44112244"
   ry="0.3703801" /><ellipse
   transform="matrix(-0.99040429,0.13820039,0.08493782,0.99638625,0,0)"
   id="path2199-1"
   style="opacity:0.66;fill:#2e3436;fill-opacity:1;fill-rule:nonzero;stroke:none;stroke-width:0.418558;stroke-linecap:round;stroke-linejoin:round;stroke-miterlimit:4;stroke-dasharray:none;stroke-dashoffset:4;stroke-opacity:1"
   cx="-37.000114"
   cy="28.342728"
   rx="0.4500789"
   ry="0.37790036" /><ellipse
   style="opacity:0.66;fill:#6193cf;fill-opacity:1;fill-rule:nonzero;stroke:none;stroke-width:0.418558;stroke-linecap:round;stroke-linejoin:round;stroke-miterlimit:4;stroke-dasharray:none;stroke-dashoffset:4;stroke-opacity:1"
   id="path2201-7"
   transform="matrix(-0.99040429,0.13820039,0.08493782,0.99638625,0,0)"
   cx="-37.316925"
   cy="31.824501"
   rx="0.4500789"
   ry="0.37790036" /><ellipse
   transform="matrix(-0.99040439,0.13819966,0.08493751,0.99638628,0,0)"
   id="path2203-7"
   style="opacity:0.66;fill:#2e3436;fill-opacity:1;fill-rule:nonzero;stroke:none;stroke-width:0.422792;stroke-linecap:round;stroke-linejoin:round;stroke-miterlimit:4;stroke-dasharray:none;stroke-dashoffset:4;stroke-opacity:1"
   cx="-37.633606"
   cy="35.306339"
   rx="0.45462477"
   ry="0.38171747" /><ellipse
   style="opacity:0.66;fill:#6193cf;fill-opacity:1;fill-rule:nonzero;stroke:none;stroke-width:0.422792;stroke-linecap:round;stroke-linejoin:round;stroke-miterlimit:4;stroke-dasharray:none;stroke-dashoffset:4;stroke-opacity:1"
   id="path2205-1"
   transform="matrix(-0.99040439,0.13819966,0.08493751,0.99638628,0,0)"
   cx="-37.950165"
   cy="38.788074"
   rx="0.45462477"
   ry="0.38171747" /><path
   style="opacity:0.401639;fill:none;fill-opacity:1;fill-rule:evenodd;stroke:url(#linearGradient5756);stroke-width:0.067566;stroke-linecap:butt;stroke-linejoin:miter;stroke-miterlimit:4;stroke-dasharray:none;stroke-opacity:1"
   d="M 7.9927057,32.95518 40.360984,29.956206 v 0"
   id="path2207-1" /><path
   style="opacity:0.229508;fill:none;fill-opacity:1;fill-rule:evenodd;stroke:url(#linearGradient5758);stroke-width:0.067566;stroke-linecap:butt;stroke-linejoin:miter;stroke-miterlimit:4;stroke-dasharray:none;stroke-opacity:1"
   d="M 7.823922,29.383914 39.830349,26.447195"
   id="path2209-5" /><path
   style="fill:url(#linearGradient5760);fill-opacity:1;fill-rule:evenodd;stroke:url(#radialGradient3130-5);stroke-width:0.067566;stroke-linecap:butt;stroke-linejoin:miter;stroke-miterlimit:4;stroke-dasharray:none;stroke-opacity:1"
   d="M 7.7682384,25.933182 39.11396,23.060142"
   id="path2211-9" /><path
   style="opacity:0.229508;fill:url(#linearGradient5762);fill-opacity:1;fill-rule:evenodd;stroke:url(#linearGradient5764);stroke-width:0.067566;stroke-linecap:butt;stroke-linejoin:miter;stroke-miterlimit:4;stroke-dasharray:none;stroke-opacity:1"
   d="M 7.546122,22.241065 38.573665,19.732808"
   id="path2213-7" /><path
   style="opacity:0.229508;fill:none;fill-opacity:1;fill-rule:evenodd;stroke:url(#linearGradient5766);stroke-width:0.067566;stroke-linecap:butt;stroke-linejoin:miter;stroke-miterlimit:4;stroke-dasharray:none;stroke-opacity:1"
   d="M 7.4936532,18.72978 37.860485,16.2852"
   id="path2215-7" /><path
   style="opacity:0.508197;fill:none;fill-opacity:0.75;fill-rule:evenodd;stroke:url(#radialGradient3196-8);stroke-width:0.343184px;stroke-linecap:butt;stroke-linejoin:miter;stroke-opacity:1"
   d="M 7.7116959,25.872913 39.290045,23.11985"
   id="path3188-6" /><path
   style="font-style:normal;font-variant:normal;font-weight:normal;font-stretch:normal;font-size:37.2529px;line-height:125%;font-family:Cotillion;text-align:start;writing-mode:lr-tb;text-anchor:start;fill:#000000;fill-opacity:1;stroke:none;stroke-width:0.281639px;stroke-linecap:butt;stroke-linejoin:miter;stroke-opacity:1"
   d="m 25.091091,26.575975 c 0.04504,0.241899 -0.03666,0.41017 -0.24517,0.504816 -0.03603,0.01023 -0.07812,0.01023 -0.12634,0 l -0.02075,-0.06314 -0.04383,-0.157753 c -0.01016,-0.0525 -0.07163,-0.141975 -0.186577,-0.268177 -0.121121,-0.136712 -0.281708,-0.205074 -0.481749,-0.205084 -0.126327,10e-6 -0.257713,0.0368 -0.394126,0.110398 -0.142513,0.06315 -0.267385,0.184058 -0.374608,0.362837 -0.107286,0.178802 -0.20491,0.446981 -0.293019,0.804557 -0.03967,0.168272 -0.06812,0.31025 -0.08547,0.425936 -0.05822,0.336552 -0.105941,0.772994 -0.14338,1.309353 l -0.04525,0.741449 -9.11e-4,0.489046 h 1.468648 l 0.02375,0.205069 h -1.516056 l -0.06463,0.899213 -0.05858,0.772993 -0.02899,0.441714 -0.01985,0.457485 -0.03687,0.236628 -0.120921,1.293594 c -0.115695,1.020148 -0.278449,1.74055 -0.488012,2.161227 -0.20958,0.420686 -0.565551,0.751957 -1.067966,0.99386 -0.193506,0.08415 -0.380372,0.152487 -0.560534,0.205077 -0.180162,0.05253 -0.343939,0.07895 -0.491339,0.07896 L 19.3794,38.360253 h -0.252747 l -0.182834,-0.01578 c -0.08417,-1.3e-5 -0.182824,-0.0158 -0.29582,-0.04737 -0.106949,-0.02096 -0.233439,-0.05779 -0.379649,-0.110415 -0.294022,-0.126205 -0.498782,-0.28921 -0.614278,-0.489035 -0.07914,-0.136728 -0.09174,-0.268195 -0.0384,-0.394391 l 0.125666,-0.110406 c 0.09305,-0.02097 0.155487,-0.03163 0.18707,-0.03163 0.147393,-1.2e-5 0.28388,0.06314 0.409452,0.189302 0.05483,0.09464 0.08288,0.152502 0.08446,0.173529 l -0.03328,0.07896 c -0.02669,0.06314 -0.01572,0.136707 0.03295,0.220846 0.07301,0.126207 0.209639,0.226114 0.4101,0.299743 0.185497,0.08416 0.40458,0.126198 0.657249,0.126199 0.31584,-1e-6 0.596622,-0.07896 0.842331,-0.236623 0.235202,-0.157766 0.430671,-0.420686 0.586409,-0.788776 0.06076,-0.168283 0.102503,-0.341806 0.1255,-0.520596 0.02302,-0.178788 0.05257,-0.510076 0.08888,-0.99385 l 0.02711,-0.362833 0.0616,-1.041192 0.180812,-1.845724 0.04233,-0.473255 0.07673,-1.151616 H 20.51031 l -0.02378,-0.205079 h 1.042232 l 0.05255,-0.646792 c 0.07094,-0.715135 0.164682,-1.272537 0.281119,-1.672188 0.110323,-0.410157 0.261071,-0.741438 0.452081,-0.99385 0.36542,-0.515331 0.773228,-0.857127 1.223434,-1.02541 0.240084,-0.09462 0.475929,-0.141975 0.70754,-0.141983 0.136864,8e-6 0.279811,0.01015 0.428826,0.03158 0.159552,0.02098 0.284917,0.110424 0.376085,0.268184 0.01216,0.02098 0.02589,0.06315 0.04135,0.126197"
   id="path1992-7" /><path
   style="font-style:normal;font-variant:normal;font-weight:normal;font-stretch:normal;font-size:37.2529px;line-height:125%;font-family:Cotillion;text-align:start;writing-mode:lr-tb;text-anchor:start;fill:#000000;fill-opacity:1;stroke:none;stroke-width:0.281639px;stroke-linecap:butt;stroke-linejoin:miter;stroke-opacity:1"
   d="m 27.046364,27.7228 0.01194,0.04742 -0.02919,0.03159 -0.0052,0.04739 -0.235573,0.220857 c -0.08388,0.07366 -0.156234,0.157764 -0.217329,0.2524 -0.06709,0.08417 -0.179678,0.262935 -0.337486,0.536375 -0.298994,0.557412 -0.527505,1.209455 -0.685502,1.956143 -0.158007,0.746722 -0.237432,1.556523 -0.238272,2.429422 0.002,0.988598 0.06595,1.735317 0.189247,2.240116 0.133835,0.504823 0.282812,0.899202 0.446929,1.183158 l 0.100229,0.173527 -0.0052,0.04741 c 0.0078,0.03156 9.14e-4,0.04739 -0.02007,0.04739 -0.03769,-0.01025 -0.06994,-0.02095 -0.09713,-0.03156 -0.03316,-0.02095 -0.08986,-0.07364 -0.170131,-0.157745 -0.166492,-0.178803 -0.343955,-0.431198 -0.532395,-0.757222 -0.40117,-0.69412 -0.665472,-1.388227 -0.792917,-2.082365 -0.133521,-0.704625 -0.127789,-1.514433 0.01713,-2.429407 0.08922,-0.410162 0.19545,-0.773003 0.318409,-1.088518 0.122961,-0.315495 0.331336,-0.683589 0.625131,-1.104277 0.15661,-0.220843 0.275986,-0.378599 0.358148,-0.473261 0.144888,-0.168268 0.300315,-0.336533 0.466268,-0.504812 l 0.219813,-0.220878 0.170614,-0.141976 0.267147,-0.220861 0.09905,-0.04739 0.0747,0.04739"
   id="path1990-3" /><path
   style="font-style:normal;font-variant:normal;font-weight:normal;font-stretch:normal;font-size:37.2529px;line-height:125%;font-family:Cotillion;text-align:start;writing-mode:lr-tb;text-anchor:start;fill:#000000;fill-opacity:1;stroke:none;stroke-width:0.281639px;stroke-linecap:butt;stroke-linejoin:miter;stroke-opacity:1"
   d="m 32.832901,32.617974 0.0036,0.06314 -0.04483,0.110396 -0.01206,0.06314 -0.203466,0.36283 -0.136888,0.220863 -0.116219,0.236639 -0.141769,0.205077 -0.196309,0.283955 c -0.1567,0.241892 -0.290824,0.420681 -0.402388,0.536367 -0.111573,0.115667 -0.28666,0.247155 -0.525317,0.394389 -0.238654,0.147237 -0.468529,0.22086 -0.689609,0.22086 -0.58957,0 -1.036343,-0.320778 -1.340322,-0.962314 -0.0472,-0.0841 -0.08193,-0.163002 -0.104892,-0.236626 -0.02599,-0.08413 -0.04394,-0.141983 -0.05371,-0.173531 l -0.05568,0.126212 -0.0715,0.126194 c -0.176759,0.347063 -0.390104,0.609987 -0.640046,0.788771 -0.260468,0.17879 -0.517029,0.268193 -0.769698,0.268193 -0.252683,0 -0.41321,-0.110415 -0.481622,-0.331287 -0.01016,-0.0316 -0.0184,-0.110426 -0.02589,-0.236637 -0.01038,-0.13672 0.05139,-0.241891 0.186534,-0.31551 0.124601,-0.07359 0.218469,-0.110413 0.281634,-0.110413 0.07373,8e-6 0.134486,0.02623 0.182362,0.07896 l 0.02929,0.09468 c 0.04632,0.115689 0.182969,0.199822 0.409807,0.252409 0.07695,0.01015 0.154673,-0.01026 0.23312,-0.06314 0.06797,-0.05254 0.163331,-0.152495 0.286191,-0.299724 l 0.158702,-0.252406 0.152679,-0.22086 0.06057,-0.110396 c -0.06198,-0.199837 -0.102319,-0.347059 -0.121032,-0.441717 -0.02201,-0.105136 -0.06865,-0.425944 -0.140139,-0.962304 l -0.06649,-0.520585 -0.03563,-0.268188 -0.0102,-0.236636 -0.0296,-0.299725 -0.0797,0.252403 -0.09666,0.299738 -0.106461,0.268184 -0.195944,0.489035 c -0.07821,0.189307 -0.128254,0.299725 -0.150072,0.331278 -0.0218,0.03156 -0.0712,0.04214 -0.148142,0.03156 l 9.18e-4,-0.04736 -0.003,-0.06313 0.154959,-0.315517 0.276824,-0.788768 0.114767,-0.394387 0.09544,-0.252407 0.225975,0.01577 c 0.178975,3e-6 0.340914,-0.02097 0.485804,-0.06314 0.144889,-0.04211 0.290155,-0.09992 0.43581,-0.173521 l -0.01043,0.220855 0.003,0.520598 c 0.0088,0.368096 0.02269,0.667816 0.04165,0.899193 0.019,0.231373 0.05381,0.462753 0.104393,0.694119 l 0.153823,-0.268183 0.147811,-0.236639 0.197429,-0.331265 c 0.428208,-0.588965 0.76928,-0.98335 1.023239,-1.18317 0.261216,-0.210338 0.497106,-0.315507 0.707672,-0.315508 0.171698,0.01016 0.310699,0.06834 0.41696,0.173521 0.113595,0.09467 0.167168,0.199827 0.160887,0.315511 l -0.03113,0.20508 c -0.104071,0.241897 -0.20874,0.362835 -0.314009,0.362835 -0.06325,0 -0.147892,-0.05251 -0.254154,-0.157757 -0.04872,-0.02095 -0.08351,-0.03155 -0.104558,-0.03155 -0.125573,-0.03158 -0.241012,-0.04738 -0.346289,-0.04738 -0.06325,0 -0.153413,0.0316 -0.270731,0.09464 -0.109993,0.05251 -0.209572,0.105144 -0.298562,0.157752 -0.171471,0.126212 -0.331161,0.273441 -0.479072,0.44172 -0.184267,0.220854 -0.360772,0.483779 -0.529506,0.788775 l -0.122206,0.268149 c 0.03101,0.168271 0.06769,0.320771 0.110105,0.457484 0.01625,0.05254 0.03268,0.105133 0.04882,0.157757 0.0472,0.08413 0.07705,0.147239 0.09026,0.189304 0.182419,0.588947 0.457857,0.883439 0.826336,0.883439 0.157927,0 0.334761,-0.0578 0.530561,-0.173543 0.109989,-0.05255 0.208305,-0.126202 0.294799,-0.22085 0.08649,-0.09461 0.202459,-0.247143 0.347864,-0.457495 l 0.227892,-0.283952 0.09808,-0.14198 0.141766,-0.205077 0.3257,-0.631025 c 0.02328,-0.09465 0.04752,-0.152496 0.07255,-0.173523 0.0104,0 0.01943,-0.0056 0.02669,-0.01579 l 0.08278,0.06313"
   id="path1988-6" /><path
   style="font-style:normal;font-variant:normal;font-weight:normal;font-stretch:normal;font-size:37.2529px;line-height:125%;font-family:Cotillion;text-align:start;writing-mode:lr-tb;text-anchor:start;fill:#000000;fill-opacity:1;stroke:none;stroke-width:0.281639px;stroke-linecap:butt;stroke-linejoin:miter;stroke-opacity:1"
   d="m 34.577978,29.221468 c 0.257345,0.536358 0.423212,1.114801 0.497573,1.735296 0.08537,0.694121 0.06781,1.419784 -0.0525,2.177011 -0.06983,0.389135 -0.172974,0.757226 -0.30929,1.10428 -0.142393,0.336547 -0.359085,0.699377 -0.650062,1.0885 -0.196636,0.315518 -0.46395,0.636286 -0.801928,0.962305 l -0.242245,0.236643 -0.148151,0.126189 -0.282945,0.220855 c -0.03883,0.04214 -0.06883,0.06315 -0.08987,0.06315 -0.0271,-0.01024 -0.04372,-0.02097 -0.04985,-0.03161 l -0.02074,-0.06314 0.0052,-0.04738 0.02919,-0.03156 0.235574,-0.220846 c 0.07054,-0.04212 0.148967,-0.115669 0.235558,-0.220867 0.06994,-0.11568 0.176434,-0.304984 0.319245,-0.567912 0.229006,-0.441709 0.444164,-1.062212 0.645469,-1.8615 0.174611,-0.736186 0.255236,-1.598578 0.241841,-2.587181 -0.002,-0.98859 -0.06812,-1.730026 -0.195901,-2.224328 -0.13386,-0.504802 -0.276749,-0.888678 -0.428722,-1.15161 l -0.09126,-0.157755 -0.02067,-0.06314 c 0.02827,-0.04211 0.06729,-0.04735 0.117255,-0.01576 0.09972,0.06315 0.204767,0.163017 0.315361,0.299739 0.121148,0.136723 0.263759,0.347057 0.427882,0.631014 0.0547,0.09467 0.109447,0.189311 0.164111,0.283954 0.05792,0.136731 0.108223,0.241894 0.150768,0.315509"
   id="path1986-5" /><path
   style="font-style:normal;font-variant:normal;font-weight:normal;font-stretch:normal;font-size:37.2529px;line-height:125%;font-family:Cotillion;text-align:start;writing-mode:lr-tb;text-anchor:start;fill:#000000;fill-opacity:1;stroke:none;stroke-width:0.281639px;stroke-linecap:butt;stroke-linejoin:miter;stroke-opacity:1"
   d="m 41.104104,31.49982 h -4.127451 v -0.615252 h 4.127451 v 0.615252"
   id="path1984-6" /><path
   style="font-style:normal;font-variant:normal;font-weight:normal;font-stretch:normal;font-size:37.2529px;line-height:125%;font-family:Cotillion;text-align:start;writing-mode:lr-tb;text-anchor:start;fill:#000000;fill-opacity:1;stroke:none;stroke-width:0.281639px;stroke-linecap:butt;stroke-linejoin:miter;stroke-opacity:1"
   d="m 41.104104,34.292076 h -4.127451 v -0.615244 h 4.127451 v 0.615244"
   id="text1977-3" /></svg>
