<?xml version="1.0" encoding="UTF-8" standalone="no"?>
<svg
   width="48"
   height="48"
   version="1.1"
   id="svg34"
   sodipodi:docname="knetattach.svg"
   inkscape:version="1.2.1 (9c6d41e410, 2022-07-14)"
   xmlns:inkscape="http://www.inkscape.org/namespaces/inkscape"
   xmlns:sodipodi="http://sodipodi.sourceforge.net/DTD/sodipodi-0.dtd"
   xmlns:xlink="http://www.w3.org/1999/xlink"
   xmlns="http://www.w3.org/2000/svg"
   xmlns:svg="http://www.w3.org/2000/svg">
  <sodipodi:namedview
     id="namedview36"
     pagecolor="#ffffff"
     bordercolor="#666666"
     borderopacity="1.0"
     inkscape:showpageshadow="2"
     inkscape:pageopacity="0.0"
     inkscape:pagecheckerboard="0"
     inkscape:deskcolor="#d1d1d1"
     showgrid="false"
     inkscape:zoom="4.9166667"
     inkscape:cx="23.898305"
     inkscape:cy="24"
     inkscape:window-width="1920"
     inkscape:window-height="1009"
     inkscape:window-x="0"
     inkscape:window-y="0"
     inkscape:window-maximized="1"
     inkscape:current-layer="svg34" />
  <defs
     id="defs12">
    <linearGradient
       id="a"
       y1="543.8"
       y2="509.8"
       x2="0"
       gradientUnits="userSpaceOnUse"
       gradientTransform="translate(-318.33642,-537.2856)">
      <stop
         stop-color="#2f74c8"
         id="stop2" />
      <stop
         offset="1"
         stop-color="#4699d7"
         id="stop4" />
    </linearGradient>
    <linearGradient
       id="b"
       y1="17"
       x1="18"
       y2="32"
       x2="33"
       gradientUnits="userSpaceOnUse"
       gradientTransform="translate(-70.48997,-23.779315)">
      <stop
         stop-color="#383e51"
         id="stop7" />
      <stop
         offset="1"
         stop-color="#655c6f"
         stop-opacity="0"
         id="stop9" />
    </linearGradient>
    <linearGradient
       inkscape:collect="always"
       xlink:href="#linearGradient1063"
       id="linearGradient1065"
       x1="24.000158"
       y1="45"
       x2="24.000265"
       y2="3.0004399"
       gradientUnits="userSpaceOnUse"
       gradientTransform="translate(-1.59e-4)" />
    <linearGradient
       inkscape:collect="always"
       id="linearGradient1063">
      <stop
         style="stop-color:#589bff;stop-opacity:1;"
         offset="0"
         id="stop1059" />
      <stop
         style="stop-color:#ffccaa;stop-opacity:1"
         offset="1"
         id="stop1061" />
    </linearGradient>
    <linearGradient
       id="linearGradient80038"
       x1="33.014"
       x2="34.219002"
       y1="10.136"
       y2="9.4466"
       gradientTransform="matrix(2.6042072,-0.46674104,0.46674104,2.6042072,-58.590369,25.424524)"
       gradientUnits="userSpaceOnUse">
      <stop
         stop-color="#3c292c"
         offset="0"
         id="stop236" />
      <stop
         stop-color="#c2bbc2"
         offset=".1557"
         id="stop238" />
      <stop
         stop-color="#50393c"
         offset=".42952"
         id="stop240" />
      <stop
         stop-color="#dddee3"
         offset=".60187"
         id="stop242" />
      <stop
         stop-color="#6a5a5b"
         offset=".88993"
         id="stop244" />
      <stop
         stop-color="#806e74"
         offset="1"
         id="stop246" />
    </linearGradient>
    <linearGradient
       id="linearGradient126082"
       x1="33.173"
       x2="34.636002"
       y1="10.722"
       y2="9.8470001"
       gradientTransform="matrix(2.6042072,-0.46674104,0.46674104,2.6042072,-58.590369,25.424524)"
       gradientUnits="userSpaceOnUse">
      <stop
         stop-color="#533c3c"
         offset="0"
         id="stop249" />
      <stop
         stop-color="#c2bac0"
         offset=".079999"
         id="stop251" />
      <stop
         stop-color="#432c2d"
         offset=".46848"
         id="stop253" />
      <stop
         stop-color="#cecbd2"
         offset=".60206"
         id="stop255" />
      <stop
         stop-color="#675556"
         offset=".91407"
         id="stop257" />
      <stop
         stop-color="#8a7b84"
         offset="1"
         id="stop259" />
    </linearGradient>
    <linearGradient
       id="linearGradient1902"
       x1="32"
       x2="32"
       y1="2.0005"
       y2="61.905998"
       gradientUnits="userSpaceOnUse"
       gradientTransform="matrix(0.7,0,0,0.7,1.6,1.6000005)">
      <stop
         stop-color="#f5f5f5"
         offset="0"
         id="stop311" />
      <stop
         stop-color="#dcdcdc"
         offset="1"
         id="stop313" />
    </linearGradient>
    <linearGradient
       id="linearGradient181487"
       x1="33.624001"
       x2="35.493"
       y1="12.027"
       y2="10.924"
       gradientTransform="matrix(2.60421,-0.466767,0.466767,2.60421,-58.593699,25.425902)"
       gradientUnits="userSpaceOnUse">
      <stop
         stop-color="#542a2e"
         offset="0"
         id="stop262" />
      <stop
         stop-color="#482a2d"
         offset=".063817"
         id="stop264" />
      <stop
         stop-color="#341e21"
         offset=".19594"
         id="stop266" />
      <stop
         stop-color="#664748"
         offset=".53477"
         id="stop268" />
      <stop
         stop-color="#d2cad1"
         offset=".66939"
         id="stop270" />
      <stop
         stop-color="#55363a"
         offset=".95152"
         id="stop272" />
      <stop
         stop-color="#70494f"
         offset="1"
         id="stop274" />
    </linearGradient>
    <linearGradient
       id="linearGradient2181"
       x1="32.855"
       x2="32.855"
       y1="1.7684"
       y2="10.314"
       gradientTransform="matrix(2.6042072,-0.46674104,0.46674104,2.6042072,-62.600389,26.143263)"
       gradientUnits="userSpaceOnUse">
      <stop
         stop-color="#f6ffff"
         offset="0"
         id="stop219" />
      <stop
         stop-color="#583e3f"
         offset="1"
         id="stop221" />
    </linearGradient>
    <linearGradient
       id="linearGradient27086"
       x1="32.855"
       x2="32.855"
       y1="1.7684"
       y2="10.314"
       gradientTransform="matrix(2.565088,-0.45974374,0.45974374,2.565088,-61.272479,26.14974)"
       gradientUnits="userSpaceOnUse">
      <stop
         stop-color="#f4fbfb"
         offset="0"
         id="stop224" />
      <stop
         stop-color="#565050"
         offset=".49983"
         id="stop226" />
      <stop
         stop-color="#c2b4b2"
         offset="1"
         id="stop228" />
    </linearGradient>
    <radialGradient
       id="radialGradient1539"
       cx="33.299"
       cy="5.9839001"
       r="3.2704"
       gradientTransform="matrix(2.6457026,0,0,2.6457026,-67.36599,14.818729)"
       gradientUnits="userSpaceOnUse">
      <stop
         stop-color="#fff"
         stop-opacity=".204"
         offset="0"
         id="stop212" />
      <stop
         stop-color="#fff"
         stop-opacity=".204"
         offset=".7"
         id="stop214" />
      <stop
         stop-color="#191919"
         offset="1"
         id="stop216" />
    </radialGradient>
    <linearGradient
       id="linearGradient59103"
       x1="31.417999"
       x2="31.417999"
       y1="9.3065004"
       y2="2.6166"
       gradientTransform="matrix(2.6457026,0,0,2.6457026,-62.22274,14.689884)"
       gradientUnits="userSpaceOnUse">
      <stop
         stop-color="#f3f7f6"
         offset="0"
         id="stop231" />
      <stop
         stop-color="#605e5d"
         offset="1"
         id="stop233" />
    </linearGradient>
    <linearGradient
       id="linearGradient997"
       x1="-228.53999"
       x2="-228.53999"
       y1="49.422001"
       y2="52.341999"
       gradientTransform="translate(237.02,-44.947)"
       gradientUnits="userSpaceOnUse">
      <stop
         stop-color="#fff"
         offset="0"
         id="stop283" />
      <stop
         stop-color="#fff"
         stop-opacity="0"
         offset="1"
         id="stop285" />
    </linearGradient>
    <filter
       id="filter1229"
       x="-0.069095556"
       y="-0.10709949"
       width="1.1381911"
       height="1.214199"
       color-interpolation-filters="sRGB">
      <feGaussianBlur
         stdDeviation="0.1347133"
         id="feGaussianBlur277" />
    </filter>
    <filter
       id="filter482"
       x="-0.069095559"
       y="-0.10709949"
       width="1.1381911"
       height="1.2141989"
       color-interpolation-filters="sRGB">
      <feGaussianBlur
         stdDeviation="0.1347133"
         id="feGaussianBlur480" />
    </filter>
  </defs>
  <path
     d="m 23.999841,3.0001845 a 21,21 0 0 0 -21,21.0000005 21,21 0 0 0 15.378411,20.211051 h 11.309321 a 21,21 0 0 0 15.311209,-20.1838 v -0.06562 A 21,21 0 0 0 24.000106,3.0004395 Z"
     stroke-width="2.8862"
     id="path328"
     style="fill:url(#linearGradient1065);fill-opacity:1" />
  <path
     d="M 24,2.9999995 A 21,21 0 0 0 3,24 21,21 0 0 0 24,45 21,21 0 0 0 45,24 21,21 0 0 0 24,2.9999995 Z m 0,2.8 A 18.2,18.2 0 0 1 42.199999,24 18.2,18.2 0 0 1 24,42.200001 18.2,18.2 0 0 1 5.8,24 18.2,18.2 0 0 1 24,5.7999995 Z"
     fill="url(#linearGradient1902)"
     stroke-linecap="round"
     stroke-linejoin="round"
     stroke-opacity="0.3"
     stroke-width="0.692832"
     id="path350"
     style="fill:url(#linearGradient1902)" />
  <path
     fill="#ffffff"
     color="#000000"
     stroke-width="0.1"
     d="m 31,13.60571 a 2,2 0 0 0 -2,2 2,2 0 0 0 2,2 2,2 0 0 0 2,-2 2,2 0 0 0 -2,-2 m -3.5,3 a 0.5,0.5 0 0 0 -0.5,0.5 0.5,0.5 0 0 0 0.5,0.5 0.5,0.5 0 0 0 0.5,-0.5 0.5,0.5 0 0 0 -0.5,-0.5 m -3,2 a 0.5,0.5 0 0 0 -0.5,0.5 0.5,0.5 0 0 0 0.5,0.5 0.5,0.5 0 0 0 0.5,-0.5 0.5,0.5 0 0 0 -0.5,-0.5 m -3,2 a 0.5,0.5 0 0 0 -0.5,0.5 0.5,0.5 0 0 0 0.5,0.5 0.5,0.5 0 0 0 0.5,-0.5 0.5,0.5 0 0 0 -0.5,-0.5 m -4.5,1 a 2,2 0 0 0 -2,2.000001 2,2 0 0 0 2,2 2,2 0 0 0 2,-2 2,2 0 0 0 -2,-2.000001 m 4.5,4.000001 a 0.5,0.5 0 0 0 -0.5,0.5 0.5,0.5 0 0 0 0.5,0.5 0.5,0.5 0 0 0 0.5,-0.5 0.5,0.5 0 0 0 -0.5,-0.5 m 3,2 a 0.5,0.5 0 0 0 -0.5,0.5 0.5,0.5 0 0 0 0.5,0.5 0.5,0.5 0 0 0 0.5,-0.5 0.5,0.5 0 0 0 -0.5,-0.5 m 3,2 a 0.5,0.5 0 0 0 -0.5,0.5 0.5,0.5 0 0 0 0.5,0.5 0.5,0.5 0 0 0 0.5,-0.5 0.5,0.5 0 0 0 -0.5,-0.5 m 3.5,0 a 2,2 0 0 0 -2,2 2,2 0 0 0 2,1.999999 2,2 0 0 0 2,-1.999999 2,2 0 0 0 -2,-2"
     id="path28-5"
     style="fill-rule:evenodd" />
</svg>
