<?xml version="1.0" encoding="UTF-8" standalone="no"?>
<svg
   width="48"
   height="48"
   version="1.1"
   id="svg29"
   sodipodi:docname="kopete.svg"
   inkscape:version="1.2.1 (9c6d41e410, 2022-07-14)"
   xmlns:inkscape="http://www.inkscape.org/namespaces/inkscape"
   xmlns:sodipodi="http://sodipodi.sourceforge.net/DTD/sodipodi-0.dtd"
   xmlns:xlink="http://www.w3.org/1999/xlink"
   xmlns="http://www.w3.org/2000/svg"
   xmlns:svg="http://www.w3.org/2000/svg">
  <sodipodi:namedview
     id="namedview31"
     pagecolor="#ffffff"
     bordercolor="#666666"
     borderopacity="1.0"
     inkscape:showpageshadow="2"
     inkscape:pageopacity="0.0"
     inkscape:pagecheckerboard="0"
     inkscape:deskcolor="#d1d1d1"
     showgrid="false"
     inkscape:zoom="4.9166667"
     inkscape:cx="24"
     inkscape:cy="24"
     inkscape:window-width="1920"
     inkscape:window-height="1009"
     inkscape:window-x="0"
     inkscape:window-y="0"
     inkscape:window-maximized="1"
     inkscape:current-layer="svg29" />
  <defs
     id="defs17">
    <linearGradient
       id="a"
       y1="20.985"
       x1="23.719"
       y2="30.733"
       x2="33.466"
       gradientUnits="userSpaceOnUse"
       gradientTransform="matrix(0.99522,0.0977,-0.0977,0.99522,76.460257,-30.361406)">
      <stop
         id="stop2" />
      <stop
         offset="1"
         stop-opacity="0"
         id="stop4" />
    </linearGradient>
    <linearGradient
       id="b"
       y1="44"
       y2="4"
       gradientUnits="userSpaceOnUse"
       x2="0"
       gradientTransform="matrix(-1,0,0,1,42.17497,-58.97316)">
      <stop
         stop-color="#2f74c8"
         id="stop7" />
      <stop
         offset="1"
         stop-color="#4699d7"
         id="stop9" />
    </linearGradient>
    <linearGradient
       id="c"
       y1="522.8"
       y2="492.8"
       x2="0"
       gradientUnits="userSpaceOnUse"
       gradientTransform="translate(-278.14974,-516.88141)">
      <stop
         stop-color="#7cbaf8"
         id="stop12" />
      <stop
         offset="1"
         stop-color="#f4fcff"
         id="stop14" />
    </linearGradient>
    <linearGradient
       id="a-3"
       x1="428.81601"
       x2="388.86499"
       y1="547.63397"
       y2="499.67899"
       gradientTransform="matrix(1.0500004,0,0,1.0500004,-404.99863,-525.9902)"
       gradientUnits="userSpaceOnUse">
      <stop
         stop-color="#bdc3c7"
         offset="0"
         id="stop2193" />
      <stop
         stop-color="#eff0f1"
         offset="1"
         id="stop2195" />
    </linearGradient>
    <linearGradient
       inkscape:collect="always"
       xlink:href="#a-36"
       id="linearGradient1611"
       x1="12.510236"
       y1="27.436878"
       x2="43.240265"
       y2="27.436878"
       gradientUnits="userSpaceOnUse"
       gradientTransform="translate(-4.3413733,-2.804516)" />
    <linearGradient
       id="a-36"
       y1="44"
       y2="4"
       gradientUnits="userSpaceOnUse"
       x2="0"
       gradientTransform="matrix(-1,0,0,1,432.57,499.8)">
      <stop
         stop-color="#197cf1"
         id="stop2-7" />
      <stop
         offset="1"
         stop-color="#20bcfa"
         id="stop4-5" />
    </linearGradient>
    <linearGradient
       id="c-2"
       y1="522.79999"
       y2="492.79999"
       x2="0"
       gradientUnits="userSpaceOnUse"
       gradientTransform="matrix(0.66865223,0,0,0.66865223,-232.79213,-316.01615)">
      <stop
         stop-color="#7cbaf8"
         id="stop12-9" />
      <stop
         offset="1"
         stop-color="#f4fcff"
         id="stop14-1" />
    </linearGradient>
    <linearGradient
       inkscape:collect="always"
       xlink:href="#b"
       id="linearGradient2099"
       x1="13.649"
       y1="23.905642"
       x2="26.355396"
       y2="23.905642"
       gradientUnits="userSpaceOnUse" />
  </defs>
  <rect
     x="3"
     y="2.9999995"
     width="42"
     height="42"
     rx="21"
     ry="21"
     fill="#95a5a6"
     id="rect2220"
     style="stroke-width:1.05" />
  <rect
     x="3"
     y="2.9999995"
     width="42"
     height="40.950008"
     rx="21"
     ry="20.475004"
     id="rect2222"
     style="fill:url(#a-3);stroke-width:1.05" />
  <path
     d="m 36.105207,11.352646 -15.364985,-0.07024 c -2.793608,-0.01223 -2.673438,2.713669 -2.673438,2.713669 v 0 l -7.10429,0.09686 c -1.3417273,0.01827 -2.7936313,1.104898 -2.7936313,2.818575 v 14.020095 c 0,1.713677 1.09165,2.834977 2.4331653,2.834977 h 1.757289 v 0 0 l 4.241119,4.215778 4.139786,-4.215778 h 8.3809 c 1.341517,0 2.79364,-1.096819 2.79364,-2.81053 v -2.810518 l 0.132077,0.07447 h 3.997402 v 0 l 0.06102,-0.0032 c 1.396808,-0.09465 2.793631,-1.40526 2.793631,-2.810522 V 14.09366 c 0,-1.247681 -1.396823,-2.740255 -2.79363,-2.740255 z M 27.7243,30.95604 v 0 H 15.152946 v 0 0 h -2.79363 v 0 0 c 0,0 -1.379933,0 -1.379933,-1.405271 V 18.308696 c -0.0063,-1.405263 1.519612,-1.405263 1.519612,-1.405263 h 15.085618 c 1.39683,0 1.663163,1.475516 1.663163,1.475516 v 11.17182 c 0,0 -0.126633,1.405271 -1.523481,1.405271 z"
     id="path2-3-6-9-9"
     style="fill:url(#linearGradient1611);fill-opacity:1;stroke-width:0.383161"
     sodipodi:nodetypes="csscsssscccccssccccssscscccccccsccscccs" />
  <path
     d="m 23.034198,17.186691 -0.730833,0.599773 c 0,0 2.050086,2.737463 2.047411,6.078046 -0.0031,3.343265 -1.897633,6.03126 -1.897633,6.03126 l 0.599778,0.730825 c 0,0 3.299133,-2.077498 3.302472,-6.760064 0.0037,-4.680571 -3.321194,-6.681844 -3.321194,-6.681844 m -7.375238,1.658917 h -2.005284 l -0.0027,2.005953 h 2.005958 z m 6.015865,4.018611 -4.011912,-0.0037 v 2.005992 l 4.011249,0.0037 z m -6.017869,4.007233 H 13.651 v 2.005289 h 0.667983 C 14.318316,29.54339 13.651,29.54339 13.651,29.54339 l -0.002,0.667974 0.668653,0.002 c 1.337306,6.68e-4 1.337306,-1.336638 1.337306,-1.336638 z"
     id="path23-7"
     style="fill:url(#linearGradient2099);fill-opacity:1.0" />
</svg>
