<?xml version="1.0" encoding="UTF-8" standalone="no"?>
<svg
   height="48"
   width="48"
   version="1"
   id="svg59"
   sodipodi:docname="kpat.svg"
   inkscape:version="1.2.1 (9c6d41e410, 2022-07-14)"
   xmlns:inkscape="http://www.inkscape.org/namespaces/inkscape"
   xmlns:sodipodi="http://sodipodi.sourceforge.net/DTD/sodipodi-0.dtd"
   xmlns:xlink="http://www.w3.org/1999/xlink"
   xmlns="http://www.w3.org/2000/svg"
   xmlns:svg="http://www.w3.org/2000/svg">
  <sodipodi:namedview
     id="namedview61"
     pagecolor="#ffffff"
     bordercolor="#666666"
     borderopacity="1.0"
     inkscape:showpageshadow="2"
     inkscape:pageopacity="0.0"
     inkscape:pagecheckerboard="0"
     inkscape:deskcolor="#d1d1d1"
     showgrid="false"
     inkscape:zoom="4.9166667"
     inkscape:cx="24"
     inkscape:cy="24"
     inkscape:window-width="1920"
     inkscape:window-height="1009"
     inkscape:window-x="0"
     inkscape:window-y="0"
     inkscape:window-maximized="1"
     inkscape:current-layer="svg59" />
  <defs
     id="defs31">
    <linearGradient
       id="linearGradient4167">
      <stop
         style="stop-color:#c6cdd1;stop-opacity:1"
         offset="0"
         id="stop2" />
      <stop
         style="stop-color:#e0e5e7;stop-opacity:1"
         offset="1"
         id="stop4" />
    </linearGradient>
    <linearGradient
       id="linearGradient4340">
      <stop
         style="stop-color:#000000;stop-opacity:1;"
         offset="0"
         id="stop7" />
      <stop
         style="stop-color:#000000;stop-opacity:0;"
         offset="1"
         id="stop9" />
    </linearGradient>
    <linearGradient
       id="linearGradient4293">
      <stop
         style="stop-color:#913bb5;stop-opacity:1"
         offset="0"
         id="stop12" />
      <stop
         style="stop-color:#cb7cec;stop-opacity:1"
         offset="1"
         id="stop14" />
    </linearGradient>
    <linearGradient
       id="linearGradient4197">
      <stop
         style="stop-color:#dd2c13;stop-opacity:1;"
         offset="0"
         id="stop17" />
      <stop
         style="stop-color:#e05e4c;stop-opacity:1"
         offset="1"
         id="stop19" />
    </linearGradient>
    <linearGradient
       xlink:href="#linearGradient4197"
       id="linearGradient4203"
       x1="48.512"
       y1="-3.732"
       x2="39.622"
       y2="-8.012"
       gradientUnits="userSpaceOnUse"
       gradientTransform="translate(-81.390675,54.974354)" />
    <linearGradient
       xlink:href="#linearGradient4197"
       id="linearGradient4213"
       x1="31.18"
       y1="34.498"
       x2="24"
       y2="17"
       gradientUnits="userSpaceOnUse"
       gradientTransform="translate(-8.8774813,-55.837891)" />
    <linearGradient
       xlink:href="#linearGradient4197"
       id="linearGradient4221"
       x1="42"
       y1="39.142"
       x2="35.616"
       y2="25.298"
       gradientUnits="userSpaceOnUse"
       gradientTransform="translate(72.623626,-48.337891)" />
    <linearGradient
       xlink:href="#linearGradient4167"
       id="linearGradient4229"
       x1="-44"
       y1="-38"
       x2="-14.235"
       y2="-30.179"
       gradientUnits="userSpaceOnUse"
       gradientTransform="translate(48.337891,-72.623626)" />
    <linearGradient
       xlink:href="#linearGradient4167"
       id="linearGradient4237"
       x1="-34"
       y1="-19"
       x2="-9.811"
       y2="-9.658"
       gradientUnits="userSpaceOnUse"
       gradientTransform="translate(14.587891,50.297161)" />
    <linearGradient
       xlink:href="#linearGradient4293"
       id="linearGradient4299"
       x1="19.279"
       y1="32.164"
       x2="12.106"
       y2="9.185"
       gradientUnits="userSpaceOnUse"
       gradientTransform="translate(-50.297161,-14.587891)" />
    <linearGradient
       xlink:href="#linearGradient4340"
       id="linearGradient4346"
       x1="4.68"
       y1="4.407"
       x2="27.417"
       y2="30.538"
       gradientUnits="userSpaceOnUse"
       gradientTransform="translate(4.000266,5)" />
    <linearGradient
       xlink:href="#linearGradient4293"
       id="linearGradient4356"
       gradientUnits="userSpaceOnUse"
       x1="19.279"
       y1="32.164"
       x2="12.106"
       y2="9.185"
       gradientTransform="translate(-4.8774813,-50.83789)" />
    <linearGradient
       xlink:href="#linearGradient4167"
       id="linearGradient4368"
       gradientUnits="userSpaceOnUse"
       x1="-34"
       y1="-19"
       x2="-9.811"
       y2="-9.658"
       gradientTransform="translate(50.83789,4.8774813)" />
    <linearGradient
       id="a-3"
       x1="428.81601"
       x2="388.86499"
       y1="547.63397"
       y2="499.67899"
       gradientTransform="matrix(1.0500004,0,0,1.0500004,-404.99863,-525.9902)"
       gradientUnits="userSpaceOnUse">
      <stop
         stop-color="#bdc3c7"
         offset="0"
         id="stop2193" />
      <stop
         stop-color="#eff0f1"
         offset="1"
         id="stop2195" />
    </linearGradient>
    <linearGradient
       id="a"
       y1="44"
       y2="4"
       gradientUnits="userSpaceOnUse"
       x2="0"
       gradientTransform="matrix(-1,0,0,1,432.57,499.8)">
      <stop
         stop-color="#197cf1"
         id="stop2-3" />
      <stop
         offset="1"
         stop-color="#20bcfa"
         id="stop4-6" />
    </linearGradient>
    <linearGradient
       inkscape:collect="always"
       xlink:href="#linearGradient4179"
       id="linearGradient1235"
       gradientUnits="userSpaceOnUse"
       gradientTransform="matrix(-0.067899,-2.5908e-4,-2.5908e-4,0.067899,32.289101,8.5155676)"
       x1="225.89999"
       y1="459.72"
       x2="222.17" />
    <linearGradient
       id="linearGradient4179">
      <stop
         stop-color="#e02d2d"
         offset="0"
         id="stop1094" />
      <stop
         stop-color="#f75151"
         offset="1"
         id="stop1096" />
    </linearGradient>
  </defs>
  <polygon
     points="502 812.5 551.5 721.5 612.5 637 628.5 616 668 619.5 707 615 713 603 688.5 578 676.5 569.5 693.5 560.5 693.5 540 732.5 497.5 664 430.5 588 333 517.5 214 500 192 386 355 328 328 304 332.5 299.5 366 318.5 403.5 338 431 309.5 462 275.5 507 300 533 304 551 318.5 569.5 340.5 583 351.5 604.5 373.5 617 395 637.5 452.5 723 488.5 788.5"
     fill="#5a0e00"
     transform="matrix(.063142 0 0 .063142 -131 -8.0295)"
     display="none"
     id="polygon41" />
  <rect
     x="3"
     y="3"
     width="42"
     height="42"
     rx="21"
     ry="21"
     fill="#95a5a6"
     id="rect2220"
     style="stroke-width:1.05" />
  <rect
     x="3"
     y="3"
     width="42"
     height="40.950008"
     rx="21"
     ry="20.475004"
     id="rect2222"
     style="fill:url(#a-3);stroke-width:1.05" />
  <path
     d="m 20.563101,8.4705676 c 1.5327,0.0058 2.8419,0.91853 3.4463,2.2229004 0.61375,-1.2997004 1.9298,-2.2024004 3.4626,-2.1965004 2.111,0.0081 3.8128,2.4936004 3.8047,4.6040004 -0.01752,4.5904 -7.3089,8.4931 -7.3089,8.4931 0,0 -7.261999,-3.9582 -7.244499,-8.5486 0.0081,-2.1104 1.728799,-4.5829004 3.839799,-4.5748004 z"
     id="path1103"
     style="fill:url(#linearGradient1235);stroke-width:0.067899" />
  <path
     d="m 32.236363,22.011179 c 0,0 7.2614,3.9581 7.2439,8.5487 -0.008,2.1104 -1.7288,4.5828 -3.8397,4.5748 -0.61564,-0.0023 -1.1932,-0.15291 -1.7039,-0.41621 -0.14441,-0.0745 -0.31927,-0.05248 -0.44054,0.05583 -0.1208,0.10777 -0.16267,0.27926 -0.10567,0.43096 l 1.0026,2.6492 c 0.0883,0.23425 0.0562,0.4971 -0.0866,0.70298 -0.14283,0.20587 -0.37776,0.32862 -0.62851,0.32766 l -3.0123,-0.01149 c -0.25082,-9.6e-4 -0.48473,-0.12543 -0.62599,-0.33245 -0.14126,-0.20695 -0.17135,-0.47011 -0.0812,-0.70361 l 1.0228,-2.6415 c 0.0582,-0.15126 0.0176,-0.32307 -0.10238,-0.43176 -0.12052,-0.10869 -0.2952,-0.13265 -0.44017,-0.05919 -0.51261,0.25939 -1.0914,0.40554 -1.707,0.40319 -2.111005,-0.0081 -3.812805,-2.4936 -3.804705,-4.6039 0.01745,-4.5906 7.309405,-8.4932 7.309405,-8.4932 z"
     id="path1105"
     style="fill:#1a1a1a;stroke-width:0.067899" />
  <path
     d="m 11.649187,27.743528 c 0.0052,2.7e-5 0.01,0.0016 0.01527,0.0017 -0.41114,-0.60248 -0.65281,-1.3293 -0.64981,-2.114 0.0079,-2.0614 1.6848,-3.7251 3.7451,-3.7172 2.0614,0.0079 3.7256,1.6843 3.7177,3.7457 -0.003,0.78464 -0.25027,1.5096 -0.66593,2.1089 0.0048,1.3e-5 0.009,-0.0016 0.01372,-0.0016 2.0618,0.0079 3.726,1.6855 3.7182,3.7462 -0.0079,2.0614 -1.6848,3.7251 -3.7466,3.7172 -0.46042,-0.0018 -0.89946,-0.08953 -1.3044,-0.24622 -0.14435,-0.05548 -0.30771,-0.02127 -0.41744,0.08763 -0.10973,0.1089 -0.14519,0.2724 -0.09027,0.41676 l 0.93203,2.4625 c 0.08833,0.2348 0.05615,0.49765 -0.08668,0.70352 -0.14276,0.20587 -0.37769,0.32862 -0.62844,0.32766 l -3.0123,-0.01149 c -0.25075,-9.53e-4 -0.48473,-0.12543 -0.62606,-0.33245 -0.14119,-0.20695 -0.1719,-0.47011 -0.08124,-0.70362 l 0.9508,-2.4564 c 0.05602,-0.14394 0.02181,-0.30771 -0.08708,-0.41744 -0.1089,-0.10973 -0.27193,-0.14519 -0.41683,-0.09027 -0.40662,0.1536 -0.84673,0.23801 -1.3082,0.23628 -2.0603,-0.0079 -3.7244997,-1.6843 -3.7166997,-3.7457 0.0078,-2.0608 1.6847997,-3.7256 3.7450997,-3.7177 z m 3.0825,1.6502 c 0.0042,-0.0064 0.01009,-0.01161 0.01486,-0.01787 -0.0053,-2.1e-5 -0.01005,0.0015 -0.01536,0.0014 -0.0048,-1.4e-5 -0.0095,-0.0015 -0.01425,-0.0016 0.0047,0.0063 0.01056,0.01158 0.01473,0.01798 z"
     id="path1107"
     style="fill:#1a1a1a;stroke-width:0.067899" />
</svg>
