<?xml version="1.0" encoding="UTF-8" standalone="no"?>
<svg
   viewBox="0 0 48 48"
   version="1.1"
   id="svg29"
   sodipodi:docname="kphotoalbum.svg"
   inkscape:version="1.2.1 (9c6d41e410, 2022-07-14)"
   xmlns:inkscape="http://www.inkscape.org/namespaces/inkscape"
   xmlns:sodipodi="http://sodipodi.sourceforge.net/DTD/sodipodi-0.dtd"
   xmlns:xlink="http://www.w3.org/1999/xlink"
   xmlns="http://www.w3.org/2000/svg"
   xmlns:svg="http://www.w3.org/2000/svg">
  <defs
     id="defs33">
    <linearGradient
       inkscape:collect="always"
       xlink:href="#linearGradient1063"
       id="linearGradient1065"
       x1="24.000158"
       y1="45"
       x2="24.000265"
       y2="3.0004399"
       gradientUnits="userSpaceOnUse" />
    <linearGradient
       inkscape:collect="always"
       id="linearGradient1063">
      <stop
         style="stop-color:#589bff;stop-opacity:1;"
         offset="0"
         id="stop1059" />
      <stop
         style="stop-color:#ffccaa;stop-opacity:1"
         offset="1"
         id="stop1061" />
    </linearGradient>
    <linearGradient
       id="linearGradient1902"
       x1="32"
       x2="32"
       y1="2.0005"
       y2="61.905998"
       gradientUnits="userSpaceOnUse"
       gradientTransform="matrix(0.7,0,0,0.7,1.600159,1.600001)">
      <stop
         stop-color="#f5f5f5"
         offset="0"
         id="stop311" />
      <stop
         stop-color="#dcdcdc"
         offset="1"
         id="stop313" />
    </linearGradient>
    <linearGradient
       id="linearGradient2684-6"
       x1="121.63"
       x2="121.63"
       y1="9.125"
       y2="6.4109001"
       gradientTransform="matrix(2.131851,0,-3.4848601e-8,2.1476892,-230.46593,13.966838)"
       gradientUnits="userSpaceOnUse">
      <stop
         stop-color="#4100c3"
         offset="0"
         id="stop8903" />
      <stop
         stop-color="#8214dc"
         offset="1"
         id="stop8905" />
    </linearGradient>
    <linearGradient
       id="linearGradient2688-1"
       x1="121.63"
       x2="121.63"
       y1="9.125"
       y2="6.4109001"
       gradientTransform="matrix(2.131851,0,-3.4848601e-8,2.1476892,-230.46593,22.203871)"
       gradientUnits="userSpaceOnUse">
      <stop
         stop-color="#1982e1"
         offset="0"
         id="stop8908" />
      <stop
         stop-color="#1eaff0"
         offset="1"
         id="stop8910" />
    </linearGradient>
    <linearGradient
       xlink:href="#linearGradient4816"
       id="linearGradient4503-0"
       y1="37"
       y2="4"
       x2="0"
       gradientUnits="userSpaceOnUse"
       gradientTransform="matrix(0.65999998,0,0,0.65999998,12.952815,6.7590034)" />
    <linearGradient
       id="linearGradient4816">
      <stop
         style="stop-color:#da4453"
         id="stop1439" />
      <stop
         offset="1"
         style="stop-color:#ff7336"
         id="stop1441" />
    </linearGradient>
    <linearGradient
       xlink:href="#linearGradient4279"
       id="linearGradient4503-6-9"
       y1="22.313"
       x1="20.438"
       y2="25.406"
       x2="23.531"
       gradientUnits="userSpaceOnUse"
       gradientTransform="matrix(0.65999998,0,0,0.65999998,12.952815,6.7590034)" />
    <linearGradient
       id="linearGradient4279">
      <stop
         id="stop1432" />
      <stop
         offset="1"
         style="stop-opacity:0"
         id="stop1434" />
    </linearGradient>
    <linearGradient
       id="linearGradient974"
       gradientUnits="userSpaceOnUse"
       x1="4"
       x2="4"
       y1="3"
       y2="45"
       gradientTransform="translate(-63.371835,-19.854889)">
      <stop
         offset="0"
         stop-color="#383e51"
         id="stop7-3" />
      <stop
         offset="1"
         stop-opacity="0"
         id="stop9-6" />
    </linearGradient>
    <linearGradient
       id="linearGradient978"
       gradientUnits="userSpaceOnUse"
       x1="4"
       x2="4"
       y1="3"
       y2="45"
       gradientTransform="translate(-63.371835,-19.854889)">
      <stop
         offset="0"
         stop-color="#21c9fb"
         id="stop12-7" />
      <stop
         offset="1"
         stop-color="#197cf1"
         id="stop14-5" />
    </linearGradient>
    <linearGradient
       inkscape:collect="always"
       xlink:href="#b"
       id="linearGradient985"
       gradientUnits="userSpaceOnUse"
       gradientTransform="translate(-0.08600004,0.106)"
       x1="4"
       y1="3"
       x2="4"
       y2="45" />
    <linearGradient
       inkscape:collect="always"
       xlink:href="#c"
       id="linearGradient987"
       gradientUnits="userSpaceOnUse"
       gradientTransform="translate(-0.08600004,0.106)"
       x1="4"
       y1="3"
       x2="4"
       y2="45" />
  </defs>
  <sodipodi:namedview
     id="namedview31"
     pagecolor="#ffffff"
     bordercolor="#666666"
     borderopacity="1.0"
     inkscape:showpageshadow="2"
     inkscape:pageopacity="0.0"
     inkscape:pagecheckerboard="0"
     inkscape:deskcolor="#d1d1d1"
     showgrid="false"
     inkscape:zoom="4.9166667"
     inkscape:cx="24"
     inkscape:cy="24"
     inkscape:window-width="1920"
     inkscape:window-height="1009"
     inkscape:window-x="0"
     inkscape:window-y="0"
     inkscape:window-maximized="1"
     inkscape:current-layer="svg29" />
  <linearGradient
     id="a"
     gradientUnits="userSpaceOnUse"
     x1="4"
     x2="4"
     y1="3"
     y2="45">
    <stop
       offset="0"
       stop-color="#977a5c"
       id="stop2" />
    <stop
       offset="1"
       stop-color="#9d8062"
       id="stop4" />
  </linearGradient>
  <linearGradient
     id="b"
     gradientUnits="userSpaceOnUse"
     x1="4"
     x2="4"
     y1="3"
     y2="45"
     gradientTransform="translate(-63.371835,-19.854889)">
    <stop
       offset="0"
       stop-color="#383e51"
       id="stop7" />
    <stop
       offset="1"
       stop-opacity="0"
       id="stop9" />
  </linearGradient>
  <linearGradient
     id="c"
     gradientUnits="userSpaceOnUse"
     x1="4"
     x2="4"
     y1="3"
     y2="45"
     gradientTransform="translate(-63.371835,-19.854889)">
    <stop
       offset="0"
       stop-color="#21c9fb"
       id="stop12" />
    <stop
       offset="1"
       stop-color="#197cf1"
       id="stop14" />
  </linearGradient>
  <path
     d="m 24,3.000185 a 21,21 0 0 0 -21,21 21,21 0 0 0 15.378411,20.211052 H 29.687732 A 21,21 0 0 0 44.998941,24.027436 v -0.06562 A 21,21 0 0 0 24.000265,3.00044 Z"
     stroke-width="2.8862"
     id="path328"
     style="fill:url(#linearGradient1065);fill-opacity:1" />
  <path
     d="m 24.000159,3 a 21,21 0 0 0 -21,21 21,21 0 0 0 21,21.000001 21,21 0 0 0 21,-21.000001 21,21 0 0 0 -21,-21 z m 0,2.8 a 18.2,18.2 0 0 1 18.199999,18.200001 18.2,18.2 0 0 1 -18.199999,18.2 18.2,18.2 0 0 1 -18.2,-18.2 18.2,18.2 0 0 1 18.2,-18.200001 z"
     fill="url(#linearGradient1902)"
     stroke-linecap="round"
     stroke-linejoin="round"
     stroke-opacity="0.3"
     stroke-width="0.692832"
     id="path350"
     style="fill:url(#linearGradient1902)" />
  <path
     style="opacity:0.2;fill:url(#linearGradient985)"
     d="m 32.914,15.106 -18,18 7,7 h 22.000004 v -15 z"
     id="path21-3" />
  <path
     style="fill:url(#linearGradient987)"
     d="m 14.914,15.106 v 18 h 18 v -18 z"
     id="path23-5" />
  <path
     d="m 13.914,14.106 v 20 h 20.000004 v -20 z m 1,1 h 18 v 17 1 h -18 v -1 z m 0,17 h 4 l 3,-3 -2,-2 z m 18,0 -6,-6 -6,6 z m -14.5,-16 c -1.385,0 -2.5,1.115 -2.5,2.5 0,1.385 1.115,2.5 2.5,2.5 1.385,0 2.5,-1.115 2.5,-2.5 0,-1.385 -1.115,-2.5 -2.5,-2.5 z"
     style="fill:#ffffff"
     id="path25-6" />
  <path
     style="fill:#f8c94d"
     d="m 29.914,11.106 -2,2 7.000004,7 2,-2 z m -18,17 -2,2 7,7 2,-2 z"
     id="path27-2" />
</svg>
