<?xml version="1.0" encoding="UTF-8" standalone="no"?>
<svg
   version="1.1"
   height="48"
   width="48"
   id="svg274"
   sodipodi:docname="krfb.svg"
   inkscape:version="1.2.1 (9c6d41e410, 2022-07-14)"
   xmlns:inkscape="http://www.inkscape.org/namespaces/inkscape"
   xmlns:sodipodi="http://sodipodi.sourceforge.net/DTD/sodipodi-0.dtd"
   xmlns:xlink="http://www.w3.org/1999/xlink"
   xmlns="http://www.w3.org/2000/svg"
   xmlns:svg="http://www.w3.org/2000/svg">
  <sodipodi:namedview
     id="namedview276"
     pagecolor="#ffffff"
     bordercolor="#666666"
     borderopacity="1.0"
     inkscape:showpageshadow="2"
     inkscape:pageopacity="0.0"
     inkscape:pagecheckerboard="0"
     inkscape:deskcolor="#d1d1d1"
     showgrid="false"
     inkscape:zoom="4.9166667"
     inkscape:cx="24"
     inkscape:cy="24"
     inkscape:window-width="1920"
     inkscape:window-height="1009"
     inkscape:window-x="0"
     inkscape:window-y="0"
     inkscape:window-maximized="1"
     inkscape:current-layer="svg274" />
  <defs
     id="defs260">
    <linearGradient
       gradientTransform="translate(-384.57,-499.8)"
       gradientUnits="userSpaceOnUse"
       x2="0"
       y2="503.8"
       y1="536.8"
       id="a">
      <stop
         stop-color="#2a2c2f"
         id="stop239" />
      <stop
         stop-color="#424649"
         offset="1"
         id="stop241" />
    </linearGradient>
    <linearGradient
       gradientTransform="matrix(1,0,0,0.54545,-384.57,-255.8)"
       gradientUnits="userSpaceOnUse"
       x2="0"
       y2="536.8"
       y1="547.8"
       id="b">
      <stop
         stop-color="#c6cdd1"
         id="stop244" />
      <stop
         stop-color="#e0e5e7"
         offset="1"
         id="stop246" />
    </linearGradient>
    <linearGradient
       gradientTransform="translate(0,-1)"
       gradientUnits="userSpaceOnUse"
       x2="33"
       y2="32"
       x1="18"
       y1="17"
       id="b-3">
      <stop
         stop-color="#383e51"
         id="stop249" />
      <stop
         stop-opacity="0"
         stop-color="#655c6f"
         offset="1"
         id="stop251" />
    </linearGradient>
    <linearGradient
       id="c-3"
       y1="-.883"
       x1="-41.26"
       y2="37.956"
       x2="-2.994"
       gradientUnits="userSpaceOnUse"
       gradientTransform="matrix(0.99319274,0,0,0.97839254,91.973191,6.8634547)">
      <stop
         stop-color="#21c9fb"
         id="stop254" />
      <stop
         offset="1"
         stop-color="#1a86f2"
         id="stop256" />
    </linearGradient>
    <linearGradient
       xlink:href="#c-3"
       id="linearGradient4193"
       x1="27"
       y1="6"
       x2="27"
       y2="36"
       gradientUnits="userSpaceOnUse" />
    <linearGradient
       inkscape:collect="always"
       xlink:href="#linearGradient1063"
       id="linearGradient1065"
       x1="24.000158"
       y1="45"
       x2="24.000265"
       y2="3.0004399"
       gradientUnits="userSpaceOnUse"
       gradientTransform="translate(5.295e-4,0.4390006)" />
    <linearGradient
       inkscape:collect="always"
       id="linearGradient1063">
      <stop
         style="stop-color:#589bff;stop-opacity:1;"
         offset="0"
         id="stop1059" />
      <stop
         style="stop-color:#80ff80;stop-opacity:1"
         offset="1"
         id="stop1061" />
    </linearGradient>
    <linearGradient
       id="linearGradient1902"
       x1="32"
       x2="32"
       y1="2.0005"
       y2="61.905998"
       gradientUnits="userSpaceOnUse"
       gradientTransform="matrix(0.7,0,0,0.7,1.6006885,2.039001)">
      <stop
         stop-color="#f5f5f5"
         offset="0"
         id="stop311" />
      <stop
         stop-color="#dcdcdc"
         offset="1"
         id="stop313" />
    </linearGradient>
    <linearGradient
       id="b-36"
       y1="17"
       x1="18"
       y2="32"
       x2="33"
       gradientUnits="userSpaceOnUse"
       gradientTransform="translate(-70.48997,-23.779315)">
      <stop
         stop-color="#383e51"
         id="stop7" />
      <stop
         offset="1"
         stop-color="#655c6f"
         stop-opacity="0"
         id="stop9" />
    </linearGradient>
  </defs>
  <path
     d="M 24.00053,3.439185 A 21,21 0 0 0 3.0005295,24.439186 21,21 0 0 0 18.378941,44.650237 h 11.309321 a 21,21 0 0 0 15.311209,-20.1838 v -0.06562 A 21,21 0 0 0 24.000795,3.43944 Z"
     stroke-width="2.8862"
     id="path328"
     style="fill:url(#linearGradient1065);fill-opacity:1" />
  <path
     d="m 24.000689,3.439 a 21,21 0 0 0 -21.0000005,21.000001 21,21 0 0 0 21.0000005,21 21,21 0 0 0 21,-21 21,21 0 0 0 -21,-21.000001 z m 0,2.8 A 18.2,18.2 0 0 1 42.200688,24.439001 18.2,18.2 0 0 1 24.000689,42.639002 18.2,18.2 0 0 1 5.8006885,24.439001 18.2,18.2 0 0 1 24.000689,6.239 Z"
     fill="url(#linearGradient1902)"
     stroke-linecap="round"
     stroke-linejoin="round"
     stroke-opacity="0.3"
     stroke-width="0.692832"
     id="path350"
     style="fill:url(#linearGradient1902)" />
  <path
     fill="#ffffff"
     color="#000000"
     stroke-width="0.1"
     d="m 31.000689,14.044711 a 2,2 0 0 0 -2,2 2,2 0 0 0 2,2 2,2 0 0 0 2,-2 2,2 0 0 0 -2,-2 m -3.5,3 a 0.5,0.5 0 0 0 -0.5,0.5 0.5,0.5 0 0 0 0.5,0.5 0.5,0.5 0 0 0 0.5,-0.5 0.5,0.5 0 0 0 -0.5,-0.5 m -3,2 a 0.5,0.5 0 0 0 -0.5,0.5 0.5,0.5 0 0 0 0.5,0.5 0.5,0.5 0 0 0 0.5,-0.5 0.5,0.5 0 0 0 -0.5,-0.5 m -3,2 a 0.5,0.5 0 0 0 -0.5,0.5 0.5,0.5 0 0 0 0.5,0.5 0.5,0.5 0 0 0 0.5,-0.5 0.5,0.5 0 0 0 -0.5,-0.5 m -4.5,1 a 2,2 0 0 0 -2,2.000001 2,2 0 0 0 2,2 2,2 0 0 0 2,-2 2,2 0 0 0 -2,-2.000001 m 4.5,4.000001 a 0.5,0.5 0 0 0 -0.5,0.5 0.5,0.5 0 0 0 0.5,0.5 0.5,0.5 0 0 0 0.5,-0.5 0.5,0.5 0 0 0 -0.5,-0.5 m 3,2 a 0.5,0.5 0 0 0 -0.5,0.5 0.5,0.5 0 0 0 0.5,0.5 0.5,0.5 0 0 0 0.5,-0.5 0.5,0.5 0 0 0 -0.5,-0.5 m 3,2 a 0.5,0.5 0 0 0 -0.5,0.5 0.5,0.5 0 0 0 0.5,0.5 0.5,0.5 0 0 0 0.5,-0.5 0.5,0.5 0 0 0 -0.5,-0.5 m 3.5,0 a 2,2 0 0 0 -2,2 2,2 0 0 0 2,1.999999 2,2 0 0 0 2,-1.999999 2,2 0 0 0 -2,-2"
     id="path28-5"
     style="fill-rule:evenodd" />
</svg>
