<?xml version="1.0" encoding="UTF-8" standalone="no"?>
<svg
   width="48"
   height="48"
   version="1.1"
   id="svg15747"
   sodipodi:docname="kuiviewer.svg"
   inkscape:version="1.2.1 (9c6d41e410, 2022-07-14)"
   xmlns:inkscape="http://www.inkscape.org/namespaces/inkscape"
   xmlns:sodipodi="http://sodipodi.sourceforge.net/DTD/sodipodi-0.dtd"
   xmlns:xlink="http://www.w3.org/1999/xlink"
   xmlns="http://www.w3.org/2000/svg"
   xmlns:svg="http://www.w3.org/2000/svg">
  <sodipodi:namedview
     id="namedview15749"
     pagecolor="#ffffff"
     bordercolor="#666666"
     borderopacity="1.0"
     inkscape:showpageshadow="2"
     inkscape:pageopacity="0.0"
     inkscape:pagecheckerboard="0"
     inkscape:deskcolor="#d1d1d1"
     showgrid="false"
     inkscape:zoom="4.9166667"
     inkscape:cx="24"
     inkscape:cy="24"
     inkscape:window-width="1920"
     inkscape:window-height="1009"
     inkscape:window-x="0"
     inkscape:window-y="0"
     inkscape:window-maximized="1"
     inkscape:current-layer="svg15747" />
  <defs
     id="defs15711">
    <linearGradient
       inkscape:collect="always"
       id="linearGradient998">
      <stop
         style="stop-color:#ff99ff;stop-opacity:1;"
         offset="0"
         id="stop993" />
      <stop
         style="stop-color:#80b2ff;stop-opacity:1;"
         offset="1"
         id="stop995" />
    </linearGradient>
    <linearGradient
       id="a"
       y1="536.8"
       y2="503.8"
       x2="0"
       gradientUnits="userSpaceOnUse">
      <stop
         stop-color="#2a2c2f"
         id="stop15681" />
      <stop
         offset="1"
         stop-color="#424649"
         id="stop15683" />
    </linearGradient>
    <linearGradient
       id="b"
       y1="547.8"
       y2="536.8"
       x2="0"
       gradientUnits="userSpaceOnUse"
       gradientTransform="matrix(1 0 0 .54545 0 244)">
      <stop
         stop-color="#c6cdd1"
         id="stop15686" />
      <stop
         offset="1"
         stop-color="#e0e5e7"
         id="stop15688" />
    </linearGradient>
    <linearGradient
       id="c"
       y1="5.342"
       x1="42.799"
       y2="31.357"
       x2="11.999"
       gradientUnits="userSpaceOnUse">
      <stop
         stop-color="#1abc9c"
         id="stop15691" />
      <stop
         offset="1"
         stop-color="#2980b9"
         id="stop15693" />
    </linearGradient>
    <linearGradient
       id="d"
       y1="22.346"
       x1="29.855"
       y2="28.506"
       x2="54.32"
       gradientUnits="userSpaceOnUse">
      <stop
         stop-color="#cc4a5e"
         id="stop15696" />
      <stop
         offset="1"
         stop-color="#aa478a"
         id="stop15698" />
    </linearGradient>
    <linearGradient
       id="e"
       y1="41.22"
       x1="24.392"
       y2="25.343"
       x2="20.643"
       gradientUnits="userSpaceOnUse">
      <stop
         stop-color="#334545"
         id="stop15701" />
      <stop
         offset="1"
         stop-color="#536161"
         id="stop15703" />
    </linearGradient>
    <linearGradient
       xlink:href="#e"
       id="f"
       y1="568.8"
       x1="431.57"
       y2="562.8"
       x2="439.57"
       gradientUnits="userSpaceOnUse"
       gradientTransform="matrix(-1 0 0 1 839.14-40)" />
    <linearGradient
       xlink:href="#e"
       id="g"
       y1="40.899"
       x1="56.03"
       y2="32.475"
       x2="40.647"
       gradientUnits="userSpaceOnUse" />
    <linearGradient
       xlink:href="#e"
       id="h"
       y1="32.15"
       x1="60.895"
       y2="27.06"
       x2="53.41"
       gradientUnits="userSpaceOnUse" />
    <linearGradient
       xlink:href="#e"
       id="i"
       y1="36.527"
       x1="33.32"
       y2="31.348"
       x2="24.78"
       gradientUnits="userSpaceOnUse" />
    <linearGradient
       xlink:href="#e"
       id="j"
       y1="36.765"
       x1="34"
       y2="49.571"
       x2="40.25"
       gradientUnits="userSpaceOnUse" />
    <linearGradient
       id="linearGradient2163-3"
       x1="-177.09"
       x2="-177.09"
       y1="-1.3372"
       y2="-15.638"
       gradientTransform="matrix(2.886197,0,0,2.886197,536.24358,47.865403)"
       gradientUnits="userSpaceOnUse">
      <stop
         stop-color="#78b4dc"
         offset="0"
         id="stop288" />
      <stop
         stop-color="#0096f0"
         offset="1"
         id="stop290"
         style="stop-color:#ff93ff;stop-opacity:1;" />
    </linearGradient>
    <linearGradient
       id="linearGradient80038"
       x1="33.014"
       x2="34.219002"
       y1="10.136"
       y2="9.4466"
       gradientTransform="matrix(2.6042072,-0.46674104,0.46674104,2.6042072,-58.590366,25.424524)"
       gradientUnits="userSpaceOnUse">
      <stop
         stop-color="#3c292c"
         offset="0"
         id="stop236" />
      <stop
         stop-color="#c2bbc2"
         offset=".1557"
         id="stop238" />
      <stop
         stop-color="#50393c"
         offset=".42952"
         id="stop240" />
      <stop
         stop-color="#dddee3"
         offset=".60187"
         id="stop242" />
      <stop
         stop-color="#6a5a5b"
         offset=".88993"
         id="stop244" />
      <stop
         stop-color="#806e74"
         offset="1"
         id="stop246" />
    </linearGradient>
    <linearGradient
       id="linearGradient126082"
       x1="33.173"
       x2="34.636002"
       y1="10.722"
       y2="9.8470001"
       gradientTransform="matrix(2.6042072,-0.46674104,0.46674104,2.6042072,-58.590366,25.424524)"
       gradientUnits="userSpaceOnUse">
      <stop
         stop-color="#533c3c"
         offset="0"
         id="stop249" />
      <stop
         stop-color="#c2bac0"
         offset=".079999"
         id="stop251" />
      <stop
         stop-color="#432c2d"
         offset=".46848"
         id="stop253" />
      <stop
         stop-color="#cecbd2"
         offset=".60206"
         id="stop255" />
      <stop
         stop-color="#675556"
         offset=".91407"
         id="stop257" />
      <stop
         stop-color="#8a7b84"
         offset="1"
         id="stop259" />
    </linearGradient>
    <linearGradient
       id="linearGradient1902"
       x1="32"
       x2="32"
       y1="2.0005"
       y2="61.905998"
       gradientUnits="userSpaceOnUse"
       gradientTransform="matrix(0.7,0,0,0.7,1.6,1.6000005)">
      <stop
         stop-color="#f5f5f5"
         offset="0"
         id="stop311" />
      <stop
         stop-color="#dcdcdc"
         offset="1"
         id="stop313" />
    </linearGradient>
    <linearGradient
       id="linearGradient181487"
       x1="33.624001"
       x2="35.493"
       y1="12.027"
       y2="10.924"
       gradientTransform="matrix(2.60421,-0.466767,0.466767,2.60421,-58.593706,25.425902)"
       gradientUnits="userSpaceOnUse">
      <stop
         stop-color="#542a2e"
         offset="0"
         id="stop262" />
      <stop
         stop-color="#482a2d"
         offset=".063817"
         id="stop264" />
      <stop
         stop-color="#341e21"
         offset=".19594"
         id="stop266" />
      <stop
         stop-color="#664748"
         offset=".53477"
         id="stop268" />
      <stop
         stop-color="#d2cad1"
         offset=".66939"
         id="stop270" />
      <stop
         stop-color="#55363a"
         offset=".95152"
         id="stop272" />
      <stop
         stop-color="#70494f"
         offset="1"
         id="stop274" />
    </linearGradient>
    <linearGradient
       id="linearGradient2181"
       x1="32.855"
       x2="32.855"
       y1="1.7684"
       y2="10.314"
       gradientTransform="matrix(2.6042072,-0.46674104,0.46674104,2.6042072,-62.600396,26.143263)"
       gradientUnits="userSpaceOnUse">
      <stop
         stop-color="#f6ffff"
         offset="0"
         id="stop219" />
      <stop
         stop-color="#583e3f"
         offset="1"
         id="stop221" />
    </linearGradient>
    <linearGradient
       id="linearGradient27086"
       x1="32.855"
       x2="32.855"
       y1="1.7684"
       y2="10.314"
       gradientTransform="matrix(2.565088,-0.45974374,0.45974374,2.565088,-61.272476,26.14974)"
       gradientUnits="userSpaceOnUse">
      <stop
         stop-color="#f4fbfb"
         offset="0"
         id="stop224" />
      <stop
         stop-color="#565050"
         offset=".49983"
         id="stop226" />
      <stop
         stop-color="#c2b4b2"
         offset="1"
         id="stop228" />
    </linearGradient>
    <radialGradient
       id="radialGradient1539"
       cx="33.299"
       cy="5.9839001"
       r="3.2704"
       gradientTransform="matrix(2.6457026,0,0,2.6457026,-67.365988,14.818729)"
       gradientUnits="userSpaceOnUse">
      <stop
         stop-color="#fff"
         stop-opacity=".204"
         offset="0"
         id="stop212" />
      <stop
         stop-color="#fff"
         stop-opacity=".204"
         offset=".7"
         id="stop214" />
      <stop
         stop-color="#191919"
         offset="1"
         id="stop216" />
    </radialGradient>
    <linearGradient
       id="linearGradient59103"
       x1="31.417999"
       x2="31.417999"
       y1="9.3065004"
       y2="2.6166"
       gradientTransform="matrix(2.6457026,0,0,2.6457026,-62.222738,14.689884)"
       gradientUnits="userSpaceOnUse">
      <stop
         stop-color="#f3f7f6"
         offset="0"
         id="stop231" />
      <stop
         stop-color="#605e5d"
         offset="1"
         id="stop233" />
    </linearGradient>
    <linearGradient
       inkscape:collect="always"
       xlink:href="#linearGradient997"
       id="linearGradient1092"
       gradientUnits="userSpaceOnUse"
       gradientTransform="translate(237.02,-44.947)"
       x1="-228.53999"
       y1="49.422001"
       x2="-228.53999"
       y2="52.341999" />
    <linearGradient
       id="linearGradient997"
       x1="-228.53999"
       x2="-228.53999"
       y1="49.422001"
       y2="52.341999"
       gradientTransform="translate(237.02,-44.947)"
       gradientUnits="userSpaceOnUse">
      <stop
         stop-color="#fff"
         offset="0"
         id="stop283" />
      <stop
         stop-color="#fff"
         stop-opacity="0"
         offset="1"
         id="stop285" />
    </linearGradient>
    <filter
       id="filter1229"
       x="-0.069095556"
       y="-0.10709949"
       width="1.1381911"
       height="1.214199"
       color-interpolation-filters="sRGB">
      <feGaussianBlur
         stdDeviation="0.1347133"
         id="feGaussianBlur277" />
    </filter>
    <filter
       id="filter16134"
       x="-0.069095559"
       y="-0.10709949"
       width="1.1381911"
       height="1.2141989"
       color-interpolation-filters="sRGB">
      <feGaussianBlur
         stdDeviation="0.1347133"
         id="feGaussianBlur16132" />
    </filter>
    <linearGradient
       inkscape:collect="always"
       xlink:href="#linearGradient997"
       id="linearGradient16487"
       gradientUnits="userSpaceOnUse"
       gradientTransform="translate(237.02,-44.947)"
       x1="-228.53999"
       y1="49.422001"
       x2="-228.53999"
       y2="52.341999" />
    <linearGradient
       inkscape:collect="always"
       xlink:href="#linearGradient998"
       id="linearGradient1000"
       x1="19.326244"
       y1="2.9999995"
       x2="24.032913"
       y2="44.211235"
       gradientUnits="userSpaceOnUse" />
  </defs>
  <path
     d="m 23.999841,3.0001845 a 21,21 0 0 0 -21,21.0000005 21,21 0 0 0 15.378411,20.211051 h 11.309321 a 21,21 0 0 0 15.311209,-20.1838 v -0.06562 A 21,21 0 0 0 24.000106,3.0004395 Z"
     stroke-width="2.8862"
     id="path328"
     style="fill-opacity:1;fill:url(#linearGradient1000)" />
  <path
     d="m 31.623433,35.867139 1.058467,1.196255 2.787776,-2.386316 -1.142255,-1.233929 z"
     fill="url(#linearGradient80038)"
     id="path346"
     style="fill:url(#linearGradient80038);stroke-width:2.6457" />
  <path
     d="m 32.313962,37.340797 0.896734,1.010288 3.439149,-2.928792 -0.902502,-1.034655 z"
     fill="url(#linearGradient126082)"
     id="path348"
     style="fill:url(#linearGradient126082);stroke-width:2.6457" />
  <path
     d="M 24,2.9999995 A 21,21 0 0 0 3,24 21,21 0 0 0 24,45 21,21 0 0 0 45,24 21,21 0 0 0 24,2.9999995 Z m 0,2.8 A 18.2,18.2 0 0 1 42.199999,24.000001 18.2,18.2 0 0 1 24,42.200001 18.2,18.2 0 0 1 5.8,24.000001 18.2,18.2 0 0 1 24,5.7999995 Z"
     fill="url(#linearGradient1902)"
     stroke-linecap="round"
     stroke-linejoin="round"
     stroke-opacity="0.3"
     stroke-width="0.692832"
     id="path350"
     style="fill:url(#linearGradient1902)" />
  <path
     d="m 35.1874,41.7667 a 21,21 0 0 0 0.600194,-0.392385 21,21 0 0 0 0.601566,-0.423828 21,21 0 0 0 0.586523,-0.445704 21,21 0 0 0 0.570115,-0.464843 21,21 0 0 0 0.553714,-0.483987 21,21 0 0 0 0.537309,-0.504489 21,21 0 0 0 0.518164,-0.522263 21,21 0 0 0 0.499027,-0.540037 c -1.223605,-1.451589 -2.339263,-2.771299 -2.339263,-2.771299 0,0 -0.277998,-0.142884 -0.445704,0.0027 -0.167713,0.145726 -3.92112,3.311349 -3.92112,3.311349 0,0 -0.285628,0.283935 0.02871,0.634374 0.155596,0.173488 1.1606,1.359051 2.21074,2.60036 z"
     fill="url(#linearGradient181487)"
     id="path352"
     style="fill:url(#linearGradient181487);stroke-width:0.700002" />
  <path
     d="m 23.817817,15.35104 a 11.338687,11.338687 0 0 0 -9.161274,13.160784 11.338687,11.338687 0 0 0 13.162105,9.161008 11.338687,11.338687 0 0 0 9.159687,-13.16184 11.338687,11.338687 0 0 0 -13.160518,-9.159952 z m 0.473713,2.64303 A 8.6525056,8.6525056 0 0 1 34.333824,24.984809 8.6525056,8.6525056 0 0 1 27.344671,35.028162 8.6525056,8.6525056 0 0 1 17.301054,28.037686 8.6525056,8.6525056 0 0 1 24.29153,17.99407 Z"
     fill="url(#linearGradient2181)"
     id="path354"
     style="fill:url(#linearGradient2181);stroke-width:2.6457" />
  <path
     d="m 23.847978,15.517984 a 11.168305,11.168305 0 0 0 -9.022904,12.963679 11.168305,11.168305 0 0 0 12.963678,9.022903 11.168305,11.168305 0 0 0 9.021581,-12.963414 11.168305,11.168305 0 0 0 -12.962355,-9.023168 z m 0.443816,2.476139 a 8.6525056,8.6525056 0 0 1 10.042294,6.99074 8.6525056,8.6525056 0 0 1 -6.989153,10.043353 8.6525056,8.6525056 0 0 1 -10.043616,-6.990477 8.6525056,8.6525056 0 0 1 6.990475,-10.043616 z"
     fill="url(#linearGradient27086)"
     id="path356"
     style="fill:url(#linearGradient27086);stroke-width:2.6457" />
  <circle
     transform="rotate(-10.161)"
     cx="20.73538"
     cy="30.650351"
     r="8.6525059"
     fill="url(#radialGradient1539)"
     opacity="0.302"
     id="circle358"
     style="fill:url(#radialGradient1539);stroke-width:2.6457" />
  <circle
     transform="rotate(-10.161)"
     cx="20.73538"
     cy="30.483669"
     r="8.767065"
     fill="none"
     stroke="url(#linearGradient59103)"
     stroke-linecap="round"
     stroke-linejoin="round"
     stroke-width="0.283699"
     id="circle360"
     style="stroke:url(#linearGradient59103)" />
  <ellipse
     transform="matrix(2.6286114,0,0,2.9179454,3.710106,4.7510315)"
     cx="8.4666004"
     cy="6.4478998"
     rx="2.3396001"
     ry="1.5094"
     fill="url(#linearGradient1541)"
     filter="url(#filter1229)"
     opacity="0.4"
     id="ellipse362"
     style="fill:url(#linearGradient16487)" />
  <ellipse
     transform="matrix(2.6286114,0,0,2.9179454,3.710106,4.7510315)"
     cx="8.4666004"
     cy="6.4478998"
     rx="2.3396001"
     ry="1.5094"
     fill="url(#linearGradient1541)"
     filter="url(#filter1229)"
     opacity="0.4"
     id="ellipse364"
     style="fill:url(#linearGradient1092)" />
</svg>
