<?xml version="1.0" encoding="UTF-8" standalone="no"?>
<svg
   width="48"
   height="48"
   version="1.1"
   id="svg23"
   sodipodi:docname="leocad.svg"
   inkscape:version="1.2.1 (9c6d41e410, 2022-07-14)"
   xmlns:inkscape="http://www.inkscape.org/namespaces/inkscape"
   xmlns:sodipodi="http://sodipodi.sourceforge.net/DTD/sodipodi-0.dtd"
   xmlns:xlink="http://www.w3.org/1999/xlink"
   xmlns="http://www.w3.org/2000/svg"
   xmlns:svg="http://www.w3.org/2000/svg">
  <sodipodi:namedview
     id="namedview25"
     pagecolor="#ffffff"
     bordercolor="#666666"
     borderopacity="1.0"
     inkscape:showpageshadow="2"
     inkscape:pageopacity="0.0"
     inkscape:pagecheckerboard="0"
     inkscape:deskcolor="#d1d1d1"
     showgrid="false"
     inkscape:zoom="4.9166667"
     inkscape:cx="24"
     inkscape:cy="24"
     inkscape:window-width="1920"
     inkscape:window-height="1011"
     inkscape:window-x="0"
     inkscape:window-y="0"
     inkscape:window-maximized="1"
     inkscape:current-layer="svg23" />
  <defs
     id="defs13">
    <linearGradient
       id="1"
       x1="24.14"
       y1="40.683"
       x2="23.86"
       y2="6.31"
       gradientUnits="userSpaceOnUse"
       gradientTransform="matrix(0.81097264,0,0,0.80295939,4.538894,4.727212)">
      <stop
         stop-color="#c52828"
         id="stop2" />
      <stop
         stop-color="#ff5454"
         offset="1"
         id="stop4" />
    </linearGradient>
    <linearGradient
       gradientTransform="matrix(1.0500003,0,0,1.0500003,-404.99868,-525.99023)"
       xlink:href="#0"
       id="linearGradient4236"
       x1="407.626"
       y1="543.768"
       x2="407.687"
       y2="504.133"
       gradientUnits="userSpaceOnUse" />
    <linearGradient
       id="0"
       x1="27.456"
       y1="47.39"
       x2="26.442"
       y2="1.017"
       gradientUnits="userSpaceOnUse"
       gradientTransform="matrix(2.3642932,0,0,2.3642932,278.05894,438.05223)">
      <stop
         stop-color="#e1e1e1"
         id="stop8" />
      <stop
         stop-color="#f4f4ff"
         offset="1"
         id="stop10" />
    </linearGradient>
  </defs>
  <rect
     style="fill:url(#linearGradient4236);fill-opacity:1;stroke-width:1.05"
     width="42"
     height="42"
     x="3"
     y="3"
     ry="21"
     rx="21"
     id="rect15" />
  <path
     d="m 24.140101,10.347915 c -1.386764,0 -2.432105,0.598206 -2.432925,1.390726 v 1.006908 c -0.0211,4.87e-4 -0.04302,0.007 -0.0632,0.0168 l -1.571651,0.802952 c -0.0673,0.03451 -0.123275,0.08192 -0.169496,0.134899 -0.398195,-0.16218 -0.888825,-0.258555 -1.437865,-0.258555 -1.38595,0 -2.431281,0.596615 -2.431281,1.389135 v 0.857551 c -0.0876,0.002 -0.175179,0.01847 -0.256279,0.0626 l -3.001417,1.613954 c -0.103851,0.05541 -0.173549,0.142127 -0.224633,0.238482 -0.01456,0.02171 -0.02363,0.0425 -0.03487,0.06583 -0.0091,0.02729 -0.0163,0.05379 -0.02181,0.08187 -0.0163,0.05293 -0.04305,0.102758 -0.04305,0.159785 v 13.082625 c 0,0.204753 0.111905,0.394251 0.29276,0.495418 l 10.914874,6.083229 c 0.007,0.004 0.0163,0.003 0.02353,0.007 0.07393,0.03699 0.153258,0.05787 0.23436,0.06097 4.9e-4,0 0.01543,0.007 0.02353,0.007 0.0721,0 0.138669,-0.03055 0.205976,-0.05617 0.02439,-0.0091 0.05274,-0.005 0.0762,-0.01837 l 0.003,-0.002 c 0.002,-9.4e-5 0.003,-9.4e-5 0.005,-0.002 0.002,-8.2e-5 0.002,-0.003 0.003,-0.003 l 11.013009,-6.122611 c 0.181664,-0.100398 0.292762,-0.290681 0.292762,-0.495433 l 0.01149,-13.011862 c 0,-0.201549 -0.107041,-0.389441 -0.28383,-0.490602 -0.0187,-0.01123 -0.0422,-0.0081 -0.06163,-0.0169 -0.02591,-0.02004 -0.04463,-0.04493 -0.07457,-0.06093 L 32.128043,15.75327 c -0.0129,-0.007 -0.02677,-0.006 -0.03975,-0.0128 v -0.917721 c 0,-0.793329 -1.045351,-1.390735 -2.4313,-1.390735 -0.588769,0 -1.108594,0.111611 -1.520583,0.296297 -0.02836,-0.02247 -0.05187,-0.0498 -0.08515,-0.0675 l -1.428883,-0.7311 c -0.0163,-4.79e-4 -0.034,-0.0071 -0.05101,-0.0144 v -1.176329 c 0,-0.793331 -1.045339,-1.390732 -2.431299,-1.390732 m -1.571654,2.459462 c 0.419278,0.199111 0.957775,0.31957 1.571662,0.31957 0.613098,0 1.150769,-0.121257 1.570032,-0.31957 v 1.57621 c 0,0.164609 -0.592804,0.537979 -1.570032,0.537979 -0.977218,0 -1.571662,-0.37337 -1.571662,-0.537979 v -1.576213 m -0.862049,1.202821 v 0.37339 c 0,0.792519 1.04616,1.389118 2.432909,1.389118 1.387577,0 2.432107,-0.596599 2.431298,-1.389118 v -0.20075 l 0.698255,0.357328 c -0.03,0.09073 -0.0462,0.184675 -0.0462,0.282636 v 2.644141 c 0,0.792517 1.046153,1.38912 2.432907,1.38912 1.38678,0 2.432108,-0.596603 2.431299,-1.38912 v -0.442443 l 1.703046,0.917792 -9.847629,5.459325 -9.764111,-5.493857 1.857937,-1.000482 v 0.569295 c 0,0.79252 1.045347,1.390732 2.431296,1.390732 1.385959,0 2.4313,-0.598212 2.4313,-1.390732 v -2.644096 c 0,-0.12768 -0.03571,-0.248114 -0.08673,-0.363741 l 0.897754,-0.457693 m 6.378287,1.880523 c 0.418463,0.199151 0.957753,0.321187 1.571671,0.321187 0.613085,0 1.15077,-0.122847 1.570032,-0.321187 v 1.576219 c 0,0.155769 -0.549841,0.536382 -1.570032,0.536382 -0.977238,0 -1.571671,-0.371773 -1.571671,-0.536382 v -1.576141 m -11.192226,0.0091 c 0.419264,0.199141 0.957755,0.321191 1.571661,0.321191 0.612288,0 1.150769,-0.121251 1.570044,-0.319576 v 1.574603 c 0,0.155764 -0.549844,0.537976 -1.570044,0.537976 -1.02019,0 -1.571661,-0.382212 -1.571661,-0.537976 v -1.576235 m 7.210348,0.578934 c -1.385958,0 -2.432918,0.598207 -2.432918,1.390725 v 2.644144 c 0,0.79252 1.04696,1.390733 2.432918,1.390733 1.385949,0 2.42968,-0.598213 2.42968,-1.390733 v -2.644144 c 0,-0.792518 -1.043731,-1.390725 -2.42968,-1.390725 m -1.571661,2.45866 c 0.419273,0.199141 0.957763,0.321187 1.571661,0.321187 0.612289,0 1.14996,-0.121247 1.568422,-0.319579 v 1.574601 c 0,0.155779 -0.548221,0.537989 -1.568422,0.537989 -0.977218,0 -1.571661,-0.37337 -1.571661,-0.537989 v -1.575881"
     style="fill:url(#1);stroke-width:1.05"
     id="path19" />
</svg>
