<?xml version="1.0" encoding="UTF-8" standalone="no"?>
<svg
   width="48"
   height="48"
   version="1.1"
   id="svg1893"
   sodipodi:docname="lokalize.svg"
   inkscape:version="1.2.1 (9c6d41e410, 2022-07-14)"
   xmlns:inkscape="http://www.inkscape.org/namespaces/inkscape"
   xmlns:sodipodi="http://sodipodi.sourceforge.net/DTD/sodipodi-0.dtd"
   xmlns:xlink="http://www.w3.org/1999/xlink"
   xmlns="http://www.w3.org/2000/svg"
   xmlns:svg="http://www.w3.org/2000/svg">
  <sodipodi:namedview
     id="namedview1895"
     pagecolor="#ffffff"
     bordercolor="#666666"
     borderopacity="1.0"
     inkscape:showpageshadow="2"
     inkscape:pageopacity="0.0"
     inkscape:pagecheckerboard="0"
     inkscape:deskcolor="#d1d1d1"
     showgrid="false"
     inkscape:zoom="4.9166667"
     inkscape:cx="24"
     inkscape:cy="24"
     inkscape:window-width="1920"
     inkscape:window-height="1009"
     inkscape:window-x="0"
     inkscape:window-y="0"
     inkscape:window-maximized="1"
     inkscape:current-layer="svg1893" />
  <defs
     id="defs1853">
    <linearGradient
       id="a"
       y1="22"
       y2="8"
       x2="0"
       gradientUnits="userSpaceOnUse"
       gradientTransform="translate(-110.90153,951.40155)">
      <stop
         stop-color="#2e3436"
         id="stop1836" />
      <stop
         offset="1"
         stop-color="#555753"
         id="stop1838" />
    </linearGradient>
    <linearGradient
       id="b"
       y1="543.8"
       y2="502.66"
       gradientUnits="userSpaceOnUse"
       x2="0"
       gradientTransform="matrix(.66667 0 0 .63518 139.19 192.52)">
      <stop
         stop-color="#c6cdd1"
         id="stop1841" />
      <stop
         offset="1"
         stop-color="#e0e5e7"
         id="stop1843" />
    </linearGradient>
    <linearGradient
       id="c"
       y1="529.8"
       x1="400.57"
       y2="548.8"
       gradientUnits="userSpaceOnUse"
       x2="418.57"
       gradientTransform="translate(11-6)">
      <stop
         id="stop1846" />
      <stop
         offset="1"
         stop-opacity="0"
         id="stop1848" />
    </linearGradient>
    <linearGradient
       xlink:href="#b"
       id="d"
       y1="543.8"
       y2="502.66"
       gradientUnits="userSpaceOnUse"
       x2="0"
       gradientTransform="matrix(0.66667,0,0,0.63518,-318.41155,-354.95153)" />
    <linearGradient
       xlink:href="#c"
       id="e"
       y1="523.8"
       x1="388.57"
       y2="538.8"
       gradientUnits="userSpaceOnUse"
       x2="400.57"
       gradientTransform="matrix(1.8358844,0,0,1.8358844,-624.73197,-961.84668)" />
    <linearGradient
       xlink:href="#linearGradient3997"
       id="linearGradient4196"
       x1="401.57901"
       y1="505.23901"
       x2="418.61401"
       y2="540.91101"
       gradientUnits="userSpaceOnUse"
       gradientTransform="matrix(1.0499624,0,0,1.05,-405.02051,-526.03032)" />
    <linearGradient
       id="linearGradient3997"
       y1="1"
       x2="0"
       y2="47"
       gradientUnits="userSpaceOnUse"
       gradientTransform="translate(326.41705,498.60847)">
      <stop
         style="stop-color:#e0e5e7;stop-opacity:1"
         id="stop12" />
      <stop
         offset="1"
         style="stop-color:#c6cdd1;stop-opacity:1"
         id="stop14" />
    </linearGradient>
    <linearGradient
       xlink:href="#linearGradient4195"
       id="linearGradient4201"
       x1="18.389"
       y1="16.532"
       x2="35.068001"
       y2="33.212002"
       gradientUnits="userSpaceOnUse"
       gradientTransform="matrix(1.0499624,0,0,1.05,72.632152,-51.0326)" />
    <linearGradient
       id="linearGradient4195">
      <stop
         style="stop-color:#000000;stop-opacity:1;"
         offset="0"
         id="stop2" />
      <stop
         style="stop-color:#000000;stop-opacity:0;"
         offset="1"
         id="stop4" />
    </linearGradient>
    <linearGradient
       xlink:href="#radialGradient3911"
       id="linearGradient4181"
       x1="402.49799"
       y1="513.93701"
       x2="413.94601"
       y2="530.94598"
       gradientUnits="userSpaceOnUse"
       gradientTransform="matrix(1.0499624,0,0,1.05,-331.15339,-575.8205)" />
    <radialGradient
       id="radialGradient3911"
       cx="27"
       cy="24"
       r="11"
       gradientTransform="matrix(0.81818154,0,0,0.90909122,388.48052,501.97981)"
       gradientUnits="userSpaceOnUse">
      <stop
         style="stop-color:#334545;stop-opacity:1"
         id="stop7" />
      <stop
         offset="1"
         style="stop-color:#172525;stop-opacity:1"
         id="stop9" />
    </radialGradient>
    <linearGradient
       inkscape:collect="always"
       xlink:href="#c"
       id="linearGradient3095"
       gradientUnits="userSpaceOnUse"
       gradientTransform="matrix(1.5294115,0,0,1.5294115,-603.92743,-797.24513)"
       x1="400.57"
       y1="529.8"
       x2="418.57"
       y2="548.8" />
    <linearGradient
       inkscape:collect="always"
       xlink:href="#c"
       id="linearGradient3156"
       gradientUnits="userSpaceOnUse"
       gradientTransform="matrix(1.8358844,0,0,1.8358844,-688.62497,-937.31445)"
       x1="388.57"
       y1="523.8"
       x2="400.57"
       y2="538.8" />
  </defs>
  <rect
     style="fill:url(#linearGradient4196);fill-opacity:1;stroke-width:2.93995;stroke-opacity:0.550265"
     height="42"
     rx="20.999249"
     y="3"
     x="3.0007515"
     width="41.998497"
     id="rect22" />
  <path
     opacity="0.05"
     color-interpolation-filters="linearRGB"
     color="#000000"
     image-rendering="auto"
     color-rendering="auto"
     fill-rule="evenodd"
     d="m 17.885474,11.507717 1.529394,1.529407 h 4.588238 l 9.176476,9.176466 v 15.294127 l -7.647047,-0.0597 -13.137667,-13.128485 3.62777,-3.968811 -5.78423,-5.784232 6.117643,-1.529417 z"
     color-interpolation="sRGB"
     text-rendering="auto"
     fill="url(#c)"
     shape-rendering="auto"
     id="path1879-0"
     style="fill:url(#linearGradient3095);stroke-width:1.52934" />
  <path
     fill="#555753"
     d="m 16.356051,11.507717 v 1.529407 h -6.117643 v 1.529418 h 9.367643 v 0.38235 c 0,0.34565 -0.215643,1.174595 -0.457286,1.748127 -0.266127,0.633158 -0.850357,1.494238 -1.41623,2.087632 l -0.469534,0.489423 -0.338,-0.367055 C 16.463106,18.40231 15.774868,17.36231 15.517948,16.77959 l -0.215667,-0.48023 h -1.842939 l 0.191193,0.463423 c 0.357873,0.868704 1.145516,2.061632 1.902571,2.879868 0.672945,0.728 0.694368,0.581193 -0.172825,1.225066 -1.301516,0.966593 -2.306333,1.553873 -3.450333,2.018825 l -0.617897,0.250818 1.081291,1.18223 0.412939,-0.206466 c 1.275534,-0.637764 2.754484,-1.576814 3.805193,-2.413407 l 0.588807,-0.46646 0.448127,0.364 c 0.214127,0.172817 0.550593,0.422103 0.812127,0.611762 0.03975,0.02898 0.09023,0.0703 0.125412,0.0963 0.246232,0.174368 0.360922,0.255429 0.420581,0.272239 0.862579,0.590361 1.780238,1.171531 2.658111,1.610478 l 0.43283,0.215651 0.564345,-0.620939 0.56742,-0.617889 -0.648468,-0.263053 c -1.043058,-0.425182 -2.008122,-0.997182 -3.133759,-1.795529 -0.09487,-0.078 -0.217187,-0.174357 -0.48023,-0.360952 -0.34872,-0.247766 -0.633194,-0.475636 -0.633194,-0.507765 0,-0.03207 0.198831,-0.276811 0.445061,-0.542936 1.326,-1.440704 2.125891,-2.908935 2.347643,-4.303764 l 0.110081,-0.8213 H 24 v -1.529406 h -6.1176 v -1.5294 z"
     id="path1885-9"
     style="stroke-width:1.52934" />
  <path
     opacity="0.05"
     color-interpolation-filters="linearRGB"
     color="#000000"
     image-rendering="auto"
     color-rendering="auto"
     fill-rule="evenodd"
     d="m 30.362405,22.504261 9.157401,9.157404 0.925758,5.551702 -9.97989,6.780093 -7.977312,-6.774592 5.617806,-14.705429 z"
     color-interpolation="sRGB"
     text-rendering="auto"
     fill="url(#e)"
     shape-rendering="auto"
     id="path1887-0"
     style="fill:url(#linearGradient3156);stroke-width:1.83592"
     sodipodi:nodetypes="ccccccc" />
  <path
     fill="#555753"
     d="m 29.242529,24.468659 -2.651026,7.200333 h 5.296536 z m -1.123561,-1.96072 h 2.256296 l 5.608635,14.705428 h -2.06904 l -1.332849,-3.71766 -6.640407,0.0066 -1.340197,3.708486 h -2.098401 z"
     id="path1889-6"
     style="stroke-width:1.83592" />
</svg>
