<?xml version="1.0" encoding="UTF-8" standalone="no"?>
<svg
   width="48"
   height="48"
   version="1.1"
   id="svg1169"
   sodipodi:docname="mendeleydesktop.svg"
   inkscape:version="1.2.1 (9c6d41e410, 2022-07-14)"
   xmlns:inkscape="http://www.inkscape.org/namespaces/inkscape"
   xmlns:sodipodi="http://sodipodi.sourceforge.net/DTD/sodipodi-0.dtd"
   xmlns:xlink="http://www.w3.org/1999/xlink"
   xmlns="http://www.w3.org/2000/svg"
   xmlns:svg="http://www.w3.org/2000/svg">
  <sodipodi:namedview
     id="namedview1171"
     pagecolor="#ffffff"
     bordercolor="#666666"
     borderopacity="1.0"
     inkscape:showpageshadow="2"
     inkscape:pageopacity="0.0"
     inkscape:pagecheckerboard="0"
     inkscape:deskcolor="#d1d1d1"
     showgrid="false"
     inkscape:zoom="4.9166667"
     inkscape:cx="24"
     inkscape:cy="24"
     inkscape:window-width="1920"
     inkscape:window-height="1011"
     inkscape:window-x="0"
     inkscape:window-y="0"
     inkscape:window-maximized="1"
     inkscape:current-layer="svg1169" />
  <defs
     id="defs1159">
    <linearGradient
       id="linearGradient4144">
      <stop
         style="stop-color:#ffffff;stop-opacity:1;"
         offset="0"
         id="stop1141" />
      <stop
         style="stop-color:#eea9a9;stop-opacity:1"
         offset="1"
         id="stop1143" />
    </linearGradient>
    <linearGradient
       id="linearGradient4176">
      <stop
         style="stop-color:#000000;stop-opacity:1;"
         offset="0"
         id="stop1146" />
      <stop
         style="stop-color:#000000;stop-opacity:0;"
         offset="1"
         id="stop1148" />
    </linearGradient>
    <linearGradient
       id="linearGradient4159">
      <stop
         style="stop-color:#cf2134;stop-opacity:1;"
         offset="0"
         id="stop1151" />
      <stop
         style="stop-color:#e55a6a;stop-opacity:1"
         offset="1"
         id="stop1153" />
    </linearGradient>
    <linearGradient
       xlink:href="#linearGradient4159"
       id="linearGradient4165"
       x1="36.771"
       y1="43.737"
       x2="22.872"
       y2="2.652"
       gradientUnits="userSpaceOnUse"
       gradientTransform="matrix(1.0500005,0,0,1.0500005,-1.2315021,-1.210502)" />
    <linearGradient
       xlink:href="#linearGradient4176"
       id="linearGradient4182"
       x1="15.422"
       y1="13.478"
       x2="35.019"
       y2="33.075"
       gradientUnits="userSpaceOnUse"
       gradientTransform="matrix(1.0500005,0,0,1.0500005,-1.2315021,-1.210502)" />
    <linearGradient
       xlink:href="#linearGradient4144"
       id="linearGradient4150"
       x1="14.023"
       y1="8.129"
       x2="27.879"
       y2="34.944"
       gradientUnits="userSpaceOnUse"
       gradientTransform="matrix(1.0500005,0,0,1.0500005,-1.2315021,-1.210502)" />
  </defs>
  <rect
     style="fill:url(#linearGradient4165);fill-opacity:1;stroke-width:1.05"
     rx="21"
     y="3"
     x="3"
     height="42"
     width="42"
     id="rect1161" />
  <path
     style="opacity:0.3;fill:url(#linearGradient4182);fill-opacity:1;stroke:none;stroke-width:2.1;stroke-linecap:round;stroke-linejoin:round;stroke-miterlimit:4;stroke-dasharray:none;stroke-opacity:1"
     d="m 15.03325,12.578953 -0.05744,13.440825 -3.886232,5.70117 -1.9667008,2.481446 10.7953108,10.795321 h 21.926965 c 1.7451,0 3.15,-1.4049 3.15,-3.15 V 22.430909 l -8.648149,-8.648149 -8.94346,8.94346 -9.056256,-9.056248 z"
     id="path1165" />
  <path
     style="fill:url(#linearGradient4150);fill-opacity:1;stroke-width:1.05"
     d="m 15.06494,12.4419 c -1.370982,0.0427 -2.695242,0.662064 -3.709646,1.600305 -1.030935,0.953555 -1.7698808,2.263694 -1.9195108,3.672265 -0.07488,0.70432 -0.002,1.426217 0.227885,2.094857 0.2299347,0.668744 0.6189648,1.2831 1.1352608,1.758961 0.608949,0.561173 1.37004,0.91518 2.06934,1.354183 0.349686,0.219536 0.68755,0.463146 0.977215,0.759494 0.289647,0.296336 0.53048,0.647876 0.663101,1.043246 0.118,0.35179 0.147119,0.73188 0.09445,1.099561 -0.05268,0.36781 -0.186706,0.7227 -0.38185,1.03699 -0.390273,0.628689 -1.019547,1.08643 -1.710136,1.331186 -0.800975,0.28385 -1.683362,0.297935 -2.455322,0.65516 -0.6109048,0.28267 -1.1247585,0.775598 -1.4453231,1.374978 -0.3204816,0.599413 -0.4474261,1.302523 -0.3695376,1.980086 0.09153,0.796197 0.4663476,1.553477 1.0285269,2.115755 0.562185,0.562246 1.3060998,0.928476 2.0858248,1.049517 1.143241,0.177436 2.365337,-0.194501 3.196415,-1.011961 0.415542,-0.408724 0.732511,-0.919864 0.909452,-1.479344 0.176954,-0.559562 0.213514,-1.166237 0.09853,-1.742263 -0.08782,-0.439813 -0.260749,-0.856627 -0.42086,-1.274803 -0.160105,-0.41835 -0.310403,-0.846557 -0.349,-1.293601 -0.06812,-0.789364 0.229371,-1.592435 0.745222,-2.186631 0.515854,-0.59418 1.236585,-0.98516 1.997521,-1.158045 0.49095,-0.111534 1.002828,-0.13651 1.498664,-0.05009 0.495835,0.08659 0.97577,0.284892 1.377497,0.592566 0.401766,0.307667 0.722874,0.725854 0.901248,1.203927 0.178375,0.478064 0.20998,1.016 0.06772,1.506438 -0.14568,0.50231 -0.458816,0.933117 -0.776011,1.345782 -0.3172,0.412675 -0.649115,0.827155 -0.83761,1.314499 -0.20787,0.537456 -0.228645,1.143445 -0.08624,1.702577 0.14242,0.55904 0.443408,1.07184 0.837605,1.48764 0.43611,0.460106 0.98837,0.80473 1.58897,0.99317 0.60062,0.188559 1.214951,0.221175 1.843586,0.221175 0.628609,0 1.28394,-0.03265 1.884645,-0.221175 0.60062,-0.18844 1.1529,-0.533064 1.58897,-0.99317 0.394197,-0.41589 0.695185,-0.92864 0.837605,-1.48764 0.142421,-0.559152 0.121646,-1.165081 -0.08622,-1.702577 -0.188497,-0.487354 -0.520402,-0.901824 -0.837612,-1.314499 -0.317204,-0.412675 -0.630348,-0.843482 -0.77601,-1.345782 -0.142224,-0.490458 -0.110633,-1.028395 0.06772,-1.506438 0.178376,-0.478052 0.499483,-0.89625 0.901247,-1.203927 0.401759,-0.307674 0.881705,-0.506036 1.377497,-0.592566 0.495828,-0.08647 1.007707,-0.06149 1.498664,0.05009 0.760922,0.172855 1.481657,0.563826 1.997521,1.158045 0.515853,0.594186 0.813368,1.39734 0.745224,2.186631 -0.03856,0.447075 -0.188896,0.875291 -0.348999,1.293601 -0.160102,0.418229 -0.33306,0.835043 -0.420861,1.274803 -0.114966,0.576016 -0.07844,1.182616 0.09855,1.742263 0.176944,0.55946 0.49392,1.070579 0.909454,1.479344 0.831089,0.81746 2.053175,1.18944 3.196415,1.011961 0.779655,-0.121031 1.523652,-0.487271 2.085824,-1.049517 0.562178,-0.562248 0.937,-1.319538 1.028527,-2.115755 0.07793,-0.677614 -0.04908,-1.380643 -0.369537,-1.980086 -0.32049,-0.599413 -0.834374,-1.092318 -1.445323,-1.374978 -0.77201,-0.357225 -1.654364,-0.371321 -2.455304,-0.65516 -0.690569,-0.244746 -1.319854,-0.702497 -1.710136,-1.331186 -0.195148,-0.3143 -0.329178,-0.66919 -0.381853,-1.03699 -0.05273,-0.367715 -0.02361,-0.747805 0.09445,-1.099561 0.13262,-0.39538 0.373441,-0.74691 0.663101,-1.043246 0.289654,-0.296348 0.627522,-0.539958 0.977205,-0.759494 0.699381,-0.43896 1.460445,-0.79297 2.06934,-1.354183 0.516316,-0.475817 0.905345,-1.090217 1.13526,-1.758961 0.229933,-0.66864 0.302718,-1.390517 0.227885,-2.094857 -0.149692,-1.408571 -0.888585,-2.71866 -1.91951,-3.672265 -1.014404,-0.938281 -2.338665,-1.557575 -3.709647,-1.600305 -0.685491,-0.02135 -1.37592,0.100498 -2.007815,0.371394 -0.631876,0.27092 -1.203189,0.691812 -1.640306,1.228921 -0.501123,0.615761 -0.81608,1.364056 -1.104498,2.107346 -0.288417,0.743428 -0.561017,1.501293 -0.997737,2.165836 -0.720176,1.09578 -1.85682,2.13654 -3.153361,2.13654 -1.29654,0 -2.433169,-1.040832 -3.15336,-2.13654 -0.43672,-0.664481 -0.70933,-1.422328 -0.997745,-2.165836 -0.288415,-0.743311 -0.603375,-1.491626 -1.104498,-2.107346 -0.43711,-0.53714 -1.008426,-0.958031 -1.640303,-1.228921 -0.631883,-0.27092 -1.322268,-0.39276 -2.007814,-0.371394 z m 8.903687,10.146671 a 2.1022059,2.1366459 0 0 1 2.10221,2.136541 2.1022059,2.1366459 0 0 1 -2.10221,2.13654 2.1022059,2.1366459 0 0 1 -2.102205,-2.13654 2.1022059,2.1366459 0 0 1 2.102205,-2.136541 z"
     id="path1167" />
</svg>
