<?xml version="1.0" encoding="UTF-8" standalone="no"?>
<svg
   width="48"
   height="48"
   version="1.1"
   id="svg5"
   sodipodi:docname="musescore.svg"
   inkscape:version="1.3.2 (091e20ef0f, 2023-11-25)"
   xmlns:inkscape="http://www.inkscape.org/namespaces/inkscape"
   xmlns:sodipodi="http://sodipodi.sourceforge.net/DTD/sodipodi-0.dtd"
   xmlns="http://www.w3.org/2000/svg"
   xmlns:svg="http://www.w3.org/2000/svg">
  <defs
     id="defs5" />
  <sodipodi:namedview
     id="namedview5"
     pagecolor="#ffffff"
     bordercolor="#999999"
     borderopacity="1"
     inkscape:showpageshadow="2"
     inkscape:pageopacity="0"
     inkscape:pagecheckerboard="0"
     inkscape:deskcolor="#d1d1d1"
     inkscape:zoom="5.953125"
     inkscape:cx="34.603675"
     inkscape:cy="48.545932"
     inkscape:window-width="1920"
     inkscape:window-height="994"
     inkscape:window-x="0"
     inkscape:window-y="0"
     inkscape:window-maximized="1"
     inkscape:current-layer="svg5" />
  <path
     style="opacity:0.2;stroke-width:0.743393"
     d="m 23.999986,45 c 11.597979,0 20.999989,-9.237066 20.999989,-20.631577 0,-11.394514 -9.40201,-20.6315809 -20.999989,-20.6315809 C 12.40201,3.7368421 3,12.973909 3,24.368423 3,35.762934 12.40201,45 23.999986,45 Z"
     id="path1" />
  <path
     d="m 23.999986,44.263157 c 11.597979,0 20.999989,-9.237066 20.999989,-20.63158 C 44.999975,12.237066 35.597965,3 23.999986,3 12.40201,3 3,12.237066 3,23.631577 c 0,11.394514 9.40201,20.63158 20.999986,20.63158 z"
     id="path2"
     style="fill:#0088aa" />
  <path
     style="opacity:0.2;stroke-width:0.743393"
     d="m 32.249992,12.57895 c -2.948285,0 -5.250002,2.155677 -5.250002,4.985188 2.71e-4,1.212659 2.249991,1.212659 2.249991,0 0,-1.616852 0.778539,-2.774665 3.000011,-2.774665 2.22146,0 2.999988,1.157813 2.999988,2.774665 0,1.212659 2.25,1.212659 2.25,0 0,-2.829511 -2.301673,-4.985188 -5.249988,-4.985188 z m 0,3.6842 c -0.82879,0 -1.500011,0.65723 -1.500011,1.469378 0,0.812085 0.671221,1.470805 1.500011,1.470805 0.828775,0 1.499989,-0.65872 1.499989,-1.470805 0,-0.812148 -0.671214,-1.469378 -1.499989,-1.469378 z m -8.250006,3.684221 c -1.558363,0 -3.395217,0.924634 -4.24365,2.078119 -0.848394,-1.153486 -2.447965,-1.931328 -4.006347,-1.931328 -2.574955,0 -5.249994,1.553466 -5.249994,5.821339 v 7.031657 c 0,0 1.09e-4,1.000212 1.038574,1.000212 1.038459,0 1.211426,-1.000212 1.211426,-1.000212 v -7.031657 c -0.0012,-3.243512 1.408573,-3.757601 2.999994,-3.757601 1.591417,0 3.000003,0.991228 3.000003,3.186262 v 7.602996 c 0,0 0.05728,1.000212 1.095705,1.000212 1.038453,0 1.154289,-1.000212 1.154289,-1.000212 v -7.602996 c 0,-2.195034 1.40859,-3.186262 3,-3.186262 1.010336,0 2.973632,0.131785 2.973632,3.186262 l 0.06011,2.594778 c -2e-6,4.796419 3.132505,6.00843 5.216309,6.00843 2.083795,0 5.186318,-1.414972 5.249995,-5.658716 V 21.57648 c 0,-1.168145 -2.249999,-1.168145 -2.249999,0 v 6.611434 c 0,3.219384 -1.9581,3.548936 -2.999996,3.548936 -1.041914,0 -2.997074,-0.125151 -2.997074,-3.897212 l -0.0601,-2.355883 c 2e-6,-3.638106 -2.545249,-5.536384 -5.19287,-5.536384 z"
     id="path3" />
  <path
     style="fill:#ffffff;stroke-width:0.743393"
     d="m 32.249992,11.842103 c -2.948285,0 -5.250002,2.155687 -5.250002,4.985201 2.71e-4,1.212653 2.249991,1.212653 2.249991,0 0,-1.616854 0.778539,-2.774674 3.000011,-2.774674 2.22146,0 2.999988,1.15782 2.999988,2.774674 0,1.212653 2.25,1.212653 2.25,0 0,-2.829514 -2.301673,-4.985201 -5.249988,-4.985201 z m 0,3.68421 c -0.82879,0 -1.500011,0.65723 -1.500011,1.469377 0,0.81208 0.671221,1.470794 1.500011,1.470794 0.828775,0 1.499989,-0.658714 1.499989,-1.470794 0,-0.812147 -0.671214,-1.469377 -1.499989,-1.469377 z m -8.250006,3.684217 c -1.558363,0 -3.395217,0.924632 -4.24365,2.078125 -0.848394,-1.153494 -2.447965,-1.931336 -4.006347,-1.931336 -2.574955,0 -5.249994,1.553466 -5.249994,5.821342 v 7.03166 c 0,0 1.09e-4,1.000206 1.038574,1.000206 1.038459,0 1.211426,-1.000206 1.211426,-1.000206 v -7.03166 c -0.0012,-3.243524 1.408573,-3.757611 2.999994,-3.757611 1.591417,0 3.000003,0.991239 3.000003,3.186269 v 7.603002 c 0,0 0.05728,1.000206 1.095705,1.000206 1.038453,0 1.154289,-1.000206 1.154289,-1.000206 v -7.603002 c 0,-2.19503 1.40859,-3.186269 3,-3.186269 1.010336,0 2.973632,0.131795 2.973632,3.186269 l 0.06011,2.594784 c -2e-6,4.796411 3.132505,6.008424 5.216309,6.008424 2.083795,0 5.186318,-1.414975 5.249995,-5.658717 v -6.71217 c 0,-1.168143 -2.249999,-1.168143 -2.249999,0 v 6.611431 c 0,3.21939 -1.9581,3.548927 -2.999996,3.548927 -1.041914,0 -2.997074,-0.125143 -2.997074,-3.897203 l -0.0601,-2.355878 c 2e-6,-3.638105 -2.545249,-5.536387 -5.19287,-5.536387 z"
     id="path4" />
  <path
     style="opacity:0.2;fill:#ffffff;stroke-width:0.743393"
     d="M 23.999986,3 C 12.40201,3 3,12.237066 3,23.631577 3,23.755101 3.00805,23.876991 3.010254,24 3.2110523,12.776101 12.527736,3.7368421 23.999986,3.7368421 35.472241,3.7368421 44.788918,12.776101 44.989723,24 44.992675,23.876991 45,23.755101 45,23.631577 44.999975,12.237066 35.597965,3 23.999986,3 Z"
     id="path5" />
</svg>
