<?xml version="1.0" encoding="UTF-8" standalone="no"?>
<svg
   width="48"
   height="48"
   viewBox="0 0 12.699752 12.699752"
   version="1.1"
   id="svg2"
   sodipodi:docname="nvidia.svg"
   inkscape:version="1.3.2 (091e20ef0f, 2023-11-25)"
   xmlns:inkscape="http://www.inkscape.org/namespaces/inkscape"
   xmlns:sodipodi="http://sodipodi.sourceforge.net/DTD/sodipodi-0.dtd"
   xmlns="http://www.w3.org/2000/svg"
   xmlns:svg="http://www.w3.org/2000/svg">
  <defs
     id="defs2" />
  <sodipodi:namedview
     id="namedview2"
     pagecolor="#ffffff"
     bordercolor="#999999"
     borderopacity="1"
     inkscape:showpageshadow="2"
     inkscape:pageopacity="0"
     inkscape:pagecheckerboard="0"
     inkscape:deskcolor="#d1d1d1"
     inkscape:zoom="4.4028446"
     inkscape:cx="23.621093"
     inkscape:cy="45.08449"
     inkscape:window-width="1920"
     inkscape:window-height="994"
     inkscape:window-x="0"
     inkscape:window-y="0"
     inkscape:window-maximized="1"
     inkscape:current-layer="svg2" />
  <g
     id="g2"
     transform="matrix(0.77778981,0,0,0.77778981,-0.23524254,-0.23528143)">
    <ellipse
       cx="8.4130001"
       cy="8.3769999"
       rx="5.2199998"
       ry="5.0050001"
       style="paint-order:stroke fill markers;fill:#253149;fill-opacity:1"
       id="ellipse1" />
    <path
       d="M 7.5339155,1.3927491 A 7.14366,7.14366 0 0 0 1.3229,8.46656 7.14366,7.14366 0 0 0 7.5339155,15.541429 V 1.3924845 Z"
       style="stroke-width:0.26458;paint-order:stroke fill markers;fill:#25324b;fill-opacity:1"
       id="path1" />
    <path
       d="m 8.5269155,1.3157491 a 7.144,7.144 0 0 0 -0.993,0.077 v 4.415 l 0.106,-0.002 c 2.305,-0.015 3.7999995,1.99 3.7999995,1.99 0,0 -1.7719995,2.2020001 -3.6179995,2.2020001 -0.1,0 -0.195,-0.005 -0.288,-0.015 v 0.5799998 c 0.068,0.006 0.138,0.007 0.208,0.007 1.718,0 2.9609995,-0.8959998 4.1619995,-1.9579999 0.2,0.163 1.017,0.5600001 1.184,0.7340001 -1.143,0.9799998 -3.8079995,1.7689998 -5.3199995,1.7689998 -0.08,0 -0.157,-0.003 -0.234,-0.008 v 4.418 a 7.144,7.144 0 0 0 0.992,0.078 7.144,7.144 0 0 0 7.1439995,-7.1439999 7.144,7.144 0 0 0 -7.1439995,-7.143 z m -0.993,9.2479999 c -0.063,-0.004 -0.11,-0.012 -0.17,-0.02 -2.102,-0.27 -2.82,-2.6399999 -2.82,-2.6399999 0,0 0.94,-1.423 2.82,-1.57 0.06,-0.003 0.108,-0.008 0.17,-0.01 v 0.632 c 0.05,-0.003 0.12,-0.006 0.172,-0.006 1.09,0 1.737,0.869 1.737,0.869 l -0.887,0.765 c -0.356,-0.61 -0.518,-0.913 -1.022,-1.03 v -0.598 c -0.062,0.004 -0.11,0.01 -0.17,0.016 -1.267,0.14 -2.03,1.005 -2.03,1.005 0,0 0.44,1.6900001 2.03,1.9790001 0.06,0.013 0.107,0.02 0.17,0.027 v -0.478 c -0.065,-0.013 -0.112,-0.03 -0.17,-0.05 -0.896,-0.308 -1.187,-1.3790001 -1.187,-1.3790001 0,0 0.519,-0.636 1.184,-0.555 h 0.002 c 0.07,0.009 0.113,0.021 0.171,0.035 v 1.9490001 c 0,0.1 0.22,0.032 0.333,0.032 1.293,0 2.5000005,-1.7150001 2.5000005,-1.7150001 0,0 -1.1330005,-1.549 -2.8330005,-1.498 v -0.514 c -0.062,0.002 -0.11,0.005 -0.17,0.01 -2.083,0.17 -3.8860001,1.975 -3.8860001,1.975 0,0 1.0220001,3.0219999 3.8850001,3.2979999 0.063,0.007 0.108,0.01 0.171,0.013 z"
       id="path2"
       style="fill:#00aa7f;fill-opacity:1" />
  </g>
</svg>
