<?xml version="1.0" encoding="UTF-8" standalone="no"?>
<svg
   width="48"
   height="48"
   version="1.1"
   id="svg63"
   sodipodi:docname="nylas.svg"
   inkscape:version="1.2.1 (9c6d41e410, 2022-07-14)"
   xmlns:inkscape="http://www.inkscape.org/namespaces/inkscape"
   xmlns:sodipodi="http://sodipodi.sourceforge.net/DTD/sodipodi-0.dtd"
   xmlns:xlink="http://www.w3.org/1999/xlink"
   xmlns="http://www.w3.org/2000/svg"
   xmlns:svg="http://www.w3.org/2000/svg">
  <sodipodi:namedview
     id="namedview65"
     pagecolor="#ffffff"
     bordercolor="#666666"
     borderopacity="1.0"
     inkscape:showpageshadow="2"
     inkscape:pageopacity="0.0"
     inkscape:pagecheckerboard="0"
     inkscape:deskcolor="#d1d1d1"
     showgrid="false"
     inkscape:zoom="4.9166667"
     inkscape:cx="24"
     inkscape:cy="24"
     inkscape:window-width="1920"
     inkscape:window-height="1009"
     inkscape:window-x="0"
     inkscape:window-y="0"
     inkscape:window-maximized="1"
     inkscape:current-layer="svg63" />
  <defs
     id="defs39">
    <linearGradient
       id="linearGradient1765">
      <stop
         style="stop-color:#313c40;stop-opacity:1;"
         offset="0"
         id="stop1761" />
      <stop
         style="stop-color:#f9fafb;stop-opacity:1"
         offset="1"
         id="stop1763" />
    </linearGradient>
    <linearGradient
       id="linearGradient4472">
      <stop
         style="stop-color:#000000;stop-opacity:0.08247422"
         offset="0"
         id="stop2" />
      <stop
         style="stop-color:#000000;stop-opacity:0"
         offset="1"
         id="stop4" />
    </linearGradient>
    <linearGradient
       id="linearGradient4456">
      <stop
         style="stop-color:#000000;stop-opacity:0.27450982"
         offset="0"
         id="stop7" />
      <stop
         style="stop-color:#ffffff;stop-opacity:0"
         offset="1"
         id="stop9" />
    </linearGradient>
    <linearGradient
       id="linearGradient4448">
      <stop
         style="stop-color:#ffffff;stop-opacity:0"
         offset="0"
         id="stop12" />
      <stop
         style="stop-color:#ffffff;stop-opacity:0.3137255"
         offset="1"
         id="stop14" />
    </linearGradient>
    <linearGradient
       xlink:href="#linearGradient4303"
       id="linearGradient4346"
       x1="543.798"
       y1="-409.571"
       x2="503.798"
       y2="-409.571"
       gradientUnits="userSpaceOnUse"
       gradientTransform="matrix(0,1,-1.1666667,0,-537.09175,-528.53914)" />
    <linearGradient
       id="linearGradient4903">
      <stop
         style="stop-color:#eef1f2;stop-opacity:1"
         offset="0"
         id="stop18" />
      <stop
         style="stop-color:#f9fafb;stop-opacity:1"
         offset="1"
         id="stop20" />
    </linearGradient>
    <linearGradient
       xlink:href="#linearGradient4448"
       id="linearGradient4454"
       x1="384.571"
       y1="547.798"
       x2="394.571"
       y2="530.477"
       gradientUnits="userSpaceOnUse"
       gradientTransform="translate(-468.9965,-528.53914)" />
    <linearGradient
       xlink:href="#linearGradient4456"
       id="linearGradient4462"
       x1="384.571"
       y1="537.798"
       x2="414.571"
       y2="537.798"
       gradientUnits="userSpaceOnUse"
       gradientTransform="translate(-468.9965,-528.53914)" />
    <linearGradient
       xlink:href="#linearGradient4472"
       id="linearGradient4478"
       x1="432.571"
       y1="547.798"
       x2="421.024"
       y2="527.798"
       gradientUnits="userSpaceOnUse"
       gradientTransform="translate(-468.9965,-528.53914)" />
    <linearGradient
       xlink:href="#linearGradient4903"
       id="linearGradient4486"
       x1="25"
       y1="44"
       x2="25"
       y2="20"
       gradientUnits="userSpaceOnUse"
       gradientTransform="translate(-84.42507,-28.74114)" />
    <linearGradient
       id="linearGradient4303">
      <stop
         offset="0"
         style="stop-color:#197cf1;stop-opacity:1"
         id="stop27" />
      <stop
         offset="1"
         style="stop-color:#21c9fb;stop-opacity:1"
         id="stop29" />
    </linearGradient>
    <linearGradient
       id="linearGradient4227">
      <stop
         style="stop-color:#292c2f;stop-opacity:1"
         offset="0"
         id="stop32" />
      <stop
         style="stop-color:#000000;stop-opacity:0;"
         offset="1"
         id="stop34" />
    </linearGradient>
    <linearGradient
       xlink:href="#linearGradient4227"
       id="linearGradient4755"
       x1="414.571"
       y1="511.798"
       x2="422.571"
       y2="519.798"
       gradientUnits="userSpaceOnUse"
       gradientTransform="translate(-468.9965,-528.53914)" />
    <linearGradient
       xlink:href="#linearGradient1765"
       id="linearGradient4279"
       x1="400.161"
       y1="518.676"
       x2="416.669"
       y2="518.676"
       gradientUnits="userSpaceOnUse"
       gradientTransform="matrix(1.0298499,0,0,1.0192766,-395.47229,-544.41589)" />
    <linearGradient
       id="linearGradient1545"
       x1="70.794998"
       x2="81.377998"
       y1="20.511999"
       y2="20.511999"
       gradientTransform="matrix(7.5637,0,0,7.5637,-543.5,-123.14)"
       gradientUnits="userSpaceOnUse">
      <stop
         stop-color="#b5cddc"
         offset="0"
         id="stop10521" />
      <stop
         stop-color="#cee0e9"
         offset="1"
         id="stop10523" />
    </linearGradient>
    <linearGradient
       id="linearGradient1454"
       x1="76.042999"
       x2="76.042999"
       y1="24.482"
       y2="20.084"
       gradientTransform="matrix(7.5637,0,0,7.5637,-543.5,-123.14)"
       gradientUnits="userSpaceOnUse">
      <stop
         stop-color="#dde8ed"
         offset="0"
         id="stop10516" />
      <stop
         stop-color="#dee6ee"
         offset="1"
         id="stop10518" />
    </linearGradient>
    <linearGradient
       id="h"
       y1="54.701"
       x1="34.491001"
       y2="24.190001"
       gradientUnits="userSpaceOnUse"
       x2="4.0300002"
       gradientTransform="translate(-8.0000004,-73)">
      <stop
         stop-color="#6d429a"
         id="stop37" />
      <stop
         offset=".608"
         stop-color="#45b9f4"
         id="stop39" />
      <stop
         offset="1"
         stop-color="#afe6ff"
         id="stop41" />
    </linearGradient>
    <linearGradient
       id="k"
       y1="47.627998"
       x1="22.489"
       y2="28.316999"
       gradientUnits="userSpaceOnUse"
       x2="27.667"
       gradientTransform="translate(-8.0000004,-73)">
      <stop
         stop-color="#23272d"
         id="stop54" />
      <stop
         offset="1"
         stop-color="#324356"
         stop-opacity=".375"
         id="stop56" />
    </linearGradient>
    <linearGradient
       id="i"
       y1="32.34"
       x1="29.493999"
       y2="30.759001"
       gradientUnits="userSpaceOnUse"
       x2="18.771"
       gradientTransform="translate(-8.0000004,-73)">
      <stop
         stop-color="#4c73bd"
         id="stop44" />
      <stop
         offset="1"
         stop-color="#01afff"
         id="stop46" />
    </linearGradient>
    <linearGradient
       id="e"
       y1="31.802999"
       x1="23.725"
       y2="36.259998"
       gradientUnits="userSpaceOnUse"
       x2="27.030001"
       gradientTransform="translate(-8.0000004,-73)">
      <stop
         stop-color="#292c2f"
         id="stop22" />
      <stop
         offset="1"
         stop-opacity="0"
         id="stop24" />
    </linearGradient>
    <linearGradient
       id="l"
       y1="28.629999"
       x1="10.956"
       y2="29.535999"
       gradientUnits="userSpaceOnUse"
       x2="8.4799995"
       gradientTransform="translate(-8.0000004,-73)">
      <stop
         id="stop59" />
      <stop
         offset="1"
         stop-opacity="0"
         id="stop61" />
    </linearGradient>
    <linearGradient
       id="a-0"
       x1="543.79999"
       x2="503.79999"
       gradientUnits="userSpaceOnUse"
       gradientTransform="matrix(0,1,-1.16667,0,-452.67,-499.8)">
      <stop
         stop-color="#197cf1"
         id="stop1649" />
      <stop
         offset="1"
         stop-color="#21c9fb"
         id="stop1651" />
    </linearGradient>
    <linearGradient
       id="a-0-2"
       x1="543.79999"
       x2="503.79999"
       gradientUnits="userSpaceOnUse"
       gradientTransform="matrix(0,1,-1.16667,0,-452.67,-499.8)">
      <stop
         stop-color="#197cf1"
         id="stop1649-6" />
      <stop
         offset="1"
         stop-color="#21c9fb"
         id="stop1651-1" />
    </linearGradient>
    <linearGradient
       id="a-0-7"
       x1="543.79999"
       x2="503.79999"
       gradientUnits="userSpaceOnUse"
       gradientTransform="matrix(0,1,-1.16667,0,-452.67,-499.8)">
      <stop
         stop-color="#197cf1"
         id="stop1649-9" />
      <stop
         offset="1"
         stop-color="#21c9fb"
         id="stop1651-2" />
    </linearGradient>
    <linearGradient
       inkscape:collect="always"
       xlink:href="#a-0"
       id="linearGradient2025"
       gradientUnits="userSpaceOnUse"
       gradientTransform="translate(-73.530934,38.008978)"
       x1="79.531097"
       y1="-19.124838"
       x2="115.72017"
       y2="-19.124838" />
  </defs>
  <g
     stroke-width="7.5637"
     id="g10556"
     transform="matrix(2.6457026,0,0,2.6457026,1.6,1.6)">
    <path
       transform="scale(0.26458)"
       d="M 32,2 A 30,30 0 0 0 2,32 30,30 0 0 0 32,62 30,30 0 0 0 62,32 30,30 0 0 0 32,2 Z"
       fill="url(#linearGradient1545)"
       id="path10550"
       style="fill:url(#linearGradient1545)" />
    <path
       transform="scale(0.26458)"
       d="m 31.945,28.529 a 3.7146,3.129 0 0 0 -0.36719,0.02344 3.7146,3.129 0 0 0 -0.36719,0.04687 3.7146,3.129 0 0 0 -0.35547,0.08594 3.7146,3.129 0 0 0 -0.35156,0.10938 3.7146,3.129 0 0 0 -0.33203,0.14062 3.7146,3.129 0 0 0 -0.3125,0.16797 3.7146,3.129 0 0 0 -0.29102,0.19141 3.7146,3.129 0 0 0 -0.19531,0.15234 l -22.486,18.943 a 30,30 0 0 0 25.113,13.609 30,30 0 0 0 25.104,-13.619 l -22.477,-18.934 A 3.7146,3.129 0 0 0 34.35329,29.23503 3.7146,3.129 0 0 0 34.05251,29.05144 3.7146,3.129 0 0 0 33.7361,28.89128 3.7146,3.129 0 0 0 33.40016,28.75847 3.7146,3.129 0 0 0 33.0486,28.65691 3.7146,3.129 0 0 0 32.68337,28.58269 3.7146,3.129 0 0 0 32.31618,28.53972 3.7146,3.129 0 0 0 31.94509,28.528 Z"
       fill="url(#linearGradient1454)"
       id="path10552"
       style="fill:url(#linearGradient1454)" />
    <path
       transform="scale(0.26458)"
       d="M 32,2 A 30,30 0 0 0 6.898,15.617 l 22.475,18.932 a 3.7146,3.129 0 0 0 0.19531,0.15234 3.7146,3.129 0 0 0 0.29102,0.19141 3.7146,3.129 0 0 0 0.3125,0.16797 3.7146,3.129 0 0 0 0.33203,0.14062 3.7146,3.129 0 0 0 0.35156,0.10938 3.7146,3.129 0 0 0 0.35547,0.08594 3.7146,3.129 0 0 0 0.36719,0.04687 3.7146,3.129 0 0 0 0.36719,0.02344 3.7146,3.129 0 0 0 0.37109,-0.0098 3.7146,3.129 0 0 0 0.36719,-0.04297 3.7146,3.129 0 0 0 0.36523,-0.07422 3.7146,3.129 0 0 0 0.35156,-0.10156 3.7146,3.129 0 0 0 0.33594,-0.13281 3.7146,3.129 0 0 0 0.31641,-0.16211 3.7146,3.129 0 0 0 0.30078,-0.18359 3.7146,3.129 0 0 0 0.27344,-0.21094 l 22.486,-18.941 a 30,30 0 0 0 -25.113,-13.607 z"
       fill="#ffffff"
       id="path10554" />
  </g>
  <path
     style="fill:#262626;fill-opacity:1;fill-rule:nonzero;stroke:none;stroke-width:42.535;stroke-miterlimit:4;stroke-dasharray:none;stroke-opacity:1"
     d="m 30.326808,21.629778 c -0.38086,-0.13497 -3.97552,-2.13277 -5.405,-3.00406 -0.29439,-0.17942 -0.30599,-0.25993 -0.30599,-2.12039 v -1.93387 l 3.93833,2.23984 3.93833,2.23984 0.006,0.78731 c 0.0117,1.63046 -0.78032,2.28388 -2.17133,1.79133 z m -10.53898,-0.97226 c -2.01961,-1.1516 -3.80971,-2.18234 -3.978,-2.29066 -0.29339,-0.18882 -0.30601,-0.27486 -0.30601,-2.08945 0,-1.09228 0.0527,-1.87365 0.12488,-1.84775 0.0687,0.0248 1.87409,1.04245 4.01201,2.2617 l 3.88711,2.21682 v 1.92224 c 0,1.05722 -0.0154,1.92199 -0.034,1.92158 -0.0186,-5.8e-4 -1.68641,-0.94289 -3.70599,-2.09448 z m -0.37189,-5.15397 -3.90786,-2.24033 -0.002,-1.92942 c -0.002,-1.06102 0.0504,-1.9091296 0.11457,-1.8844596 0.0642,0.0248 1.86792,1.0442696 4.00832,2.2658196 l 3.89164,2.22103 0.003,1.91811 c 0.002,1.05492 -0.0422,1.91168 -0.0984,1.90393 -0.0561,-0.008 -1.86054,-1.02233 -4.00987,-2.25468 z m 12.47587,2.14934 c -0.2244,-0.13727 -1.8768,-1.08345 -3.67201,-2.10265 -1.79519,-1.01919 -3.34229,-1.92438 -3.438,-2.0115 -0.12887,-0.11739 -0.16413,-0.63742 -0.13598,-2.00498 l 0.038,-1.8464296 2.99201,1.7075096 c 1.6456,0.93901 3.4051,1.94319 3.90999,2.23126 l 0.918,0.52383 v 1.87851 c 0,1.03322 -0.0459,1.87745 -0.10196,1.87622 -0.0561,0 -0.2856,-0.11459 -0.51,-0.25177 z m -2.04,-6.14075 c -1.34639,-0.77542 -3.0753,-1.7581596 -3.842,-2.1837396 l -1.394,-0.77386 v -1.93378 c 0,-1.49436 0.0386,-1.91796 0.17001,-1.86434 0.0935,0.0387 1.85301,1.03718 3.91,2.21971 l 3.73999,2.15025 0.0378,1.9002196 c 0.0208,1.04501 -0.0103,1.89897 -0.068,1.89774 -0.0582,0 -1.20733,-0.63668 -2.55373,-1.4122 z m -10.43798,-0.98272 -3.91001,-2.2438896 0.003,-0.47252 c 0.0148,-2.15742 1.09925,-2.70244 3.1458,-1.58121 0.57259,0.31372 1.90229,1.05491 2.95489,1.64721 l 1.91383,1.07686 0.003,1.9181096 c 0.002,1.05491 -0.0427,1.91383 -0.0989,1.90872 -0.0561,-0.008 -1.86151,-1.01911 -4.01201,-2.25328 z"
     id="path59-6" />
  <path
     d="M 40.523084,11.098276 24.252296,23.620583 c 0.02112,-0.01617 -0.336973,-0.0162 -0.315814,0 L 7.6831735,11.11228 a 21.000011,21.000011 0 0 0 -1.683008,2.454129 L 22.123259,25.977413 c 1.200303,0.923854 2.742684,0.923792 3.94298,0 L 42.189234,13.568507 A 21.000011,21.000011 0 0 0 40.522834,11.098 Z"
     color-rendering="auto"
     dominant-baseline="auto"
     image-rendering="auto"
     shape-rendering="auto"
     solid-color="#000000"
     style="font-variant-ligatures:normal;font-variant-position:normal;font-variant-caps:normal;font-variant-numeric:normal;font-variant-alternates:normal;font-feature-settings:normal;text-indent:0;text-decoration-line:none;text-decoration-style:solid;text-decoration-color:#000000;text-transform:none;text-orientation:mixed;white-space:normal;shape-padding:0;isolation:auto;mix-blend-mode:normal;fill:url(#linearGradient2025);fill-opacity:1;stroke-width:0.699997;paint-order:stroke fill markers"
     id="path10558-3-8-0" />
</svg>
