<?xml version="1.0" encoding="UTF-8" standalone="no"?>
<svg
   width="48"
   height="48"
   version="1.1"
   id="svg4390"
   sodipodi:docname="obs.svg"
   inkscape:version="1.2.2 (b0a8486541, 2022-12-01)"
   xmlns:inkscape="http://www.inkscape.org/namespaces/inkscape"
   xmlns:sodipodi="http://sodipodi.sourceforge.net/DTD/sodipodi-0.dtd"
   xmlns:xlink="http://www.w3.org/1999/xlink"
   xmlns="http://www.w3.org/2000/svg"
   xmlns:svg="http://www.w3.org/2000/svg">
  <sodipodi:namedview
     id="namedview4392"
     pagecolor="#ffffff"
     bordercolor="#666666"
     borderopacity="1.0"
     inkscape:showpageshadow="2"
     inkscape:pageopacity="0.0"
     inkscape:pagecheckerboard="0"
     inkscape:deskcolor="#d1d1d1"
     showgrid="true"
     inkscape:zoom="4.9166667"
     inkscape:cx="15.355932"
     inkscape:cy="24.508474"
     inkscape:window-width="1920"
     inkscape:window-height="1002"
     inkscape:window-x="0"
     inkscape:window-y="0"
     inkscape:window-maximized="1"
     inkscape:current-layer="svg4390">
    <inkscape:grid
       type="xygrid"
       id="grid5049" />
  </sodipodi:namedview>
  <defs
     id="defs4378">
    <linearGradient
       inkscape:collect="always"
       id="linearGradient847">
      <stop
         style="stop-color:#1e2b35;stop-opacity:1;"
         offset="0"
         id="stop843" />
      <stop
         style="stop-color:#6d7983;stop-opacity:1;"
         offset="1"
         id="stop845" />
    </linearGradient>
    <linearGradient
       id="a"
       y1="547.634"
       y2="499.679"
       x2="388.865"
       gradientUnits="userSpaceOnUse"
       gradientTransform="translate(-384.57,-499.8)"
       x1="428.816">
      <stop
         stop-color="#2a2c2f"
         id="stop4363"
         offset="0"
         style="stop-color:#1e2b35;stop-opacity:1;" />
      <stop
         offset="1"
         stop-color="#536161"
         id="stop4365"
         style="stop-color:#6d7983;stop-opacity:1;" />
    </linearGradient>
    <linearGradient
       id="b"
       y1="44"
       y2="12"
       x2="14"
       gradientUnits="userSpaceOnUse"
       x1="36">
      <stop
         stop-color="#536161"
         style="stop-color:#bfc9c9;stop-opacity:1"
         id="stop4368" />
      <stop
         offset="1"
         stop-color="#f4f5f5"
         style="stop-color:#fbfbfb;stop-opacity:1"
         id="stop4370" />
    </linearGradient>
    <linearGradient
       id="c"
       y1="527.014"
       x1="406.501"
       y2="539.825"
       x2="419.974"
       gradientUnits="userSpaceOnUse"
       gradientTransform="translate(-384.57,-499.8)">
      <stop
         stop-color="#292c2f"
         id="stop4373" />
      <stop
         offset="1"
         stop-opacity="0"
         id="stop4375" />
    </linearGradient>
    <linearGradient
       xlink:href="#a"
       id="linearGradient4151"
       gradientUnits="userSpaceOnUse"
       x1="4.0000024"
       y1="43.999989"
       x2="43.999992"
       y2="3.9999998"
       gradientTransform="matrix(1.0499999,0,0,1.0499999,-1.2000002,-1.1999984)" />
    <linearGradient
       id="linearGradient4141">
      <stop
         style="stop-color:#ffccaa;stop-opacity:1"
         offset="0"
         id="stop7" />
      <stop
         style="stop-color:#ff9955;stop-opacity:1"
         offset="1"
         id="stop9" />
    </linearGradient>
    <linearGradient
       inkscape:collect="always"
       xlink:href="#linearGradient847"
       id="linearGradient849"
       x1="40.37009"
       y1="48"
       x2="10"
       y2="0"
       gradientUnits="userSpaceOnUse" />
  </defs>
  <rect
     width="41.999985"
     height="41.999985"
     x="3"
     y="3"
     ry="20.999992"
     rx="20.999992"
     id="rect16"
     style="fill-opacity:1;fill:url(#linearGradient849)" />
  <path
     d="m 22.86807,6.5006242 c -2.797207,0.076612 -5.537495,1.3548126 -7.398059,3.4648546 -3.278267,3.5485272 -3.540092,9.4231352 -0.612414,13.2636982 2.590489,0.395841 4.86241,2.315285 5.729065,4.803872 1.290969,3.369606 -0.332013,7.509529 -3.554807,9.085408 C 13.884274,38.844384 9.5989506,37.75768 7.6362606,34.736144 7.5901524,34.668723 7.5451262,34.600656 7.5,34.532576 c 1.4649171,2.404593 3.933744,4.158 6.676453,4.727253 4.68758,1.088015 9.865062,-1.620893 11.700875,-6.097158 -0.955178,-2.45946 -0.442018,-5.402567 1.262396,-7.403399 2.248798,-2.811727 6.616842,-3.465233 9.581961,-1.439349 3.056409,1.88469 4.265556,6.169467 2.650922,9.393922 -0.03496,0.07406 -0.07061,0.147607 -0.10668,0.221146 1.333496,-2.481038 1.605211,-5.513044 0.722767,-8.192959 -1.408708,-4.636433 -6.32458,-7.802239 -11.087597,-7.166553 -0.689572,0.870123 -1.58401,1.554407 -2.580155,2.019355 -0.0347,0.01635 -0.0693,0.03283 -0.104272,0.04863 -0.0083,0.0041 -0.01567,0.0069 -0.02347,0.01083 -0.506762,0.227414 -1.043928,0.398436 -1.603483,0.505603 -0.0055,9.82e-4 -0.01075,0.0028 -0.01676,0.0028 -0.05378,0.01083 -0.107756,0.01973 -0.161994,0.02863 -0.825752,0.140082 -1.674621,0.140352 -2.50146,-0.01635 -1.355983,-0.213687 -2.594336,-0.858087 -3.592898,-1.772961 -0.04461,-0.04042 -0.08832,-0.08186 -0.13201,-0.123352 -0.02278,-0.02187 -0.04583,-0.04366 -0.06834,-0.06594 -0.602307,-0.586422 -1.105413,-1.275099 -1.481265,-2.039325 -0.03754,-0.07511 -0.07359,-0.150972 -0.108692,-0.227293 -0.0014,-0.0041 -0.0041,-0.0083 -0.0055,-0.01214 -0.483122,-1.056847 -0.722967,-2.224411 -0.638494,-3.405124 0.03433,-1.356568 0.489932,-2.654785 1.234987,-3.7578499 0.42792,-0.6419135 0.95392,-1.2110848 1.554902,-1.68899 0.0083,-0.00678 0.01622,-0.013513 0.02441,-0.019317 0.06382,-0.050264 0.12799,-0.09998 0.193474,-0.1481195 0.06315,-0.047149 0.127324,-0.092687 0.191947,-0.1377026 0.01204,-0.00818 0.02454,-0.017431 0.03715,-0.025935 1.032132,-0.7109673 2.237449,-1.1614727 3.506907,-1.233391 8.1e-5,-1.37e-5 2.55e-4,1.38e-5 3.34e-4,0 0.02415,-0.0014 0.04823,-0.00404 0.07252,-0.00538 0.05644,-0.00404 0.112845,-0.00818 0.16927,-0.012157 z"
     fill="#ffffff"
     stroke-width="0.0923161"
     id="path4" />
</svg>
