<?xml version="1.0" encoding="UTF-8" standalone="no"?>
<svg
   width="48"
   height="48"
   version="1.1"
   id="svg4520"
   sodipodi:docname="okteta.svg"
   inkscape:version="1.2.1 (9c6d41e410, 2022-07-14)"
   xmlns:inkscape="http://www.inkscape.org/namespaces/inkscape"
   xmlns:sodipodi="http://sodipodi.sourceforge.net/DTD/sodipodi-0.dtd"
   xmlns:xlink="http://www.w3.org/1999/xlink"
   xmlns="http://www.w3.org/2000/svg"
   xmlns:svg="http://www.w3.org/2000/svg">
  <sodipodi:namedview
     id="namedview4522"
     pagecolor="#ffffff"
     bordercolor="#666666"
     borderopacity="1.0"
     inkscape:showpageshadow="2"
     inkscape:pageopacity="0.0"
     inkscape:pagecheckerboard="0"
     inkscape:deskcolor="#d1d1d1"
     showgrid="false"
     inkscape:zoom="4.9166667"
     inkscape:cx="24"
     inkscape:cy="24"
     inkscape:window-width="1920"
     inkscape:window-height="1009"
     inkscape:window-x="0"
     inkscape:window-y="0"
     inkscape:window-maximized="1"
     inkscape:current-layer="svg4520" />
  <defs
     id="defs4462">
    <linearGradient
       id="linearGradient954"
       y1="44"
       y2="4"
       gradientUnits="userSpaceOnUse"
       x2="0"
       gradientTransform="translate(91.284184,-44)">
      <stop
         stop-color="#63984b"
         id="stop950"
         offset="0"
         style="stop-color:#63984b;stop-opacity:0.70605522;" />
      <stop
         offset="1"
         stop-color="#8fc278"
         id="stop952" />
    </linearGradient>
    <linearGradient
       id="a"
       y1="44"
       y2="4"
       gradientUnits="userSpaceOnUse"
       x2="0"
       gradientTransform="translate(91.284184,-44)">
      <stop
         stop-color="#63984b"
         id="stop4441"
         offset="0"
         style="stop-color:#63984b;stop-opacity:0.18701428;" />
      <stop
         offset="1"
         stop-color="#8fc278"
         id="stop4443" />
    </linearGradient>
    <linearGradient
       id="b"
       y1="11"
       x1="17"
       y2="41"
       gradientUnits="userSpaceOnUse"
       x2="44"
       gradientTransform="translate(0 1004.36)">
      <stop
         id="stop4446" />
      <stop
         offset="1"
         stop-opacity="0"
         id="stop4448" />
    </linearGradient>
    <linearGradient
       id="c"
       y1="40"
       y2="6"
       gradientUnits="userSpaceOnUse"
       x2="0"
       gradientTransform="matrix(0.94118,0,0,0.91176,92.696184,-41.92)">
      <stop
         stop-color="#b1b1b1"
         id="stop4451" />
      <stop
         offset="1"
         stop-color="#dddddd"
         id="stop4453" />
    </linearGradient>
    <linearGradient
       xlink:href="#b"
       id="d"
       y1="21"
       x1="23"
       y2="39"
       gradientUnits="userSpaceOnUse"
       x2="40"
       gradientTransform="translate(-81.195991,-59.000015)" />
    <linearGradient
       id="e"
       y1="1040.95"
       y2="1012.95"
       gradientUnits="userSpaceOnUse"
       x2="0"
       gradientTransform="translate(91.284184,-1048.36)">
      <stop
         stop-color="#f2f2f2"
         id="stop4457" />
      <stop
         offset="1"
         stop-color="#ffffff"
         id="stop4459" />
    </linearGradient>
    <linearGradient
       xlink:href="#b-7"
       id="linearGradient4412"
       gradientUnits="userSpaceOnUse"
       gradientTransform="matrix(1.0499606,0,0,1.0499043,30.300551,-1.1957995)"
       x1="-7.283"
       y1="15.656"
       x2="11.881"
       y2="33.522999" />
    <linearGradient
       id="b-7"
       y1="23.775"
       x1="22.540001"
       y2="44.054001"
       x2="42.646"
       gradientUnits="userSpaceOnUse"
       gradientTransform="translate(30)">
      <stop
         stop-color="#292c2f"
         id="stop7" />
      <stop
         offset="1"
         stop-color="#292c2f"
         stop-opacity="0"
         id="stop9" />
    </linearGradient>
    <linearGradient
       xlink:href="#b-7"
       id="linearGradient4384"
       gradientUnits="userSpaceOnUse"
       gradientTransform="matrix(1.0499606,0,0,1.0499043,30.300551,-1.1957995)"
       x1="-21.261"
       y1="13.899"
       x2="10.555"
       y2="48.902" />
    <linearGradient
       xlink:href="#a"
       id="linearGradient4422"
       x1="-30.500999"
       y1="28.25"
       x2="-10.501"
       y2="7.875"
       gradientUnits="userSpaceOnUse"
       gradientTransform="matrix(1.0499606,0,0,1.0499043,57.761086,-4.1996173)" />
    <linearGradient
       id="linearGradient4416">
      <stop
         style="stop-color:#ffffff;stop-opacity:0"
         offset="0"
         id="stop2" />
      <stop
         style="stop-color:#ffffff;stop-opacity:1"
         offset="1"
         id="stop4" />
    </linearGradient>
    <linearGradient
       inkscape:collect="always"
       xlink:href="#linearGradient954"
       id="linearGradient6159"
       x1="-7.8991079"
       y1="3.0038178"
       x2="-44.998425"
       y2="45"
       gradientUnits="userSpaceOnUse" />
  </defs>
  <rect
     style="color:#000000;clip-rule:nonzero;display:inline;overflow:visible;visibility:visible;isolation:auto;mix-blend-mode:normal;color-interpolation:sRGB;color-interpolation-filters:linearRGB;solid-color:#000000;solid-opacity:1;fill:url(#linearGradient6159);fill-opacity:1;fill-rule:nonzero;stroke-width:1.04993;stroke-linecap:butt;stroke-linejoin:miter;stroke-miterlimit:4;stroke-dasharray:none;stroke-dashoffset:0;stroke-opacity:1;color-rendering:auto;image-rendering:auto;shape-rendering:auto;text-rendering:auto;enable-background:accumulate;opacity:1"
     transform="scale(-1,1)"
     height="41.996174"
     rx="20.999212"
     y="3.0038178"
     x="-45"
     width="41.998425"
     id="rect17" />
  <path
     d="m 3.0126001,23.476962 c -0.0042,0.175334 -0.012599,0.348568 -0.012599,0.524952 C 3.0000006,35.634854 12.365649,45 23.999213,45 c 11.633563,0 20.999212,-9.365146 20.999212,-20.998086 0,-0.176384 -0.0084,-0.349618 -0.0126,-0.524952 -0.27719,11.388312 -9.533642,20.473134 -20.986612,20.473134 -11.457171,0 -20.7094233,-9.084822 -20.9866129,-20.473134"
     style="opacity:0.3;fill:#161e25;stroke-width:2.93981;stroke-opacity:0.55"
     id="path19" />
  <path
     style="opacity:0.3;fill:#ffffff;fill-opacity:1;stroke-width:2.93981;stroke-opacity:0.55"
     d="m 3.0126001,24.523038 c -0.0042,-0.175334 -0.012599,-0.348568 -0.012599,-0.524952 0,-11.632939 9.3656489,-20.9980863 20.9992119,-20.9980863 11.633563,0 20.999212,9.3651473 20.999212,20.9980863 0,0.176384 -0.0084,0.349618 -0.0126,0.524952 C 44.708635,13.134726 35.452183,4.049904 23.999213,4.049904 c -11.457171,0 -20.7094233,9.084822 -20.9866129,20.473134"
     id="path21" />
  <path
     opacity="1.0"
     d="m 6.926,33.238481 v 1 h 1 v -1 z m 1,1 v 1 h 1 v -1 z m 1,0 h 1 v -1 h -1 z m 1,0 v 1 h 1 v -1 z m 1,0 h 1 v -1 h -1 z m 1,0 v 1 h 1 v -1 z m 1,0 h 1 v -1 h -1 z m 1,0 v 1 h 1 v -1 z m 1,0 h 1 v -1 h -1 z m 1,0 v 1 h 1 v -1 z m 1,0 h 1 v -1 h -1 z m 1,0 v 1 h 1 v -1 z m 1,0 h 1 v -1 h -1 z m 1,0 v 1 h 1 v -1 z m 1,0 h 1 v -1 h -1 z m 1,0 v 1 h 1 v -1 z"
     id="path4470-9"
     style="fill:#cdd52d;fill-opacity:1" />
  <path
     opacity="1.0"
     d="m 32.926,33.238481 v 1 h 1 v -1 z m 1,1 v 1 h 1 v -1 z m 1,0 h 1 v -1 h -1 z m 1,0 v 1 h 1 v -1 z m 1,0 h 1 v -1 h -1 z m -4,0 h -1 v 1 h 1 z"
     id="path4472-2"
     style="fill:#cdd52d;fill-opacity:1" />
  <path
     fill-rule="evenodd"
     d="m 40.926,33.238481 -2,2 h 2 z"
     id="path4476-0"
     style="fill:#cdd52d;fill-opacity:1" />
  <path
     opacity="1.0"
     color="#000000"
     d="m 40.926,14.169815 v 1 h 1 v -1 z m 0,1 h -1 v 1 h 1 z m 0,1 v 1 h 1 v -1 z m 0,1 h -1 v 1 h 1 z m 0,1 v 1 h 1 v -1 z m 0,1 h -1 v 1 h 1 z m 0,1 v 1 h 1 v -1 z m 0,1 h -1 v 1 h 1 z m 0,1 v 1 h 1 v -1 z m 0,1 h -1 v 1 h 1 z m 0,1 v 1 h 1 v -1 z m 0,1 h -1 v 1 h 1 z m 0,1 v 1 h 1 v -1 z m 0,1 h -1 v 1 h 1 z m 0,1 v 1 h 1 v -1 z m 0,1 h -1 v 1 h 1 z"
     id="path4478-2"
     style="fill:#cdd52d;fill-opacity:1;opacity:1" />
  <rect
     width="10.926013"
     x="13.198998"
     y="26.407005"
     height="1.0595002"
     id="rect4492-3"
     style="fill:#323232;fill-opacity:1;fill-rule:evenodd;stroke-width:1.20288" />
  <rect
     width="8.1945047"
     x="25.490753"
     y="26.407005"
     height="1.0595002"
     id="rect4494-7"
     style="fill:#323232;fill-opacity:1;fill-rule:evenodd;stroke-width:1.20288" />
  <rect
     width="9.5602551"
     x="13.198998"
     y="28.525999"
     height="1.0595002"
     id="rect4496-5"
     style="fill:#323232;fill-opacity:1;fill-rule:evenodd;stroke-width:1.20288" />
  <rect
     width="4.0972524"
     x="24.125008"
     y="28.525999"
     height="1.0595002"
     id="rect4498-9"
     style="fill:#323232;fill-opacity:1;fill-rule:evenodd;stroke-width:1.20288" />
  <rect
     width="5.5039754"
     x="13.198998"
     y="30.644995"
     height="1.0595002"
     id="rect4500-2"
     style="fill:#323232;fill-opacity:1;fill-rule:evenodd;stroke-width:1.20288" />
  <rect
     width="10.926013"
     x="20.027746"
     y="30.644995"
     height="1.0595002"
     id="rect4502-2"
     style="fill:#323232;fill-opacity:1;fill-rule:evenodd;stroke-width:1.20288" />
  <rect
     width="13.657504"
     x="13.198998"
     y="9.4549999"
     height="1.0595002"
     id="rect4506-8"
     style="fill:#323232;fill-opacity:1;fill-rule:evenodd;stroke-width:1.20288" />
  <rect
     width="6.8287516"
     x="28.222244"
     y="9.4549999"
     height="1.0595002"
     id="rect4508-9"
     style="fill:#323232;fill-opacity:1;fill-rule:evenodd;stroke-width:1.20288" />
  <rect
     width="9.5602551"
     x="13.198998"
     y="11.573997"
     height="1.0595002"
     id="rect4510-7"
     style="fill:#323232;fill-opacity:1;fill-rule:evenodd;stroke-width:1.20288" />
  <rect
     width="5.4630065"
     x="25.490753"
     y="11.573997"
     height="1.0595002"
     id="rect4512-3"
     style="fill:#323232;fill-opacity:1;fill-rule:evenodd;stroke-width:1.20288" />
</svg>
