<?xml version="1.0" encoding="UTF-8" standalone="no"?>
<svg
   width="48"
   height="48"
   version="1.1"
   id="svg2641"
   sodipodi:docname="opendesktop-app.svg"
   inkscape:version="1.2.2 (b0a8486541, 2022-12-01)"
   xmlns:inkscape="http://www.inkscape.org/namespaces/inkscape"
   xmlns:sodipodi="http://sodipodi.sourceforge.net/DTD/sodipodi-0.dtd"
   xmlns:xlink="http://www.w3.org/1999/xlink"
   xmlns="http://www.w3.org/2000/svg"
   xmlns:svg="http://www.w3.org/2000/svg">
  <sodipodi:namedview
     id="namedview2643"
     pagecolor="#ffffff"
     bordercolor="#666666"
     borderopacity="1.0"
     inkscape:showpageshadow="2"
     inkscape:pageopacity="0.0"
     inkscape:pagecheckerboard="0"
     inkscape:deskcolor="#d1d1d1"
     showgrid="true"
     inkscape:zoom="4.9166667"
     inkscape:cx="36.20339"
     inkscape:cy="4.3728813"
     inkscape:window-width="1920"
     inkscape:window-height="1000"
     inkscape:window-x="0"
     inkscape:window-y="0"
     inkscape:window-maximized="1"
     inkscape:current-layer="svg2641">
    <inkscape:grid
       type="xygrid"
       id="grid551" />
  </sodipodi:namedview>
  <defs
     id="defs2629">
    <linearGradient
       inkscape:collect="always"
       id="linearGradient854">
      <stop
         style="stop-color:#0f2d32;stop-opacity:0.40000001;"
         offset="0"
         id="stop850" />
      <stop
         style="stop-color:#17a2b8;stop-opacity:1"
         offset="1"
         id="stop852" />
    </linearGradient>
    <linearGradient
       gradientTransform="matrix(0.89028263,0,0,0.89031768,-26.704927,-28.488532)"
       y2="36.609"
       x2="56.818"
       y1="81.49"
       x1="56.58"
       gradientUnits="userSpaceOnUse"
       id="1-4">
      <stop
         stop-color="#00a661"
         id="stop2618" />
      <stop
         stop-color="#37ce97"
         offset="1"
         id="stop2620" />
    </linearGradient>
    <linearGradient
       gradientTransform="matrix(1.0499647,0,0,1.0500061,-404.98637,-525.9926)"
       xlink:href="#0"
       id="linearGradient4205"
       x1="388.5715"
       y1="543.79797"
       x2="428.57285"
       y2="505.70432"
       gradientUnits="userSpaceOnUse" />
    <linearGradient
       id="0"
       y1="1045.87"
       x2="0"
       y2="1006.87"
       gradientUnits="userSpaceOnUse"
       gradientTransform="matrix(2.9898306,0,0,2.9898306,272.24553,-2578.79)">
      <stop
         stop-color="#d3d3d3"
         id="stop2624"
         style="stop-color:#05285b;stop-opacity:0.30000001;"
         offset="0" />
      <stop
         offset="1"
         stop-color="#fcf9f9"
         id="stop2626"
         style="stop-color:#031735;stop-opacity:1;" />
    </linearGradient>
    <linearGradient
       inkscape:collect="always"
       xlink:href="#linearGradient854"
       id="linearGradient856"
       x1="5"
       y1="45"
       x2="45"
       y2="5"
       gradientUnits="userSpaceOnUse" />
  </defs>
  <rect
     width="41.998348"
     x="3.0016394"
     y="3.0000191"
     rx="20.999174"
     height="42"
     id="rect2631"
     style="fill-opacity:1;fill:url(#linearGradient856)" />
  <path
     style="opacity:0.15;fill:#000000;fill-opacity:1;stroke-width:2.93027;stroke-opacity:0.550265"
     d="m 3.0122315,23.47347 c -0.00419,0.175203 -0.012244,0.34873 -0.012244,0.525 0,11.634059 9.3656985,21.000126 20.9992985,21.000126 11.63359,0 20.999289,-9.366067 20.999289,-21.000126 0,-0.17627 -0.0084,-0.349808 -0.01224,-0.525 -0.277377,11.388968 -9.529309,20.475115 -20.986982,20.475115 -11.457683,0 -20.7096156,-9.086147 -20.9869918,-20.475115 z"
     id="path2633" />
  <path
     style="fill:#8660cb;fill-opacity:1;stroke:none;stroke-width:2.34485;stroke-linecap:round;stroke-linejoin:miter;stroke-miterlimit:4;stroke-dasharray:none;stroke-dashoffset:0;stroke-opacity:1;paint-order:fill markers stroke"
     d="M 11.588897,12.417906 C 8.6487777,15.558865 7.0089298,19.697769 7,24.000076 c 0.00407,4.304223 1.6408027,8.44664 4.579737,11.591318 l 3.592803,-3.592851 v -4.03475 l 0.0183,0.01605 v -11.96005 z"
     id="path819"
     inkscape:connector-curvature="0"
     sodipodi:nodetypes="cccccccc" />
  <path
     style="fill:#20c997;fill-opacity:1;stroke:none;stroke-width:2.34485;stroke-linecap:round;stroke-linejoin:miter;stroke-miterlimit:4;stroke-dasharray:none;stroke-dashoffset:0;stroke-opacity:1;paint-order:fill markers stroke"
     d="M 23.999983,7 C 19.696249,7.00534 15.554705,8.6428001 12.41096,11.58203 l 2.937896,2.937895 c 0.199035,-0.362272 0.570288,-0.615969 1.014416,-0.615969 h 15.273429 c 0.444124,0 0.815372,0.253697 1.014401,0.615969 L 35.58443,11.586606 C 32.442542,8.6467871 28.302767,7.007733 23.999983,7 Z"
     id="path845"
     inkscape:connector-curvature="0"
     sodipodi:nodetypes="cccssccc" />
  <path
     style="fill:#febc85;fill-opacity:1;stroke:none;stroke-width:2.34485;stroke-linecap:round;stroke-linejoin:miter;stroke-miterlimit:4;stroke-dasharray:none;stroke-dashoffset:0;stroke-opacity:1;paint-order:fill markers stroke"
     d="m 36.417943,12.410962 -3.608833,3.608832 v 15.960384 l 3.60425,3.604254 c 2.939818,-3.141886 4.578872,-7.281666 4.586606,-11.584445 -0.005,-4.303739 -1.642792,-8.44528 -4.582023,-11.589025 z"
     id="path847"
     inkscape:connector-curvature="0"
     sodipodi:nodetypes="cccccc" />
  <path
     style="fill:#ffdf7e;fill-opacity:1;stroke:none;stroke-width:2.34485;stroke-linecap:round;stroke-linejoin:miter;stroke-miterlimit:4;stroke-dasharray:none;stroke-dashoffset:0;stroke-opacity:1;paint-order:fill markers stroke"
     d="m 32.651102,33.480166 c -0.199029,0.362274 -0.570277,0.615977 -1.014401,0.615977 H 17.6456 l -2.47306,2.472963 V 33.65639 l -2.757003,2.757004 c 3.141887,2.939822 7.281672,4.578872 11.584446,4.586606 4.303736,-0.0052 8.445276,-1.6428 11.589021,-4.582029 z"
     id="path849"
     inkscape:connector-curvature="0"
     sodipodi:nodetypes="csccccccc" />
</svg>
