<?xml version="1.0" encoding="UTF-8" standalone="no"?>
<!-- Created with Inkscape (http://www.inkscape.org/) -->

<svg
   version="1.0"
   width="48"
   height="48"
   id="svg8890"
   sodipodi:docname="parley.svg"
   inkscape:version="1.2.1 (9c6d41e410, 2022-07-14)"
   xmlns:inkscape="http://www.inkscape.org/namespaces/inkscape"
   xmlns:sodipodi="http://sodipodi.sourceforge.net/DTD/sodipodi-0.dtd"
   xmlns:xlink="http://www.w3.org/1999/xlink"
   xmlns="http://www.w3.org/2000/svg"
   xmlns:svg="http://www.w3.org/2000/svg">
  <sodipodi:namedview
     id="namedview2917"
     pagecolor="#ffffff"
     bordercolor="#666666"
     borderopacity="1.0"
     inkscape:showpageshadow="2"
     inkscape:pageopacity="0.0"
     inkscape:pagecheckerboard="0"
     inkscape:deskcolor="#d1d1d1"
     showgrid="false"
     inkscape:zoom="3.6875"
     inkscape:cx="39.322034"
     inkscape:cy="8.6779661"
     inkscape:window-width="1920"
     inkscape:window-height="1009"
     inkscape:window-x="0"
     inkscape:window-y="0"
     inkscape:window-maximized="1"
     inkscape:current-layer="svg8890" />
  <defs
     id="defs8892">
    <filter
       id="filter7522"
       x="-0.034598866"
       y="-0.037519412"
       width="1.0691977"
       height="1.0750388">
      <feGaussianBlur
         id="feGaussianBlur7524"
         stdDeviation="1.0592676"
         inkscape:collect="always" />
    </filter>
    <filter
       id="filter8029"
       x="-0.018102398"
       y="-0.035597277"
       width="1.0362048"
       height="1.0711946">
      <feGaussianBlur
         id="feGaussianBlur8031"
         stdDeviation="0.82381001"
         inkscape:collect="always" />
    </filter>
    <filter
       id="filter9531"
       x="-0.0092525716"
       y="-0.017068165"
       width="1.0185051"
       height="1.0341363">
      <feGaussianBlur
         inkscape:collect="always"
         stdDeviation="0.35452"
         id="feGaussianBlur9533" />
    </filter>
    <linearGradient
       gradientTransform="matrix(1.0499636,0,0,1.0499041,-452.98527,-525.93777)"
       gradientUnits="userSpaceOnUse"
       x2="426.69501"
       y2="499.92099"
       y1="547.67499"
       id="a-6"
       x1="389.32001">
      <stop
         stop-color="#18222a"
         style="stop-color:#1e2b35;stop-opacity:1"
         id="stop216" />
      <stop
         stop-color="#566069"
         offset="1"
         style="stop-color:#6d7983;stop-opacity:1"
         id="stop218" />
    </linearGradient>
    <linearGradient
       id="linear0-3"
       gradientUnits="userSpaceOnUse"
       x1="21.166666"
       y1="257.84164"
       x2="22.225"
       y2="257.84164"
       gradientTransform="matrix(3.77976,0,0,3.77976,-76.008611,-945.57885)">
      <stop
         offset="0"
         style="stop-color:rgb(74.901962%,0%,22.352941%);stop-opacity:1;"
         id="stop2-5" />
      <stop
         offset="1"
         style="stop-color:rgb(91.37255%,23.921569%,34.509805%);stop-opacity:1;"
         id="stop4-6" />
    </linearGradient>
    <linearGradient
       id="linear1-2"
       gradientUnits="userSpaceOnUse"
       x1="21.166666"
       y1="257.84164"
       x2="31.749998"
       y2="257.84164"
       gradientTransform="matrix(3.77976,0,0,3.77976,-76.008611,-945.57885)">
      <stop
         offset="0"
         style="stop-color:rgb(9.411765%,57.254905%,82.352942%);stop-opacity:1;"
         id="stop7-9" />
      <stop
         offset="0.1"
         style="stop-color:rgb(9.411765%,57.254905%,82.352942%);stop-opacity:1;"
         id="stop9-1" />
      <stop
         offset="0.9"
         style="stop-color:rgb(9.411765%,57.254905%,82.352942%);stop-opacity:1;"
         id="stop11-2" />
      <stop
         offset="1"
         style="stop-color:rgb(5.882353%,36.078432%,52.156866%);stop-opacity:1;"
         id="stop13-7" />
    </linearGradient>
    <linearGradient
       id="linear2-0"
       gradientUnits="userSpaceOnUse"
       x1="26.987499"
       y1="254.13748"
       x2="25.929167"
       y2="254.13747"
       gradientTransform="matrix(3.77976,0,0,3.77976,-76.008611,-917.57716)">
      <stop
         offset="0"
         style="stop-color:rgb(9.411765%,57.254905%,82.352942%);stop-opacity:1;"
         id="stop16-9" />
      <stop
         offset="1"
         style="stop-color:rgb(91.37255%,23.921569%,34.509805%);stop-opacity:1;"
         id="stop18-3" />
    </linearGradient>
    <linearGradient
       id="linear3-6"
       gradientUnits="userSpaceOnUse"
       x1="21.166666"
       y1="257.84164"
       x2="22.225"
       y2="257.84164"
       gradientTransform="matrix(3.77976,0,0,3.77976,-76.008613,-946.5789)">
      <stop
         offset="0"
         style="stop-color:rgb(74.901962%,0%,22.352941%);stop-opacity:1;"
         id="stop21-0" />
      <stop
         offset="1"
         style="stop-color:rgb(91.37255%,23.921569%,34.509805%);stop-opacity:1;"
         id="stop23-6" />
    </linearGradient>
    <linearGradient
       id="linear4-2"
       gradientUnits="userSpaceOnUse"
       x1="21.166666"
       y1="257.84164"
       x2="31.749998"
       y2="257.84164"
       gradientTransform="matrix(3.77976,0,0,3.77976,-76.008613,-946.5789)">
      <stop
         offset="0"
         style="stop-color:rgb(9.411765%,57.254905%,82.352942%);stop-opacity:1;"
         id="stop26-6" />
      <stop
         offset="0.1"
         style="stop-color:rgb(9.411765%,57.254905%,82.352942%);stop-opacity:1;"
         id="stop28-1" />
      <stop
         offset="0.9"
         style="stop-color:rgb(9.411765%,57.254905%,82.352942%);stop-opacity:1;"
         id="stop30-8" />
      <stop
         offset="1"
         style="stop-color:rgb(5.882353%,36.078432%,52.156866%);stop-opacity:1;"
         id="stop32-7" />
    </linearGradient>
    <linearGradient
       id="linear5-9"
       gradientUnits="userSpaceOnUse"
       x1="26.987499"
       y1="254.13748"
       x2="25.929167"
       y2="254.13747"
       gradientTransform="matrix(3.77976,0,0,9.449378,-76.008615,-2362.4398)">
      <stop
         offset="0"
         style="stop-color:rgb(9.411765%,57.254905%,82.352942%);stop-opacity:1;"
         id="stop35-2" />
      <stop
         offset="1"
         style="stop-color:rgb(91.37255%,23.921569%,34.509805%);stop-opacity:1;"
         id="stop37-0" />
    </linearGradient>
    <linearGradient
       id="linear6-2"
       gradientUnits="userSpaceOnUse"
       x1="26.326042"
       y1="257.31247"
       x2="30.94846"
       y2="257.31247"
       gradientTransform="matrix(2.672694,2.672694,-2.672694,2.672694,641,-732.43202)">
      <stop
         offset="0"
         style="stop-color:rgb(0%,13.333334%,24.313726%);stop-opacity:0.537613;"
         id="stop40-3" />
      <stop
         offset="1"
         style="stop-color:rgb(36.078432%,37.254903%,38.431373%);stop-opacity:0;"
         id="stop42-7" />
    </linearGradient>
    <linearGradient
       id="linear7-5"
       gradientUnits="userSpaceOnUse"
       x1="26.987499"
       y1="254.13748"
       x2="25.929167"
       y2="254.13747"
       gradientTransform="matrix(3.77976,0,0,3.77976,-76.008613,-946.5789)">
      <stop
         offset="0"
         style="stop-color:rgb(9.411765%,57.254905%,82.352942%);stop-opacity:1;"
         id="stop45-9" />
      <stop
         offset="1"
         style="stop-color:rgb(91.37255%,23.921569%,34.509805%);stop-opacity:1;"
         id="stop47-2" />
    </linearGradient>
    <linearGradient
       id="linear8-2"
       gradientUnits="userSpaceOnUse"
       x1="24.341667"
       y1="256.25412"
       x2="28.575001"
       y2="256.25412"
       gradientTransform="matrix(3.77976,0,0,2.913558,-76.008613,-721.8609)">
      <stop
         offset="0"
         style="stop-color:rgb(22.352941%,23.529412%,24.705882%);stop-opacity:1;"
         id="stop50-8" />
      <stop
         offset="0.133333"
         style="stop-color:rgb(65.882355%,67.058825%,69.01961%);stop-opacity:1;"
         id="stop52-9" />
      <stop
         offset="0.333333"
         style="stop-color:rgb(30.980393%,32.549021%,33.725491%);stop-opacity:1;"
         id="stop54-7" />
      <stop
         offset="0.875"
         style="stop-color:rgb(22.352941%,23.529412%,24.705882%);stop-opacity:1;"
         id="stop56-3" />
      <stop
         offset="1"
         style="stop-color:rgb(18.039216%,19.215687%,20.392157%);stop-opacity:1;"
         id="stop58-6" />
    </linearGradient>
    <linearGradient
       id="linear9-1"
       gradientUnits="userSpaceOnUse"
       x1="24.606249"
       y1="255.32809"
       x2="28.310415"
       y2="255.32809"
       gradientTransform="matrix(3.77976,0,0,3.77976,-76.008609,-941.07851)">
      <stop
         offset="0"
         style="stop-color:rgb(98.823529%,100%,100%);stop-opacity:0.6;"
         id="stop61-2" />
      <stop
         offset="0.5"
         style="stop-color:rgb(65.882355%,67.058825%,69.01961%);stop-opacity:0.3;"
         id="stop63-9" />
      <stop
         offset="1"
         style="stop-color:rgb(98.823529%,100%,100%);stop-opacity:0.6;"
         id="stop65-3" />
    </linearGradient>
    <linearGradient
       id="linear10-1"
       gradientUnits="userSpaceOnUse"
       x1="124"
       y1="47.65918"
       x2="132"
       y2="47.65918"
       gradientTransform="matrix(1.000061,0,0,1.000061,-88.009351,-24.002538)">
      <stop
         offset="0"
         style="stop-color:rgb(23.921569%,68.235296%,91.37255%);stop-opacity:0.996078;"
         id="stop68-9" />
      <stop
         offset="0.749999"
         style="stop-color:rgb(23.921569%,68.235296%,91.37255%);stop-opacity:0.996078;"
         id="stop70-4" />
      <stop
         offset="1"
         style="stop-color:rgb(9.411765%,57.647061%,83.137256%);stop-opacity:0.996078;"
         id="stop72-7" />
    </linearGradient>
    <linearGradient
       id="linear11-8"
       gradientUnits="userSpaceOnUse"
       x1="23.283333"
       y1="253.60831"
       x2="29.501043"
       y2="259.82602"
       gradientTransform="matrix(3.77976,0,0,3.77976,-76.008613,-946.57883)">
      <stop
         offset="0"
         style="stop-color:rgb(24.313726%,0%,0.392157%);stop-opacity:0.327848;"
         id="stop75-4" />
      <stop
         offset="1"
         style="stop-color:rgb(45.882353%,28.627452%,28.627452%);stop-opacity:0;"
         id="stop77-5" />
    </linearGradient>
    <linearGradient
       id="linear12-0"
       gradientUnits="userSpaceOnUse"
       x1="92"
       y1="47.65918"
       x2="100"
       y2="47.65918"
       gradientTransform="matrix(1.000061,0,0,1.000061,-88.009351,-24.002538)">
      <stop
         offset="0"
         style="stop-color:rgb(100%,42.352942%,49.803922%);stop-opacity:0.996078;"
         id="stop80-3" />
      <stop
         offset="0.249999"
         style="stop-color:rgb(100%,53.725493%,60.000002%);stop-opacity:0.996078;"
         id="stop82-6" />
      <stop
         offset="1"
         style="stop-color:rgb(100%,42.352942%,49.803922%);stop-opacity:0.996078;"
         id="stop84-1" />
    </linearGradient>
    <linearGradient
       id="b"
       gradientUnits="userSpaceOnUse"
       x1="4"
       x2="4"
       y1="44"
       y2="4"
       gradientTransform="matrix(1.0499999,0,0,1.0499999,-1.199995,-1.2000015)">
      <stop
         offset="0"
         stop-color="#197cf1"
         id="stop3160" />
      <stop
         offset="1"
         stop-color="#20bcfa"
         id="stop3162" />
    </linearGradient>
    <linearGradient
       id="c"
       gradientUnits="userSpaceOnUse"
       x1="9"
       x2="38"
       xlink:href="#a"
       y1="9"
       y2="38"
       gradientTransform="matrix(1.0499999,0,0,1.0499999,114.5579,-39.750379)" />
    <linearGradient
       id="a"
       gradientUnits="userSpaceOnUse"
       x1="34"
       x2="44"
       y1="19.007999"
       y2="29.007999">
      <stop
         offset="0"
         stop-color="#292c2f"
         id="stop3155" />
      <stop
         offset="1"
         stop-opacity="0"
         id="stop3157" />
    </linearGradient>
    <linearGradient
       id="linearGradient3396">
      <stop
         id="stop3398"
         offset="0"
         style="stop-color:#040404;stop-opacity:0;" />
      <stop
         style="stop-color:#040404;stop-opacity:0;"
         offset="0.64971751"
         id="stop3402" />
      <stop
         id="stop3400"
         offset="1"
         style="stop-color:#040404;stop-opacity:1;" />
    </linearGradient>
    <linearGradient
       id="linearGradient3650">
      <stop
         style="stop-color:#545454;stop-opacity:1;"
         offset="0"
         id="stop3652" />
      <stop
         style="stop-color:#b1b1b1;stop-opacity:1;"
         offset="1"
         id="stop3654" />
    </linearGradient>
    <linearGradient
       id="linearGradient3670">
      <stop
         style="stop-color:#e8e8e8;stop-opacity:1;"
         offset="0"
         id="stop3672" />
      <stop
         style="stop-color:#969696;stop-opacity:0;"
         offset="1"
         id="stop3674" />
    </linearGradient>
    <filter
       id="filter7522-7"
       x="-0.034598866"
       y="-0.037519412"
       width="1.0691977"
       height="1.0750388">
      <feGaussianBlur
         id="feGaussianBlur7524-5"
         stdDeviation="1.0592676"
         inkscape:collect="always" />
    </filter>
  </defs>
  <rect
     width="128"
     height="128"
     x="79.115585"
     y="-131.02663"
     style="opacity:0;fill:#002c63;fill-opacity:1;fill-rule:evenodd;stroke:none;stroke-width:0.999;stroke-miterlimit:4;stroke-dasharray:none;stroke-dashoffset:0;stroke-opacity:1"
     id="rect8950" />
  <ellipse
     cx="23.999989"
     cy="23.999992"
     fill="url(#b)"
     id="circle3170"
     style="fill:#80b3ff;stroke-width:1.05;fill-opacity:1"
     rx="20.999989"
     ry="20.999992" />
  <path
     d="m 23.913799,3.000001 a 21,21 0 0 0 -1.9971,0.115499 21,21 0 0 0 -0.2667,0.0315 21,21 0 0 0 -3.379942,0.66885 v -0.042 A 21,21 0 0 0 8.085051,10.220845 h 0.0105 a 21,21 0 0 0 -3.759,6.242256 l 1.72725,-0.8631 H 10.2638 v 1.05 l 1.05,1.05 v -2.1 l 1.05,-1.05 1.05,-1.05 h 1.05 v -1.05 l 1.05,-1.05 2.1,-1.05 1.05,-1.050002 2.1,-1.05 v 1.05 l 2.1,-1.05 h -1.05 V 7.2 l -1.05,-1.050001 h 4.2 L 23.9138,7.2 l 3.15,1.049999 -1.05,-2.1 V 4.05 L 25.019442,3.05565 A 21,21 0 0 0 23.9138,3 Z m 15.75,7.150501 v 2.2995 h 1.775542 a 21,21 0 0 0 -1.775542,-2.2995 z m -29.3349,0.07037 h 0.06401 l -0.129111,0.12913 0.06616,-0.129156 z m 31.5252,2.900074 -1.1403,0.379056 -2.1,1.05 v 1.05 l -2.1,2.1 -1.05,2.1 v 4.2 l 1.05,2.1 2.1,1.05 1.05,1.05 4.952843,-0.824256 a 21,21 0 0 0 0.002,-0.02304 21,21 0 0 0 0.21956,-1.839604 21,21 0 0 0 0.0756,-1.5131 21,21 0 0 0 -0.0945,-1.827 21,21 0 0 0 -0.10184,-0.849456 21,21 0 0 0 -0.1995,-1.2957 21,21 0 0 0 -0.14174,-0.6279 21,21 0 0 0 -0.374854,-1.4637 21,21 0 0 0 -0.152249,-0.4536 21,21 0 0 0 -0.565949,-1.546644 21,21 0 0 0 -0.155401,-0.3465 21,21 0 0 0 -0.776999,-1.601256 21,21 0 0 0 -0.496646,-0.8673 z M 6.0638,19.800002 l -1.05,1.05 h -1.05 l -0.6825,-0.6825 a 21,21 0 0 0 0,0.005 A 21,21 0 0 0 3.002,22.248356 21,21 0 0 0 3,22.279856 l 2.01382,0.670146 2.1,1.05 1.05,1.05 1.0499996,1.05 h 2.0999994 v 2.1 l -1.05,1.05 -1.0499994,2.1 v 1.05 l 1.0499994,1.05 1.05,1.05 1.05,2.1 1.05,1.05 2.1,1.05 v 4.536 a 21,21 0 0 0 0.006,0.002 21,21 0 0 0 1.781848,0.677244 21,21 0 0 0 0.201601,0.0714 21,21 0 0 0 1.588651,0.4284 21,21 0 0 0 0.473549,0.1218 21,21 0 0 0 1.385999,0.2268 21,21 0 0 0 0.714,0.1092 21,21 0 0 0 1.2075,0.0756 21,21 0 0 0 1.040852,0.05156 21,21 0 0 0 1.0689,-0.03886 l 1.0311,-2.061144 v -1.05 l 2.1,-1.05 1.05,-1.05 1.05,-4.2 1.05,-1.05 v -2.1 l -2.1,-1.05 h -1.05 l -2.1,-1.05 h -1.05 l -1.05,-2.1 -1.05,-1.05 h -2.1 l -2.1,-2.1 h -2.1 l -3.15,-1.05 -1.05,2.1 -2.1,-1.05 H 9.2138196 v -2.1 l -2.0999996,-1.05 1.05,-2.1 z"
     id="path3176"
     style="opacity:0.430447;fill:#ffffe1;fill-opacity:1;stroke-width:1.05" />
  <path
     d="m 3.053555,23.475001 c -0.0042,0.1785 -0.05355,0.345444 -0.05355,0.525 0,11.634 9.365999,21 20.999999,21 11.634,0 21.000003,-9.366 21.000003,-21 0,-0.179556 -0.0494,-0.3465 -0.0536,-0.525 -0.0315,1.2663 -0.12705,2.5179 -0.3717,3.718044 a 20.8845,20.8845 0 0 1 -5.713043,10.618656 20.9475,20.9475 0 0 1 -6.672758,4.492944 20.807842,20.807844 0 0 1 -3.9459,1.2201 21.2142,21.2142 0 0 1 -4.242,0.4242 c -1.454242,0 -2.873842,-0.145944 -4.242,-0.4242 a 20.8845,20.8845 0 0 1 -10.618611,-5.713044 20.9475,20.9475 0 0 1 -4.49295,-6.672756 20.807842,20.807844 0 0 1 -1.2201,-3.9459 c -0.24465,-1.200144 -0.33915,-2.451744 -0.3717,-3.718044"
     opacity="0.2"
     id="path3178"
     style="stroke-width:1.05" />
  <path
     d="m 304.09747,-17.174159 c -1.14558,0.54086 -1.71834,1.00796 -1.7183,1.40128 -4e-5,0.29501 0.27271,0.56544 0.81824,0.81127 0.54544,0.24585 1.25458,0.4671 2.12741,0.66376 0.87274,0.14751 1.8819,0.27043 3.02748,0.36875 1.14548,0.09836 2.34556,0.14752 3.60024,0.14751 6.10944,10e-6 11.34614,-0.81126 15.71013,-2.43381 6.38217,-2.26169 9.57329,-6.09676 9.57337,-11.50522 -8e-5,-5.99843 -3.49122,-11.72646 -10.47343,-17.18411 -2.61842,-2.16333 -5.37314,-4.10545 -8.26419,-5.82637 -2.89115,-1.76998 -5.97317,-3.39251 -9.24606,-4.8676 -4.30943,-1.86831 -8.6188,-3.318758 -12.92814,-4.35134 -4.25486,-1.081625 -8.59151,-1.720806 -13.00996,-1.91754 -5.18218,-0.294942 -9.70975,0.614661 -13.58272,2.728805 -3.38205,1.868435 -5.29127,4.154725 -5.72765,6.858895 -0.16366,0.73757 -0.24548,1.54883 -0.24547,2.4338 -10e-6,2.55677 0.40911,5.03973 1.22735,7.4489 0.98188,2.85177 2.26378,4.91681 3.84571,6.19513 0.27274,0.39338 0.54548,0.59005 0.81824,0.59001 -10e-6,4e-5 0.0545,-0.04913 0.16364,-0.1475 -10e-6,-0.19664 -0.13638,-0.49164 -0.40912,-0.88502 -2.45471,-3.2942 -3.68206,-7.54719 -3.68206,-12.75901 0,-0.93414 0.0818,-1.89291 0.24547,-2.87631 1.09098,-5.60506 5.91857,-8.407612 14.48279,-8.407675 3.92751,6.3e-5 7.85504,0.417987 11.7826,1.253774 3.98205,0.835911 8.07322,2.114271 12.27355,3.835081 3.81838,1.57342 7.4459,3.44179 10.88254,5.60511 3.43653,2.11426 6.70948,4.47431 9.81883,7.08015 5.72759,4.96597 8.59141,10.20233 8.59149,15.70907 -8e-5,4.47428 -2.15476,7.69476 -6.46407,9.66145 -1.85474,0.88503 -3.98215,1.57338 -6.38224,2.06504 -2.34567,0.4917 -4.96403,0.73753 -7.85507,0.73752 -3.10935,10e-6 -5.53678,-0.39333 -7.28231,-1.18003 -0.92737,-0.24581 -1.50014,-0.66374 -1.71829,-1.25377 M 274.15001,5.4675407 c 0.70913,0.24585 1.52737,0.36877 2.45471,0.36877 1.03642,0 2.0183,-0.09834 2.94566,-0.295 0.98186,-0.19668 1.88192,-0.51626 2.70018,-0.95879 6.00037,-2.90087 12.38261,-10.32519 19.14673,-22.2729297 4.09113,-7.17847 7.6641,-14.67653 10.71889,-22.49422 0.1636,-0.34414 0.19087,-0.98331 0.0818,-1.91754 -0.10915,-0.88498 -0.24552,-1.32749 -0.40912,-1.32753 0.0545,4e-5 -0.0273,0.09838 -0.24547,0.295 -2.89115,7.8177 -7.71874,17.01206 -14.48279,27.58307 -7.4187,11.6035697 -13.03725,18.0445297 -16.85566,19.3228997 -1.09101,0.24584 -2.07289,0.39333 -2.94566,0.44251 -0.81825,0.09833 -1.55466,0.02458 -2.20923,-0.22126 -1.58194,-0.59002 -2.83657,-1.40129 -3.76389,-2.4338 -0.49095,-0.4425 -0.84552,-0.66376003 -1.06371,-0.66376003 -0.27275,0 -0.40913,0.14751003 -0.40912,0.44251003 -1e-5,0.29501 0.16364,0.66376 0.49095,1.10627 0.92732,1.27836 2.20922,2.2863 3.8457,3.0238"
     style="font-style:normal;font-variant:normal;font-weight:normal;font-stretch:normal;font-size:56.3913px;line-height:125%;font-family:Scriptina;text-align:start;writing-mode:lr-tb;text-anchor:start;fill:#00438a;fill-opacity:1;stroke:none;stroke-width:1px;stroke-linecap:butt;stroke-linejoin:miter;stroke-opacity:1;filter:url(#filter7522-7)"
     id="path6543-3"
     transform="matrix(0.33745402,0,0,0.33745402,-77.319449,33.995398)" />
  <path
     d="m 25.299624,28.200001 c -0.38658,0.182515 -0.57986,0.34014 -0.57984,0.472867 -2e-5,0.09955 0.092,0.19081 0.27611,0.273766 0.18407,0.08296 0.42337,0.157625 0.71791,0.223989 0.29451,0.04978 0.63505,0.09126 1.02163,0.124436 0.38655,0.03319 0.79152,0.04978 1.21492,0.04978 2.06164,3e-6 3.82879,-0.273763 5.30144,-0.821299 2.15368,-0.763216 3.23054,-2.057377 3.23057,-3.882485 -3e-5,-2.024192 -1.17813,-3.957138 -3.5343,-5.798846 -0.8836,-0.730024 -1.81319,-1.3854 -2.78878,-1.966131 -0.97564,-0.597288 -2.01567,-1.144817 -3.12012,-1.642592 -1.45423,-0.630469 -2.90845,-1.119927 -4.36265,-1.468376 -1.43583,-0.364999 -2.89925,-0.580693 -4.39027,-0.647082 -1.74875,-0.09953 -3.2766,0.20742 -4.58355,0.920846 -1.14128,0.63051 -1.78556,1.402029 -1.93282,2.314561 -0.0552,0.248896 -0.0828,0.522661 -0.0828,0.821295 0,0.862793 0.13805,1.700679 0.41417,2.513663 0.33134,0.96234 0.76392,1.659196 1.29775,2.09057 0.092,0.132748 0.18408,0.199115 0.27612,0.199102 0,1.3e-5 0.0184,-0.01658 0.0552,-0.04977 0,-0.06636 -0.046,-0.165905 -0.13805,-0.298653 -0.82836,-1.111639 -1.24253,-2.54683 -1.24253,-4.30558 0,-0.315227 0.0276,-0.638767 0.0828,-0.970622 0.36816,-1.891448 1.99725,-2.837181 4.88728,-2.837203 1.32535,2.2e-5 2.65071,0.141052 3.97608,0.423091 1.34377,0.282083 2.72436,0.71347 4.14177,1.294163 1.28853,0.530958 2.51265,1.161447 3.67235,1.891469 1.15967,0.713466 2.26414,1.509873 3.31341,2.389223 1.93279,1.675788 2.8992,3.442817 2.89923,5.301091 -3e-5,1.509863 -0.72714,2.596627 -2.18133,3.260294 -0.62589,0.298657 -1.34379,0.530943 -2.15371,0.696856 -0.79156,0.165926 -1.67513,0.248882 -2.65073,0.248879 -1.04925,3e-6 -1.8684,-0.132731 -2.45743,-0.398206 -0.31295,-0.08295 -0.50623,-0.223981 -0.57985,-0.423089 m -10.10589,7.640532 c 0.23929,0.08296 0.51541,0.124443 0.82835,0.124443 0.34974,0 0.68108,-0.03319 0.99402,-0.09955 0.33133,-0.06637 0.63506,-0.174214 0.91119,-0.323547 2.02484,-0.978911 4.17857,-3.484277 6.46115,-7.51609 1.38057,-2.422402 2.58628,-4.952654 3.61713,-7.590767 0.0552,-0.116128 0.0644,-0.331821 0.0276,-0.647081 -0.0368,-0.298638 -0.0829,-0.447964 -0.13806,-0.447979 0.0184,1.5e-5 -0.009,0.0332 -0.0828,0.09955 -0.97563,2.638113 -2.60472,5.740785 -4.88728,9.308016 -2.50348,3.915671 -4.39948,6.089199 -5.68802,6.52059 -0.36816,0.08296 -0.6995,0.132731 -0.99402,0.149327 -0.27612,0.03318 -0.52463,0.0083 -0.74552,-0.07467 -0.53383,-0.199105 -0.95721,-0.472871 -1.27013,-0.821296 -0.16568,-0.149323 -0.28533,-0.223988 -0.35896,-0.223988 -0.092,0 -0.13806,0.04978 -0.13806,0.149326 0,0.09955 0.0552,0.223989 0.16568,0.373316 0.31292,0.431387 0.74551,0.771521 1.29775,1.020393"
     style="font-style:normal;font-variant:normal;font-weight:normal;font-stretch:normal;font-size:56.3913px;line-height:125%;font-family:Scriptina;text-align:start;writing-mode:lr-tb;text-anchor:start;fill:#000000;fill-opacity:1;stroke:none;stroke-width:0.337454px;stroke-linecap:butt;stroke-linejoin:miter;stroke-opacity:1"
     id="text6117-5" />
</svg>
