<?xml version="1.0" encoding="UTF-8" standalone="no"?>
<svg
   width="48"
   height="48"
   version="1.1"
   id="svg249"
   sodipodi:docname="preferences-desktop-font-installer.svg"
   inkscape:version="1.2.1 (9c6d41e410, 2022-07-14)"
   xmlns:inkscape="http://www.inkscape.org/namespaces/inkscape"
   xmlns:sodipodi="http://sodipodi.sourceforge.net/DTD/sodipodi-0.dtd"
   xmlns:xlink="http://www.w3.org/1999/xlink"
   xmlns="http://www.w3.org/2000/svg"
   xmlns:svg="http://www.w3.org/2000/svg">
  <sodipodi:namedview
     id="namedview251"
     pagecolor="#ffffff"
     bordercolor="#666666"
     borderopacity="1.0"
     inkscape:showpageshadow="2"
     inkscape:pageopacity="0.0"
     inkscape:pagecheckerboard="0"
     inkscape:deskcolor="#d1d1d1"
     showgrid="false"
     inkscape:zoom="3.4766083"
     inkscape:cx="42.570226"
     inkscape:cy="41.994952"
     inkscape:window-width="1920"
     inkscape:window-height="1009"
     inkscape:window-x="0"
     inkscape:window-y="0"
     inkscape:window-maximized="1"
     inkscape:current-layer="svg249" />
  <defs
     id="defs225">
    <linearGradient
       id="a"
       y1="543.8"
       y2="512.8"
       x2="0"
       gradientUnits="userSpaceOnUse">
      <stop
         stop-color="#cea476"
         id="stop208" />
      <stop
         offset="1"
         stop-color="#dab58b"
         id="stop210" />
    </linearGradient>
    <linearGradient
       id="b"
       y1="512.8"
       y2="503.8"
       x2="0"
       gradientUnits="userSpaceOnUse"
       gradientTransform="translate(0-.001)">
      <stop
         stop-color="#ebc69a"
         id="stop213" />
      <stop
         offset="1"
         stop-color="#f4e0c8"
         stop-opacity="0"
         id="stop215" />
    </linearGradient>
    <linearGradient
       xlink:href="#b"
       id="c"
       y1="512.8"
       y2="503.8"
       gradientUnits="userSpaceOnUse"
       x2="0"
       gradientTransform="matrix(1,0,0,0.55556,-326.12092,-262.889)" />
    <linearGradient
       xlink:href="#a"
       id="d"
       y1="512.8"
       y2="503.8"
       x2="0"
       gradientUnits="userSpaceOnUse"
       gradientTransform="translate(-454.76768,-545.07815)" />
    <linearGradient
       id="e"
       y1="516.8"
       x1="399.57"
       y2="534.8"
       x2="417.57"
       gradientUnits="userSpaceOnUse"
       gradientTransform="translate(-326.12092,-534.801)">
      <stop
         stop-color="#292c2f"
         id="stop220" />
      <stop
         offset="1"
         stop-opacity="0"
         id="stop222" />
    </linearGradient>
    <linearGradient
       xlink:href="#linearGradient3997"
       id="linearGradient4196"
       x1="401.57901"
       y1="505.23901"
       x2="418.61401"
       y2="540.91101"
       gradientUnits="userSpaceOnUse"
       gradientTransform="matrix(1.0499624,0,0,1.05,-405.02052,-526.03032)" />
    <linearGradient
       id="linearGradient3997"
       y1="1"
       x2="0"
       y2="47"
       gradientUnits="userSpaceOnUse"
       gradientTransform="translate(326.41705,498.60847)">
      <stop
         style="stop-color:#ffe6d5;stop-opacity:1"
         id="stop12" />
      <stop
         offset="1"
         style="stop-color:#ffccaa;stop-opacity:1"
         id="stop14" />
    </linearGradient>
    <linearGradient
       id="c-3"
       y1="529.79999"
       x1="400.57001"
       y2="548.79999"
       gradientUnits="userSpaceOnUse"
       x2="418.57001"
       gradientTransform="translate(11,-6)">
      <stop
         id="stop1846" />
      <stop
         offset="1"
         stop-opacity="0"
         id="stop1848" />
    </linearGradient>
    <linearGradient
       inkscape:collect="always"
       xlink:href="#e"
       id="linearGradient837"
       gradientUnits="userSpaceOnUse"
       gradientTransform="translate(-388.57,-503.00231)"
       x1="399.57"
       y1="516.8"
       x2="417.57"
       y2="534.8" />
    <linearGradient
       inkscape:collect="always"
       xlink:href="#b-2"
       id="linearGradient612-6"
       gradientUnits="userSpaceOnUse"
       gradientTransform="translate(-384.57001,-500.40098)"
       y1="512.79999"
       x2="0"
       y2="503.79999" />
    <linearGradient
       id="b-2"
       y1="512.79999"
       y2="503.79999"
       x2="0"
       gradientUnits="userSpaceOnUse"
       gradientTransform="translate(0,-0.001)">
      <stop
         stop-color="#ebc69a"
         id="stop213-9" />
      <stop
         offset="1"
         stop-color="#f4e0c8"
         stop-opacity="0"
         id="stop215-1" />
    </linearGradient>
  </defs>
  <rect
     style="fill:url(#linearGradient4196);fill-opacity:1;stroke-width:2.93995;stroke-opacity:0.550265"
     height="42"
     rx="20.999249"
     y="3"
     x="3.0007515"
     width="41.998497"
     id="rect22" />
  <path
     fill="#5c4c3e"
     d="m 30.000001,11.797695 v 8 h 7.999998 v -8 z m 1,1 h 6 v 6 h -6 z m 1,1 v 1 h 1 v -1 z m 2,0 v 2 h 2 v -2 z m -2,2 v 2 h 1 v -2 z m 2,1 v 1 h 2 v -1 z"
     id="path237-5"
     style="stroke-width:2.8;stroke-opacity:0.55" />
  <path
     opacity="0.1"
     fill="url(#e)"
     fill-rule="evenodd"
     d="m 16.000001,18.797695 10,9.62 5,-0.62 v -4 l 8.999998,9 v 8 H 14.000001 l -6,-6 z"
     id="path241-3"
     style="fill:url(#linearGradient837)" />
  <path
     fill="#5c4c3e"
     d="m 14.020001,18.797695 -6.02,16 h 1.947 l 1.924,-5.063 h 6.414 l 1.77,5.063 h 1.945 l -5.684,-16 z m 1.172,1.842 2.455,7.627 h -5.176 z m 12.639,2.061 c -1.679,0 -3.247,0.41 -4.152,0.885 l 0.508,1.381 c 0.972,-0.453 2.384,-0.777 3.688,-0.777 1.634,0 2.342,0.733 2.342,2.135 v 1.316 l -1.193,0.129 c -3.048,0.431 -6.05,0.84 -6.05,3.881 0,2.156 1.656,3.148 3.6,3.148 1.237,0 2.651,-0.388 3.689,-1.531 l 0.264,1.273 h 1.48 v -8.496 c 0,-2.588 -1.833,-3.344 -4.174,-3.344 m 2.385,6.168 v 2.846 c -0.773,1.035 -2.34,1.703 -3.467,1.703 -1.126,0 -1.967,-0.538 -1.967,-1.832 0,-1.617 0.995,-2.135 4.352,-2.566 0.022,0 1.082,-0.15 1.082,-0.15"
     id="path245-5" />
  <path
     fill="#f4e0c8"
     d="m 20.99999,3.400014 v 13.458 l 1,-0.336 1,0.336 1,-0.336 1,0.336 1.000003,-0.336 1,0.336 v -13.458 z"
     id="path231-2"
     style="stroke-width:2.8;stroke-opacity:0.55" />
  <rect
     width="6"
     x="21"
     y="3.4000001"
     height="9"
     id="rect233-7"
     style="fill:url(#linearGradient612-6);stroke-width:2.8;stroke-opacity:0.55" />
</svg>
