<?xml version="1.0" encoding="UTF-8" standalone="no"?>
<svg
   width="48"
   height="48"
   version="1.1"
   id="svg32"
   sodipodi:docname="qbittorrent.svg"
   inkscape:version="1.2.1 (9c6d41e410, 2022-07-14)"
   xmlns:inkscape="http://www.inkscape.org/namespaces/inkscape"
   xmlns:sodipodi="http://sodipodi.sourceforge.net/DTD/sodipodi-0.dtd"
   xmlns:xlink="http://www.w3.org/1999/xlink"
   xmlns="http://www.w3.org/2000/svg"
   xmlns:svg="http://www.w3.org/2000/svg">
  <sodipodi:namedview
     id="namedview34"
     pagecolor="#ffffff"
     bordercolor="#666666"
     borderopacity="1.0"
     inkscape:showpageshadow="2"
     inkscape:pageopacity="0.0"
     inkscape:pagecheckerboard="0"
     inkscape:deskcolor="#d1d1d1"
     showgrid="false"
     inkscape:zoom="4.9166667"
     inkscape:cx="24"
     inkscape:cy="24"
     inkscape:window-width="1920"
     inkscape:window-height="1011"
     inkscape:window-x="0"
     inkscape:window-y="0"
     inkscape:window-maximized="1"
     inkscape:current-layer="svg32" />
  <defs
     id="defs18">
    <linearGradient
       id="a"
       y1="44"
       y2="4"
       x2="0"
       gradientUnits="userSpaceOnUse">
      <stop
         stop-color="#7cbaf8"
         id="stop2" />
      <stop
         offset="1"
         stop-color="#f4fcff"
         id="stop4" />
    </linearGradient>
    <linearGradient
       id="b"
       y1="39"
       y2="9"
       gradientUnits="userSpaceOnUse"
       x2="0"
       gradientTransform="matrix(1.02857,0,0,1.2,-5.314,-2013.52)">
      <stop
         stop-color="#197cf1"
         id="stop7" />
      <stop
         offset="1"
         stop-color="#20bcfa"
         id="stop9" />
    </linearGradient>
    <linearGradient
       id="c"
       y1="13.01"
       x1="25.04"
       y2="30.26"
       x2="42.99"
       gradientUnits="userSpaceOnUse">
      <stop
         stop-color="#292c2f"
         id="stop12" />
      <stop
         offset="1"
         stop-color="#292c2f"
         stop-opacity="0"
         id="stop14" />
    </linearGradient>
    <linearGradient
       xlink:href="#c"
       id="d"
       y1="18.26"
       x1="14.59"
       y2="40.44"
       x2="36.06"
       gradientUnits="userSpaceOnUse" />
    <linearGradient
       inkscape:collect="always"
       xlink:href="#c"
       id="linearGradient209"
       gradientUnits="userSpaceOnUse"
       x1="25.04"
       y1="13.01"
       x2="42.99"
       y2="30.26" />
  </defs>
  <g
     stroke-width="2"
     id="g30"
     transform="matrix(1.05,0,0,1.05,-1.2,-1.2)">
    <g
       fill-rule="evenodd"
       color="#000000"
       id="g24">
      <path
         fill="url(#a)"
         d="M 44,24 A 20,20 0 0 1 24,44 20,20 0 0 1 4,24 20,20 0 0 1 24,4 20,20 0 0 1 44,24"
         id="path20"
         style="fill:url(#a)" />
      <path
         fill="url(#b)"
         d="M 24,6 C 14.059,6 6,14.06 6,24 6,33.941 14.06,42 24,42 33.941,42 42,33.94 42,24 42,14.059 33.94,6 24,6 m 1,7 h 2 v 6.08 a 7,6 0 0 1 4,-1.080078 7,6 0 0 1 7,6 7,6 0 0 1 -7,6 7,6 0 0 1 -4,-1.085938 v 2.086 h -2 z m -4,4 h 2 v 18 h -2 v -6.08 a 7,6 0 0 1 -4,1.080078 7,6 0 0 1 -7,-6 7,6 0 0 1 7,-6 7,6 0 0 1 4,1.085938 z m -4,3 a 5,4 0 0 0 -5,4 5,4 0 0 0 5,4 5,4 0 0 0 4,-1.609375 v -4.783 a 5,4 0 0 0 -4,-1.607422 m 14,0 a 5,4 0 0 0 -4,1.609375 v 4.783 A 5,4 0 0 0 31,28 5,4 0 0 0 36,24 5,4 0 0 0 31,20"
         id="path22"
         style="fill:url(#b)" />
    </g>
    <path
       opacity="0.2"
       fill="url(#d)"
       d="m 23.01,17.06 -0.014,0.023 v 17.916 h -2 v -6.08 a 7,6 0 0 1 -4,1.080078 7,6 0 0 1 -5.4375,-2.228516 l -0.021,0.021 15.906,15.904 A 20,20 0 0 0 40.783343,34.83228 l -5.869,-5.869 a 7,6 0 0 1 -3.917969,1.035156 7,6 0 0 1 -4,-1.085938 v 2.086 h -2 v -11.953 z"
       id="path26"
       style="fill:url(#d)" />
    <path
       opacity="0.2"
       fill="url(#c)"
       d="m 27,13.01 v 6.066 a 7,6 0 0 1 4,-1.080078 7,6 0 0 1 1.060547,0.07422 z m 8.773,6.563 -0.023,0.023 a 7,6 0 0 1 0.328125,0.28125 z m 0.751953,0.751953 a 7,6 0 0 1 1.474609,3.671875 7,6 0 0 1 -7,6 7,6 0 0 1 -4,-1.085938 v 2.086 h -1.955 l 9.801,9.801 A 20,20 0 0 0 43.67564,27.475625 Z"
       id="path28"
       style="fill:url(#linearGradient209)" />
  </g>
</svg>
