<?xml version="1.0" encoding="UTF-8" standalone="no"?>
<svg
   width="48"
   height="48"
   version="1.1"
   id="svg230"
   sodipodi:docname="qelectrotech.svg"
   inkscape:version="1.2.1 (9c6d41e410, 2022-07-14)"
   xmlns:inkscape="http://www.inkscape.org/namespaces/inkscape"
   xmlns:sodipodi="http://sodipodi.sourceforge.net/DTD/sodipodi-0.dtd"
   xmlns="http://www.w3.org/2000/svg"
   xmlns:svg="http://www.w3.org/2000/svg">
  <sodipodi:namedview
     id="namedview232"
     pagecolor="#ffffff"
     bordercolor="#666666"
     borderopacity="1.0"
     inkscape:showpageshadow="2"
     inkscape:pageopacity="0.0"
     inkscape:pagecheckerboard="0"
     inkscape:deskcolor="#d1d1d1"
     showgrid="false"
     inkscape:zoom="4.9166667"
     inkscape:cx="24"
     inkscape:cy="24"
     inkscape:window-width="1920"
     inkscape:window-height="1009"
     inkscape:window-x="0"
     inkscape:window-y="0"
     inkscape:window-maximized="1"
     inkscape:current-layer="svg230" />
  <defs
     id="defs216">
    <linearGradient
       id="a"
       y1="1048.9"
       y2="1007.82"
       gradientUnits="userSpaceOnUse"
       x2="0"
       gradientTransform="translate(0,-1004.36)">
      <stop
         stop-color="#3889e9"
         id="stop201" />
      <stop
         offset="1"
         stop-color="#5ea5fb"
         id="stop203" />
    </linearGradient>
    <linearGradient
       id="b"
       y1="513.38"
       x1="396.57"
       y2="531.38"
       gradientUnits="userSpaceOnUse"
       x2="412.57"
       gradientTransform="translate(-384.57,-499.38)">
      <stop
         stop-color="#292c2f"
         id="stop206" />
      <stop
         offset="1"
         stop-opacity="0"
         id="stop208" />
    </linearGradient>
    <linearGradient
       id="c"
       y1="534.8"
       y2="510.8"
       gradientUnits="userSpaceOnUse"
       x2="0"
       gradientTransform="translate(-373.78864,-551.31604)">
      <stop
         stop-color="#8cbdf8"
         id="stop211" />
      <stop
         offset="1"
         stop-color="#d5e8ff"
         id="stop213" />
    </linearGradient>
    <linearGradient
       gradientTransform="matrix(1.049963,0,0,1.0499041,-452.98482,-525.9397)"
       gradientUnits="userSpaceOnUse"
       x2="426.69501"
       y2="499.92099"
       y1="547.67499"
       id="a-6"
       x1="389.32001">
      <stop
         stop-color="#18222a"
         style="stop-color:#1e2b35;stop-opacity:1"
         id="stop216" />
      <stop
         stop-color="#566069"
         offset="1"
         style="stop-color:#6d7983;stop-opacity:1"
         id="stop218" />
    </linearGradient>
    <linearGradient
       id="c-3"
       y1="534.79999"
       y2="510.79999"
       gradientUnits="userSpaceOnUse"
       x2="0"
       gradientTransform="translate(-384.07,-498.79999)">
      <stop
         stop-color="#8cbdf8"
         id="stop211-6"
         offset="0"
         style="stop-color:#e7f1fd;stop-opacity:1;" />
      <stop
         offset="1"
         stop-color="#d5e8ff"
         id="stop213-7" />
    </linearGradient>
  </defs>
  <rect
     width="41.998524"
     x="-44.99926"
     y="3.001915"
     rx="20.999262"
     height="41.99617"
     transform="scale(-1,1)"
     style="display:inline;overflow:visible;fill:url(#a-6);stroke-width:2.93982;stroke-opacity:0.55"
     id="rect223"
     ry="20.998085" />
  <path
     style="display:inline;overflow:visible;opacity:0.3;fill:#000000;fill-opacity:1;stroke-width:2.93982;stroke-opacity:0.55"
     d="m 3.0124295,23.475176 c -0.004,0.17503 -0.0126,0.34906 -0.0126,0.52509 0,11.63302 9.3656905,20.99809 20.9992105,20.99809 11.63351,0 20.99935,-9.36507 20.99935,-20.99809 0,-0.17603 -0.008,-0.34906 -0.0126,-0.52509 -0.2773,11.38829 -9.53376,20.47312 -20.98674,20.47312 -11.4572,0 -20.7094505,-9.08483 -20.9866105,-20.47312"
     id="path225" />
  <path
     d="m 3.0124295,24.521246 c -0.004,-0.17503 -0.0126,-0.34806 -0.0126,-0.52508 0,-11.63293 9.3656905,-20.9981004 20.9992105,-20.9981004 11.63351,0 20.99935,9.3651704 20.99935,20.9981004 0,0.17602 -0.008,0.35005 -0.0126,0.52508 -0.2773,-11.38829 -9.53376,-20.4731204 -20.98674,-20.4731204 -11.4572,0 -20.7094505,9.0848304 -20.9866105,20.4731204"
     style="display:inline;overflow:visible;opacity:0.3;fill:#ffffff;fill-opacity:1;stroke-width:2.93982;stroke-opacity:0.55"
     id="path229" />
  <path
     color="#000000"
     stroke-width="2"
     d="m 20,12 c -1.765,0 -3.229,1.301 -3.469,3 h -6.03 v 8 h -2 v 1 h 5 v -1 h -2 v -7 h 5.03 c 0.24,1.699 1.703,3 3.469,3 1.765,0 3.229,-1.301 3.469,-3 h 4.03 v 2 h 9 v -2 h 2 v 16 h -3.03 C 35.229,30.301 33.766,29 32,29 c -1.765,0 -3.229,1.301 -3.469,3 H 25.406 C 25.202,31.414 24.656,31 24,31 c -0.828,0 -1.5,0.672 -1.5,1.5 0,0.828 0.672,1.5 1.5,1.5 0.656,0 1.202,-0.414 1.406,-1 h 3.125 c 0.24,1.699 1.703,3 3.469,3 1.765,0 3.229,-1.301 3.469,-3 h 4.03 V 15 h -3 v -2 h -9 v 2 h -4.03 C 23.229,13.301 21.766,12 20,12 m 0,1 c 0.503,0 0.983,0.15 1.375,0.406 L 20,14.781 18.625,13.406 C 19.017,13.15 19.497,13 20,13 m -2.094,1.125 1.375,1.375 -1.375,1.375 C 17.65,16.483 17.5,16.003 17.5,15.5 c 0,-0.503 0.15,-0.983 0.406,-1.375 m 4.188,0 c 0.256,0.392 0.406,0.872 0.406,1.375 0,0.503 -0.15,0.983 -0.406,1.375 L 20.719,15.5 Z M 20,16.219 21.375,17.594 C 20.983,17.85 20.503,18 20,18 19.497,18 19.017,17.85 18.625,17.594 Z M 9.5,25 v 1 h 1 v 7 h 4.094 c 0.204,0.586 0.75,1 1.406,1 0.828,0 1.5,-0.672 1.5,-1.5 0,-0.104 -0.011,-0.215 -0.031,-0.313 l 5.313,-3.063 -0.5,-0.875 -5.344,3.094 C 16.68,31.134 16.359,30.999 16,30.999 c -0.656,0 -1.202,0.414 -1.406,1 H 11.5 v -6 h 1 v -1 z M 32,30 c 1.381,0 2.5,1.119 2.5,2.5 0,1.381 -1.119,2.5 -2.5,2.5 -1.381,0 -2.5,-1.119 -2.5,-2.5 0,-1.381 1.119,-2.5 2.5,-2.5 m -16,2 c 0.276,0 0.5,0.224 0.5,0.5 0,0.276 -0.224,0.5 -0.5,0.5 -0.276,0 -0.5,-0.224 -0.5,-0.5 0,-0.276 0.224,-0.5 0.5,-0.5 m 8,0 c 0.276,0 0.5,0.224 0.5,0.5 0,0.276 -0.224,0.5 -0.5,0.5 -0.276,0 -0.5,-0.224 -0.5,-0.5 0,-0.276 0.224,-0.5 0.5,-0.5"
     id="path226-5"
     style="fill:url(#c-3);fill-rule:evenodd" />
</svg>
