<?xml version="1.0" encoding="UTF-8" standalone="no"?>
<svg
   width="48"
   height="48"
   version="1.1"
   id="svg65"
   sodipodi:docname="QOwnNotes.svg"
   inkscape:version="1.2.1 (9c6d41e410, 2022-07-14)"
   xmlns:inkscape="http://www.inkscape.org/namespaces/inkscape"
   xmlns:sodipodi="http://sodipodi.sourceforge.net/DTD/sodipodi-0.dtd"
   xmlns="http://www.w3.org/2000/svg"
   xmlns:svg="http://www.w3.org/2000/svg">
  <sodipodi:namedview
     id="namedview67"
     pagecolor="#ffffff"
     bordercolor="#666666"
     borderopacity="1.0"
     inkscape:showpageshadow="2"
     inkscape:pageopacity="0.0"
     inkscape:pagecheckerboard="0"
     inkscape:deskcolor="#d1d1d1"
     showgrid="false"
     inkscape:zoom="4.9166667"
     inkscape:cx="24"
     inkscape:cy="24"
     inkscape:window-width="1920"
     inkscape:window-height="1009"
     inkscape:window-x="0"
     inkscape:window-y="0"
     inkscape:window-maximized="1"
     inkscape:current-layer="svg65" />
  <defs
     id="defs37">
    <linearGradient
       id="a"
       y1="538.8"
       x1="406.57"
       y2="507.52"
       gradientUnits="userSpaceOnUse"
       x2="429.12"
       gradientTransform="matrix(-1.81818,0,0,1.2469,711.16249,-668.57397)">
      <stop
         stop-color="#1d1d5b"
         id="stop2" />
      <stop
         offset="1"
         stop-color="#1f4778"
         id="stop4" />
    </linearGradient>
    <linearGradient
       id="b"
       y1="-516.3"
       x1="433.32"
       y2="-498.05"
       gradientUnits="userSpaceOnUse"
       x2="382.57"
       gradientTransform="translate(-456.62751,540.54397)">
      <stop
         stop-color="#363d68"
         id="stop7" />
      <stop
         offset="1"
         stop-color="#5272a2"
         stop-opacity=".427"
         id="stop9" />
    </linearGradient>
    <linearGradient
       id="c"
       y1="61.25"
       y2="49.25"
       x1="46"
       gradientUnits="userSpaceOnUse"
       x2="45.75"
       gradientTransform="matrix(-1,0,0,1,-14.05751,-57.74397)">
      <stop
         stop-color="#3e5172"
         id="stop12" />
      <stop
         offset="1"
         stop-color="#6f7da0"
         id="stop14" />
    </linearGradient>
    <linearGradient
       id="d"
       y1="23.375"
       x1="52.625"
       y2="13.25"
       gradientUnits="userSpaceOnUse"
       x2="41.38"
       gradientTransform="rotate(180,56.187225,6.628015)">
      <stop
         id="stop17" />
      <stop
         offset="1"
         stop-color="#655c6f"
         stop-opacity="0"
         id="stop19" />
    </linearGradient>
    <linearGradient
       id="e"
       x1="393.57"
       gradientUnits="userSpaceOnUse"
       x2="439.57"
       gradientTransform="translate(-456.62751,540.54397)">
      <stop
         stop-color="#ffffff"
         stop-opacity=".573"
         id="stop22" />
      <stop
         offset="1"
         stop-color="#ffffff"
         stop-opacity="0"
         id="stop24" />
    </linearGradient>
    <linearGradient
       id="f"
       x1="394.57"
       gradientUnits="userSpaceOnUse"
       x2="435.57"
       gradientTransform="translate(-456.62751,540.54397)">
      <stop
         stop-color="#0b084e"
         id="stop27" />
      <stop
         offset="1"
         stop-color="#e88f21"
         stop-opacity="0"
         id="stop29" />
    </linearGradient>
    <linearGradient
       id="g"
       y1="548.89"
       x1="393.74"
       y2="525.05"
       x2="393.57"
       gradientUnits="userSpaceOnUse"
       gradientTransform="translate(-456.62751,-540.54397)">
      <stop
         stop-color="#2a3561"
         id="stop32" />
      <stop
         offset="1"
         stop-color="#192656"
         id="stop34" />
    </linearGradient>
    <linearGradient
       gradientTransform="matrix(1.049963,0,0,1.0499041,-452.98571,-525.93776)"
       gradientUnits="userSpaceOnUse"
       x2="426.69501"
       y2="499.92099"
       y1="547.67499"
       id="a-6"
       x1="389.32001">
      <stop
         stop-color="#18222a"
         style="stop-color:#1e2b35;stop-opacity:1"
         id="stop216" />
      <stop
         stop-color="#566069"
         offset="1"
         style="stop-color:#6d7983;stop-opacity:1"
         id="stop218" />
    </linearGradient>
    <linearGradient
       id="c-3"
       y1="534.79999"
       y2="510.79999"
       gradientUnits="userSpaceOnUse"
       x2="0"
       gradientTransform="translate(-384.06911,-498.79805)">
      <stop
         stop-color="#8cbdf8"
         id="stop211-6"
         offset="0"
         style="stop-color:#e7f1fd;stop-opacity:1;" />
      <stop
         offset="1"
         stop-color="#d5e8ff"
         id="stop213-7" />
    </linearGradient>
  </defs>
  <rect
     width="41.998524"
     x="-45.000145"
     y="3.0038488"
     rx="20.999262"
     height="41.99617"
     transform="scale(-1,1)"
     style="display:inline;overflow:visible;fill:url(#a-6);stroke-width:2.93982;stroke-opacity:0.55"
     id="rect223"
     ry="20.998085" />
  <path
     style="display:inline;overflow:visible;opacity:0.3;fill:#000000;fill-opacity:1;stroke-width:2.93982;stroke-opacity:0.55"
     d="m 3.013321,23.47711 c -0.004,0.17503 -0.0126,0.34906 -0.0126,0.52509 0,11.63302 9.36569,20.99809 20.99921,20.99809 11.633508,0 20.999348,-9.36507 20.999348,-20.99809 0,-0.17603 -0.008,-0.34906 -0.0126,-0.52509 -0.2773,11.38829 -9.53376,20.47312 -20.986738,20.47312 -11.4572,0 -20.709451,-9.08483 -20.98661,-20.47312"
     id="path225" />
  <path
     d="m 3.013321,24.52318 c -0.004,-0.17503 -0.0126,-0.34806 -0.0126,-0.52508 C 3.000721,12.36517 12.366411,3 23.999931,3 c 11.633508,0 20.999348,9.36517 20.999348,20.9981 0,0.17602 -0.008,0.35005 -0.0126,0.52508 -0.2773,-11.38829 -9.53376,-20.47312 -20.986738,-20.47312 -11.4572,0 -20.709451,9.08483 -20.98661,20.47312"
     style="display:inline;overflow:visible;opacity:0.3;fill:#ffffff;fill-opacity:1;stroke-width:2.93982;stroke-opacity:0.55"
     id="path229" />
  <path
     opacity="1.0"
     d="m 24.000266,13.378019 a 7.8547747,7.8547747 0 0 0 -7.854775,7.854764 7.8547747,7.8547747 0 0 0 0.08994,1.124308 5.6105534,5.6105534 0 0 0 -0.08994,-0.002 5.6105534,5.6105534 0 0 0 -5.610551,5.610559 5.6105534,5.6105534 0 0 0 5.610551,5.610551 h 14.58691 a 6.7326635,6.7326635 0 0 0 6.732659,-6.732666 6.7326635,6.7326635 0 0 0 -5.687261,-6.645003 7.8547747,7.8547747 0 0 0 -7.778065,-6.820323 m 0,1.122446 a 6.7326635,6.7326635 0 0 1 0.672832,0.03282 6.7326635,6.7326635 0 0 1 3.127439,1.144024 6.7326635,6.7326635 0 0 1 0.002,0 6.7326635,6.7326635 0 0 1 1.470583,1.36976 6.7326635,6.7326635 0 0 1 0,0.002 6.7326635,6.7326635 0 0 1 1.363185,3.066083 6.7326635,6.7326635 0 0 1 0.09633,1.117664 5.6105534,5.6105534 0 0 1 1.117715,0.11173 5.6105534,5.6105534 0 0 1 0.541349,0.138079 5.6105534,5.6105534 0 0 1 0.002,0 5.6105534,5.6105534 0 0 1 0.5238,0.192848 5.6105534,5.6105534 0 0 1 0.002,0 5.6105534,5.6105534 0 0 1 0.501894,0.243283 5.6105534,5.6105534 0 0 1 0.0047,0.002 5.6105534,5.6105534 0 0 1 0.473384,0.291486 5.6105534,5.6105534 0 0 1 0.0047,0.002 5.6105534,5.6105534 0 0 1 0.442711,0.337515 5.6105534,5.6105534 0 0 1 0.002,0.002 5.6105534,5.6105534 0 0 1 0.407661,0.379149 5.6105534,5.6105534 0 0 1 0.002,0.002 5.6105534,5.6105534 0 0 1 0.694752,0.876655 5.6105534,5.6105534 0 0 1 0.002,0.002 5.6105534,5.6105534 0 0 1 0.276147,0.484358 5.6105534,5.6105534 0 0 1 0.002,0.002 5.6105534,5.6105534 0 0 1 0.227928,0.50846 5.6105534,5.6105534 0 0 1 0.002,0.002 5.6105534,5.6105534 0 0 1 0.175323,0.530389 5.6105534,5.6105534 0 0 1 0,0.002 5.6105534,5.6105534 0 0 1 0.122732,0.545714 5.6105534,5.6105534 0 0 1 0,0.002 5.6105534,5.6105534 0 0 1 0.06795,0.554476 5.6105534,5.6105534 0 0 1 0.01275,0.396209 5.6105534,5.6105534 0 0 1 -5.610545,5.610548 H 16.148815 a 4.4884421,4.4884421 0 0 1 -4.488443,-4.488439 4.4884421,4.4884421 0 0 1 0.02187,-0.44709 4.4884421,4.4884421 0 0 1 4.466533,-4.041348 4.4884421,4.4884421 0 0 1 0.335316,0.01543 4.4884421,4.4884421 0 0 1 0,0.002 4.4884421,4.4884421 0 0 1 1.297453,0.293681 6.7326635,6.7326635 0 0 1 -0.383547,-1.286487 6.7326635,6.7326635 0 0 1 -0.08315,-0.569826 6.7326635,6.7326635 0 0 1 -0.01543,-0.129296 6.7326635,6.7326635 0 0 1 -0.02849,-0.569876 6.7326635,6.7326635 0 0 1 0.03282,-0.672827 6.7326635,6.7326635 0 0 1 6.699773,-6.059829 z"
     id="path47-3"
     style="fill:#8bddff;fill-opacity:1;opacity:1" />
</svg>
