<?xml version="1.0" encoding="UTF-8" standalone="no"?>
<svg
   width="48"
   height="48"
   version="1.1"
   id="svg40"
   sodipodi:docname="qupzilla.svg"
   inkscape:version="1.2.1 (9c6d41e410, 2022-07-14)"
   xmlns:inkscape="http://www.inkscape.org/namespaces/inkscape"
   xmlns:sodipodi="http://sodipodi.sourceforge.net/DTD/sodipodi-0.dtd"
   xmlns="http://www.w3.org/2000/svg"
   xmlns:svg="http://www.w3.org/2000/svg">
  <sodipodi:namedview
     id="namedview42"
     pagecolor="#ffffff"
     bordercolor="#666666"
     borderopacity="1.0"
     inkscape:showpageshadow="2"
     inkscape:pageopacity="0.0"
     inkscape:pagecheckerboard="0"
     inkscape:deskcolor="#d1d1d1"
     showgrid="false"
     inkscape:zoom="4.9166667"
     inkscape:cx="24"
     inkscape:cy="24"
     inkscape:window-width="1920"
     inkscape:window-height="1011"
     inkscape:window-x="0"
     inkscape:window-y="0"
     inkscape:window-maximized="1"
     inkscape:current-layer="svg40" />
  <defs
     id="defs24">
    <linearGradient
       id="a"
       y1="543.8"
       x1="428.57"
       y2="503.8"
       x2="388.57"
       gradientUnits="userSpaceOnUse">
      <stop
         stop-color="#375a7d"
         id="stop2" />
      <stop
         offset="1"
         stop-color="#31bfa6"
         id="stop4" />
    </linearGradient>
    <linearGradient
       id="b"
       y1="12.08"
       x1="12.521"
       y2="24.797"
       x2="22.282"
       gradientUnits="userSpaceOnUse"
       gradientTransform="translate(384.57,499.8)">
      <stop
         stop-color="#fcfcfc"
         id="stop7" />
      <stop
         offset="1"
         stop-color="#eff1f1"
         id="stop9" />
    </linearGradient>
    <linearGradient
       id="c"
       y1="25.538"
       x1="14.576"
       y2="44"
       x2="28.742"
       gradientUnits="userSpaceOnUse">
      <stop
         stop-color="#4ce0c6"
         id="stop12" />
      <stop
         offset=".3"
         stop-color="#7fe9d6"
         id="stop14" />
      <stop
         offset="1"
         stop-color="#31bfa6"
         id="stop16" />
    </linearGradient>
    <linearGradient
       id="d"
       y1="24"
       x1="18"
       y2="37"
       x2="27.975"
       gradientUnits="userSpaceOnUse">
      <stop
         stop-color="#172525"
         id="stop19" />
      <stop
         offset="1"
         stop-color="#172525"
         stop-opacity="0"
         id="stop21" />
    </linearGradient>
  </defs>
  <g
     fill-rule="evenodd"
     transform="matrix(1.0498688,0,0,1.0499997,-404.94752,-525.98984)"
     id="g38">
    <g
       color-rendering="auto"
       color-interpolation-filters="linearRGB"
       shape-rendering="auto"
       image-rendering="auto"
       text-rendering="auto"
       color-interpolation="sRGB"
       color="#000000"
       id="g30">
      <circle
         fill="url(#a)"
         cx="408.57001"
         cy="523.79999"
         r="20"
         id="circle26"
         style="fill:url(#a)" />
      <path
         fill="#375a7d"
         d="M 43.980469,23.476562 A 20.00001,20.00001 0 0 1 24,43.09961 20.00001,20.00001 0 0 1 4.01953,23.623047 20.00001,20.00001 0 0 0 4,24 20.00001,20.00001 0 0 0 24,44 20.00001,20.00001 0 0 0 44,24 20.00001,20.00001 0 0 0 43.980469,23.476562"
         transform="translate(384.57,499.8)"
         id="path28" />
    </g>
    <path
       opacity="0.4"
       fill="url(#d)"
       d="m 41,19 -6.813,1.813 -17.688,-1.188 -7.5,9.688 -0.34,4.074 9.82,9.82 a 20.00001,20.00001 0 0 0 5.519531,0.792969 20.00001,20.00001 0 0 0 20,-20 20.00001,20.00001 0 0 0 -0.138672,-2.138672 z"
       transform="translate(384.57,499.8)"
       id="path32"
       style="fill:url(#d)" />
    <path
       fill="url(#c)"
       d="M 17.887,22.848 9,24 8.645,33.348 C 24.046,23.494 34,39.378 44.005,33 c -8,0 -14.673,-12.09 -24.5,-9 z"
       transform="translate(384.57,499.8)"
       id="path34"
       style="fill:url(#c)" />
    <path
       fill="url(#b)"
       d="m 394.66,512.4 c -2.637,3.214 -4.08,7.243 -4.084,11.4 0.006,3.314 0.926,6.562 2.66,9.387 13.944,-17.18 21.21,-5.01 32.34,-14.387 -10,2 -12.898,-10.456 -30.916,-6.4"
       id="path36"
       style="fill:url(#b)" />
  </g>
</svg>
