<?xml version="1.0" encoding="UTF-8" standalone="no"?>
<svg
   width="48"
   height="48"
   version="1.1"
   id="svg78"
   sodipodi:docname="rekonq.svg"
   inkscape:version="1.2.1 (9c6d41e410, 2022-07-14)"
   xmlns:inkscape="http://www.inkscape.org/namespaces/inkscape"
   xmlns:sodipodi="http://sodipodi.sourceforge.net/DTD/sodipodi-0.dtd"
   xmlns:xlink="http://www.w3.org/1999/xlink"
   xmlns="http://www.w3.org/2000/svg"
   xmlns:svg="http://www.w3.org/2000/svg">
  <sodipodi:namedview
     id="namedview80"
     pagecolor="#ffffff"
     bordercolor="#666666"
     borderopacity="1.0"
     inkscape:showpageshadow="2"
     inkscape:pageopacity="0.0"
     inkscape:pagecheckerboard="0"
     inkscape:deskcolor="#d1d1d1"
     showgrid="false"
     inkscape:zoom="4.9166667"
     inkscape:cx="24"
     inkscape:cy="24"
     inkscape:window-width="1920"
     inkscape:window-height="1011"
     inkscape:window-x="0"
     inkscape:window-y="0"
     inkscape:window-maximized="1"
     inkscape:current-layer="svg78" />
  <defs
     id="defs32">
    <linearGradient
       id="a"
       y1="12.997"
       y2="32.13"
       x1="17.428"
       x2="36.551"
       gradientUnits="userSpaceOnUse"
       gradientTransform="matrix(1.1378443,0,0,1.1352764,-3.9828145,-4.6469308)">
      <stop
         stop-color="#abf9c7"
         id="stop2" />
      <stop
         offset="1"
         stop-color="#54d883"
         id="stop4" />
    </linearGradient>
    <linearGradient
       id="b"
       y1="32.721"
       y2="12.32"
       x1="33.405"
       gradientUnits="userSpaceOnUse"
       x2="17.759"
       gradientTransform="matrix(1.1378443,0,0,1.1352764,-3.9828145,-4.6469308)">
      <stop
         stop-color="#197cf1"
         id="stop7" />
      <stop
         offset="1"
         stop-color="#20bcfa"
         id="stop9" />
    </linearGradient>
    <linearGradient
       id="c"
       y1="23"
       x1="24"
       y2="39"
       x2="40"
       gradientUnits="userSpaceOnUse">
      <stop
         stop-color="#292c2f"
         id="stop12" />
      <stop
         offset="1"
         stop-opacity="0"
         id="stop14" />
    </linearGradient>
    <linearGradient
       id="d"
       y1="12.911"
       x1="32.776"
       y2="6.084"
       x2="27.52"
       gradientUnits="userSpaceOnUse">
      <stop
         stop-color="#95a5a6"
         id="stop17" />
      <stop
         offset="1"
         stop-color="#eff0f1"
         id="stop19" />
    </linearGradient>
    <linearGradient
       id="e"
       y1="24.827"
       x1="10.281"
       y2="7.355"
       x2="3.574"
       gradientUnits="userSpaceOnUse"
       gradientTransform="matrix(-.96593.25882-.25882-.96593 53.39 40.971)">
      <stop
         stop-color="#cfd5d5"
         id="stop22" />
      <stop
         offset="1"
         stop-color="#6f8181"
         id="stop24" />
    </linearGradient>
    <linearGradient
       xlink:href="#e"
       id="f"
       y1="20.947"
       x1="36.16"
       y2="39.03"
       x2="49.3"
       gradientUnits="userSpaceOnUse" />
    <linearGradient
       xlink:href="#e"
       id="g"
       y1="12.375"
       x1="13.938"
       y2="28.542"
       x2="28.495"
       gradientUnits="userSpaceOnUse" />
    <linearGradient
       xlink:href="#c"
       id="h"
       y1="30.991"
       x1="28.476"
       y2="41"
       x2="39.592"
       gradientUnits="userSpaceOnUse" />
    <linearGradient
       xlink:href="#c"
       id="i"
       y1="13"
       x1="28"
       y2="19"
       x2="33.402"
       gradientUnits="userSpaceOnUse" />
    <linearGradient
       xlink:href="#c"
       id="j"
       x1="29.654"
       x2="19.887"
       gradientUnits="userSpaceOnUse" />
    <linearGradient
       inkscape:collect="always"
       xlink:href="#c"
       id="linearGradient255"
       gradientUnits="userSpaceOnUse"
       x1="24"
       y1="23"
       x2="40"
       y2="39" />
    <linearGradient
       inkscape:collect="always"
       xlink:href="#e"
       id="linearGradient257"
       gradientUnits="userSpaceOnUse"
       gradientTransform="matrix(-0.96593,0.25882,-0.25882,-0.96593,53.39,40.971)"
       x1="10.281"
       y1="24.827"
       x2="3.574"
       y2="7.355" />
  </defs>
  <g
     color="#000000"
     id="g42"
     transform="matrix(1.1378437,0,0,1.1352758,-3.9828144,-4.6469306)">
    <circle
       fill="#6f8181"
       cx="29.393999"
       cy="16.971001"
       stroke-linejoin="round"
       r="14.381"
       stroke-linecap="round"
       stroke-width="3"
       transform="rotate(15)"
       id="circle34" />
    <path
       color-interpolation-filters="linearRGB"
       image-rendering="auto"
       color-rendering="auto"
       fill-rule="evenodd"
       d="M 24.04,8 C 23.478,7.998 22.917,8.025 22.358,8.082 L 22.202,9.1 c -1.49,0.152 -2.897,0.482 -4.205,0.967 L 17.351,9.2 c -1,0.449 -1.952,0.999 -2.84,1.643 l 0.345,0.8 c -1.259,0.82 -2.387,1.79 -3.33,2.9 l -1.289,-0.502 c -0.683,0.945 -1.268,1.957 -1.744,3.02 l 0.928,0.744 c -0.6,1.27 -1.027,2.623 -1.24,4.03 l -2.084,0.32 c -0.128,1.226 -0.13,2.463 -0.006,3.689 l 2.041,0.311 c 0.929,8.368 7.211,14.844 15.867,14.844 9.389,0 14,-7.611 14,-17 0,7.732 -6.268,14 -14,14 -7.732,0 -14,-6.268 -14,-14 0,-7.732 6.268,-14 14,-14 7.732,0 14,6.268 14,14 0,-6.538 -4.02,-13.942 -12.205,-14.893 L 25.638,8.085 C 25.107,8.03 24.574,8.001 24.04,7.999"
       color-interpolation="sRGB"
       text-rendering="auto"
       fill="url(#g)"
       shape-rendering="auto"
       id="path36"
       style="fill:url(#g)" />
    <path
       opacity="0.4"
       fill="url(#j)"
       stroke-linejoin="round"
       stroke-width="3"
       d="M 24.04,8 C 23.478,7.998 22.917,8.025 22.358,8.082 L 22.202,9.1 c -1.49,0.152 -2.897,0.482 -4.205,0.967 l -0.453,8.898 H 34.382 V 13.752 C 32.372,11.328 29.524,9.541 25.794,9.107 L 25.638,8.086 C 25.107,8.031 24.574,8.002 24.04,8"
       id="path38"
       style="fill:url(#j)" />
    <path
       opacity="0.2"
       color-interpolation-filters="linearRGB"
       image-rendering="auto"
       color-rendering="auto"
       fill-rule="evenodd"
       d="M 33.19,14.807 14.803,33.194 25.539,43.928 c 0.169,-0.013 0.338,-0.02 0.506,-0.037 l 0.475,-3.102 c 1.262,-0.189 2.499,-0.519 3.688,-0.984 l 1.957,2.441 c 1.25,-0.561 2.439,-1.25 3.549,-2.055 l -1.135,-2.91 c 1,-0.794 1.91,-1.698 2.709,-2.695 l 2.893,1.127 c 0.803,-1.111 1.491,-2.301 2.051,-3.553 L 39.81,30.219 c 0.237,-0.594 0.439,-1.201 0.607,-1.818 0.158,-0.618 0.283,-1.245 0.371,-1.877 l 3.092,-0.475 c 0.018,-0.17 0.028,-0.34 0.041,-0.51 z"
       color-interpolation="sRGB"
       text-rendering="auto"
       fill="url(#c)"
       shape-rendering="auto"
       id="path40"
       style="fill:url(#linearGradient255)" />
  </g>
  <rect
     width="29.583931"
     x="8.5334702"
     y="7.8411007"
     fill="url(#b)"
     rx="14.791966"
     height="29.517166"
     id="rect44"
     style="fill:url(#b);stroke-width:1.13655" />
  <path
     fill="url(#a)"
     fill-rule="evenodd"
     d="m 23.325439,7.841098 c -1.074123,0 -2.118663,0.118078 -3.125662,0.332637 l -1.31192,2.619086 -1.982125,-1.482662 c -3.554625,1.705187 -6.308222,4.776105 -7.58374,8.54863 l 2.90948,-1.16139 2.218786,1.475844 0.739599,-2.213775 9.61478,-5.165501 -0.585988,-2.92335 c -0.295847,-0.017 -0.592816,-0.0284 -0.89321,-0.0284 m 10.95403,4.846484 -0.599649,1.79488 0.7396,0.737931 -2.9584,4.427566 1.479199,5.165501 4.905255,0.613064 c 0.176364,-0.915047 0.271943,-1.858453 0.271943,-2.826844 0,-2.527126 -0.633782,-4.899851 -1.746597,-6.976277 l -1.211802,-0.403007 0.440343,-0.880981 C 35.203389,13.754733 34.752808,13.210953 34.279469,12.688712 M 8.827036,19.649094 c -0.162718,0.808321 -0.256021,1.643879 -0.282182,2.495341 l 5.165804,1.932242 -0.7396,-2.213791 -1.479187,-2.213792 z m 4.883622,4.427583 3.697999,8.855153 v 3.201487 c 1.81145,0.785603 3.809495,1.226099 5.916782,1.226099 0.14678,0 0.291288,-0.005 0.438069,-0.0093 l 4.739116,-8.10739 -11.833567,-6.641369 z"
     id="path46"
     style="fill:url(#a);stroke-width:1.13655" />
  <path
     opacity="0.2"
     fill="#172525"
     d="m 8.567607,22.032049 c -0.006,0.189605 -0.02846,0.375791 -0.02846,0.567647 0,8.176259 6.597226,14.758579 14.791979,14.758579 8.19474,0 14.791964,-6.58232 14.791964,-14.758579 0,-0.191856 -0.02155,-0.378042 -0.02854,-0.567647 C 37.795302,29.94038 31.333478,36.223 23.331032,36.223 15.331985,36.223 8.867895,29.94038 8.567503,22.032049"
     id="path48"
     style="stroke-width:1.13655" />
  <g
     stroke-linejoin="round"
     color="#000000"
     stroke-width="3"
     id="g54"
     transform="matrix(1.1378437,0,0,1.1352758,-3.9828144,-4.6469306)">
    <path
       fill="url(#e)"
       d="m 39.13,13.11 -1.779,0.614 -1.348,3.279 1,3 0.68,1.037 c 0.473,2.176 0.419,4.434 -0.156,6.586 -0.858,3.199 -2.823,5.99 -5.545,7.877 l -2.385,1.401 0.615,2.901 1.959,2.441 c 1.251,-0.558 2.44,-1.242 3.551,-2.043 l -1.139,-2.922 c 0.999,-0.795 1.905,-1.7 2.701,-2.697 l 2.914,1.135 C 41,34.608 41.686,33.418 42.245,32.166 l -2.438,-1.953 c 0.471,-1.188 0.805,-2.426 0.998,-3.689 l 3.07,-0.471 c 0.14,-1.364 0.139,-2.738 -0.002,-4.102 L 40.805,21.48 c -0.092,-0.633 -0.22,-1.26 -0.383,-1.879 -0.172,-0.614 -0.377,-1.217 -0.617,-1.809 l 1.337,-1.34 c -0.558,-1.251 -2.01,-3.343 -2.01,-3.343"
       id="path50"
       style="fill:url(#linearGradient257)" />
    <path
       opacity="0.2"
       fill="#172525"
       d="m 43.967,23.51 c -0.008,0.514 -0.036,1.027 -0.084,1.539 l -3.092,0.475 c -0.088,0.632 -0.212,1.259 -0.371,1.877 -0.168,0.617 -0.371,1.224 -0.607,1.818 l 0.268,0.215 c 0.124,-0.341 0.238,-0.685 0.34,-1.033 0.159,-0.618 0.283,-1.245 0.371,-1.877 l 3.092,-0.475 c 0.082,-0.844 0.11,-1.692 0.084,-2.539 m -2.092,8.361 c -0.484,0.992 -1.05,1.943 -1.691,2.842 l -2.893,-1.127 c -0.799,0.997 -1.708,1.902 -2.709,2.695 l 0.291,0.744 c 0.886,-0.729 1.696,-1.547 2.418,-2.439 l 2.893,1.127 c 0.804,-1.111 1.491,-2.301 2.051,-3.553 z m -11.539,6.558 c -1.188,0.465 -1.314,1.841 -0.125,1.376 l 1.957,2.441 c 1.25,-0.561 2.439,-1.25 3.549,-2.055 l -0.311,-0.795 c -1.019,0.716 -2.104,1.335 -3.238,1.85 z"
       id="path52" />
  </g>
  <g
     fill-rule="evenodd"
     id="g60"
     transform="matrix(1.1378437,0,0,1.1352758,-3.9828144,-4.6469306)">
    <path
       opacity="0.2"
       fill="url(#h)"
       d="M 37,20 36.773,20.34 37,21 c -0.091,0.091 -0.197,0.18 -0.293,0.27 a 13,13 0 0 1 -0.15039,6.095703 13,13 0 0 1 -7.410157,8.572266 l 0.447,0.963 0.615,2.902 1.959,2.441 c 1.251,-0.558 2.44,-1.242 3.551,-2.043 l -1.139,-2.922 c 0.999,-0.795 1.905,-1.7 2.701,-2.697 l 2.914,1.135 c 0.802,-1.111 1.488,-2.301 2.047,-3.553 l -2.438,-1.953 c 0.471,-1.188 0.805,-2.426 0.998,-3.689 l 0.842,-0.129 z"
       id="path56"
       style="fill:url(#h)" />
    <path
       opacity="0.4"
       fill="url(#i)"
       d="m 26,13 7,7 6,-4 -4,-4 -4.563,-0.5 z"
       id="path58"
       style="fill:url(#i)" />
  </g>
  <g
     stroke-linejoin="round"
     color="#000000"
     stroke-width="3"
     id="g66"
     transform="matrix(1.1378437,0,0,1.1352758,-3.9828144,-4.6469306)">
    <path
       fill="url(#f)"
       d="M 37.746,14.12 C 36.857,13.142 35.396,11.959 33,11.001 l -2,2 c 0,0 3.189,2.866 0.242,5.795 L 25,25.001 5.68,32.269 c 0,0 1.318,2.341 2.119,3.451 l 2.922,-1.139 c 0.795,0.999 1.7,1.905 2.697,2.701 l -1.135,2.914 c 1.111,0.802 2.301,1.488 3.553,2.047 l 1.953,-2.438 c 1.188,0.471 2.426,0.805 3.689,0.998 l 0.471,3.07 c 1.364,0.14 2.738,0.139 4.102,-0.002 l 0.471,-3.068 c 0.633,-0.092 1.26,-0.22 1.879,-0.383 0.614,-0.172 1.217,-0.377 1.809,-0.617 0,0 4.354,-9.443 5.885,-13.514 C 36.86,24.253 37.001,20 37.001,20 c 0,0 1.028,-5.075 0.746,-5.881"
       id="path62"
       style="fill:url(#f)" />
    <path
       opacity="0.2"
       fill="#172525"
       d="m 29.412,39.19 c -0.961,0.266 -2.01,0.47 -2.889,0.602 l -0.475,3.102 c -1.363,0.138 -2.736,0.135 -4.098,-0.008 L 21.475,39.794 C 20.843,39.706 20.216,39.582 19.598,39.423 18.981,39.255 18.374,39.052 17.78,38.816 l -1.941,2.422 C 14.703,40.725 13.618,40.106 12.597,39.39 l -0.311,0.797 c 1.111,0.804 2.301,1.491 3.553,2.051 l 1.941,-2.422 c 0.594,0.237 1.201,0.439 1.818,0.607 0.618,0.159 1.245,0.283 1.877,0.371 l 0.475,3.092 c 1.362,0.143 2.735,0.146 4.098,0.008 l 0.475,-3.102 c 1.262,-0.189 2.499,-0.519 3.688,-0.984 l 0.053,-0.133 z m -23.1,-7.148 -0.633,0.229 c 0.733,1.328 1.32,2.23 2.129,3.449 l 2.91,-1.135 c 0.715,0.901 1.519,1.728 2.4,2.467 l 0.295,-0.758 C 12.416,35.495 11.511,34.586 10.718,33.585 L 7.808,34.72 C 7.167,33.822 6.796,33.034 6.312,32.042"
       id="path64" />
  </g>
  <g
     fill-rule="evenodd"
     id="g76"
     transform="matrix(1.1378437,0,0,1.1352758,-3.9828144,-4.6469306)">
    <path
       fill="#cfd5d5"
       d="m 32.776,12.911 c 0,0 -1.323,-0.889 -2.197,-1.016 C 30.001,11 29.001,12 29.001,12 h -3 v 1 c 0,0 2.125,0.998 3,1 0.875,0.002 1.814,0.885 1.814,0.885 z"
       id="path68" />
    <path
       fill="#536161"
       d="m 32,8 5,3 -1,1 h -4 l -0.369,-1.635 z"
       id="path70" />
    <path
       fill="url(#d)"
       d="m 33,13 c 0,0 -2.457,0.085 -3,-1 L 29,10 26,8 c 0,0 0,-1 3,-1 v 1 c 0,0 2,-1 4,0 0,0 -0.776,1.38 -0.323,2.684 C 33,11.612 33,12 33,12 Z"
       id="path72"
       style="fill:url(#d)" />
    <path
       fill="#e05e4c"
       d="m 30,9 h 1 l 1,2 -2,-1 z"
       id="path74" />
  </g>
</svg>
