<?xml version="1.0" encoding="UTF-8" standalone="no"?>
<svg
   clip-rule="evenodd"
   fill-rule="evenodd"
   stroke-linejoin="round"
   stroke-miterlimit="2"
   viewBox="0 0 48 48"
   version="1.1"
   id="svg4"
   sodipodi:docname="roccat.svg"
   width="48"
   height="48"
   inkscape:version="1.4 (unknown)"
   xmlns:inkscape="http://www.inkscape.org/namespaces/inkscape"
   xmlns:sodipodi="http://sodipodi.sourceforge.net/DTD/sodipodi-0.dtd"
   xmlns:xlink="http://www.w3.org/1999/xlink"
   xmlns="http://www.w3.org/2000/svg"
   xmlns:svg="http://www.w3.org/2000/svg">
  <defs
     id="defs4">
    <linearGradient
       id="linearGradient4"
       inkscape:collect="always">
      <stop
         style="stop-color:#223144;stop-opacity:1;"
         offset="0"
         id="stop4" />
      <stop
         style="stop-color:#6d89b2;stop-opacity:1;"
         offset="1"
         id="stop5" />
    </linearGradient>
    <linearGradient
       inkscape:collect="always"
       xlink:href="#linearGradient4"
       id="linearGradient5"
       x1="24"
       y1="46.763"
       x2="23.804522"
       y2="9.2077818"
       gradientUnits="userSpaceOnUse" />
  </defs>
  <sodipodi:namedview
     id="namedview4"
     pagecolor="#ffffff"
     bordercolor="#000000"
     borderopacity="0.25"
     inkscape:showpageshadow="2"
     inkscape:pageopacity="0.0"
     inkscape:pagecheckerboard="0"
     inkscape:deskcolor="#d1d1d1"
     inkscape:zoom="8.0520833"
     inkscape:cx="21.112549"
     inkscape:cy="27.011643"
     inkscape:window-width="1920"
     inkscape:window-height="996"
     inkscape:window-x="0"
     inkscape:window-y="0"
     inkscape:window-maximized="1"
     inkscape:current-layer="svg4" />
  <linearGradient
     id="a"
     x2="1"
     gradientTransform="matrix(0,-45.3332,-48.2116,0,24,46.7633)"
     gradientUnits="userSpaceOnUse">
    <stop
       stop-color="#222"
       offset="0"
       id="stop1" />
    <stop
       stop-color="#4f4f4f"
       offset="1"
       id="stop2" />
  </linearGradient>
  <g
     fill-rule="nonzero"
     id="g4"
     transform="matrix(0.92250923,0,0,0.92273217,1.8597785,1.8502756)">
    <path
       d="m 46.764,23.999 c 0,-0.866 -0.141,-2.562 -0.141,-2.562 C 43.349,16.032 33.166,4.71 25.198,2.433 24.18,2.143 21.899,1.307 20.88,1.446 9.755,2.958 1.236,12.447 1.236,23.999 c 0,7.868 3.951,14.778 9.985,18.864 3.639,2.464 9.304,0.87 14.048,0.87 2.985,0 6.3,-3.659 7.644,-5.715 2.469,-3.775 8.054,1.971 10.6,-2.257 2.065,-3.429 3.251,-7.452 3.251,-11.762 z"
       id="path2"
       style="fill:url(#linearGradient5);fill-opacity:1" />
    <path
       d="m 23.506,1.246 c -1.178,0.025 -2.336,0.133 -3.462,0.329 -0.032,0.027 7.813,2.014 10.75,4.051 2.241,1.58 4.105,4.608 5.328,7.01 0.678,1.332 0.087,1.336 -2.73,0.331 -2.173,-0.774 -4.632,-1.564 -4.801,-1.378 -0.069,0.077 -0.255,0.532 -0.411,1.012 -0.296,0.909 -1.056,1.869 -1.186,1.739 -0.041,-0.041 0.04,-0.618 0.18,-1.283 0.307,-1.447 0.324,-2.209 0.076,-3.365 -0.269,-1.253 -0.43,-1.33 -1.872,-0.901 -0.666,0.199 -2.103,0.557 -3.192,0.796 -3.259,0.717 -5.077,1.591 -7.098,2.806 -1.189,0.715 -1.447,0.745 -1.298,0.153 0.189,-0.755 -0.339,-0.511 -1.703,0.785 -1.287,1.222 -1.681,1.446 -1.681,0.958 0,-0.57 -0.342,-0.198 -1.003,1.089 -0.381,0.743 -0.913,1.938 -1.182,2.657 -0.396,1.058 -0.75,1.598 -1.859,2.836 -2.151,2.404 -2.233,2.913 -0.475,2.913 1.305,0 1.34,0.334 0.064,0.609 l -0.858,0.184 0.016,1.056 c 0.02,1.439 0.467,2.32 1.396,2.752 0.443,0.207 0.839,0.561 1.038,0.93 0.32,0.594 1.187,1.44 1.476,1.44 0.084,0 0.106,-0.38 0.051,-0.845 -0.111,-0.939 0.271,-2.001 0.827,-2.298 0.256,-0.137 0.402,-0.057 0.771,0.427 0.455,0.596 1.273,1.239 1.408,1.104 0.039,-0.038 -0.124,-0.57 -0.363,-1.18 -0.656,-1.673 -0.597,-1.927 0.305,-2.713 1.023,-0.891 2.11,-1.357 2.839,-1.22 1.12,0.21 3.372,2.013 3.616,2.984 0.146,0.583 -0.207,1.382 -0.849,1.923 -0.665,0.559 -1.875,1.294 -2.307,1.294 -0.182,0 -0.698,-0.323 -1.147,-0.719 -0.449,-0.395 -0.859,-0.675 -0.91,-0.624 -0.05,0.051 -0.006,0.392 0.096,0.76 0.102,0.368 0.186,0.77 0.187,0.889 0.002,0.385 -0.976,0.234 -2.003,-0.306 -0.547,-0.288 -1.025,-0.523 -1.063,-0.523 -0.319,0 0.865,4.068 1.419,4.804 0.411,0.546 0.827,0.842 1.353,0.876 0.699,0.046 1.592,-0.368 2.928,-1.263 2.218,-1.487 3.813,-2.835 6.033,-3.196 1.218,-0.198 1.844,0.046 2.73,1.072 1.218,1.408 3.999,8.163 3.715,8.905 -3.029,1.949 -6.357,2.414 -9.701,2.443 -3.501,0.1 -6.123,-0.661 -9.164,-1.539 3.89,3.103 8.825,4.953 14.21,4.953 8.77,0 16.34,-4.915 20.145,-12.146 -2.243,-1.159 -6.135,-2.928 -8.525,-3.78 -0.792,-0.282 -1.295,-0.55 -1.205,-0.64 0.324,-0.324 6.704,0.777 9.664,1.667 0.22,0.067 0.736,0.234 1.136,0.369 0.156,-0.405 0.315,-0.81 0.449,-1.227 -0.506,-0.264 -1.091,-0.575 -1.368,-0.724 -2.366,-1.279 -5.923,-2.569 -9.321,-3.384 -3.027,-0.726 -2.901,-0.684 -2.567,-0.871 0.619,-0.347 8.407,0.393 12.366,1.174 0.187,0.036 1.062,0.195 1.721,0.317 0.09,-0.585 0.153,-1.181 0.198,-1.78 -0.831,-0.386 -1.816,-0.775 -2.895,-1.165 -3.244,-1.174 -7.888,-1.831 -12.055,-2.069 -1.778,-0.102 -2.44,-0.457 -2.003,-0.64 2.789,-0.516 3.366,-1.279 8.666,-1.279 2.894,0.167 5.603,0.767 8.258,1.305 C 45.751,11.866 38.395,3.766 28.748,1.733 28.663,1.716 28.537,1.688 28.455,1.671 28.267,1.634 28.078,1.603 27.888,1.571 27.698,1.538 27.516,1.503 27.306,1.475 27.222,1.463 27.136,1.455 27.052,1.444 25.96,1.315 24.685,1.254 23.506,1.246 Z"
       id="path3"
       style="fill:#3385ff;fill-opacity:1" />
    <path
       d="m 12.349,17.171 c 0.087,0.004 0.155,0.022 0.195,0.059 0.393,0.363 -0.864,1.799 -1.782,2.034 -1.594,0.409 -1.959,0.132 -1.124,-0.847 0.482,-0.566 2.101,-1.274 2.711,-1.246 z"
       fill="#ffffff"
       id="path4" />
  </g>
</svg>
