<?xml version="1.0" encoding="UTF-8" standalone="no"?>
<svg
   width="48px"
   height="48px"
   viewBox="0 0 48 48"
   version="1.1"
   id="svg13"
   sodipodi:docname="shutter.svg"
   inkscape:version="1.2.2 (b0a8486541, 2022-12-01)"
   xmlns:inkscape="http://www.inkscape.org/namespaces/inkscape"
   xmlns:sodipodi="http://sodipodi.sourceforge.net/DTD/sodipodi-0.dtd"
   xmlns:xlink="http://www.w3.org/1999/xlink"
   xmlns="http://www.w3.org/2000/svg"
   xmlns:svg="http://www.w3.org/2000/svg">
  <defs
     id="defs17">
    <linearGradient
       id="linearGradient1029"
       y1="-514"
       x1="-398.07001"
       y2="-533.13"
       x2="-417.20001"
       gradientUnits="userSpaceOnUse">
      <stop
         stop-color="#b97c1b"
         id="stop1025"
         offset="0"
         style="stop-color:#100b02;stop-opacity:1;" />
      <stop
         offset="1"
         stop-color="#dc8f16"
         id="stop1027" />
    </linearGradient>
    <linearGradient
       id="linearGradient1413"
       y1="536.87"
       x1="421.64001"
       y2="511.82001"
       gradientUnits="userSpaceOnUse"
       x2="396.59"
       gradientTransform="rotate(180,408.57,523.8)">
      <stop
         stop-color="#f39c12"
         id="stop1409"
         offset="0"
         style="stop-color:#3fa3f5;stop-opacity:1;" />
      <stop
         offset="1"
         stop-color="#f5ab35"
         id="stop1411" />
    </linearGradient>
    <linearGradient
       id="linearGradient1407"
       y1="536.87"
       x1="421.64001"
       y2="511.82001"
       gradientUnits="userSpaceOnUse"
       x2="396.59"
       gradientTransform="rotate(180,408.57,523.8)">
      <stop
         stop-color="#f39c12"
         id="stop1403"
         offset="0"
         style="stop-color:#3fa3f5;stop-opacity:1;" />
      <stop
         offset="1"
         stop-color="#f5ab35"
         id="stop1405" />
    </linearGradient>
    <linearGradient
       spreadMethod="reflect"
       id="a"
       x1="428.57001"
       x2="408.57001"
       gradientUnits="userSpaceOnUse"
       gradientTransform="matrix(1.05,0,0,1.05,-404.99851,-525.98999)">
      <stop
         stop-color="#2f3943"
         id="stop2" />
      <stop
         offset="1"
         stop-color="#808c9b"
         id="stop4" />
    </linearGradient>
    <linearGradient
       id="b"
       y1="-511.20001"
       x1="-395.07001"
       y2="-535.79999"
       x2="-419.67001"
       gradientUnits="userSpaceOnUse"
       gradientTransform="matrix(1.05,0,0,1.05,404.99851,525.98999)">
      <stop
         stop-color="#18222a"
         id="stop7" />
      <stop
         offset="1"
         stop-color="#566069"
         id="stop9" />
    </linearGradient>
    <linearGradient
       id="c"
       y1="-514"
       x1="-398.07001"
       y2="-533.13"
       x2="-417.20001"
       gradientUnits="userSpaceOnUse">
      <stop
         stop-color="#b97c1b"
         id="stop12" />
      <stop
         offset="1"
         stop-color="#dc8f16"
         id="stop14" />
    </linearGradient>
    <linearGradient
       xlink:href="#c"
       id="g"
       y1="-516.79999"
       x1="-401.07001"
       y2="-541.29999"
       x2="-425.57001"
       gradientUnits="userSpaceOnUse"
       gradientTransform="matrix(1.05,0,0,1.05,404.99851,525.98999)" />
    <linearGradient
       id="d"
       y1="536.87"
       x1="421.64001"
       y2="511.82001"
       gradientUnits="userSpaceOnUse"
       x2="396.59"
       gradientTransform="rotate(180,408.57,523.8)">
      <stop
         stop-color="#f39c12"
         id="stop17" />
      <stop
         offset="1"
         stop-color="#f5ab35"
         id="stop19" />
    </linearGradient>
    <linearGradient
       xlink:href="#linearGradient1413"
       id="e"
       y1="532.22998"
       x1="417"
       y2="508.73001"
       gradientUnits="userSpaceOnUse"
       x2="393.5"
       gradientTransform="rotate(180,408.57,523.8)" />
    <linearGradient
       xlink:href="#d"
       id="f"
       y1="529.62"
       x1="414.39999"
       y2="506.91"
       gradientUnits="userSpaceOnUse"
       x2="391.69"
       gradientTransform="rotate(180,408.57,523.8)" />
  </defs>
  <sodipodi:namedview
     id="namedview15"
     pagecolor="#ffffff"
     bordercolor="#000000"
     borderopacity="0.25"
     inkscape:showpageshadow="2"
     inkscape:pageopacity="0.0"
     inkscape:pagecheckerboard="0"
     inkscape:deskcolor="#d1d1d1"
     showgrid="false"
     inkscape:zoom="4.9166667"
     inkscape:cx="-8.8474576"
     inkscape:cy="4.9830508"
     inkscape:window-width="1920"
     inkscape:window-height="1002"
     inkscape:window-x="0"
     inkscape:window-y="0"
     inkscape:window-maximized="1"
     inkscape:current-layer="svg13" />
  <rect
     width="42"
     x="2.9999976"
     y="2.9999971"
     fill="url(#a)"
     rx="21"
     height="42"
     id="rect27"
     style="fill:url(#a);stroke-width:2.94;stroke-opacity:0.55" />
  <rect
     width="37.799999"
     x="-42.899998"
     y="-42.899998"
     fill="url(#b)"
     rx="18.9"
     height="37.799999"
     transform="scale(-1)"
     id="rect29"
     style="fill:url(#b);stroke-width:2.94;stroke-opacity:0.55" />
  <rect
     width="31.5"
     x="-39.749996"
     y="-39.749996"
     fill="#26333a"
     rx="15.75"
     height="31.5"
     transform="matrix(0,-1,-1,0,0,0)"
     id="rect31"
     style="stroke-width:2.94;stroke-opacity:0.55" />
  <rect
     width="29.4"
     x="-38.699997"
     y="-38.699997"
     rx="14.7"
     height="29.4"
     transform="scale(-1)"
     id="rect33"
     style="fill:#8cc8f9;stroke-width:2.94;stroke-opacity:0.55;fill-opacity:1" />
  <rect
     width="21"
     x="-34.499996"
     y="-34.499996"
     rx="10.5"
     height="21"
     transform="scale(-1)"
     id="rect35"
     style="fill:#8cc8f9;stroke-width:2.94;stroke-opacity:0.55;fill-opacity:1" />
  <path
     d="m 23.999997,9.3 c -8.1438,0 -14.6999989,6.5562 -14.6999989,14.7 0,8.1438 6.5561989,14.7 14.6999989,14.7 8.1438,0 14.7,-6.5562 14.7,-14.7 0,-8.1438 -6.5562,-14.7 -14.7,-14.7 m 0,1.05 c 7.5621,0 13.65,6.0879 13.65,13.65 0,7.5621 -6.0879,13.65 -13.65,13.65 -7.5621,0 -13.65,-6.0879 -13.65,-13.65 0,-7.5621 6.0879,-13.65 13.65,-13.65"
     id="path37"
     style="fill:#3fa3f5;fill-opacity:1;stroke-width:2.94;stroke-opacity:0.55" />
  <path
     d="m 24.1,11.5 c -6.9804,0 -12.6,5.6196 -12.6,12.6 0,6.9804 5.6196,12.6 12.6,12.6 6.9804,0 12.6,-5.6196 12.6,-12.6 0,-6.9804 -5.6196,-12.6 -12.6,-12.6 m 0,3.15 c 5.2353,0 9.45,4.2105 9.45,9.45 0,5.2353 -4.2105,9.45 -9.45,9.45 -5.2353,0 -9.45,-4.2105 -9.45,-9.45 0,-5.2353 4.2105,-9.45 9.45,-9.45"
     id="path39"
     style="fill:#3fa3f5;fill-opacity:1;stroke-width:2.94;stroke-opacity:0.55" />
  <path
     d="m 23.99999,15.60001 c -1.2117,0 -2.35935,0.25935 -3.3978,0.7182 l 1.95615,4.893 1.3146,-0.3486 2.14725,-5.00955 c -0.64785,-0.1596 -1.32195,-0.252 -2.0202,-0.252 m 3.02715,0.56805 -2.07585,4.84155 1.18125,0.6804 5.0589,-2.0244 c -0.95445,-1.58655 -2.41395,-2.8245 -4.16535,-3.4986 m -7.3605,0.63945 c -1.58655,0.95445 -2.8245,2.41395 -3.4986,4.16535 l 4.84155,2.07585 0.6804,-1.18125 z m 12.01515,3.79365 -4.893,1.95615 0.3486,1.3146 5.00955,2.14725 c 0.1596,-0.64785 0.252,-1.32195 0.252,-2.0202 0,-1.2117 -0.25935,-2.35935 -0.7182,-3.3978 m -15.834,1.3776 c -0.1596,0.64785 -0.252,1.32195 -0.252,2.0202 0,1.2117 0.25935,2.35935 0.7182,3.3978 l 4.893,-1.95615 -0.3486,-1.3146 z m 11.13735,2.9715 -0.6804,1.18125 2.0244,5.0589 c 1.58655,-0.95445 2.8245,-2.41395 3.4986,-4.16535 z m -5.12295,1.35765 -5.0589,2.0244 c 0.95445,1.58655 2.41395,2.8245 4.16535,3.4986 l 2.07585,-4.84155 z m 3.5742,0.47985 -1.3146,0.3486 -2.14725,5.00955 c 0.64785,0.1596 1.32195,0.252 2.0202,0.252 1.2117,0 2.35935,-0.25935 3.3978,-0.7182 z"
     id="path41"
     style="fill:#3fa3f5;fill-opacity:1;stroke-width:2.94;stroke-opacity:0.55" />
  <circle
     fill="#2c3e50"
     cx="33.651173"
     cy="4.4230571"
     r="2.0999999"
     stroke-linecap="round"
     color="#000000"
     stroke-width="3.15"
     transform="rotate(37.5)"
     id="circle45"
     style="stroke-linejoin:round" />
  <path
     d="m 16.651492,13.49791 a 3.1499591,3.1499591 0 0 0 -3.15,3.15 3.1499591,3.1499591 0 0 0 3.15,3.15 3.1499591,3.1499591 0 0 0 3.15,-3.15 3.1499591,3.1499591 0 0 0 -3.15,-3.15"
     id="path47"
     style="fill:#a8cbfe;stroke-width:2.1;stroke-linejoin:round" />
  <path
     d="m 20.851492,19.27291 a 1.5749937,1.5749864 0 0 0 -1.575,1.575 1.5749937,1.5749864 0 0 0 1.575,1.575 1.5749937,1.5749864 0 0 0 1.575,-1.575 1.5749937,1.5749864 0 0 0 -1.575,-1.575"
     id="path49"
     style="fill:#a8cbfe;stroke-width:2.1;stroke-linejoin:round" />
</svg>
