<?xml version="1.0" encoding="UTF-8" standalone="no"?>
<!-- Created with Inkscape (http://www.inkscape.org/) -->

<svg
   width="48"
   height="48"
   viewBox="0 0 48 48"
   id="svg8694"
   version="1.1"
   inkscape:version="1.3.2 (091e20ef0f, 2023-11-25)"
   sodipodi:docname="system-file-manager.svg"
   xmlns:inkscape="http://www.inkscape.org/namespaces/inkscape"
   xmlns:sodipodi="http://sodipodi.sourceforge.net/DTD/sodipodi-0.dtd"
   xmlns:xlink="http://www.w3.org/1999/xlink"
   xmlns="http://www.w3.org/2000/svg"
   xmlns:svg="http://www.w3.org/2000/svg"
   xmlns:rdf="http://www.w3.org/1999/02/22-rdf-syntax-ns#"
   xmlns:cc="http://creativecommons.org/ns#"
   xmlns:dc="http://purl.org/dc/elements/1.1/">
  <style
     id="current-color-scheme"
     type="text/css">.ColorScheme-Highlight { color:#3daee9; }
</style>
  <defs
     id="defs8696">
    <linearGradient
       inkscape:collect="always"
       id="linearGradient881">
      <stop
         style="stop-color:#c83771;stop-opacity:1"
         offset="0"
         id="stop877" />
      <stop
         style="stop-color:#9978d3;stop-opacity:1;"
         offset="1"
         id="stop879" />
    </linearGradient>
    <linearGradient
       inkscape:collect="always"
       id="linearGradient3402">
      <stop
         style="stop-color:#9d7ed5;stop-opacity:1"
         offset="0"
         id="stop3398" />
      <stop
         style="stop-color:#c83771;stop-opacity:1"
         offset="1"
         id="stop3400" />
    </linearGradient>
    <linearGradient
       gradientTransform="matrix(1.049963,0,0,1.0499041,-452.98501,510.42443)"
       gradientUnits="userSpaceOnUse"
       x2="426.69501"
       y2="499.92099"
       y1="547.67499"
       id="a-6"
       x1="389.32001">
      <stop
         stop-color="#18222a"
         style="stop-color:#1e2b35;stop-opacity:1"
         id="stop216" />
      <stop
         stop-color="#566069"
         offset="1"
         style="stop-color:#6d7983;stop-opacity:1"
         id="stop218" />
    </linearGradient>
    <linearGradient
       inkscape:collect="always"
       id="linearGradient4393">
      <stop
         style="stop-color:#000000;stop-opacity:1;"
         offset="0"
         id="stop4395" />
      <stop
         style="stop-color:#000000;stop-opacity:0;"
         offset="1"
         id="stop4397" />
    </linearGradient>
    <linearGradient
       inkscape:collect="always"
       xlink:href="#linearGradient4393"
       id="linearGradient668-5"
       gradientUnits="userSpaceOnUse"
       gradientTransform="matrix(2.6051087,0,0,1.97785,2.8991868,-1008.0747)"
       x1="4.083674"
       y1="1037.1788"
       x2="8.7509537"
       y2="1051.1648" />
    <linearGradient
       inkscape:collect="always"
       xlink:href="#linearGradient3402"
       id="linearGradient3404"
       x1="24.6"
       y1="1081.3622"
       x2="24.6"
       y2="1056.3622"
       gradientUnits="userSpaceOnUse" />
    <linearGradient
       inkscape:collect="always"
       xlink:href="#linearGradient881"
       id="linearGradient883"
       x1="3.0000019"
       y1="1060.3622"
       x2="44.999998"
       y2="1060.3622"
       gradientUnits="userSpaceOnUse" />
  </defs>
  <sodipodi:namedview
     id="base"
     pagecolor="#ffffff"
     bordercolor="#666666"
     borderopacity="1.0"
     inkscape:pageopacity="0.0"
     inkscape:pageshadow="2"
     inkscape:zoom="8.8388348"
     inkscape:cx="24.777022"
     inkscape:cy="22.061731"
     inkscape:document-units="px"
     inkscape:current-layer="layer1"
     showgrid="true"
     units="px"
     inkscape:snap-bbox="true"
     inkscape:bbox-nodes="true"
     inkscape:object-nodes="true"
     inkscape:snap-global="true"
     inkscape:showpageshadow="true"
     showborder="true"
     inkscape:window-width="1920"
     inkscape:window-height="996"
     inkscape:window-x="0"
     inkscape:window-y="0"
     inkscape:window-maximized="1"
     inkscape:pagecheckerboard="0"
     inkscape:deskcolor="#d1d1d1">
    <inkscape:grid
       type="xygrid"
       id="grid417"
       originy="0"
       originx="-0.4"
       spacingy="1"
       spacingx="1"
       units="px"
       visible="true" />
  </sodipodi:namedview>
  <metadata
     id="metadata8699">
    <rdf:RDF>
      <cc:Work
         rdf:about="">
        <dc:format>image/svg+xml</dc:format>
        <dc:type
           rdf:resource="http://purl.org/dc/dcmitype/StillImage" />
      </cc:Work>
    </rdf:RDF>
  </metadata>
  <g
     inkscape:label="Livello 1"
     inkscape:groupmode="layer"
     id="layer1"
     transform="translate(0,-1036.3622)">
    <circle
       cx="24"
       cy="1060.3622"
       id="circle39"
       style="stroke-width:0.999997;fill-opacity:1;fill:url(#linearGradient883)"
       r="20.999998" />
    <path
       d="M 44.977445,1059.7511 A 21.000001,21 0 0 1 24.000003,1080.3122 21.000001,21 0 0 1 3.02256,1059.9233 21.000001,21 0 0 0 3,1060.3622 a 21.000001,21 0 0 0 21.000001,21 21.000001,21 0 0 0 20.999999,-21 21.000001,21 0 0 0 -0.02255,-0.6111 z"
       fill="#232629"
       opacity="0.2"
       id="path55"
       style="stroke-width:1.05001" />
    <path
       id="rect1078-6-7-0"
       style="fill:#bac8df;fill-opacity:1;stroke:none;stroke-width:1.5457"
       d="m 7.7210001,1049.3622 c -1.6210002,2.423 -3.6257011,6.751 -3.6260001,10.6883 2.54e-4,2.3757 0.652164,4.7227 1.9091551,6.8723 H 42.263002 c 1.256997,-2.1496 1.908899,-4.4966 1.909156,-6.8723 -3.02e-4,-3.9373 -1.623503,-7.7612 -3.924158,-10.6883 z"
       sodipodi:nodetypes="ccccccc" />
    <path
       id="path1076-3-7-6"
       style="fill:url(#linearGradient3404);fill-opacity:1;stroke:none;stroke-width:0.85581px;stroke-linecap:butt;stroke-linejoin:miter;stroke-opacity:1"
       d="m 25.733376,1050.3622 -5.235683,5.0619 L 3.6,1055.3621 c -0.3702621,0.8879 -0.599872,3.6766 -0.6,5.4888 9.69e-5,10.8136 9.86289,19.5113 21.047079,19.5113 11.184188,0 20.952827,-8.6977 20.952921,-19.5113 -4.01e-4,-3.6871 -0.670742,-7.5966 -2.499999,-10.4887 z"
       sodipodi:nodetypes="cccccccc" />
    <path
       style="opacity:0.3;fill:url(#linearGradient668-5);fill-opacity:1;fill-rule:evenodd;stroke:none;stroke-width:2.26988px;stroke-linecap:butt;stroke-linejoin:miter;stroke-opacity:1"
       d="m 3.6,1055.3622 19.467732,16 h 18.558522 c 3.025288,-4.8191 4.039657,-9.2821 2.736746,-16 z"
       id="path4152-2-3"
       inkscape:connector-curvature="0"
       sodipodi:nodetypes="ccccc" />
    <path
       d="m 40.854899,1063.3003 c 0.0346,-0.8129 -0.727851,-1.6503 -1.03799,-1.9539 -1.714091,-4.9316 -7.868505,-3.2077 -9.070205,-2.8162 -3.131118,-2.2624 -5.542894,0.147 -5.56448,0.171 -0.116137,0.117 -0.167804,0.3 -0.133469,0.4749 0.03454,0.171 0.150895,0.3085 0.301538,0.3573 0.964804,0.3136 1.692653,1.3765 1.998318,1.8907 -2.248129,2.9921 -2.329937,7.2573 -2.308437,8.3547 -2.803803,2.6395 -1.916545,5.3576 -1.873567,5.4749 0.0603,0.1711 0.198179,0.2941 0.361857,0.3085 0.01174,0 0.02603,0 0.0385,0 0.146531,0 0.288671,-0.09 0.366155,-0.2341 0.512549,-0.9399 1.154321,-1.5081 1.90364,-1.6893 1.339358,-0.3231 2.64005,0.6612 2.652973,0.6708 0.09895,0.078 0.223929,0.108 0.344481,0.072 0.116422,-0.036 0.219599,-0.123 0.275606,-0.246 0.676117,-1.4152 -0.370437,-3.2173 -0.758104,-3.8099 0.495213,-2.3901 1.709827,-3.7759 2.661558,-4.525 l -0.193676,0.3663 c -0.06032,0.123 -0.07748,0.2639 -0.03903,0.3966 0.03449,0.1379 0.120675,0.246 0.232682,0.3036 0.421967,0.2101 1.012029,0.231 1.761523,0.054 0.624601,-0.153 1.227506,-0.519 1.744346,-1.0627 0.676099,-0.705 1.429906,-0.759 1.429906,-0.759 h 4.281115 c 0.09907,0 0.189509,-0.039 0.267014,-0.102 0.366161,-0.3282 0.469408,-0.6858 0.49518,-0.9304 0.03479,-0.324 -0.05553,-0.5981 -0.13734,-0.7745 z m -3.027694,-0.5288 h -0.23692 c -0.236923,0 -0.430792,-0.2191 -0.430792,-0.49 0,-0.27 0.193809,-0.4899 0.430792,-0.4899 h 0.23692 c 0.241181,0 0.430755,0.219 0.430755,0.4899 0,0.27 -0.189455,0.49 -0.430755,0.49 z"
       id="path49-5-3-5-5"
       style="fill:#bac8df;fill-opacity:1;stroke-width:0.0451069"
       class=" " />
  </g>
</svg>
