<?xml version="1.0" encoding="UTF-8" standalone="no"?>
<svg
   width="48"
   height="48"
   version="1.1"
   id="svg43"
   sodipodi:docname="system-software-update.svg"
   inkscape:version="1.2.1 (9c6d41e410, 2022-07-14)"
   xmlns:inkscape="http://www.inkscape.org/namespaces/inkscape"
   xmlns:sodipodi="http://sodipodi.sourceforge.net/DTD/sodipodi-0.dtd"
   xmlns:xlink="http://www.w3.org/1999/xlink"
   xmlns="http://www.w3.org/2000/svg"
   xmlns:svg="http://www.w3.org/2000/svg">
  <sodipodi:namedview
     id="namedview45"
     pagecolor="#ffffff"
     bordercolor="#666666"
     borderopacity="1.0"
     inkscape:showpageshadow="2"
     inkscape:pageopacity="0.0"
     inkscape:pagecheckerboard="0"
     inkscape:deskcolor="#d1d1d1"
     showgrid="false"
     inkscape:zoom="4.9166667"
     inkscape:cx="24"
     inkscape:cy="24"
     inkscape:window-width="1920"
     inkscape:window-height="1011"
     inkscape:window-x="0"
     inkscape:window-y="0"
     inkscape:window-maximized="1"
     inkscape:current-layer="svg43" />
  <defs
     id="defs23">
    <linearGradient
       id="a"
       y1="543.8"
       y2="503.8"
       x2="0"
       gradientUnits="userSpaceOnUse">
      <stop
         stop-color="#c6cdd1"
         id="stop2" />
      <stop
         offset="1"
         stop-color="#e0e5e7"
         id="stop4" />
    </linearGradient>
    <linearGradient
       id="b"
       y1="13"
       y2="33"
       x2="0"
       gradientUnits="userSpaceOnUse"
       gradientTransform="translate(384.57 499.8)">
      <stop
         stop-color="#f67400"
         id="stop7" />
      <stop
         offset="1"
         stop-color="#fdbc4b"
         id="stop9" />
    </linearGradient>
    <linearGradient
       xlink:href="#b"
       id="c"
       y1="42"
       y2="6"
       gradientUnits="userSpaceOnUse"
       x2="0" />
    <linearGradient
       id="d"
       y1="539.8"
       x1="410.57"
       y2="523.8"
       x2="428.57"
       gradientUnits="userSpaceOnUse">
      <stop
         stop-color="#f67400"
         id="stop13" />
      <stop
         offset="1"
         stop-color="#f67400"
         stop-opacity="0"
         id="stop15" />
    </linearGradient>
    <linearGradient
       id="e"
       y1="520.8"
       x1="402.57"
       y2="536.8"
       x2="418.57"
       gradientUnits="userSpaceOnUse">
      <stop
         stop-color="#292c2f"
         id="stop18" />
      <stop
         offset="1"
         stop-opacity="0"
         id="stop20" />
    </linearGradient>
    <linearGradient
       inkscape:collect="always"
       xlink:href="#b"
       id="linearGradient220"
       gradientUnits="userSpaceOnUse"
       gradientTransform="translate(384.57,499.8)"
       y1="13"
       x2="0"
       y2="33" />
  </defs>
  <g
     transform="matrix(1.0499473,0,0,1.0499997,-404.97592,-525.98984)"
     id="g41">
    <g
       stroke-opacity="0.55"
       stroke-width="2.8"
       id="g37">
      <rect
         width="40"
         x="388.57001"
         y="503.79999"
         fill="url(#a)"
         rx="20"
         height="40"
         id="rect25"
         style="fill:url(#a)" />
      <path
         fill="url(#b)"
         d="m 408.57,512.8 -9,9 h 5 v 11 h 8 v -11 h 5 z"
         id="path27"
         style="fill:url(#linearGradient220)" />
      <path
         opacity="0.5"
         fill="#808080"
         d="M 24,42 C 33.972,42 42,33.97 42,24 42,14.028 33.97,6 24,6 v 2 c 8.864,0 16,7.136 16,16 0,8.864 -7.136,16 -16,16 z"
         transform="translate(384.57,499.8)"
         id="path29" />
      <path
         fill="url(#d)"
         d="m 408.57,505.8 c -9.972,0 -18,8.03 -18,18 0,9.972 8.03,18 18,18 9.972,0 18,-8.03 18,-18 0,-9.972 -8.03,-18 -18,-18 m 0,2 c 8.864,0 16,7.136 16,16 0,8.864 -7.136,16 -16,16 -8.864,0 -16,-7.136 -16,-16 0,-8.864 7.136,-16 16,-16"
         id="path31"
         style="fill:url(#d)" />
      <path
         fill="url(#c)"
         d="M 24,42 V 40 C 15.136,40 8,32.864 8,24 8,15.136 15.136,8 24,8 V 6 C 14.028,6 6,14.03 6,24 c 0,9.972 8.03,18 18,18"
         transform="translate(384.57,499.8)"
         id="path33"
         style="fill:url(#c)" />
      <path
         fill="#99a1a7"
         d="m 4.01,23.5 c -0.004,0.167 -0.012,0.332 -0.012,0.5 0,11.08 8.92,20 20,20 11.08,0 20,-8.92 20,-20 0,-0.168 -0.008,-0.333 -0.012,-0.5 C 43.722,34.347 34.906,43 23.998,43 13.086,43 4.274,34.347 4.01,23.5"
         transform="translate(384.57,499.8)"
         id="path35" />
    </g>
    <path
       opacity="0.2"
       fill="url(#e)"
       fill-rule="evenodd"
       d="m 412.57,521.8 v 11 h -8 l 10.06,10.06 c 5.685,-1.796 10.248,-6.05 12.467,-11.533 l -9.531,-9.531 z"
       id="path39"
       style="fill:url(#e)" />
  </g>
</svg>
