<?xml version="1.0" encoding="UTF-8" standalone="no"?>
<svg
   height="48"
   width="48"
   version="1.1"
   id="svg25"
   sodipodi:docname="telegram.svg"
   inkscape:version="1.2.1 (9c6d41e410, 2022-07-14)"
   xmlns:inkscape="http://www.inkscape.org/namespaces/inkscape"
   xmlns:sodipodi="http://sodipodi.sourceforge.net/DTD/sodipodi-0.dtd"
   xmlns:xlink="http://www.w3.org/1999/xlink"
   xmlns="http://www.w3.org/2000/svg"
   xmlns:svg="http://www.w3.org/2000/svg">
  <defs
     id="defs29" />
  <sodipodi:namedview
     id="namedview27"
     pagecolor="#ffffff"
     bordercolor="#666666"
     borderopacity="1.0"
     inkscape:showpageshadow="2"
     inkscape:pageopacity="0.0"
     inkscape:pagecheckerboard="0"
     inkscape:deskcolor="#d1d1d1"
     showgrid="false"
     inkscape:zoom="4.9166667"
     inkscape:cx="24"
     inkscape:cy="24"
     inkscape:window-width="1920"
     inkscape:window-height="1011"
     inkscape:window-x="0"
     inkscape:window-y="0"
     inkscape:window-maximized="1"
     inkscape:current-layer="svg25" />
  <linearGradient
     id="a"
     gradientUnits="userSpaceOnUse"
     x1="-20"
     x2="-20"
     xlink:href="#b"
     y1="44"
     y2="4"
     gradientTransform="matrix(1.0499999,0,0,1.0499999,-1.1999973,-1.1999973)" />
  <linearGradient
     id="b"
     gradientUnits="userSpaceOnUse"
     x2="0"
     y1="543.79999"
     y2="503.79999">
    <stop
       offset="0"
       stop-color="#197cf1"
       id="stop3" />
    <stop
       offset="1"
       stop-color="#20bcfa"
       id="stop5" />
  </linearGradient>
  <linearGradient
     id="c"
     gradientUnits="userSpaceOnUse"
     x1="19"
     x2="44"
     y1="19"
     y2="44"
     gradientTransform="matrix(1.0499999,0,0,1.0499999,-1.1999973,-1.1999973)">
    <stop
       offset="0"
       stop-color="#292c2f"
       id="stop8" />
    <stop
       offset="1"
       stop-color="#292c2f"
       stop-opacity="0"
       id="stop10" />
  </linearGradient>
  <circle
     cx="24"
     cy="24"
     fill="url(#a)"
     r="21"
     id="circle13"
     style="fill:url(#a);stroke-width:1.05" />
  <path
     d="m 3.0126046,23.475003 c -0.0042,0.175348 -0.0126,0.3486 -0.0126,0.525 0,11.634 9.3660004,21 21.0000014,21 11.634,0 21.000001,-9.366 21.000001,-21 0,-0.1764 -0.0082,-0.349652 -0.0126,-0.525 -0.2772,11.389352 -9.534001,20.475 -20.987401,20.475 -11.457601,0 -20.7102015,-9.085648 -20.9874014,-20.475"
     fill="#0c69cf"
     stroke-opacity="0.55"
     stroke-width="2.94"
     id="path15" />
  <path
     d="m 33.761711,14.765339 -23.173822,9.425391 8.658404,8.660449 c -0.137044,0.178491 -0.279932,0.365991 -0.416314,0.543458 l 10.752252,10.75225 A 21,21 0 0 0 44.819529,25.839562 Z"
     fill="url(#c)"
     opacity="0.2"
     id="path17"
     style="fill:url(#c);stroke-width:1.05" />
  <path
     d="m 16.524571,26.394252 1.919993,6.255248 c 0,0 0.202507,0.612017 0.387553,0.756542 0.185043,0.144522 0.371419,0.159131 0.371419,0.159131 l 12.812133,-16.484231 -2.08883,-0.684951 z"
     fill="#bed6e8"
     id="path19"
     style="stroke-width:1.05" />
  <path
     d="m 19.67249,27.738982 -0.647102,5.664728 c 0,0 -0.0028,0.13532 0.184086,0.16735 0.187024,0.03203 0.361763,-0.167685 0.361763,-0.167685 l 3.574965,-3.142048 z"
     fill="#9dbfd6"
     id="path21"
     style="stroke-width:1.05" />
  <path
     d="m 10.852684,22.961067 c 0,0 -0.527963,0.266105 -0.501738,0.726976 0.02623,0.460879 0.501678,0.708327 0.501678,0.708327 l 5.671947,1.997882 13.036996,-8.409047 c 0,0 0.252111,-0.110116 0.373158,0.03671 0.121036,0.146831 -0.09226,0.342242 -0.09226,0.342242 l -10.169984,9.374808 8.692101,6.464958 c 0,0 0.462751,0.335816 0.973727,0.292151 0.510983,-0.04367 0.788386,-0.715681 0.788386,-0.715681 l 0.323043,-1.151819 1.116114,-4.554601 0.903569,-4.147383 0.516404,-2.556702 0.701602,-4.128002 0.264357,-1.579857 c 0,0 0.18422,-0.662866 -0.282816,-0.964822 -0.467036,-0.301969 -1.12126,-0.04584 -1.12126,-0.04584 z"
     fill="#f1f7fc"
     id="path23"
     style="stroke-width:1.05" />
</svg>
