<?xml version="1.0" encoding="UTF-8" standalone="no"?>
<svg
   width="48"
   height="48"
   version="1.1"
   id="svg4"
   sodipodi:docname="thunderbolt.svg"
   inkscape:version="1.4 (unknown)"
   xmlns:inkscape="http://www.inkscape.org/namespaces/inkscape"
   xmlns:sodipodi="http://sodipodi.sourceforge.net/DTD/sodipodi-0.dtd"
   xmlns="http://www.w3.org/2000/svg"
   xmlns:svg="http://www.w3.org/2000/svg">
  <defs
     id="defs4" />
  <sodipodi:namedview
     id="namedview4"
     pagecolor="#ffffff"
     bordercolor="#000000"
     borderopacity="0.25"
     inkscape:showpageshadow="2"
     inkscape:pageopacity="0.0"
     inkscape:pagecheckerboard="0"
     inkscape:deskcolor="#d1d1d1"
     inkscape:zoom="17.136364"
     inkscape:cx="21.387268"
     inkscape:cy="18.586207"
     inkscape:window-width="1920"
     inkscape:window-height="998"
     inkscape:window-x="0"
     inkscape:window-y="0"
     inkscape:window-maximized="1"
     inkscape:current-layer="svg4" />
  <g
     id="g4"
     transform="matrix(0.78431373,0,0,0.78571429,3.2156862,1.9999999)">
    <ellipse
       style="opacity:0.2;stroke-width:2.54773"
       cx="26.5"
       cy="29.272728"
       id="circle1"
       rx="25.5"
       ry="25.454546" />
    <ellipse
       style="fill:#127bca;stroke-width:2.54773"
       cx="26.5"
       cy="28"
       id="circle2"
       rx="25.5"
       ry="25.454546" />
    <path
       style="opacity:0.2;fill:#ffffff;stroke-width:2.54773"
       d="M 26.5,2.5454545 A 25.5,25.454545 0 0 0 1,28 25.5,25.454545 0 0 0 1.0274125,28.740727 25.5,25.454545 0 0 1 26.5,3.8181818 25.5,25.454545 0 0 1 51.973226,28.532 25.5,25.454545 0 0 0 52,28 25.5,25.454545 0 0 0 26.5,2.5454545 Z"
       id="path2" />
    <path
       style="opacity:0.2;stroke-width:2.54773"
       d="M 26.305762,1.2727273 14.59668,29.272727 H 26.19619 L 19.477539,42.372868 16.145606,38.405541 14.656445,56 h 1.419434 L 29.269142,45.007813 23.750781,44.436079 38.059668,21.636364 H 27.665429 L 38.453125,1.2727273 Z"
       id="path3" />
    <path
       style="fill:#ffffff;stroke-width:2.54773"
       d="M 26.305991,0 14.59597,28 H 26.196325 L 19.476624,41.100411 16.143498,37.130584 14.544955,56 29.267079,43.734032 23.752356,43.161715 38.061483,20.363636 H 27.66535 L 38.455045,0 Z"
       id="path4" />
  </g>
</svg>
