<?xml version="1.0" encoding="UTF-8" standalone="no"?>
<svg
   width="48"
   height="48"
   version="1.1"
   id="svg45"
   sodipodi:docname="tor-browser.svg"
   inkscape:version="1.2.1 (9c6d41e410, 2022-07-14)"
   xmlns:inkscape="http://www.inkscape.org/namespaces/inkscape"
   xmlns:sodipodi="http://sodipodi.sourceforge.net/DTD/sodipodi-0.dtd"
   xmlns="http://www.w3.org/2000/svg"
   xmlns:svg="http://www.w3.org/2000/svg">
  <sodipodi:namedview
     id="namedview47"
     pagecolor="#ffffff"
     bordercolor="#666666"
     borderopacity="1.0"
     inkscape:showpageshadow="2"
     inkscape:pageopacity="0.0"
     inkscape:pagecheckerboard="0"
     inkscape:deskcolor="#d1d1d1"
     showgrid="false"
     inkscape:zoom="4.9166667"
     inkscape:cx="24"
     inkscape:cy="24"
     inkscape:window-width="1920"
     inkscape:window-height="1011"
     inkscape:window-x="0"
     inkscape:window-y="0"
     inkscape:window-maximized="1"
     inkscape:current-layer="svg45" />
  <defs
     id="defs17">
    <linearGradient
       id="a"
       y1="8.318"
       y2="37.24"
       x1="11.825"
       x2="38.882"
       gradientUnits="userSpaceOnUse">
      <stop
         id="stop2" />
      <stop
         offset="1"
         stop-opacity="0"
         id="stop4" />
    </linearGradient>
    <linearGradient
       id="b"
       y1="43.943"
       y2="3.77"
       x2="0"
       gradientUnits="userSpaceOnUse">
      <stop
         stop-color="#663579"
         id="stop7" />
      <stop
         offset="1"
         stop-color="#16a085"
         id="stop9" />
    </linearGradient>
    <linearGradient
       id="c"
       y1="35.601"
       x1="37.46"
       y2="21.467"
       x2="23.68"
       gradientUnits="userSpaceOnUse">
      <stop
         stop-color="#735a93"
         id="stop12" />
      <stop
         offset="1"
         stop-color="#8b6cb1"
         id="stop14" />
    </linearGradient>
  </defs>
  <g
     image-rendering="optimizeSpeed"
     id="g35"
     transform="matrix(1.0498688,0,0,1.05,-1.1952757,-1.2)">
    <path
       fill="url(#b)"
       d="m 43.39,18.915 c -0.047,-0.184 -0.1,-0.381 -0.155,-0.576 -0.106,-0.371 -0.227,-0.746 -0.358,-1.117 -0.273,-0.773 -0.6,-1.528 -0.981,-2.273 C 41.735,14.635 41.559,14.316 41.375,14 40.515,12.538 39.434,11.153 38.14,9.858 36.49,8.208 34.693,6.905 32.737,5.945 31.072,5.127 29.286,4.566 27.392,4.263 26.703,4.153 26.002,4.077 25.271,4.036 24.86,4.013 24.43,4 23.996,4 23.6,4 23.208,4.011 22.814,4.032 22.53,4.047 22.248,4.066 21.964,4.093 19.555,4.313 17.311,4.932 15.229,5.957 13.297,6.906 11.504,8.207 9.854,9.857 6.072,13.639 4.121,18.183 4.002,23.48 q -0.006,0.258 -0.006,0.519 c 0,5.523 1.953,10.239 5.858,14.14 3.612,3.612 7.917,5.553 12.911,5.822 0.015,0.002 0.032,0.002 0.049,0.004 0.006,0 0.011,0 0.017,0 0.36,0.019 0.703,0.03 1.038,0.03 0.051,0 0.089,0 0.127,0 0.436,0 0.869,-0.013 1.275,-0.034 0.106,-0.006 0.201,-0.013 0.294,-0.019 0.856,-0.061 1.691,-0.172 2.487,-0.326 0.337,-0.066 0.669,-0.14 0.992,-0.218 3.424,-0.86 6.447,-2.61 9.1,-5.258 0.258,-0.258 0.508,-0.519 0.742,-0.775 1.689,-1.858 2.956,-3.881 3.807,-6.081 0.386,-0.994 0.684,-2.023 0.903,-3.095 0.22,-1.093 0.352,-2.231 0.392,-3.409 0.008,-0.256 0.013,-0.519 0.013,-0.784 0,-0.028 0,-0.057 0,-0.085 0,-0.015 0,-0.028 0,-0.042 0,-0.131 -0.002,-0.263 -0.004,-0.396 -0.036,-1.576 -0.235,-3.093 -0.602,-4.561"
       id="path19"
       style="fill:url(#b)" />
    <path
       opacity="0.2"
       fill="url(#a)"
       d="M 43.911,26.02 27.99,9 25.787,10.974 22.32,7.543 l -1.268,3.786 2.99,3.098 -9.43,23.809 5.394,5.394 C 32.837,39.948 42.607,37.121 43.911,26.017"
       id="path21"
       style="fill:url(#a)" />
    <path
       fill="#442c58"
       stroke-width="3.067"
       d="m 4.01,23.5 c -0.004,0.167 -0.012,0.332 -0.012,0.5 0,11.08 8.92,20 20,20 11.08,0 20,-8.92 20,-20 0,-0.168 -0.008,-0.333 -0.012,-0.5 C 43.721,34.346 34.906,43 23.998,43 13.086,43 4.274,34.346 4.01,23.5"
       id="path23" />
    <path
       fill="#fdfcdf"
       d="m 21,13 c -0.65,1.696 -0.766,3.177 -2.43,4.203 C 14.303,19.268 11.006,23.927 11,29 c 0,7.18 5.82,13 13,13 V 39 C 18.477,39 14,34.523 14,29 14,23.477 18.477,19 24,19 v -5 c -1.216,-0.093 -2.12,-0.485 -3,-1"
       id="path25" />
    <path
       fill="url(#c)"
       d="m 27,13 c -0.783,0.421 -1.972,1.076 -3,1 V 42 A 13,13 0 0 0 37,29 13,13 0 0 0 29.322266,17.15625 c -1.28,-0.864 -2.135,-2.4 -2.322,-4.156"
       id="path27"
       style="fill:url(#c)" />
    <g
       fill="#78af52"
       id="g33">
      <path
         d="M 20.428,6 C 20.41,6.055 20.393,6.11 20.38,6.157 Q 18.821,11.314 23.655,13 C 24.598,10.365 23.607,8.091 20.671,6.157 20.601,6.11 20.515,6.055 20.427,6"
         id="path29" />
      <path
         d="m 25.04,13 c -0.249,-2.02 0.742,-3.361 2.963,-4 -0.242,2.223 -1.228,3.554 -2.963,4"
         id="path31" />
    </g>
  </g>
  <g
     stroke-width="2"
     id="g43"
     transform="matrix(1.0498688,0,0,1.05,-1.1952757,-1.2)">
    <path
       fill="#eaeace"
       d="M 24,19 A 10,10 0 0 0 14,29 10,10 0 0 0 24,39 v -3 a 7,7 0 0 1 -7,-7 7,7 0 0 1 7,-7 z"
       id="path37" />
    <path
       fill="#d1d1b8"
       d="m 24,22 a 7,7 0 0 0 -7,7 7,7 0 0 0 7,7 v -3 a 4,4 0 0 1 -4,-4 4,4 0 0 1 4,-4 z"
       id="path39" />
    <path
       fill="#bfbfa9"
       d="m 24,25 a 4,4 0 0 0 -4,4 4,4 0 0 0 4,4 z"
       id="path41" />
  </g>
</svg>
