<?xml version="1.0" encoding="UTF-8" standalone="no"?>
<svg
   width="48"
   height="48"
   viewBox="0 0 48 48"
   version="1.1"
   id="svg47"
   sodipodi:docname="utilities-energy-monitor.svg"
   inkscape:version="1.2.1 (9c6d41e410, 2022-07-14)"
   xmlns:inkscape="http://www.inkscape.org/namespaces/inkscape"
   xmlns:sodipodi="http://sodipodi.sourceforge.net/DTD/sodipodi-0.dtd"
   xmlns="http://www.w3.org/2000/svg"
   xmlns:svg="http://www.w3.org/2000/svg">
  <sodipodi:namedview
     id="namedview49"
     pagecolor="#ffffff"
     bordercolor="#666666"
     borderopacity="1.0"
     inkscape:showpageshadow="2"
     inkscape:pageopacity="0.0"
     inkscape:pagecheckerboard="0"
     inkscape:deskcolor="#d1d1d1"
     showgrid="false"
     inkscape:zoom="4.9166667"
     inkscape:cx="24"
     inkscape:cy="24"
     inkscape:window-width="1920"
     inkscape:window-height="1011"
     inkscape:window-x="0"
     inkscape:window-y="0"
     inkscape:window-maximized="1"
     inkscape:current-layer="svg47" />
  <defs
     id="defs27">
    <linearGradient
       id="a"
       y1="40"
       y2="17"
       x2="0"
       gradientUnits="userSpaceOnUse"
       gradientTransform="matrix(0.95455,0,0,0.97826,1.091,4.87)">
      <stop
         stop-color="#16a085"
         id="stop2" />
      <stop
         offset="1"
         stop-color="#2ecc71"
         id="stop4" />
    </linearGradient>
    <linearGradient
       spreadMethod="reflect"
       id="b"
       y1="526.8"
       x1="418.57"
       y2="525.8"
       x2="434.57"
       gradientUnits="userSpaceOnUse"
       gradientTransform="matrix(0.95455,0,0,0.97826,-366,-484.06)">
      <stop
         stop-color="#c9ce3b"
         id="stop7" />
      <stop
         offset="1"
         stop-color="#c9ce3b"
         stop-opacity="0"
         id="stop9" />
    </linearGradient>
    <linearGradient
       id="c"
       y1="31"
       y2="17"
       x2="0"
       gradientUnits="userSpaceOnUse">
      <stop
         stop-color="#bcfd93"
         id="stop12" />
      <stop
         offset="1"
         stop-color="#edffda"
         id="stop14" />
    </linearGradient>
    <linearGradient
       id="d"
       y1="16.998"
       x1="23"
       y2="31.998"
       x2="38"
       gradientUnits="userSpaceOnUse">
      <stop
         stop-color="#292c2f"
         id="stop17" />
      <stop
         offset="1"
         stop-opacity="0"
         id="stop19" />
    </linearGradient>
    <linearGradient
       id="e"
       y1="552.07"
       y2="429.4"
       gradientUnits="userSpaceOnUse"
       x2="0">
      <stop
         stop-color="#34495e"
         id="stop22" />
      <stop
         offset="1"
         stop-color="#1c7865"
         id="stop24" />
    </linearGradient>
  </defs>
  <g
     transform="matrix(0.34238201,0,0,0.34238201,-131.45342,-144.01883)"
     id="g45">
    <rect
       width="122.67"
       x="392.70001"
       y="429.39999"
       stroke-opacity="0.55"
       fill="url(#e)"
       rx="61.330002"
       height="122.67"
       stroke-width="8.587"
       id="rect29"
       style="fill:url(#e)" />
    <g
       fill-rule="evenodd"
       id="g41">
      <g
         stroke-width="0.326"
         id="g35">
        <path
           fill="url(#a)"
           d="m 13.723,22.416 c -0.368,-0.019 -0.76,0.001 -1.178,0.063 -4.302,0.63 -4.655,5.31 -7.158,8.828 C 8.296,38.748 15.505,44 24,44 30.59,44 36.398,40.83 40.04,35.94 32.557,26.584 30.236,37.211 24,34.215 19.526,31.464 19.246,22.694 13.723,22.414"
           transform="matrix(3.06667,0,0,3.06667,380.44,417.13)"
           id="path31"
           style="fill:url(#a)" />
        <path
           fill="url(#b)"
           d="m 13.707,22.416 c -0.179,-0.008 -0.365,-0.008 -0.555,0.002 -0.196,0.01 -0.399,0.03 -0.607,0.061 -4.302,0.63 -4.655,5.31 -7.158,8.828 0.081,0.207 0.155,0.417 0.242,0.621 2.287,-3.47 2.758,-7.862 6.916,-8.471 6.682,-0.978 6.682,8.804 11.455,11.738 6.126,2.944 8.473,-7.273 15.656,1.258 0.132,-0.166 0.254,-0.341 0.381,-0.512 -7.483,-9.356 -9.804,1.271 -16.04,-1.725 C 19.518,31.462 19.244,22.677 13.704,22.415"
           transform="matrix(3.06667,0,0,3.06667,380.44,417.13)"
           id="path33"
           style="fill:url(#b)" />
      </g>
      <path
         opacity="0.2"
         fill="url(#d)"
         d="m 25,17 -2,14 10.576,10.576 c 3.379,-1.838 6.162,-4.621 8,-8 z"
         transform="matrix(3.06667,0,0,3.06667,380.44,417.13)"
         id="path37"
         style="fill:url(#d)" />
      <path
         fill="url(#c)"
         d="m 25,17 -5,8 h 3 v 6 l 5,-8 h -3 z"
         transform="matrix(3.06667,0,0,3.06667,380.44,417.13)"
         id="path39"
         style="fill:url(#c)" />
    </g>
    <path
       fill="#128269"
       stroke-width="3.067"
       d="m 392.74,489.2 c -0.012,0.511 -0.036,1.019 -0.036,1.533 0,33.979 27.355,61.33 61.33,61.33 33.979,0 61.33,-27.355 61.33,-61.33 0,-0.514 -0.024,-1.023 -0.036,-1.533 -0.812,33.26 -27.834,59.8 -61.3,59.8 -33.464,0 -60.49,-26.539 -61.3,-59.8"
       id="path43" />
  </g>
</svg>
