<?xml version="1.0" encoding="UTF-8" standalone="no"?>
<svg
   height="48"
   viewBox="0 0 48 48"
   width="48"
   version="1.1"
   id="svg57"
   sodipodi:docname="virt-manager.svg"
   inkscape:version="1.2.1 (9c6d41e410, 2022-07-14)"
   xmlns:inkscape="http://www.inkscape.org/namespaces/inkscape"
   xmlns:sodipodi="http://sodipodi.sourceforge.net/DTD/sodipodi-0.dtd"
   xmlns:xlink="http://www.w3.org/1999/xlink"
   xmlns="http://www.w3.org/2000/svg"
   xmlns:svg="http://www.w3.org/2000/svg">
  <defs
     id="defs61">
    <linearGradient
       inkscape:collect="always"
       id="linearGradient1169">
      <stop
         style="stop-color:#7fbbcc;stop-opacity:1;"
         offset="0"
         id="stop1165" />
      <stop
         style="stop-color:#d39298;stop-opacity:1;"
         offset="1"
         id="stop1167" />
    </linearGradient>
    <linearGradient
       inkscape:collect="always"
       xlink:href="#linearGradient1169"
       id="linearGradient1171"
       x1="3"
       y1="44.999996"
       x2="44.999996"
       y2="3"
       gradientUnits="userSpaceOnUse" />
  </defs>
  <sodipodi:namedview
     id="namedview59"
     pagecolor="#ffffff"
     bordercolor="#666666"
     borderopacity="1.0"
     inkscape:showpageshadow="2"
     inkscape:pageopacity="0.0"
     inkscape:pagecheckerboard="0"
     inkscape:deskcolor="#d1d1d1"
     showgrid="false"
     inkscape:zoom="4.9166667"
     inkscape:cx="24"
     inkscape:cy="24.101695"
     inkscape:window-width="1920"
     inkscape:window-height="1000"
     inkscape:window-x="0"
     inkscape:window-y="0"
     inkscape:window-maximized="1"
     inkscape:current-layer="svg57" />
  <linearGradient
     id="a">
    <stop
       offset="0"
       stop-color="#292c2f"
       id="stop2" />
    <stop
       offset="1"
       stop-opacity="0"
       id="stop4" />
  </linearGradient>
  <linearGradient
     id="b"
     gradientTransform="matrix(3.0000004,0,0,2.9399947,-1271.6143,-1529.1932)"
     gradientUnits="userSpaceOnUse"
     x1="428.37143"
     x2="428.37143"
     y1="530.79797"
     y2="525.79797">
    <stop
       offset="0"
       stop-color="#da4453"
       id="stop7" />
    <stop
       offset="1"
       stop-color="#fa4e5f"
       id="stop9" />
  </linearGradient>
  <linearGradient
     id="c"
     gradientUnits="userSpaceOnUse"
     x1="33.999967"
     x2="33.999967"
     y1="31.000038"
     y2="17.000038"
     gradientTransform="matrix(1.0499999,0,0,1.0499999,-1.1999973,-1.1999985)">
    <stop
       offset="0"
       stop-color="#4d4d4d"
       id="stop12" />
    <stop
       offset="1"
       stop-color="#585858"
       id="stop14" />
  </linearGradient>
  <linearGradient
     id="d"
     gradientUnits="userSpaceOnUse"
     x1="31.999967"
     x2="31.999967"
     y1="31.000038"
     y2="17.000038"
     gradientTransform="matrix(1.0499999,0,0,1.0499999,-1.1999973,-1.1999985)">
    <stop
       offset="0"
       stop-color="#afb0b3"
       id="stop17" />
    <stop
       offset="1"
       stop-color="#bdc3c7"
       id="stop19" />
  </linearGradient>
  <linearGradient
     id="e"
     gradientUnits="userSpaceOnUse"
     x1="28.999967"
     x2="28.999967"
     y1="17.000038"
     y2="31.000038"
     gradientTransform="matrix(1.0499999,0,0,1.0499999,-1.1999973,-1.1999985)">
    <stop
       offset="0"
       stop-color="#31363b"
       id="stop22" />
    <stop
       offset="1"
       stop-color="#4d4d4d"
       id="stop24" />
  </linearGradient>
  <linearGradient
     id="f"
     gradientUnits="userSpaceOnUse"
     x1="25.999967"
     x2="25.999967"
     y1="17.000038"
     y2="31.000038"
     gradientTransform="matrix(1.0499999,0,0,1.0499999,-1.1999973,-1.1999985)">
    <stop
       offset="0"
       stop-color="#7f8c8d"
       id="stop27" />
    <stop
       offset="1"
       stop-color="#afb0b3"
       id="stop29" />
  </linearGradient>
  <linearGradient
     id="g"
     gradientUnits="userSpaceOnUse"
     x1="24"
     x2="24"
     y1="44"
     y2="4"
     gradientTransform="matrix(1.0499999,0,0,1.0499999,-1.1999973,-1.1999985)">
    <stop
       offset="0"
       stop-color="#bdc3c7"
       id="stop32" />
    <stop
       offset="1"
       stop-color="#eff0f1"
       id="stop34" />
  </linearGradient>
  <linearGradient
     id="h"
     gradientUnits="userSpaceOnUse"
     x1="17"
     x2="38.140625"
     xlink:href="#a"
     y1="17"
     y2="38.140625"
     gradientTransform="matrix(1.0499999,0,0,1.0499999,-1.1999973,-1.1999985)" />
  <linearGradient
     id="i"
     gradientUnits="userSpaceOnUse"
     x1="25"
     x2="41.563583"
     xlink:href="#a"
     y1="17"
     y2="33.563583"
     gradientTransform="matrix(1.0499999,0,0,1.0499999,-1.1999973,-1.1999985)" />
  <circle
     cx="23.999998"
     cy="23.999998"
     id="circle39"
     r="20.999998"
     style="fill-opacity:1;fill:url(#linearGradient1171)" />
  <path
     d="m 9.3000027,16.650002 2.1000003,14.7 13.613084,13.613084 a 21,21 0 0 0 19.9377,-19.9623 l -8.350784,-8.350784 -4.2,6.3 -6.3,-6.3 -10.5,6.3 z"
     fill="url(#h)"
     opacity="0.2"
     id="path41"
     style="fill:url(#h);stroke-width:1.05" />
  <path
     d="m 6.1500027,16.650002 h 3.15 l 3.6750013,10.5 3.674999,-10.5 h 3.15 l -5.25,14.7 -3.15001,-6.6e-5 z"
     fill="url(#b)"
     id="path43"
     style="fill:url(#b);stroke-width:1.05" />
  <path
     d="m 17.700003,31.350002 5.25,-14.7 h 3.15 l -5.25,14.7 z m 10.5,0 5.25,-14.7 h 3.15 l -5.25,14.7 z"
     fill="url(#e)"
     id="path45"
     style="fill:url(#e);stroke-width:1.05" />
  <path
     d="m 14.550003,31.350002 5.25,-14.7 h 3.15 l -5.25,14.7 z m 10.5,0 5.25,-14.7 h 3.15 l -5.25,14.7 z"
     fill="url(#f)"
     id="path47"
     style="fill:url(#f);stroke-width:1.05" />
  <path
     d="m 26.100003,16.650002 -1.05,14.7 10.311331,10.311331 a 21,21 0 0 0 9.589453,-16.660547 l -8.350784,-8.350784 -3.15,7.35 z"
     fill="url(#i)"
     opacity="0.2"
     id="path49"
     style="fill:url(#i);stroke-width:1.05" />
  <path
     d="m 28.200003,31.350002 h -3.15 l -5.25,-14.7 h 3.15 z m 10.5,0 h -3.15 l -5.25,-14.7 h 3.15 z"
     fill="url(#d)"
     id="path51"
     style="fill:url(#d);stroke-width:1.05" />
  <path
     d="m 22.950003,16.650002 5.25,14.7 h 3.15 l -5.25,-14.7 z m 10.5,0 5.25,14.7 h 3.15 l -5.25,-14.7 z"
     fill="url(#c)"
     id="path53"
     style="fill:url(#c);stroke-width:1.05" />
  <path
     d="M 44.977446,23.388871 A 21,21 0 0 1 24.000003,43.950002 21,21 0 0 1 3.0225607,23.561133 a 21,21 0 0 0 -0.022558,0.438869 21,21 0 0 0 21.0000003,21 21,21 0 0 0 21,-21 21,21 0 0 0 -0.02256,-0.611131 z"
     fill="#232629"
     opacity="0.2"
     id="path55"
     style="stroke-width:1.05" />
</svg>
