<?xml version="1.0" encoding="UTF-8" standalone="no"?>
<svg
   width="48"
   height="48"
   version="1.1"
   id="svg46"
   sodipodi:docname="xorg.svg"
   inkscape:version="1.2.1 (9c6d41e410, 2022-07-14)"
   xmlns:inkscape="http://www.inkscape.org/namespaces/inkscape"
   xmlns:sodipodi="http://sodipodi.sourceforge.net/DTD/sodipodi-0.dtd"
   xmlns:xlink="http://www.w3.org/1999/xlink"
   xmlns="http://www.w3.org/2000/svg"
   xmlns:svg="http://www.w3.org/2000/svg">
  <sodipodi:namedview
     id="namedview48"
     pagecolor="#ffffff"
     bordercolor="#666666"
     borderopacity="1.0"
     inkscape:showpageshadow="2"
     inkscape:pageopacity="0.0"
     inkscape:pagecheckerboard="0"
     inkscape:deskcolor="#d1d1d1"
     showgrid="false"
     inkscape:zoom="4.9166667"
     inkscape:cx="24"
     inkscape:cy="24"
     inkscape:window-width="1920"
     inkscape:window-height="1011"
     inkscape:window-x="0"
     inkscape:window-y="0"
     inkscape:window-maximized="1"
     inkscape:current-layer="svg46" />
  <defs
     id="defs26">
    <linearGradient
       id="a"
       y1="543.77"
       x1="407.63"
       y2="504.13"
       x2="407.69"
       gradientUnits="userSpaceOnUse"
       gradientTransform="translate(-384.57,-499.8)"
       spreadMethod="pad">
      <stop
         stop-color="#c6cdd1"
         id="stop2" />
      <stop
         offset="1"
         stop-color="#e0e5e7"
         id="stop4" />
    </linearGradient>
    <linearGradient
       id="d"
       y1="26.03"
       x1="29.439"
       y2="35.796"
       x2="38.26"
       gradientUnits="userSpaceOnUse">
      <stop
         stop-color="#292c2f"
         id="stop7" />
      <stop
         offset="1"
         stop-color="#292c2f"
         stop-opacity="0"
         id="stop9" />
    </linearGradient>
    <linearGradient
       id="LO"
       gradientUnits="userSpaceOnUse"
       x1="319.208"
       y1="235.149"
       x2="657.653"
       y2="269.494">
      <stop
         style="stop-color:#e54c18"
         offset="0"
         id="stop12" />
      <stop
         style="stop-color:#fec350"
         offset="1"
         id="stop14" />
    </linearGradient>
    <linearGradient
       xlink:href="#a"
       id="linearGradient4574"
       x1="25"
       y1="44"
       x2="25"
       y2="4"
       gradientUnits="userSpaceOnUse"
       gradientTransform="matrix(1.0499209,0,0,1.0498273,-1.1996849,-1.19931)" />
    <linearGradient
       xlink:href="#a-5"
       id="linearGradient4582"
       x1="10.973"
       y1="24"
       x2="36.937"
       y2="24"
       gradientUnits="userSpaceOnUse"
       gradientTransform="matrix(1.0514032,0,0,1.0525214,-1.187899,-0.73909337)" />
    <linearGradient
       xlink:href="#d"
       id="linearGradient4584"
       gradientUnits="userSpaceOnUse"
       x1="29.439"
       y1="26.03"
       x2="38.26"
       y2="35.796" />
    <linearGradient
       xlink:href="#LO"
       id="linearGradient4586"
       gradientUnits="userSpaceOnUse"
       gradientTransform="matrix(0.09264275,0,0,0.09151624,-21.065452,2.3611372)"
       x1="319.208"
       y1="235.149"
       x2="657.653"
       y2="269.494" />
    <linearGradient
       gradientUnits="userSpaceOnUse"
       x2="0"
       y2="503.8"
       y1="542.8"
       id="a-5">
      <stop
         stop-color="#2a2c2f"
         id="stop21" />
      <stop
         stop-color="#424649"
         offset="1"
         id="stop23" />
    </linearGradient>
  </defs>
  <rect
     style="fill:url(#linearGradient4574);fill-opacity:1;stroke-width:1.04988"
     width="41.996834"
     height="41.993084"
     x="3"
     y="3"
     rx="20.998417"
     id="rect28"
     ry="20.996542" />
  <g
     style="font-size:12.66600037px"
     font-size="12.666"
     transform="translate(-384.57,-499.8)"
     id="g32">
    <text
       style="font-family:'Droid Sans'"
       y="132.19"
       x="730.88"
       id="text30" />
  </g>
  <path
     d="M 10.65369,38.684547 20.960579,25.19429 10.349444,10.361387 l 6.820188,0.0054 8.455203,11.663159 -12.642265,16.654343 h -2.32888 z m 20.173405,0.0091 -8.396823,-11.683041 12.747537,-16.66216 h 2.271257 L 27.100113,23.902609 37.647391,38.694037 Z"
     style="fill:url(#linearGradient4582);fill-opacity:1;stroke-width:1.04988"
     id="path34" />
  <rect
     style="opacity:0.40740739;fill:#000cff"
     height="0"
     width=".045"
     y="22.53"
     x="45.98"
     id="rect36" />
  <g
     id="g42"
     transform="matrix(1.0499212,0,0,1.0498275,-1.1996849,-1.19931)">
    <path
       style="opacity:0.2;fill:url(#linearGradient4584)"
       d="m 37.427424,20.485525 c 0,0 2.631115,3.833044 1.677264,7.621433 -0.536653,2.131415 -3.528674,3.588402 -5.530466,5.956691 -3.082553,3.646919 -20.892117,0.360552 -22.709256,-1.859463 l 3.035406,3.114716 -2.610591,2.671975 5.81437,4.797391 L 41.003,44.003 c 1.659857,0.08437 3,-1.338 3,-3 V 28.179746 Z"
       id="path40"
       sodipodi:nodetypes="cssccccsscc" />
  </g>
  <path
     d="m 23.996972,15.5236 c -0.819987,0 -1.696034,0.06273 -2.484686,0.137513 1.405013,1.810183 2.570839,3.343035 3.91257,5.083894 -0.753072,-1.600888 -2.300847,-3.136041 -1.76577,-3.925563 0.529655,-0.781514 1.505539,-0.649971 1.579873,-0.649971 1.5646,0 3.070673,0.174559 4.478706,0.497618 l 0.33004,-0.449001 C 28.169759,15.740535 26.129978,15.5236 23.996972,15.5236 Z m 8.473921,1.46094 -0.303984,0.42898 c 4.338069,1.678099 7.272453,4.883337 7.272453,8.556767 0,5.409165 -6.361302,9.797963 -14.200403,9.797963 -7.839092,0 -14.203285,-4.3888 -14.203285,-9.797963 2e-6,-2.945698 1.887277,-5.589815 4.872431,-7.387074 L 14.99036,17.201889 c -4.68273,1.961361 -7.790676,5.404002 -7.790677,9.323215 0,6.098066 7.524677,11.04487 16.797289,11.04487 9.272612,0 16.800181,-4.946803 16.800182,-11.04487 0,-4.066335 -3.346491,-7.622614 -8.326261,-9.540564 z"
     style="fill:url(#linearGradient4586);fill-opacity:1;stroke-width:1.04988"
     id="path44" />
</svg>
