<?xml version="1.0" encoding="UTF-8" standalone="no"?>
<svg
   width="48"
   height="48"
   version="1.1"
   id="svg32"
   sodipodi:docname="yandex-browser.svg"
   inkscape:version="1.2.1 (9c6d41e410, 2022-07-14)"
   xmlns:inkscape="http://www.inkscape.org/namespaces/inkscape"
   xmlns:sodipodi="http://sodipodi.sourceforge.net/DTD/sodipodi-0.dtd"
   xmlns:xlink="http://www.w3.org/1999/xlink"
   xmlns="http://www.w3.org/2000/svg"
   xmlns:svg="http://www.w3.org/2000/svg">
  <sodipodi:namedview
     id="namedview34"
     pagecolor="#ffffff"
     bordercolor="#666666"
     borderopacity="1.0"
     inkscape:showpageshadow="2"
     inkscape:pageopacity="0.0"
     inkscape:pagecheckerboard="0"
     inkscape:deskcolor="#d1d1d1"
     showgrid="false"
     inkscape:zoom="4.9166667"
     inkscape:cx="24"
     inkscape:cy="24"
     inkscape:window-width="1920"
     inkscape:window-height="1011"
     inkscape:window-x="0"
     inkscape:window-y="0"
     inkscape:window-maximized="1"
     inkscape:current-layer="svg32" />
  <defs
     id="defs20">
    <linearGradient
       id="linearGradient4197">
      <stop
         style="stop-color:#c6cdd1;stop-opacity:1"
         offset="0"
         id="stop2" />
      <stop
         style="stop-color:#e0e5e7;stop-opacity:1"
         offset="1"
         id="stop4" />
    </linearGradient>
    <linearGradient
       id="linearGradient4184">
      <stop
         style="stop-color:#000000;stop-opacity:1;"
         offset="0"
         id="stop7" />
      <stop
         style="stop-color:#000000;stop-opacity:0;"
         offset="1"
         id="stop9" />
    </linearGradient>
    <linearGradient
       id="linearGradient4167">
      <stop
         style="stop-color:#d01c2d;stop-opacity:1"
         offset="0"
         id="stop12" />
      <stop
         style="stop-color:#e05e4c;stop-opacity:1"
         offset="1"
         id="stop14" />
    </linearGradient>
    <linearGradient
       gradientUnits="userSpaceOnUse"
       y2="525.911"
       x2="395.707"
       y1="546.927"
       x1="400.556"
       id="linearGradient4288-9"
       xlink:href="#linearGradient4197"
       gradientTransform="matrix(1.9405564,0,0,1.9418216,-359.25227,-518.38224)" />
    <linearGradient
       xlink:href="#linearGradient4167"
       id="linearGradient4173"
       x1="414.727"
       y1="539.763"
       x2="399.489"
       y2="508.239"
       gradientUnits="userSpaceOnUse" />
    <linearGradient
       xlink:href="#linearGradient4184"
       id="linearGradient4190"
       x1="23.547"
       y1="16.764"
       x2="37.308"
       y2="30.525"
       gradientUnits="userSpaceOnUse" />
  </defs>
  <g
     transform="matrix(1.0499993,0,0,1.0499993,-404.99929,-525.98752)"
     id="g30">
    <circle
       cy="523.79797"
       cx="408.57101"
       style="opacity:1;fill:url(#linearGradient4288-9);fill-opacity:1;stroke:none;stroke-width:1.93961;stroke-miterlimit:4;stroke-dasharray:none;stroke-dashoffset:0;stroke-opacity:1"
       r="20"
       id="circle22" />
    <path
       style="opacity:0.2;fill:url(#linearGradient4190);fill-opacity:1;stroke:none;stroke-width:2;stroke-linecap:round;stroke-linejoin:round;stroke-miterlimit:4;stroke-dasharray:none;stroke-opacity:1"
       d="m 35.054688,9.4707031 -8.888672,11.6210939 -4.089844,7.916015 -1.078125,11.667969 3.3125,3.3125 A 20,20 0 0 0 44,24 20,20 0 0 0 42.792969,17.208984 Z"
       transform="translate(384.57143,499.798)"
       id="path24" />
    <path
       d="m 397.42131,509.306 -4.2424,4.242 12.4,12.401 v 14.742 h 6 v -14.758 l 12.385,-12.385 -4.242,-4.242 -11.151,11.151 -11.15,-11.151 z"
       style="fill:url(#linearGradient4173);fill-opacity:1"
       id="path26" />
    <path
       style="opacity:0.15;fill:#000000;fill-opacity:1;stroke:none;stroke-width:1.93961;stroke-miterlimit:4;stroke-dasharray:none;stroke-dashoffset:0;stroke-opacity:1"
       d="M 43.978516,23.417969 A 20,20 0 0 1 24,43 20,20 0 0 1 4.0214844,23.582031 20,20 0 0 0 4,24 20,20 0 0 0 24,44 20,20 0 0 0 44,24 20,20 0 0 0 43.978516,23.417969 Z"
       transform="translate(384.57143,499.798)"
       id="path28" />
  </g>
</svg>
