<?xml version="1.0" encoding="UTF-8" standalone="no"?>
<svg
   width="32"
   height="32"
   version="1.1"
   id="svg31"
   sodipodi:docname="krunner.svg"
   inkscape:version="1.2.1 (9c6d41e410, 2022-07-14)"
   xmlns:inkscape="http://www.inkscape.org/namespaces/inkscape"
   xmlns:sodipodi="http://sodipodi.sourceforge.net/DTD/sodipodi-0.dtd"
   xmlns:xlink="http://www.w3.org/1999/xlink"
   xmlns="http://www.w3.org/2000/svg"
   xmlns:svg="http://www.w3.org/2000/svg">
  <sodipodi:namedview
     id="namedview33"
     pagecolor="#ffffff"
     bordercolor="#666666"
     borderopacity="1.0"
     inkscape:showpageshadow="2"
     inkscape:pageopacity="0.0"
     inkscape:pagecheckerboard="0"
     inkscape:deskcolor="#d1d1d1"
     showgrid="false"
     inkscape:zoom="19.666667"
     inkscape:cx="15.254237"
     inkscape:cy="13.601695"
     inkscape:window-width="1920"
     inkscape:window-height="1000"
     inkscape:window-x="0"
     inkscape:window-y="0"
     inkscape:window-maximized="1"
     inkscape:current-layer="svg31" />
  <defs
     id="defs17">
    <linearGradient
       inkscape:collect="always"
       id="linearGradient1063">
      <stop
         style="stop-color:#589bff;stop-opacity:1;"
         offset="0"
         id="stop1059" />
      <stop
         style="stop-color:#ffccaa;stop-opacity:1"
         offset="1"
         id="stop1061" />
    </linearGradient>
    <linearGradient
       id="a"
       y1="543.79999"
       y2="503.79999"
       gradientUnits="userSpaceOnUse"
       x2="0"
       gradientTransform="matrix(1.01818,0,0,1,-3.065,0)">
      <stop
         stop-color="#197cf1"
         id="stop2" />
      <stop
         offset="1"
         stop-color="#21c9fb"
         id="stop4" />
    </linearGradient>
    <linearGradient
       id="b"
       y1="524.79999"
       y2="531.79999"
       x1="401.57001"
       gradientUnits="userSpaceOnUse"
       x2="408.57001"
       gradientTransform="matrix(1.42857,0,0,1.42265,-159.1,-232.81)">
      <stop
         stop-color="#292c2f"
         id="stop7" />
      <stop
         offset="1"
         stop-opacity="0"
         id="stop9" />
    </linearGradient>
    <linearGradient
       id="c"
       y1="532.78998"
       y2="514.79999"
       x2="0"
       gradientUnits="userSpaceOnUse">
      <stop
         stop-color="#7cbaf8"
         id="stop12" />
      <stop
         offset="1"
         stop-color="#f4fcff"
         id="stop14" />
    </linearGradient>
    <linearGradient
       id="linearGradient2163-3"
       x1="-177.09"
       x2="-177.09"
       y1="-1.3372"
       y2="-15.638"
       gradientTransform="matrix(2.886197,0,0,2.886197,536.24374,47.865403)"
       gradientUnits="userSpaceOnUse">
      <stop
         stop-color="#78b4dc"
         offset="0"
         id="stop288" />
      <stop
         stop-color="#0096f0"
         offset="1"
         id="stop290"
         style="stop-color:#ffb380;stop-opacity:1" />
    </linearGradient>
    <linearGradient
       id="linearGradient2230-5"
       x1="-235.64"
       x2="-175.89"
       y1="49.390999"
       y2="49.390999"
       gradientTransform="matrix(0.7782334,0,0,0.7782334,228.81616,-47.450637)"
       gradientUnits="userSpaceOnUse">
      <stop
         stop-color="#2d69e6"
         offset="0"
         id="stop293" />
      <stop
         stop-color="#3791d7"
         offset=".3497"
         id="stop295" />
      <stop
         stop-color="#2887cd"
         offset="1"
         id="stop297" />
    </linearGradient>
    <linearGradient
       id="linearGradient2208-3"
       x1="-230.89"
       x2="-207.22"
       y1="41.877998"
       y2="41.877998"
       gradientTransform="matrix(0.76362913,0,0,0.76362913,225.83446,-47.393569)"
       gradientUnits="userSpaceOnUse">
      <stop
         stop-color="#b4dcff"
         offset="0"
         id="stop300" />
      <stop
         stop-color="#c8faff"
         offset="1"
         id="stop302" />
    </linearGradient>
    <linearGradient
       id="linearGradient2216-5"
       x1="-192.39"
       x2="-175.89"
       y1="41.966999"
       y2="34.297001"
       gradientTransform="matrix(0.76362913,0,0,0.76362913,225.83446,-47.393569)"
       gradientUnits="userSpaceOnUse">
      <stop
         stop-color="#96d9ff"
         offset="0"
         id="stop305" />
      <stop
         stop-color="#f0fafa"
         offset="1"
         id="stop307" />
    </linearGradient>
    <linearGradient
       id="linearGradient80038"
       x1="33.014"
       x2="34.219002"
       y1="10.136"
       y2="9.4466"
       gradientTransform="matrix(1.7361381,-0.31116068,0.31116068,1.7361381,-39.060136,16.949683)"
       gradientUnits="userSpaceOnUse">
      <stop
         stop-color="#3c292c"
         offset="0"
         id="stop236" />
      <stop
         stop-color="#c2bbc2"
         offset=".1557"
         id="stop238" />
      <stop
         stop-color="#50393c"
         offset=".42952"
         id="stop240" />
      <stop
         stop-color="#dddee3"
         offset=".60187"
         id="stop242" />
      <stop
         stop-color="#6a5a5b"
         offset=".88993"
         id="stop244" />
      <stop
         stop-color="#806e74"
         offset="1"
         id="stop246" />
    </linearGradient>
    <linearGradient
       id="linearGradient126082"
       x1="33.173"
       x2="34.636002"
       y1="10.722"
       y2="9.8470001"
       gradientTransform="matrix(1.7361381,-0.31116068,0.31116068,1.7361381,-39.060136,16.949683)"
       gradientUnits="userSpaceOnUse">
      <stop
         stop-color="#533c3c"
         offset="0"
         id="stop249" />
      <stop
         stop-color="#c2bac0"
         offset=".079999"
         id="stop251" />
      <stop
         stop-color="#432c2d"
         offset=".46848"
         id="stop253" />
      <stop
         stop-color="#cecbd2"
         offset=".60206"
         id="stop255" />
      <stop
         stop-color="#675556"
         offset=".91407"
         id="stop257" />
      <stop
         stop-color="#8a7b84"
         offset="1"
         id="stop259" />
    </linearGradient>
    <linearGradient
       id="linearGradient1902"
       x1="32"
       x2="32"
       y1="2.0005"
       y2="61.905998"
       gradientUnits="userSpaceOnUse"
       gradientTransform="matrix(0.46666663,0,0,0.46666663,1.0667727,1.0666674)">
      <stop
         stop-color="#f5f5f5"
         offset="0"
         id="stop311" />
      <stop
         stop-color="#dcdcdc"
         offset="1"
         id="stop313" />
    </linearGradient>
    <linearGradient
       id="linearGradient181487"
       x1="33.624001"
       x2="35.493"
       y1="12.027"
       y2="10.924"
       gradientTransform="matrix(1.7361399,-0.31117799,0.31117799,1.7361399,-39.062359,16.950603)"
       gradientUnits="userSpaceOnUse">
      <stop
         stop-color="#542a2e"
         offset="0"
         id="stop262" />
      <stop
         stop-color="#482a2d"
         offset=".063817"
         id="stop264" />
      <stop
         stop-color="#341e21"
         offset=".19594"
         id="stop266" />
      <stop
         stop-color="#664748"
         offset=".53477"
         id="stop268" />
      <stop
         stop-color="#d2cad1"
         offset=".66939"
         id="stop270" />
      <stop
         stop-color="#55363a"
         offset=".95152"
         id="stop272" />
      <stop
         stop-color="#70494f"
         offset="1"
         id="stop274" />
    </linearGradient>
    <linearGradient
       id="linearGradient2181"
       x1="32.855"
       x2="32.855"
       y1="1.7684"
       y2="10.314"
       gradientTransform="matrix(1.7361381,-0.31116068,0.31116068,1.7361381,-41.733488,17.428843)"
       gradientUnits="userSpaceOnUse">
      <stop
         stop-color="#f6ffff"
         offset="0"
         id="stop219" />
      <stop
         stop-color="#583e3f"
         offset="1"
         id="stop221" />
    </linearGradient>
    <linearGradient
       id="linearGradient27086"
       x1="32.855"
       x2="32.855"
       y1="1.7684"
       y2="10.314"
       gradientTransform="matrix(1.7100586,-0.30649581,0.30649581,1.7100586,-40.84821,17.433161)"
       gradientUnits="userSpaceOnUse">
      <stop
         stop-color="#f4fbfb"
         offset="0"
         id="stop224" />
      <stop
         stop-color="#565050"
         offset=".49983"
         id="stop226" />
      <stop
         stop-color="#c2b4b2"
         offset="1"
         id="stop228" />
    </linearGradient>
    <radialGradient
       id="radialGradient1539"
       cx="33.299"
       cy="5.9839001"
       r="3.2704"
       gradientTransform="matrix(1.7638016,0,0,1.7638016,-44.910549,9.8791711)"
       gradientUnits="userSpaceOnUse">
      <stop
         stop-color="#fff"
         stop-opacity=".204"
         offset="0"
         id="stop212" />
      <stop
         stop-color="#fff"
         stop-opacity=".204"
         offset=".7"
         id="stop214" />
      <stop
         stop-color="#191919"
         offset="1"
         id="stop216" />
    </radialGradient>
    <linearGradient
       id="linearGradient59103"
       x1="31.417999"
       x2="31.417999"
       y1="9.3065004"
       y2="2.6166"
       gradientTransform="matrix(1.7638016,0,0,1.7638016,-41.481719,9.7932746)"
       gradientUnits="userSpaceOnUse">
      <stop
         stop-color="#f3f7f6"
         offset="0"
         id="stop231" />
      <stop
         stop-color="#605e5d"
         offset="1"
         id="stop233" />
    </linearGradient>
    <linearGradient
       id="linearGradient1541"
       x1="-228.53999"
       x2="-228.53999"
       y1="49.422001"
       y2="52.341999"
       gradientTransform="translate(237.02,-44.947)"
       gradientUnits="userSpaceOnUse"
       xlink:href="#linearGradient997" />
    <linearGradient
       id="linearGradient997"
       x1="-228.53999"
       x2="-228.53999"
       y1="49.422001"
       y2="52.341999"
       gradientTransform="translate(237.02,-44.947)"
       gradientUnits="userSpaceOnUse">
      <stop
         stop-color="#fff"
         offset="0"
         id="stop283" />
      <stop
         stop-color="#fff"
         stop-opacity="0"
         offset="1"
         id="stop285" />
    </linearGradient>
    <filter
       id="filter1229"
       x="-0.069095556"
       y="-0.10709949"
       width="1.1381911"
       height="1.214199"
       color-interpolation-filters="sRGB">
      <feGaussianBlur
         stdDeviation="0.1347133"
         id="feGaussianBlur277" />
    </filter>
    <filter
       id="filter563"
       x="-0.069095559"
       y="-0.10709949"
       width="1.1381911"
       height="1.2141989"
       color-interpolation-filters="sRGB">
      <feGaussianBlur
         stdDeviation="0.1347133"
         id="feGaussianBlur561" />
    </filter>
    <filter
       id="filter1251"
       x="-0.20800194"
       y="-0.28363517"
       width="1.4160039"
       height="1.5672703"
       color-interpolation-filters="sRGB">
      <feGaussianBlur
         stdDeviation="0.069956252"
         id="feGaussianBlur280" />
    </filter>
    <linearGradient
       inkscape:collect="always"
       xlink:href="#linearGradient997"
       id="linearGradient1092"
       gradientUnits="userSpaceOnUse"
       gradientTransform="translate(237.02,-44.947)"
       x1="-228.53999"
       y1="49.422001"
       x2="-228.53999"
       y2="52.341999" />
    <linearGradient
       inkscape:collect="always"
       xlink:href="#linearGradient1063"
       id="linearGradient1065"
       x1="24.000158"
       y1="45"
       x2="24.000265"
       y2="3.0004399"
       gradientUnits="userSpaceOnUse"
       gradientTransform="scale(0.66666663)" />
  </defs>
  <path
     d="M 15.999999,2.0001234 A 13.999999,13.999999 0 0 0 2,16.000124 13.999999,13.999999 0 0 0 12.252273,29.474157 H 19.79182 A 13.999999,13.999999 0 0 0 29.999292,16.018291 v -0.04374 A 13.999999,13.999999 0 0 0 16.000175,2.0002934 Z"
     stroke-width="1.92413"
     id="path328"
     style="fill:url(#linearGradient1065);fill-opacity:1" />
  <path
     d="m 21.082392,23.911427 0.705646,0.797504 1.858517,-1.59088 -0.761504,-0.822618 z"
     fill="url(#linearGradient80038)"
     id="path346"
     style="fill:url(#linearGradient80038);stroke-width:1.7638" />
  <path
     d="m 21.542745,24.893864 0.597823,0.673526 2.292766,-1.952528 -0.601668,-0.689769 z"
     fill="url(#linearGradient126082)"
     id="path348"
     style="fill:url(#linearGradient126082);stroke-width:1.7638" />
  <path
     d="M 16.000105,2 A 13.999999,13.999999 0 0 0 2.0001059,16.000001 13.999999,13.999999 0 0 0 16.000105,30 13.999999,13.999999 0 0 0 30.000104,16.000001 13.999999,13.999999 0 0 0 16.000105,2 Z m 0,1.8666666 A 12.133332,12.133332 0 0 1 28.133436,16.000001 12.133332,12.133332 0 0 1 16.000105,28.133333 12.133332,12.133332 0 0 1 3.8667725,16.000001 12.133332,12.133332 0 0 1 16.000105,3.8666666 Z"
     fill="url(#linearGradient1902)"
     stroke-linecap="round"
     stroke-linejoin="round"
     stroke-opacity="0.3"
     stroke-width="0.461888"
     id="path350"
     style="fill:url(#linearGradient1902)" />
  <path
     d="m 23.458371,27.844467 a 13.999999,13.999999 0 0 0 0.40013,-0.26159 13.999999,13.999999 0 0 0 0.401044,-0.282553 13.999999,13.999999 0 0 0 0.391015,-0.297136 13.999999,13.999999 0 0 0 0.380076,-0.309894 13.999999,13.999999 0 0 0 0.369143,-0.322658 13.999999,13.999999 0 0 0 0.358206,-0.336327 13.999999,13.999999 0 0 0 0.345442,-0.348175 13.999999,13.999999 0 0 0 0.332685,-0.360024 c -0.815736,-0.967727 -1.559508,-1.847534 -1.559508,-1.847534 0,0 -0.185332,-0.09526 -0.297136,0.0019 -0.111813,0.09714 -2.61408,2.207567 -2.61408,2.207567 0,0 -0.190419,0.189289 0.01913,0.422916 0.103725,0.115656 0.773734,0.906033 1.473827,1.733572 z"
     fill="url(#linearGradient181487)"
     id="path352"
     style="fill:url(#linearGradient181487);stroke-width:0.466668" />
  <path
     d="m 15.87865,10.234026 a 7.5591241,7.5591241 0 0 0 -6.107516,8.773857 7.5591241,7.5591241 0 0 0 8.774736,6.107338 7.5591241,7.5591241 0 0 0 6.106457,-8.77456 7.5591241,7.5591241 0 0 0 -8.773677,-6.106635 z m 0.315808,1.76202 a 5.7683366,5.7683366 0 0 1 6.694863,4.660494 5.7683366,5.7683366 0 0 1 -4.659436,6.695568 5.7683366,5.7683366 0 0 1 -6.695744,-4.660316 5.7683366,5.7683366 0 0 1 4.660317,-6.695746 z"
     fill="url(#linearGradient2181)"
     id="path354"
     style="fill:url(#linearGradient2181);stroke-width:1.7638" />
  <path
     d="m 15.898757,10.345322 a 7.4455361,7.4455361 0 0 0 -6.0152689,8.642453 7.4455361,7.4455361 0 0 0 8.6424519,6.015269 7.4455361,7.4455361 0 0 0 6.014387,-8.642276 7.4455361,7.4455361 0 0 0 -8.64157,-6.015446 z m 0.295876,1.650759 a 5.7683366,5.7683366 0 0 1 6.694864,4.660495 5.7683366,5.7683366 0 0 1 -4.659436,6.695568 5.7683366,5.7683366 0 0 1 -6.695743,-4.660318 5.7683366,5.7683366 0 0 1 4.660315,-6.695745 z"
     fill="url(#linearGradient27086)"
     id="path356"
     style="fill:url(#linearGradient27086);stroke-width:1.7638" />
  <circle
     transform="rotate(-10.161)"
     cx="13.823692"
     cy="20.433588"
     r="5.7683368"
     fill="url(#radialGradient1539)"
     opacity="0.302"
     id="circle358"
     style="fill:url(#radialGradient1539);stroke-width:1.7638" />
  <circle
     transform="rotate(-10.161)"
     cx="13.823692"
     cy="20.322466"
     r="5.8447094"
     fill="none"
     stroke="url(#linearGradient59103)"
     stroke-linecap="round"
     stroke-linejoin="round"
     stroke-width="0.189132"
     id="circle360"
     style="stroke:url(#linearGradient59103)" />
  <ellipse
     transform="matrix(1.7524074,0,0,1.9452968,2.47351,3.1673546)"
     cx="8.4666004"
     cy="6.4478998"
     rx="2.3396001"
     ry="1.5094"
     fill="url(#linearGradient1541)"
     filter="url(#filter1229)"
     opacity="0.4"
     id="ellipse362"
     style="fill:url(#linearGradient1092)" />
  <ellipse
     transform="matrix(1.7524074,0,0,1.9452968,2.47351,3.1673546)"
     cx="8.4666004"
     cy="6.4478998"
     rx="2.3396001"
     ry="1.5094"
     fill="url(#linearGradient1541)"
     filter="url(#filter1229)"
     opacity="0.4"
     id="ellipse364"
     style="fill:url(#linearGradient1541)" />
</svg>
