<?xml version="1.0" encoding="UTF-8" standalone="no"?>
<svg
   height="32"
   width="32"
   version="1.1"
   id="svg257"
   sodipodi:docname="preferences-desktop-touchpad.svg"
   inkscape:version="1.2.1 (9c6d41e410, 2022-07-14)"
   xmlns:inkscape="http://www.inkscape.org/namespaces/inkscape"
   xmlns:sodipodi="http://sodipodi.sourceforge.net/DTD/sodipodi-0.dtd"
   xmlns:xlink="http://www.w3.org/1999/xlink"
   xmlns="http://www.w3.org/2000/svg"
   xmlns:svg="http://www.w3.org/2000/svg">
  <defs
     id="defs261">
    <linearGradient
       gradientTransform="matrix(0.69997044,0,0,0.69993119,-301.98833,-350.61769)"
       gradientUnits="userSpaceOnUse"
       x2="426.69501"
       y2="499.92099"
       y1="547.67499"
       id="a-6"
       x1="389.32001">
      <stop
         stop-color="#18222a"
         style="stop-color:#1e2b35;stop-opacity:1"
         id="stop216-3" />
      <stop
         stop-color="#566069"
         offset="1"
         style="stop-color:#6d7983;stop-opacity:1"
         id="stop218" />
    </linearGradient>
    <linearGradient
       id="c-3"
       gradientTransform="matrix(2.0428665,-6.8308524,5.7819337,2.3633129,25.219113,34.652812)"
       gradientUnits="userSpaceOnUse"
       x1="24"
       x2="24"
       y1="35"
       y2="13">
      <stop
         offset="0"
         stop-color="#23a2cd"
         id="stop253" />
      <stop
         offset=".53"
         stop-color="#00b8f5"
         id="stop255" />
      <stop
         offset="1"
         stop-color="#2ecbff"
         id="stop257" />
    </linearGradient>
    <linearGradient
       id="linearGradient1052"
       gradientUnits="userSpaceOnUse"
       x1="11"
       x2="11"
       y1="19"
       y2="16"
       gradientTransform="matrix(0.77391056,0,0,0.77391056,-34.445912,-9.86736)">
      <stop
         offset="0"
         stop-color="#253440"
         id="stop224-6" />
      <stop
         offset="1"
         stop-color="#566069"
         stop-opacity=".463277"
         id="stop226-7" />
    </linearGradient>
    <linearGradient
       id="linearGradient1056"
       gradientUnits="userSpaceOnUse"
       x1="7.8789058"
       x2="19"
       y1="11.189453"
       y2="11.189453"
       gradientTransform="matrix(0.77391056,0,0,0.77391056,-33.291604,-7.545626)">
      <stop
         offset="0"
         stop-color="#292c2f"
         id="stop234-5" />
      <stop
         offset="1"
         stop-opacity="0"
         id="stop236-3" />
    </linearGradient>
    <linearGradient
       id="linearGradient1060"
       gradientUnits="userSpaceOnUse"
       x1="15"
       x2="7"
       y1="15"
       y2="5"
       gradientTransform="matrix(0.77391056,0,0,0.77391056,-33.291604,-7.545626)">
      <stop
         offset="0"
         stop-color="#197cf1"
         id="stop229-5" />
      <stop
         offset="1"
         stop-color="#21c9fb"
         id="stop231-6" />
    </linearGradient>
    <linearGradient
       inkscape:collect="always"
       xlink:href="#c"
       id="linearGradient1068"
       gradientUnits="userSpaceOnUse"
       gradientTransform="matrix(1.33913,0,0,1.33913,0.90323906,-2.9953619)"
       x1="11"
       y1="19"
       x2="11"
       y2="16" />
    <linearGradient
       inkscape:collect="always"
       xlink:href="#e"
       id="linearGradient1070"
       gradientUnits="userSpaceOnUse"
       gradientTransform="matrix(1.33913,0,0,1.33913,2.9005869,1.0220318)"
       x1="7.8789058"
       y1="11.189453"
       x2="19"
       y2="11.189453" />
    <linearGradient
       inkscape:collect="always"
       xlink:href="#d"
       id="linearGradient1072"
       gradientUnits="userSpaceOnUse"
       gradientTransform="matrix(1.33913,0,0,1.33913,2.9005869,1.0220318)"
       x1="15"
       y1="15"
       x2="7"
       y2="5" />
  </defs>
  <sodipodi:namedview
     id="namedview259"
     pagecolor="#ffffff"
     bordercolor="#666666"
     borderopacity="1.0"
     inkscape:showpageshadow="2"
     inkscape:pageopacity="0.0"
     inkscape:pagecheckerboard="0"
     inkscape:deskcolor="#d1d1d1"
     showgrid="false"
     inkscape:zoom="10.727273"
     inkscape:cx="11"
     inkscape:cy="11.13983"
     inkscape:window-width="1920"
     inkscape:window-height="1000"
     inkscape:window-x="0"
     inkscape:window-y="0"
     inkscape:window-maximized="1"
     inkscape:current-layer="svg257" />
  <radialGradient
     id="a"
     cx="11"
     cy="11"
     gradientUnits="userSpaceOnUse"
     r="9">
    <stop
       offset="0"
       stop-color="#566069"
       id="stop214" />
    <stop
       offset="1"
       stop-color="#18222a"
       id="stop216" />
  </radialGradient>
  <linearGradient
     id="b"
     gradientUnits="userSpaceOnUse"
     x1="11"
     x2="11"
     y1="19"
     y2="3"
     gradientTransform="translate(-1.4915254,-3)">
    <stop
       offset="0"
       stop-color="#18222a"
       id="stop219" />
    <stop
       offset="1"
       stop-color="#566069"
       id="stop221" />
  </linearGradient>
  <linearGradient
     id="c"
     gradientUnits="userSpaceOnUse"
     x1="11"
     x2="11"
     y1="19"
     y2="16"
     gradientTransform="matrix(0.77391056,0,0,0.77391056,-34.445912,-9.86736)">
    <stop
       offset="0"
       stop-color="#253440"
       id="stop224" />
    <stop
       offset="1"
       stop-color="#566069"
       stop-opacity=".463277"
       id="stop226" />
  </linearGradient>
  <linearGradient
     id="d"
     gradientUnits="userSpaceOnUse"
     x1="15"
     x2="7"
     y1="15"
     y2="5"
     gradientTransform="matrix(0.77391056,0,0,0.77391056,-33.291604,-7.545626)">
    <stop
       offset="0"
       stop-color="#197cf1"
       id="stop229" />
    <stop
       offset="1"
       stop-color="#21c9fb"
       id="stop231" />
  </linearGradient>
  <linearGradient
     id="e"
     gradientUnits="userSpaceOnUse"
     x1="7.8789058"
     x2="19"
     y1="11.189453"
     y2="11.189453"
     gradientTransform="matrix(0.77391056,0,0,0.77391056,-33.291604,-7.545626)">
    <stop
       offset="0"
       stop-color="#292c2f"
       id="stop234" />
    <stop
       offset="1"
       stop-opacity="0"
       id="stop236" />
  </linearGradient>
  <rect
     width="27.998781"
     x="-29.999712"
     y="2.0075366"
     rx="13.999393"
     height="27.997248"
     transform="scale(-1,1)"
     style="display:inline;overflow:visible;fill:url(#a-6);stroke-width:1.95969;stroke-opacity:0.55"
     id="rect223"
     ry="13.998624" />
  <path
     style="display:inline;overflow:visible;opacity:0.3;fill:#000000;fill-opacity:1;stroke-width:1.95969;stroke-opacity:0.55"
     d="m 2.008776,15.656311 c -0.0042,0.116682 -0.0084,0.232706 -0.0084,0.350057 0,7.755297 6.2437694,13.998632 13.999369,13.998632 7.755647,0 13.99946,-6.243335 13.99946,-13.998632 0,-0.117367 -0.0068,-0.232702 -0.0084,-0.350057 -0.184853,7.592146 -6.355779,13.648652 -13.991049,13.648652 -7.6380806,0 -13.8062049,-6.056506 -13.9909707,-13.648652"
     id="path225" />
  <path
     d="m 2.008776,16.353689 c -0.0042,-0.116682 -0.0084,-0.232039 -0.0084,-0.350052 0,-7.7552471 6.2437694,-13.998637 13.999369,-13.998637 7.755647,0 13.99946,6.2433899 13.99946,13.998637 0,0.117351 -0.0068,0.233364 -0.0084,0.350052 C 29.806033,8.7615381 23.635104,2.7050497 15.999837,2.7050497 c -7.6380807,0 -13.8062081,6.0564884 -13.9909677,13.6486393"
     style="display:inline;overflow:visible;opacity:0.3;fill:#ffffff;fill-opacity:1;stroke-width:1.95969;stroke-opacity:0.55"
     id="path229" />
  <path
     d="m 4.9206285,18.430717 v 1.339126 1.339125 c 0,0.741882 0.5972495,1.33914 1.3391284,1.33914 h 5.3565171 1.339129 1.339135 v -1.33914 -1.339125 -1.339126 H 12.955403 6.2597569 Z m 12.0521665,0 v 1.339126 1.339125 1.33914 h 2.678264 5.356513 c 0.741883,0 1.339132,-0.597258 1.339132,-1.33914 v -1.339125 -1.339126 z"
     fill="#83878a"
     id="path243-2"
     style="stroke-width:2.16963;stroke-linejoin:round" />
  <path
     d="m 4.9206285,19.769843 v 1.339125 c 0,0.741882 0.5972495,1.33914 1.3391284,1.33914 h 5.3565171 1.339129 1.339135 v -1.33914 H 12.955403 11.616274 6.2597569 c -0.7418789,0 -1.3391284,-0.597249 -1.3391284,-1.339125 z m 21.4260755,0 c 0,0.741876 -0.597249,1.339125 -1.339132,1.339125 h -5.356513 -2.678264 v 1.33914 h 2.678264 5.356513 c 0.741883,0 1.339132,-0.597258 1.339132,-1.33914 z"
     fill="url(#c)"
     id="path245-9"
     style="fill:url(#linearGradient1068);stroke-width:2.16963;stroke-linejoin:round" />
  <path
     d="m 19.132304,8.8946445 -5.51868,0.1621672 -0.162151,5.5186773 2.840415,2.840424 v 3.023507 l 2.678264,2.678257 v -0.669564 h 9.373907 v -4.341714 z"
     fill="url(#e)"
     opacity="0.4"
     id="path251-1"
     style="fill:url(#linearGradient1070);stroke-width:1.33913" />
  <path
     d="m 16.291879,7.717677 c -2.218734,0 -4.017383,1.7986466 -4.017383,4.017386 0.0034,1.08593 0.441918,2.094968 1.176968,2.829959 l 0.878805,0.878804 0.06804,0.06801 c 0.414644,0.41473 0.92374,0.742588 1.501288,0.946805 V 15.001806 L 14.95279,14.054998 c -0.007,-0.0036 -0.01353,-0.0089 -0.02095,-0.01307 -0.238911,-0.405399 -0.371493,-0.873183 -0.3714,-1.360053 0,-1.479163 1.199108,-2.67826 2.678266,-2.67826 0.496712,0 0.961317,0.135815 1.360045,0.371399 0.235639,0.398748 0.371411,0.863362 0.371411,1.36006 -0.0023,0.133234 -0.01462,0.266118 -0.03663,0.397553 l 0.946809,0.946805 1.14558,0.915424 c 0.149302,-0.4218 0.227085,-0.865558 0.230165,-1.312975 0,-1.109376 -0.449956,-2.113422 -1.176973,-2.8404201 L 20.011143,9.7735484 19.132335,8.8947432 C 18.405343,8.1678611 17.401271,7.7178924 16.291938,7.7178924 Z m 0,4.017386 v 8.70435 l 0.946809,0.946802 2.008693,-2.343477 0.334784,-1.004343 h 4.352176 l -0.946807,-0.946809 z"
     opacity="0.2"
     id="path253-2"
     style="stroke-width:1.33913" />
  <path
     d="m 16.291879,7.717677 c -2.21874,0 -4.017383,1.7986435 -4.017383,4.017386 0.0045,1.698509 1.076882,3.210603 2.678261,3.776768 v -1.45683 c -0.828816,-0.478515 -1.339315,-1.362907 -1.339133,-2.319938 0,-1.479158 1.199096,-2.6782576 2.678255,-2.6782576 1.47916,0 2.678265,1.1990996 2.678265,2.6782576 -0.0023,0.133233 -0.01447,0.266139 -0.03662,0.397562 l 1.145581,0.915417 c 0.149287,-0.421792 0.227086,-0.865555 0.230158,-1.312979 0,-2.2187425 -1.798646,-4.017386 -4.01739,-4.017386 z m 0,4.017386 v 8.70435 l 2.008696,-2.343484 0.334788,-1.004343 h 4.352171 z"
     fill="url(#d)"
     id="path255-7"
     style="fill:url(#linearGradient1072);stroke-width:1.33913" />
</svg>
