<?xml version="1.0" encoding="UTF-8" standalone="no"?>
<svg
   height="32"
   viewBox="0 0 32 32"
   width="32"
   version="1.1"
   id="svg44"
   sodipodi:docname="preferences-smart-status.svg"
   inkscape:version="1.2.1 (9c6d41e410, 2022-07-14)"
   xmlns:inkscape="http://www.inkscape.org/namespaces/inkscape"
   xmlns:sodipodi="http://sodipodi.sourceforge.net/DTD/sodipodi-0.dtd"
   xmlns:xlink="http://www.w3.org/1999/xlink"
   xmlns="http://www.w3.org/2000/svg"
   xmlns:svg="http://www.w3.org/2000/svg">
  <defs
     id="defs48">
    <linearGradient
       gradientTransform="matrix(0.69997081,0,0,0.69993114,-301.98843,-350.62069)"
       gradientUnits="userSpaceOnUse"
       x2="426.69501"
       y2="499.92099"
       y1="547.67499"
       id="a-6"
       x1="389.32001">
      <stop
         stop-color="#18222a"
         style="stop-color:#1e2b35;stop-opacity:1"
         id="stop216" />
      <stop
         stop-color="#566069"
         offset="1"
         style="stop-color:#6d7983;stop-opacity:1"
         id="stop218" />
    </linearGradient>
    <linearGradient
       inkscape:collect="always"
       xlink:href="#a-3"
       id="linearGradient2704"
       gradientUnits="userSpaceOnUse"
       gradientTransform="matrix(0.7307642,0,0,0.7307642,4.1485909,4.0935753)"
       x1="-421.44699"
       y1="-504.20401"
       x2="-410.44699"
       y2="-493.20401" />
    <linearGradient
       id="a-3">
      <stop
         offset="0"
         stop-color="#292c2f"
         id="stop8" />
      <stop
         offset="1"
         stop-opacity="0"
         id="stop10" />
    </linearGradient>
    <linearGradient
       inkscape:collect="always"
       xlink:href="#d-6"
       id="linearGradient2706"
       gradientUnits="userSpaceOnUse"
       gradientTransform="matrix(0.38126887,0,0,0.39348725,3.6399802,3.1947364)"
       x1="1.3329999"
       y1="48.714001"
       x2="1.3329999"
       y2="9.7139997" />
    <linearGradient
       id="d-6"
       gradientTransform="matrix(0.52174,0,0,0.53846,45.597466,-33.196963)"
       gradientUnits="userSpaceOnUse"
       x1="1.3329999"
       x2="1.3329999"
       y1="48.714001"
       y2="9.7139997">
      <stop
         offset="0"
         stop-color="#eef1f2"
         id="stop19-7" />
      <stop
         offset="1"
         stop-color="#f9fafb"
         id="stop21" />
    </linearGradient>
    <linearGradient
       id="f"
       gradientUnits="userSpaceOnUse"
       x1="-11.306"
       x2="-11.306"
       y1="23.620001"
       y2="7.6199999"
       gradientTransform="translate(46.293466,-31.966963)">
      <stop
         offset="0"
         stop-color="#3e3e3e"
         id="stop2-5" />
      <stop
         offset="1"
         stop-color="#5c5c5c"
         id="stop4-3" />
    </linearGradient>
    <linearGradient
       id="linearGradient972"
       gradientUnits="userSpaceOnUse"
       x1="6"
       x2="20"
       y1="5"
       y2="16"
       gradientTransform="matrix(0.38666491,0,0,0.38666491,-14.932957,-19.595831)">
      <stop
         offset="0"
         stop-color="#31363b"
         id="stop7-5" />
      <stop
         offset="1"
         stop-color="#232629"
         id="stop9-6" />
    </linearGradient>
    <linearGradient
       id="linearGradient976"
       gradientUnits="userSpaceOnUse"
       x1="7"
       x2="14"
       y1="7"
       y2="14"
       gradientTransform="matrix(0.38666491,0,0,0.38666491,-14.932957,-19.595831)">
      <stop
         offset="0"
         stop-color="#292c2f"
         id="stop12-2" />
      <stop
         offset="1"
         stop-opacity="0"
         id="stop14-9" />
    </linearGradient>
    <linearGradient
       inkscape:collect="always"
       xlink:href="#b"
       id="linearGradient984"
       gradientUnits="userSpaceOnUse"
       gradientTransform="matrix(0.60147877,0,0,0.60147877,8.1813162,9.6835975)"
       x1="6"
       y1="5"
       x2="20"
       y2="16" />
    <linearGradient
       inkscape:collect="always"
       xlink:href="#c"
       id="linearGradient986"
       gradientUnits="userSpaceOnUse"
       gradientTransform="matrix(0.60147877,0,0,0.60147877,8.1813162,9.6835975)"
       x1="7"
       y1="7"
       x2="14"
       y2="14" />
  </defs>
  <sodipodi:namedview
     id="namedview46"
     pagecolor="#ffffff"
     bordercolor="#666666"
     borderopacity="1.0"
     inkscape:showpageshadow="2"
     inkscape:pageopacity="0.0"
     inkscape:pagecheckerboard="0"
     inkscape:deskcolor="#d1d1d1"
     showgrid="false"
     inkscape:zoom="10.727273"
     inkscape:cx="11"
     inkscape:cy="11.13983"
     inkscape:window-width="1920"
     inkscape:window-height="1000"
     inkscape:window-x="0"
     inkscape:window-y="0"
     inkscape:window-maximized="1"
     inkscape:current-layer="svg44" />
  <linearGradient
     id="a"
     gradientTransform="matrix(0.33540428,0,0,0.34615286,26.069175,-22.911745)"
     gradientUnits="userSpaceOnUse"
     x1="3"
     x2="3"
     y1="17"
     y2="3">
    <stop
       offset="0"
       stop-color="#eef1f2"
       id="stop2" />
    <stop
       offset="1"
       stop-color="#f9fafb"
       id="stop4" />
  </linearGradient>
  <linearGradient
     id="b"
     gradientUnits="userSpaceOnUse"
     x1="6"
     x2="20"
     y1="5"
     y2="16"
     gradientTransform="matrix(0.38666491,0,0,0.38666491,-14.932957,-19.595831)">
    <stop
       offset="0"
       stop-color="#31363b"
       id="stop7" />
    <stop
       offset="1"
       stop-color="#232629"
       id="stop9" />
  </linearGradient>
  <linearGradient
     id="c"
     gradientUnits="userSpaceOnUse"
     x1="7"
     x2="14"
     y1="7"
     y2="14"
     gradientTransform="matrix(0.38666491,0,0,0.38666491,-14.932957,-19.595831)">
    <stop
       offset="0"
       stop-color="#292c2f"
       id="stop12" />
    <stop
       offset="1"
       stop-opacity="0"
       id="stop14" />
  </linearGradient>
  <linearGradient
     id="d"
     gradientTransform="matrix(0.36685,0,0,0.34615286,-95.904468,-195.91939)"
     gradientUnits="userSpaceOnUse"
     x1="388.423"
     x2="388.423"
     y1="557.79797"
     y2="505.798">
    <stop
       offset="0"
       stop-color="#7f8c8d"
       id="stop17" />
    <stop
       offset="1"
       stop-color="#afb0b3"
       id="stop19" />
  </linearGradient>
  <rect
     width="27.998837"
     x="-29.999958"
     y="2.0046256"
     rx="13.999418"
     height="27.99725"
     transform="scale(-1,1)"
     style="display:inline;fill:url(#a-6);stroke-width:1.95986;stroke-opacity:0.55"
     id="rect223"
     ry="13.998625" />
  <path
     style="display:inline;opacity:0.3;fill:#000000;fill-opacity:1;stroke-width:1.95986;stroke-opacity:0.55"
     d="m 2.0087685,15.653314 c -0.00264,0.116683 -0.0084,0.232702 -0.0084,0.350053 0,7.755296 6.2437558,13.998633 13.9993735,13.998633 7.755632,0 13.999479,-6.243337 13.999479,-13.998633 0,-0.117351 -0.0053,-0.232701 -0.0084,-0.350053 -0.184865,7.59214 -6.355793,13.648647 -13.991069,13.648647 -7.6380744,0 -13.8062053,-6.056507 -13.9909773,-13.648647"
     id="path225" />
  <path
     d="m 2.0087685,16.350686 c -0.00264,-0.116683 -0.0084,-0.232035 -0.0084,-0.350053 0,-7.7552303 6.2437558,-13.998633 13.9993735,-13.998633 7.755632,0 13.999479,6.2434027 13.999479,13.998633 0,0.117351 -0.0053,0.233369 -0.0084,0.350053 C 29.805956,8.7585478 23.635028,2.7020389 15.999752,2.7020389 c -7.6380744,0 -13.8062053,6.0565089 -13.9909773,13.6486471"
     style="display:inline;opacity:0.3;fill:#ffffff;fill-opacity:1;stroke-width:1.95986;stroke-opacity:0.55"
     id="path229" />
  <path
     sodipodi:nodetypes="ccc"
     id="path5098-0"
     d="M 28.057333,17.866366 V 17.457337 Z"
     style="fill:#ffffff;fill-opacity:0.756881;fill-rule:nonzero;stroke:none;stroke-width:0.0731788;stroke-linecap:round;stroke-linejoin:round;stroke-miterlimit:4;stroke-dasharray:none;stroke-dashoffset:4;stroke-opacity:1" />
  <path
     d="M 9.2639372,23.824208 H 22.417694 v 2.192289 H 9.2639372 Z"
     fill="#292c2e"
     id="path26-6"
     style="stroke-width:0.730775" />
  <path
     d="m 10.725466,24.554969 h 6.576881 v 0.730765 h -6.576881 z m 7.307643,0 h 2.923058 v 0.730765 h -2.923058 z"
     fill="#f6b44d"
     id="path28-2"
     style="stroke-width:0.730775" />
  <path
     d="m 22.077886,8.0872011 2.532099,2.5306389 v 15.398657 h -10.2307 L 8.5331761,20.170386 Z"
     fill="url(#c)"
     opacity="0.2"
     id="path34-9"
     style="fill:url(#linearGradient2704);stroke-width:0.730775" />
  <path
     d="M 12.186999,7.0166304 A 3.6538203,3.6538203 0 0 0 8.5331761,10.670455 v 3.484278 a 2.1922924,2.1922924 0 0 1 0.7278428,1.547031 1.461528,1.461528 0 0 1 0.00264,0.08405 1.461528,1.461528 0 0 1 -0.00731,0.146145 2.1922924,2.1922924 0 0 1 0,0.0034 2.1922924,2.1922924 0 0 1 -0.7231762,1.479988 v 2.754981 l 2.1922903,2.192288 h 10.230701 l 2.19229,-2.192288 v -2.753523 a 2.1922924,2.1922924 0 0 1 -0.72784,-1.547028 1.461528,1.461528 0 0 1 -0.0026,-0.08403 1.461528,1.461528 0 0 1 0.0073,-0.149816 2.1922924,2.1922924 0 0 1 0.723454,-1.479794 v -3.485743 a 3.6538203,3.6538203 0 0 0 -3.65405,-3.6538241 z"
     id="path36-1"
     style="fill:url(#linearGradient2706);stroke-width:0.730775" />
  <path
     d="m 15.399061,13.292469 h 3.608874 v 0.601479 h -3.608874 z"
     fill="#4d4d4d"
     id="path34-1"
     style="stroke-width:0.601477" />
  <path
     d="m 14.196103,12.690985 v 1.452009 l 2.390645,2.390648 c -0.11466,0.886085 -0.87185,1.570656 -1.789165,1.570656 -0.996561,0 -1.804434,-0.807875 -1.804434,-1.80444 v -1.795034 -0.0096 h -1.202961 v 1.804438 c 0,1.660935 1.346456,3.007392 3.007395,3.007392 1.573097,0 2.863494,-1.207735 2.995646,-2.746595 l 2.417664,-2.417656 v -1.451991 h -1.202958 v 0.953907 l -1.804437,1.804435 -1.804437,-1.804435 v -0.953907 z"
     fill="url(#b)"
     id="path36-2"
     style="fill:url(#linearGradient984);stroke-width:0.601477" />
  <path
     d="m 14.196103,10.886553 v 1.804432 h 0.60148 v -1.202954 h 0.601479 v -0.601478 h -0.601479 z m 4.811832,0 v 0.601478 h 0.601479 v 1.202954 h 0.601479 v -1.804432 h -0.601479 z m -6.616264,1.804432 a 1.2029575,1.2029575 0 0 0 -1.202961,1.202963 1.2029575,1.2029575 0 0 0 1.202961,1.202957 1.2029575,1.2029575 0 0 0 1.202953,-1.202957 1.2029575,1.2029575 0 0 0 -1.202953,-1.202963 z m 0,0.601484 a 0.60147876,0.60147876 0 0 1 0.601478,0.601479 0.60147876,0.60147876 0 0 1 -0.601478,0.601472 0.60147876,0.60147876 0 0 1 -0.601483,-0.601472 0.60147876,0.60147876 0 0 1 0.601483,-0.601479 z"
     fill="#7f8c8d"
     id="path38-7"
     style="stroke-width:0.601477" />
  <path
     d="m 12.838075,13.491003 c 0.213338,0.236108 0.206412,0.600654 -0.0212,0.82821 -0.227551,0.227545 -0.592099,0.234476 -0.828206,0.02119 l 1.004418,1.004426 v 0.955082 c 0,0.996562 0.807876,1.804435 1.804439,1.804435 0.717597,0 1.337475,-0.418974 1.628221,-1.025569 z"
     fill="url(#c)"
     opacity="0.2"
     id="path40-0"
     style="fill:url(#linearGradient986);stroke-width:0.601477" />
  <path
     d="m 15.399061,10.285074 v 1.202957 h 0.601479 a 0.60147876,0.60147876 0 0 0 0.601479,-0.601478 V 10.8607 a 0.60147876,0.60147876 0 0 0 -0.575633,-0.575632 z m 3.007395,0 a 0.60147876,0.60147876 0 0 0 -0.601479,0.601479 v 0.02582 a 0.60147876,0.60147876 0 0 0 0.575635,0.575636 h 0.627323 v -1.202961 z"
     id="path42-9"
     style="stroke-width:0.601477" />
</svg>
