<?xml version="1.0" encoding="UTF-8" standalone="no"?>
<svg
   height="32"
   width="32"
   version="1.1"
   id="svg44"
   sodipodi:docname="preferences-system-network-iscsi.svg"
   inkscape:version="1.2.1 (9c6d41e410, 2022-07-14)"
   xmlns:inkscape="http://www.inkscape.org/namespaces/inkscape"
   xmlns:sodipodi="http://sodipodi.sourceforge.net/DTD/sodipodi-0.dtd"
   xmlns:xlink="http://www.w3.org/1999/xlink"
   xmlns="http://www.w3.org/2000/svg"
   xmlns:svg="http://www.w3.org/2000/svg">
  <defs
     id="defs48">
    <linearGradient
       gradientTransform="matrix(0.69997076,0,0,0.69993111,-301.98803,-350.62269)"
       gradientUnits="userSpaceOnUse"
       x2="426.69501"
       y2="499.92099"
       y1="547.67499"
       id="a-6"
       x1="389.32001">
      <stop
         stop-color="#18222a"
         style="stop-color:#1e2b35;stop-opacity:1"
         id="stop216" />
      <stop
         stop-color="#566069"
         offset="1"
         style="stop-color:#6d7983;stop-opacity:1"
         id="stop218" />
    </linearGradient>
    <linearGradient
       inkscape:collect="always"
       xlink:href="#a"
       id="linearGradient2704"
       gradientUnits="userSpaceOnUse"
       gradientTransform="matrix(0.73076414,0,0,0.73076416,4.148222,4.091575)"
       x1="-421.44699"
       y1="-504.20401"
       x2="-410.44699"
       y2="-493.20401" />
    <linearGradient
       id="linearGradient615">
      <stop
         offset="0"
         stop-color="#292c2f"
         id="stop8-3" />
      <stop
         offset="1"
         stop-opacity="0"
         id="stop10-6" />
    </linearGradient>
    <linearGradient
       inkscape:collect="always"
       xlink:href="#d-7"
       id="linearGradient2706"
       gradientUnits="userSpaceOnUse"
       gradientTransform="matrix(0.38126884,0,0,0.39348724,3.63961,3.192736)"
       x1="1.3329999"
       y1="48.714001"
       x2="1.3329999"
       y2="9.7139997" />
    <linearGradient
       id="d-7"
       gradientTransform="matrix(0.52174,0,0,0.53846,45.597466,-33.196963)"
       gradientUnits="userSpaceOnUse"
       x1="1.3329999"
       x2="1.3329999"
       y1="48.714001"
       y2="9.7139997">
      <stop
         offset="0"
         stop-color="#eef1f2"
         id="stop19-5" />
      <stop
         offset="1"
         stop-color="#f9fafb"
         id="stop21-3" />
    </linearGradient>
    <linearGradient
       inkscape:collect="always"
       xlink:href="#a"
       id="linearGradient2708"
       gradientUnits="userSpaceOnUse"
       gradientTransform="matrix(0.73076414,0,0,0.73076416,4.148222,4.091575)"
       x1="10"
       y1="9"
       x2="24"
       y2="23" />
    <linearGradient
       id="f-5"
       gradientUnits="userSpaceOnUse"
       x1="-11.306"
       x2="-11.306"
       y1="23.620001"
       y2="7.6199999"
       gradientTransform="translate(46.293466,-31.966963)">
      <stop
         offset="0"
         stop-color="#3e3e3e"
         id="stop2-6" />
      <stop
         offset="1"
         stop-color="#5c5c5c"
         id="stop4-2" />
    </linearGradient>
    <linearGradient
       id="linearGradient936"
       gradientUnits="userSpaceOnUse"
       x1="16"
       x2="16"
       y1="22"
       y2="6"
       gradientTransform="translate(-5.2746071,-36.707362)">
      <stop
         offset="0"
         stop-color="#3e3e3e"
         id="stop8-7" />
      <stop
         offset="1"
         stop-color="#5c5c5c"
         id="stop10-5" />
    </linearGradient>
    <linearGradient
       inkscape:collect="always"
       xlink:href="#f"
       id="linearGradient940"
       gradientUnits="userSpaceOnUse"
       gradientTransform="matrix(0.87499924,0,0,0.87499924,1.622276,2.3260089)"
       x1="16"
       y1="22"
       x2="16"
       y2="6" />
  </defs>
  <sodipodi:namedview
     id="namedview46"
     pagecolor="#ffffff"
     bordercolor="#666666"
     borderopacity="1.0"
     inkscape:showpageshadow="2"
     inkscape:pageopacity="0.0"
     inkscape:pagecheckerboard="0"
     inkscape:deskcolor="#d1d1d1"
     showgrid="false"
     inkscape:zoom="7.375"
     inkscape:cx="16"
     inkscape:cy="16.067797"
     inkscape:window-width="1920"
     inkscape:window-height="1000"
     inkscape:window-x="0"
     inkscape:window-y="0"
     inkscape:window-maximized="1"
     inkscape:current-layer="svg44" />
  <linearGradient
     id="a">
    <stop
       offset="0"
       stop-color="#292c2f"
       id="stop2" />
    <stop
       offset="1"
       stop-opacity="0"
       id="stop4" />
  </linearGradient>
  <linearGradient
     id="e"
     gradientUnits="userSpaceOnUse"
     x1="10"
     x2="24"
     xlink:href="#a"
     y1="9"
     y2="23"
     gradientTransform="translate(-34.905199,-25.423729)" />
  <linearGradient
     id="f"
     gradientUnits="userSpaceOnUse"
     x1="16"
     x2="16"
     y1="22"
     y2="6"
     gradientTransform="translate(-5.2746071,-36.707362)">
    <stop
       offset="0"
       stop-color="#3e3e3e"
       id="stop8" />
    <stop
       offset="1"
       stop-color="#5c5c5c"
       id="stop10" />
  </linearGradient>
  <linearGradient
     id="c"
     gradientUnits="userSpaceOnUse"
     x1="-421.447"
     x2="-410.447"
     xlink:href="#a"
     y1="-504.204"
     y2="-493.204"
     gradientTransform="translate(-34.905199,-25.423729)" />
  <linearGradient
     id="d"
     gradientTransform="matrix(0.52174,0,0,0.53846,-35.601199,-26.653729)"
     gradientUnits="userSpaceOnUse"
     x1="1.333"
     x2="1.333"
     y1="48.714"
     y2="9.714">
    <stop
       offset="0"
       stop-color="#eef1f2"
       id="stop14" />
    <stop
       offset="1"
       stop-color="#f9fafb"
       id="stop16" />
  </linearGradient>
  <linearGradient
     id="b"
     gradientTransform="matrix(0.58696,0,0,0.53846,-262.8932,-295.77673)"
     gradientUnits="userSpaceOnUse"
     x1="388.423"
     x2="388.423"
     y1="557.798"
     y2="505.798">
    <stop
       offset="0"
       stop-color="#7f8c8d"
       id="stop19" />
    <stop
       offset="1"
       stop-color="#afb0b3"
       id="stop21" />
  </linearGradient>
  <rect
     width="27.998837"
     x="-29.99959"
     y="2.0026264"
     rx="13.999418"
     height="27.99725"
     transform="scale(-1,1)"
     style="display:inline;fill:url(#a-6);stroke-width:1.95987;stroke-opacity:0.55"
     id="rect223"
     ry="13.998625" />
  <path
     style="display:inline;opacity:0.3;fill:#000000;fill-opacity:1;stroke-width:1.95987;stroke-opacity:0.55"
     d="M 2.0084,15.651314 C 2.0057,15.767998 2,15.884016 2,16.001367 2,23.756664 8.2437559,30 15.999374,30 c 7.75563,0 13.999478,-6.243336 13.999478,-13.998633 0,-0.117351 -0.0053,-0.232702 -0.0084,-0.350053 -0.184865,7.59214 -6.355794,13.648648 -13.99107,13.648648 -7.6380731,0 -13.806203,-6.056508 -13.990975,-13.648648"
     id="path225" />
  <path
     d="M 2.0084,16.348686 C 2.0057,16.232002 2,16.116651 2,15.998633 2,8.243403 8.2437559,2 15.999374,2 c 7.75563,0 13.999478,6.243403 13.999478,13.998633 0,0.117351 -0.0053,0.233369 -0.0084,0.350053 C 29.805587,8.756548 23.634658,2.700038 15.999382,2.700038 c -7.6380731,0 -13.806203,6.05651 -13.990975,13.648648"
     style="display:inline;opacity:0.3;fill:#ffffff;fill-opacity:1;stroke-width:1.95987;stroke-opacity:0.55"
     id="path229" />
  <path
     sodipodi:nodetypes="ccc"
     id="path5098-0"
     d="M 28.056964,17.864366 V 17.455338 Z"
     style="fill:#ffffff;fill-opacity:0.756881;fill-rule:nonzero;stroke:none;stroke-width:0.0731788;stroke-linecap:round;stroke-linejoin:round;stroke-miterlimit:4;stroke-dasharray:none;stroke-dashoffset:4;stroke-opacity:1" />
  <path
     d="M 9.2635679,23.822207 H 22.417325 v 2.19229 H 9.2635679 Z"
     fill="#292c2e"
     id="path26-6"
     style="stroke-width:0.730775" />
  <path
     d="m 10.725096,24.552969 h 6.576881 v 0.730766 h -6.576881 z m 7.307643,0 h 2.923057 v 0.730766 h -2.923057 z"
     fill="#f6b44d"
     id="path28-2"
     style="stroke-width:0.730775" />
  <path
     d="m 22.077516,8.085202 2.532098,2.530637 V 26.014497 H 14.378916 l -5.8461101,-5.84611 z"
     fill="url(#c)"
     opacity="0.2"
     id="path34-9"
     style="fill:url(#linearGradient2704);stroke-width:0.730775" />
  <path
     d="m 12.186629,7.014631 a 3.6538201,3.6538203 0 0 0 -3.6538231,3.653823 v 3.484278 a 2.1922923,2.1922923 0 0 1 0.727844,1.547032 1.461528,1.461528 0 0 1 0.0027,0.08404 1.461528,1.461528 0 0 1 -0.0073,0.146148 2.1922923,2.1922923 0 0 1 0,0.0035 2.1922923,2.1922923 0 0 1 -0.723177,1.479988 v 2.754981 l 2.1922901,2.192287 h 10.2307 l 2.19229,-2.192287 v -2.753558 a 2.1922923,2.1922923 0 0 1 -0.727839,-1.547028 1.461528,1.461528 0 0 1 -0.0027,-0.08403 1.461528,1.461528 0 0 1 0.0073,-0.149811 2.1922923,2.1922923 0 0 1 0.723454,-1.479795 v -3.485743 a 3.6538201,3.6538203 0 0 0 -3.65405,-3.653823 z"
     fill="url(#d)"
     id="path36-1"
     style="fill:url(#linearGradient2706);stroke-width:0.730775" />
  <path
     d="m 17.065207,23.822207 h 7.544407 v -9.005936 l -4.63085,-4.631584 -4.138315,-1.708527 -4.384586,2.192294 -1.139991,3.65382 1.387717,4.137582 z"
     fill="url(#e)"
     opacity="0.2"
     id="path38-2"
     style="fill:url(#linearGradient2708);stroke-width:0.730775" />
  <path
     d="m 15.625767,7.5759999 c -0.279126,0 -0.5495,0.02275 -0.820753,0.05512 a 7.1574941,7.1574941 0 0 0 -0.792748,0.136499 c -0.08225,0.01925 -0.161875,0.05861 -0.245,0.08225 -0.0744,0.02012 -0.147001,0.0324 -0.21875,0.05512 -0.09273,0.02888 -0.188123,0.0516 -0.274749,0.08225 -0.09362,0.03327 -0.181124,0.0726 -0.273876,0.109374 -0.180247,0.0726 -0.3465,0.159254 -0.518873,0.245002 -0.06212,0.0324 -0.13125,0.04988 -0.192499,0.08312 -0.201251,0.105001 -0.385001,0.230128 -0.573126,0.355254 -0.07174,0.04812 -0.14875,0.08574 -0.218749,0.135621 -0.02888,0.021 -0.0534,0.03327 -0.08225,0.05512 -0.08225,0.06212 -0.167127,0.124251 -0.245876,0.192499 -0.09361,0.077 -0.183749,0.162754 -0.273875,0.245001 -0.028,0.02625 -0.05427,0.056 -0.08227,0.08227 l -0.02712,0.02712 c -0.014,0.014 -0.01312,0.04112 -0.02712,0.05512 -0.18375,0.178503 -0.384999,0.349126 -0.546872,0.5468771 -0.0042,0.0088 0.0042,0.02188 0,0.02625 -0.158377,0.192499 -0.300128,0.39287 -0.437501,0.602872 -0.01839,0.028 -0.03675,0.05251 -0.05512,0.08227 -0.01312,0.021 -0.04112,0.0324 -0.05512,0.05512 -0.0525,0.08572 -0.0884,0.182873 -0.1365,0.273 -0.01575,0.02888 -0.0394,0.05339 -0.05512,0.08226 -0.0656,0.127748 -0.131244,0.253748 -0.1925,0.383247 -0.0028,0.0088 0.0042,0.02012 0,0.02712 a 7.0227441,7.0227441 0 0 0 -0.272998,0.6825 c -0.0166,0.04726 -0.03939,0.091 -0.05512,0.137376 -0.0028,0.0088 0.0028,0.01926 0,0.02625 -0.01752,0.05512 -0.03851,0.11025 -0.05512,0.165372 -0.06388,0.224 -0.122499,0.448876 -0.164499,0.682499 -0.02974,0.168 -0.06474,0.347378 -0.08224,0.519751 a 7.0909941,7.0909941 0 0 0 -0.02712,0.711377 c 0,0.352624 0.0315,0.7 0.08225,1.038623 0.0052,0.03588 -0.0062,0.0744 0,0.109377 0.03851,0.232745 0.10325,0.45937 0.164498,0.682498 0.02274,0.08488 0.056,0.163626 0.08224,0.246747 0.035,0.112879 0.06912,0.217879 0.109376,0.327253 a 6.9124943,6.9124943 0 0 0 0.218756,0.546872 c 0.04373,0.09273 0.08926,0.183754 0.136499,0.273875 a 6.9999942,6.9999942 0 0 0 0.437501,0.738499 c 0.014,0.021 0.04024,0.0341 0.05512,0.0551 0.173246,0.245 0.344746,0.49 0.546873,0.7105 0.035,0.0385 0.0735,0.07175 0.109373,0.109375 0.035,0.03675 0.07348,0.0735 0.109374,0.109375 0.187253,0.187249 0.393752,0.354374 0.602001,0.519749 0.267751,0.2135 0.550376,0.401625 0.847875,0.573125 0.01049,0.0087 0.0166,0.021 0.02625,0.02712 0.04726,0.02625 0.091,0.05687 0.137376,0.08225 0.275622,0.1365 0.604625,0.284374 0.819874,0.383249 0.09627,0.03675 0.202125,0.04988 0.301002,0.08225 0.0464,0.01575 0.0901,0.04025 0.136499,0.05513 0.118999,0.03587 0.2345,0.07875 0.355248,0.109376 l 0.109376,0.02713 c 0.255499,0.06125 0.526754,0.105875 0.792753,0.1365 0.271246,0.0315 0.540746,0.05512 0.820745,0.05512 0.2975,0 0.586254,-0.01837 0.874998,-0.05512 0.319378,-0.042 0.595001,-0.1085 0.875,-0.1645 a 6.9203691,6.9203691 0 0 0 3.690749,-2.405374 c 0.02452,-0.03063 0.0586,-0.05073 0.08227,-0.08226 0.0088,-0.01051 0.01925,-0.01751 0.02712,-0.02627 0.01227,-0.01663 0.01575,-0.03937 0.02712,-0.056 a 6.9684944,6.9684944 0 0 0 1.175997,-2.459622 c 0.049,-0.189872 0.103248,-0.377999 0.136499,-0.573999 0.0042,-0.02625 -0.0042,-0.05512 0,-0.08223 0.0052,-0.035 0.02188,-0.06912 0.02712,-0.109379 0.0052,-0.0376 0.02274,-0.07173 0.02712,-0.10937 h -0.02624 c 0.0376,-0.287877 0.0814,-0.576629 0.0814,-0.875 0,-0.482128 -0.04373,-0.965127 -0.136499,-1.421001 -0.0078,-0.03761 -0.01928,-0.07174 -0.02625,-0.109373 -0.04112,-0.181127 -0.109377,-0.369253 -0.165377,-0.545999 -0.0028,-0.0088 0.0028,-0.01926 0,-0.02712 a 3.0091226,3.0091226 0 0 0 -0.02625,-0.08227 c -0.035,-0.104999 -0.07173,-0.225749 -0.110249,-0.328122 -0.01049,-0.028 -0.01575,-0.056 -0.02624,-0.08227 -0.03849,-0.09628 -0.09538,-0.180246 -0.137377,-0.273872 -0.002,0 0.002,-0.02274 0,-0.02712 -0.02188,-0.04723 -0.05947,-0.0901 -0.08226,-0.136499 A 6.8363693,6.8363693 0 0 0 21.637938,11.02346 c -0.05076,-0.08574 -0.08227,-0.188999 -0.136499,-0.273001 -0.021,-0.03151 -0.0604,-0.05074 -0.08225,-0.08225 -0.0586,-0.08753 -0.128623,-0.161875 -0.191624,-0.245878 -0.07,-0.0875 -0.122499,-0.188998 -0.191625,-0.273872 -0.0042,-0.0088 0.0042,-0.02188 0,-0.02712 -0.1505,-0.1837521 -0.32375,-0.3526291 -0.492622,-0.5197511 -0.0814,-0.08048 -0.161001,-0.16975 -0.245001,-0.245 -0.0254,-0.02274 -0.05772,-0.03412 -0.08312,-0.056 a 7.1146192,7.1146192 0 0 0 -0.57399,-0.437515 c -0.04812,-0.03239 -0.0875,-0.07612 -0.1365,-0.1085 -0.06125,-0.04026 -0.1295,-0.07088 -0.191628,-0.109373 -0.117249,-0.07352 -0.231871,-0.152251 -0.354373,-0.21875 A 7.081369,7.081369 0 0 0 18.63058,8.2619509 6.9124943,6.9124943 0 0 0 18.056581,8.0160739 6.6928695,6.6928695 0 0 0 17.345208,7.7973249 6.7873694,6.7873694 0 0 0 15.622335,7.5785769 m 0,0.874999 a 6.1451196,6.1451196 0 0 1 1.230247,0.137373 h 0.02624 c 0.146126,0.03061 0.296626,0.06912 0.437499,0.109375 0.08488,0.0236 0.164501,0.05512 0.246751,0.08226 0.1505,0.04988 0.29225,0.102376 0.4375,0.164501 0.16975,0.07 0.331628,0.133 0.492627,0.218752 l -0.08225,0.02624 a 0.27912475,0.27912475 0 0 0 -0.109377,0.109377 c -0.0175,0.042 0.0042,0.100629 0,0.1645 0.03326,0.01488 0.05251,0.07875 0.109377,0.109376 0.02188,0.01225 0.035,-0.0088 0.05512,0 0.03327,0.0184 0.06123,0.07612 0.05512,0.109371 -0.0099,0.04812 -0.077,0.01925 -0.109376,0.05512 0.0052,0.06825 -0.0376,0.09191 -0.05512,0.1365 0.01054,0.02888 0.04987,0.021 0.05512,0.05512 -0.0062,0.03761 -0.07,0.04288 -0.05512,0.08225 0.063,0.049 0.131248,-0.01926 0.191627,-0.02712 0.13037,-0.01749 0.247623,0.035 0.328123,-0.02712 -0.01051,-0.06212 0.08747,-0.0805 0.08225,-0.1365 -0.0052,-0.042 -0.07876,-0.05339 -0.109376,-0.08227 -0.01749,-0.01572 -0.035,-0.0516 -0.05512,-0.08226 -0.02274,-0.035 -0.056,-0.07612 -0.08225,-0.109375 -0.035,-0.04547 -0.109377,-0.102377 -0.109377,-0.136501 0,-0.0394 0.04548,-0.05512 0.05512,-0.109377 -0.01052,-0.04988 -0.102364,0 -0.10937,-0.05512 a 0.14174986,0.14174986 0 0 1 0.02625,-0.05512 c 0.13125,0.07173 0.261626,0.156624 0.384125,0.245874 l 0.08225,0.05512 c 0.09452,0.07088 0.181125,0.148745 0.273877,0.218745 -0.05861,0.0105 -0.0884,0.07875 -0.136502,0.136502 a 0.40599968,0.40599968 0 0 1 -0.136499,0.109374 c -0.0245,0.0105 -0.05953,-0.014 -0.08225,0 -0.0324,0.02188 -0.0446,0.084 -0.08225,0.1093781 -0.02712,0.01751 -0.108499,0.08227 -0.136499,0.08227 -0.03326,0 -0.08575,-0.035 -0.109377,-0.02712 -0.035,0.0114 -0.01488,0.0674 -0.05512,0.08227 -0.077,0.02625 -0.218751,-0.06125 -0.245874,0.05512 0.03327,0.06649 0.133874,0.04374 0.191624,0.08226 a 0.41562468,0.41562468 0 0 1 0.109375,0.164502 0.56349952,0.56349952 0 0 1 0,0.191621 c -0.03588,0.09272 -0.14,0.08488 -0.245877,0.08225 -0.02975,-8.69e-4 -0.05512,0 -0.08225,0 -0.18113,-0.01227 -0.356129,-0.07439 -0.437498,0.05512 0.0062,0.09888 0.02188,0.160122 0,0.244999 -0.01575,0.063 -0.08488,0.10937 -0.08225,0.164499 0.002,0.028 0.04812,0.07173 0.05512,0.109371 0.0042,0.02012 -0.0099,0.06388 0,0.08226 0.02974,0.05774 0.111124,-0.0088 0.164499,0 0.05161,0.0088 0.110252,0.105879 0.109375,0.164502 a 0.30274975,0.30274975 0 0 1 -0.05512,0.1365 c -0.05073,0.07875 -0.146125,0.0674 -0.218749,0.109377 -0.06125,0.03412 -0.07349,0.104121 -0.109375,0.164499 -0.03852,0.06475 -0.07088,0.09627 -0.05512,0.191623 a 0.42437467,0.42437467 0 0 1 -0.218752,0.218748 c -0.03239,0.01488 -0.08051,0.03412 -0.109372,0.05512 a 0.55124953,0.55124953 0 0 0 -0.08225,0.08227 c -0.04112,0.04552 -0.08752,0.0744 -0.109375,0.109374 -0.0175,0.02626 -0.0088,0.07348 -0.02712,0.109377 -0.02625,0.049 -0.077,0.08748 -0.109376,0.136501 -0.01488,0.02274 -0.0376,0.05161 -0.05512,0.08224 -0.03673,0.0674 -0.0884,0.131254 -0.08225,0.190753 0.0062,0.05775 0.07787,0.0595 0.08225,0.109377 0.0033,0.028 -0.02888,0.0525 -0.02712,0.08224 0,0.04461 0.02361,0.07525 0.02626,0.109378 0.0088,0.08751 -0.0376,0.105 -0.05427,0.1645 -0.0088,0.028 0.0073,0.0595 0,0.08227 -0.014,0.04374 -0.0814,0.08574 -0.08225,0.136501 -8.75e-4,0.03673 0.0516,0.08488 0.05512,0.136502 0.002,0.035 -0.03324,0.04988 -0.02712,0.08225 0.01225,0.06388 0.141751,0.141749 0.191624,0.191622 0.0656,0.0656 0.135627,0.121626 0.1645,0.191626 0.0236,0.0586 0.035,0.146999 0.08227,0.191625 0.03412,0.0324 0.09273,0.04726 0.136499,0.08227 0.04112,0.03151 0.09361,0.04812 0.1365,0.08227 0.07,0.056 0.160124,0.172375 0.273876,0.164501 0.0595,-0.0088 0.124247,-0.04374 0.191624,-0.05512 0.06912,-0.01227 0.148752,-0.035 0.218751,-0.02712 0.05253,0.0088 0.1085,0.05776 0.1645,0.05512 0.0586,0 0.125124,-0.0534 0.191624,-0.08225 0.114624,-0.04988 0.295747,-0.133875 0.463747,-0.109375 0.127754,0.0175 0.131254,0.189874 0.218753,0.244999 0.103246,0.0088 0.192499,-0.0464 0.273876,-0.02625 0.06126,0.01488 0.131247,0.1155 0.136501,0.1645 0.0062,0.05075 -0.04725,0.105 -0.05512,0.1365 -0.01575,0.06825 -0.01488,0.147877 -0.02626,0.190751 -0.01051,0.03326 -0.02888,0.07525 -0.028,0.109375 a 0.4724996,0.4724996 0 0 0 0.08225,0.164499 c 0.03851,0.049 0.0901,0.084 0.136499,0.136502 a 1.5749985,1.5749985 0 0 1 0.192501,0.328125 c 0.014,0.0324 -0.01488,0.0674 0,0.109375 -0.02627,0.195999 -0.091,0.329872 -0.218748,0.546874 -0.06126,0.07 -0.139125,0.131248 -0.137378,0.218749 -0.0042,0.209999 0.118999,0.342999 0.109378,0.545999 -0.021,0.273 0.021,0.291375 0,0.4375 0.09191,0.04639 0.02712,0.203874 0,0.300998 -0.0394,0.115501 -0.08751,0.141751 -0.109378,0.218751 0.06212,0.02627 0.149625,0.01662 0.218753,0 0,0 0.084,0.350001 0.08225,0.355251 a 6.1276196,6.1276196 0 0 1 -2.569871,1.503248 c -0.481247,0.116374 -0.62387,0.116374 -0.848747,0.164499 a 5.5851204,5.5851204 0 0 1 -0.901251,0.08225 c -0.212624,0 -0.422624,-0.0087 -0.629124,-0.02713 -0.159246,-0.01575 -0.309747,-0.05425 -0.463747,-0.08225 a 6.2737447,6.2737447 0 0 1 -0.137381,-0.02712 c -0.142623,-0.04812 -0.306254,-0.077 -0.437499,-0.109375 a 6.1836198,6.1836198 0 0 1 -0.437506,-0.136515 c 0.01228,-0.01138 0.0236,-0.0096 0.02712,-0.02713 0.0088,-0.035 0.002,-0.05425 0,-0.109375 0.01312,-0.05688 0.07,-0.05075 0.08227,-0.109375 -0.02452,-0.042 -0.07261,-0.03325 -0.109377,-0.05513 a 0.11637488,0.11637488 0 0 1 -0.05512,-0.109375 c 0.06126,-0.02538 0.175001,0.05775 0.218746,-0.02713 0.02188,-0.04025 -0.02974,-0.1225 0,-0.1645 0.02012,-0.02625 0.148753,-0.04813 0.192499,-0.05513 0.06126,-0.0105 0.128625,-0.0087 0.163624,-0.02625 a 0.19512484,0.19512484 0 0 0 0.08227,-0.165374 c -0.0033,-0.03413 -0.02888,-0.05163 -0.05512,-0.08225 -0.02188,-0.02537 -0.0114,-0.05775 -0.02626,-0.08225 -0.028,-0.04113 -0.07,-0.05075 -0.08312,-0.109376 0.084,-0.01663 0.206499,0.08925 0.328123,0.05512 0.05774,-0.01662 0.137376,-0.164501 0.164501,-0.218749 0.0088,-0.01663 -0.0088,-0.035 0,-0.05511 0.01051,-0.02274 0.0525,-0.04289 0.05512,-0.05511 0.0088,-0.03151 -0.0073,-0.06127 0,-0.08227 0.021,-0.05952 0.0744,-0.06563 0.109373,-0.109377 0.02626,-0.03327 0.05688,-0.0761 0.08225,-0.109374 0.02712,-0.035 0.03675,-0.0779 0.05512,-0.109375 0.0175,-0.105875 -0.0525,-0.179374 -0.02624,-0.273 0.02712,-0.105002 0.170629,-0.144374 0.272998,-0.192501 0.035,-0.01572 0.08051,-0.04372 0.109374,-0.05426 0.07,-0.02451 0.154001,-0.03151 0.218755,-0.05509 0.109372,-0.04028 0.137373,-0.146126 0.191624,-0.245874 a 0.53462455,0.53462455 0 0 0 0.05512,-0.1365 c 0.0042,-0.0306 -0.0062,-0.04639 0,-0.08228 0.0052,-0.035 0.01748,-0.07089 0.02712,-0.109376 a 0.9624991,0.9624991 0 0 0 0.02712,-0.191623 c 0,-0.04639 -0.0254,-0.06826 -0.02712,-0.109376 -0.0078,-0.151374 0.0534,-0.19075 0.109376,-0.273874 0.028,-0.04112 0.035,-0.07876 0.05512,-0.109378 0.09448,-0.139999 0.258125,-0.196872 0.245002,-0.409498 -0.0033,-0.07 -0.02976,-0.223999 -0.0814,-0.245873 -0.02974,-0.01312 -0.09361,-0.0099 -0.1365,-0.02712 -0.138249,-0.05251 -0.239748,-0.236252 -0.383247,-0.245879 -0.03061,0 -0.04812,0.02625 -0.08225,0.02625 -0.05688,0 -0.128626,-0.04549 -0.191626,-0.05425 -0.04027,-0.0088 -0.112873,0.0114 -0.1365,0 -0.03674,-0.01749 -0.0254,-0.08927 -0.05512,-0.109373 -0.0236,-0.01574 -0.0735,-0.01312 -0.109375,-0.02712 -0.05775,-0.02188 -0.098,-0.049 -0.1645,-0.05512 -0.02012,-8.74e-4 -0.0586,0 -0.08225,0 -0.03673,-0.0088 -0.07525,-0.035 -0.109374,-0.05512 a 0.18199985,0.18199985 0 0 1 -0.08226,-0.08226 c 0.03851,-0.126 -0.084,-0.146126 -0.109375,-0.218749 -0.01226,-0.03412 0.0114,-0.07876 0,-0.109376 -0.01488,-0.04375 -0.06126,-0.07349 -0.109373,-0.109375 -0.08488,-0.06475 -0.15225,-0.121625 -0.273876,-0.136501 -0.05251,-0.0088 -0.126876,0 -0.191624,0 a 0.32112473,0.32112473 0 0 1 -0.191627,-0.109374 c -0.049,-0.05687 -0.06652,-0.109372 -0.109374,-0.1365 -0.04112,-0.02625 -0.108501,-0.02625 -0.136501,-0.05512 -0.01227,-0.01225 -0.01488,-0.02625 -0.02625,-0.05512 -0.021,-0.042 -0.05424,-0.08575 -0.028,-0.136499 -0.0464,-0.0236 -0.0306,0.063 -0.08225,0.05512 -0.04552,-0.06476 -0.08752,-0.100629 -0.191625,-0.08227 -0.04726,0.0088 -0.0814,0.05249 -0.136502,0.05512 -0.04553,0 -0.077,-0.0464 -0.136499,-0.05512 -0.04552,-0.0088 -0.105,0.0315 -0.1365,0.02712 -0.04987,-0.0088 -0.06387,-0.0516 -0.109372,-0.08227 -0.03327,-0.02188 -0.091,-0.08312 -0.109378,-0.08227 -0.0586,0 -0.110248,0.125121 -0.191622,0.08227 -0.03939,-0.04988 0.0744,-0.06125 0.02712,-0.109375 -0.035,-0.035 -0.0525,0.0088 -0.08225,0.02712 a 0.58274951,0.58274951 0 0 1 -0.109378,0.05512 c -0.08048,0.02976 -0.128623,0.02188 -0.191623,0.05512 -0.05774,0.02977 -0.07612,0.077 -0.109377,0.136501 -0.02625,0.049 -0.06912,0.133878 -0.109371,0.136499 -0.049,0 -0.09191,-0.063 -0.135628,-0.08227 -0.133872,-0.05775 -0.217001,0.02625 -0.328122,0.02712 -0.103248,0 -0.251126,-0.148748 -0.245877,-0.245001 0.0033,-0.0586 0.04726,-0.145247 0.05512,-0.218747 0.0052,-0.05774 0.05426,-0.111121 0.05512,-0.1645 0,-0.07087 -0.118124,-0.12862 -0.164501,-0.136499 -0.109374,-0.02012 -0.258123,0.05251 -0.383247,0 -0.0236,-0.0394 0.04112,-0.07088 0.05512,-0.109374 0.0078,-0.02188 -0.0088,-0.02978 0,-0.05512 0.014,-0.03673 0.06474,-0.07 0.08227,-0.109375 0.01312,-0.02973 0.014,-0.07173 0.02624,-0.109375 0.01575,-0.04373 0.0525,-0.0796 0.056,-0.109372 0.0042,-0.0394 -0.02362,-0.08312 -0.05512,-0.109376 -0.0971,0.0088 -0.163625,0 -0.218749,0.02712 -0.126001,0.05772 -0.09273,0.232753 -0.218751,0.273873 -0.04373,0.014 -0.116375,0.01753 -0.164499,0.02625 -0.04112,0.0088 -0.09362,0.02888 -0.136501,0.028 a 0.30974975,0.30974975 0 0 1 -0.164499,-0.08227 0.15224986,0.15224986 0 0 1 -0.02712,-0.05512 c 0.002,-0.0088 -0.002,-0.01839 0,-0.02712 0.04024,-0.195125 0.08139,-0.388498 0.136501,-0.573997 0.0028,-0.0088 -0.0028,-0.01926 0,-0.02625 0.03675,-0.122501 0.0901,-0.236249 0.136499,-0.356123 0.0114,-0.0088 0.0166,-0.02012 0.02625,-0.02625 0.06825,-0.04726 0.137375,-0.105 0.218747,-0.109376 0.05075,0 0.144377,0.01751 0.192502,0.02626 0.04375,0.0088 0.07174,0.05251 0.109375,0.056 0.107624,0.0088 0.130374,-0.0901 0.21875,-0.1365 0.091,0.01312 0.136501,-0.0088 0.218751,0 0.056,0.0088 0.120749,0.07874 0.164499,0.08226 0.03673,0 0.0464,-0.06125 0.08225,-0.05512 0.035,0.0088 0.104122,0.0945 0.109376,0.136499 0.0062,0.05251 -0.042,0.106751 -0.02712,0.163625 0.05512,0.056 0.166253,0.049 0.245,0.08225 0.05251,-0.042 0.0088,-0.103257 0,-0.163624 -8.74e-4,-0.02712 0.0042,-0.05775 0,-0.08224 -0.0042,-0.042 -0.02625,-0.07349 -0.02625,-0.109376 -8.73e-4,-0.16625 0.134751,-0.262499 0.245,-0.328123 0.049,-0.02888 0.09447,-0.06126 0.136499,-0.08227 0.05861,-0.02974 0.08747,-0.05512 0.136499,-0.08226 0.0884,-0.04988 0.176752,-0.08052 0.245878,-0.1365 0.0324,-0.07525 -0.0033,-0.1715 0,-0.245874 0.0324,-0.01925 0.04812,0 0.08225,0 0.0534,-0.0114 0.07875,-0.0796 0.109376,-0.109374 0.0175,-0.0175 0.06125,-0.0376 0.08227,-0.05512 0.0534,-0.042 0.063,-0.091 0.109376,-0.109375 0.0175,-0.0088 0.056,-0.01488 0.08227,-0.02712 0.035,-0.0099 0.08053,-0.035 0.1365,-0.05512 0.03675,-0.01224 0.1225,-0.01312 0.1365,-0.02712 0.01751,-0.01745 -0.0052,-0.08312 0,-0.109378 0.028,-0.131247 0.238,-0.147 0.355247,-0.191623 0.08227,-0.0315 0.155751,-0.09973 0.245876,-0.08226 -0.0175,0.063 -0.09627,0.03328 -0.08226,0.109374 0.02012,0.105873 0.154,-0.0114 0.1925,-0.02625 0.07,-0.0306 0.206499,-0.049 0.300126,-0.08312 0.08226,-0.02974 0.214372,-0.07 0.136499,-0.164501 -0.06474,0 -0.08051,0.05774 -0.136499,0.08224 -0.03852,0.0088 -0.049,-0.02362 -0.08226,-0.02625 -0.0315,0 -0.04988,0.0324 -0.08224,0.02625 -0.0324,-0.0088 -0.077,-0.07173 -0.08227,-0.109376 -0.01312,-0.09627 0.09627,-0.119001 0.136499,-0.191623 -0.02625,-0.08753 -0.145249,-0.021 -0.21875,-0.05512 a 0.12949987,0.12949987 0 0 1 0.109376,-0.108499 c 0.04988,-0.0088 0.161874,0.0088 0.1925,0.02625 0.01752,0.01575 0,0.05861 0.02626,0.08312 0.02974,0.02625 0.07088,0.0088 0.109374,0 0.014,-0.06649 -0.09273,-0.0376 -0.08225,-0.08225 0.07875,-0.05251 0.231874,-0.014 0.328123,-0.02712 0.05512,-0.0088 0.114627,-0.05426 0.164502,-0.08226 0.04726,-0.02625 0.08749,-0.07088 0.136499,-0.02712 0.014,0.04726 -0.028,0.05775 -0.05512,0.08227 a 1.9092484,1.9092484 0 0 0 -0.244999,0.272999 c 0.042,0.042 0.118125,0.01926 0.190748,0.02712 0.028,0 0.0525,0.02188 0.08227,0.02712 0.035,0.0088 0.08226,-0.01048 0.109377,0 0.049,0.01226 0.06126,0.08227 0.109373,0.08227 0.07961,0 0.07261,-0.109375 0.02712,-0.164502 0.014,-0.05512 0.0464,-0.07 0.02712,-0.109372 -0.035,-0.07174 -0.183748,0.01227 -0.191627,-0.08226 -0.0042,-0.0586 0.06126,-0.06561 0.08225,-0.1093751 -0.0088,-0.111999 0.09274,-0.11725 0.08225,-0.21875 -0.0052,-0.04112 -0.0525,-0.042 -0.08225,-0.08139 -0.01488,-0.02012 -0.0088,-0.06654 -0.02625,-0.08227 -0.06125,-0.0525 -0.183748,-0.03851 -0.192501,-0.136499 -0.0033,-0.05774 0.0088,-0.100629 0,-0.164499 -0.0078,-0.0586 -0.05772,-0.234501 -0.109372,-0.245875 -0.0656,-0.014 -0.112875,0.09973 -0.191628,0.1365 a 0.3403747,0.3403747 0 0 1 -0.164499,0.02625 c -0.028,-0.0088 -0.07787,-0.02712 -0.08225,-0.0814 -0.0052,-0.06126 0.04373,-0.07173 0.05512,-0.1365 -0.0088,-0.03852 -0.04374,-0.02625 -0.08224,-0.05512 -0.04288,-0.03239 -0.07876,-0.101505 -0.136501,-0.109373 -0.02888,0 -0.0814,0.0254 -0.109376,0.02712 -0.0525,0 -0.09273,-0.01312 -0.136499,-0.02712 0.01839,-0.0088 0.03588,-0.021 0.05512,-0.02712 0.106747,-0.03674 0.218747,-0.05161 0.328126,-0.08227 0.01926,-0.0088 0.03588,-0.02188 0.05512,-0.02712 0.02712,0.02888 0.049,0.0901 0.08226,0.109375 0.02188,0.01226 0.05512,-0.0088 0.08226,0 0.08574,0.02626 0.152251,0.0744 0.245875,0.05512 0.03239,-0.05688 -0.06473,-0.06475 -0.02624,-0.109377 0.06212,0.0088 0.114623,0.035 0.163622,0.05512 0.0674,-0.049 0.111999,-0.05774 0.109378,-0.136499 0,-0.04026 -0.05425,-0.05512 -0.08227,-0.08227 0.05512,-0.0099 0.1085,-0.01924 0.1645,-0.02712 0.0042,0.01488 0.0184,0.02625 0.02712,0.02712 0.03327,0.0088 0.144376,-0.0446 0.164499,-0.05512 0.0033,0 -0.0052,-0.0236 0,-0.02712 0.221377,-0.0236 0.455876,-0.02712 0.683375,-0.02712 m -2.187494,0.410375 c -0.02012,0.03761 -0.04112,0.06912 -0.08225,0.08225 0.01051,0.05688 -0.07348,0.09191 -0.08228,0.136499 -0.0052,0.03061 -0.002,0.08227 0,0.109373 0.01752,0.279128 -0.218746,0.416502 -0.492621,0.409502 -0.0525,0.05072 -0.0254,0.148751 -0.05512,0.218751 -0.0245,0.0586 -0.105,0.114626 -0.164499,0.109374 -0.04373,0 -0.109375,-0.06912 -0.109375,-0.109374 0,-0.04988 0.07088,-0.07875 0.02712,-0.136499 0.0062,-0.03851 0.09273,-0.07525 0.08228,-0.136502 -0.01051,-0.06474 -0.084,-0.0166 -0.1645,-0.02626 a 0.80762431,0.80762431 0 0 1 -0.164499,-0.056 c 0.08839,-0.0586 0.179373,-0.11025 0.273873,-0.164499 0.08227,-0.049 0.161875,-0.09191 0.245874,-0.136502 0.220499,-0.110247 0.456753,-0.212622 0.683376,-0.300122 m 4.703119,0.65625 c -0.0236,0 -0.035,0.01488 -0.05512,0.02624 -0.0446,0.02712 -0.04724,0.07 -0.08225,0.08226 -0.04726,0.01839 -0.102376,0.0088 -0.109375,0.05512 -0.0052,0.03588 0.02887,0.04812 0.02625,0.08227 -0.01753,0.04375 -0.0455,0.05774 -0.05425,0.109374 0.05951,0.09627 0.200377,-0.0088 0.273876,-0.02625 0.03325,-0.01049 0.06388,0 0.08225,-0.028 0.02012,-0.0306 0.0114,-0.09191 0.02626,-0.136499 0.01749,-0.049 0.06126,-0.0376 0.056,-0.08225 -0.0052,-0.04376 -0.09273,-0.08928 -0.1645,-0.08227 m -6.397995,0.6825001 c 0.0525,0.01488 0.171501,0.16975 0.05512,0.21875 a 0.81462432,0.81462432 0 0 1 -0.192499,0.028 c -0.0394,-0.0088 -0.0674,-0.07524 -0.108499,-0.08226 -0.08051,-0.014 -0.190753,0.0875 -0.245878,0 0.014,-0.05251 0.07525,-0.0376 0.136502,-0.05512 0.109376,-0.02974 0.260747,-0.133875 0.355249,-0.109376 m 0.21875,0.273875 c 0.02625,0 0.04812,0.0516 0.08139,0.05512 0.03153,0 0.063,-0.03151 0.08225,-0.02712 0.049,0.01312 0.0735,0.100629 0.02712,0.136501 -0.03852,0 -0.0525,-0.0324 -0.08226,-0.02712 -0.07875,0.014 -0.104999,0.168874 -0.163624,0.1645 -0.056,-0.0088 -0.084,-0.123378 -0.02712,-0.1645 0.002,-0.035 -0.02888,-0.04725 -0.02712,-0.08225 0.0175,-0.02188 0.063,-0.05774 0.108499,-0.05512 m -0.272999,0.02625 c 0.01661,0.002 0.021,0 0.02627,0 -0.0073,0.063 -0.03327,0.08051 -0.0814,0.110251 A 0.33074971,0.33074971 0 0 0 11.465319,10.8335 c -0.0088,0.03151 -0.0971,0.116374 -0.136501,0.1085 -0.09273,-0.01924 0.03326,-0.1925 0.05512,-0.21875 0.0236,-0.028 0.05425,-0.04812 0.08226,-0.0814 0.02625,-0.0324 0.02888,-0.09191 0.05512,-0.109372 a 0.38587465,0.38587465 0 0 1 0.164499,-0.02712 m 8.310746,0.02625 c 0.042,0.01226 0.05074,0.06125 0.08225,0.08312 0.0236,0.01574 0.056,0.01052 0.08227,0.02625 0.0306,0.02012 0.04726,0.05251 0.08225,0.08312 0.049,0.04112 0.122502,0.077 0.192501,0.109374 0.01312,0.0088 0.0376,0.02012 0.05425,0.02625 0.04812,0.063 0.091,0.126874 0.136499,0.192499 0.0052,0.035 0.01053,0.08573 0.02712,0.108501 0.04551,0.06212 0.114626,0.115499 0.164499,0.192498 0,0.07173 0.03151,0.115501 0.08227,0.135625 0.06388,0.108499 0.13125,0.217 0.1925,0.328126 0.02448,0.05076 0.02976,0.112873 0.05427,0.164499 -0.01747,0 -0.0376,0.0088 -0.05512,0 -0.05774,-0.101525 -0.357878,-0.121625 -0.383252,0.02625 -0.01139,0.06651 0.04373,0.154001 -0.05512,0.165375 -0.06125,0.0088 -0.133877,-0.06388 -0.218751,-0.08226 -0.035,-0.0088 -0.08227,0.01227 -0.109376,0 -0.06388,-0.02188 -0.05427,-0.098 -0.109372,-0.1365 a 0.4786246,0.4786246 0 0 0 -0.1645,-0.05512 h -0.08227 c -0.03939,-0.0088 -0.103249,-0.0088 -0.136501,-0.02712 -0.03151,-0.01923 -0.101516,-0.05425 -0.109374,-0.08226 -0.01223,-0.04374 0.07876,-0.09973 0.08225,-0.136499 0.002,-0.02625 -0.02012,-0.0394 -0.02625,-0.08226 -0.0052,-0.0254 0.0042,-0.06476 0,-0.08227 -0.0088,-0.02974 -0.063,-0.05424 -0.110249,-0.05512 -0.042,0 -0.07353,0.02625 -0.109378,0.02712 -0.0516,8.76e-4 -0.154872,-0.03239 -0.218749,-0.02625 -0.0376,0 -0.07261,0.0236 -0.1085,0.02625 -0.101506,0.0088 -0.167122,-0.0088 -0.245874,0 a 0.66499945,0.66499945 0 0 0 -0.218748,0.05512 c -0.02712,0.01227 -0.04726,0.0376 -0.08227,0.05512 a 0.54162456,0.54162456 0 0 1 -0.05512,0.02712 c -0.03327,0.01488 -0.07875,0.04639 -0.109374,0.05512 -0.04548,0.0114 -0.1085,0 -0.192499,0 -0.05861,0 -0.16275,-0.01224 -0.163625,-0.08226 -8.74e-4,-0.107629 0.198625,-0.063 0.300999,-0.08226 0.03851,-0.0088 0.06388,-0.05512 0.109376,-0.08226 0.02188,-0.01312 0.03412,-0.01312 0.05512,-0.02625 0.035,-0.0254 0.104122,-0.08225 0.109374,-0.110247 0.0052,-0.02625 -0.0306,-0.063 -0.02712,-0.08227 0.0042,-0.0245 0.04988,-0.05074 0.08225,-0.08225 0.049,-0.04812 0.07612,-0.105 0.1365,-0.1365 0.04112,-0.02188 0.118124,-0.021 0.136499,-0.05512 0.0042,-0.0376 -8.75e-4,-0.04812 0,-0.08227 0.0254,-0.0236 0.03326,-0.05073 0.05512,-0.05512 0.063,-0.014 0.118125,0.03061 0.191625,0.02712 a 0.25374978,0.25374978 0 0 0 0.1085,-0.02625 c 0.02888,-0.02012 0.05427,-0.04025 0.08227,-0.056 0.03061,-0.01575 0.0446,-0.0516 0.08225,-0.05512 0.09191,-0.0088 0.149625,0.108499 0.1925,0.164499 0.035,0.0464 0.133,0.105003 0.19075,0.136503 0.0324,0.01839 0.07348,0.03939 0.109374,0.05512 0.07612,0.035 0.216125,0.144376 0.21875,0.218748 0.002,0.03675 -0.03325,0.04726 -0.02625,0.08227 0.05688,0.0099 0.106749,-0.0516 0.108501,-0.109374 8.77e-4,-0.035 -0.03412,-0.04375 -0.02625,-0.08227 0.02625,-0.05774 0.128623,-0.0088 0.163623,-0.02625 -0.0062,-0.0665 -0.108499,-0.07612 -0.164499,-0.110249 -0.02974,-0.0175 -0.05074,-0.042 -0.08225,-0.05512 -0.0455,-0.01752 -0.101485,-0.028 -0.136499,-0.05512 -0.03327,-0.0254 -0.04988,-0.07 -0.08225,-0.109373 -0.04726,-0.056 -0.138249,-0.06388 -0.109376,-0.191626 0.014,-0.01925 0.0324,-0.0604 0.05512,-0.05512 m -7.709618,0.192498 h 0.08227 c 0.02974,0 0.07,-0.0166 0.08227,0 -0.01925,0.07612 -0.185499,0.05426 -0.245878,0.02625 0.0033,-0.02887 0.04373,-0.0236 0.08225,-0.02625 m -0.273874,0.135623 c 0.02012,0 0.03412,-0.0088 0.05512,0 a 0.62124949,0.62124949 0 0 1 -0.21875,0.109377 c -0.0446,0.014 -0.101495,0.02188 -0.109373,-0.02626 -0.0099,-0.06125 0.04112,-0.04987 0.08225,-0.056 0.05074,-0.0088 0.131249,-0.0254 0.191624,-0.02625 m 7.601118,0 c -0.0376,0.0114 -0.05773,0.098 0,0.108499 0.02625,-0.01574 0.03412,-0.05951 0.02625,-0.109373 -0.014,-0.01576 -0.014,0 -0.02625,0 m -0.02712,0.164499 c -0.0184,0.0088 -0.035,0.0088 -0.05512,0.02712 0,0.0656 0.01312,0.107627 0,0.164499 0.03761,0.07173 0.117248,0.02274 0.136499,-0.02712 0.02276,-0.121627 -0.02625,-0.179375 -0.08225,-0.1645 m 0.382376,0.328123 c 0.04374,0.07 0.123371,0.119878 0.21875,0.136499 0.035,-0.02625 0.03852,-0.09191 0.05512,-0.136499 h -0.1365 c -0.05161,0 -0.106749,-0.02449 -0.1365,0 M 9.74867,13.700708 c 0.1435,-0.0088 0.1855,0.188124 0.300999,0.244998 0.02888,0.01572 0.07174,0.02012 0.109375,0.028 0.0306,0.0088 0.05248,0.01749 0.08227,0.02625 0.06126,0.02188 0.141749,0.0088 0.191623,0.028 0.0744,0.03328 0.127749,0.180249 0.191626,0.218751 0.0033,0.03675 -0.0114,0.08048 0,0.108499 0.0306,0.04112 0.0866,0.056 0.136499,0.08225 0.05951,0.0324 0.08053,0.111122 0.136501,0.136499 0.01923,0.0088 0.0516,-0.0088 0.08225,0 0.077,0.0236 0.098,0.128622 0.164499,0.109372 0.04376,-0.01225 0.04812,-0.06823 0.05512,-0.109372 0.02888,-0.03149 0.06474,-0.0814 0.109377,-0.08227 0.0726,0 0.08312,0.0656 0.109372,0.136499 0.01488,0.04026 0.04375,0.0945 0.05512,0.136501 0.01749,0.07261 0.01488,0.284375 0,0.328123 -0.0184,0.05251 -0.09273,0.07788 -0.136499,0.136499 -0.021,0.02625 -0.03851,0.06127 -0.05512,0.08227 -0.028,0.035 -0.06123,0.04988 -0.08225,0.08227 -0.01227,0.01753 -0.01575,0.05775 -0.02712,0.08227 -0.035,0.0744 -0.084,0.129499 -0.05512,0.218752 0.01227,0.03673 0.05427,0.06649 0.05512,0.109371 0,0.05075 -0.100629,0.0814 -0.109377,0.136501 -0.0062,0.04112 0.042,0.110252 0.05512,0.164501 0.0088,0.04112 0.08488,0.08227 0.109378,0.109375 0.04112,0.0464 0.07176,0.105 0.109374,0.163625 0.07439,0.113751 0.118999,0.244998 0.191626,0.355252 0.03761,0.05774 0.111122,0.104999 0.136499,0.164499 0.01312,0.0306 -0.01225,0.08227 0,0.109373 0.042,0.09451 0.23275,0.1995 0.328122,0.245875 0.04374,0.02188 0.09627,0 0.1365,0.02712 a 0.80412432,0.80412432 0 0 1 0.218751,0.191626 c 0.028,0.049 0.04112,0.168876 0.05512,0.244999 0.0175,0.103248 -0.0042,0.190751 0,0.301876 0.0033,0.06039 0.02625,0.104122 0.02625,0.164501 0,0.021 0.002,0.06127 0,0.08227 -8.75e-4,0.07262 0.0067,0.144374 0,0.218752 a 0.65099946,0.65099946 0 0 0 0,0.108498 c 0.0042,0.0359 0.0254,0.0499 0.028,0.08227 0.002,0.035 -0.0306,0.0831 -0.02712,0.109374 0.0078,0.07351 0.06739,0.12425 0.08224,0.192499 0.01139,0.05251 0.03412,0.181126 0.02625,0.245002 -0.0033,0.035 -0.021,0.07262 -0.02625,0.109375 -0.0033,0.02887 0.0042,0.05425 0,0.08225 -0.0052,0.04112 -0.02974,0.07088 -0.02712,0.109375 0.0052,0.07875 0.07,0.139999 0.08225,0.218749 0.0042,0.02625 -8.74e-4,0.05688 0,0.08225 0,0.02363 0.02012,0.03325 0.02625,0.05512 A 6.1066197,6.1066197 0 0 1 11.937902,19.441553 6.1818698,6.1818698 0 0 1 11.364778,18.94893 l -0.02712,-0.02627 a 6.3262448,6.3262448 0 0 1 -0.519747,-0.574039 c -0.091,-0.115499 -0.19075,-0.233625 -0.273876,-0.355249 -0.049,-0.07261 -0.091,-0.143501 -0.136499,-0.218751 -0.028,-0.04462 -0.05512,-0.091 -0.08225,-0.136499 a 5.7548703,5.7548703 0 0 1 -0.218742,-0.410349 c -0.04374,-0.08751 -0.07088,-0.181999 -0.109377,-0.273873 A 5.8992451,5.8992451 0 0 1 9.751304,16.297706 c -0.04726,-0.161 -0.07526,-0.323752 -0.109381,-0.491751 -0.02625,-0.12775 -0.06388,-0.252873 -0.08224,-0.383249 a 5.7426204,5.7426204 0 0 1 -0.02712,-0.21875 6.2194948,6.2194948 0 0 1 0.028,-1.393877 v -0.02625 c 0.05512,0 0.130372,-0.08139 0.191623,-0.08312 m 2.351999,0.656247 c 0.056,-0.02625 0.07352,0.102376 0.02625,0.109373 -0.04374,0.0088 -0.07,-0.08928 -0.02625,-0.109373"
     id="path42-3"
     style="fill:url(#linearGradient940);stroke-width:0.874999" />
</svg>
