<?xml version="1.0" encoding="UTF-8" standalone="no"?>
<svg
   height="32"
   width="32"
   version="1.1"
   id="svg6506"
   sodipodi:docname="preferences-system-network-server-web.svg"
   inkscape:version="1.2.1 (9c6d41e410, 2022-07-14)"
   xmlns:inkscape="http://www.inkscape.org/namespaces/inkscape"
   xmlns:sodipodi="http://sodipodi.sourceforge.net/DTD/sodipodi-0.dtd"
   xmlns:xlink="http://www.w3.org/1999/xlink"
   xmlns="http://www.w3.org/2000/svg"
   xmlns:svg="http://www.w3.org/2000/svg">
  <defs
     id="defs6510">
    <linearGradient
       gradientTransform="matrix(0.69997044,0,0,0.69993119,-301.988,-350.62385)"
       gradientUnits="userSpaceOnUse"
       x2="426.69501"
       y2="499.92099"
       y1="547.67499"
       id="a-6"
       x1="389.32001">
      <stop
         stop-color="#18222a"
         style="stop-color:#1e2b35;stop-opacity:1"
         id="stop216-3" />
      <stop
         stop-color="#566069"
         offset="1"
         style="stop-color:#6d7983;stop-opacity:1"
         id="stop218" />
    </linearGradient>
    <linearGradient
       inkscape:collect="always"
       xlink:href="#c-6"
       id="linearGradient1278"
       gradientUnits="userSpaceOnUse"
       gradientTransform="matrix(3.1111104,0,0,1.5555555,-1200.6667,-798.27381)"
       x1="389.57101"
       y1="526.79797"
       x2="389.52429"
       y2="519.54938" />
    <linearGradient
       id="c-6">
      <stop
         offset="0"
         stop-color="#c6cdd1"
         id="stop226" />
      <stop
         offset="1"
         stop-color="#e0e5e7"
         id="stop228" />
    </linearGradient>
    <linearGradient
       inkscape:collect="always"
       xlink:href="#e-3"
       id="linearGradient1280"
       gradientUnits="userSpaceOnUse"
       gradientTransform="matrix(1.5555555,0,0,1.5555555,0.4444909,4.0786185)"
       x1="3.00001"
       y1="4.99997"
       x2="6.00001"
       y2="7.99997" />
    <linearGradient
       id="e-3">
      <stop
         offset="0"
         id="stop232" />
      <stop
         offset="1"
         stop-opacity="0"
         id="stop234" />
    </linearGradient>
    <linearGradient
       inkscape:collect="always"
       xlink:href="#e-3"
       id="linearGradient1282"
       gradientUnits="userSpaceOnUse"
       gradientTransform="matrix(1.5555555,0,0,1.5555555,0.4444909,4.0786185)"
       x1="1.0054113"
       y1="7.4388428"
       x2="6.00001"
       y2="9.9999704" />
    <linearGradient
       inkscape:collect="always"
       xlink:href="#e-3"
       id="linearGradient1284"
       gradientUnits="userSpaceOnUse"
       gradientTransform="matrix(1.5555555,0,0,1.5555555,0.4444909,4.0786185)"
       x1="3.0484273"
       y1="8.8942347"
       x2="6.00001"
       y2="11.99997" />
    <linearGradient
       inkscape:collect="always"
       xlink:href="#e-3"
       id="linearGradient1286"
       gradientUnits="userSpaceOnUse"
       gradientTransform="matrix(1.5555555,0,0,1.5555555,0.4444909,4.0786185)"
       x1="3.0484273"
       y1="10.822806"
       x2="6.00001"
       y2="13.99997" />
  </defs>
  <sodipodi:namedview
     id="namedview6508"
     pagecolor="#ffffff"
     bordercolor="#666666"
     borderopacity="1.0"
     inkscape:showpageshadow="2"
     inkscape:pageopacity="0.0"
     inkscape:pagecheckerboard="0"
     inkscape:deskcolor="#d1d1d1"
     showgrid="false"
     inkscape:zoom="7.375"
     inkscape:cx="16"
     inkscape:cy="16.067797"
     inkscape:window-width="1920"
     inkscape:window-height="1002"
     inkscape:window-x="0"
     inkscape:window-y="0"
     inkscape:window-maximized="1"
     inkscape:current-layer="svg6506" />
  <linearGradient
     id="b"
     gradientTransform="matrix(.7 0 0 .7 -.7 -1.1)"
     gradientUnits="userSpaceOnUse"
     x2="0"
     y1="44"
     y2="4">
    <stop
       offset="0"
       stop-color="#1d1e1e"
       id="stop6468" />
    <stop
       offset="1"
       stop-color="#44484c"
       id="stop6470" />
  </linearGradient>
  <linearGradient
     id="c"
     x1="6"
     x2="6"
     xlink:href="#a"
     y1="5"
     y2="4" />
  <linearGradient
     id="a"
     gradientUnits="userSpaceOnUse"
     x2="0"
     y1="507.8"
     y2="506.8">
    <stop
       offset="0"
       stop-color="#3da103"
       id="stop6474" />
    <stop
       offset="1"
       stop-color="#7ddf07"
       id="stop6476" />
  </linearGradient>
  <linearGradient
     id="d"
     x1="6"
     x2="6"
     xlink:href="#a"
     y1="16"
     y2="15" />
  <linearGradient
     id="e"
     x1="6"
     x2="6"
     xlink:href="#a"
     y1="27"
     y2="26" />
  <linearGradient
     id="f"
     gradientUnits="userSpaceOnUse"
     x1="5"
     x2="18"
     y1="12"
     y2="25">
    <stop
       offset="0"
       stop-color="#292c2f"
       id="stop6481" />
    <stop
       offset="1"
       stop-opacity="0"
       id="stop6483" />
  </linearGradient>
  <rect
     width="27.998781"
     x="-29.99939"
     y="2.0013762"
     rx="13.999393"
     height="27.997248"
     transform="scale(-1,1)"
     style="display:inline;overflow:visible;fill:url(#a-6);stroke-width:1.95969;stroke-opacity:0.55"
     id="rect223"
     ry="13.998624" />
  <path
     style="display:inline;overflow:visible;opacity:0.3;fill:#000000;fill-opacity:1;stroke-width:1.95969;stroke-opacity:0.55"
     d="m 2.0084529,15.650151 c -0.0042,0.116682 -0.0084,0.232706 -0.0084,0.350057 0,7.755297 6.243769,13.998632 13.9993691,13.998632 7.755645,0 13.99946,-6.243335 13.99946,-13.998632 0,-0.117367 -0.0068,-0.232702 -0.0084,-0.350057 -0.184853,7.592146 -6.355778,13.648652 -13.991047,13.648652 -7.6380811,0 -13.8062051,-6.056506 -13.9909711,-13.648652"
     id="path225" />
  <path
     d="m 2.0084529,16.347529 c -0.0042,-0.116682 -0.0084,-0.232039 -0.0084,-0.350052 0,-7.7552465 6.243769,-13.9986365 13.9993691,-13.9986365 7.755645,0 13.99946,6.24339 13.99946,13.9986365 0,0.117351 -0.0068,0.233364 -0.0084,0.350052 C 29.80571,8.7553785 23.634782,2.6988905 15.999516,2.6988905 c -7.6380811,0 -13.8062091,6.056488 -13.9909681,13.6486385"
     style="display:inline;overflow:visible;opacity:0.3;fill:#ffffff;fill-opacity:1;stroke-width:1.95969;stroke-opacity:0.55"
     id="path229" />
  <path
     d="m 11.186489,9.9140945 h 10 v 1.9999995 h -10 z m 0,8.9999995 h 10 v 2 h -10 z m 0,-6 h 10 v 2 h -10 z m 0,3 h 10 v 2 h -10 z"
     stroke-width="2.19988"
     id="path269-9"
     style="fill:url(#linearGradient1278)"
     sodipodi:nodetypes="cccccccccccccccccccc" />
  <path
     d="m 5.1111609,11.856403 1.555555,1.555555 h 3.111111 l 1.5555551,1.555556 1.555555,-1.555556 -3.1111101,-3.111111 z"
     fill="url(#h)"
     opacity="0.2"
     id="path271-3"
     style="fill:url(#linearGradient1280);stroke-width:1.55556" />
  <path
     d="m 5.1864889,14.914094 c 0,0 0.961709,1.090457 1.480227,1.608975 h 3.111111 l 1.5555551,1.555556 1.555555,-1.555556 -3.1111101,-3.111111 z"
     fill="url(#i)"
     opacity="0.2"
     id="path273-6"
     style="fill:url(#linearGradient1282);stroke-width:1.55556"
     sodipodi:nodetypes="ccccccc" />
  <path
     d="m 5.1864889,17.914094 1.480227,1.720086 h 3.111111 l 1.5555551,1.555556 1.555555,-1.555556 -3.1111101,-3.111111 z"
     fill="url(#j)"
     opacity="0.2"
     id="path275-0"
     style="fill:url(#linearGradient1284);stroke-width:1.55556"
     sodipodi:nodetypes="ccccccc" />
  <path
     d="m 9.7778219,19.634172 -4.591333,1.279922 4.591333,4.9423 h 6.2222211 z"
     fill="url(#k)"
     opacity="0.2"
     id="path277-6"
     style="fill:url(#linearGradient1286);stroke-width:1.55556"
     sodipodi:nodetypes="ccccc" />
  <path
     d="M 5.1864889,9.9140945 H 10.186489 V 11.914094 H 5.1864889 Z m 0,2.9999995 h 5.0000001 v 2 H 5.1864889 Z m 0,3 h 5.0000001 v 2 H 5.1864889 Z m 0,3 h 5.0000001 v 2 H 5.1864889 Z"
     fill="#11d116"
     id="path279-2"
     style="stroke-width:1.55556"
     sodipodi:nodetypes="cccccccccccccccccccc" />
  <rect
     fill="#eff0f1"
     height="8"
     rx="0.99999988"
     width="8"
     x="18.000053"
     y="17.99884"
     id="rect36-5"
     style="stroke-width:0.5" />
  <path
     d="m 21.958,18.507 a 3.5,3.5 0 1 0 0,7 3.5,3.5 0 0 0 0,-7 z m 0,0.583337 c 0.100912,0 0.193663,0.0083 0.291663,0.01806 0.02337,0.0027 0.04957,-0.0036 0.07293,0 0.03094,0.0036 0.06065,0.01343 0.091,0.01863 0.084,0.01287 0.15575,0.03443 0.237413,0.05424 0.149337,0.03737 0.2975,0.08693 0.4375,0.145833 0.07644,0.03263 0.14525,0.07057 0.21875,0.109667 v 0.01806 c 0.01637,0.0077 0.02563,0.03907 0.05427,0.05487 0.0105,0.0057 0.0089,0.01287 0.01863,0.01807 0.01637,0.0095 0.03963,0.01987 0.03613,0.03675 -0.0043,0.02337 -0.0385,0.01805 -0.05487,0.03613 0.0027,0.03387 -0.02744,0.03207 -0.03613,0.05487 0.0052,0.01455 0.03387,0.01863 0.03613,0.03613 -0.0036,0.01863 -0.04313,0.0175 -0.03613,0.03678 0.0315,0.0245 0.06128,0.0057 0.091,0 0.06535,-0.0083 0.123669,-0.0036 0.163919,-0.03678 -0.0052,-0.03093 0.05837,-0.02622 0.05487,-0.05421 0.01693,0.01163 0.03793,0.02337 0.05487,0.03613 -0.0061,0.0057 -0.01163,0.01513 -0.01863,0.01806 -0.01163,0.0057 -0.02506,0.01163 -0.03613,0.01863 l -0.05487,0.03613 c -0.01343,0.0095 -0.04087,0.05487 -0.05425,0.05487 -0.0175,0 -0.04256,-0.02213 -0.05487,-0.01863 -0.0175,0.0057 -0.01694,0.02974 -0.03674,0.03674 -0.0385,0.014 -0.114326,-0.021 -0.127161,0.03675 0.01637,0.03325 0.07992,0.0175 0.109085,0.03613 a 0.18083337,0.18083337 0 0 1 0.05487,0.07294 0.34416663,0.34416663 0 0 1 0,0.109664 c -0.01806,0.04663 -0.07407,0.03674 -0.12775,0.03613 h -0.03675 c -0.08985,-0.0057 -0.177916,-0.04663 -0.21875,0.01805 0.0034,0.04957 0.01163,0.08457 0,0.12775 -0.0077,0.0315 -0.056,0.06415 -0.05426,0.091 0,0.014 0.03263,0.035 0.03613,0.05487 0.0027,0.0105 -0.0043,0.02623 0,0.03674 0.01513,0.02856 0.04663,-0.0057 0.07292,0 0.02563,0.0057 0.05487,0.04376 0.05487,0.07293 a 0.15166663,0.15166663 0 0 1 -0.01805,0.07295 c -0.02563,0.0385 -0.07293,0.03326 -0.109669,0.05424 -0.03037,0.0175 -0.03613,0.06126 -0.05425,0.09157 -0.01929,0.03263 -0.04437,0.04437 -0.03676,0.091 a 0.21291663,0.21291663 0 0 1 -0.109665,0.109087 c -0.01575,0.007 -0.03963,0.0082 -0.05425,0.01863 -0.01163,0.0083 -0.02044,0.03556 -0.03675,0.05426 -0.02044,0.02337 -0.04376,0.03737 -0.05425,0.05487 -0.009,0.01344 -0.0099,0.03613 -0.01863,0.05487 -0.01287,0.0245 -0.0385,0.02973 -0.05427,0.05424 -0.0077,0.01163 -0.0105,0.03963 -0.01863,0.05487 -0.01863,0.03387 -0.03963,0.06185 -0.03613,0.09157 0.0035,0.028 0.035,0.02913 0.03613,0.05427 0.0018,0.014 -0.01863,0.021 -0.01806,0.03674 5.86e-4,0.02213 0.01637,0.03674 0.01806,0.05423 0.0036,0.04313 -0.028,0.06185 -0.03613,0.09157 -0.0036,0.014 0.0035,0.0245 0,0.03613 -0.007,0.02156 -0.03613,0.04725 -0.03674,0.07293 0,0.01806 0.035,0.02913 0.03674,0.05487 0.0013,0.01695 -0.02156,0.0385 -0.01863,0.05487 0.0061,0.0315 0.06708,0.0665 0.09157,0.091 0.03326,0.03328 0.07642,0.056 0.091,0.091 0.01225,0.02976 0.014,0.0875 0.03674,0.109673 0.01637,0.01637 0.05137,0.01863 0.07293,0.03613 0.01987,0.01573 0.03263,0.01925 0.05426,0.03674 0.03557,0.028 0.08923,0.09508 0.145835,0.091 0.02974,-0.0057 0.05837,-0.03037 0.09157,-0.03674 0.03444,-0.0057 0.07407,-0.021 0.109083,-0.0175 0.02687,0.0057 0.063,0.01926 0.091,0.0175 0.02913,-0.0057 0.05837,-0.0036 0.09157,-0.0175 0.05774,-0.02563 0.152834,-0.06707 0.236834,-0.05543 0.06415,0.0095 0.06415,0.08107 0.109082,0.109665 0.05137,0.0057 0.08693,-0.0099 0.12775,0 0.03095,0.0077 0.07,0.04843 0.07293,0.07292 0.0036,0.02506 -0.03325,0.05713 -0.03675,0.07294 -0.0077,0.03387 0.0057,0.07 0,0.091 -0.0043,0.0175 -0.01863,0.03794 -0.0175,0.05487 0,0.01513 0.02044,0.0525 0.03613,0.07293 0.01926,0.0245 0.04956,0.04663 0.07293,0.07292 0.04256,0.049 0.06125,0.09916 0.091,0.163914 0.0077,0.01637 -0.007,0.03387 0,0.05487 -0.01287,0.098 -0.0455,0.165084 -0.109669,0.273584 -0.02976,0.035 -0.0735,0.06535 -0.07293,0.109083 -0.0018,0.105 0.0595,0.172083 0.05487,0.273583 -0.0105,0.1365 0.0105,0.145834 0,0.21875 0.04663,0.02337 0.01344,0.09742 0,0.145834 -0.01987,0.05776 -0.04313,0.07057 -0.05424,0.109666 0.03093,0.01344 0.07464,0.0077 0.109085,0 l -0.05487,0.05423 a 3.0350837,3.0350837 0 0 1 -0.4375,0.364581 2.8816663,2.8816663 0 0 1 -1.002172,0.4375 2.9079163,2.9079163 0 0 1 -0.620078,0.05487 c -0.110837,0 -0.2205,-0.0057 -0.328422,-0.01805 -0.08514,-0.0099 -0.1715,-0.01987 -0.254915,-0.03674 -0.165085,-0.03387 -0.32025,-0.10325 -0.47425,-0.163917 -0.0052,-0.0099 -0.01922,-0.0245 -0.0175,-0.03674 0.02974,-0.01287 0.08693,0.04313 0.109087,0 0.01106,-0.02043 -0.01456,-0.07 0,-0.091 0.0105,-0.014 0.06942,-0.014 0.091,-0.01806 0.03093,-0.0057 0.0735,-0.0099 0.091,-0.01806 0.01925,-0.01226 0.04024,-0.05544 0.03675,-0.09157 -0.0018,-0.01693 -0.02337,-0.021 -0.03675,-0.03613 -0.01106,-0.01287 0.0077,-0.0245 0,-0.03673 -0.014,-0.02045 -0.049,-0.0245 -0.05426,-0.05426 0.04144,-0.0083 0.10325,0.035 0.163331,0.01806 0.02913,-0.0083 0.07814,-0.06415 0.09157,-0.091 0.0036,-0.0083 -0.0043,-0.02623 0,-0.03675 0.0052,-0.0105 0.01637,-0.03037 0.01806,-0.03613 0.0036,-0.01576 -0.0036,-0.0083 0,-0.01863 0.0105,-0.02913 0.03737,-0.05137 0.05487,-0.07294 0.01344,-0.01637 0.04257,-0.03737 0.05487,-0.05424 0.014,-0.01806 0.009,-0.02043 0.01806,-0.03674 0.0089,-0.0525 -0.03094,-0.09917 -0.01806,-0.145832 0.014,-0.0525 0.09508,-0.08514 0.145832,-0.109084 0.0175,-0.0082 0.04024,-0.01343 0.05425,-0.01863 0.035,-0.01163 0.077,-0.0245 0.109669,-0.03613 0.05487,-0.01987 0.06415,-0.0595 0.091,-0.109667 0.01287,-0.02337 0.03443,-0.05544 0.03675,-0.07294 0.0027,-0.01513 -0.0036,-0.01806 0,-0.03613 0.0036,-0.01694 -0.0043,-0.035 0,-0.05487 0.0057,-0.02506 0.01806,-0.08164 0.01806,-0.109085 0,-0.02337 -0.0175,-0.03387 -0.01806,-0.05487 -0.0036,-0.07586 0.02687,-0.06825 0.05422,-0.109665 0.014,-0.02043 0.02687,-0.05837 0.03676,-0.07293 0.04728,-0.07 0.133583,-0.09393 0.12775,-0.200083 -0.0027,-0.035 -0.02913,-0.116667 -0.05487,-0.12775 -0.01456,-0.0061 -0.03328,-0.0105 -0.05487,-0.01806 -0.06886,-0.02563 -0.128332,-0.103833 -0.200082,-0.109666 h -0.03674 c -0.028,0 -0.0595,-0.014 -0.091,-0.01806 -0.01987,-0.0057 -0.06126,0.0057 -0.07293,0 -0.01806,-0.009 -0.02213,-0.04493 -0.03676,-0.05487 -0.01163,-0.0083 -0.03676,-0.01163 -0.05423,-0.01805 -0.02913,-0.0105 -0.04026,-0.03444 -0.07292,-0.03675 -0.0105,0 -0.02507,0.0057 -0.03675,0 -0.01806,-0.0057 -0.03794,-0.0077 -0.05487,-0.0175 -0.021,-0.01343 -0.04607,-0.01863 -0.05425,-0.03674 0.01926,-0.063 -0.042,-0.07293 -0.05487,-0.109665 -0.0057,-0.01694 0.0057,-0.05775 0,-0.07293 -0.0077,-0.02156 -0.03095,-0.03613 -0.05487,-0.05426 a 0.21816663,0.21816663 0 0 0 -0.12775,-0.05487 c -0.02687,-0.0057 -0.05894,0.0057 -0.091,0 a 0.20766663,0.20766663 0 0 1 -0.109666,-0.05487 c -0.0245,-0.02856 -0.03263,-0.0595 -0.05427,-0.07292 -0.02043,-0.01287 -0.04087,-0.02337 -0.05487,-0.03675 -0.0061,-0.0057 -0.01225,-0.0043 -0.01805,-0.0175 -0.0105,-0.02213 -0.0315,-0.02913 -0.01863,-0.05545 -0.02337,-0.01163 -0.01105,0.02276 -0.03613,0.01863 -0.02274,-0.03207 -0.03963,-0.06415 -0.091,-0.05487 -0.02337,0.0057 -0.0455,0.05427 -0.07293,0.05487 -0.02337,0 -0.04313,-0.05013 -0.07292,-0.05487 -0.02337,-0.0057 -0.05713,0.021 -0.07294,0.01806 -0.02505,-0.0057 -0.03206,-0.021 -0.05487,-0.03613 -0.01693,-0.01163 -0.0455,-0.03737 -0.05487,-0.03674 -0.02913,0 -0.05075,0.05837 -0.091,0.03674 -0.01987,-0.02506 0.04143,-0.0315 0.01806,-0.05487 -0.0175,-0.01694 -0.02213,0.0099 -0.03613,0.01806 -0.01637,0.0105 -0.03676,0.01163 -0.05487,0.01863 -0.04028,0.01513 -0.07814,0.01925 -0.109667,0.03613 a 0.10791663,0.10791663 0 0 0 -0.05425,0.05487 c -0.01344,0.0245 -0.03444,0.07174 -0.05487,0.07293 -0.0245,0 -0.03263,-0.02687 -0.05487,-0.03674 -0.06707,-0.02913 -0.1085,0.0175 -0.163919,0.01863 -0.05137,0 -0.130081,-0.07936 -0.12775,-0.128333 0.0018,-0.02913 0.01513,-0.07236 0.01863,-0.109083 0.0027,-0.02913 0.03556,-0.06415 0.03613,-0.091 5.82e-4,-0.03613 -0.06764,-0.05077 -0.091,-0.05487 -0.05487,-0.0099 -0.120168,0.0245 -0.182584,0 -0.01163,-0.01987 0.01163,-0.035 0.01863,-0.05426 0.0036,-0.0105 -0.0036,-0.0245 0,-0.03674 0.0061,-0.01863 0.0455,-0.035 0.05426,-0.05487 0.0061,-0.01513 -0.0057,-0.035 0,-0.05424 0.0077,-0.021 0.035,-0.03963 0.03674,-0.05487 0.0027,-0.01987 -0.021,-0.042 -0.03674,-0.05487 -0.04844,0.0057 -0.08164,0.0036 -0.109082,0.01807 -0.063,0.02913 -0.04606,0.107915 -0.109668,0.12775 a 0.53316663,0.53316663 0 0 1 -0.07293,0.01805 c -0.0105,0.0057 -0.0245,-0.0013 -0.03613,0 0.0013,-0.0057 -0.0013,-0.01163 0,-0.01805 0.0027,-0.01344 0.01513,-0.02337 0.01806,-0.03674 a 2.8641663,2.8641663 0 0 1 0.182597,-0.546548 h 0.0175 c 0.02277,0.0057 0.03613,0.035 0.05545,0.03674 0.05305,0.0057 0.06475,-0.04957 0.109083,-0.07292 0.0455,0.0057 0.06822,-0.0057 0.109667,0 0.028,0.0057 0.06886,0.03387 0.091,0.03613 0.01863,0 0.01863,-0.02045 0.03613,-0.01807 0.0175,0.0057 0.05194,0.03328 0.05487,0.05425 0.0035,0.02623 -0.02563,0.06243 -0.01806,0.09157 0.02744,0.028 0.08864,0.03794 0.127167,0.05423 0.02563,-0.02155 0.0035,-0.06065 0,-0.091 0,-0.01343 0.0018,-0.042 0,-0.05427 -0.0027,-0.021 -0.0175,-0.03674 -0.0175,-0.05487 0,-0.08343 0.07114,-0.113171 0.127168,-0.145836 0.02393,-0.014 0.05194,-0.04437 0.07292,-0.05487 0.02975,-0.01456 0.04844,-0.0034 0.07292,-0.01806 0.04437,-0.02505 0.07527,-0.063 0.109667,-0.09157 0.01575,-0.03793 -0.0018,-0.08986 0,-0.127167 0.01575,-0.0099 0.03737,0 0.05425,0 0.02687,-0.0057 0.03963,-0.03963 0.05487,-0.05487 0.009,-0.009 0.02563,-0.0095 0.03675,-0.01805 0.02625,-0.021 0.03094,-0.0455 0.05425,-0.05487 a 0.15166663,0.15166663 0 0 1 0.03675,-0.01807 c 0.0175,-0.0057 0.04494,-0.0082 0.07292,-0.01863 0.0175,-0.0057 0.06593,-0.0105 0.07293,-0.0175 0.009,-0.0095 -0.0027,-0.042 0,-0.05543 0.014,-0.06535 0.105,-0.06886 0.163919,-0.091 0.04087,-0.01513 0.08164,-0.06245 0.12775,-0.05424 -0.0089,0.0315 -0.04437,0.035 -0.03677,0.07292 0.0099,0.0525 0.07292,-0.01107 0.09157,-0.01863 0.035,-0.01513 0.09917,-0.03676 0.145834,-0.05426 0.04087,-0.01455 0.110832,-0.02623 0.07292,-0.07293 -0.03206,-0.0057 -0.0455,0.0245 -0.07292,0.03613 -0.01927,0.0057 -0.02044,-0.01637 -0.03674,-0.01807 -0.01578,0 -0.02045,0.021 -0.03676,0.01807 -0.01577,-0.0057 -0.03387,-0.035 -0.03613,-0.05487 -0.0061,-0.049 0.035,-0.05487 0.05487,-0.091 -0.01344,-0.04437 -0.07236,-0.01925 -0.109664,-0.03675 a 0.06591663,0.06591663 0 0 1 0.05487,-0.05425 c 0.02507,-0.0057 0.0945,0.0043 0.109665,0.01805 0.009,0.0077 -0.01343,0.0245 0,0.03674 0.01513,0.01344 0.035,0.0057 0.05427,0 0.007,-0.03327 -0.042,-0.01513 -0.03613,-0.03674 0.03963,-0.02563 0.1155,-0.01163 0.163919,-0.01805 a 0.39666663,0.39666663 0 0 0 0.091,-0.03675 c 0.02337,-0.01343 0.03037,-0.04023 0.05487,-0.01806 0.007,0.02393 -0.0043,0.042 -0.01807,0.05487 -0.04494,0.03963 -0.09276,0.08164 -0.12775,0.127164 0.02157,0.021 0.05487,0.01456 0.091,0.01863 0.014,0.0057 0.04026,-0.0036 0.05487,0 0.0175,0.0057 0.04087,-0.0057 0.05487,0 0.0245,0.0057 0.03037,0.05427 0.05425,0.05427 0.03963,0 0.02337,-0.04663 0,-0.07293 0.007,-0.02745 0.02856,-0.05306 0.01863,-0.07292 -0.01806,-0.03613 -0.0875,0.01106 -0.09157,-0.03613 -0.0018,-0.02913 0.02622,-0.03263 0.03674,-0.05487 -0.0043,-0.056 0.042,-0.05837 0.03677,-0.109084 -0.0036,-0.021 -0.02213,-0.01693 -0.03677,-0.03673 -0.0077,-0.0105 -0.0095,-0.04663 -0.01806,-0.05425 -0.03037,-0.02563 -0.0875,-0.0057 -0.09157,-0.05487 -0.0013,-0.02913 0.0036,-0.06007 0,-0.09157 -0.0035,-0.02913 -0.02913,-0.121336 -0.05425,-0.127167 -0.03263,-0.007 -0.0525,0.05428 -0.09157,0.07293 a 0.21933337,0.21933337 0 0 1 -0.091,0.01806 c -0.014,-0.0057 -0.035,-0.009 -0.03613,-0.03676 -0.0027,-0.0245 0.02744,-0.035 0.03613,-0.05426 0.0027,-0.0043 -0.0013,-0.01163 0,-0.01863 0.04256,-0.01163 0.08457,-0.02623 0.12775,-0.03613 0.0245,-0.0057 0.04844,-0.01343 0.07292,-0.01805 0.0175,-0.0036 0.03737,0.0036 0.05487,0 a 2.9213337,2.9213337 0 0 1 0.5285,-0.05487 z m -1.18475,0.273576 c -0.01863,0.106174 -0.118413,0.14875 -0.237413,0.145837 -0.02625,0.02563 -0.0036,0.0735 -0.0175,0.109087 -0.01287,0.02974 -0.06185,0.05713 -0.09157,0.05487 -0.02157,0 -0.05487,-0.03444 -0.05487,-0.05487 0,-0.02507 0.04023,-0.02563 0.01863,-0.05425 5.87e-4,-0.0057 0.01163,-0.01287 0.0175,-0.01863 0.01226,-0.007 0.02507,-0.01107 0.03675,-0.01807 0.105585,-0.06535 0.214085,-0.112585 0.328418,-0.163916 z M 23.215663,19.473 c -0.0105,0.0057 -0.009,0.01287 -0.01806,0.01863 -0.02213,0.01343 -0.03794,0.02974 -0.05487,0.03613 -0.02337,0.009 -0.05076,0.01457 -0.05424,0.03676 -0.0036,0.0175 0.01863,0.01923 0.0175,0.03613 -0.0082,0.02156 -0.01287,0.02856 -0.0175,0.05487 0.02913,0.04843 0.09043,-0.01106 0.127164,-0.01863 0.01637,-0.0057 0.028,-0.0036 0.03674,-0.0175 0.0099,-0.01637 0.0105,-0.03263 0.01805,-0.05543 0.0082,-0.0245 0.03963,-0.03263 0.03677,-0.05426 -0.0027,-0.02157 -0.05544,-0.03963 -0.09157,-0.03672 z M 20.026,19.837587 c 0.02744,0.02213 0.0665,0.07 0.0175,0.09157 a 0.301,0.301 0 0 1 -0.09043,0.0175 c -0.0057,0 -0.01344,-0.01344 -0.01863,-0.0175 0.03037,-0.02913 0.06005,-0.06356 0.09158,-0.09157 z m 0.109087,0.109663 c 0.014,0 0.01987,0.035 0.03674,0.03613 0.01577,0 0.02687,-0.02043 0.03613,-0.01805 0.0245,0.0061 0.04143,0.05487 0.01805,0.07293 -0.01925,0.0057 -0.02213,-0.02043 -0.03613,-0.01805 -0.03963,0.007 -0.06184,0.09335 -0.09157,0.091 -0.028,-0.0057 -0.04663,-0.07058 -0.0175,-0.091 0,-0.0175 -0.0018,-0.01863 0,-0.03674 0.0082,-0.0105 0.03094,-0.03794 0.05427,-0.03613 z m -0.145837,0.01806 c 0.0083,0 0.01513,-0.0057 0.01806,0 -0.0036,0.03094 -0.01226,0.04026 -0.03613,0.05487 -0.04143,0.02507 -0.07756,0.056 -0.09157,0.109086 -0.0036,0.01573 -0.0525,0.05837 -0.07293,0.05487 -0.0455,-0.0099 0.02622,-0.09624 0.03675,-0.109666 0.01163,-0.01455 0.02337,-0.01923 0.03676,-0.03613 0.01287,-0.01637 0.02337,-0.0455 0.03613,-0.05487 a 0.1435,0.1435 0 0 1 0.07292,-0.01806 z m 3.955587,0.091 c 0.04663,-0.0057 0.07,0.0455 0.09157,0.07293 0.0175,0.02337 0.06243,0.05713 0.091,0.07292 0.01637,0.009 0.03613,0.02855 0.05424,0.03674 0.03793,0.01695 0.107922,0.07174 0.109672,0.109082 5.78e-4,0.01863 -0.021,0.03737 -0.01806,0.05487 0.02856,0.0057 0.05363,-0.04437 0.05425,-0.07293 0.05363,0.07587 0.09976,0.156339 0.14583,0.236839 0.02213,0.0385 0.0525,0.07 0.07293,0.109661 -0.02563,0.0077 -0.03206,0.01163 -0.03613,0.03613 -0.0057,0.03263 0.01225,0.08573 -0.03674,0.09157 -0.03037,0.0057 -0.0665,-0.02687 -0.10908,-0.03675 -0.0175,-0.0057 -0.04087,0.0057 -0.05487,0 -0.03206,-0.0105 -0.02687,-0.05363 -0.05427,-0.07292 a 0.29225,0.29225 0 0 0 -0.09157,-0.03675 c -0.01575,0 -0.01987,0.0057 -0.03613,0 -0.01987,-0.0057 -0.05656,0.0083 -0.07294,0 a 0.18725,0.18725 0 0 1 -0.05487,-0.05426 c -0.0061,-0.02156 0.05363,-0.03675 0.05487,-0.05487 0.0013,-0.014 -0.01575,-0.03327 -0.01863,-0.05487 -0.0018,-0.01287 0.0035,-0.02744 0,-0.03613 -0.0036,-0.01513 -0.03037,-0.0175 -0.05426,-0.01863 h -0.05487 c -0.02563,0 -0.07757,-0.0027 -0.109666,0 -0.01927,0 -0.03613,-0.0018 -0.05427,0 -0.05074,0.0057 -0.08807,-0.0057 -0.12775,0 a 0.36633337,0.36633337 0 0 0 -0.109667,0.03674 l -0.03613,0.01806 a 0.23975,0.23975 0 0 1 -0.03675,0.01863 c -0.01575,0.0077 -0.0385,0.0315 -0.05425,0.03613 -0.02337,0.0057 -0.05013,-0.0057 -0.09157,0 -0.02913,0 -0.07174,-0.01926 -0.07292,-0.05487 0,-0.05423 0.09508,-0.02623 0.145835,-0.03613 0.01926,-0.0057 0.0315,-0.02276 0.05487,-0.03674 0.01163,-0.0057 0.0083,-0.01106 0.01863,-0.01806 0.0175,-0.01225 0.05137,-0.04087 0.05425,-0.05487 0.0027,-0.01287 -0.0018,-0.02622 0,-0.03613 0.0027,-0.01225 0.021,-0.02044 0.03673,-0.03675 0.0245,-0.0245 0.04257,-0.05713 0.07293,-0.07293 0.02043,-0.0105 0.04493,-0.01922 0.05425,-0.03613 0.0027,-0.01863 0,-0.01923 0,-0.03674 a 0.07583337,0.07583337 0 0 1 0.03675,-0.01806 c 0.0315,-0.007 0.05427,0.0017 0.091,0 0.01575,0 0.03794,0.0077 0.05487,0 0.014,-0.0095 0.02213,-0.02913 0.03677,-0.03675 a 0.14408337,0.14408337 0 0 1 0.05425,-0.0175 z m 0.328413,0.3465 h -0.07294 c -0.02563,0 -0.05837,-0.01344 -0.07292,0 0.02157,0.035 0.06065,0.04606 0.109082,0.05487 a 0.11258337,0.11258337 0 0 0 0.03675,-0.05487 z m -3.992337,-0.328415 h 0.05487 c 0.01455,0 0.03037,-0.0057 0.03613,0 -0.0095,0.0385 -0.09741,0.03263 -0.127163,0.01863 0.0013,-0.01456 0.0175,-0.01637 0.03613,-0.01863 z m -0.12775,0.07293 c -0.02506,0.01863 -0.05076,0.04256 -0.091,0.05487 -0.02213,0.007 -0.05074,0.0061 -0.05487,-0.01806 -0.0043,-0.03037 0.035,-0.01513 0.05487,-0.01806 0.02563,-0.0057 0.06129,-0.0175 0.091,-0.01863 z m 3.791674,0 c -0.01924,0.0061 -0.02856,0.049 0,0.05487 0.01344,-0.0083 0.02213,-0.02913 0.01863,-0.05426 -0.0077,-0.0083 -0.01287,-0.0057 -0.01863,0 z m -0.03613,0.09157 c 0,0.03263 0.0057,0.06242 0,0.091 0.01863,0.03613 0.06355,0.0057 0.07292,-0.01806 0.01106,-0.06065 -0.0089,-0.0805 -0.03675,-0.07293 -0.0095,0.0057 -0.02623,-0.0077 -0.03613,0 z m -4.831162,1.36675 c 0.03326,0.02976 0.0525,0.07174 0.09157,0.09157 a 0.27416663,0.27416663 0 0 0 0.05423,0.01806 c 0.01575,0.0057 0.02213,-0.0043 0.03675,0 0.03093,0.0105 0.0665,0.02505 0.091,0.03674 0.03737,0.01637 0.07758,0.07236 0.109663,0.091 0.0013,0.01863 -0.0057,0.04087 0,0.05427 0.01513,0.02043 0.02974,0.04087 0.05425,0.05487 0.02976,0.01637 0.0455,0.042 0.07292,0.05487 0.0099,0.0057 0.02157,-0.0057 0.03674,0 0.0385,0.01163 0.05837,0.06415 0.091,0.05487 0.02157,-0.0061 0.01513,-0.03387 0.01863,-0.05487 0.01456,-0.01575 0.0315,-0.03674 0.05427,-0.03674 0.03613,0 0.04143,0.056 0.05487,0.09157 0.0077,0.01987 0.0315,0.03326 0.03675,0.05425 a 0.55008337,0.55008337 0 0 1 0,0.164501 c -0.0099,0.02687 -0.05137,0.02505 -0.07292,0.05426 -0.0105,0.014 -0.0105,0.04494 -0.01863,0.05487 -0.014,0.0175 -0.02563,0.02044 -0.03613,0.03675 a 0.2625,0.2625 0 0 0 -0.01863,0.03613 c -0.0175,0.03737 -0.05076,0.06415 -0.03613,0.109669 0.0057,0.0175 0.03678,0.03263 0.03678,0.05424 0,0.02563 -0.05077,0.04495 -0.05487,0.07293 -0.0036,0.02044 0.01163,0.04607 0.01806,0.07293 0.0043,0.02044 0.04256,0.04144 0.05487,0.05487 0.02043,0.02337 0.03613,0.06243 0.05425,0.09157 0.03674,0.05656 0.05544,0.126583 0.09157,0.182 0.01926,0.02856 0.06007,0.04256 0.07294,0.07292 0.0057,0.01513 -0.0057,0.04087 0,0.05487 0.021,0.04663 0.116666,0.104416 0.163916,0.127166 0.02213,0.01163 0.0525,0.007 0.07292,0.01863 0.03095,0.0175 0.09335,0.06415 0.109667,0.091 0.01344,0.0245 0.01107,0.08864 0.0175,0.12775 0.0095,0.05137 -0.0018,0.09043 0,0.145834 0.0027,0.03037 0.01863,0.04257 0.01863,0.07292 v 0.05425 c -5.83e-4,0.03613 0.0036,0.07293 0,0.109669 a 0.34533337,0.34533337 0 0 0 0,0.05487 c 0.0018,0.0175 0.0175,0.01987 0.01805,0.03613 0.0013,0.0175 -0.01987,0.04143 -0.01805,0.05487 0.0036,0.03674 0.02913,0.05713 0.03675,0.091 0.0057,0.02687 0.02157,0.09566 0.0175,0.12775 -0.0018,0.01693 -0.01513,0.035 -0.0175,0.05487 -0.0018,0.01513 0.0018,0.02213 0,0.03613 -0.0018,0.01343 0.0036,0.02563 0,0.03674 -0.01863,-0.01163 -0.03675,-0.0245 -0.05487,-0.03674 a 3.0350837,3.0350837 0 0 1 -0.4375,-0.364582 l -0.05487,-0.05428 A 3.0333337,3.0333337 0 0 1 19.551789,23.64795 c -0.0083,-0.01163 -0.0105,-0.02507 -0.01806,-0.03675 a 2.814,2.814 0 0 1 -0.2555,-0.47425 c -0.0052,-0.01163 -0.01287,-0.02337 -0.01806,-0.03613 A 2.9271663,2.9271663 0 0 1 19.096163,22.5355 2.9213337,2.9213337 0 0 1 19.041333,22.007 c 0,-0.138837 0.0175,-0.26775 0.03674,-0.401337 z m 1.1305,0.31033 c 0.028,-0.01287 0.02272,0.03207 0,0.03613 -0.02157,0.0057 -0.021,-0.02563 0,-0.03613 z"
     fill="#232629"
     id="path6504-9"
     style="stroke-width:0.583337" />
</svg>
