<?xml version="1.0" encoding="UTF-8" standalone="no"?>
<svg
   width="32"
   height="32"
   version="1.1"
   viewBox="0 0 8.467 8.467"
   id="svg74"
   sodipodi:docname="preferences-system-network-ethernet.svg"
   inkscape:version="1.2.1 (9c6d41e410, 2022-07-14)"
   xmlns:inkscape="http://www.inkscape.org/namespaces/inkscape"
   xmlns:sodipodi="http://sodipodi.sourceforge.net/DTD/sodipodi-0.dtd"
   xmlns:xlink="http://www.w3.org/1999/xlink"
   xmlns="http://www.w3.org/2000/svg"
   xmlns:svg="http://www.w3.org/2000/svg">
  <sodipodi:namedview
     id="namedview76"
     pagecolor="#ffffff"
     bordercolor="#666666"
     borderopacity="1.0"
     inkscape:showpageshadow="2"
     inkscape:pageopacity="0.0"
     inkscape:pagecheckerboard="0"
     inkscape:deskcolor="#d1d1d1"
     showgrid="false"
     inkscape:zoom="3.6875"
     inkscape:cx="32"
     inkscape:cy="32.135593"
     inkscape:window-width="1920"
     inkscape:window-height="1000"
     inkscape:window-x="0"
     inkscape:window-y="0"
     inkscape:window-maximized="1"
     inkscape:current-layer="svg74" />
  <defs
     id="defs13">
    <filter
       id="p"
       x="-0.036000054"
       y="-0.036000054"
       width="1.0720001"
       height="1.0720001"
       color-interpolation-filters="sRGB">
      <feGaussianBlur
         stdDeviation="0.23813437"
         id="feGaussianBlur2" />
    </filter>
    <linearGradient
       id="c"
       x1="8.467"
       x2="8.467"
       y1="0.52919"
       y2="16.405001"
       gradientTransform="matrix(0.46666755,0,0,0.46666755,10.763116,0.28222366)"
       gradientUnits="userSpaceOnUse">
      <stop
         stop-color="#7f8c8d"
         offset="0"
         id="stop5" />
      <stop
         stop-color="#bdc3c7"
         offset="1"
         id="stop7" />
    </linearGradient>
    <filter
       id="o"
       x="-0.032141728"
       y="-0.040910918"
       width="1.0642835"
       height="1.0818218"
       color-interpolation-filters="sRGB">
      <feGaussianBlur
         stdDeviation="0.198435"
         id="feGaussianBlur10" />
    </filter>
  </defs>
  <linearGradient
     id="b">
    <stop
       stop-color="#232629"
       offset="0"
       id="stop15" />
    <stop
       stop-color="#a2abae"
       offset="1"
       id="stop17" />
  </linearGradient>
  <linearGradient
     id="a">
    <stop
       stop-color="#31363b"
       offset="0"
       id="stop20" />
    <stop
       stop-color="#31363b"
       stop-opacity="0"
       offset="1"
       id="stop22" />
  </linearGradient>
  <linearGradient
     id="d"
     x1="8.467"
     x2="8.467"
     y1="2.6459999"
     y2="14.288"
     gradientUnits="userSpaceOnUse"
     gradientTransform="matrix(0.40105553,0,0,0.40105553,0.83796225,1.2071011)">
    <stop
       stop-color="#232629"
       offset="0"
       id="stop25" />
    <stop
       stop-color="#292c2f"
       offset="1"
       id="stop27" />
  </linearGradient>
  <linearGradient
     id="e"
     x1="4.2340002"
     x2="4.2340002"
     y1="290.64999"
     y2="291.17999"
     gradientTransform="matrix(2,0,0,3.9999,-1.588,-1159.9)"
     gradientUnits="userSpaceOnUse">
    <stop
       stop-color="#fdbc4b"
       stop-opacity=".8"
       offset="0"
       id="stop30" />
    <stop
       stop-color="#fdbc4b"
       stop-opacity="0"
       offset="1"
       id="stop32" />
  </linearGradient>
  <linearGradient
     id="f"
     x1="4.2329998"
     x2="4.2329998"
     y1="295.41"
     y2="294.62"
     gradientTransform="matrix(2.5,0,0,2,-2.116,-576.54)"
     gradientUnits="userSpaceOnUse"
     xlink:href="#a" />
  <linearGradient
     id="g"
     x1="4.5869999"
     x2="4.5869999"
     y1="295.41"
     y2="294.62"
     gradientTransform="matrix(0.75,0,0,2,1.852,-578.12)"
     gradientUnits="userSpaceOnUse"
     xlink:href="#a" />
  <linearGradient
     id="h"
     x1="3.8800001"
     x2="3.8800001"
     y1="295.41"
     y2="294.62"
     gradientTransform="matrix(0.75,0,0,2,8.732,-578.12)"
     gradientUnits="userSpaceOnUse"
     xlink:href="#a" />
  <linearGradient
     id="i"
     x1="7.4109998"
     x2="7.4109998"
     y1="295.41"
     y2="294.62"
     gradientTransform="matrix(0.25,0,0,4,14.552,-1173.2)"
     gradientUnits="userSpaceOnUse"
     xlink:href="#a" />
  <linearGradient
     id="j"
     x1="1.061"
     x2="1.061"
     y1="295.41"
     y2="294.62"
     gradientTransform="matrix(0.25,0,0,4,0.264,-1173.2)"
     gradientUnits="userSpaceOnUse"
     xlink:href="#a" />
  <linearGradient
     id="k"
     x1="4.4439998"
     x2="4.4439998"
     y1="295.41"
     y2="294.62"
     gradientTransform="matrix(1.25,0,0,3.3333,-2.38,-973.6)"
     gradientUnits="userSpaceOnUse"
     xlink:href="#a" />
  <linearGradient
     id="l"
     x1="4.0209999"
     x2="4.0209999"
     y1="295.41"
     y2="294.62"
     gradientTransform="matrix(1.25,0,0,3.3333,8.732,-973.6)"
     gradientUnits="userSpaceOnUse"
     xlink:href="#a" />
  <radialGradient
     id="m"
     cx="-1.146"
     cy="-291.92001"
     r="0.26499999"
     gradientTransform="matrix(-7.9877,3.4e-4,-6e-4,-13.98,-6.686,-4075.8)"
     gradientUnits="userSpaceOnUse"
     xlink:href="#b" />
  <radialGradient
     id="n"
     cx="-1.146"
     cy="-291.92001"
     r="0.26499999"
     gradientTransform="matrix(7.9877,1.3e-4,2.3e-4,-13.979,23.513,-4075.5)"
     gradientUnits="userSpaceOnUse"
     xlink:href="#b" />
  <circle
     cx="4.2335"
     cy="4.2335005"
     r="3.7043126"
     fill="url(#c)"
     fill-rule="evenodd"
     stroke-width="0.123475"
     style="fill:url(#c);paint-order:fill markers stroke"
     id="circle46" />
  <path
     d="m 1.5885,3.0188142 v 2.646 h -0.53 v 0.53 h 0.53 v 2.116 h -0.53 v 0.529 h 0.53 v 2.6459998 h 2.645 v 1.587 h 1.588 v 1.587 h 5.292 v -1.587 h 1.587 v -1.588 h 2.645 V 8.8398142 h 0.53 v -0.53 h -0.53 v -2.115 h 0.53 v -0.53 h -0.53 v -2.645 z"
     filter="url(#o)"
     opacity="0.25"
     id="path48"
     transform="matrix(0.4010555,0,0,0.4010555,0.83776175,1.0575819)" />
  <path
     d="m 1.4748379,2.2682946 v 1.061193 H 1.262279 V 3.5420473 H 1.4748379 V 4.3906801 H 1.262279 V 4.602838 H 1.4748379 V 5.6640302 H 2.5356304 V 6.3005073 H 3.172506 V 6.9369792 H 5.2948914 V 6.3005073 H 5.9313643 V 5.6636307 H 6.9921621 V 4.602838 H 7.2047219 V 4.3902789 H 6.9921621 V 3.5420473 H 7.2047219 V 3.3294876 H 6.9921621 V 2.2686955 Z"
     fill="url(#d)"
     id="path50"
     style="fill:url(#d);stroke-width:0.401054" />
  <g
     stroke-width="2"
     id="g72"
     transform="matrix(0.4010555,0,0,0.4010555,0.83796225,1.2071011)">
    <path
       d="m 2.646,2.646 h 0.53 v 2.117 h -0.53 z m 1.588,0 h 0.529 v 2.117 h -0.53 z m 1.587,0 h 0.53 v 2.117 h -0.53 z m 7.938,0 h 0.53 v 2.117 h -0.53 z m -1.588,0 h 0.53 v 2.117 h -0.53 z m -1.587,0 h 0.529 v 2.117 h -0.53 z m -1.588,0 h 0.53 v 2.117 h -0.53 z m -1.587,0 h 0.529 v 2.117 h -0.53 z"
       fill="url(#e)"
       id="path52"
       style="fill:url(#e)" />
    <path
       d="m 5.821,12.7 h 5.292 v 1.588 H 5.82 Z"
       fill="url(#f)"
       id="path54"
       style="fill:url(#f)" />
    <path
       d="M 4.234,11.113 H 5.82 V 12.7 H 4.234 Z"
       fill="url(#g)"
       id="path56"
       style="fill:url(#g)" />
    <path
       d="M 11.113,11.113 H 12.7 V 12.7 h -1.588 z"
       fill="url(#h)"
       id="path58"
       style="fill:url(#h)" />
    <path
       d="m 15.346,5.292 v 0.53 h 0.53 v -0.53 z m 0,2.646 v 0.529 h 0.53 v -0.53 z"
       fill="url(#i)"
       id="path60"
       style="fill:url(#i)" />
    <path
       d="m 1.058,5.292 v 0.53 h 0.53 v -0.53 z m 0,2.646 v 0.529 h 0.53 v -0.53 z"
       fill="url(#j)"
       id="path62"
       style="fill:url(#j)" />
    <path
       d="m 1.588,8.467 h 2.646 v 2.646 H 1.588 Z"
       fill="url(#k)"
       id="path64"
       style="fill:url(#k)" />
    <path
       d="m 12.7,8.467 h 2.646 v 2.646 H 12.7 Z"
       fill="url(#l)"
       id="path66"
       style="fill:url(#l)" />
    <path
       d="M 2.117,7.938 H 1.058 V 5.82 h 1.059 z"
       fill="url(#m)"
       id="path68"
       style="fill:url(#m)" />
    <path
       d="m 14.817,7.938 h 1.059 V 5.82 h -1.059 z"
       fill="url(#n)"
       id="path70"
       style="fill:url(#n)" />
  </g>
</svg>
