<?xml version="1.0" encoding="UTF-8" standalone="no"?>
<!-- Created with Inkscape (http://www.inkscape.org/) -->

<svg
   width="32"
   version="1.1"
   height="32"
   id="svg2082"
   sodipodi:docname="preferences-other.svg"
   inkscape:version="1.2.2 (b0a8486541, 2022-12-01)"
   xmlns:inkscape="http://www.inkscape.org/namespaces/inkscape"
   xmlns:sodipodi="http://sodipodi.sourceforge.net/DTD/sodipodi-0.dtd"
   xmlns:xlink="http://www.w3.org/1999/xlink"
   xmlns="http://www.w3.org/2000/svg"
   xmlns:svg="http://www.w3.org/2000/svg">
  <sodipodi:namedview
     id="namedview2084"
     pagecolor="#ffffff"
     bordercolor="#000000"
     borderopacity="0.25"
     inkscape:showpageshadow="2"
     inkscape:pageopacity="0.0"
     inkscape:pagecheckerboard="0"
     inkscape:deskcolor="#d1d1d1"
     showgrid="false"
     inkscape:zoom="7.375"
     inkscape:cx="9.6271186"
     inkscape:cy="16.067797"
     inkscape:window-width="1920"
     inkscape:window-height="1002"
     inkscape:window-x="0"
     inkscape:window-y="0"
     inkscape:window-maximized="1"
     inkscape:current-layer="layer1" />
  <defs
     id="defs5455">
    <linearGradient
       inkscape:collect="always"
       id="linearGradient2830">
      <stop
         style="stop-color:#4e70ac;stop-opacity:1;"
         offset="0"
         id="stop2826" />
      <stop
         style="stop-color:#9d7ed5;stop-opacity:1"
         offset="1"
         id="stop2828" />
    </linearGradient>
    <linearGradient
       inkscape:collect="always"
       xlink:href="#linearGradient2830"
       id="linearGradient2832"
       x1="389.81174"
       y1="523.23602"
       x2="410.69003"
       y2="541.6651"
       gradientUnits="userSpaceOnUse" />
  </defs>
  <metadata
     id="metadata5458" />
  <g
     inkscape:label="Capa 1"
     inkscape:groupmode="layer"
     id="layer1"
     transform="matrix(1 0 0 1 -384.57143 -515.798)">
    <path
       id="circle2"
       style="opacity:0.99;fill:url(#linearGradient2832);fill-opacity:1;stroke-width:1.05796"
       d="m 414.57143,531.798 a 13.999998,14.000001 0 0 1 -14,14 13.999998,14.000001 0 0 1 -14,-14 13.999998,14.000001 0 0 1 14,-14 13.999998,14.000001 0 0 1 14,14 z" />
    <path
       d="m 395.22699,523.236 c -0.33333,0 -0.6017,0.26836 -0.6017,0.60169 v 0.81911 a 4.8052062,4.8583886 0 0 0 -1.18458,0.5065 l -0.58994,-0.58994 c -0.11785,-0.11785 -0.27161,-0.17746 -0.42541,-0.17746 -0.15382,0 -0.30757,0.0596 -0.42542,0.17746 l -0.85083,0.85083 c -0.23571,0.23571 -0.23571,0.61512 0,0.85083 l 0.59464,0.59464 a 4.8052062,4.8583886 0 0 0 -0.49945,1.17989 h -0.83085 c -0.33334,0 -0.6017,0.26835 -0.6017,0.60169 v 1.20339 c 0,0.33334 0.26836,0.60169 0.6017,0.60169 h 0.78501 a 4.8052062,4.8583886 0 0 0 0.47595,1.24922 l -0.5253,0.52531 c -0.23571,0.23571 -0.23571,0.61512 0,0.85083 l 0.85083,0.85083 c 0.2357,0.23571 0.61513,0.23571 0.85083,0 l 0.47242,-0.47242 a 4.8052062,4.8583886 0 0 0 1.30211,0.57349 v 0.6346 c 0,0.33334 0.26836,0.60169 0.60169,0.60169 h 1.20339 c 0.33334,0 0.60169,-0.26835 0.60169,-0.60169 v -0.6111 a 4.8052062,4.8583886 0 0 0 1.33618,-0.56291 l 0.43835,0.43834 c 0.2357,0.23571 0.61512,0.23571 0.85083,0 l 0.85083,-0.85083 c 0.23571,-0.23571 0.23571,-0.61512 0,-0.85083 l -0.47124,-0.47125 a 4.8052062,4.8583886 0 0 0 0.5065,-1.30328 h 0.70041 c 0.33334,0 0.60169,-0.26835 0.60169,-0.60169 v -1.20339 c 0,-0.33334 -0.26835,-0.60169 -0.60169,-0.60169 h -0.74389 a 4.8052062,4.8583886 0 0 0 -0.53355,-1.23277 l 0.54177,-0.54176 c 0.2357,-0.23571 0.2357,-0.61512 0,-0.85083 l -0.85083,-0.85083 c -0.23571,-0.23571 -0.61513,-0.23571 -0.85083,0 l -0.55704,0.55704 a 4.8052062,4.8583886 0 0 0 -1.21749,-0.49123 v -0.80148 c 0,-0.33333 -0.26835,-0.60169 -0.60169,-0.60169 z m 0.60169,2.5948 a 3.4221318,3.4221318 0 0 1 3.42213,3.42214 3.4221318,3.4221318 0 0 1 -3.42213,3.42213 3.4221318,3.4221318 0 0 1 -3.42212,-3.42213 3.4221318,3.4221318 0 0 1 3.42212,-3.42214 z"
       id="path4"
       style="fill:#ffffff;stroke-width:0.601694" />
    <path
       d="m 405.57564,532.038 c -0.33334,0 -0.60169,0.26836 -0.60169,0.6017 v 0.60169 a 3.724315,3.724315 0 0 0 -1.01184,0.41954 l -0.42541,-0.42541 c -0.23571,-0.23571 -0.61513,-0.23571 -0.85083,0 l -0.42541,0.42541 c -0.23571,0.2357 -0.23571,0.61513 0,0.85083 l 0.42658,0.42659 a 3.724315,3.724315 0 0 0 -0.41953,1.01066 h -0.60287 c -0.33333,0 -0.60169,0.26836 -0.60169,0.60169 v 0.6017 c 0,0.33334 0.26835,0.60169 0.60169,0.60169 h 0.6017 a 3.724315,3.724315 0 0 0 0.41953,1.01183 l -0.42541,0.42542 c -0.23571,0.23571 -0.23571,0.61513 0,0.85084 l 0.42541,0.42541 c 0.23571,0.2357 0.61512,0.2357 0.85083,0 l 0.42659,-0.42659 a 3.724315,3.724315 0 0 0 1.01066,0.41954 v 0.60287 c 0,0.33333 0.26835,0.60169 0.60169,0.60169 h 0.6017 c 0.33333,0 0.60169,-0.26836 0.60169,-0.60169 v -0.6017 a 3.724315,3.724315 0 0 0 1.01183,-0.41953 l 0.42542,0.42541 c 0.2357,0.2357 0.61512,0.2357 0.85083,0 l 0.42541,-0.42541 c 0.23571,-0.23571 0.23571,-0.61513 0,-0.85084 l -0.42659,-0.42659 a 3.724315,3.724315 0 0 0 0.41954,-1.01066 h 0.60287 c 0.33334,0 0.6017,-0.26835 0.6017,-0.60169 v -0.6017 c 0,-0.33333 -0.26836,-0.60169 -0.6017,-0.60169 h -0.60169 a 3.724315,3.724315 0 0 0 -0.41954,-1.01183 l 0.42541,-0.42542 c 0.23571,-0.2357 0.23571,-0.61513 0,-0.85083 l -0.42541,-0.42541 c -0.23571,-0.23571 -0.61513,-0.23571 -0.85083,0 l -0.4266,0.42659 a 3.724315,3.724315 0 0 0 -1.01065,-0.41955 v -0.60286 c 0,-0.33334 -0.26836,-0.6017 -0.60169,-0.6017 z m 0.30086,2.65122 a 2.162336,2.162336 0 0 1 2.16233,2.16233 2.162336,2.162336 0 0 1 -2.16233,2.16234 2.162336,2.162336 0 0 1 -2.16234,-2.16234 2.162336,2.162336 0 0 1 2.16234,-2.16233 z"
       fill-opacity="0.50365"
       id="path6"
       style="fill:#ffffff;stroke-width:0.601694" />
  </g>
</svg>
