<?xml version="1.0" encoding="UTF-8" standalone="no"?>
<svg
   height="32"
   width="32"
   version="1.1"
   id="svg5726"
   sodipodi:docname="preferences-system-network-server-slp.svg"
   inkscape:version="1.2.1 (9c6d41e410, 2022-07-14)"
   xmlns:inkscape="http://www.inkscape.org/namespaces/inkscape"
   xmlns:sodipodi="http://sodipodi.sourceforge.net/DTD/sodipodi-0.dtd"
   xmlns:xlink="http://www.w3.org/1999/xlink"
   xmlns="http://www.w3.org/2000/svg"
   xmlns:svg="http://www.w3.org/2000/svg">
  <defs
     id="defs5730">
    <linearGradient
       gradientTransform="matrix(0.69997044,0,0,0.69993119,-301.988,-350.62385)"
       gradientUnits="userSpaceOnUse"
       x2="426.69501"
       y2="499.92099"
       y1="547.67499"
       id="a-6"
       x1="389.32001">
      <stop
         stop-color="#18222a"
         style="stop-color:#1e2b35;stop-opacity:1"
         id="stop216-3" />
      <stop
         stop-color="#566069"
         offset="1"
         style="stop-color:#6d7983;stop-opacity:1"
         id="stop218" />
    </linearGradient>
    <linearGradient
       inkscape:collect="always"
       xlink:href="#c-6"
       id="linearGradient1278"
       gradientUnits="userSpaceOnUse"
       gradientTransform="matrix(3.1111104,0,0,1.5555555,-1200.6667,-798.27381)"
       x1="389.57101"
       y1="526.79797"
       x2="389.52429"
       y2="519.54938" />
    <linearGradient
       id="c-6">
      <stop
         offset="0"
         stop-color="#c6cdd1"
         id="stop226" />
      <stop
         offset="1"
         stop-color="#e0e5e7"
         id="stop228" />
    </linearGradient>
    <linearGradient
       inkscape:collect="always"
       xlink:href="#e-3"
       id="linearGradient1280"
       gradientUnits="userSpaceOnUse"
       gradientTransform="matrix(1.5555555,0,0,1.5555555,0.44449238,4.0786184)"
       x1="3.00001"
       y1="4.99997"
       x2="6.00001"
       y2="7.99997" />
    <linearGradient
       id="e-3">
      <stop
         offset="0"
         id="stop232" />
      <stop
         offset="1"
         stop-opacity="0"
         id="stop234" />
    </linearGradient>
    <linearGradient
       inkscape:collect="always"
       xlink:href="#e-3"
       id="linearGradient1282"
       gradientUnits="userSpaceOnUse"
       gradientTransform="matrix(1.5555555,0,0,1.5555555,0.44449238,4.0786184)"
       x1="1.0054113"
       y1="7.4388428"
       x2="6.00001"
       y2="9.9999704" />
    <linearGradient
       inkscape:collect="always"
       xlink:href="#e-3"
       id="linearGradient1284"
       gradientUnits="userSpaceOnUse"
       gradientTransform="matrix(1.5555555,0,0,1.5555555,0.44449238,4.0786184)"
       x1="3.0484273"
       y1="8.8942347"
       x2="6.00001"
       y2="11.99997" />
    <linearGradient
       inkscape:collect="always"
       xlink:href="#e-3"
       id="linearGradient1286"
       gradientUnits="userSpaceOnUse"
       gradientTransform="matrix(1.5555555,0,0,1.5555555,0.44449238,4.0786184)"
       x1="3.0484273"
       y1="10.822806"
       x2="6.00001"
       y2="13.99997" />
  </defs>
  <sodipodi:namedview
     id="namedview5728"
     pagecolor="#ffffff"
     bordercolor="#666666"
     borderopacity="1.0"
     inkscape:showpageshadow="2"
     inkscape:pageopacity="0.0"
     inkscape:pagecheckerboard="0"
     inkscape:deskcolor="#d1d1d1"
     showgrid="false"
     inkscape:zoom="7.375"
     inkscape:cx="16"
     inkscape:cy="16.067797"
     inkscape:window-width="1920"
     inkscape:window-height="1002"
     inkscape:window-x="0"
     inkscape:window-y="0"
     inkscape:window-maximized="1"
     inkscape:current-layer="svg5726" />
  <linearGradient
     id="b"
     gradientTransform="matrix(.7 0 0 .7 -.7 -1.1)"
     gradientUnits="userSpaceOnUse"
     x2="0"
     y1="44"
     y2="4">
    <stop
       offset="0"
       stop-color="#1d1e1e"
       id="stop5688" />
    <stop
       offset="1"
       stop-color="#44484c"
       id="stop5690" />
  </linearGradient>
  <linearGradient
     id="c"
     gradientTransform="matrix(.7 0 0 .7 -270.499 -350.76)"
     x2="0"
     xlink:href="#a"
     y1="507.8"
     y2="506.8" />
  <linearGradient
     id="a"
     gradientUnits="userSpaceOnUse"
     x2="0"
     y1="507.8"
     y2="506.8">
    <stop
       offset="0"
       stop-color="#3da103"
       id="stop5694" />
    <stop
       offset="1"
       stop-color="#7ddf07"
       id="stop5696" />
  </linearGradient>
  <linearGradient
     id="d"
     gradientTransform="matrix(.7 0 0 .7 -270.499 -339.76)"
     x2="0"
     xlink:href="#a"
     y1="507.8"
     y2="506.8" />
  <linearGradient
     id="e"
     gradientTransform="matrix(.7 0 0 .7 -270.499 -328.76)"
     x2="0"
     xlink:href="#a"
     y1="507.8"
     y2="506.8" />
  <linearGradient
     id="f"
     gradientUnits="userSpaceOnUse"
     x1="5"
     x2="18"
     y1="12"
     y2="25">
    <stop
       offset="0"
       stop-color="#292c2f"
       id="stop5701" />
    <stop
       offset="1"
       stop-opacity="0"
       id="stop5703" />
  </linearGradient>
  <rect
     width="27.998781"
     x="-29.99939"
     y="2.0013762"
     rx="13.999393"
     height="27.997248"
     transform="scale(-1,1)"
     style="display:inline;overflow:visible;fill:url(#a-6);stroke-width:1.95969;stroke-opacity:0.55"
     id="rect223"
     ry="13.998624" />
  <path
     style="display:inline;overflow:visible;opacity:0.3;fill:#000000;fill-opacity:1;stroke-width:1.95969;stroke-opacity:0.55"
     d="m 2.0084544,15.650151 c -0.0042,0.116682 -0.0084,0.232706 -0.0084,0.350057 0,7.755297 6.243769,13.998632 13.9993686,13.998632 7.755645,0 13.99946,-6.243335 13.99946,-13.998632 0,-0.117367 -0.0068,-0.232702 -0.0084,-0.350057 -0.184853,7.592146 -6.355778,13.648652 -13.991047,13.648652 -7.6380806,0 -13.8062046,-6.056506 -13.9909706,-13.648652"
     id="path225" />
  <path
     d="m 2.0084544,16.347529 c -0.0042,-0.116682 -0.0084,-0.232039 -0.0084,-0.350052 0,-7.7552466 6.243769,-13.9986366 13.9993686,-13.9986366 7.755645,0 13.99946,6.24339 13.99946,13.9986366 0,0.117351 -0.0068,0.233364 -0.0084,0.350052 -0.184772,-7.5921506 -6.3557,-13.6486386 -13.990966,-13.6486386 -7.6380806,0 -13.8062086,6.056488 -13.9909676,13.6486386"
     style="display:inline;overflow:visible;opacity:0.3;fill:#ffffff;fill-opacity:1;stroke-width:1.95969;stroke-opacity:0.55"
     id="path229" />
  <path
     d="m 11.18649,9.9140944 h 10 v 1.9999996 h -10 z m 0,8.9999996 h 10 v 2 h -10 z m 0,-6 h 10 v 2 h -10 z m 0,3 h 10 v 2 h -10 z"
     stroke-width="2.19988"
     id="path269-9"
     style="fill:url(#linearGradient1278)"
     sodipodi:nodetypes="cccccccccccccccccccc" />
  <path
     d="m 5.1111624,11.856403 1.555555,1.555555 h 3.111111 l 1.5555546,1.555556 1.555555,-1.555556 -3.1111096,-3.111111 z"
     fill="url(#h)"
     opacity="0.2"
     id="path271-3"
     style="fill:url(#linearGradient1280);stroke-width:1.55556" />
  <path
     d="m 5.1864904,14.914094 c 0,0 0.961709,1.090457 1.480227,1.608975 h 3.111111 l 1.5555546,1.555556 1.555555,-1.555556 -3.1111096,-3.111111 z"
     fill="url(#i)"
     opacity="0.2"
     id="path273-6"
     style="fill:url(#linearGradient1282);stroke-width:1.55556"
     sodipodi:nodetypes="ccccccc" />
  <path
     d="m 5.1864904,17.914094 1.480227,1.720086 h 3.111111 l 1.5555546,1.555556 1.555555,-1.555556 -3.1111096,-3.111111 z"
     fill="url(#j)"
     opacity="0.2"
     id="path275-0"
     style="fill:url(#linearGradient1284);stroke-width:1.55556"
     sodipodi:nodetypes="ccccccc" />
  <path
     d="m 9.7778234,19.634172 -4.591333,1.279922 4.591333,4.9423 h 6.2222206 z"
     fill="url(#k)"
     opacity="0.2"
     id="path277-6"
     style="fill:url(#linearGradient1286);stroke-width:1.55556"
     sodipodi:nodetypes="ccccc" />
  <path
     d="M 5.1864904,9.9140944 H 10.18649 V 11.914094 H 5.1864904 Z m 0,2.9999996 H 10.18649 v 2 H 5.1864904 Z m 0,3 H 10.18649 v 2 H 5.1864904 Z m 0,3 H 10.18649 v 2 H 5.1864904 Z"
     fill="#11d116"
     id="path279-2"
     style="stroke-width:1.55556"
     sodipodi:nodetypes="cccccccccccccccccccc" />
  <rect
     fill="#eff0f1"
     height="8"
     rx="0.99999988"
     width="8"
     x="18.000053"
     y="17.99884"
     id="rect36-5"
     style="stroke-width:0.5" />
  <path
     d="m 17.800053,24.114 h 8.4 v 1.4 h -8.4 z m 0.7,-0.7 a 3.5,3.5 0 0 1 3.5,-3.5 3.5,3.5 0 0 1 3.5,3.5 h -3.5 z m 3.5,-4.9 a 0.7,0.7 0 0 0 -0.7,0.7 h 1.4 a 0.7,0.7 0 0 0 -0.7,-0.7 z"
     fill="#232629"
     id="path5724-0"
     style="stroke-width:0.7" />
</svg>
