<?xml version="1.0" encoding="UTF-8" standalone="no"?>
<svg
   width="32"
   height="32"
   id="svg2"
   version="1.1"
   sodipodi:docname="applications-utilities.svg"
   inkscape:version="1.2.1 (9c6d41e410, 2022-07-14)"
   xmlns:inkscape="http://www.inkscape.org/namespaces/inkscape"
   xmlns:sodipodi="http://sodipodi.sourceforge.net/DTD/sodipodi-0.dtd"
   xmlns:xlink="http://www.w3.org/1999/xlink"
   xmlns="http://www.w3.org/2000/svg"
   xmlns:svg="http://www.w3.org/2000/svg">
  <sodipodi:namedview
     id="namedview9336"
     pagecolor="#ffffff"
     bordercolor="#666666"
     borderopacity="1.0"
     inkscape:showpageshadow="2"
     inkscape:pageopacity="0.0"
     inkscape:pagecheckerboard="0"
     inkscape:deskcolor="#d1d1d1"
     showgrid="false"
     inkscape:zoom="9.8333334"
     inkscape:cx="28.881356"
     inkscape:cy="9.9661016"
     inkscape:window-width="1920"
     inkscape:window-height="1009"
     inkscape:window-x="0"
     inkscape:window-y="0"
     inkscape:window-maximized="1"
     inkscape:current-layer="svg2" />
  <defs
     id="defs4">
    <linearGradient
       inkscape:collect="always"
       id="linearGradient2095">
      <stop
         style="stop-color:#000000;stop-opacity:1;"
         offset="0"
         id="stop2091" />
      <stop
         style="stop-color:#ebcb8b;stop-opacity:1;"
         offset="1"
         id="stop2093" />
    </linearGradient>
    <linearGradient
       inkscape:collect="always"
       id="linearGradient1551">
      <stop
         style="stop-color:#bf616a;stop-opacity:1;"
         offset="0"
         id="stop1547" />
      <stop
         style="stop-color:#ebcb8b;stop-opacity:1;"
         offset="1"
         id="stop1549" />
    </linearGradient>
    <linearGradient
       id="linearGradient4298">
      <stop
         style="stop-color:#000000;stop-opacity:1;"
         offset="0"
         id="stop4300" />
      <stop
         style="stop-color:#000000;stop-opacity:0;"
         offset="1"
         id="stop4302" />
    </linearGradient>
    <linearGradient
       id="linearGradient4214">
      <stop
         style="stop-color:#c6afe9;stop-opacity:1"
         offset="0"
         id="stop4216" />
      <stop
         style="stop-color:#008080;stop-opacity:1"
         offset="1"
         id="stop4218" />
    </linearGradient>
    <linearGradient
       id="a"
       y1="547.63397"
       y2="499.67899"
       x2="388.86499"
       gradientUnits="userSpaceOnUse"
       gradientTransform="translate(-384.57,-499.8)"
       x1="428.81601">
      <stop
         stop-color="#2a2c2f"
         id="stop7" />
      <stop
         offset="1"
         stop-color="#536161"
         id="stop9" />
    </linearGradient>
    <linearGradient
       id="b"
       y1="44"
       y2="12"
       x2="14"
       gradientUnits="userSpaceOnUse"
       x1="36">
      <stop
         stop-color="#536161"
         id="stop12"
         style="stop-color:#bfc9c9;stop-opacity:1" />
      <stop
         offset="1"
         stop-color="#f4f5f5"
         id="stop14"
         style="stop-color:#fbfbfb;stop-opacity:1" />
    </linearGradient>
    <linearGradient
       id="c"
       y1="529.79999"
       x1="418.57001"
       y2="539.82501"
       x2="419.974"
       gradientUnits="userSpaceOnUse"
       gradientTransform="translate(-384.57,-499.8)">
      <stop
         stop-color="#292c2f"
         id="stop17" />
      <stop
         offset="1"
         stop-opacity="0"
         id="stop19" />
    </linearGradient>
    <style
       id="current-color-scheme"
       type="text/css">
   .ColorScheme-Text { color:#4d4d4d; }
  </style>
    <linearGradient
       xlink:href="#linearGradient4214"
       id="linearGradient4220"
       x1="1"
       y1="0"
       x2="38.882576"
       y2="46.857143"
       gradientUnits="userSpaceOnUse"
       gradientTransform="translate(-77.14001,-9.7510711)" />
    <linearGradient
       id="c-6"
       y1="527.01398"
       x1="406.50101"
       y2="539.82501"
       x2="419.974"
       gradientUnits="userSpaceOnUse"
       gradientTransform="translate(-404.99,-523.8)">
      <stop
         stop-color="#292c2f"
         id="stop17-7" />
      <stop
         offset="1"
         stop-opacity="0"
         id="stop19-5" />
    </linearGradient>
    <linearGradient
       xlink:href="#linearGradient4298"
       id="linearGradient4304"
       x1="26.929001"
       y1="5.9949999"
       x2="47.120998"
       y2="37.126999"
       gradientUnits="userSpaceOnUse"
       gradientTransform="matrix(0.69999994,0,0,0.69999994,-0.8,-0.8)" />
    <linearGradient
       inkscape:collect="always"
       xlink:href="#linearGradient1551"
       id="linearGradient1553"
       x1="3.000001"
       y1="44.999977"
       x2="44.999977"
       y2="3.000001"
       gradientUnits="userSpaceOnUse"
       gradientTransform="scale(0.66666667)" />
    <filter
       id="j"
       x="-0.041250001"
       y="-0.11"
       width="1.0825"
       height="1.22"
       color-interpolation-filters="sRGB">
      <feGaussianBlur
         stdDeviation="0.275"
         id="feGaussianBlur1714" />
    </filter>
    <linearGradient
       id="b-3"
       x1="16"
       x2="16"
       y1="4"
       y2="11"
       gradientUnits="userSpaceOnUse"
       gradientTransform="matrix(0.83116066,0,0,0.83116066,2.7014292,5.4444744)">
      <stop
         stop-color="#fdfefe"
         offset="0"
         id="stop1709" />
      <stop
         stop-color="#dfe4e6"
         offset="1"
         id="stop1711" />
    </linearGradient>
    <filter
       id="i"
       x="-0.06"
       y="-0.06"
       width="1.12"
       height="1.12"
       color-interpolation-filters="sRGB">
      <feGaussianBlur
         stdDeviation="0.125"
         id="feGaussianBlur1717" />
    </filter>
    <filter
       id="h"
       x="-0.06"
       y="-0.06"
       width="1.12"
       height="1.12"
       color-interpolation-filters="sRGB">
      <feGaussianBlur
         stdDeviation="0.125"
         id="feGaussianBlur1720" />
    </filter>
    <linearGradient
       inkscape:collect="always"
       xlink:href="#linearGradient2095"
       id="linearGradient2097"
       x1="-73.140022"
       y1="14.24892"
       x2="-33.140022"
       y2="-5.75108"
       gradientUnits="userSpaceOnUse" />
    <linearGradient
       inkscape:collect="always"
       xlink:href="#linearGradient2095"
       id="linearGradient2223"
       gradientUnits="userSpaceOnUse"
       x1="-73.140022"
       y1="14.24892"
       x2="-33.140022"
       y2="-5.75108"
       gradientTransform="translate(6.7728795e-6)" />
  </defs>
  <rect
     style="fill:url(#linearGradient1553);fill-opacity:1;stroke-width:0.7"
     id="rect23"
     height="27.999985"
     rx="13.999992"
     y="2.0000014"
     x="2.0000017"
     width="27.999985"
     ry="13.999992" />
  <g
     id="layer2"
     style="display:inline;fill-opacity:1;fill:url(#linearGradient2097)"
     transform="matrix(0.7,0,0,0.7,53.19801,6.0257498)">
    <rect
       ry="20"
       width="40"
       x="-73.140015"
       y="-5.75108"
       rx="20"
       height="40"
       id="rect4212"
       style="opacity:0.0939302;fill:url(#linearGradient2223);fill-opacity:1" />
  </g>
  <path
     d="M 11,4 C 9.338,4 8,5.338 8,7 v 3 h 2 V 7 c 0,-0.55401 0.44598,-1 1,-1 h 10 c 0.55402,0 1,0.44599 1,1 v 3 h 2 V 7 C 24,5.338 22.662,4 21,4 Z"
     filter="url(#j)"
     opacity="0.25"
     id="path1737"
     transform="matrix(0.83116083,0,0,0.83116083,2.7014272,5.4444794)"
     style="stroke-width:0.1;stroke-linecap:square" />
  <path
     d="m 11.844196,8.7691164 c -1.381388,0 -2.4934858,1.112094 -2.4934858,2.4934796 v 2.493485 h 1.6623248 v -2.493485 c 0,-0.460474 0.370681,-0.83116 0.831161,-0.83116 h 8.311608 c 0.46048,0 0.831162,0.370686 0.831162,0.83116 v 2.493485 h 1.662323 v -2.493485 c 0,-1.3813856 -1.112095,-2.4934796 -2.493485,-2.4934796 z"
     id="path1739"
     style="fill:#ffffff;fill-opacity:1" />
  <path
     d="M 7.5,12 A 2.5,2.5 0 0 0 5,14.5 2.5,2.5 0 0 0 7.5,17 2.5,2.5 0 0 0 10,14.5 2.5,2.5 0 0 0 7.5,12 Z m 0,1 A 1.5,1.5 0 0 1 9,14.5 1.5,1.5 0 0 1 7.5,16 1.5,1.5 0 0 1 6,14.5 1.5,1.5 0 0 1 7.5,13 Z"
     filter="url(#i)"
     opacity="0.25"
     style="fill:#eceff4;fill-rule:evenodd;paint-order:normal"
     id="path1743"
     transform="matrix(0.83116083,0,0,0.83116083,2.7014272,5.4444794)" />
  <path
     d="m 8.9351332,15.418402 c -1.147596,-3e-6 -2.0779076,0.930307 -2.077907,2.077903 1.6e-6,1.147594 0.9303126,2.077902 2.077907,2.077899 1.1475928,0 2.0778998,-0.930307 2.0779018,-2.077899 10e-7,-1.147594 -0.930308,-2.077903 -2.0779018,-2.077903 z m 0,0.831161 2e-7,7e-6 v 0 0 z"
     id="path1745"
     style="fill:#ffffff;fill-opacity:1"
     sodipodi:nodetypes="sssssccccc" />
  <path
     d="M 24.5,12 A 2.5,2.5 0 0 0 22,14.5 2.5,2.5 0 0 0 24.5,17 2.5,2.5 0 0 0 27,14.5 2.5,2.5 0 0 0 24.5,12 Z m 0,1 A 1.5,1.5 0 0 1 26,14.5 1.5,1.5 0 0 1 24.5,16 1.5,1.5 0 0 1 23,14.5 1.5,1.5 0 0 1 24.5,13 Z"
     filter="url(#h)"
     opacity="0.25"
     style="fill:#eceff4;fill-rule:evenodd;paint-order:normal"
     id="path1747"
     transform="matrix(0.83116083,0,0,0.83116083,2.7014272,5.4444794)" />
  <path
     d="m 23.064873,15.418402 c -1.147596,-3e-6 -2.077908,0.930307 -2.077907,2.077903 2e-6,1.147594 0.930313,2.077902 2.077907,2.077899 1.147589,-4e-6 2.077892,-0.93031 2.077894,-2.077899 1e-6,-1.147591 -0.930303,-2.077899 -2.077894,-2.077903 z m 0,0.831161 -5e-6,7e-6 v 0 0 z"
     id="path1749"
     sodipodi:nodetypes="sssssccccc"
     style="fill:#ffffff;fill-opacity:1" />
</svg>
