<?xml version="1.0" encoding="UTF-8" standalone="no"?>
<svg
   width="64"
   version="1.1"
   height="64"
   id="svg15"
   sodipodi:docname="folder-database.svg"
   inkscape:version="1.3 (0e150ed6c4, 2023-07-21)"
   xmlns:inkscape="http://www.inkscape.org/namespaces/inkscape"
   xmlns:sodipodi="http://sodipodi.sourceforge.net/DTD/sodipodi-0.dtd"
   xmlns:xlink="http://www.w3.org/1999/xlink"
   xmlns="http://www.w3.org/2000/svg"
   xmlns:svg="http://www.w3.org/2000/svg"
   xmlns:rdf="http://www.w3.org/1999/02/22-rdf-syntax-ns#"
   xmlns:cc="http://creativecommons.org/ns#"
   xmlns:dc="http://purl.org/dc/elements/1.1/">
  <sodipodi:namedview
     pagecolor="#ffffff"
     bordercolor="#666666"
     borderopacity="1"
     objecttolerance="10"
     gridtolerance="10"
     guidetolerance="10"
     inkscape:pageopacity="0"
     inkscape:pageshadow="2"
     inkscape:window-width="1920"
     inkscape:window-height="993"
     id="namedview17"
     showgrid="true"
     inkscape:zoom="9.8125"
     inkscape:cx="31.949045"
     inkscape:cy="32"
     inkscape:window-x="0"
     inkscape:window-y="0"
     inkscape:window-maximized="1"
     inkscape:current-layer="layer1"
     inkscape:document-rotation="0"
     inkscape:pagecheckerboard="0"
     inkscape:showpageshadow="2"
     inkscape:deskcolor="#d1d1d1">
    <inkscape:grid
       type="xygrid"
       id="grid850"
       originx="0"
       originy="0"
       spacingy="1"
       spacingx="1"
       units="px"
       visible="true" />
  </sodipodi:namedview>
  <defs
     id="defs5455">
    <linearGradient
       inkscape:collect="always"
       xlink:href="#linearGradient3"
       id="linearGradient1493"
       gradientUnits="userSpaceOnUse"
       x1="30.564449"
       y1="1017.235"
       x2="8.6650352"
       y2="1002.36"
       gradientTransform="matrix(0.98463176,0,0,1.0000147,0.03074227,-0.01475258)" />
    <linearGradient
       inkscape:collect="always"
       xlink:href="#linearGradient3"
       id="linearGradient2"
       x1="2.0000021"
       y1="1025.9854"
       x2="62.001003"
       y2="1025.9854"
       gradientUnits="userSpaceOnUse" />
    <linearGradient
       inkscape:collect="always"
       id="linearGradient3">
      <stop
         style="stop-color:#ff5555;stop-opacity:1"
         offset="0"
         id="stop1" />
      <stop
         style="stop-color:#ffaaaa;stop-opacity:1"
         offset="1"
         id="stop2" />
    </linearGradient>
  </defs>
  <metadata
     id="metadata5458">
    <rdf:RDF>
      <cc:Work
         rdf:about="">
        <dc:format>image/svg+xml</dc:format>
        <dc:type
           rdf:resource="http://purl.org/dc/dcmitype/StillImage" />
      </cc:Work>
    </rdf:RDF>
  </metadata>
  <g
     inkscape:label="Capa 1"
     inkscape:groupmode="layer"
     id="layer1"
     transform="translate(-384.57143,-483.798)">
    <g
       transform="matrix(0.74351172,0,0,0.74285356,332.49565,-244.90835)"
       id="g4" />
    <g
       transform="matrix(1.0666489,0,0,1.1428404,382.43813,-653.7395)"
       id="g19">
      <rect
         width="60.000999"
         height="22.750345"
         x="2.0000021"
         y="1002.36"
         rx="7.5001268"
         ry="7.0001144"
         style="opacity:1;fill:url(#linearGradient1493);fill-opacity:1;stroke:none;stroke-width:0.992297"
         id="rect11" />
      <path
         d="m 9.5001275,1002.36 c -4.6875786,0 -7.5001312,3.7112 -7.5001254,6.7376 l 5e-7,0.2623 c -5e-7,-2.6248 2.9090002,-5 6.5220005,-5 H 55.479001 c 3.613001,0 6.522002,2.3813 6.522,5 v -0.2623 c 0,-2.9902 -2.812546,-6.7376 -7.500121,-6.7376 z"
         style="opacity:0.2;fill:#ffffff;fill-opacity:1;stroke:none;stroke-width:1"
         id="path13"
         sodipodi:nodetypes="sscsscsss" />
      <path
         d="M 8.5221093,1013.3214 H 18.957282 c 14.348239,-1.3346 11.861149,-6.5863 20.992301,-6.5863 h 15.361992 c 3.613049,0 6.689428,1.4161 6.689428,5.1146 v 26.3858 c 0,3.5001 -2.812548,6.1252 -6.562611,6.1252 H 8.5626114 c -3.7500625,0 -6.5626089,-2.6251 -6.5626093,-6.1252 l -1.8e-6,-19.2404 c -4e-7,-4.0049 2.609044,-5.6737 6.522109,-5.6737 z"
         style="opacity:1;fill:url(#linearGradient2);fill-opacity:1;stroke:none;stroke-width:1.00063"
         id="path15"
         sodipodi:nodetypes="scsssssssss" />
    </g>
    <path
       fill-rule="evenodd"
       clip-rule="evenodd"
       d="m 438.94647,525.04655 c -0.34477,0 -0.62534,-0.28014 -0.62534,-0.62502 0,-0.34549 0.28057,-0.62565 0.62534,-0.62565 0.34523,0 0.62504,0.28016 0.62504,0.62565 0,0.34488 -0.27981,0.62502 -0.62504,0.62502 z m 0.60189,-4.67409 c -0.01,0.0676 -0.0194,0.13363 -0.0329,0.19897 -0.008,0.0315 -0.0153,0.062 -0.0242,0.0924 -0.0138,0.0542 -0.0289,0.10928 -0.0459,0.16237 -0.009,0.0236 -0.0164,0.0467 -0.0255,0.0697 -0.023,0.0612 -0.0461,0.12147 -0.0714,0.17948 -0.009,0.0154 -0.0151,0.0313 -0.0231,0.0474 -0.0297,0.0605 -0.0605,0.11963 -0.0931,0.17697 -0.0111,0.018 -0.0216,0.0361 -0.0322,0.0542 -0.0364,0.0591 -0.0751,0.11784 -0.11661,0.17341 -0.008,0.01 -0.012,0.0166 -0.0191,0.0252 -0.0481,0.064 -0.0989,0.12448 -0.15332,0.1837 -0.002,0.002 -0.005,0.004 -0.007,0.008 -0.0576,0.0627 -0.11833,0.12274 -0.1828,0.17881 -0.44008,0.38758 -1.01683,0.62499 -1.65008,0.62499 v 0.0311 c -0.10131,-0.0202 -0.20513,-0.0311 -0.31259,-0.0311 h -14.37472 c -0.86313,0 -1.56321,0.69944 -1.56321,1.56252 v 1.87442 c 0,0.86301 0.70008,1.56245 1.56321,1.56245 h 14.37469 c 0.73714,0 1.36666,-0.58647 1.71819,-1.03444 l 0.002,5.5e-4 c 0.1148,-0.13123 0.28017,-0.21549 0.46814,-0.21549 0.34524,0 0.62509,0.27949 0.62509,0.625 0,0.64814 -1.11915,1.875 -2.5,1.875 h -15.0009 c -1.38067,0 -2.49967,-1.11935 -2.49967,-2.5 v -2.5007 c 0,-1.38055 1.119,-2.49939 2.49967,-2.49939 h 0.93732 13.75045 c 0.86311,0 1.56221,-0.6994 1.56221,-1.5625 v -1.87509 c 0,-0.86316 -0.6991,-1.5626 -1.56221,-1.5626 h -13.75045 -0.93732 c -1.38067,0 -2.49967,-1.11963 -2.49967,-2.49967 v -2.50045 c 0,-1.38082 1.119,-2.49967 2.49967,-2.49967 h 15.00033 c 1.381,0 2.5,1.11885 2.5,2.49967 v 1.87533 c 0,0.34451 -0.27981,0.62505 -0.625,0.62505 -0.34481,0 -0.62535,-0.28054 -0.62535,-0.62505 v -1.56238 c 0,-0.86312 -0.6991,-1.56315 -1.56221,-1.56315 h -14.37477 c -0.86314,0 -1.5632,0.70003 -1.5632,1.56315 v 1.87467 c 0,0.86313 0.70006,1.5622 1.5632,1.5622 h 14.37475 c 0.10752,0 0.21122,-0.0106 0.31256,-0.0311 v 0.0311 c 0.63319,0 1.21005,0.23751 1.65009,0.6254 0.0647,0.0557 0.12486,0.11648 0.18288,0.17873 0.003,0.003 0.005,0.005 0.007,0.008 0.0542,0.0587 0.10553,0.11993 0.15321,0.18374 0.008,0.01 0.012,0.0166 0.0191,0.0253 0.0415,0.0554 0.0796,0.11414 0.1166,0.17304 0.0106,0.0176 0.0223,0.0359 0.0322,0.0542 0.0326,0.0572 0.0644,0.11655 0.0931,0.17701 0.009,0.0152 0.0148,0.0308 0.023,0.0474 0.0265,0.0579 0.0498,0.11867 0.0718,0.17973 0.01,0.0235 0.0176,0.0467 0.0255,0.0696 0.0169,0.0527 0.0311,0.10805 0.0459,0.16233 0.01,0.0308 0.0169,0.0612 0.0242,0.0924 0.0135,0.0652 0.0252,0.13213 0.0329,0.19897 0.003,0.0184 0.007,0.0352 0.01,0.0547 0.01,0.0891 0.0149,0.17979 0.0149,0.27129 v 2.49986 c 0,0.091 -0.007,0.18187 -0.0149,0.27102 -0.002,0.0187 -0.007,0.0362 -0.009,0.0547 z m -19.35176,-2.8258 c 0.34472,0 0.62438,0.27952 0.62438,0.62499 v 1.24921 c 0,0.3455 -0.27966,0.62566 -0.62438,0.62566 -0.34546,0 -0.62509,-0.28016 -0.62509,-0.62566 v -1.24921 c 0,-0.34547 0.27963,-0.62499 0.62509,-0.62499 z"
       id="path2"
       style="fill:#ffe5e5;fill-opacity:1;stroke-width:0.039063" />
  </g>
</svg>
