<?xml version="1.0" encoding="UTF-8" standalone="no"?>
<svg
   width="64"
   version="1.1"
   height="64"
   id="svg15"
   sodipodi:docname="folder-notes.svg"
   inkscape:version="1.3 (0e150ed6c4, 2023-07-21)"
   xmlns:inkscape="http://www.inkscape.org/namespaces/inkscape"
   xmlns:sodipodi="http://sodipodi.sourceforge.net/DTD/sodipodi-0.dtd"
   xmlns:xlink="http://www.w3.org/1999/xlink"
   xmlns="http://www.w3.org/2000/svg"
   xmlns:svg="http://www.w3.org/2000/svg"
   xmlns:rdf="http://www.w3.org/1999/02/22-rdf-syntax-ns#"
   xmlns:cc="http://creativecommons.org/ns#"
   xmlns:dc="http://purl.org/dc/elements/1.1/">
  <sodipodi:namedview
     pagecolor="#ffffff"
     bordercolor="#666666"
     borderopacity="1"
     objecttolerance="10"
     gridtolerance="10"
     guidetolerance="10"
     inkscape:pageopacity="0"
     inkscape:pageshadow="2"
     inkscape:window-width="1920"
     inkscape:window-height="993"
     id="namedview17"
     showgrid="true"
     inkscape:zoom="9.8125"
     inkscape:cx="31.949045"
     inkscape:cy="32"
     inkscape:window-x="0"
     inkscape:window-y="0"
     inkscape:window-maximized="1"
     inkscape:current-layer="layer1"
     inkscape:document-rotation="0"
     inkscape:pagecheckerboard="0"
     inkscape:showpageshadow="2"
     inkscape:deskcolor="#d1d1d1">
    <inkscape:grid
       type="xygrid"
       id="grid850"
       originx="0"
       originy="0"
       spacingy="1"
       spacingx="1"
       units="px"
       visible="true" />
  </sodipodi:namedview>
  <defs
     id="defs5455">
    <linearGradient
       inkscape:collect="always"
       xlink:href="#linearGradient3"
       id="linearGradient1493"
       gradientUnits="userSpaceOnUse"
       x1="30.564449"
       y1="1017.235"
       x2="8.6650352"
       y2="1002.36"
       gradientTransform="matrix(0.98463176,0,0,1.0000147,0.03074227,-0.01475258)" />
    <linearGradient
       inkscape:collect="always"
       xlink:href="#linearGradient3"
       id="linearGradient2"
       x1="2.0000021"
       y1="1025.9854"
       x2="62.001003"
       y2="1025.9854"
       gradientUnits="userSpaceOnUse" />
    <linearGradient
       inkscape:collect="always"
       id="linearGradient3">
      <stop
         style="stop-color:#00aa88;stop-opacity:1"
         offset="0"
         id="stop1" />
      <stop
         style="stop-color:#00ffcc;stop-opacity:1"
         offset="1"
         id="stop2" />
    </linearGradient>
  </defs>
  <metadata
     id="metadata5458">
    <rdf:RDF>
      <cc:Work
         rdf:about="">
        <dc:format>image/svg+xml</dc:format>
        <dc:type
           rdf:resource="http://purl.org/dc/dcmitype/StillImage" />
      </cc:Work>
    </rdf:RDF>
  </metadata>
  <g
     inkscape:label="Capa 1"
     inkscape:groupmode="layer"
     id="layer1"
     transform="translate(-384.57143,-483.798)">
    <g
       transform="matrix(1.0666489,0,0,1.1428404,382.43813,-653.7395)"
       id="g19">
      <rect
         width="60.000999"
         height="22.750345"
         x="2.0000021"
         y="1002.36"
         rx="7.5001268"
         ry="7.0001144"
         style="opacity:1;fill:url(#linearGradient1493);fill-opacity:1;stroke:none;stroke-width:0.992297"
         id="rect11" />
      <path
         d="m 9.5001275,1002.36 c -4.6875786,0 -7.5001312,3.7112 -7.5001254,6.7376 l 5e-7,0.2623 c -5e-7,-2.6248 2.9090002,-5 6.5220005,-5 H 55.479001 c 3.613001,0 6.522002,2.3813 6.522,5 v -0.2623 c 0,-2.9902 -2.812546,-6.7376 -7.500121,-6.7376 z"
         style="opacity:0.2;fill:#ffffff;fill-opacity:1;stroke:none;stroke-width:1"
         id="path13"
         sodipodi:nodetypes="sscsscsss" />
      <path
         d="M 8.5221093,1013.3214 H 18.957282 c 14.348239,-1.3346 11.861149,-6.5863 20.992301,-6.5863 h 15.361992 c 3.613049,0 6.689428,1.4161 6.689428,5.1146 v 26.3858 c 0,3.5001 -2.812548,6.1252 -6.562611,6.1252 H 8.5626114 c -3.7500625,0 -6.5626089,-2.6251 -6.5626093,-6.1252 l -1.8e-6,-19.2404 c -4e-7,-4.0049 2.609044,-5.6737 6.522109,-5.6737 z"
         style="opacity:1;fill:url(#linearGradient2);fill-opacity:1;stroke:none;stroke-width:1.00063"
         id="path15"
         sodipodi:nodetypes="scsssssssss" />
    </g>
    <path
       fill-rule="evenodd"
       clip-rule="evenodd"
       d="m 429.88732,514.11118 c 0,-0.3455 0.27985,-0.62507 0.62534,-0.62507 0.34515,0 0.62498,0.27957 0.62498,0.62507 0,0.34449 -0.27983,0.62434 -0.62498,0.62434 -0.34549,0 -0.62534,-0.27985 -0.62534,-0.62434 z m 8.96705,0.0493 -0.26344,0.26308 c -0.003,0.003 -0.005,0.003 -0.009,0.006 -0.47969,0.48004 -1.25151,0.48526 -1.74132,0.0216 l -1.61072,-1.6117 c -0.24379,-0.2438 -0.24379,-0.63963 0,-0.88344 0.24384,-0.24382 0.63969,-0.24382 0.88353,0 l 1.36107,1.36016 c 8.5e-4,0.002 0.002,0 0.004,0.002 0.12176,0.12174 0.31957,0.12174 0.44135,0 0.005,-0.005 0.009,-8e-4 0.0108,-0.003 l 0.0374,-0.0374 c 0.48857,-0.48797 0.48857,-1.27927 0,-1.7679 l -1.10438,-1.10445 c -0.48855,-0.48858 -1.27993,-0.48858 -1.76789,0 l -2.14437,2.14443 h -1.76854 -5.35924 -3.43783 c -0.86305,0 -1.56243,0.70007 -1.56243,1.56318 v 11.8746 c 0,0.86308 0.69938,1.56252 1.56243,1.56252 h 11.87469 c 0.86335,0 1.56249,-0.69944 1.56249,-1.56252 v -8.03752 c 0,-0.17212 -0.13971,-0.31221 -0.3122,-0.31221 -0.086,0 -0.16445,0.0347 -0.22057,0.0913 -0.002,8.6e-4 -8.3e-4,-0.005 -0.003,-0.004 l -3.47288,3.4723 c -0.37626,0.37659 -0.84291,0.60455 -1.33023,0.6906 -0.0918,0.0223 -0.18774,0.0352 -0.28626,0.0352 h -0.0886 c -0.0414,8e-4 -0.0841,8e-4 -0.12479,0 h -2.28759 c -0.69,0 -1.24931,-0.55942 -1.24931,-1.24942 v -2.28756 c -6.9e-4,-0.0415 -6.9e-4,-0.0841 0,-0.12452 v -0.0885 c 0,-0.0989 0.0138,-0.19437 0.0352,-0.28653 0.0864,-0.48716 0.31438,-0.95468 0.69099,-1.33092 l 1.3275,-1.32781 0.004,0.004 c 0.1127,-0.11354 0.26981,-0.18312 0.44223,-0.18312 0.34548,0 0.62499,0.27981 0.62499,0.6253 0,0.18951 -0.0868,0.35797 -0.22003,0.4724 l -1.29394,1.29393 c -0.2725,0.27193 -0.38695,0.6372 -0.35582,0.99307 -6e-4,0.0176 -0.007,0.0346 -0.007,0.0527 v 0.93721 c -2e-5,0.68994 0.56019,1.25028 1.25019,1.25028 h 0.93729 c 0.0176,0 0.0345,-0.005 0.0527,-0.006 0.35615,0.0312 0.7212,-0.0841 0.99312,-0.35615 l 4.01361,-4.01365 c 0.22548,-0.22151 0.53555,-0.31286 0.87766,-0.31286 0.69071,0 1.25035,0.55946 1.25035,1.25 v 9.0622 c 0,1.381 -1.11899,2.50064 -2.49963,2.50064 h -12.49917 c -1.381,0 -2.50035,-1.11964 -2.50035,-2.50064 v -12.49973 c 0,-1.38079 1.11935,-2.49963 2.50035,-2.49963 h 10.35879 l 1.77927,-1.77913 c 0.48808,-0.48832 1.1279,-0.72087 1.76772,-0.72087 0.63981,0 1.27967,0.23255 1.768,0.72087 l 1.10496,1.10496 c 0.48883,0.48884 0.72157,1.13775 0.72087,1.77854 -7e-4,0.63887 -0.23333,1.2696 -0.72087,1.75721 z"
       id="path2"
       style="fill:#d5fff6;fill-opacity:1;stroke-width:0.0390629" />
  </g>
</svg>
