<?xml version="1.0" encoding="UTF-8" standalone="no"?>
<svg
   width="32"
   height="32"
   version="1.1"
   id="svg34"
   sodipodi:docname="gtk-dialog-authentication.svg"
   inkscape:version="1.2.1 (9c6d41e410, 2022-07-14)"
   xmlns:inkscape="http://www.inkscape.org/namespaces/inkscape"
   xmlns:sodipodi="http://sodipodi.sourceforge.net/DTD/sodipodi-0.dtd"
   xmlns:xlink="http://www.w3.org/1999/xlink"
   xmlns="http://www.w3.org/2000/svg"
   xmlns:svg="http://www.w3.org/2000/svg">
  <sodipodi:namedview
     id="namedview36"
     pagecolor="#ffffff"
     bordercolor="#666666"
     borderopacity="1.0"
     inkscape:showpageshadow="2"
     inkscape:pageopacity="0.0"
     inkscape:pagecheckerboard="0"
     inkscape:deskcolor="#d1d1d1"
     showgrid="false"
     inkscape:zoom="7.375"
     inkscape:cx="16.271186"
     inkscape:cy="16.338983"
     inkscape:window-width="1920"
     inkscape:window-height="1000"
     inkscape:window-x="0"
     inkscape:window-y="0"
     inkscape:window-maximized="1"
     inkscape:current-layer="svg34" />
  <defs
     id="defs20">
    <linearGradient
       inkscape:collect="always"
       id="linearGradient893">
      <stop
         style="stop-color:#008080;stop-opacity:1"
         offset="0"
         id="stop889" />
      <stop
         style="stop-color:#aa87de;stop-opacity:1"
         offset="1"
         id="stop891" />
    </linearGradient>
    <linearGradient
       id="c"
       x1="16"
       x2="16"
       y1="1"
       y2="31"
       gradientUnits="userSpaceOnUse">
      <stop
         stop-color="#d4d4d4"
         offset="0"
         id="stop2" />
      <stop
         stop-color="#f1f1f1"
         offset="1"
         id="stop4" />
    </linearGradient>
    <linearGradient
       id="b"
       x1="16"
       x2="16"
       y1="5"
       y2="27"
       gradientUnits="userSpaceOnUse">
      <stop
         stop-color="#b3b3b3"
         offset="0"
         id="stop7" />
      <stop
         stop-color="#d3d3d3"
         offset="1"
         id="stop9" />
    </linearGradient>
    <radialGradient
       id="a"
       cx="16.25"
       cy="16.5"
       r="2.75"
       gradientTransform="matrix(1 0 0 2 0 -16.5)"
       gradientUnits="userSpaceOnUse">
      <stop
         stop-color="#4d4d4d"
         offset="0"
         id="stop12" />
      <stop
         stop-color="#262626"
         offset="1"
         id="stop14" />
    </radialGradient>
    <filter
       id="d"
       x="-0.036000001"
       y="-0.036000001"
       width="1.072"
       height="1.072"
       color-interpolation-filters="sRGB">
      <feGaussianBlur
         stdDeviation="0.45000001"
         id="feGaussianBlur17" />
    </filter>
    <linearGradient
       inkscape:collect="always"
       xlink:href="#linearGradient893"
       id="linearGradient895"
       x1="1"
       y1="31"
       x2="31"
       y2="1"
       gradientUnits="userSpaceOnUse" />
    <linearGradient
       inkscape:collect="always"
       xlink:href="#linearGradient893"
       id="linearGradient932"
       x1="19.000021"
       y1="11"
       x2="13.5"
       y2="22"
       gradientUnits="userSpaceOnUse" />
  </defs>
  <g
     id="g30">
    <path
       d="m16 1c-8.2843 0-15 6.7157-15 15 0 8.2843 6.7157 15 15 15 8.2843 0 15-6.7157 15-15 0-8.2843-6.7157-15-15-15z"
       filter="url(#d)"
       opacity=".25"
       id="path22" />
    <path
       d="m16 1c-8.2843 0-15 6.7157-15 15 0 8.2843 6.7157 15 15 15 8.2843 0 15-6.7157 15-15 0-8.2843-6.7157-15-15-15z"
       id="path24"
       style="fill:url(#linearGradient895);fill-opacity:1" />
    <path
       d="M16 27C9.925 27 5 22.075 5 16S9.925 5 16 5s11 4.925 11 11-4.925 11-11 11z"
       id="path26"
       style="fill:#cccccc;fill-opacity:1" />
    <path
       d="M16.25 11a2.75 2.75 0 0 0-2.75 2.75c0 1.14.683 2.112 1.67 2.53L13.5 22H19l-1.67-5.72A2.735 2.735 0 0 0 19 13.75 2.75 2.75 0 0 0 16.25 11z"
       overflow="visible"
       stroke-width="1.091"
       id="path28"
       style="fill:url(#linearGradient932);fill-opacity:1" />
  </g>
  <path
     d="M16 10.695a2.83 2.83 0 0 0-2.83 2.83c0 1.172.703 2.172 1.72 2.601l-1.72 5.886h5.66l-1.718-5.886a2.814 2.814 0 0 0 1.717-2.602A2.83 2.83 0 0 0 16 10.695z"
     fill="none"
     overflow="visible"
     stroke-width="1.06"
     id="path32" />
</svg>
