<?xml version="1.0" encoding="UTF-8" standalone="no"?>
<svg
   viewBox="0 0 16 16"
   version="1.1"
   id="svg6"
   sodipodi:docname="folder-Arch.svg"
   inkscape:version="1.2.1 (9c6d41e410, 2022-07-14)"
   xmlns:inkscape="http://www.inkscape.org/namespaces/inkscape"
   xmlns:sodipodi="http://sodipodi.sourceforge.net/DTD/sodipodi-0.dtd"
   xmlns="http://www.w3.org/2000/svg"
   xmlns:svg="http://www.w3.org/2000/svg"
   xmlns:rdf="http://www.w3.org/1999/02/22-rdf-syntax-ns#"
   xmlns:cc="http://creativecommons.org/ns#"
   xmlns:dc="http://purl.org/dc/elements/1.1/">
  <metadata
     id="metadata10">
    <rdf:RDF>
      <cc:Work
         rdf:about="">
        <dc:format>image/svg+xml</dc:format>
        <dc:type
           rdf:resource="http://purl.org/dc/dcmitype/StillImage" />
      </cc:Work>
    </rdf:RDF>
  </metadata>
  <sodipodi:namedview
     pagecolor="#ffffff"
     bordercolor="#666666"
     borderopacity="1"
     objecttolerance="10"
     gridtolerance="10"
     guidetolerance="10"
     inkscape:pageopacity="0"
     inkscape:pageshadow="2"
     inkscape:window-width="1920"
     inkscape:window-height="1002"
     id="namedview8"
     showgrid="true"
     inkscape:zoom="19.625"
     inkscape:cx="-3.8471338"
     inkscape:cy="6.2929936"
     inkscape:window-x="0"
     inkscape:window-y="0"
     inkscape:window-maximized="1"
     inkscape:current-layer="svg6"
     inkscape:pagecheckerboard="0"
     inkscape:showpageshadow="2"
     inkscape:deskcolor="#d1d1d1">
    <inkscape:grid
       type="xygrid"
       id="grid863" />
  </sodipodi:namedview>
  <defs
     id="defs3051">
    <style
       type="text/css"
       id="current-color-scheme">.ColorScheme-Text { color:#eff0f1; }
</style>
  </defs>
  <path
     d="M 7.912053,2.2186219 C 7.377956,3.5280689 7.05584,4.3846434 6.461155,5.655172 6.82575,6.0416377 7.273251,6.4916731 8,7 7.218664,6.6784832 6.685642,6.3556812 6.287357,6.0207486 5.52631,7.6087649 4.333981,9.8708198 1.914445,14.218243 c 1.90175,-1.097885 3.375898,-1.77474 4.749752,-2.033019 -0.05899,-0.25373 -0.09254,-0.528198 -0.09026,-0.814551 l 0.0023,-0.06092 c 0.03017,-1.218396 0.663981,-2.155335 1.414796,-2.091722 0.750793,0.063616 1.334358,1.103445 1.304176,2.321841 -0.0057,0.22926 -0.03153,0.449812 -0.07672,0.654363 1.35898,0.265832 2.817387,0.940982 4.693359,2.023993 -0.369947,-0.681029 -0.700122,-1.294934 -1.015393,-1.879583 -0.496658,-0.384942 -1.014704,-0.885961 -2.071432,-1.428297 0.726316,0.188731 1.24634,0.406466 1.651702,0.64985 C 9.270943,5.5915408 9.011292,4.7984353 7.911963,2.2182429 Z"
     id="path2-5-2"
     style="fill:currentColor;fill-opacity:1;stroke-width:0.0722055"
     class="ColorScheme-Text" />
</svg>
