<?xml version="1.0" encoding="UTF-8" standalone="no"?>
<svg
   width="48"
   version="1.1"
   height="48"
   id="svg57"
   sodipodi:docname="applications-multimedia.svg"
   inkscape:version="1.2.1 (9c6d41e410, 2022-07-14)"
   xmlns:inkscape="http://www.inkscape.org/namespaces/inkscape"
   xmlns:sodipodi="http://sodipodi.sourceforge.net/DTD/sodipodi-0.dtd"
   xmlns:xlink="http://www.w3.org/1999/xlink"
   xmlns="http://www.w3.org/2000/svg"
   xmlns:svg="http://www.w3.org/2000/svg">
  <sodipodi:namedview
     id="namedview59"
     pagecolor="#ffffff"
     bordercolor="#666666"
     borderopacity="1.0"
     inkscape:showpageshadow="2"
     inkscape:pageopacity="0.0"
     inkscape:pagecheckerboard="0"
     inkscape:deskcolor="#d1d1d1"
     showgrid="false"
     inkscape:zoom="6.9532167"
     inkscape:cx="27.756937"
     inkscape:cy="22.867114"
     inkscape:window-width="1920"
     inkscape:window-height="1009"
     inkscape:window-x="0"
     inkscape:window-y="0"
     inkscape:window-maximized="1"
     inkscape:current-layer="svg57">
    <inkscape:grid
       type="xygrid"
       id="grid1672" />
  </sodipodi:namedview>
  <defs
     id="defs27">
    <linearGradient
       id="linearGradient4213">
      <stop
         style="stop-color:#ee6406"
         id="stop2" />
      <stop
         offset="1"
         style="stop-color:#ffce0d"
         id="stop4" />
    </linearGradient>
    <linearGradient
       id="linearGradient4391">
      <stop
         stop-color="#21c9fb"
         id="stop7" />
      <stop
         offset="1"
         stop-color="#197cf1"
         id="stop9" />
    </linearGradient>
    <linearGradient
       id="linearGradient4159">
      <stop
         style="stop-color:#2a2c2f"
         id="stop12" />
      <stop
         offset="1"
         style="stop-color:#424649"
         id="stop14" />
    </linearGradient>
    <linearGradient
       xlink:href="#linearGradient4159"
       id="linearGradient4250"
       y1="536.798"
       y2="503.798"
       x2="0"
       gradientUnits="userSpaceOnUse"
       gradientTransform="translate(-466.62689,-528.78761)" />
    <linearGradient
       xlink:href="#linearGradient4303"
       id="linearGradient4272"
       y1="547.798"
       y2="536.798"
       x2="0"
       gradientUnits="userSpaceOnUse"
       gradientTransform="matrix(1,0,0,0.54545455,-466.62689,-284.78852)" />
    <linearGradient
       id="linearGradient4303">
      <stop
         style="stop-color:#c6cdd1"
         id="stop19" />
      <stop
         offset="1"
         style="stop-color:#e0e5e7"
         id="stop21" />
    </linearGradient>
    <linearGradient
       xlink:href="#linearGradient4391"
       id="linearGradient4397"
       y1="535.798"
       y2="505.798"
       x2="0"
       gradientUnits="userSpaceOnUse"
       gradientTransform="translate(-466.62689,-528.78761)" />
    <linearGradient
       xlink:href="#linearGradient4213"
       id="linearGradient4219"
       y1="21"
       x1="33"
       y2="12"
       x2="24"
       gradientUnits="userSpaceOnUse"
       gradientTransform="translate(-82.05546,-28.98961)" />
    <linearGradient
       xlink:href="#linearGradient4213"
       id="linearGradient4234"
       x1="428.571"
       x2="388.571"
       gradientUnits="userSpaceOnUse"
       gradientTransform="matrix(0.46842108,0,0,1,-123.45583,-524.298)" />
    <linearGradient
       id="a"
       gradientUnits="userSpaceOnUse"
       x1="-20"
       x2="-20"
       xlink:href="#b"
       y1="44"
       y2="4"
       gradientTransform="matrix(1.0499999,0,0,1.0499999,-1.200002,-1.1999953)" />
    <linearGradient
       id="b"
       gradientUnits="userSpaceOnUse"
       x2="0"
       y1="543.79999"
       y2="503.79999">
      <stop
         offset="0"
         stop-color="#197cf1"
         id="stop3" />
      <stop
         offset="1"
         stop-color="#20bcfa"
         id="stop5" />
    </linearGradient>
    <linearGradient
       id="c"
       gradientUnits="userSpaceOnUse"
       x1="19"
       x2="44"
       y1="19"
       y2="44"
       gradientTransform="matrix(1.0499999,0,0,1.0499999,-1.200002,-1.1999953)">
      <stop
         offset="0"
         stop-color="#292c2f"
         id="stop8" />
      <stop
         offset="1"
         stop-color="#292c2f"
         stop-opacity="0"
         id="stop10" />
    </linearGradient>
    <linearGradient
       inkscape:collect="always"
       xlink:href="#linearGradient4213"
       id="linearGradient1666"
       gradientUnits="userSpaceOnUse"
       gradientTransform="matrix(1.8357149,0,0,1.8357149,-20.207147,-14.700004)"
       x1="33"
       y1="21"
       x2="24"
       y2="12" />
    <linearGradient
       xlink:href="#linearGradient4213"
       id="linearGradient4234-9"
       x1="428.57101"
       x2="388.57101"
       gradientUnits="userSpaceOnUse"
       gradientTransform="matrix(0.59473708,0,0,1,-219.26456,-494.298)" />
  </defs>
  <circle
     cx="23.999998"
     cy="23.99999"
     fill="url(#a)"
     r="20.99999"
     id="circle13"
     style="fill:url(#a);stroke-width:1.05" />
  <path
     d="M 3.0126,23.475005 C 3.0084,23.650348 3,23.823605 3,24.000005 c 0,11.634 9.366001,21 21.000005,21 11.634,0 21,-9.366 21,-21 0,-0.1764 -0.008,-0.349657 -0.0126,-0.525 -0.2772,11.389357 -9.534,20.475 -20.9874,20.475 -11.457605,0 -20.710205,-9.085643 -20.987405,-20.475"
     fill="#0c69cf"
     stroke-opacity="0.55"
     stroke-width="2.94"
     id="path15" />
  <path
     d="M 23.85,11 C 16.731107,11 11,16.731107 11,23.85 11,30.968893 16.731107,36.7 23.85,36.7 30.968893,36.7 36.7,30.968893 36.7,23.85 36.7,16.731107 30.968893,11 23.85,11 Z m 0,1.835731 c 6.101903,0 11.014269,4.912366 11.014269,11.014269 0,6.101903 -4.912366,11.014269 -11.014269,11.014269 -6.101903,0 -11.014269,-4.912366 -11.014269,-11.014269 0,-6.101903 4.912366,-11.014269 11.014269,-11.014269 z"
     id="path41-7-1"
     style="fill:#ffffff;fill-opacity:0.72305983" />
  <rect
     width="13.679"
     x="17.158001"
     y="17.164"
     rx="6.8395"
     height="13.679"
     style="opacity:0.8;stroke-width:0.27358"
     id="rect43-5-2" />
  <path
     style="opacity:0.85;fill:url(#linearGradient1666);stroke-width:0.183571"
     d="m 23.85,11 v 1.835731 c 6.101903,0 11.014269,4.912366 11.014269,11.014269 H 36.7 C 36.7,16.731107 30.968893,11 23.85,11 Z"
     id="path47-3-7" />
  <path
     style="fill:#ffffff;fill-rule:evenodd;stroke-width:2.7358"
     d="m 28.105087,23.998127 -6.839525,-4.103683 v 8.207417 z"
     id="path49-5-0" />
  <path
     style="fill:url(#linearGradient4234-9);stroke-width:0.0771193"
     d="M 12.725377,39 C 12.560633,39 12.428,39.223 12.428,39.5 c 0,0.277 0.132633,0.5 0.297377,0.5 H 27.29644 v -1 z"
     id="path45-0" />
  <path
     d="m 27.29644,39 v 1 h 7.434183 C 34.895367,40 35.028,39.777 35.028,39.5 35.028,39.223 34.895367,39 34.730623,39 Z"
     id="path51-6"
     style="fill:#dbdbdb;fill-opacity:1" />
  <rect
     width="1.1894742"
     x="26.700857"
     y="38.501987"
     rx="0.59473711"
     height="2"
     style="fill:#ffffff;stroke-width:0.0771193"
     id="rect53-2" />
</svg>
