<?xml version="1.0" encoding="UTF-8" standalone="no"?>
<!-- Created with Inkscape (http://www.inkscape.org/) -->

<svg
   width="32"
   height="32"
   id="svg5453"
   version="1.1"
   inkscape:version="1.2.1 (9c6d41e410, 2022-07-14)"
   sodipodi:docname="applications-education-mathematics.svg"
   xmlns:inkscape="http://www.inkscape.org/namespaces/inkscape"
   xmlns:sodipodi="http://sodipodi.sourceforge.net/DTD/sodipodi-0.dtd"
   xmlns:xlink="http://www.w3.org/1999/xlink"
   xmlns="http://www.w3.org/2000/svg"
   xmlns:svg="http://www.w3.org/2000/svg"
   xmlns:rdf="http://www.w3.org/1999/02/22-rdf-syntax-ns#"
   xmlns:cc="http://creativecommons.org/ns#"
   xmlns:dc="http://purl.org/dc/elements/1.1/">
  <defs
     id="defs5455">
    <linearGradient
       gradientUnits="userSpaceOnUse"
       y2="503.798"
       x2="384.57144"
       y1="543.79797"
       x1="434.57144"
       id="linearGradient4586"
       xlink:href="#linearGradient4273"
       inkscape:collect="always"
       gradientTransform="translate(-1.1547241e-5,-1.6784668e-7)" />
    <linearGradient
       inkscape:collect="always"
       id="linearGradient4273">
      <stop
         style="stop-color:#343b40;stop-opacity:1"
         offset="0"
         id="stop4275" />
      <stop
         style="stop-color:#555e63;stop-opacity:1"
         offset="1"
         id="stop4277" />
    </linearGradient>
    <linearGradient
       inkscape:collect="always"
       xlink:href="#linearGradient1551"
       id="linearGradient1553"
       x1="3.000001"
       y1="44.999977"
       x2="44.999977"
       y2="3.000001"
       gradientUnits="userSpaceOnUse"
       gradientTransform="translate(348.57143,500.798)" />
    <linearGradient
       inkscape:collect="always"
       id="linearGradient1551">
      <stop
         style="stop-color:#00b7b7;stop-opacity:1;"
         offset="0"
         id="stop1547" />
      <stop
         style="stop-color:#ab89de;stop-opacity:1;"
         offset="1"
         id="stop1549" />
    </linearGradient>
    <linearGradient
       xlink:href="#linearGradient4298"
       id="linearGradient4304"
       x1="26.929001"
       y1="5.9949999"
       x2="47.120998"
       y2="37.126999"
       gradientUnits="userSpaceOnUse"
       gradientTransform="matrix(1.0500006,0,0,1.0500006,347.37143,499.598)" />
    <linearGradient
       id="linearGradient4298">
      <stop
         style="stop-color:#000000;stop-opacity:1;"
         offset="0"
         id="stop4300" />
      <stop
         style="stop-color:#000000;stop-opacity:0;"
         offset="1"
         id="stop4302" />
    </linearGradient>
    <linearGradient
       xlink:href="#linearGradient4214"
       id="linearGradient4220"
       x1="1"
       y1="0"
       x2="38.882576"
       y2="46.857143"
       gradientUnits="userSpaceOnUse"
       gradientTransform="translate(-77.14001,-9.7510711)" />
    <linearGradient
       id="linearGradient4214">
      <stop
         style="stop-color:#c6afe9;stop-opacity:1"
         offset="0"
         id="stop4216" />
      <stop
         style="stop-color:#008080;stop-opacity:1"
         offset="1"
         id="stop4218" />
    </linearGradient>
  </defs>
  <sodipodi:namedview
     id="base"
     pagecolor="#ffffff"
     bordercolor="#666666"
     borderopacity="1.0"
     inkscape:pageopacity="0"
     inkscape:pageshadow="2"
     inkscape:zoom="7.9999995"
     inkscape:cx="16.875001"
     inkscape:cy="27.312502"
     inkscape:document-units="px"
     inkscape:current-layer="g3068"
     showgrid="false"
     fit-margin-top="0"
     fit-margin-left="0"
     fit-margin-right="0"
     fit-margin-bottom="0"
     inkscape:window-width="1920"
     inkscape:window-height="1009"
     inkscape:window-x="0"
     inkscape:window-y="0"
     inkscape:window-maximized="1"
     inkscape:showpageshadow="false"
     borderlayer="true"
     showguides="false"
     inkscape:snap-bbox="true"
     inkscape:pagecheckerboard="0"
     inkscape:deskcolor="#d1d1d1">
    <inkscape:grid
       type="xygrid"
       id="grid4063" />
    <sodipodi:guide
       position="4.2167969e-05,32.000026"
       orientation="32,0"
       id="guide4625"
       inkscape:locked="false" />
    <sodipodi:guide
       position="4.2167969e-05,2.6367188e-05"
       orientation="0,31.999969"
       id="guide4627"
       inkscape:locked="false" />
    <sodipodi:guide
       position="32.000012,2.6367188e-05"
       orientation="-32,0"
       id="guide4629"
       inkscape:locked="false" />
    <sodipodi:guide
       position="32.000012,32.000026"
       orientation="0,-31.999969"
       id="guide4631"
       inkscape:locked="false" />
    <sodipodi:guide
       position="2.0000422,30.000026"
       orientation="28,0"
       id="guide4633"
       inkscape:locked="false" />
    <sodipodi:guide
       position="2.0000422,2.0000264"
       orientation="0,27.999969"
       id="guide4635"
       inkscape:locked="false" />
    <sodipodi:guide
       position="30,17"
       orientation="-28,0"
       id="guide4637"
       inkscape:locked="false" />
    <sodipodi:guide
       position="30.000012,30.000026"
       orientation="0,-27.999969"
       id="guide4639"
       inkscape:locked="false" />
    <sodipodi:guide
       position="9.0000117,24.000271"
       orientation="14,0"
       id="guide4429"
       inkscape:locked="false" />
    <sodipodi:guide
       position="9.0000117,10.000271"
       orientation="0,14.000031"
       id="guide4431"
       inkscape:locked="false" />
    <sodipodi:guide
       position="23.000042,10.000271"
       orientation="-14,0"
       id="guide4433"
       inkscape:locked="false" />
    <sodipodi:guide
       position="23.000042,24.000271"
       orientation="0,-14.000031"
       id="guide4435"
       inkscape:locked="false" />
  </sodipodi:namedview>
  <metadata
     id="metadata5458">
    <rdf:RDF>
      <cc:Work
         rdf:about="">
        <dc:format>image/svg+xml</dc:format>
        <dc:type
           rdf:resource="http://purl.org/dc/dcmitype/StillImage" />
      </cc:Work>
    </rdf:RDF>
  </metadata>
  <g
     inkscape:label="Capa 1"
     inkscape:groupmode="layer"
     id="layer1"
     transform="translate(-384.57143,-515.798)">
    <g
       id="g3068"
       transform="matrix(0.66666621,0,0,0.66666621,152.19064,181.9329)">
      <rect
         style="fill:url(#linearGradient1553);fill-opacity:1;stroke-width:1.05"
         id="rect23"
         height="42.000004"
         rx="21.000002"
         y="503.798"
         x="351.57141"
         width="42.000004"
         ry="21.000002" />
      <g
         id="layer2"
         style="display:inline"
         transform="matrix(1.0500007,0,0,1.0500007,428.3685,509.83663)">
        <rect
           ry="20"
           width="40"
           x="-73.140022"
           y="-5.75108"
           rx="20"
           height="40"
           id="rect4212"
           style="opacity:0.0939302;fill:url(#linearGradient4220);fill-opacity:1" />
      </g>
      <rect
         y="536.9068"
         x="374.75946"
         height="1.2982941"
         width="5.2210865"
         id="rect4568-3-2"
         style="color:#000000;text-decoration:none;text-decoration-line:none;display:inline;overflow:visible;visibility:visible;fill:#007ad9;fill-opacity:1;fill-rule:nonzero;stroke:none;stroke-width:0.867854;enable-background:accumulate" />
      <rect
         y="536.9068"
         x="381.28592"
         height="1.2983176"
         width="5.2211242"
         id="rect4570-6-9"
         style="color:#000000;text-decoration:none;text-decoration-line:none;display:inline;overflow:visible;visibility:visible;fill:#d6d6d6;fill-opacity:1;fill-rule:nonzero;stroke:none;stroke-width:0.867854;enable-background:accumulate" />
      <path
         d="m 358.70258,533.64265 -0.48053,-0.75718 1.27909,-3.97849 c 0.0859,-0.26759 0.13878,-0.58816 0.16033,-0.96166 0.0245,-0.37485 0.0252,-0.68377 0.004,-0.92669 l -0.0262,-0.36161 c -0.18474,-0.40751 -0.44173,-0.67186 -0.77105,-0.79302 -0.33071,-0.12444 -0.70592,-0.0923 -1.12543,0.0956 -0.70042,0.31424 -1.16048,0.7638 -1.38022,1.34872 l -0.62264,-0.61035 c 0.26219,-0.63168 0.83263,-1.14466 1.71141,-1.53883 0.67393,-0.3023 1.29348,-0.3608 1.85864,-0.17539 0.56354,0.1821 0.98315,0.57721 1.25884,1.18509 0.009,0.0525 0.0161,0.12329 0.0249,0.21397 0.009,0.0877 0.0181,0.26292 0.0296,0.52633 0.0153,0.26195 0.0212,0.51466 0.0157,0.75808 -0.006,0.24342 -0.0268,0.5184 -0.0676,0.82501 -0.0371,0.30507 -0.0943,0.57221 -0.1733,0.80138 l -1.08325,3.16099 3.43407,-1.54048 0.28966,0.78342 -4.33592,1.94513"
         style="font-style:normal;font-variant:normal;font-weight:normal;font-stretch:normal;font-size:12.7938px;line-height:125%;font-family:Oxygen;-inkscape-font-specification:Oxygen;letter-spacing:0px;word-spacing:0px;fill:#f2f2f2;fill-opacity:1;stroke:none;stroke-width:0.867854"
         id="path3864-7-1"
         inkscape:connector-curvature="0" />
      <path
         d="m 365.22466,526.45807 1.93266,-0.86697 0.30394,0.67033 -1.93757,0.86918 0.95877,2.11449 -0.67888,0.30458 -0.95878,-2.11455 -1.96726,0.88256 -0.30398,-0.67031 1.97224,-0.88476 -0.9476,-2.08986 0.67888,-0.30455 0.94758,2.08986"
         style="font-style:normal;font-variant:normal;font-weight:normal;font-stretch:normal;font-size:12.7938px;line-height:125%;font-family:Oxygen;-inkscape-font-specification:Oxygen;letter-spacing:0px;word-spacing:0px;fill:#f2f2f2;fill-opacity:1;stroke:none;stroke-width:0.867854"
         id="path3866-5-2"
         inkscape:connector-curvature="0" />
      <path
         d="m 369.8224,528.65428 -0.48044,-0.75724 1.27907,-3.97838 c 0.0859,-0.26768 0.13877,-0.58816 0.16029,-0.96164 0.0242,-0.37495 0.0251,-0.68387 0.004,-0.92678 l -0.0262,-0.36163 c -0.18473,-0.40738 -0.44171,-0.67175 -0.77099,-0.7929 -0.33079,-0.12447 -0.70595,-0.0924 -1.1255,0.0956 -0.7003,0.31424 -1.16037,0.7638 -1.38021,1.34872 l -0.62263,-0.61034 c 0.26221,-0.63178 0.83274,-1.14466 1.71141,-1.53892 0.67393,-0.30231 1.29347,-0.3607 1.85862,-0.17532 0.56367,0.18211 0.98328,0.57714 1.25886,1.18501 0.009,0.0525 0.0161,0.12328 0.0251,0.21407 0.009,0.0876 0.0181,0.26281 0.0296,0.52631 0.0153,0.26197 0.0212,0.51466 0.0157,0.7581 -0.006,0.24342 -0.0268,0.5184 -0.0677,0.82491 -0.037,0.30514 -0.0942,0.57227 -0.17329,0.80136 l -1.08324,3.16109 3.43409,-1.54049 0.28969,0.78347 -4.33594,1.94505"
         style="font-style:normal;font-variant:normal;font-weight:normal;font-stretch:normal;font-size:12.7938px;line-height:125%;font-family:Oxygen;-inkscape-font-specification:Oxygen;letter-spacing:0px;word-spacing:0px;fill:#f2f2f2;fill-opacity:1;stroke:none;stroke-width:0.867854"
         id="path3868-3-7"
         inkscape:connector-curvature="0" />
      <path
         d="m 374.60422,524.27302 -0.31734,-0.69985 4.78191,-2.14514 0.31738,0.69983 -4.78195,2.14516 m -0.94787,-2.07784 -0.32183,-0.70971 4.78687,-2.14738 0.32184,0.70972 -4.78688,2.14737"
         style="font-style:normal;font-variant:normal;font-weight:normal;font-stretch:normal;font-size:12.7938px;line-height:125%;font-family:Oxygen;-inkscape-font-specification:Oxygen;letter-spacing:0px;word-spacing:0px;fill:#f2f2f2;fill-opacity:1;stroke:none;stroke-width:0.867854"
         id="path3870-5-0"
         inkscape:connector-curvature="0" />
      <path
         d="m 385.60864,519.37215 -0.84244,0.37781 0.82921,1.82864 -0.83258,0.37345 -0.82908,-1.82861 -3.34988,1.50278 -0.3419,-0.75418 1.08328,-6.25139 0.92667,-0.41565 2.19026,4.83029 0.91181,-0.40898 0.25461,0.74585 m -3.68187,-3.67487 -0.79479,4.82298 2.47766,-1.11146 -1.68287,-3.71152"
         style="font-style:normal;font-variant:normal;font-weight:normal;font-stretch:normal;font-size:12.7938px;line-height:125%;font-family:Oxygen;-inkscape-font-specification:Oxygen;letter-spacing:0px;word-spacing:0px;fill:#f2f2f2;fill-opacity:1;stroke:none;stroke-width:0.867854"
         id="path3872-6-9"
         inkscape:connector-curvature="0" />
    </g>
  </g>
</svg>
