<?xml version="1.0" encoding="UTF-8" standalone="no"?>
<!-- Created with Inkscape (http://www.inkscape.org/) -->

<svg
   width="48"
   height="48"
   viewBox="0 0 48.000001 48.000001"
   id="svg2"
   version="1.1"
   inkscape:version="1.2.1 (9c6d41e410, 2022-07-14)"
   sodipodi:docname="emacs.svg"
   xmlns:inkscape="http://www.inkscape.org/namespaces/inkscape"
   xmlns:sodipodi="http://sodipodi.sourceforge.net/DTD/sodipodi-0.dtd"
   xmlns:xlink="http://www.w3.org/1999/xlink"
   xmlns="http://www.w3.org/2000/svg"
   xmlns:svg="http://www.w3.org/2000/svg"
   xmlns:rdf="http://www.w3.org/1999/02/22-rdf-syntax-ns#"
   xmlns:cc="http://creativecommons.org/ns#"
   xmlns:dc="http://purl.org/dc/elements/1.1/">
  <defs
     id="defs4">
    <linearGradient
       id="linearGradient4450"
       inkscape:collect="always">
      <stop
         id="stop4452"
         offset="0"
         style="stop-color:#6e3a84;stop-opacity:1" />
      <stop
         id="stop4454"
         offset="1"
         style="stop-color:#a75ec4;stop-opacity:1" />
    </linearGradient>
    <linearGradient
       inkscape:collect="always"
       xlink:href="#linearGradient4450"
       id="linearGradient4148"
       x1="24"
       y1="1048.3622"
       x2="24"
       y2="1008.3622"
       gradientUnits="userSpaceOnUse" />
    <linearGradient
       inkscape:collect="always"
       xlink:href="#linearGradient4450"
       id="linearGradient4178"
       gradientUnits="userSpaceOnUse"
       x1="24"
       y1="1048.3622"
       x2="24"
       y2="1008.3622"
       gradientTransform="matrix(1.0500003,0,0,1.0500003,-1.1999996,-51.418535)" />
    <linearGradient
       inkscape:collect="always"
       id="linearGradient4199">
      <stop
         style="stop-color:#dde0e2;stop-opacity:1"
         offset="0"
         id="stop4201" />
      <stop
         style="stop-color:#fcfcfc;stop-opacity:1"
         offset="1"
         id="stop4203" />
    </linearGradient>
    <linearGradient
       gradientTransform="matrix(1.0500003,0,0,1.0500003,-2.288971,-50.345999)"
       inkscape:collect="always"
       xlink:href="#linearGradient4441"
       id="linearGradient4148-5"
       x1="24.441946"
       y1="1026.1968"
       x2="44.603519"
       y2="1046.3583"
       gradientUnits="userSpaceOnUse" />
    <linearGradient
       id="linearGradient4441"
       inkscape:collect="always">
      <stop
         id="stop4443"
         offset="0"
         style="stop-color:#000000;stop-opacity:1" />
      <stop
         id="stop4445"
         offset="1"
         style="stop-color:#9b59b6;stop-opacity:0" />
    </linearGradient>
    <linearGradient
       inkscape:collect="always"
       xlink:href="#linearGradient4199"
       id="linearGradient5176"
       x1="23.771383"
       y1="1049.4304"
       x2="23.771383"
       y2="1016.8934"
       gradientUnits="userSpaceOnUse"
       gradientTransform="matrix(1.1988391,0,0,1.1988391,-5.8877538,-204.47864)" />
  </defs>
  <sodipodi:namedview
     id="base"
     pagecolor="#ffffff"
     bordercolor="#666666"
     borderopacity="1.0"
     inkscape:pageopacity="0.0"
     inkscape:pageshadow="2"
     inkscape:zoom="2.8284271"
     inkscape:cx="-128.33988"
     inkscape:cy="54.447223"
     inkscape:document-units="px"
     inkscape:current-layer="layer1"
     showgrid="true"
     units="px"
     showborder="true"
     inkscape:snap-bbox="true"
     inkscape:bbox-nodes="true"
     inkscape:snap-bbox-midpoints="true"
     inkscape:snap-grids="false"
     inkscape:window-width="1920"
     inkscape:window-height="1011"
     inkscape:window-x="0"
     inkscape:window-y="0"
     inkscape:window-maximized="1"
     inkscape:showpageshadow="2"
     inkscape:pagecheckerboard="0"
     inkscape:deskcolor="#d1d1d1">
    <inkscape:grid
       type="xygrid"
       id="grid4136"
       originx="0"
       originy="-2"
       visible="true"
       enabled="false" />
  </sodipodi:namedview>
  <metadata
     id="metadata7">
    <rdf:RDF>
      <cc:Work
         rdf:about="">
        <dc:format>image/svg+xml</dc:format>
        <dc:type
           rdf:resource="http://purl.org/dc/dcmitype/StillImage" />
      </cc:Work>
    </rdf:RDF>
  </metadata>
  <g
     inkscape:label="Layer 1"
     inkscape:groupmode="layer"
     id="layer1"
     transform="translate(0,-1004.3622)">
    <ellipse
       style="opacity:1;fill:url(#linearGradient4148);fill-opacity:1;stroke:none;stroke-width:2;stroke-miterlimit:4;stroke-dasharray:none;stroke-opacity:1"
       id="path4140"
       cx="24"
       cy="1028.3622"
       r="20" />
    <circle
       style="opacity:1;fill:url(#linearGradient4178);fill-opacity:1;stroke:none;stroke-width:2.1;stroke-miterlimit:4;stroke-dasharray:none;stroke-opacity:1"
       id="path4140-7"
       cx="24"
       cy="1028.3622"
       r="21" />
    <path
       style="opacity:0.3;fill:#000000;fill-opacity:1;stroke:none;stroke-width:2.1;stroke-miterlimit:4;stroke-dasharray:none;stroke-opacity:1"
       d="m 44.977451,1027.7506 a 21.000004,21.000004 0 0 1 -20.977445,20.5613 21.000004,21.000004 0 0 1 -20.9774473,-20.3887 21.000004,21.000004 0 0 0 -0.022558,0.4387 21.000004,21.000004 0 0 0 21.0000053,21 21.000004,21.000004 0 0 0 21.000004,-21 21.000004,21.000004 0 0 0 -0.02255,-0.6113 z"
       id="path4140-5"
       inkscape:connector-curvature="0" />
    <path
       style="opacity:0.2;fill:url(#linearGradient4148-5);fill-opacity:1;stroke:none;stroke-width:2.1;stroke-miterlimit:4;stroke-dasharray:none;stroke-opacity:1"
       d="m 30.982918,1019.1641 c -4.610271,-1.1314 -8.357134,-1.2821 -10.467191,0.4263 l 1.575,4.1675 4.659381,4.2657 -7.776572,0.7873 -4.429685,1.8047 1.445807,3.5686 -3.662703,-0.1019 -2.6434589,-0.1187 2.3235399,2.4649 12.901464,12.9014 c 11.229042,-0.486 20.084471,-9.7273 20.09151,-20.967 -0.0083,-1.6051 -0.201262,-3.2047 -0.574216,-4.7657 l -7.667876,-7.6681 c -0.965495,-0.4578 -4.302966,2.2766 -5.775,3.236 z m -21.4040109,14.794 0.0059,0.01 v -0.01 z"
       id="path4140-2"
       inkscape:connector-curvature="0"
       sodipodi:nodetypes="ccccccccccccccccccc" />
    <path
       style="fill:url(#linearGradient5176);fill-opacity:1;stroke-width:1.05"
       d="m 14.215709,1037.6953 c -1.812289,-1.063 -2.692655,-1.7026 -3.661943,-2.6597 -1.1663159,-1.1521 -1.6931629,-2.0357 -1.8453041,-3.0954 -0.2092601,-1.4566 0.8030932,-2.9573 2.5793791,-3.8234 3.481487,-1.6959 8.198157,-2.067 12.72235,-1.0001 0.957818,0.2258 0.926764,0.1546 -0.231418,-0.5286 -1.52447,-0.9008 -3.881374,-2.7614 -5.250929,-4.1456 -1.624588,-1.6417 -2.631998,-3.3772 -2.631998,-4.4779 0,-0.7264 0.358331,-1.4958 1.201553,-1.9598 1.973048,-1.0861 8.898608,0.7413 13.535355,1.001 1.468411,0.072 2.451087,0.085 2.446757,-0.7626 -0.0035,-0.7281 -1.950459,-1.127 -2.89224,-1.0595 0.827057,-0.2775 1.619892,-0.4223 2.67965,-0.4446 2.119175,-0.043 2.54695,0.2271 2.978898,0.4295 0.870215,0.4069 1.660813,1.3423 1.624541,2.532 -0.116902,3.8369 -4.693362,2.13 -7.739421,1.5786 -3.360494,-0.6075 -6.245088,-1.1058 -7.221107,0.039 -2.304073,2.708 5.755906,8.021 8.245159,9.9098 -2.077811,0.1581 -13.179323,-0.9931 -14.708552,2.8943 -0.539971,1.7647 2.427154,3.6485 5.196589,4.6035 2.253488,0.7428 4.993441,1.5842 8.396064,1.8066 3.083055,0.2025 4.661849,-0.2373 4.371807,-2.5749 2.449469,1.2664 2.289903,3.7888 0.69875,4.901 -2.577129,1.8004 -10.295221,0.2639 -10.76103,0.1674 -3.756839,-0.7784 -7.282662,-1.9086 -9.73291,-3.3331 z"
       id="path4197-9"
       inkscape:connector-curvature="0"
       sodipodi:nodetypes="csssssssscscssssscccscsscc" />
  </g>
</svg>
