<?xml version="1.0" encoding="UTF-8" standalone="no"?>
<svg
   enable-background="new"
   id="svg2985"
   height="48"
   width="48"
   version="1.1"
   sodipodi:docname="krita.svg"
   inkscape:version="1.2.2 (b0a8486541, 2022-12-01)"
   xmlns:inkscape="http://www.inkscape.org/namespaces/inkscape"
   xmlns:sodipodi="http://sodipodi.sourceforge.net/DTD/sodipodi-0.dtd"
   xmlns:xlink="http://www.w3.org/1999/xlink"
   xmlns="http://www.w3.org/2000/svg"
   xmlns:svg="http://www.w3.org/2000/svg"
   xmlns:rdf="http://www.w3.org/1999/02/22-rdf-syntax-ns#"
   xmlns:cc="http://creativecommons.org/ns#"
   xmlns:dc="http://purl.org/dc/elements/1.1/">
  <sodipodi:namedview
     pagecolor="#ffffff"
     bordercolor="#666666"
     borderopacity="1"
     objecttolerance="10"
     gridtolerance="10"
     guidetolerance="10"
     inkscape:pageopacity="0"
     inkscape:pageshadow="2"
     inkscape:window-width="1920"
     inkscape:window-height="1002"
     id="namedview43"
     showgrid="false"
     inkscape:zoom="3.6875"
     inkscape:cx="13.288136"
     inkscape:cy="40.813559"
     inkscape:window-x="0"
     inkscape:window-y="0"
     inkscape:window-maximized="1"
     inkscape:current-layer="layer3"
     inkscape:showpageshadow="2"
     inkscape:pagecheckerboard="0"
     inkscape:deskcolor="#d1d1d1">
    <inkscape:grid
       type="xygrid"
       id="grid921"
       originx="0.9"
       originy="2" />
  </sodipodi:namedview>
  <title
     id="title462">Krita icon - 2021</title>
  <defs
     id="defs2987">
    <linearGradient
       id="linearGradient1292">
      <stop
         style="stop-color:#ffff66;stop-opacity:1;"
         offset="0"
         id="stop1288" />
      <stop
         style="stop-color:#ffff70;stop-opacity:0;"
         offset="1"
         id="stop1290" />
    </linearGradient>
    <linearGradient
       id="linearGradient1262">
      <stop
         style="stop-color:#00ffff;stop-opacity:1"
         offset="0"
         id="stop1258" />
      <stop
         style="stop-color:#00ffff;stop-opacity:0"
         offset="1"
         id="stop1260" />
    </linearGradient>
    <linearGradient
       id="linearGradient1228">
      <stop
         id="stop1224"
         offset="0"
         style="stop-color:#ff80ff;stop-opacity:1;" />
      <stop
         id="stop1226"
         offset="1"
         style="stop-color:#ff00ff;stop-opacity:0" />
    </linearGradient>
    <linearGradient
       id="linearGradient1373">
      <stop
         id="stop1369"
         offset="0"
         style="stop-color:#343434;stop-opacity:1" />
      <stop
         id="stop1371"
         offset="1"
         style="stop-color:#4d4d4d;stop-opacity:1" />
    </linearGradient>
    <linearGradient
       id="linearGradient4663-8-4">
      <stop
         offset="0"
         style="stop-color:#5596ea;stop-opacity:1"
         id="stop4665-6-3" />
      <stop
         offset="1"
         style="stop-color:#5596ea;stop-opacity:0"
         id="stop4667-8-0" />
    </linearGradient>
    <linearGradient
       y2="200.87404"
       x2="1280.8954"
       y1="62.713318"
       x1="1142.5884"
       gradientTransform="matrix(0.16867449,-0.01739739,0.01739739,0.16867444,-191.93531,13.433428)"
       gradientUnits="userSpaceOnUse"
       id="linearGradient1403"
       xlink:href="#linearGradient1373" />
    <linearGradient
       gradientTransform="matrix(0.00203556,0.17810423,0.1830211,-0.00198088,-11.204513,-204.3128)"
       y2="89.862335"
       x2="1324.9103"
       y1="230.86234"
       x1="1327.5938"
       gradientUnits="userSpaceOnUse"
       id="linearGradient1405"
       xlink:href="#linearGradient4663-8-4" />
    <clipPath
       clipPathUnits="userSpaceOnUse"
       id="clipPath839-4">
      <circle
         style="opacity:1;vector-effect:none;fill:#000000;fill-opacity:0.47451;stroke:none;stroke-width:4;stroke-linecap:square;stroke-linejoin:round;stroke-miterlimit:4;stroke-dasharray:none;stroke-dashoffset:3.2;stroke-opacity:1"
         id="circle841-5"
         cx="532"
         cy="538"
         r="400" />
    </clipPath>
    <linearGradient
       y2="512"
       x2="711.86438"
       y1="512"
       x1="112"
       gradientTransform="matrix(0.05250004,0,0,0.05250012,-59.664666,-35.664613)"
       gradientUnits="userSpaceOnUse"
       id="linearGradient1351"
       xlink:href="#linearGradient1292" />
    <linearGradient
       y2="512"
       x2="711.86438"
       y1="512"
       x1="112"
       gradientTransform="matrix(0.0525,0,0,0.0525001,-18.095343,5.9046078)"
       gradientUnits="userSpaceOnUse"
       id="linearGradient1353"
       xlink:href="#linearGradient1262" />
    <linearGradient
       y2="512"
       x2="711.86438"
       y1="512"
       x1="112"
       gradientTransform="matrix(0.05250007,0,0,0.05250006,-2.8799967,-50.880056)"
       gradientUnits="userSpaceOnUse"
       id="linearGradient1355"
       xlink:href="#linearGradient1228" />
    <radialGradient
       inkscape:collect="always"
       xlink:href="#linearGradient1574"
       id="radialGradient1576"
       cx="51.757805"
       cy="14.719128"
       fx="51.757805"
       fy="14.719128"
       r="7.4835467"
       gradientTransform="matrix(1.3751052,-0.69429056,2.0549983,4.0701101,231.37243,-37.673844)"
       gradientUnits="userSpaceOnUse" />
    <linearGradient
       inkscape:collect="always"
       id="linearGradient1574">
      <stop
         style="stop-color:#151515;stop-opacity:1;"
         offset="0"
         id="stop1570" />
      <stop
         id="stop1588"
         offset="0.5490312"
         style="stop-color:#151515;stop-opacity:0.64545453" />
      <stop
         style="stop-color:#151515;stop-opacity:0;"
         offset="1"
         id="stop1572" />
    </linearGradient>
    <radialGradient
       inkscape:collect="always"
       xlink:href="#linearGradient1584"
       id="radialGradient1603"
       gradientUnits="userSpaceOnUse"
       gradientTransform="matrix(3.7795276,0,0,5.4984291,0,20.035229)"
       cx="84.98304"
       cy="-11.655832"
       fx="84.98304"
       fy="-11.655832"
       r="2.7959812" />
    <linearGradient
       inkscape:collect="always"
       id="linearGradient1584">
      <stop
         style="stop-color:#151515;stop-opacity:1;"
         offset="0"
         id="stop1580" />
      <stop
         style="stop-color:#151515;stop-opacity:0;"
         offset="1"
         id="stop1582" />
    </linearGradient>
    <radialGradient
       inkscape:collect="always"
       xlink:href="#linearGradient1420"
       id="radialGradient1465"
       cx="61.889835"
       cy="11.580203"
       fx="61.889835"
       fy="11.580203"
       r="3.9027863"
       gradientTransform="matrix(0.91159977,-0.43866269,7.8570854,16.328071,-59.327219,-165.15799)"
       gradientUnits="userSpaceOnUse" />
    <linearGradient
       inkscape:collect="always"
       id="linearGradient1420">
      <stop
         style="stop-color:#35aedd;stop-opacity:1"
         offset="0"
         id="stop1416" />
      <stop
         style="stop-color:#012f7c;stop-opacity:1"
         offset="0.65854508"
         id="stop1467" />
      <stop
         style="stop-color:#02355d;stop-opacity:1"
         offset="1"
         id="stop1418" />
    </linearGradient>
    <linearGradient
       inkscape:collect="always"
       xlink:href="#linearGradient1480"
       id="linearGradient1482"
       x1="54.387691"
       y1="9.7390127"
       x2="55.335098"
       y2="9.0875425"
       gradientUnits="userSpaceOnUse"
       gradientTransform="translate(31.308026,-18.39231)" />
    <linearGradient
       inkscape:collect="always"
       id="linearGradient1480">
      <stop
         style="stop-color:#b3c7d0;stop-opacity:1"
         offset="0"
         id="stop1476" />
      <stop
         id="stop1486"
         offset="0.49328217"
         style="stop-color:#919da5;stop-opacity:1" />
      <stop
         id="stop1484"
         offset="0.85618269"
         style="stop-color:#666a6f;stop-opacity:1" />
      <stop
         style="stop-color:#5a5d62;stop-opacity:1"
         offset="1"
         id="stop1478" />
    </linearGradient>
    <linearGradient
       inkscape:collect="always"
       xlink:href="#linearGradient1494"
       id="linearGradient1496"
       x1="53.33532"
       y1="10.173326"
       x2="54.316135"
       y2="9.7390127"
       gradientUnits="userSpaceOnUse"
       gradientTransform="translate(31.308026,-18.39231)" />
    <linearGradient
       inkscape:collect="always"
       id="linearGradient1494">
      <stop
         style="stop-color:#e4f0ee;stop-opacity:1"
         offset="0"
         id="stop1490" />
      <stop
         id="stop1500"
         offset="0.68149281"
         style="stop-color:#c0d4d8;stop-opacity:1" />
      <stop
         id="stop1498"
         offset="0.86942786"
         style="stop-color:#d6e4e7;stop-opacity:1" />
      <stop
         style="stop-color:#b3c7cf;stop-opacity:0"
         offset="1"
         id="stop1492" />
    </linearGradient>
    <linearGradient
       inkscape:collect="always"
       xlink:href="#linearGradient1353-6"
       id="linearGradient1355-3"
       x1="55.792511"
       y1="-0.99319166"
       x2="58.714092"
       y2="3.3833468"
       gradientUnits="userSpaceOnUse"
       gradientTransform="translate(26.326048,-14.833459)" />
    <linearGradient
       inkscape:collect="always"
       id="linearGradient1353-6">
      <stop
         style="stop-color:#120b08;stop-opacity:1"
         offset="0"
         id="stop1349" />
      <stop
         id="stop1357"
         offset="0.19073239"
         style="stop-color:#3f240f;stop-opacity:1" />
      <stop
         style="stop-color:#0e0000;stop-opacity:1"
         offset="0.48830608"
         id="stop1359" />
      <stop
         style="stop-color:#311408;stop-opacity:1"
         offset="1"
         id="stop1351" />
    </linearGradient>
    <radialGradient
       inkscape:collect="always"
       xlink:href="#linearGradient1381"
       id="radialGradient1383"
       cx="58.066288"
       cy="2.3865683"
       fx="58.066288"
       fy="2.3865683"
       r="2.3962343"
       gradientTransform="matrix(1,0,0,1.2975021,26.326048,-15.343054)"
       gradientUnits="userSpaceOnUse" />
    <linearGradient
       inkscape:collect="always"
       id="linearGradient1381">
      <stop
         style="stop-color:#5e290f;stop-opacity:1;"
         offset="0"
         id="stop1377" />
      <stop
         style="stop-color:#5e290f;stop-opacity:0;"
         offset="1"
         id="stop1379" />
    </linearGradient>
    <radialGradient
       inkscape:collect="always"
       xlink:href="#linearGradient1367"
       id="radialGradient1371"
       gradientUnits="userSpaceOnUse"
       gradientTransform="matrix(0.76326684,-0.64608233,1.1719696,1.384538,37.732879,21.277879)"
       cx="56.919216"
       cy="1.7644093"
       fx="56.919216"
       fy="1.7644093"
       r="2.3962343" />
    <linearGradient
       inkscape:collect="always"
       id="linearGradient1367">
      <stop
         style="stop-color:#050100;stop-opacity:0"
         offset="0"
         id="stop1363" />
      <stop
         id="stop1373"
         offset="0.67306083"
         style="stop-color:#130702;stop-opacity:0" />
      <stop
         style="stop-color:#140d0b;stop-opacity:1"
         offset="1"
         id="stop1365" />
    </linearGradient>
    <linearGradient
       inkscape:collect="always"
       xlink:href="#linearGradient1395"
       id="linearGradient1399"
       gradientUnits="userSpaceOnUse"
       x1="55.992966"
       y1="0.31389943"
       x2="57.789333"
       y2="1.2714605"
       gradientTransform="translate(26.326048,-14.833459)" />
    <linearGradient
       inkscape:collect="always"
       id="linearGradient1395">
      <stop
         style="stop-color:#100201;stop-opacity:0"
         offset="0"
         id="stop1391" />
      <stop
         id="stop1405"
         offset="0.31376076"
         style="stop-color:#100201;stop-opacity:0.58823532" />
      <stop
         style="stop-color:#100201;stop-opacity:0.58823529;"
         offset="0.49090415"
         id="stop1409" />
      <stop
         id="stop1407"
         offset="0.62992597"
         style="stop-color:#100201;stop-opacity:0.58636361" />
      <stop
         style="stop-color:#100201;stop-opacity:0;"
         offset="1"
         id="stop1393" />
    </linearGradient>
    <linearGradient
       inkscape:collect="always"
       xlink:href="#linearGradient1550"
       id="linearGradient1552"
       x1="58.150249"
       y1="3.6912136"
       x2="58.796978"
       y2="5.0108571"
       gradientUnits="userSpaceOnUse"
       gradientTransform="translate(26.326048,-14.833459)" />
    <linearGradient
       inkscape:collect="always"
       id="linearGradient1550">
      <stop
         style="stop-color:#231407;stop-opacity:1;"
         offset="0"
         id="stop1545" />
      <stop
         style="stop-color:#231407;stop-opacity:0;"
         offset="1"
         id="stop1547" />
    </linearGradient>
    <linearGradient
       inkscape:collect="always"
       xlink:href="#linearGradient1189"
       id="linearGradient1191"
       x1="49.845612"
       y1="12.794494"
       x2="57.59412"
       y2="6.98311"
       gradientUnits="userSpaceOnUse"
       gradientTransform="translate(22.158854,-0.18898807)" />
    <linearGradient
       inkscape:collect="always"
       id="linearGradient1189">
      <stop
         style="stop-color:#18202b;stop-opacity:1"
         offset="0"
         id="stop1185" />
      <stop
         style="stop-color:#18202b;stop-opacity:1"
         offset="1"
         id="stop1187" />
    </linearGradient>
    <radialGradient
       inkscape:collect="always"
       xlink:href="#linearGradient1203"
       id="radialGradient1233"
       gradientUnits="userSpaceOnUse"
       gradientTransform="matrix(1.0169538,0.01380464,-0.01133582,0.95830337,16.717583,22.865777)"
       cx="53.507256"
       cy="9.7943077"
       fx="53.507256"
       fy="9.7943077"
       r="5.8822541" />
    <linearGradient
       inkscape:collect="always"
       id="linearGradient1203">
      <stop
         style="stop-color:#000000;stop-opacity:1;"
         offset="0"
         id="stop1199" />
      <stop
         id="stop1227"
         offset="0.67949575"
         style="stop-color:#000000;stop-opacity:0.73636365" />
      <stop
         style="stop-color:#000000;stop-opacity:0.56078431;"
         offset="0.74625868"
         id="stop1241" />
      <stop
         id="stop1245"
         offset="0.79716641"
         style="stop-color:#000000;stop-opacity:0.43137255;" />
      <stop
         style="stop-color:#000000;stop-opacity:0.18431373;"
         offset="0.90335286"
         id="stop1243" />
      <stop
         style="stop-color:#000000;stop-opacity:0.08235294;"
         offset="0.95426059"
         id="stop1235" />
      <stop
         style="stop-color:#000000;stop-opacity:0;"
         offset="1"
         id="stop1201" />
    </linearGradient>
    <linearGradient
       inkscape:collect="always"
       xlink:href="#linearGradient1165"
       id="linearGradient1167"
       x1="50.213261"
       y1="11.474491"
       x2="56.210121"
       y2="7.6993093"
       gradientUnits="userSpaceOnUse" />
    <linearGradient
       inkscape:collect="always"
       id="linearGradient1165">
      <stop
         style="stop-color:#1accf9;stop-opacity:1"
         offset="0"
         id="stop1161" />
      <stop
         style="stop-color:#028ae9;stop-opacity:1"
         offset="1"
         id="stop1163" />
    </linearGradient>
    <radialGradient
       inkscape:collect="always"
       xlink:href="#linearGradient1175"
       id="radialGradient1179"
       gradientUnits="userSpaceOnUse"
       cx="53.786118"
       cy="9.2278175"
       fx="53.786118"
       fy="9.2278175"
       r="3.9505777"
       gradientTransform="matrix(1.1513377,-0.04891876,0.0493097,1.1605388,-8.5512646,1.1246107)" />
    <linearGradient
       inkscape:collect="always"
       id="linearGradient1175">
      <stop
         style="stop-color:#000000;stop-opacity:0"
         offset="0"
         id="stop1171" />
      <stop
         id="stop1181"
         offset="0.77589923"
         style="stop-color:#000000;stop-opacity:0.01960784;" />
      <stop
         style="stop-color:#000000;stop-opacity:0.32727271"
         offset="1"
         id="stop1173" />
    </linearGradient>
  </defs>
  <metadata
     id="metadata2990">
    <rdf:RDF>
      <cc:Work
         rdf:about="">
        <dc:title>Krita icon - 2021</dc:title>
      </cc:Work>
    </rdf:RDF>
  </metadata>
  <g
     style="display:inline"
     id="layer3">
    <circle
       cy="24"
       cx="24"
       id="circle891-8"
       style="display:inline;vector-effect:none;fill:#ffffff;fill-opacity:1;stroke:none;stroke-width:0.210004;stroke-linecap:square;stroke-linejoin:round;stroke-miterlimit:4;stroke-dasharray:none;stroke-dashoffset:3.2;stroke-opacity:1"
       r="21" />
    <ellipse
       cy="-8.7846069"
       cx="-32.784611"
       id="circle891-8-0-06"
       style="display:inline;vector-effect:none;fill:url(#linearGradient1351);fill-opacity:1;stroke:none;stroke-width:0.209994;stroke-linecap:square;stroke-linejoin:round;stroke-miterlimit:4;stroke-dasharray:none;stroke-dashoffset:3.2;stroke-opacity:1"
       transform="rotate(-150)"
       rx="21.000004"
       ry="20.999996" />
    <ellipse
       cy="32.784607"
       cx="8.7846136"
       id="circle891-8-0-0"
       style="display:inline;vector-effect:none;fill:url(#linearGradient1353);fill-opacity:1;stroke:none;stroke-width:0.209994;stroke-linecap:square;stroke-linejoin:round;stroke-miterlimit:4;stroke-dasharray:none;stroke-dashoffset:3.2;stroke-opacity:1"
       transform="rotate(-29.999997)"
       rx="21.000006"
       ry="20.999994" />
    <circle
       cy="-24"
       cx="24"
       id="circle891-8-0"
       style="display:inline;vector-effect:none;fill:url(#linearGradient1355);fill-opacity:1;stroke:none;stroke-width:0.210003;stroke-linecap:square;stroke-linejoin:round;stroke-miterlimit:4;stroke-dasharray:none;stroke-dashoffset:3.2;stroke-opacity:1"
       transform="rotate(90)"
       r="21" />
    <path
       style="color:#d1d5e9;fill:#61699e;fill-opacity:1;stroke-width:2.6875"
       class="ColorScheme-Text "
       d="M 24,2.5 C 12.1105,2.5 2.5,12.1105 2.5,24 2.5,35.8895 12.1105,45.5 24,45.5 35.889498,45.5 45.5,35.8895 45.5,24 45.5,12.1105 35.889498,2.5 24,2.5 Z M 24,4 c 11.000124,-0.03631 19.96369,9.2 20,20 0.03766,11.199996 -9.1,20 -20,20.018 C 13.399999,44.035505 4.0684966,35.381972 4,23.982 3.93631,13.382 13,4.03631 24,4 Z"
       id="path58"
       sodipodi:nodetypes="ssssssssss" />
    <g
       id="g1627"
       transform="matrix(-1.7574108,0.70602022,-0.70602022,-1.7574108,169.72052,-53.909828)">
      <g
         id="g1609">
        <path
           style="opacity:1;fill:url(#radialGradient1576);fill-opacity:1;stroke:none;stroke-width:0.683823;stroke-linecap:round;stroke-linejoin:round;stroke-miterlimit:4;stroke-dasharray:none;stroke-opacity:1"
           d="m 339.30664,-46.802734 a 28.284271,34.723995 0 0 0 -20.43555,10.777343 l 29.375,56.84375 a 28.284271,34.723995 0 0 0 19.34571,-32.898437 28.284271,34.723995 0 0 0 -28.28516,-34.722656 z m -21.375,57.40039 a 28.284271,34.723995 0 0 0 21.375,12.046875 28.284271,34.723995 0 0 0 1.68945,-0.07422 z"
           id="path1568"
           inkscape:connector-curvature="0"
           transform="scale(0.26458333)" />
        <path
           style="opacity:1;fill:url(#radialGradient1603);fill-opacity:1;stroke:none;stroke-width:0.566929;stroke-linecap:round;stroke-linejoin:round;stroke-miterlimit:4;stroke-dasharray:none;stroke-opacity:1"
           d="m 321.19531,-59.427734 a 10.567488,15.373505 0 0 0 -9.66797,9.193359 l 4.71485,9.123047 c 2.86601,-0.877262 5.68107,-1.659049 3.50195,6.77539 l 2.84375,5.503907 a 10.567488,15.373505 0 0 0 9.17578,-15.220703 10.567488,15.373505 0 0 0 -10.56836,-15.375 z"
           transform="scale(0.26458333)"
           id="ellipse1590"
           inkscape:connector-curvature="0" />
      </g>
      <g
         id="g1566">
        <path
           style="opacity:1;fill:url(#radialGradient1465);fill-opacity:1;stroke:none;stroke-width:0.264583px;stroke-linecap:butt;stroke-linejoin:miter;stroke-opacity:1"
           d="m 84.175397,-10.009743 c 0.831885,4.285868 4.051984,10.97670723 6.874443,14.0559902 0.454992,0.449038 1.012088,0.28274 0.921316,-0.47247 -0.29956,-2.395969 -2.879019,-10.0877492 -6.260229,-14.3158492 z"
           id="path1414"
           inkscape:connector-curvature="0"
           sodipodi:nodetypes="ccccc" />
        <path
           style="fill:#ffffff;fill-opacity:1;stroke:none;stroke-width:0.264583px;stroke-linecap:butt;stroke-linejoin:miter;stroke-opacity:1"
           d="m 86.301722,-5.7554609 c 1.742755,3.0990271 2.988541,6.11410713 4.383001,9.0270481 -1.535863,-2.87493697 -3.151816,-5.803908 -4.383001,-9.0270481 z"
           id="path1469"
           inkscape:connector-curvature="0"
           sodipodi:nodetypes="ccc" />
        <path
           style="fill:url(#linearGradient1482);fill-opacity:1;stroke:none;stroke-width:0.264583px;stroke-linecap:butt;stroke-linejoin:miter;stroke-opacity:1"
           d="m 85.710927,-10.742072 -1.535308,0.732255 c 0.206555,1.0641674 0.560679,2.2769138 1.019061,3.5455198 0.95489,-0.262356 1.815981,-0.637765 2.584337,-1.123962 -0.642679,-1.1531463 -1.334958,-2.237053 -2.06809,-3.1538128 z"
           id="path1471"
           inkscape:connector-curvature="0" />
        <path
           inkscape:connector-curvature="0"
           id="path1488"
           d="m 85.710927,-10.742072 -1.535308,0.732255 c 0.206555,1.0641674 0.560679,2.2769138 1.019061,3.5455198 0.95489,-0.262356 1.815981,-0.637765 2.584337,-1.123962 -0.642679,-1.1531463 -1.334958,-2.237053 -2.06809,-3.1538128 z"
           style="fill:url(#linearGradient1496);fill-opacity:1;stroke:none;stroke-width:0.264583px;stroke-linecap:butt;stroke-linejoin:miter;stroke-opacity:1" />
        <path
           inkscape:connector-curvature="0"
           style="color:#000000;font-style:normal;font-variant:normal;font-weight:normal;font-stretch:normal;font-size:medium;line-height:normal;font-family:sans-serif;font-variant-ligatures:normal;font-variant-position:normal;font-variant-caps:normal;font-variant-numeric:normal;font-variant-alternates:normal;font-feature-settings:normal;text-indent:0;text-align:start;text-decoration:none;text-decoration-line:none;text-decoration-style:solid;text-decoration-color:#000000;letter-spacing:normal;word-spacing:normal;text-transform:none;writing-mode:lr-tb;direction:ltr;text-orientation:mixed;dominant-baseline:auto;baseline-shift:baseline;text-anchor:start;white-space:normal;shape-padding:0;clip-rule:nonzero;display:inline;overflow:visible;visibility:visible;opacity:1;isolation:auto;mix-blend-mode:normal;color-interpolation:sRGB;color-interpolation-filters:linearRGB;solid-color:#000000;solid-opacity:1;vector-effect:none;fill:#ffffff;fill-opacity:0.531818;fill-rule:nonzero;stroke:none;stroke-width:0.15;stroke-linecap:butt;stroke-linejoin:miter;stroke-miterlimit:4;stroke-dasharray:none;stroke-dashoffset:0;stroke-opacity:1;color-rendering:auto;image-rendering:auto;shape-rendering:auto;text-rendering:auto;enable-background:accumulate"
           d="m 87.534049,-8.0120653 c -0.755816,0.5638688 -1.563947,0.9918348 -2.455145,1.2107788 0.01667,0.047685 0.03161,0.094763 0.04857,0.1426268 0.904271,-0.2243833 1.721694,-0.6579058 2.482019,-1.2231812 -0.02495,-0.043712 -0.05035,-0.086746 -0.07545,-0.1302244 z"
           id="path1502" />
        <path
           style="fill:url(#linearGradient1355-3);fill-opacity:1;stroke:none;stroke-width:0.264583px;stroke-linecap:butt;stroke-linejoin:miter;stroke-opacity:1"
           d="m 81.216526,-16.229665 c 1.714482,0.951803 0.504306,3.068423 1.353053,5.144938 0.490591,1.2002644 1.469983,1.069078 1.469983,1.069078 0.09048,-0.0042 0.173307,0.01044 0.273534,-0.02297 l 1.296675,-0.561684 c 0.08679,-0.03765 0.135124,-0.141163 0.175395,-0.258917 0,0 0.59684,-1.510521 -0.158692,-2.73116 -1.372267,-2.217037 -3.12287,-2.579443 -4.409948,-2.639287 z"
           id="path1347"
           inkscape:connector-curvature="0"
           sodipodi:nodetypes="csccccsc" />
        <path
           style="fill:url(#radialGradient1383);fill-opacity:1;stroke:none;stroke-width:0.264583px;stroke-linecap:butt;stroke-linejoin:miter;stroke-opacity:1"
           d="m 81.216526,-16.229665 c 1.714482,0.951803 0.504306,3.068423 1.353053,5.144938 0.490591,1.2002644 1.469983,1.069078 1.469983,1.069078 0.09048,-0.0042 0.173307,0.01044 0.273534,-0.02297 l 1.296675,-0.561684 c 0.08679,-0.03765 0.135124,-0.141163 0.175395,-0.258917 0,0 0.59684,-1.510521 -0.158692,-2.73116 -1.372267,-2.217037 -3.12287,-2.579443 -4.409948,-2.639287 z"
           id="path1375"
           inkscape:connector-curvature="0"
           sodipodi:nodetypes="csccccsc" />
        <path
           sodipodi:nodetypes="csccccsc"
           inkscape:connector-curvature="0"
           id="path1361"
           d="m 81.216526,-16.229665 c 1.714482,0.951803 0.504306,3.068423 1.353053,5.144938 0.490591,1.2002644 1.469983,1.069078 1.469983,1.069078 0.09048,-0.0042 0.173307,0.01044 0.273534,-0.02297 l 1.296675,-0.561684 c 0.08679,-0.03765 0.135124,-0.141163 0.175395,-0.258917 0,0 0.59684,-1.510521 -0.158692,-2.73116 -1.372267,-2.217037 -3.12287,-2.579443 -4.409948,-2.639287 z"
           style="fill:url(#radialGradient1371);fill-opacity:1;stroke:none;stroke-width:0.264583px;stroke-linecap:butt;stroke-linejoin:miter;stroke-opacity:1" />
        <path
           style="fill:#ffffff;fill-opacity:0.290909;stroke:none;stroke-width:0.264583px;stroke-linecap:butt;stroke-linejoin:miter;stroke-opacity:1"
           d="m 82.187055,-15.723406 c 0.913274,2.113768 -0.152034,4.049152 2.173364,5.268044 -1.454851,-2.083782 -1.056364,-3.116558 -2.173364,-5.268044 z"
           id="path1385"
           inkscape:connector-curvature="0"
           sodipodi:nodetypes="ccc" />
        <path
           style="fill:#ffffff;fill-opacity:0.127273;stroke:none;stroke-width:0.264583px;stroke-linecap:butt;stroke-linejoin:miter;stroke-opacity:1"
           d="m 83.731182,-13.37825 c 0.388212,0.822435 0.793734,1.637453 0.968563,2.551339 z"
           id="path1387"
           inkscape:connector-curvature="0"
           sodipodi:nodetypes="ccc" />
        <path
           style="fill:url(#linearGradient1399);fill-opacity:1;stroke:none;stroke-width:0.264583px;stroke-linecap:butt;stroke-linejoin:miter;stroke-opacity:1"
           d="m 82.984087,-15.890759 -0.783413,1.432471 c 0.07036,0.988027 -0.116099,2.186688 0.368969,3.373438 0.06339,0.155095 0.135324,0.28722 0.211873,0.401009 0.68824,-1.203168 1.546681,-2.674681 2.196764,-3.787883 -0.640688,-0.737895 -1.327991,-1.169201 -1.994193,-1.419035 z"
           id="path1389"
           inkscape:connector-curvature="0" />
        <path
           style="fill:url(#linearGradient1552);fill-opacity:1;stroke:none;stroke-width:0.264583px;stroke-linecap:butt;stroke-linejoin:miter;stroke-opacity:1"
           d="m 85.710927,-10.742072 -1.535308,0.732255 c 0.206555,1.0641674 0.560679,2.2769138 1.019061,3.5455198 0.95489,-0.262356 1.815981,-0.637765 2.584337,-1.123962 -0.642679,-1.1531463 -1.334958,-2.237053 -2.06809,-3.1538128 z"
           id="path1543"
           inkscape:connector-curvature="0" />
      </g>
    </g>
    <g
       id="g1345"
       transform="matrix(1.270614,0,0,1.3056494,-74.357635,23.29053)">
      <circle
         r="5.2444196"
         cy="9.5816965"
         cx="75.642487"
         id="path1183"
         style="opacity:1;fill:url(#linearGradient1191);fill-opacity:1;stroke:none;stroke-width:2.4026;stroke-linecap:round;stroke-linejoin:round;stroke-miterlimit:4;stroke-dasharray:none;stroke-opacity:0.0590909" />
      <ellipse
         transform="matrix(0.94877442,-0.31595427,0.27141256,0.9624631,0,0)"
         ry="5.6374364"
         rx="5.9692554"
         style="opacity:1;fill:url(#radialGradient1233);fill-opacity:1;stroke:none;stroke-width:2.65757;stroke-linecap:round;stroke-linejoin:round;stroke-miterlimit:4;stroke-dasharray:none;stroke-opacity:0.0590909"
         id="circle1197"
         cx="71.020958"
         cy="32.990337" />
      <g
         transform="translate(22.313864,0.01150002)"
         id="g1195">
        <circle
           style="opacity:1;fill:url(#linearGradient1167);fill-opacity:1;stroke:none;stroke-width:2.51596;stroke-linecap:round;stroke-linejoin:round;stroke-miterlimit:4;stroke-dasharray:none;stroke-opacity:0.0590909"
           id="path1149"
           cx="53.328621"
           cy="9.5701962"
           r="3.9505777" />
        <circle
           r="3.9505777"
           cy="9.5701962"
           cx="53.328621"
           id="circle1169"
           style="opacity:1;fill:url(#radialGradient1179);fill-opacity:1;stroke:none;stroke-width:2.51596;stroke-linecap:round;stroke-linejoin:round;stroke-miterlimit:4;stroke-dasharray:none;stroke-opacity:0.0590909" />
      </g>
      <path
         id="path1256"
         transform="scale(0.26458333)"
         d="m 268.72852,31.089844 c -0.0419,0.0021 -0.0811,0.01342 -0.11329,0.03516 -0.13617,0.09204 -0.0284,0.326703 -0.0449,0.490234 -0.0136,0.134072 0.0864,0.372427 -0.0449,0.402344 -0.0685,0.01557 -0.0519,-0.140362 -0.11133,-0.177734 -0.11406,-0.07174 -0.26849,-0.06054 -0.40234,-0.04492 -0.10987,0.01281 -0.24092,0.02703 -0.3125,0.111328 -0.0538,0.06342 -0.0174,0.166928 -0.043,0.246094 -0.0531,0.164704 -0.0688,0.393389 -0.22461,0.46875 -0.30354,0.146828 -0.66202,-0.07061 -0.98437,-0.208985 a 19.821428,19.821428 0 0 0 -0.375,3.802735 19.821428,19.821428 0 0 0 0.26757,3.201172 c 0.0886,-0.01101 0.1781,-0.01399 0.26563,-0.03125 0.18954,-0.03742 0.37977,-0.08319 0.55859,-0.15625 0.15723,-0.06425 0.30003,-0.161471 0.44727,-0.246094 0.18807,-0.108095 0.34378,-0.294136 0.55664,-0.335938 0.096,-0.0189 0.1935,0.0532 0.29101,0.04492 0.11725,-0.0098 0.27873,-0.0075 0.33399,-0.111328 0.0653,-0.122721 -0.18257,-0.283009 -0.11133,-0.402344 0.0861,-0.144151 0.36012,-0.0075 0.49219,-0.111328 0.10469,-0.08217 0.16677,-0.224798 0.17773,-0.357422 0.008,-0.100875 -0.12495,-0.194158 -0.0898,-0.289062 0.058,-0.156813 0.27049,-0.205518 0.42578,-0.267578 0.1409,-0.05635 0.30588,-0.03024 0.44531,-0.08984 0.14223,-0.06115 0.36572,-0.113298 0.37891,-0.267578 0.009,-0.104844 -0.19012,-0.122574 -0.22266,-0.222656 -0.0443,-0.136101 0.0155,-0.291933 0.0664,-0.425782 0.0344,-0.09075 0.0956,-0.168436 0.15625,-0.24414 0.0658,-0.08209 0.22087,-0.119463 0.22461,-0.22461 0.005,-0.14759 -0.18107,-0.235338 -0.29102,-0.333984 -0.0876,-0.07858 -0.18429,-0.147616 -0.28906,-0.201172 -0.11943,-0.06104 -0.29526,-0.02948 -0.38086,-0.132812 -0.0624,-0.07536 -0.0495,-0.19324 -0.0449,-0.291016 0.004,-0.09196 0.023,-0.18749 0.0684,-0.267578 0.0467,-0.08239 0.15498,-0.118476 0.20117,-0.201172 0.0784,-0.140217 -0.0485,-0.452826 0.11133,-0.46875 0.10601,-0.01055 0.0367,0.244992 0.13281,0.291016 0.11067,0.05302 0.31044,0.02354 0.35742,-0.08984 0.0333,-0.08017 -0.0864,-0.149334 -0.13281,-0.222656 -0.0574,-0.09067 -0.12144,-0.179394 -0.17969,-0.269532 -0.0381,-0.05898 -0.0442,-0.157207 -0.11133,-0.177734 -0.14014,-0.04286 -0.2722,0.245097 -0.40234,0.177734 -0.1011,-0.05231 -0.038,-0.223781 -0.0664,-0.333984 -0.043,-0.166318 -0.006,-0.406545 -0.15625,-0.490234 -0.13394,-0.07473 -0.35285,-0.0096 -0.44726,0.111328 -0.14196,0.181803 0.0181,0.461459 0,0.691406 -0.0113,0.142685 -0.12911,0.29517 -0.0664,0.423828 0.0336,0.06886 0.18923,0.03568 0.20117,0.111328 0.0238,0.1508 -0.1609,0.353943 -0.3125,0.335938 -0.19521,-0.02305 -0.21701,-0.331551 -0.29101,-0.513672 -0.055,-0.135432 -0.13276,-0.279224 -0.11133,-0.423828 0.0166,-0.112347 0.14877,-0.181735 0.17969,-0.291016 0.0302,-0.107388 0.0102,-0.222859 0,-0.333984 -0.0113,-0.120605 -0.0966,-0.239629 -0.0684,-0.357422 0.0283,-0.118677 0.21017,-0.16984 0.22461,-0.291016 0.009,-0.07277 -0.0931,-0.127962 -0.0899,-0.201172 0.007,-0.153059 0.16638,-0.257892 0.22266,-0.40039 0.0336,-0.0856 0.11191,-0.187573 0.0664,-0.267578 -0.0576,-0.101273 -0.2064,-0.176132 -0.33203,-0.169922 z m -0.79493,2.126953 c 0.0166,0.06574 0.0156,0.05425 0.0156,0.109375 0,0.01376 -0.003,0.08992 0,0.0957 0.003,0.0067 0.0107,0.01033 0.0156,0.01563 0.0106,0.01051 0.0195,0.02237 0.0312,0.03125 0.009,0.0071 0.0214,0.0091 0.0312,0.01563 0.006,0.0042 0.0124,0.01234 0.0195,0.01563 0.005,0.0024 0.009,-0.0024 0.0137,0 0.02,0.01 0.0268,0.03685 0.0469,0.04687 0.009,0.0047 0.0234,-0.0033 0.0332,0 0.007,0.0024 0.006,0.01385 0.0137,0.01563 0.0151,0.0038 0.0329,0 0.0488,0 h 0.0332 c 0,0.02241 -0.0355,0.05296 -0.0469,0.06445 -0.005,0.0053 -0.0126,0.0089 -0.0156,0.01563 -0.002,0.0047 0.002,0.01094 0,0.01563 -0.003,0.0067 -0.0165,0.0089 -0.0195,0.01563 -0.011,0.02177 0.0211,0.01379 -0.0137,0.03125 -0.005,0.0024 -0.0515,0 -0.0625,0 -0.009,0 -0.0721,0.0029 -0.0781,0 -0.007,-0.0033 -0.0142,-0.01033 -0.0195,-0.01563 -0.0106,-0.01051 -0.0252,-0.01742 -0.0312,-0.03125 -0.006,-0.01466 0,-0.03107 0,-0.04687 0,-0.0053 0.002,-0.01064 0,-0.01563 -0.004,-0.01115 -0.0137,-0.02168 -0.0156,-0.0332 -0.003,-0.0155 0,-0.03107 0,-0.04687 V 33.40625 Z m -1.10547,0.615234 c 0.0155,0 0.0318,-0.005 0.0469,0 0.007,0.0024 0.0119,0.01181 0.0176,0.01563 0.02,0.0121 0.0425,0.01916 0.0625,0.03125 0.007,0.0039 0.008,0.01415 0.0156,0.01563 0.12495,0.02498 0.0174,-0.02349 0.0957,0.01563 0.0106,0.0053 0.0271,0.0047 0.0312,0.01563 0.008,0.01954 0,0.0434 0,0.06445 h 0.002 c 0.005,0.02105 0.0115,0.04122 0.0156,0.0625 0.003,0.01262 -0.004,0.054 0,0.0625 0.003,0.0067 0.0126,0.0089 0.0156,0.01563 0.005,0.0098 -0.005,0.07036 0,0.08008 0.0522,0.104366 0.0102,0.0068 0.0469,0.03125 0.0136,0.0091 0.0653,0.06546 0.0781,0.07812 0.005,0.0053 0.0134,0.0096 0.0176,0.01563 0.0208,0.03137 0.005,0.03832 0.0469,0.04883 0.0106,0.0027 0.0992,0 0.10938,0 h 0.0801 c 0.0106,0 0.021,-0.0021 0.0312,0 0.0163,0.0033 0.0306,0.01185 0.0469,0.01563 0.005,0.0013 0.0107,0 0.0156,0 h 0.0801 0.0156 c 0.005,0 0.0107,-0.0024 0.0156,0 0.007,0.0033 0.01,0.01185 0.0156,0.01563 0.01,0.0064 0.0214,0.0092 0.0312,0.01563 0.006,0.0042 0.0127,0.01033 0.0176,0.01563 0.005,0.0053 0.0115,0.0096 0.0156,0.01563 0.007,0.0098 0.0126,0.01953 0.0156,0.03125 0.003,0.0102 0,0.02067 0,0.03125 v 0.0957 0.111328 0.04687 c 0,0.02646 0.004,0.02344 -0.0312,0.04687 -0.005,0.0029 -0.0123,0 -0.0176,0 h -0.0312 -0.0781 c -0.004,0 -0.0603,0.0018 -0.0644,0 -0.0144,-0.0072 -0.0449,-0.05929 -0.0469,-0.0625 -0.009,-0.0121 -0.0207,-0.02067 -0.0312,-0.03125 -0.0212,-0.02116 -0.0413,-0.0434 -0.0625,-0.06445 -0.0106,-0.01058 -0.0241,-0.01916 -0.0332,-0.03125 -0.007,-0.0094 -0.008,-0.02142 -0.0156,-0.03125 -0.004,-0.006 -0.0107,-0.01033 -0.0156,-0.01563 -0.005,-0.0053 -0.008,-0.0126 -0.0156,-0.01563 -0.005,-0.0024 -0.0115,0.0029 -0.0156,0 -0.0378,-0.02532 -0.0193,-0.03806 -0.0625,-0.04883 -0.0102,-0.0026 -0.023,0.0021 -0.0332,0 -0.0181,-0.0037 -0.06,-0.01916 -0.0781,-0.03125 -0.0234,-0.01587 -0.0151,-0.031 -0.0469,-0.04687 -0.009,-0.0045 -0.0234,0.0033 -0.0332,0 -0.0144,-0.0045 -0.018,-0.02445 -0.0312,-0.03125 -0.0147,-0.0076 -0.0306,-0.01185 -0.0469,-0.01563 -0.005,-0.0013 -0.0107,0.0024 -0.0156,0 -0.007,-0.0033 -0.0107,-0.01033 -0.0156,-0.01563 -0.0155,-0.0053 -0.0329,-0.01033 -0.0488,-0.01563 -0.007,-0.0033 -0.0107,-0.01033 -0.0156,-0.01563 -0.005,-0.0053 -0.0107,-0.01229 -0.0156,-0.01758 -0.0106,-0.01058 -0.0233,-0.0184 -0.0312,-0.03125 -0.009,-0.01436 -0.008,-0.03213 -0.0156,-0.04688 -0.003,-0.0068 -0.0126,-0.0092 -0.0156,-0.01562 -0.008,-0.01474 -0.007,-0.03258 -0.0156,-0.04688 -0.008,-0.01274 -0.0272,-0.01742 -0.0332,-0.03125 -0.006,-0.01466 0.003,-0.03334 0,-0.04883 -0.002,-0.01153 -0.0115,-0.0201 -0.0156,-0.03125 -0.002,-0.005 9.9e-4,-0.01052 0,-0.01563 -0.004,-0.01614 -0.0126,-0.03046 -0.0156,-0.04687 -0.003,-0.01557 0.004,-0.03156 0,-0.04687 -0.002,-0.0072 -0.009,-0.01229 -0.0137,-0.01758 -0.0106,-0.01051 -0.0272,-0.01742 -0.0332,-0.03125 -0.006,-0.01466 0,-0.03107 0,-0.04687 v -0.01563 c 0,-0.0053 -0.004,-0.01196 0,-0.01563 0.0249,-0.02479 0.0784,-0.01563 0.10937,-0.01563 z M 266.35352,35 c 0.002,-0.0016 0.0468,-0.0016 0.0488,0 0.004,0.0037 -0.002,0.01109 0,0.01563 0.003,0.0068 0.0107,0.01033 0.0156,0.01563 0.005,0.0053 0.01,0.01185 0.0156,0.01563 0.01,0.0064 0.0214,0.0092 0.0312,0.01563 0.0144,0.0094 0.0329,0.03988 0.0469,0.04687 0.005,0.0024 0.0127,0 0.0176,0 0.0106,0.01058 0.0226,0.02262 0.0332,0.0332 0.005,0.0029 0.009,-0.0024 0.0137,0 0.007,0.0033 0.008,0.01336 0.0156,0.01563 0.0102,0.0033 0.0271,-0.0098 0.0312,0 0.01,0.02457 0,0.05182 0,0.07813 -0.005,0.02116 -0.0137,0.04081 -0.0137,0.0625 0,0.0076 0.008,0.01185 0.0137,0.01563 0.01,0.0064 0.0234,0.01078 0.0332,0.01758 0.006,0.0042 0.009,0.01033 0.0137,0.01563 l 0.0312,0.03125 c 0.005,0.0053 0.0165,0.0092 0.0195,0.01563 0.002,0.0049 0,0.01033 0,0.01563 0,0.0053 0.005,0.01827 0,0.01563 -0.0136,-0.0068 -0.0207,-0.02489 -0.0332,-0.0332 -0.005,-0.0029 -0.0107,0.0024 -0.0156,0 -0.0723,-0.03628 0.0675,0.0069 -0.0469,-0.03125 -0.005,-0.0017 -0.0107,0.0017 -0.0156,0 -0.007,-0.0024 -0.042,-0.01764 -0.0469,-0.03125 -0.003,-0.0098 0.003,-0.023 0,-0.0332 -0.003,-0.01134 -0.0134,-0.01991 -0.0176,-0.03125 -0.002,-0.0049 0,-0.01033 0,-0.01563 0,-0.02457 0.004,-0.02911 -0.0312,-0.04687 -0.0193,-0.0098 -0.0413,-0.01033 -0.0625,-0.01563 -0.0106,-0.01058 -0.0207,-0.02293 -0.0332,-0.03125 -0.0136,-0.0091 -0.0482,0.0165 -0.0645,-0.01563 -0.003,-0.0057 0,-0.07097 0,-0.08008 v -0.04687 c 0,-0.0046 -0.002,-0.01002 0,-0.01367 z m 2.95312,0.236328 c 0.0106,0.02646 0.0241,0.05321 0.0332,0.08008 0.003,0.0094 0,0.08154 0,0.09375 0,0.0053 -0.002,0.01109 0,0.01563 0.003,0.0068 0.0126,0.0092 0.0156,0.01563 0.005,0.0094 -0.005,0.0861 0,0.0957 0.0246,0.04811 0.012,-0.02947 0.0312,0.04687 0.004,0.01512 0,0.031 0,0.04687 v 0.111329 c 0,0.01058 -0.003,0.02105 0,0.03125 0.0128,0.039 0.0469,0.0673 0.0469,0.111328 0,0.0053 0.003,0.01147 0,0.01563 -0.0359,0.05295 -0.0312,0.0098 -0.0312,0.04687 v 0.0625 0.01563 c 0,0.0053 0.003,0.01147 0,0.01563 -0.0117,0.01776 -0.0451,0.04726 -0.0625,0.06445 -0.0106,0.01058 -0.0272,0.01727 -0.0332,0.03125 -0.008,0.01965 0,0.04145 0,0.0625 v 0.158203 c 0,0.0037 0.002,0.05898 0,0.0625 -0.003,0.0068 -0.0137,0.0088 -0.0156,0.01563 -0.003,0.0098 0.003,0.023 0,0.0332 -0.003,0.01134 -0.0107,0.02067 -0.0156,0.03125 -0.0132,0.0257 -0.0263,0.04902 -0.0312,0.07813 -0.003,0.0155 0.004,0.03138 0,0.04687 -0.003,0.01172 -0.0523,0.04883 -0.0625,0.04883 -0.008,0 -0.0127,-0.01033 -0.0176,-0.01563 -0.005,-0.0053 -0.0137,-0.0104 -0.0156,-0.01758 -0.005,-0.02041 0,-0.04133 0,-0.0625 V 36.5625 c 0,-0.0053 0.002,-0.01109 0,-0.01563 -0.009,-0.01701 -0.0233,-0.01424 -0.0312,-0.03125 -0.004,-0.0083 0.005,-0.04191 0,-0.04883 -0.008,-0.01247 -0.0233,-0.01878 -0.0312,-0.03125 -0.003,-0.0045 0.002,-0.01109 0,-0.01563 -0.003,-0.0068 -0.0107,-0.01033 -0.0156,-0.01563 0,-0.0053 0.002,-0.01109 0,-0.01563 -0.009,-0.0189 -0.0398,-0.02798 -0.0488,-0.04687 -0.0208,-0.04244 -0.0156,-0.08183 -0.0156,-0.126953 v -0.01563 c 0,-0.0053 -0.002,-0.01109 0,-0.01563 0.003,-0.0064 0.064,-0.06201 0.0645,-0.0625 0.0106,-0.01058 0.0207,-0.02262 0.0312,-0.0332 0.0106,-0.01058 0.0204,-0.02331 0.0332,-0.03125 0.014,-0.0087 0.0325,-0.0073 0.0469,-0.01563 0.0128,-0.0076 0.0204,-0.02331 0.0332,-0.03125 0.0363,-0.02192 0.0428,-0.002 0.0625,-0.03125 0.0257,-0.03791 0.0137,-0.06866 0.0137,-0.111328 v -0.109376 c 0,-0.01058 0.003,-0.02105 0,-0.03125 -0.004,-0.01625 -0.01,-0.0325 -0.0137,-0.04883 -0.001,-0.0053 0,-0.01033 0,-0.01563 v -0.03125 -0.0625 c 0,-0.0155 -0.003,-0.07388 0,-0.08008 0.009,-0.01701 0.0241,-0.02911 0.0312,-0.04687 0.006,-0.01474 0,-0.031 0,-0.04687 z m 0.66406,0.236328 c 0.004,0.006 0.0137,0.0088 0.0156,0.01563 0.003,0.0098 0,0.02262 0,0.0332 0,0.04982 -9.2e-4,0.034 0.0469,0.09375 0.0231,0.02873 0.0547,0.05008 0.0781,0.07813 0.0125,0.01474 0.0226,0.03288 0.0332,0.04883 0.0106,0.01587 0.0241,0.02911 0.0312,0.04687 0.004,0.0098 0,0.02067 0,0.03125 v 0.01563 c 0,0.0053 0.004,0.01222 0,0.01562 -0.004,0.0037 -0.009,0 -0.0137,0 -0.008,0 -0.0752,0.0023 -0.0801,0 -0.007,-0.0033 -0.008,-0.0126 -0.0156,-0.01562 -0.0395,-0.02003 0.014,0.0604 -0.0469,-0.03125 -0.006,-0.0087 0.006,-0.02218 0,-0.03125 -0.008,-0.01247 -0.0222,-0.01916 -0.0312,-0.03125 -0.023,-0.03061 -0.0156,-0.04138 -0.0156,-0.08008 z m -2.21093,1.199219 c 0.005,-0.0024 0.0107,0 0.0156,0 0.0106,0 0.0234,-0.0033 0.0332,0 0.0314,0.01058 0.008,0.01424 0.0156,0.03125 0.003,0.0068 0.0126,0.01078 0.0156,0.01758 0.004,0.0087 -0.003,0.0649 0,0.07813 0.008,0.03742 0.0192,0.07309 0.0312,0.109375 0.004,0.01134 0.008,0.02489 0.0156,0.0332 0.0291,0.0291 0.071,0.03213 0.0801,0.07813 0.003,0.0155 0,0.031 0,0.04687 0,0.0053 0.002,0.01342 0,0.01758 -0.009,0.01814 -0.0344,0.0218 -0.0488,0.03125 -0.006,0.0042 -0.01,0.01147 -0.0156,0.01563 -0.01,0.0064 -0.0233,0.0073 -0.0312,0.01563 -0.004,0.0038 0.004,0.01222 0,0.01563 -0.004,0.0037 -0.0107,0 -0.0156,0 -0.005,0 -0.0107,0.0024 -0.0156,0 -0.0351,-0.01776 -0.005,-0.0093 -0.0156,-0.03125 -0.003,-0.0068 -0.01,-0.0096 -0.0137,-0.01563 -0.0744,-0.111722 0.095,0.10363 -0.0645,-0.0957 -0.0325,-0.04018 -10e-4,0.01662 -0.0332,-0.04687 -0.0306,-0.04603 -0.0137,0.0359 -0.0137,-0.07813 -0.0155,-0.02117 -0.0333,-0.04178 -0.0469,-0.06445 -0.003,-0.0045 0,-0.01033 0,-0.01563 V 36.7676 36.75197 c 0,-0.0053 -0.002,-0.01109 0,-0.01563 0.003,-0.0068 0.006,-0.0126 0.0137,-0.01563 0.005,-0.0024 0.0107,0.0024 0.0156,0 0.007,-0.0034 0.008,-0.01455 0.0156,-0.01758 0.0106,-0.0053 0.0489,0.01423 0.0469,-0.01563 0.006,-0.0042 0.008,-0.0126 0.0156,-0.01563 z m -1.58985,0.933594 c 0.0204,0.0093 0.0448,0.01387 0.0586,0.03125 0.01,0.01247 0,0.03138 0,0.04687 v 0.01172 c -0.028,-0.02136 -0.0407,-0.0592 -0.0586,-0.08984 z m 0.0606,0.09375 c 0.0798,0.05329 -9e-5,2.61e-4 0.0469,0.01563 0.0113,0.0038 0.0199,0.01222 0.0312,0.01563 0.0102,0.0034 0.0565,-0.0038 0.0625,0 0.0231,0.0155 0.0414,0.047 0.0645,0.0625 0.008,0.0057 0.042,0.01771 0.0469,0.0332 0.003,0.0102 -0.003,0.02142 0,0.03125 0.003,0.0072 0.0126,0.0088 0.0156,0.01563 0.002,0.0049 0,0.01033 0,0.01563 v 0.04687 c 0,0.01058 -0.002,0.023 0,0.0332 0.0166,0.08213 0.0101,0.01512 0.0312,0.07813 0.002,0.006 0.002,0.08739 0,0.0957 -0.002,0.0072 -0.018,0.04234 -0.0312,0.04687 -0.0147,0.0049 -0.031,0 -0.0469,0 h -0.0156 c -0.005,0 -0.009,0.0024 -0.0137,0 -0.007,-0.0034 -0.0107,-0.01033 -0.0156,-0.01563 l -0.0332,-0.0332 c -0.005,-0.0053 -0.0115,-0.0092 -0.0156,-0.01563 -0.0121,-0.02003 -0.0191,-0.04247 -0.0312,-0.0625 -0.004,-0.0064 -0.0126,-0.0088 -0.0156,-0.01563 -0.008,-0.02003 -0.008,-0.04404 -0.0156,-0.06445 -0.004,-0.01134 -0.0149,-0.01991 -0.0176,-0.03125 -0.003,-0.0102 0.003,-0.02105 0,-0.03125 -0.0253,-0.0895 -0.0351,-0.05924 -0.0469,-0.142578 -0.002,-0.0155 0,-0.031 0,-0.04687 z m 33.89453,1.876953 c 0.1056,0.211177 0.19807,0.300568 0.0625,0.503906 -0.062,0.0929 -0.19004,0.161006 -0.25195,0.253906 -0.0117,0.0175 0.009,0.0436 0,0.0625 -0.0133,0.02649 -0.0447,0.03869 -0.0625,0.0625 -0.46953,0.626079 0.10433,-0.124256 -0.18946,0.316407 -0.0165,0.02479 -0.0512,0.03604 -0.0644,0.0625 -0.0298,0.05953 0.0766,0.157705 -0.0625,0.189453 -0.0631,0.09468 -0.12633,0.06318 -0.18945,0.189453 -0.0189,0.03764 0,0.08485 0,0.126953 v 0.316406 c 0,0.06106 -0.009,0.358056 0,0.376953 0.0133,0.02646 0.036,0.05123 0.0625,0.06445 0.0192,0.0094 0.21029,0 0.2539,0 h 0.31446 c 0.0421,0 0.087,0.01323 0.12695,0 0.0447,-0.01485 0.0878,-0.03837 0.12695,-0.06445 0.0183,-0.01225 0.11593,-0.1228 0.125,-0.125 0.0612,-0.0155 0.12638,0 0.18946,0 0.021,-0.02105 0.036,-0.05122 0.0625,-0.06445 0.0188,-0.0094 0.0433,0 0.0644,0 h 0.31445 c 0.0421,0 0.0861,0.0102 0.12696,0 0.0457,-0.01141 0.0824,-0.04776 0.12695,-0.0625 0.04,-0.01323 0.0851,0.01323 0.125,0 0.0447,-0.01489 0.0823,-0.04776 0.12695,-0.0625 0.0199,-0.0068 0.0436,0.0094 0.0625,0 0.25055,-0.125299 -0.27767,-0.02063 0.25391,-0.126953 0.0619,-0.01247 0.12815,0.0155 0.18945,0 0.0646,-0.01614 0.12486,-0.04625 0.18945,-0.0625 0.0204,-0.0053 0.0421,0.0049 0.0625,0 0.0646,-0.01618 0.12487,-0.04625 0.18946,-0.0625 0.043,-0.01058 0.15506,0.01739 0.18945,0 0.0264,-0.0133 0.0413,-0.04329 0.0625,-0.06445 0.021,-0.02105 0.0493,-0.03604 0.0625,-0.0625 0.009,-0.01882 -0.009,-0.0436 0,-0.0625 0.0379,-0.07574 0.15155,-0.113674 0.18945,-0.189453 0.0298,-0.05953 0.0346,-0.129926 0.0645,-0.189453 0.0133,-0.02646 0.0413,-0.04329 0.0625,-0.06445 0.0371,-0.03715 0.23721,-0.222852 0.25195,-0.251953 0.009,-0.01886 0,-0.04134 0,-0.0625 0,-0.02101 0.009,-0.04556 0,-0.06445 -0.0133,-0.02649 -0.0534,-0.03415 -0.0625,-0.0625 -0.0132,-0.03995 0.0132,-0.08704 0,-0.126953 -0.009,-0.02835 -0.0413,-0.04133 -0.0625,-0.0625 -0.021,-0.02101 -0.0433,-0.04133 -0.0645,-0.0625 -0.20935,-0.209386 0.0304,0.05885 -0.0625,-0.126953 -0.062,-0.123931 -0.12006,-0.02773 -0.18946,-0.0625 -0.0264,-0.0133 -0.0341,-0.055 -0.0625,-0.06445 -0.0479,-0.01587 -0.3498,0.01928 -0.3789,0 -0.0496,-0.03303 -0.0774,-0.09212 -0.12696,-0.125 -0.0175,-0.01172 -0.0436,0.0094 -0.0625,0 -0.0264,-0.01334 -0.036,-0.05123 -0.0625,-0.06445 -0.0188,-0.0094 -0.0444,0.0068 -0.0645,0 -0.0447,-0.01485 -0.0794,-0.05116 -0.125,-0.0625 -0.0409,-0.0102 -0.0848,0 -0.12695,0 h -0.25196 -0.88476 c -0.12626,0 -0.25362,0.0155 -0.37891,0 -0.0861,-0.01077 -0.16774,-0.04133 -0.25195,-0.0625 z m -4.44141,7.957031 c -0.61333,0.161915 -1.21253,0.492377 -1.62695,0.980469 -0.28078,0.398445 -0.1543,0.99372 -0.63281,1.302734 l -0.0547,0.05078 c -0.26755,0.467511 -0.17974,1.110867 -0.59375,1.474609 -0.43175,0.413291 -0.21645,1.20788 -0.8418,1.425781 -0.39057,0.09434 -0.5235,0.895969 -0.71679,0.859375 0.0669,-0.531345 -0.10176,-1.152191 0.0859,-1.626953 0.0227,-0.535385 0.56627,-0.571439 0.8418,-0.833984 10e-4,-0.08512 0.35059,-0.363206 -0.0547,-0.296875 -0.54754,0.01474 -1.15634,-0.05745 -1.61328,0.314453 -0.42339,0.260901 -0.92244,0.310763 -1.375,0.507812 -0.5099,0.128618 -1.15311,0.365785 -0.93554,1.023438 -0.12609,0.445028 -0.33415,0.918832 -0.65821,1.269531 -0.44562,0.248277 -0.99043,0.385486 -1.34179,0.802734 -0.22753,0.218759 -0.82951,0.415281 -0.85938,0.544922 0.52475,0.06161 1.15535,-0.136399 1.45898,0.457031 0.0974,0.123434 0.25248,0.168497 0.41602,0.201172 A 19.821428,19.821428 0 0 0 294.05469,54.25 c -0.0514,-0.151616 -0.0998,-0.30498 -0.15821,-0.451172 -0.0382,-0.378561 -0.17229,-1.604771 0.46485,-1.021484 0.25767,0.332395 0.54963,0.657864 0.57031,1.074218 a 19.821428,19.821428 0 0 0 1.87305,-1.105468 c -0.12685,-0.208059 -0.32879,-0.357301 -0.61914,-0.353516 -0.43365,0.09025 -1.01024,-0.173202 -1.12696,-0.59375 -0.14196,-0.58919 0.40425,-0.762329 0.86329,-0.683594 0.3508,-0.453426 -0.19332,-1.107614 -0.53321,-1.347656 0.0714,-0.427105 -0.17031,-0.97828 0.20703,-1.294922 0.36609,-0.136252 0.67437,-0.987147 0.0879,-0.939453 z"
         style="fill:#05adee;fill-opacity:1;stroke:none;stroke-width:1px;stroke-linecap:butt;stroke-linejoin:miter;stroke-opacity:1"
         inkscape:connector-curvature="0" />
      <path
         id="path1318"
         transform="scale(0.26458333)"
         d="m 282.8457,16.642578 a 19.821428,19.821428 0 0 0 -0.85351,0.158203 c -0.01,0.0067 -0.0195,0.01301 -0.0293,0.01953 0.1519,0.216549 0.36189,-0.04331 0.53516,0 0.48591,0.121478 0.0567,0.09741 0.71484,0.179688 0.0886,0.01107 0.18175,-0.02453 0.26758,0 0.12797,0.03655 0.23837,0.118211 0.35742,0.177734 0.0595,0.02974 0.12237,0.05292 0.17773,0.08984 0.0351,0.02336 0.0498,0.07653 0.0899,0.08984 0.3168,0.105604 0.0455,-0.146088 0.35742,0.08789 0.0673,0.05051 0.10771,0.132992 0.17773,0.179688 0.0234,0.01542 0.0579,-0.0075 0.084,0 -0.0359,-0.02472 -0.0709,-0.05079 -0.084,-0.08984 -0.12887,-0.386573 0.17212,0.03254 -0.0879,-0.357422 -0.14808,-0.222092 -0.0215,-0.01081 -0.17968,-0.08984 -0.0374,-0.01882 -0.048,-0.07458 -0.0879,-0.08789 -0.0565,-0.01882 -0.12194,0.01444 -0.17969,0 -0.43116,-0.107788 0.005,-0.04355 -0.26758,-0.179688 -0.0842,-0.04209 -0.17626,-0.06506 -0.26758,-0.08789 -0.0287,-0.0072 -0.0632,0.0133 -0.0898,0 -0.0378,-0.01882 -0.0499,-0.07652 -0.0899,-0.08984 -0.0508,-0.01693 -0.36121,0 -0.44531,0 z m 1.87891,0.982422 0.002,0.002 c 0.0367,0.02525 0.075,0.04829 0.0937,0.08594 -0.0299,-0.02978 -0.0524,-0.06907 -0.0898,-0.08789 -0.002,-8.68e-4 -0.004,5.25e-4 -0.006,0 z m 0.0957,0.08789 c 0.0132,0.02661 -0.0212,0.06879 0,0.08984 0.0212,0.02105 0.0899,-0.02975 0.0899,0 0,-0.04209 -0.06,-0.0601 -0.0899,-0.08984 z m 0.0899,0.08984 c 0,0.04209 -0.11966,0.0601 -0.0899,0.08984 0.0299,0.02974 0.0899,-0.04775 0.0899,-0.08984 z m -6.86719,3.617188 c -0.10525,0.0086 -0.18714,0.115217 -0.1875,0.24414 -2.5e-4,0.135956 0.0899,0.246282 0.20117,0.246094 0.11124,1.88e-4 0.20142,-0.110138 0.20117,-0.246094 -6.3e-4,-0.135191 -0.0906,-0.244329 -0.20117,-0.24414 -0.005,-1.9e-4 -0.009,-1.9e-4 -0.0137,0 z m 0.52734,0.980469 c -0.0605,-0.01009 -0.12016,0.03001 -0.17969,0.04492 0.0147,0.05952 0.0223,0.122719 0.0449,0.179688 0.008,0.01954 0.0302,0.03001 0.0449,0.04492 0.0147,0.01489 0.0303,0.02808 0.0449,0.04297 10e-4,0.0013 0.15975,0.170677 0.17773,0.179687 0.0132,0.0067 0.0302,0 0.0449,0 0.0147,0 0.0344,0.01051 0.0449,0 0.0106,-0.01051 0,-0.03001 0,-0.04492 0,-0.08795 7.5e-4,-0.13042 -0.0449,-0.222656 -0.009,-0.01882 -0.0355,-0.02608 -0.0449,-0.04492 -0.007,-0.0133 0.007,-0.03159 0,-0.04492 -0.009,-0.01882 -0.0283,-0.03001 -0.043,-0.04492 -0.0299,-0.02975 -0.0484,-0.08293 -0.0899,-0.08984 z m -1.5332,0.134765 c -0.11789,0.0083 -0.20949,0.116156 -0.20899,0.246094 7e-4,0.135662 0.10128,0.244991 0.22461,0.244141 0.12257,-3.33e-4 0.22196,-0.109318 0.22266,-0.244141 2.8e-4,-0.135586 -0.0994,-0.245758 -0.22266,-0.246094 -0.005,-2e-4 -0.0104,-2e-4 -0.0156,0 z m -0.73633,0.982422 c -0.0592,0.0083 -0.0993,0.03569 -0.0977,0.06641 6.1e-4,0.03693 0.0609,0.06664 0.13477,0.06641 0.0739,2.33e-4 0.13416,-0.02948 0.13477,-0.06641 -6.1e-4,-0.03693 -0.0609,-0.06664 -0.13477,-0.06641 -0.008,-3.43e-4 -0.0156,-3.43e-4 -0.0234,0 -0.005,-1.16e-4 -0.009,-1.16e-4 -0.0137,0 z m -0.63281,1.160156 c 0.0744,0.02974 0.1456,0.06782 0.22265,0.08984 0.0276,0.0079 0.19317,0 0.22461,0 0.0517,0 0.18279,0.01002 0.22266,0 0.0321,-0.0081 0.075,-0.01515 0.0898,-0.04492 0.009,-0.01882 -0.0261,-0.03549 -0.0449,-0.04492 -0.0136,-0.0068 -0.14884,0 -0.17969,0 h -0.043 -0.13477 z m -6.39649,14.107422 c -0.47196,0.0016 -0.59679,0.755436 -1.06836,0.757813 -0.1672,0.122533 -0.53289,0.460855 -0.56445,0.642578 -4.1e-4,0.88856 0.12753,0.927337 0.12695,1.814453 -0.12294,0.285719 -0.40298,0.361069 -0.64453,0.505859 a 19.821428,19.821428 0 0 0 0.55079,1.457032 c 0.11664,-0.436084 0.32628,-0.84932 0.49414,-1.25 0.0102,-0.04622 0.046,-0.08071 0.0762,-0.117188 -0.009,-0.101972 0.0528,-0.232834 0.10547,-0.28125 -0.0151,-0.0155 -0.0299,-0.03139 -0.0449,-0.04687 -0.23822,-0.02608 0.0406,-0.426813 0.041,-0.583984 0.19317,-0.240416 0.66981,-0.09899 0.5,-0.554688 0.12582,-0.452356 -0.43653,-0.521795 -0.27734,-0.966797 -0.0775,-0.475744 0.4786,-0.792536 0.85351,-0.929687 0.37625,-0.09468 0.19286,-0.573887 -0.14844,-0.447266 z m -0.92382,3.529297 c 0.0166,0.01663 0.034,0.03212 0.0508,0.04883 -0.005,-0.05681 -0.0211,-0.07612 -0.0508,-0.04883 z m 0.0508,0.04883 c 0.002,0.02873 0.009,0.04391 -0.002,0.103516 -0.0147,0.825827 3.5e-4,1.652932 -0.006,2.478515 -0.0751,0.10534 -0.0943,0.234081 -0.0996,0.369141 a 19.821428,19.821428 0 0 0 2.02343,3.148438 c 0.32942,-0.284903 0.2281,-0.798268 0.1836,-1.175782 -0.30656,-0.0257 -0.5311,-0.51125 -0.85547,-0.644531 -0.17802,-0.247408 -0.22546,-0.554299 -0.17969,-0.892578 -0.16301,-0.163691 -0.0352,-0.439636 -0.2832,-0.576172 0.11886,-0.416647 0.5307,-0.546597 0.82226,-0.757812 0.34413,-0.253531 0.11684,-0.720178 -0.13476,-0.945313 -0.26272,-0.183383 -0.44163,-0.443195 -0.81055,-0.439453 -0.21279,-0.229228 -0.43726,-0.446855 -0.6582,-0.667969 z m -0.15625,0.232422 c 2.1e-4,0.0025 -0.002,0.0052 -0.002,0.0078 0.11445,-0.122268 0.0619,-0.08031 0.002,-0.0078 z m -0.52149,1.390625 c 2.3e-4,-0.0055 -0.0217,0.01585 -0.0293,0.01953 a 19.821428,19.821428 0 0 0 0.01,0.02148 c 0.006,-0.01259 0.0193,-0.03557 0.0195,-0.04102 z"
         style="fill:#05adee;fill-opacity:1;stroke:none;stroke-width:1px;stroke-linecap:butt;stroke-linejoin:miter;stroke-opacity:1"
         inkscape:connector-curvature="0" />
    </g>
  </g>
</svg>
