<?xml version="1.0" encoding="UTF-8" standalone="no"?>
<svg
   width="48"
   height="48"
   viewBox="0 0 12.699752 12.699752"
   version="1.1"
   id="svg15"
   sodipodi:docname="preferences-color.svg"
   inkscape:version="1.3.2 (091e20ef0f, 2023-11-25)"
   xmlns:inkscape="http://www.inkscape.org/namespaces/inkscape"
   xmlns:sodipodi="http://sodipodi.sourceforge.net/DTD/sodipodi-0.dtd"
   xmlns="http://www.w3.org/2000/svg"
   xmlns:svg="http://www.w3.org/2000/svg">
  <defs
     id="defs15" />
  <sodipodi:namedview
     id="namedview15"
     pagecolor="#ffffff"
     bordercolor="#999999"
     borderopacity="1"
     inkscape:showpageshadow="2"
     inkscape:pageopacity="0"
     inkscape:pagecheckerboard="0"
     inkscape:deskcolor="#d1d1d1"
     inkscape:zoom="6.2265625"
     inkscape:cx="23.769134"
     inkscape:cy="29.952321"
     inkscape:window-width="1920"
     inkscape:window-height="994"
     inkscape:window-x="0"
     inkscape:window-y="0"
     inkscape:window-maximized="1"
     inkscape:current-layer="svg15" />
  <g
     id="g16"
     transform="matrix(0.77777099,0,0,0.77777099,-0.23501553,-0.23512084)">
    <g
       stroke-width="0.963"
       id="g12">
      <path
         fill="#46a926"
         d="m 13.323,3.603 c -0.048,0.049 2.02,4.86 2.02,4.86 l -2.02,4.858 c 0,0 -4.86,-2.568 -4.86,-4.859 0,-2.29 4.86,-4.859 4.86,-4.859 z"
         style="isolation:isolate"
         transform="matrix(1.0382,0,0,1.0384,-0.322,-0.322)"
         id="path1" />
      <path
         fill="#f22c42"
         d="M 3.604,13.321 C 3.653,13.272 1.584,8.462 1.584,8.462 l 2.02,-4.859 c 0,0 4.86,2.569 4.86,4.86 0,2.29 -4.86,4.858 -4.86,4.858 z"
         style="isolation:isolate"
         transform="matrix(1.0382,0,0,1.0384,-0.322,-0.322)"
         id="path2" />
      <path
         fill="#ffda64"
         d="M 13.323,3.603 C 13.275,3.652 8.463,1.584 8.463,1.584 l -4.86,2.019 4.86,4.86 z"
         style="isolation:isolate"
         transform="matrix(1.0382,0,0,1.0384,-0.322,-0.322)"
         id="path3" />
      <path
         fill="#2f5fdd"
         d="m 3.604,13.321 4.86,2.013 c 0,0 4.81,-2.062 4.86,-2.013 L 8.464,8.462 Z"
         style="isolation:isolate"
         transform="matrix(1.0382,0,0,1.0384,-0.322,-0.322)"
         id="path4" />
      <path
         fill="#a6d74f"
         d="m 8.464,1.587 a 6.846,6.846 0 0 0 2.019,4.862 L 13.328,3.605 A 6.88,6.88 0 0 0 8.467,1.587 Z"
         style="isolation:isolate"
         transform="matrix(1.0382,0,0,1.0384,-0.322,-0.322)"
         id="path5" />
      <path
         fill="#76c22b"
         d="M 13.328,3.605 10.483,6.449 A 6.84,6.84 0 0 0 15.346,8.461 6.88,6.88 0 0 0 13.328,3.605 Z"
         style="isolation:isolate"
         transform="matrix(1.0382,0,0,1.0384,-0.322,-0.322)"
         id="path6" />
      <path
         fill="#1463a5"
         d="m 10.476,10.481 a 6.85,6.85 0 0 0 -2.019,4.862 h 0.069 a 6.88,6.88 0 0 0 4.8,-2.013 z"
         style="isolation:isolate"
         transform="matrix(1.0382,0,0,1.0384,-0.322,-0.322)"
         id="path7" />
      <path
         fill="#2b898f"
         d="m 15.346,8.469 a 6.84,6.84 0 0 0 -4.87,2.012 l 2.85,2.85 a 6.88,6.88 0 0 0 2.02,-4.862 z"
         style="isolation:isolate"
         transform="matrix(1.0382,0,0,1.0384,-0.322,-0.322)"
         id="path8" />
      <path
         fill="#9b33ae"
         d="m 1.587,8.463 a 6.88,6.88 0 0 0 0,0.003 6.88,6.88 0 0 0 2.014,4.857 l 2.85,-2.848 A 6.839,6.839 0 0 0 1.587,8.464 Z"
         style="isolation:isolate"
         transform="matrix(1.0382,0,0,1.0384,-0.322,-0.322)"
         id="path9" />
      <path
         fill="#7839b7"
         d="M 6.45,10.475 3.6,13.323 a 6.88,6.88 0 0 0 4.826,2.02 H 8.469 A 6.85,6.85 0 0 0 6.45,10.475 Z"
         style="isolation:isolate"
         transform="matrix(1.0382,0,0,1.0384,-0.322,-0.322)"
         id="path10" />
      <path
         fill="#fdc92b"
         d="M 8.467,1.587 A 6.88,6.88 0 0 0 3.609,3.602 l 2.848,2.847 a 6.85,6.85 0 0 0 2.019,-4.861 6.88,6.88 0 0 0 -0.01,0 z"
         style="isolation:isolate"
         transform="matrix(1.0382,0,0,1.0384,-0.322,-0.322)"
         id="path11" />
      <path
         fill="#f34f17"
         d="M 3.609,3.602 A 6.88,6.88 0 0 0 1.588,8.461 6.84,6.84 0 0 0 6.457,6.449 Z"
         style="isolation:isolate"
         transform="matrix(1.0382,0,0,1.0384,-0.322,-0.322)"
         id="path12" />
    </g>
    <circle
       cx="8.4659996"
       cy="8.4659996"
       r="5.2919998"
       fill="#ffffff"
       opacity="0.35"
       style="paint-order:fill markers stroke"
       id="circle12" />
    <g
       fill="#ffffff"
       color="#000000"
       id="g15">
      <path
         d="m 9.59,9.589 a 1.588,1.588 0 0 1 -2.246,0 1.588,1.588 0 0 1 0,-2.245 1.588,1.588 0 0 1 2.245,0 1.588,1.588 0 0 1 0,2.245 z"
         opacity="0.5"
         overflow="visible"
         style="isolation:auto;mix-blend-mode:normal;paint-order:fill markers stroke"
         id="path13" />
      <path
         d="M 8.467,4.031 A 0.126,0.126 0 0 0 8.379,4.069 L 6.277,6.171 a 3.175,3.175 0 0 0 -0.056,0.05 3.175,3.175 0 0 0 0,4.49 3.175,3.175 0 0 0 4.49,0 3.175,3.175 0 0 0 10e-4,-4.49 3.175,3.175 0 0 0 -0.076,-0.07 C 10.632,6.146 10.631,6.141 10.626,6.136 L 8.559,4.069 A 0.126,0.126 0 0 0 8.467,4.031 Z M 8.49,6.879 a 1.588,1.588 0 0 1 1.1,0.465 1.588,1.588 0 0 1 0,2.245 1.588,1.588 0 0 1 -2.246,0 1.588,1.588 0 0 1 0,-2.245 1.588,1.588 0 0 1 1.146,-0.465 z"
         overflow="visible"
         style="isolation:auto;mix-blend-mode:normal;paint-order:fill markers stroke"
         id="path14" />
      <path
         d="M 9.022,7.718 8.461,8.279 7.9,7.718 7.712,7.905 8.274,8.466 7.724,9.039 7.9,9.215 8.46,8.653 9.022,9.215 9.221,9.039 8.648,8.466 9.209,7.906 Z"
         overflow="visible"
         style="isolation:auto;mix-blend-mode:normal;paint-order:fill markers stroke"
         id="path15" />
    </g>
  </g>
</svg>
