<?xml version="1.0" encoding="UTF-8" standalone="no"?>
<svg
   width="48"
   height="48"
   version="1.1"
   id="svg7"
   sodipodi:docname="panel.svg"
   inkscape:version="1.3.2 (091e20ef0f, 2023-11-25)"
   xmlns:inkscape="http://www.inkscape.org/namespaces/inkscape"
   xmlns:sodipodi="http://sodipodi.sourceforge.net/DTD/sodipodi-0.dtd"
   xmlns="http://www.w3.org/2000/svg"
   xmlns:svg="http://www.w3.org/2000/svg">
  <defs
     id="defs7" />
  <sodipodi:namedview
     id="namedview7"
     pagecolor="#ffffff"
     bordercolor="#999999"
     borderopacity="1"
     inkscape:showpageshadow="2"
     inkscape:pageopacity="0"
     inkscape:pagecheckerboard="0"
     inkscape:deskcolor="#d1d1d1"
     inkscape:zoom="6.2265625"
     inkscape:cx="31.959849"
     inkscape:cy="22.082811"
     inkscape:window-width="1920"
     inkscape:window-height="994"
     inkscape:window-x="0"
     inkscape:window-y="0"
     inkscape:window-maximized="1"
     inkscape:current-layer="svg7" />
  <g
     id="g8"
     transform="matrix(0.77777776,0,0,0.77777776,-0.88888832,-0.88888832)">
    <path
       fill="#f0f0f0"
       d="M 32,5 A 27,27 0 0 0 5,32 27,27 0 0 0 8.945,46.002 H 55.047 A 27,27 0 0 0 59,32 27,27 0 0 0 32,5 Z"
       style="paint-order:stroke fill markers"
       id="path1" />
    <path
       fill="#666666"
       d="M 8.945,46.002 A 27,27 0 0 0 32,59 27,27 0 0 0 55.047,46.002 Z"
       style="paint-order:stroke markers fill"
       id="path2" />
    <path
       d="m 21,48 a 3,3 0 0 0 -3,3 3,3 0 0 0 3,3 3,3 0 0 0 3,-3 3,3 0 0 0 -3,-3 z m 0,1 a 2,2 0 0 1 2,2 2,2 0 0 1 -2,2 2,2 0 0 1 -2,-2 2,2 0 0 1 2,-2 z"
       opacity="0.35"
       style="paint-order:fill markers stroke"
       id="path3" />
    <rect
       width="4"
       height="4"
       x="29"
       y="49"
       opacity="0.35"
       rx="1"
       ry="1"
       style="paint-order:fill markers stroke"
       id="rect3" />
    <rect
       width="4"
       height="4"
       x="35"
       y="49"
       opacity="0.35"
       rx="1"
       ry="1"
       style="paint-order:fill markers stroke"
       id="rect4" />
    <rect
       width="4"
       height="4"
       x="41"
       y="49"
       opacity="0.35"
       rx="1"
       ry="1"
       style="paint-order:fill markers stroke"
       id="rect5" />
    <path
       fill="#cccccc"
       d="M 32.002,14.502 A 13.002,13.002 0 0 0 19,27.504 13.002,13.002 0 0 0 32.002,40.502 13.002,13.002 0 0 0 45.004,27.5 13.002,13.002 0 0 0 32.002,14.498 Z m 0,5.265 a 7.733,7.733 0 0 1 7.733,7.733 7.733,7.733 0 0 1 -7.733,7.73 7.733,7.733 0 0 1 -7.733,-7.73 7.733,7.733 0 0 1 7.733,-7.733 z"
       opacity="0.15"
       style="paint-order:stroke markers fill"
       id="path5" />
    <g
       fill="#cccccc"
       style="paint-order:stroke markers fill"
       id="g7">
      <path
         d="M 32.002,16.503 A 10.999,10.999 0 0 0 21.003,27.5 10.999,10.999 0 0 0 32.002,38.503 10.999,10.999 0 0 0 43,27.505 10.999,10.999 0 0 0 32,16.506 Z m 0,5 A 5.998,5.998 0 0 1 38,27.505 5.998,5.998 0 0 1 32.002,33.503 5.998,5.998 0 0 1 26,27.505 5.998,5.998 0 0 1 32.002,21.503 Z"
         id="path6" />
      <path
         d="m 30.002,12.005 h 4 v 7 h -4 z m 0,24 h 4 v 7 h -4 z m 17.5,-10.5 v 4 h -7 v -4 z m -24,0 v 4 h -7 v -4 z m 20.87,11.547 -2.822,2.828 -4.951,-4.95 2.827,-2.828 z m -16.97,-16.97 -2.823,2.827 -4.952,-4.951 2.828,-2.827 z m -4.947,19.797 -2.828,-2.827 4.952,-4.95 2.827,2.826 z m 16.97,-16.97 -2.827,-2.827 4.951,-4.951 2.827,2.827 z"
         id="path7" />
    </g>
  </g>
</svg>
