<?xml version="1.0" encoding="UTF-8" standalone="no"?>
<svg
   width="48"
   height="48"
   version="1.1"
   id="svg49"
   sodipodi:docname="android-file-transfer.svg"
   inkscape:version="1.2.1 (9c6d41e410, 2022-07-14)"
   xmlns:inkscape="http://www.inkscape.org/namespaces/inkscape"
   xmlns:sodipodi="http://sodipodi.sourceforge.net/DTD/sodipodi-0.dtd"
   xmlns="http://www.w3.org/2000/svg"
   xmlns:svg="http://www.w3.org/2000/svg"
   xmlns:rdf="http://www.w3.org/1999/02/22-rdf-syntax-ns#"
   xmlns:cc="http://creativecommons.org/ns#"
   xmlns:dc="http://purl.org/dc/elements/1.1/">
  <sodipodi:namedview
     id="namedview51"
     pagecolor="#ffffff"
     bordercolor="#666666"
     borderopacity="1.0"
     inkscape:showpageshadow="2"
     inkscape:pageopacity="0.0"
     inkscape:pagecheckerboard="0"
     inkscape:deskcolor="#d1d1d1"
     showgrid="false"
     inkscape:zoom="7.375"
     inkscape:cx="31.728814"
     inkscape:cy="31.050847"
     inkscape:window-width="1920"
     inkscape:window-height="1011"
     inkscape:window-x="0"
     inkscape:window-y="0"
     inkscape:window-maximized="1"
     inkscape:current-layer="svg49" />
  <metadata
     id="metadata2">
    <rdf:RDF>
      <cc:Work
         rdf:about="">
        <dc:format>image/svg+xml</dc:format>
        <dc:type
           rdf:resource="http://purl.org/dc/dcmitype/StillImage" />
      </cc:Work>
    </rdf:RDF>
  </metadata>
  <defs
     id="defs19">
    <linearGradient
       id="b"
       x1="24"
       x2="24"
       y1="26"
       y2="44"
       gradientTransform="matrix(1.5,0,0,1.5,-4,-4)"
       gradientUnits="userSpaceOnUse">
      <stop
         stop-color="#009632"
         offset="0"
         id="stop4"
         style="stop-color:#008080;stop-opacity:1" />
      <stop
         stop-color="#00783c"
         offset="1"
         id="stop6"
         style="stop-color:#00d455;stop-opacity:1" />
    </linearGradient>
    <filter
       id="c"
       x="-0.054049861"
       y="-0.067422114"
       width="1.1080997"
       height="1.1348442"
       color-interpolation-filters="sRGB">
      <feGaussianBlur
         stdDeviation="1.0109576"
         id="feGaussianBlur9" />
    </filter>
    <linearGradient
       id="linearGradient1005-6"
       x1="0.73910999"
       x2="16.388"
       y1="16.296"
       y2="0.64687002"
       gradientTransform="matrix(3.6006065,0,0,3.5846499,1.4691576,1.6258415)"
       gradientUnits="userSpaceOnUse">
      <stop
         stop-color="#cfdef0"
         offset="0"
         id="stop12"
         style="stop-color:#ffff00;stop-opacity:1" />
      <stop
         stop-color="#f5faff"
         offset="0.53725457"
         id="stop14"
         style="stop-color:#aed7ff;stop-opacity:1;" />
      <stop
         stop-color="#f5faff"
         offset="1"
         id="stop16"
         style="stop-color:#ffb380;stop-opacity:1" />
    </linearGradient>
  </defs>
  <g
     transform="matrix(3.7796,0,0,3.7796,-82.522,3.3896)"
     image-rendering="optimizeSpeed"
     stroke-width="0.26458"
     id="g29">
    <circle
       cx="-330.35001"
       cy="-328.38"
       r="0"
       id="circle21" />
    <circle
       cx="-312.10999"
       cy="-326.25"
       r="0"
       id="circle23" />
    <circle
       cx="-306.01999"
       cy="-333.07001"
       r="0"
       id="circle25" />
    <circle
       cx="-308.84"
       cy="-326.01001"
       r="0"
       id="circle27" />
  </g>
  <path
     d="m 45,23.999926 c 0,2.517472 -0.443121,4.931142 -1.255716,7.167977 -0.564863,1.554837 -1.307942,3.024764 -2.206317,4.384505 -0.376277,0.571685 -0.780838,1.123779 -1.210286,1.654377 -1.374858,1.697912 -3.008645,3.176589 -4.842837,4.376735 -0.675433,0.442295 -1.37745,0.846858 -2.104256,1.209388 C 30.558211,44.205428 27.371977,45 23.999967,45 20.628098,45 17.441862,44.205428 14.619345,42.792834 13.89247,42.430234 13.189606,42.025708 12.514185,41.58345 10.656747,40.367137 9.0033622,38.86529 7.6173717,37.139232 7.1871274,36.604384 6.7833287,36.047236 6.407082,35.470369 5.5327892,34.133236 4.8085748,32.690614 4.2548796,31.165805 3.442396,28.929521 3,26.516633 3,23.999926 3,12.40167 12.401623,3 23.999823,3 c 5.821786,0 11.089312,2.3691424 14.893779,6.195327 1.096261,1.102216 2.070932,2.326372 2.900355,3.64965 0.784345,1.246348 1.439959,2.581732 1.949977,3.986486 0.81276,2.237121 1.255786,4.65086 1.255786,7.167979 z"
     image-rendering="optimizeSpeed"
     stroke-width="0.0820329"
     id="path31"
     style="fill:#37c8ab;fill-opacity:1" />
  <g
     transform="matrix(0.68429335,0,0,0.6738457,2.0730677,3.2069896)"
     id="g41">
    <path
       d="m 45.436,24.81 c -0.47961,0.03323 -0.93367,0.29824 -1.1934,0.74805 l -5.2422,9.082 c -2.0641,-0.5337 -4.3642,-0.84766 -6.959,-0.84766 -2.5948,0 -4.893,0.31396 -6.957,0.84766 l -5.2422,-9.082 c -0.31162,-0.53985 -0.90426,-0.81103 -1.4844,-0.73828 -0.19338,0.024 -0.38649,0.0861 -0.56641,0.18945 -0.71966,0.4155 -0.96237,1.3291 -0.54688,2.0488 l 4.9297,8.5391 c -7.3847,3.0509 -10.893,9.4478 -12.576,15.045 a 30,30 0 0 0 22.443,10.15 30,30 0 0 0 22.447,-10.139 c -1.6818,-5.5998 -5.1896,-12.003 -12.578,-15.057 l 4.9316,-8.5391 c 0.4155,-0.7197 0.16889,-1.6333 -0.55078,-2.0488 -0.26987,-0.15581 -0.5677,-0.21915 -0.85547,-0.19922 z"
       opacity="0.1"
       stroke-opacity="0.55"
       stroke-width="2.8"
       id="path33" />
    <path
       d="m 45.395,26.018 c -0.47961,0.03323 -0.93367,0.29824 -1.1934,0.74805 l -5.2422,9.082 c -2.0641,-0.5337 -4.3642,-0.84766 -6.959,-0.84766 -2.5948,0 -4.893,0.31396 -6.957,0.84766 l -5.2422,-9.082 c -0.31162,-0.53985 -0.90426,-0.81103 -1.4844,-0.73828 -0.19338,0.024 -0.38649,0.0861 -0.56641,0.18945 -0.71966,0.4155 -0.96237,1.3291 -0.54688,2.0488 l 4.9297,8.5391 c -7.3847,3.0509 -10.893,9.4478 -12.576,15.045 a 30,30 0 0 0 22.443,10.15 30,30 0 0 0 22.447,-10.139 c -1.6818,-5.5998 -5.1896,-12.003 -12.578,-15.057 l 4.9316,-8.5391 c 0.4155,-0.7197 0.16889,-1.6333 -0.55078,-2.0488 -0.26987,-0.15581 -0.5677,-0.21915 -0.85547,-0.19922 z"
       stroke-opacity="0.55"
       stroke-width="2.8"
       id="path35"
       style="fill:url(#b)" />
    <circle
       cx="23"
       cy="50"
       r="3"
       id="circle37" />
    <circle
       cx="41"
       cy="50"
       r="3"
       id="circle39" />
  </g>
  <g
     transform="matrix(0.7487839,0,0,0.74878753,-0.23971333,-0.37013871)"
     stroke-opacity="0.55"
     stroke-width="2.8"
     id="g47"
     style="fill:#f3f300;fill-opacity:1">
    <rect
       x="24.871"
       y="14"
       width="5"
       height="10"
       opacity="1.0"
       id="rect43"
       style="opacity:1;fill:#b8b800;fill-opacity:1" />
    <rect
       x="34.870998"
       y="14"
       width="5"
       height="10"
       opacity="1.0"
       id="rect45"
       style="opacity:1;fill:#b3b300;fill-opacity:1" />
  </g>
</svg>
