<?xml version="1.0" encoding="UTF-8" standalone="no"?>
<svg
   version="1"
   width="48"
   height="48"
   id="svg22"
   sodipodi:docname="atom.svg"
   inkscape:version="1.2.1 (9c6d41e410, 2022-07-14)"
   xmlns:inkscape="http://www.inkscape.org/namespaces/inkscape"
   xmlns:sodipodi="http://sodipodi.sourceforge.net/DTD/sodipodi-0.dtd"
   xmlns:xlink="http://www.w3.org/1999/xlink"
   xmlns="http://www.w3.org/2000/svg"
   xmlns:svg="http://www.w3.org/2000/svg">
  <sodipodi:namedview
     id="namedview24"
     pagecolor="#ffffff"
     bordercolor="#666666"
     borderopacity="1.0"
     inkscape:showpageshadow="2"
     inkscape:pageopacity="0.0"
     inkscape:pagecheckerboard="0"
     inkscape:deskcolor="#d1d1d1"
     showgrid="false"
     inkscape:zoom="4.9166667"
     inkscape:cx="24"
     inkscape:cy="24.101695"
     inkscape:window-width="1920"
     inkscape:window-height="1000"
     inkscape:window-x="0"
     inkscape:window-y="0"
     inkscape:window-maximized="1"
     inkscape:current-layer="svg22" />
  <defs
     id="defs8">
    <linearGradient
       id="linearGradient4167">
      <stop
         style="stop-color:#009467;stop-opacity:1"
         offset="0"
         id="stop2" />
      <stop
         style="stop-color:#87d770;stop-opacity:1"
         offset="1"
         id="stop4" />
    </linearGradient>
    <linearGradient
       xlink:href="#linearGradient4167"
       id="linearGradient4161"
       x1="-44"
       y1="-24"
       x2="-4"
       y2="-24"
       gradientUnits="userSpaceOnUse"
       gradientTransform="matrix(1.0499999,0,0,1.0499999,1.2,1.2)" />
  </defs>
  <rect
     style="fill:url(#linearGradient4161);fill-opacity:1;stroke-width:1.05"
     ry="20.999994"
     rx="20.999994"
     transform="matrix(0,-1,-1,0,0,0)"
     height="41.999989"
     width="41.999989"
     y="-45.000004"
     x="-45"
     id="rect10" />
  <path
     d="M 3.0122845,23.475 C 3.00798,23.650345 3,23.8236 3,24 3,35.634 12.366,45 24,45 35.634,45 45,35.634 45,24 45,23.8236 44.9919,23.650345 44.9874,23.475 44.7102,34.8633 35.4576,43.95 24,43.95 12.5424,43.95 3.2898,34.8633 3.0126,23.475 Z"
     style="opacity:0.15;stroke-width:1.05"
     id="path12" />
  <path
     style="fill:#ffffff;stroke-width:1.05"
     d="m 24.535455,22.943364 c -0.8694,0 -1.575,0.709706 -1.575,1.579106 0,0.8694 0.7056,1.575 1.575,1.575 0.8694,0 1.575,-0.7056 1.575,-1.575 0,-0.8694 -0.7056,-1.579106 -1.575,-1.579106 z"
     id="path14" />
  <path
     style="fill:none;stroke:#ffffff;stroke-width:1.05px;stroke-linecap:round;stroke-linejoin:round;stroke-opacity:1"
     d="m 33.975,27.675 c 0,0 3.194087,-1.13536 3.15,-3.15 -0.07969,-3.641183 -9.706142,-5.17837 -13.125,-5.25 -7.423695,-0.155526 -12.948014,1.425855 -13.125,4.2 -0.176986,2.774145 3.15,3.15 3.15,3.15"
     id="path16" />
  <path
     d="m 30.825,17.175 c 0,0 1.176884,-3.955366 -0.589877,-4.9245 -3.193206,-1.751581 -9.337677,5.922065 -11.109142,8.847071 -3.846532,6.351354 -5.239176,11.926237 -2.925194,13.466592 C 18.51478,36.104509 20.325,33.975 20.325,33.975"
     style="fill:none;stroke:#ffffff;stroke-width:1.05px;stroke-linecap:round;stroke-linejoin:round;stroke-opacity:1"
     id="path18" />
  <path
     d="m 21.375,14.025 c 0,0 -2.276597,-2.473874 -3.999282,-1.428382 -3.113516,1.889602 0.36846,10.994956 2.015868,13.991582 3.577159,6.50688 7.708828,10.500382 10.199807,9.266588 C 35.015608,33.775825 28.725,22.425 28.725,22.425"
     style="fill:none;stroke:#ffffff;stroke-width:1.05px;stroke-linecap:round;stroke-linejoin:round;stroke-opacity:1"
     id="path20" />
</svg>
