<?xml version="1.0" encoding="UTF-8" standalone="no"?>
<svg
   width="48"
   height="48"
   version="1.1"
   id="svg2"
   sodipodi:docname="bitwig-studio.svg"
   inkscape:version="1.3.2 (091e20ef0f, 2023-11-25)"
   xmlns:inkscape="http://www.inkscape.org/namespaces/inkscape"
   xmlns:sodipodi="http://sodipodi.sourceforge.net/DTD/sodipodi-0.dtd"
   xmlns="http://www.w3.org/2000/svg"
   xmlns:svg="http://www.w3.org/2000/svg">
  <defs
     id="defs2">
    <linearGradient
       id="paint0_linear_705_109"
       x1="116.745"
       y1="36.953499"
       x2="87.252701"
       y2="96.250298"
       gradientUnits="userSpaceOnUse"
       gradientTransform="matrix(0.28840213,0,0,0.28840213,5.542264,5.6175223)">
      <stop
         stop-color="#D800BD"
         id="stop1" />
      <stop
         offset="0.408098"
         stop-color="#F92D7A"
         id="stop2" />
      <stop
         offset="0.590073"
         stop-color="#FF4A52"
         id="stop3" />
      <stop
         offset="1"
         stop-color="#FFB243"
         id="stop4" />
    </linearGradient>
  </defs>
  <sodipodi:namedview
     id="namedview2"
     pagecolor="#ffffff"
     bordercolor="#999999"
     borderopacity="1"
     inkscape:showpageshadow="2"
     inkscape:pageopacity="0"
     inkscape:pagecheckerboard="0"
     inkscape:deskcolor="#d1d1d1"
     inkscape:zoom="5.9375"
     inkscape:cx="24.589474"
     inkscape:cy="31.494737"
     inkscape:window-width="1920"
     inkscape:window-height="992"
     inkscape:window-x="0"
     inkscape:window-y="0"
     inkscape:window-maximized="1"
     inkscape:current-layer="svg2" />
  <path
     d="M 24,3 C 35.598222,3 45,12.401778 45,24 45,35.598222 35.598222,45 24,45 12.401778,45 3,35.598222 3,24 3,12.401778 12.401778,3 24,3 Z"
     id="path1"
     style="stroke-width:0.777778;fill:#25314a;fill-opacity:1" />
  <path
     fill-rule="evenodd"
     clip-rule="evenodd"
     d="m 17.454573,18.18182 c 0,1.204973 -0.976822,2.18182 -2.181813,2.18182 -1.204976,0 -2.181825,-0.976847 -2.181825,-2.18182 0,-1.204974 0.976849,-2.18182 2.181825,-2.18182 1.204991,0 2.181813,0.976846 2.181813,2.18182 z m 5.817968,0 c 0,1.204973 -0.976825,2.18182 -2.181826,2.18182 -1.204978,0 -2.181812,-0.976847 -2.181812,-2.18182 0,-1.204974 0.976834,-2.18182 2.181812,-2.18182 1.205001,0 2.181826,0.976846 2.181826,2.18182 z m 3.636455,2.18182 c 1.204976,0 2.181824,-0.976847 2.181824,-2.18182 C 29.09082,16.976846 28.113972,16 26.908996,16 c -1.205003,0 -2.18182,0.976846 -2.18182,2.18182 0,1.204973 0.976817,2.18182 2.18182,2.18182 z m 8.000102,-2.18182 c 0,1.204973 -0.976874,2.18182 -2.181849,2.18182 -1.204999,0 -2.181818,-0.976847 -2.181818,-2.18182 0,-1.204974 0.976819,-2.18182 2.181818,-2.18182 1.204975,0 2.181849,0.976846 2.181849,2.18182 z M 9.454504,26.181745 c 1.204976,0 2.181815,-0.976815 2.181815,-2.181825 0,-1.20496 -0.976839,-2.181812 -2.181815,-2.181812 -1.204988,0 -2.181824,0.976852 -2.181824,2.181812 0,1.20501 0.976836,2.181825 2.181824,2.181825 z m 8.000069,-2.181825 c 0,1.20501 -0.976822,2.181825 -2.181813,2.181825 -1.204976,0 -2.181825,-0.976815 -2.181825,-2.181825 0,-1.20496 0.976849,-2.181812 2.181825,-2.181812 1.204991,0 2.181813,0.976852 2.181813,2.181812 z m 3.636142,2.181825 c 1.205001,0 2.181826,-0.976815 2.181826,-2.181825 0,-1.20496 -0.976825,-2.181812 -2.181826,-2.181812 -1.204978,0 -2.181812,0.976852 -2.181812,2.181812 0,1.20501 0.976834,2.181825 2.181812,2.181825 z M 29.09082,23.99992 c 0,1.20501 -0.976848,2.181825 -2.181824,2.181825 -1.205003,0 -2.18182,-0.976815 -2.18182,-2.181825 0,-1.20496 0.976817,-2.181812 2.18182,-2.181812 1.204976,0 2.181824,0.976852 2.181824,2.181812 z m 3.636429,2.181825 c 1.204975,0 2.181849,-0.976815 2.181849,-2.181825 0,-1.20496 -0.976874,-2.181812 -2.181849,-2.181812 -1.204999,0 -2.181819,0.976852 -2.181819,2.181812 0,1.20501 0.97682,2.181825 2.181819,2.181825 z M 40.72732,23.99992 c 0,1.20501 -0.976812,2.181825 -2.18176,2.181825 -1.204946,0 -2.181761,-0.976815 -2.181761,-2.181825 0,-1.20496 0.976815,-2.181812 2.181761,-2.181812 1.204948,0 2.18176,0.976852 2.18176,2.181812 z M 9.454504,32 c 1.204976,0 2.181815,-0.976821 2.181815,-2.181824 0,-1.204976 -0.976839,-2.181815 -2.181815,-2.181815 -1.204988,0 -2.181824,0.976839 -2.181824,2.181815 C 7.27268,31.023179 8.249516,32 9.454504,32 Z m 8.000069,-2.181824 C 17.454573,31.023179 16.477751,32 15.27276,32 c -1.204976,0 -2.181825,-0.976821 -2.181825,-2.181824 0,-1.204976 0.976849,-2.181815 2.181825,-2.181815 1.204991,0 2.181813,0.976839 2.181813,2.181815 z M 32.727249,32 c 1.204975,0 2.181849,-0.976821 2.181849,-2.181824 0,-1.204976 -0.976874,-2.181815 -2.181849,-2.181815 -1.204999,0 -2.181818,0.976839 -2.181818,2.181815 C 30.545431,31.023179 31.52225,32 32.727249,32 Z M 40.72732,29.818176 C 40.72732,31.023179 39.750508,32 38.54556,32 c -1.204946,0 -2.181761,-0.976821 -2.181761,-2.181824 0,-1.204976 0.976815,-2.181815 2.181761,-2.181815 1.204948,0 2.18176,0.976839 2.18176,2.181815 z"
     fill="url(#paint0_linear_705_109)"
     id="path1-3"
     style="fill:url(#paint0_linear_705_109);stroke-width:0.288403" />
</svg>
