<?xml version="1.0" encoding="UTF-8" standalone="no"?>
<svg
   width="48"
   height="48"
   version="1.1"
   id="svg34"
   sodipodi:docname="bleachbit.svg"
   inkscape:version="1.2.1 (9c6d41e410, 2022-07-14)"
   xmlns:inkscape="http://www.inkscape.org/namespaces/inkscape"
   xmlns:sodipodi="http://sodipodi.sourceforge.net/DTD/sodipodi-0.dtd"
   xmlns:xlink="http://www.w3.org/1999/xlink"
   xmlns="http://www.w3.org/2000/svg"
   xmlns:svg="http://www.w3.org/2000/svg">
  <sodipodi:namedview
     id="namedview36"
     pagecolor="#ffffff"
     bordercolor="#666666"
     borderopacity="1.0"
     inkscape:showpageshadow="2"
     inkscape:pageopacity="0.0"
     inkscape:pagecheckerboard="0"
     inkscape:deskcolor="#d1d1d1"
     showgrid="true"
     inkscape:zoom="9.8333334"
     inkscape:cx="20.745763"
     inkscape:cy="23.237288"
     inkscape:window-width="1920"
     inkscape:window-height="1000"
     inkscape:window-x="0"
     inkscape:window-y="0"
     inkscape:window-maximized="1"
     inkscape:current-layer="svg34">
    <inkscape:grid
       type="xygrid"
       id="grid274" />
  </sodipodi:namedview>
  <defs
     id="defs22">
    <linearGradient
       inkscape:collect="always"
       id="linearGradient1503">
      <stop
         style="stop-color:#88c0d0;stop-opacity:1;"
         offset="0"
         id="stop1499" />
      <stop
         style="stop-color:#a3be8c;stop-opacity:1;"
         offset="1"
         id="stop1501" />
    </linearGradient>
    <linearGradient
       gradientUnits="userSpaceOnUse"
       x2="0"
       y2="503.8"
       y1="544.8"
       id="linearGradient4173">
      <stop
         offset="0"
         stop-color="#44484c"
         id="stop2" />
      <stop
         stop-color="#1d1e1e"
         offset="1"
         id="stop4" />
    </linearGradient>
    <linearGradient
       id="linearGradient4282">
      <stop
         style="stop-color:#000000;stop-opacity:1;"
         offset="0"
         id="stop7" />
      <stop
         style="stop-color:#000000;stop-opacity:0;"
         offset="1"
         id="stop9" />
    </linearGradient>
    <linearGradient
       id="b"
       y1="544.8"
       y2="503.8"
       gradientUnits="userSpaceOnUse"
       x2="0"
       gradientTransform="translate(-384.57,-499.8)">
      <stop
         stop-color="#4ea979"
         id="stop12" />
      <stop
         offset="1"
         stop-color="#5eb085"
         id="stop14" />
    </linearGradient>
    <linearGradient
       xlink:href="#b"
       id="linearGradient4193"
       gradientUnits="userSpaceOnUse"
       gradientTransform="translate(-455.41306,-535.91062)"
       y1="544.8"
       x2="0"
       y2="503.8" />
    <linearGradient
       xlink:href="#b"
       id="linearGradient4219"
       gradientUnits="userSpaceOnUse"
       gradientTransform="rotate(120,335.66383,125.62642)"
       y1="544.8"
       x2="0"
       y2="503.8" />
    <linearGradient
       xlink:href="#linearGradient4173"
       id="linearGradient4246"
       gradientUnits="userSpaceOnUse"
       gradientTransform="rotate(-120,26.319827,388.11514)"
       y1="532.205"
       x2="386.827"
       y2="524.418"
       x1="428.029" />
    <linearGradient
       xlink:href="#b"
       id="linearGradient4248"
       gradientUnits="userSpaceOnUse"
       gradientTransform="rotate(-120,26.285289,388.16919)"
       y1="544.8"
       x2="0"
       y2="503.8" />
    <linearGradient
       xlink:href="#linearGradient4282"
       id="linearGradient4288"
       x1="7.669"
       y1="14.513"
       x2="42.224"
       y2="34.463"
       gradientUnits="userSpaceOnUse"
       gradientTransform="translate(-70.848059,-35.99962)" />
    <linearGradient
       xlink:href="#linearGradient4167"
       id="linearGradient4161"
       x1="-44"
       y1="-24"
       x2="-4"
       y2="-24"
       gradientUnits="userSpaceOnUse"
       gradientTransform="matrix(1.0499999,0,0,1.0499999,1.2000053,1.2000064)" />
    <linearGradient
       id="linearGradient4167">
      <stop
         style="stop-color:#009467;stop-opacity:1"
         offset="0"
         id="stop2-3" />
      <stop
         style="stop-color:#87d770;stop-opacity:1"
         offset="1"
         id="stop4-6" />
    </linearGradient>
    <linearGradient
       gradientUnits="userSpaceOnUse"
       x2="0"
       y2="503.79999"
       y1="544.79999"
       id="linearGradient4173-7">
      <stop
         offset="0"
         stop-color="#44484c"
         id="stop2-5" />
      <stop
         stop-color="#1d1e1e"
         offset="1"
         id="stop4-3" />
    </linearGradient>
    <linearGradient
       xlink:href="#b-6"
       id="linearGradient4248-5"
       gradientUnits="userSpaceOnUse"
       gradientTransform="matrix(-0.39974654,-0.69291633,0.69238131,-0.40005544,-175.79427,517.77988)"
       y1="544.79999"
       x2="0"
       y2="503.79999" />
    <linearGradient
       id="b-6"
       y1="544.79999"
       y2="503.79999"
       gradientUnits="userSpaceOnUse"
       x2="0"
       gradientTransform="translate(-384.57,-499.8)">
      <stop
         stop-color="#4ea979"
         id="stop12-2" />
      <stop
         offset="1"
         stop-color="#5eb085"
         id="stop14-9" />
    </linearGradient>
    <linearGradient
       xlink:href="#b-6"
       id="linearGradient4193-1"
       gradientUnits="userSpaceOnUse"
       gradientTransform="matrix(0.79949305,0,0,0.80011084,-302.65507,-395.08908)"
       y1="544.79999"
       x2="0"
       y2="503.79999" />
    <linearGradient
       id="linearGradient587"
       y1="544.79999"
       y2="503.79999"
       gradientUnits="userSpaceOnUse"
       x2="0"
       gradientTransform="translate(-384.57,-499.8)">
      <stop
         stop-color="#4ea979"
         id="stop583" />
      <stop
         offset="1"
         stop-color="#5eb085"
         id="stop585" />
    </linearGradient>
    <linearGradient
       xlink:href="#b-6"
       id="linearGradient4219-2"
       gradientUnits="userSpaceOnUse"
       gradientTransform="matrix(-0.39974654,0.69291633,-0.69238131,-0.40005544,550.96726,-48.115544)"
       y1="544.79999"
       x2="0"
       y2="503.79999" />
    <linearGradient
       id="linearGradient594"
       y1="544.79999"
       y2="503.79999"
       gradientUnits="userSpaceOnUse"
       x2="0"
       gradientTransform="translate(-384.57,-499.8)">
      <stop
         stop-color="#4ea979"
         id="stop590" />
      <stop
         offset="1"
         stop-color="#5eb085"
         id="stop592" />
    </linearGradient>
    <linearGradient
       inkscape:collect="always"
       xlink:href="#linearGradient4173"
       id="linearGradient744"
       gradientUnits="userSpaceOnUse"
       gradientTransform="matrix(-0.39974654,-0.69291633,0.69238131,-0.40005544,-175.71542,517.73898)"
       x1="428.029"
       y1="532.205"
       x2="386.827"
       y2="524.418" />
    <linearGradient
       inkscape:collect="always"
       xlink:href="#linearGradient4282"
       id="linearGradient746"
       gradientUnits="userSpaceOnUse"
       gradientTransform="matrix(0.79949305,0,0,0.80011084,4.8019859,4.8951217)"
       x1="7.669"
       y1="14.513"
       x2="42.224"
       y2="34.463" />
    <linearGradient
       inkscape:collect="always"
       xlink:href="#linearGradient1503"
       id="linearGradient1505"
       x1="-45"
       y1="-3"
       x2="-3"
       y2="-45"
       gradientUnits="userSpaceOnUse" />
  </defs>
  <rect
     ry="20.999994"
     rx="20.999994"
     transform="matrix(0,-1,-1,0,0,0)"
     height="41.999989"
     width="41.999989"
     y="-44.999992"
     x="-44.999992"
     id="rect10"
     style="fill-opacity:1;fill:url(#linearGradient1505)" />
  <path
     d="m 3.0122786,23.474995 c -0.0043,0.175345 -0.01228,0.3486 -0.01228,0.525 0,11.634 9.3660004,21 20.9999994,21 11.634,0 21,-9.366 21,-21 0,-0.1764 -0.008,-0.349655 -0.0126,-0.525 -0.2772,11.3883 -9.5298,20.475 -20.9874,20.475 -11.457599,0 -20.7101994,-9.0867 -20.9873994,-20.475 z"
     style="opacity:0.15;stroke-width:1.05"
     id="path12" />
  <path
     style="fill:url(#linearGradient744);fill-opacity:1;stroke-width:0.799805"
     d="m 26.588166,8.103379 c 0,0 -5.115489,0.027749 -5.360665,0.035941 -0.586399,0.087018 -1.24452,0.5750802 -1.24452,0.5750802 0.01475,0.00426 0.03023,-0.020474 0.0468,-0.017196 0.45181,-0.2701071 1.159675,-0.3231258 1.602106,0.123455 l 0.971264,1.6830458 1.666122,2.887906 2.1018,3.642694 c -0.949347,0.542426 -2.770123,1.600228 -2.770123,1.600228 l 8.736642,2.342507 2.343828,-8.738715 c 0,0 -2.77366,1.592092 -2.771669,1.595537 L 29.017872,8.8222239 C 28.693444,8.364527 28.159437,8.1922292 27.699961,8.1158764 27.597367,8.1012498 27.112824,8.0958732 26.588162,8.1033694 Z m -9.598587,11.795394 -8.7350956,2.339379 c 0,0 2.7665756,1.606776 2.7685586,1.603349 l -2.8919177,5.01162 c -0.2338543,0.510045 -0.1152574,1.059124 0.048416,1.495532 0.038635,0.09624 0.2761521,0.519484 0.544968,0.970444 0,0 2.5811027,4.418824 2.7107807,4.627204 0.368507,0.464718 1.1196,0.792293 1.1196,0.792293 -0.0042,-0.01494 -0.03197,-0.01516 -0.03748,-0.03125 -0.459647,-0.256524 -0.860112,-0.845023 -0.694876,-1.451761 l 0.971258,-1.683045 1.666122,-2.887902 2.101804,-3.642697 c 0.944054,0.551577 2.768554,1.600221 2.768554,1.600222 z m 12.596698,7.399464 -6.39594,6.400881 L 29.581581,40.1 c 0,0 0.0086,-3.200445 0.0053,-3.200445 h 5.78227 c 0.558294,-0.05238 0.973702,-0.429122 1.269504,-0.789158 0.06396,-0.08164 0.312555,-0.499501 0.568394,-0.957966 0,0 2.532834,-4.446548 2.64832,-4.663145 0.2179,-0.551735 0.124923,-1.365802 0.124923,-1.365802 -0.01113,0.01071 0.004,0.03569 -0.0079,0.04849 0.0079,0.526636 -0.301125,1.166596 -0.908798,1.326752 H 37.12081 33.788547 29.58652 c 0.0054,-1.094004 0,-3.200442 0,-3.200442 z"
     id="path24-9" />
  <path
     d="m 15.198855,16.528535 5.41364,3.139653 c 0.01513,-0.01058 0.495648,-0.819466 1.063465,-1.80351 0.568314,-0.981558 1.3883,-2.389397 1.814107,-3.125089 l 0.0035,-0.002 0.776363,-1.345673 -2.63721,-4.5711235 C 21.185772,8.3703969 20.472376,8.3483678 20.015906,8.7044995 19.728164,8.9354291 19.63237,9.0462136 19.376331,9.4713189 19.01437,10.071264 15.202405,16.526477 15.195488,16.530487"
     style="fill:url(#linearGradient4248-5);stroke-width:0.799805"
     id="path26-3" />
  <path
     style="fill:url(#linearGradient4193-1);stroke-width:0.799805"
     d="m 35.471336,20.989358 -5.285438,3.202035 c 0.002,0.01841 0.461302,0.839329 1.028948,1.823448 0.565235,0.983343 1.373522,2.397949 1.797256,3.134839 v 0.004 l 0.776307,1.34578 h 5.274252 c 0.613207,-0.161623 0.988975,-0.768906 0.909029,-1.342578 -0.05593,-0.364857 -0.103938,-0.503283 -0.343793,-0.937739 -0.338185,-0.613691 -4.156561,-7.22501 -4.156561,-7.233012"
     id="path28-6" />
  <path
     d="m 21.589613,36.897561 0.0022,-6.398895 c 0,0 -4.886273,-0.0017 -7.131068,0 l -2.637179,4.756803 c -0.166744,0.612291 0.170889,1.241598 0.707304,1.459149 0.343708,0.133924 0.487475,0.161547 0.983362,0.170907 0.700179,0.01374 8.072329,0.01008 8.079255,0.01408"
     style="fill:url(#linearGradient4219-2);stroke-width:0.799805"
     id="path30-0" />
  <path
     style="opacity:0.2;fill:url(#linearGradient746);fill-opacity:1;stroke:none;stroke-width:3.19929;stroke-linecap:round;stroke-linejoin:round;stroke-miterlimit:4;stroke-dasharray:none;stroke-opacity:1"
     d="m 15.790327,15.527847 c -0.133905,0.225992 -0.593942,1.002703 -0.594932,1.003269 l 0.0039,-0.0039 5.413756,3.139499 c 0.0083,-0.0062 0.361195,-0.612725 0.594936,-1.009525 z m 1.199252,4.370926 -8.7350956,2.339379 c 0,0 2.7665756,1.606776 2.7685586,1.603349 l -0.0079,0.01413 5.538677,3.200439 0.008,-0.01413 c 0.944063,0.551583 2.76855,1.600223 2.76855,1.600224 z m 13.488321,4.116185 -0.292002,0.176595 c 0.002,0.01839 0.461397,0.839547 1.029031,1.823691 0.565248,0.983331 1.373574,2.397893 1.797293,3.134808 v 0.0039 l 0.776074,1.345495 h -4.202019 c 0.0055,-1.094005 0,-3.200446 0,-3.200446 l -4.615831,4.619394 8.621105,4.981934 h 1.776986 c 0.558295,-0.05238 0.973691,-0.429122 1.269514,-0.789166 0.06396,-0.08161 0.312541,-0.499488 0.568386,-0.957946 0,0 2.532827,-4.446556 2.648326,-4.663154 0.128948,-0.326504 0.145631,-0.689521 0.140525,-0.976687 z"
     id="path32-6" />
</svg>
