<?xml version="1.0" encoding="UTF-8" standalone="no"?>
<svg
   id="svg2817"
   height="48"
   width="48"
   version="1"
   sodipodi:docname="blinken.svg"
   inkscape:version="1.2.1 (9c6d41e410, 2022-07-14)"
   xmlns:inkscape="http://www.inkscape.org/namespaces/inkscape"
   xmlns:sodipodi="http://sodipodi.sourceforge.net/DTD/sodipodi-0.dtd"
   xmlns:xlink="http://www.w3.org/1999/xlink"
   xmlns="http://www.w3.org/2000/svg"
   xmlns:svg="http://www.w3.org/2000/svg">
  <sodipodi:namedview
     id="namedview41"
     pagecolor="#ffffff"
     bordercolor="#666666"
     borderopacity="1.0"
     inkscape:showpageshadow="2"
     inkscape:pageopacity="0.0"
     inkscape:pagecheckerboard="0"
     inkscape:deskcolor="#d1d1d1"
     showgrid="false"
     inkscape:zoom="4.9166667"
     inkscape:cx="24"
     inkscape:cy="24.101695"
     inkscape:window-width="1920"
     inkscape:window-height="1000"
     inkscape:window-x="0"
     inkscape:window-y="0"
     inkscape:window-maximized="1"
     inkscape:current-layer="svg2817" />
  <defs
     id="defs429">
    <linearGradient
       id="linearGradient4626">
      <stop
         style="stop-color:#000000;stop-opacity:1;"
         offset="0"
         id="stop4628" />
      <stop
         style="stop-color:#000000;stop-opacity:0;"
         offset="1"
         id="stop4630" />
    </linearGradient>
    <linearGradient
       id="linearGradient4656">
      <stop
         style="stop-color:#ffffff;stop-opacity:1;"
         offset="0"
         id="stop4658" />
      <stop
         style="stop-color:#536161;stop-opacity:1"
         offset="1"
         id="stop4660" />
    </linearGradient>
    <linearGradient
       id="linearGradient4598">
      <stop
         style="stop-color:#172525;stop-opacity:1;"
         offset="0"
         id="stop4600" />
      <stop
         style="stop-color:#334545;stop-opacity:1"
         offset="1"
         id="stop4602" />
    </linearGradient>
    <linearGradient
       id="linearGradient4590">
      <stop
         id="stop4594"
         offset="0"
         style="stop-color:#54d883;stop-opacity:1" />
      <stop
         id="stop4592"
         offset="1"
         style="stop-color:#3bb566;stop-opacity:1;" />
    </linearGradient>
    <linearGradient
       id="linearGradient4582">
      <stop
         id="stop4586"
         offset="0"
         style="stop-color:#7cbcec;stop-opacity:1" />
      <stop
         id="stop4584"
         offset="1"
         style="stop-color:#3b85b5;stop-opacity:1;" />
    </linearGradient>
    <linearGradient
       id="linearGradient4574">
      <stop
         style="stop-color:#bf4231;stop-opacity:1;"
         offset="0"
         id="stop4576" />
      <stop
         style="stop-color:#f58273;stop-opacity:1"
         offset="1"
         id="stop4578" />
    </linearGradient>
    <linearGradient
       id="linearGradient4564">
      <stop
         style="stop-color:#ffa92d;stop-opacity:1;"
         offset="0"
         id="stop4566" />
      <stop
         style="stop-color:#ffc169;stop-opacity:1"
         offset="1"
         id="stop4568" />
    </linearGradient>
    <linearGradient
       xlink:href="#linearGradient4564"
       id="linearGradient4570"
       x1="18.653"
       y1="20.191"
       x2="7.432"
       y2="8.525"
       gradientUnits="userSpaceOnUse"
       gradientTransform="matrix(0.95454537,0,0,1.1052629,1.0909093,-2.5263154)" />
    <linearGradient
       xlink:href="#linearGradient4574"
       id="linearGradient4580"
       x1="28.615"
       y1="21.502"
       x2="39.94"
       y2="10.118"
       gradientUnits="userSpaceOnUse"
       gradientTransform="matrix(0.95454537,0,0,1.1052629,1.0909093,-2.5263154)" />
    <linearGradient
       xlink:href="#linearGradient4582"
       id="linearGradient4588"
       x1="19.831"
       y1="26.561"
       x2="9.69"
       y2="37.881"
       gradientUnits="userSpaceOnUse"
       gradientTransform="matrix(0.95454537,0,0,1.1052629,1.0909093,-2.5263154)" />
    <linearGradient
       xlink:href="#linearGradient4590"
       id="linearGradient4596"
       x1="33.241"
       y1="30.191"
       x2="40.393"
       y2="37.416"
       gradientUnits="userSpaceOnUse"
       gradientTransform="matrix(0.95454537,0,0,1.1052629,1.0909093,-2.5263154)" />
    <linearGradient
       xlink:href="#linearGradient4598"
       id="linearGradient4604"
       x1="27.197"
       y1="33.475"
       x2="21.366"
       y2="14.901"
       gradientUnits="userSpaceOnUse"
       gradientTransform="matrix(1.0499999,0,0,1.2599997,-1.1999999,-6.2399993)" />
    <style
       id="current-color-scheme"
       type="text/css">
   .ColorScheme-Text { color:#4d4d4d; }
  </style>
    <linearGradient
       xlink:href="#linearGradient4656"
       id="linearGradient4662"
       x1="19.025"
       y1="15.232"
       x2="29.946"
       y2="31.765"
       gradientUnits="userSpaceOnUse"
       gradientTransform="matrix(1.0499999,0,0,1.0499999,-0.14999997,-1.1999995)" />
    <linearGradient
       xlink:href="#linearGradient4626"
       id="linearGradient4632"
       x1="23.693"
       y1="21.277"
       x2="34.937"
       y2="32.522"
       gradientUnits="userSpaceOnUse"
       gradientTransform="matrix(1.0499999,0,0,1.0499999,-1.1999999,-1.1999995)" />
  </defs>
  <path
     style="fill:url(#linearGradient4570);fill-opacity:1;stroke-width:1.05"
     id="rect4203"
     d="M 24,3 C 12.366,3 3.0000001,12.366 3.0000001,24 H 24 Z" />
  <path
     style="fill:url(#linearGradient4580);fill-opacity:1;stroke-width:1.05"
     id="path4556"
     d="m 24,3 c 11.634,0 21,9.366 21,21 H 24 Z" />
  <path
     style="fill:url(#linearGradient4596);fill-opacity:1;stroke-width:1.05"
     id="path4564"
     d="M 24,45 C 35.634,45 45,35.634 45,24 H 24 Z" />
  <path
     style="fill:url(#linearGradient4588);fill-opacity:1;stroke-width:1.05"
     id="path4566"
     d="M 24,45 C 12.366,45 3.0000001,35.634 3.0000001,24 H 24 Z" />
  <path
     style="opacity:0.2;fill:url(#linearGradient4632);fill-opacity:1;stroke-width:1.05"
     d="M 25.361715,13.932713 24,15.745608 V 24 H 17.802536 L 15.075,27.633982 14.619726,32.473831 26.938768,44.792872 C 36.186634,43.508353 43.466413,36.250011 44.782613,27.012601 L 32.223631,14.453617 Z"
     id="path4598" />
  <circle
     id="path4181"
     cx="23.999989"
     cy="23.999989"
     style="fill:url(#linearGradient4604);fill-opacity:1;stroke-width:1.05"
     r="12.599998" />
  <path
     style="color:#4d4d4d;fill:url(#linearGradient4662);fill-opacity:1;stroke:none;stroke-width:1.05"
     d="M 25.923631,15.261618 22.95,15.540523 V 27.026952 L 25.890821,26.625 V 21.715433 L 29.813969,27.15 32.886031,26.223048 28.866506,21.005858 32.918845,16.06348 29.781153,15.384666 25.890821,20.325 Z m -7.218746,3.147947 c -0.03327,0 -0.07334,0.01921 -0.09845,0.03285 l -1.144324,1.111519 c -0.04876,0.04829 -0.0685,0.128295 -0.03285,0.184575 l 1.341219,2.1 c -0.24058,0.38209 -0.417969,0.800287 -0.555763,1.234568 L 15.73122,23.56732 c -0.06925,0.01781 -0.131254,0.0578 -0.131254,0.125089 v 1.54218 c 0,0.0651 0.06456,0.137961 0.131245,0.153815 l 2.417873,0.557816 c 0.128784,0.503474 0.324616,0.980862 0.588578,1.419137 l -1.404785,2.007715 c -0.03897,0.0567 -0.01872,0.137215 0.03285,0.184565 l 1.14229,1.080767 c 0.04876,0.04408 0.137417,0.06849 0.196874,0.03285 l 2.190228,-1.267388 c 0.43059,0.234676 0.881157,0.4306 1.371976,0.55576 l 0.522947,2.317384 c 0.01505,0.0672 0.06073,0.123048 0.131254,0.123048 h 1.634471 c 0.06884,0 0.147594,-0.05909 0.164066,-0.123048 l 0.586518,-2.317384 c 0.505928,-0.129044 0.998582,-0.341034 1.439649,-0.58652 l 2.157428,1.359665 c 0.05934,0.0357 0.144336,0.01655 0.194821,-0.03285 l 1.144327,-1.080758 c 0.04904,-0.0483 0.0687,-0.128501 0.03285,-0.184577 L 29.491989,28.2 l -0.2625,0.09229 c -0.03734,0.01784 -0.07649,7.33e-4 -0.09839,-0.03074 0,0 -0.494739,-0.707385 -1.14434,-1.605765 -0.776571,1.43598 -2.359103,2.407619 -4.183595,2.407619 -2.592158,0 -4.706542,-1.966209 -4.706542,-4.415332 0,-1.801481 1.145955,-3.352141 2.778804,-4.046196 v -1.142287 c -0.297189,0.09873 -0.576132,0.199639 -0.849017,0.340439 h -0.03285 l -2.190242,-1.359671 c -0.02976,-0.01782 -0.06508,-0.0319 -0.09839,-0.02874 v -0.002 z"
     id="path4653" />
  <path
     style="opacity:0.15;fill:#000000;fill-opacity:1;stroke-width:1.05"
     d="m 3,24 c 0,11.634 9.366,21 21,21 11.634,0 21,-9.366 21,-21 H 44.97336 C 44.429215,35.141832 35.28145,43.95 24,43.95 12.718548,43.95 3.5707847,35.141832 3.0266606,24 Z"
     id="path4634" />
</svg>
