<?xml version="1.0" encoding="UTF-8" standalone="no"?>
<svg
   width="48"
   height="48"
   version="1"
   id="svg23"
   sodipodi:docname="bomber.svg"
   inkscape:version="1.2.1 (9c6d41e410, 2022-07-14)"
   xmlns:inkscape="http://www.inkscape.org/namespaces/inkscape"
   xmlns:sodipodi="http://sodipodi.sourceforge.net/DTD/sodipodi-0.dtd"
   xmlns:xlink="http://www.w3.org/1999/xlink"
   xmlns="http://www.w3.org/2000/svg"
   xmlns:svg="http://www.w3.org/2000/svg">
  <sodipodi:namedview
     id="namedview25"
     pagecolor="#ffffff"
     bordercolor="#666666"
     borderopacity="1.0"
     inkscape:showpageshadow="2"
     inkscape:pageopacity="0.0"
     inkscape:pagecheckerboard="0"
     inkscape:deskcolor="#d1d1d1"
     showgrid="false"
     inkscape:zoom="3.6875"
     inkscape:cx="32"
     inkscape:cy="32"
     inkscape:window-width="1920"
     inkscape:window-height="1011"
     inkscape:window-x="0"
     inkscape:window-y="0"
     inkscape:window-maximized="1"
     inkscape:current-layer="svg23" />
  <defs
     id="defs7">
    <linearGradient
       inkscape:collect="always"
       id="linearGradient888">
      <stop
         style="stop-color:#ffccaa;stop-opacity:1"
         offset="0"
         id="stop884" />
      <stop
         style="stop-color:#ffeeaa;stop-opacity:1"
         offset="1"
         id="stop886" />
    </linearGradient>
    <linearGradient
       id="a"
       x1="40"
       x2="40"
       y1="49"
       y2="22.438999"
       gradientUnits="userSpaceOnUse">
      <stop
         stop-opacity=".15"
         offset="0"
         id="stop2" />
      <stop
         stop-opacity="0"
         offset="1"
         id="stop4" />
    </linearGradient>
    <linearGradient
       inkscape:collect="always"
       xlink:href="#linearGradient888"
       id="linearGradient890"
       x1="32.5"
       y1="3.5"
       x2="32.5"
       y2="61.5"
       gradientUnits="userSpaceOnUse"
       gradientTransform="matrix(0.72413793,0,0,0.72413793,0.46551724,0.46551724)" />
    <linearGradient
       xlink:href="#linearGradient4239"
       id="linearGradient4245"
       x1="4.2480001"
       y1="13.866"
       x2="45.924999"
       y2="27.392"
       gradientUnits="userSpaceOnUse"
       gradientTransform="matrix(0.8146538,0,0,0.81465343,3.7436938,5.1543305)" />
    <linearGradient
       id="linearGradient4239">
      <stop
         style="stop-color:#eff0f1;stop-opacity:1"
         offset="0"
         id="stop393" />
      <stop
         style="stop-color:#b7bbbf;stop-opacity:1"
         offset="1"
         id="stop395" />
    </linearGradient>
    <linearGradient
       xlink:href="#linearGradient4148"
       id="linearGradient4154"
       x1="3.516"
       y1="23.827"
       x2="18.132"
       y2="23.768"
       gradientUnits="userSpaceOnUse"
       gradientTransform="matrix(0.8146538,0,0,0.81465343,4.5583477,5.1543305)" />
    <linearGradient
       id="linearGradient4148">
      <stop
         style="stop-color:#da4453;stop-opacity:1"
         offset="0"
         id="stop388" />
      <stop
         style="stop-color:#ffc536;stop-opacity:1"
         offset="1"
         id="stop390" />
    </linearGradient>
    <linearGradient
       xlink:href="#linearGradient4231"
       id="linearGradient4237"
       x1="13.52"
       y1="21.188999"
       x2="27"
       y2="23.5"
       gradientUnits="userSpaceOnUse"
       gradientTransform="matrix(0.8146538,0,0,0.81465343,3.7436938,5.1543305)" />
    <linearGradient
       id="linearGradient4231">
      <stop
         style="stop-color:#424649;stop-opacity:1;"
         offset="0"
         id="stop398" />
      <stop
         style="stop-color:#2a2c2f;stop-opacity:1"
         offset="1"
         id="stop400" />
    </linearGradient>
    <linearGradient
       xlink:href="#linearGradient4231"
       id="linearGradient4253"
       x1="41.282001"
       y1="17.466"
       x2="40.402"
       y2="21.048"
       gradientUnits="userSpaceOnUse"
       gradientTransform="matrix(0.8146538,0,0,0.81465343,3.7436938,5.1543305)" />
  </defs>
  <circle
     cx="24"
     cy="24"
     r="21"
     stroke-width="2.93971"
     style="fill:url(#linearGradient890);fill-opacity:1;paint-order:stroke fill markers"
     id="circle9" />
  <path
     style="fill:url(#linearGradient4245);fill-opacity:1;stroke-width:0.814662"
     d="m 16.778157,14.930172 c 0,0 3.508114,4.910737 2.946966,5.219531 -0.668007,0.367595 -1.24624,0.861074 -1.723378,1.3026 -2.038244,-0.0046 -2.8529,-0.0046 -2.8529,-0.0046 v 5.702573 l 2.8529,0.0024 c 0,0 4.435169,1.249183 7.696096,1.629721 0.653693,0.0765 -10.548996,5.699472 -10.548996,5.699472 2.792651,6.86e-4 27.009594,-5.926038 26.076238,-11.473686 -2.145724,-3.282608 -9.746152,-4.67778 -9.746152,-4.67778 0,0 -1.776976,-0.13558 -2.706495,-0.13558 -1.872429,0 -3.593159,0.189469 -5.118276,0.529633 -1.092607,-0.844712 -6.876003,-3.794281 -6.876003,-3.794281 z"
     id="path409" />
  <path
     style="opacity:0.15;fill:#000000;fill-opacity:1;stroke-width:0.814662"
     d="m 16.778157,14.930172 c 0,0 2.175293,3.052451 2.811506,4.486957 0.04572,-0.02682 0.08863,-0.05705 0.135248,-0.08273 0.380429,-0.209351 -1.078921,-2.475269 -2.078005,-3.950753 -0.20715,-0.106495 -0.868749,-0.45347 -0.868749,-0.45347 z m 24.426884,8.003334 c -0.990934,4.571255 -17.500159,9.197072 -23.838168,10.413881 -0.717659,0.363496 -2.218028,1.134471 -2.218028,1.134471 2.805176,6.92e-4 27.221286,-5.979368 26.056196,-11.548352 z m -26.056196,3.401815 v 0.814654 l 2.852884,0.0028 c 0,0 3.62889,1.016221 6.736803,1.492468 0.653403,-0.380172 1.092341,-0.662259 0.959445,-0.677817 -3.260924,-0.380512 -7.696248,-1.629282 -7.696248,-1.629282 z"
     id="path411" />
  <path
     style="fill:url(#linearGradient4154);fill-opacity:1;fill-rule:evenodd;stroke-width:0.814662"
     d="m 11.401092,20.632749 c -0.65532,0.982023 -0.121059,1.409643 0.571506,1.490527 -0.814769,0.308745 -1.357465,-0.475473 -1.9939924,-0.662779 -0.3982346,-0.117181 -1.3469878,0.411377 -2.1616423,-0.0131 0.2957387,0.814655 1.4676553,0.223873 1.8658557,0.594928 0.1887788,0.175908 0.922327,1.009152 0.404389,1.674303 -0.517937,0.665151 -1.0266094,-0.556361 -1.847078,-0.639921 -0.3871415,-0.0394 -1.2578816,0.629732 -2.0524748,0.294165 0.8146541,0.836631 1.1390018,0.466432 1.6894355,0.954996 0.5504303,0.488558 1.1218171,1.248147 0.5094701,1.957858 -0.3846085,0.445754 -1.494172,0.365626 -1.3842515,0.866248 0.1838899,-0.278222 1.5725897,-0.0117 2.0658123,-0.386073 1.6171134,-1.006956 2.5479914,-0.03582 1.6425864,0.608952 -0.266732,0.177511 -0.684416,-0.08862 -1.145515,-0.04327 -0.7720504,0.07589 -1.620336,0.410614 -1.7528562,0.669872 0.2601545,-0.07549 0.8975842,-0.160445 1.5536539,0.07902 0.5682239,0.207395 1.1441333,0.74328 1.5779493,0.70084 1.736242,-0.16986 2.227317,-2.128003 4.204905,-0.814654 v -7.331886 c -0.30596,0.131987 -0.602742,0.498349 -1.801667,0.698155 -1.198925,0.199803 -2.083953,0.248514 -1.946086,-0.698153 z"
     id="path413" />
  <path
     style="fill:url(#linearGradient4237);fill-opacity:1;stroke-width:0.814662"
     d="m 17.592808,21.447397 v -0.814648 h -3.258611 v 7.33188 h 3.258611 v -0.814654 c 4.887924,0 8.186193,-1.825519 8.146541,-2.851284 -0.03908,-1.010856 -3.258617,-2.851293 -8.146541,-2.851294 z"
     id="path415" />
  <path
     style="fill:url(#linearGradient4253);fill-opacity:1;stroke:none;stroke-width:1.6293;stroke-linecap:round;stroke-linejoin:round;stroke-miterlimit:4;stroke-dasharray:none;stroke-opacity:1"
     d="m 31.457838,18.328804 a 6.4467121,2.8551916 14.999991 0 0 5.516413,4.281706 6.4467121,2.8551916 14.999991 0 0 4.248293,0.41687 c -0.155764,-0.986232 -1.099486,-1.960559 -3.102685,-2.887881 -1.714128,-0.896846 -4.03176,-1.544871 -6.662021,-1.810695 z"
     id="path417" />
  <path
     style="opacity:0.2;fill:#000000;fill-opacity:1;stroke-width:0.814662"
     d="m 25.592964,23.912046 c -0.685327,1.03551 -3.737626,2.423275 -8.000156,2.423275 v 0.814654 c 4.887924,0 8.186193,-1.825519 8.146541,-2.851284 -0.0043,-0.11876 -0.05648,-0.24932 -0.146385,-0.386645 z m -8.000156,3.237929 h -3.258611 v 0.814654 h 3.258611 z"
     id="path419" />
</svg>
