<?xml version="1.0" encoding="UTF-8" standalone="no"?>
<svg
   width="48"
   height="48"
   version="1.1"
   id="svg28"
   sodipodi:docname="bomi.svg"
   inkscape:version="1.2.1 (9c6d41e410, 2022-07-14)"
   xmlns:inkscape="http://www.inkscape.org/namespaces/inkscape"
   xmlns:sodipodi="http://sodipodi.sourceforge.net/DTD/sodipodi-0.dtd"
   xmlns="http://www.w3.org/2000/svg"
   xmlns:svg="http://www.w3.org/2000/svg">
  <sodipodi:namedview
     id="namedview30"
     pagecolor="#ffffff"
     bordercolor="#666666"
     borderopacity="1.0"
     inkscape:showpageshadow="2"
     inkscape:pageopacity="0.0"
     inkscape:pagecheckerboard="0"
     inkscape:deskcolor="#d1d1d1"
     showgrid="false"
     inkscape:zoom="4.9166667"
     inkscape:cx="24"
     inkscape:cy="24.20339"
     inkscape:window-width="1920"
     inkscape:window-height="1011"
     inkscape:window-x="0"
     inkscape:window-y="0"
     inkscape:window-maximized="1"
     inkscape:current-layer="svg28" />
  <defs
     id="defs12">
    <linearGradient
       id="a"
       y1="543.77"
       x1="407.63"
       y2="504.13"
       x2="407.69"
       gradientUnits="userSpaceOnUse"
       gradientTransform="matrix(1.0500005,0,0,1.0500005,-404.99869,-525.99023)">
      <stop
         stop-color="#da4453"
         id="stop2" />
      <stop
         offset="1"
         stop-color="#e06571"
         id="stop4" />
    </linearGradient>
    <linearGradient
       id="b"
       y1="13.1"
       x1="19"
       y2="44"
       x2="44"
       gradientUnits="userSpaceOnUse"
       gradientTransform="matrix(1.0500005,0,0,1.0500005,-1.2000091,-1.1999884)">
      <stop
         stop-color="#292c2f"
         id="stop7" />
      <stop
         offset="1"
         stop-color="#292c2f"
         stop-opacity="0"
         id="stop9" />
    </linearGradient>
  </defs>
  <rect
     width="42"
     x="3"
     y="3"
     fill="url(#a)"
     rx="21"
     height="42"
     id="rect14"
     style="fill:url(#a);stroke-width:1.05"
     ry="21" />
  <text
     x="346.31"
     y="-367.60999"
     font-family="'Droid Sans'"
     id="text16"
     style="font-size:12.666px" />
  <path
     opacity="0.2"
     fill="url(#b)"
     d="m 18.749994,12.555013 -2.960999,17.804858 6.4932,0.994346 0.2478,-15.02025 z m 14.154004,2.532601 1.168645,12.403656 -10.052701,4.7964 -9.054147,0.498748 12.210448,12.210455 h 13.619556 c 2.326801,0 4.2,-1.873201 4.2,-4.200001 V 27.177315 Z"
     id="path20"
     style="fill:url(#b);stroke-width:1.05" />
  <path
     fill="#ffffff"
     stroke-linejoin="round"
     stroke-width="4.2"
     d="m 24.0015,11.397913 a 12.600003,12.600003 0 0 0 -2.1,0.17842 v 17.671502 c 0,0.5817 -0.4683,1.05 -1.050001,1.05 h -1.05 c -0.5817,0 -1.05,-0.4683 -1.05,-1.05 V 12.560178 A 12.600003,12.600003 0 0 0 11.401497,23.997393 12.600003,12.600003 0 0 0 24.0015,36.597396 12.600003,12.600003 0 0 0 36.601502,23.997393 12.600003,12.600003 0 0 0 24.0015,11.397392 m -0.520898,6.300001 a 0.52505263,0.5727825 0 0 1 0.250194,0.0718 l 9.450002,5.727749 a 0.52505263,0.5727825 0 0 1 0,1.000774 l -9.450002,5.727756 A 0.52505263,0.5727825 0 0 1 22.9515,29.725086 V 18.269584 a 0.52505263,0.5727825 0 0 1 0.529102,-0.572161"
     id="path22" />
</svg>
