<?xml version="1.0" encoding="UTF-8" standalone="no"?>
<svg
   width="48"
   height="48"
   viewBox="0 0 48 48"
   version="1.1"
   id="svg26"
   sodipodi:docname="bittorrent-sync.svg"
   inkscape:version="1.2.2 (b0a8486541, 2022-12-01)"
   xmlns:inkscape="http://www.inkscape.org/namespaces/inkscape"
   xmlns:sodipodi="http://sodipodi.sourceforge.net/DTD/sodipodi-0.dtd"
   xmlns:xlink="http://www.w3.org/1999/xlink"
   xmlns="http://www.w3.org/2000/svg"
   xmlns:svg="http://www.w3.org/2000/svg">
  <sodipodi:namedview
     id="namedview28"
     pagecolor="#ffffff"
     bordercolor="#666666"
     borderopacity="1.0"
     inkscape:showpageshadow="2"
     inkscape:pageopacity="0.0"
     inkscape:pagecheckerboard="0"
     inkscape:deskcolor="#d1d1d1"
     showgrid="false"
     inkscape:zoom="4.9166667"
     inkscape:cx="22.779661"
     inkscape:cy="24.508474"
     inkscape:window-width="1920"
     inkscape:window-height="1000"
     inkscape:window-x="0"
     inkscape:window-y="0"
     inkscape:window-maximized="1"
     inkscape:current-layer="svg26" />
  <defs
     id="defs14">
    <linearGradient
       id="linearGradient821">
      <stop
         style="stop-color:#333333;stop-opacity:1"
         offset="0"
         id="stop817" />
      <stop
         style="stop-color:#676767;stop-opacity:1;"
         offset="1"
         id="stop819" />
    </linearGradient>
    <linearGradient
       id="linearGradient4176">
      <stop
         style="stop-color:#000000;stop-opacity:1;"
         offset="0"
         id="stop2" />
      <stop
         style="stop-color:#000000;stop-opacity:0;"
         offset="1"
         id="stop4" />
    </linearGradient>
    <linearGradient
       id="linearGradient4717">
      <stop
         style="stop-color:#12375a;stop-opacity:1"
         offset="0"
         id="stop7" />
      <stop
         style="stop-color:#537596;stop-opacity:1"
         offset="1"
         id="stop9" />
    </linearGradient>
    <linearGradient
       xlink:href="#linearGradient821"
       id="linearGradient4723"
       x1="3.999999"
       y1="1048.3624"
       x2="43.999985"
       y2="1008.3624"
       gradientUnits="userSpaceOnUse"
       gradientTransform="matrix(1.0499999,0,0,1.0499999,-1.1999985,-1055.7804)" />
    <linearGradient
       xlink:href="#linearGradient4176"
       id="linearGradient4182"
       x1="16"
       y1="11"
       x2="40"
       y2="35"
       gradientUnits="userSpaceOnUse"
       gradientTransform="matrix(1.0499999,0,0,1.0499999,-1.1999985,-1.1999973)" />
    <linearGradient
       xlink:href="#linearGradient2606"
       id="linearGradient4151"
       gradientUnits="userSpaceOnUse"
       x1="4.0000024"
       y1="43.999989"
       x2="43.999992"
       y2="3.9999998"
       gradientTransform="matrix(1.0499999,0,0,1.0499999,63.884751,-27.23389)" />
    <linearGradient
       id="linearGradient2606">
      <stop
         style="stop-color:#333333;stop-opacity:1"
         offset="0"
         id="stop2602" />
      <stop
         style="stop-color:#999999;stop-opacity:1"
         offset="1"
         id="stop2604" />
    </linearGradient>
  </defs>
  <path
     d="m 23.744381,3.0015558 a 21,21 0 1 1 0,41.9968882 21,21 0 0 1 0,-41.9968882 z"
     fill="#3a5d7f"
     stroke-width="2.93969"
     id="path203" />
  <g
     transform="matrix(2.9396889,0,0,2.9396889,-0.88392621,-0.8889672)"
     fill="#ffffff"
     style="paint-order:stroke markers fill"
     id="g207">
    <path
       d="M 8.326,4.236 A 4.238,4.238 0 0 0 5.47,5.472 4.235,4.235 0 0 0 5.124,11.061 l 0.89,-0.89 a 2.99,2.99 0 0 1 0.338,-3.818 2.992,2.992 0 0 1 3.112,-0.7 v 1.07 L 11.062,5.125 A 4.238,4.238 0 0 0 8.326,4.235 Z m 3.484,1.637 -0.891,0.89 a 2.99,2.99 0 0 1 -0.338,3.818 2.992,2.992 0 0 1 -3.111,0.7 v -1.07 l -1.058,1.057 -0.541,0.541 a 4.238,4.238 0 0 0 5.592,-0.347 4.235,4.235 0 0 0 0.346,-5.589 z"
       id="path205" />
  </g>
</svg>
