<?xml version="1.0" encoding="UTF-8" standalone="no"?>
<svg
   width="48"
   height="48"
   viewBox="0 0 12.699752 12.699752"
   version="1.1"
   id="svg2"
   sodipodi:docname="webstorm.svg"
   inkscape:version="1.3.2 (091e20ef0f, 2023-11-25)"
   xmlns:inkscape="http://www.inkscape.org/namespaces/inkscape"
   xmlns:sodipodi="http://sodipodi.sourceforge.net/DTD/sodipodi-0.dtd"
   xmlns="http://www.w3.org/2000/svg"
   xmlns:svg="http://www.w3.org/2000/svg">
  <defs
     id="defs2" />
  <sodipodi:namedview
     id="namedview2"
     pagecolor="#ffffff"
     bordercolor="#999999"
     borderopacity="1"
     inkscape:showpageshadow="2"
     inkscape:pageopacity="0"
     inkscape:pagecheckerboard="0"
     inkscape:deskcolor="#d1d1d1"
     inkscape:zoom="4.4028446"
     inkscape:cx="14.081805"
     inkscape:cy="6.9273397"
     inkscape:window-width="1920"
     inkscape:window-height="994"
     inkscape:window-x="0"
     inkscape:window-y="0"
     inkscape:window-maximized="1"
     inkscape:current-layer="svg2" />
  <g
     id="g2"
     transform="matrix(0.77778981,0,0,0.77778981,-0.23528143,-0.23528143)">
    <path
       d="M 15.61,8.466 A 7.144,7.144 0 0 1 8.466,15.61 7.144,7.144 0 0 1 1.323,8.466 7.144,7.144 0 0 1 8.466,1.323 7.144,7.144 0 0 1 15.61,8.466 Z"
       id="path1"
       style="fill:#00aad4" />
    <rect
       width="7.9369998"
       height="7.9369998"
       x="4.4980001"
       y="4.4980001"
       fill="#303030"
       rx="1.323"
       ry="1.323"
       style="paint-order:markers stroke fill"
       id="rect1" />
    <path
       fill="#f0f0f0"
       d="m 9.709,7.773 c 0.299,0.243 0.558,0.383 0.932,0.383 0.299,0 0.62,-0.14 0.62,-0.345 v -0.02 c 0,-0.186 -0.21,-0.322 -0.77,-0.471 C 9.818,7.151 9.384,6.767 9.384,6.334 V 6.315 c 0,-0.617 0.584,-0.955 1.257,-0.955 0.486,0 0.782,0.162 1.136,0.376 l -0.346,0.471 c -0.3,-0.205 -0.51,-0.225 -0.79,-0.225 -0.28,0 -0.622,0.137 -0.622,0.305 v 0.058 c 0,0.224 0.216,0.329 0.777,0.478 0.673,0.187 1.074,0.401 1.074,0.913 v 0.019 c 0,0.578 -0.52,1.022 -1.23,1.022 C 10.136,8.758 9.696,8.567 9.303,8.213 M 8.777,5.36 8.156,7.535 7.535,5.36 H 6.914 L 6.292,7.535 5.672,5.36 H 5.05 l 0.932,3.417 h 0.62 L 7.224,6.603 7.845,8.777 H 8.466 L 9.398,5.36 M 5.05,10.951 h 3.106 v 0.621 H 5.05 Z"
       id="path2" />
  </g>
</svg>
