<?xml version="1.0" encoding="UTF-8" standalone="no"?>
<svg
   width="48"
   height="48"
   viewBox="0 0 12.699752 12.699752"
   version="1.1"
   id="svg2"
   sodipodi:docname="rider.svg"
   inkscape:version="1.3.2 (091e20ef0f, 2023-11-25)"
   xmlns:inkscape="http://www.inkscape.org/namespaces/inkscape"
   xmlns:sodipodi="http://sodipodi.sourceforge.net/DTD/sodipodi-0.dtd"
   xmlns="http://www.w3.org/2000/svg"
   xmlns:svg="http://www.w3.org/2000/svg">
  <defs
     id="defs2" />
  <sodipodi:namedview
     id="namedview2"
     pagecolor="#ffffff"
     bordercolor="#999999"
     borderopacity="1"
     inkscape:showpageshadow="2"
     inkscape:pageopacity="0"
     inkscape:pagecheckerboard="0"
     inkscape:deskcolor="#d1d1d1"
     inkscape:zoom="6.2265625"
     inkscape:cx="24.250941"
     inkscape:cy="18.870765"
     inkscape:window-width="1920"
     inkscape:window-height="994"
     inkscape:window-x="0"
     inkscape:window-y="0"
     inkscape:window-maximized="1"
     inkscape:current-layer="svg2" />
  <g
     id="g2"
     transform="matrix(0.77778981,0,0,0.77778981,-0.23528143,-0.23528143)">
    <path
       d="M 15.61,8.466 A 7.144,7.144 0 0 1 8.466,15.61 7.144,7.144 0 0 1 1.323,8.466 7.144,7.144 0 0 1 8.466,1.323 7.144,7.144 0 0 1 15.61,8.466 Z"
       id="path1"
       style="fill:#c83771" />
    <rect
       width="7.9369998"
       height="7.9369998"
       x="4.4980001"
       y="4.4980001"
       fill="#303030"
       rx="1.323"
       ry="1.323"
       style="paint-order:markers stroke fill"
       id="rect1" />
    <path
       fill="#f0f0f0"
       d="m 5.05,10.952 h 3.106 v 0.621 H 5.05 Z M 5.671,5.36 V 8.777 H 6.292 V 7.535 h 0.497 l 0.746,1.242 h 0.62 L 7.38,7.483 C 7.86,7.369 8.157,7.055 8.157,6.463 V 6.448 C 8.157,5.756 7.82,5.361 7.016,5.361 Z m 2.795,0 V 8.777 H 9.398 L 9.881,8.772 c 0.602,-0.007 1.38,-0.61 1.38,-1.695 V 7.06 c 0,-1.074 -0.647,-1.7 -1.45,-1.7 z M 6.292,5.982 h 0.622 c 0.373,0 0.62,0.121 0.62,0.458 v 0.016 c 0,0.28 -0.247,0.458 -0.62,0.458 H 6.292 Z m 2.796,0 h 0.62 c 0.375,0 0.933,0.316 0.933,1.079 v 0.016 c 0,0.774 -0.558,1.079 -0.932,1.079 H 9.088 Z"
       id="path2" />
  </g>
</svg>
