<?xml version="1.0" encoding="UTF-8" standalone="no"?>
<svg
   width="48"
   height="48"
   viewBox="0 0 12.699752 12.699752"
   version="1.1"
   id="svg2"
   sodipodi:docname="rubymine.svg"
   inkscape:version="1.3.2 (091e20ef0f, 2023-11-25)"
   xmlns:inkscape="http://www.inkscape.org/namespaces/inkscape"
   xmlns:sodipodi="http://sodipodi.sourceforge.net/DTD/sodipodi-0.dtd"
   xmlns="http://www.w3.org/2000/svg"
   xmlns:svg="http://www.w3.org/2000/svg">
  <defs
     id="defs2" />
  <sodipodi:namedview
     id="namedview2"
     pagecolor="#ffffff"
     bordercolor="#999999"
     borderopacity="1"
     inkscape:showpageshadow="2"
     inkscape:pageopacity="0"
     inkscape:pagecheckerboard="0"
     inkscape:deskcolor="#d1d1d1"
     inkscape:zoom="6.2265625"
     inkscape:cx="29.229611"
     inkscape:cy="16.943538"
     inkscape:window-width="1920"
     inkscape:window-height="994"
     inkscape:window-x="0"
     inkscape:window-y="0"
     inkscape:window-maximized="1"
     inkscape:current-layer="svg2" />
  <g
     id="g2"
     transform="matrix(0.77778981,0,0,0.77778981,-0.23528143,-0.23528143)">
    <path
       d="M 15.61,8.466 A 7.144,7.144 0 0 1 8.466,15.61 7.144,7.144 0 0 1 1.323,8.466 7.144,7.144 0 0 1 8.466,1.323 7.144,7.144 0 0 1 15.61,8.466 Z"
       id="path1"
       style="fill:#d35f8d" />
    <rect
       width="7.9369998"
       height="7.9369998"
       x="4.4980001"
       y="4.4980001"
       fill="#303030"
       rx="1.323"
       ry="1.323"
       style="paint-order:markers stroke fill"
       id="rect1" />
    <path
       fill="#f0f0f0"
       d="m 8.466,5.36 h 0.622 l 0.931,1.553 0.932,-1.553 h 0.621 v 3.417 h -0.62 V 6.603 L 10.019,8.156 9.088,6.603 V 8.777 H 8.466 M 6.603,5.361 c 0.621,0 1.242,0.483 1.242,1.087 0,0.465 -0.292,0.748 -0.685,0.97 L 7.845,8.777 H 7.224 L 6.603,7.535 H 5.982 V 8.777 H 5.36 V 5.36 Z m 0,1.553 c 0.484,0 0.621,-0.222 0.63,-0.466 C 7.224,6.231 7.095,5.982 6.603,5.982 H 5.982 V 6.913 Z M 5.05,10.951 h 3.106 v 0.621 H 5.05 Z"
       id="path2" />
  </g>
</svg>
