<?xml version="1.0" encoding="UTF-8" standalone="no"?>
<svg
   width="48"
   height="48"
   viewBox="0 0 12.699752 12.699752"
   version="1.1"
   id="svg2"
   sodipodi:docname="datagrip.svg"
   inkscape:version="1.3.2 (091e20ef0f, 2023-11-25)"
   xmlns:inkscape="http://www.inkscape.org/namespaces/inkscape"
   xmlns:sodipodi="http://sodipodi.sourceforge.net/DTD/sodipodi-0.dtd"
   xmlns="http://www.w3.org/2000/svg"
   xmlns:svg="http://www.w3.org/2000/svg">
  <defs
     id="defs2" />
  <sodipodi:namedview
     id="namedview2"
     pagecolor="#ffffff"
     bordercolor="#999999"
     borderopacity="1"
     inkscape:showpageshadow="2"
     inkscape:pageopacity="0"
     inkscape:pagecheckerboard="0"
     inkscape:deskcolor="#d1d1d1"
     inkscape:zoom="5.451641"
     inkscape:cx="31.366702"
     inkscape:cy="26.872643"
     inkscape:window-width="1920"
     inkscape:window-height="994"
     inkscape:window-x="0"
     inkscape:window-y="0"
     inkscape:window-maximized="1"
     inkscape:current-layer="svg2" />
  <g
     id="g2"
     transform="matrix(0.77778981,0,0,0.77778981,-0.23528143,-0.23528143)">
    <path
       fill="#3dc89a"
       d="M 15.61,8.466 A 7.144,7.144 0 0 1 8.466,15.61 7.144,7.144 0 0 1 1.323,8.466 7.144,7.144 0 0 1 8.466,1.323 7.144,7.144 0 0 1 15.61,8.466 Z"
       id="path1" />
    <rect
       width="7.9369998"
       height="7.9369998"
       x="4.4980001"
       y="4.4980001"
       fill="#303030"
       rx="1.323"
       ry="1.323"
       style="paint-order:markers stroke fill"
       id="rect1" />
    <path
       fill="#f0f0f0"
       d="m 5.36,5.36 h 1.344 c 0.803,0 1.452,0.627 1.452,1.7 v 0.016 c 0,1.085 -0.78,1.688 -1.381,1.695 L 6.292,8.777 H 5.36 Z m 1.243,2.796 c 0.374,0 0.932,-0.306 0.932,-1.08 V 7.061 c 0,-0.764 -0.558,-1.08 -0.932,-1.08 H 5.982 V 8.156 Z M 10.175,5.36 c -0.493,0 -0.932,0.163 -1.239,0.47 -0.307,0.307 -0.47,0.746 -0.47,1.239 0,0.492 0.163,0.931 0.47,1.238 0.307,0.307 0.746,0.47 1.239,0.47 0.45,0 0.79,-0.141 1.008,-0.289 0.219,-0.148 0.338,-0.322 0.338,-0.322 L 11.572,8.088 V 6.913 H 10.02 v 0.621 h 0.932 V 7.87 c -0.02,0.024 -0.025,0.042 -0.115,0.103 -0.13,0.088 -0.336,0.183 -0.661,0.183 -0.362,0 -0.621,-0.11 -0.8,-0.288 C 9.198,7.69 9.089,7.43 9.089,7.068 c 0,-0.36 0.109,-0.62 0.287,-0.799 0.179,-0.178 0.438,-0.287 0.8,-0.287 0.36,0 0.621,0.109 0.8,0.287 l 0.438,-0.44 C 11.108,5.523 10.669,5.36 10.176,5.36 Z M 5.05,10.951 h 3.106 v 0.621 H 5.05 Z"
       id="path2" />
  </g>
</svg>
