<?xml version="1.0" encoding="UTF-8" standalone="no"?>
<svg
   width="48"
   height="48"
   viewBox="0 0 12.699752 12.699752"
   version="1.1"
   id="svg2"
   sodipodi:docname="pycharm.svg"
   inkscape:version="1.3.2 (091e20ef0f, 2023-11-25)"
   xmlns:inkscape="http://www.inkscape.org/namespaces/inkscape"
   xmlns:sodipodi="http://sodipodi.sourceforge.net/DTD/sodipodi-0.dtd"
   xmlns="http://www.w3.org/2000/svg"
   xmlns:svg="http://www.w3.org/2000/svg">
  <defs
     id="defs2" />
  <sodipodi:namedview
     id="namedview2"
     pagecolor="#ffffff"
     bordercolor="#999999"
     borderopacity="1"
     inkscape:showpageshadow="2"
     inkscape:pageopacity="0"
     inkscape:pagecheckerboard="0"
     inkscape:deskcolor="#d1d1d1"
     inkscape:zoom="4.4028446"
     inkscape:cx="30.43487"
     inkscape:cy="12.151235"
     inkscape:window-width="1920"
     inkscape:window-height="994"
     inkscape:window-x="0"
     inkscape:window-y="0"
     inkscape:window-maximized="1"
     inkscape:current-layer="svg2" />
  <g
     id="g2"
     transform="matrix(0.77778981,0,0,0.77778981,-0.23528143,-0.23528143)">
    <path
       fill="#7bce74"
       d="M 15.61,8.466 A 7.144,7.144 0 0 1 8.466,15.61 7.144,7.144 0 0 1 1.323,8.466 7.144,7.144 0 0 1 8.466,1.323 7.144,7.144 0 0 1 15.61,8.466 Z"
       id="path1" />
    <rect
       width="7.9369998"
       height="7.9369998"
       x="4.4980001"
       y="4.4980001"
       fill="#303030"
       rx="1.323"
       ry="1.323"
       style="paint-order:markers stroke fill"
       id="rect1" />
    <path
       fill="#f0f0f0"
       d="m 5.36,5.36 h 1.344 c 0.804,0 1.141,0.396 1.141,1.088 v 0.015 c 0,0.767 -0.494,1.072 -1.242,1.072 H 5.982 V 8.777 H 5.36 Z m 1.243,1.554 c 0.374,0 0.621,-0.17 0.621,-0.45 V 6.448 C 7.224,6.111 6.977,5.982 6.603,5.982 H 5.982 V 6.914 Z M 8.467,7.05 c 0,-0.953 0.524,-1.69 1.553,-1.69 0.635,0 0.97,0.185 1.289,0.503 L 10.903,6.349 C 10.641,6.106 10.356,5.982 10.02,5.982 9.459,5.982 9.088,6.471 9.088,7.05 V 7.032 c 0,0.58 0.352,1.124 0.932,1.124 0.373,0 0.67,-0.194 0.931,-0.437 l 0.426,0.434 C 11.041,8.527 10.655,8.777 10.02,8.777 9.029,8.796 8.467,8.004 8.467,7.05 M 5.05,10.952 h 3.106 v 0.621 H 5.05 Z"
       id="path2" />
  </g>
</svg>
