<?xml version="1.0" encoding="UTF-8" standalone="no"?>
<svg
   width="48"
   height="48"
   version="1.1"
   id="svg93"
   sodipodi:docname="cuttlefish.svg"
   inkscape:version="1.2.1 (9c6d41e410, 2022-07-14)"
   xmlns:inkscape="http://www.inkscape.org/namespaces/inkscape"
   xmlns:sodipodi="http://sodipodi.sourceforge.net/DTD/sodipodi-0.dtd"
   xmlns:xlink="http://www.w3.org/1999/xlink"
   xmlns="http://www.w3.org/2000/svg"
   xmlns:svg="http://www.w3.org/2000/svg">
  <sodipodi:namedview
     id="namedview95"
     pagecolor="#ffffff"
     bordercolor="#666666"
     borderopacity="1.0"
     inkscape:showpageshadow="2"
     inkscape:pageopacity="0.0"
     inkscape:pagecheckerboard="0"
     inkscape:deskcolor="#d1d1d1"
     showgrid="false"
     inkscape:zoom="4.9166667"
     inkscape:cx="24"
     inkscape:cy="24.20339"
     inkscape:window-width="1920"
     inkscape:window-height="1011"
     inkscape:window-x="0"
     inkscape:window-y="0"
     inkscape:window-maximized="1"
     inkscape:current-layer="svg93" />
  <defs
     id="defs39">
    <linearGradient
       id="a"
       y1="534.08"
       x1="390.08"
       y2="513.54"
       x2="389.88"
       gradientUnits="userSpaceOnUse"
       gradientTransform="matrix(-1.08253.63333-.625-1.09696 1174.65 852.48)">
      <stop
         stop-color="#fcfcfc"
         id="stop2" />
      <stop
         offset="1"
         stop-color="#b677d3"
         id="stop4" />
    </linearGradient>
    <linearGradient
       xlink:href="#a"
       id="b"
       y1="532.43"
       x1="382.21"
       y2="526.79"
       x2="395.45"
       gradientUnits="userSpaceOnUse"
       gradientTransform="matrix(1.08253,0.63333,0.625,-1.09696,-357.51,852.48)" />
    <linearGradient
       id="c"
       y1="20.16"
       x1="25.13"
       y2="4.759"
       x2="7.07"
       gradientUnits="userSpaceOnUse"
       gradientTransform="matrix(1.25,0,0,1.26667,388.57,502.26)">
      <stop
         stop-color="#c0392b"
         id="stop8" />
      <stop
         offset="1"
         stop-color="#b677d3"
         id="stop10" />
    </linearGradient>
    <linearGradient
       id="d"
       y1="537.6"
       x1="400.57"
       y2="546.58"
       x2="392.9"
       gradientUnits="userSpaceOnUse"
       gradientTransform="matrix(1.25 0 0 1.26667-92.14-151.08)">
      <stop
         stop-color="#ffc35a"
         id="stop13" />
      <stop
         offset="1"
         stop-color="#faae2a"
         id="stop15" />
    </linearGradient>
    <linearGradient
       xlink:href="#d"
       id="e"
       y1="538.07"
       x1="393.43"
       y2="539.31"
       x2="390.56"
       gradientUnits="userSpaceOnUse"
       gradientTransform="matrix(1.25,0,0,1.26667,-92.14,-151.08)" />
    <linearGradient
       id="f"
       y1="535.36"
       x1="390.57"
       y2="540.75"
       x2="386.57"
       gradientUnits="userSpaceOnUse"
       gradientTransform="matrix(1.25,0,0,1.26667,-92.14,-151.08)">
      <stop
         stop-color="#fdbc4b"
         id="stop19" />
      <stop
         offset="1"
         stop-color="#dde341"
         id="stop21" />
    </linearGradient>
    <linearGradient
       xlink:href="#d"
       id="g"
       y1="524.44"
       x1="393.1"
       y2="522.66"
       x2="388.89"
       gradientUnits="userSpaceOnUse"
       gradientTransform="matrix(0.95819,0.56059,0.55321,-0.97096,-270.72,815.18)" />
    <linearGradient
       xlink:href="#d"
       id="h"
       y1="522.9"
       x1="392.69"
       y2="521.73"
       x2="389.45"
       gradientUnits="userSpaceOnUse"
       gradientTransform="matrix(-0.95819,0.56059,-0.55321,-0.97096,1087.86,815.18)" />
    <linearGradient
       xlink:href="#d"
       id="i"
       y1="535.36"
       x1="390.57"
       y2="540.75"
       x2="386.57"
       gradientUnits="userSpaceOnUse"
       gradientTransform="matrix(-1.25,0,0,1.26667,909.29,-151.08)" />
    <linearGradient
       xlink:href="#d"
       id="j"
       y1="538.07"
       x1="393.43"
       y2="539.31"
       x2="390.56"
       gradientUnits="userSpaceOnUse"
       gradientTransform="matrix(-1.25,0,0,1.26667,909.29,-151.08)" />
    <linearGradient
       xlink:href="#d"
       id="k"
       y1="537.6"
       x1="400.57"
       y2="546.58"
       x2="392.9"
       gradientUnits="userSpaceOnUse"
       gradientTransform="matrix(-1.25,0,0,1.26667,909.29,-151.08)" />
    <linearGradient
       id="l"
       y1="535.8"
       x1="396.57"
       y2="542.8"
       x2="389.57"
       gradientUnits="userSpaceOnUse"
       gradientTransform="matrix(-1.25 0 0 1.26667 909.29-152.35)">
      <stop
         id="stop29" />
      <stop
         offset="1"
         stop-opacity="0"
         id="stop31" />
    </linearGradient>
    <linearGradient
       xlink:href="#l"
       id="m"
       y1="535.8"
       x1="396.57"
       y2="542.8"
       x2="389.57"
       gradientUnits="userSpaceOnUse"
       gradientTransform="matrix(-1.25,0,0,1.26667,914.29,-151.08)" />
    <linearGradient
       xlink:href="#l"
       id="n"
       y1="535.8"
       x1="396.57"
       y2="542.8"
       x2="389.57"
       gradientUnits="userSpaceOnUse"
       gradientTransform="matrix(-1.25,0,0,1.26667,919.29,-151.08)" />
    <linearGradient
       xlink:href="#l"
       id="o"
       y1="535.8"
       x1="396.57"
       y2="547.8"
       x2="384.57"
       gradientUnits="userSpaceOnUse"
       gradientTransform="matrix(-1.25,0,0,1.26667,890.54,-167.55)" />
    <linearGradient
       xlink:href="#d"
       id="p"
       y1="535.36"
       x1="390.57"
       y2="540.75"
       x2="386.57"
       gradientUnits="userSpaceOnUse"
       gradientTransform="matrix(1.25,0,0,1.26667,-92.14,-151.08)" />
    <path
       fill-rule="evenodd"
       id="q"
       d="m394.82 525.06c-3.75 2.533 0 5.067-2.5 7.6-2.5 2.533-3.75 1.267-3.75 2.533 0 1.267 3.75 3.8 6.25 1.267 2.5-2.533 2.5-3.8 2.5-3.8 0 0 2.5-2.533 1.25-5.067-1.25-2.533-3.75-2.533-3.75-2.533" />
    <linearGradient
       inkscape:collect="always"
       xlink:href="#a"
       id="linearGradient324"
       gradientUnits="userSpaceOnUse"
       gradientTransform="matrix(-1.08253,0.63333,-0.625,-1.09696,1174.65,852.48)"
       x1="390.08"
       y1="534.08"
       x2="389.88"
       y2="513.54" />
    <linearGradient
       inkscape:collect="always"
       xlink:href="#l"
       id="linearGradient326"
       gradientUnits="userSpaceOnUse"
       gradientTransform="matrix(-1.25,0,0,1.26667,909.29,-152.35)"
       x1="396.57"
       y1="535.8"
       x2="389.57"
       y2="542.8" />
    <linearGradient
       inkscape:collect="always"
       xlink:href="#d"
       id="linearGradient328"
       gradientUnits="userSpaceOnUse"
       gradientTransform="matrix(1.25,0,0,1.26667,-92.14,-151.08)"
       x1="400.57"
       y1="537.6"
       x2="392.9"
       y2="546.58" />
  </defs>
  <g
     transform="matrix(1.0500011,0,0,1.1052632,-404.99893,-554.93686)"
     id="g91">
    <path
       fill="#ffc35a"
       d="m 408.57,504.8 c 9.695,0 17.5,7.909 17.5,17.733 0,9.824 -7.805,11.4 -17.5,11.4 -9.695,0 -17.5,-1.576 -17.5,-11.4 0,-9.824 7.805,-17.733 17.5,-17.733"
       id="path41" />
    <path
       fill="url(#c)"
       d="m 408.57,504.8 c -0.071,0 -0.139,0.009 -0.21,0.01 -0.664,1.956 -0.025,4.47 1.238,5.079 1.36,0.656 4.33,-0.672 5.269,-2.669 0.179,-0.381 0.249,-0.756 0.271,-1.123 -2.028,-0.829 -4.24,-1.296 -6.567,-1.296 m -1.167,0.059 c -2.719,0.181 -5.26,0.978 -7.495,2.266 0.245,0.656 0.758,1.223 1.533,1.672 1.699,0.985 4.65,1.139 5.713,-0.742 0.484,-0.857 0.508,-2.053 0.249,-3.196 m 8.281,2.934 c -0.611,0 -2.212,1.25 -2.212,1.804 0,0.553 1.286,1.962 1.897,1.962 0.611,0 0.396,-1.891 0.396,-2.444 0,-0.553 0.531,-1.321 -0.081,-1.321 m -13.308,1.705 c -0.811,-0.075 -1.932,0.833 -2.202,1.338 -0.309,0.577 -0.331,2.083 0.469,2.523 0.8,0.44 1.497,-0.553 1.807,-1.131 0.309,-0.577 1.051,-2.195 0.251,-2.635 -0.1,-0.055 -0.209,-0.086 -0.325,-0.097 m 4.919,0.198 c -0.887,0.012 -1.896,0.305 -2.727,0.698 -1.662,0.785 -1.984,2.786 -1.301,4.27 0.682,1.484 1.636,2.049 3.298,1.264 1.662,-0.785 3.405,-3.746 2.722,-5.23 -0.341,-0.742 -1.105,-1.013 -1.992,-1 m 4.724,0.668 c -0.359,0.03 -0.735,0.146 -1.125,0.356 -1.56,0.843 -2.106,3.304 -1.316,4.807 0.79,1.503 2.934,2.28 4.495,1.437 1.56,-0.843 1.315,-3.385 0.525,-4.889 -0.593,-1.127 -1.502,-1.801 -2.578,-1.712 m 4.451,2.264 c -0.908,0.056 -0.979,1.272 -0.94,1.927 0.039,0.656 0.254,2.426 1.162,2.37 0.908,-0.056 1.533,-1.754 1.494,-2.41 -0.039,-0.656 -0.808,-1.943 -1.716,-1.888 m -8.787,3.434 c -1.207,-0.019 -2.527,0.835 -3.123,1.749 -0.794,1.218 -1.184,2.238 0.2,3.164 1.384,0.927 3.544,0.77 4.338,-0.448 0.794,-1.218 1.106,-3.197 -0.278,-4.124 -0.346,-0.232 -0.735,-0.335 -1.138,-0.341 m -4.121,0.304 c -0.495,0 -1.213,0.378 -1.213,1.042 0,0.664 0.323,0.96 0.818,0.96 0.495,0 0.977,-0.296 0.977,-0.96 0,-0.664 -0.086,-1.042 -0.581,-1.042 m 7.893,1.442 c -0.764,0 -1.462,1.473 -1.462,2.402 0,0.929 1.013,0.962 1.777,0.962 0.764,0 1.78,-0.753 1.78,-1.682 0,-0.929 -1.331,-1.682 -2.095,-1.682"
       id="path43"
       style="fill:url(#c)" />
    <path
       fill="url(#b)"
       d="m 392.08033,527.71799 a 5.00433,8.858952 14.633555 0 1 -2.56498,-9.87587 5.00433,8.858952 14.633555 0 1 7.0943,-7.25319 5.00433,8.858952 14.633555 0 1 0.54755,0.22338 5.00437,17.717786 14.778482 0 1 -1.60478,8.66898 5.00437,17.717786 14.778482 0 1 -2.8915,8.32561 5.00433,8.858952 14.633555 0 1 -0.58058,-0.089"
       id="path45"
       style="fill:url(#b)" />
    <path
       fill="#2c3e50"
       color-rendering="auto"
       shape-rendering="auto"
       color-interpolation-filters="linearRGB"
       image-rendering="auto"
       fill-rule="evenodd"
       text-rendering="auto"
       color-interpolation="sRGB"
       color="#000000"
       d="m 389.05339,520.6061 a 5.00433,8.858952 14.633555 0 1 0.46123,-2.76395 5.00433,8.858952 14.633555 0 1 0.22806,-0.76642 c 1.716,0.231 1.755,-0.194 2.705,-0.383 1.06,-0.211 3.047,1.789 1.328,1.488 -1.718,-0.301 -2.221,2.466 -4.558,2.438 -0.072,-10e-4 -0.097,-0.011 -0.164,-0.013"
       id="path47" />
    <path
       fill="url(#a)"
       d="m 425.06257,527.71799 a 8.858952,5.00433 75.36644 0 0 2.56497,-9.87587 8.858952,5.00433 75.36644 0 0 -7.0943,-7.25319 8.858952,5.00433 75.36644 0 0 -0.54755,0.22338 17.717786,5.00437 75.22152 0 0 1.60479,8.66898 17.717786,5.00437 75.22152 0 0 2.8915,8.32561 8.858952,5.00433 75.36644 0 0 0.58058,-0.089"
       id="path49"
       style="fill:url(#linearGradient324)" />
    <g
       fill-rule="evenodd"
       id="g63">
      <path
         fill="#2c3e50"
         color-rendering="auto"
         shape-rendering="auto"
         color-interpolation-filters="linearRGB"
         image-rendering="auto"
         text-rendering="auto"
         color-interpolation="sRGB"
         color="#000000"
         d="m 428.0895,520.6061 a 8.858952,5.00433 75.36644 0 0 -0.46122,-2.76395 8.858952,5.00433 75.36644 0 0 -0.22806,-0.76642 c -1.716,0.231 -1.755,-0.194 -2.705,-0.383 -1.06,-0.211 -3.047,1.789 -1.328,1.488 1.718,-0.301 2.221,2.466 4.558,2.438 0.072,-10e-4 0.097,-0.011 0.164,-0.013"
         id="path51" />
      <g
         fill="#ffc35a"
         id="g57">
        <path
           d="m 399.91,508.61 c 0,0 -5,-1.267 -5,1.267 0,1.267 1.25,5.067 1.25,7.6 0,2.533 2.5,-3.8 2.5,-3.8 z"
           id="path53" />
        <path
           d="m 417.32,508.6 c 0,0 5,-1.267 5,1.267 0,1.267 -1.25,5.067 -1.25,7.6 0,2.533 -2.5,-3.8 -2.5,-3.8 z"
           id="path55" />
      </g>
      <path
         fill="url(#g)"
         d="m 394.51,530.13 c 0,0 -4.386,-1.271 -3.28,-3.213 0.553,-0.971 3.171,-3.323 4.277,-5.265 1.106,-1.942 0.257,4.03 0.257,4.03 z"
         id="path59"
         style="fill:url(#g)" />
      <path
         fill="url(#h)"
         d="m 422.64,530.13 c 0,0 4.386,-1.271 3.28,-3.213 -0.553,-0.971 -3.171,-3.323 -4.277,-5.265 -1.106,-1.942 -0.257,4.03 -0.257,4.03 z"
         id="path61"
         style="fill:url(#h)" />
    </g>
    <use
       fill="url(#f)"
       xlink:href="#q"
       id="use65"
       style="fill:url(#f)" />
    <g
       fill-rule="evenodd"
       id="g79">
      <path
         opacity="0.1"
         fill="url(#n)"
         d="m 423.57,526.33 v 3.459 c 0.697,-0.284 1.578,-0.739 2.097,-1.333 z"
         id="path67"
         style="fill:url(#n)" />
      <path
         fill="url(#i)"
         d="m 422.32,525.06 c 3.75,2.533 0,5.067 2.5,7.6 2.5,2.533 3.75,1.267 3.75,2.533 0,1.267 -3.75,3.8 -6.25,1.267 -2.5,-2.533 -2.5,-3.8 -2.5,-3.8 0,0 -2.5,-2.533 -1.25,-5.067 1.25,-2.533 3.75,-2.533 3.75,-2.533"
         id="path69"
         style="fill:url(#i)" />
      <path
         opacity="0.1"
         fill="url(#m)"
         d="m 419.05,526.82 c -0.173,0.23 -0.338,0.483 -0.483,0.777 v 3.097 c 0.47,1.154 1.25,1.969 1.25,1.969 0,0 0,1.267 2.5,3.8 2.01,2.04 4.804,0.796 5.828,-0.428 l -3.328,-3.372 z"
         id="path71"
         style="fill:url(#m)" />
      <path
         fill="url(#j)"
         d="m 415.11,537.93 c 0.971,3.671 6.827,4.075 8.466,2.338 1.639,-1.737 -1.782,-1.53 -2.429,-3.977 -0.647,-2.447 0.884,-1.551 -0.087,-5.222 -0.971,-3.671 -3.734,-6 -3.734,-6 l -5,2.533 z"
         id="path73"
         style="fill:url(#j)" />
      <path
         opacity="0.1"
         fill="url(#l)"
         d="m 413.82,526.33 -0.25,0.633 v 5.272 l 1.533,5.69 c 0.971,3.671 6.828,4.075 8.467,2.338 1.639,-1.737 -1.752,-1.536 -2.429,-3.976 -0.474,-1.707 0.059,-1.653 0.137,-2.415 z"
         id="path75"
         style="fill:url(#linearGradient326)" />
      <path
         fill="url(#k)"
         d="m 408.57,531.4 v 5.067 c 0,3.8 3.75,6.333 7.5,6.333 3.75,0 -1.25,-2.533 0,-6.333 1.25,-3.8 -2.5,-11.4 -2.5,-11.4 l -5,1.267 z"
         id="path77"
         style="fill:url(#k)" />
    </g>
    <use
       fill="url(#p)"
       xlink:href="#q"
       id="use81"
       style="fill:url(#p)" />
    <g
       fill-rule="evenodd"
       id="g89">
      <path
         fill="url(#e)"
         d="m 402.04,537.93 c -0.971,3.671 -6.827,4.075 -8.466,2.338 -1.639,-1.737 1.782,-1.53 2.429,-3.977 0.647,-2.447 -0.884,-1.551 0.087,-5.222 0.971,-3.671 3.734,-6 3.734,-6 l 5,2.533 z"
         id="path83"
         style="fill:url(#e)" />
      <path
         fill="url(#d)"
         d="m 408.57,531.4 v 5.067 c 0,3.8 -3.75,6.333 -7.5,6.333 -3.75,0 1.25,-2.533 0,-6.333 -1.25,-3.8 2.5,-11.4 2.5,-11.4 l 5,1.267 z"
         id="path85"
         style="fill:url(#linearGradient328)" />
      <path
         opacity="0.1"
         fill="url(#o)"
         d="m 394.92,509.97 c 0.038,1.255 1.098,4.611 1.216,7.083 a 5.00437,17.717786 14.778482 0 1 -0.58594,2.4319 5.00437,17.717786 14.778482 0 1 -1.09862,3.66887 c -1.23,1.529 -2.812,3.038 -3.228,3.768 -0.013,0.023 -0.013,0.044 -0.024,0.067 l -0.129,0.614 0.688,1.163 c 0.417,0.353 0.947,0.638 1.438,0.861 0.12,1.014 0.125,2.029 -0.876,3.043 -2.5,2.533 -3.75,1.267 -3.75,2.533 0,1.267 3.75,3.8 6.25,1.267 0.565,-0.572 0.987,-1.071 1.326,-1.514 0.038,0.318 0.016,0.723 -0.146,1.338 -0.647,2.447 -4.068,2.239 -2.429,3.976 1.639,1.737 7.496,1.333 8.467,-2.338 l 1.143,-4.243 c 1.699,0.172 3.501,0.247 5.391,0.247 3.365,0 6.491,-0.2 9.153,-0.858 z"
         id="path87"
         style="fill:url(#o)" />
    </g>
  </g>
</svg>
