<?xml version="1.0" encoding="UTF-8" standalone="no"?>
<svg
   width="48px"
   height="48px"
   viewBox="0 0 48 48"
   version="1.1"
   id="svg13"
   sodipodi:docname="distributor-logo-ubuntu.svg"
   inkscape:version="1.2.2 (b0a8486541, 2022-12-01)"
   xmlns:inkscape="http://www.inkscape.org/namespaces/inkscape"
   xmlns:sodipodi="http://sodipodi.sourceforge.net/DTD/sodipodi-0.dtd"
   xmlns="http://www.w3.org/2000/svg"
   xmlns:svg="http://www.w3.org/2000/svg">
  <defs
     id="defs17" />
  <sodipodi:namedview
     id="namedview15"
     pagecolor="#ffffff"
     bordercolor="#000000"
     borderopacity="0.25"
     inkscape:showpageshadow="2"
     inkscape:pageopacity="0.0"
     inkscape:pagecheckerboard="0"
     inkscape:deskcolor="#d1d1d1"
     showgrid="false"
     inkscape:zoom="4.9166667"
     inkscape:cx="-3.6610169"
     inkscape:cy="24.508474"
     inkscape:window-width="1920"
     inkscape:window-height="1002"
     inkscape:window-x="0"
     inkscape:window-y="0"
     inkscape:window-maximized="1"
     inkscape:current-layer="svg13" />
  <path
     d="M 34.498683,5.8170609 C 44.542701,11.61501 47.980888,24.454667 42.182939,34.498683 36.38499,44.542701 23.545333,47.980888 13.501317,42.182939 3.457299,36.38499 0.019112,23.545333 5.817061,13.501317 11.61501,3.4572995 24.454667,0.0191118 34.498683,5.8170609 Z m 0,0"
     id="path2"
     style="fill:#77216f;fill-opacity:1" />
  <path
     style="fill:#f3d3f0;fill-opacity:1;fill-rule:nonzero;stroke:none;stroke-width:0.961941"
     d="m 26.654735,11.927088 c -2.80316,-0.676365 -5.719043,-0.341941 -8.259168,0.871759 l 1.920125,3.325459 c 2.412367,-1.05588 5.275643,-0.988244 7.740623,0.43588 2.46497,1.424124 3.95673,3.870309 4.24982,6.485586 h 3.83649 c -0.21418,-2.803156 -1.38279,-5.497342 -3.37431,-7.586557 -1.18739,0.913091 -2.852,1.074668 -4.23479,0.274303 -1.38279,-0.796608 -2.07794,-2.318428 -1.87879,-3.80643 z m -9.908747,1.829941 c -1.484245,1.014548 -2.769337,2.374792 -3.731278,4.039401 -0.496001,0.864244 -0.879275,1.762306 -1.153578,2.675398 0.154061,0.06012 0.300606,0.135273 0.439638,0.214183 1.146062,0.657576 1.916366,1.893822 1.916366,3.314187 0,1.596972 -0.973214,2.960975 -2.359761,3.532127 0.785334,2.649095 2.457459,5.042674 4.892372,6.703526 l 1.916366,-3.317945 c -3.494552,-2.56267 -4.561704,-7.372375 -2.344731,-11.212624 0.612486,-1.063395 1.416608,-1.94267 2.340974,-2.626549 z m 19.396637,11.197595 h -3.83649 c -0.13151,1.142305 -0.49224,2.277094 -1.10473,3.34049 -2.22073,3.840249 -6.91771,5.320736 -10.881956,3.577218 l -1.916366,3.317945 c 2.652852,1.277578 5.564982,1.529336 8.251652,0.88679 -0.19915,-1.488004 0.496,-3.013581 1.87879,-3.810189 1.23249,-0.710182 2.68291,-0.665091 3.82522,0 0.14279,0.08267 0.27806,0.17285 0.40957,0.274303 0.65382,-0.695152 1.24001,-1.472972 1.73976,-2.337215 0.96194,-1.664609 1.49552,-3.456975 1.63455,-5.249342 z m 0,0"
     id="path4" />
  <path
     style="fill:#f3d3f0;fill-opacity:1;fill-rule:nonzero;stroke:none;stroke-width:0.961941"
     d="m 31.874015,9.9505993 c 1.37527,0.7928497 1.84121,2.5363677 1.04836,3.9078847 -0.79285,1.375276 -2.53636,1.841216 -3.91164,1.048366 -1.37527,-0.79285 -1.84121,-2.536368 -1.04836,-3.911643 0.79285,-1.3715167 2.53636,-1.8412147 3.91164,-1.0446077 z m 0,0"
     id="path6" />
  <path
     style="fill:#f3d3f0;fill-opacity:1;fill-rule:nonzero;stroke:none;stroke-width:0.961941"
     d="m 13.262711,24.000198 c 0,1.5857 -1.277579,2.863277 -2.863278,2.863277 -1.585699,0 -2.863278,-1.277577 -2.863278,-2.863277 0,-1.5857 1.277579,-2.863277 2.863278,-2.863277 1.585699,0 2.863278,1.277577 2.863278,2.863277 z m 0,0"
     id="path8" />
  <path
     style="fill:#f3d3f0;fill-opacity:1;fill-rule:nonzero;stroke:none;stroke-width:0.961941"
     d="m 31.182615,38.339131 c -1.53309,0.409576 -3.09624,-0.492244 -3.50582,-2.025337 -0.40958,-1.533094 0.49224,-3.096248 2.02534,-3.505824 1.53309,-0.413334 3.09624,0.492244 3.50582,2.021579 0.40958,1.533093 -0.49224,3.096247 -2.02534,3.509582 z m 0,0"
     id="path10" />
</svg>
