<?xml version="1.0" encoding="UTF-8" standalone="no"?>
<svg
   width="48"
   height="48"
   version="1.1"
   id="svg14"
   sodipodi:docname="desktop.svg"
   inkscape:version="1.3.2 (091e20ef0f, 2023-11-25)"
   xmlns:inkscape="http://www.inkscape.org/namespaces/inkscape"
   xmlns:sodipodi="http://sodipodi.sourceforge.net/DTD/sodipodi-0.dtd"
   xmlns:xlink="http://www.w3.org/1999/xlink"
   xmlns="http://www.w3.org/2000/svg"
   xmlns:svg="http://www.w3.org/2000/svg"
   xmlns:rdf="http://www.w3.org/1999/02/22-rdf-syntax-ns#"
   xmlns:cc="http://creativecommons.org/ns#"
   xmlns:dc="http://purl.org/dc/elements/1.1/">
  <sodipodi:namedview
     id="namedview14"
     pagecolor="#ffffff"
     bordercolor="#999999"
     borderopacity="1"
     inkscape:showpageshadow="2"
     inkscape:pageopacity="0"
     inkscape:pagecheckerboard="0"
     inkscape:deskcolor="#d1d1d1"
     inkscape:zoom="5.953125"
     inkscape:cx="26.708661"
     inkscape:cy="42.834646"
     inkscape:window-width="1920"
     inkscape:window-height="994"
     inkscape:window-x="0"
     inkscape:window-y="0"
     inkscape:window-maximized="1"
     inkscape:current-layer="svg14" />
  <metadata
     id="metadata1">
    <rdf:RDF>
      <cc:Work
         rdf:about="">
        <dc:format>image/svg+xml</dc:format>
        <dc:type
           rdf:resource="http://purl.org/dc/dcmitype/StillImage" />
      </cc:Work>
    </rdf:RDF>
  </metadata>
  <defs
     id="defs4">
    <linearGradient
       id="linearGradient1"
       inkscape:collect="always">
      <stop
         style="stop-color:#c83771;stop-opacity:1"
         offset="0"
         id="stop5" />
      <stop
         style="stop-color:#00ccff;stop-opacity:1"
         offset="1"
         id="stop6" />
    </linearGradient>
    <linearGradient
       id="b"
       x1="399.57001"
       x2="399.57001"
       y1="545.79999"
       y2="517.79999"
       gradientTransform="matrix(2.1429,0,0,2.1429,-826.36,-1107.5)"
       gradientUnits="userSpaceOnUse">
      <stop
         stop-color="#3889e9"
         offset="0"
         id="stop1" />
      <stop
         stop-color="#5ea5fb"
         offset="1"
         id="stop2" />
    </linearGradient>
    <linearGradient
       id="linearGradient868"
       x1="55.695"
       x2="11.004"
       y1="53.474998"
       y2="8.7838001"
       gradientTransform="translate(81.114)"
       gradientUnits="userSpaceOnUse">
      <stop
         stop-color="#fa7d37"
         offset="0"
         id="stop3"
         style="stop-color:#00ccff;stop-opacity:1" />
      <stop
         stop-color="#9b32af"
         offset="1"
         id="stop4" />
    </linearGradient>
    <filter
       id="filter858"
       x="-0.035999639"
       y="-0.036000359"
       width="1.0719993"
       height="1.0720007"
       color-interpolation-filters="sRGB">
      <feGaussianBlur
         stdDeviation="0.8999985"
         id="feGaussianBlur4" />
    </filter>
    <linearGradient
       inkscape:collect="always"
       xlink:href="#linearGradient1"
       id="linearGradient6"
       x1="83.133003"
       y1="2.0411856"
       x2="143.11826"
       y2="62.00425"
       gradientUnits="userSpaceOnUse" />
  </defs>
  <g
     transform="matrix(0.69971895,0,0,0.69947968,-55.154272,1.6020536)"
     id="g12">
    <path
       d="m 131.36,8.1932 q -3.8597,-2.9725 -8.444,-4.5557 -4.7372,-1.6373 -9.8021,-1.6373 c -16.57,0 -30.003,13.432 -30.003,30.001 0,15.158 11.245,27.684 25.845,29.709 0.71216,0.09855 1.4339,0.17485 2.1587,0.21936 0.66128,0.04133 1.3258,0.06994 1.9998,0.06994 16.567,0 29.997,-13.432 29.997,-29.999 0,-1.3098 -0.0827,-2.6037 -0.24481,-3.8658 -0.18758,-1.4751 -0.49279,-2.909 -0.88387,-4.3046 q -1.3289,-4.6892 -4.0822,-8.7265 -2.7215,-3.9771 -6.5401,-6.9112 z"
       stroke-width="0.99724"
       id="path5"
       style="fill:url(#linearGradient6)" />
    <g
       transform="matrix(1.0296,0,0,1.0296,-54.834,-36.304)"
       id="g11">
      <circle
         cx="163.13"
         cy="66.343002"
         r="20.150999"
         fill="#ffffff"
         opacity="0.5"
         stroke-width="0.35623"
         id="circle5" />
      <circle
         cx="163.13"
         cy="66.343002"
         r="14.09"
         fill="#191923"
         stroke-width="0.24908"
         id="circle6" />
      <circle
         cx="163.13"
         cy="66.343002"
         r="9.0010996"
         fill="#3b444c"
         stroke-width="0.15912"
         id="circle7" />
      <circle
         cx="163.13"
         cy="66.343002"
         r="4.4475002"
         fill="#0d0d0c"
         stroke-width="0.07862"
         id="circle8" />
      <g
         transform="matrix(2.0044,0,0,2.0044,805.95,223.69)"
         fill="#fefefe"
         id="g10">
        <circle
           cx="-320.70999"
           cy="-79.129997"
           r="0.61511999"
           stroke-width="0.010874"
           id="circle9" />
        <circle
           cx="-320.70999"
           cy="-77.542999"
           r="0.29774001"
           stroke-width="0.0052634"
           id="circle10" />
      </g>
    </g>
    <path
       transform="rotate(90)"
       d="m 57.357,-113.12 a 25.356,25.356 0 0 1 -25.189,25.355 25.356,25.356 0 0 1 -25.52,-25.023 25.356,25.356 0 0 1 24.855,-25.683"
       fill="none"
       opacity="0.2"
       stroke-dashoffset="3"
       stroke-linecap="round"
       stroke-width="9.2945"
       style="paint-order:stroke fill markers"
       id="path11"
       stroke="#000000" />
  </g>
  <ellipse
     cx="24.007734"
     cy="24.014912"
     fill-opacity="0"
     stroke-width="1.09942"
     id="circle12"
     rx="20.992268"
     ry="20.98509" />
  <circle
     cx="32.02"
     cy="32.043999"
     r="0"
     fill="url(#b)"
     stroke-width="1.5715"
     id="circle13"
     style="fill:url(#b)" />
  <circle
     cx="-1019.3"
     cy="-1202"
     r="0"
     fill="#5e4aa6"
     id="circle14" />
</svg>
