<?xml version="1.0" encoding="UTF-8" standalone="no"?>
<svg
   width="48"
   height="48"
   version="1.1"
   id="svg4"
   sodipodi:docname="facebook.svg"
   inkscape:version="1.3.2 (091e20ef0f, 2023-11-25)"
   xmlns:inkscape="http://www.inkscape.org/namespaces/inkscape"
   xmlns:sodipodi="http://sodipodi.sourceforge.net/DTD/sodipodi-0.dtd"
   xmlns="http://www.w3.org/2000/svg"
   xmlns:svg="http://www.w3.org/2000/svg">
  <defs
     id="defs4" />
  <sodipodi:namedview
     id="namedview4"
     pagecolor="#ffffff"
     bordercolor="#999999"
     borderopacity="1"
     inkscape:showpageshadow="2"
     inkscape:pageopacity="0"
     inkscape:pagecheckerboard="0"
     inkscape:deskcolor="#d1d1d1"
     inkscape:zoom="4.2094951"
     inkscape:cx="18.29198"
     inkscape:cy="37.534193"
     inkscape:window-width="1920"
     inkscape:window-height="994"
     inkscape:window-x="0"
     inkscape:window-y="0"
     inkscape:window-maximized="1"
     inkscape:current-layer="svg4" />
  <rect
     style="fill:#3b5999;stroke-width:0.749997"
     width="42"
     height="41.999374"
     x="3.0003128"
     y="3.0003128"
     rx="21"
     ry="20.999687"
     id="rect1" />
  <path
     style="opacity:0.2;stroke-width:0.749997"
     d="m 31.5003,12.75084 c 0,0 -5.99987,0 -5.99987,5.999788 v 5.999771 h -4.499903 v 5.999786 h 4.499903 v 13.499511 l 5.99987,-0.749991 v -12.74952 h 5.249887 l 0.749986,-5.999786 H 31.5003 v -4.499825 c 0,-1.499946 1.499971,-1.499946 1.499971,-1.499946 h 4.499902 V 12.75084 Z"
     id="path2"
     sodipodi:nodetypes="csccccccccccscccc" />
  <path
     style="fill:#ffffff;stroke-width:0.749997"
     d="m 31.5003,12.001515 c 0,0 -5.99987,0 -5.99987,5.999781 v 5.999782 h -4.499903 v 5.999783 h 4.499903 v 14.999452 c 2.641433,-6.29e-4 3.749921,-6.29e-4 5.99987,-1.349851 V 30.000861 h 5.249887 l 0.749986,-5.999783 H 31.5003 v -4.499839 c 0,-1.499943 1.499971,-1.499943 1.499971,-1.499943 h 4.499902 v -5.999781 z"
     id="path3"
     sodipodi:nodetypes="csccccccccccscccc" />
</svg>
