<?xml version="1.0" encoding="UTF-8" standalone="no"?>
<svg
   width="48"
   height="48"
   version="1.1"
   id="svg165"
   sodipodi:docname="kcolorchooser.svg"
   inkscape:version="1.2.2 (b0a8486541, 2022-12-01)"
   xmlns:inkscape="http://www.inkscape.org/namespaces/inkscape"
   xmlns:sodipodi="http://sodipodi.sourceforge.net/DTD/sodipodi-0.dtd"
   xmlns:xlink="http://www.w3.org/1999/xlink"
   xmlns="http://www.w3.org/2000/svg"
   xmlns:svg="http://www.w3.org/2000/svg">
  <sodipodi:namedview
     id="namedview167"
     pagecolor="#ffffff"
     bordercolor="#666666"
     borderopacity="1.0"
     inkscape:showpageshadow="2"
     inkscape:pageopacity="0.0"
     inkscape:pagecheckerboard="0"
     inkscape:deskcolor="#d1d1d1"
     showgrid="false"
     inkscape:zoom="4.9166667"
     inkscape:cx="22.779661"
     inkscape:cy="24.101695"
     inkscape:window-width="1920"
     inkscape:window-height="1000"
     inkscape:window-x="0"
     inkscape:window-y="0"
     inkscape:window-maximized="1"
     inkscape:current-layer="svg165" />
  <defs
     id="defs113">
    <linearGradient
       id="a"
       y1="543.8"
       y2="503.8"
       x2="0"
       gradientUnits="userSpaceOnUse">
      <stop
         stop-color="#363a3e"
         id="stop2" />
      <stop
         offset="1"
         stop-color="#44484c"
         id="stop4" />
    </linearGradient>
    <linearGradient
       id="b"
       y1="24"
       x1="8"
       y2="8"
       x2="24"
       gradientUnits="userSpaceOnUse">
      <stop
         stop-color="#e81877"
         id="stop7" />
      <stop
         offset=".312"
         stop-color="#dd1d8c"
         id="stop9" />
      <stop
         offset=".562"
         stop-color="#6d57b1"
         id="stop11" />
      <stop
         offset=".75"
         stop-color="#2a78c1"
         id="stop13" />
      <stop
         offset="1"
         stop-color="#018dcb"
         id="stop15" />
    </linearGradient>
    <linearGradient
       id="c"
       y1="24"
       x1="8"
       y2="8"
       gradientUnits="userSpaceOnUse"
       x2="24"
       gradientTransform="matrix(1 0 0-1 384.57 547.8)">
      <stop
         stop-color="#e51561"
         id="stop18" />
      <stop
         offset=".312"
         stop-color="#e4156c"
         id="stop20" />
      <stop
         offset=".562"
         stop-color="#e71e2c"
         id="stop22" />
      <stop
         offset=".75"
         stop-color="#e8301e"
         id="stop24" />
      <stop
         offset="1"
         stop-color="#e6320e"
         id="stop26" />
    </linearGradient>
    <linearGradient
       id="d"
       y1="24"
       x1="8"
       y2="8"
       gradientUnits="userSpaceOnUse"
       x2="24"
       gradientTransform="matrix(-1 0 0 1 432.57 499.8)">
      <stop
         stop-color="#bec900"
         id="stop29" />
      <stop
         offset=".312"
         stop-color="#9ec80a"
         id="stop31" />
      <stop
         offset=".562"
         stop-color="#71b93d"
         id="stop33" />
      <stop
         offset=".75"
         stop-color="#35a48f"
         id="stop35" />
      <stop
         offset="1"
         stop-color="#018fca"
         id="stop37" />
    </linearGradient>
    <linearGradient
       id="e"
       y1="24"
       x1="8"
       y2="8"
       gradientUnits="userSpaceOnUse"
       x2="24"
       gradientTransform="matrix(-1 0 0-1 432.57 547.8)">
      <stop
         stop-color="#c1cc00"
         id="stop40" />
      <stop
         offset=".312"
         stop-color="#dfcd00"
         id="stop42" />
      <stop
         offset=".562"
         stop-color="#f0cc00"
         id="stop44" />
      <stop
         offset=".75"
         stop-color="#fd8c08"
         id="stop46" />
      <stop
         offset="1"
         stop-color="#f25c13"
         id="stop48" />
    </linearGradient>
    <linearGradient
       id="f"
       y1="-516.8"
       y2="-530.8"
       gradientUnits="userSpaceOnUse"
       x2="0">
      <stop
         stop-color="#2a2c2f"
         id="stop51" />
      <stop
         offset="1"
         stop-color="#424649"
         id="stop53" />
    </linearGradient>
    <filter
       width="1.12"
       x="-0.060000001"
       y="-0.060000001"
       height="1.12"
       color-interpolation-filters="sRGB"
       id="g">
      <feGaussianBlur
         stdDeviation=".4"
         id="feGaussianBlur56" />
    </filter>
    <clipPath
       id="h">
      <use
         xlink:href="#x"
         id="use59" />
    </clipPath>
    <linearGradient
       xlink:href="#f"
       id="i"
       y1="40"
       y2="8"
       gradientUnits="userSpaceOnUse"
       x2="0" />
    <clipPath
       id="j">
      <use
         xlink:href="#x"
         id="use63" />
    </clipPath>
    <clipPath
       id="k">
      <use
         xlink:href="#y"
         id="use66" />
    </clipPath>
    <linearGradient
       xlink:href="#f"
       id="l"
       y1="539.8"
       y2="507.8"
       gradientUnits="userSpaceOnUse"
       x2="0" />
    <clipPath
       id="m">
      <use
         xlink:href="#y"
         id="use70" />
    </clipPath>
    <clipPath
       id="n">
      <use
         xlink:href="#y"
         id="use73" />
    </clipPath>
    <clipPath
       id="o">
      <use
         xlink:href="#y"
         id="use76" />
    </clipPath>
    <clipPath
       id="p">
      <use
         xlink:href="#y"
         id="use79" />
    </clipPath>
    <clipPath
       id="q">
      <use
         xlink:href="#y"
         id="use82" />
    </clipPath>
    <linearGradient
       id="r"
       y1="525.8"
       y2="521.8"
       x2="0"
       gradientUnits="userSpaceOnUse">
      <stop
         stop-color="#989a9b"
         id="stop85" />
      <stop
         offset="1"
         stop-color="#f6f6f7"
         id="stop87" />
    </linearGradient>
    <linearGradient
       id="s"
       y1="520.8"
       y2="535.8"
       x1="401.57"
       gradientUnits="userSpaceOnUse"
       x2="416.57">
      <stop
         stop-color="#292c2f"
         id="stop90" />
      <stop
         offset="1"
         stop-opacity="0"
         id="stop92" />
    </linearGradient>
    <clipPath
       id="t">
      <use
         xlink:href="#x"
         id="use95" />
    </clipPath>
    <clipPath
       id="u">
      <use
         xlink:href="#y"
         id="use98" />
    </clipPath>
    <clipPath
       id="v">
      <use
         xlink:href="#y"
         id="use101" />
    </clipPath>
    <clipPath
       id="w">
      <use
         xlink:href="#y"
         id="use104" />
    </clipPath>
    <rect
       width="32"
       x="8"
       y="8"
       fill="url(#i)"
       rx="16"
       height="32"
       id="x" />
    <rect
       width="32"
       x="392.57"
       y="507.8"
       fill="url(#l)"
       rx="16"
       height="32"
       id="y" />
    <path
       stroke-opacity=".55"
       fill="url(#b)"
       id="z"
       stroke-width="2.8"
       d="m24 8c-8.864 0-16 7.136-16 16h16z" />
    <path
       stroke-opacity=".55"
       fill="url(#c)"
       id="A"
       stroke-width="2.8"
       d="m408.57 539.8c-8.864 0-16-7.136-16-16h16z" />
    <path
       stroke-opacity=".55"
       fill="url(#d)"
       id="B"
       stroke-width="2.8"
       d="m408.57 507.8c8.864 0 16 7.136 16 16h-16z" />
    <path
       stroke-opacity=".55"
       fill="url(#e)"
       id="C"
       stroke-width="2.8"
       d="m408.57 539.8c8.864 0 16-7.136 16-16h-16z" />
  </defs>
  <g
     transform="matrix(3.0519595,0,0,3.0525474,-1.8343038,-1.8352351)"
     stroke-width="0.96313"
     id="g298">
    <path
       d="m 13.323,3.603 c -0.048,0.049 2.02,4.86 2.02,4.86 l -2.02,4.858 c 0,0 -4.86,-2.568 -4.86,-4.859 0,-2.29 4.86,-4.859 4.86,-4.859 z"
       fill="#46a926"
       style="isolation:isolate"
       id="path274" />
    <path
       d="M 3.604,13.321 C 3.653,13.272 1.584,8.462 1.584,8.462 l 2.02,-4.859 c 0,0 4.86,2.569 4.86,4.86 0,2.29 -4.86,4.858 -4.86,4.858 z"
       fill="#f22c42"
       style="isolation:isolate"
       id="path276" />
    <path
       d="M 13.323,3.603 C 13.275,3.652 8.463,1.584 8.463,1.584 l -4.86,2.019 4.86,4.86 z"
       fill="#ffda64"
       style="isolation:isolate"
       id="path278" />
    <path
       d="m 3.604,13.321 4.86,2.013 c 0,0 4.81,-2.062 4.86,-2.013 L 8.464,8.462 Z"
       fill="#2f5fdd"
       style="isolation:isolate"
       id="path280" />
    <path
       d="M 8.464,1.587 C 8.463,3.345 9.136,5.103 10.483,6.449 L 13.328,3.605 A 6.88,6.88 0 0 0 8.467,1.587 Z"
       fill="#a6d74f"
       style="isolation:isolate"
       id="path282" />
    <path
       d="M 13.328,3.605 10.483,6.449 A 6.84,6.84 0 0 0 15.346,8.461 6.88,6.88 0 0 0 13.328,3.605 Z"
       fill="#76c22b"
       style="isolation:isolate"
       id="path284" />
    <path
       d="m 10.476,10.481 a 6.85,6.85 0 0 0 -2.019,4.862 h 0.069 a 6.88,6.88 0 0 0 4.8,-2.013 z"
       fill="#1463a5"
       style="isolation:isolate"
       id="path286" />
    <path
       d="m 15.346,8.469 a 6.84,6.84 0 0 0 -4.87,2.012 l 2.85,2.85 a 6.88,6.88 0 0 0 2.02,-4.862 z"
       fill="#2b898f"
       style="isolation:isolate"
       id="path288" />
    <path
       d="m 1.587,8.463 a 6.88,6.88 0 0 0 0,0.003 6.88,6.88 0 0 0 2.014,4.857 l 2.85,-2.848 A 6.839,6.839 0 0 0 1.587,8.464 Z"
       fill="#9b33ae"
       style="isolation:isolate"
       id="path290" />
    <path
       d="M 6.45,10.475 3.6,13.323 a 6.88,6.88 0 0 0 4.826,2.02 H 8.469 A 6.85,6.85 0 0 0 6.45,10.475 Z"
       fill="#7839b7"
       style="isolation:isolate"
       id="path292" />
    <path
       d="M 8.467,1.587 A 6.88,6.88 0 0 0 3.609,3.602 l 2.848,2.847 a 6.85,6.85 0 0 0 2.019,-4.861 6.88,6.88 0 0 0 -0.01,0 z"
       fill="#fdc92b"
       style="isolation:isolate"
       id="path294" />
    <path
       d="M 3.609,3.602 A 6.88,6.88 0 0 0 1.588,8.461 6.84,6.84 0 0 0 6.457,6.449 Z"
       fill="#f34f17"
       style="isolation:isolate"
       id="path296" />
  </g>
  <circle
     cx="23.999647"
     cy="23.999769"
     r="15.555529"
     fill="#ffffff"
     opacity="0.35"
     style="stroke-width:2.93966;paint-order:fill markers stroke"
     id="circle300" />
  <g
     fill="#ffffff"
     id="g308"
     transform="matrix(2.9396643,0,0,2.9396643,-0.88902589,-0.88889896)">
    <path
       d="m 9.59,9.589 a 1.588,1.588 0 0 1 -2.246,0 1.588,1.588 0 0 1 0,-2.245 1.588,1.588 0 0 1 2.245,0 1.588,1.588 0 0 1 0,2.245 z"
       color="#000000"
       opacity="0.5"
       overflow="visible"
       style="isolation:auto;mix-blend-mode:normal;paint-order:fill markers stroke"
       id="path302" />
    <path
       d="M 8.467,4.031 A 0.126,0.126 0 0 0 8.379,4.069 L 6.277,6.171 a 3.175,3.175 0 0 0 -0.056,0.05 3.175,3.175 0 0 0 0,4.49 3.175,3.175 0 0 0 4.49,0 3.175,3.175 0 0 0 10e-4,-4.49 3.175,3.175 0 0 0 -0.076,-0.07 C 10.632,6.146 10.631,6.141 10.626,6.136 L 8.559,4.069 A 0.126,0.126 0 0 0 8.467,4.031 Z M 8.49,6.879 a 1.588,1.588 0 0 1 1.1,0.465 1.588,1.588 0 0 1 0,2.245 1.588,1.588 0 0 1 -2.246,0 1.588,1.588 0 0 1 0,-2.245 1.588,1.588 0 0 1 1.146,-0.465 z"
       color="#000000"
       overflow="visible"
       style="isolation:auto;mix-blend-mode:normal;paint-order:fill markers stroke"
       id="path304" />
    <path
       d="M 9.022,7.718 8.461,8.279 7.9,7.718 7.712,7.905 8.274,8.466 7.724,9.039 7.9,9.215 8.46,8.653 9.022,9.215 9.221,9.039 8.648,8.466 9.209,7.906 Z"
       color="#000000"
       overflow="visible"
       style="isolation:auto;mix-blend-mode:normal;paint-order:fill markers stroke"
       id="path306" />
  </g>
</svg>
