<?xml version="1.0" encoding="UTF-8" standalone="no"?>
<svg
   width="48"
   height="48"
   version="1.1"
   id="svg2"
   inkscape:version="1.2.2 (b0a8486541, 2022-12-01)"
   sodipodi:docname="hp-logo.svg"
   xmlns:inkscape="http://www.inkscape.org/namespaces/inkscape"
   xmlns:sodipodi="http://sodipodi.sourceforge.net/DTD/sodipodi-0.dtd"
   xmlns="http://www.w3.org/2000/svg"
   xmlns:svg="http://www.w3.org/2000/svg"
   xmlns:rdf="http://www.w3.org/1999/02/22-rdf-syntax-ns#"
   xmlns:cc="http://creativecommons.org/ns#"
   xmlns:dc="http://purl.org/dc/elements/1.1/">
  <metadata
     id="metadata49">
    <rdf:RDF>
      <cc:Work
         rdf:about="">
        <dc:format>image/svg+xml</dc:format>
        <dc:type
           rdf:resource="http://purl.org/dc/dcmitype/StillImage" />
      </cc:Work>
    </rdf:RDF>
  </metadata>
  <sodipodi:namedview
     pagecolor="#ffffff"
     bordercolor="#666666"
     borderopacity="1"
     objecttolerance="10"
     gridtolerance="10"
     guidetolerance="10"
     inkscape:pageopacity="0"
     inkscape:pageshadow="2"
     inkscape:window-width="1920"
     inkscape:window-height="1000"
     id="namedview47"
     showgrid="true"
     inkscape:zoom="6.9532167"
     inkscape:cx="20.566021"
     inkscape:cy="25.096298"
     inkscape:window-x="0"
     inkscape:window-y="0"
     inkscape:window-maximized="1"
     inkscape:current-layer="svg2"
     inkscape:object-nodes="true"
     inkscape:snap-bbox="true"
     inkscape:snap-intersection-paths="true"
     inkscape:snap-smooth-nodes="true"
     inkscape:showpageshadow="2"
     inkscape:pagecheckerboard="0"
     inkscape:deskcolor="#d1d1d1">
    <inkscape:grid
       type="xygrid"
       id="grid4177" />
  </sodipodi:namedview>
  <defs
     id="defs4">
    <linearGradient
       id="linearGradient4252">
      <stop
         style="stop-color:#000000;stop-opacity:1;"
         offset="0"
         id="stop7" />
      <stop
         style="stop-color:#000000;stop-opacity:0;"
         offset="1"
         id="stop9" />
    </linearGradient>
    <linearGradient
       id="c-5"
       y1="-.883"
       x1="-41.26"
       y2="37.956"
       x2="-2.994"
       gradientUnits="userSpaceOnUse"
       gradientTransform="matrix(1.0454421,0,0,1.0298842,103.07684,-29.143158)">
      <stop
         stop-color="#21c9fb"
         id="stop13" />
      <stop
         offset="1"
         stop-color="#1a86f2"
         id="stop15" />
    </linearGradient>
    <linearGradient
       id="b"
       x1="1"
       x2="47"
       gradientTransform="matrix(0,-0.2991,0.2991,0,33.038,286.45)"
       gradientUnits="userSpaceOnUse">
      <stop
         stop-color="#015093"
         offset="0"
         id="stop197" />
      <stop
         stop-color="#015ca7"
         offset="1"
         id="stop199" />
    </linearGradient>
  </defs>
  <g
     transform="matrix(3.0529147,0,0,3.0529147,-1.8480307,-1.8236052)"
     stroke-width="0.92729"
     id="g208">
    <path
       transform="translate(-31.75,-270.81)"
       d="m 40.217,272.39 a 6.879,6.879 0 1 1 0,13.758 6.879,6.879 0 0 1 0,-13.758 z"
       fill="url(#b)"
       id="path204"
       style="fill:url(#b)" />
    <path
       d="M 8.261,1.593 A 6.871,6.871 0 0 0 6.913,1.766 L 3.68,11.159 H 4.958 L 6.59,6.373 h 0.885 l -1.61,4.786 H 7.151 L 8.671,6.703 C 8.893,6.062 8.544,5.476 7.897,5.476 H 6.902 Z m 1.787,3.883 -3.314,9.649 c 0.396,0.102 0.807,0.169 1.227,0.2 l 1.44,-4.168 h 1.697 c 0.302,0 0.631,-0.243 0.734,-0.541 L 13.186,6.7 C 13.407,6.059 13.058,5.473 12.411,5.473 M 11.013,6.37 h 0.964 L 10.64,10.258 H 9.677 Z"
       fill="#ffffff"
       id="path206" />
  </g>
</svg>
