<?xml version="1.0" encoding="UTF-8" standalone="no"?>
<svg
   width="48"
   height="48"
   viewBox="0 0 48 48"
   version="1.1"
   id="svg102"
   sodipodi:docname="imagewriter.svg"
   inkscape:version="1.2.1 (9c6d41e410, 2022-07-14)"
   xmlns:inkscape="http://www.inkscape.org/namespaces/inkscape"
   xmlns:sodipodi="http://sodipodi.sourceforge.net/DTD/sodipodi-0.dtd"
   xmlns:xlink="http://www.w3.org/1999/xlink"
   xmlns="http://www.w3.org/2000/svg"
   xmlns:svg="http://www.w3.org/2000/svg">
  <sodipodi:namedview
     id="namedview104"
     pagecolor="#ffffff"
     bordercolor="#666666"
     borderopacity="1.0"
     inkscape:showpageshadow="2"
     inkscape:pageopacity="0.0"
     inkscape:pagecheckerboard="0"
     inkscape:deskcolor="#d1d1d1"
     showgrid="false"
     inkscape:zoom="4.9166667"
     inkscape:cx="-11.186441"
     inkscape:cy="24"
     inkscape:window-width="1920"
     inkscape:window-height="1009"
     inkscape:window-x="0"
     inkscape:window-y="0"
     inkscape:window-maximized="1"
     inkscape:current-layer="svg102" />
  <defs
     id="defs54">
    <linearGradient
       inkscape:collect="always"
       id="linearGradient1314">
      <stop
         style="stop-color:#00d1d1;stop-opacity:1;"
         offset="0"
         id="stop1310" />
      <stop
         style="stop-color:#55d400;stop-opacity:1"
         offset="1"
         id="stop1312" />
    </linearGradient>
    <linearGradient
       id="a"
       y1="525.26"
       x1="395.91"
       y2="513.95"
       x2="425.21"
       gradientUnits="userSpaceOnUse"
       gradientTransform="matrix(1.0499212,0,0,1.0499473,-404.96475,-525.96141)">
      <stop
         stop-color="#da4453"
         id="stop2" />
      <stop
         offset="1"
         stop-color="#ff7336"
         id="stop4" />
    </linearGradient>
    <linearGradient
       id="b"
       y1="44.09"
       x1="26.362"
       y2="33.75"
       x2="44"
       gradientUnits="userSpaceOnUse"
       gradientTransform="matrix(1.0499212,0,0,1.0499473,-1.1965357,-1.1976901)">
      <stop
         stop-color="#c0392b"
         id="stop7" />
      <stop
         offset="1"
         stop-color="#c0392b"
         stop-opacity="0"
         id="stop9" />
    </linearGradient>
    <linearGradient
       id="c"
       y1="519.85"
       x1="388.57"
       y2="528.52"
       x2="398.82"
       gradientUnits="userSpaceOnUse"
       gradientTransform="matrix(1.0499212,0,0,1.0499473,-404.96475,-525.96141)">
      <stop
         stop-color="#4d4d4d"
         id="stop12" />
      <stop
         offset="1"
         stop-color="#31363b"
         id="stop14" />
    </linearGradient>
    <linearGradient
       id="d"
       y1="509.8"
       x1="394.57"
       y2="537.95"
       x2="422.73"
       gradientUnits="userSpaceOnUse">
      <stop
         stop-color="#e5e7e8"
         id="stop17" />
      <stop
         offset="1"
         stop-color="#dcdee0"
         id="stop19" />
    </linearGradient>
    <linearGradient
       id="e"
       x1="389.57"
       x2="427.57"
       gradientUnits="userSpaceOnUse"
       gradientTransform="matrix(0.74240985,0.74242834,-0.74240985,0.74242834,109.54917,-668.21882)">
      <stop
         stop-color="#fcfcfc"
         id="stop22" />
      <stop
         offset="1"
         stop-color="#eff0f1"
         id="stop24" />
    </linearGradient>
    <linearGradient
       xlink:href="#d"
       id="f"
       y1="133.33"
       x1="771.7"
       y2="160.66"
       gradientUnits="userSpaceOnUse"
       x2="799.04"
       gradientTransform="matrix(1.0499212,0,0,1.0499473,-404.96475,-525.96141)" />
    <linearGradient
       id="g"
       y1="551.8"
       y2="528.8"
       gradientUnits="userSpaceOnUse"
       x2="0"
       gradientTransform="matrix(0.49677,0,0,0.76923,135.6942,79.028012)">
      <stop
         stop-color="#c6cdd1"
         id="stop28" />
      <stop
         offset="1"
         stop-color="#e0e5e7"
         id="stop30" />
    </linearGradient>
    <linearGradient
       id="h"
       y1="557.8"
       y2="505.8"
       gradientUnits="userSpaceOnUse"
       x2="0"
       gradientTransform="matrix(0.61141,0,0,0.76923,43.722807,105.72)">
      <stop
         stop-color="#42a603"
         id="stop33" />
      <stop
         offset="1"
         stop-color="#78da06"
         id="stop35" />
    </linearGradient>
    <linearGradient
       id="i"
       x1="398.57"
       x2="400.57"
       gradientUnits="userSpaceOnUse"
       gradientTransform="matrix(1.5625 0 0 1.53847-227.95-292.82)">
      <stop
         stop-color="#faae2a"
         id="stop38" />
      <stop
         offset="1"
         stop-color="#ffc35a"
         id="stop40" />
    </linearGradient>
    <linearGradient
       xlink:href="#i"
       id="j"
       x1="398.57"
       gradientUnits="userSpaceOnUse"
       x2="400.57"
       gradientTransform="matrix(1.6405022,0,0,1.6153124,-627.51659,-833.40702)" />
    <linearGradient
       id="k"
       y1="539.88"
       x1="410.5"
       y2="529.73"
       x2="390.65"
       gradientUnits="userSpaceOnUse"
       gradientTransform="matrix(0.88383891,0,0,0.88386092,-335.69506,-437.93061)">
      <stop
         stop-color="#bcfd93"
         id="stop44"
         offset="0"
         style="stop-color:#5ae105;stop-opacity:1;" />
      <stop
         offset="1"
         stop-color="#fafff5"
         id="stop46"
         style="stop-color:#99ffff;stop-opacity:1;" />
    </linearGradient>
    <linearGradient
       id="l"
       y1="34.612"
       x1="14.187"
       y2="54.612"
       x2="34.19"
       gradientUnits="userSpaceOnUse">
      <stop
         stop-color="#383e51"
         id="stop49" />
      <stop
         offset="1"
         stop-color="#655c6f"
         stop-opacity="0"
         id="stop51" />
    </linearGradient>
    <linearGradient
       inkscape:collect="always"
       xlink:href="#d"
       id="linearGradient1226"
       gradientUnits="userSpaceOnUse"
       x1="394.57"
       y1="509.8"
       x2="422.73"
       y2="537.95"
       gradientTransform="matrix(1.0499212,0,0,1.0499473,-404.96475,-525.96141)" />
    <linearGradient
       inkscape:collect="always"
       xlink:href="#i"
       id="linearGradient1228"
       gradientUnits="userSpaceOnUse"
       gradientTransform="matrix(1.6405022,0,0,1.6153124,-637.36487,-833.40702)"
       x1="398.57"
       x2="400.57" />
    <linearGradient
       inkscape:collect="always"
       xlink:href="#linearGradient1314"
       id="linearGradient1316"
       x1="9.5087291"
       y1="34.70888"
       x2="27.188785"
       y2="34.70888"
       gradientUnits="userSpaceOnUse" />
  </defs>
  <path
     fill="url(#d)"
     d="m 24.001577,3.0020999 c -11.580635,0 -20.9070839,9.2794381 -20.9942275,20.8372621 L 4.1864114,23.863512 9.104244,36.483886 19.777743,42.70168 31.746849,41.959362 39.914183,36.20565 43.718047,23.585269 41.491168,14.490622 34.993199,6.4784764 33.352179,5.2647368 33.072899,5.0694469 C 30.326298,3.755962 27.259481,3 24.000523,3 m 0,5.249738 c 8.724847,0 15.748826,7.024152 15.748826,15.749216 0,8.725057 -7.023979,15.74921 -15.748826,15.74921 -8.72484,0 -15.7488159,-7.024153 -15.7488159,-15.74921 0,-8.725064 7.0239759,-15.749216 15.7488159,-15.749216"
     id="path56"
     style="fill:url(#linearGradient1226);stroke-width:9.0158;stroke-opacity:0.55" />
  <path
     fill="url(#e)"
     d="m 24.001577,4.0310489 c -5.09947,0 -10.19894,1.9539516 -14.106743,5.8608031 -7.8145653,7.814768 -7.8145653,20.398388 0,28.213142 7.81456,7.814762 20.397866,7.814762 28.21244,0 7.814559,-7.814754 7.814559,-20.398374 0,-28.213142 C 34.200517,5.9850005 29.099993,4.0310489 24.000523,4.0310489 m 0,13.6703111 c 1.608483,0 3.216961,0.617371 4.449571,1.850012 2.465216,2.465276 2.465216,6.434079 0,8.900402 -2.465215,2.465277 -6.43392,2.465277 -8.90018,0 -2.465216,-2.465269 -2.465216,-6.43408 0,-8.900402 1.232602,-1.232641 2.84108,-1.850012 4.449563,-1.850012"
     id="path58"
     style="fill:url(#e);stroke-width:9.0158;stroke-opacity:0.55" />
  <path
     fill="url(#b)"
     d="m 3.0136491,23.476079 c -0.0042,0.175338 -0.012599,0.348583 -0.012599,0.524967 C 3.0010501,35.634466 12.366347,45 23.999477,45 c 11.63313,0 20.998431,-9.365534 20.998431,-20.998954 0,-0.176384 -0.008,-0.349629 -0.0126,-0.524967 -0.278233,11.387724 -9.533287,20.473971 -20.985831,20.473971 -11.456743,0 -20.7086489,-9.086247 -20.9858282,-20.473971"
     id="path60"
     style="fill:url(#b);stroke-width:9.0158;stroke-opacity:0.55" />
  <path
     opacity="0.4"
     fill="#f9f9f9"
     d="m 24.001577,16.651416 c -1.877264,0 -3.754522,0.71922 -5.191864,2.157645 -2.876785,2.876855 -2.876785,7.508169 0,10.385032 2.876792,2.876857 7.50799,2.876857 10.384774,0 2.876785,-2.876863 2.876785,-7.508177 0,-10.385032 -1.438389,-1.438425 -3.315646,-2.157645 -5.191864,-2.157645 m -0.002,4.15263 a 3.1524414,3.1525199 0 0 1 3.151861,3.153936 3.1524414,3.1525199 0 0 1 -3.151806,3.151896 3.1524414,3.1525199 0 0 1 -3.153873,-3.151896 3.1524414,3.1525199 0 0 1 3.153873,-3.153936"
     id="path62"
     style="stroke-width:9.0158;stroke-opacity:0.55" />
  <path
     fill="url(#f)"
     d="m 24.199938,12.44953 a 11.549136,11.549424 0 0 0 -0.818207,0.0287 11.549136,11.549424 0 0 0 -1.144242,0.139443 11.549136,11.549424 0 0 0 -1.127846,0.252247 11.549136,11.549424 0 0 0 -1.095037,0.365014 11.549136,11.549424 0 0 0 -1.054017,0.469607 11.549136,11.549424 0 0 0 -1.00071,0.576243 11.549136,11.549424 0 0 0 -0.93919,0.670572 11.549136,11.549424 0 0 0 -0.867413,0.76285 11.549136,11.549424 0 0 0 -0.785393,0.844875 11.549136,11.549424 0 0 0 -0.69926,0.918711 11.549136,11.549424 0 0 0 -0.602882,0.984319 11.549136,11.549424 0 0 0 -0.502411,1.039694 11.549136,11.549424 0 0 0 -0.397827,1.084819 11.549136,11.549424 0 0 0 -0.285026,1.117616 11.549136,11.549424 0 0 0 -0.172255,1.14018 11.549136,11.549424 0 0 0 -0.05744,1.154527 11.549136,11.549424 0 0 0 0.0287,0.818229 11.549136,11.549424 0 0 0 0.139439,1.144272 11.549136,11.549424 0 0 0 0.254278,1.127872 11.549136,11.549424 0 0 0 0.362962,1.095072 11.549136,11.549424 0 0 0 0.469596,1.054036 11.549136,11.549424 0 0 0 0.576228,1.000736 11.549136,11.549424 0 0 0 0.672597,0.939211 11.549136,11.549424 0 0 0 0.760789,0.867437 11.549136,11.549424 0 0 0 0.844855,0.785412 11.549136,11.549424 0 0 0 0.918687,0.699277 11.549136,11.549424 0 0 0 0.984297,0.602897 11.549136,11.549424 0 0 0 1.039667,0.502423 11.549136,11.549424 0 0 0 1.084791,0.397839 11.549136,11.549424 0 0 0 1.117589,0.285033 11.549136,11.549424 0 0 0 1.140148,0.172257 11.549136,11.549424 0 0 0 1.154501,0.05744 11.549136,11.549424 0 0 0 0.818207,-0.0287 11.549136,11.549424 0 0 0 1.144251,-0.139443 11.549136,11.549424 0 0 0 1.127838,-0.254292 11.549136,11.549424 0 0 0 1.095038,-0.362969 11.549136,11.549424 0 0 0 1.054017,-0.469607 11.549136,11.549424 0 0 0 1.000717,-0.576243 11.549136,11.549424 0 0 0 0.939182,-0.672614 11.549136,11.549424 0 0 0 0.867413,-0.760807 11.549136,11.549424 0 0 0 0.785393,-0.844878 11.549136,11.549424 0 0 0 0.69927,-0.918708 11.549136,11.549424 0 0 0 0.60288,-0.984326 11.549136,11.549424 0 0 0 0.502403,-1.039688 11.549136,11.549424 0 0 0 0.397826,-1.084818 11.549136,11.549424 0 0 0 0.285034,-1.117617 11.549136,11.549424 0 0 0 0.172248,-1.14018 11.549136,11.549424 0 0 0 0.05744,-1.154527 11.549136,11.549424 0 0 0 -0.0287,-0.818229 11.549136,11.549424 0 0 0 -0.13944,-1.144271 A 11.549136,11.549424 0 0 0 35.326638,20.908598 11.549136,11.549424 0 0 0 34.963684,19.813529 11.549136,11.549424 0 0 0 34.494088,18.759493 11.549136,11.549424 0 0 0 33.91786,17.758756 11.549136,11.549424 0 0 0 33.247299,16.819545 11.549136,11.549424 0 0 0 32.484474,15.952108 11.549136,11.549424 0 0 0 31.639605,15.166696 11.549136,11.549424 0 0 0 30.720932,14.467409 11.549136,11.549424 0 0 0 29.736623,13.864522 11.549136,11.549424 0 0 0 28.696958,13.3621 11.549136,11.549424 0 0 0 27.612177,12.964261 11.549136,11.549424 0 0 0 26.494588,12.679228 11.549136,11.549424 0 0 0 25.35443,12.50697 11.549136,11.549424 0 0 0 24.19993,12.44952 m -0.200531,5.24763 c 1.609523,0 3.221153,0.614225 4.453763,1.847912 2.466262,2.466323 2.466262,6.441433 0,8.907756 -2.466267,2.466323 -6.439165,2.466323 -8.905434,0 -2.466268,-2.466323 -2.466268,-6.441433 0,-8.907756 1.233658,-1.233687 2.842142,-1.847912 4.451671,-1.847912"
     id="path64"
     style="fill:url(#f);stroke-width:9.0158;stroke-opacity:0.55" />
  <path
     opacity="0.1"
     d="m 24.001577,20.798712 c -1.74182,-10e-4 -3.149766,1.412173 -3.149766,3.149844 -0.001,0.181638 0.01469,0.362229 0.04517,0.541767 0.248828,-1.52452 1.56438,-2.64376 3.108815,-2.64586 1.532889,0 2.844233,1.102441 3.106714,2.612261 0.02838,-0.167992 0.04409,-0.338084 0.04517,-0.508168 0.001,-1.741871 -1.410046,-3.149844 -3.149765,-3.149844"
     id="path66"
     style="stroke-width:9.0158;stroke-opacity:0.55" />
  <path
     fill="#95a5a6"
     d="m 28.201258,24.001046 c 0,1.073049 -0.410516,2.145046 -1.232602,2.967153 -0.822094,0.822115 -1.894057,1.232641 -2.967079,1.232641 v 1.04995 c 1.340749,0 2.682545,-0.512376 3.709371,-1.540273 1.026825,-1.026851 1.540234,-2.368681 1.540234,-3.709471 z"
     id="path68"
     style="stroke-width:9.0158;stroke-opacity:0.55" />
  <rect
     width="6.2995281"
     x="15.182234"
     y="6.1519303"
     height="6.299685"
     id="rect78"
     style="fill:#23262c;stroke-width:1.04994" />
  <rect
     width="6.2995281"
     x="24.631525"
     y="6.1519303"
     height="6.299685"
     id="rect80"
     style="fill:#23262c;stroke-width:1.04994" />
  <rect
     width="4.1996841"
     x="16.232149"
     y="6.1519303"
     fill="url(#i)"
     height="6.299685"
     id="rect84"
     style="fill:url(#linearGradient1228);stroke-width:1.04994" />
  <rect
     width="4.1996841"
     x="25.681448"
     y="6.1519303"
     fill="url(#j)"
     height="6.299685"
     id="rect86"
     style="fill:url(#j);stroke-width:1.04994" />
  <path
     fill="url(#a)"
     fill-rule="evenodd"
     d="m 32.891259,4.983351 c 0.657251,0.6037198 1.50979,1.4741264 2.0358,2.4159295 0.918679,1.6410675 0.787442,4.4948215 -2.034746,5.0197965 -2.82219,0.524975 -2.929283,-0.435725 -2.919829,-1.574917 -1.500345,0.206837 -2.171243,3.532018 0.459861,4.692217 2.231083,0.984845 3.05107,0.591118 7.250759,0.32863 4.199682,-0.262487 4.6921,4.856009 2.723497,5.643472 -1.968606,0.787456 -2.720351,-0.616325 -2.59226,-1.378589 -1.578032,0.616325 -1.770164,2.335083 -0.984829,3.149844 6.13889,6.362683 3.194917,11.275383 1.509791,11.779359 -2.088294,0.623671 -3.560287,-0.613164 -2.493565,-2.263686 0.869336,-1.344982 0.118645,-3.563516 -0.937578,-4.349933 -1.060417,-0.785354 -3.107768,-0.597417 -3.984451,-0.01472 1.264108,0.477731 3.11722,1.213742 2.624801,2.854812 -0.380072,1.267286 -1.625273,2.065248 -3.181261,2.034795 -0.440962,-0.008 -0.808435,-0.06616 -1.116067,-0.159592 V 44.31857 C 38.322504,41.996087 45,33.819096 45,24.002084 45,15.550006 40.049627,8.3221679 32.891259,4.9875347"
     id="path88"
     style="fill:url(#a);stroke-width:1.04994" />
  <path
     fill="url(#c)"
     d="M 3.391621,19.853757 C 3.1385899,21.19454 3,22.577322 3,23.9937 c 0,1.416379 0.1385899,2.799161 0.391621,4.139943 L 15.59906,26.0936 c 1.149663,-0.176391 2.099834,-0.936555 2.099834,-2.0999 0,-1.163344 -0.950171,-1.923508 -2.099834,-2.0999 z"
     id="path90"
     style="color:#000000;fill:url(#c);stroke-width:3.14981;stroke-linejoin:round" />
  <ellipse
     fill="#27ae60"
     cx="15.602217"
     cy="24.001036"
     stroke-linecap="round"
     id="circle92"
     style="color:#000000;stroke-width:3.14981;stroke-linejoin:round"
     rx="1.049921"
     ry="1.0499471" />
  <path
     d="m 27.023604,33.953926 0.07662,-0.01416 c 0.0214,0.0166 0.0176,0.0502 0.01157,0.0804 -0.01386,0.0706 -0.04839,0.198016 -0.0716,0.258124 l -0.01974,0.04914 c -0.02754,0.07434 -0.055,0.144086 -0.106057,0.186537 -0.143181,0.130783 -0.372992,0.235103 -0.732682,0.39155 -0.555939,0.243048 -1.456575,0.395953 -2.292704,0.391526 -0.299634,-0.007 -0.589492,-0.04014 -0.844069,-0.06886 -0.779523,-0.08924 -1.342519,-0.152882 -1.459224,0.555933 -0.147603,0.883869 0.68676,1.966607 0.6956,1.976317 v 0.0292 l -0.02748,0.007 c 0,0 -1.331083,-0.613394 -1.363779,-0.631086 l -0.0424,-0.0302 -0.0333,-0.03257 c -0.100788,-0.0963 -0.302229,-0.312877 -0.711453,-0.787504 -0.793667,-0.917471 -1.722601,-1.038527 -2.437653,-0.86353 -0.174074,0.0414 -0.396841,0.168812 -0.540902,0.312895 -0.373832,0.368538 -0.331436,1.111001 -0.310223,1.380585 0.0246,0.305828 0.04074,0.328782 0.04786,0.353541 l -0.005,0.03106 -0.02646,0.004 -0.01491,-0.01094 -1.09151,-0.533856 -0.0414,-0.178534 c -0.0286,-0.117551 -0.05994,-0.248363 -0.121967,-0.411892 -0.390622,-1.028803 -1.267393,-1.803076 -2.234338,-1.970121 -0.653164,-0.11225 -1.843694,-0.125502 -2.473844,1.065056 -0.263431,0.496717 -0.247502,1.143709 0.0414,1.689069 0.294346,0.557702 0.821132,0.915681 1.44332,0.984611 0.617816,0.0672 1.081849,-0.0758 1.342559,-0.412774 0.262471,-0.340268 0.311998,-0.804312 0.125521,-1.181699 -0.199777,-0.405699 -0.50206,-0.620495 -0.921863,-0.655836 -0.319068,-0.0293 -0.556827,0.104263 -0.641671,0.240394 -0.0247,0.0423 -0.06959,0.12109 -0.0706,0.232458 v 0.005 c 0,0.304054 0.27845,0.387147 0.334971,0.391566 0.0176,0 0.100793,-0.003 0.212147,-0.0302 l 0.09125,-0.0302 0.02754,-0.005 c 0.202394,-0.0374 0.39685,0.08244 0.453395,0.279286 0.01049,0.03634 0.01493,0.07266 0.01493,0.108734 0,0.130789 -0.0665,0.251889 -0.176805,0.32613 l -0.0254,0.01589 c -0.0583,0.0374 -0.111347,0.05765 -0.167901,0.0754 -0.158224,0.05186 -0.298792,0.0756 -0.4402,0.0756 -0.481683,-8.84e-4 -1.152501,-0.415402 -1.162206,-1.194118 -0.005,-0.439232 0.215647,-0.839622 0.603626,-1.096866 0.447233,-0.295184 1.219724,-0.395979 1.935641,0.04302 0.882064,0.540085 1.111819,1.59714 0.882064,2.31837 -0.334127,1.043825 -1.275382,1.60243 -2.517208,1.491093 -0.879426,-0.07834 -1.696945,-0.542687 -2.183042,-1.241866 -0.215701,-0.309326 -0.375678,-0.654908 -0.462287,-0.998718 -0.198824,-0.787514 0.003,-1.624563 0.152039,-1.994861 0.47551,-1.1791 1.385851,-2.192898 2.703663,-3.014891 l 0.0832,-0.05186 c 2.802648,-1.722613 4.78597,-1.652794 6.239909,-1.602438 1.712857,0.059 3.535331,0.650507 3.790774,0.733577 8.8e-4,-0.05672 0.01084,-0.567413 0.01084,-0.567413 l 0.008,-0.0176 0.01974,-0.005 c 0.114877,0.01577 2.575486,0.380962 3.612244,0.985547 0.128164,0.076 0.191784,0.153774 0.271341,0.235962 0.286365,0.296082 0.66551,1.52911 0.705295,1.785413 l -0.01494,0.0254 c -0.0149,0.005 -0.0502,0.03184 -0.09805,0.0638 -0.241295,0.168832 -0.806947,0.564791 -1.531678,0.500257 -0.651403,-0.05744 -1.502521,-0.431308 -2.528674,-1.106604 0.0452,0.106111 0.258987,0.612534 0.295196,0.69738 l 0.0133,0.0166 c 0.148475,0.07661 1.574105,0.80344 2.282075,0.789274 0.570949,-0.01158 1.179924,-0.289868 1.423865,-0.436585 z m -0.662858,-1.422122 c 0.01974,-0.579843 -0.435775,-1.069523 -1.016446,-1.089818 -0.28101,-0.01048 -0.548861,0.0903 -0.753876,0.281982 -0.205971,0.191765 -0.323487,0.452493 -0.334101,0.732709 -0.0187,0.579789 0.435714,1.068559 1.015497,1.089752 0.282864,0.01047 0.549761,-0.09032 0.75485,-0.281924 0.205005,-0.191793 0.323486,-0.451665 0.334076,-0.732701"
     id="path96"
     style="fill:url(#linearGradient1316);fill-opacity:1" />
</svg>
