<?xml version="1.0" encoding="UTF-8" standalone="no"?>
<svg
   width="48"
   height="48"
   version="1.1"
   id="svg23117"
   sodipodi:docname="input-tablet.svg"
   inkscape:version="1.2.2 (b0a8486541, 2022-12-01)"
   xmlns:inkscape="http://www.inkscape.org/namespaces/inkscape"
   xmlns:sodipodi="http://sodipodi.sourceforge.net/DTD/sodipodi-0.dtd"
   xmlns:xlink="http://www.w3.org/1999/xlink"
   xmlns="http://www.w3.org/2000/svg"
   xmlns:svg="http://www.w3.org/2000/svg">
  <sodipodi:namedview
     id="namedview23119"
     pagecolor="#ffffff"
     bordercolor="#666666"
     borderopacity="1.0"
     inkscape:showpageshadow="2"
     inkscape:pageopacity="0.0"
     inkscape:pagecheckerboard="0"
     inkscape:deskcolor="#d1d1d1"
     showgrid="true"
     inkscape:zoom="9.8333335"
     inkscape:cx="24.355932"
     inkscape:cy="31.779661"
     inkscape:window-width="1920"
     inkscape:window-height="1002"
     inkscape:window-x="0"
     inkscape:window-y="0"
     inkscape:window-maximized="1"
     inkscape:current-layer="svg23117">
    <inkscape:grid
       type="xygrid"
       id="grid1809"
       originx="0"
       originy="0" />
  </sodipodi:namedview>
  <defs
     id="defs23105">
    <linearGradient
       id="a"
       y1="547.63397"
       y2="499.67899"
       x2="388.86499"
       gradientUnits="userSpaceOnUse"
       gradientTransform="translate(-453.04388,-539.81483)"
       x1="428.81601">
      <stop
         stop-color="#2a2c2f"
         id="stop23090" />
      <stop
         offset="1"
         stop-color="#536161"
         id="stop23092" />
    </linearGradient>
    <linearGradient
       id="b"
       y1="44"
       y2="12"
       x2="14"
       gradientUnits="userSpaceOnUse"
       x1="36"
       gradientTransform="translate(-68.473879,-40.014831)">
      <stop
         stop-color="#536161"
         style="stop-color:#bfc9c9;stop-opacity:1"
         id="stop23095" />
      <stop
         offset="1"
         stop-color="#f4f5f5"
         style="stop-color:#fbfbfb;stop-opacity:1"
         id="stop23097" />
    </linearGradient>
    <linearGradient
       id="c"
       y1="527.01398"
       x1="406.50101"
       y2="539.82501"
       x2="419.974"
       gradientUnits="userSpaceOnUse"
       gradientTransform="translate(-453.04388,-539.81483)">
      <stop
         stop-color="#292c2f"
         id="stop23100" />
      <stop
         offset="1"
         stop-opacity="0"
         id="stop23102" />
    </linearGradient>
    <linearGradient
       gradientTransform="matrix(1.4175135,0,0,1.4175135,-0.97261301,0.3330346)"
       id="b-3"
       y1="23.774559"
       x1="22.540125"
       y2="35.804409"
       x2="35.770538"
       gradientUnits="userSpaceOnUse">
      <stop
         stop-color="#292c2f"
         id="stop12" />
      <stop
         offset="1"
         stop-color="#292c2f"
         stop-opacity="0"
         id="stop14" />
    </linearGradient>
    <linearGradient
       xlink:href="#linearGradient4564"
       id="linearGradient4570"
       x1="18.653"
       y1="20.191"
       x2="7.4320002"
       y2="8.5249996"
       gradientUnits="userSpaceOnUse"
       gradientTransform="matrix(0.99999999,0,0,1.1578948,8.0000025,3.1451316)" />
    <linearGradient
       id="linearGradient4564">
      <stop
         style="stop-color:#ffa92d;stop-opacity:1;"
         offset="0"
         id="stop4566" />
      <stop
         style="stop-color:#ffc169;stop-opacity:1"
         offset="1"
         id="stop4568" />
    </linearGradient>
    <linearGradient
       xlink:href="#linearGradient4574"
       id="linearGradient4580"
       x1="28.615"
       y1="21.502001"
       x2="39.939999"
       y2="10.118"
       gradientUnits="userSpaceOnUse"
       gradientTransform="matrix(0.99999999,0,0,1.1578948,8.0000025,3.1451316)" />
    <linearGradient
       id="linearGradient4574">
      <stop
         style="stop-color:#bf4231;stop-opacity:1;"
         offset="0"
         id="stop4576" />
      <stop
         style="stop-color:#f58273;stop-opacity:1"
         offset="1"
         id="stop4578" />
    </linearGradient>
    <linearGradient
       xlink:href="#linearGradient4590"
       id="linearGradient4596"
       x1="33.241001"
       y1="30.191"
       x2="40.393002"
       y2="37.416"
       gradientUnits="userSpaceOnUse"
       gradientTransform="matrix(0.99999999,0,0,1.1578948,8.0000025,3.1451316)" />
    <linearGradient
       id="linearGradient4590">
      <stop
         id="stop4594"
         offset="0"
         style="stop-color:#54d883;stop-opacity:1" />
      <stop
         id="stop4592"
         offset="1"
         style="stop-color:#3bb566;stop-opacity:1;" />
    </linearGradient>
    <linearGradient
       xlink:href="#linearGradient4582"
       id="linearGradient4588"
       x1="19.830999"
       y1="26.561001"
       x2="9.6899996"
       y2="37.881001"
       gradientUnits="userSpaceOnUse"
       gradientTransform="matrix(0.99999999,0,0,1.1578948,8.0000025,3.1451316)" />
    <linearGradient
       id="linearGradient4582">
      <stop
         id="stop4586"
         offset="0"
         style="stop-color:#7cbcec;stop-opacity:1" />
      <stop
         id="stop4584"
         offset="1"
         style="stop-color:#3b85b5;stop-opacity:1;" />
    </linearGradient>
    <linearGradient
       xlink:href="#linearGradient4626"
       id="linearGradient4632"
       x1="23.693001"
       y1="21.277"
       x2="34.937"
       y2="32.521999"
       gradientUnits="userSpaceOnUse"
       gradientTransform="matrix(1.1,0,0,1.1,5.6000025,4.5346056)" />
    <linearGradient
       id="linearGradient4626">
      <stop
         style="stop-color:#000000;stop-opacity:1;"
         offset="0"
         id="stop4628" />
      <stop
         style="stop-color:#000000;stop-opacity:0;"
         offset="1"
         id="stop4630" />
    </linearGradient>
    <linearGradient
       xlink:href="#linearGradient4598"
       id="linearGradient4604"
       x1="27.197001"
       y1="33.474998"
       x2="21.365999"
       y2="14.901"
       gradientUnits="userSpaceOnUse"
       gradientTransform="matrix(1.1,0,0,1.32,5.6000025,-0.74539444)" />
    <linearGradient
       id="linearGradient4598">
      <stop
         style="stop-color:#172525;stop-opacity:1;"
         offset="0"
         id="stop4600" />
      <stop
         style="stop-color:#334545;stop-opacity:1"
         offset="1"
         id="stop4602" />
    </linearGradient>
    <linearGradient
       xlink:href="#linearGradient4656"
       id="linearGradient4662"
       x1="19.025"
       y1="15.232"
       x2="29.945999"
       y2="31.764999"
       gradientUnits="userSpaceOnUse"
       gradientTransform="matrix(1.1,0,0,1.1,6.7000025,4.5346056)" />
    <linearGradient
       id="linearGradient4656">
      <stop
         style="stop-color:#ffffff;stop-opacity:1;"
         offset="0"
         id="stop4658" />
      <stop
         style="stop-color:#536161;stop-opacity:1"
         offset="1"
         id="stop4660" />
    </linearGradient>
    <linearGradient
       id="d"
       gradientTransform="matrix(2.114694,2.114694,-2.114694,2.114694,3.2088125,-828.15895)"
       gradientUnits="userSpaceOnUse"
       x1="210.5"
       x2="210.5"
       y1="188"
       y2="193.5">
      <stop
         offset="0"
         stop-color="#9b9ea2"
         id="stop17" />
      <stop
         offset="1"
         stop-color="#1a1b1e"
         id="stop19" />
    </linearGradient>
    <linearGradient
       id="a-3"
       gradientTransform="matrix(3.4959872,0,0,3.4959871,1.30074,3.299862)"
       gradientUnits="userSpaceOnUse"
       x1="8.5"
       x2="0.5"
       y1="7.6373668"
       y2="-0.371815">
      <stop
         offset="0"
         stop-color="#4f5356"
         id="stop2" />
      <stop
         offset="1"
         stop-color="#9b9ea2"
         stop-opacity="1"
         id="stop4" />
    </linearGradient>
    <radialGradient
       id="b-6"
       cx="16"
       cy="17"
       gradientUnits="userSpaceOnUse"
       r="11">
      <stop
         offset="0"
         stop-color="#3dd425"
         stop-opacity=".954751"
         id="stop7" />
      <stop
         offset="1"
         stop-color="#59f07c"
         id="stop9" />
    </radialGradient>
    <linearGradient
       id="c-7"
       gradientUnits="userSpaceOnUse"
       x1="14.541744"
       x2="26.541744"
       y1="16"
       y2="28"
       gradientTransform="matrix(1.5,0,0,1.5,8.0000025,7.0414438)">
      <stop
         offset="0"
         id="stop12-5" />
      <stop
         offset="1"
         stop-opacity="0"
         id="stop14-3" />
    </linearGradient>
    <linearGradient
       id="c-3"
       y1="542.79999"
       y2="504.79999"
       x2="0"
       gradientUnits="userSpaceOnUse"
       gradientTransform="translate(-453.31577,-534.78304)">
      <stop
         stop-color="#2a2c2f"
         id="stop208" />
      <stop
         offset="1"
         stop-color="#424649"
         id="stop210" />
    </linearGradient>
    <linearGradient
       id="a-6"
       y1="543.79999"
       y2="503.79999"
       gradientUnits="userSpaceOnUse"
       x2="0"
       gradientTransform="matrix(1,0,0,0.9,-453.31577,-482.40304)">
      <stop
         stop-color="#e3dfd6"
         id="stop198" />
      <stop
         offset="1"
         stop-color="#f4f1e8"
         id="stop200" />
    </linearGradient>
    <linearGradient
       id="a-6-7"
       y1="543.79999"
       y2="503.79999"
       gradientUnits="userSpaceOnUse"
       x2="0"
       gradientTransform="matrix(1.6666667,0,0,1.5,-648.95002,-756.37583)">
      <stop
         stop-color="#e3dfd6"
         id="stop198-5" />
      <stop
         offset="1"
         stop-color="#f4f1e8"
         id="stop200-3" />
    </linearGradient>
    <linearGradient
       id="linearGradient1340"
       x1="8.6644001"
       x2="8.6183996"
       y1="15.931"
       y2="1.0002"
       gradientUnits="userSpaceOnUse"
       gradientTransform="matrix(3.8458934,0,0,3.6055255,-0.56141983,-0.33879705)">
      <stop
         stop-color="#88c0d0"
         offset="0"
         id="stop280" />
      <stop
         stop-color="#5e81ac"
         offset="1"
         id="stop282" />
    </linearGradient>
    <linearGradient
       inkscape:collect="always"
       xlink:href="#linearGradient1495"
       id="linearGradient4210"
       x1="-33.715141"
       y1="-15.190534"
       x2="-47.270638"
       y2="-3.3954711"
       gradientUnits="userSpaceOnUse"
       gradientTransform="matrix(2.333334,0,0,2.333334,71.489016,46.838986)" />
    <linearGradient
       inkscape:collect="always"
       id="linearGradient1495">
      <stop
         style="stop-color:#5e81ac;stop-opacity:1;"
         offset="0"
         id="stop1491" />
      <stop
         style="stop-color:#b48ead;stop-opacity:1;"
         offset="0.55899495"
         id="stop1663" />
      <stop
         style="stop-color:#a3be8c;stop-opacity:1;"
         offset="0.74595666"
         id="stop1661" />
      <stop
         style="stop-color:#88c0d0;stop-opacity:1;"
         offset="1"
         id="stop1493" />
    </linearGradient>
    <radialGradient
       inkscape:collect="always"
       xlink:href="#linearGradient2257"
       id="radialGradient3536-7-2-5"
       gradientUnits="userSpaceOnUse"
       gradientTransform="matrix(0.35358183,0.28213441,-2.2836924,2.7346954,288.217,-311.78125)"
       cx="42.617531"
       cy="120.64188"
       fx="42.617531"
       fy="120.64188"
       r="3.406888" />
    <linearGradient
       id="linearGradient2257">
      <stop
         id="stop2259"
         offset="0"
         style="stop-color:#b4942a;stop-opacity:1;" />
      <stop
         id="stop2261"
         offset="1"
         style="stop-color:#e4dcc9;stop-opacity:1" />
    </linearGradient>
    <radialGradient
       inkscape:collect="always"
       xlink:href="#linearGradient2598"
       id="radialGradient3538-5-2-9"
       gradientUnits="userSpaceOnUse"
       gradientTransform="matrix(0.4374639,0.31902575,-3.9882224,5.5145572,256.59047,-302.07707)"
       cx="15.727077"
       cy="58.089687"
       fx="15.727077"
       fy="58.089687"
       r="2.6143966" />
    <linearGradient
       id="linearGradient2598">
      <stop
         style="stop-color:#252525;stop-opacity:1;"
         offset="0"
         id="stop2600" />
      <stop
         id="stop2606"
         offset="0.5"
         style="stop-color:#252525;stop-opacity:1;" />
      <stop
         style="stop-color:#252525;stop-opacity:1;"
         offset="0.75"
         id="stop2608" />
      <stop
         style="stop-color:#000000;stop-opacity:1;"
         offset="1"
         id="stop2602" />
    </linearGradient>
    <radialGradient
       inkscape:collect="always"
       xlink:href="#linearGradient3311"
       id="radialGradient3540-2-6-9"
       gradientUnits="userSpaceOnUse"
       gradientTransform="matrix(0.01509172,0.0107233,-0.11929974,0.16771805,44.545452,5.282684)"
       cx="89.454559"
       cy="100.74671"
       fx="89.454559"
       fy="100.74671"
       r="47.746403" />
    <linearGradient
       id="linearGradient3311">
      <stop
         id="stop3313"
         offset="0"
         style="stop-color:#2d2d2d;stop-opacity:1;" />
      <stop
         style="stop-color:#000000;stop-opacity:1;"
         offset="0.5"
         id="stop3319" />
      <stop
         id="stop3315"
         offset="1"
         style="stop-color:#000000;stop-opacity:1;" />
    </linearGradient>
    <radialGradient
       inkscape:collect="always"
       xlink:href="#linearGradient3303"
       id="radialGradient3542-3-6-6"
       gradientUnits="userSpaceOnUse"
       gradientTransform="matrix(0.14351036,-0.00313562,8.1320702e-5,0.00819048,-3.8956279,-38.499866)"
       cx="34.677639"
       cy="7.4622769"
       fx="34.677639"
       fy="7.4622769"
       r="47.595196" />
    <linearGradient
       id="linearGradient3303">
      <stop
         id="stop3305"
         offset="0"
         style="stop-color:#ffffff;stop-opacity:0.68345326;" />
      <stop
         id="stop3307"
         offset="1"
         style="stop-color:#ffffff;stop-opacity:0;" />
    </linearGradient>
    <radialGradient
       inkscape:collect="always"
       xlink:href="#linearGradient3058"
       id="radialGradient3544-6-7-1"
       gradientUnits="userSpaceOnUse"
       gradientTransform="matrix(-0.1721503,7.6642931e-4,-1.3302838e-5,-0.00264357,5.7169548,-38.967638)"
       cx="34.677639"
       cy="7.4622769"
       fx="34.677639"
       fy="7.4622769"
       r="47.595196" />
    <linearGradient
       inkscape:collect="always"
       id="linearGradient3058">
      <stop
         style="stop-color:white;stop-opacity:1;"
         offset="0"
         id="stop3060" />
      <stop
         style="stop-color:white;stop-opacity:0;"
         offset="1"
         id="stop3062" />
    </linearGradient>
    <radialGradient
       inkscape:collect="always"
       xlink:href="#linearGradient3225"
       id="radialGradient3546-1-0-9"
       gradientUnits="userSpaceOnUse"
       gradientTransform="matrix(0.3133508,0.22457507,-0.0735526,0.10222932,21.087628,6.2781118)"
       cx="49.009884"
       cy="8.4953117"
       fx="47.370888"
       fy="6.7701697"
       r="3.9750404" />
    <linearGradient
       id="linearGradient3225">
      <stop
         id="stop3227"
         offset="0"
         style="stop-color:#ffffff;stop-opacity:1;" />
      <stop
         id="stop3229"
         offset="1"
         style="stop-color:#aeaeae;stop-opacity:1;" />
    </linearGradient>
    <linearGradient
       inkscape:collect="always"
       xlink:href="#linearGradient3217"
       id="linearGradient4273"
       gradientUnits="userSpaceOnUse"
       gradientTransform="matrix(0.3855163,0,0,0.33427969,20.784159,-8.9512782)"
       x1="48.914677"
       y1="2.9719031"
       x2="48.913002"
       y2="2.5548496" />
    <linearGradient
       inkscape:collect="always"
       id="linearGradient3217">
      <stop
         style="stop-color:#252525;stop-opacity:1;"
         offset="0"
         id="stop3219" />
      <stop
         style="stop-color:#252525;stop-opacity:0;"
         offset="1"
         id="stop3221" />
    </linearGradient>
    <radialGradient
       inkscape:collect="always"
       xlink:href="#linearGradient3207"
       id="radialGradient3550-0-9-7"
       gradientUnits="userSpaceOnUse"
       gradientTransform="matrix(0.3855163,0,0,0.04066792,20.784159,-8.1748592)"
       cx="49.011971"
       cy="2.6743078"
       fx="49.011971"
       fy="2.6743078"
       r="1.7246193" />
    <linearGradient
       id="linearGradient3207">
      <stop
         id="stop3209"
         offset="0"
         style="stop-color:#ffffff;stop-opacity:1;" />
      <stop
         id="stop3211"
         offset="1"
         style="stop-color:#252525;stop-opacity:0;" />
    </linearGradient>
    <linearGradient
       inkscape:collect="always"
       xlink:href="#linearGradient3058"
       id="linearGradient4275"
       gradientUnits="userSpaceOnUse"
       gradientTransform="matrix(0.3133508,0.22457507,-0.19522916,0.27134518,22.121289,4.8414205)"
       x1="48.498562"
       y1="0.81150496"
       x2="48.732723"
       y2="2.3657269" />
    <linearGradient
       inkscape:collect="always"
       xlink:href="#linearGradient3251"
       id="linearGradient4277"
       gradientUnits="userSpaceOnUse"
       gradientTransform="matrix(0.38339409,0,0,0.33427969,20.884504,-8.9512782)"
       x1="46.051746"
       y1="3.0999987"
       x2="46.051746"
       y2="2.395859" />
    <linearGradient
       id="linearGradient3251">
      <stop
         style="stop-color:#000000;stop-opacity:1;"
         offset="0"
         id="stop3253" />
      <stop
         id="stop14161"
         offset="0.7087912"
         style="stop-color:#090909;stop-opacity:0.67870039;" />
      <stop
         style="stop-color:#131313;stop-opacity:0;"
         offset="1"
         id="stop3255" />
    </linearGradient>
    <radialGradient
       inkscape:collect="always"
       xlink:href="#linearGradient3273"
       id="radialGradient3556-8-3-9"
       gradientUnits="userSpaceOnUse"
       gradientTransform="matrix(0.25565869,0,0,0.04066792,26.042982,-8.1748602)"
       cx="49.011971"
       cy="2.6743078"
       fx="49.011971"
       fy="2.6743078"
       r="1.7246193" />
    <linearGradient
       id="linearGradient3273">
      <stop
         id="stop3275"
         offset="0"
         style="stop-color:#ffffff;stop-opacity:0.55035973;" />
      <stop
         id="stop3277"
         offset="1"
         style="stop-color:#ffffff;stop-opacity:0;" />
    </linearGradient>
    <linearGradient
       inkscape:collect="always"
       xlink:href="#linearGradient3251"
       id="linearGradient4279"
       gradientUnits="userSpaceOnUse"
       gradientTransform="matrix(0.2972208,0,0,0.2577191,-18.760902,-7.0666438)"
       x1="46.051746"
       y1="3.0999987"
       x2="46.051746"
       y2="2.395859" />
    <radialGradient
       inkscape:collect="always"
       xlink:href="#linearGradient3259"
       id="radialGradient3560-3-2-6"
       gradientUnits="userSpaceOnUse"
       gradientTransform="matrix(0.25366209,0,0,0.04066792,-53.212569,-8.1748622)"
       cx="49.011971"
       cy="2.6743078"
       fx="49.011971"
       fy="2.6743078"
       r="1.7246193" />
    <linearGradient
       id="linearGradient3259">
      <stop
         style="stop-color:#ffffff;stop-opacity:0.55035973;"
         offset="0"
         id="stop3261" />
      <stop
         style="stop-color:#000000;stop-opacity:0;"
         offset="1"
         id="stop3263" />
    </linearGradient>
  </defs>
  <rect
     width="41.998264"
     x="-44.999393"
     y="3.0039425"
     rx="20.999132"
     height="41.995872"
     transform="scale(-1,1)"
     id="rect223"
     ry="20.997936"
     style="fill:url(#linearGradient4210);fill-opacity:1;stroke-width:2.33327" />
  <path
     style="display:inline;overflow:visible;opacity:0.3;fill:#000000;fill-opacity:1;stroke-width:2.93979;stroke-opacity:0.55"
     d="M 3.0126,23.476978 C 3.0079,23.652002 3.000937,23.826021 3.000937,24.002047 3.000937,35.635002 12.366567,45 24.000003,45 c 11.633445,0 20.999212,-9.364998 20.999212,-20.997953 0,-0.176026 -0.007,-0.34905 -0.01165,-0.525069 -0.277304,11.388213 -9.533711,20.472968 -20.986625,20.472968 -11.457104,0 -20.7092883,-9.084755 -20.9864659,-20.472968"
     id="path225" />
  <path
     d="M 3.0126,24.523035 C 3.0087,24.348012 3,24.174982 3,23.997955 3,12.3651 12.365633,3 23.999063,3 c 11.633452,0 20.999213,9.3651 20.999213,20.997955 0,0.176027 -0.007,0.350051 -0.01163,0.52508 C 44.709316,13.134822 35.452918,4.0500564 24,4.0500564 c -11.45711,0 -20.7092904,9.0847656 -20.986466,20.4729786"
     style="display:inline;overflow:visible;opacity:0.3;fill:#ffffff;fill-opacity:1;stroke-width:2.93979;stroke-opacity:0.55"
     id="path229" />
  <ellipse
     cx="14.124354"
     cy="31.947023"
     id="circle22-6-3"
     style="fill:#ffffff;fill-opacity:1;stroke-width:0.829131"
     rx="2.7243476"
     ry="2.6556356" />
  <ellipse
     cx="14.124354"
     cy="24.866617"
     id="circle24-7-6"
     style="fill:#ffffff;fill-opacity:1;stroke-width:0.829131"
     rx="2.7243476"
     ry="2.6556356" />
  <ellipse
     cx="14.124354"
     cy="17.788977"
     id="circle26-5-7"
     style="fill:#ffffff;fill-opacity:1;stroke-width:0.829131"
     rx="2.7243476"
     ry="2.6556356" />
  <path
     sodipodi:nodetypes="czccccc"
     id="path3180-6-1-9"
     d="m 35.714532,15.652771 c 0.0798,-0.110894 0.741775,-0.08517 1.546247,0.49127 0.812356,0.582225 1.060527,1.166397 0.96054,1.305334 -0.06503,0.09049 -0.1302,0.180956 -0.1953,0.2714 -0.835587,-0.598895 -1.6712,-1.197759 -2.506814,-1.796626 0.06505,-0.09049 0.1302,-0.18095 0.1953,-0.27128 0,0 0,0 0,0"
     style="overflow:visible;fill:#000000;fill-opacity:1;fill-rule:evenodd;stroke:none;stroke-width:0.150572px;stroke-linecap:butt;stroke-linejoin:miter;stroke-opacity:1" />
  <path
     id="path3299-3-9-3"
     d="m 26.360989,28.66921 -0.03611,0.05032 -1.909717,4.668617 0.624298,0.404814 3.773845,-3.251469 0.02891,-0.03565 z"
     style="overflow:visible;fill:#000000;fill-opacity:1;fill-rule:evenodd;stroke:#000000;stroke-width:0;stroke-linecap:butt;stroke-linejoin:miter;stroke-miterlimit:4;stroke-dasharray:none;stroke-opacity:1" />
  <path
     sodipodi:nodetypes="cccccc"
     id="path2247-2-4-1"
     d="m 24.084517,34.508625 4.664056,-4.01731 0.02613,-0.03617 -2.345674,-1.732841 -0.0353,0.04901 z"
     style="overflow:visible;fill:url(#radialGradient3536-7-2-5);fill-opacity:1;fill-rule:evenodd;stroke:#000000;stroke-width:0;stroke-linecap:butt;stroke-linejoin:miter;stroke-miterlimit:4;stroke-dasharray:none;stroke-opacity:1" />
  <path
     sodipodi:nodetypes="csccccsz"
     id="rect2192-0-7-9"
     d="m 27.451659,29.797398 c 0.309167,0.221713 0.559814,0.118579 0.67032,0.197647 0.0187,0.01357 0.03193,0.03138 0.04272,0.05035 l 9.313332,-12.964199 -1.215126,-0.870884 -9.336841,12.996831 c 0.04647,-0.0068 0.0887,-0.0068 0.123442,0.01933 0.101031,0.07253 0.09148,0.348302 0.402102,0.570928 z"
     style="overflow:visible;fill:url(#radialGradient3538-5-2-9);fill-opacity:1;fill-rule:nonzero;stroke:none;stroke-width:0.0752854;stroke-linecap:round;stroke-linejoin:round;stroke-miterlimit:4;stroke-dasharray:none;stroke-dashoffset:4;stroke-opacity:1" />
  <path
     id="rect2190-6-8-4"
     d="m 37.433673,17.049391 -9.303971,12.951204 c 0.09963,0.08279 0.05783,0.298348 0.24444,0.432057 0.201133,0.144083 0.328717,-0.007 0.459165,0.08472 l 9.309845,-12.959371 z"
     style="overflow:visible;fill:url(#radialGradient3540-2-6-9);fill-opacity:1;fill-rule:nonzero;stroke:none;stroke-width:0.0752854;stroke-linecap:round;stroke-linejoin:round;stroke-miterlimit:4;stroke-dasharray:none;stroke-dashoffset:4;stroke-opacity:1"
     sodipodi:nodetypes="ccsccc" />
  <path
     sodipodi:nodetypes="ccsccc"
     style="overflow:visible;opacity:0.353488;fill:#000000;fill-opacity:1;fill-rule:nonzero;stroke:none;stroke-width:0.0752854;stroke-linecap:round;stroke-linejoin:round;stroke-miterlimit:4;stroke-dasharray:none;stroke-dashoffset:4;stroke-opacity:1"
     d="m 28.590928,29.359523 -0.483602,0.67215 c 0.09916,0.08261 0.03457,0.328737 0.220261,0.461804 0.19996,0.143328 0.350023,-0.03984 0.479852,0.05243 l 0.489443,-0.680321 z"
     id="path2233-1-4-7" />
  <path
     sodipodi:nodetypes="cccccccccc"
     style="overflow:visible;opacity:0.386047;fill:#252525;fill-opacity:1;fill-rule:nonzero;stroke:none;stroke-width:0.0752854;stroke-linecap:round;stroke-linejoin:round;stroke-miterlimit:4;stroke-dasharray:none;stroke-dashoffset:4;stroke-opacity:1"
     d="m 27.284723,28.899974 -0.24807,0.344804 -0.0094,0.01353 c 0.08328,0.0634 0.02846,0.313113 0.30242,0.542935 l 0.01629,0.0121 0.109904,0.07877 0.01629,0.01207 c 0.308303,0.186531 0.52729,0.05179 0.637794,0.13104 l 0.262339,-0.366981 z"
     id="path2231-5-5-8" />
  <path
     sodipodi:nodetypes="cccccsz"
     id="rect1315-4-0-4"
     d="m 26.578549,29.16428 c 0.193898,0.135998 0.367966,-0.01207 0.471001,0.06227 l 9.303982,-12.951216 -0.7171,-0.513941 -9.309857,12.95935 c 0.0027,0.002 0.007,0.0065 0.01164,0.0081 0.08074,0.0578 0.04453,0.298135 0.24024,0.435207 z"
     style="overflow:visible;fill:#131313;fill-opacity:1;fill-rule:nonzero;stroke:none;stroke-width:0.0752854;stroke-linecap:round;stroke-linejoin:round;stroke-miterlimit:4;stroke-dasharray:none;stroke-dashoffset:4;stroke-opacity:1" />
  <ellipse
     transform="matrix(0.58487524,-0.81112326,-0.81406602,-0.58077234,0,0)"
     id="path3301-7-3-5"
     style="overflow:visible;fill:url(#radialGradient3542-3-6-6);fill-opacity:1;fill-rule:nonzero;stroke:none;stroke-width:0.0479115;stroke-linecap:round;stroke-linejoin:round;stroke-miterlimit:4;stroke-dasharray:none;stroke-dashoffset:4;stroke-opacity:1"
     cx="1.0816079"
     cy="-38.54747"
     rx="6.8166385"
     ry="0.3884362" />
  <path
     sodipodi:open="true"
     sodipodi:end="6.2517655"
     sodipodi:start="0"
     sodipodi:type="arc"
     style="overflow:visible;fill:url(#radialGradient3544-6-7-1);fill-opacity:1;fill-rule:nonzero;stroke:none;stroke-width:0.0363741;stroke-linecap:round;stroke-linejoin:round;stroke-miterlimit:4;stroke-dasharray:none;stroke-dashoffset:4;stroke-opacity:1"
     id="path3321-6-6-0"
     sodipodi:cx="-0.25290287"
     sodipodi:cy="-38.960812"
     sodipodi:rx="8.1935568"
     sodipodi:ry="0.1227583"
     d="m 7.9406539,-38.960812 a 8.1935568,0.1227583 0 0 1 -8.12919743,0.122755 8.1935568,0.1227583 0 0 1 -8.25690507,-0.120826 8.1935568,0.1227583 0 0 1 7.99948362,-0.124653 8.1935568,0.1227583 0 0 1 8.38257488,0.118868"
     transform="matrix(0.58283468,-0.81259076,-0.81336534,-0.58175324,0,0)"
     sodipodi:arc-type="arc" />
  <path
     style="overflow:visible;fill:url(#radialGradient3546-1-0-9);fill-opacity:1;fill-rule:nonzero;stroke:none;stroke-width:0.0752854;stroke-linecap:round;stroke-linejoin:round;stroke-miterlimit:4;stroke-dasharray:none;stroke-dashoffset:4;stroke-opacity:1"
     d="m 34.851382,16.85477 c -0.264273,0.198645 -0.485917,0.531991 -0.584756,0.81273 l 2.012467,1.43033 0.584739,-0.812715 z m 1.800645,1.27855 -0.584722,0.812713 0.705997,0.50599 c 0.23147,-0.166488 0.471683,-0.48552 0.584736,-0.812724 z"
     id="path2274-5-1-3"
     sodipodi:nodetypes="cccccccccc" />
  <rect
     transform="matrix(0.81280845,0.58253105,-0.58402972,0.81173227,0,0)"
     style="overflow:visible;fill:url(#linearGradient4273);fill-opacity:1;fill-rule:nonzero;stroke:none;stroke-width:0;stroke-linecap:round;stroke-linejoin:round;stroke-miterlimit:4;stroke-dasharray:none;stroke-dashoffset:4;stroke-opacity:1"
     id="rect3215-9-0-6"
     width="1.32974"
     height="0.16218129"
     x="39.014282"
     y="-8.0771799" />
  <rect
     transform="matrix(0.81280845,0.58253105,-0.58402972,0.81173227,0,0)"
     y="-8.1673374"
     x="39.014282"
     height="0.25238958"
     width="1.32974"
     id="rect3205-3-6-1"
     style="overflow:visible;fill:url(#radialGradient3550-0-9-7);fill-opacity:1;fill-rule:nonzero;stroke:none;stroke-width:0;stroke-linecap:round;stroke-linejoin:round;stroke-miterlimit:4;stroke-dasharray:none;stroke-dashoffset:4;stroke-opacity:1" />
  <path
     sodipodi:nodetypes="cszsss"
     id="path3233-7-3-0"
     d="m 37.020367,16.018304 c 0.509288,0.316581 0.913526,0.765115 0.9392,0.808703 0.02592,0.04358 -0.504089,-0.455205 -0.917608,-0.677012 -0.410387,-0.220035 -0.925379,-0.206018 -0.96854,-0.233245 -0.0432,-0.02653 -0.347597,-0.279023 -0.112933,-0.278425 0.245581,6.98e-4 0.666466,0.135472 1.059799,0.379901 z"
     style="overflow:visible;fill:url(#linearGradient4275);fill-opacity:1;fill-rule:evenodd;stroke:none;stroke-width:0.150572px;stroke-linecap:butt;stroke-linejoin:miter;stroke-opacity:1" />
  <rect
     transform="matrix(0.81280845,0.58253105,-0.58402972,0.81173227,0,0)"
     y="-8.0771799"
     x="38.132439"
     height="0.16218129"
     width="0.88183379"
     id="rect3243-4-2-6"
     style="overflow:visible;fill:url(#linearGradient4277);fill-opacity:1;fill-rule:nonzero;stroke:none;stroke-width:0;stroke-linecap:round;stroke-linejoin:round;stroke-miterlimit:4;stroke-dasharray:none;stroke-dashoffset:4;stroke-opacity:1" />
  <rect
     transform="matrix(0.81280845,0.58253105,-0.58402972,0.81173227,0,0)"
     style="overflow:visible;fill:url(#radialGradient3556-8-3-9);fill-opacity:1;fill-rule:nonzero;stroke:none;stroke-width:0;stroke-linecap:round;stroke-linejoin:round;stroke-miterlimit:4;stroke-dasharray:none;stroke-dashoffset:4;stroke-opacity:1"
     id="rect3245-5-0-3"
     width="0.88183379"
     height="0.25238958"
     x="38.132439"
     y="-8.1673374" />
  <rect
     transform="matrix(-0.81280845,-0.58253105,-0.58402972,0.81173227,0,0)"
     style="overflow:visible;fill:url(#linearGradient4279);fill-opacity:1;fill-rule:nonzero;stroke:none;stroke-width:0;stroke-linecap:round;stroke-linejoin:round;stroke-miterlimit:4;stroke-dasharray:none;stroke-dashoffset:4;stroke-opacity:1"
     id="rect3265-2-6-2"
     width="0.87494713"
     height="0.16218129"
     x="-41.216564"
     y="-8.0771799" />
  <rect
     transform="matrix(-0.81280845,-0.58253105,-0.58402972,0.81173227,0,0)"
     y="-8.1673374"
     x="-41.216564"
     height="0.25238958"
     width="0.87494713"
     id="rect3267-5-1-0"
     style="overflow:visible;fill:url(#radialGradient3560-3-2-6);fill-opacity:1;fill-rule:nonzero;stroke:none;stroke-width:0;stroke-linecap:round;stroke-linejoin:round;stroke-miterlimit:4;stroke-dasharray:none;stroke-dashoffset:4;stroke-opacity:1" />
  <path
     id="text3284-4-5-6"
     d="m 29.58649,28.537114 c -0.03807,0.05262 -0.05557,0.102292 -0.05249,0.148515 0.002,0.04623 0.02614,0.08486 0.06933,0.115827 0.04317,0.03149 0.08699,0.04044 0.131835,0.02751 0.04476,-0.0121 0.08633,-0.04428 0.124365,-0.09701 0.0383,-0.05305 0.05604,-0.102804 0.05293,-0.14905 -0.002,-0.04633 -0.02591,-0.08478 -0.06887,-0.115666 -0.04344,-0.03148 -0.08723,-0.04045 -0.132076,-0.02781 -0.04476,0.0121 -0.08652,0.04443 -0.124594,0.09755 m -0.07678,-0.05503 c 0.07772,-0.108033 0.1575,-0.178964 0.239466,-0.213109 0.08188,-0.03423 0.156099,-0.02689 0.2226,0.02048 0.06648,0.04778 0.0966,0.115639 0.09029,0.203886 -0.007,0.08846 -0.0483,0.18636 -0.126,0.294376 -0.07748,0.107612 -0.15727,0.178685 -0.239447,0.213007 -0.08188,0.03425 -0.155866,0.02689 -0.222368,-0.02027 -0.0667,-0.04791 -0.09684,-0.115751 -0.0905,-0.204004 0.007,-0.08874 0.04848,-0.186686 0.126,-0.294356 m 0.797603,-0.668053 0.377557,-0.08261 -0.129734,0.180326 -0.253374,0.05641 0.02748,0.256291 -0.130431,0.181352 -0.04173,-0.383415 -0.362517,0.0798 0.130434,-0.18085 0.238253,-0.05224 -0.02637,-0.241669 0.130901,-0.181699 0.03965,0.368308 m -0.02615,-0.387195 0.1365,-0.18942 0.256507,-0.04802 -0.03612,-0.25801 0.136968,-0.189745 0.05343,0.426474 0.173369,0.124181 -0.124838,0.173276 -0.173362,-0.124295 -0.422122,0.08544 m 1.362079,-1.089989 c -0.01872,0.05234 -0.04081,0.10416 -0.06794,0.155282 -0.02664,0.05105 -0.05829,0.101247 -0.09407,0.150972 -0.08052,0.111764 -0.163564,0.186847 -0.248618,0.22472 -0.08544,0.03801 -0.160999,0.03341 -0.226335,-0.01404 -0.06623,-0.04772 -0.09451,-0.118254 -0.08452,-0.211958 0.0094,-0.09378 0.05651,-0.198546 0.139994,-0.31435 0.03216,-0.04462 0.06532,-0.08559 0.100098,-0.1228 0.03457,-0.0374 0.07048,-0.07054 0.106632,-0.09963 l 0.08495,0.06086 c -0.04013,0.02732 -0.07656,0.05848 -0.109901,0.09088 -0.03287,0.03243 -0.06273,0.06685 -0.08962,0.104276 -0.04966,0.06889 -0.07632,0.130828 -0.07928,0.18522 -0.0027,0.05416 0.01629,0.09676 0.06067,0.128334 0.04344,0.03148 0.0901,0.03713 0.139533,0.01909 0.04967,-0.01933 0.09826,-0.06156 0.146067,-0.127838 0.01404,-0.01891 0.0233,-0.03501 0.03433,-0.05126 0.0094,-0.01755 0.01872,-0.03227 0.02334,-0.04655 l -0.0798,-0.05716 -0.07634,0.105647 -0.07088,-0.05077 0.194373,-0.269949 0.197632,0.141564 m -0.270712,-0.424851 0.336652,-0.46732 0.08033,0.05739 -0.211872,0.294234 0.07656,0.05481 0.199267,-0.276559 0.08007,0.05733 -0.199276,0.276576 0.09404,0.06763 0.219104,-0.304099 0.08007,0.05727 -0.343789,0.477204 -0.410853,-0.294717 m 0.453626,-0.629687 0.139292,-0.193477 0.457752,-0.04213 -0.281884,-0.202044 0.118303,-0.164123 0.410878,0.29472 -0.139309,0.193459 -0.457754,0.04213 0.28187,0.202043 -0.118297,0.164127 -0.410876,-0.294696 m 0.785375,-1.090239 0.139295,-0.193482 0.457734,-0.04216 -0.28186,-0.20207 0.118296,-0.164123 0.410878,0.294717 -0.139308,0.19348 -0.457732,0.04216 0.281869,0.202046 -0.11832,0.164098 -0.410852,-0.29472 m 0.673537,-0.950676 c 0.0462,-0.06389 0.0924,-0.106938 0.139311,-0.12922 0.04715,-0.02172 0.0882,-0.021 0.122963,0.0027 0.0348,0.02392 0.04896,0.06316 0.0427,0.114684 -0.007,0.05137 -0.03288,0.109028 -0.07887,0.173363 -0.0462,0.06433 -0.09289,0.107593 -0.139764,0.13032 -0.04647,0.02171 -0.08745,0.021 -0.122509,-0.0027 -0.03477,-0.02392 -0.04922,-0.06324 -0.04296,-0.114844 0.007,-0.05191 0.03286,-0.109759 0.07883,-0.173813 m 0.127163,0.372269 0.266605,-0.370169 0.05487,0.03949 -0.266606,0.370163 -0.05487,-0.03939 m -0.08057,-0.338682 c -0.01869,0.02414 -0.02614,0.04866 -0.02331,0.07083 0.0018,0.021 0.01404,0.04033 0.03456,0.05564 0.021,0.01653 0.04252,0.02027 0.06351,0.01608 0.021,-0.0065 0.04103,-0.021 0.05932,-0.04633 0.01867,-0.02363 0.02615,-0.0482 0.02329,-0.06966 -0.0018,-0.02127 -0.01404,-0.04043 -0.03432,-0.05593 -0.021,-0.01653 -0.04272,-0.02007 -0.06419,-0.01427 -0.021,0.0043 -0.04056,0.02029 -0.0588,0.04508 m 0.875722,-0.8999 c 0.03967,-0.0402 0.0768,-0.06541 0.111527,-0.07635 0.03456,-0.0121 0.06553,-0.0069 0.0929,0.01353 0.04056,0.02807 0.05341,0.07685 0.03807,0.143171 -0.01872,0.0661 -0.05853,0.147985 -0.129034,0.245889 -0.02353,0.03443 -0.05157,0.06788 -0.08007,0.100219 -0.0273,0.03227 -0.05783,0.0626 -0.08891,0.09163 l -0.08169,-0.05856 c 0.03286,-0.02416 0.06393,-0.05216 0.09191,-0.08023 0.0273,-0.02783 0.05316,-0.05833 0.07533,-0.08904 0.03287,-0.04576 0.05343,-0.08462 0.06112,-0.115659 0.0071,-0.03202 0.002,-0.05382 -0.0163,-0.0668 -0.0187,-0.01355 -0.042,-0.0121 -0.06954,0.007 -0.02706,0.01869 -0.05907,0.05129 -0.09424,0.100209 l -0.05013,0.06929 -0.06838,-0.04893 0.05248,-0.07281 c 0.03169,-0.04361 0.05067,-0.07878 0.05762,-0.106048 0.007,-0.02689 0.0018,-0.04714 -0.01629,-0.05945 -0.0163,-0.01209 -0.03544,-0.009 -0.0588,0.0043 -0.02327,0.01404 -0.04873,0.04056 -0.07631,0.07857 -0.021,0.02725 -0.03852,0.0573 -0.05512,0.08877 -0.01867,0.03183 -0.03167,0.06376 -0.04427,0.09711 l -0.07773,-0.05576 c 0.01866,-0.0385 0.03876,-0.07536 0.05999,-0.111056 0.021,-0.0357 0.04368,-0.06968 0.06668,-0.102086 0.06273,-0.08709 0.118764,-0.146208 0.167304,-0.176794 0.04849,-0.03149 0.09075,-0.0341 0.126,-0.0081 0.02329,0.01797 0.03613,0.04168 0.03663,0.07345 3.24e-4,0.032 -0.01166,0.06984 -0.0341,0.114911"
     style="font-style:normal;font-variant:normal;font-weight:bold;font-stretch:normal;font-size:12px;line-height:125%;font-family:'Bitstream Vera Sans';text-align:start;writing-mode:lr-tb;text-anchor:start;overflow:visible;fill:#999999;fill-opacity:1;stroke:none;stroke-width:0.150572px;stroke-linecap:butt;stroke-linejoin:miter;stroke-opacity:1" />
  <path
     id="path2265-6-5-1"
     d="m 24.819731,32.323362 -0.870289,2.105674 -0.08793,0.214766 c -1.23e-4,4.64e-4 0.0018,0.0029 0.0018,0.0029 l -0.0027,4.53e-4 c 5.2e-5,5.92e-4 0.0017,0.0029 0.0017,0.0029 1.47e-4,5.83e-4 0.0016,0.0029 0.0018,0.0029 5.15e-4,0.0018 0.0053,0.0023 0.007,0.0029 3.74e-4,5.7e-4 7.24e-4,0.0029 0.0017,0.0029 0.0018,0.0018 0.0053,0.007 0.007,0.0081 0.0071,0.0068 0.01629,0.01752 0.02331,0.021 0.01404,0.0075 0.03149,0.01752 0.04344,0.01933 0.0019,3.81e-4 0.0094,0.0027 0.01165,0.0027 6.79e-4,1.6e-5 0.0027,-4.41e-4 0.0027,-4.54e-4 6.06e-4,-8.2e-5 0.0027,-3.41e-4 0.0027,-4.46e-4 5.35e-4,-1.91e-4 0.0027,-2.51e-4 0.0027,-4.46e-4 5.19e-4,-1.99e-4 -0.0018,-0.0029 -0.0018,-0.0029 4.41e-4,-3.56e-4 0.0027,-1.29e-4 0.0027,-4.53e-4 l 0.208539,-0.174971 1.724726,-1.488222 c -0.394326,-0.02304 -0.836331,-0.565981 -1.084131,-0.727259 z"
     style="overflow:visible;fill:#000000;fill-opacity:1;fill-rule:evenodd;stroke:none;stroke-width:0;stroke-linecap:butt;stroke-linejoin:miter;stroke-miterlimit:4;stroke-dasharray:none;stroke-opacity:1" />
</svg>
