<?xml version="1.0" encoding="UTF-8" standalone="no"?>
<svg
   width="48"
   height="48"
   viewBox="0 0 12.7 12.7"
   version="1.1"
   id="svg94"
   sodipodi:docname="itinerary.svg"
   inkscape:version="1.2.1 (9c6d41e410, 2022-07-14)"
   xmlns:inkscape="http://www.inkscape.org/namespaces/inkscape"
   xmlns:sodipodi="http://sodipodi.sourceforge.net/DTD/sodipodi-0.dtd"
   xmlns="http://www.w3.org/2000/svg"
   xmlns:svg="http://www.w3.org/2000/svg">
  <defs
     id="defs98" />
  <sodipodi:namedview
     id="namedview96"
     pagecolor="#ffffff"
     bordercolor="#666666"
     borderopacity="1.0"
     inkscape:showpageshadow="2"
     inkscape:pageopacity="0.0"
     inkscape:pagecheckerboard="0"
     inkscape:deskcolor="#d1d1d1"
     showgrid="false"
     inkscape:zoom="4.9166667"
     inkscape:cx="24"
     inkscape:cy="24"
     inkscape:window-width="1920"
     inkscape:window-height="1011"
     inkscape:window-x="0"
     inkscape:window-y="0"
     inkscape:window-maximized="1"
     inkscape:current-layer="svg94" />
  <linearGradient
     id="a"
     x1="24"
     x2="24"
     y1="294"
     y2="257"
     gradientTransform="matrix(0.27781249,0,0,0.2714534,-0.31750152,-67.890309)"
     gradientUnits="userSpaceOnUse">
    <stop
       stop-color="#1d99f3"
       offset="0"
       id="stop2" />
    <stop
       stop-color="#3daee9"
       offset="1"
       id="stop4" />
  </linearGradient>
  <linearGradient
     id="b"
     x1="24"
     x2="24"
     y1="294"
     y2="257"
     gradientTransform="matrix(1.0000001 0 0 .97711022 -7e-6 -243.23179)"
     gradientUnits="userSpaceOnUse">
    <stop
       stop-color="#27ae60"
       offset="0"
       id="stop7" />
    <stop
       stop-color="#2ecc71"
       offset="1"
       id="stop9" />
  </linearGradient>
  <linearGradient
     id="c"
     x1="120.39682"
     x2="120.34652"
     y1="23.021145"
     y2="32.414047"
     gradientTransform="matrix(0.38271441,0.10439693,-0.12882244,0.48944005,-32.74364,-19.405994)"
     gradientUnits="userSpaceOnUse">
    <stop
       stop-color="#bdc3c7"
       offset="0"
       id="stop12" />
    <stop
       stop-color="#fff"
       offset="1"
       id="stop14" />
  </linearGradient>
  <linearGradient
     id="d"
     x1="119.85059"
     x2="119.85059"
     y1="27.383589"
     y2="33.01519"
     gradientTransform="matrix(0.38271438,0.10439692,-0.12882244,0.48944002,-32.74364,-19.405994)"
     gradientUnits="userSpaceOnUse">
    <stop
       stop-color="#7f8c8d"
       offset="0"
       id="stop17" />
    <stop
       stop-color="#95a5a6"
       offset="1"
       id="stop19" />
  </linearGradient>
  <linearGradient
     id="e"
     x1="112.7049"
     x2="112.7049"
     y1="30.894091"
     y2="32.711887"
     gradientTransform="matrix(0.38271438,0.10439692,-0.12882244,0.48944002,-32.74364,-19.405994)"
     gradientUnits="userSpaceOnUse">
    <stop
       stop-color="#2c3e50"
       offset="0"
       id="stop22" />
    <stop
       stop-color="#34495e"
       offset="1"
       id="stop24" />
  </linearGradient>
  <linearGradient
     id="f"
     x1="31"
     x2="31"
     y1="-21.230349"
     y2="36"
     gradientTransform="matrix(0.27781249,0,0,0.27807417,-0.31750136,-0.31828546)"
     gradientUnits="userSpaceOnUse">
    <stop
       stop-color="#2980b9"
       offset="0"
       id="stop27" />
    <stop
       stop-color="#3daee9"
       stop-opacity="0"
       offset="1"
       id="stop29" />
  </linearGradient>
  <rect
     x="0.79374999"
     y="0.79374999"
     width="11.1125"
     height="11.1125"
     rx="5.5562501"
     ry="5.5562501"
     fill="#34495e"
     stroke-width="0.277948"
     id="rect32" />
  <rect
     x="0.79374999"
     y="0.79374999"
     width="11.1125"
     height="10.834683"
     rx="5.5562501"
     ry="5.4173417"
     fill="url(#a)"
     stroke-width="0.277948"
     id="rect34"
     style="fill:url(#a)" />
  <path
     d="M 8.0168735,1.6282723 V 1.9060841 H 7.183436 V 2.7406068 H 8.0168735 L 8.294686,9.6924286 h 3.611563 V 5.2620802 Z"
     fill="url(#f)"
     stroke-width="0.277948"
     id="path36"
     style="fill:url(#f)" />
  <path
     d="M 6.0722262,1.6282581 V 1.906316 H 6.905613 V 2.7404875 H 5.5164914 V 3.0185446 H 4.9609008 L 5.5164914,4.6870313 H 4.1275138 L 4.9609008,6.633576 H 5.7944309 V 9.6923487 H 8.2947342 V 6.633576 H 9.1281204 L 9.9615103,4.6870313 H 8.5725292 L 9.1281204,3.0185446 H 8.5725292 V 2.7404875 H 7.1834087 V 1.906316 H 8.0169385 V 1.6282581 Z"
     fill="#2980b9"
     id="path40"
     style="stroke-width:0.0735393" />
  <path
     d="M 3.1801157,4.9283798 C 2.8150399,4.9412008 2.4537224,5.0251268 2.1312657,5.2268107 1.6436145,5.531819 0.87835794,5.5233128 1.3640257,6.0917188 2.1134244,6.9687939 3.2686263,7.1605766 4.3260919,7.4867497 6.080656,7.8650025 7.7918671,8.4116047 9.5231381,8.8812379 10.145913,9.085515 10.280166,9.1263213 11.147313,9.1366693 L 11.906249,7.1975426 C 9.3642099,6.4326736 6.1634203,5.5204357 4.2517554,5.0558914 3.9140015,4.9738145 3.5451923,4.9155573 3.1801157,4.9283798 Z"
     fill="url(#c)"
     stroke-width="0.44807"
     id="path42"
     sodipodi:nodetypes="sccccccss"
     style="fill:url(#c)" />
  <path
     d="M 5.6855215,7.3051836 C 5.6004054,7.2819654 5.5087733,7.3509412 5.4801242,7.4597883 L 5.3464507,7.9676612 c -0.028646,0.1088484 0.016829,0.215224 0.1019473,0.2384418 l 1.4004262,0.3820091 c 0.072208,0.019699 0.1485941,-0.027402 0.1877379,-0.1084576 0.1279073,0.00773 0.2558414,0.015387 0.3837427,0.023083 C 7.4608915,8.3689497 7.5014731,8.2351867 7.5420589,8.1013999 7.4266036,8.0209316 7.3110995,7.940445 7.1956443,7.8599763 7.1954354,7.7770803 7.1538085,7.7059383 7.0863557,7.6873036 c -1.03e-4,-2.86e-5 -3.06e-4,-8.36e-5 -3.826e-4,-1.04e-4 z"
     fill="url(#e)"
     stroke-width="0.448071"
     id="path44"
     style="fill:url(#e)" />
  <g
     transform="matrix(0.3827144,0.10439689,-0.12882244,0.48944001,-32.743643,-19.405997)"
     fill="#232629"
     id="g88">
    <path
       d="m 101.21759,28.533143 c -0.13528,0.0901 -0.26674,0.184668 -0.39067,0.288869 -0.0513,0.04317 -0.1063,0.08418 -0.16175,0.125058 0.54774,0.14773 1.06955,0.284673 1.62213,0.03152 l 0.0615,-0.309025 c -0.4224,-0.02919 -0.83082,-0.06324 -1.1312,-0.136424 z"
       id="path46" />
    <rect
       x="105.44054"
       y="28.747101"
       width="0.50765997"
       height="0.60045898"
       rx="0.25382999"
       id="rect48" />
    <rect
       x="106.49887"
       y="28.747101"
       width="0.50765997"
       height="0.60045898"
       rx="0.25382999"
       id="rect50" />
    <rect
       x="107.55721"
       y="28.747101"
       width="0.50765997"
       height="0.60045898"
       rx="0.25382999"
       id="rect52" />
    <rect
       x="108.61554"
       y="28.747101"
       width="0.50765997"
       height="0.60045898"
       rx="0.25382999"
       id="rect54" />
    <rect
       x="109.67387"
       y="28.747101"
       width="0.50765997"
       height="0.60045898"
       rx="0.25382999"
       id="rect56" />
    <rect
       x="110.73219"
       y="28.747101"
       width="0.50765997"
       height="0.60045898"
       rx="0.25382999"
       id="rect58" />
    <rect
       x="111.79049"
       y="28.747101"
       width="0.50765997"
       height="0.60045898"
       rx="0.25382999"
       id="rect60" />
    <rect
       x="112.84885"
       y="28.747101"
       width="0.50765997"
       height="0.60045898"
       rx="0.25382999"
       id="rect62" />
    <rect
       x="113.90718"
       y="28.747101"
       width="0.50765997"
       height="0.60045898"
       rx="0.25382999"
       id="rect64" />
    <rect
       x="114.96552"
       y="28.747101"
       width="0.50765997"
       height="0.60045898"
       rx="0.25382999"
       id="rect66" />
    <rect
       x="116.02385"
       y="28.747101"
       width="0.50765997"
       height="0.60045898"
       rx="0.25382999"
       id="rect68" />
    <rect
       x="117.08216"
       y="28.747101"
       width="0.50765997"
       height="0.60045898"
       rx="0.25382999"
       id="rect70" />
    <rect
       x="118.14051"
       y="28.747101"
       width="0.50765997"
       height="0.60045898"
       rx="0.25382999"
       id="rect72" />
    <rect
       x="119.19883"
       y="28.747101"
       width="0.50765997"
       height="0.60045898"
       rx="0.25382999"
       id="rect74" />
    <rect
       x="120.25716"
       y="28.747101"
       width="0.50765997"
       height="0.60045898"
       rx="0.25382999"
       id="rect76" />
    <rect
       x="121.31549"
       y="28.747101"
       width="0.50765997"
       height="0.60045898"
       rx="0.25382999"
       id="rect78" />
    <rect
       x="122.37383"
       y="28.747101"
       width="0.50765997"
       height="0.60045898"
       rx="0.25382999"
       id="rect80" />
    <rect
       x="123.43217"
       y="28.747101"
       width="0.50765997"
       height="0.60045898"
       rx="0.25382999"
       id="rect82" />
    <rect
       x="124.49049"
       y="28.747101"
       width="0.50765997"
       height="0.60045898"
       rx="0.25382999"
       id="rect84" />
    <rect
       x="125.54883"
       y="28.747101"
       width="0.50765997"
       height="0.60045898"
       rx="0.25382999"
       id="rect86" />
  </g>
  <path
     d="M 5.4292616,7.2352567 7.9907105,7.4010908 10.054569,7.5290771 11.39994,6.6326469 11.655912,6.7024728 10.810674,7.8040533 9.6033313,7.9844242 8.0620192,7.953422 Z"
     fill="url(#d)"
     opacity="0.99"
     stroke-width="0.446947"
     id="path90"
     style="fill:url(#d)" />
</svg>
