<?xml version="1.0" encoding="UTF-8" standalone="no"?>
<svg
   width="48"
   height="48"
   version="1.1"
   id="svg50"
   sodipodi:docname="juk.svg"
   inkscape:version="1.2.1 (9c6d41e410, 2022-07-14)"
   xmlns:inkscape="http://www.inkscape.org/namespaces/inkscape"
   xmlns:sodipodi="http://sodipodi.sourceforge.net/DTD/sodipodi-0.dtd"
   xmlns:xlink="http://www.w3.org/1999/xlink"
   xmlns="http://www.w3.org/2000/svg"
   xmlns:svg="http://www.w3.org/2000/svg">
  <sodipodi:namedview
     id="namedview52"
     pagecolor="#ffffff"
     bordercolor="#666666"
     borderopacity="1.0"
     inkscape:showpageshadow="2"
     inkscape:pageopacity="0.0"
     inkscape:pagecheckerboard="0"
     inkscape:deskcolor="#d1d1d1"
     showgrid="false"
     inkscape:zoom="4.9166667"
     inkscape:cx="24"
     inkscape:cy="24"
     inkscape:window-width="1920"
     inkscape:window-height="1011"
     inkscape:window-x="0"
     inkscape:window-y="0"
     inkscape:window-maximized="1"
     inkscape:current-layer="svg50" />
  <defs
     id="defs18">
    <linearGradient
       id="a"
       y1="543.8"
       y2="503.8"
       x2="0"
       gradientUnits="userSpaceOnUse">
      <stop
         stop-color="#2a2c2f"
         id="stop2" />
      <stop
         offset="1"
         stop-color="#424649"
         id="stop4" />
    </linearGradient>
    <linearGradient
       id="b"
       y1="530.8"
       y2="516.8"
       gradientUnits="userSpaceOnUse"
       x2="0">
      <stop
         stop-color="#ee643a"
         id="stop7" />
      <stop
         offset="1"
         stop-color="#fe9473"
         id="stop9" />
    </linearGradient>
    <linearGradient
       xlink:href="#a"
       id="c"
       y1="-521.8"
       y2="-525.8"
       gradientUnits="userSpaceOnUse"
       x2="0" />
    <linearGradient
       id="d"
       y1="523.8"
       x1="408.57"
       y2="537.8"
       x2="422.57"
       gradientUnits="userSpaceOnUse"
       gradientTransform="translate(-384.57,-499.8)">
      <stop
         stop-color="#292c2f"
         id="stop13" />
      <stop
         offset="1"
         stop-opacity="0"
         id="stop15" />
    </linearGradient>
    <linearGradient
       inkscape:collect="always"
       xlink:href="#a"
       id="linearGradient227"
       gradientUnits="userSpaceOnUse"
       y1="543.8"
       x2="0"
       y2="503.8" />
  </defs>
  <g
     transform="matrix(1.0499473,0,0,1.0499997,-404.97592,-525.98984)"
     id="g48">
    <rect
       width="40"
       x="388.57001"
       y="503.79999"
       fill="url(#a)"
       rx="20"
       height="40"
       id="rect20"
       style="fill:url(#linearGradient227)" />
    <path
       opacity="0.4"
       fill="url(#d)"
       fill-rule="evenodd"
       d="m 30,20 -11,9 13.229,13.229 c 4.439,-1.998 8,-5.561 10,-10 z"
       transform="translate(384.57,499.8)"
       id="path22"
       style="fill:url(#d)" />
    <rect
       width="14"
       x="401.57001"
       y="516.79999"
       fill="url(#b)"
       rx="7"
       height="14"
       id="rect24"
       style="fill:url(#b)" />
    <rect
       width="4"
       x="406.57001"
       y="-525.79999"
       fill="url(#c)"
       rx="2"
       height="4"
       transform="scale(1,-1)"
       id="rect26"
       style="fill:url(#c)" />
    <path
       fill="#ffffff"
       fill-opacity="0.275"
       d="m 24,18 c -3.324,0 -6,2.676 -6,6 0,3.324 2.676,6 6,6 3.324,0 6,-2.676 6,-6 0,-3.324 -2.676,-6 -6,-6 m 0,1 c 2.77,0 5,2.23 5,5 0,2.77 -2.23,5 -5,5 -2.77,0 -5,-2.23 -5,-5 0,-2.77 2.23,-5 5,-5"
       transform="translate(384.57,499.8)"
       id="path28" />
    <g
       fill="#4c5053"
       id="g44">
      <path
         d="m 418.07,507.34 c -0.971,-0.56 -1.973,-1 -2.99,-1.377 l -3.465,9.368 c 0.495,0.179 0.982,0.396 1.454,0.668 0.472,0.273 0.903,0.587 1.306,0.925 l 6.381,-7.685 c -0.83,-0.694 -1.716,-1.34 -2.687,-1.901"
         id="path30" />
      <path
         d="m 399.07,540.25 c -0.971,-0.56 -1.857,-1.207 -2.687,-1.901 l 6.381,-7.685 c 0.403,0.339 0.834,0.653 1.306,0.925 0.472,0.273 0.96,0.489 1.454,0.668 l -3.465,9.368 c -1.016,-0.372 -2.02,-0.816 -2.99,-1.376"
         id="path32" />
      <g
         fill-opacity="0.198"
         id="g42">
        <path
           d="m 422.01,510.36 c -0.793,-0.793 -1.646,-1.481 -2.531,-2.103 l -5.771,8.152 c 0.431,0.301 0.846,0.636 1.232,1.022 0.386,0.386 0.721,0.801 1.022,1.232 l 8.152,-5.771 c -0.622,-0.885 -1.311,-1.739 -2.103,-2.531"
           id="path34" />
        <path
           d="m 395.14,537.23 c -0.793,-0.793 -1.481,-1.646 -2.103,-2.532 l 8.152,-5.771 c 0.301,0.431 0.636,0.846 1.022,1.232 0.386,0.386 0.801,0.721 1.232,1.022 l -5.771,8.152 c -0.885,-0.622 -1.739,-1.311 -2.531,-2.103"
           id="path36" />
        <path
           d="m 425.03,514.3 c -0.56,-0.971 -1.207,-1.857 -1.901,-2.687 l -7.685,6.381 c 0.339,0.403 0.653,0.834 0.925,1.306 0.273,0.472 0.489,0.96 0.668,1.454 l 9.368,-3.465 c -0.372,-1.016 -0.816,-2.02 -1.377,-2.99"
           id="path38" />
        <path
           d="m 392.12,533.3 c -0.56,-0.971 -1,-1.973 -1.377,-2.99 l 9.368,-3.465 c 0.179,0.495 0.396,0.982 0.668,1.454 0.273,0.472 0.587,0.903 0.925,1.306 l -7.685,6.381 c -0.694,-0.83 -1.34,-1.716 -1.901,-2.687"
           id="path40" />
      </g>
    </g>
    <path
       fill="#2d2f33"
       d="m 388.58,523.3 c -0.004,0.167 -0.012,0.332 -0.012,0.5 0,11.08 8.92,20 20,20 11.08,0 20,-8.92 20,-20 0,-0.168 -0.008,-0.333 -0.012,-0.5 -0.265,10.846 -9.08,19.5 -19.988,19.5 -10.912,0 -19.724,-8.654 -19.988,-19.5"
       id="path46" />
  </g>
</svg>
