<?xml version="1.0" encoding="UTF-8" standalone="no"?>
<svg
   width="48"
   height="48"
   version="1"
   id="svg7"
   sodipodi:docname="kadu.svg"
   inkscape:version="1.4.2 (unknown)"
   xmlns:inkscape="http://www.inkscape.org/namespaces/inkscape"
   xmlns:sodipodi="http://sodipodi.sourceforge.net/DTD/sodipodi-0.dtd"
   xmlns:xlink="http://www.w3.org/1999/xlink"
   xmlns="http://www.w3.org/2000/svg"
   xmlns:svg="http://www.w3.org/2000/svg">
  <defs
     id="defs7">
    <linearGradient
       id="linearGradient7"
       inkscape:collect="always">
      <stop
         style="stop-color:#384850;stop-opacity:1;"
         offset="0"
         id="stop8" />
      <stop
         style="stop-color:#384850;stop-opacity:1;"
         offset="0.59162253"
         id="stop10" />
      <stop
         style="stop-color:#eff2f6;stop-opacity:1;"
         offset="0.92173076"
         id="stop11" />
      <stop
         style="stop-color:#eff2f6;stop-opacity:1;"
         offset="1"
         id="stop9" />
    </linearGradient>
    <linearGradient
       id="linearGradient1"
       inkscape:collect="always">
      <stop
         style="stop-color:#d4aa00;stop-opacity:1"
         offset="0"
         id="stop5" />
      <stop
         style="stop-color:#ffcc00;stop-opacity:1"
         offset="0.28848785"
         id="stop7" />
      <stop
         style="stop-color:#ffd42a;stop-opacity:1"
         offset="1"
         id="stop6" />
    </linearGradient>
    <linearGradient
       id="c-3"
       gradientUnits="userSpaceOnUse"
       x1="24.072048"
       x2="23.959682"
       y1="0.75082099"
       y2="46.056854">
      <stop
         offset="0"
         stop-color="#fff"
         id="stop3" />
      <stop
         offset="1"
         stop-color="#d9d9d9"
         id="stop4" />
    </linearGradient>
    <linearGradient
       id="b-6"
       gradientUnits="userSpaceOnUse"
       x1="29.203026"
       x2="34.121048"
       xlink:href="#a-7"
       y1="24.827356"
       y2="29.224836" />
    <linearGradient
       id="a-7">
      <stop
         offset="0"
         id="stop1" />
      <stop
         offset="1"
         stop-opacity="0"
         id="stop2" />
    </linearGradient>
    <linearGradient
       id="d"
       gradientUnits="userSpaceOnUse"
       x1="15.948756"
       x2="25.031786"
       xlink:href="#a-7"
       y1="23.618279"
       y2="33.69899" />
    <linearGradient
       id="e"
       gradientUnits="userSpaceOnUse"
       x1="21.990562"
       x2="29.320522"
       xlink:href="#a-7"
       y1="33.780373"
       y2="41.931858" />
    <linearGradient
       id="paint154_linear_890_11"
       x1="778"
       y1="812.29199"
       x2="788"
       y2="812.29199"
       gradientUnits="userSpaceOnUse"
       gradientTransform="translate(-751,-696)">
      <stop
         stop-color="#EFF2F6"
         id="stop1050" />
      <stop
         offset="0.600785"
         stop-color="#B7C6CD"
         id="stop1051" />
    </linearGradient>
    <linearGradient
       id="paint155_linear_890_11"
       x1="783"
       y1="813"
       x2="783"
       y2="817"
       gradientUnits="userSpaceOnUse"
       gradientTransform="translate(-751,-696)">
      <stop
         stop-color="#EFF2F6"
         id="stop1052" />
      <stop
         offset="0.734138"
         stop-color="#B7C6CD"
         id="stop1053" />
    </linearGradient>
    <radialGradient
       id="paint156_radial_890_11"
       cx="0"
       cy="0"
       r="1"
       gradientUnits="userSpaceOnUse"
       gradientTransform="matrix(27.999986,27.999976,-27.999986,27.999976,32.302392,33.999998)">
      <stop
         offset="0.60067803"
         stop-color="#B7C6CD"
         id="stop1054"
         style="stop-color:#384850;stop-opacity:1;" />
      <stop
         offset="0.876735"
         stop-color="#EFF2F6"
         id="stop1055" />
    </radialGradient>
    <linearGradient
       id="paint157_linear_890_11"
       x1="796.84485"
       y1="799.43359"
       x2="768.90088"
       y2="770.81476"
       gradientUnits="userSpaceOnUse"
       gradientTransform="matrix(1.1666666,0,0,1.1666668,-881.19764,-881.8333)">
      <stop
         offset="0.00000057"
         stop-color="#2E2E41"
         id="stop1056"
         style="stop-color:#495361;stop-opacity:1;" />
      <stop
         offset="0.711139"
         stop-color="#566C80"
         id="stop1057" />
    </linearGradient>
    <linearGradient
       id="paint158_linear_890_11"
       x1="792"
       y1="794"
       x2="774"
       y2="776"
       gradientUnits="userSpaceOnUse"
       gradientTransform="translate(-751,-696)">
      <stop
         offset="0.304478"
         stop-color="#2E2E41"
         id="stop1058" />
      <stop
         offset="1"
         stop-color="#566C80"
         id="stop1059" />
    </linearGradient>
    <linearGradient
       id="paint159_linear_890_11"
       x1="788"
       y1="790"
       x2="778"
       y2="780"
       gradientUnits="userSpaceOnUse"
       gradientTransform="translate(-751,-696)">
      <stop
         offset="0.391394"
         stop-color="#5200FF"
         id="stop1060" />
      <stop
         offset="1"
         stop-color="#0085FF"
         id="stop1061" />
    </linearGradient>
    <linearGradient
       id="paint160_linear_890_11"
       x1="784"
       y1="798"
       x2="782"
       y2="796"
       gradientUnits="userSpaceOnUse"
       gradientTransform="translate(-751,-696)">
      <stop
         stop-color="#FF7E07"
         id="stop1062" />
      <stop
         offset="1"
         stop-color="#FFE607"
         id="stop1063" />
    </linearGradient>
    <linearGradient
       inkscape:collect="always"
       xlink:href="#linearGradient1"
       id="linearGradient6"
       x1="17.408081"
       y1="16.037786"
       x2="49.155514"
       y2="50.137749"
       gradientUnits="userSpaceOnUse"
       gradientTransform="matrix(1.3333333,0,0,1.3333333,-1.4341291,-2)" />
    <radialGradient
       inkscape:collect="always"
       xlink:href="#linearGradient7"
       id="radialGradient9"
       cx="25.302387"
       cy="34"
       fx="25.302387"
       fy="34"
       r="28"
       gradientUnits="userSpaceOnUse"
       gradientTransform="matrix(0.99999997,1.0000001,-1,0.99999991,41.000002,-25.302388)" />
  </defs>
  <sodipodi:namedview
     id="namedview7"
     pagecolor="#ffffff"
     bordercolor="#000000"
     borderopacity="0.25"
     inkscape:showpageshadow="2"
     inkscape:pageopacity="0.0"
     inkscape:pagecheckerboard="0"
     inkscape:deskcolor="#d1d1d1"
     inkscape:zoom="8.3306018"
     inkscape:cx="35.111509"
     inkscape:cy="34.571332"
     inkscape:window-width="1920"
     inkscape:window-height="996"
     inkscape:window-x="0"
     inkscape:window-y="0"
     inkscape:window-maximized="1"
     inkscape:current-layer="svg7" />
  <g
     id="g2"
     transform="matrix(0.75,0,0,0.75,0.75000002,0.75)"
     style="stroke-width:1.33333">
    <g
       id="g1"
       transform="translate(-1.3023872,-3)"
       style="stroke-width:1.33333">
      <path
         d="m 60.302387,34 c 0,15.46415 -12.535828,28 -28.000002,28 C 16.838222,62 4.3023873,49.46415 4.3023873,34 4.3023873,18.535835 16.838222,6 32.302385,6 47.766559,6 60.302387,18.535835 60.302387,34 Z"
         id="path154"
         style="fill:url(#radialGradient9);stroke-width:1.33333" />
      <path
         d="m 55.63572,34 c 0,12.88701 -10.446332,23.33332 -23.333335,23.33332 C 19.415386,57.33332 8.9690543,46.88701 8.9690543,34 c 0,-12.886994 10.4463317,-23.333332 23.3333307,-23.333332 12.887003,0 23.333335,10.446338 23.333335,23.333332 z"
         id="path155"
         style="fill:url(#linearGradient6);stroke-width:1.33333" />
    </g>
    <path
       d="m 31.504359,14.989354 c -1.574671,0 -2.850546,1.275665 -2.850546,2.850535 v 2.978025 c -0.951921,0.252864 -1.85363,0.632176 -2.686459,1.113903 l -0.12455,-0.12455 -0.0164,-0.0131 -0.150749,-0.150759 -0.147408,-0.147407 c -0.0083,-0.0083 -0.01506,-0.01527 -0.023,-0.023 l -0.01032,-0.01032 -0.0164,-0.0164 -0.0426,-0.0426 -0.0754,-0.07859 -0.023,-0.023 -0.0197,-0.0164 c -0.01217,-0.01217 -0.02372,-0.02414 -0.03611,-0.03611 l -0.370184,-0.373536 -0.114699,-0.11144 c -0.01032,-0.01032 -0.01939,-0.0197 -0.0295,-0.0295 l -0.0754,-0.0754 c -0.03476,-0.03476 -0.0688,-0.06901 -0.104829,-0.1016 l -0.416104,-0.419353 c -0.03476,-0.03476 -0.0688,-0.069 -0.104838,-0.1016 v -0.0031 c -0.03476,-0.03476 -0.0688,-0.06901 -0.10484,-0.101599 v -0.0031 l -0.101599,-0.104839 c -1.113377,-1.113377 -2.922872,-1.113377 -4.036249,0 -1.113378,1.113377 -1.113378,2.922882 0,4.03626 l 0.108088,0.101599 c 0.0326,0.03611 0.06674,0.07004 0.1016,0.104839 h 0.0031 c 0.0326,0.0361 0.06674,0.07004 0.101599,0.104838 l 0.278446,0.278445 c 0.01134,0.01176 0.02115,0.02445 0.0328,0.03611 l 0.108087,0.101599 c 0.0326,0.03611 0.06684,0.07004 0.101599,0.104838 h 0.0031 c 0.0326,0.03611 0.06684,0.07004 0.1016,0.104838 h 0.0031 c 0.0326,0.03611 0.06684,0.07004 0.101599,0.104839 l 0.173607,0.173607 c 0.01134,0.01176 0.02115,0.02445 0.0328,0.03611 l 0.0062,0.0031 c 0.03115,0.03425 0.06509,0.06509 0.0983,0.0983 h 0.0031 c 0.0326,0.03611 0.06674,0.07004 0.101601,0.104839 l 0.0062,0.0062 0.0164,0.0164 c 0.0262,0.02837 0.05426,0.05426 0.0819,0.0819 l 0.147396,0.150749 0.0688,0.0688 0.180219,0.176969 c 0.0072,0.0072 0.01248,0.01568 0.0197,0.02289 l 0.1147,0.114699 c -0.486348,0.835036 -0.864598,1.741036 -1.120505,2.69632 h -2.981377 c -1.565126,0.01104 -2.830622,1.282477 -2.830622,2.850535 0,0.8365 0.359698,1.588297 0.933686,2.110385 0.01531,0.01537 0.0303,0.03084 0.04592,0.0459 0.0324,0.03455 0.06416,0.06859 0.09834,0.101599 0.05378,0.05766 0.108717,0.114061 0.167112,0.167109 0.0348,0.03507 0.06825,0.07148 0.104838,0.104838 0.01981,0.02001 0.03848,0.0395 0.05902,0.059 0.04865,0.05126 0.09834,0.09995 0.150756,0.147396 0.01531,0.01537 0.0303,0.03084 0.04592,0.0459 0.03239,0.03455 0.06416,0.0686 0.0983,0.101599 0.03353,0.036 0.06941,0.07066 0.104838,0.104838 0.05374,0.05766 0.108717,0.114061 0.167109,0.167109 0.03476,0.03518 0.06828,0.07159 0.104838,0.104838 0.03476,0.03518 0.06828,0.06829 0.104839,0.1016 0.03476,0.03518 0.06828,0.07148 0.104838,0.104839 0.01527,0.01536 0.03032,0.03084 0.0459,0.0459 0.03239,0.03465 0.06416,0.06859 0.0983,0.101599 0.05374,0.05766 0.108717,0.11407 0.167109,0.167118 0.03476,0.03518 0.06828,0.07148 0.104838,0.104839 0.03476,0.03507 0.06828,0.06829 0.104838,0.1016 0.03476,0.03518 0.06828,0.07148 0.104839,0.104838 0.01527,0.01537 0.03033,0.03084 0.0459,0.0459 0.03239,0.03455 0.06416,0.0686 0.0983,0.101601 0.05374,0.05766 0.108716,0.114059 0.167108,0.167107 0.03476,0.03518 0.06828,0.07148 0.104839,0.104839 0.03476,0.03507 0.06828,0.06829 0.104838,0.1016 0.03476,0.03518 0.06828,0.07148 0.104838,0.104838 0.01527,0.01537 0.03033,0.03084 0.0459,0.0459 0.03239,0.03456 0.06416,0.0686 0.0983,0.1016 0.03352,0.036 0.06942,0.07066 0.104839,0.104839 0.05373,0.05766 0.108716,0.114059 0.167107,0.167108 0.03476,0.03507 0.06829,0.07159 0.104839,0.104838 0.03476,0.03518 0.06829,0.06829 0.104838,0.1016 0.01527,0.01537 0.03033,0.03084 0.0459,0.0459 0.03239,0.03455 0.06416,0.0686 0.0983,0.101599 0.03353,0.036 0.06941,0.07065 0.104827,0.104839 0.05384,0.05766 0.108717,0.11407 0.167119,0.167118 0.03476,0.03518 0.06828,0.07159 0.104839,0.10484 0.03476,0.03507 0.06828,0.06828 0.104839,0.101599 0.03476,0.03507 0.06828,0.07148 0.104838,0.104838 0.01527,0.01537 0.03032,0.03084 0.0459,0.0459 0.03239,0.03456 0.06416,0.0686 0.0983,0.101601 0.05374,0.05766 0.108717,0.114059 0.167108,0.167107 0.03476,0.03518 0.06828,0.07148 0.104839,0.104838 0.03476,0.03518 0.06828,0.06829 0.104838,0.101601 0.03476,0.03518 0.06828,0.07148 0.104838,0.104838 0.01527,0.01537 0.03033,0.03084 0.0459,0.0459 0.02661,0.02847 0.05085,0.05777 0.07859,0.0852 l -0.822348,0.828846 c -1.099957,1.114429 -1.099122,2.910928 0.01032,4.019477 0.01775,0.01775 0.03765,0.03198 0.0557,0.0492 0.01661,0.01743 0.03207,0.03537 0.0492,0.0524 0.01145,0.01145 0.02445,0.02156 0.0361,0.0328 0.02259,0.02424 0.04518,0.04838 0.0688,0.0721 0.01145,0.01145 0.02445,0.02156 0.03611,0.03281 0.02269,0.02424 0.04518,0.04838 0.0688,0.0721 0.03486,0.03476 0.0688,0.069 0.104838,0.101599 5.27e-4,5.27e-4 -5.26e-4,0.0031 0,0.0031 0.03476,0.03476 0.0688,0.069 0.104838,0.1016 5.27e-4,5.26e-4 -5.25e-4,0.0031 0,0.0031 0.01775,0.01775 0.03435,0.03537 0.0524,0.0524 0.01661,0.01743 0.03207,0.03537 0.0492,0.0524 0.0261,0.0261 0.05508,0.05044 0.08189,0.0754 0.0083,0.0083 0.01455,0.01785 0.023,0.0262 6.3e-4,5.25e-4 0.0031,-5.27e-4 0.0031,0 0.03249,0.036 0.06695,0.07014 0.101599,0.104838 0.01145,0.01145 0.02445,0.02156 0.03611,0.03281 0.02269,0.02424 0.04518,0.04848 0.0688,0.0721 0.03476,0.03476 0.0688,0.06901 0.104839,0.1016 5.36e-4,5.26e-4 -5.26e-4,0.0031 0,0.0031 5.36e-4,5.27e-4 0.0031,-5.26e-4 0.0031,0 0.03425,0.03414 0.06602,0.06952 0.101599,0.1016 5.37e-4,5.26e-4 -5.26e-4,0.0031 0,0.0031 0.01712,0.01713 0.03497,0.03249 0.0524,0.0492 0.01712,0.01794 0.03156,0.03806 0.0492,0.0557 h 0.0031 c 0.01712,0.01712 0.03497,0.03249 0.0524,0.0492 0.01713,0.01794 0.03156,0.03806 0.0492,0.0557 0.01774,0.01774 0.03765,0.03197 0.0557,0.0492 0.01661,0.01743 0.03207,0.03538 0.0492,0.0524 0.01145,0.01145 0.02445,0.02156 0.03611,0.03281 0.02259,0.02424 0.04518,0.04848 0.0688,0.0721 0.03476,0.03476 0.0688,0.069 0.104838,0.1016 5.27e-4,5.16e-4 -5.16e-4,0.0031 0,0.0031 5.27e-4,5.26e-4 0.0031,-5.26e-4 0.0031,0 0.03425,0.03414 0.06602,0.06952 0.1016,0.101599 5.25e-4,5.16e-4 -5.26e-4,0.0031 0,0.0031 0.03476,0.03476 0.0688,0.069 0.104838,0.1016 5.27e-4,5.15e-4 -5.26e-4,0.0031 0,0.0031 0.01774,0.01774 0.03435,0.03537 0.0524,0.0524 0.01661,0.01743 0.03207,0.03537 0.0492,0.0524 0.01712,0.01712 0.03507,0.0326 0.0524,0.0492 0.01712,0.01794 0.03476,0.03476 0.0524,0.0524 0.01145,0.01145 0.02445,0.02156 0.03611,0.0328 0.0227,0.02424 0.04518,0.04838 0.0688,0.0721 0.01145,0.01145 0.02445,0.02156 0.03611,0.03281 0.02269,0.02424 0.04518,0.04848 0.0688,0.0721 0.03476,0.03476 0.0688,0.069 0.104839,0.101599 5.36e-4,5.27e-4 -5.26e-4,0.0031 0,0.0031 0.03476,0.03476 0.0688,0.069 0.104839,0.1016 5.35e-4,5.26e-4 -5.27e-4,0.0031 0,0.0031 0.01712,0.01712 0.03497,0.03249 0.0524,0.0492 0.01712,0.01794 0.03156,0.03806 0.0492,0.0557 0.02094,0.02094 0.04404,0.03878 0.0655,0.059 0.01362,0.01413 0.02538,0.02857 0.0393,0.0426 0.01145,0.01145 0.02445,0.02156 0.03611,0.03281 0.02269,0.02424 0.04518,0.04838 0.0688,0.0721 0.01145,0.01145 0.02445,0.02156 0.03611,0.0328 0.02259,0.02424 0.04518,0.04838 0.0688,0.0721 0.03486,0.03476 0.0688,0.069 0.104838,0.101599 5.37e-4,5.26e-4 -5.26e-4,0.0031 0,0.0031 0.03476,0.03476 0.0688,0.069 0.104839,0.101601 5.36e-4,5.25e-4 -5.26e-4,0.0031 0,0.0031 0.01775,0.01775 0.03435,0.03537 0.0524,0.0524 0.01661,0.01743 0.03208,0.03537 0.0492,0.0524 0.02115,0.02115 0.04383,0.04188 0.0655,0.0623 0.01341,0.01392 0.02558,0.02888 0.0393,0.0426 0.01712,0.01712 0.03507,0.0326 0.0524,0.0492 0.01712,0.01794 0.03476,0.03476 0.0524,0.0524 0.01145,0.01145 0.02445,0.02156 0.03611,0.0328 0.02269,0.02424 0.04518,0.04848 0.0688,0.0721 0.03476,0.03476 0.0688,0.069 0.104838,0.101599 5.26e-4,5.26e-4 -5.26e-4,0.0031 0,0.0031 5.26e-4,5.25e-4 0.0031,-5.27e-4 0.0031,0 0.03425,0.03414 0.06602,0.06952 0.101601,0.101599 5.25e-4,5.26e-4 -5.27e-4,0.0031 0,0.0031 0.03476,0.03476 0.0688,0.06901 0.104838,0.101599 5.37e-4,5.26e-4 -5.26e-4,0.0031 0,0.0031 0.01712,0.01712 0.03497,0.03249 0.0524,0.0492 0.01712,0.01794 0.03156,0.03806 0.0492,0.0557 0.01775,0.01775 0.03765,0.03198 0.0557,0.0492 0.01661,0.01743 0.03208,0.03538 0.0492,0.0524 0.01145,0.01145 0.02445,0.02156 0.03611,0.0328 0.02259,0.02424 0.04518,0.04848 0.0688,0.0721 0.01145,0.01145 0.02445,0.02156 0.0361,0.0328 0.02259,0.02424 0.04518,0.04848 0.0688,0.0721 0.03486,0.03476 0.0688,0.069 0.104839,0.101599 5.36e-4,5.27e-4 -5.26e-4,0.0031 0,0.0031 0.03476,0.03476 0.0688,0.06901 0.104859,0.101599 5.26e-4,5.16e-4 -5.36e-4,0.0031 0,0.0031 0.01774,0.01775 0.03435,0.03528 0.0524,0.0524 0.01661,0.01743 0.03207,0.03538 0.0492,0.0524 0.01712,0.01712 0.03507,0.0326 0.0524,0.0492 0.01712,0.01794 0.03476,0.03476 0.0524,0.0524 0.01145,0.01145 0.02445,0.02156 0.03611,0.0328 0.02269,0.02424 0.04518,0.04848 0.0688,0.0721 0.01145,0.01145 0.02445,0.02156 0.03611,0.03281 0.02269,0.02424 0.04518,0.04848 0.0688,0.0721 0.03476,0.03476 0.0688,0.069 0.104839,0.1016 5.26e-4,5.15e-4 -5.27e-4,0.0031 0,0.0031 0.03476,0.03476 0.0688,0.06901 0.104838,0.1016 5.26e-4,5.15e-4 -5.26e-4,0.0031 0,0.0031 0.01712,0.01712 0.03497,0.03249 0.0524,0.0492 0.01712,0.01794 0.03156,0.03806 0.0492,0.0557 0.0261,0.0261 0.05508,0.05043 0.0819,0.0754 0.0083,0.0083 0.01454,0.01785 0.023,0.0262 6.19e-4,5.26e-4 0.0031,-5.16e-4 0.0031,0 0.03249,0.036 0.06684,0.07014 0.1016,0.104838 0.01145,0.01145 0.02445,0.02156 0.03611,0.0328 0.02259,0.02424 0.04518,0.04838 0.0688,0.0721 0.03476,0.03476 0.0688,0.069 0.104838,0.101599 5.37e-4,5.26e-4 -5.26e-4,0.0031 0,0.0031 5.37e-4,5.26e-4 0.0031,-5.16e-4 0.0031,0 0.03425,0.03414 0.06602,0.06952 0.1016,0.101599 5.25e-4,5.27e-4 -5.37e-4,0.0031 0,0.0031 0.01774,0.01775 0.03435,0.03539 0.0524,0.0524 0.01661,0.01743 0.03208,0.03537 0.0492,0.0524 0.02115,0.02115 0.04383,0.04188 0.0655,0.0623 0.01341,0.01392 0.02558,0.02888 0.0393,0.0426 0.01712,0.01712 0.03507,0.0326 0.0524,0.0492 0.01712,0.01794 0.03476,0.03476 0.0524,0.0524 0.01145,0.01145 0.02445,0.02156 0.0361,0.03281 0.0227,0.02424 0.04518,0.04848 0.0688,0.0721 0.03476,0.03476 0.0688,0.069 0.104839,0.101599 5.25e-4,5.27e-4 -5.27e-4,0.0031 0,0.0031 5.25e-4,5.26e-4 0.0031,-5.26e-4 0.0031,0 0.03425,0.03414 0.06602,0.06952 0.1016,0.101599 5.36e-4,5.27e-4 -5.27e-4,0.0031 0,0.0031 0.03476,0.03476 0.0688,0.06901 0.104838,0.101599 5.37e-4,5.27e-4 -5.26e-4,0.0031 0,0.0031 0.01713,0.01712 0.03497,0.03249 0.0524,0.0492 0.01712,0.01794 0.03156,0.03806 0.0492,0.0557 0.01774,0.01774 0.03765,0.03198 0.0557,0.0492 0.01661,0.01743 0.03207,0.03539 0.0492,0.0524 0.01145,0.01145 0.02445,0.02156 0.03611,0.0328 0.0227,0.02424 0.04518,0.04848 0.0688,0.0721 0.01145,0.01145 0.02445,0.02156 0.03611,0.0328 0.02259,0.02424 0.04518,0.04848 0.0688,0.0721 0.03476,0.03476 0.0688,0.06901 0.104839,0.101599 5.36e-4,5.26e-4 -5.26e-4,0.0031 0,0.0031 0.03476,0.03476 0.0688,0.069 0.104849,0.101599 5.36e-4,5.16e-4 -5.26e-4,0.0031 0,0.0031 0.01775,0.01774 0.03435,0.03538 0.0524,0.0524 0.01661,0.01743 0.03207,0.03528 0.0492,0.0524 0.02094,0.02094 0.04404,0.03878 0.0655,0.059 0.01362,0.01413 0.02537,0.02858 0.0393,0.0426 0.01145,0.01145 0.02445,0.02156 0.0361,0.0328 0.0227,0.02424 0.04518,0.04848 0.0688,0.0721 0.01145,0.01145 0.02445,0.02156 0.0361,0.0328 0.02269,0.02424 0.04518,0.04848 0.0688,0.0721 0.03476,0.03476 0.0688,0.06901 0.104838,0.1016 5.37e-4,5.15e-4 -5.25e-4,0.0031 0,0.0031 0.03476,0.03476 0.0688,0.069 0.10486,0.101599 5.26e-4,5.16e-4 -5.37e-4,0.0031 0,0.0031 0.01712,0.01712 0.03497,0.03249 0.0524,0.0492 0.01712,0.01794 0.03156,0.03806 0.0492,0.0557 0.0261,0.0261 0.05508,0.05044 0.0819,0.0754 0.0083,0.0083 0.01454,0.01785 0.023,0.0262 v 0.0031 c 0.01775,0.01775 0.03765,0.03198 0.0557,0.0492 0.01661,0.01743 0.03207,0.03538 0.0492,0.0524 0.01145,0.01145 0.02445,0.02156 0.03611,0.0328 0.02269,0.02424 0.04518,0.04848 0.0688,0.0721 0.03476,0.03476 0.0688,0.069 0.104859,0.101601 5.36e-4,5.25e-4 -5.37e-4,0.0031 0,0.0031 5.36e-4,5.26e-4 0.0031,-5.16e-4 0.0031,0 0.03425,0.03414 0.06602,0.06952 0.1016,0.1016 5.37e-4,5.26e-4 -5.27e-4,0.0031 0,0.0031 0.03476,0.03476 0.0688,0.06901 0.104838,0.1016 5.37e-4,5.26e-4 -5.26e-4,0.0031 0,0.0031 0.01774,0.01775 0.03435,0.03527 0.0524,0.0524 0.01661,0.01743 0.03208,0.03539 0.0492,0.0524 0.01712,0.01712 0.03507,0.0326 0.0524,0.0492 0.01712,0.01794 0.03476,0.03476 0.0524,0.0524 0.01145,0.01145 0.02445,0.02156 0.03611,0.0328 0.02269,0.02424 0.04518,0.04848 0.0688,0.0721 0.01145,0.01145 0.02445,0.02156 0.03611,0.0328 0.02269,0.02424 0.04518,0.04848 0.0688,0.0721 0.03476,0.03476 0.0688,0.06901 0.10485,0.1016 5.35e-4,5.26e-4 -5.27e-4,0.0031 0,0.0031 0.03476,0.03476 0.0688,0.06901 0.104838,0.101601 5.37e-4,5.25e-4 -5.27e-4,0.0031 0,0.0031 0.01712,0.01712 0.03497,0.03249 0.0524,0.0492 0.01712,0.01794 0.03156,0.03806 0.0492,0.0557 0.01775,0.01775 0.03765,0.03198 0.0557,0.0492 0.01661,0.01743 0.03207,0.03528 0.0492,0.0524 0.01145,0.01145 0.02445,0.02156 0.03611,0.03281 0.02269,0.02424 0.04518,0.04848 0.0688,0.0721 0.01145,0.01145 0.02445,0.02156 0.03611,0.0328 0.02259,0.02424 0.04518,0.04848 0.0688,0.0721 0.03476,0.03476 0.0688,0.069 0.104849,0.101599 5.26e-4,5.27e-4 -5.36e-4,0.0031 0,0.0031 0.03486,0.03476 0.0688,0.069 0.104848,0.1016 5.37e-4,5.26e-4 -5.25e-4,0.0031 0,0.0031 0.01775,0.01774 0.03435,0.03537 0.0524,0.0524 0.01661,0.01743 0.03207,0.03527 0.0492,0.0524 0.0261,0.0261 0.05508,0.05044 0.08189,0.0754 0.0083,0.0083 0.01455,0.01785 0.023,0.0262 6.3e-4,5.25e-4 0.0031,-5.27e-4 0.0031,0 0.03249,0.036 0.06684,0.07014 0.1016,0.104838 0.01145,0.01145 0.02445,0.02156 0.03611,0.0328 0.0227,0.02424 0.04518,0.04848 0.0688,0.0721 0.03476,0.03476 0.0688,0.069 0.104839,0.1016 5.26e-4,5.16e-4 -5.26e-4,0.0031 0,0.0031 5.26e-4,5.16e-4 0.0031,-5.25e-4 0.0031,0 0.03425,0.03414 0.06602,0.06952 0.101599,0.1016 5.27e-4,5.16e-4 -5.26e-4,0.0031 0,0.0031 0.01712,0.01712 0.03497,0.03249 0.0524,0.0492 0.01712,0.01794 0.03156,0.03806 0.0492,0.0557 0.02115,0.02115 0.04383,0.04178 0.06549,0.0623 0.01341,0.01392 0.02558,0.02888 0.0393,0.0426 0.01774,0.01774 0.03765,0.03197 0.0557,0.0492 0.0165,0.01743 0.03207,0.03538 0.0492,0.0524 0.01145,0.01145 0.02445,0.02156 0.03611,0.0328 0.02269,0.02424 0.04518,0.04848 0.0688,0.0721 0.03476,0.03476 0.0688,0.06901 0.104839,0.101599 5.26e-4,5.27e-4 -5.15e-4,0.0031 0,0.0031 5.26e-4,5.26e-4 0.0031,-5.16e-4 0.0031,0 0.03425,0.03414 0.06602,0.06952 0.101599,0.1016 5.27e-4,5.26e-4 -5.26e-4,0.0031 0,0.0031 0.01217,0.01217 0.02403,0.02414 0.03611,0.0361 0.126015,0.0021 0.250245,0.0062 0.376785,0.0062 12.674879,0 22.950036,-10.275147 22.950036,-22.950037 0,-0.148758 -0.0042,-0.297424 -0.0062,-0.445553 -5.26e-4,-5.26e-4 5.06e-4,-0.0031 0,-0.0031 -5.26e-4,-5.26e-4 -0.0031,5.16e-4 -0.0031,0 -0.0326,-0.0361 -0.06674,-0.07004 -0.1016,-0.104838 -5.25e-4,-5.27e-4 -0.0031,5.16e-4 -0.0031,0 -0.01599,-0.01784 -0.0326,-0.03497 -0.0492,-0.0524 -0.01754,-0.01661 -0.03455,-0.03311 -0.0524,-0.0492 -5.16e-4,-5.26e-4 5.27e-4,-0.0031 0,-0.0031 -0.03476,-0.03476 -0.0688,-0.06901 -0.104838,-0.101601 -5.16e-4,-5.25e-4 5.25e-4,-0.0031 0,-0.0031 -0.01712,-0.01712 -0.03497,-0.03249 -0.0524,-0.0492 -0.01712,-0.01805 -0.03146,-0.03806 -0.0492,-0.0557 -0.01743,-0.01743 -0.03796,-0.03228 -0.0557,-0.0492 -0.01692,-0.01774 -0.03177,-0.03827 -0.0492,-0.0557 -0.01774,-0.01774 -0.03765,-0.03198 -0.0557,-0.0492 -0.01661,-0.01743 -0.03198,-0.03537 -0.0492,-0.0524 -5.26e-4,-5.27e-4 -0.0031,5.25e-4 -0.0031,0 -0.0326,-0.03611 -0.06684,-0.07004 -0.1016,-0.104839 -5.26e-4,-5.26e-4 -0.0031,5.26e-4 -0.0031,0 -0.01599,-0.01784 -0.0326,-0.03497 -0.0492,-0.0524 -0.01754,-0.01661 -0.03455,-0.03311 -0.0524,-0.0492 -5.25e-4,-5.26e-4 5.27e-4,-0.0031 0,-0.0031 -0.03476,-0.03476 -0.0688,-0.06901 -0.104838,-0.1016 -5.26e-4,-5.26e-4 5.27e-4,-0.0031 0,-0.0031 -0.03476,-0.03476 -0.0688,-0.06901 -0.104838,-0.1016 -5.26e-4,-5.15e-4 5.25e-4,-0.0031 0,-0.0031 -0.01775,-0.01774 -0.03435,-0.03538 -0.0524,-0.0524 -0.01661,-0.01743 -0.03208,-0.03537 -0.0492,-0.0524 -0.01712,-0.01712 -0.03497,-0.0326 -0.0524,-0.0492 -0.01712,-0.01805 -0.03465,-0.03465 -0.0524,-0.0524 -5.25e-4,-5.16e-4 -0.0031,5.27e-4 -0.0031,0 -0.0326,-0.0361 -0.06674,-0.07004 -0.1016,-0.104829 -5.26e-4,-5.25e-4 -0.0031,5.16e-4 -0.0031,0 -0.0326,-0.0361 -0.06674,-0.07004 -0.1016,-0.104838 -0.03476,-0.03476 -0.0688,-0.06901 -0.104839,-0.101599 -5.16e-4,-5.26e-4 5.27e-4,-0.0031 0,-0.0031 -0.03476,-0.03486 -0.0688,-0.06901 -0.104838,-0.1016 -5.16e-4,-5.25e-4 5.27e-4,-0.0031 0,-0.0031 -0.01712,-0.01712 -0.03497,-0.03249 -0.0524,-0.0492 -0.01712,-0.01805 -0.03146,-0.03806 -0.0492,-0.0557 -0.01775,-0.01774 -0.03765,-0.03198 -0.0557,-0.0492 -0.01661,-0.01743 -0.03197,-0.03537 -0.0492,-0.0524 -5.26e-4,-5.25e-4 -0.0031,5.27e-4 -0.0031,0 -0.0326,-0.0361 -0.06684,-0.07004 -0.1016,-0.104838 -5.26e-4,-5.26e-4 -0.0031,5.27e-4 -0.0031,0 -0.0326,-0.0361 -0.06684,-0.07004 -0.1016,-0.104838 -5.26e-4,-5.26e-4 -0.0031,5.26e-4 -0.0031,0 -0.01599,-0.01785 -0.0326,-0.03497 -0.0492,-0.0524 -0.01754,-0.01661 -0.03455,-0.03311 -0.0524,-0.0492 -5.26e-4,-5.26e-4 5.26e-4,-0.0031 0,-0.0031 -0.03476,-0.03476 -0.0688,-0.069 -0.104839,-0.101599 -5.25e-4,-5.27e-4 5.27e-4,-0.0031 0,-0.0031 -0.01774,-0.01774 -0.03435,-0.03537 -0.0524,-0.0524 -0.01661,-0.01743 -0.03207,-0.03537 -0.0492,-0.0524 -0.03425,-0.03425 -0.06932,-0.06942 -0.104838,-0.101599 v -0.0031 c -0.01712,-0.01712 -0.03497,-0.0326 -0.0524,-0.0492 -0.01712,-0.01805 -0.03465,-0.03465 -0.0524,-0.0524 -5.26e-4,-5.16e-4 -0.0031,5.26e-4 -0.0031,0 -0.0326,-0.03611 -0.06674,-0.07004 -0.101601,-0.104828 -5.25e-4,-5.26e-4 -0.0031,5.16e-4 -0.0031,0 -0.0161,-0.01785 -0.0326,-0.03497 -0.0492,-0.0524 -0.01754,-0.01661 -0.03455,-0.03311 -0.0524,-0.0492 -5.26e-4,-5.26e-4 5.27e-4,-0.0031 0,-0.0031 -0.03476,-0.03476 -0.0688,-0.06901 -0.104838,-0.101599 -5.16e-4,-5.27e-4 5.26e-4,-0.0031 0,-0.0031 -0.03476,-0.03486 -0.0688,-0.06901 -0.104839,-0.101599 -0.0326,-0.03611 -0.06674,-0.07323 -0.101599,-0.108089 -0.01775,-0.01774 -0.03765,-0.03197 -0.0557,-0.0492 -0.01661,-0.01743 -0.03198,-0.03537 -0.0492,-0.0524 -5.25e-4,-5.26e-4 -0.0031,5.26e-4 -0.0031,0 -0.0326,-0.03611 -0.06684,-0.07004 -0.1016,-0.104838 -5.26e-4,-5.27e-4 -0.0031,5.25e-4 -0.0031,0 -0.0326,-0.03611 -0.06684,-0.07004 -0.101601,-0.104839 -0.03476,-0.03476 -0.0688,-0.06901 -0.104838,-0.1016 -5.26e-4,-5.26e-4 5.26e-4,-0.0031 0,-0.0031 -0.03476,-0.03476 -0.0688,-0.06901 -0.104838,-0.1016 -5.26e-4,-5.16e-4 5.25e-4,-0.0031 0,-0.0031 -0.01775,-0.01775 -0.03435,-0.03537 -0.0524,-0.0524 -0.01661,-0.01743 -0.03207,-0.03537 -0.0492,-0.0524 -0.01713,-0.01712 -0.03507,-0.0326 -0.0524,-0.0492 -0.01712,-0.01805 -0.03465,-0.03465 -0.0524,-0.0524 -5.26e-4,-5.16e-4 -0.0031,5.26e-4 -0.0031,0 -0.0326,-0.03611 -0.06674,-0.07004 -0.101601,-0.104828 -5.25e-4,-5.26e-4 -0.0031,5.16e-4 -0.0031,0 -0.0326,-0.03611 -0.06674,-0.07004 -0.1016,-0.104838 -0.03476,-0.03476 -0.0688,-0.06901 -0.104839,-0.1016 -5.15e-4,-5.25e-4 5.27e-4,-0.0031 0,-0.0031 -0.03476,-0.03476 -0.0688,-0.06901 -0.104838,-0.101599 -5.16e-4,-5.26e-4 5.27e-4,-0.0031 0,-0.0031 -0.01712,-0.01712 -0.03497,-0.03249 -0.0524,-0.0492 -0.01712,-0.01805 -0.03146,-0.03806 -0.0492,-0.0557 -0.03425,-0.03425 -0.06932,-0.06942 -0.104838,-0.1016 -5.27e-4,-5.26e-4 -0.0031,5.26e-4 -0.0031,0 -0.0326,-0.03611 -0.06684,-0.07004 -0.101599,-0.104839 -5.27e-4,-5.25e-4 -0.0031,5.27e-4 -0.0031,0 -0.0326,-0.0361 -0.06684,-0.07004 -0.101599,-0.104838 -5.27e-4,-5.26e-4 -0.0031,5.26e-4 -0.0031,0 -0.01599,-0.01785 -0.0326,-0.03497 -0.0492,-0.0524 -0.01753,-0.01661 -0.03455,-0.03311 -0.0524,-0.0492 -5.27e-4,-5.27e-4 5.26e-4,-0.0031 0,-0.0031 -0.03476,-0.03476 -0.0688,-0.06901 -0.104838,-0.1016 -5.27e-4,-5.26e-4 5.25e-4,-0.0031 0,-0.0031 -0.01775,-0.01774 -0.03435,-0.03537 -0.0524,-0.0524 -0.01661,-0.01743 -0.03207,-0.03537 -0.0492,-0.0524 -0.01743,-0.01743 -0.03465,-0.03558 -0.0524,-0.0524 -0.01692,-0.01774 -0.03507,-0.03497 -0.0524,-0.0524 -0.01712,-0.01713 -0.03497,-0.0326 -0.0524,-0.0492 -0.01712,-0.01805 -0.03465,-0.03465 -0.0524,-0.0524 -5.27e-4,-5.16e-4 -0.0031,5.27e-4 -0.0031,0 -0.0326,-0.0361 -0.06674,-0.07004 -0.1016,-0.104828 -5.26e-4,-5.26e-4 -0.0031,5.16e-4 -0.0031,0 -0.01609,-0.01785 -0.0326,-0.03497 -0.0492,-0.0524 -0.01754,-0.01661 -0.03455,-0.03311 -0.0524,-0.0492 -5.27e-4,-5.25e-4 5.26e-4,-0.0031 0,-0.0031 -0.03476,-0.03476 -0.0688,-0.069 -0.104838,-0.1016 -5.16e-4,-5.26e-4 5.25e-4,-0.0031 0,-0.0031 -0.03476,-0.03476 -0.0688,-0.06901 -0.104839,-0.1016 -0.0326,-0.03611 -0.06674,-0.07323 -0.1016,-0.108088 -0.01774,-0.01774 -0.03765,-0.03197 -0.0557,-0.0492 -0.01661,-0.01743 -0.03198,-0.03537 -0.0492,-0.0524 -5.25e-4,-5.27e-4 -0.0031,5.26e-4 -0.0031,0 -0.0326,-0.03611 -0.06684,-0.07004 -0.1016,-0.104839 -5.26e-4,-5.26e-4 -0.0031,5.26e-4 -0.0031,0 -0.0326,-0.03611 -0.06684,-0.07004 -0.1016,-0.104839 -0.03476,-0.03476 -0.0688,-0.06901 -0.104839,-0.101599 -5.25e-4,-5.26e-4 5.27e-4,-0.0031 0,-0.0031 -0.03476,-0.03476 -0.0688,-0.069 -0.104838,-0.101599 -5.26e-4,-5.26e-4 5.27e-4,-0.0031 0,-0.0031 -0.01774,-0.01774 -0.03435,-0.03537 -0.0524,-0.0524 -0.01661,-0.01743 -0.03208,-0.03538 -0.0492,-0.0524 -0.01713,-0.01712 -0.03507,-0.0326 -0.0524,-0.0492 -0.01712,-0.01805 -0.03465,-0.03465 -0.0524,-0.0524 -5.27e-4,-5.15e-4 -0.0031,5.26e-4 -0.0031,0 -0.0326,-0.03611 -0.06674,-0.07004 -0.1016,-0.104828 -5.26e-4,-5.26e-4 -0.0031,5.16e-4 -0.0031,0 -0.0326,-0.03611 -0.06674,-0.07004 -0.101599,-0.104838 -0.03476,-0.03476 -0.0688,-0.069 -0.104838,-0.1016 -5.16e-4,-5.26e-4 5.25e-4,-0.0031 0,-0.0031 -0.03476,-0.03476 -0.0688,-0.06901 -0.10484,-0.101599 -5.15e-4,-5.27e-4 5.27e-4,-0.0031 0,-0.0031 -0.01712,-0.01712 -0.03497,-0.03249 -0.0524,-0.0492 -0.01712,-0.01805 -0.03146,-0.03806 -0.0492,-0.0557 -0.03425,-0.03425 -0.06932,-0.06941 -0.104838,-0.101599 v -0.0031 c -0.01775,-0.01774 -0.03765,-0.03198 -0.0557,-0.0492 -0.01661,-0.01743 -0.03197,-0.03537 -0.0492,-0.0524 -5.26e-4,-5.25e-4 -0.0031,5.26e-4 -0.0031,0 -0.0326,-0.03611 -0.06684,-0.07004 -0.1016,-0.104838 -5.26e-4,-5.27e-4 -0.0031,5.26e-4 -0.0031,0 -0.01599,-0.01785 -0.0326,-0.03497 -0.0492,-0.0524 -0.01754,-0.01661 -0.03455,-0.03311 -0.0524,-0.0492 -5.26e-4,-5.27e-4 5.27e-4,-0.0031 0,-0.0031 -0.03476,-0.03476 -0.0688,-0.06901 -0.104838,-0.101599 -5.26e-4,-5.26e-4 5.26e-4,-0.0031 0,-0.0031 -0.01774,-0.01775 -0.03435,-0.03537 -0.0524,-0.0524 -0.01661,-0.01743 -0.03208,-0.03537 -0.0492,-0.0524 h -0.0031 c -0.03207,-0.03558 -0.06725,-0.07055 -0.101599,-0.104839 -0.01712,-0.01712 -0.03507,-0.0326 -0.0524,-0.0492 -0.01712,-0.01805 -0.03465,-0.03465 -0.0524,-0.0524 -5.27e-4,-5.16e-4 -0.0031,5.26e-4 -0.0031,0 -0.0326,-0.03611 -0.06674,-0.07004 -0.101599,-0.104829 -5.27e-4,-5.26e-4 -0.0031,5.16e-4 -0.0031,0 -0.01609,-0.01785 -0.0326,-0.03497 -0.0492,-0.0524 -0.01754,-0.01661 -0.03455,-0.03311 -0.0524,-0.0492 -5.26e-4,-5.26e-4 5.26e-4,-0.0031 0,-0.0031 -0.03476,-0.03476 -0.0688,-0.06901 -0.104838,-0.101601 -5.16e-4,-5.25e-4 5.26e-4,-0.0031 0,-0.0031 -0.03476,-0.03476 -0.0688,-0.069 -0.104839,-0.1016 -5.16e-4,-5.26e-4 5.26e-4,-0.0031 0,-0.0031 -0.01713,-0.01712 -0.03497,-0.03249 -0.0524,-0.0492 -0.01712,-0.01805 -0.03146,-0.03806 -0.0492,-0.0557 -0.01774,-0.01775 -0.03765,-0.03197 -0.0557,-0.0492 -0.01661,-0.01743 -0.03198,-0.03537 -0.0492,-0.0524 -5.26e-4,-5.26e-4 -0.0031,5.27e-4 -0.0031,0 -0.0326,-0.0361 -0.06684,-0.07004 -0.101601,-0.104838 -5.25e-4,-5.26e-4 -0.0031,5.26e-4 -0.0031,0 -0.0326,-0.03611 -0.06684,-0.07004 -0.1016,-0.104839 -0.03476,-0.03476 -0.0688,-0.06901 -0.104839,-0.101599 -5.25e-4,-5.26e-4 5.27e-4,-0.0031 0,-0.0031 -0.03476,-0.03476 -0.0688,-0.06901 -0.104838,-0.1016 -5.26e-4,-5.25e-4 5.27e-4,-0.0031 0,-0.0031 -0.01774,-0.01774 -0.03435,-0.03537 -0.0524,-0.0524 -0.01661,-0.01743 -0.03208,-0.03537 -0.0492,-0.0524 -0.03425,-0.03425 -0.06932,-0.06942 -0.104839,-0.1016 -5.26e-4,-5.16e-4 -0.0031,5.26e-4 -0.0031,0 -0.0326,-0.03611 -0.06674,-0.07004 -0.101599,-0.104828 -5.27e-4,-5.26e-4 -0.0031,5.16e-4 -0.0031,0 -0.0326,-0.03611 -0.06674,-0.07004 -0.101599,-0.104839 -5.27e-4,-5.25e-4 -0.0031,5.16e-4 -0.0031,0 -0.01609,-0.01785 -0.0326,-0.03497 -0.0492,-0.0524 -0.01754,-0.01661 -0.03455,-0.03311 -0.0524,-0.0492 -5.16e-4,-5.27e-4 5.26e-4,-0.0031 0,-0.0031 -0.03476,-0.03476 -0.0688,-0.069 -0.104838,-0.101599 -5.16e-4,-5.27e-4 5.25e-4,-0.0031 0,-0.0031 -0.01712,-0.01713 -0.03497,-0.03249 -0.0524,-0.0492 -0.01712,-0.01805 -0.03146,-0.03806 -0.0492,-0.0557 -0.01743,-0.01743 -0.03795,-0.03228 -0.0557,-0.0492 -0.01692,-0.01774 -0.03177,-0.03827 -0.0492,-0.0557 -0.01775,-0.01774 -0.03765,-0.03197 -0.0557,-0.0492 -0.01661,-0.01743 -0.03198,-0.03537 -0.0492,-0.0524 -5.25e-4,-5.26e-4 -0.0031,5.27e-4 -0.0031,0 -0.0326,-0.0361 -0.06684,-0.07004 -0.101599,-0.104838 -5.26e-4,-5.26e-4 -0.0031,5.25e-4 -0.0031,0 -0.01599,-0.01785 -0.0326,-0.03497 -0.0492,-0.0524 -0.01754,-0.01661 -0.03455,-0.03311 -0.0524,-0.0492 -5.25e-4,-5.26e-4 5.26e-4,-0.0031 0,-0.0031 -0.03476,-0.03476 -0.0688,-0.069 -0.104838,-0.101599 -5.26e-4,-5.27e-4 5.26e-4,-0.0031 0,-0.0031 -0.03476,-0.03476 -0.0688,-0.069 -0.104838,-0.1016 -0.0326,-0.0361 -0.06674,-0.07323 -0.101601,-0.108088 -0.01712,-0.01712 -0.03507,-0.0326 -0.0524,-0.0492 -0.01712,-0.01805 -0.03465,-0.03465 -0.0524,-0.0524 -5.26e-4,-5.16e-4 -0.0031,5.26e-4 -0.0031,0 -0.0326,-0.03611 -0.06674,-0.07004 -0.101599,-0.104829 -5.26e-4,-5.25e-4 -0.0031,5.16e-4 -0.0031,0 -0.0326,-0.0361 -0.06674,-0.07004 -0.1016,-0.104838 -0.03476,-0.03476 -0.0688,-0.06901 -0.104839,-0.101599 -5.15e-4,-5.26e-4 5.26e-4,-0.0031 0,-0.0031 -0.03476,-0.03476 -0.0688,-0.069 -0.104838,-0.1016 -5.16e-4,-5.25e-4 5.26e-4,-0.0031 0,-0.0031 -0.01712,-0.01712 -0.03497,-0.03249 -0.0524,-0.0492 -0.01712,-0.01805 -0.03146,-0.03806 -0.0492,-0.0557 -1.113378,-1.113378 -2.922883,-1.113378 -4.03626,0 -0.01134,0.01134 -0.01836,0.02454 -0.0295,0.0361 l -0.77978,0.779791 c -0.03837,-0.03909 -0.07747,-0.07457 -0.117948,-0.11145 -0.0051,-0.0051 -0.01094,-0.01094 -0.0164,-0.0164 -0.01403,-0.01537 -0.02816,-0.03074 -0.0426,-0.0459 -0.01506,-0.01434 -0.03042,-0.02858 -0.0459,-0.0426 -0.0051,-0.0051 -0.01094,-0.01094 -0.0164,-0.01629 -0.03321,-0.03662 -0.06643,-0.07004 -0.1016,-0.104838 -0.03332,-0.03662 -0.06973,-0.07004 -0.104838,-0.104839 -0.01403,-0.01537 -0.02816,-0.03074 -0.0426,-0.0459 -0.01506,-0.01434 -0.03042,-0.02847 -0.0459,-0.0426 -0.03476,-0.03518 -0.06828,-0.07148 -0.104838,-0.104839 -0.03476,-0.03507 -0.06828,-0.06828 -0.104839,-0.101599 -0.0051,-0.0051 -0.01093,-0.01093 -0.0164,-0.0164 -0.01403,-0.01536 -0.02816,-0.03074 -0.0426,-0.0459 -0.01506,-0.01434 -0.03042,-0.02847 -0.0459,-0.0426 -0.0051,-0.0051 -0.01094,-0.01093 -0.0164,-0.0164 -0.03321,-0.03662 -0.06643,-0.07004 -0.1016,-0.104839 -0.03321,-0.03662 -0.06972,-0.07004 -0.104839,-0.104839 -0.06127,-0.06746 -0.125797,-0.131883 -0.193317,-0.193318 -0.03476,-0.03507 -0.06829,-0.07158 -0.104839,-0.104838 -0.03476,-0.03507 -0.06829,-0.06828 -0.104838,-0.101599 -0.0051,-0.0051 -0.01094,-0.01094 -0.0164,-0.0164 -0.04755,-0.05229 -0.09613,-0.102012 -0.147407,-0.150759 -0.0194,-0.02042 -0.03899,-0.03909 -0.059,-0.059 -0.03332,-0.03662 -0.06973,-0.07004 -0.104838,-0.104838 -0.01403,-0.01536 -0.02816,-0.03074 -0.0426,-0.0459 -0.01506,-0.01434 -0.03042,-0.02858 -0.0459,-0.0426 -0.03476,-0.03507 -0.06829,-0.07148 -0.104839,-0.104838 -0.03476,-0.03507 -0.06828,-0.06828 -0.104838,-0.101599 -0.0051,-0.0051 -0.01094,-0.01093 -0.0164,-0.0164 -0.01403,-0.01537 -0.02816,-0.03074 -0.0426,-0.0459 -0.01506,-0.01434 -0.03042,-0.02847 -0.0459,-0.0426 -0.0051,-0.0051 -0.01094,-0.01094 -0.0164,-0.0164 -0.03321,-0.03662 -0.06643,-0.07004 -0.101599,-0.104838 -0.03332,-0.03662 -0.06973,-0.07004 -0.104829,-0.104838 -0.01403,-0.01537 -0.02816,-0.03074 -0.0426,-0.0459 -0.01506,-0.01434 -0.03042,-0.02847 -0.0459,-0.0426 -0.03476,-0.03507 -0.06828,-0.07148 -0.104839,-0.104839 -0.03476,-0.03518 -0.06829,-0.06828 -0.104838,-0.1016 -0.0051,-0.0051 -0.01094,-0.01093 -0.0164,-0.0164 -0.01403,-0.01536 -0.02816,-0.03074 -0.0426,-0.0459 -0.01506,-0.01434 -0.03042,-0.02858 -0.0459,-0.0426 -0.0051,-0.0051 -0.01094,-0.01093 -0.0164,-0.0164 -0.03321,-0.03662 -0.06643,-0.07004 -0.1016,-0.104839 -0.03332,-0.03662 -0.06973,-0.07004 -0.104838,-0.104838 -0.01403,-0.01536 -0.02816,-0.03074 -0.0426,-0.0459 -0.01506,-0.01434 -0.03042,-0.02847 -0.0459,-0.0426 -0.03476,-0.03507 -0.06829,-0.07148 -0.104838,-0.104838 -0.0198,-0.02001 -0.03848,-0.0395 -0.059,-0.059 -0.04868,-0.05126 -0.0983,-0.09995 -0.150749,-0.147396 -0.0051,-0.0051 -0.01094,-0.01093 -0.0164,-0.0164 -0.03321,-0.03662 -0.06643,-0.07004 -0.1016,-0.104838 -0.03321,-0.03662 -0.06973,-0.07004 -0.104838,-0.104839 -0.06137,-0.06746 -0.125798,-0.131883 -0.193318,-0.193318 -0.03476,-0.03512 -0.06828,-0.07161 -0.104838,-0.104837 -0.03476,-0.03512 -0.06829,-0.06825 -0.104838,-0.10159 -0.0051,-0.0055 -0.01094,-0.0109 -0.0164,-0.01636 -0.01403,-0.01542 -0.02816,-0.03072 -0.0426,-0.04592 -0.01506,-0.01436 -0.03042,-0.02851 -0.0459,-0.04256 -0.0051,-0.0055 -0.01094,-0.0109 -0.0164,-0.01636 -0.03321,-0.03659 -0.06643,-0.07004 -0.101599,-0.104838 -0.03332,-0.03659 -0.06973,-0.07003 -0.104838,-0.104838 -0.01403,-0.01542 -0.02816,-0.03072 -0.0426,-0.04592 -0.01506,-0.01436 -0.03042,-0.02851 -0.0459,-0.04256 -0.03476,-0.03512 -0.06829,-0.0715 -0.104829,-0.104838 -0.03476,-0.03512 -0.06828,-0.06825 -0.104838,-0.101589 -0.0051,-0.0055 -0.01094,-0.0109 -0.0164,-0.01636 -0.01403,-0.01541 -0.02816,-0.03072 -0.0426,-0.04592 -0.01506,-0.01436 -0.03043,-0.02852 -0.0459,-0.04256 -0.516745,-0.520939 -1.229964,-0.844992 -2.021378,-0.844992"
       fill-opacity="0.235"
       id="path2"
       style="stroke-width:0.139783" />
    <path
       d="m 31.00043,14.988337 c -1.52663,0 -2.76459,1.238171 -2.76459,2.764587 v 2.88595 c -0.9239,0.24566 -1.80054,0.61085 -2.60929,1.07941 l -2.03787,-2.0399 c -1.07941,-1.07941 -2.83096,-1.07941 -3.91047,0 -1.07941,1.07941 -1.07941,2.83096 0,3.91047 l 2.03279,2.03279 c -0.47151,0.80955 -0.83822,1.68762 -1.08622,2.61386 h -2.89286 c -1.517373,0.0107 -2.74416,1.24477 -2.74416,2.76459 0,1.52662 1.23817,2.76459 2.76459,2.76459 h 2.86115 c 0.24566,0.93172 0.61187,1.81527 1.08398,2.62981 l -2.03279,2.03065 0.002,0.002 c -1.0664,1.08043 -1.06365,2.81937 0.0114,3.89482 1.07941,1.07941 2.83096,1.07941 3.91047,0 l 2.01469,-2.01693 c 0.81515,0.47516 1.69829,0.84726 2.63216,1.09537 v 2.86724 c 0.0107,1.51738 1.24477,2.74416 2.76459,2.74416 1.52662,0 2.76459,-1.23817 2.76459,-2.76459 v -2.84692 c 0.93386,-0.2481 1.81649,-0.6202 2.63215,-1.09536 l 2.01469,2.01693 c 1.07941,1.07941 2.83096,1.07941 3.91048,0 1.07504,-1.07504 1.07788,-2.81399 0.0114,-3.89482 l 0.002,-0.002 -2.03279,-2.03065 c 0.47161,-0.81413 0.83832,-1.69809 1.08398,-2.62982 h 2.86115 c 1.52662,0 2.76459,-1.23817 2.76459,-2.76459 0,-1.51991 -1.22679,-2.75442 -2.74416,-2.76459 h -2.89367 c -0.248,-0.92613 -0.61492,-1.8043 -1.08622,-2.61385 l 2.03278,-2.03279 c 1.07941,-1.07941 1.07941,-2.83096 0,-3.91047 -1.0794,-1.07941 -2.83096,-1.07941 -3.91047,0 -0.011,0.011 -0.0189,0.0232 -0.0297,0.0343 l -2.00778,2.00555 c -0.80874,-0.46826 -1.68487,-0.83375 -2.60928,-1.07941 v -2.88595 c 0,-1.526623 -1.23817,-2.76459 -2.76459,-2.76459 m -2.19074,8.98939 a 2.0717146,3.0922751 0 0 1 2.01236,3.09177 2.07187,3.0925588 0 0 1 -4.14374,0 2.0717146,3.0922751 0 0 1 2.13128,-3.09177 m 4.47986,0 a 2.0717146,3.0922751 0 0 1 2.01235,3.09177 2.071867,3.0925543 0 0 1 -4.14373,0 2.0717146,3.0922751 0 0 1 2.13127,-3.09177 m -7.37698,9.03065 c 3.80883,2.3308 7.0863,1.86173 10.17613,0.28124 -0.18763,0.82673 -0.53401,1.49481 -0.9673,2.11755 -0.83578,1.23086 -1.6303,1.984 -2.6161,2.36007 -0.69948,0.24698 -1.26845,0.33165 -1.78824,0.28581 -1.5256,-0.25532 -2.38496,-0.98885 -3.29982,-1.99183 -0.8992,-0.79939 -1.10706,-1.89953 -1.50477,-3.05324"
       fill="#ffffff"
       id="path20"
       style="stroke-width:0.135519" />
  </g>
</svg>
