<?xml version="1.0" encoding="UTF-8" standalone="no"?>
<!-- Created with Inkscape (http://www.inkscape.org/) -->

<svg
   sodipodi:docname="kajongg.svg"
   version="1.0"
   inkscape:version="1.2.1 (9c6d41e410, 2022-07-14)"
   sodipodi:version="0.32"
   id="svg2020"
   height="48"
   width="48"
   xmlns:inkscape="http://www.inkscape.org/namespaces/inkscape"
   xmlns:sodipodi="http://sodipodi.sourceforge.net/DTD/sodipodi-0.dtd"
   xmlns="http://www.w3.org/2000/svg"
   xmlns:svg="http://www.w3.org/2000/svg"
   xmlns:rdf="http://www.w3.org/1999/02/22-rdf-syntax-ns#"
   xmlns:cc="http://creativecommons.org/ns#"
   xmlns:dc="http://purl.org/dc/elements/1.1/">
  <sodipodi:namedview
     id="base"
     pagecolor="#ffffff"
     bordercolor="#666666"
     borderopacity="1.0"
     inkscape:pageopacity="0.0"
     inkscape:pageshadow="2"
     inkscape:zoom="5.6568543"
     inkscape:cx="-0.53033008"
     inkscape:cy="-4.7729708"
     inkscape:document-units="px"
     inkscape:current-layer="layer1"
     inkscape:window-width="1920"
     inkscape:window-height="1009"
     inkscape:window-x="0"
     inkscape:window-y="0"
     showguides="false"
     inkscape:guide-bbox="true"
     width="768px"
     height="561px"
     showgrid="false"
     inkscape:window-maximized="1"
     inkscape:showpageshadow="2"
     inkscape:pagecheckerboard="0"
     inkscape:deskcolor="#d1d1d1">
    <sodipodi:guide
       position="0,-208"
       orientation="0,768"
       id="guide3879"
       inkscape:locked="false" />
    <sodipodi:guide
       position="768,-208"
       orientation="-561,0"
       id="guide3881"
       inkscape:locked="false" />
    <sodipodi:guide
       position="768,353"
       orientation="0,-768"
       id="guide3883"
       inkscape:locked="false" />
    <sodipodi:guide
       position="0,353"
       orientation="561,0"
       id="guide3885"
       inkscape:locked="false" />
    <sodipodi:guide
       position="0,-208"
       orientation="0,768"
       id="guide3887"
       inkscape:locked="false" />
    <sodipodi:guide
       position="768,-208"
       orientation="-561,0"
       id="guide3889"
       inkscape:locked="false" />
    <sodipodi:guide
       position="768,353"
       orientation="0,-768"
       id="guide3891"
       inkscape:locked="false" />
    <sodipodi:guide
       position="0,353"
       orientation="561,0"
       id="guide3893"
       inkscape:locked="false" />
    <sodipodi:guide
       position="0,-208"
       orientation="0,256"
       id="guide3895"
       inkscape:locked="false" />
    <sodipodi:guide
       position="256,-208"
       orientation="-256,0"
       id="guide3897"
       inkscape:locked="false" />
    <sodipodi:guide
       position="256,48"
       orientation="0,-256"
       id="guide3899"
       inkscape:locked="false" />
    <sodipodi:guide
       position="0,48"
       orientation="256,0"
       id="guide3901"
       inkscape:locked="false" />
    <sodipodi:guide
       position="0,-208"
       orientation="0,256"
       id="guide3098"
       inkscape:locked="false" />
    <sodipodi:guide
       position="256,-208"
       orientation="-256,0"
       id="guide3100"
       inkscape:locked="false" />
    <sodipodi:guide
       position="256,48"
       orientation="0,-256"
       id="guide3102"
       inkscape:locked="false" />
    <sodipodi:guide
       position="0,48"
       orientation="256,0"
       id="guide3104"
       inkscape:locked="false" />
  </sodipodi:namedview>
  <defs
     id="defs2022">
    <linearGradient
       gradientTransform="matrix(0.07497067,0,0,0.10497392,-368.14902,157.83783)"
       gradientUnits="userSpaceOnUse"
       x2="426.69501"
       y2="499.92099"
       y1="547.67499"
       id="a-6"
       x1="389.32001">
      <stop
         stop-color="#18222a"
         style="stop-color:#1e2b35;stop-opacity:1"
         id="stop216" />
      <stop
         stop-color="#566069"
         offset="1"
         style="stop-color:#6d7983;stop-opacity:1"
         id="stop218" />
    </linearGradient>
    <linearGradient
       id="b"
       y1="23.775"
       x1="22.540001"
       y2="37.804001"
       x2="36.896"
       gradientUnits="userSpaceOnUse"
       gradientTransform="matrix(0.07497067,0,0,0.10497392,335.71891,210.3038)">
      <stop
         stop-color="#292c2f"
         id="stop211" />
      <stop
         offset="1"
         stop-color="#292c2f"
         stop-opacity="0"
         id="stop213" />
    </linearGradient>
  </defs>
  <metadata
     id="metadata2025">
    <rdf:RDF>
      <cc:Work
         rdf:about="">
        <dc:format>image/svg+xml</dc:format>
        <dc:type
           rdf:resource="http://purl.org/dc/dcmitype/StillImage" />
      </cc:Work>
    </rdf:RDF>
  </metadata>
  <g
     inkscape:groupmode="layer"
     id="layer1"
     inkscape:label="front"
     style="display:inline"
     transform="matrix(14.004991,0,0,10.001571,-4702.9384,-2104.564)">
    <rect
       width="2.9988275"
       x="-339.01758"
       y="210.72369"
       rx="1.4994137"
       height="4.1989574"
       transform="scale(-1,1)"
       style="fill:url(#a-6);stroke-width:0.248396;stroke-opacity:0.55"
       id="rect223"
       ry="2.0994787" />
    <path
       style="opacity:0.3;fill:#000000;fill-opacity:1;stroke-width:0.248396;stroke-opacity:0.55"
       d="m 336.01957,212.77069 c -3e-4,0.0175 -9e-4,0.0349 -9e-4,0.0525 0,1.16312 0.66874,2.09948 1.49941,2.09948 0.83067,0 1.49942,-0.93636 1.49942,-2.09948 0,-0.0176 -6e-4,-0.0349 -9e-4,-0.0525 -0.0198,1.13865 -0.68074,2.04699 -1.49852,2.04699 -0.81808,0 -1.47872,-0.90834 -1.49851,-2.04699"
       id="path225" />
    <path
       d="m 336.01957,212.87528 c -3e-4,-0.0175 -9e-4,-0.0348 -9e-4,-0.0525 0,-1.16311 0.66874,-2.09948 1.49941,-2.09948 0.83067,0 1.49942,0.93637 1.49942,2.09948 0,0.0176 -6e-4,0.035 -9e-4,0.0525 -0.0198,-1.13865 -0.68074,-2.04699 -1.49852,-2.04699 -0.81808,0 -1.47872,0.90834 -1.49851,2.04699"
       style="opacity:0.3;fill:#ffffff;fill-opacity:1;stroke-width:0.248396;stroke-opacity:0.55"
       id="path229" />
    <path
       inkscape:connector-curvature="0"
       style="display:inline;fill:#37a42c;stroke-width:0.0480643"
       d="m 337.8777,211.48734 c -0.008,-0.018 -0.0336,-0.0384 -0.009,-0.052 0.0376,-0.0506 0.10133,-0.0339 0.13598,0.0129 0.0478,0.0538 0.0911,0.14465 0.0562,0.22456 -0.0287,0.0611 -0.0776,0.10049 -0.11693,0.15005 -0.0177,0.0203 -0.0351,0.041 -0.0544,0.0589 0.0568,0.0519 0.11416,0.10289 0.1707,0.15525 0.0586,-0.0661 0.1165,-0.13305 0.17069,-0.20493 0.009,-0.0553 -0.0888,-0.10136 -0.0143,-0.13216 0.0593,-0.0386 0.11852,0.0291 0.14803,0.0896 0.0315,0.0571 0.0437,0.14066 0.003,0.19639 -0.0445,0.0573 -0.0981,0.10229 -0.14669,0.15407 -0.0163,0.0129 0.0229,0.0216 0.0316,0.0316 0.0822,0.0518 0.16483,0.10246 0.2501,0.14581 0.0455,0.0257 0.093,0.0468 0.13741,0.075 0.0223,0.0228 0.0559,0.0403 0.0523,0.0841 -0.006,0.0457 -0.0458,0.052 -0.0754,0.0462 -0.0866,-0.005 -0.17374,-0.008 -0.26002,-0.015 -0.0501,-0.026 -0.10223,-0.0468 -0.15104,-0.076 -0.12942,-0.10538 -0.2672,-0.19957 -0.37493,-0.34098 -0.031,-0.0375 -0.0621,-0.0751 -0.0931,-0.11261 -0.0669,0.0484 -0.13165,0.10667 -0.20658,0.13288 -0.0416,-0.0168 0.0274,-0.0876 0.0402,-0.11476 0.024,-0.0437 0.0738,-0.0844 0.0869,-0.12622 -0.0213,-0.0349 -0.0494,-0.0645 -0.0661,-0.10305 -0.0141,-0.0447 0.005,-0.10373 0.0468,-0.0856 0.0213,0.003 0.0463,-0.007 0.0612,0.018 0.0182,0.0184 0.0364,0.0368 0.0546,0.0551 0.0308,-0.0402 0.0651,-0.0755 0.0991,-0.11102 0.0196,-0.025 0.0388,-0.0504 0.0483,-0.0842 0.0121,-0.0255 -0.0138,-0.0542 -0.0255,-0.0718 z"
       id="path4111-0" />
    <path
       inkscape:connector-curvature="0"
       style="display:inline;fill:#37a42c;stroke-width:0.0480643"
       d="m 336.86818,211.62086 c 0.0405,0.004 0.076,0.0531 0.11195,0.0796 0.0625,0.0565 0.12664,0.11025 0.18798,0.1688 0.0485,-0.0612 0.0998,-0.11896 0.14632,-0.18247 0.0287,-0.0489 0.0614,-0.11709 0.0366,-0.17772 -0.0241,-0.0237 -0.0438,-0.056 -0.071,-0.0737 -0.0276,-0.0148 -0.0551,-0.0296 -0.0827,-0.0443 0.0186,-0.0646 0.083,-0.0824 0.13061,-0.0957 0.0677,-0.0105 0.12349,0.0435 0.17203,0.095 0.0279,0.0306 0.0608,0.0547 0.0848,0.0901 0.0346,0.0532 0.0223,0.12982 -0.0106,0.17923 -0.0808,0.1451 -0.19024,0.26017 -0.30871,0.35368 -0.15363,0.11972 -0.31209,0.23831 -0.4876,0.29867 -0.0748,0.0234 -0.15452,0.0287 -0.23031,0.0101 -0.0558,-0.0253 0.008,-0.0997 0.0464,-0.0942 0.083,-0.0256 0.16772,-0.0429 0.24896,-0.0764 0.0748,-0.0341 0.14338,-0.0871 0.20575,-0.14881 -0.0537,-0.0672 -0.10756,-0.13496 -0.16144,-0.20144 -0.033,-0.0499 -0.0455,-0.12174 -0.019,-0.18048 z"
       id="path4109-6" />
    <path
       inkscape:connector-curvature="0"
       style="display:inline;fill:#37a42c;stroke-width:0.0480643"
       d="m 337.30466,212.33191 c 0.022,0.11882 0.0132,0.24197 0.014,0.36291 -0.009,0.094 -0.009,0.18966 -0.0246,0.28228 -0.0129,0.0856 -0.0698,0.15079 -0.13812,0.16067 -0.11462,0.0313 -0.23192,0.009 -0.34732,2.4e-4 -0.0289,-0.0235 -0.0278,0.0178 -0.0337,0.0441 -0.014,0.0744 -0.0227,0.15021 -0.0385,0.22415 0.1176,0.0148 0.23646,0.0349 0.35441,0.02 0.0379,-0.0168 0.0726,-0.041 0.10402,-0.0728 0.0394,-0.006 0.0892,-0.0418 0.11926,0.009 0.0434,0.095 0.0145,0.20627 0.009,0.30854 -0.0149,0.15265 -0.0174,0.31315 -0.0807,0.44978 -0.0371,0.10795 -0.1325,0.16809 -0.22337,0.16171 -0.0469,0.001 -0.0941,0.006 -0.13984,-0.0104 -0.0634,-0.01 -0.12337,-0.0415 -0.17231,-0.0936 -0.049,-0.0367 -0.0821,-0.10318 -0.0924,-0.17286 -0.008,-0.0386 0.03,-0.0153 0.0445,-0.006 0.0605,0.033 0.11893,0.0737 0.18145,0.0997 0.0502,0.0196 0.1051,0.0255 0.15377,-0.004 0.0394,-0.0167 0.0846,-0.0316 0.10095,-0.087 0.0267,-0.0765 0.0374,-0.16055 0.0485,-0.24268 0.008,-0.0565 0.008,-0.11328 0.003,-0.17019 -0.0102,-0.0157 -0.0421,-0.002 -0.0607,-0.007 -0.13351,0 -0.26701,0 -0.40051,0 -0.0365,0.0566 -0.0696,0.11721 -0.10837,0.17123 -0.0583,0.0357 -0.0292,-0.10581 -0.0276,-0.1446 0.0294,-0.20461 0.056,-0.41044 0.0915,-0.61329 0.0141,-0.0573 0.0648,-0.0572 0.10348,-0.052 0.10555,8.4e-4 0.21181,0.0183 0.31676,-0.002 0.0437,-0.001 0.0703,-0.0437 0.0745,-0.0945 0.0222,-0.0912 0.0365,-0.18528 0.0373,-0.28084 0.009,-0.08 -0.0623,-0.0985 -0.11048,-0.10118 -0.0637,0.007 -0.12818,0.006 -0.19078,0.0219 -0.0769,-0.0162 -10e-4,-0.16195 0.0547,-0.1599 0.10136,-0.0329 0.20654,-0.0384 0.3102,-0.0524 0.0276,-0.001 0.0595,0.0133 0.0682,0.0498 z"
       id="path4107-2" />
    <path
       inkscape:connector-curvature="0"
       style="display:inline;fill:#37a42c;stroke-width:0.0480643"
       d="m 337.56802,212.33812 c 0.0376,-0.0249 0.0816,-0.0312 0.12322,-0.0406 0.0888,-0.0175 0.17837,-1.1e-4 0.26451,0.0277 0.0423,0.0116 0.0942,0.0268 0.11186,0.0829 0.007,0.0469 -0.0158,0.0896 -0.0249,0.13382 -0.0226,0.0932 -0.0548,0.18795 -0.0491,0.28728 0.008,0.0897 0.0727,0.16014 0.14092,0.17393 0.0455,0.004 0.0788,-0.041 0.11629,-0.0663 0.014,-0.0104 0.0267,-0.0268 0.0442,-0.0197 0.0194,0.002 0.0388,0.003 0.0582,0.005 0.0408,0.0385 0.0273,0.11266 0.0149,0.16563 -0.0207,0.0894 -0.0971,0.13571 -0.16685,0.13066 -0.0955,-0.008 -0.19688,-0.0563 -0.25307,-0.15867 -0.0306,-0.0621 -0.0467,-0.1341 -0.0618,-0.20418 -0.002,-0.0526 0.009,-0.10497 0.0156,-0.15698 0.005,-0.0428 0.0152,-0.0878 0.005,-0.13043 -0.0564,-0.0148 -0.11299,-0.0484 -0.17134,-0.0281 -0.038,0.0139 -0.0797,0.0294 -0.10871,0.0637 -0.0304,0.0562 -0.0257,0.12719 -0.0371,0.19125 -0.0101,0.0681 -0.0143,0.13785 -0.0294,0.2045 -0.0165,0.072 -0.0644,0.1339 -0.12531,0.14162 -0.021,0.009 -0.0836,0.0148 -0.0579,-0.031 0.0157,-0.0497 0.0573,-0.0762 0.0761,-0.12389 0.0391,-0.0917 0.0362,-0.19965 0.0394,-0.30074 0.004,-0.0918 -0.0188,-0.1894 0.0127,-0.27661 0.0117,-0.0349 0.0392,-0.0507 0.0626,-0.0705 z"
       id="path4105-6" />
    <path
       inkscape:connector-curvature="0"
       style="display:inline;fill:#37a42c;stroke-width:0.0480643"
       d="m 337.6875,213.40937 c -0.0548,-0.01 -0.11273,-0.004 -0.16426,-0.0327 -0.0596,-0.0325 -0.002,-0.0844 0.0373,-0.0806 0.0721,-0.0135 0.14522,-0.019 0.21785,-0.0261 0.15403,0.008 0.30816,0.0137 0.46214,0.0224 0.0545,-4.9e-4 0.0809,0.0746 0.0609,0.13276 -0.0257,0.0965 -0.0683,0.18386 -0.10253,0.27569 -0.0128,0.0322 -0.0256,0.0645 -0.0384,0.0967 0.10248,0.0491 0.20951,0.0907 0.30152,0.16777 0.0432,0.044 0.02,0.12398 0.007,0.18029 -0.0151,0.0494 -0.0316,0.12444 -0.0819,0.12599 -0.0358,-0.0139 -0.0647,-0.0475 -0.0974,-0.0705 -0.0854,-0.0683 -0.17087,-0.13658 -0.2563,-0.20487 -0.0286,0.0495 -0.0695,0.0846 -0.10371,0.1275 -0.0673,0.0741 -0.15341,0.11374 -0.23524,0.15506 -0.074,0.005 -0.14823,0.0117 -0.2222,0.0148 -0.04,-0.0125 -0.0828,-0.0148 -0.11965,-0.0391 0.009,-0.0209 0.0324,-0.0267 0.0503,-0.0341 0.0927,-0.0416 0.18962,-0.0672 0.28124,-0.11251 0.067,-0.0375 0.12856,-0.0907 0.17744,-0.15985 0.0339,-0.025 0.0216,-0.0781 -0.0124,-0.096 -0.0741,-0.053 -0.14746,-0.10804 -0.21622,-0.17185 -0.0627,-0.0596 -0.13019,-0.11289 -0.18671,-0.18192 -0.0154,-0.051 0.0641,-0.007 0.0844,-0.003 0.15457,0.0615 0.30409,0.14123 0.45403,0.21846 0.0278,-0.0589 0.0626,-0.11569 0.0756,-0.1832 0.005,-0.0416 -0.024,-0.0624 -0.052,-0.0637 -0.0584,-0.0159 -0.1168,-0.0314 -0.17647,-0.0369 -0.0482,-0.007 -0.0964,-0.0136 -0.14462,-0.0205 z"
       id="path4103-1" />
  </g>
</svg>
