<?xml version="1.0" encoding="UTF-8" standalone="no"?>
<svg
   height="48"
   width="48"
   version="1.1"
   id="svg43"
   sodipodi:docname="kdeapp.svg"
   inkscape:version="1.2.1 (9c6d41e410, 2022-07-14)"
   xmlns:inkscape="http://www.inkscape.org/namespaces/inkscape"
   xmlns:sodipodi="http://sodipodi.sourceforge.net/DTD/sodipodi-0.dtd"
   xmlns:xlink="http://www.w3.org/1999/xlink"
   xmlns="http://www.w3.org/2000/svg"
   xmlns:svg="http://www.w3.org/2000/svg">
  <defs
     id="defs47">
    <linearGradient
       id="m"
       x1="68.210472"
       x2="148.52051"
       y1="177.75131"
       y2="258.06134"
       gradientUnits="userSpaceOnUse"
       gradientTransform="matrix(0.37626177,0,0,0.37626188,-16.51834,-57.726174)">
      <stop
         stop-color="#59f"
         offset="0"
         id="stop3371" />
      <stop
         stop-color="#06f"
         offset="1"
         id="stop3373" />
    </linearGradient>
    <linearGradient
       id="l"
       x1="220.30621"
       x2="54.439178"
       y1="207.9187"
       y2="42.051666"
       gradientTransform="matrix(0.16799417,0,0,0.1635966,5.9312998,-1.9414937)"
       gradientUnits="userSpaceOnUse"
       xlink:href="#a-3" />
    <linearGradient
       id="a-3">
      <stop
         stop-color="#2a7fff"
         offset="0"
         id="stop3327" />
      <stop
         stop-color="#0cf"
         offset="1"
         id="stop3329" />
    </linearGradient>
    <linearGradient
       id="b-6"
       x1="80.723297"
       x2="141.40515"
       y1="192.15627"
       y2="252.8381"
       gradientUnits="userSpaceOnUse"
       gradientTransform="matrix(0.37626177,0,0,0.37626188,50.396909,-89.658377)">
      <stop
         stop-color="#0055d4"
         offset="0"
         id="stop3332" />
      <stop
         stop-color="#06f"
         stop-opacity="0"
         offset="1"
         id="stop3334" />
    </linearGradient>
    <linearGradient
       id="c-7"
       x1="61.163261"
       x2="64.927658"
       y1="105.1096"
       y2="109.0449"
       gradientUnits="userSpaceOnUse"
       gradientTransform="matrix(1.7110787,0,0,1.7492353,-26.339339,-207.72472)">
      <stop
         stop-color="#e6e6e6"
         offset="0"
         id="stop3337" />
      <stop
         stop-color="#b3b3b3"
         offset="1"
         id="stop3339" />
    </linearGradient>
    <linearGradient
       id="d-5"
       x1="77.166962"
       x2="64.371704"
       y1="115.71481"
       y2="112.00438"
       gradientUnits="userSpaceOnUse"
       gradientTransform="matrix(1.7110787,0,0,1.7492353,-26.339339,-207.72472)">
      <stop
         stop-color="#0cf"
         offset="0"
         id="stop3342" />
      <stop
         stop-color="#2a7fff"
         offset="1"
         id="stop3344" />
    </linearGradient>
    <linearGradient
       id="e-3"
       x1="68.7071"
       x2="75.81916"
       y1="113.06454"
       y2="117.91264"
       gradientUnits="userSpaceOnUse"
       xlink:href="#a-3"
       gradientTransform="matrix(1.7110787,0,0,1.7492353,-26.339339,-207.72472)" />
    <linearGradient
       id="g"
       x1="77.401382"
       x2="68.670082"
       y1="106.36805"
       y2="120.35797"
       gradientUnits="userSpaceOnUse"
       xlink:href="#f"
       gradientTransform="matrix(1.7110787,0,0,1.7492353,-26.339339,-207.72472)" />
    <linearGradient
       id="f">
      <stop
         stop-color="#fff"
         offset="0"
         id="stop3348" />
      <stop
         stop-color="#b3b3b3"
         offset="1"
         id="stop3350" />
    </linearGradient>
    <linearGradient
       id="h"
       x1="68.228661"
       x2="68.16433"
       y1="112.73174"
       y2="118.55463"
       gradientUnits="userSpaceOnUse"
       gradientTransform="matrix(1.7110787,0,0,1.7492353,-26.339339,-207.72472)">
      <stop
         stop-color="#b3b3b3"
         offset="0"
         id="stop3354" />
      <stop
         stop-color="#fff"
         offset="1"
         id="stop3356" />
    </linearGradient>
    <linearGradient
       id="i"
       x1="63.36673"
       x2="71.135635"
       y1="106.86487"
       y2="104.88973"
       gradientUnits="userSpaceOnUse"
       xlink:href="#f"
       gradientTransform="matrix(1.7110787,0,0,1.7492353,-26.339339,-207.72472)" />
    <linearGradient
       id="j"
       x1="66.951469"
       x2="66.335762"
       y1="104.46095"
       y2="109.66759"
       gradientUnits="userSpaceOnUse"
       gradientTransform="matrix(1.7110787,0,0,1.7492353,-26.339339,-207.72472)">
      <stop
         stop-color="#ccc"
         offset="0"
         id="stop3360" />
      <stop
         stop-color="#b3b3b3"
         offset="1"
         id="stop3362" />
    </linearGradient>
    <linearGradient
       id="k"
       x1="62.960659"
       x2="77.488457"
       y1="115.88342"
       y2="107.31376"
       gradientUnits="userSpaceOnUse"
       gradientTransform="matrix(1.7110787,0,0,1.7492353,-26.339339,-207.72472)">
      <stop
         stop-color="#e6e6e6"
         offset="0"
         id="stop3365" />
      <stop
         stop-color="#fff"
         offset="1"
         id="stop3367" />
    </linearGradient>
    <linearGradient
       id="linearGradient1230"
       gradientUnits="userSpaceOnUse"
       x1="16"
       x2="34.942001"
       xlink:href="#a"
       y1="11"
       y2="29.941999"
       gradientTransform="matrix(1.0499996,0,0,1.0499996,63.300821,-47.095773)" />
    <linearGradient
       id="linearGradient1234">
      <stop
         offset="0"
         id="stop2-5" />
      <stop
         offset="1"
         stop-opacity="0"
         id="stop4-6" />
    </linearGradient>
    <linearGradient
       id="linearGradient1236"
       gradientTransform="matrix(0.74246194,0.74246195,-0.74246194,0.74246195,63.300821,-47.095773)"
       gradientUnits="userSpaceOnUse"
       x1="31.021"
       x2="43.104"
       xlink:href="#a"
       y1="-9.8959999"
       y2="-9.8959999" />
    <linearGradient
       id="linearGradient1238"
       gradientUnits="userSpaceOnUse"
       x1="23.716"
       x2="26.348"
       xlink:href="#a"
       y1="13.219"
       y2="15.851"
       gradientTransform="matrix(1.0499996,0,0,1.0499996,63.300821,-47.095773)" />
    <linearGradient
       inkscape:collect="always"
       xlink:href="#a"
       id="linearGradient1246"
       gradientUnits="userSpaceOnUse"
       gradientTransform="matrix(1.0499996,0,0,1.0499996,-1.427996,-0.941156)"
       x1="16"
       y1="11"
       x2="34.942"
       y2="29.942" />
    <linearGradient
       inkscape:collect="always"
       xlink:href="#a"
       id="linearGradient1248"
       gradientUnits="userSpaceOnUse"
       gradientTransform="matrix(0.74246194,0.74246195,-0.74246194,0.74246195,-1.427996,-0.941156)"
       x1="31.021"
       y1="-9.896"
       x2="43.104"
       y2="-9.896" />
    <linearGradient
       inkscape:collect="always"
       xlink:href="#a"
       id="linearGradient1250"
       gradientUnits="userSpaceOnUse"
       gradientTransform="matrix(1.0499996,0,0,1.0499996,-1.427996,-0.941156)"
       x1="23.716"
       y1="13.219"
       x2="26.348"
       y2="15.851" />
  </defs>
  <sodipodi:namedview
     id="namedview45"
     pagecolor="#ffffff"
     bordercolor="#666666"
     borderopacity="1.0"
     inkscape:showpageshadow="2"
     inkscape:pageopacity="0.0"
     inkscape:pagecheckerboard="0"
     inkscape:deskcolor="#d1d1d1"
     showgrid="true"
     inkscape:zoom="3.8710989"
     inkscape:cx="10.591308"
     inkscape:cy="34.615494"
     inkscape:window-width="1920"
     inkscape:window-height="1011"
     inkscape:window-x="0"
     inkscape:window-y="0"
     inkscape:window-maximized="1"
     inkscape:current-layer="svg43">
    <inkscape:grid
       type="xygrid"
       id="grid1257" />
  </sodipodi:namedview>
  <linearGradient
     id="a">
    <stop
       offset="0"
       id="stop2" />
    <stop
       offset="1"
       stop-opacity="0"
       id="stop4" />
  </linearGradient>
  <linearGradient
     id="b"
     gradientUnits="userSpaceOnUse"
     x1="16"
     x2="34.942"
     xlink:href="#a"
     y1="11"
     y2="29.942"
     gradientTransform="matrix(1.0499996,0,0,1.0499996,63.300821,-47.095773)" />
  <linearGradient
     id="c"
     gradientTransform="matrix(0.74246194,0.74246195,-0.74246194,0.74246195,63.300821,-47.095773)"
     gradientUnits="userSpaceOnUse"
     x1="31.021"
     x2="43.104"
     xlink:href="#a"
     y1="-9.896"
     y2="-9.896" />
  <linearGradient
     id="d"
     gradientUnits="userSpaceOnUse"
     x1="23.716"
     x2="26.348"
     xlink:href="#a"
     y1="13.219"
     y2="15.851"
     gradientTransform="matrix(1.0499996,0,0,1.0499996,63.300821,-47.095773)" />
  <linearGradient
     id="e"
     gradientTransform="matrix(0.91476159,0,0,0.90114845,43.317226,6.3747443)"
     gradientUnits="userSpaceOnUse"
     x1="-45.221867"
     x2=".691726"
     y1="-4.91011"
     y2="41.697075">
    <stop
       offset="0"
       stop-color="#2bc0ff"
       id="stop10" />
    <stop
       offset="1"
       stop-color="#1d99f3"
       id="stop12" />
  </linearGradient>
  <ellipse
     cx="23.999992"
     cy="24.000002"
     fill="url(#m)"
     stroke-width="0.0173423"
     id="circle3376"
     style="fill:url(#m)"
     rx="20.999992"
     ry="20.999998" />
  <ellipse
     cx="23.999992"
     cy="23.450277"
     rx="20.999992"
     ry="20.450277"
     fill="url(#l)"
     stroke-width="0.0171139"
     id="ellipse3378"
     style="fill:url(#l)" />
  <path
     d="m 21.842212,18.721728 -2.303024,-2.303025 -2.419927,1.527831 -0.910547,2.091794 -7.087498,7.087498 4.837794,4.837795 -2.063084,1.835452 10.409767,10.409761 h 14.91942 c 3.01777,0 5.44688,-2.39434 5.44688,-5.366893 C 33.750896,27.835754 23.771997,15.85884 21.842212,18.721728 Z"
     fill="url(#b)"
     opacity="0.2"
     id="path31-2"
     style="fill:url(#linearGradient1246);stroke-width:1.05" />
  <path
     d="m 37.391233,10.596536 -4.587597,1.236621 -4.745509,9.974997 4.113868,8.74453 11.849418,11.849407 c 0.47489,-0.823406 0.75058,-1.7749 0.75058,-2.793155 V 17.977297 Z"
     fill="url(#c)"
     opacity="0.2"
     id="path33-9"
     style="fill:url(#linearGradient1248);stroke-width:1.05" />
  <path
     d="m 25.87284,9.554 4.757879,4.757886 -3.299366,6.988085 -6.602241,-6.602242 z"
     fill="url(#d)"
     opacity="0.2"
     id="path35-1"
     style="fill:url(#linearGradient1250);stroke-width:1.05" />
  <path
     d="m 14.54143,14.406888 c -0.129209,-0.0059 -0.254002,0.03254 -0.35683,0.135346 l -2.229206,2.229206 c -0.205656,0.205663 -0.205656,0.536722 0,0.742378 l 2.303032,3.617578 c -0.184323,0.3719 -0.343951,0.755548 -0.477832,1.148436 L 9.597,23.208838 c -0.290853,0 -0.525,0.234153 -0.525,0.525 v 3.149999 c 0,0.290846 0.241076,0.46191 0.525,0.525 l 4.185647,0.931059 c 0.129627,0.389043 0.284447,0.769242 0.463472,1.138183 l -2.30713,3.625778 c -0.156149,0.245381 -0.205663,0.536715 0,0.742377 l 2.227152,2.229207 c 0.205664,0.205656 0.536723,0.205656 0.742378,0 l 3.625784,-2.309184 c 0.375072,0.186842 0.762158,0.348527 1.158689,0.483983 l 0.929006,4.183595 c 0,0.290847 0.234146,0.525 0.524999,0.525 h 3.15 c 0.290846,0 0.461909,-0.241076 0.524999,-0.525 l 0.931059,-4.185648 c 0.394829,-0.131622 0.780525,-0.289194 1.154589,-0.471679 l 3.609373,2.298933 c 0.205655,0.205656 0.536714,0.205656 0.742377,0 L 33.4886,33.846234 c 0.205656,-0.205662 0.156149,-0.496996 0,-0.742377 l -0.984379,-1.546289 -0.734178,0.293257 -2.352248,-3.527341 c -1.185425,2.635899 -3.805611,4.332398 -6.695798,4.335352 -4.059292,0 -7.349998,-3.290707 -7.349998,-7.349999 0.0031,-2.835866 1.637765,-5.416854 4.199999,-6.632224 V 16.41665 c -0.353295,0.12092 -0.699123,0.262675 -1.035648,0.424516 l -3.609373,-2.298932 c -0.122688,-0.07809 -0.256331,-0.129158 -0.385547,-0.135346 z"
     fill="#ffffff"
     id="path37-2"
     style="stroke-width:1.05" />
  <path
     d="m 25.871996,9.558841 -5.249998,0.486032 v 20.513963 l 5.249998,-1.05 v -8.399997 l 6.299999,9.449997 5.249998,-2.099999 -6.824998,-8.83476 6.829098,-9.015236 -5.49814,-1.05 -6.055957,8.924998 z"
     fill="#ffffff"
     id="path39-7"
     style="stroke-width:1.05" />
</svg>
