<?xml version="1.0" encoding="UTF-8" standalone="no"?>
<svg
   width="48"
   height="48"
   id="svg2"
   version="1.1"
   sodipodi:docname="keepass.svg"
   inkscape:version="1.2.1 (9c6d41e410, 2022-07-14)"
   xmlns:inkscape="http://www.inkscape.org/namespaces/inkscape"
   xmlns:sodipodi="http://sodipodi.sourceforge.net/DTD/sodipodi-0.dtd"
   xmlns:xlink="http://www.w3.org/1999/xlink"
   xmlns="http://www.w3.org/2000/svg"
   xmlns:svg="http://www.w3.org/2000/svg">
  <sodipodi:namedview
     id="namedview24"
     pagecolor="#ffffff"
     bordercolor="#666666"
     borderopacity="1.0"
     inkscape:showpageshadow="2"
     inkscape:pageopacity="0.0"
     inkscape:pagecheckerboard="0"
     inkscape:deskcolor="#d1d1d1"
     showgrid="false"
     inkscape:zoom="4.9166667"
     inkscape:cx="24"
     inkscape:cy="24"
     inkscape:window-width="1920"
     inkscape:window-height="1009"
     inkscape:window-x="0"
     inkscape:window-y="0"
     inkscape:window-maximized="1"
     inkscape:current-layer="svg2" />
  <defs
     id="defs4">
    <linearGradient
       id="linearGradient4166">
      <stop
         style="stop-color:#000000;stop-opacity:1;"
         offset="0"
         id="stop4168" />
      <stop
         style="stop-color:#000000;stop-opacity:0;"
         offset="1"
         id="stop4170" />
    </linearGradient>
    <linearGradient
       id="linearGradient4153">
      <stop
         style="stop-color:#bf4231;stop-opacity:1"
         offset="0"
         id="stop4155" />
      <stop
         style="stop-color:#e05e4c;stop-opacity:1"
         offset="1"
         id="stop4157" />
    </linearGradient>
    <style
       id="current-color-scheme"
       type="text/css">
   .ColorScheme-Text { color:#4d4d4d; }
  </style>
    <linearGradient
       xlink:href="#c-4"
       id="linearGradient4269"
       x1="13.559"
       y1="3.186"
       x2="33.627"
       y2="43.797"
       gradientUnits="userSpaceOnUse"
       gradientTransform="matrix(-1.05,0,0,-1.05,49.200003,49.200003)" />
    <linearGradient
       gradientUnits="userSpaceOnUse"
       x2="4"
       x1="44"
       id="c-4">
      <stop
         id="stop4683"
         stop-color="#42a603"
         style="stop-color:#459811;stop-opacity:1" />
      <stop
         id="stop4685"
         stop-color="#78da06"
         offset="1"
         style="stop-color:#9cdb4e;stop-opacity:1" />
    </linearGradient>
    <linearGradient
       xlink:href="#linearGradient4153"
       id="linearGradient4159"
       x1="11.663"
       y1="13.65"
       x2="9.664"
       y2="5.886"
       gradientUnits="userSpaceOnUse"
       gradientTransform="matrix(1.05,0,0,1.05,-1.2003993,-1.2000003)" />
    <linearGradient
       xlink:href="#linearGradient4166"
       id="linearGradient4172"
       x1="10.093"
       y1="9.867"
       x2="19.545"
       y2="18.035"
       gradientUnits="userSpaceOnUse"
       gradientTransform="matrix(1.05,0,0,1.05,-1.2003993,-1.2000003)" />
  </defs>
  <path
     style="fill:url(#linearGradient4269);fill-opacity:1;stroke-width:1.05"
     d="m 24,45 c 5.363123,0 10.725853,-2.055145 14.835351,-6.16465 8.219002,-8.219001 8.219002,-21.451698 0,-29.670702 C 34.725853,5.055149 29.363123,3 24,3 H 3 V 24 C 3,29.363123 5.055149,34.725858 9.164648,38.83535 13.274147,42.944855 18.636877,45 24,45 Z"
     id="path14" />
  <path
     style="opacity:0.15;fill:#000000;fill-opacity:1;stroke:none;stroke-width:10.5;stroke-miterlimit:4;stroke-dasharray:none;stroke-opacity:0.392157"
     d="M 26.0996,8.7749998 A 1.575,1.575 0 0 0 24.5246,10.35 a 1.575,1.575 0 0 0 1.575,1.575 1.575,1.575 0 0 0 1.575,-1.575 1.575,1.575 0 0 0 -1.575,-1.5750002 z M 31.3496,9.825 a 1.575,1.575 0 0 0 -1.575,1.575 1.575,1.575 0 0 0 1.575,1.575 1.575,1.575 0 0 0 1.575,-1.575 1.575,1.575 0 0 0 -1.575,-1.575 z m -8.4,2.1 a 1.575,1.575 0 0 0 -1.575,1.575 1.575,1.575 0 0 0 1.575,1.575 1.575,1.575 0 0 0 1.575,-1.575 1.575,1.575 0 0 0 -1.575,-1.575 z m 12.6,1.05 a 1.575,1.575 0 0 0 -1.575,1.575 1.575,1.575 0 0 0 1.575,1.575 1.575,1.575 0 0 0 1.575,-1.575 1.575,1.575 0 0 0 -1.575,-1.575 z m -10.5,3.15 a 1.575,1.575 0 0 0 -1.575,1.575 1.575,1.575 0 0 0 1.575,1.575 1.575,1.575 0 0 0 1.575,-1.575 1.575,1.575 0 0 0 -1.575,-1.575 z m 13.65,1.05 a 1.575,1.575 0 0 0 -1.575,1.575 1.575,1.575 0 0 0 1.575,1.575 1.575,1.575 0 0 0 1.575,-1.575 1.575,1.575 0 0 0 -1.575,-1.575 z m -10.5,3.15 a 1.575,1.575 0 0 0 -1.575,1.575 1.575,1.575 0 0 0 1.575,1.575 1.575,1.575 0 0 0 1.575,-1.575 1.575,1.575 0 0 0 -1.575,-1.575 z m 11.55,1.05 a 1.575,1.575 0 0 0 -1.575,1.575 1.575,1.575 0 0 0 1.575,1.575 1.575,1.575 0 0 0 1.575,-1.575 1.575,1.575 0 0 0 -1.575,-1.575 z m -14.7,2.1 a 1.575,1.575 0 0 0 -1.575,1.575 1.575,1.575 0 0 0 1.575,1.575 1.575,1.575 0 0 0 1.575,-1.575 1.575,1.575 0 0 0 -1.575,-1.575 z m 7.35,0 a 1.575,1.575 0 0 0 -1.575,1.575 1.575,1.575 0 0 0 1.575,1.575 1.575,1.575 0 0 0 1.575,-1.575 1.575,1.575 0 0 0 -1.575,-1.575 z m 4.2,2.1 a 1.575,1.575 0 0 0 -1.575,1.575 1.575,1.575 0 0 0 1.575,1.575 1.575,1.575 0 0 0 1.575,-1.575 1.575,1.575 0 0 0 -1.575,-1.575 z m -14.7,1.05 a 1.575,1.575 0 0 0 -1.575,1.575 1.575,1.575 0 0 0 1.575,1.575 1.575,1.575 0 0 0 1.575,-1.575 1.575,1.575 0 0 0 -1.575,-1.575 z m -3.15,3.15 a 1.575,1.575 0 0 0 -1.575,1.575 1.575,1.575 0 0 0 1.575,1.575 1.575,1.575 0 0 0 1.575,-1.575 1.575,1.575 0 0 0 -1.575,-1.575 z m -3.15,3.15 a 1.575,1.575 0 0 0 -1.575,1.575 1.575,1.575 0 0 0 1.575,1.575 1.575,1.575 0 0 0 1.575,-1.575 1.575,1.575 0 0 0 -1.575,-1.575 z m 3.15,3.15 a 1.575,1.575 0 0 0 -1.575,1.575 1.575,1.575 0 0 0 1.575,1.575 1.575,1.575 0 0 0 1.575,-1.575 1.575,1.575 0 0 0 -1.575,-1.575 z"
     id="path4342-73" />
  <path
     style="opacity:0.15;fill:#000000;fill-opacity:1;stroke-width:1.05"
     d="M 3.0242097,23.475 C 2.8855028,29.012035 4.9204329,34.591536 9.164252,38.83535 13.273746,42.944855 18.636671,45 23.9996,45 V 43.95 C 18.636671,43.95 13.273746,41.894855 9.164252,37.78535 5.1890677,33.810175 3.1541377,28.661541 3.0242097,23.475 Z"
     id="path14-1" />
  <path
     style="opacity:1;fill:#ffffff;fill-opacity:1;stroke:none;stroke-width:10.5;stroke-miterlimit:4;stroke-dasharray:none;stroke-opacity:0.392157"
     d="M 25.5746,8.2499998 A 1.575,1.575 0 0 0 23.9996,9.825 1.575,1.575 0 0 0 25.5746,11.4 1.575,1.575 0 0 0 27.1496,9.825 1.575,1.575 0 0 0 25.5746,8.2499998 Z M 30.8246,9.3 a 1.575,1.575 0 0 0 -1.575,1.575 1.575,1.575 0 0 0 1.575,1.575 1.575,1.575 0 0 0 1.575,-1.575 1.575,1.575 0 0 0 -1.575,-1.575 z m -8.4,2.1 a 1.575,1.575 0 0 0 -1.575,1.575 1.575,1.575 0 0 0 1.575,1.575 1.575,1.575 0 0 0 1.575,-1.575 1.575,1.575 0 0 0 -1.575,-1.575 z m 12.6,1.05 a 1.575,1.575 0 0 0 -1.575,1.575 1.575,1.575 0 0 0 1.575,1.575 1.575,1.575 0 0 0 1.575,-1.575 1.575,1.575 0 0 0 -1.575,-1.575 z m -10.5,3.15 a 1.575,1.575 0 0 0 -1.575,1.575 1.575,1.575 0 0 0 1.575,1.575 1.575,1.575 0 0 0 1.575,-1.575 1.575,1.575 0 0 0 -1.575,-1.575 z m 13.65,1.05 a 1.575,1.575 0 0 0 -1.575,1.575 1.575,1.575 0 0 0 1.575,1.575 1.575,1.575 0 0 0 1.575,-1.575 1.575,1.575 0 0 0 -1.575,-1.575 z m -10.5,3.15 a 1.575,1.575 0 0 0 -1.575,1.575 1.575,1.575 0 0 0 1.575,1.575 1.575,1.575 0 0 0 1.575,-1.575 1.575,1.575 0 0 0 -1.575,-1.575 z m 11.55,1.05 a 1.575,1.575 0 0 0 -1.575,1.575 1.575,1.575 0 0 0 1.575,1.575 1.575,1.575 0 0 0 1.575,-1.575 1.575,1.575 0 0 0 -1.575,-1.575 z m -14.7,2.1 a 1.575,1.575 0 0 0 -1.575,1.575 1.575,1.575 0 0 0 1.575,1.575 1.575,1.575 0 0 0 1.575,-1.575 1.575,1.575 0 0 0 -1.575,-1.575 z m 7.35,0 a 1.575,1.575 0 0 0 -1.575,1.575 1.575,1.575 0 0 0 1.575,1.575 1.575,1.575 0 0 0 1.575,-1.575 1.575,1.575 0 0 0 -1.575,-1.575 z m 4.2,2.1 a 1.575,1.575 0 0 0 -1.575,1.575 1.575,1.575 0 0 0 1.575,1.575 1.575,1.575 0 0 0 1.575,-1.575 1.575,1.575 0 0 0 -1.575,-1.575 z m -14.7,1.05 a 1.575,1.575 0 0 0 -1.575,1.575 1.575,1.575 0 0 0 1.575,1.575 1.575,1.575 0 0 0 1.575,-1.575 1.575,1.575 0 0 0 -1.575,-1.575 z m -3.15,3.15 a 1.575,1.575 0 0 0 -1.575,1.575 1.575,1.575 0 0 0 1.575,1.575 1.575,1.575 0 0 0 1.575,-1.575 1.575,1.575 0 0 0 -1.575,-1.575 z m -3.15,3.15 a 1.575,1.575 0 0 0 -1.575,1.575 1.575,1.575 0 0 0 1.575,1.575 1.575,1.575 0 0 0 1.575,-1.575 1.575,1.575 0 0 0 -1.575,-1.575 z m 3.15,3.15 a 1.575,1.575 0 0 0 -1.575,1.575 1.575,1.575 0 0 0 1.575,1.575 1.575,1.575 0 0 0 1.575,-1.575 1.575,1.575 0 0 0 -1.575,-1.575 z"
     id="path4342" />
  <path
     style="opacity:0.15;fill:#000000;fill-opacity:1;stroke-width:1.05"
     d="M 44.992959,23.475 C 45.131677,29.012035 43.096742,34.591536 38.852922,38.83535 34.74343,42.944855 29.380501,45 24.017576,45 v -1.05 c 5.362925,0 10.725854,-2.055145 14.835346,-6.16465 3.975188,-3.975175 6.010116,-9.123809 6.140037,-14.31035 z"
     id="path14-1-1" />
  <path
     style="opacity:0.2;fill:url(#linearGradient4172);fill-opacity:1;stroke:none;stroke-width:2.1;stroke-linecap:round;stroke-linejoin:round;stroke-miterlimit:4;stroke-dasharray:none;stroke-opacity:1"
     d="M 13.046379,5.6270509 5.628702,13.046779 34.643159,42.061232 c 1.490589,-0.882902 2.907705,-1.941787 4.191791,-3.225882 1.284348,-1.284348 2.344988,-2.700849 3.227935,-4.191791 z"
     id="rect4161" />
  <path
     style="opacity:1;fill:url(#linearGradient4159);fill-opacity:1;stroke:none;stroke-width:2.1;stroke-linecap:round;stroke-linejoin:round;stroke-miterlimit:4;stroke-dasharray:none;stroke-opacity:1"
     d="m 4.8444507,6.3305278 2.9698482,2.9698512 -2.9698482,2.969847 1.4849247,1.48493 2.9698456,-2.969859 2.969847,2.969859 1.484934,-1.48493 L 10.784151,9.300379 13.754002,6.3305278 12.269068,4.8456038 9.299221,7.8154525 6.3293754,4.8456038 Z"
     id="rect4146" />
</svg>
