<?xml version="1.0" encoding="UTF-8" standalone="no"?>
<!-- Generator: Adobe Illustrator 12.0.0, SVG Export Plug-In . SVG Version: 6.00 Build 51448)  -->

<svg
   version="1.0"
   id="Livello_1"
   width="48"
   height="48"
   viewBox="0 0 48 48"
   overflow="visible"
   enable-background="new 0 0 126 111.715"
   xml:space="preserve"
   sodipodi:version="0.32"
   inkscape:version="1.2.1 (9c6d41e410, 2022-07-14)"
   sodipodi:docname="kgeography.svg"
   xmlns:inkscape="http://www.inkscape.org/namespaces/inkscape"
   xmlns:sodipodi="http://sodipodi.sourceforge.net/DTD/sodipodi-0.dtd"
   xmlns:xlink="http://www.w3.org/1999/xlink"
   xmlns="http://www.w3.org/2000/svg"
   xmlns:svg="http://www.w3.org/2000/svg"
   xmlns:rdf="http://www.w3.org/1999/02/22-rdf-syntax-ns#"
   xmlns:cc="http://creativecommons.org/ns#"
   xmlns:dc="http://purl.org/dc/elements/1.1/"><metadata
   id="metadata244"><rdf:RDF><cc:Work
       rdf:about=""><dc:format>image/svg+xml</dc:format><dc:type
         rdf:resource="http://purl.org/dc/dcmitype/StillImage" /></cc:Work></rdf:RDF></metadata><defs
   id="defs242"><linearGradient
     id="linearGradient2866"><stop
       id="stop2868"
       offset="0"
       style="stop-color:#efefef;stop-opacity:1;" /><stop
       style="stop-color:#f8f8f8;stop-opacity:1;"
       offset="0.5"
       id="stop2874" /><stop
       id="stop2870"
       offset="1"
       style="stop-color:#e0e0e0;stop-opacity:1;" /></linearGradient><linearGradient
     inkscape:collect="always"
     id="linearGradient2888"><stop
       style="stop-color:#5b5b5b;stop-opacity:1;"
       offset="0"
       id="stop2890" /><stop
       style="stop-color:#5b5b5b;stop-opacity:0;"
       offset="1"
       id="stop2892" /></linearGradient><linearGradient
     inkscape:collect="always"
     id="linearGradient2875"><stop
       style="stop-color:white;stop-opacity:1;"
       offset="0"
       id="stop2877" /><stop
       style="stop-color:white;stop-opacity:0;"
       offset="1"
       id="stop2879" /></linearGradient><linearGradient
     id="linearGradient3670"><stop
       style="stop-color:#e8e8e8;stop-opacity:1;"
       offset="0"
       id="stop3672" /><stop
       style="stop-color:#969696;stop-opacity:0;"
       offset="1"
       id="stop3674" /></linearGradient><linearGradient
     id="linearGradient3650"><stop
       style="stop-color:#545454;stop-opacity:1;"
       offset="0"
       id="stop3652" /><stop
       style="stop-color:#b1b1b1;stop-opacity:1;"
       offset="1"
       id="stop3654" /></linearGradient><linearGradient
     inkscape:collect="always"
     id="linearGradient3642"><stop
       style="stop-color:black;stop-opacity:1;"
       offset="0"
       id="stop3644" /><stop
       style="stop-color:black;stop-opacity:0;"
       offset="1"
       id="stop3646" /></linearGradient><linearGradient
     inkscape:collect="always"
     id="linearGradient3630"><stop
       style="stop-color:#9ca096;stop-opacity:1;"
       offset="0"
       id="stop3632" /><stop
       style="stop-color:#9ca096;stop-opacity:0;"
       offset="1"
       id="stop3634" /></linearGradient><linearGradient
     inkscape:collect="always"
     id="linearGradient3622"><stop
       style="stop-color:#686868;stop-opacity:1;"
       offset="0"
       id="stop3624" /><stop
       style="stop-color:#686868;stop-opacity:0;"
       offset="1"
       id="stop3626" /></linearGradient><linearGradient
     inkscape:collect="always"
     id="linearGradient3614"><stop
       style="stop-color:white;stop-opacity:1;"
       offset="0"
       id="stop3616" /><stop
       style="stop-color:white;stop-opacity:0;"
       offset="1"
       id="stop3618" /></linearGradient><linearGradient
     id="linearGradient3396"><stop
       id="stop3398"
       offset="0"
       style="stop-color:#040404;stop-opacity:0;" /><stop
       style="stop-color:#040404;stop-opacity:0;"
       offset="0.64971751"
       id="stop3402" /><stop
       id="stop3400"
       offset="1"
       style="stop-color:#040404;stop-opacity:1;" /></linearGradient><linearGradient
     id="linearGradient3251"><stop
       style="stop-color:white;stop-opacity:1;"
       offset="0"
       id="stop3253" /><stop
       style="stop-color:#efefef;stop-opacity:1;"
       offset="1"
       id="stop3255" /></linearGradient><linearGradient
     id="linearGradient3243"><stop
       style="stop-color:yellow;stop-opacity:1;"
       offset="0"
       id="stop3245" /><stop
       style="stop-color:#ffbf00;stop-opacity:1;"
       offset="1"
       id="stop3247" /></linearGradient><linearGradient
     id="linearGradient2995"><stop
       style="stop-color:#4b4b4b;stop-opacity:1;"
       offset="0"
       id="stop2997" /><stop
       style="stop-color:#676767;stop-opacity:1;"
       offset="1"
       id="stop2999" /></linearGradient><linearGradient
     id="b"
     gradientUnits="userSpaceOnUse"
     x1="4"
     x2="4"
     y1="44"
     y2="4"
     gradientTransform="matrix(1.0499999,0,0,1.0499999,-1.1999935,-1.2000005)"><stop
       offset="0"
       stop-color="#197cf1"
       id="stop3160" /><stop
       offset="1"
       stop-color="#20bcfa"
       id="stop3162" /></linearGradient><linearGradient
     id="c"
     gradientUnits="userSpaceOnUse"
     x1="9"
     x2="38"
     xlink:href="#a"
     y1="9"
     y2="38"
     gradientTransform="matrix(1.0499999,0,0,1.0499999,-1.1999935,-1.2000005)" /><linearGradient
     id="a"
     gradientUnits="userSpaceOnUse"
     x1="34"
     x2="44"
     y1="19.007999"
     y2="29.007999"><stop
       offset="0"
       stop-color="#292c2f"
       id="stop3155" /><stop
       offset="1"
       stop-opacity="0"
       id="stop3157" /></linearGradient><linearGradient
     inkscape:collect="always"
     xlink:href="#a"
     id="linearGradient3303"
     gradientUnits="userSpaceOnUse"
     x1="34"
     y1="19.007999"
     x2="44"
     y2="29.007999"
     gradientTransform="matrix(1.0499999,0,0,1.0499999,-1.1999935,-1.2000005)" /><linearGradient
     id="d"
     gradientUnits="userSpaceOnUse"
     x1="4"
     x2="4"
     y1="44"
     y2="4"
     gradientTransform="matrix(1.0499999,0,0,1.0499999,-1.1999935,-1.2000005)"><stop
       offset="0"
       stop-color="#54d883"
       id="stop3165" /><stop
       offset="1"
       stop-color="#abf9c7"
       id="stop3167" /></linearGradient><radialGradient
     inkscape:collect="always"
     xlink:href="#linearGradient3396"
     id="radialGradient3718-7"
     gradientUnits="userSpaceOnUse"
     gradientTransform="matrix(0.20049501,0.15941614,-0.49525197,0.62981817,163.11945,-37.957539)"
     cx="-180.54288"
     cy="171.75208"
     fx="-174.05511"
     fy="171.86282"
     r="13.296875" /><radialGradient
     inkscape:collect="always"
     xlink:href="#linearGradient3396"
     id="radialGradient3710-6"
     gradientUnits="userSpaceOnUse"
     gradientTransform="matrix(-0.13823855,0.18241334,0.63509272,0.48666135,-102.34936,-8.2855437)"
     cx="-180.54288"
     cy="171.75208"
     fx="-174.05511"
     fy="171.86282"
     r="13.296875" /><radialGradient
     inkscape:collect="always"
     xlink:href="#linearGradient2888"
     id="radialGradient2894-9"
     cx="-181.42027"
     cy="159.1109"
     fx="-181.42027"
     fy="159.1109"
     r="16.293489"
     gradientTransform="matrix(0.35691504,-0.1486465,0.05776363,0.13869687,94.405482,-10.157206)"
     gradientUnits="userSpaceOnUse" /><radialGradient
     inkscape:collect="always"
     xlink:href="#linearGradient3670"
     id="radialGradient3679-2"
     gradientUnits="userSpaceOnUse"
     gradientTransform="matrix(0.64596966,0.0017709,0,0.10747302,158.5475,21.879633)"
     cx="-188.68503"
     cy="127.57227"
     fx="-188.49992"
     fy="128.64145"
     r="17.432856" /><radialGradient
     inkscape:collect="always"
     xlink:href="#linearGradient2875"
     id="radialGradient2885-9"
     cx="-193.25323"
     cy="156.11624"
     fx="-193.25323"
     fy="156.11624"
     r="5.2813001"
     gradientTransform="matrix(0.23626855,-0.00555691,0.0396005,1.6837739,75.505622,-221.94908)"
     gradientUnits="userSpaceOnUse" /><linearGradient
     inkscape:collect="always"
     xlink:href="#linearGradient3630"
     id="linearGradient2070"
     gradientUnits="userSpaceOnUse"
     gradientTransform="matrix(0.2740197,0,0,0.27554428,88.407972,-2.5093197)"
     x1="-197.68797"
     y1="154.46518"
     x2="-189.48012"
     y2="153.72021" /><linearGradient
     inkscape:collect="always"
     xlink:href="#linearGradient3614"
     id="linearGradient2072"
     gradientUnits="userSpaceOnUse"
     gradientTransform="matrix(0.2740197,0,0,0.27554428,88.407972,-2.5093197)"
     x1="-191.01106"
     y1="131.61131"
     x2="-198.02255"
     y2="130.55957" /><linearGradient
     inkscape:collect="always"
     xlink:href="#linearGradient3622"
     id="linearGradient2074"
     gradientUnits="userSpaceOnUse"
     gradientTransform="matrix(0.2740197,0,0,0.27554428,88.407972,-2.5093197)"
     x1="-207.73027"
     y1="151.19595"
     x2="-210.98982"
     y2="141.25862" /><linearGradient
     inkscape:collect="always"
     xlink:href="#linearGradient3650"
     id="linearGradient2076"
     gradientUnits="userSpaceOnUse"
     gradientTransform="matrix(0.2740197,0,0,0.27554428,88.407972,-2.5093197)"
     x1="-181.02063"
     y1="150.43015"
     x2="-191.34558"
     y2="149.0968" /><linearGradient
     inkscape:collect="always"
     xlink:href="#linearGradient3642"
     id="linearGradient2078"
     gradientUnits="userSpaceOnUse"
     gradientTransform="matrix(0.2740197,0,0,0.27554428,88.407972,-2.5093197)"
     x1="-198.05614"
     y1="149.18277"
     x2="-196.2851"
     y2="150.36595" /></defs><sodipodi:namedview
   inkscape:window-height="1009"
   inkscape:window-width="1920"
   inkscape:pageshadow="2"
   inkscape:pageopacity="0.0"
   borderopacity="1.0"
   bordercolor="#666666"
   pagecolor="#ffffff"
   id="base"
   inkscape:zoom="3.9709576"
   inkscape:cx="27.449298"
   inkscape:cy="50.365685"
   inkscape:window-x="0"
   inkscape:window-y="0"
   inkscape:current-layer="Livello_1"
   showguides="true"
   inkscape:guide-bbox="true"
   inkscape:showpageshadow="2"
   inkscape:pagecheckerboard="0"
   inkscape:deskcolor="#d1d1d1"
   showgrid="false"
   inkscape:window-maximized="1"><sodipodi:guide
     orientation="horizontal"
     position="0,524.53683"
     id="guide1993"
     inkscape:locked="false" /></sodipodi:namedview>




<ellipse
   cx="23.999989"
   cy="23.999992"
   fill="url(#b)"
   id="circle3170"
   style="fill:url(#b);stroke-width:1.05"
   rx="20.999989"
   ry="20.999992" /><path
   d="M 24.000006,2.9999995 A 21,21 0 0 0 3.1050065,21.900001 h 3.045 l 3.15,3.15 2.0999995,1.05 11.517442,18.8475 a 21,21 0 0 0 1.082558,0.0525 21,21 0 0 0 21,-21 21,21 0 0 0 -21,-21.0000015 z"
   fill="url(#c)"
   opacity="0.2"
   id="path3172"
   style="fill:url(#c);stroke-width:1.05" /><path
   d="m 43.515306,16.264645 -6.9153,9.835356 6.525758,6.525744 a 21,21 0 0 0 1.874242,-8.625744 21,21 0 0 0 -1.428,-7.6083 21,21 0 0 0 -0.0567,-0.127056 z"
   fill="url(#a)"
   fill-rule="evenodd"
   opacity="0.2"
   id="path3174"
   style="fill:url(#linearGradient3303);stroke-width:1.05" /><path
   d="m 24.000006,2.9999995 a 21,21 0 0 0 -1.9971,0.1155 21,21 0 0 0 -0.2667,0.0315 21,21 0 0 0 -3.379942,0.66885 v -0.042 A 21,21 0 0 0 8.1712565,10.220845 h 0.0105 a 21,21 0 0 0 -3.759,6.242256 l 1.72725,-0.8631 h 4.1999995 v 1.05 l 1.05,1.05 v -2.1 l 1.05,-1.05 1.05,-1.05 h 1.05 v -1.05 l 1.05,-1.05 2.1,-1.05 1.05,-1.0500015 2.1,-1.05 v 1.05 l 2.1,-1.05 h -1.05 v -1.05 l -1.05,-1.05 h 4.2 l -1.05,1.05 3.15,1.05 -1.05,-2.1 v -2.1 l -0.994358,-0.99435 a 21,21 0 0 0 -1.105642,-0.05565 z m 15.75,7.1505015 v 2.2995 h 1.775542 a 21,21 0 0 0 -1.775542,-2.2995 z m -29.3349,0.07037 h 0.06401 l -0.12911,0.12913 0.06616,-0.129156 z m 31.5252,2.900074 -1.1403,0.379056 -2.1,1.05 v 1.05 l -2.1,2.1 -1.05,2.1 v 4.2 l 1.05,2.1 2.1,1.05 1.05,1.05 4.952842,-0.824256 a 21,21 0 0 0 0.002,-0.02304 21,21 0 0 0 0.219558,-1.839604 21,21 0 0 0 0.0756,-1.5131 21,21 0 0 0 -0.09452,-1.827 21,21 0 0 0 -0.101833,-0.849456 21,21 0 0 0 -0.1995,-1.2957 21,21 0 0 0 -0.141742,-0.6279 21,21 0 0 0 -0.374856,-1.4637 21,21 0 0 0 -0.152249,-0.4536 21,21 0 0 0 -0.565949,-1.546644 21,21 0 0 0 -0.155401,-0.3465 21,21 0 0 0 -0.776999,-1.601256 21,21 0 0 0 -0.496646,-0.8673 z m -35.7902995,6.679056 -1.05,1.05 h -1.05 l -0.6825,-0.6825 a 21,21 0 0 0 0,0.005 21,21 0 0 0 -0.2793,2.075854 21,21 0 0 0 -0.002,0.0315 l 2.01382,0.670146 2.1,1.05 1.05,1.05 1.05,1.05 h 2.0999995 v 2.1 l -1.05,1.05 -1.0499995,2.1 v 1.05 l 1.0499995,1.05 1.05,1.05 1.05,2.1 1.05,1.05 2.1,1.05 v 4.536 a 21,21 0 0 0 0.006,0.002 21,21 0 0 0 1.781848,0.677244 21,21 0 0 0 0.201601,0.0714 21,21 0 0 0 1.588651,0.4284 21,21 0 0 0 0.473549,0.1218 21,21 0 0 0 1.385999,0.2268 21,21 0 0 0 0.714,0.1092 21,21 0 0 0 1.2075,0.0756 21,21 0 0 0 1.040852,0.05156 21,21 0 0 0 1.0689,-0.03886 l 1.0311,-2.061144 v -1.05 l 2.1,-1.05 1.05,-1.05 1.05,-4.2 1.05,-1.05 v -2.1 l -2.1,-1.05 h -1.05 l -2.1,-1.05 h -1.05 l -1.05,-2.1 -1.05,-1.05 h -2.1 l -2.1,-2.1 h -2.1 l -3.15,-1.05 -1.05,2.1 -2.1,-1.05 H 9.3000265 v -2.1 l -2.1,-1.05 1.05,-2.1 z"
   id="path3176"
   style="fill:#ffffc1;stroke-width:1.05;fill-opacity:1" /><path
   d="m 3.0535565,23.475001 c -0.0042,0.1785 -0.05355,0.345444 -0.05355,0.525 0,11.634 9.3659995,21 20.9999995,21 11.634,0 21,-9.366 21,-21 0,-0.179556 -0.04939,-0.3465 -0.05359,-0.525 -0.0315,1.2663 -0.127042,2.5179 -0.3717,3.718044 a 20.8845,20.8845 0 0 1 -5.71304,10.618656 20.9475,20.9475 0 0 1 -6.672758,4.492944 20.807842,20.807844 0 0 1 -3.9459,1.2201 21.2142,21.2142 0 0 1 -4.242,0.4242 c -1.454242,0 -2.873842,-0.145944 -4.242,-0.4242 a 20.8845,20.8845 0 0 1 -10.6186115,-5.713044 20.9475,20.9475 0 0 1 -4.49295,-6.672756 20.807842,20.807844 0 0 1 -1.2201,-3.9459 c -0.24465,-1.200144 -0.33915,-2.451744 -0.3717,-3.718044"
   opacity="0.2"
   id="path3178"
   style="stroke-width:1.05" /><path
   id="path3373-3"
   d="m 45.774648,35.818691 -6.8519,2.957183 -1.66046,7.62429 3.82106,-6.135646 -0.19005,-0.130756 z"
   style="opacity:0.663934;fill:url(#radialGradient3718-7);fill-opacity:1;fill-rule:evenodd;stroke:none;stroke-width:0.274781px;stroke-linecap:butt;stroke-linejoin:miter;stroke-opacity:1" /><path
   sodipodi:nodetypes="cccccccc"
   style="opacity:0.422131;fill:url(#radialGradient3710-6);fill-opacity:1;fill-rule:evenodd;stroke:none;stroke-width:0.274781px;stroke-linecap:butt;stroke-linejoin:miter;stroke-opacity:1"
   d="m 29.546888,38.282683 4.36339,0.797835 2.68962,5.509141 -0.61595,0.02982 -3.81895,-3.575189 0.15356,-0.172557 -2.64775,-1.190487 z"
   id="path3441-7" /><path
   sodipodi:nodetypes="ccccccccc"
   id="path2011-5"
   d="m 26.648828,37.760248 7.06923,1.65224 3.52172,6.987569 1.87724,-7.339177 6.66007,-3.216437 -7.79116,-1.419674 -2.68269,-5.626276 -1.51663,6.265172 z"
   style="fill:#cdcdcd;fill-opacity:1;fill-rule:evenodd;stroke:#0f0f0f;stroke-width:0.0370792;stroke-linecap:butt;stroke-linejoin:miter;stroke-miterlimit:4;stroke-dasharray:none;stroke-opacity:1" /><path
   sodipodi:nodetypes="cccc"
   id="path2898-9"
   d="m 33.725298,39.395992 2.49077,-4.276743 1.03913,11.195086 z"
   style="fill:url(#linearGradient2070);fill-opacity:1;fill-rule:evenodd;stroke:none;stroke-width:0.274781px;stroke-linecap:butt;stroke-linejoin:miter;stroke-opacity:1" /><path
   id="path2920-2"
   d="m 39.110428,39.057232 -2.89595,-3.941725 9.55389,0.713936 z"
   style="fill:#9c9c9c;fill-opacity:1;fill-rule:evenodd;stroke:none;stroke-width:0.274781px;stroke-linecap:butt;stroke-linejoin:miter;stroke-opacity:1"
   sodipodi:nodetypes="cccc" /><path
   sodipodi:nodetypes="cccc"
   id="path2926-2"
   d="m 36.216928,35.120203 -0.9375,-6.255415 -1.46976,6.214901 z"
   style="fill:url(#linearGradient2072);fill-opacity:1;fill-rule:evenodd;stroke:none;stroke-width:0.274781px;stroke-linecap:butt;stroke-linejoin:miter;stroke-opacity:1" /><path
   style="fill:url(#linearGradient2074);fill-opacity:1;fill-rule:evenodd;stroke:none;stroke-width:0.274781px;stroke-linecap:butt;stroke-linejoin:miter;stroke-opacity:1"
   d="m 33.727328,39.40194 2.48874,-4.282691 -9.46057,2.640921 z"
   id="path2933-8"
   sodipodi:nodetypes="cccc" /><path
   sodipodi:nodetypes="cccc"
   style="fill:#d4d4d4;fill-opacity:1;fill-rule:evenodd;stroke:none;stroke-width:0.274781px;stroke-linecap:butt;stroke-linejoin:miter;stroke-opacity:1"
   d="m 37.939148,34.40265 -1.72467,0.712857 9.55389,0.713936 z"
   id="path2943-9" /><path
   sodipodi:nodetypes="cc"
   id="path3361-7"
   d="m 35.356408,26.416068 0.40757,3.073754"
   style="opacity:0.118852;fill:none;fill-opacity:0.75;fill-rule:evenodd;stroke:#000000;stroke-width:0.0314638;stroke-linecap:butt;stroke-linejoin:miter;stroke-miterlimit:4;stroke-dasharray:none;stroke-opacity:1" /><path
   sodipodi:nodetypes="cc"
   id="path3369-3"
   d="m 34.541278,27.713877 10.0533,-0.768439"
   style="opacity:0.118852;fill:none;fill-opacity:0.75;fill-rule:evenodd;stroke:#000000;stroke-width:0.0314638;stroke-linecap:butt;stroke-linejoin:miter;stroke-miterlimit:4;stroke-dasharray:none;stroke-opacity:1" /><path
   sodipodi:nodetypes="cccc"
   style="fill:url(#radialGradient2894-9);fill-opacity:1;fill-rule:evenodd;stroke:none;stroke-width:0.274781px;stroke-linecap:butt;stroke-linejoin:miter;stroke-opacity:1"
   d="m 39.066478,39.075256 -2.31296,-3.249404 9.01485,0.0036 z"
   id="path3658-6" /><path
   sodipodi:nodetypes="cccc"
   style="fill:url(#linearGradient2076);fill-opacity:1;fill-rule:evenodd;stroke:none;stroke-width:0.274781px;stroke-linecap:butt;stroke-linejoin:miter;stroke-opacity:1"
   d="m 39.110428,39.057232 -2.89436,-3.937983 1.03913,11.195086 z"
   id="path2916-1" /><path
   sodipodi:nodetypes="cccc"
   style="opacity:0.704918;fill:url(#radialGradient3679-2);fill-opacity:1;fill-rule:evenodd;stroke:none;stroke-width:0.274781px;stroke-linecap:butt;stroke-linejoin:miter;stroke-opacity:1"
   d="m 38.445658,38.302436 -2.23118,-3.186929 9.55389,0.713936 z"
   id="path3668-2" /><path
   style="opacity:0.0819672;fill:url(#linearGradient2078);fill-opacity:1;fill-rule:evenodd;stroke:none;stroke-width:0.274781px;stroke-linecap:butt;stroke-linejoin:miter;stroke-opacity:1"
   d="m 33.491258,39.333851 2.26145,-3.429559 -1.71509,4.166125 -0.30065,-0.702145 z"
   id="path3640-9"
   sodipodi:nodetypes="ccccc" /><path
   sodipodi:nodetypes="ccccc"
   id="path3638-3"
   d="m 33.617338,39.339888 1.88321,-3.025051 -1.7271,3.160895 -0.0365,-0.10746 z"
   style="opacity:0.0819672;fill:#000000;fill-opacity:0.208163;fill-rule:evenodd;stroke:none;stroke-width:0.274781px;stroke-linecap:butt;stroke-linejoin:miter;stroke-opacity:1" /><path
   id="path2883-1"
   d="m 37.906538,38.903544 -1.69047,-3.784295 1.03913,11.195086 z"
   style="fill:url(#radialGradient2885-9);fill-opacity:1;fill-rule:evenodd;stroke:none;stroke-width:0.274781px;stroke-linecap:butt;stroke-linejoin:miter;stroke-opacity:1"
   sodipodi:nodetypes="cccc" /></svg>
