<?xml version="1.0" encoding="UTF-8" standalone="no"?>
<svg
   width="48"
   height="48"
   version="1.1"
   id="svg42"
   sodipodi:docname="kipi-dngconverter.svg"
   inkscape:version="1.2.1 (9c6d41e410, 2022-07-14)"
   xmlns:inkscape="http://www.inkscape.org/namespaces/inkscape"
   xmlns:sodipodi="http://sodipodi.sourceforge.net/DTD/sodipodi-0.dtd"
   xmlns="http://www.w3.org/2000/svg"
   xmlns:svg="http://www.w3.org/2000/svg">
  <sodipodi:namedview
     id="namedview44"
     pagecolor="#ffffff"
     bordercolor="#666666"
     borderopacity="1.0"
     inkscape:showpageshadow="2"
     inkscape:pageopacity="0.0"
     inkscape:pagecheckerboard="0"
     inkscape:deskcolor="#d1d1d1"
     showgrid="false"
     inkscape:zoom="4.9166667"
     inkscape:cx="24"
     inkscape:cy="24"
     inkscape:window-width="1920"
     inkscape:window-height="1009"
     inkscape:window-x="0"
     inkscape:window-y="0"
     inkscape:window-maximized="1"
     inkscape:current-layer="svg42" />
  <defs
     id="defs22">
    <linearGradient
       id="b"
       y1="531.8"
       y2="507.82"
       x2="0"
       gradientUnits="userSpaceOnUse"
       gradientTransform="matrix(1,0,0,1.33561,-315.54917,-708.84887)">
      <stop
         stop-color="#2a2c2f"
         id="stop2" />
      <stop
         offset="1"
         stop-color="#424649"
         id="stop4" />
    </linearGradient>
    <linearGradient
       id="c"
       y1="577.8"
       y2="541.8"
       gradientUnits="userSpaceOnUse"
       x2="0"
       gradientTransform="matrix(1.50001,0,0,1,-519.83617,-574.40887)">
      <stop
         stop-color="#c6cdd1"
         id="stop7" />
      <stop
         offset="1"
         stop-color="#e0e5e7"
         id="stop9" />
    </linearGradient>
    <linearGradient
       id="d"
       y1="532.8"
       x1="409.57"
       y2="543.8"
       x2="420.57"
       gradientUnits="userSpaceOnUse"
       gradientTransform="translate(-316.54617,-546.39887)">
      <stop
         stop-opacity=".314"
         id="stop12" />
      <stop
         offset="1"
         stop-opacity="0"
         id="stop14" />
    </linearGradient>
    <linearGradient
       id="e"
       y1="540.8"
       y2="522.8"
       gradientUnits="userSpaceOnUse"
       x2="0"
       gradientTransform="translate(-420.57,-558.57503)">
      <stop
         stop-color="#f62020"
         id="stop17" />
      <stop
         offset="1"
         stop-color="#f8507b"
         id="stop19" />
    </linearGradient>
  </defs>
  <circle
     cx="24"
     cy="24"
     r="21"
     fill="#ae1b29"
     style="stroke-width:0.77776;paint-order:stroke fill markers"
     id="circle2" />
  <circle
     cx="24"
     cy="24"
     r="18.66667"
     fill="#ffffff"
     opacity="0.15"
     style="stroke-width:0.77776;paint-order:stroke fill markers"
     id="circle4" />
  <path
     fill="#ffffff"
     d="m 9.8149245,12.65 v 1.41875 H 38.189918 V 12.65 Z m -0.0053,4.25625 v 14.1875 h 1.4187505 c 4.256249,0 5.675,-2.834655 5.675,-7.07105 0,-4.27043 -1.41875,-7.122125 -5.675,-7.122125 z m 9.9312495,0 v 0.002 h -0.002 l 0.002,0.008 V 31.0924 h 1.41875 V 20.465962 l 4.247733,10.629275 h 1.418755 v -0.002 h 0.0028 V 16.905738 h -1.41875 v 10.6463 l -4.192414,-10.491654 -0.05818,-0.154646 z m 18.440907,0 c -4.256251,0 -8.506819,1.41875 -8.506819,7.049765 0,5.71757 2.831826,7.13632 7.088068,7.13632 h 1.418826 v -7.09375 h -2.832113 v 1.41875 h 1.413111 v 4.25625 c -4.256245,0 -5.66932,-1.41875 -5.66932,-5.631015 0,-4.29882 2.831819,-5.71757 7.088069,-5.71757 z M 11.228374,18.325 c 4.25625,0 4.25625,4.25625 4.25625,5.675 0,1.41875 0,5.675 -4.25625,5.675 z M 9.8152995,33.93125 V 35.35 H 38.190376 v -1.41875 z"
     id="path34-3"
     style="stroke-width:1.41875;stroke-linejoin:bevel" />
</svg>
