<?xml version="1.0" encoding="UTF-8" standalone="no"?>
<!-- Created with Inkscape (http://www.inkscape.org/) -->

<svg
   width="48"
   height="48"
   id="svg2"
   sodipodi:version="0.32"
   inkscape:version="1.2.1 (9c6d41e410, 2022-07-14)"
   version="1.0"
   sodipodi:docname="kmahjongg.svg"
   inkscape:output_extension="org.inkscape.output.svgz.inkscape"
   inkscape:export-filename="/home/it-s/hi128-app-kmahjongg.png"
   inkscape:export-xdpi="115.2"
   inkscape:export-ydpi="115.2"
   xmlns:inkscape="http://www.inkscape.org/namespaces/inkscape"
   xmlns:sodipodi="http://sodipodi.sourceforge.net/DTD/sodipodi-0.dtd"
   xmlns:xlink="http://www.w3.org/1999/xlink"
   xmlns="http://www.w3.org/2000/svg"
   xmlns:svg="http://www.w3.org/2000/svg"
   xmlns:rdf="http://www.w3.org/1999/02/22-rdf-syntax-ns#"
   xmlns:cc="http://creativecommons.org/ns#"
   xmlns:dc="http://purl.org/dc/elements/1.1/">
  <defs
     id="defs4">
    <linearGradient
       inkscape:collect="always"
       id="linearGradient20837">
      <stop
         style="stop-color:#ffffff;stop-opacity:1;"
         offset="0"
         id="stop20839" />
      <stop
         id="stop20847"
         offset="0.20930226"
         style="stop-color:#ffffff;stop-opacity:0.9004329" />
      <stop
         id="stop20845"
         offset="0.53488368"
         style="stop-color:#ff0942;stop-opacity:0" />
      <stop
         style="stop-color:#ffffff;stop-opacity:0;"
         offset="1"
         id="stop20841" />
    </linearGradient>
    <inkscape:perspective
       sodipodi:type="inkscape:persp3d"
       inkscape:vp_x="0 : -2 : 1"
       inkscape:vp_y="0 : 1000 : 0"
       inkscape:vp_z="100 : -2 : 1"
       inkscape:persp3d-origin="50 : -18.666667 : 1"
       id="perspective15896" />
    <linearGradient
       id="linearGradient3596"
       inkscape:collect="always">
      <stop
         id="stop3598"
         offset="0"
         style="stop-color:#9f1701;stop-opacity:1" />
      <stop
         id="stop3600"
         offset="1"
         style="stop-color:#9f1701;stop-opacity:0" />
    </linearGradient>
    <linearGradient
       inkscape:collect="always"
       id="linearGradient3486">
      <stop
         style="stop-color:#0c0000;stop-opacity:1"
         offset="0"
         id="stop3488" />
      <stop
         style="stop-color:#3b0300;stop-opacity:0;"
         offset="1"
         id="stop3490" />
    </linearGradient>
    <linearGradient
       inkscape:collect="always"
       id="linearGradient3464">
      <stop
         style="stop-color:#600b01;stop-opacity:1;"
         offset="0"
         id="stop3466" />
      <stop
         style="stop-color:#600b01;stop-opacity:0;"
         offset="1"
         id="stop3468" />
    </linearGradient>
    <linearGradient
       id="linearGradient3331">
      <stop
         style="stop-color:#ffebf2;stop-opacity:1;"
         offset="0"
         id="stop3333" />
      <stop
         style="stop-color:#fe005d;stop-opacity:0;"
         offset="1"
         id="stop3335" />
    </linearGradient>
    <linearGradient
       inkscape:collect="always"
       id="linearGradient3312">
      <stop
         style="stop-color:#795a5a;stop-opacity:1;"
         offset="0"
         id="stop3314" />
      <stop
         style="stop-color:#795a5a;stop-opacity:0;"
         offset="1"
         id="stop3316" />
    </linearGradient>
    <linearGradient
       id="linearGradient3286">
      <stop
         style="stop-color:#600b01;stop-opacity:1;"
         offset="0"
         id="stop3288" />
      <stop
         id="stop3296"
         offset="0.05720339"
         style="stop-color:#9f1701;stop-opacity:1;" />
      <stop
         style="stop-color:#6d0d00;stop-opacity:1;"
         offset="0.43245476"
         id="stop3298" />
      <stop
         id="stop3294"
         offset="0.5"
         style="stop-color:#9f1701;stop-opacity:1;" />
      <stop
         style="stop-color:#6d0d00;stop-opacity:1;"
         offset="0.61419129"
         id="stop3300" />
      <stop
         id="stop3302"
         offset="0.94915253"
         style="stop-color:#540800;stop-opacity:1;" />
      <stop
         style="stop-color:#3b0300;stop-opacity:1"
         offset="1"
         id="stop3290" />
    </linearGradient>
    <linearGradient
       inkscape:collect="always"
       xlink:href="#linearGradient3286"
       id="linearGradient3415"
       gradientUnits="userSpaceOnUse"
       gradientTransform="translate(-12,-6)"
       x1="53.26244"
       y1="8.8552914"
       x2="21.69101"
       y2="90.266426" />
    <radialGradient
       inkscape:collect="always"
       xlink:href="#linearGradient3312"
       id="radialGradient3417"
       gradientUnits="userSpaceOnUse"
       gradientTransform="matrix(0.01114388,0.9999379,-1.7243426,0.01921706,44.720729,-18.022868)"
       cx="24.648008"
       cy="18.759262"
       fx="24.648008"
       fy="18.759262"
       r="35" />
    <radialGradient
       inkscape:collect="always"
       xlink:href="#linearGradient3331"
       id="radialGradient3419"
       gradientUnits="userSpaceOnUse"
       gradientTransform="matrix(0.03288813,0.999459,-1.9517213,0.06422321,46.170182,-14.296561)"
       cx="19.309795"
       cy="20.236214"
       fx="19.309795"
       fy="20.236214"
       r="29.265625" />
    <linearGradient
       inkscape:collect="always"
       xlink:href="#linearGradient3331"
       id="linearGradient3421"
       gradientUnits="userSpaceOnUse"
       x1="23.824764"
       y1="11.478929"
       x2="25.351994"
       y2="15.086097" />
    <linearGradient
       inkscape:collect="always"
       xlink:href="#linearGradient3331"
       id="linearGradient3425"
       gradientUnits="userSpaceOnUse"
       x1="23.824764"
       y1="11.478929"
       x2="25.351994"
       y2="15.086097" />
    <linearGradient
       inkscape:collect="always"
       xlink:href="#linearGradient3331"
       id="linearGradient3427"
       gradientUnits="userSpaceOnUse"
       x1="23.824764"
       y1="11.478929"
       x2="25.351994"
       y2="15.086097" />
    <linearGradient
       inkscape:collect="always"
       xlink:href="#linearGradient3286"
       id="linearGradient3440"
       gradientUnits="userSpaceOnUse"
       x1="78.849602"
       y1="16.027075"
       x2="43.563725"
       y2="96.220436" />
    <linearGradient
       inkscape:collect="always"
       xlink:href="#linearGradient3464"
       id="linearGradient3452"
       x1="76.406433"
       y1="87.774971"
       x2="28.61768"
       y2="38.874859"
       gradientUnits="userSpaceOnUse" />
    <linearGradient
       inkscape:collect="always"
       xlink:href="#linearGradient3464"
       id="linearGradient3470"
       x1="70.849594"
       y1="41.931114"
       x2="72.238808"
       y2="41.931114"
       gradientUnits="userSpaceOnUse"
       spreadMethod="reflect" />
    <linearGradient
       inkscape:collect="always"
       xlink:href="#linearGradient3464"
       id="linearGradient3476"
       gradientUnits="userSpaceOnUse"
       spreadMethod="reflect"
       x1="70.849594"
       y1="41.931114"
       x2="72.238808"
       y2="41.931114"
       gradientTransform="translate(-154.45694,0.856484)" />
    <radialGradient
       inkscape:collect="always"
       xlink:href="#linearGradient3486"
       id="radialGradient3496"
       gradientUnits="userSpaceOnUse"
       gradientTransform="matrix(0,0.3683372,-1.4362017,0,182.04734,15.25095)"
       cx="208.50966"
       cy="106.87013"
       fx="208.50966"
       fy="106.87013"
       r="41.786453" />
    <linearGradient
       inkscape:collect="always"
       xlink:href="#linearGradient3486"
       id="linearGradient3498"
       x1="83.572906"
       y1="44.366917"
       x2="69.402992"
       y2="46.033966"
       gradientUnits="userSpaceOnUse" />
    <radialGradient
       inkscape:collect="always"
       xlink:href="#linearGradient3464"
       id="radialGradient3561"
       cx="62.57476"
       cy="56.654064"
       fx="62.57476"
       fy="56.654064"
       r="32.273457"
       gradientTransform="matrix(0.7531466,0.3270109,-0.6398814,1.4737263,57.644341,-47.559567)"
       gradientUnits="userSpaceOnUse" />
    <radialGradient
       inkscape:collect="always"
       xlink:href="#linearGradient3596"
       id="radialGradient3588"
       cx="71.397865"
       cy="88.997154"
       fx="71.397865"
       fy="88.997154"
       r="41.786453"
       gradientTransform="matrix(0.2697932,-0.3717979,0.2784105,0.2020311,35.371405,94.839033)"
       gradientUnits="userSpaceOnUse" />
    <radialGradient
       inkscape:collect="always"
       xlink:href="#linearGradient3486"
       id="radialGradient3622"
       cx="76.546875"
       cy="86.796875"
       fx="76.546875"
       fy="86.796875"
       r="4.546875"
       gradientTransform="matrix(1,0,0,0.6151203,0,33.406357)"
       gradientUnits="userSpaceOnUse" />
    <radialGradient
       inkscape:collect="always"
       xlink:href="#linearGradient3596"
       id="radialGradient3642"
       cx="87.171638"
       cy="84.320442"
       fx="87.171638"
       fy="84.320442"
       r="35.224953"
       gradientTransform="matrix(2.372004,1.4291419e-7,-1.584155e-7,2.6135768,-119.59982,-129.12448)"
       gradientUnits="userSpaceOnUse" />
    <radialGradient
       inkscape:collect="always"
       xlink:href="#linearGradient3596"
       id="radialGradient3723"
       cx="79.879448"
       cy="83.607346"
       fx="83.769226"
       fy="94.333191"
       r="15.142365"
       gradientTransform="matrix(1,0,0,0.8807339,0,9.9715183)"
       gradientUnits="userSpaceOnUse" />
    <radialGradient
       inkscape:collect="always"
       xlink:href="#linearGradient3331"
       id="radialGradient16833"
       gradientUnits="userSpaceOnUse"
       gradientTransform="matrix(0,2.1008005,-1.7609368,0,52.830344,-30.654682)"
       cx="19.309795"
       cy="20.236214"
       fx="19.309795"
       fy="20.236214"
       r="29.265625" />
    <radialGradient
       inkscape:collect="always"
       xlink:href="#linearGradient20837"
       id="radialGradient20843"
       cx="25.112688"
       cy="11.544944"
       fx="25.112688"
       fy="11.544944"
       r="12.304717"
       gradientTransform="matrix(1,0,0,0.618034,0,4.409776)"
       gradientUnits="userSpaceOnUse" />
    <filter
       inkscape:collect="always"
       id="filter19243-3"
       x="-0.013150549"
       y="-0.011120992"
       width="1.0263011"
       height="1.022242">
      <feGaussianBlur
         inkscape:collect="always"
         stdDeviation="0.35112687"
         id="feGaussianBlur19245-6" />
    </filter>
    <filter
       inkscape:collect="always"
       id="filter20766-5"
       x="-0.028127656"
       y="-0.020928725"
       width="1.0562553"
       height="1.0418575">
      <feGaussianBlur
         inkscape:collect="always"
         stdDeviation="0.49516509"
         id="feGaussianBlur20768-6" />
    </filter>
    <linearGradient
       inkscape:collect="always"
       xlink:href="#linearGradient3331"
       id="linearGradient925"
       gradientUnits="userSpaceOnUse"
       gradientTransform="matrix(0.2818157,0,0,0.20160081,8.8476355,7.3888776)"
       x1="23.824764"
       y1="11.478929"
       x2="25.351994"
       y2="15.086097" />
    <linearGradient
       inkscape:collect="always"
       xlink:href="#linearGradient3331"
       id="linearGradient927"
       gradientUnits="userSpaceOnUse"
       gradientTransform="matrix(0.15941835,0,0,0.11404217,17.178215,8.3170356)"
       x1="23.824764"
       y1="11.478929"
       x2="25.351994"
       y2="15.086097" />
  </defs>
  <sodipodi:namedview
     id="base"
     pagecolor="#ffffff"
     bordercolor="#666666"
     borderopacity="1.0"
     gridtolerance="10000"
     guidetolerance="10"
     objecttolerance="10"
     inkscape:pageopacity="0.0"
     inkscape:pageshadow="2"
     inkscape:zoom="3.7476659"
     inkscape:cx="10.139645"
     inkscape:cy="71.244344"
     inkscape:document-units="px"
     inkscape:current-layer="layer1"
     width="100px"
     height="100px"
     inkscape:window-width="1920"
     inkscape:window-height="1009"
     inkscape:window-x="0"
     inkscape:window-y="0"
     showguides="true"
     inkscape:guide-bbox="true"
     showgrid="false"
     inkscape:showpageshadow="2"
     inkscape:pagecheckerboard="0"
     inkscape:deskcolor="#d1d1d1"
     inkscape:window-maximized="1" />
  <metadata
     id="metadata7">
    <rdf:RDF>
      <cc:Work
         rdf:about="">
        <dc:format>image/svg+xml</dc:format>
        <dc:type
           rdf:resource="http://purl.org/dc/dcmitype/StillImage" />
      </cc:Work>
    </rdf:RDF>
  </metadata>
  <g
     inkscape:label="Layer 1"
     inkscape:groupmode="layer"
     id="layer1">
    <use
       style="display:inline;fill:#44000d;fill-opacity:1;stroke:#53000b;stroke-width:2.48693;stroke-linecap:round;stroke-linejoin:round;stroke-miterlimit:4;stroke-dasharray:none;stroke-opacity:1"
       x="0"
       y="0"
       inkscape:tiled-clone-of="#facesize"
       xlink:href="#facesize"
       transform="matrix(0.8042047,0,0,0.8042047,74.343852,-87.923384)"
       id="use18335"
       width="774"
       height="1060" />
    <use
       height="1060"
       width="774"
       id="use8916"
       transform="matrix(0.8042047,0,0,0.8042047,75.944862,-86.856044)"
       xlink:href="#facesize"
       inkscape:tiled-clone-of="#facesize"
       y="0"
       x="0"
       style="display:inline;fill:#eeeeec;fill-opacity:1" />
    <use
       height="1060"
       width="774"
       id="use20745"
       transform="matrix(0.8042047,0,0,0.8042047,6.1217796,-84.552005)"
       xlink:href="#facesize"
       inkscape:tiled-clone-of="#facesize"
       y="0"
       x="0"
       style="display:inline;fill:#eeeeec;fill-opacity:1" />
    <use
       style="display:inline;fill:#eeeeec;fill-opacity:1"
       x="0"
       y="0"
       inkscape:tiled-clone-of="#facesize"
       xlink:href="#facesize"
       transform="matrix(0.8042047,0,0,0.8042047,6.6554496,-83.484665)"
       id="use20751"
       width="774"
       height="1060" />
    <circle
       cx="24"
       cy="24"
       r="21"
       fill="#ae1b29"
       style="stroke-width:0.77776;paint-order:stroke fill markers"
       id="circle2" />
    <ellipse
       cx="24"
       cy="24.399506"
       fill="#ffffff"
       opacity="0.15"
       style="stroke-width:0.769378;paint-order:stroke fill markers"
       id="circle4"
       rx="18.66667"
       ry="18.266506" />
    <path
       style="fill:#3b0300;fill-opacity:0.518072;fill-rule:nonzero;stroke:none;stroke-width:1px;stroke-linecap:butt;stroke-linejoin:miter;stroke-opacity:1;filter:url(#filter19243-3)"
       d="m 24.975769,6.7924528 c -0.256761,0.2879347 -0.440775,0.7513365 -0.53542,1.46536 7.760423,2.4461982 15.981031,3.4806552 23.84028,5.7487202 2.157734,0.617312 8.68418,2.996626 3.0998,2.45166 -12.956295,-1.616898 -25.987407,-3.98282 -38.21208,-8.6794402 -0.220982,0.3404874 -0.33816,0.7738886 -0.33816,1.21174 v 0.64814 c 3.730764,1.0847952 8.294721,0.8586362 11.4129,3.3252402 5.785258,2.488642 12.200188,4.238702 17.02072,8.39764 -7.303053,-1.852859 -14.504144,-4.636129 -21.95222,-6.17142 -1.484444,-0.967994 -4.217936,-2.522755 -6.4814,-3.32524 v 2.22622 c 9.465364,3.513127 17.948653,9.423491 27.27824,13.30096 8.636429,4.418878 17.087863,9.29456 24.77022,15.24538 -3.379562,-4.407899 -8.884193,-6.320334 -13.2446,-9.55302 -9.785336,-5.802828 -20.109289,-10.616827 -29.98352,-16.25986 5.799887,-0.08451 10.883037,3.350623 16.4853,4.39608 10.656964,3.47191 18.608132,11.644317 27.53186,18.00702 3.741796,2.842531 7.479582,5.669079 11.24382,8.48218 v -0.7045 c -1.667802,-1.159639 -3.286647,-2.381081 -4.76242,-3.77612 -7.633561,-5.713822 -15.166601,-11.563921 -22.62854,-17.49978 9.008828,3.120658 17.132258,8.842037 26.74282,10.11662 0.176119,0.183602 0.409242,0.326136 0.64814,0.45088 v -1.2681 c -9.639814,-1.872335 -18.335163,-6.887427 -27.4755,-10.31388 -7.232576,-3.719031 -13.566829,-9.173085 -21.44498,-11.61016 -3.624259,-1.431538 4.138673,0.988727 5.60782,1.04266 8.609056,1.701613 17.365515,2.511953 25.98196,4.17064 1.51759,1.680238 8.863997,4.140395 4.33972,0.8454 3.749173,-1.797054 8.621398,1.583235 12.681,2.19804 0.0896,0.05205 0.207127,0.120901 0.30998,0.16908 v -1.74716 C 70.761392,18.092422 64.091176,18.7999 58.002729,16.627273 50.025574,14.06242 42.104783,11.260613 33.852469,9.6949928 31.804842,10.119917 29.117402,7.7316156 27.117449,6.7924528 Z m 15.2172,0 c 3.442066,3.0925174 6.959472,6.6106772 12.17376,5.8896202 5.113647,-0.655642 9.74041,1.475759 14.59724,2.56438 3.269935,0.712833 6.604588,1.221582 9.94754,1.43718 v -0.8454 c -4.984032,-0.334393 -9.959064,-2.209527 -14.85086,-2.98708 -1.98373,-0.777692 -0.555639,-1.311037 0.7045,-1.07084 4.681261,0.897179 9.442644,1.379861 14.14636,2.14168 v -3.46614 c -4.89831,-0.363643 -10.042879,0.97269 -14.62542,-1.3808202 -2.371346,-0.6841689 -4.700959,-1.4954513 -7.045,-2.28258 h -4.76242 c 3.438594,0.7404546 6.993071,1.2578677 9.89118,3.3252402 C 55.539424,9.5889729 50.914903,7.9926476 46.223489,6.7924528 Z m 4.227,1.23992 c 1.923704,0.1085313 9.808465,2.4421242 6.36868,3.6634002 -2.459769,-0.329281 -5.146753,-1.333737 -6.36868,-3.6634002 z m 10.82112,2.3389402 c 3.707326,-0.01797 3.202126,1.813037 0,0 z m 16.09078,0.76086 c 2.56692,-0.04592 6.067646,0.169891 4.48062,1.2681 -2.208499,-0.110101 -4.415382,-0.423904 -6.50958,-1.15538 0.42274,-0.05216 1.17332,-0.09741 2.02896,-0.11272 z m -58.50168,14.6536 v 1.88806 c 3.414775,2.893923 8.880023,3.482703 11.94832,7.045 4.935678,3.169182 9.723014,6.552505 14.48452,9.97572 -9.297075,-3.96674 -18.396296,-8.615467 -26.43284,-14.7945 v 2.47984 c 2.070725,2.199784 7.359898,2.957618 9.38394,5.15694 1.782613,0.898606 7.393877,3.631493 2.76164,1.5499 -4.080295,-1.8159 -8.096455,-3.809417 -12.14558,-5.69236 v 0.87358 c 4.969783,2.860832 10.625626,4.515321 15.72444,7.12954 11.609947,4.294614 22.565557,10.150467 32.91424,16.908 4.569368,2.675721 9.171679,5.271406 13.83638,7.77768 -6.871146,-5.633192 -15.390802,-8.653248 -22.71308,-13.58276 -2.324914,-0.961599 -5.674369,-4.133261 -1.1272,-1.63444 5.748969,2.750915 11.199017,6.092319 16.79528,9.13032 -2.859035,-3.864214 -8.394393,-4.186158 -11.5538,-7.55224 6.744931,2.227397 13.470993,4.474935 20.20506,6.73502 v -1.57808 c -2.233246,-0.369795 -4.788164,-0.575851 -6.14324,-1.71898 -12.674182,-4.218833 -26.391527,-7.081535 -36.85944,-15.9217 -6.774751,-5.06549 -13.594543,-10.19582 -21.07864,-14.17454 z m 0.02818,22.88216 c -0.0098,0.01027 -0.01855,0.01793 -0.02818,0.02818 v 4.28336 c 1.894037,2.137518 5.92958,3.97768 7.15772,6.0587 6.853306,5.499445 15.1328,8.788983 22.45946,13.55458 C 31.362072,68.864709 22.08415,61.753965 12.830189,54.782993 v 1.2681 c 3.030177,1.98711 6.200975,3.838416 8.56672,6.59412 -2.926724,-1.379322 -5.779458,-2.888406 -8.56672,-4.5088 v 0.92994 c 8.048836,4.531557 16.278923,8.732894 24.15026,13.55458 4.059375,2.840349 7.899752,6.083948 11.01838,9.94754 h 3.15616 c -0.40567,-1.408022 -1.749011,-3.112971 -3.15616,-3.04344 -1.977603,-2.274058 -8.103278,-5.830433 -7.97494,-6.9041 6.96278,2.748974 13.517739,6.303437 20.03598,9.94754 h 1.49354 c -2.243364,-1.221274 -4.164927,-3.377825 0.1409,-1.88806 4.608508,0.58925 9.253375,1.862631 13.92092,1.409 -5.254981,-2.744216 -11.629754,-0.09155 -16.908,-3.04344 C 46.369282,75.212766 35.785598,67.51124 24.919409,60.785333 20.27703,57.447993 15.902135,53.557897 12.858369,48.667933 Z m -0.02818,20.8532 v 0.64814 c 2.971786,5.444352 10.332404,6.60172 13.58276,11.89196 -4.306743,-2.435818 -8.746713,-5.063682 -13.58276,-6.28414 v 2.9589 c 2.743185,1.563552 5.794408,2.603384 8.67944,3.83248 h 8.36946 c -0.189708,-1.24857 -1.377323,-2.636837 -3.55068,-3.15616 -4.483453,-3.308255 -8.409554,-7.480529 -13.49822,-9.89118 z m 5.10058,9.66574 c 0.509378,0.178605 -0.505794,0.197563 0,0 z"
       id="path3247-7"
       transform="matrix(0.50920431,0,0,0.39220603,1.1515694,6.8755487)" />
    <path
       id="path18333-2"
       d="m 21.030645,12.262785 c -0.851017,-0.158149 -0.128802,0.508099 0.01938,0.868683 0.784447,1.230623 0.520921,2.73719 0.625625,4.118446 0.02032,0.571088 0.03501,1.142211 0.01558,1.713549 -1.742935,0.320927 -3.480839,0.673867 -5.235644,0.925508 -0.422715,-0.215108 -0.44318,-1.032144 -1.034001,-0.885913 -0.504931,0.207132 -1.015427,0.400594 -1.522646,0.602101 0.826651,0.716447 1.201866,1.737493 1.623348,2.710957 0.727715,1.442981 1.372509,2.928517 1.807655,4.486131 0.365689,1.137757 2.097932,0.537993 1.332797,-0.576561 -0.247801,-0.311694 0.593358,-0.137186 0.798397,-0.250556 0.667455,-0.09081 1.339137,-0.140863 2.009889,-0.199911 -0.02874,1.707465 -0.08173,3.414225 -0.195726,5.117651 0.02207,1.54459 -0.04479,3.094272 0.03454,4.635579 0.03386,0.372455 0.05307,0.800347 0.381372,1.044375 0.84568,-0.339102 0.948983,-1.394695 1.077964,-2.196268 0.197994,-1.19736 0.09455,-2.421754 0.15963,-3.631033 0.03599,-1.722583 0.072,-3.445166 0.108,-5.167752 2.062169,-0.22255 4.13432,-0.366878 6.189819,-0.641693 0.565335,-0.171469 0.772454,-1.025548 0.06612,-1.169217 -0.691285,-0.0252 0.111757,-0.611462 0.228125,-0.942522 0.508488,-0.71245 0.948168,-1.487439 1.499584,-2.160867 0.442054,-0.392871 1.240801,-0.745825 0.787303,-1.465537 -0.424014,-0.635623 -1.159009,-0.967119 -1.724856,-1.468484 -0.818917,-0.910825 -1.83494,-0.167318 -2.634109,0.298944 -1.350018,0.388051 -2.751878,0.499027 -4.142847,0.651253 0.02848,-1.461833 0.184219,-2.91939 0.227058,-4.38159 0.165765,-0.432975 0.820557,-1.06037 0.0409,-1.342492 -0.750071,-0.49983 -1.64566,-0.735967 -2.543269,-0.692781 z m 7.425326,7.268329 c 0.161854,0.875004 -0.127244,1.851387 -0.346189,2.723469 -0.261699,0.651493 -0.277843,1.691943 -1.191374,1.594115 -1.2758,0.235213 -2.570998,0.33288 -3.857101,0.495061 0.08155,-1.447909 0.163106,-2.895821 0.244658,-4.343729 1.715758,-0.174841 3.420504,-0.48978 5.150006,-0.468916 z m -6.850375,0.728062 c -0.04485,1.415007 -0.08971,2.830013 -0.134566,4.245019 -1.117259,0.131623 -2.234518,0.263247 -3.351773,0.39487 -0.428147,-1.328616 -0.856295,-2.657232 -1.284438,-3.985851 1.590261,-0.21801 3.180517,-0.436024 4.770777,-0.654038 z"
       style="fill:#44000d;fill-opacity:1;stroke:#53000b;stroke-width:0.853955;stroke-linecap:round;stroke-linejoin:round;stroke-miterlimit:4;stroke-dasharray:none;stroke-opacity:1" />
    <path
       style="fill:#eeeeec;fill-opacity:1;stroke-width:0.343377"
       d="m 21.71424,12.718515 c -0.851017,-0.158149 -0.128802,0.508099 0.01938,0.868683 0.784447,1.230623 0.520921,2.737191 0.625625,4.118446 0.02032,0.571088 0.03501,1.142211 0.01558,1.713549 -1.742934,0.320927 -3.480839,0.673867 -5.235644,0.925508 -0.422716,-0.215108 -0.443181,-1.032144 -1.034001,-0.885913 -0.504931,0.207132 -1.015425,0.400594 -1.522645,0.602101 0.82665,0.716447 1.201865,1.737493 1.623348,2.710957 0.727713,1.442981 1.372508,2.928517 1.807654,4.486132 0.365689,1.137756 2.097932,0.537992 1.332797,-0.576562 -0.2478,-0.311694 0.593358,-0.137186 0.798397,-0.250556 0.667455,-0.09081 1.339138,-0.140863 2.009889,-0.199911 -0.02873,1.707465 -0.08173,3.414225 -0.195726,5.117651 0.02208,1.54459 -0.04479,3.094272 0.03454,4.635579 0.03386,0.372455 0.05307,0.800347 0.381372,1.044375 0.84568,-0.339102 0.948983,-1.394695 1.077965,-2.196268 0.197993,-1.19736 0.09455,-2.421754 0.159629,-3.631033 0.03599,-1.722583 0.072,-3.445166 0.108,-5.167752 2.062169,-0.22255 4.13432,-0.366878 6.189819,-0.641693 0.565336,-0.171469 0.772454,-1.025548 0.06612,-1.169217 -0.691285,-0.0252 0.111757,-0.611462 0.228126,-0.942522 0.508487,-0.71245 0.948167,-1.487438 1.499583,-2.160867 0.442054,-0.392871 1.240801,-0.745825 0.787304,-1.465537 -0.424015,-0.635623 -1.159009,-0.967119 -1.724857,-1.468484 -0.818917,-0.910825 -1.83494,-0.167318 -2.634109,0.298944 -1.350017,0.388051 -2.751878,0.499027 -4.142847,0.651253 0.02848,-1.461833 0.184219,-2.91939 0.227058,-4.38159 0.165766,-0.432975 0.820557,-1.06037 0.0409,-1.342492 -0.750072,-0.49983 -1.645661,-0.735967 -2.54327,-0.692781 z m 7.425326,7.268329 c 0.161854,0.875004 -0.127244,1.851387 -0.346189,2.723469 -0.261699,0.651493 -0.277843,1.691943 -1.191374,1.594115 -1.2758,0.235213 -2.570998,0.33288 -3.857101,0.495061 0.08155,-1.447909 0.163106,-2.895821 0.244659,-4.343729 1.715757,-0.174841 3.420503,-0.48978 5.150005,-0.468916 z m -6.850375,0.728063 c -0.04485,1.415006 -0.08971,2.830012 -0.134566,4.245018 -1.117259,0.131623 -2.234518,0.263247 -3.351773,0.39487 -0.428147,-1.328616 -0.856295,-2.657231 -1.284438,-3.985851 1.590261,-0.21801 3.180517,-0.436024 4.770777,-0.654037 z"
       id="path2463-9" />
    <ellipse
       id="path3396-1"
       style="fill:url(#linearGradient925);fill-opacity:1;fill-rule:nonzero;stroke:none;stroke-width:0.238358;stroke-linecap:butt;stroke-linejoin:round;stroke-miterlimit:4;stroke-dasharray:none;stroke-dashoffset:0;stroke-opacity:1"
       cx="15.561831"
       cy="9.9376278"
       rx="0.77471453"
       ry="0.49262485" />
    <ellipse
       style="fill:url(#linearGradient927);fill-opacity:1;fill-rule:nonzero;stroke:none;stroke-width:0.134835;stroke-linecap:butt;stroke-linejoin:round;stroke-miterlimit:4;stroke-dasharray:none;stroke-dashoffset:0;stroke-opacity:1"
       id="path3400-2"
       cx="20.976324"
       cy="9.7588215"
       rx="0.43824282"
       ry="0.27866954" />
    <path
       style="fill:#888a85;fill-opacity:1;filter:url(#filter20766-5)"
       d="m -35.134129,-16.686842 c -0.69648,0.04295 -0.27138,0.684078 0.15625,1.3125 0.0186,-0.22147 0.25236,-0.314823 0.9375,-0.1875 2.10224,-0.101145 4.21204,0.454376 5.96875,1.625 0.11412,0.0413 0.22352,0.07769 0.3125,0.125 0.0962,-0.480025 -0.0621,-0.90467 -0.84375,-1.1875 -1.75671,-1.170625 -3.86651,-1.726145 -5.96875,-1.625 -0.24914,-0.0463 -0.41868,-0.07137 -0.5625,-0.0625 z m 1.21875,3.25 c 1.08292,2.635827 0.66212,5.69172 0.875,8.5 0.0476,1.337513 0.0767,2.6619 0.0312,4.00000005 -4.08203,0.751625 -8.17143,1.566896 -12.28125,2.15624995 -0.99002,-0.50379395 -1.02253,-2.404978 -2.406247,-2.06249995 -1.18258,0.485114 -2.37457,0.934311 -3.5625,1.40625 0.3282,0.28445 0.63313,0.58481595 0.90625,0.90624995 1.06319,-0.418828 2.13034,-0.81633595 3.1875,-1.24999995 1.383717,-0.342478 1.416217,1.58995495 2.406247,2.09374995 4.10982,-0.589354 8.19922,-1.43587395 12.28125,-2.18749995 0.0455,-1.33810005 0.0163,-2.66248605 -0.0312,-4.00000005 -0.24255,-3.199675 0.35835,-6.697931 -1.40625,-9.5625 z m 18.25,8.59375 c -1.32989,0.08533 -2.7052,1.036246 -3.875,1.71875 -2.97948,0.856424 -6.05283,1.140952 -9.125,1.46875 -0.0138,0.375435 -0.0239,0.74935205 -0.0312,1.12500005 3.25771,-0.35652 6.5257,-0.62241905 9.6875,-1.53125005 1.87168,-1.092006 4.26956,-2.820693 6.1875,-0.6875 1.23084,1.090575 2.7991,1.83140205 3.8125004,3.12500005 -0.0328,-0.234941 -0.13787,-0.472849 -0.3125,-0.75 C -10.314639,-1.862997 -12.027589,-2.637623 -13.352829,-3.811842 c -0.71923,-0.799948 -1.51457,-1.08245 -2.3125,-1.03125 z m -1.40625,6.3125 c 0.0459,1.756367 -0.48064,3.617262 -0.90625,5.3125 -0.61291,1.525825 -0.64172,3.947868 -2.78125,3.71875 -2.78215,0.512933 -5.63045,0.757374 -8.4375,1.09375 -0.0212,0.375629 -0.0413,0.749371 -0.0625,1.125 3.01211,-0.379834 6.04327,-0.605369 9.03125,-1.15625 2.13953,0.229118 2.16834,-2.192926 2.78125,-3.71875 0.51278,-2.042455 1.19157,-4.325702 0.8125,-6.375 -0.14466,-0.0017 -0.29298,-2.1e-4 -0.4375,0 z m -15.625,1.6875 c -0.18713,0.02565 -0.37538,0.03685 -0.5625,0.0625 -0.0932,2.938878 -0.18809,5.87362 -0.28125,8.8125 -2.55378,0.300856 -5.10248,0.605392 -7.65625,0.90625 0.11714,0.363524 0.2266,0.730226 0.34375,1.09375 2.61666,-0.308268 5.22707,-0.629231 7.84375,-0.9375 0.10505,-3.314007 0.20745,-6.623492 0.3125,-9.9375 z m -15.499996,2.03125 c 0.25145,0.571016 0.47196,1.148776 0.71875,1.71875 1.704326,3.379527 3.230866,6.883248 4.249996,10.53125 0.10706,0.333085 0.2481,0.600989 0.4375,0.8125 -1.01756,-3.554923 -2.46056,-6.980836 -4.125,-10.28125 -0.406996,-0.940013 -0.829386,-1.861161 -1.281246,-2.78125 z m 33.218746,5.1875 c -0.40094,0.529666 -0.6052,0.966537 0.3125,1 0.20678,0.04206 0.35753,0.131068 0.5,0.21875 0.0463,-0.513569 -0.18178,-1.006614 -0.8125,-1.21875 z m -18.03125,5.71875 c -0.18815,0.01656 -0.37431,0.01509 -0.5625,0.03125 -0.0712,3.632215 -0.16373,7.251054 -0.40625,10.875 0.0517,3.6175 -0.12334,7.265191 0.0625,10.875 0.0706,0.776894 0.13566,1.631812 0.6875,2.21875 -0.0864,-0.386634 -0.12133,-0.772111 -0.15625,-1.15625 -0.18584,-3.609809 -0.0108,-7.257501 -0.0625,-10.875 0.26699,-3.989499 0.37022,-7.969792 0.4375,-11.96875 z"
       id="path20743-7"
       transform="matrix(0.42697744,0,0,0.42697744,36.471592,19.81817)" />
  </g>
</svg>
