<?xml version="1.0" encoding="UTF-8" standalone="no"?>
<svg
   height="48"
   width="48"
   version="1.1"
   id="svg122"
   sodipodi:docname="kolourpaint.svg"
   inkscape:version="1.2.1 (9c6d41e410, 2022-07-14)"
   xmlns:inkscape="http://www.inkscape.org/namespaces/inkscape"
   xmlns:sodipodi="http://sodipodi.sourceforge.net/DTD/sodipodi-0.dtd"
   xmlns:xlink="http://www.w3.org/1999/xlink"
   xmlns="http://www.w3.org/2000/svg"
   xmlns:svg="http://www.w3.org/2000/svg">
  <defs
     id="defs126">
    <linearGradient
       inkscape:collect="always"
       id="linearGradient1966">
      <stop
         style="stop-color:#80e5ff;stop-opacity:1;"
         offset="0"
         id="stop1962" />
      <stop
         style="stop-color:#00ff66;stop-opacity:1"
         offset="1"
         id="stop1964" />
    </linearGradient>
    <linearGradient
       id="linearGradient2163"
       x1="-177.09"
       x2="-177.09"
       y1="-1.3372"
       y2="-15.638"
       gradientTransform="matrix(2.8220986,0,0,2.8220986,525.03118,47.538498)"
       gradientUnits="userSpaceOnUse">
      <stop
         stop-color="#78b4dc"
         offset="0"
         id="stop311" />
      <stop
         stop-color="#0096f0"
         offset="1"
         id="stop313" />
    </linearGradient>
    <linearGradient
       id="linearGradient2230-5"
       x1="-235.64"
       x2="-175.89"
       y1="49.390999"
       y2="49.390999"
       gradientTransform="matrix(0.7609755,0,0,0.7609755,178.93899,-0.069701)"
       gradientUnits="userSpaceOnUse">
      <stop
         stop-color="#2d69e6"
         offset="0"
         id="stop353" />
      <stop
         stop-color="#3791d7"
         offset=".3497"
         id="stop355" />
      <stop
         stop-color="#2887cd"
         offset="1"
         id="stop357" />
    </linearGradient>
    <linearGradient
       id="linearGradient2208"
       x1="-230.89"
       x2="-207.22"
       y1="41.877998"
       y2="41.877998"
       gradientTransform="matrix(0.74669591,0,0,0.74669591,176.02321,-0.013897)"
       gradientUnits="userSpaceOnUse">
      <stop
         stop-color="#b4dcff"
         offset="0"
         id="stop316" />
      <stop
         stop-color="#c8faff"
         offset="1"
         id="stop318" />
    </linearGradient>
    <linearGradient
       id="linearGradient2216"
       x1="-192.39"
       x2="-175.89"
       y1="41.966999"
       y2="34.297001"
       gradientTransform="matrix(0.74669591,0,0,0.74669591,176.02321,-0.013897)"
       gradientUnits="userSpaceOnUse">
      <stop
         stop-color="#96d9ff"
         offset="0"
         id="stop321" />
      <stop
         stop-color="#f0fafa"
         offset="1"
         id="stop323" />
    </linearGradient>
    <filter
       id="filter2295"
       x="-0.10309986"
       y="-0.10171395"
       width="1.2061997"
       height="1.2034279"
       color-interpolation-filters="sRGB">
      <feGaussianBlur
         stdDeviation="0.2628844"
         id="feGaussianBlur350" />
    </filter>
    <filter
       id="filter1300"
       x="-0.098700504"
       y="-0.10552551"
       width="1.197401"
       height="1.211051"
       color-interpolation-filters="sRGB">
      <feGaussianBlur
         stdDeviation="1.2057169"
         id="feGaussianBlur362" />
    </filter>
    <linearGradient
       id="linearGradient2266"
       x1="-56.396999"
       x2="-53.078999"
       y1="10.521"
       y2="6.9878001"
       gradientTransform="matrix(2.8221934,0,0,2.8221934,176.04928,-0.013847)"
       gradientUnits="userSpaceOnUse">
      <stop
         stop-color="#ecf2fb"
         offset="0"
         id="stop326" />
      <stop
         stop-color="#a6c0dc"
         offset=".22547"
         id="stop328" />
      <stop
         stop-color="#c8d9e8"
         offset=".49357"
         id="stop330" />
      <stop
         stop-color="#fbfcfd"
         offset=".88103"
         id="stop332" />
      <stop
         stop-color="#ebf3fc"
         offset="1"
         id="stop334" />
    </linearGradient>
    <linearGradient
       id="linearGradient2274"
       x1="-51.827999"
       x2="-48.344002"
       y1="15.061"
       y2="11.535"
       gradientTransform="matrix(2.8220986,0,0,2.8220986,176.02321,-0.013897)"
       gradientUnits="userSpaceOnUse">
      <stop
         stop-color="#466d93"
         offset="0"
         id="stop337" />
      <stop
         stop-color="#3f6b95"
         offset=".10596"
         id="stop339" />
      <stop
         stop-color="#203549"
         offset=".22767"
         id="stop341" />
      <stop
         stop-color="#7496a9"
         offset=".51854"
         id="stop343" />
      <stop
         stop-color="#496785"
         offset=".90577"
         id="stop345" />
      <stop
         stop-color="#4c6a8a"
         offset="1"
         id="stop347" />
    </linearGradient>
    <linearGradient
       inkscape:collect="always"
       xlink:href="#linearGradient1966"
       id="linearGradient1968"
       x1="3.624"
       y1="23.817607"
       x2="44.69125"
       y2="23.817607"
       gradientUnits="userSpaceOnUse" />
  </defs>
  <sodipodi:namedview
     id="namedview124"
     pagecolor="#ffffff"
     bordercolor="#666666"
     borderopacity="1.0"
     inkscape:showpageshadow="2"
     inkscape:pageopacity="0.0"
     inkscape:pagecheckerboard="0"
     inkscape:deskcolor="#d1d1d1"
     showgrid="false"
     inkscape:zoom="4.9166667"
     inkscape:cx="24"
     inkscape:cy="24"
     inkscape:window-width="1920"
     inkscape:window-height="1009"
     inkscape:window-x="0"
     inkscape:window-y="0"
     inkscape:window-maximized="1"
     inkscape:current-layer="svg122" />
  <linearGradient
     id="a"
     gradientTransform="matrix(0.71746,0,0,0.7143,191.20209,-464.3841)"
     gradientUnits="userSpaceOnUse"
     x1="-87"
     x2="-87"
     y1="616"
     y2="672">
    <stop
       offset="0"
       stop-color="#d4ba94"
       id="stop2" />
    <stop
       offset="1"
       stop-color="#997657"
       id="stop4" />
  </linearGradient>
  <linearGradient
     id="i"
     gradientTransform="matrix(0,0.71428,-0.71746,0,906.26509,-312.3731)"
     gradientUnits="userSpaceOnUse"
     x1="410"
     x2="421"
     y1="1080.4"
     y2="1080.4">
    <stop
       offset="0"
       stop-color="#e4720c"
       id="stop7" />
    <stop
       offset="1"
       stop-color="#f1d23b"
       id="stop9" />
  </linearGradient>
  <linearGradient
     id="b"
     gradientTransform="matrix(0.71746,0,0,0.71428,-167.52491,-787.4471)"
     gradientUnits="userSpaceOnUse"
     x1="415"
     x2="415"
     y1="1068.4"
     y2="1079.4">
    <stop
       offset="0"
       stop-color="#884d2c"
       id="stop12" />
    <stop
       offset="1"
       stop-color="#ffa92d"
       id="stop14" />
  </linearGradient>
  <linearGradient
     id="j"
     gradientTransform="matrix(0.71746,0,0,0.71428,-167.04491,-787.1941)"
     gradientUnits="userSpaceOnUse"
     x1="424"
     x2="424"
     y1="1074.4"
     y2="1086.4">
    <stop
       offset="0"
       stop-color="#884d2c"
       id="stop17" />
    <stop
       offset="1"
       stop-color="#b7bf31"
       id="stop19" />
  </linearGradient>
  <linearGradient
     id="e"
     gradientTransform="matrix(0.71746,0,0,0.71428,-167.56491,-463.7931)"
     gradientUnits="userSpaceOnUse"
     x1="409"
     x2="409"
     y1="629"
     y2="642">
    <stop
       offset="0"
       stop-color="#ffa92d"
       id="stop22" />
    <stop
       offset="1"
       stop-color="#ffe5e1"
       id="stop24" />
  </linearGradient>
  <linearGradient
     id="l"
     gradientTransform="matrix(0.71746,0,0,0.71428,-167.04491,-786.6231)"
     gradientUnits="userSpaceOnUse"
     x1="424"
     x2="424"
     y1="1092.4"
     y2="1101.4">
    <stop
       offset="0"
       stop-color="#7ceca4"
       id="stop27" />
    <stop
       offset="1"
       stop-color="#e1f2ff"
       id="stop29" />
  </linearGradient>
  <linearGradient
     id="g"
     gradientTransform="matrix(0.71746,0,0,0.71428,-166.78491,-463.7941)"
     gradientUnits="userSpaceOnUse"
     x1="433.3"
     x2="433.3"
     y1="632"
     y2="643.95">
    <stop
       offset="0"
       stop-color="#377d50"
       id="stop32" />
    <stop
       offset="1"
       stop-color="#3b85b5"
       id="stop34" />
  </linearGradient>
  <linearGradient
     id="k"
     gradientTransform="matrix(0.71746,0,0,0.71428,-167.04491,-463.7931)"
     gradientUnits="userSpaceOnUse"
     x1="425"
     x2="425"
     y1="632"
     y2="640">
    <stop
       offset="0"
       stop-color="#b7bf31"
       id="stop37" />
    <stop
       offset="1"
       stop-color="#54d883"
       id="stop39" />
  </linearGradient>
  <linearGradient
     id="f"
     gradientTransform="matrix(0.71746,0,0,0.71428,-166.78491,-463.2011)"
     gradientUnits="userSpaceOnUse"
     x1="432"
     x2="432"
     y1="647"
     y2="662">
    <stop
       offset="0"
       stop-color="#375a7d"
       id="stop42" />
    <stop
       offset="1"
       stop-color="#7cbcec"
       id="stop44" />
  </linearGradient>
  <linearGradient
     id="d"
     gradientTransform="matrix(0.71746,0,0,0.71428,-167.52491,-787.4831)"
     gradientUnits="userSpaceOnUse"
     x1="401"
     x2="401"
     y1="1075.4"
     y2="1086.4">
    <stop
       offset="0"
       stop-color="#ac0808"
       id="stop47" />
    <stop
       offset="1"
       stop-color="#e4720c"
       id="stop49" />
  </linearGradient>
  <linearGradient
     id="h"
     gradientTransform="matrix(0.71746,0,0,0.71428,-167.52491,-464.3731)"
     gradientUnits="userSpaceOnUse"
     x1="407"
     x2="407"
     y1="636"
     y2="622">
    <stop
       offset="0"
       stop-color="#ffa92d"
       id="stop52" />
    <stop
       offset="1"
       stop-color="#e05e4c"
       id="stop54" />
  </linearGradient>
  <linearGradient
     id="c"
     gradientTransform="matrix(0.71746,0,0,0.71428,-167.52491,-464.3731)"
     gradientUnits="userSpaceOnUse"
     x1="393"
     x2="393"
     y1="623"
     y2="632">
    <stop
       offset="0"
       stop-color="#913bb5"
       id="stop57" />
    <stop
       offset="1"
       stop-color="#bf4231"
       id="stop59" />
  </linearGradient>
  <path
     d="M 24.158309,3.669 A 20.534309,20.534309 0 0 0 3.624,24.203309 20.534309,20.534309 0 0 0 18.661275,43.966213 h 11.05841 A 20.534309,20.534309 0 0 0 44.69125,24.230004 v -0.06417 A 20.534309,20.534309 0 0 0 24.158309,3.669171 Z"
     stroke-width="2.8221"
     id="path369"
     style="fill-opacity:1;fill:url(#linearGradient1968)" />
  <path
     d="M 43.717411,30.434021 6.546933,34.714524 A 20.534051,20.534051 0 0 0 24.159965,44.736946 20.534051,20.534051 0 0 0 43.716893,30.433762 Z"
     fill="url(#linearGradient2230-5)"
     stroke-width="2.87626"
     id="path371"
     style="fill:#00ccff" />
  <path
     d="m 4.952844,27.76875 c -0.325366,0.0053 -0.655421,0.05012 -0.986605,0.113637 0.426059,2.307508 1.348146,4.81331 2.581436,6.832723 L 21.3358,32.969146 c 0,0 -2.057674,-1.243695 -4.183797,-2.483899 -2.126054,-1.240204 -4.175447,0.254448 -4.630898,0.760659 -0.455601,0.506199 -0.354127,0.100249 -1.062787,-0.279403 C 10.749611,30.586817 10.596357,32.182271 9.9383,30.461167 9.403628,29.062781 7.298751,27.730173 4.953118,27.768709 Z"
     fill="url(#linearGradient2208)"
     stroke-width="2.8221"
     id="path373"
     style="fill:url(#linearGradient2208)" />
  <path
     d="m 44.18063,19.76653 c -1.03712,0.200189 -2.078346,0.932052 -2.390331,2.985209 0,0 -1.503384,0.788928 -1.753972,2.399708 0,0 -2.398612,0.105991 -3.078777,2.540025 0,0 -3.02573,0.779688 -4.923032,4.108573 l 11.683337,-1.365326 c 0.627077,-1.999083 0.971136,-4.215283 0.974627,-6.219089 v -0.02808 c -0.01,-1.487848 -0.181681,-2.970219 -0.512023,-4.421037 z"
     fill="url(#linearGradient2216)"
     stroke-width="2.8221"
     id="path375"
     style="fill:url(#linearGradient2216)" />
  <path
     transform="matrix(2.6581756,0,0,2.8679839,166.52641,0.507983)"
     d="m -54.31,5.7976 c 0,0 -0.16323,-0.1007 -0.61165,-0.089489 -0.2219,0.00555 -2.4652,0.45987 -2.7696,2.8951 0,0 -0.0096,0.30734 0.19806,0.50344 0.15695,0.13902 2.6488,2.8035 2.6488,2.8035 0,0 -0.0759,-2.9553 3.2726,-3.3992 z"
     filter="url(#filter2295)"
     opacity="0.5"
     id="path377" />
  <path
     transform="matrix(0.68447698,0,0,0.68447698,2.255046,2.300046)"
     d="M 39.705,33.045 C 26.259,33.98746 26.996,46.293 26.996,46.293 L 41.348,60.467 A 30,30 0 0 0 56.307,49.535 Z"
     filter="url(#filter1300)"
     opacity="0.5"
     stroke-width="4.034"
     id="path379" />
  <path
     d="m 22.757794,16.347372 c 0,0 -0.460647,-0.284185 -1.72612,-0.252546 -0.626217,0.01565 -6.957047,1.297785 -7.815942,8.170106 0,0 -0.02709,0.867329 0.558955,1.420747 0.442926,0.392323 7.525676,7.684003 7.525676,7.684003 0,0 -0.264835,-8.112416 9.184999,-9.365057 z"
     fill="url(#linearGradient2266)"
     stroke-width="2.82219"
     id="path381"
     style="fill:url(#linearGradient2266)" />
  <path
     d="m 30.484246,24.004126 c -9.77091,0.682438 -9.184312,9.366383 -9.184312,9.366383 l 9.972829,10.080293 A 20.534309,20.534309 0 0 0 41.594676,35.001618 L 30.484246,24.004811 Z"
     fill="url(#linearGradient2274)"
     stroke-width="2.8221"
     id="path383"
     style="fill:url(#linearGradient2274)" />
  <g
     transform="matrix(2.8221934,0,0,2.8221934,67.554325,-1.195034)"
     fill="#b9e7f2"
     id="g393">
    <path
       transform="matrix(0.80005,0.15607,-0.15607,0.80005,38.674,12.43)"
       d="m -68.859,3.7133 -0.75886,0.017016 -0.51314,0.54931 -0.25068,-0.71646 -0.68099,-0.31827 0.60392,-0.45981 0.09226,-0.74602 0.62393,0.43228 0.73801,-0.14279 -0.21832,0.72697 z"
       opacity="1.0"
       id="path385"
       style="fill:#ffff00" />
    <path
       transform="matrix(0.33479,0.065311,-0.065311,0.33479,3.485,8.5236)"
       d="m -68.859,3.7133 -0.75886,0.017016 -0.51314,0.54931 -0.25068,-0.71646 -0.68099,-0.31827 0.60392,-0.45981 0.09226,-0.74602 0.62393,0.43228 0.73801,-0.14279 -0.21832,0.72697 z"
       opacity="1.0"
       id="path387"
       style="fill:#ffff00" />
    <path
       transform="matrix(0.33479,0.065311,-0.065311,0.33479,4.7788,9.4622)"
       d="m -68.859,3.7133 -0.75886,0.017016 -0.51314,0.54931 -0.25068,-0.71646 -0.68099,-0.31827 0.60392,-0.45981 0.09226,-0.74602 0.62393,0.43228 0.73801,-0.14279 -0.21832,0.72697 z"
       opacity="1.0"
       id="path389"
       style="fill:#ffff00" />
    <path
       transform="matrix(0.18182,0.035468,-0.035468,0.18182,-7.0481,9.4207)"
       d="m -68.859,3.7133 -0.75886,0.017016 -0.51314,0.54931 -0.25068,-0.71646 -0.68099,-0.31827 0.60392,-0.45981 0.09226,-0.74602 0.62393,0.43228 0.73801,-0.14279 -0.21832,0.72697 z"
       id="path391"
       style="fill:#ffff00" />
  </g>
</svg>
