<?xml version="1.0" encoding="UTF-8" standalone="no"?>
<svg
   width="48"
   height="48"
   version="1.1"
   id="svg29"
   sodipodi:docname="ktip.svg"
   inkscape:version="1.2.1 (9c6d41e410, 2022-07-14)"
   xmlns:inkscape="http://www.inkscape.org/namespaces/inkscape"
   xmlns:sodipodi="http://sodipodi.sourceforge.net/DTD/sodipodi-0.dtd"
   xmlns="http://www.w3.org/2000/svg"
   xmlns:svg="http://www.w3.org/2000/svg">
  <sodipodi:namedview
     id="namedview31"
     pagecolor="#ffffff"
     bordercolor="#666666"
     borderopacity="1.0"
     inkscape:showpageshadow="2"
     inkscape:pageopacity="0.0"
     inkscape:pagecheckerboard="0"
     inkscape:deskcolor="#d1d1d1"
     showgrid="true"
     inkscape:zoom="9.8333334"
     inkscape:cx="23.186441"
     inkscape:cy="25.983051"
     inkscape:window-width="1920"
     inkscape:window-height="1000"
     inkscape:window-x="0"
     inkscape:window-y="0"
     inkscape:window-maximized="1"
     inkscape:current-layer="svg29">
    <inkscape:grid
       type="xygrid"
       id="grid192" />
  </sodipodi:namedview>
  <defs
     id="defs17">
    <linearGradient
       id="a"
       y1="1016.36"
       x1="13"
       y2="1040.36"
       gradientUnits="userSpaceOnUse"
       x2="36">
      <stop
         stop-color="#292c2f"
         id="stop2" />
      <stop
         offset="1"
         stop-opacity="0"
         id="stop4" />
    </linearGradient>
    <linearGradient
       id="b"
       y1="44"
       y2="4"
       x2="0"
       gradientUnits="userSpaceOnUse">
      <stop
         stop-color="#7cbaf8"
         id="stop7" />
      <stop
         offset="1"
         stop-color="#f4fcff"
         id="stop9" />
    </linearGradient>
    <linearGradient
       id="c"
       y1="39"
       y2="9"
       x2="0"
       gradientUnits="userSpaceOnUse"
       gradientTransform="matrix(1.02857,0,0,1.2,-5.314,-4.8)">
      <stop
         stop-color="#197cf1"
         id="stop12" />
      <stop
         offset="1"
         stop-color="#20bcfa"
         id="stop14" />
    </linearGradient>
  </defs>
  <g
     fill-rule="evenodd"
     transform="matrix(1.05,0,0,1.05,-1.1999994,-1055.7779)"
     id="g27">
    <g
       color="#000000"
       stroke-width="2"
       id="g23">
      <path
         d="M 44,24 A 20,20 0 1 1 4,24 20,20 0 1 1 44,24"
         transform="translate(0,1004.36)"
         id="path19"
         style="fill:url(#b)"
         fill="url(#b)" />
      <path
         fill="url(#c)"
         d="M 24,6 C 14.059,6 6,14.06 6,24 6,33.941 14.06,42 24,42 33.941,42 42,33.94 42,24 42,14.059 33.94,6 24,6 m -2,6 h 4 v 4 h -4 z m 0,8 h 4 V 36 H 22 V 24 Z"
         transform="translate(0,1004.36)"
         id="path21"
         style="fill:url(#c)" />
    </g>
    <path
       opacity="0.2"
       fill="url(#a)"
       d="m 26,1020.36 h -4 l 4,4 v 16 h -4 l 8,8 13.047621,-0.9524 v -14.2857 L 26,1016.36 Z"
       id="path25"
       style="fill:url(#a)"
       sodipodi:nodetypes="cccccccccc" />
  </g>
</svg>
