<?xml version="1.0" encoding="UTF-8" standalone="no"?>
<svg
   width="48"
   height="48"
   viewBox="0 0 12.7 12.7"
   version="1.1"
   id="svg108"
   sodipodi:docname="ktrip.svg"
   inkscape:version="1.2.1 (9c6d41e410, 2022-07-14)"
   xmlns:inkscape="http://www.inkscape.org/namespaces/inkscape"
   xmlns:sodipodi="http://sodipodi.sourceforge.net/DTD/sodipodi-0.dtd"
   xmlns:xlink="http://www.w3.org/1999/xlink"
   xmlns="http://www.w3.org/2000/svg"
   xmlns:svg="http://www.w3.org/2000/svg">
  <defs
     id="defs112">
    <linearGradient
       inkscape:collect="always"
       xlink:href="#f"
       id="linearGradient411"
       gradientUnits="userSpaceOnUse"
       x1="32.114254"
       y1="263.09515"
       x2="32.114254"
       y2="271.94937"
       gradientTransform="matrix(0.20942506,0,0,0.19557309,1.2714089,-46.374085)" />
    <linearGradient
       inkscape:collect="always"
       xlink:href="#f"
       id="linearGradient413"
       gradientUnits="userSpaceOnUse"
       x1="32.114254"
       y1="263.09515"
       x2="32.114254"
       y2="271.94937"
       gradientTransform="matrix(0.20942506,0,0,0.19557309,1.2714099,-46.374101)" />
    <linearGradient
       inkscape:collect="always"
       xlink:href="#f"
       id="linearGradient415"
       gradientUnits="userSpaceOnUse"
       x1="32.114254"
       y1="263.09515"
       x2="32.114254"
       y2="271.94937"
       gradientTransform="matrix(0.20942506,5.9063063e-7,0,0.19557309,1.2714089,-46.374085)" />
    <linearGradient
       inkscape:collect="always"
       xlink:href="#f"
       id="linearGradient417"
       gradientUnits="userSpaceOnUse"
       x1="32.114254"
       y1="263.09515"
       x2="32.114254"
       y2="271.94937"
       gradientTransform="matrix(0.20942506,0,0,0.19557309,1.2714089,-46.374085)" />
    <linearGradient
       inkscape:collect="always"
       xlink:href="#f"
       id="linearGradient419"
       gradientUnits="userSpaceOnUse"
       x1="32.114254"
       y1="263.09515"
       x2="32.114254"
       y2="271.94937"
       gradientTransform="matrix(0.20942506,0,0,0.19557309,1.2714089,-46.374085)" />
    <linearGradient
       inkscape:collect="always"
       xlink:href="#f"
       id="linearGradient421"
       gradientUnits="userSpaceOnUse"
       x1="32.114254"
       y1="263.09515"
       x2="32.114254"
       y2="271.94937"
       gradientTransform="matrix(0.20942506,0,0,0.19557309,1.2714089,-46.374085)" />
  </defs>
  <sodipodi:namedview
     id="namedview110"
     pagecolor="#ffffff"
     bordercolor="#666666"
     borderopacity="1.0"
     inkscape:showpageshadow="2"
     inkscape:pageopacity="0.0"
     inkscape:pagecheckerboard="0"
     inkscape:deskcolor="#d1d1d1"
     showgrid="false"
     inkscape:zoom="4.9166667"
     inkscape:cx="24"
     inkscape:cy="24"
     inkscape:window-width="1920"
     inkscape:window-height="1009"
     inkscape:window-x="0"
     inkscape:window-y="0"
     inkscape:window-maximized="1"
     inkscape:current-layer="svg108" />
  <linearGradient
     id="a">
    <stop
       stop-color="#4d4d4d"
       offset="0"
       id="stop2" />
    <stop
       stop-color="#7f8c8d"
       offset="1"
       id="stop4" />
  </linearGradient>
  <linearGradient
     id="b"
     x1="17.304167"
     x2="17.304167"
     y1="285.00004"
     y2="257.00004"
     gradientUnits="userSpaceOnUse"
     xlink:href="#a"
     gradientTransform="matrix(0.2235402,0,0,0.2235123,0.83383689,-53.945622)" />
  <linearGradient
     id="c"
     x1="24"
     x2="24"
     y1="294"
     y2="257"
     gradientTransform="matrix(0.27767362,0,0,0.27102845,-0.3112495,-67.802395)"
     gradientUnits="userSpaceOnUse">
    <stop
       stop-color="#1d99f3"
       offset="0"
       id="stop8" />
    <stop
       stop-color="#3daee9"
       offset="1"
       id="stop10" />
  </linearGradient>
  <linearGradient
     id="d"
     x1="24.183335"
     x2="24.183335"
     y1="285.00004"
     y2="257.00004"
     gradientUnits="userSpaceOnUse"
     xlink:href="#a"
     gradientTransform="matrix(0.2235402,0,0,0.2235123,0.83383689,-53.945622)" />
  <linearGradient
     id="e"
     x1="29.588079"
     x2="29.588079"
     y1="281.11707"
     y2="290.73599"
     gradientTransform="matrix(0.26445105,0,0,0.264418,-1.3569349,-65.83264)"
     gradientUnits="userSpaceOnUse">
    <stop
       stop-opacity=".2"
       offset="0"
       id="stop14" />
    <stop
       stop-color="#fff"
       stop-opacity="0"
       offset="1"
       id="stop16" />
  </linearGradient>
  <linearGradient
     id="f">
    <stop
       stop-color="#232629"
       offset="0"
       id="stop19" />
    <stop
       stop-color="#31363b"
       offset="1"
       id="stop21" />
  </linearGradient>
  <linearGradient
     id="g"
     x1="32.114255"
     x2="32.114255"
     y1="263.09516"
     y2="271.94938"
     gradientUnits="userSpaceOnUse"
     xlink:href="#f"
     gradientTransform="matrix(0.2235402,0,0,0.2235123,0.83383689,-53.945622)" />
  <linearGradient
     id="h"
     x1="32.114254"
     x2="32.114254"
     y1="263.09515"
     y2="271.94937"
     gradientUnits="userSpaceOnUse"
     xlink:href="#f" />
  <linearGradient
     id="i"
     x1="90.319038"
     x2="120.33868"
     y1="-162.79909"
     y2="139.84253"
     gradientTransform="matrix(0.06996934,0,0,0.06996059,16.053886,-5.8171935)"
     gradientUnits="userSpaceOnUse">
    <stop
       stop-color="#2980b9"
       offset="0"
       id="stop26" />
    <stop
       stop-color="#3daee9"
       stop-opacity="0"
       offset="1"
       id="stop28" />
  </linearGradient>
  <linearGradient
     id="j"
     x1="24"
     x2="24"
     y1="294"
     y2="257"
     gradientTransform="matrix(0.26445104,0,0,0.25812233,0.005953,-64.246136)"
     gradientUnits="userSpaceOnUse">
    <stop
       stop-color="#27ae60"
       offset="0"
       id="stop31" />
    <stop
       stop-color="#2ecc71"
       offset="1"
       id="stop33" />
  </linearGradient>
  <rect
     x="0.79374999"
     y="1.0451043"
     width="11.112504"
     height="10.834687"
     rx="5.556251"
     fill="#34495e"
     id="rect36"
     style="stroke-width:0.277655"
     ry="5.4173436" />
  <rect
     x="0.79374999"
     y="0.76729167"
     width="11.112504"
     height="10.834687"
     rx="5.556251"
     fill="url(#c)"
     id="rect40"
     style="fill:url(#c);stroke-width:0.277655"
     ry="5.4173436" />
  <path
     d="m 2.3986219,3.4970395 h 1.341241 v 3.7585559 h -1.341241 z"
     fill="none"
     id="path46"
     style="stroke-width:0.223527" />
  <path
     d="M 5.3726549,9.0896006 A 0.67062058,0.67053679 0 0 1 4.7032209,9.7601378 0.67062058,0.67053679 0 0 1 4.0314149,9.0919772 0.67062058,0.67053679 0 0 1 4.6984689,8.4190731 0.67062058,0.67053679 0 0 1 5.3726359,9.0848496"
     fill="url(#b)"
     id="path48"
     style="fill:url(#b);stroke-width:0.223527" />
  <path
     d="M 6.9104249,9.0896006 A 0.67062058,0.67053679 0 0 1 6.2409899,9.7601378 0.67062058,0.67053679 0 0 1 5.5691869,9.0919772 0.67062058,0.67053679 0 0 1 6.2362389,8.4190731 0.67062058,0.67053679 0 0 1 6.9104059,9.0848496"
     fill="url(#d)"
     id="path54"
     style="fill:url(#d);stroke-width:0.223527" />
  <path
     d="m 7.9906189,3.0303709 a 0.11178128,0.11176734 0 0 0 -0.06071,0.017029 l -1.34124,0.8006275 a 0.11178128,0.11176734 0 0 0 0.01924,0.2012485 l 2.458947,0.8940492 a 0.11186666,0.11185261 0 1 0 0.07595,-0.2104143 L 6.9052239,3.9191853 8.0443179,3.2390438 a 0.11178128,0.11176734 0 0 0 -0.05375,-0.2086691 z"
     fill="#2c3e50"
     id="path56"
     style="stroke-width:0.223527" />
  <path
     d="m 6.2436319,4.3908448 -0.0016,9.032e-4 a 1.7690983,1.7688756 0 0 0 -0.0085,-4.469e-4 1.7690983,1.7688756 0 0 0 -1.190335,0.4713291 l -0.0045,0.00171 -2.951595,2.6104386 4.35e-4,4.474e-4 a 0.78928518,0.78918619 0 0 0 -0.274228,0.5997594 0.78928518,0.78918619 0 0 0 0.789331,0.786277 H 10.668984 V 4.391281 Z"
     fill="#bdc3c7"
     stroke-width="0.0591414"
     id="path58" />
  <path
     d="m 6.2436319,4.3908448 -0.0016,9.032e-4 a 1.7690983,1.7688756 0 0 0 -0.0085,-4.469e-4 1.7690983,1.7688756 0 0 0 -1.190335,0.4713291 l -0.0045,0.00171 -2.951595,2.6104386 4.35e-4,4.474e-4 a 0.78928518,0.78918619 0 0 0 -0.265356,0.4839972 0.78928518,0.78918619 0 0 0 0.780597,0.6783822 v 4.472e-4 H 10.669088 V 4.3912843 Z"
     fill="#fdfdfd"
     stroke-width="0.0591414"
     id="path60" />
  <path
     d="M 2.0818533,2.8209119 C 1.9777707,2.8900713 1.8843226,2.9732939 1.8012835,3.0660504 H 10.856119 C 10.773133,2.9732959 10.679648,2.8900772 10.57556,2.8209119 H 5.0211327 Z"
     fill="#34495e"
     stroke-width="0.245005"
     id="path62" />
  <path
     d="m 2.5415789,7.0733598 -0.453854,0.401438 4.33e-4,4.473e-4 a 0.78928518,0.78918615 0 0 0 -0.201374,0.2686452 c 2.941161,-4.7e-6 5.877266,-4.5e-6 8.7827101,0 v -0.67052 c -2.7001491,-1.9e-6 -5.3802291,-2.2e-6 -8.1279161,0 z"
     fill="#da4453"
     stroke-width="0.0591414"
     id="path66" />
  <path
     d="M 4.8159109,6.310534 A 0.31571381,0.31567417 0 0 1 4.5007589,6.6262071 0.31571381,0.31567417 0 0 1 4.1844859,6.3116516 0.31571381,0.31567417 0 0 1 4.4985209,5.9948633 0.31571381,0.31567417 0 0 1 4.8159019,6.3082966"
     id="path68"
     style="fill:#34495e;stroke-width:0.223527" />
  <rect
     transform="skewY(8.4386135e-4)"
     x="5.9563146"
     y="4.838026"
     width="1.8072727"
     height="1.7880715"
     ry="0.22348468"
     id="rect70"
     style="fill:#34495e;stroke-width:0.223527" />
  <path
     d="m 4.5002009,5.9948651 2.816304,8.4e-6 v 0.6313398 l -2.816304,-8.6e-6 z"
     id="path72"
     style="fill:#34495e;stroke-width:0.223527" />
  <path
     d="m 4.2939729,6.0715122 1.180578,-1.0441066 0.481764,-0.1892921 c 0,0 0.0988,0.4311281 0.128011,0.5607962 0.02926,0.1296686 -0.04187,0.7527339 -0.04187,0.7527339 l -1.442853,0.1965388 z"
     id="path74"
     style="fill:#34495e;stroke-width:0.223527" />
  <path
     d="M 6.6639539,5.5456616 A 0.70763859,0.7075498 0 0 1 5.9575649,6.2532098 0.70763859,0.7075498 0 0 1 5.2486799,5.5481665 0.70763859,0.7075498 0 0 1 5.9525529,4.8381222 0.70763859,0.7075498 0 0 1 6.6639359,5.5406477"
     id="path76"
     style="fill:#34495e;stroke-width:0.223527" />
  <path
     d="m 5.9752629,4.8381135 h 0.670621 v 0.2235124 h -0.670621 z"
     id="path78"
     style="fill:#34495e;stroke-width:0.223527" />
  <path
     d="m 8.4342879,4.838151 c -0.123841,0 -0.223653,0.099825 -0.223653,0.2236516 v 1.3410397 c 0,0.1238259 0.09981,0.2232151 0.223653,0.2232151 H 10.669494 V 4.838151 Z"
     fill="#34495e"
     stroke-width="0.0591412"
     id="path82" />
  <path
     d="m 8.4342879,5.0618026 c -0.123841,0 -0.223653,0.099389 -0.223653,0.2232146 v 1.1178251 c 0,0.1238259 0.09981,0.2232151 0.223653,0.2232151 H 10.669494 V 5.0618026 Z"
     fill="url(#g)"
     stroke-width="0.0591412"
     id="path84"
     style="fill:url(#g)" />
  <path
     d="M 5.0020399,6.3499954 A 0.29577846,0.27621459 0 0 1 4.7067839,6.6262091 0.29577846,0.27621459 0 0 1 4.4104849,6.3509732 0.29577846,0.27621459 0 0 1 4.7046879,6.0737836 0.29577846,0.27621459 0 0 1 5.0020309,6.3480377"
     id="path86"
     style="fill:url(#linearGradient411);stroke-width:0.202377" />
  <rect
     transform="skewY(7.881443e-4)"
     x="6.0704293"
     y="5.0615444"
     width="1.6931535"
     height="1.5645597"
     ry="0.19554892"
     id="rect88"
     style="fill:url(#linearGradient413);stroke-width:0.202377" />
  <path
     d="m 4.7062609,6.0737855 2.638474,7.4e-6 v 0.5524216 l -2.638474,-7.5e-6 z"
     id="path90"
     style="fill:url(#linearGradient415);stroke-width:0.202377" />
  <path
     d="M 4.5130599,6.1408516 5.6190879,5.227259 6.0704319,5.0616287 c 0,0 0.09256,0.3772368 0.119928,0.4906969 0.02742,0.1134595 -0.03922,0.6586407 -0.03922,0.6586407 l -1.351747,0.1719714 z"
     id="path92"
     style="fill:url(#linearGradient417);stroke-width:0.202377" />
  <path
     d="M 6.7333869,5.680733 A 0.6629557,0.61910538 0 0 1 6.0716079,6.2998367 0.6629557,0.61910538 0 0 1 5.4074809,5.6829249 0.6629557,0.61910538 0 0 1 6.0669079,5.061636 0.6629557,0.61910538 0 0 1 6.7333679,5.6763459"
     id="path94"
     style="fill:url(#linearGradient419);stroke-width:0.202377" />
  <path
     d="m 6.0881829,5.0616287 h 0.628278 v 0.1955734 h -0.628278 z"
     id="path96"
     style="fill:url(#linearGradient421);stroke-width:0.202377" />
  <path
     d="m 7.3165049,3.0312443 a 0.11178128,0.11176734 0 1 0 0,0.2235121 h 1.117701 a 0.11178128,0.11176734 0 1 0 0,-0.2235121 z"
     fill="#233240"
     id="path104"
     style="stroke-width:0.223527" />
</svg>
