<?xml version="1.0" encoding="UTF-8" standalone="no"?>
<svg
   width="48"
   height="48"
   version="1.1"
   id="svg58"
   sodipodi:docname="kwin.svg"
   inkscape:version="1.2.1 (9c6d41e410, 2022-07-14)"
   xmlns:inkscape="http://www.inkscape.org/namespaces/inkscape"
   xmlns:sodipodi="http://sodipodi.sourceforge.net/DTD/sodipodi-0.dtd"
   xmlns:xlink="http://www.w3.org/1999/xlink"
   xmlns="http://www.w3.org/2000/svg"
   xmlns:svg="http://www.w3.org/2000/svg">
  <sodipodi:namedview
     id="namedview60"
     pagecolor="#ffffff"
     bordercolor="#666666"
     borderopacity="1.0"
     inkscape:showpageshadow="2"
     inkscape:pageopacity="0.0"
     inkscape:pagecheckerboard="0"
     inkscape:deskcolor="#d1d1d1"
     showgrid="false"
     inkscape:zoom="4.9166667"
     inkscape:cx="24"
     inkscape:cy="24.508474"
     inkscape:window-width="1920"
     inkscape:window-height="1000"
     inkscape:window-x="0"
     inkscape:window-y="0"
     inkscape:window-maximized="1"
     inkscape:current-layer="svg58" />
  <defs
     id="defs28">
    <linearGradient
       id="linearGradient4231">
      <stop
         style="stop-color:#383e51;stop-opacity:1"
         offset="0"
         id="stop2" />
      <stop
         style="stop-color:#000000;stop-opacity:0;"
         offset="1"
         id="stop4" />
    </linearGradient>
    <linearGradient
       id="b"
       y1="543.8"
       y2="502.66"
       x2="0"
       gradientUnits="userSpaceOnUse"
       gradientTransform="matrix(.66667 0 0 .63518 140.19 194.52)">
      <stop
         stop-color="#c6cdd1"
         id="stop7" />
      <stop
         offset="1"
         stop-color="#e0e5e7"
         id="stop9" />
    </linearGradient>
    <linearGradient
       id="c"
       y1="525.8"
       y2="540.8"
       x1="391.57"
       gradientUnits="userSpaceOnUse"
       x2="406.57"
       gradientTransform="translate(12-4)">
      <stop
         id="stop12" />
      <stop
         offset="1"
         stop-opacity="0"
         id="stop14" />
    </linearGradient>
    <linearGradient
       id="d"
       xlink:href="#b"
       y1="543.8"
       y2="502.66"
       x2="0"
       gradientUnits="userSpaceOnUse"
       gradientTransform="matrix(0.66667,0,0,0.63518,-252.38,-313.28)" />
    <linearGradient
       xlink:href="#c"
       id="e"
       y1="525.8"
       x1="391.57"
       y2="540.8"
       gradientUnits="userSpaceOnUse"
       x2="406.57"
       gradientTransform="translate(-380.57,-511.8)" />
    <linearGradient
       id="f"
       y1="537.8"
       y2="521.8"
       x2="0"
       gradientUnits="userSpaceOnUse"
       gradientTransform="translate(-366.37113,-499.8)">
      <stop
         stop-color="#21c9fb"
         id="stop19" />
      <stop
         offset="1"
         stop-color="#1a86f2"
         id="stop21" />
    </linearGradient>
    <linearGradient
       xlink:href="#f"
       id="linearGradient4662"
       x1="19.025"
       y1="15.232"
       x2="29.946"
       y2="31.765"
       gradientUnits="userSpaceOnUse"
       gradientTransform="translate(75.157146,-32.698796)" />
    <linearGradient
       xlink:href="#b"
       id="linearGradient4208"
       gradientUnits="userSpaceOnUse"
       gradientTransform="matrix(0.66667,0,0,0.63518,-244.38,-305.28)"
       y1="543.8"
       x2="0"
       y2="502.66" />
    <linearGradient
       xlink:href="#c"
       id="linearGradient4210"
       gradientUnits="userSpaceOnUse"
       gradientTransform="translate(-372.57,-503.8)"
       x1="391.57"
       y1="525.8"
       x2="406.57"
       y2="540.8" />
    <linearGradient
       xlink:href="#linearGradient4231"
       id="linearGradient4237"
       x1="21.897"
       y1="23.123"
       x2="39.189"
       y2="40.416"
       gradientUnits="userSpaceOnUse"
       gradientTransform="translate(70.157145,-38.698796)" />
    <linearGradient
       id="a-3"
       x1="428.81601"
       x2="388.86499"
       y1="547.63397"
       y2="499.67899"
       gradientTransform="matrix(1.0500004,0,0,1.0500004,-404.99861,-525.68901)"
       gradientUnits="userSpaceOnUse">
      <stop
         stop-color="#bdc3c7"
         offset="0"
         id="stop2193" />
      <stop
         stop-color="#eff0f1"
         offset="1"
         id="stop2195" />
    </linearGradient>
    <linearGradient
       id="c-3"
       y1="521.15002"
       x1="394.22"
       y2="533.40997"
       gradientUnits="userSpaceOnUse"
       x2="416.85001"
       gradientTransform="translate(-12.764,-10.07)">
      <stop
         stop-color="#292c2f"
         id="stop225" />
      <stop
         offset="1"
         stop-opacity="0"
         id="stop227" />
    </linearGradient>
    <linearGradient
       id="f-3"
       y1="537.79999"
       y2="521.79999"
       x2="0"
       gradientUnits="userSpaceOnUse"
       gradientTransform="translate(-366.37113,-499.8)">
      <stop
         stop-color="#21c9fb"
         id="stop19-5" />
      <stop
         offset="1"
         stop-color="#1a86f2"
         id="stop21-6" />
    </linearGradient>
    <linearGradient
       inkscape:collect="always"
       xlink:href="#linearGradient4231"
       id="linearGradient1810"
       gradientUnits="userSpaceOnUse"
       gradientTransform="matrix(1.19071,0,0,1.1907102,-9.661235,-6.367893)"
       x1="21.897"
       y1="23.123"
       x2="39.189"
       y2="40.416" />
    <linearGradient
       inkscape:collect="always"
       xlink:href="#f"
       id="linearGradient1812"
       gradientUnits="userSpaceOnUse"
       gradientTransform="matrix(1.19071,0,0,1.1907102,-3.7076844,0.77636763)"
       x1="19.025"
       y1="15.232"
       x2="29.946"
       y2="31.765" />
  </defs>
  <rect
     x="3.00002"
     y="3.3012033"
     width="42"
     height="42"
     rx="21"
     ry="21"
     fill="#95a5a6"
     id="rect2220"
     style="stroke-width:1.05" />
  <rect
     x="3.00002"
     y="3.3012033"
     width="42"
     height="40.950008"
     rx="21"
     ry="20.475004"
     id="rect2222"
     style="fill:url(#a-3);stroke-width:1.05" />
  <path
     d="M 23.955438,2.606003 C 16.815659,2.606003 9.6758803,6.6858716 5.8,12.805675 l 28.285219,3.85e-4 c 0.02744,0 0.05048,0.01443 0.07772,0.01594 l 7.947887,-0.01632 C 38.336946,6.6858686 32.115139,2.606 23.955504,2.606 Z"
     stroke-width="1.40252"
     id="path32-6"
     style="fill:#566069;fill-opacity:1"
     sodipodi:nodetypes="scsccss" />
  <rect
     width="3"
     x="34.015018"
     y="8.9247236"
     rx="1.5"
     height="3"
     id="rect25-8-7"
     style="stroke-width:0.1;fill:#ffffff"
     inkscape:transform-center-x="7.3059951"
     inkscape:transform-center-y="-5.9855005" />
  <rect
     width="35.700001"
     x="6.2000246"
     y="13.022203"
     rx="0"
     height="1"
     id="rect27-9"
     style="fill:#21c9fb;fill-opacity:1" />
  <path
     style="opacity:0.2;fill:url(#linearGradient1810);fill-opacity:1;stroke:none;stroke-width:2.38136;stroke-linecap:round;stroke-linejoin:round;stroke-miterlimit:4;stroke-dasharray:none;stroke-opacity:1"
     d="m 31.308955,20.367257 -3.372128,6.1931 1.28838,4.853538 -1.032571,1.020935 -0.641856,1.344201 -1.632588,1.313967 -3.230263,0.24652 -2.820952,-0.465132 -3.79074,0.683737 8.083799,8.083802 H 42.73 V 29.374338 l -8.9908,-8.990794 z"
     id="path54-2" />
  <path
     style="color:#4d4d4d;fill:url(#linearGradient1812);fill-opacity:1;stroke:none;stroke-width:1.19067"
     d="m 25.860054,19.444 -3.372123,0.316276 v 13.025721 l 3.334917,-0.455824 v -5.567495 l 4.448869,6.16286 3.483771,-1.051177 -4.558192,-5.916339 4.5954,-5.60471 -3.558187,-0.769773 -4.411661,5.602378 z m -8.186128,3.569807 c -0.03776,0 -0.08316,0.02172 -0.11161,0.0372 l -1.297681,1.260474 c -0.05531,0.05484 -0.07768,0.14549 -0.03718,0.209307 l 1.52094,2.381423 c -0.272819,0.433295 -0.473982,0.907534 -0.63024,1.400013 l -2.816324,0.560479 c -0.07849,0.02023 -0.148831,0.06548 -0.148831,0.141866 v 1.748845 c 0,0.07381 0.07324,0.156446 0.148831,0.174426 l 2.741888,0.632562 c 0.146043,0.570951 0.368123,1.112318 0.667455,1.609317 l -1.593043,2.276769 c -0.04418,0.06433 -0.02118,0.155605 0.03719,0.20931 l 1.295363,1.225583 c 0.05528,0.05002 0.155836,0.07767 0.223257,0.03717 l 2.483754,-1.437228 c 0.488281,0.266122 0.999232,0.488311 1.555827,0.630241 l 0.593021,2.627929 c 0.01699,0.0762 0.06887,0.13954 0.148842,0.13954 h 1.853502 c 0.07813,0 0.167379,-0.06706 0.186057,-0.13954 l 0.665123,-2.627922 c 0.573717,-0.146336 1.132384,-0.386739 1.63257,-0.665121 l 2.446544,1.541877 c 0.06725,0.04054 0.16368,0.01873 0.220926,-0.0372 l 1.29769,-1.225592 c 0.05562,-0.05484 0.07798,-0.145723 0.03712,-0.209307 l -0.888386,-1.400014 -0.29768,0.104635 c -0.04219,0.02022 -0.08689,8.27e-4 -0.111558,-0.0349 0,0 -0.561024,-0.802174 -1.297679,-1.82095 -0.880637,1.62842 -2.675245,2.730257 -4.744233,2.730257 -2.939538,0 -5.337265,-2.229693 -5.337265,-5.00703 0,-2.042897 1.299521,-3.801351 3.151201,-4.588413 v -1.295346 c -0.337036,0.11189 -0.65335,0.22638 -0.962803,0.386057 h -0.03719 l -2.483753,-1.541859 c -0.03376,-0.02022 -0.07383,-0.03615 -0.111613,-0.03258 v -0.002 z"
     id="path56-9" />
</svg>
