<?xml version="1.0" encoding="UTF-8" standalone="no"?>
<svg
   width="48"
   height="48"
   version="1.1"
   id="svg4"
   sodipodi:docname="nobara-reddit.svg"
   inkscape:version="1.4.2 (unknown)"
   xmlns:inkscape="http://www.inkscape.org/namespaces/inkscape"
   xmlns:sodipodi="http://sodipodi.sourceforge.net/DTD/sodipodi-0.dtd"
   xmlns="http://www.w3.org/2000/svg"
   xmlns:svg="http://www.w3.org/2000/svg">
  <defs
     id="defs4" />
  <sodipodi:namedview
     id="namedview4"
     pagecolor="#ffffff"
     bordercolor="#000000"
     borderopacity="0.25"
     inkscape:showpageshadow="2"
     inkscape:pageopacity="0.0"
     inkscape:pagecheckerboard="0"
     inkscape:deskcolor="#d1d1d1"
     inkscape:zoom="8.2643105"
     inkscape:cx="22.869421"
     inkscape:cy="22.082907"
     inkscape:window-width="1920"
     inkscape:window-height="996"
     inkscape:window-x="0"
     inkscape:window-y="0"
     inkscape:window-maximized="1"
     inkscape:current-layer="svg4" />
  <g
     id="g4"
     transform="matrix(0.75,0,0,0.75,0.37500011,0)">
    <ellipse
       style="opacity:0.2;stroke-width:0.982303"
       cx="31.499998"
       cy="32.491234"
       id="circle1"
       rx="27.499998"
       ry="27.508766" />
    <ellipse
       style="fill:#ff5836;stroke-width:0.982303"
       cx="31.499998"
       cy="31.508766"
       id="circle2"
       rx="27.499998"
       ry="27.508766" />
    <path
       style="opacity:0.2;stroke-width:0.982303"
       d="m 33.479629,14.807128 c -0.492945,-0.0076 -0.914749,0.352343 -0.98598,0.840393 L 30.80943,26.622083 c -3.868911,0.114725 -7.539894,1.208067 -10.308662,3.0698 -0.733761,-0.721949 -1.721489,-1.127049 -2.750769,-1.128162 -2.169701,0 -3.928585,1.75926 -3.928571,3.92938 0.0011,1.465546 0.817441,2.808718 2.117744,3.484221 -0.09701,0.472971 -0.148238,0.94984 -0.153461,1.427453 -1.1e-5,5.967846 7.035521,10.805745 15.714287,10.805745 8.678764,0 15.714295,-4.837899 15.714283,-10.805745 -0.0068,-0.476425 -0.05924,-0.951994 -0.157277,-1.423628 1.303009,-0.675097 2.121214,-2.020309 2.12158,-3.488046 1.5e-5,-2.17012 -1.758871,-3.92938 -3.92857,-3.92938 -1.032476,1.11e-4 -2.023409,0.40677 -2.758444,1.131987 -2.617219,-1.767173 -6.050978,-2.849076 -9.706331,-3.05829 l 1.492396,-9.654564 5.106374,1.135854 c 0.181889,1.475124 1.433558,2.583944 2.919576,2.586319 1.627267,0 2.946429,-1.31941 2.946429,-2.947016 0,-1.627612 -1.319162,-2.947018 -2.946429,-2.947018 -1.013454,8.53e-4 -1.955325,0.522645 -2.493725,1.381416 l -6.126881,-1.3584 c -0.06668,-0.01482 -0.134836,-0.02596 -0.203334,-0.02596 z m -6.890343,17.685973 c 1.627265,0 2.946426,1.319412 2.946426,2.947019 0,1.627608 -1.319161,2.947017 -2.946426,2.947017 -1.62727,0 -2.946431,-1.319409 -2.946431,-2.947017 0,-1.627607 1.319161,-2.947019 2.946431,-2.947019 z m 9.821426,0 c 1.62727,0 2.94643,1.319412 2.94643,2.947019 0,1.627608 -1.31916,2.947017 -2.94643,2.947017 -1.627268,0 -2.946428,-1.319409 -2.946428,-2.947017 0,-1.627607 1.31916,-2.947019 2.946428,-2.947019 z m 1.910575,8.806231 c 0.913777,-0.0772 1.428713,1.025951 0.782644,1.676877 0,0 -0.643441,0.682779 -1.868374,1.247123 -1.224929,0.564488 -3.106619,1.088287 -5.758578,1.043736 -2.636671,-0.04492 -4.484858,-0.566683 -5.697193,-1.101325 -1.21234,-0.534268 -1.856866,-1.162691 -1.856866,-1.162691 -0.601427,-0.590036 -0.229813,-1.613908 0.610001,-1.680702 0.03186,-0.0028 0.06394,-0.0038 0.09593,-0.0038 0.265935,0.0031 0.519261,0.113982 0.702078,0.307045 0,0 0.279999,0.314474 1.246862,0.74059 0.966862,0.426227 2.548716,0.884086 4.945243,0.92864 2.381236,0.04088 3.929586,-0.416128 4.883857,-0.855721 0.954276,-0.439372 1.235351,-0.782803 1.235351,-0.782803 0.168898,-0.205688 0.413827,-0.334521 0.67906,-0.356797 z"
       id="path2" />
    <path
       style="fill:#ffffff;stroke-width:0.982303"
       d="m 33.479629,13.824676 c -0.492945,-0.0076 -0.914749,0.352343 -0.98598,0.840385 L 30.80943,25.639629 c -3.868911,0.114723 -7.539894,1.208063 -10.308662,3.0698 -0.733761,-0.72195 -1.721489,-1.127053 -2.750769,-1.128167 -2.169701,0 -3.928585,1.759265 -3.928571,3.929383 0.0011,1.465546 0.817441,2.808717 2.117744,3.484221 -0.09701,0.472971 -0.148238,0.94984 -0.153461,1.427452 -1.1e-5,5.967846 7.035521,10.805746 15.714287,10.805746 8.678764,0 15.714295,-4.8379 15.714283,-10.805746 -0.0068,-0.476423 -0.05924,-0.951994 -0.157277,-1.423628 1.303009,-0.675094 2.121214,-2.02031 2.12158,-3.488045 1.5e-5,-2.170118 -1.758871,-3.929383 -3.92857,-3.929383 -1.032476,1.11e-4 -2.023409,0.406774 -2.758444,1.131992 -2.617219,-1.767173 -6.050978,-2.849076 -9.706331,-3.058293 l 1.492396,-9.654561 5.106374,1.135848 c 0.181889,1.475126 1.433558,2.583948 2.919576,2.586327 1.627267,0 2.946429,-1.319412 2.946429,-2.947022 0,-1.627605 -1.319162,-2.947016 -2.946429,-2.947016 -1.013454,8.51e-4 -1.955325,0.522649 -2.493725,1.381412 l -6.126881,-1.358392 c -0.06668,-0.01482 -0.134836,-0.02596 -0.203334,-0.02596 z m -6.890343,17.685969 c 1.627265,0 2.946426,1.319411 2.946426,2.947018 0,1.627608 -1.319161,2.94702 -2.946426,2.94702 -1.62727,0 -2.946431,-1.319412 -2.946431,-2.94702 0,-1.627607 1.319161,-2.947018 2.946431,-2.947018 z m 9.821426,0 c 1.62727,0 2.94643,1.319411 2.94643,2.947018 0,1.627608 -1.31916,2.94702 -2.94643,2.94702 -1.627268,0 -2.946428,-1.319412 -2.946428,-2.94702 0,-1.627607 1.31916,-2.947018 2.946428,-2.947018 z m 1.910575,8.806228 c 0.913777,-0.0772 1.428713,1.025953 0.782644,1.676877 0,0 -0.643441,0.682782 -1.868374,1.247123 -1.224929,0.564491 -3.106619,1.088291 -5.758578,1.043737 -2.636671,-0.04493 -4.484858,-0.566681 -5.697193,-1.10132 -1.21234,-0.53427 -1.856866,-1.162695 -1.856866,-1.162695 -0.601427,-0.590036 -0.229813,-1.613908 0.610001,-1.680702 0.03186,-0.0028 0.06394,-0.0038 0.09593,-0.0038 0.265935,0.0031 0.519261,0.113981 0.702078,0.307046 0,0 0.279999,0.314471 1.246862,0.740587 0.966862,0.426227 2.548716,0.884087 4.945243,0.928641 2.381236,0.04088 3.929586,-0.416128 4.883857,-0.855721 0.954276,-0.43937 1.235351,-0.782803 1.235351,-0.782803 0.168898,-0.205687 0.413827,-0.334521 0.67906,-0.356797 z"
       id="path3" />
    <path
       style="opacity:0.2;fill:#ffffff;stroke-width:0.982303"
       d="M 31.5,4.0008185 A 27.499999,27.508767 0 0 0 3.9999997,31.509588 27.499999,27.508767 0 0 0 4.0172643,31.99314 27.499999,27.508767 0 0 1 31.5,4.9832747 27.499999,27.508767 0 0 1 58.975063,31.99314 27.499999,27.508767 0 0 0 59,31.509588 27.499999,27.508767 0 0 0 31.5,4.0008185 Z"
       id="path4" />
  </g>
</svg>
