<?xml version="1.0" encoding="UTF-8" standalone="no"?>
<svg
   width="48px"
   height="48px"
   viewBox="0 0 48 48"
   version="1.1"
   id="svg11"
   sodipodi:docname="distributor-logo-nobara.svg"
   inkscape:version="1.4.2 (unknown)"
   xmlns:inkscape="http://www.inkscape.org/namespaces/inkscape"
   xmlns:sodipodi="http://sodipodi.sourceforge.net/DTD/sodipodi-0.dtd"
   xmlns:xlink="http://www.w3.org/1999/xlink"
   xmlns="http://www.w3.org/2000/svg"
   xmlns:svg="http://www.w3.org/2000/svg">
  <defs
     id="defs15">
    <linearGradient
       inkscape:collect="always"
       xlink:href="#linearGradient2"
       id="linearGradient3"
       x1="15.211082"
       y1="147.95329"
       x2="27.90015"
       y2="134.76091"
       gradientUnits="userSpaceOnUse"
       gradientTransform="matrix(1.6923083,0,0,1.6923083,-12.676258,-215.11583)" />
    <linearGradient
       id="linearGradient2"
       inkscape:collect="always">
      <stop
         style="stop-color:#5f8dd3;stop-opacity:1"
         offset="0"
         id="stop2" />
      <stop
         style="stop-color:#2a7fff;stop-opacity:1"
         offset="1"
         id="stop3" />
    </linearGradient>
  </defs>
  <sodipodi:namedview
     id="namedview13"
     pagecolor="#ffffff"
     bordercolor="#000000"
     borderopacity="0.25"
     inkscape:showpageshadow="2"
     inkscape:pageopacity="0.0"
     inkscape:pagecheckerboard="0"
     inkscape:deskcolor="#d1d1d1"
     showgrid="false"
     inkscape:zoom="13.906433"
     inkscape:cx="20.206475"
     inkscape:cy="24.413161"
     inkscape:window-width="1920"
     inkscape:window-height="996"
     inkscape:window-x="0"
     inkscape:window-y="0"
     inkscape:window-maximized="1"
     inkscape:current-layer="svg11" />
  <g
     id="surface1"
     transform="matrix(0.96164108,0,0,0.96165967,1.0913376,1.0917067)">
    <path
       style="fill:#3fa3f5;fill-opacity:1;fill-rule:nonzero;stroke:none"
       d="M 42.765625,12.949219 C 39.011719,6.386719 31.945312,1.984375 23.8125,1.984375 c -12.09375,0 -21.828125,9.734375 -21.828125,21.828125 0,3.984375 1.058594,7.714844 2.90625,10.921875 l 36.105469,-20.84375 c 0.585937,-0.335937 1.175781,-0.652344 1.769531,-0.941406 z m 0,0"
       id="path2" />
    <path
       style="fill:#1c87e3;fill-opacity:1;fill-rule:nonzero;stroke:none"
       d="m 42.699219,12.828125 c 3.804687,6.535156 4.082031,14.855469 0.01563,21.898437 C 36.667969,45.199219 23.371094,48.761719 12.898438,42.714844 9.445312,40.722656 6.746094,37.941406 4.890625,34.734375 l 36.105469,-20.84375 c 0.585937,-0.335937 1.152344,-0.691406 1.703125,-1.0625 z m 0,0"
       id="path4" />
    <path
       style="fill:#3f3f3f;fill-opacity:1;fill-rule:nonzero;stroke:none"
       d="m 23.8125,5.953125 c 9.863281,0 17.859375,7.996094 17.859375,17.859375 0,9.863281 -7.996094,17.859375 -17.859375,17.859375 -9.863281,0 -17.859375,-7.996094 -17.859375,-17.859375 0,-9.863281 7.996094,-17.859375 17.859375,-17.859375 z m 0,0"
       id="path6" />
  </g>
  <path
     style="fill:url(#linearGradient3);stroke-width:0.43366"
     d="m 29.092123,18.091241 0.0081,4.25e-4 -0.0054,9.96e-4 -0.0044,9.95e-4 5.18e-4,-0.0018 0.0053,-1.81e-4 z m 0.0046,9.96e-4 -0.0043,2.9e-5 0.0035,0.0018 -9.95e-4,-0.0033 0.0061,1.64e-4 z m -3.82e-4,4.4e-4 0.0032,-0.0033 -0.0062,0.0033 0.0046,3.29e-4 -0.0017,4.59e-4 -0.0012,0.0033 0.0011,-0.01234 0.0019,0.0063 0.0034,-0.0012 z m -3.88e-4,1.28e-4 1.43e-4,-0.0046 5.6e-5,0.0097 9.96e-4,-0.0046 z m 0.0023,-0.0046 0.004,9.95e-4 -0.0026,-0.0033 -1.33e-4,0.0018 -0.0021,-9.95e-4 -9.96e-4,0.0033 -0.0032,-3.85e-4 0.0061,-4.4e-4 -0.0041,-0.0018 0.0081,0.0046 z m -0.0037,0.0046 0.0013,0.0012 -0.0045,-0.0018 z m 0.24819,0.0063 -0.253956,-0.01562 0.252485,0.01562 -5.16e-4,0.0046 0.0022,-4.4e-4 -9.08e-4,-0.0033 -0.004,-4.21e-4 -3.02e-4,9.94e-4 z m -0.0055,-0.0012 -0.0012,-4.23e-4 0.0085,0.0018 -9.94e-4,4.55e-4 -9.96e-4,0.0063 z M 13.884547,33.804002 c -0.835649,-1.073184 -0.894135,-1.708483 -0.894135,-9.711736 0,-7.146218 0.114263,-8.728271 0.690588,-9.559837 1.070545,-1.544655 2.576289,-1.942507 4.27273,-1.128934 1.164386,0.558427 1.625692,0.59012 2.410378,0.165669 1.447251,-0.782796 5.928432,-0.656562 8.051211,0.226802 2.27458,0.946538 5.378205,4.360008 6.062282,6.667562 0.282045,0.951416 0.512819,4.20839 0.512819,7.237745 0,4.926596 -0.09098,5.599924 -0.862743,6.37981 -1.186234,1.198853 -3.585836,1.157127 -4.728299,-0.0822 -0.754936,-0.818924 -0.879558,-1.530825 -0.879558,-5.024418 v -4.070312 l 1.294133,-0.26158 c 1.65741,-0.335035 1.654171,-0.87529 -0.0075,-1.244161 -0.829708,-0.184171 -1.535056,-0.745204 -1.945608,-1.547574 -1.286653,-2.514581 -4.473738,-2.96268 -6.70992,-0.94338 -2.556139,2.308198 -2.062933,7.506166 0.712218,7.506166 1.71336,0 3.205743,1.817351 3.205743,3.903813 v 1.763654 l -0.862811,-0.871932 c -1.313375,-1.327332 -3.47374,-1.142983 -5.108567,0.43595 -1.795076,1.733741 -3.936674,1.79911 -5.213061,0.15919 z m 15.455598,-15.700963 0.0019,-4.1e-5 -0.0042,-0.0046 0.01003,-1.6e-5 -0.0043,-9.96e-4 0.0017,0.0018 -0.0033,-0.0012 -2.41e-4,-0.0012 0.002,4.2e-4 0.0045,0.0018 -0.0066,-0.0046 -0.14968,0.0018 z m -6.859415,7.694478 c -0.762179,-0.819044 -0.847331,-1.890502 -0.01968,-2.903106 0.795984,-0.973893 2.222503,-0.799683 2.953016,-0.06142 0.820239,0.82896 0.737775,2.518714 -0.208346,3.111258 -1.008892,0.631888 -1.97358,0.660742 -2.724989,-0.146767 z"
     id="path1"
     sodipodi:nodetypes="ccccccccccccccccccccccccccccccccccccccccccccccccccccccccccssssssssssscsssssscsssscccccccccccccsssss" />
</svg>
