<?xml version="1.0" encoding="UTF-8" standalone="no"?>
<svg
   width="48"
   height="48"
   viewBox="0 0 48 48"
   fill="none"
   version="1.1"
   id="svg49"
   sodipodi:docname="org.kde.neochat.svg"
   inkscape:version="1.2.1 (9c6d41e410, 2022-07-14)"
   xmlns:inkscape="http://www.inkscape.org/namespaces/inkscape"
   xmlns:sodipodi="http://sodipodi.sourceforge.net/DTD/sodipodi-0.dtd"
   xmlns="http://www.w3.org/2000/svg"
   xmlns:svg="http://www.w3.org/2000/svg">
  <sodipodi:namedview
     id="namedview51"
     pagecolor="#ffffff"
     bordercolor="#666666"
     borderopacity="1.0"
     inkscape:showpageshadow="2"
     inkscape:pageopacity="0.0"
     inkscape:pagecheckerboard="0"
     inkscape:deskcolor="#d1d1d1"
     showgrid="false"
     inkscape:zoom="4.2142857"
     inkscape:cx="28"
     inkscape:cy="28"
     inkscape:window-width="1920"
     inkscape:window-height="1009"
     inkscape:window-x="0"
     inkscape:window-y="0"
     inkscape:window-maximized="1"
     inkscape:current-layer="svg49" />
  <defs
     id="defs47">
    <linearGradient
       id="paint0_linear"
       x1="51"
       y1="10"
       x2="11"
       y2="50"
       gradientUnits="userSpaceOnUse">
      <stop
         stop-color="#6EB4D9"
         id="stop22" />
      <stop
         offset="1"
         stop-color="#004E6E"
         id="stop24" />
    </linearGradient>
    <linearGradient
       id="paint1_linear"
       x1="8"
       y1="8"
       x2="48"
       y2="48"
       gradientUnits="userSpaceOnUse">
      <stop
         stop-color="#44F0D3"
         id="stop27" />
      <stop
         offset="1"
         stop-color="#3DAEE9"
         id="stop29" />
    </linearGradient>
    <linearGradient
       id="paint2_linear"
       x1="43"
       y1="18"
       x2="19.5854"
       y2="-11.2683"
       gradientUnits="userSpaceOnUse">
      <stop
         stop-color="#D1D5D9"
         id="stop32" />
      <stop
         offset="1"
         stop-color="#FCFFFF"
         id="stop34" />
    </linearGradient>
    <linearGradient
       id="paint3_linear"
       x1="38"
       y1="25"
       x2="14.02"
       y2="0.020815801"
       gradientUnits="userSpaceOnUse">
      <stop
         stop-color="#D1D5D9"
         id="stop37" />
      <stop
         offset="1"
         stop-color="#FCFFFF"
         id="stop39" />
    </linearGradient>
    <linearGradient
       id="paint4_linear"
       x1="33"
       y1="32"
       x2="9.3934402"
       y2="12.3279"
       gradientUnits="userSpaceOnUse">
      <stop
         stop-color="#D1D5D9"
         id="stop42" />
      <stop
         offset="1"
         stop-color="#FCFFFF"
         id="stop44" />
    </linearGradient>
    <linearGradient
       gradientTransform="matrix(1.0499636,0,0,1.0499041,-452.98598,-525.93777)"
       gradientUnits="userSpaceOnUse"
       x2="426.69501"
       y2="499.92099"
       y1="547.67499"
       id="a-6"
       x1="389.32001">
      <stop
         stop-color="#18222a"
         style="stop-color:#1e2b35;stop-opacity:1"
         id="stop216" />
      <stop
         stop-color="#566069"
         offset="1"
         style="stop-color:#6d7983;stop-opacity:1"
         id="stop218" />
    </linearGradient>
    <linearGradient
       id="paint0_linear-3"
       x1="51"
       y1="10"
       x2="11"
       y2="50"
       gradientUnits="userSpaceOnUse"
       gradientTransform="matrix(0.66000112,0,0,0.66000112,4.1276284,5.6820104)">
      <stop
         stop-color="#6EB4D9"
         id="stop229" />
      <stop
         offset="1"
         stop-color="#004E6E"
         id="stop231" />
    </linearGradient>
    <linearGradient
       id="paint1_linear-6"
       x1="8"
       y1="8"
       x2="48"
       y2="48"
       gradientUnits="userSpaceOnUse"
       gradientTransform="matrix(0.66000112,0,0,0.66000112,4.1276284,5.6820104)">
      <stop
         stop-color="#44F0D3"
         id="stop234" />
      <stop
         offset="1"
         stop-color="#3DAEE9"
         id="stop236" />
    </linearGradient>
    <linearGradient
       id="paint2_linear-7"
       x1="43"
       y1="18"
       x2="19.5854"
       y2="-11.2683"
       gradientUnits="userSpaceOnUse"
       gradientTransform="matrix(0.66000112,0,0,0.66000112,4.1276284,5.6820104)">
      <stop
         stop-color="#D1D5D9"
         id="stop239" />
      <stop
         offset="1"
         stop-color="#FCFFFF"
         id="stop241" />
    </linearGradient>
    <linearGradient
       id="paint3_linear-5"
       x1="38"
       y1="25"
       x2="14.02"
       y2="0.020815801"
       gradientUnits="userSpaceOnUse"
       gradientTransform="matrix(0.66000112,0,0,0.66000112,4.1276284,5.6820104)">
      <stop
         stop-color="#D1D5D9"
         id="stop244" />
      <stop
         offset="1"
         stop-color="#FCFFFF"
         id="stop246" />
    </linearGradient>
    <linearGradient
       id="paint4_linear-3"
       x1="33"
       y1="32"
       x2="9.3934402"
       y2="12.3279"
       gradientUnits="userSpaceOnUse"
       gradientTransform="matrix(0.66000112,0,0,0.66000112,4.1276284,5.6820104)">
      <stop
         stop-color="#D1D5D9"
         id="stop249" />
      <stop
         offset="1"
         stop-color="#FCFFFF"
         id="stop251" />
    </linearGradient>
  </defs>
  <rect
     width="41.99855"
     x="-45.000408"
     y="3.0039387"
     rx="20.999275"
     height="41.99617"
     transform="scale(-1,1)"
     style="display:inline;overflow:visible;fill:url(#a-6);stroke-width:2.93982;stroke-opacity:0.55"
     id="rect223"
     ry="20.998085" />
  <path
     style="display:inline;overflow:visible;opacity:0.3;fill:#000000;fill-opacity:1;stroke-width:2.93982;stroke-opacity:0.55"
     d="m 3.0133224,23.477116 c -0.004,0.175027 -0.01261,0.349056 -0.01261,0.525083 0,11.633027 9.3657016,20.998098 20.9992156,20.998098 11.63352,0 20.99936,-9.365071 20.99936,-20.998098 0,-0.176027 -0.008,-0.349055 -0.0126,-0.525083 -0.2773,11.38829 -9.53376,20.473116 -20.98675,20.473116 -11.457195,0 -20.7094566,-9.084826 -20.9866167,-20.473116"
     id="path225" />
  <path
     d="m 3.0133224,24.523181 c -0.004,-0.175027 -0.01261,-0.348055 -0.01261,-0.525083 C 3.0007124,12.365171 12.366414,3 23.999928,3 c 11.63352,0 20.99936,9.365171 20.99936,20.998098 0,0.176028 -0.008,0.350056 -0.0126,0.525083 -0.2773,-11.388288 -9.53376,-20.473116 -20.98675,-20.473116 -11.457195,0 -20.7094566,9.084828 -20.9866167,20.473116"
     style="display:inline;overflow:visible;opacity:0.3;fill:#ffffff;fill-opacity:1;stroke-width:2.93982;stroke-opacity:0.55"
     id="path229" />
  <path
     d="m 37.78768,13.602027 c 0,-0.729039 -0.590952,-1.320005 -1.320105,-1.320005 h -23.75994 c -0.729023,0 -1.319994,0.590966 -1.319994,1.320005 v 17.160028 c 0,0.729037 0.590971,1.320005 1.319994,1.320005 h 11.60664 c 0.175048,0 0.342942,0.06954 0.466628,0.193314 l 5.28001,5.280011 c 0.415929,0.415787 1.126702,0.121304 1.126702,-0.466693 v -4.346633 c 0,-0.364512 0.295539,-0.659999 0.659981,-0.659999 h 4.619979 c 0.729153,0 1.320105,-0.590968 1.320105,-1.320005 z"
     fill="url(#paint0_linear)"
     id="path209"
     style="fill:url(#paint0_linear-3);stroke-width:0.659997" />
  <path
     fill-rule="evenodd"
     clip-rule="evenodd"
     d="m 11.387641,30.102055 v 0.66 c 0,0.729037 0.590971,1.320005 1.319994,1.320005 h 11.60664 c 0.175048,0 0.342942,0.06954 0.466628,0.193314 l 5.28001,5.280011 c 0.415929,0.415787 1.126702,0.121304 1.126702,-0.466693 v -0.659988 c 0,0.587995 -0.710773,0.882471 -1.126702,0.466668 l -5.28001,-5.280004 c -0.123686,-0.123751 -0.29158,-0.193316 -0.466628,-0.193316 h -11.60664 c -0.729023,0 -1.319994,-0.590969 -1.319994,-1.319997 z m 19.799974,2.640004 c 0,-0.364512 0.295539,-0.659999 0.659981,-0.659999 h 4.619979 c 0.729153,0 1.320105,-0.590968 1.320105,-1.320005 v -0.66 c 0,0.729028 -0.590952,1.319997 -1.320105,1.319997 h -4.619979 c -0.364442,0 -0.659981,0.295482 -0.659981,0.660008 z"
     fill="#000405"
     fill-opacity="0.1"
     id="path211"
     style="stroke-width:0.659997" />
  <path
     d="m 9.4076337,12.282022 c 0,-0.729011 0.590987,-1.319999 1.3199943,-1.319999 h 23.7601 c 0.728891,0 1.319968,0.590988 1.319968,1.319999 v 17.160036 c 0,0.729035 -0.591077,1.319997 -1.319968,1.319997 H 22.880997 c -0.175005,0 -0.342908,0.06955 -0.466637,0.193323 l -5.280038,5.279997 c -0.415791,0.415803 -1.126686,0.121305 -1.126686,-0.466689 v -4.346634 c 0,-0.364521 -0.295487,-0.659997 -0.659986,-0.659997 h -4.620022 c -0.7290073,0 -1.3199943,-0.590962 -1.3199943,-1.319997 z"
     fill="url(#paint1_linear)"
     id="path213"
     style="fill:url(#paint1_linear-6);stroke-width:0.659997" />
  <path
     fill-rule="evenodd"
     clip-rule="evenodd"
     d="m 9.4076337,28.782056 v 0.660002 c 0,0.729035 0.590987,1.319997 1.3199943,1.319997 h 4.620022 c 0.364499,0 0.659986,0.295476 0.659986,0.659997 v -0.659997 c 0,-0.364515 -0.295487,-0.66 -0.659986,-0.66 h -4.620022 c -0.7290073,0 -1.3199943,-0.590969 -1.3199943,-1.319999 z m 6.6000023,6.326624 v 0.660006 c 0,0.587994 0.710895,0.882492 1.126686,0.466689 l 5.280038,-5.279997 c 0.123729,-0.123759 0.291632,-0.193323 0.466637,-0.193323 h 11.606731 c 0.728891,0 1.319968,-0.590962 1.319968,-1.319997 v -0.660002 c 0,0.72903 -0.591077,1.319999 -1.319968,1.319999 H 22.880997 c -0.175005,0 -0.342908,0.06955 -0.466637,0.193312 l -5.280038,5.280011 c -0.415791,0.415802 -1.126686,0.121299 -1.126686,-0.466698 z"
     fill="#031c5a"
     fill-opacity="0.1"
     id="path215"
     style="stroke-width:0.659997" />
  <rect
     x="12.707614"
     y="14.922022"
     width="19.800053"
     height="2.6400027"
     rx="1.3200014"
     fill="url(#paint2_linear)"
     id="rect217"
     style="fill:url(#paint2_linear-7);stroke-width:0.659997" />
  <rect
     x="12.377666"
     y="14.592031"
     width="20.460018"
     height="3.3000052"
     rx="1.6500026"
     stroke="#004e6e"
     stroke-opacity="0.1"
     id="rect219"
     style="stroke:#ffffff;stroke-width:0.659997;stroke-opacity:0.982226" />
  <rect
     x="12.707614"
     y="19.542036"
     width="16.50005"
     height="2.6400027"
     rx="1.3200014"
     fill="url(#paint3_linear)"
     id="rect221"
     style="fill:url(#paint3_linear-5);stroke-width:0.659997" />
  <rect
     x="12.377666"
     y="19.212036"
     width="17.160027"
     height="3.3000052"
     rx="1.6500026"
     stroke="#004e6e"
     stroke-opacity="0.1"
     id="rect223-3"
     style="stroke:#e3f7ff;stroke-width:0.659997;stroke-opacity:1" />
  <rect
     x="12.707614"
     y="24.162043"
     width="13.200021"
     height="2.6400027"
     rx="1.3200014"
     fill="url(#paint4_linear)"
     id="rect225"
     style="fill:url(#paint4_linear-3);stroke-width:0.659997" />
  <rect
     x="12.377666"
     y="23.832039"
     width="13.860029"
     height="3.3000052"
     rx="1.6500026"
     stroke="#004e6e"
     stroke-opacity="0.1"
     id="rect227"
     style="stroke:#ffffff;stroke-width:0.659997;stroke-opacity:1" />
</svg>
