<?xml version="1.0" encoding="UTF-8" standalone="no"?>
<svg
   width="48"
   height="48"
   version="1.1"
   id="svg2280"
   sodipodi:docname="nota.svg"
   inkscape:version="1.2.1 (9c6d41e410, 2022-07-14)"
   xmlns:inkscape="http://www.inkscape.org/namespaces/inkscape"
   xmlns:sodipodi="http://sodipodi.sourceforge.net/DTD/sodipodi-0.dtd"
   xmlns:xlink="http://www.w3.org/1999/xlink"
   xmlns="http://www.w3.org/2000/svg"
   xmlns:svg="http://www.w3.org/2000/svg"
   xmlns:rdf="http://www.w3.org/1999/02/22-rdf-syntax-ns#"
   xmlns:cc="http://creativecommons.org/ns#"
   xmlns:dc="http://purl.org/dc/elements/1.1/">
  <sodipodi:namedview
     id="namedview2282"
     pagecolor="#ffffff"
     bordercolor="#666666"
     borderopacity="1.0"
     inkscape:showpageshadow="2"
     inkscape:pageopacity="0.0"
     inkscape:pagecheckerboard="0"
     inkscape:deskcolor="#d1d1d1"
     showgrid="false"
     inkscape:zoom="4.9166667"
     inkscape:cx="24"
     inkscape:cy="24"
     inkscape:window-width="1920"
     inkscape:window-height="1009"
     inkscape:window-x="0"
     inkscape:window-y="0"
     inkscape:window-maximized="1"
     inkscape:current-layer="svg2280" />
  <metadata
     id="metadata2191">
    <rdf:RDF>
      <cc:Work
         rdf:about="">
        <dc:format>image/svg+xml</dc:format>
        <dc:type
           rdf:resource="http://purl.org/dc/dcmitype/StillImage" />
      </cc:Work>
    </rdf:RDF>
  </metadata>
  <defs
     id="defs2218">
    <linearGradient
       id="a"
       x1="428.81601"
       x2="388.86499"
       y1="547.63397"
       y2="499.67899"
       gradientTransform="matrix(1.0500004,0,0,1.0500004,-404.99863,-525.99019)"
       gradientUnits="userSpaceOnUse">
      <stop
         stop-color="#bdc3c7"
         offset="0"
         id="stop2193" />
      <stop
         stop-color="#eff0f1"
         offset="1"
         id="stop2195" />
    </linearGradient>
    <linearGradient
       id="c"
       x1="406.501"
       x2="419.974"
       y1="527.014"
       y2="539.825"
       gradientTransform="translate(-391.5697,-499.8)"
       gradientUnits="userSpaceOnUse">
      <stop
         stop-color="#292c2f"
         offset="0"
         id="stop2198" />
      <stop
         stop-opacity="0"
         offset="1"
         id="stop2200" />
    </linearGradient>
    <linearGradient
       id="linearGradient70363"
       x1="24"
       x2="24"
       y1="37"
       y2="12"
       gradientUnits="userSpaceOnUse"
       gradientTransform="matrix(0.75675649,0,0,0.75675649,5.4594659,5.4594629)">
      <stop
         stop-color="#2c3e50"
         offset="0"
         id="stop2203" />
      <stop
         stop-color="#34495e"
         offset="1"
         id="stop2205" />
    </linearGradient>
    <linearGradient
       id="linearGradient70391"
       x1="24"
       x2="24"
       y1="51"
       y2="4"
       gradientUnits="userSpaceOnUse"
       gradientTransform="matrix(0.75675649,0,0,0.75675649,5.4594659,5.4594629)">
      <stop
         stop-color="#7f8c8d"
         stop-opacity="0"
         offset="0"
         id="stop2208" />
      <stop
         stop-color="#7f8c8d"
         offset="1"
         id="stop2210" />
    </linearGradient>
    <linearGradient
       id="linearGradient70552"
       x1="18.474609"
       x2="34"
       y1="13"
       y2="28.525391"
       gradientUnits="userSpaceOnUse"
       xlink:href="#c"
       gradientTransform="matrix(0.75675649,0,0,0.75675649,5.4594659,5.4594629)" />
    <linearGradient
       id="linearGradient70571"
       x1="7"
       x2="11.933349"
       y1="37"
       y2="41.93335"
       gradientTransform="matrix(0.75675649,0,0,0.75675649,5.4594659,-17.243229)"
       gradientUnits="userSpaceOnUse"
       xlink:href="#c" />
    <linearGradient
       id="linearGradient70575"
       x1="7"
       x2="11.933349"
       y1="37"
       y2="41.93335"
       gradientTransform="matrix(0.75675649,0,0,0.75675649,29.675707,-17.243229)"
       gradientUnits="userSpaceOnUse"
       xlink:href="#c" />
    <linearGradient
       id="linearGradient70579"
       x1="7"
       x2="11.933349"
       y1="37"
       y2="41.93335"
       gradientTransform="matrix(0.75675649,0,0,0.75675649,29.675707,5.4594629)"
       gradientUnits="userSpaceOnUse"
       xlink:href="#c" />
    <linearGradient
       id="linearGradient70596"
       x1="7"
       x2="11.933349"
       y1="37"
       y2="41.93335"
       gradientUnits="userSpaceOnUse"
       xlink:href="#c"
       gradientTransform="matrix(0.75675649,0,0,0.75675649,5.4594659,5.4594629)" />
    <linearGradient
       id="paint1_linear"
       x1="13.26"
       y1="11.1229"
       x2="44.327"
       y2="43.688099"
       gradientUnits="userSpaceOnUse"
       gradientTransform="matrix(0.92777775,0,0,0.92777775,1.5055552,0.2767777)">
      <stop
         offset="0.046875"
         stop-color="#00022F"
         stop-opacity="0.4"
         id="stop25" />
      <stop
         offset="0.630208"
         stop-color="#00022F"
         stop-opacity="0"
         id="stop27" />
    </linearGradient>
    <linearGradient
       id="paint2_linear"
       x1="18"
       y1="36"
       x2="18"
       y2="40"
       gradientUnits="userSpaceOnUse"
       gradientTransform="matrix(0.92777775,0,0,0.92777775,1.5055552,0.2767777)">
      <stop
         stop-color="#5DC6FF"
         id="stop30" />
      <stop
         offset="1"
         stop-color="#3DAEE9"
         id="stop32" />
    </linearGradient>
  </defs>
  <rect
     x="3"
     y="3.0000007"
     width="42"
     height="42"
     rx="21"
     ry="21"
     fill="#95a5a6"
     id="rect2220"
     style="stroke-width:1.05" />
  <rect
     x="3"
     y="3.0000007"
     width="42"
     height="40.950008"
     rx="21"
     ry="20.475004"
     fill="url(#a)"
     id="rect2222"
     style="fill:url(#a);stroke-width:1.05" />
  <path
     d="M 31.194448,10.482333 13.199732,29.037886 25.627774,41.099 h 16.7 V 40.251754 21.615666 Z"
     style="fill:url(#paint1_linear);stroke-width:0.927775"
     id="path6" />
  <path
     style="fill:#ffffff;stroke-width:0.927775"
     d="m 15.422226,12.337886 v 14.844448 h 14.84444 V 12.337886 Z"
     id="path8" />
  <path
     d="m 8.927778,35.532334 c 0,-1.024824 0.6646044,-1.85556 1.484448,-1.85556 h 26.72 c 0.819872,0 1.48444,0.830736 1.48444,1.85556 0,1.024822 -0.664568,1.855552 -1.48444,1.855552 h -26.72 c -0.8198436,0 -1.484448,-0.83073 -1.484448,-1.855552 z"
     fill="#152940"
     fill-opacity="0.2"
     id="path10"
     style="stroke-width:0.927775" />
  <path
     d="m 37.132226,33.212886 h -26.72 c -1.1672876,0 -1.9483374,1.140428 -1.9483374,2.319448 0,1.17902 0.7810498,2.31944 1.9483374,2.31944 h 26.72 c 1.167232,0 1.948326,-1.14042 1.948326,-2.31944 0,-1.17902 -0.781094,-2.319448 -1.948326,-2.319448 z"
     stroke="#000000"
     stroke-opacity="0.02"
     style="fill:#e1dedb;fill-opacity:1;stroke-width:0.927775"
     id="path12" />
  <path
     d="m 8.927778,35.532334 c 0,-1.024824 0.6922985,-1.85556 1.546302,-1.85556 h 15.462924 c 0.854018,0 1.54633,0.830736 1.54633,1.85556 0,1.024822 -0.692312,1.855552 -1.54633,1.855552 H 10.47408 c -0.427584,0 -0.8146384,-0.208284 -1.0945486,-0.544881 C 9.1003812,36.507335 8.927778,36.044002 8.927778,35.532334 Z"
     fill="url(#paint2_linear)"
     id="path14"
     style="fill:url(#paint2_linear);stroke-width:0.927775" />
  <path
     style="fill:#51a2da;stroke-width:0.927775"
     d="m 23.772289,7.699 c -6.146053,0 -11.128702,4.980262 -11.133403,11.133334 v 8.628332 c 0,1.374819 1.134796,2.505 2.505,2.505 0,0 0,-4.26e-4 0,-4.26e-4 v 4.26e-4 h 8.62834 C 29.922853,29.962466 34.905552,24.97985 34.905552,18.832477 34.905552,12.683741 29.92099,7.699 23.772156,7.699 Z m 2.783559,4.580853 v 0.05806 c 1.869681,0 3.753251,1.375733 3.753251,3.350234 0,0.183159 -0.0022,0.365241 -0.03132,0.57359 -0.0517,0.525143 -0.531378,0.789234 -1.053927,0.715063 -0.523072,-0.07493 -0.760331,-0.387205 -0.781074,-0.977018 0.0082,-0.0585 0.01197,-0.15185 0.01197,-0.311635 0,-1.119292 -1.03234,-1.551975 -1.899075,-1.551975 -0.866214,0 -1.852753,0.719494 -1.855719,1.542863 v 3.153323 l 1.607126,-0.01171 c 1.254637,-0.02632 1.267476,1.865045 0.01284,1.856151 l -1.619962,0.0087 -0.0117,2.658895 c -0.193872,2.086857 -2.087398,3.762906 -4.221846,3.762906 -2.262286,0 -4.128579,-1.850682 -4.128579,-4.118534 0.06814,-2.33298 1.93236,-4.167481 4.274246,-4.145507 l 1.304509,-0.0087 v 1.85334 l -1.315365,0.01169 c -1.287389,0.03807 -2.388119,0.911032 -2.409206,2.289505 0,1.256727 1.015761,2.262409 2.275103,2.262409 1.25812,0 2.379367,-0.922225 2.379367,-2.266727 v -7.31381 c 5.99e-4,-0.129909 0.0071,-0.234071 0.02166,-0.377587 0.211454,-1.715328 1.950908,-2.955494 3.687337,-2.955494 z"
     id="path27" />
</svg>
