<?xml version="1.0" encoding="UTF-8" standalone="no"?>
<!-- Created with Inkscape (http://www.inkscape.org/) -->

<svg
   width="48"
   height="48"
   viewBox="0 0 48.000001 48.000001"
   id="svg2"
   version="1.1"
   inkscape:version="1.2.2 (b0a8486541, 2022-12-01)"
   sodipodi:docname="org.gnome.Podcasts.svg"
   xmlns:inkscape="http://www.inkscape.org/namespaces/inkscape"
   xmlns:sodipodi="http://sodipodi.sourceforge.net/DTD/sodipodi-0.dtd"
   xmlns:xlink="http://www.w3.org/1999/xlink"
   xmlns="http://www.w3.org/2000/svg"
   xmlns:svg="http://www.w3.org/2000/svg"
   xmlns:rdf="http://www.w3.org/1999/02/22-rdf-syntax-ns#"
   xmlns:cc="http://creativecommons.org/ns#"
   xmlns:dc="http://purl.org/dc/elements/1.1/">
  <defs
     id="defs4">
    <linearGradient
       id="linearGradient4450"
       inkscape:collect="always">
      <stop
         id="stop4452"
         offset="0"
         style="stop-color:#6e3a84;stop-opacity:1" />
      <stop
         id="stop4454"
         offset="1"
         style="stop-color:#a75ec4;stop-opacity:1" />
    </linearGradient>
    <linearGradient
       inkscape:collect="always"
       xlink:href="#linearGradient4450"
       id="linearGradient4148"
       x1="24"
       y1="1048.3622"
       x2="24"
       y2="1008.3622"
       gradientUnits="userSpaceOnUse" />
    <linearGradient
       inkscape:collect="always"
       xlink:href="#linearGradient4450"
       id="linearGradient4178"
       gradientUnits="userSpaceOnUse"
       x1="24"
       y1="1048.3622"
       x2="24"
       y2="1008.3622"
       gradientTransform="matrix(1.0500003,0,0,1.0500003,-1.1999996,-51.418535)" />
  </defs>
  <sodipodi:namedview
     id="base"
     pagecolor="#ffffff"
     bordercolor="#666666"
     borderopacity="1.0"
     inkscape:pageopacity="0.0"
     inkscape:pageshadow="2"
     inkscape:zoom="2.8284271"
     inkscape:cx="-143.71945"
     inkscape:cy="54.623999"
     inkscape:document-units="px"
     inkscape:current-layer="layer1"
     showgrid="true"
     units="px"
     showborder="true"
     inkscape:snap-bbox="true"
     inkscape:bbox-nodes="true"
     inkscape:snap-bbox-midpoints="true"
     inkscape:snap-grids="false"
     inkscape:window-width="1920"
     inkscape:window-height="1002"
     inkscape:window-x="0"
     inkscape:window-y="0"
     inkscape:window-maximized="1"
     inkscape:showpageshadow="2"
     inkscape:pagecheckerboard="0"
     inkscape:deskcolor="#d1d1d1">
    <inkscape:grid
       type="xygrid"
       id="grid4136"
       originx="0"
       originy="-2"
       visible="true"
       enabled="false" />
  </sodipodi:namedview>
  <metadata
     id="metadata7">
    <rdf:RDF>
      <cc:Work
         rdf:about="">
        <dc:format>image/svg+xml</dc:format>
        <dc:type
           rdf:resource="http://purl.org/dc/dcmitype/StillImage" />
      </cc:Work>
    </rdf:RDF>
  </metadata>
  <g
     inkscape:label="Layer 1"
     inkscape:groupmode="layer"
     id="layer1"
     transform="translate(0,-1004.3622)">
    <ellipse
       style="opacity:1;fill:url(#linearGradient4148);fill-opacity:1;stroke:none;stroke-width:2;stroke-miterlimit:4;stroke-dasharray:none;stroke-opacity:1"
       id="path4140"
       cx="24"
       cy="1028.3622"
       r="20" />
    <circle
       style="opacity:1;fill:url(#linearGradient4178);fill-opacity:1;stroke:none;stroke-width:2.1;stroke-miterlimit:4;stroke-dasharray:none;stroke-opacity:1"
       id="path4140-7"
       cx="24"
       cy="1028.3622"
       r="21" />
    <path
       style="opacity:0.3;fill:#000000;fill-opacity:1;stroke:none;stroke-width:2.1;stroke-miterlimit:4;stroke-dasharray:none;stroke-opacity:1"
       d="m 44.977451,1027.7506 a 21.000004,21.000004 0 0 1 -20.977445,20.5613 21.000004,21.000004 0 0 1 -20.9774473,-20.3887 21.000004,21.000004 0 0 0 -0.022558,0.4387 21.000004,21.000004 0 0 0 21.0000053,21 21.000004,21.000004 0 0 0 21.000004,-21 21.000004,21.000004 0 0 0 -0.02255,-0.6113 z"
       id="path4140-5"
       inkscape:connector-curvature="0" />
    <path
       inkscape:connector-curvature="0"
       id="path937-6"
       d="m 24.137013,1015.1622 c -0.53587,-2e-4 -1.071512,0.014 -1.32841,0.043 -3.148913,0.3578 -5.727143,1.6596 -7.952293,4.0139 -1.49764,1.5849 -2.521898,3.4959 -3.070401,5.73 -0.17944,0.7308 -0.226324,1.0501 -0.268964,1.8381 -0.04389,0.8106 9.94e-4,2.2128 0.09412,2.9207 0.134361,1.0246 0.535587,2.3365 1.070242,3.4996 0.98892,2.1503 2.585568,3.9591 4.651357,5.271 0.65219,0.4142 1.978191,1.0936 2.532478,1.2974 0.167552,0.06 0.197373,0.06 0.250393,0 0.09827,-0.118 -0.03068,-1.2092 -0.176572,-1.4933 -0.09367,-0.1824 -0.188141,-0.2554 -0.594053,-0.4579 -2.220888,-1.1084 -3.986645,-2.9034 -5.112006,-5.1965 -0.485714,-0.9893 -0.818492,-1.9778 -0.930783,-2.7644 -0.126604,-0.8864 -0.148692,-2.3559 -0.05228,-3.4861 0.08622,-1.0105 0.378317,-2.0094 0.914813,-3.1272 0.814374,-1.697 1.97981,-3.1192 3.466724,-4.233 1.447581,-1.084 3.166113,-1.807 4.860307,-2.0435 0.441288,-0.06 2.337118,-0.083 2.917142,-0.035 1.324941,0.1128 2.449072,0.4462 3.76849,1.1205 2.376582,1.2132 4.283375,3.32 5.282096,5.8364 0.534036,1.3455 0.674287,2.199 0.674349,4.1034 6.9e-5,1.5215 -0.08169,2.1279 -0.425672,3.1571 -0.515466,1.5435 -1.327875,2.9336 -2.414181,4.1318 -0.868297,0.9575 -2.162447,1.9453 -3.261218,2.4886 -0.501917,0.2482 -0.596322,0.3315 -0.695506,0.6126 -0.128715,0.3648 -0.214666,1.294 -0.127785,1.381 0.07211,0.071 0.338924,-0.026 1.114263,-0.4115 0.775793,-0.3854 1.827308,-0.9978 2.31187,-1.3467 2.23089,-1.6048 4.000594,-4.1617 4.734684,-6.8404 0.303028,-1.1052 0.364241,-1.5715 0.391136,-2.9789 0.02259,-1.1806 -0.0217,-2.0456 -0.133399,-2.6066 -0.428003,-2.1488 -1.25343,-3.977 -2.496645,-5.5287 -0.642135,-0.8018 -1.455303,-1.6232 -2.165515,-2.1878 -1.914894,-1.5228 -3.996818,-2.3745 -6.498248,-2.6593 -0.258526,-0.029 -0.794711,-0.044 -1.330566,-0.044 z m -0.0367,4.2086 c -0.948388,0 -1.871435,0.1226 -2.484558,0.3279 -1.308977,0.4388 -2.604469,1.2566 -3.581979,2.2622 -0.919173,0.9459 -1.572359,2.0196 -1.988942,3.2706 -0.296944,0.8915 -0.389316,1.6399 -0.356603,2.8876 0.01135,0.4313 0.04539,0.9363 0.07733,1.1407 0.249726,1.5986 1.295207,3.5421 2.537224,4.7178 0.16997,0.1612 0.365635,0.3311 0.435171,0.3782 0.06955,0.046 0.260081,0.1802 0.423524,0.2966 0.163442,0.117 0.314022,0.2068 0.334586,0.1993 0.02053,-0.01 0.04775,-0.057 0.06001,-0.1152 0.01225,-0.055 0.02406,-0.459 0.02625,-0.8954 l 0.004,-0.7924 -0.407981,-0.4928 c -0.869715,-1.0494 -1.357264,-1.9528 -1.634922,-3.0301 -0.680272,-2.6381 0.280826,-5.3898 2.484547,-7.1138 1.041021,-0.8141 2.290186,-1.2727 3.8734,-1.423 0.80151,-0.074 2.27804,0.2296 3.201209,0.6624 1.631335,0.7643 2.980226,2.3069 3.560833,4.0713 0.268709,0.8165 0.315915,1.1359 0.314298,2.1318 -9.94e-4,0.7986 -0.008,0.8958 -0.0954,1.3041 -0.188413,0.8839 -0.566062,1.7872 -1.045637,2.5015 -0.13574,0.2029 -0.438279,0.5981 -0.672179,0.879 l -0.425252,0.51 0.01075,0.8699 c 0.008,0.6321 0.02239,0.8823 0.05397,0.9139 0.0583,0.057 0.399984,-0.1753 0.872079,-0.5968 1.662896,-1.4814 2.547737,-3.1203 2.894257,-5.3599 0.09401,-0.6077 0.08505,-1.7368 -0.0181,-2.3244 -0.159008,-0.9046 -0.380073,-1.5929 -0.763712,-2.3771 -1.31631,-2.6907 -3.945821,-4.5514 -6.741756,-4.7697 -0.311201,-0.024 -0.630203,-0.034 -0.94633,-0.033 z m 0.06432,4.5271 c -0.55963,-2e-4 -0.642798,0.01 -0.905323,0.087 -0.737078,0.2265 -1.441552,0.8506 -1.786886,1.5827 -0.16969,0.3598 -0.232899,0.6205 -0.255148,1.0528 -0.03374,0.6558 0.124695,1.283 0.447258,1.7744 0.187516,0.2853 0.692397,0.7848 0.995975,0.985 0.714121,0.4713 1.583489,0.6192 2.404254,0.4105 1.044574,-0.2667 1.827174,-1.0313 2.150838,-2.1021 0.08209,-0.2719 0.09368,-0.371 0.09368,-0.803 0,-0.4332 -0.01155,-0.531 -0.09368,-0.803 -0.323276,-1.0696 -1.08476,-1.8159 -2.152994,-2.1083 -0.239773,-0.064 -0.373479,-0.075 -0.897974,-0.076 z m -0.07903,7.0979 c -1.402098,0.01 -2.429131,0.4748 -2.848924,1.3059 -0.209755,0.4156 -0.275774,1.1334 -0.209387,2.2799 0.110983,1.916 0.56949,5.3813 0.867763,6.558 0.217336,0.8576 0.52829,1.3673 1.028356,1.6848 0.196338,0.1253 0.63647,0.2687 0.959286,0.3141 0.388972,0.053 1.010427,0.014 1.32624,-0.084 0.701673,-0.2216 1.097208,-0.6991 1.343082,-1.6215 0.217151,-0.815 0.60658,-3.7197 0.802574,-5.9872 0.07687,-0.89 0.07823,-2.1578 0.002,-2.5303 -0.108009,-0.5311 -0.288099,-0.8157 -0.727884,-1.1505 -0.709093,-0.5395 -1.259624,-0.7257 -2.258325,-0.7631 -0.09674,0 -0.191902,-0.01 -0.285368,0 z"
       style="fill:#ffffff;fill-opacity:1;stroke:none;stroke-width:1.63679;stroke-linecap:round;stroke-linejoin:round;stroke-miterlimit:4;stroke-dasharray:none;stroke-dashoffset:0;stroke-opacity:0.0120967;paint-order:fill markers stroke" />
  </g>
</svg>
