<?xml version="1.0" encoding="UTF-8" standalone="no"?>
<svg
   width="48"
   height="48"
   version="1.1"
   id="svg57"
   sodipodi:docname="org.nicotine_plus.Nicotine-disconnect.svg"
   inkscape:version="1.3.2 (091e20ef0f, 2023-11-25)"
   xmlns:inkscape="http://www.inkscape.org/namespaces/inkscape"
   xmlns:sodipodi="http://sodipodi.sourceforge.net/DTD/sodipodi-0.dtd"
   xmlns:xlink="http://www.w3.org/1999/xlink"
   xmlns="http://www.w3.org/2000/svg"
   xmlns:svg="http://www.w3.org/2000/svg">
  <sodipodi:namedview
     id="namedview59"
     pagecolor="#ffffff"
     bordercolor="#666666"
     borderopacity="1.0"
     inkscape:showpageshadow="2"
     inkscape:pageopacity="0.0"
     inkscape:pagecheckerboard="0"
     inkscape:deskcolor="#d1d1d1"
     showgrid="false"
     inkscape:zoom="4.9166667"
     inkscape:cx="24"
     inkscape:cy="16.067797"
     inkscape:window-width="1920"
     inkscape:window-height="996"
     inkscape:window-x="0"
     inkscape:window-y="0"
     inkscape:window-maximized="1"
     inkscape:current-layer="svg57" />
  <defs
     id="defs25">
    <linearGradient
       id="linearGradient5"
       y1="539.79999"
       x1="410.57001"
       y2="523.79999"
       x2="428.57001"
       gradientUnits="userSpaceOnUse"
       gradientTransform="matrix(1.0499473,0,0,1.0499997,-400.97592,-521.98984)">
      <stop
         stop-color="#f67400"
         id="stop3"
         style="stop-color:#f67400;stop-opacity:0.28048781;"
         offset="0" />
      <stop
         offset="1"
         stop-color="#f67400"
         stop-opacity="0"
         id="stop5"
         style="stop-color:#f67400;stop-opacity:1;" />
    </linearGradient>
    <linearGradient
       spreadMethod="reflect"
       id="a"
       x1="428.57"
       x2="408.57"
       gradientUnits="userSpaceOnUse"
       gradientTransform="matrix(1.05,0,0,1.05,-404.99851,-525.98999)">
      <stop
         stop-color="#2f3943"
         id="stop2" />
      <stop
         offset="1"
         stop-color="#808c9b"
         id="stop4" />
    </linearGradient>
    <linearGradient
       id="b"
       y1="-511.2"
       x1="-395.07"
       y2="-535.8"
       x2="-419.67"
       gradientUnits="userSpaceOnUse"
       gradientTransform="matrix(1.05,0,0,1.05,404.99851,525.98999)">
      <stop
         stop-color="#18222a"
         id="stop7" />
      <stop
         offset="1"
         stop-color="#566069"
         id="stop9" />
    </linearGradient>
    <linearGradient
       id="c"
       y1="-514"
       x1="-398.07"
       y2="-533.13"
       x2="-417.2"
       gradientUnits="userSpaceOnUse">
      <stop
         stop-color="#b97c1b"
         id="stop12" />
      <stop
         offset="1"
         stop-color="#dc8f16"
         id="stop14" />
    </linearGradient>
    <linearGradient
       id="d"
       y1="536.87"
       x1="421.64"
       y2="511.82"
       gradientUnits="userSpaceOnUse"
       x2="396.59"
       gradientTransform="matrix(-1 0 0-1 817.14 1047.6)">
      <stop
         stop-color="#f39c12"
         id="stop17" />
      <stop
         offset="1"
         stop-color="#f5ab35"
         id="stop19" />
    </linearGradient>
    <linearGradient
       xlink:href="#d"
       id="e"
       y1="532.23"
       x1="417"
       y2="508.73"
       gradientUnits="userSpaceOnUse"
       x2="393.5"
       gradientTransform="matrix(-1.05,0,0,-1.05,452.99849,573.99001)" />
    <linearGradient
       xlink:href="#d"
       id="f"
       y1="529.62"
       x1="414.4"
       y2="506.91"
       gradientUnits="userSpaceOnUse"
       x2="391.69"
       gradientTransform="matrix(-1.05,0,0,-1.05,452.99849,573.99001)" />
    <linearGradient
       xlink:href="#c"
       id="g"
       y1="-516.8"
       x1="-401.07"
       y2="-541.3"
       x2="-425.57"
       gradientUnits="userSpaceOnUse"
       gradientTransform="matrix(1.05,0,0,1.05,404.99851,525.98999)" />
    <linearGradient
       id="d-1"
       y1="539.79999"
       x1="410.57001"
       y2="523.79999"
       x2="428.57001"
       gradientUnits="userSpaceOnUse"
       gradientTransform="matrix(1.0499473,0,0,1.0499997,-400.97592,-521.98984)">
      <stop
         stop-color="#f67400"
         id="stop13-2" />
      <stop
         offset="1"
         stop-color="#f67400"
         stop-opacity="0"
         id="stop15-7"
         style="stop-color:#f67400;stop-opacity:0.49268293;" />
    </linearGradient>
    <filter
       id="filter4905"
       x="-0.11552442"
       y="-0.058452806"
       width="1.2310461"
       height="1.1168981"
       color-interpolation-filters="sRGB">
      <feGaussianBlur
         stdDeviation="0.12690267"
         id="feGaussianBlur6" />
    </filter>
    <filter
       inkscape:collect="always"
       style="color-interpolation-filters:sRGB"
       id="filter3"
       x="-0.13912554"
       y="-0.15581932"
       width="1.2782511"
       height="1.3116386">
      <feGaussianBlur
         inkscape:collect="always"
         stdDeviation="8.430934"
         id="feGaussianBlur3" />
    </filter>
    <linearGradient
       inkscape:collect="always"
       xlink:href="#linearGradient5-3"
       id="linearGradient6"
       x1="-9.9871616"
       y1="-13.826643"
       x2="131.47385"
       y2="142.43074"
       gradientUnits="userSpaceOnUse"
       gradientTransform="matrix(1.2041891,0,0,1.2100821,9.8375337,7.6266045)" />
    <linearGradient
       id="linearGradient5-3"
       inkscape:collect="always">
      <stop
         style="stop-color:#ffcba7;stop-opacity:1;"
         offset="0"
         id="stop5-6" />
      <stop
         style="stop-color:#ff8f44;stop-opacity:1;"
         offset="1"
         id="stop6" />
    </linearGradient>
  </defs>
  <rect
     width="42"
     x="2.9999976"
     y="2.9999971"
     fill="url(#a)"
     rx="21"
     height="42"
     id="rect27"
     style="fill:url(#a);stroke-width:2.94;stroke-opacity:0.55" />
  <rect
     width="37.799999"
     x="-42.899998"
     y="-42.899998"
     fill="url(#b)"
     rx="18.9"
     height="37.799999"
     transform="scale(-1)"
     id="rect29"
     style="fill:url(#b);stroke-width:2.94;stroke-opacity:0.55" />
  <g
     id="g3"
     transform="matrix(0.16527195,0,0,0.16492115,14.799604,13.445114)"
     style="stroke-width:1.70682">
    <path
       fill="#f9aa40"
       d="M -4.7229076,4.2663576 V 123.73389 a 5.1942403,5.1942403 0 0 0 5.19424028,5.19424 H 16.054053 a 5.1942403,5.1942403 0 0 0 5.194241,-5.19424 V 25.043319 h 5.19424 c 2.869818,0 7.557619,-0.105183 10.352121,0.516827 5.40201,1.202467 8.705546,4.506003 9.908013,9.908013 0.623309,2.794502 0.516827,7.482303 0.516827,10.352121 v 77.91361 a 5.1942403,5.1942403 0 0 0 5.19424,5.19424 h 15.582721 a 5.1942403,5.1942403 0 0 0 5.19424,-5.19424 v -15.58273 h 20.776961 v 15.58273 a 5.1942403,5.1942403 0 0 0 5.19424,5.19424 h 15.582723 a 5.1942403,5.1942403 0 0 0 5.19424,-5.19424 v -15.58273 h 15.58272 a 5.1942403,5.1942403 0 0 0 5.19424,-5.19424 V 92.568442 a 5.1942403,5.1942403 0 0 0 -5.19424,-5.19424 H 119.93886 V 66.597241 a 5.1942403,5.1942403 0 0 0 -5.19424,-5.19424 H 99.161897 a 5.1942403,5.1942403 0 0 0 -5.19424,5.19424 V 87.374202 H 73.190696 V 45.82028 c 0,-2.869818 0.02987,-7.53035 -0.318147,-10.375495 C 70.772777,18.281717 58.488399,2.3159204 42.000582,-0.49156637 c -2.824368,-0.4804673 -7.49399,-0.4363162 -10.363808,-0.4363162 H 0.47133268 A 5.1942403,5.1942403 0 0 0 -4.7229076,4.2663576 Z"
       id="path2"
       style="opacity:0.25;fill:#000000;fill-opacity:1;stroke-width:2.21635;filter:url(#filter3)" />
    <path
       fill="#f9aa40"
       d="M -4.7218437,4.2680101 V 123.73309 a 5.1941339,5.1941339 0 0 0 5.19413321,5.19414 H 16.054689 a 5.1941339,5.1941339 0 0 0 5.194137,-5.19414 V 25.044546 h 5.194133 c 2.869757,0 7.557463,-0.105184 10.35191,0.516815 5.401896,1.202444 8.705367,4.505912 9.907808,9.907812 0.623297,2.794443 0.516818,7.482149 0.516818,10.351906 v 77.912011 a 5.1941339,5.1941339 0 0 0 5.194133,5.19414 h 15.5824 a 5.1941339,5.1941339 0 0 0 5.194133,-5.19414 v -15.58241 h 20.776536 v 15.58241 a 5.1941339,5.1941339 0 0 0 5.194133,5.19414 h 15.5824 a 5.1941339,5.1941339 0 0 0 5.19414,-5.19414 v -15.58241 h 15.5824 a 5.1941339,5.1941339 0 0 0 5.19413,-5.19413 V 92.568285 a 5.1941339,5.1941339 0 0 0 -5.19413,-5.194134 h -15.5824 V 66.597615 a 5.1941339,5.1941339 0 0 0 -5.19414,-5.194133 h -15.5824 a 5.1941339,5.1941339 0 0 0 -5.194133,5.194133 V 87.374151 H 73.190161 V 45.821079 c 0,-2.869757 0.02981,-7.530195 -0.318143,-10.375282 C 70.77229,18.283082 58.488163,2.3176125 42.000684,-0.4898186 39.176375,-0.9702727 34.506849,-0.926123 31.637088,-0.926123 H 0.47228596 A 5.1941339,5.1941339 0 0 0 -4.7218437,4.2680101 Z"
       id="path2-7"
       style="fill:url(#linearGradient6);fill-opacity:1;stroke-width:2.21631" />
  </g>
  <ellipse
     style="fill:#435a66;fill-opacity:1;stroke:#ff0000;stroke-width:3.076;stroke-linejoin:round;stroke-dasharray:none;stroke-opacity:1;paint-order:stroke fill markers"
     id="path1"
     cx="32.660999"
     cy="17.092001"
     rx="2.4619999"
     ry="2.4620001" />
  <ellipse
     style="fill:#435a66;stroke:#435a66;stroke-width:3.076;stroke-linejoin:round;stroke-opacity:1;paint-order:stroke fill markers"
     id="path3-3"
     cx="32.660999"
     cy="17.092001"
     rx="0.95669615"
     ry="0.96200037" />
</svg>
