<?xml version="1.0" encoding="UTF-8" standalone="no"?>
<svg
   width="48"
   height="48"
   viewBox="0 0 48 48"
   version="1.1"
   id="svg59"
   sodipodi:docname="phonon-gstreamer.svg"
   inkscape:version="1.2.1 (9c6d41e410, 2022-07-14)"
   xmlns:inkscape="http://www.inkscape.org/namespaces/inkscape"
   xmlns:sodipodi="http://sodipodi.sourceforge.net/DTD/sodipodi-0.dtd"
   xmlns:xlink="http://www.w3.org/1999/xlink"
   xmlns="http://www.w3.org/2000/svg"
   xmlns:svg="http://www.w3.org/2000/svg">
  <sodipodi:namedview
     id="namedview61"
     pagecolor="#ffffff"
     bordercolor="#666666"
     borderopacity="1.0"
     inkscape:showpageshadow="2"
     inkscape:pageopacity="0.0"
     inkscape:pagecheckerboard="0"
     inkscape:deskcolor="#d1d1d1"
     showgrid="false"
     inkscape:zoom="4.9166667"
     inkscape:cx="24"
     inkscape:cy="24"
     inkscape:window-width="1920"
     inkscape:window-height="1009"
     inkscape:window-x="0"
     inkscape:window-y="0"
     inkscape:window-maximized="1"
     inkscape:current-layer="svg59" />
  <defs
     id="defs29">
    <linearGradient
       id="a"
       y1="44"
       y2="4"
       x2="0"
       gradientUnits="userSpaceOnUse"
       gradientTransform="translate(73.98339,-32.88308)">
      <stop
         stop-color="#18222a"
         id="stop2" />
      <stop
         offset="1"
         stop-color="#566069"
         id="stop4" />
    </linearGradient>
    <linearGradient
       id="b"
       y1="540.8"
       y2="536.8"
       gradientUnits="userSpaceOnUse"
       x2="0">
      <stop
         stop-color="#2f3943"
         id="stop7" />
      <stop
         offset="1"
         stop-color="#4d5662"
         id="stop9" />
    </linearGradient>
    <linearGradient
       id="c"
       y1="537.8"
       y2="538.8"
       x2="0"
       gradientUnits="userSpaceOnUse">
      <stop
         stop-color="#197cf1"
         id="stop12" />
      <stop
         offset="1"
         stop-color="#21c9fb"
         id="stop14" />
    </linearGradient>
    <linearGradient
       xlink:href="#c"
       id="d"
       y1="539.8"
       y2="538.8"
       gradientUnits="userSpaceOnUse"
       x2="0"
       gradientTransform="translate(-310.58661,-545.91692)" />
    <linearGradient
       id="e"
       y1="543.8"
       y2="503.8"
       x2="0"
       gradientUnits="userSpaceOnUse"
       gradientTransform="translate(-310.58661,-532.68308)">
      <stop
         stop-color="#2f3943"
         id="stop18" />
      <stop
         offset="1"
         stop-color="#808c9b"
         id="stop20" />
    </linearGradient>
    <linearGradient
       id="f"
       y1="13"
       x1="13"
       y2="39"
       x2="38"
       gradientUnits="userSpaceOnUse">
      <stop
         stop-color="#292c2f"
         id="stop23" />
      <stop
         offset="1"
         stop-opacity="0"
         id="stop25" />
    </linearGradient>
    <linearGradient
       xlink:href="#f"
       id="g"
       y1="15"
       x1="15"
       y2="36"
       x2="36"
       gradientUnits="userSpaceOnUse"
       gradientTransform="translate(73.98339,-32.88308)" />
    <linearGradient
       gradientTransform="matrix(1.0499636,0,0,1.0499041,-452.98598,-525.93777)"
       gradientUnits="userSpaceOnUse"
       x2="426.69501"
       y2="499.92099"
       y1="547.67499"
       id="a-6"
       x1="389.32001">
      <stop
         stop-color="#18222a"
         style="stop-color:#1e2b35;stop-opacity:1"
         id="stop216" />
      <stop
         stop-color="#566069"
         offset="1"
         style="stop-color:#6d7983;stop-opacity:1"
         id="stop218" />
    </linearGradient>
    <linearGradient
       id="paint0_linear-3"
       x1="51"
       y1="10"
       x2="11"
       y2="50"
       gradientUnits="userSpaceOnUse"
       gradientTransform="matrix(0.66000112,0,0,0.66000112,-83.12717,-12.826613)">
      <stop
         stop-color="#6EB4D9"
         id="stop229" />
      <stop
         offset="1"
         stop-color="#004E6E"
         id="stop231" />
    </linearGradient>
    <linearGradient
       id="paint1_linear-6"
       x1="8"
       y1="8"
       x2="48"
       y2="48"
       gradientUnits="userSpaceOnUse"
       gradientTransform="matrix(0.66000112,0,0,0.66000112,-83.12717,-12.826613)">
      <stop
         stop-color="#44F0D3"
         id="stop234" />
      <stop
         offset="1"
         stop-color="#3DAEE9"
         id="stop236" />
    </linearGradient>
    <linearGradient
       id="paint2_linear-7"
       x1="43"
       y1="18"
       x2="19.5854"
       y2="-11.2683"
       gradientUnits="userSpaceOnUse"
       gradientTransform="matrix(0.66000112,0,0,0.66000112,-83.12717,-12.826613)">
      <stop
         stop-color="#D1D5D9"
         id="stop239" />
      <stop
         offset="1"
         stop-color="#FCFFFF"
         id="stop241" />
    </linearGradient>
    <linearGradient
       id="paint3_linear-5"
       x1="38"
       y1="25"
       x2="14.02"
       y2="0.020815801"
       gradientUnits="userSpaceOnUse"
       gradientTransform="matrix(0.66000112,0,0,0.66000112,-83.12717,-12.826613)">
      <stop
         stop-color="#D1D5D9"
         id="stop244" />
      <stop
         offset="1"
         stop-color="#FCFFFF"
         id="stop246" />
    </linearGradient>
    <linearGradient
       id="paint4_linear-3"
       x1="33"
       y1="32"
       x2="9.3934402"
       y2="12.3279"
       gradientUnits="userSpaceOnUse"
       gradientTransform="matrix(0.66000112,0,0,0.66000112,-83.12717,-12.826613)">
      <stop
         stop-color="#D1D5D9"
         id="stop249" />
      <stop
         offset="1"
         stop-color="#FCFFFF"
         id="stop251" />
    </linearGradient>
    <linearGradient
       id="e-7"
       y1="543.79999"
       y2="503.79999"
       x2="0"
       gradientUnits="userSpaceOnUse"
       gradientTransform="translate(-427.28237,-545.01186)">
      <stop
         stop-color="#2f3943"
         id="stop18-5" />
      <stop
         offset="1"
         stop-color="#808c9b"
         id="stop20-3" />
    </linearGradient>
    <linearGradient
       id="b-6"
       y1="540.79999"
       y2="536.79999"
       gradientUnits="userSpaceOnUse"
       x2="0">
      <stop
         stop-color="#2f3943"
         id="stop7-2" />
      <stop
         offset="1"
         stop-color="#4d5662"
         id="stop9-9" />
    </linearGradient>
    <linearGradient
       id="c-2"
       y1="537.79999"
       y2="538.79999"
       x2="0"
       gradientUnits="userSpaceOnUse">
      <stop
         stop-color="#197cf1"
         id="stop12-7" />
      <stop
         offset="1"
         stop-color="#21c9fb"
         id="stop14-0" />
    </linearGradient>
    <linearGradient
       id="linearGradient872"
       y1="540.79999"
       y2="536.79999"
       gradientUnits="userSpaceOnUse"
       x2="0">
      <stop
         stop-color="#2f3943"
         id="stop868" />
      <stop
         offset="1"
         stop-color="#4d5662"
         id="stop870" />
    </linearGradient>
    <linearGradient
       xlink:href="#c-2"
       id="d-3"
       y1="539.79999"
       y2="538.79999"
       gradientUnits="userSpaceOnUse"
       x2="0"
       gradientTransform="translate(-427.28237,-533.58814)" />
    <linearGradient
       id="linearGradient879"
       y1="537.79999"
       y2="538.79999"
       x2="0"
       gradientUnits="userSpaceOnUse">
      <stop
         stop-color="#197cf1"
         id="stop875" />
      <stop
         offset="1"
         stop-color="#21c9fb"
         id="stop877" />
    </linearGradient>
    <linearGradient
       id="e-7-3"
       y1="543.79999"
       y2="503.79999"
       x2="0"
       gradientUnits="userSpaceOnUse"
       gradientTransform="translate(-384.57001,-499.79999)">
      <stop
         stop-color="#2f3943"
         id="stop18-5-7" />
      <stop
         offset="1"
         stop-color="#808c9b"
         id="stop20-3-5" />
    </linearGradient>
    <linearGradient
       inkscape:collect="always"
       xlink:href="#b-6-2"
       id="linearGradient827-5-9"
       gradientUnits="userSpaceOnUse"
       y1="540.79999"
       x2="0"
       y2="536.79999"
       gradientTransform="translate(-379.77001,-500.09999)" />
    <linearGradient
       id="b-6-2"
       y1="540.79999"
       y2="536.79999"
       gradientUnits="userSpaceOnUse"
       x2="0">
      <stop
         stop-color="#2f3943"
         id="stop7-2-2" />
      <stop
         offset="1"
         stop-color="#4d5662"
         id="stop9-9-8" />
    </linearGradient>
    <linearGradient
       inkscape:collect="always"
       xlink:href="#c-2-7"
       id="linearGradient829-1-9"
       gradientUnits="userSpaceOnUse"
       y1="537.79999"
       x2="0"
       y2="538.79999"
       gradientTransform="translate(-379.77001,-500.09999)" />
    <linearGradient
       id="c-2-7"
       y1="537.79999"
       y2="538.79999"
       x2="0"
       gradientUnits="userSpaceOnUse">
      <stop
         stop-color="#197cf1"
         id="stop12-7-3" />
      <stop
         offset="1"
         stop-color="#21c9fb"
         id="stop14-0-6" />
    </linearGradient>
    <linearGradient
       inkscape:collect="always"
       xlink:href="#b-6-2"
       id="linearGradient831-9-1"
       gradientUnits="userSpaceOnUse"
       y1="540.79999"
       x2="0"
       y2="536.79999"
       gradientTransform="translate(-391.87002,-499.09999)" />
    <linearGradient
       id="linearGradient1313"
       y1="540.79999"
       y2="536.79999"
       gradientUnits="userSpaceOnUse"
       x2="0">
      <stop
         stop-color="#2f3943"
         id="stop1309" />
      <stop
         offset="1"
         stop-color="#4d5662"
         id="stop1311" />
    </linearGradient>
    <linearGradient
       xlink:href="#c-2-7"
       id="d-3-2"
       y1="539.79999"
       y2="538.79999"
       gradientUnits="userSpaceOnUse"
       x2="0"
       gradientTransform="translate(-391.87002,-579.50001)" />
    <linearGradient
       id="linearGradient1320"
       y1="537.79999"
       y2="538.79999"
       x2="0"
       gradientUnits="userSpaceOnUse">
      <stop
         stop-color="#197cf1"
         id="stop1316" />
      <stop
         offset="1"
         stop-color="#21c9fb"
         id="stop1318" />
    </linearGradient>
  </defs>
  <rect
     width="41.99855"
     x="-45.000408"
     y="3.0039384"
     rx="20.999275"
     height="41.99617"
     transform="scale(-1,1)"
     style="display:inline;overflow:visible;fill:url(#a-6);stroke-width:2.93982;stroke-opacity:0.55"
     id="rect223"
     ry="20.998085" />
  <path
     style="display:inline;overflow:visible;opacity:0.3;fill:#000000;fill-opacity:1;stroke-width:2.93982;stroke-opacity:0.55"
     d="m 3.013322,23.477116 c -0.004,0.175027 -0.01261,0.349056 -0.01261,0.525083 0,11.633027 9.365702,20.998098 20.999216,20.998098 11.63352,0 20.99936,-9.365071 20.99936,-20.998098 0,-0.176027 -0.008,-0.349055 -0.0126,-0.525083 -0.2773,11.38829 -9.53376,20.473116 -20.98675,20.473116 -11.457195,0 -20.709457,-9.084826 -20.986617,-20.473116"
     id="path225" />
  <path
     d="M 3.013322,24.523181 C 3.009322,24.348154 3.000712,24.175126 3.000712,23.998098 3.000712,12.365171 12.366414,3 23.999928,3 c 11.63352,0 20.99936,9.365171 20.99936,20.998098 0,0.176028 -0.008,0.350056 -0.0126,0.525083 -0.2773,-11.388288 -9.53376,-20.473116 -20.98675,-20.473116 -11.457195,0 -20.709457,9.084828 -20.986617,20.473116"
     style="display:inline;overflow:visible;opacity:0.3;fill:#ffffff;fill-opacity:1;stroke-width:2.93982;stroke-opacity:0.55"
     id="path229" />
  <rect
     width="30"
     x="9"
     y="9"
     fill="#26333a"
     rx="15"
     height="30"
     stroke-width="0.094"
     id="rect35-0-1" />
  <rect
     width="28"
     x="10"
     y="10"
     rx="14"
     height="28"
     stroke-width="0.093"
     id="rect37-6-9"
     style="fill:url(#e-7-3)" />
  <rect
     width="4"
     x="11.800002"
     y="36.700001"
     fill="url(#b)"
     rx="2"
     height="4"
     stroke-width="0.286"
     id="rect41-6-4"
     style="fill:url(#linearGradient827-5-9)" />
  <circle
     fill="url(#c)"
     cx="14.90001"
     cy="38.200001"
     r="0.5"
     stroke-linecap="square"
     stroke-width="0.1"
     id="circle43-1-7"
     style="fill:url(#linearGradient829-1-9)" />
  <rect
     width="4"
     x="29.700001"
     y="37.700001"
     fill="url(#b)"
     rx="2"
     height="4"
     stroke-width="0.286"
     id="rect45-8-8"
     style="fill:url(#linearGradient831-9-1)" />
  <circle
     fill="url(#d)"
     cx="32.800041"
     cy="-40.200001"
     r="0.5"
     stroke-linecap="square"
     stroke-width="0.1"
     transform="scale(1,-1)"
     id="circle47-7-4"
     style="fill:url(#d-3-2)" />
  <path
     fill="#ff3131"
     d="m 25.819989,17.660014 c -1.681,0 -4.14,-1.409 -6.537,-1.409 -2.397,0 -3.829,1.409 -4.078,1.601 -0.249,0.192 -0.405,0.928 0.342,0.704 0.747,-0.224 1.37,-0.224 2.553,-0.224 1.183,0 4.02,1.665 6.88,1.665 2.864,0 5.261,-2.274 5.79,-3.074 0.529,-0.801 0.031,-1.057 -0.374,-0.865 -0.405,0.192 -3.02,1.601 -4.576,1.601"
     id="path51-2-0" />
  <path
     fill="#319831"
     d="m 29.819989,23.660014 c -1.681,0 -4.14,-1.409 -6.537,-1.409 -2.397,0 -3.829,1.409 -4.078,1.601 -0.249,0.192 -0.405,0.928 0.342,0.704 0.747,-0.224 1.37,-0.224 2.553,-0.224 1.183,0 4.02,1.665 6.88,1.665 2.864,0 5.261,-2.274 5.79,-3.074 0.529,-0.801 0.031,-1.057 -0.374,-0.865 -0.405,0.192 -3.02,1.601 -4.576,1.601"
     id="path53-0-3" />
  <path
     fill="#3232cc"
     d="m 23.819989,29.660014 c -1.681,0 -4.14,-1.409 -6.537,-1.409 -2.397,0 -3.829,1.409 -4.078,1.601 -0.249,0.192 -0.405,0.929 0.342,0.704 0.747,-0.224 1.37,-0.224 2.553,-0.224 1.183,0 4.02,1.665 6.88,1.665 2.864,0 5.261,-2.274 5.79,-3.074 0.529,-0.801 0.031,-1.057 -0.374,-0.865 -0.405,0.192 -3.02,1.601 -4.576,1.601"
     id="path55-2-6" />
</svg>
