<?xml version="1.0" encoding="UTF-8" standalone="no"?>
<svg
   width="48"
   height="48"
   version="1.1"
   id="svg48"
   sodipodi:docname="skrooge.svg"
   inkscape:version="1.2.1 (9c6d41e410, 2022-07-14)"
   xmlns:inkscape="http://www.inkscape.org/namespaces/inkscape"
   xmlns:sodipodi="http://sodipodi.sourceforge.net/DTD/sodipodi-0.dtd"
   xmlns:xlink="http://www.w3.org/1999/xlink"
   xmlns="http://www.w3.org/2000/svg"
   xmlns:svg="http://www.w3.org/2000/svg">
  <sodipodi:namedview
     id="namedview50"
     pagecolor="#ffffff"
     bordercolor="#666666"
     borderopacity="1.0"
     inkscape:showpageshadow="2"
     inkscape:pageopacity="0.0"
     inkscape:pagecheckerboard="0"
     inkscape:deskcolor="#d1d1d1"
     showgrid="false"
     inkscape:zoom="4.9166667"
     inkscape:cx="24"
     inkscape:cy="24"
     inkscape:window-width="1920"
     inkscape:window-height="1011"
     inkscape:window-x="0"
     inkscape:window-y="0"
     inkscape:window-maximized="1"
     inkscape:current-layer="svg48" />
  <defs
     id="defs24">
    <linearGradient
       id="a"
       y1="542.8"
       y2="503.8"
       x2="0"
       gradientUnits="userSpaceOnUse">
      <stop
         stop-color="#f39c12"
         id="stop2" />
      <stop
         offset="1"
         stop-color="#f5ab35"
         id="stop4" />
    </linearGradient>
    <linearGradient
       id="b"
       y1="55.41"
       x1="41.528"
       y2="25.511"
       x2="24.265"
       gradientUnits="userSpaceOnUse">
      <stop
         stop-color="#f7bb5d"
         id="stop7" />
      <stop
         offset="1"
         stop-color="#fce3bc"
         id="stop9" />
    </linearGradient>
    <linearGradient
       id="c"
       y1="523.8"
       y2="549.8"
       x2="0"
       gradientUnits="userSpaceOnUse"
       gradientTransform="matrix(.70711-.70711.70711.70711-635.28-57.48)">
      <stop
         id="stop12" />
      <stop
         offset="1"
         stop-opacity="0"
         id="stop14" />
    </linearGradient>
    <linearGradient
       xlink:href="#c"
       id="d"
       y1="520.94"
       x1="410.88"
       y2="532.63"
       x2="422.57"
       gradientUnits="userSpaceOnUse"
       gradientTransform="translate(-384.57,-499.8)" />
    <linearGradient
       id="e"
       y1="543.8"
       x1="428.57"
       y2="503.8"
       x2="388.57"
       gradientUnits="userSpaceOnUse">
      <stop
         stop-color="#f39c12"
         id="stop18" />
      <stop
         offset="1"
         stop-color="#ffc35a"
         id="stop20" />
    </linearGradient>
    <linearGradient
       xlink:href="#a"
       id="f"
       x1="391.57"
       x2="461.2"
       gradientUnits="userSpaceOnUse"
       gradientTransform="translate(250.71,-442.32)" />
    <linearGradient
       inkscape:collect="always"
       xlink:href="#a"
       id="linearGradient402"
       gradientUnits="userSpaceOnUse"
       y1="542.8"
       x2="0"
       y2="503.8" />
    <linearGradient
       inkscape:collect="always"
       xlink:href="#c"
       id="linearGradient404"
       gradientUnits="userSpaceOnUse"
       gradientTransform="matrix(0.70711,-0.70711,0.70711,0.70711,-635.28,-57.48)"
       y1="523.8"
       x2="0"
       y2="549.8" />
  </defs>
  <g
     transform="matrix(1.0499852,0,0,1.0499997,-404.99275,-525.98984)"
     id="g46">
    <g
       stroke-linejoin="round"
       stroke-width="0.5"
       id="g30">
      <circle
         fill="url(#a)"
         cx="408.57001"
         cy="523.79999"
         r="20"
         id="circle26"
         style="fill:url(#linearGradient402)" />
      <path
         fill="#b97d1b"
         d="M 43.978516,23.417969 A 20.00001,20.00001 0 0 1 24,43 20.00001,20.00001 0 0 1 4.02148,23.582031 20.00001,20.00001 0 0 0 4,24 20.00001,20.00001 0 0 0 24,44 20.00001,20.00001 0 0 0 44,24 20.00001,20.00001 0 0 0 43.978516,23.417969"
         transform="translate(384.57,499.8)"
         id="path28" />
    </g>
    <g
       stroke-linejoin="bevel"
       stroke-width="2"
       id="g36">
      <path
         opacity="0.2"
         fill="url(#c)"
         d="m 36.729,11.271 -25.457,25.457 6.127,6.127 a 20.00001,20.00001 0 0 0 6.601562,1.144531 20.00001,20.00001 0 0 0 20,-20 20.00001,20.00001 0 0 0 -1.144531,-6.601562 z"
         transform="translate(384.57,499.8)"
         id="path32"
         style="fill:url(#linearGradient404)" />
      <circle
         fill="url(#f)"
         cx="659.28003"
         cy="81.480003"
         r="17"
         stroke-linecap="round"
         transform="rotate(45)"
         id="circle34"
         style="fill:url(#f)" />
    </g>
    <g
       fill-rule="evenodd"
       id="g42">
      <path
         opacity="0.2"
         fill="url(#d)"
         d="m 26.06,12.789 -0.307,1.682 1.9,3.248 4.281,0.563 1.438,2.5 -4.094,7.938 -4.75,6.156 -2.283,-1.232 -0.248,1.357 11.128,5.995442 L 39.709,27 33.06,17.524 l -2,0.266 z"
         transform="translate(384.57,499.8)"
         id="path38"
         sodipodi:nodetypes="cccccccccccccc"
         style="fill:url(#d)" />
      <path
         fill="url(#e)"
         d="m 407.6,534.24 -7.625,-11.06 -0.406,-5.25 5.344,-0.625 3.75,-5.03 4.188,5.656 4.844,0.656 -2.281,7.906 -6.094,7.719 z"
         id="path40"
         style="fill:url(#e)" />
    </g>
    <path
       fill="url(#b)"
       stroke-linejoin="round"
       stroke-width="0.5"
       d="M 24,6 A 17.999973,17.999973 0 0 0 6,24 17.999973,17.999973 0 0 0 24,42 17.999973,17.999973 0 0 0 42,24 17.999973,17.999973 0 0 0 24,6 m 0,2 A 15.999989,15.999989 0 0 1 39.705078,21 H 36 c -0.554,0 -1,0.446 -1,1 0,0.554 0.446,1 1,1 h 3.963 A 15.999989,15.999989 0 0 1 40,24 15.999989,15.999989 0 0 1 39.949219,25 H 36 c -0.554,0 -1,0.446 -1,1 0,0.554 0.446,1 1,1 h 3.709 A 15.999989,15.999989 0 0 1 24,40 15.999989,15.999989 0 0 1 8.294922,27 H 12 c 0.554,0 1,-0.446 1,-1 0,-0.554 -0.446,-1 -1,-1 H 8.04 A 15.999989,15.999989 0 0 1 8,24 15.999989,15.999989 0 0 1 8.05078,23 H 12 c 0.554,0 1,-0.446 1,-1 0,-0.554 -0.446,-1 -1,-1 H 8.291 A 15.999989,15.999989 0 0 1 24,8 m 0,4 c -0.667,0 -1.291,0.188 -1.77,0.537 -0.47,0.349 -0.772,0.811 -1,1.266 -0.454,0.909 -0.684,1.869 -1.12,2.75 -0.165,0.321 -0.217,0.317 -0.325,0.349 -0.108,0.033 -0.371,0.04 -0.765,-0.017 -0.8,-0.114 -2.109,-0.458 -3.467,0.225 -0.769,0.38 -1.274,1.107 -1.483,1.872 -0.216,0.765 -0.198,1.584 -0.06,2.432 0.286,1.696 1.09,3.534 2.16,5.141 0.96,1.436 2.214,3.695 3.498,5.625 0.642,0.96 1.288,1.84 1.959,2.533 C 22.298,35.402 23,36 24,36 c 1,0 1.7,-0.598 2.371,-1.287 0.669,-0.693 1.319,-1.573 1.961,-2.533 1.284,-1.93 2.543,-4.189 3.5,-5.625 1.071,-1.607 1.872,-3.445 2.154,-5.141 C 34.13,20.566 34.14,19.747 33.932,18.982 33.719,18.217 33.22,17.49 32.447,17.11 31.09,16.427 29.778,16.771 28.982,16.885 28.585,16.942 28.321,16.935 28.21,16.902 28.11,16.87 28.06,16.874 27.895,16.553 27.454,15.672 27.22,14.712 26.77,13.803 26.542,13.348 26.24,12.886 25.764,12.537 25.29,12.188 24.667,12 24,12 m 0,10 c 0.554,0 1,0.446 1,1 v 6 c 0,0.554 -0.446,1 -1,1 -0.554,0 -1,-0.446 -1,-1 v -6 c 0,-0.554 0.446,-1 1,-1"
       transform="translate(384.57,499.8)"
       id="path44"
       style="fill:url(#b)" />
  </g>
</svg>
