<?xml version="1.0" encoding="UTF-8" standalone="no"?>
<svg
   width="48"
   height="48"
   version="1.1"
   id="svg62"
   sodipodi:docname="smplayer.svg"
   inkscape:version="1.2.2 (b0a8486541, 2022-12-01)"
   xmlns:inkscape="http://www.inkscape.org/namespaces/inkscape"
   xmlns:sodipodi="http://sodipodi.sourceforge.net/DTD/sodipodi-0.dtd"
   xmlns:xlink="http://www.w3.org/1999/xlink"
   xmlns="http://www.w3.org/2000/svg"
   xmlns:svg="http://www.w3.org/2000/svg">
  <sodipodi:namedview
     id="namedview64"
     pagecolor="#ffffff"
     bordercolor="#666666"
     borderopacity="1.0"
     inkscape:showpageshadow="2"
     inkscape:pageopacity="0.0"
     inkscape:pagecheckerboard="0"
     inkscape:deskcolor="#d1d1d1"
     showgrid="false"
     inkscape:zoom="4.9166667"
     inkscape:cx="14.644068"
     inkscape:cy="24.101695"
     inkscape:window-width="1920"
     inkscape:window-height="1002"
     inkscape:window-x="0"
     inkscape:window-y="0"
     inkscape:window-maximized="1"
     inkscape:current-layer="svg62" />
  <defs
     id="defs32">
    <linearGradient
       spreadMethod="reflect"
       id="a"
       y1="512.78"
       y2="536.8"
       x1="424.57"
       gradientUnits="userSpaceOnUse"
       x2="393.27"
       gradientTransform="matrix(-1 0 0 1 432.57-499.8)">
      <stop
         stop-color="#eff0f1"
         id="stop2" />
      <stop
         offset="1"
         stop-color="#bdc3c7"
         id="stop4" />
    </linearGradient>
    <linearGradient
       id="b"
       y1="517.52"
       x1="411.37"
       y2="502.8"
       x2="408.57"
       gradientUnits="userSpaceOnUse">
      <stop
         stop-color="#2f3943"
         id="stop7" />
      <stop
         offset="1"
         stop-color="#808c9b"
         id="stop9" />
    </linearGradient>
    <linearGradient
       xlink:href="#b"
       id="c"
       y1="518.55"
       x1="389.07"
       y2="534.91"
       x2="428.57"
       gradientUnits="userSpaceOnUse" />
    <linearGradient
       xlink:href="#b"
       id="d"
       y1="546.05"
       x1="408.86"
       y2="528.99"
       x2="406.83"
       gradientUnits="userSpaceOnUse"
       gradientTransform="translate(0,1)" />
    <linearGradient
       id="e"
       x1="-1.875"
       x2="39"
       gradientUnits="userSpaceOnUse">
      <stop
         stop-color="#197cf1"
         id="stop14" />
      <stop
         offset="1"
         stop-color="#21c9fb"
         id="stop16" />
    </linearGradient>
    <linearGradient
       spreadMethod="reflect"
       xlink:href="#e"
       id="f"
       y1="512.45"
       x1="395.1"
       y2="541.27"
       x2="423.91"
       gradientUnits="userSpaceOnUse" />
    <linearGradient
       xlink:href="#e"
       id="g"
       x1="50"
       x2="9"
       gradientUnits="userSpaceOnUse"
       gradientTransform="translate(384.57,500.8)" />
    <linearGradient
       id="h"
       xlink:href="#a"
       y1="534.42"
       y2="519.57"
       x1="-409.69"
       gradientUnits="userSpaceOnUse"
       x2="-403.54" />
    <linearGradient
       id="i"
       x1="390.57"
       x2="428.57"
       gradientUnits="userSpaceOnUse">
      <stop
         stop-color="#292c2f"
         id="stop22" />
      <stop
         offset="1"
         stop-opacity="0"
         id="stop24" />
    </linearGradient>
    <linearGradient
       id="j"
       y1="42"
       x1="36"
       y2="11.45"
       x2="12.558"
       gradientUnits="userSpaceOnUse">
      <stop
         stop-color="#18222a"
         id="stop27" />
      <stop
         offset="1"
         stop-color="#566069"
         id="stop29" />
    </linearGradient>
  </defs>
  <path
     style="fill:#4f4f4f;stroke-width:0.743404"
     d="M 37.499142,23.631794 A 13.499426,13.263044 0 0 1 23.999709,36.894838 13.499426,13.263044 0 0 1 10.500282,23.631794 13.499426,13.263044 0 0 1 23.999709,10.36875 13.499426,13.263044 0 0 1 37.499142,23.631794 Z"
     id="path215" />
  <path
     style="opacity:0.2;stroke-width:0.743404"
     d="m 23.999709,6.6845394 a 5.9997463,5.8946862 0 0 0 -5.999746,5.8946856 5.9997463,5.8946862 0 0 0 0.05251,0.728142 5.9997463,5.8946862 0 0 1 5.947248,-5.1491563 5.9997463,5.8946862 0 0 1 5.947247,5.1665453 5.9997463,5.8946862 0 0 0 0.0525,-0.745531 5.9997463,5.8946862 0 0 0 -5.999745,-5.8946856 z M 13.500152,17.00024 a 5.9997463,5.8946862 0 0 0 -5.9997455,5.894687 5.9997463,5.8946862 0 0 0 0.05284,0.727993 5.9997463,5.8946862 0 0 1 5.9469455,-5.149008 5.9997463,5.8946862 0 0 1 5.947253,5.166692 5.9997463,5.8946862 0 0 0 0.05247,-0.745677 5.9997463,5.8946862 0 0 0 -5.999747,-5.894687 z m 20.999112,0 a 5.9997463,5.8946862 0 0 0 -5.999745,5.894687 5.9997463,5.8946862 0 0 0 0.05278,0.728199 5.9997463,5.8946862 0 0 1 5.947246,-5.149008 5.9997463,5.8946862 0 0 1 5.947248,5.166692 5.9997463,5.8946862 0 0 0 0.0525,-0.745678 5.9997463,5.8946862 0 0 0 -5.999746,-5.894686 z M 3.0380995,23.631762 c -0.0087,0.246103 -0.03809,0.487786 -0.03809,0.736836 C 3.0000095,35.798395 12.365614,45 23.999123,45 c 11.633509,0 20.999113,-9.201605 20.999113,-20.631402 0,-0.248815 -0.02928,-0.490202 -0.03808,-0.736836 -0.395983,11.083484 -9.581592,19.894567 -20.961613,19.894567 -11.380318,0 -20.5656275,-8.811083 -20.9616125,-19.894567 z M 23.99971,27.315941 a 5.9997463,5.8946862 0 0 0 -5.999747,5.894687 5.9997463,5.8946862 0 0 0 0.05278,0.728199 5.9997463,5.8946862 0 0 1 5.947248,-5.149008 5.9997463,5.8946862 0 0 1 5.947247,5.166693 5.9997463,5.8946862 0 0 0 0.05251,-0.745678 5.9997463,5.8946862 0 0 0 -5.999747,-5.894687 z"
     id="path217" />
  <path
     style="fill:#b49ddf;stroke-width:0.743404"
     d="m 23.999709,3.000392 c -11.63351,0 -20.9991135,9.201605 -20.9991135,20.631402 0,11.429797 9.3656035,20.631402 20.9991135,20.631402 11.633508,0 20.999112,-9.201605 20.999112,-20.631402 0,-11.429797 -9.365604,-20.631402 -20.999112,-20.631402 z m 0,4.4210148 a 5.9997463,5.8946862 0 0 1 5.999745,5.8946862 5.9997463,5.8946862 0 0 1 -5.999745,5.894686 5.9997463,5.8946862 0 0 1 -5.999746,-5.894686 5.9997463,5.8946862 0 0 1 5.999746,-5.8946862 z M 13.500152,17.737107 a 5.9997463,5.8946862 0 0 1 5.999746,5.894687 5.9997463,5.8946862 0 0 1 -5.999746,5.894686 5.9997463,5.8946862 0 0 1 -5.9997455,-5.894686 5.9997463,5.8946862 0 0 1 5.9997455,-5.894687 z m 20.999112,0 a 5.9997463,5.8946862 0 0 1 5.999746,5.894687 5.9997463,5.8946862 0 0 1 -5.999746,5.894686 5.9997463,5.8946862 0 0 1 -5.999745,-5.894686 5.9997463,5.8946862 0 0 1 5.999745,-5.894687 z M 23.999709,28.052808 a 5.9997463,5.8946862 0 0 1 5.999745,5.894687 5.9997463,5.8946862 0 0 1 -5.999745,5.894686 5.9997463,5.8946862 0 0 1 -5.999746,-5.894686 5.9997463,5.8946862 0 0 1 5.999746,-5.894687 z"
     id="path219" />
  <path
     style="opacity:0.2;fill:#ffffff;stroke-width:0.743404"
     d="M 24.000009,3 C 12.366501,3 2.9999985,12.202489 2.9999985,23.632286 c 0,0.08367 0.0083,0.165085 0.01317,0.247541 C 3.2760545,12.677955 12.53304,3.736867 23.999999,3.736867 h 0.0015 c 11.466958,0 20.722474,8.941088 20.985363,20.14296 0.0046,-0.0824 0.01314,-0.163949 0.01314,-0.247541 C 45.000002,12.202489 35.634959,3 24.001452,3 Z"
     id="path221" />
  <path
     style="fill:#4f4f4f;stroke-width:0.743404"
     d="m 26.597602,22.158122 a 0.7499683,0.73683578 0 0 0 -1.024455,-0.269682 0.7499683,0.73683578 0 0 0 -0.274492,1.006518 0.7499683,0.73683578 0 0 0 1.024456,0.269682 0.7499683,0.73683578 0 0 0 0.274491,-1.006518 z m -3.073373,-0.809046 a 0.7499683,0.73683578 0 0 0 -1.024455,-0.269681 0.7499683,0.73683578 0 0 0 -0.274492,1.006517 0.7499683,0.73683578 0 0 0 1.024463,0.269682 0.7499683,0.73683578 0 0 0 0.274484,-1.006518 z m 2.249906,3.828747 a 0.7499683,0.73683578 0 0 0 -1.024456,-0.269682 0.7499683,0.73683578 0 0 0 -0.274491,1.006518 0.7499683,0.73683578 0 0 0 1.024461,0.269681 0.7499683,0.73683578 0 0 0 0.274486,-1.006517 z m -3.073366,-0.809046 a 0.7499683,0.73683578 0 0 0 -1.024462,-0.269682 0.7499683,0.73683578 0 0 0 -0.274487,1.006518 0.7499683,0.73683578 0 0 0 1.024456,0.269682 0.7499683,0.73683578 0 0 0 0.274493,-1.006518 z"
     id="path223" />
</svg>
