<?xml version="1.0" encoding="UTF-8" standalone="no"?>
<svg
   width="48"
   height="48"
   version="1.1"
   viewBox="0 0 48 48"
   id="svg58"
   sodipodi:docname="strawberry.svg"
   inkscape:version="1.2.1 (9c6d41e410, 2022-07-14)"
   xmlns:inkscape="http://www.inkscape.org/namespaces/inkscape"
   xmlns:sodipodi="http://sodipodi.sourceforge.net/DTD/sodipodi-0.dtd"
   xmlns="http://www.w3.org/2000/svg"
   xmlns:svg="http://www.w3.org/2000/svg">
  <sodipodi:namedview
     id="namedview60"
     pagecolor="#ffffff"
     bordercolor="#666666"
     borderopacity="1.0"
     inkscape:showpageshadow="2"
     inkscape:pageopacity="0.0"
     inkscape:pagecheckerboard="0"
     inkscape:deskcolor="#d1d1d1"
     showgrid="false"
     inkscape:zoom="3.6875"
     inkscape:cx="32.813559"
     inkscape:cy="32.135593"
     inkscape:window-width="1920"
     inkscape:window-height="1002"
     inkscape:window-x="0"
     inkscape:window-y="0"
     inkscape:window-maximized="1"
     inkscape:current-layer="svg58" />
  <defs
     id="defs20">
    <filter
       id="filter1057-7"
       x="-0.026999999"
       y="-0.026999999"
       width="1.054"
       height="1.054"
       color-interpolation-filters="sRGB">
      <feGaussianBlur
         stdDeviation="0.61875"
         id="feGaussianBlur2" />
    </filter>
    <linearGradient
       id="linearGradient1053"
       x1="-127"
       x2="-72"
       y1="60"
       y2="5"
       gradientTransform="translate(131.5,-0.51)"
       gradientUnits="userSpaceOnUse">
      <stop
         stop-color="#dee0e2"
         offset="0"
         id="stop5" />
      <stop
         stop-color="#f1f3f5"
         stop-opacity=".99608"
         offset="1"
         id="stop7" />
    </linearGradient>
    <linearGradient
       id="linearGradient1274"
       x1="37.594002"
       x2="24.587999"
       y1="22.559999"
       y2="46.263"
       gradientUnits="userSpaceOnUse">
      <stop
         stop-color="#f00"
         offset="0"
         id="stop10" />
      <stop
         stop-color="#ff7864"
         offset="1"
         id="stop12" />
    </linearGradient>
    <linearGradient
       id="linearGradient1672"
       x1="40.223999"
       x2="35.202999"
       y1="17.995001"
       y2="26.733"
       gradientUnits="userSpaceOnUse">
      <stop
         stop-color="#389700"
         offset="0"
         id="stop15" />
      <stop
         stop-color="#34d710"
         offset="1"
         id="stop17" />
    </linearGradient>
    <filter
       id="filter11742"
       x="-0.11404526"
       y="-0.055872057"
       width="1.2280905"
       height="1.111744"
       color-interpolation-filters="sRGB">
      <feGaussianBlur
         stdDeviation="0.800066"
         id="feGaussianBlur195" />
    </filter>
    <filter
       id="filter11742-3"
       x="-0.11404526"
       y="-0.055872057"
       width="1.2280905"
       height="1.111744"
       color-interpolation-filters="sRGB">
      <feGaussianBlur
         stdDeviation="0.800066"
         id="feGaussianBlur195-6" />
    </filter>
    <linearGradient
       id="linearGradient1274-7"
       x1="37.594002"
       x2="24.587999"
       y1="22.559999"
       y2="46.263"
       gradientUnits="userSpaceOnUse">
      <stop
         stop-color="#f00"
         offset="0"
         id="stop10-5" />
      <stop
         stop-color="#ff7864"
         offset="1"
         id="stop12-3" />
    </linearGradient>
    <linearGradient
       id="linearGradient1672-5"
       x1="40.223999"
       x2="35.202999"
       y1="17.995001"
       y2="26.733"
       gradientUnits="userSpaceOnUse">
      <stop
         stop-color="#389700"
         offset="0"
         id="stop15-6" />
      <stop
         stop-color="#34d710"
         offset="1"
         id="stop17-2" />
    </linearGradient>
    <linearGradient
       gradientTransform="matrix(1.049963,0,0,1.0499041,-452.98484,-525.93776)"
       gradientUnits="userSpaceOnUse"
       x2="426.69501"
       y2="499.92099"
       y1="547.67499"
       id="a-6"
       x1="389.32001">
      <stop
         stop-color="#18222a"
         style="stop-color:#1e2b35;stop-opacity:1"
         id="stop216-3" />
      <stop
         stop-color="#566069"
         offset="1"
         style="stop-color:#6d7983;stop-opacity:1"
         id="stop218" />
    </linearGradient>
    <linearGradient
       id="c"
       gradientTransform="matrix(2.0428665,-6.8308524,5.7819337,2.3633129,25.219113,34.652812)"
       gradientUnits="userSpaceOnUse"
       x1="24"
       x2="24"
       y1="35"
       y2="13">
      <stop
         offset="0"
         stop-color="#23a2cd"
         id="stop253" />
      <stop
         offset=".53"
         stop-color="#00b8f5"
         id="stop255" />
      <stop
         offset="1"
         stop-color="#2ecbff"
         id="stop257" />
    </linearGradient>
  </defs>
  <rect
     width="41.998524"
     x="-44.99926"
     y="3.0038495"
     rx="20.999262"
     height="41.99617"
     transform="scale(-1,1)"
     style="display:inline;overflow:visible;fill:url(#a-6);stroke-width:2.93982;stroke-opacity:0.55"
     id="rect223"
     ry="20.998085" />
  <path
     style="display:inline;overflow:visible;opacity:0.3;fill:#000000;fill-opacity:1;stroke-width:2.93982;stroke-opacity:0.55"
     d="m 3.0124446,23.47711 c -0.004,0.17503 -0.0126,0.34906 -0.0126,0.52509 0,11.63302 9.3656864,20.99809 20.9992064,20.99809 11.63351,0 20.99935,-9.36507 20.99935,-20.99809 0,-0.17603 -0.008,-0.34906 -0.0126,-0.52509 -0.2773,11.38829 -9.53376,20.47312 -20.98674,20.47312 -11.45719,0 -20.7094444,-9.08483 -20.9866024,-20.47312"
     id="path225" />
  <path
     d="m 3.0124446,24.52318 c -0.004,-0.17503 -0.0126,-0.34806 -0.0126,-0.52508 C 2.9998446,12.36517 12.365531,3 23.999051,3 c 11.63351,0 20.99935,9.36517 20.99935,20.9981 0,0.17602 -0.008,0.35005 -0.0126,0.52508 -0.2773,-11.38829 -9.53376,-20.47312 -20.98674,-20.47312 -11.45719,0 -20.7094454,9.08483 -20.9866034,20.47312"
     style="display:inline;overflow:visible;opacity:0.3;fill:#ffffff;fill-opacity:1;stroke-width:2.93982;stroke-opacity:0.55"
     id="path229" />
  <g
     stroke-width="1.2069"
     id="g56-9-6"
     transform="matrix(0.76018094,0,0,0.76018066,-1.090126,0.13725395)">
    <path
       d="m 31.462,18.45 c -3.4743,-2.0059 -7.4781,-1.5303 -10.495,3.6957 -3.6207,6.2712 -3.9874,21.389 2.2838,25.01 6.2712,3.6207 19.18,-4.2559 22.801,-10.527 3.0172,-5.226 1.4272,-8.9312 -2.0471,-10.937 z"
       fill="url(#linearGradient1274)"
       id="path26-1-2"
       style="fill:url(#linearGradient1274)" />
    <path
       d="m 40.75,16.845 c 0,0 -2.6939,-0.16169 -4.5042,2.9739 0.16169,-2.6939 -1.9714,-3.9254 -4.0191,-5.1076 -1.2069,2.0904 -0.76514,3.7391 0.72182,5.9912 -2.6939,-0.16169 -4.3425,0.28006 -5.5494,2.3705 2.0478,1.1823 4.1808,2.4138 6.4329,0.92684 -1.8103,3.1356 -0.32339,5.3877 -0.32339,5.3877 0,0 2.6939,0.16169 4.5042,-2.9739 -0.16169,2.6939 1.9714,3.9254 4.0191,5.1076 1.2069,-2.0904 0.76514,-3.7391 -0.72182,-5.9912 2.6939,0.16169 4.3425,-0.28006 5.5494,-2.3705 -2.0478,-1.1823 -4.1808,-2.4138 -6.4329,-0.92684 C 42.23691,19.0971 40.75,16.845 40.75,16.845 Z"
       fill="url(#linearGradient1672)"
       style="fill:url(#linearGradient1672);paint-order:normal"
       id="path28-2-9" />
    <g
       fill="#eeebcd"
       id="g50-7-1">
      <circle
         transform="rotate(30)"
         cx="43.713001"
         cy="24.385"
         r="1.2069"
         style="paint-order:normal"
         id="circle30-0-2" />
      <circle
         transform="rotate(30)"
         cx="38.884998"
         cy="19.558001"
         r="1.2069"
         style="paint-order:normal"
         id="circle32-9-7" />
      <circle
         transform="rotate(30)"
         cx="48.540001"
         cy="19.558001"
         r="1.2069"
         style="paint-order:normal"
         id="circle34-3-0" />
      <circle
         transform="rotate(30)"
         cx="43.713001"
         cy="17.143999"
         r="1.2069"
         style="paint-order:normal"
         id="circle36-6-9" />
      <circle
         transform="rotate(30)"
         cx="50.953999"
         cy="14.73"
         r="1.2069"
         style="paint-order:normal"
         id="circle38-0-3" />
      <circle
         transform="rotate(30)"
         cx="36.471001"
         cy="14.73"
         r="1.2069"
         style="paint-order:normal"
         id="circle40-6-6" />
      <circle
         transform="rotate(30)"
         cx="34.057999"
         cy="9.9025002"
         r="1.2069"
         style="paint-order:normal"
         id="circle42-2-0" />
      <circle
         transform="rotate(30)"
         cx="53.368"
         cy="9.9025002"
         r="1.2069"
         style="paint-order:normal"
         id="circle44-6-6" />
      <circle
         transform="rotate(30)"
         cx="40.091999"
         cy="11.109"
         r="1.2069"
         style="paint-order:normal"
         id="circle46-1-2" />
      <circle
         transform="rotate(30)"
         cx="47.334"
         cy="11.109"
         r="1.2069"
         style="paint-order:normal"
         id="circle48-8-6" />
    </g>
    <circle
       transform="rotate(30)"
       cx="43.713001"
       cy="1.4542"
       r="2.4138"
       fill="#2c8223"
       style="paint-order:normal"
       id="circle52-7-1" />
    <circle
       transform="rotate(30)"
       cx="43.713001"
       cy="1.4542"
       r="1.2069"
       fill="#5ccd7c"
       style="paint-order:normal"
       id="circle54-9-8" />
  </g>
</svg>
