<?xml version="1.0" encoding="UTF-8" standalone="no"?>
<svg
   width="48"
   viewBox="0 0 48 48"
   height="48"
   version="1.1"
   id="svg431"
   sodipodi:docname="synfig_icon.svg"
   inkscape:version="1.2.1 (9c6d41e410, 2022-07-14)"
   xmlns:inkscape="http://www.inkscape.org/namespaces/inkscape"
   xmlns:sodipodi="http://sodipodi.sourceforge.net/DTD/sodipodi-0.dtd"
   xmlns:xlink="http://www.w3.org/1999/xlink"
   xmlns="http://www.w3.org/2000/svg"
   xmlns:svg="http://www.w3.org/2000/svg">
  <sodipodi:namedview
     id="namedview433"
     pagecolor="#ffffff"
     bordercolor="#666666"
     borderopacity="1.0"
     inkscape:showpageshadow="2"
     inkscape:pageopacity="0.0"
     inkscape:pagecheckerboard="0"
     inkscape:deskcolor="#d1d1d1"
     showgrid="false"
     inkscape:zoom="4.9166667"
     inkscape:cx="24"
     inkscape:cy="24"
     inkscape:window-width="1920"
     inkscape:window-height="1011"
     inkscape:window-x="0"
     inkscape:window-y="0"
     inkscape:window-maximized="1"
     inkscape:current-layer="svg431" />
  <defs
     id="defs413">
    <linearGradient
       id="a"
       y1="543.8"
       y2="503.8"
       x2="0"
       gradientUnits="userSpaceOnUse"
       gradientTransform="translate(-817.14)">
      <stop
         stop-color="#18222a"
         id="stop392" />
      <stop
         offset="1"
         stop-color="#566069"
         id="stop394" />
    </linearGradient>
    <linearGradient
       id="b"
       y1="517.8"
       x1="399.57"
       y2="534.8"
       x2="416.57"
       gradientUnits="userSpaceOnUse">
      <stop
         id="stop397" />
      <stop
         offset="1"
         stop-opacity="0"
         id="stop399" />
    </linearGradient>
    <linearGradient
       id="c"
       y1="537.8"
       y2="508.8"
       gradientUnits="userSpaceOnUse"
       x2="0">
      <stop
         stop-color="#026ddc"
         id="stop402" />
      <stop
         offset="1"
         stop-color="#28b0fd"
         id="stop404" />
    </linearGradient>
    <linearGradient
       id="d"
       y1="525.28"
       x1="408.65"
       y2="533.28"
       x2="416.65"
       gradientUnits="userSpaceOnUse"
       gradientTransform="translate(-.081-.48)">
      <stop
         stop-opacity=".065"
         id="stop407" />
      <stop
         offset="1"
         stop-opacity="0"
         id="stop409" />
    </linearGradient>
    <linearGradient
       xlink:href="#d"
       id="e"
       y1="517.96"
       x1="417.79"
       y2="525.91"
       gradientUnits="userSpaceOnUse"
       x2="426.22"
       gradientTransform="matrix(-1,0,0,1,817.2,-0.48)" />
    <linearGradient
       inkscape:collect="always"
       xlink:href="#d"
       id="linearGradient606"
       gradientUnits="userSpaceOnUse"
       gradientTransform="translate(-0.081,-0.48)"
       x1="408.65"
       y1="525.28"
       x2="416.65"
       y2="533.28" />
  </defs>
  <g
     transform="matrix(1.0499213,0,0,1.0499997,-404.96582,-525.98984)"
     id="g429">
    <rect
       width="40"
       x="-428.57001"
       y="503.79999"
       stroke-opacity="0.55"
       fill="url(#a)"
       rx="20"
       height="40"
       stroke-width="2.8"
       transform="scale(-1,1)"
       id="rect415"
       style="fill:url(#a)" />
    <path
       opacity="0.2"
       fill="url(#b)"
       fill-rule="evenodd"
       d="m 398.28,532.51 10.291,10.291 c 6,1 17.781,-10.52 20,-16 l -20,-18 z"
       id="path417"
       style="fill:url(#b)" />
    <path
       stroke-opacity="0.55"
       fill="#161e25"
       stroke-width="2.8"
       d="m 388.58,523.3 c -0.004,0.167 -0.012,0.332 -0.012,0.5 0,11.08 8.92,20 20,20 11.08,0 20,-8.92 20,-20 0,-0.168 -0.008,-0.333 -0.012,-0.5 -0.264,10.847 -9.08,19.5 -19.988,19.5 -10.912,0 -19.724,-8.653 -19.988,-19.5"
       id="path419" />
    <path
       fill="url(#c)"
       d="m 408.57,508.8 c -0.093,-0.003 -0.183,0.034 -0.248,0.101 -0.931,0.971 -1.877,2.061 -2.732,3.099 -10e-4,10e-4 0,0.003 0,0.004 -2.107,2.628 -3.709,5.328 -4.869,8.218 -1.081,2.693 -1.713,5.02 -2.288,8.416 -0.126,0.743 -0.253,1.644 -0.341,2.368 -0.044,0.362 -0.078,0.68 -0.097,0.915 -0.01,0.118 -0.015,0.214 -0.017,0.292 -0.001,0.039 0,0.072 0,0.112 0,0.02 0,0.042 0.014,0.079 0.01,0.037 0,0.111 0.149,0.202 0.08,0.049 0.09,0.039 0.11,0.044 0.02,0.005 0.035,0.008 0.051,0.011 0.032,0.005 0.066,0.009 0.105,0.013 0.078,0.008 0.174,0.016 0.276,0.022 0.808,0.044 1.999,0.25 2.789,0.481 0.533,0.156 0.884,0.285 1.405,0.516 0.12,0.053 0.231,0.102 0.313,0.138 0.041,0.018 0.075,0.032 0.1,0.042 0.012,0.005 0.023,0.009 0.032,0.013 10e-4,10e-4 0.002,0.002 10e-4,0.002 0,0.002 0.01,0.004 0.014,0.007 v -0.003 c 0,10e-4 0,10e-4 0,0.002 0.01,0.002 0.01,0.004 0.019,0.007 0,0.001 0.01,0.004 0.012,0.005 0,-10e-4 -0.011,0 -0.013,-10e-4 0.023,0.012 0.05,0.028 0.087,0.048 0.088,0.048 0.209,0.116 0.341,0.19 1.275,0.716 2.228,1.455 3.75,2.914 0.201,0.192 0.387,0.366 0.529,0.495 0.071,0.064 0.13,0.118 0.176,0.157 0.023,0.02 0.043,0.036 0.064,0.052 0.01,0.008 0.021,0.016 0.038,0.028 0.01,0.005 0.02,0.012 0.039,0.022 0.02,0.009 0.039,0.028 0.13,0.033 0.109,0.005 0.131,-0.019 0.153,-0.029 0.022,-0.01 0.034,-0.017 0.043,-0.023 0.019,-0.012 0.03,-0.02 0.041,-0.029 0.022,-0.017 0.043,-0.034 0.068,-0.055 0.05,-0.042 0.115,-0.1 0.192,-0.169 0.154,-0.139 0.358,-0.327 0.578,-0.536 1.259,-1.194 1.869,-1.699 2.746,-2.281 1.915,-1.271 3.621,-1.834 6.24,-2.056 l 0.212,-0.018 c 0.171,-0.014 0.302,-0.157 0.302,-0.328 v -0.125 c 0,-0.26 -0.062,-0.798 -0.146,-1.464 -0.084,-0.666 -0.19,-1.424 -0.287,-2 -0.575,-3.424 -1.228,-5.836 -2.323,-8.562 -0.986,-2.457 -2.399,-4.938 -4.087,-7.184 0,-0.005 -0.01,-0.01 -0.012,-0.015 -1.136,-1.345 -2.235,-2.756 -3.434,-4.065 -0.06,-0.066 -0.144,-0.104 -0.233,-0.107 z"
       id="path421"
       style="fill:url(#c)" />
    <g
       fill-rule="evenodd"
       id="g427">
      <path
         fill="url(#d)"
         d="m 415.83,519.04 -17.797,13.467 c 0.02,0.03 0.042,0.063 0.102,0.1 0.08,0.049 0.092,0.038 0.111,0.043 0.02,0.005 0.035,0.009 0.051,0.012 0.032,0.005 0.067,0.008 0.105,0.012 0.078,0.008 0.174,0.018 0.275,0.023 0.808,0.044 1.999,0.249 2.789,0.48 0.533,0.156 0.886,0.285 1.406,0.516 0.12,0.053 0.23,0.101 0.313,0.137 0.041,0.018 0.074,0.032 0.1,0.043 0.012,0.005 0.022,0.01 0.031,0.014 0.001,0 0.003,0 0.004,0 l 0.002,0.002 c 0.004,0.002 0.007,0.003 0.014,0.006 h 0.002 c 0.005,0.002 0.008,0.003 0.018,0.006 0.004,0.001 0.007,0.005 0.012,0.006 -0.003,-0.001 -0.01,-0.001 -0.012,-0.002 0.023,0.012 0.049,0.028 0.086,0.049 0.088,0.048 0.21,0.115 0.342,0.189 1.275,0.716 2.228,1.455 3.75,2.914 0.201,0.192 0.388,0.367 0.529,0.496 0.071,0.064 0.129,0.116 0.176,0.156 0.023,0.02 0.043,0.037 0.065,0.053 0.01,0.008 0.021,0.016 0.039,0.027 0.009,0.005 0.019,0.012 0.039,0.021 0.02,0.009 0.038,0.029 0.129,0.033 0.109,0.005 0.132,-0.019 0.154,-0.029 0.022,-0.01 0.033,-0.018 0.043,-0.023 0.019,-0.012 0.03,-0.019 0.041,-0.027 0.022,-0.017 0.043,-0.034 0.068,-0.055 0.05,-0.042 0.114,-0.101 0.191,-0.17 0.154,-0.139 0.358,-0.327 0.578,-0.535 1.259,-1.194 1.869,-1.699 2.746,-2.281 1.915,-1.271 3.621,-1.834 6.24,-2.055 l 0.211,-0.018 c 0.171,-0.014 0.303,-0.159 0.303,-0.33 v -0.123 c 0,-0.26 -0.063,-0.799 -0.146,-1.465 -0.084,-0.666 -0.19,-1.424 -0.287,-2 -0.575,-3.424 -1.227,-5.836 -2.322,-8.563 -0.151,-0.376 -0.329,-0.752 -0.5,-1.129"
         id="path423"
         style="fill:url(#linearGradient606)" />
      <path
         fill="url(#e)"
         d="m 401.29,519.04 17.797,13.467 c -0.02,0.03 -0.042,0.063 -0.102,0.1 -0.08,0.049 -0.092,0.038 -0.111,0.043 -0.02,0.005 -0.035,0.009 -0.051,0.012 -0.032,0.005 -0.067,0.008 -0.105,0.012 -0.078,0.008 -0.174,0.018 -0.275,0.023 -0.808,0.044 -1.999,0.249 -2.789,0.48 -0.533,0.156 -0.886,0.285 -1.406,0.516 -0.12,0.053 -0.23,0.101 -0.313,0.137 -0.041,0.018 -0.074,0.032 -0.1,0.043 -0.012,0.005 -0.022,0.01 -0.031,0.014 -10e-4,0 -0.003,0 -0.004,0 l -0.002,0.002 c -0.004,0.002 -0.007,0.003 -0.014,0.006 h -0.002 c -0.005,0.002 -0.008,0.003 -0.018,0.006 -0.004,0.001 -0.007,0.005 -0.012,0.006 0.003,-0.001 0.01,-0.001 0.012,-0.002 -0.023,0.012 -0.049,0.028 -0.086,0.049 -0.088,0.048 -0.21,0.115 -0.342,0.189 -1.275,0.716 -2.228,1.455 -3.75,2.914 -0.201,0.192 -0.388,0.367 -0.529,0.496 -0.071,0.064 -0.129,0.116 -0.176,0.156 -0.023,0.02 -0.043,0.037 -0.065,0.053 -0.01,0.008 -0.021,0.016 -0.039,0.027 -0.009,0.005 -0.019,0.012 -0.039,0.021 -0.02,0.009 -0.038,0.029 -0.129,0.033 -0.109,0.005 -0.132,-0.019 -0.154,-0.029 -0.022,-0.01 -0.033,-0.018 -0.043,-0.023 -0.019,-0.012 -0.03,-0.019 -0.041,-0.027 -0.022,-0.017 -0.043,-0.034 -0.068,-0.055 -0.05,-0.042 -0.114,-0.101 -0.191,-0.17 -0.154,-0.139 -0.358,-0.327 -0.578,-0.535 -1.259,-1.194 -1.869,-1.699 -2.746,-2.281 -1.915,-1.271 -3.621,-1.834 -6.24,-2.055 l -0.211,-0.018 c -0.171,-0.014 -0.303,-0.159 -0.303,-0.33 v -0.123 c 0,-0.26 0.063,-0.799 0.146,-1.465 0.084,-0.666 0.19,-1.424 0.287,-2 0.575,-3.424 1.227,-5.836 2.322,-8.563 0.151,-0.376 0.329,-0.752 0.5,-1.129"
         id="path425"
         style="fill:url(#e)" />
    </g>
  </g>
</svg>
