<?xml version="1.0" encoding="UTF-8" standalone="no"?>
<svg
   width="48"
   height="48"
   version="1.1"
   id="svg20"
   sodipodi:docname="veracrypt.svg"
   inkscape:version="1.2.1 (9c6d41e410, 2022-07-14)"
   xmlns:inkscape="http://www.inkscape.org/namespaces/inkscape"
   xmlns:sodipodi="http://sodipodi.sourceforge.net/DTD/sodipodi-0.dtd"
   xmlns:xlink="http://www.w3.org/1999/xlink"
   xmlns="http://www.w3.org/2000/svg"
   xmlns:svg="http://www.w3.org/2000/svg">
  <sodipodi:namedview
     id="namedview22"
     pagecolor="#ffffff"
     bordercolor="#666666"
     borderopacity="1.0"
     inkscape:showpageshadow="2"
     inkscape:pageopacity="0.0"
     inkscape:pagecheckerboard="0"
     inkscape:deskcolor="#d1d1d1"
     showgrid="false"
     inkscape:zoom="4.9170839"
     inkscape:cx="23.997964"
     inkscape:cy="23.997964"
     inkscape:window-width="1920"
     inkscape:window-height="1009"
     inkscape:window-x="0"
     inkscape:window-y="0"
     inkscape:window-maximized="1"
     inkscape:current-layer="svg20" />
  <defs
     id="defs8">
    <linearGradient
       inkscape:collect="always"
       id="linearGradient904">
      <stop
         style="stop-color:#008b8b;stop-opacity:1;"
         offset="0"
         id="stop900" />
      <stop
         style="stop-color:#2a7fff;stop-opacity:1"
         offset="1"
         id="stop902" />
    </linearGradient>
    <linearGradient
       id="a">
      <stop
         stop-color="#197cf1"
         id="stop2" />
      <stop
         offset="1"
         stop-color="#20bcfa"
         id="stop4" />
    </linearGradient>
    <linearGradient
       xlink:href="#a"
       id="b"
       x1="44"
       y1="44"
       x2="4"
       y2="4"
       gradientUnits="userSpaceOnUse"
       gradientTransform="translate(-87.983909,-16.203869)" />
    <linearGradient
       gradientTransform="matrix(1.0499996,0,0,1.049334,-404.99978,-525.65226)"
       xlink:href="#1"
       id="0"
       x1="417.634"
       y1="540.79901"
       x2="399.646"
       y2="500.89301"
       gradientUnits="userSpaceOnUse" />
    <linearGradient
       id="1">
      <stop
         stop-color="#105be2"
         style="stop-color:#2579b0;stop-opacity:1"
         id="stop13" />
      <stop
         offset="1"
         stop-color="#26dbfc"
         style="stop-color:#18222a;stop-opacity:1;"
         id="stop15" />
    </linearGradient>
    <linearGradient
       xlink:href="#linearGradient4179"
       id="linearGradient4185"
       x1="20"
       y1="16"
       x2="36"
       y2="32"
       gradientUnits="userSpaceOnUse"
       gradientTransform="matrix(1.0499996,0,0,1.049334,58.800002,-15.027844)" />
    <linearGradient
       id="linearGradient4179">
      <stop
         style="stop-color:#000000;stop-opacity:1;"
         offset="0"
         id="stop2-3" />
      <stop
         style="stop-color:#000000;stop-opacity:0;"
         offset="1"
         id="stop4-6" />
    </linearGradient>
    <linearGradient
       xlink:href="#linearGradient4165"
       id="linearGradient4171"
       x1="19"
       y1="12"
       x2="29"
       y2="36"
       gradientUnits="userSpaceOnUse"
       gradientTransform="matrix(1.0499996,0,0,1.049334,58.800002,-15.027844)" />
    <linearGradient
       id="linearGradient4165">
      <stop
         style="stop-color:#ffffff;stop-opacity:1;"
         offset="0"
         id="stop7" />
      <stop
         style="stop-color:#7cafec;stop-opacity:1"
         offset="1"
         id="stop9" />
    </linearGradient>
    <linearGradient
       inkscape:collect="always"
       xlink:href="#linearGradient904"
       id="linearGradient906"
       x1="3"
       y1="44.973358"
       x2="45"
       y2="3"
       gradientUnits="userSpaceOnUse" />
  </defs>
  <rect
     height="41.973373"
     rx="21"
     y="3"
     x="3"
     width="42"
     id="rect22"
     style="fill-opacity:1;fill:url(#linearGradient906)" />
  <path
     style="opacity:0.15;fill:#000000;fill-opacity:1;stroke-width:2.93909;stroke-opacity:0.550265"
     d="M 3.012305,23.46201 C 3.008029,23.637103 3,23.810525 3,23.986679 c 0,11.62661 9.366008,20.98668 20.99999,20.98668 11.633986,0 20.99999,-9.36007 20.99999,-20.98668 0,-0.176154 -0.008,-0.349576 -0.0123,-0.524669 -0.27739,11.381676 -9.529635,20.462009 -20.987684,20.462009 -11.458054,0 -20.710295,-9.080333 -20.987685,-20.462009 z"
     id="path28" />
  <path
     d="m 39.953291,32.968323 h -5.451448 v -3.103242 l 2.725721,-1.375979 z"
     fill="#2bac8f"
     id="path24-3"
     style="stroke-width:0.393273;image-rendering:optimizeSpeed" />
  <path
     d="m 37.22676,28.489102 h -5.451046 l 0.545469,2.410267 2.180255,2.068571 z"
     fill="#2e997c"
     id="path26-6"
     style="stroke-width:0.393273;image-rendering:optimizeSpeed" />
  <path
     d="M 34.50265,32.968323 H 29.0512 l 1.090532,-3.103242 1.635193,-1.375979 z"
     fill="#278768"
     id="path28-0"
     style="stroke-width:0.393273;image-rendering:optimizeSpeed" />
  <path
     d="m 29.04999,24.007581 -2.180258,-1.385948 -3.271192,1.385948 2.725725,4.478834 z"
     fill="#21674f"
     id="path30-6"
     style="stroke-width:0.393273;image-rendering:optimizeSpeed" />
  <path
     d="m 31.777329,28.489102 -2.725321,-0.692971 -2.725725,0.692971 2.725725,4.478838 z"
     fill="#2a8d70"
     id="path32-2"
     style="stroke-width:0.393273;image-rendering:optimizeSpeed" />
  <path
     d="M 31.777329,28.485273 H 26.326283 L 27.66593,26.283778 29.051604,24.00643 Z"
     fill="#2f9f81"
     id="path34-6"
     style="stroke-width:0.393273;image-rendering:optimizeSpeed" />
  <path
     d="m 39.953291,15.040323 h -5.451045 v 2.400693 l 2.725318,2.078148 z"
     fill="#96cfba"
     id="path36-1"
     style="stroke-width:0.393273;image-rendering:optimizeSpeed" />
  <path
     d="m 37.22716,19.519164 h -5.451446 l 0.545064,-3.112817 2.180257,-1.366024 z"
     fill="#85c8b1"
     id="path38-8"
     style="stroke-width:0.393273;image-rendering:optimizeSpeed" />
  <path
     d="m 34.50265,15.040323 h -5.451046 v 2.400693 l 2.725321,2.078148 z"
     fill="#6bbfa4"
     id="path40-7"
     style="stroke-width:0.393273;image-rendering:optimizeSpeed" />
  <path
     d="m 31.777329,19.519928 -2.725321,1.024709 -2.725725,-1.024709 2.725725,-4.47884 z"
     fill="#52b99b"
     id="path42-9"
     style="stroke-width:0.393273;image-rendering:optimizeSpeed" />
  <path
     d="m 31.777329,19.523373 h -5.451046 l 0.545469,2.058997 2.180256,2.419846 z"
     fill="#44b799"
     id="path44-2"
     style="stroke-width:0.393273;image-rendering:optimizeSpeed" />
  <path
     d="m 29.04999,24.003745 h -5.451046 l 2.725724,-4.478834 z"
     fill="#33b394"
     id="path46-0"
     style="stroke-width:0.393273;image-rendering:optimizeSpeed" />
  <path
     d="M 26.324265,28.485651 23.598944,29.861634 20.872816,28.485651 23.59854,24.00681 Z"
     fill="#2da4ad"
     id="path48-2"
     style="stroke-width:0.393273;image-rendering:optimizeSpeed" />
  <path
     d="m 26.324668,28.489102 h -5.451449 l 0.08721,2.914003 2.638515,1.565218 z"
     fill="#2f98af"
     id="path50-3"
     style="stroke-width:0.393273;image-rendering:optimizeSpeed" />
  <path
     d="m 23.597329,32.968323 h -5.45145 l 4.01e-4,-3.103242 2.725323,-1.375979 1.343685,2.207623 z"
     fill="#0d657a"
     id="path52-7"
     style="stroke-width:0.393273;image-rendering:optimizeSpeed" />
  <path
     d="m 20.872816,28.489102 -2.725321,-0.692971 -2.726128,0.692971 2.725725,4.478838"
     fill="#2a69b1"
     id="path54-5"
     style="stroke-width:0.393273;image-rendering:optimizeSpeed" />
  <path
     d="m 20.872816,28.485273 h -5.451048 l 0.545473,-2.761548 2.180254,-1.717295 z"
     fill="#2077bc"
     id="path56-9"
     style="stroke-width:0.393273;image-rendering:optimizeSpeed" />
  <path
     d="m 18.147092,24.007581 -3.270387,-1.385948 -2.181065,1.385948 2.725727,4.478834"
     fill="#2886c7"
     id="path58-2"
     style="stroke-width:0.393273;image-rendering:optimizeSpeed" />
  <path
     d="m 18.147495,24.003745 h -5.451447 l 4.05e-4,-3.455276 2.725315,-1.024323 z"
     fill="#238dcd"
     id="path60-2"
     style="stroke-width:0.393273;image-rendering:optimizeSpeed" />
  <path
     d="m 15.437514,19.509972 -2.741466,-1.044246 -2.726128,1.044246 2.733796,4.492244"
     fill="#1a9cd1"
     id="path62-8"
     style="stroke-width:0.393273;image-rendering:optimizeSpeed" />
  <path
     d="M 15.421367,19.519164 H 9.970325 l 0.545464,-2.078535 2.180259,-2.400306 z"
     fill="#0ea6d3"
     id="path64-9"
     style="stroke-width:0.393273;image-rendering:optimizeSpeed" />
  <path
     d="M 12.696048,15.040323 H 7.245 l 2.725726,4.478841 z"
     fill="#08abd8"
     id="path66-7"
     style="stroke-width:0.393273;image-rendering:optimizeSpeed" />
</svg>
