<?xml version="1.0" encoding="UTF-8" standalone="no"?>
<svg
   viewBox="0 0 48 48"
   version="1.1"
   id="svg40"
   sodipodi:docname="vlc.svg"
   inkscape:version="1.2.1 (9c6d41e410, 2022-07-14)"
   xmlns:inkscape="http://www.inkscape.org/namespaces/inkscape"
   xmlns:sodipodi="http://sodipodi.sourceforge.net/DTD/sodipodi-0.dtd"
   xmlns:xlink="http://www.w3.org/1999/xlink"
   xmlns="http://www.w3.org/2000/svg"
   xmlns:svg="http://www.w3.org/2000/svg">
  <defs
     id="defs44">
    <linearGradient
       inkscape:collect="always"
       id="linearGradient3196">
      <stop
         style="stop-color:#9a572a;stop-opacity:1;"
         offset="0"
         id="stop3192" />
      <stop
         style="stop-color:#864c25;stop-opacity:0.60435027;"
         offset="1"
         id="stop3194" />
    </linearGradient>
    <linearGradient
       inkscape:collect="always"
       id="linearGradient2984">
      <stop
         style="stop-color:#c87137;stop-opacity:1"
         offset="0"
         id="stop2980" />
      <stop
         style="stop-color:#542607;stop-opacity:1;"
         offset="0.50265795"
         id="stop3112" />
      <stop
         style="stop-color:#ff8b3e;stop-opacity:1;"
         offset="1"
         id="stop2982" />
    </linearGradient>
    <linearGradient
       inkscape:collect="always"
       id="linearGradient2845">
      <stop
         style="stop-color:#b24800;stop-opacity:1;"
         offset="0"
         id="stop2841" />
      <stop
         style="stop-color:#ffbf96;stop-opacity:1;"
         offset="1"
         id="stop2843" />
    </linearGradient>
    <linearGradient
       inkscape:collect="always"
       id="linearGradient2586">
      <stop
         style="stop-color:#ff9955;stop-opacity:1"
         offset="0"
         id="stop2582" />
      <stop
         style="stop-color:#ffccaa;stop-opacity:1"
         offset="1"
         id="stop2584" />
    </linearGradient>
    <linearGradient
       gradientTransform="matrix(1.049963,0,0,1.0499041,-452.98484,-525.93776)"
       gradientUnits="userSpaceOnUse"
       x2="426.69501"
       y2="499.92099"
       y1="547.67499"
       id="a-6"
       x1="389.32001">
      <stop
         stop-color="#18222a"
         style="stop-color:#ffc199;stop-opacity:1;"
         id="stop216-3"
         offset="0" />
      <stop
         stop-color="#566069"
         offset="1"
         style="stop-color:#ffa970;stop-opacity:1;"
         id="stop218" />
    </linearGradient>
    <linearGradient
       id="d-3"
       gradientUnits="userSpaceOnUse"
       x1="27"
       x2="25.42725"
       y1="28"
       y2="32.71825"
       gradientTransform="translate(-58.575692,-29.333333)">
      <stop
         offset="0"
         stop-color="#b1621e"
         id="stop231" />
      <stop
         offset="1"
         stop-color="#ffa21d"
         id="stop233" />
    </linearGradient>
    <linearGradient
       id="c-6"
       gradientTransform="matrix(2.0428665,-6.8308524,5.7819337,2.3633129,-33.356582,5.3194785)"
       gradientUnits="userSpaceOnUse"
       x1="24"
       x2="24"
       y1="35"
       y2="13">
      <stop
         offset="0"
         stop-color="#cd7223"
         id="stop224" />
      <stop
         offset=".53"
         stop-color="#f48e00"
         id="stop226" />
      <stop
         offset="1"
         stop-color="#ffa92d"
         id="stop228" />
    </linearGradient>
    <linearGradient
       id="linearGradient817"
       x1="13"
       x2="42"
       y1="14"
       y2="43"
       gradientUnits="userSpaceOnUse"
       gradientTransform="matrix(0.79499994,0,0,0.79499994,61.987735,-38.788769)">
      <stop
         stop-color="#ffb24d"
         offset="0"
         id="stop7-7" />
      <stop
         stop-color="#ffa733"
         offset=".36206895"
         id="stop9-5" />
      <stop
         stop-color="#f28100"
         offset="1"
         id="stop11-3" />
    </linearGradient>
    <linearGradient
       id="linearGradient821"
       x1="23"
       x2="42"
       y1="25"
       y2="44"
       gradientUnits="userSpaceOnUse"
       gradientTransform="matrix(0.79499994,0,0,0.79499994,61.987735,-38.788769)">
      <stop
         stop-color="#e5840b"
         offset="0"
         id="stop14-5" />
      <stop
         stop-color="#f27a00"
         offset="1"
         id="stop16-6" />
    </linearGradient>
    <linearGradient
       id="linearGradient826"
       x1="16"
       x2="34"
       y1="22"
       y2="28"
       gradientUnits="userSpaceOnUse"
       gradientTransform="matrix(0.79499994,0,0,0.79499994,61.987735,-38.788769)">
      <stop
         stop-color="#ffb24d"
         offset="0"
         id="stop21-2" />
      <stop
         stop-color="#ffa733"
         offset=".15737528"
         id="stop23-9" />
      <stop
         stop-color="#f28100"
         offset="1"
         id="stop25-1" />
    </linearGradient>
    <linearGradient
       id="linearGradient828"
       x1="15"
       x2="25"
       y1="27"
       y2="37"
       gradientUnits="userSpaceOnUse"
       xlink:href="#a"
       gradientTransform="matrix(0.79499994,0,0,0.79499994,61.987735,-38.788769)" />
    <linearGradient
       id="linearGradient832">
      <stop
         stop-color="#fff"
         offset="0"
         id="stop2-2" />
      <stop
         stop-color="#f5f5f5"
         offset="1"
         id="stop4-7" />
    </linearGradient>
    <linearGradient
       id="linearGradient834"
       x1="19"
       x2="27"
       y1="13"
       y2="21"
       gradientUnits="userSpaceOnUse"
       xlink:href="#a"
       gradientTransform="matrix(0.79499994,0,0,0.79499994,61.987735,-38.788769)" />
    <linearGradient
       inkscape:collect="always"
       xlink:href="#a"
       id="linearGradient849"
       gradientUnits="userSpaceOnUse"
       gradientTransform="matrix(0.72999994,0,0,0.72999995,6.5096466,5.0310017)"
       x1="15"
       y1="27"
       x2="25"
       y2="37" />
    <linearGradient
       inkscape:collect="always"
       xlink:href="#a"
       id="linearGradient851"
       gradientUnits="userSpaceOnUse"
       gradientTransform="matrix(0.72999994,0,0,0.72999995,6.5096466,5.0310017)"
       x1="19"
       y1="13"
       x2="27"
       y2="21" />
    <linearGradient
       inkscape:collect="always"
       xlink:href="#linearGradient2586"
       id="linearGradient2588"
       x1="-44.999264"
       y1="45.000019"
       x2="-3.0007401"
       y2="3.0038493"
       gradientUnits="userSpaceOnUse" />
    <linearGradient
       inkscape:collect="always"
       xlink:href="#linearGradient2845"
       id="linearGradient2847"
       x1="12.722247"
       y1="23.47711"
       x2="19.830404"
       y2="43.539867"
       gradientUnits="userSpaceOnUse" />
    <linearGradient
       inkscape:collect="always"
       xlink:href="#linearGradient2984"
       id="linearGradient2986"
       x1="17.144548"
       y1="14.09184"
       x2="26.219627"
       y2="26.201"
       gradientUnits="userSpaceOnUse" />
    <linearGradient
       inkscape:collect="always"
       xlink:href="#linearGradient3196"
       id="linearGradient3198"
       x1="24.02964"
       y1="26.201"
       x2="36.43964"
       y2="37.151001"
       gradientUnits="userSpaceOnUse" />
  </defs>
  <sodipodi:namedview
     id="namedview42"
     pagecolor="#ffffff"
     bordercolor="#666666"
     borderopacity="1.0"
     inkscape:showpageshadow="2"
     inkscape:pageopacity="0.0"
     inkscape:pagecheckerboard="0"
     inkscape:deskcolor="#d1d1d1"
     showgrid="false"
     inkscape:zoom="4.9166667"
     inkscape:cx="22.881356"
     inkscape:cy="24.101695"
     inkscape:window-width="1920"
     inkscape:window-height="1004"
     inkscape:window-x="0"
     inkscape:window-y="0"
     inkscape:window-maximized="1"
     inkscape:current-layer="svg40" />
  <linearGradient
     id="a">
    <stop
       stop-color="#fff"
       offset="0"
       id="stop2" />
    <stop
       stop-color="#f5f5f5"
       offset="1"
       id="stop4" />
  </linearGradient>
  <linearGradient
     id="b"
     x1="13"
     x2="42"
     y1="14"
     y2="43"
     gradientUnits="userSpaceOnUse"
     gradientTransform="matrix(0.79499994,0,0,0.79499994,61.987735,-38.788769)">
    <stop
       stop-color="#ffb24d"
       offset="0"
       id="stop7" />
    <stop
       stop-color="#ffa733"
       offset="0.36206895"
       id="stop9"
       style="stop-color:#cc7500;stop-opacity:1;" />
    <stop
       stop-color="#f28100"
       offset="1"
       id="stop11" />
  </linearGradient>
  <linearGradient
     id="c"
     x1="23"
     x2="42"
     y1="25"
     y2="44"
     gradientUnits="userSpaceOnUse"
     gradientTransform="matrix(0.79499994,0,0,0.79499994,61.987735,-38.788769)">
    <stop
       stop-color="#e5840b"
       offset="0"
       id="stop14" />
    <stop
       stop-color="#f27a00"
       offset="1"
       id="stop16"
       style="stop-color:#804000;stop-opacity:1;" />
  </linearGradient>
  <linearGradient
     id="d"
     x1="15"
     x2="25"
     y1="27"
     y2="37"
     gradientUnits="userSpaceOnUse"
     xlink:href="#a"
     gradientTransform="matrix(0.79499994,0,0,0.79499994,61.987735,-38.788769)" />
  <linearGradient
     id="e"
     x1="19"
     x2="27"
     y1="13"
     y2="21"
     gradientUnits="userSpaceOnUse"
     xlink:href="#a"
     gradientTransform="matrix(0.79499994,0,0,0.79499994,61.987735,-38.788769)" />
  <linearGradient
     id="f"
     x1="16"
     x2="34"
     y1="22"
     y2="28"
     gradientUnits="userSpaceOnUse"
     gradientTransform="matrix(0.79499994,0,0,0.79499994,61.987735,-38.788769)">
    <stop
       stop-color="#ffb24d"
       offset="0"
       id="stop21" />
    <stop
       stop-color="#ffa733"
       offset="0.15737528"
       id="stop23"
       style="stop-color:#995700;stop-opacity:1;" />
    <stop
       stop-color="#f28100"
       offset="1"
       id="stop25" />
  </linearGradient>
  <rect
     width="41.998524"
     x="-44.999264"
     y="3.0038493"
     rx="20.999262"
     height="41.99617"
     transform="scale(-1,1)"
     id="rect223"
     ry="20.998085"
     style="fill-opacity:1;fill:url(#linearGradient2588)" />
  <path
     style="display:inline;overflow:visible;opacity:0.3;fill:#000000;fill-opacity:1;stroke-width:2.93982;stroke-opacity:0.55"
     d="m 3.0124385,23.47711 c -0.004,0.17503 -0.0126,0.34906 -0.0126,0.52509 0,11.63302 9.3656895,20.99809 20.9992035,20.99809 11.63351,0 20.99936,-9.36507 20.99936,-20.99809 0,-0.17603 -0.008,-0.34906 -0.0126,-0.52509 -0.2773,11.38829 -9.53376,20.47312 -20.98674,20.47312 -11.4572,0 -20.7094515,-9.08483 -20.9866095,-20.47312"
     id="path225" />
  <path
     d="m 3.0124385,24.52318 c -0.004,-0.17503 -0.0126,-0.34806 -0.0126,-0.52508 C 2.9998385,12.36517 12.365528,3 23.999042,3 c 11.63351,0 20.99936,9.36517 20.99936,20.9981 0,0.17602 -0.008,0.35005 -0.0126,0.52508 -0.2773,-11.38829 -9.53377,-20.47312 -20.98675,-20.47312 -11.457191,0 -20.7094425,9.08483 -20.9866005,20.47312"
     style="display:inline;overflow:visible;opacity:0.3;fill:#ffffff;fill-opacity:1;stroke-width:2.93982;stroke-opacity:0.55"
     id="path229" />
  <path
     d="m 14.539641,26.201001 a 0.73007294,0.73007295 0 0 0 -0.697196,0.514708 l -2.920002,9.49 A 0.73007294,0.73007295 0 0 0 11.619641,37.151 h 24.819998 a 0.73007294,0.73007295 0 0 0 0.697218,-0.945291 l -2.919999,-9.49 a 0.73007294,0.73007295 0 0 0 -0.697219,-0.514708 z"
     id="path28-0"
     style="fill-opacity:1;fill:url(#linearGradient2847)" />
  <path
     d="m 20.37964,26.201001 -3.738388,3.738399 6.481596,6.4816 h 14.046791 a 0.73007294,0.73007295 0 0 0 -0.03282,-0.215292 l -2.92,-9.489999 a 0.73007294,0.73007295 0 0 0 -0.697208,-0.514708 h -1.459996 z"
     id="path30-9"
     style="fill-opacity:1;fill:url(#linearGradient3198)" />
  <path
     d="m 24.026796,7.9510017 a 2.190219,2.190219 0 0 0 -2.083064,1.5227345 l -5.84,18.2499948 a 2.190219,2.190219 0 0 0 0.96667,2.5493 c 2.099581,1.248561 4.754963,1.767969 6.959238,1.767969 2.204277,0 4.859678,-0.519408 6.959239,-1.767969 a 2.190219,2.190219 0 0 0 0.966686,-2.5493 l -5.84,-18.2499948 A 2.190219,2.190219 0 0 0 24.026796,7.9510017 Z"
     id="path32-3"
     style="fill-opacity:1;fill:url(#linearGradient2986)" />
  <path
     d="m 30.914738,24.472956 c -2.087987,1.217818 -4.706023,1.728045 -6.885098,1.728045 -2.179056,0 -4.797092,-0.510227 -6.885092,-1.728045 l -1.040816,3.250775 a 2.190219,2.190219 0 0 0 0.96667,2.5493 c 2.099581,1.248561 4.754963,1.767969 6.959238,1.767969 2.204277,0 4.859678,-0.519408 6.959239,-1.767969 a 2.190219,2.190219 0 0 0 0.966686,-2.5493 z"
     id="path34-6"
     style="fill:url(#linearGradient849);stroke-width:0.73" />
  <path
     d="m 20.46519,14.09184 -3.320642,10.381116 1.62112,-5.0658 c 1.727224,0.663953 3.621029,0.953845 5.263972,0.953845 1.64295,0 3.536753,-0.289892 5.263993,-0.953845 l 1.621105,5.0658 -3.320642,-10.381116 c -1.21679,0.2936 -2.448261,0.429162 -3.564456,0.429162 -1.116176,0 -2.347661,-0.135562 -3.56445,-0.429162 z"
     id="path36-0"
     style="fill:url(#linearGradient851);stroke-width:0.73" />
  <path
     d="m 10.891071,36.421 a 0.73007294,0.73007295 0 0 0 0.72857,0.73 h 24.819998 a 0.73007294,0.73007295 0 0 0 0.73,-0.73 z"
     fill="#d97716"
     id="path38-6"
     style="stroke-width:0.73" />
</svg>
