<?xml version="1.0" encoding="UTF-8" standalone="no"?>
<svg
   width="48"
   height="48"
   version="1.1"
   id="svg75"
   sodipodi:docname="xine.svg"
   inkscape:version="1.2.1 (9c6d41e410, 2022-07-14)"
   xmlns:inkscape="http://www.inkscape.org/namespaces/inkscape"
   xmlns:sodipodi="http://sodipodi.sourceforge.net/DTD/sodipodi-0.dtd"
   xmlns:xlink="http://www.w3.org/1999/xlink"
   xmlns="http://www.w3.org/2000/svg"
   xmlns:svg="http://www.w3.org/2000/svg">
  <sodipodi:namedview
     id="namedview77"
     pagecolor="#ffffff"
     bordercolor="#666666"
     borderopacity="1.0"
     inkscape:showpageshadow="2"
     inkscape:pageopacity="0.0"
     inkscape:pagecheckerboard="0"
     inkscape:deskcolor="#d1d1d1"
     showgrid="false"
     inkscape:zoom="4.9166667"
     inkscape:cx="24"
     inkscape:cy="24"
     inkscape:window-width="1920"
     inkscape:window-height="1009"
     inkscape:window-x="0"
     inkscape:window-y="0"
     inkscape:window-maximized="1"
     inkscape:current-layer="svg75" />
  <defs
     id="defs43">
    <linearGradient
       inkscape:collect="always"
       id="linearGradient897">
      <stop
         style="stop-color:#fff8dc;stop-opacity:1;"
         offset="0"
         id="stop893" />
      <stop
         style="stop-color:#ffdfc8;stop-opacity:1;"
         offset="1"
         id="stop895" />
    </linearGradient>
    <linearGradient
       id="a"
       y1="512.95"
       x1="392.22"
       y2="538.87"
       x2="430.91"
       gradientUnits="userSpaceOnUse"
       gradientTransform="matrix(1.1082192,0,0,1.0785929,-490.31743,-549.45369)">
      <stop
         stop-color="#303a44"
         id="stop2" />
      <stop
         offset="1"
         stop-color="#525c68"
         id="stop4" />
    </linearGradient>
    <linearGradient
       spreadMethod="reflect"
       id="b"
       y1="12.636"
       x1="11.08"
       y2="40.843"
       x2="39.28"
       gradientUnits="userSpaceOnUse"
       gradientTransform="matrix(1.1322039,0,0,1.1019424,-65.009371,-10.652069)">
      <stop
         stop-color="#f19519"
         id="stop7" />
      <stop
         offset="1"
         stop-color="#fcdc4d"
         id="stop9" />
    </linearGradient>
    <linearGradient
       id="c"
       y1="509.4"
       x1="393.87"
       y2="513.11"
       x2="398.44"
       gradientUnits="userSpaceOnUse"
       gradientTransform="matrix(1.1082192,0,0,1.0785929,-470.69196,-530.52873)">
      <stop
         stop-color="#292c2f"
         id="stop12" />
      <stop
         offset="1"
         stop-opacity="0"
         id="stop14" />
    </linearGradient>
    <linearGradient
       id="d"
       y1="517.94"
       x1="414.5"
       y2="535.72"
       gradientUnits="userSpaceOnUse"
       x2="391.55"
       gradientTransform="matrix(-1.1082192,0,0,1.0785929,415.25987,-549.45369)">
      <stop
         stop-color="#0a0d0f"
         id="stop17" />
      <stop
         offset="1"
         stop-color="#808c9b"
         id="stop19" />
    </linearGradient>
    <linearGradient
       spreadMethod="reflect"
       id="e"
       y1="12.636"
       x1="11.08"
       y2="40.843"
       gradientUnits="userSpaceOnUse"
       x2="39.28"
       gradientTransform="matrix(-1.1322039,0,0,1.1019424,-10.05134,-10.652069)">
      <stop
         stop-color="#f19b19"
         id="stop22" />
      <stop
         offset="1"
         stop-color="#ffd92e"
         id="stop24" />
    </linearGradient>
    <linearGradient
       id="f"
       x1="389.57"
       gradientUnits="userSpaceOnUse"
       x2="427.57"
       gradientTransform="matrix(0.77992918,0.76597868,-0.77992918,0.76597868,113.8477,-690.57408)">
      <stop
         stop-color="#fcfcfc"
         id="stop27" />
      <stop
         offset="1"
         stop-color="#eff0f1"
         id="stop29" />
    </linearGradient>
    <linearGradient
       id="g"
       y1="133.24"
       x1="771.72"
       y2="160.57"
       x2="799.06"
       gradientUnits="userSpaceOnUse"
       gradientTransform="matrix(1.1029814,0,0,1.0832525,-426.6904,-543.70671)">
      <stop
         stop-color="#e5e7e8"
         id="stop32" />
      <stop
         offset="1"
         stop-color="#dcdee0"
         id="stop34" />
    </linearGradient>
    <linearGradient
       id="h"
       y1="513.71"
       x1="392.47"
       y2="535.72"
       gradientUnits="userSpaceOnUse"
       x2="391.55"
       gradientTransform="matrix(-1.05579 0 0 1.04628 839.94-24.685)">
      <stop
         stop-color="#1c242a"
         id="stop37" />
      <stop
         offset="1"
         stop-color="#2c3138"
         id="stop39" />
    </linearGradient>
    <linearGradient
       xlink:href="#h"
       id="i"
       y1="513.71"
       x1="392.47"
       y2="535.72"
       gradientUnits="userSpaceOnUse"
       x2="391.55"
       gradientTransform="matrix(-1.1082192,0,0,1.0785929,387.96874,-549.45369)" />
    <linearGradient
       id="linearGradient2793"
       x1="103.5"
       x2="103.5"
       y1="21.492001"
       y2="61.736"
       gradientTransform="matrix(0.69780987,0,0,0.69780987,11.902835,-23.52028)"
       gradientUnits="userSpaceOnUse">
      <stop
         stop-color="#dfe0ea"
         offset="0"
         id="stop1227" />
      <stop
         stop-color="#d3d6e3"
         offset="1"
         id="stop1229" />
    </linearGradient>
    <linearGradient
       id="linearGradient2785"
       x1="-184.75"
       x2="-184.75"
       y1="-11.395"
       y2="-15.712"
       gradientTransform="matrix(2.8299679,0,0,2.6374421,526.24617,46.771911)"
       gradientUnits="userSpaceOnUse">
      <stop
         stop-color="#fe9808"
         offset="0"
         id="stop1222" />
      <stop
         stop-color="#fbbb28"
         offset="1"
         id="stop1224" />
    </linearGradient>
    <filter
       id="c-3"
       x="-0.041064845"
       y="-0.032047351"
       width="1.0821297"
       height="1.0640947"
       color-interpolation-filters="sRGB">
      <feGaussianBlur
         stdDeviation="3.215463"
         id="feGaussianBlur12" />
    </filter>
    <linearGradient
       inkscape:collect="always"
       xlink:href="#linearGradient1455"
       id="linearGradient1457"
       x1="33.040226"
       y1="49.313625"
       x2="33.040226"
       y2="30.089216"
       gradientUnits="userSpaceOnUse"
       gradientTransform="matrix(0.81209241,0,0,0.81208876,-1.8089838,-2.511719)" />
    <linearGradient
       inkscape:collect="always"
       id="linearGradient1455">
      <stop
         style="stop-color:#fe9808;stop-opacity:1"
         offset="0"
         id="stop1451" />
      <stop
         style="stop-color:#fbbb28;stop-opacity:1"
         offset="1"
         id="stop1453" />
    </linearGradient>
    <linearGradient
       inkscape:collect="always"
       xlink:href="#linearGradient897"
       id="linearGradient899"
       x1="3"
       y1="3"
       x2="44.95245"
       y2="44.201778"
       gradientUnits="userSpaceOnUse" />
  </defs>
  <path
     d="m 23.976775,3 c -5.35718,0 -10.71436,2.0159329 -14.8196575,6.0467154 -8.20949,8.0626476 -8.20949,21.0454286 0,29.1080776 8.2094905,8.062648 21.4287235,8.062648 29.6382125,0 8.209491,-8.062649 8.209491,-21.04543 0,-29.1080776 C 34.691138,5.0159329 29.332853,3 23.975672,3 M 24,25.170529 v 0 0 0 0 0"
     id="path53"
     sodipodi:nodetypes="ccsssccccccc"
     style="fill-opacity:1;fill:url(#linearGradient899)" />
  <path
     stroke-opacity="0.55"
     fill="#bdc3c7"
     stroke-width="2.91264"
     d="m 3.0262335,23.866883 c -0.0042,0.172157 -0.0126,0.342253 -0.0126,0.515442 0,11.42219 9.3629545,20.617672 20.9931735,20.617672 11.630219,0 20.993174,-9.195482 20.993174,-20.617672 0,-0.173189 -0.0084,-0.343285 -0.0126,-0.515442 -0.27711,11.181994 -9.530901,20.10223 -20.980578,20.10223 -11.453876,0 -20.7034675,-8.920236 -20.9805775,-20.10223"
     id="path59" />
  <path
     d="M 23.874695,3.307429 A 20.934295,20.934295 0 0 0 4.3702121,16.903555 H 43.582236 A 20.934295,20.934295 0 0 0 23.97518,3.307429 a 20.934295,20.934295 0 0 0 -0.100855,0 z"
     fill="url(#linearGradient2785)"
     id="path1238"
     style="fill:url(#linearGradient2785);stroke-width:10.9438" />
  <path
     id="path1098"
     style="fill:#fffbf3;fill-opacity:1;fill-rule:evenodd;stroke-width:1.34882"
     d="m 24.210997,3.567714 6.437022,6.948114 -6.437022,6.281652 h 9.085154 l 6.750495,-5.972271 A 20.934295,20.934295 0 0 0 27.265278,3.567714 Z" />
  <path
     id="path1100"
     style="fill:#fffbf3;fill-opacity:1;fill-rule:evenodd;stroke-width:1.34882"
     d="m 17.44415,4.35275 a 20.934295,20.934295 0 0 0 -6.15899,3.239637 l 2.708101,2.923441 -6.4370229,6.281652 h 9.0851569 l 7.100761,-6.281652 z" />
  <path
     transform="matrix(0.06518665,0,0,0.06518636,-9.2014802,-3.6848157)"
     d="m 455.9,405.95 q -7.55,-5.25 -16.6,-4.1 c -6.05,0.75 -11.05,3.4 -15.1,7.95 -4.05,4.55 -6.1,9.9 -6.1,16 v 192.5 c 0,6.1 2.05,11.45 6.1,16 4.05,4.55 9.05,7.2 15.1,7.95 6.05,0.75 11.55,-0.65 16.6,-4.1 L 595.55,541.9 c 4.45,-3.05 7.5,-7.15 9.2,-12.2 1.7,-5.1 1.7,-10.2 0,-15.25 -1.7,-5.05 -4.75,-9.15 -9.15,-12.25 z"
     filter="url(#c)"
     opacity="0.2"
     stroke-width="15.683"
     id="path1084"
     style="filter:url(#c-3)" />
  <path
     id="rect1362"
     style="fill:url(#linearGradient1457);fill-opacity:1;stroke-width:0.406046;stroke-linecap:round;paint-order:stroke fill markers"
     d="m 19.722572,21.846184 c -0.09424,-0.0049 -0.190361,-0.0017 -0.288678,0.01107 -0.394366,0.04889 -0.720949,0.222072 -0.984984,0.518663 -0.263994,0.296586 -0.396529,0.644452 -0.396529,1.042072 v 12.547727 c 0,0.397625 0.132535,0.74707 0.396529,1.043668 0.264004,0.296591 0.590623,0.46976 0.984984,0.518654 0.394367,0.04889 0.752559,-0.04313 1.081728,-0.268048 l 9.102738,-6.27307 c 0.290068,-0.198809 0.488763,-0.467053 0.599546,-0.79623 0.110813,-0.332442 0.110813,-0.663681 0,-0.992906 -0.110813,-0.329176 -0.309542,-0.597347 -0.596374,-0.799396 l -9.10591,-6.27306 c -0.246073,-0.17111 -0.510323,-0.264493 -0.79305,-0.279159 z" />
</svg>
