<?xml version="1.0" encoding="UTF-8" standalone="no"?>
<svg
   width="48"
   height="48"
   version="1.1"
   id="svg33"
   sodipodi:docname="xmind.svg"
   inkscape:version="1.2.1 (9c6d41e410, 2022-07-14)"
   xmlns:inkscape="http://www.inkscape.org/namespaces/inkscape"
   xmlns:sodipodi="http://sodipodi.sourceforge.net/DTD/sodipodi-0.dtd"
   xmlns:xlink="http://www.w3.org/1999/xlink"
   xmlns="http://www.w3.org/2000/svg"
   xmlns:svg="http://www.w3.org/2000/svg">
  <sodipodi:namedview
     id="namedview35"
     pagecolor="#ffffff"
     bordercolor="#666666"
     borderopacity="1.0"
     inkscape:showpageshadow="2"
     inkscape:pageopacity="0.0"
     inkscape:pagecheckerboard="0"
     inkscape:deskcolor="#d1d1d1"
     showgrid="false"
     inkscape:zoom="4.9166667"
     inkscape:cx="24"
     inkscape:cy="24"
     inkscape:window-width="1920"
     inkscape:window-height="1011"
     inkscape:window-x="0"
     inkscape:window-y="0"
     inkscape:window-maximized="1"
     inkscape:current-layer="svg33" />
  <defs
     id="defs21">
    <linearGradient
       id="linearGradient4173">
      <stop
         style="stop-color:#000000;stop-opacity:1;"
         offset="0"
         id="stop2" />
      <stop
         style="stop-color:#000000;stop-opacity:0;"
         offset="1"
         id="stop4" />
    </linearGradient>
    <linearGradient
       id="linearGradient4168">
      <stop
         style="stop-color:#fcfcfc;stop-opacity:1;"
         offset="0"
         id="stop7" />
      <stop
         style="stop-color:#fbc2bb;stop-opacity:1"
         offset="1"
         id="stop9" />
    </linearGradient>
    <linearGradient
       id="linearGradient4160">
      <stop
         style="stop-color:#c61423;stop-opacity:1;"
         offset="0"
         id="stop12" />
      <stop
         style="stop-color:#f58273;stop-opacity:1"
         offset="1"
         id="stop14" />
    </linearGradient>
    <linearGradient
       xlink:href="#linearGradient4160"
       id="linearGradient4166"
       x1="32.249"
       y1="42.037"
       x2="16.546"
       y2="4.902"
       gradientUnits="userSpaceOnUse"
       gradientTransform="matrix(1.0499987,0,0,1.0499987,-1.1999784,-1.1999966)" />
    <linearGradient
       xlink:href="#linearGradient4168"
       id="linearGradient4162"
       x1="17.197"
       y1="11.627"
       x2="27.308"
       y2="31.453"
       gradientUnits="userSpaceOnUse"
       gradientTransform="matrix(1.0499987,0,0,1.0499987,-1.1999784,-1.1999966)" />
    <linearGradient
       xlink:href="#linearGradient4173"
       id="linearGradient4179"
       x1="22.137"
       y1="1.975"
       x2="29.967"
       y2="1.975"
       gradientUnits="userSpaceOnUse"
       gradientTransform="matrix(0.74246135,0.74246135,-0.74246135,0.74246135,-1.1999784,-1.1999966)" />
    <linearGradient
       xlink:href="#linearGradient4173"
       id="linearGradient4181"
       x1="19.732"
       y1="23.413"
       x2="33.161"
       y2="36.842"
       gradientUnits="userSpaceOnUse"
       gradientTransform="matrix(1.0499987,0,0,1.0499987,-1.1999784,-1.1999966)" />
  </defs>
  <rect
     style="fill:url(#linearGradient4166);fill-opacity:1;stroke-width:1.05"
     rx="20.999971"
     y="3"
     x="3.0000174"
     height="41.999943"
     width="41.999943"
     id="rect23" />
  <path
     style="fill:#2c2e31;fill-opacity:0.235294;stroke-width:1.05"
     d="M 3.012281,23.474929 C 3.008081,23.649789 3,23.823989 3,23.999929 c 0,11.633989 9.365989,20.99998 20.999977,20.99998 11.633989,0 20.999979,-9.365991 20.999979,-20.99998 0,-0.17594 -0.008,-0.35014 -0.0123,-0.525 -0.277904,11.38842 -9.52996,20.47498 -20.987674,20.47498 -11.457712,0 -20.7097668,-9.08656 -20.9876703,-20.47498 z"
     id="path25" />
  <path
     style="opacity:0.2;fill:url(#linearGradient4181);fill-opacity:1;stroke:none;stroke-width:2.1;stroke-linecap:round;stroke-linejoin:round;stroke-miterlimit:4;stroke-dasharray:none;stroke-opacity:1"
     d="m 34.834266,14.853507 -5.280758,4.954683 -14.999396,8.98446 -3.793942,4.649115 11.480263,11.480258 c 0.580393,0.04771 1.166439,0.07798 1.759564,0.07798 11.300022,0 20.458778,-8.837485 20.975365,-20.005354 z"
     id="path27" />
  <path
     style="opacity:0.2;fill:url(#linearGradient4179);fill-opacity:1;stroke:none;stroke-width:2.1;stroke-linecap:round;stroke-linejoin:round;stroke-miterlimit:4;stroke-dasharray:none;stroke-opacity:1"
     d="m 15.094794,17.064869 2.854834,-2.421547 21.584327,21.58433 -6.239032,6.239034 -22.639604,-22.639597 1.471815,-1.482958 z"
     id="path29" />
  <path
     style="fill:url(#linearGradient4162);fill-opacity:1;stroke-width:1.07323;enable-background:new"
     d="m 17.626439,14.550544 c -0.06926,10e-4 -0.14744,0.0063 -0.237195,0.01251 -0.340169,0.02168 -6.759358,1.223607 -7.16789,1.342176 -0.431918,0.125271 -0.800776,0.389931 -0.890766,0.641019 -0.153457,0.426693 0.291288,1.813428 0.878385,2.744529 2.342157,2.781316 4.942567,3.488018 7.491031,4.986747 0.292483,0.342863 0.407993,0.508368 -1.835636,1.501768 -3.506604,1.552727 -4.641596,2.873382 -5.313196,4.827157 -0.19833,0.577312 -0.290491,2.103963 -0.150651,2.488136 0.18149,0.497991 0.290891,0.598244 3.678979,-0.0445 3.403472,-0.645648 3.122024,-0.683436 3.405864,-0.952344 0.231183,-0.219035 0.244405,-0.271865 0.345373,-1.308181 0.0582,-0.593843 0.178302,-1.753414 0.266438,-2.060599 0.204349,-0.713382 0.718333,-1.458368 1.278103,-1.852373 2.12291,-1.494095 6.118546,-0.74904 8.280743,1.543658 0.814727,0.863869 1.326329,2.096942 1.734619,3.436739 0.23559,0.773059 0.474829,1.108698 0.84636,1.182606 0.34179,0.06786 0.3502,-0.03896 4.680744,-0.861258 2.408903,-0.457391 3.411412,-0.679834 3.553144,-0.790128 0.3045,-0.237164 0.305691,-0.817523 0.002,-1.776496 -0.520564,-1.647722 -1.423712,-2.743062 -3.096581,-4.010366 -0.827591,-0.626952 -1.872601,-1.219673 -3.641968,-2.066915 -1.682924,-0.805863 -2.484442,-1.023889 -2.484442,-1.274149 0,-0.206941 0.660968,-0.299137 1.995911,-0.698561 2.925125,-0.875392 4.33466,-2.103376 4.33466,-4.377129 0,-0.997824 -0.18831,-1.803032 -0.481153,-2.064294 -0.38945,-0.347489 -1.073336,-0.358495 -2.708638,-0.06275 -5.241952,0.947875 -4.880972,0.910922 -5.124824,1.305548 -0.129015,0.20869 -0.123399,0.257662 0.113787,1.206135 0.135827,0.543759 0.245217,1.223999 0.244408,1.381808 -0.002,0.335632 -0.438142,0.896319 -0.651419,1.096245 -0.521861,0.488906 -1.704794,0.821531 -2.916504,0.821531 -1.465575,0 -2.569808,-0.503793 -3.666631,-1.671835 -0.792556,-0.843992 -1.197164,-1.66073 -1.737106,-3.163536 -0.474141,-1.319888 -0.539171,-1.491929 -1.026463,-1.483463 z"
     id="path31" />
</svg>
