<?xml version="1.0" encoding="UTF-8" standalone="no"?>
<svg
   height="48"
   viewBox="0 0 48 48"
   width="48"
   version="1.1"
   id="svg49"
   sodipodi:docname="ktimetracker.svg"
   inkscape:version="1.2.1 (9c6d41e410, 2022-07-14)"
   xmlns:inkscape="http://www.inkscape.org/namespaces/inkscape"
   xmlns:sodipodi="http://sodipodi.sourceforge.net/DTD/sodipodi-0.dtd"
   xmlns:xlink="http://www.w3.org/1999/xlink"
   xmlns="http://www.w3.org/2000/svg"
   xmlns:svg="http://www.w3.org/2000/svg">
  <defs
     id="defs53">
    <linearGradient
       xlink:href="#linearGradient4303"
       id="linearGradient4982"
       y1="500.798"
       y2="503.798"
       x2="0"
       gradientUnits="userSpaceOnUse" />
    <linearGradient
       id="linearGradient4303">
      <stop
         style="stop-color:#c6cdd1"
         id="stop17" />
      <stop
         offset="1"
         style="stop-color:#e0e5e7"
         id="stop19-6" />
    </linearGradient>
    <linearGradient
       xlink:href="#linearGradient4303"
       id="linearGradient4990"
       x1="411.57101"
       x2="405.57101"
       gradientUnits="userSpaceOnUse" />
    <linearGradient
       xlink:href="#linearGradient4303"
       id="linearGradient4174-5"
       y1="543.79797"
       y2="503.798"
       x2="0"
       gradientUnits="userSpaceOnUse"
       gradientTransform="translate(-817.14285)" />
    <linearGradient
       xlink:href="#linearGradient4909"
       id="linearGradient4915"
       y1="509.548"
       x1="-398.634"
       y2="539.17297"
       x2="-416.57101"
       gradientUnits="userSpaceOnUse" />
    <linearGradient
       id="linearGradient4909">
      <stop
         style="stop-color:#2c3e50"
         id="stop12-3" />
      <stop
         offset="1"
         style="stop-color:#0d352d"
         id="stop14-1" />
    </linearGradient>
    <linearGradient
       xlink:href="#linearGradient4918"
       id="linearGradient4924"
       y1="12.42"
       x1="9.2679996"
       y2="38.819"
       x2="35.667"
       gradientUnits="userSpaceOnUse" />
    <linearGradient
       id="linearGradient4918">
      <stop
         style="stop-color:#3daefd"
         id="stop7-7" />
      <stop
         offset="1"
         style="stop-color:#24a058"
         id="stop9-5" />
    </linearGradient>
    <linearGradient
       xlink:href="#linearGradient5032"
       id="linearGradient5038"
       y1="10"
       x1="10"
       y2="22"
       x2="22"
       gradientUnits="userSpaceOnUse" />
    <linearGradient
       id="linearGradient5032">
      <stop
         id="stop2-9" />
      <stop
         offset="1"
         style="stop-opacity:0"
         id="stop4-6" />
    </linearGradient>
  </defs>
  <sodipodi:namedview
     id="namedview51"
     pagecolor="#ffffff"
     bordercolor="#666666"
     borderopacity="1.0"
     inkscape:showpageshadow="2"
     inkscape:pageopacity="0.0"
     inkscape:pagecheckerboard="0"
     inkscape:deskcolor="#d1d1d1"
     showgrid="true"
     inkscape:zoom="9.8333333"
     inkscape:cx="24.508475"
     inkscape:cy="21.661017"
     inkscape:window-width="1920"
     inkscape:window-height="1009"
     inkscape:window-x="0"
     inkscape:window-y="0"
     inkscape:window-maximized="1"
     inkscape:current-layer="svg49">
    <inkscape:grid
       type="xygrid"
       id="grid228" />
  </sodipodi:namedview>
  <linearGradient
     id="a"
     gradientTransform="matrix(2.5510421,2.5510421,-2.5510421,2.5510421,0.6825203,-1022.6748)"
     gradientUnits="userSpaceOnUse"
     x1="210.01074"
     x2="210.01074"
     y1="194.34363"
     y2="196.98961">
    <stop
       offset="0"
       stop-color="#9b9ea2"
       id="stop2" />
    <stop
       offset="1"
       stop-color="#1a1b1e"
       id="stop4" />
  </linearGradient>
  <linearGradient
     id="b"
     gradientTransform="matrix(3.6707863,0,0,3.6707862,0.6157769,2.2648548)"
     gradientUnits="userSpaceOnUse"
     x1="11.641666"
     x2="1.058333"
     y1="11.641666"
     y2="1.058333">
    <stop
       offset="0"
       stop-color="#4f5356"
       id="stop7" />
    <stop
       offset="1"
       stop-color="#9b9ea2"
       stop-opacity=".996078"
       id="stop9" />
  </linearGradient>
  <radialGradient
     id="c"
     cx="23.49843"
     cy="25.501214"
     gradientUnits="userSpaceOnUse"
     r="15.500028"
     gradientTransform="matrix(1.0499999,0,0,1.0499999,-0.75,-1.2)">
    <stop
       offset="0"
       stop-color="#003a68"
       stop-opacity=".004525"
       id="stop12" />
    <stop
       offset=".882353"
       stop-color="#001d34"
       stop-opacity=".058824"
       id="stop14" />
    <stop
       offset="1"
       stop-opacity=".135747"
       id="stop16" />
  </radialGradient>
  <radialGradient
     id="d"
     cx="23.500253"
     cy="25.499206"
     gradientUnits="userSpaceOnUse"
     r="15.498204"
     gradientTransform="matrix(1.0499999,0,0,1.0499999,-0.75,-1.2)">
    <stop
       offset="0"
       stop-color="#3dd425"
       stop-opacity=".954751"
       id="stop19" />
    <stop
       offset="1"
       stop-color="#59f07c"
       id="stop21" />
  </radialGradient>
  <linearGradient
     id="e"
     gradientUnits="userSpaceOnUse"
     x1="22"
     x2="39"
     y1="25.500002"
     y2="42.5"
     gradientTransform="matrix(1.0499999,0,0,1.0499999,-0.75,-1.2)">
    <stop
       offset="0"
       id="stop24" />
    <stop
       offset="1"
       stop-opacity="0"
       id="stop26" />
  </linearGradient>
  <g
     transform="matrix(1.0499627,0,0,1.05,-404.98401,-525.98999)"
     id="g78">
    <g
       transform="rotate(-45,408.57143,523.798)"
       id="g34">
      <rect
         width="2"
         x="407.57001"
         y="501.79999"
         height="4"
         style="fill:#31363b;stroke-width:2;stroke-linecap:round;stroke-linejoin:round"
         id="rect30" />
      <rect
         width="6"
         x="405.57001"
         y="500.79999"
         rx="1"
         height="2"
         style="fill:url(#linearGradient4982);stroke-width:2;stroke-linecap:round;stroke-linejoin:round"
         id="rect32" />
    </g>
    <g
       transform="rotate(45,408.57144,523.798)"
       id="g40">
      <rect
         width="2"
         x="407.57001"
         y="501.79999"
         height="4"
         style="fill:#31363b;stroke-width:2;stroke-linecap:round;stroke-linejoin:round"
         id="rect36" />
      <rect
         width="6"
         x="405.57001"
         y="500.79999"
         rx="1"
         height="2"
         style="fill:url(#linearGradient4990);stroke-width:2;stroke-linecap:round;stroke-linejoin:round"
         id="rect38" />
    </g>
    <rect
       width="40"
       x="-428.57001"
       y="503.79999"
       rx="20"
       height="40"
       style="fill:url(#linearGradient4174-5);stroke-width:2.8;stroke-opacity:0.550265"
       transform="scale(-1,1)"
       id="rect42" />
    <path
       style="fill:#99a1a7;stroke-width:2.8;stroke-opacity:0.550265"
       d="m 388.58313,523.298 c -0.004,0.16686 -0.0117,0.33212 -0.0117,0.5 0,11.07999 8.92001,20 20,20 11.07999,0 20,-8.92001 20,-20 0,-0.16788 -0.008,-0.33315 -0.0117,-0.5 -0.26418,10.84657 -9.07584,19.5 -19.98828,19.5 -10.91244,0 -19.7241,-8.65343 -19.98828,-19.5 z"
       id="path44" />
    <rect
       width="34"
       x="-425.57001"
       y="506.79999"
       rx="17"
       height="34"
       style="fill:url(#linearGradient4915);stroke-width:2.8;stroke-opacity:0.550265"
       transform="scale(-1,1)"
       id="rect46" />
    <path
       style="fill:url(#linearGradient4924);stroke-width:2.8;stroke-opacity:0.550265"
       d="m 24,8 c -0.508001,0 -1.006237,0.038267 -1.5,0.089844 v 3.015625 C 22.992879,11.044956 23.490092,11 24,11 c 0.508502,0 1.007043,0.03554 1.5,0.0918 V 8.0742188 C 25.005793,8.0286245 24.5065,8 24,8 Z m 2.669922,0.2382812 -0.78125,2.9121098 c 1.010004,0.146205 1.982661,0.402541 2.902344,0.765625 L 29.570312,9.0097656 C 28.640887,8.6660386 27.672715,8.4057669 26.669922,8.2382812 Z m 3.99414,1.21875 -1.503906,2.6035158 c 0.928912,0.400091 1.792914,0.914477 2.59375,1.509765 l 1.509766,-2.617187 C 32.450179,10.37561 31.581407,9.8762258 30.664062,9.4570312 Z m -8.810546,0.7265628 c -0.992459,0.153617 -1.965507,0.413576 -2.902344,0.77539 l 0.257812,0.958985 c 0.935185,-0.367229 1.909789,-0.624808 2.904297,-0.767578 z m -3.509766,1.021484 c -0.915924,0.407011 -1.785493,0.911204 -2.59375,1.503906 l 0.501953,0.869141 c 0.805202,-0.597877 1.676885,-1.100569 2.597656,-1.498047 z m 15.869141,0.460938 -2.140625,2.140625 c 0.787014,0.623157 1.497936,1.334079 2.121093,2.121093 l 2.140625,-2.140625 c -0.639121,-0.771937 -1.349156,-1.481972 -2.121093,-2.121093 z m -18.986329,1.439453 c -0.782693,0.626869 -1.495769,1.336017 -2.126953,2.115234 l 0.71875,0.71875 c 0.619196,-0.789376 1.327686,-1.504422 2.111329,-2.130859 z m 21.820313,1.630859 -2.617187,1.509766 c 0.594942,0.80037 1.109784,1.663491 1.509765,2.591797 l 2.603516,-1.501953 C 38.123774,16.418592 37.62439,15.549821 37.046875,14.736328 Z M 12.708984,15.75 c -0.590908,0.809756 -1.093138,1.680636 -1.498046,2.597656 l 0.859374,0.498047 c 0.401435,-0.919969 0.908065,-1.790351 1.509766,-2.59375 z m 26.28125,2.679688 -2.90625,0.779296 c 0.363084,0.919683 0.61942,1.89234 0.765625,2.902344 l 2.91211,-0.78125 c -0.167486,-1.002793 -0.427758,-1.970966 -0.771485,-2.90039 z m -28.046875,0.519531 c -0.359013,0.936511 -0.61635,1.90889 -0.767578,2.90039 l 0.978516,0.261719 c 0.144325,-0.993339 0.403211,-1.966621 0.771484,-2.90039 z M 19.5,20 c -0.276993,0 -0.5,0.223007 -0.5,0.5 0,0.276993 0.223007,0.5 0.5,0.5 h 1 C 20.776993,21 21,20.776993 21,20.5 21,20.223007 20.776993,20 20.5,20 Z m 8,0 c -0.276993,0 -0.5,0.223007 -0.5,0.5 0,0.276993 0.223007,0.5 0.5,0.5 h 1 C 28.776993,21 29,20.776993 29,20.5 29,20.223007 28.776993,20 28.5,20 Z m 5,0 c -0.276993,0 -0.5,0.223007 -0.5,0.5 0,0.276993 0.223007,0.5 0.5,0.5 h 1 C 33.776993,21 34,20.776993 34,20.5 34,20.223007 33.776993,20 33.5,20 Z m -16,1 C 16.223003,21 16,21.223 16,21.5 v 1 c 0,0.277 0.223003,0.5 0.5,0.5 0.276997,0 0.5,-0.223 0.5,-0.5 v -1 C 17,21.223 16.776997,21 16.5,21 Z m 5,0 C 21.223003,21 21,21.223 21,21.5 v 1 c 0,0.277 0.223003,0.5 0.5,0.5 0.276997,0 0.5,-0.223 0.5,-0.5 v -1 C 22,21.223 21.776997,21 21.5,21 Z m 2.5,0 a 1,1 0 0 0 -1,1 1,1 0 0 0 1,1 1,1 0 0 0 1,-1 1,1 0 0 0 -1,-1 z m 5.5,0 C 29.223003,21 29,21.223 29,21.5 v 1 c 0,0.277 0.223003,0.5 0.5,0.5 0.276997,0 0.5,-0.223 0.5,-0.5 v -1 C 30,21.223 29.776997,21 29.5,21 Z m 5,0 C 34.223003,21 34,21.223 34,21.5 v 1 c 0,0.277 0.223003,0.5 0.5,0.5 0.276997,0 0.5,-0.223 0.5,-0.5 v -1 C 35,21.223 34.776997,21 34.5,21 Z M 10.097656,22.5 C 10.038266,22.99789 10.005667,23.498612 10,24 c 0.0018,0.501178 0.03046,1.001899 0.08594,1.5 h 1.017578 C 11.040099,25.002416 11.005537,24.501578 11,24 c 0.0029,-0.501427 0.0349,-1.002264 0.0957,-1.5 z m 26.810547,0 C 36.964464,22.992957 37,23.491498 37,24 c 0,0.508502 -0.03554,1.007043 -0.0918,1.5 h 3.017578 C 39.971375,25.005793 40,24.5065 40,24 40,23.4935 39.97137,22.994207 39.92578,22.5 Z M 19.5,23 c -0.276993,0 -0.5,0.223007 -0.5,0.5 0,0.276993 0.223007,0.5 0.5,0.5 h 1 C 20.776993,24 21,23.776993 21,23.5 21,23.223007 20.776993,23 20.5,23 Z m 8,0 c -0.276993,0 -0.5,0.223007 -0.5,0.5 0,0.276993 0.223007,0.5 0.5,0.5 h 1 C 28.776993,24 29,23.776993 29,23.5 29,23.223007 28.776993,23 28.5,23 Z m -11,1 C 16.223003,24 16,24.223 16,24.5 v 1 c 0,0.277 0.223003,0.5 0.5,0.5 0.276997,0 0.5,-0.223 0.5,-0.5 v -1 C 17,24.223 16.776997,24 16.5,24 Z m 5,0 C 21.223003,24 21,24.223 21,24.5 v 1 c 0,0.277 0.223003,0.5 0.5,0.5 0.276997,0 0.5,-0.223 0.5,-0.5 v -1 C 22,24.223 21.776997,24 21.5,24 Z m 2.5,0 a 1,1 0 0 0 -1,1 1,1 0 0 0 1,1 1,1 0 0 0 1,-1 1,1 0 0 0 -1,-1 z m 5.5,0 C 29.223003,24 29,24.223 29,24.5 v 1 c 0,0.277 0.223003,0.5 0.5,0.5 0.276997,0 0.5,-0.223 0.5,-0.5 v -1 C 30,24.223 29.776997,24 29.5,24 Z m 5,0 C 34.223003,24 34,24.223 34,24.5 v 1 c 0,0.277 0.223003,0.5 0.5,0.5 0.276997,0 0.5,-0.223 0.5,-0.5 v -1 C 35,24.223 34.776997,24 34.5,24 Z m -23.349609,1.888672 -0.966797,0.259766 c 0.153753,0.991794 0.413711,1.964182 0.77539,2.90039 l 0.958985,-0.257812 c -0.367084,-0.934559 -0.62466,-1.9085 -0.767578,-2.902344 z m 25.699218,0 c -0.146205,1.010004 -0.402541,1.982661 -0.765625,2.902344 l 2.90625,0.779296 c 0.343727,-0.929424 0.603999,-1.897597 0.771485,-2.90039 z M 19.5,26 c -0.276993,0 -0.5,0.223007 -0.5,0.5 0,0.276993 0.223007,0.5 0.5,0.5 h 1 C 20.776993,27 21,26.776993 21,26.5 21,26.223007 20.776993,26 20.5,26 Z m 8,0 c -0.276993,0 -0.5,0.223007 -0.5,0.5 0,0.276993 0.223007,0.5 0.5,0.5 h 1 C 28.776993,27 29,26.776993 29,26.5 29,26.223007 28.776993,26 28.5,26 Z m -15.419922,3.150391 -0.875,0.505859 c 0.407011,0.915924 0.911204,1.785493 1.503906,2.59375 l 0.869141,-0.501953 c -0.597877,-0.805202 -1.100569,-1.676885 -1.498047,-2.597656 z m 23.859375,0.0098 c -0.400091,0.928912 -0.914477,1.792914 -1.509765,2.59375 l 2.617187,1.509766 c 0.577515,-0.813493 1.076899,-1.682265 1.496094,-2.59961 z m -22.130859,2.910156 -0.703125,0.703126 c 0.626869,0.782693 1.336017,1.495769 2.115234,2.126953 l 0.71875,-0.71875 C 15.150077,33.56248 14.435031,32.85399 13.808594,32.070347 Z m 20.384765,0.002 c -0.623157,0.787014 -1.334079,1.497936 -2.121093,2.121093 l 2.140625,2.140625 c 0.771937,-0.639121 1.481972,-1.349156 2.121093,-2.121093 z m -17.945312,2.355468 -1.507813,2.609375 c 0.812882,0.577859 1.675724,1.091295 2.591797,1.511719 l 1.511719,-2.617187 c -0.927618,-0.401014 -1.795393,-0.908734 -2.595703,-1.503907 z m 15.505859,0.002 c -0.80037,0.594942 -1.663491,1.109784 -2.591797,1.509765 l 1.501953,2.603516 c 0.917346,-0.419195 1.786117,-0.918579 2.59961,-1.496094 z m -12.542968,1.648437 -0.783204,2.917969 c 0.928219,0.344879 1.896626,0.608941 2.898438,0.777344 l 0.783203,-2.919922 C 21.099168,36.706442 20.13041,36.442689 19.210938,36.078125 Z m 9.580078,0.0059 c -0.920263,0.363313 -1.893607,0.619473 -2.904297,0.765625 l 0.78125,2.91211 c 1.003467,-0.167474 1.972331,-0.42754 2.902343,-0.771485 z M 22.5,36.904297 v 3.021484 C 22.993828,39.971616 23.493671,40 24,40 c 0.5065,0 1.005793,-0.02863 1.5,-0.07422 V 36.908203 C 25.007043,36.964465 24.508502,37 24,37 23.491332,37 22.992894,36.96088 22.5,36.9043 Z"
       transform="translate(384.57143,499.798)"
       id="path48" />
    <rect
       width="2"
       x="398.57001"
       y="519.79999"
       rx="0.5"
       height="1"
       style="fill:#192629;stroke-width:2;stroke-linecap:round;stroke-linejoin:round"
       id="rect50" />
    <rect
       width="1"
       x="397.57001"
       y="520.79999"
       rx="0.5"
       height="2"
       ry="0.5"
       style="fill:#192629;stroke-width:2;stroke-linecap:round;stroke-linejoin:round"
       id="rect52" />
    <rect
       width="1"
       x="397.57001"
       y="523.79999"
       rx="0.5"
       height="2"
       ry="0.5"
       style="fill:#192629;stroke-width:2;stroke-linecap:round;stroke-linejoin:round"
       id="rect54" />
    <rect
       width="2"
       x="398.57001"
       y="522.79999"
       rx="0.5"
       height="1"
       style="fill:#192629;stroke-width:2;stroke-linecap:round;stroke-linejoin:round"
       id="rect56" />
    <rect
       width="2"
       x="398.57001"
       y="525.79999"
       rx="0.5"
       height="1"
       style="fill:#192629;stroke-width:2;stroke-linecap:round;stroke-linejoin:round"
       id="rect58" />
    <rect
       width="1"
       x="402.57001"
       y="520.79999"
       rx="0.5"
       height="2"
       ry="0.5"
       style="fill:#192629;stroke-width:2;stroke-linecap:round;stroke-linejoin:round"
       id="rect60" />
    <rect
       width="1"
       x="402.57001"
       y="523.79999"
       rx="0.5"
       height="2"
       ry="0.5"
       style="fill:#192629;stroke-width:2;stroke-linecap:round;stroke-linejoin:round"
       id="rect62" />
    <rect
       width="1"
       x="410.57001"
       y="520.79999"
       rx="0.5"
       height="2"
       ry="0.5"
       style="fill:#192629;stroke-width:2;stroke-linecap:round;stroke-linejoin:round"
       id="rect64" />
    <rect
       width="1"
       x="410.57001"
       y="523.79999"
       rx="0.5"
       height="2"
       ry="0.5"
       style="fill:#192629;stroke-width:2;stroke-linecap:round;stroke-linejoin:round"
       id="rect66" />
    <rect
       width="1"
       x="415.57001"
       y="520.79999"
       rx="0.5"
       height="2"
       ry="0.5"
       style="fill:#192629;stroke-width:2;stroke-linecap:round;stroke-linejoin:round"
       id="rect68" />
    <rect
       width="1"
       x="415.57001"
       y="523.79999"
       rx="0.5"
       height="2"
       ry="0.5"
       style="fill:#192629;stroke-width:2;stroke-linecap:round;stroke-linejoin:round"
       id="rect70" />
    <rect
       width="2"
       x="416.57001"
       y="522.79999"
       rx="0.5"
       height="1"
       style="fill:#192629;stroke-width:2;stroke-linecap:round;stroke-linejoin:round"
       id="rect72" />
    <rect
       width="2"
       x="416.57001"
       y="525.79999"
       rx="0.5"
       height="1"
       style="fill:#192629;stroke-width:2;stroke-linecap:round;stroke-linejoin:round"
       id="rect74" />
    <path
       style="opacity:0.2;fill:url(#linearGradient5038);stroke-width:2;stroke-linecap:round;stroke-linejoin:round"
       d="M 12.142578,7.9003906 C 10.522121,9.0936509 9.0936509,10.522121 7.9003906,12.142578 l 22.4628904,22.464844 4.244141,-4.244141 z"
       transform="translate(384.57143,499.798)"
       id="path76" />
  </g>
</svg>
