<?xml version="1.0" encoding="UTF-8" standalone="no"?>
<svg
   viewBox="0 0 48 48"
   version="1.1"
   id="svg6"
   sodipodi:docname="bookmarks.svg"
   inkscape:version="1.2.1 (9c6d41e410, 2022-07-14)"
   width="48"
   height="48"
   xmlns:inkscape="http://www.inkscape.org/namespaces/inkscape"
   xmlns:sodipodi="http://sodipodi.sourceforge.net/DTD/sodipodi-0.dtd"
   xmlns:xlink="http://www.w3.org/1999/xlink"
   xmlns="http://www.w3.org/2000/svg"
   xmlns:svg="http://www.w3.org/2000/svg"
   xmlns:rdf="http://www.w3.org/1999/02/22-rdf-syntax-ns#"
   xmlns:cc="http://creativecommons.org/ns#"
   xmlns:dc="http://purl.org/dc/elements/1.1/">
  <metadata
     id="metadata10">
    <rdf:RDF>
      <cc:Work
         rdf:about="">
        <dc:format>image/svg+xml</dc:format>
        <dc:type
           rdf:resource="http://purl.org/dc/dcmitype/StillImage" />
      </cc:Work>
    </rdf:RDF>
  </metadata>
  <sodipodi:namedview
     pagecolor="#ffffff"
     bordercolor="#666666"
     borderopacity="1"
     objecttolerance="10"
     gridtolerance="10"
     guidetolerance="10"
     inkscape:pageopacity="0"
     inkscape:pageshadow="2"
     inkscape:window-width="1920"
     inkscape:window-height="1000"
     id="namedview8"
     showgrid="false"
     inkscape:zoom="7.1363635"
     inkscape:cx="37.414013"
     inkscape:cy="43.649682"
     inkscape:window-x="0"
     inkscape:window-y="0"
     inkscape:window-maximized="1"
     inkscape:current-layer="svg6"
     inkscape:lockguides="false"
     inkscape:document-rotation="0"
     inkscape:showpageshadow="2"
     inkscape:pagecheckerboard="0"
     inkscape:deskcolor="#d1d1d1">
    <inkscape:grid
       type="xygrid"
       id="grid858"
       originx="0"
       originy="0" />
  </sodipodi:namedview>
  <defs
     id="defs3051">
    <style
       type="text/css"
       id="current-color-scheme" />
    <linearGradient
       inkscape:collect="always"
       id="linearGradient22063-0">
      <stop
         style="stop-color:#88c0d0;stop-opacity:1;"
         offset="0"
         id="stop22059-6" />
      <stop
         style="stop-color:#5e81ac;stop-opacity:1;"
         offset="1"
         id="stop22061-2" />
    </linearGradient>
    <linearGradient
       xlink:href="#linearGradient22063-0"
       id="linearGradient4166"
       x1="32.249001"
       y1="42.036999"
       x2="16.546"
       y2="4.902"
       gradientUnits="userSpaceOnUse"
       gradientTransform="matrix(1.0500003,0,0,1.0500003,-1.249985,-1.1999998)" />
  </defs>
  <rect
     style="fill:url(#linearGradient4166);fill-opacity:1;stroke-width:1.05"
     rx="21"
     y="3"
     x="2.9500132"
     height="42"
     width="42"
     id="rect23" />
  <path
     style="fill:#2c2e31;fill-opacity:0.235294;stroke-width:1.05"
     d="M 2.96228,23.474957 C 2.95808,23.649816 2.95,23.824017 2.95,23.999956 c 0,11.634004 9.366001,21.000004 20.999997,21.000004 11.63401,0 21.00001,-9.366 21.00001,-21.000004 0,-0.17594 -0.008,-0.35014 -0.0123,-0.524999 -0.27791,11.388431 -9.52997,20.475004 -20.9877,20.475004 -11.457727,0 -20.709791,-9.086573 -20.987695,-20.475004 z"
     id="path25" />
  <path
     d="m 26.686386,17.018003 c 1.875703,1.913812 1.873789,4.993714 0,6.909532 l -8.301347,8.489976 c -2.770301,-2.826767 -5.54066,-5.653464 -8.310916,-8.480151 -1.875824,-1.913799 -1.875824,-4.995731 0,-6.909556 1.875785,-1.914006 4.896013,-1.914033 6.771768,0 l 1.529531,1.56068 1.539031,-1.570482 c 1.875845,-1.914018 4.896011,-1.914018 6.771933,1e-6 z"
     style="color:#000000;fill:#bf616a;fill-opacity:1;stroke-width:0.323742;enable-background:accumulate"
     stroke="none"
     marker="none"
     visibility="visible"
     display="inline"
     overflow="visible"
     id="path2-3-3-3" />
  <path
     d="m 31.686127,20.468142 h 3.78188 c 0.78864,0 1.41596,0.627328 1.41596,1.415951 v 3.781858 c 0,0.788638 -0.62733,1.415959 -1.41596,1.415959 h -3.78188 c -0.788596,0 -1.415906,-0.627321 -1.415906,-1.415959 v -3.781858 c 0,-0.788623 0.64524,-1.415951 1.415906,-1.415951 z"
     id="path14-6-5"
     style="fill:#d8dee9;fill-opacity:1;stroke-width:0.179236" />
  <path
     d="m 31.686127,9.6010262 h 3.78188 c 0.78863,0 1.41596,0.6273328 1.41596,1.4159708 v 3.781838 c 0,0.788631 -0.62733,1.415952 -1.41596,1.415952 h -3.78188 c -0.788596,0 -1.415906,-0.627321 -1.415906,-1.415952 v -3.781838 c 0,-0.788638 0.64524,-1.4159708 1.415906,-1.4159708 z"
     id="path14-5-7-6"
     style="fill:#d8dee9;fill-opacity:1;stroke-width:0.179236" />
  <path
     d="m 31.686127,31.335266 h 3.78188 c 0.78863,0 1.41596,0.62732 1.41596,1.415951 v 3.781853 c 0,0.788636 -0.62733,1.415956 -1.41596,1.415956 h -3.78188 c -0.788596,0 -1.415906,-0.62732 -1.415906,-1.415956 v -3.781853 c 0,-0.788631 0.64524,-1.415951 1.415906,-1.415951 z"
     id="path14-9-5-2"
     style="fill:#d8dee9;fill-opacity:1;stroke-width:0.179236" />
</svg>
