<?xml version="1.0" encoding="UTF-8" standalone="no"?>
<svg
   viewBox="0 0 48 48"
   version="1.1"
   id="svg6"
   sodipodi:docname="bookmark-remove.svg"
   inkscape:version="1.2.1 (9c6d41e410, 2022-07-14)"
   width="48"
   height="48"
   xmlns:inkscape="http://www.inkscape.org/namespaces/inkscape"
   xmlns:sodipodi="http://sodipodi.sourceforge.net/DTD/sodipodi-0.dtd"
   xmlns:xlink="http://www.w3.org/1999/xlink"
   xmlns="http://www.w3.org/2000/svg"
   xmlns:svg="http://www.w3.org/2000/svg"
   xmlns:rdf="http://www.w3.org/1999/02/22-rdf-syntax-ns#"
   xmlns:cc="http://creativecommons.org/ns#"
   xmlns:dc="http://purl.org/dc/elements/1.1/">
  <metadata
     id="metadata10">
    <rdf:RDF>
      <cc:Work
         rdf:about="">
        <dc:format>image/svg+xml</dc:format>
        <dc:type
           rdf:resource="http://purl.org/dc/dcmitype/StillImage" />
      </cc:Work>
    </rdf:RDF>
  </metadata>
  <sodipodi:namedview
     pagecolor="#ffffff"
     bordercolor="#666666"
     borderopacity="1"
     objecttolerance="10"
     gridtolerance="10"
     guidetolerance="10"
     inkscape:pageopacity="0"
     inkscape:pageshadow="2"
     inkscape:window-width="1920"
     inkscape:window-height="1000"
     id="namedview8"
     showgrid="false"
     inkscape:zoom="5.046171"
     inkscape:cx="62.621738"
     inkscape:cy="47.858069"
     inkscape:window-x="0"
     inkscape:window-y="0"
     inkscape:window-maximized="1"
     inkscape:current-layer="svg6"
     inkscape:lockguides="false"
     inkscape:document-rotation="0"
     inkscape:pagecheckerboard="0"
     inkscape:showpageshadow="2"
     inkscape:deskcolor="#d1d1d1">
    <inkscape:grid
       type="xygrid"
       id="grid858"
       originx="0"
       originy="0" />
  </sodipodi:namedview>
  <defs
     id="defs3051">
    <style
       type="text/css"
       id="current-color-scheme" />
    <linearGradient
       inkscape:collect="always"
       id="linearGradient22063-0">
      <stop
         style="stop-color:#88c0d0;stop-opacity:1;"
         offset="0"
         id="stop22059-6" />
      <stop
         style="stop-color:#5e81ac;stop-opacity:1;"
         offset="1"
         id="stop22061-2" />
    </linearGradient>
    <linearGradient
       xlink:href="#linearGradient22063-0"
       id="linearGradient4166"
       x1="32.249001"
       y1="42.036999"
       x2="16.546"
       y2="4.902"
       gradientUnits="userSpaceOnUse"
       gradientTransform="matrix(1.0500003,0,0,1.0500003,-1.1999969,-1.1999998)" />
  </defs>
  <rect
     style="fill:url(#linearGradient4166);fill-opacity:1;stroke-width:1.05"
     rx="21"
     y="3"
     x="3"
     height="42"
     width="42"
     id="rect23" />
  <path
     style="fill:#2c2e31;fill-opacity:0.235294;stroke-width:1.05"
     d="m 3.0122681,23.474957 c -0.0042,0.174859 -0.01228,0.34906 -0.01228,0.524999 0,11.634004 9.3660009,21.000004 20.9999939,21.000004 11.63401,0 21.00001,-9.366 21.00001,-21.000004 0,-0.17594 -0.008,-0.35014 -0.0123,-0.524999 -0.27791,11.388431 -9.52997,20.475004 -20.9877,20.475004 -11.45772,0 -20.7097879,-9.086573 -20.9876919,-20.475004 z"
     id="path25" />
  <path
     d="m 26.736372,17.018003 c 1.87571,1.913812 1.87379,4.993714 0,6.909532 l -8.30135,8.489976 c -2.7703,-2.826767 -5.54065,-5.653464 -8.310911,-8.480151 -1.8758239,-1.913799 -1.8758239,-4.995731 0,-6.909556 1.875785,-1.914006 4.896011,-1.914033 6.771771,0 l 1.52953,1.56068 1.53903,-1.570482 c 1.87584,-1.914018 4.89601,-1.914018 6.77193,1e-6 z"
     style="color:#000000;fill:#bf616a;fill-opacity:1;stroke-width:0.323742;enable-background:accumulate"
     stroke="none"
     marker="none"
     visibility="visible"
     display="inline"
     overflow="visible"
     id="path2-3-3-3" />
  <path
     d="m 31.736112,20.468142 h 3.78188 c 0.78864,0 1.41596,0.627328 1.41596,1.415951 v 3.781858 c 0,0.788638 -0.62733,1.415959 -1.41596,1.415959 h -3.78188 c -0.78859,0 -1.4159,-0.627321 -1.4159,-1.415959 v -3.781858 c 0,-0.788623 0.64524,-1.415951 1.4159,-1.415951 z"
     id="path14-6-5"
     style="fill:#d8dee9;fill-opacity:1;stroke-width:0.179236" />
  <path
     d="m 31.736112,9.6010262 h 3.78188 c 0.78863,0 1.41596,0.6273328 1.41596,1.4159708 v 3.781838 c 0,0.788631 -0.62733,1.415952 -1.41596,1.415952 h -3.78188 c -0.78859,0 -1.4159,-0.627321 -1.4159,-1.415952 v -3.781838 c 0,-0.788638 0.64524,-1.4159708 1.4159,-1.4159708 z"
     id="path14-5-7-6"
     style="fill:#d8dee9;fill-opacity:1;stroke-width:0.179236" />
  <path
     d="m 31.736112,31.335266 h 3.78188 c 0.78863,0 1.41596,0.62732 1.41596,1.415951 v 3.781853 c 0,0.788636 -0.62733,1.415956 -1.41596,1.415956 h -3.78188 c -0.78859,0 -1.4159,-0.62732 -1.4159,-1.415956 v -3.781853 c 0,-0.788631 0.64524,-1.415951 1.4159,-1.415951 z"
     id="path14-9-5-2"
     style="fill:#d8dee9;fill-opacity:1;stroke-width:0.179236" />
  <path
     inkscape:connector-curvature="0"
     id="path29-6-7"
     d="m 21.702195,30.837151 h 0.84962 c 0.0035,-8.1e-5 0.005,-2.94e-4 0.02693,0 0.216693,0.0065 0.43334,0.109399 0.5843,0.265726 l 1.938262,1.938998 1.964775,-1.938998 c 0.225732,-0.196026 0.379607,-0.25979 0.584283,-0.265726 h 0.849593 v 0.84998 c 0,0.243412 -0.02837,0.468109 -0.212371,0.637498 l -1.938436,1.938936 1.911867,1.912476 c 0.16004,0.159912 0.23894,0.385535 0.23894,0.610997 V 37.637 h -0.849593 c -0.225488,-4e-6 -0.45084,-0.07878 -0.61082,-0.238968 l -1.93824,-1.939006 -1.938262,1.939006 C 23.002569,37.557924 22.777735,37.637 22.552213,37.637 h -0.849549 v -0.849962 c 0,-0.225454 0.07933,-0.451089 0.238828,-0.610997 l 1.938521,-1.912476 -1.938515,-1.938936 C 21.762539,32.159165 21.684054,31.92582 21.702675,31.687131 Z"
     style="fill:#24283b;fill-opacity:1;stroke-width:1.06229" />
</svg>
