<?xml version="1.0" encoding="UTF-8" standalone="no"?>
<svg
   style="isolation:isolate"
   viewBox="0 0 34 34"
   width="34"
   height="34"
   version="1.1"
   id="svg9"
   sodipodi:docname="suspend.svg"
   inkscape:version="1.3 (0e150ed6c4, 2023-07-21)"
   xmlns:inkscape="http://www.inkscape.org/namespaces/inkscape"
   xmlns:sodipodi="http://sodipodi.sourceforge.net/DTD/sodipodi-0.dtd"
   xmlns:xlink="http://www.w3.org/1999/xlink"
   xmlns="http://www.w3.org/2000/svg"
   xmlns:svg="http://www.w3.org/2000/svg"
   xmlns:rdf="http://www.w3.org/1999/02/22-rdf-syntax-ns#"
   xmlns:cc="http://creativecommons.org/ns#"
   xmlns:dc="http://purl.org/dc/elements/1.1/">
  <metadata
     id="metadata15">
    <rdf:RDF>
      <cc:Work
         rdf:about="">
        <dc:format>image/svg+xml</dc:format>
        <dc:type
           rdf:resource="http://purl.org/dc/dcmitype/StillImage" />
      </cc:Work>
    </rdf:RDF>
  </metadata>
  <defs
     id="defs13">
    <linearGradient
       inkscape:collect="always"
       xlink:href="#linearGradient3"
       id="linearGradient11"
       x1="-66.205223"
       y1="17.971893"
       x2="-91.916069"
       y2="17.316895"
       gradientUnits="userSpaceOnUse"
       gradientTransform="matrix(0,1.1555368,-1.192316,0,36.077188,108.30941)" />
    <linearGradient
       id="linearGradient3"
       inkscape:collect="always">
      <stop
         style="stop-color:#bc5fd3;stop-opacity:1"
         offset="0"
         id="stop7" />
      <stop
         style="stop-color:#00ccff;stop-opacity:1"
         offset="1"
         id="stop8" />
    </linearGradient>
  </defs>
  <sodipodi:namedview
     pagecolor="#cccccc"
     bordercolor="#000000"
     borderopacity="1"
     objecttolerance="10"
     gridtolerance="10"
     guidetolerance="10"
     inkscape:pageopacity="0"
     inkscape:pageshadow="2"
     inkscape:window-width="1920"
     inkscape:window-height="994"
     id="namedview11"
     showgrid="false"
     inkscape:zoom="11.451849"
     inkscape:cx="16.809513"
     inkscape:cy="17.857378"
     inkscape:window-x="0"
     inkscape:window-y="0"
     inkscape:window-maximized="1"
     inkscape:current-layer="svg9"
     inkscape:document-rotation="0"
     inkscape:showpageshadow="2"
     inkscape:pagecheckerboard="0"
     inkscape:deskcolor="#808080"
     inkscape:document-units="px">
    <inkscape:grid
       type="xygrid"
       id="grid142"
       originx="0"
       originy="0"
       spacingy="1"
       spacingx="1"
       units="px"
       visible="false" />
  </sodipodi:namedview>
  <linearGradient
     id="_lgradient_0"
     x1="0"
     y1="0.5"
     x2="1"
     y2="0.5"
     gradientTransform="matrix(33,0,0,33,0.5,0.5)"
     gradientUnits="userSpaceOnUse">
    <stop
       offset="0%"
       stop-opacity="1"
       style="stop-color:#00a9a5"
       id="stop2" />
    <stop
       offset="97.82608695652173%"
       stop-opacity="1"
       style="stop-color:#00a9a5"
       id="stop4" />
  </linearGradient>
  <path
     d="m 17.004318,2 c 0,0 0.355057,0.015145 1.020349,0.043101 0.16611,0.011556 0.353046,0.00581 0.555589,0.032931 0.202555,0.028659 0.423918,0.059738 0.663288,0.093483 0.238574,0.037678 0.498367,0.061709 0.769364,0.1175404 0.26979,0.062867 0.556405,0.1295849 0.859022,0.200188 1.19967,0.3064702 2.65192,0.7941191 4.143403,1.6891054 1.488276,0.8860556 3.049016,2.1298058 4.375178,3.8328717 1.308152,1.7034529 2.381729,3.8588635 2.865282,6.3370335 0.07125,0.307641 0.08686,0.624211 0.132493,0.941159 l 0.05769,0.479102 0.0284,0.241299 0.0054,0.27816 c 0.0035,0.617223 0.05923,1.192545 -0.03083,1.913716 -0.03607,0.342567 -0.04963,0.705291 -0.110881,1.042022 -0.06524,0.335964 -0.130898,0.673472 -0.196543,1.012919 -0.05284,0.344883 -0.173727,0.672309 -0.270998,1.01059 l -0.156511,0.506277 c -0.04805,0.171073 -0.110078,0.337505 -0.183732,0.499661 -0.501562,1.339178 -1.261715,2.605816 -2.163169,3.802232 -0.240174,0.287471 -0.485153,0.574161 -0.734936,0.859286 -0.23977,0.294848 -0.537986,0.536149 -0.807788,0.807316 l -0.417466,0.396481 c -0.141694,0.129955 -0.299019,0.242465 -0.448728,0.364663 -0.305016,0.237802 -0.607637,0.482596 -0.928671,0.703735 -1.288527,0.885669 -2.735584,1.573102 -4.261092,2.067344 C 20.234126,31.756371 18.61614,31.952667 17.004174,32 L 16.636707,31.98454 16.370911,31.96972 15.83893,31.9403 15.573133,31.92548 c -0.08568,-0.003 -0.176123,-0.0094 -0.288609,-0.02751 l -0.635662,-0.09114 -0.634457,-0.09657 -0.31623,-0.05035 -0.293814,-0.07255 C 13.013402,31.49112 12.626323,31.382135 12.239248,31.277786 10.714136,30.781214 9.2638866,30.099206 7.9753499,29.211984 7.6535233,28.992004 7.3528964,28.743738 7.0446814,28.510191 6.8949699,28.388003 6.7372563,28.275104 6.5955461,28.145146 L 6.1776455,27.748286 C 5.9074527,27.476719 5.6092358,27.235417 5.3694607,26.940194 5.123287,26.653119 4.8775005,26.36681 4.6325225,26.081662 3.7318668,24.883329 2.9685135,23.617457 2.4673558,22.276727 1.9713976,20.94066 1.6327432,19.579367 1.5522905,18.233986 c -0.087266,-0.667269 -0.04006,-1.333363 -0.035221,-1.982 l 0.0086,-0.290603 0.02845,-0.225395 0.056841,-0.448847 c 0.04515,-0.304141 0.05796,-0.581906 0.1292409,-0.90196 0.07088,-0.316178 0.1413021,-0.630414 0.2109503,-0.942318 0.03807,-0.153632 0.064881,-0.31152 0.112475,-0.458154 l 0.14757,-0.435275 C 2.309765,12.262335 2.4070534,11.977597 2.5039299,11.695167 2.6216368,11.420093 2.7501437,11.152411 2.8710305,10.885899 3.0895094,10.343566 3.4033383,9.8555377 3.6799311,9.3678708 3.8103531,9.1195736 3.9828777,8.8976547 4.14219,8.6730407 4.3011064,8.4487846 4.4580158,8.2268746 4.6137353,8.0072986 5.9410685,6.3042251 7.5030005,5.060867 8.9920825,4.1755748 10.483965,3.2806006 11.936622,2.79412 13.136299,2.4872549 13.438907,2.4169969 13.72552,2.3503127 13.99532,2.2874626 c 0.270988,-0.055812 0.530387,-0.079962 0.768951,-0.1175521 0.238976,-0.033742 0.46034,-0.064827 0.662879,-0.093479 0.202952,-0.027499 0.390284,-0.021726 0.556007,-0.032931 0.66609,-0.028376 1.021144,-0.043494 1.021144,-0.043494 z m 0,0 c 0,0 -0.354655,0.019757 -1.019538,0.056618 -0.165721,0.01352 -0.352656,0.01036 -0.554798,0.040334 -0.202144,0.031427 -0.422311,0.065175 -0.660483,0.1020363 -0.237374,0.040678 -0.495958,0.067826 -0.764959,0.1272466 -0.266591,0.070952 -0.549589,0.1462455 -0.849013,0.2257809 C 11.97547,2.9015558 10.550435,3.4372971 9.1598236,4.4218959 7.764812,5.3808988 6.3734068,6.7305548 5.322241,8.4662107 4.8198783,9.3449017 4.3563362,10.28799 4.0573176,11.317212 c -0.07364,0.257194 -0.1541083,0.513631 -0.2233564,0.774318 -0.048816,0.265754 -0.09763,0.533432 -0.147305,0.803033 l -0.074854,0.403083 c -0.02319,0.134616 -0.02319,0.26768 -0.03604,0.40114 -0.02083,0.264954 -0.041995,0.531865 -0.06328,0.800705 -0.02399,0.264591 0.0039,0.586177 0.0036,0.879854 l 0.0097,0.452348 0.0049,0.227343 c -7.998e-4,0.05345 9.488e-4,-0.04066 0.0025,-0.02134 l 0.0031,0.02636 0.0075,0.0528 0.014418,0.105468 c 0.08367,0.562521 0.1204895,1.131247 0.2834059,1.686775 0.2261645,1.125803 0.7045099,2.205067 1.2404995,3.241651 0.1489067,0.252162 0.298617,0.505491 0.4487251,0.759985 0.151712,0.251773 0.3470538,0.480256 0.5127725,0.72429 l 0.2577927,0.361178 0.2946065,0.336733 c 0.2009497,0.220728 0.3842828,0.455048 0.5964346,0.666091 0.8338108,0.861236 1.8081146,1.585135 2.832053,2.225241 l 0.801088,0.431009 c 0.259789,0.156727 0.558006,0.241672 0.830607,0.373189 l 0.416331,0.184662 c 0.140498,0.05739 0.289007,0.09624 0.432712,0.145864 0.291008,0.09003 0.575215,0.20057 0.86983,0.277769 0.298213,0.06673 0.596837,0.128789 0.892647,0.203278 l 0.221759,0.05428 0.209355,0.02714 0.417904,0.05892 0.4171,0.06481 c 0.06204,0.01428 0.14891,0.01866 0.240977,0.02133 l 0.26619,0.01156 0.532389,0.02259 0.26619,0.01157 0.132898,0.0063 0.06641,0.003 0.03325,0.002 c -0.03404,-3.83e-4 0.123289,0.003 -0.06807,-7.75e-4 1.228892,-0.01743 2.446974,-0.177292 3.630235,-0.480664 0.295015,-0.07719 0.579222,-0.188149 0.87023,-0.278155 0.143707,-0.04966 0.292212,-0.08885 0.432716,-0.146253 l 0.417312,-0.183786 c 0.275184,-0.127149 0.572194,-0.215589 0.8324,-0.371558 l 0.801519,-0.431087 c 1.028713,-0.636375 1.998612,-1.366472 2.836824,-2.224616 0.212152,-0.21141 0.395489,-0.445731 0.596432,-0.666876 l 0.294416,-0.337201 0.257785,-0.36156 c 0.166923,-0.243622 0.362664,-0.47214 0.514375,-0.724668 0.150109,-0.254509 0.299819,-0.508204 0.448725,-0.760762 0.166121,-0.247123 0.254184,-0.526058 0.389082,-0.786353 0.12009,-0.265751 0.266594,-0.524116 0.348257,-0.801882 0.09723,-0.274668 0.193739,-0.548182 0.289807,-0.820498 0.09365,-0.272724 0.1361,-0.535749 0.209353,-0.804595 0.160517,-0.50162 0.20575,-1.161123 0.28821,-1.755054 l 0.01444,-0.113265 0.007,-0.05665 0.0035,-0.0283 c 0.0019,-0.02021 -0.0015,0.07448 0,0.02174 l 0.0046,-0.211442 0.01072,-0.422072 c 0,-0.280485 0.03122,-0.563686 0.007,-0.840287 C 30.412855,12.30842 29.73796,10.197627 28.690804,8.4627516 27.639255,6.7270824 26.246247,5.3778198 24.85043,4.4199839 23.459418,3.4357771 22.033583,2.9007988 20.853932,2.5512606 20.554515,2.4717616 20.271507,2.3964759 20.004915,2.3258728 19.735517,2.2664788 19.477332,2.2393268 19.23995,2.1990185 19.001787,2.1621585 18.78123,2.1280625 18.579485,2.096982 18.377334,2.066709 18.189989,2.070178 18.024282,2.056655 17.358995,2.019793 17.004337,2.00003 17.004337,2.00003 Z"
     id="path2-2"
     style="fill:url(#linearGradient11);fill-opacity:1;stroke-width:0.394071" />
  <path
     d="m 10.94154,8.072822 c 0.609486,1.095339 1.544983,1.9987 2.678491,2.587673 -1.133508,0.589529 -2.069005,1.492342 -2.678491,2.587665 C 10.332096,12.152271 9.397819,11.24945 8.2637455,10.660495 9.397819,10.071522 10.332096,9.168161 10.94154,8.072822 m 0,-2.981822 c 0,3.076381 -2.580543,5.570059 -5.76354,5.570059 3.182997,0 5.76354,2.493692 5.76354,5.570069 0,-3.076377 2.581809,-5.570069 5.763616,-5.570069 C 13.523349,10.660682 10.94154,8.166802 10.94154,5.091 Z"
     id="path6-7-9"
     style="fill:#00ccff;fill-opacity:1;stroke-width:0.579437" />
  <path
     d="m 13.869052,23.15132 c 0.110576,0.258389 0.37101,0.42685 0.660448,0.42685 h 4.007464 c 0.395494,0 0.715746,-0.309471 0.715746,-0.691351 0,-0.381888 -0.320553,-0.69106 -0.715746,-0.69106 h -2.279569 l 2.498915,-2.415368 c 0.205154,-0.197942 0.266175,-0.495461 0.155597,-0.75383 C 18.801304,18.76818 18.54029,18.6 18.250836,18.6 h -3.721637 c -0.394888,0 -0.715143,0.30978 -0.715143,0.691366 0,0.381586 0.320555,0.691345 0.715143,0.691345 h 1.993443 l -2.499206,2.415077 c -0.204853,0.197942 -0.26588,0.495159 -0.154384,0.753532 z"
     id="path4"
     style="fill:#bda3e6;fill-opacity:1;stroke-width:0.297006" />
  <path
     d="m 25.745858,14.169734 h -2.264546 l 2.610908,-2.522587 c 0.271385,-0.26264 0.35236,-0.657373 0.205639,-1.000201 C 26.15115,10.304112 25.804784,10.081 25.420761,10.081 h -4.232035 c -0.524756,0 -0.949676,0.411 -0.949676,0.917289 0,0.506307 0.425332,0.917307 0.949676,0.917307 h 1.939416 l -2.610881,2.523363 c -0.271811,0.261873 -0.352771,0.6566 -0.206058,0.999436 0.146727,0.342816 0.493083,0.56672 0.877119,0.56672 h 4.557127 c 0.524756,0 0.949675,-0.411 0.949675,-0.91769 0,-0.506691 -0.424524,-0.917691 -0.949266,-0.917691 z"
     id="path6-1"
     style="fill:#a27cdb;fill-opacity:1;stroke-width:0.39407" />
</svg>
