<?xml version="1.0" encoding="UTF-8" standalone="no"?>
<svg
   inkscape:version="1.2.2 (b0a8486541, 2022-12-01)"
   sodipodi:docname="alldesktops.svg"
   style="enable-background:new"
   version="1.1"
   height="22"
   width="22"
   id="svg4306"
   xmlns:inkscape="http://www.inkscape.org/namespaces/inkscape"
   xmlns:sodipodi="http://sodipodi.sourceforge.net/DTD/sodipodi-0.dtd"
   xmlns="http://www.w3.org/2000/svg"
   xmlns:svg="http://www.w3.org/2000/svg"
   xmlns:rdf="http://www.w3.org/1999/02/22-rdf-syntax-ns#"
   xmlns:cc="http://creativecommons.org/ns#"
   xmlns:dc="http://purl.org/dc/elements/1.1/">
  <g
     id="inactive-center"
     transform="translate(-44,22)">
    <rect
       style="opacity:0.00100002;fill:#000000;fill-opacity:1;fill-rule:nonzero;stroke:none;stroke-width:2;stroke-linecap:round;stroke-linejoin:round;stroke-miterlimit:4;stroke-dasharray:none;stroke-opacity:1"
       y="-22"
       x="-22"
       height="22"
       width="22"
       id="rect4266-8"
       transform="scale(-1)" />
    <path
       id="path839-3-36-6"
       style="fill:#2b4254;fill-opacity:1;stroke-width:1.125;enable-background:new"
       d="M 11,2 C 6.02953,2 2,6.029441 2,10.999998 2,15.970557 6.02953,20 11,20 15.97048,20 20.000005,15.970557 20.000005,10.999998 20.000005,6.029441 15.97048,2 11,2 Z m 0,1.125 c 4.34919,0 7.875,3.525746 7.875,7.874998 C 18.875,15.349232 15.34919,18.875 11,18.875 6.6508,18.875 3.125,15.349232 3.125,10.999998 3.125,6.650746 6.6508,3.125 11,3.125 Z m 0,0 z"
       sodipodi:nodetypes="ssssssssssccccc" />
    <rect
       style="fill:#81a1c1;fill-opacity:0.6;stroke:none;stroke-width:0.39374;enable-background:new"
       id="center-3-35-5-7-1"
       width="15.749992"
       height="15.749992"
       x="3.1249964"
       y="3.125"
       ry="7.8749838"
       rx="7.8749962" />
  </g>
  <g
     id="active-center"
     transform="translate(-44)">
    <rect
       transform="scale(-1)"
       id="rect4266"
       width="22"
       height="22"
       x="-22"
       y="-22"
       style="opacity:0.00100002;fill:#ffffff;fill-opacity:1;fill-rule:nonzero;stroke:none;stroke-width:2;stroke-linecap:round;stroke-linejoin:round;stroke-miterlimit:4;stroke-dasharray:none;stroke-opacity:1" />
    <path
       id="path839-3-36"
       style="fill:#2b4254;fill-opacity:1;stroke-width:1.125;enable-background:new"
       d="M 11,2 C 6.02953,2 2,6.029441 2,10.999998 2,15.970557 6.02953,20 11,20 15.97048,20 20.000005,15.970557 20.000005,10.999998 20.000005,6.029441 15.97048,2 11,2 Z m 0,1.125 c 4.34919,0 7.875,3.525746 7.875,7.874998 C 18.875,15.349232 15.34919,18.875 11,18.875 6.6508,18.875 3.125,15.349232 3.125,10.999998 3.125,6.650746 6.6508,3.125 11,3.125 Z m 0,0 z"
       sodipodi:nodetypes="ssssssssssccccc" />
    <rect
       style="fill:#81a1c1;fill-opacity:1;stroke:none;stroke-width:0.39374;enable-background:new"
       id="center-3-35-5-7"
       width="15.749992"
       height="15.749992"
       x="3.1249971"
       y="3.1250002"
       ry="7.8749838"
       rx="7.8749962" />
  </g>
  <g
     id="pressed-center">
    <rect
       style="opacity:0.00100002;fill:#000000;fill-opacity:1;fill-rule:nonzero;stroke:none;stroke-width:2;stroke-linecap:round;stroke-linejoin:round;stroke-miterlimit:4;stroke-dasharray:none;stroke-opacity:1"
       y="-22"
       x="-22"
       height="22"
       width="22"
       id="rect4266-6"
       transform="scale(-1)" />
    <path
       id="path839-3-36-3"
       style="fill:#2b4254;fill-opacity:1;stroke-width:1.125;enable-background:new"
       d="M 11,2 C 6.02953,2 2,6.029441 2,10.999998 2,15.970557 6.02953,20 11,20 15.97048,20 20.000005,15.970557 20.000005,10.999998 20.000005,6.029441 15.97048,2 11,2 Z m 0,1.125 c 4.34919,0 7.875,3.525746 7.875,7.874998 C 18.875,15.349232 15.34919,18.875 11,18.875 6.6508,18.875 3.125,15.349232 3.125,10.999998 3.125,6.650746 6.6508,3.125 11,3.125 Z m 0,0 z"
       sodipodi:nodetypes="ssssssssssccccc" />
    <rect
       style="fill:#81a1c1;fill-opacity:1;stroke:none;stroke-width:0.39374;enable-background:new"
       id="center-3-35-5-7-6"
       width="15.749992"
       height="15.749992"
       x="3.1250002"
       y="3.1250005"
       ry="7.8749838"
       rx="7.8749962" />
    <path
       d="m 15,11 c 0,2.208981 -1.791022,4.000002 -4.000003,4.000002 -2.208981,0 -4.000002,-1.791021 -4.000002,-4.000002 0,-2.208981 1.791021,-4.000002 4.000002,-4.000002 C 13.208978,6.999998 15,8.791019 15,11 Z"
       id="path4-3-7-3-3-6-1"
       style="fill:#ffffff;fill-opacity:1;stroke-width:0.00816327;enable-background:new" />
  </g>
  <metadata
     id="metadata28">
    <rdf:RDF>
      <cc:Work
         rdf:about="">
        <dc:format>image/svg+xml</dc:format>
        <dc:type
           rdf:resource="http://purl.org/dc/dcmitype/StillImage" />
      </cc:Work>
    </rdf:RDF>
  </metadata>
  <defs
     id="defs26" />
  <sodipodi:namedview
     inkscape:bbox-nodes="true"
     inkscape:snap-bbox="true"
     inkscape:current-layer="svg4306"
     inkscape:window-maximized="1"
     inkscape:window-y="0"
     inkscape:window-x="0"
     inkscape:cy="22.312499"
     inkscape:cx="-22.062499"
     inkscape:zoom="8.0000004"
     showgrid="true"
     id="namedview24"
     inkscape:window-height="1002"
     inkscape:window-width="1920"
     inkscape:pageshadow="2"
     inkscape:pageopacity="1"
     guidetolerance="10"
     gridtolerance="10"
     objecttolerance="10"
     borderopacity="1"
     bordercolor="#000000"
     pagecolor="#3a3f47"
     inkscape:document-rotation="0"
     inkscape:snap-intersection-paths="true"
     inkscape:lockguides="false"
     showguides="false"
     inkscape:pagecheckerboard="true"
     inkscape:showpageshadow="2"
     inkscape:deskcolor="#3a3f47">
    <inkscape:grid
       id="grid853"
       type="xygrid"
       originx="-44"
       originy="0" />
  </sodipodi:namedview>
  <style
     id="current-color-scheme"
     type="text/css" />
  <g
     id="pressed-inactive-center"
     transform="translate(0,22)">
    <rect
       transform="scale(-1)"
       id="rect4266-6-3"
       width="22"
       height="22"
       x="-22"
       y="-22"
       style="opacity:0.00100002;fill:#000000;fill-opacity:1;fill-rule:nonzero;stroke:none;stroke-width:2;stroke-linecap:round;stroke-linejoin:round;stroke-miterlimit:4;stroke-dasharray:none;stroke-opacity:1" />
    <path
       id="path839-3-36-6-9"
       style="fill:#2b4254;fill-opacity:1;stroke-width:1.125;enable-background:new"
       d="M 11,2 C 6.02953,2 2,6.029441 2,10.999998 2,15.970557 6.02953,20 11,20 15.97048,20 20.000005,15.970557 20.000005,10.999998 20.000005,6.029441 15.97048,2 11,2 Z m 0,1.125 c 4.34919,0 7.875,3.525746 7.875,7.874998 C 18.875,15.349232 15.34919,18.875 11,18.875 6.6508,18.875 3.125,15.349232 3.125,10.999998 3.125,6.650746 6.6508,3.125 11,3.125 Z m 0,0 z"
       sodipodi:nodetypes="ssssssssssccccc" />
    <rect
       style="fill:#81a1c1;fill-opacity:1;stroke:none;stroke-width:0.39374;enable-background:new"
       id="center-3-35-5-7-1-22"
       width="15.749992"
       height="15.749992"
       x="3.125"
       y="3.125"
       ry="7.8749838"
       rx="7.8749962" />
    <path
       d="m 15,11.000002 c 0,2.208981 -1.791022,4.000002 -4.000003,4.000002 -2.208981,0 -4.000002,-1.791021 -4.000002,-4.000002 C 6.999995,8.791021 8.791016,7 10.999997,7 13.208978,7 15,8.791021 15,11.000002 Z"
       id="path4-3-7-3-3-6"
       style="fill:#ffffff;fill-opacity:1;stroke-width:0.00816327;enable-background:new" />
  </g>
  <g
     id="hover-center"
     transform="translate(-22,22)">
    <rect
       transform="scale(-1)"
       id="rect4266-6-6"
       width="22"
       height="22"
       x="-22"
       y="0"
       style="opacity:0.00100002;fill:#000000;fill-opacity:1;fill-rule:nonzero;stroke:none;stroke-width:2;stroke-linecap:round;stroke-linejoin:round;stroke-miterlimit:4;stroke-dasharray:none;stroke-opacity:1" />
    <path
       id="path839-3-36-1"
       style="fill:#2b4254;fill-opacity:1;stroke-width:1.125;enable-background:new"
       d="m 11,-20 c -4.97047,0 -9,4.029441 -9,8.999998 C 2,-6.029443 6.02953,-2 11,-2 c 4.97048,0 9.000005,-4.029443 9.000005,-9.000002 C 20.000005,-15.970559 15.97048,-20 11,-20 Z m 0,1.125 c 4.34919,0 7.875,3.525746 7.875,7.874998 0,4.349234 -3.52581,7.875002 -7.875,7.875002 -4.3492,0 -7.875,-3.525768 -7.875,-7.875002 0,-4.349252 3.5258,-7.874998 7.875,-7.874998 z m 0,0 z"
       sodipodi:nodetypes="ssssssssssccccc" />
    <rect
       style="fill:#81a1c1;fill-opacity:0.74902;stroke:none;stroke-width:0.39374;enable-background:new"
       id="center-3-35-5-7-2"
       width="15.749992"
       height="15.749992"
       x="3.1249964"
       y="-18.875"
       ry="7.8749838"
       rx="7.8749962" />
    <path
       d="m 15.000005,-11 c 0,2.208981 -1.791022,4.000002 -4.000003,4.000002 C 8.791021,-6.999998 7,-8.791019 7,-11 c 0,-2.208981 1.791021,-4.000002 4.000002,-4.000002 2.208981,0 4.000003,1.791021 4.000003,4.000002 z"
       id="path4-3-7-3-3-6-1-3"
       style="fill:#ffffff;fill-opacity:0.8;stroke-width:0.00816327;enable-background:new" />
  </g>
  <g
     id="hover-inactive-center"
     transform="translate(-22,22)">
    <rect
       style="opacity:0.00100002;fill:#000000;fill-opacity:1;fill-rule:nonzero;stroke:none;stroke-width:2;stroke-linecap:round;stroke-linejoin:round;stroke-miterlimit:4;stroke-dasharray:none;stroke-opacity:1"
       y="-22"
       x="-22"
       height="22"
       width="22"
       id="rect4266-6-6-6"
       transform="scale(-1)" />
    <path
       id="path839-3-36-6-0"
       style="fill:#2b4254;fill-opacity:1;stroke-width:1.125;enable-background:new"
       d="M 11,2 C 6.02953,2 2,6.029441 2,10.999998 2,15.970557 6.02953,20 11,20 15.97048,20 20.000005,15.970557 20.000005,10.999998 20.000005,6.029441 15.97048,2 11,2 Z m 0,1.125 c 4.34919,0 7.875,3.525746 7.875,7.874998 C 18.875,15.349232 15.34919,18.875 11,18.875 6.6508,18.875 3.125,15.349232 3.125,10.999998 3.125,6.650746 6.6508,3.125 11,3.125 Z m 0,0 z"
       sodipodi:nodetypes="ssssssssssccccc" />
    <rect
       style="fill:#81a1c1;fill-opacity:0.74902;stroke:none;stroke-width:0.39374;enable-background:new"
       id="center-3-35-5-7-1-2"
       width="15.749992"
       height="15.749992"
       x="3.1249962"
       y="3.125"
       ry="7.8749838"
       rx="7.8749962" />
    <path
       d="m 15.000003,11.000002 c 0,2.208981 -1.791022,4.000002 -4.000003,4.000002 -2.208981,0 -4.000002,-1.791021 -4.000002,-4.000002 C 6.999998,8.791021 8.791019,7 11,7 c 2.208981,0 4.000003,1.791021 4.000003,4.000002 z"
       id="path4-3-7-3-3-6-1-6"
       style="fill:#ffffff;fill-opacity:0.8;stroke-width:0.00816327;enable-background:new" />
  </g>
</svg>
