<?xml version="1.0" encoding="UTF-8" standalone="no"?>
<svg
   id="svg4306"
   width="22"
   height="22"
   version="1.1"
   style="enable-background:new"
   sodipodi:docname="close.svg"
   inkscape:version="1.3.2 (091e20ef0f, 2023-11-25)"
   xmlns:inkscape="http://www.inkscape.org/namespaces/inkscape"
   xmlns:sodipodi="http://sodipodi.sourceforge.net/DTD/sodipodi-0.dtd"
   xmlns="http://www.w3.org/2000/svg"
   xmlns:svg="http://www.w3.org/2000/svg"
   xmlns:rdf="http://www.w3.org/1999/02/22-rdf-syntax-ns#"
   xmlns:cc="http://creativecommons.org/ns#"
   xmlns:dc="http://purl.org/dc/elements/1.1/">
  <g
     id="pressed-inactive-center">
    <rect
       y="22"
       x="0"
       height="22"
       width="22"
       id="rect953-2-7-6-5"
       style="opacity:0.00100002;fill:#050505;fill-opacity:1;stroke-width:1.001" />
    <path
       id="path839-3-36-3"
       style="fill:#2b4254;fill-opacity:1;stroke-width:1.125;enable-background:new"
       d="M 11,24 C 6.02953,24 2,28.029441 2,32.999998 2,37.970557 6.02953,42 11,42 15.97048,42 20,37.970557 20,32.999998 20,28.029441 15.97048,24 11,24 Z m 0,1.125 c 4.34919,0 7.875,3.525746 7.875,7.874998 C 18.875,37.349232 15.34919,40.875 11,40.875 6.6508,40.875 3.125,37.349232 3.125,32.999998 3.125,28.650746 6.6508,25.125 11,25.125 Z m 0,0 z"
       sodipodi:nodetypes="ssssssssssccccc" />
    <rect
       style="fill:#bf616a;fill-opacity:1;stroke:none;stroke-width:0.39374;enable-background:new"
       id="center-3-35-5-7-6"
       width="15.749992"
       height="15.749992"
       x="3.125"
       y="25.125"
       ry="7.8749838"
       rx="7.8749962" />
    <path
       d="m 15.195885,35.727305 -2.727666,-2.727559 2.7268,-2.726918 c 0.405604,-0.40572 0.405604,-1.063202 0,-1.46875 -0.405676,-0.405379 -1.063227,-0.405379 -1.468333,0 l -2.727023,2.727131 -2.7270161,-2.727131 c -0.405359,-0.405379 -1.062831,-0.40555 -1.468519,1.64e-4 -0.40545,0.405465 -0.40545,1.063033 1.77e-4,1.468582 l 2.727004,2.726918 -2.727226,2.72756 c -0.405449,0.405462 -0.405449,1.063114 0,1.468494 0.202881,0.202772 0.468497,0.304204 0.73433,0.304204 0.265845,0 0.531461,-0.101428 0.734342,-0.304204 l 2.7272321,-2.727558 2.727448,2.727558 C 13.930237,37.398568 14.195933,37.5 14.461615,37.5 c 0.265687,0 0.531635,-0.101428 0.734185,-0.304204 0.405595,-0.40538 0.405595,-1.063032 0,-1.468494 z"
       id="path3490-3-3"
       style="fill:#ffffff;fill-opacity:1;stroke-width:0.021328;enable-background:new" />
  </g>
  <g
     id="hover-center">
    <rect
       style="opacity:0.00100002;fill:#050505;fill-opacity:1;stroke-width:1.001"
       id="rect953-2-7-2"
       width="22"
       height="22"
       x="-22"
       y="0" />
    <path
       id="path839-3-3"
       style="fill:#2b4254;fill-opacity:1;stroke-width:1.125;enable-background:new"
       d="m -11,2 c -4.97047,0 -9,4.0294414 -9,8.999998 C -20,15.970557 -15.97047,20 -11,20 -6.02952,20 -2,15.970557 -2,10.999998 -2,6.0294414 -6.02952,2 -11,2 Z m 0,1.1249999 c 4.34919,0 7.875,3.5257465 7.875,7.8749981 0,4.349234 -3.52581,7.875002 -7.875,7.875002 -4.3492,0 -7.875,-3.525768 -7.875,-7.875002 0,-4.3492516 3.5258,-7.8749981 7.875,-7.8749981 z m 0,0 z"
       sodipodi:nodetypes="ssssssssssccccc" />
    <rect
       style="fill:#bf616a;fill-opacity:0.7;stroke:none;stroke-width:0.39374;enable-background:new"
       id="center-3-35-5-6"
       width="15.749992"
       height="15.749992"
       x="-18.875"
       y="3.125001"
       ry="7.8749838"
       rx="7.8749962" />
    <path
       d="m -6.8041151,13.727305 -2.727666,-2.727559 2.7268,-2.7269179 c 0.405604,-0.40572 0.405604,-1.0632016 0,-1.4687501 -0.405676,-0.4053793 -1.063227,-0.4053793 -1.468333,0 l -2.7270229,2.727131 -2.727016,-2.727131 c -0.405359,-0.4053793 -1.062831,-0.4055502 -1.468519,1.644e-4 -0.40545,0.4054651 -0.40545,1.0630322 1.77e-4,1.4685813 l 2.727004,2.7269183 -2.727226,2.72756 c -0.405449,0.405462 -0.405449,1.063114 0,1.468494 0.202881,0.202772 0.468497,0.304204 0.73433,0.304204 0.265845,0 0.531461,-0.101428 0.734342,-0.304204 l 2.727232,-2.727558 2.7274479,2.727558 c 0.202802,0.202772 0.468498,0.304204 0.73418,0.304204 0.265687,0 0.531635,-0.101428 0.734185,-0.304204 0.405595,-0.40538 0.405595,-1.063032 0,-1.468494 z"
       id="path3490"
       style="stroke-width:0.021328;fill:#ffffff;fill-opacity:0.79987347" />
  </g>
  <g
     id="active-center"
     transform="translate(-44)">
    <rect
       style="opacity:0.00100002;fill:#050505;fill-opacity:1;stroke-width:1.001;enable-background:new"
       id="rect953-2-7-2-75"
       width="22"
       height="22"
       x="0"
       y="0" />
    <path
       id="path839-3"
       style="fill:#2b4254;fill-opacity:1;stroke-width:1.125;enable-background:new"
       d="M 11,2 C 6.02953,2 2,6.0294414 2,10.999998 2,15.970557 6.02953,20 11,20 15.97048,20 20,15.970557 20,10.999998 20,6.0294414 15.97048,2 11,2 Z m 0,1.1249999 c 4.34919,0 7.875,3.5257465 7.875,7.8749981 0,4.349234 -3.52581,7.875002 -7.875,7.875002 -4.3492,0 -7.875,-3.525768 -7.875,-7.875002 0,-4.3492516 3.5258,-7.8749981 7.875,-7.8749981 z m 0,0 z"
       sodipodi:nodetypes="ssssssssssccccc" />
    <rect
       style="fill:#bf616a;fill-opacity:1;stroke:none;stroke-width:0.39374"
       id="center-3-35-5"
       width="15.749992"
       height="15.749992"
       x="3.125"
       y="3.125001"
       ry="7.8749838"
       rx="7.8749962" />
  </g>
  <metadata
     id="metadata40">
    <rdf:RDF>
      <cc:Work
         rdf:about="">
        <dc:format>image/svg+xml</dc:format>
        <dc:type
           rdf:resource="http://purl.org/dc/dcmitype/StillImage" />
      </cc:Work>
    </rdf:RDF>
  </metadata>
  <defs
     id="defs38" />
  <sodipodi:namedview
     inkscape:document-rotation="0"
     pagecolor="#3a3f47"
     bordercolor="#000000"
     borderopacity="1"
     objecttolerance="10"
     gridtolerance="10"
     guidetolerance="10"
     inkscape:pageopacity="1"
     inkscape:pageshadow="2"
     inkscape:window-width="1920"
     inkscape:window-height="994"
     id="namedview36"
     showgrid="true"
     inkscape:snap-bbox="true"
     inkscape:bbox-nodes="true"
     inkscape:zoom="8.0000001"
     inkscape:cx="-17.75"
     inkscape:cy="29.6875"
     inkscape:window-x="0"
     inkscape:window-y="0"
     inkscape:window-maximized="1"
     inkscape:current-layer="svg4306"
     inkscape:lockguides="false"
     showguides="false"
     inkscape:pagecheckerboard="true"
     inkscape:showpageshadow="2"
     inkscape:deskcolor="#2e3238">
    <inkscape:grid
       type="xygrid"
       id="grid865"
       originx="-44"
       originy="0"
       spacingy="1"
       spacingx="1"
       units="px"
       visible="true" />
  </sodipodi:namedview>
  <style
     type="text/css"
     id="current-color-scheme" />
  <g
     id="g1546"
     transform="translate(-44)" />
  <g
     id="inactive-center"
     transform="translate(-44,22)">
    <rect
       style="opacity:0.00100002;fill:#050505;fill-opacity:1;stroke-width:1.001"
       id="rect953-2"
       width="22"
       height="22"
       x="0"
       y="0" />
    <path
       id="path839-3-36"
       style="fill:#2b4254;fill-opacity:1;stroke-width:1.125;enable-background:new"
       d="M 10.9,2 C 5.92953,2 1.9,6.029441 1.9,10.999998 1.9,15.970557 5.92953,20 10.9,20 c 4.97048,0 9,-4.029443 9,-9.000002 C 19.9,6.029441 15.87048,2 10.9,2 Z m 0,1.125 c 4.34919,0 7.875,3.525746 7.875,7.874998 0,4.349234 -3.52581,7.875002 -7.875,7.875002 -4.3492,0 -7.875,-3.525768 -7.875,-7.875002 C 3.025,6.650746 6.5508,3.125 10.9,3.125 Z m 0,0 z"
       sodipodi:nodetypes="ssssssssssccccc" />
    <rect
       style="fill:#bf616a;fill-opacity:0.6;stroke:none;stroke-width:0.39374;enable-background:new"
       id="center-3-35-5-7"
       width="15.749992"
       height="15.749992"
       x="3.0249991"
       y="3.1249998"
       ry="7.8749838"
       rx="7.8749962" />
  </g>
  <g
     id="pressed-center">
    <rect
       style="opacity:0.00100002;fill:#050505;fill-opacity:1;stroke-width:1.001"
       id="rect953-2-7-6"
       width="22"
       height="22"
       x="0"
       y="0" />
    <path
       id="path839-3-3-3"
       style="fill:#2b4254;fill-opacity:1;stroke-width:1.125;enable-background:new"
       d="M 11,2 C 6.02953,2 2,6.0294414 2,10.999998 2,15.970557 6.02953,20 11,20 15.97048,20 20,15.970557 20,10.999998 20,6.0294414 15.97048,2 11,2 Z m 0,1.1249999 c 4.34919,0 7.875,3.5257465 7.875,7.8749981 0,4.349234 -3.52581,7.875002 -7.875,7.875002 -4.3492,0 -7.875,-3.525768 -7.875,-7.875002 0,-4.3492516 3.5258,-7.8749981 7.875,-7.8749981 z m 0,0 z"
       sodipodi:nodetypes="ssssssssssccccc" />
    <rect
       style="fill:#bf616a;fill-opacity:1;stroke:none;stroke-width:0.39374;enable-background:new"
       id="center-3-35-5-6-5"
       width="15.749992"
       height="15.749992"
       x="3.125"
       y="3.1250014"
       ry="7.8749838"
       rx="7.8749962" />
    <path
       d="m 15.195885,13.727305 -2.727666,-2.727559 2.7268,-2.7269179 c 0.405604,-0.40572 0.405604,-1.0632016 0,-1.4687501 -0.405676,-0.4053793 -1.063227,-0.4053793 -1.468333,0 L 10.999663,9.531209 8.2726469,6.804078 c -0.405359,-0.4053793 -1.062831,-0.4055502 -1.468519,1.644e-4 -0.40545,0.4054651 -0.40545,1.0630322 1.77e-4,1.4685813 l 2.727004,2.7269183 -2.727226,2.72756 c -0.405449,0.405462 -0.405449,1.063114 0,1.468494 0.202881,0.202772 0.468497,0.304204 0.73433,0.304204 0.265845,0 0.531461,-0.101428 0.734342,-0.304204 l 2.7272321,-2.727558 2.727448,2.727558 C 13.930237,15.398568 14.195933,15.5 14.461615,15.5 c 0.265687,0 0.531635,-0.101428 0.734185,-0.304204 0.405595,-0.40538 0.405595,-1.063032 0,-1.468494 z"
       id="path3490-3"
       style="fill:#ffffff;fill-opacity:1;stroke-width:0.021328;enable-background:new" />
  </g>
  <g
     id="hover-inactive-center">
    <rect
       y="22"
       x="-22"
       height="22"
       width="22"
       id="rect953-2-7-2-7"
       style="opacity:0.00100002;fill:#050505;fill-opacity:1;stroke-width:1.001" />
    <path
       id="path839-3-36-35"
       style="fill:#2b4254;fill-opacity:1;stroke-width:1.125;enable-background:new"
       d="M -11.000001,24 C -15.97047,24 -20,28.029441 -20,32.999998 -20,37.970557 -15.97047,42 -11.000001,42 c 4.97048,0 9,-4.029443 9,-9.000002 0,-4.970557 -4.02952,-8.999998 -9,-8.999998 z m 0,1.125 c 4.34919,0 7.875,3.525746 7.875,7.874998 0,4.349234 -3.52581,7.875002 -7.875,7.875002 -4.349199,0 -7.874999,-3.525768 -7.874999,-7.875002 0,-4.349252 3.5258,-7.874998 7.874999,-7.874998 z m 0,0 z"
       sodipodi:nodetypes="ssssssssssccccc" />
    <rect
       style="fill:#bf616a;fill-opacity:0.7;stroke:none;stroke-width:0.39374;enable-background:new"
       id="center-3-35-5-7-62"
       width="15.749992"
       height="15.749992"
       x="-18.875"
       y="25.125"
       ry="7.8749838"
       rx="7.8749962" />
    <path
       d="m -6.8041112,35.727301 -2.727666,-2.727559 2.7268,-2.726918 c 0.405604,-0.40572 0.405604,-1.063202 0,-1.46875 -0.405676,-0.405379 -1.063227,-0.405379 -1.468333,0 l -2.7270228,2.727131 -2.727016,-2.727131 c -0.405359,-0.405379 -1.062831,-0.40555 -1.468519,1.64e-4 -0.40545,0.405466 -0.40545,1.063033 1.77e-4,1.468582 l 2.727004,2.726918 -2.727226,2.72756 c -0.405449,0.405462 -0.405449,1.063114 0,1.468494 0.202881,0.202772 0.468497,0.304204 0.73433,0.304204 0.265845,0 0.531461,-0.101428 0.734342,-0.304204 l 2.727232,-2.727558 2.7274478,2.727558 c 0.202802,0.202772 0.468498,0.304204 0.7341799,0.304204 0.265687,0 0.531635,-0.101428 0.734185,-0.304204 0.4055951,-0.40538 0.4055951,-1.063032 0,-1.468494 z"
       id="path3490-6"
       style="fill:#ffffff;fill-opacity:0.799873;stroke-width:0.021328;enable-background:new" />
  </g>
</svg>
