<?xml version="1.0" encoding="UTF-8" standalone="no"?>
<svg
   id="svg4306"
   width="22"
   height="22"
   version="1.1"
   style="enable-background:new"
   sodipodi:docname="keepbelow.svg"
   inkscape:version="1.3.2 (091e20ef0f, 2023-11-25)"
   xmlns:inkscape="http://www.inkscape.org/namespaces/inkscape"
   xmlns:sodipodi="http://sodipodi.sourceforge.net/DTD/sodipodi-0.dtd"
   xmlns="http://www.w3.org/2000/svg"
   xmlns:svg="http://www.w3.org/2000/svg"
   xmlns:rdf="http://www.w3.org/1999/02/22-rdf-syntax-ns#"
   xmlns:cc="http://creativecommons.org/ns#"
   xmlns:dc="http://purl.org/dc/elements/1.1/">
  <g
     id="hover-center"
     transform="translate(0,22)">
    <rect
       style="opacity:0.00100002;fill:#000000;fill-opacity:1;fill-rule:nonzero;stroke:none;stroke-width:2;stroke-linecap:round;stroke-linejoin:round;stroke-miterlimit:4;stroke-dasharray:none;stroke-opacity:1"
       y="-22"
       x="-22"
       height="22"
       width="22"
       id="rect4266-8-6" />
    <path
       id="path839-3-36-5"
       style="fill:#2b4254;fill-opacity:1;stroke-width:1.125;enable-background:new"
       d="m -11,-2 c 4.97047,0 9,-4.029441 9,-8.999998 C -2,-15.970557 -6.02953,-20 -11,-20 c -4.97048,0 -9,4.029443 -9,9.000002 C -20,-6.029441 -15.97048,-2 -11,-2 Z m 0,-1.125 c -4.34919,0 -7.875,-3.525746 -7.875,-7.874998 0,-4.349234 3.52581,-7.875002 7.875,-7.875002 4.3492,0 7.875,3.525768 7.875,7.875002 0,4.349252 -3.5258,7.874998 -7.875,7.874998 z m 0,0 z"
       sodipodi:nodetypes="ssssssssssccccc" />
    <rect
       style="fill:#b48ead;fill-opacity:0.7;stroke:none;stroke-width:0.39374;enable-background:new"
       id="center-3-35-5-7-6"
       width="15.749992"
       height="15.749992"
       x="3.125"
       y="3.125"
       ry="7.8749838"
       rx="7.8749962"
       transform="scale(-1)" />
    <path
       d="m -10.993197,-7.9999955 c 0.0128,-1.46e-4 0.02558,-0.0011 0.03833,-0.0023 0.08797,-0.0088 0.169825,-0.04243 0.232388,-0.09571 l 5.1055841,-4.3313295 c 0.0747,-0.0623 0.116915,-0.1474 0.117234,-0.236349 3.5e-4,-0.08887 -0.04111,-0.17417 -0.115316,-0.237016 -0.07411,-0.06277 -0.174729,-0.09781 -0.279529,-0.09728 H -16.104128 c -0.104874,-9.93e-4 -0.20566,0.03419 -0.279966,0.09696 -0.07435,0.06279 -0.115921,0.148148 -0.115562,0.237176 2.53e-4,0.08893 0.04254,0.174097 0.117154,0.236497 l 5.106486,4.3314565 c 0.07491,0.06366 0.17701,0.09885 0.282946,0.09764 z"
       fill-rule="evenodd"
       id="path2"
       style="fill:#fefefe;fill-opacity:0.8;stroke-width:0.0206658;enable-background:new" />
  </g>
  <g
     id="active-center"
     transform="translate(0,22)">
    <rect
       id="rect4266"
       width="22"
       height="22"
       x="-44"
       y="-22"
       style="opacity:0.00100002;fill:#000000;fill-opacity:1;fill-rule:nonzero;stroke:none;stroke-width:2;stroke-linecap:round;stroke-linejoin:round;stroke-miterlimit:4;stroke-dasharray:none;stroke-opacity:1" />
    <path
       id="path839-3-36"
       style="fill:#2b4254;fill-opacity:1;stroke-width:1.125;enable-background:new"
       d="m -33,-20 c -4.97047,0 -9,4.029441 -9,8.999998 C -42,-6.029443 -37.97047,-2 -33,-2 c 4.97048,0 9,-4.029443 9,-9.000002 C -24,-15.970559 -28.02952,-20 -33,-20 Z m 0,1.125 c 4.34919,0 7.875,3.525746 7.875,7.874998 0,4.349234 -3.52581,7.875002 -7.875,7.875002 -4.3492,0 -7.875,-3.525768 -7.875,-7.875002 0,-4.349252 3.5258,-7.874998 7.875,-7.874998 z m 0,0 z"
       sodipodi:nodetypes="ssssssssssccccc" />
    <rect
       style="fill:#b48ead;fill-opacity:1;stroke:none;stroke-width:0.39374;enable-background:new"
       id="center-3-35-5-7"
       width="15.749992"
       height="15.749992"
       x="-40.875"
       y="-18.875"
       ry="7.8749838"
       rx="7.8749962" />
  </g>
  <metadata
     id="metadata28">
    <rdf:RDF>
      <cc:Work
         rdf:about="">
        <dc:format>image/svg+xml</dc:format>
        <dc:type
           rdf:resource="http://purl.org/dc/dcmitype/StillImage" />
      </cc:Work>
    </rdf:RDF>
  </metadata>
  <defs
     id="defs26" />
  <sodipodi:namedview
     inkscape:document-rotation="0"
     pagecolor="#2e3238"
     bordercolor="#000000"
     borderopacity="1"
     objecttolerance="10"
     gridtolerance="10"
     guidetolerance="10"
     inkscape:pageopacity="1"
     inkscape:pageshadow="2"
     inkscape:window-width="1920"
     inkscape:window-height="994"
     id="namedview24"
     showgrid="true"
     inkscape:zoom="8.0000004"
     inkscape:cx="-5.8749997"
     inkscape:cy="25.749999"
     inkscape:window-x="0"
     inkscape:window-y="0"
     inkscape:window-maximized="1"
     inkscape:current-layer="svg4306"
     inkscape:snap-bbox="true"
     inkscape:bbox-nodes="true"
     inkscape:lockguides="false"
     inkscape:pagecheckerboard="true"
     showguides="false"
     inkscape:showpageshadow="2"
     inkscape:deskcolor="#2e3238">
    <inkscape:grid
       type="xygrid"
       id="grid853"
       originx="-44"
       originy="0"
       spacingy="1"
       spacingx="1"
       units="px"
       visible="true" />
  </sodipodi:namedview>
  <style
     type="text/css"
     id="current-color-scheme" />
  <g
     id="g987"
     transform="translate(-44,22)" />
  <g
     id="inactive-center"
     transform="translate(-44,22)">
    <rect
       style="opacity:0.00100002;fill:#000000;fill-opacity:1;fill-rule:nonzero;stroke:none;stroke-width:2;stroke-linecap:round;stroke-linejoin:round;stroke-miterlimit:4;stroke-dasharray:none;stroke-opacity:1"
       y="-22"
       x="-22"
       height="22"
       width="22"
       id="rect4266-8"
       transform="scale(-1)" />
    <path
       id="path839-3-36-56"
       style="fill:#2b4254;fill-opacity:1;stroke-width:1.125;enable-background:new"
       d="M 11,2 C 6.02953,2 2,6.029441 2,10.999998 2,15.970557 6.02953,20 11,20 15.97048,20 20,15.970557 20,10.999998 20,6.029441 15.97048,2 11,2 Z m 0,1.125 c 4.34919,0 7.875,3.525746 7.875,7.874998 C 18.875,15.349232 15.34919,18.875 11,18.875 6.6508,18.875 3.125,15.349232 3.125,10.999998 3.125,6.650746 6.6508,3.125 11,3.125 Z m 0,0 z"
       sodipodi:nodetypes="ssssssssssccccc" />
    <rect
       style="fill:#b48ead;fill-opacity:0.6;stroke:none;stroke-width:0.39374;enable-background:new"
       id="center-3-35-5-7-29"
       width="15.749992"
       height="15.749992"
       x="3.124999"
       y="3.1250005"
       ry="7.8749838"
       rx="7.8749962" />
  </g>
  <g
     id="pressed-center"
     transform="translate(0,22)">
    <rect
       id="rect4266-3-6"
       width="22"
       height="22"
       x="0"
       y="-22"
       style="opacity:0.00100002;fill:#000000;fill-opacity:1;fill-rule:nonzero;stroke:none;stroke-width:2;stroke-linecap:round;stroke-linejoin:round;stroke-miterlimit:4;stroke-dasharray:none;stroke-opacity:1" />
    <path
       id="path839-3-36-1"
       style="fill:#2b4254;fill-opacity:1;stroke-width:1.125;enable-background:new"
       d="m 11,-20 c -4.97047,0 -9,4.029441 -9,8.999998 C 2,-6.029443 6.02953,-2 11,-2 c 4.970479,0 8.999999,-4.029443 8.999999,-9.000002 C 19.999999,-15.970559 15.97048,-20 11,-20 Z m 0,1.125 c 4.34919,0 7.874999,3.525746 7.874999,7.874998 0,4.349234 -3.525809,7.875002 -7.874999,7.875002 -4.3492,0 -7.875,-3.525768 -7.875,-7.875002 0,-4.349252 3.5258,-7.874998 7.875,-7.874998 z m 0,0 z"
       sodipodi:nodetypes="ssssssssssccccc" />
    <rect
       style="fill:#b48ead;fill-opacity:1;stroke:none;stroke-width:0.39374;enable-background:new"
       id="center-3-35-5-7-2"
       width="15.749992"
       height="15.749992"
       x="3.125"
       y="-18.875"
       ry="7.8749838"
       rx="7.8749962" />
    <path
       d="m 11.006461,-7.999991 c 0.0128,-1.46e-4 0.02558,-0.0011 0.03833,-0.0023 0.08797,-0.0088 0.169825,-0.04243 0.232388,-0.09571 l 5.105584,-4.331334 c 0.0747,-0.0623 0.116915,-0.1474 0.117234,-0.236349 3.5e-4,-0.08887 -0.04111,-0.17417 -0.115316,-0.237016 -0.07411,-0.06277 -0.174729,-0.09781 -0.279529,-0.09728 H 5.8955303 c -0.104874,-9.93e-4 -0.20566,0.03419 -0.279966,0.09696 -0.07435,0.06279 -0.115921,0.148148 -0.115562,0.237176 2.53e-4,0.08893 0.04254,0.174097 0.117154,0.236497 l 5.1064857,4.331461 c 0.07491,0.06366 0.17701,0.09885 0.282946,0.09764 z"
       fill-rule="evenodd"
       id="path2-5"
       style="fill:#fefefe;fill-opacity:1;stroke-width:0.0206658;enable-background:new" />
  </g>
  <g
     id="hover-inactive-center"
     transform="translate(-22,22)">
    <rect
       style="opacity:0.00100002;fill:#000000;fill-opacity:1;fill-rule:nonzero;stroke:none;stroke-width:2;stroke-linecap:round;stroke-linejoin:round;stroke-miterlimit:4;stroke-dasharray:none;stroke-opacity:1"
       y="-22"
       x="-22"
       height="22"
       width="22"
       id="rect4266-8-67"
       transform="scale(-1)" />
    <path
       id="path839-3-36-7"
       style="fill:#2b4254;fill-opacity:1;stroke-width:1.125;enable-background:new"
       d="M 11,2 C 6.02953,2 2,6.029441 2,10.999998 2,15.970557 6.02953,20 11,20 15.97048,20 20,15.970557 20,10.999998 20,6.029441 15.97048,2 11,2 Z m 0,1.125 c 4.34919,0 7.875,3.525746 7.875,7.874998 C 18.875,15.349232 15.34919,18.875 11,18.875 6.6508,18.875 3.125,15.349232 3.125,10.999998 3.125,6.650746 6.6508,3.125 11,3.125 Z m 0,0 z"
       sodipodi:nodetypes="ssssssssssccccc" />
    <rect
       style="fill:#b48ead;fill-opacity:0.75;stroke:none;stroke-width:0.39374;enable-background:new"
       id="center-3-35-5-7-0"
       width="15.749992"
       height="15.749992"
       x="3.125"
       y="3.125"
       ry="7.8749838"
       rx="7.8749962" />
    <path
       d="m 11.00612,13.999985 c 0.0128,-1.47e-4 0.02558,-0.0011 0.03833,-0.0023 0.08797,-0.0088 0.169825,-0.04243 0.232388,-0.09571 l 5.105584,-4.331329 c 0.0747,-0.0623 0.116915,-0.1474 0.117234,-0.236349 3.5e-4,-0.08887 -0.04111,-0.17417 -0.115316,-0.237016 C 16.31023,9.03451 16.209611,8.99947 16.104811,9 H 5.895189 C 5.790315,8.999007 5.689529,9.03419 5.615223,9.09696 5.540873,9.15975 5.499302,9.245108 5.499661,9.334136 c 2.53e-4,0.08893 0.04254,0.174097 0.117154,0.236497 l 5.106486,4.331456 c 0.07491,0.06366 0.17701,0.09885 0.282946,0.09764 z"
       fill-rule="evenodd"
       id="path2-3"
       style="fill:#fefefe;fill-opacity:0.8;stroke-width:0.0206658;enable-background:new" />
  </g>
  <g
     id="pressed-inactive-center"
     transform="translate(-22,22)">
    <rect
       style="opacity:0.00100002;fill:#000000;fill-opacity:1;fill-rule:nonzero;stroke:none;stroke-width:2;stroke-linecap:round;stroke-linejoin:round;stroke-miterlimit:4;stroke-dasharray:none;stroke-opacity:1"
       y="0"
       x="22"
       height="22"
       width="22"
       id="rect4266-3-6-5" />
    <path
       id="path839-3-36-3"
       style="fill:#2b4254;fill-opacity:1;stroke-width:1.125;enable-background:new"
       d="M 33,2 C 28.02953,2 24,6.029441 24,10.999998 24,15.970557 28.02953,20 33,20 37.970479,20 41.999999,15.970557 41.999999,10.999998 41.999999,6.029441 37.97048,2 33,2 Z m 0,1.125 c 4.34919,0 7.874999,3.525746 7.874999,7.874998 0,4.349234 -3.525809,7.875002 -7.874999,7.875002 -4.3492,0 -7.875,-3.525768 -7.875,-7.875002 C 25.125,6.650746 28.6508,3.125 33,3.125 Z m 0,0 z"
       sodipodi:nodetypes="ssssssssssccccc" />
    <rect
       style="fill:#b48ead;fill-opacity:1;stroke:none;stroke-width:0.39374;enable-background:new"
       id="center-3-35-5-7-67"
       width="15.749992"
       height="15.749992"
       x="25.125"
       y="3.125"
       ry="7.8749838"
       rx="7.8749962" />
    <path
       d="m 33.00612,13.999989 c 0.0128,-1.46e-4 0.02558,-0.0011 0.03833,-0.0023 0.08797,-0.0088 0.169825,-0.04243 0.232388,-0.09571 l 5.105584,-4.331334 c 0.0747,-0.0623 0.116915,-0.1474 0.117234,-0.236349 3.5e-4,-0.08887 -0.04111,-0.17417 -0.115316,-0.237016 C 38.31023,9.03451 38.209611,8.99947 38.104811,9 H 27.895189 c -0.104874,-9.93e-4 -0.20566,0.03419 -0.279966,0.09696 -0.07435,0.06279 -0.115921,0.148148 -0.115562,0.237176 2.53e-4,0.08893 0.04254,0.174097 0.117154,0.236497 l 5.106486,4.331461 c 0.07491,0.06366 0.17701,0.09885 0.282946,0.09764 z"
       fill-rule="evenodd"
       id="path2-5-6"
       style="fill:#fefefe;fill-opacity:1;stroke-width:0.0206658;enable-background:new" />
  </g>
</svg>
