<?xml version="1.0" encoding="UTF-8" standalone="no"?>
<svg
   width="31.999998"
   height="31.999998"
   viewBox="0 0 8.466666 8.4666664"
   version="1.1"
   id="svg847"
   inkscape:version="1.3 (0e150ed6c4, 2023-07-21)"
   sodipodi:docname="activities.svg"
   xmlns:inkscape="http://www.inkscape.org/namespaces/inkscape"
   xmlns:sodipodi="http://sodipodi.sourceforge.net/DTD/sodipodi-0.dtd"
   xmlns="http://www.w3.org/2000/svg"
   xmlns:svg="http://www.w3.org/2000/svg"
   xmlns:rdf="http://www.w3.org/1999/02/22-rdf-syntax-ns#"
   xmlns:cc="http://creativecommons.org/ns#"
   xmlns:dc="http://purl.org/dc/elements/1.1/">
  <defs
     id="defs841" />
  <sodipodi:namedview
     id="base"
     pagecolor="#201933"
     bordercolor="#000000"
     borderopacity="1"
     inkscape:pageopacity="0.0"
     inkscape:pageshadow="2"
     inkscape:zoom="11.313709"
     inkscape:cx="31.46625"
     inkscape:cy="23.688076"
     inkscape:document-units="px"
     inkscape:current-layer="layer1"
     inkscape:document-rotation="0"
     showgrid="true"
     units="px"
     inkscape:window-width="1920"
     inkscape:window-height="993"
     inkscape:window-x="0"
     inkscape:window-y="0"
     inkscape:window-maximized="1"
     inkscape:snap-bbox="true"
     inkscape:bbox-nodes="true"
     inkscape:showpageshadow="2"
     inkscape:pagecheckerboard="true"
     inkscape:deskcolor="#201933">
    <inkscape:grid
       id="grid1"
       units="px"
       originx="1.4598447e-06"
       originy="-1.7060327e-07"
       spacingx="0.26458333"
       spacingy="0.26458334"
       empcolor="#0099e5"
       empopacity="0.30196078"
       color="#0099e5"
       opacity="0.14902"
       empspacing="5"
       dotted="false"
       gridanglex="30"
       gridanglez="30"
       visible="true" />
  </sodipodi:namedview>
  <metadata
     id="metadata844">
    <rdf:RDF>
      <cc:Work
         rdf:about="">
        <dc:format>image/svg+xml</dc:format>
        <dc:type
           rdf:resource="http://purl.org/dc/dcmitype/StillImage" />
      </cc:Work>
    </rdf:RDF>
    <style
       id="current-color-scheme">&#10;        .ColorScheme-Text {&#10;            color:#31363b;&#10;        }&#10;    </style>
  </metadata>
  <g
     inkscape:label="Layer 1"
     inkscape:groupmode="layer"
     id="layer1">
    <g
       id="activities">
      <rect
         y="0"
         x="0"
         height="8.4666662"
         width="8.4666662"
         id="rect1430"
         style="opacity:0.003;fill:#000000;stroke-width:0.529167" />
      <path
         sodipodi:nodetypes="ccccccccccccccccccccccccccccccccc"
         d="m 2.3812483,1.0583333 10e-8,1.0583333 4.7624998,1e-7 V 1.0583334 H 6.8791649 v 0.79375 l -4.2333332,-10e-8 -10e-8,-0.79375 z m -1.0583319,-10e-8 V 7.4083334 H 1.5874997 V 1.0583332 Z m 1.0583319,1.5875001 v 3.175 l 4.7624999,2e-7 V 2.6458333 Z m 0.2645833,0.2645833 4.2333333,3e-7 v 2.6458333 l -4.2333333,-3e-7 z m -0.2645832,3.4395833 -10e-8,1.0583333 h 0.2645833 l 10e-8,-0.79375 4.2333332,3e-7 v 0.79375 H 7.1437482 V 6.3500002 Z"
         id="rect1574"
         style="fill:#d3dae3;fill-opacity:1" />
      <path
         d="m 5.5562488,4.233335 c 0,-0.1461974 0.1183879,-0.2645852 0.2645826,-0.2645852 0.1460735,0 0.2645825,0.1183878 0.2645825,0.2645852 0,0.1460719 -0.118509,0.2645814 -0.2645825,0.2645814 -0.1461947,0 -0.2645826,-0.1185095 -0.2645826,-0.2645814 z"
         style="color:#e5e9ef;fill:#d3dae3;fill-opacity:1;stroke-width:0.00314986"
         id="path1" />
      <path
         d="m 3.4395833,4.233335 c 0,-0.1461974 0.1183878,-0.2645852 0.2645825,-0.2645852 0.1460735,0 0.2645825,0.1183878 0.2645825,0.2645852 0,0.1460719 -0.118509,0.2645814 -0.2645825,0.2645814 -0.1461947,0 -0.2645825,-0.1185095 -0.2645825,-0.2645814 z"
         id="path72-3-6-6"
         style="color:#e5e9ef;fill:#d3dae3;fill-opacity:1;stroke-width:0.00314986"
         class="ColorScheme-Text" />
      <path
         d="m 4.4979166,4.233335 c 0,-0.1461974 0.1183878,-0.2645852 0.2645825,-0.2645852 0.1460736,0 0.2645826,0.1183878 0.2645826,0.2645852 0,0.1460719 -0.118509,0.2645814 -0.2645826,0.2645814 -0.1461947,0 -0.2645825,-0.1185095 -0.2645825,-0.2645814 z"
         id="path72-3-6-7"
         style="color:#e5e9ef;fill:#d3dae3;fill-opacity:1;stroke-width:0.00314986"
         class="ColorScheme-Text" />
    </g>
    <g
       id="22-22-activities">
      <rect
         style="opacity:0.003;fill:#000000;stroke-width:0.363802"
         id="rect1430-3-7-5"
         width="5.8208323"
         height="5.8208323"
         x="8.4666681"
         y="2.6458333" />
      <path
         d="m 13.49375,7.6729167 v -0.529166 l -3.439583,-1e-6 v 0.529167 h 0.264583 v -0.264583 h 2.910417 v 0.264583 z m -3.96875,0 V 3.4395834 H 9.2604167 v 4.2333333 z m 3.96875,-1.058333 v -2.116667 h -3.439583 v 2.116667 z M 13.229167,6.3500007 H 10.31875 v -1.5875 h 2.910417 z M 13.49375,3.9687503 V 3.4395836 H 13.229167 V 3.704167 H 10.31875 V 3.4395834 h -0.264583 v 0.5291669 z"
         id="rect1476-6"
         style="fill:#d3dae3;fill-opacity:1" />
      <path
         d="m 12.435417,5.5561933 c 0,-0.1096166 0.0888,-0.1983808 0.198437,-0.1983808 0.109545,0 0.198438,0.088766 0.198438,0.1983808 0,0.1095196 -0.08885,0.1983767 -0.198438,0.1983767 -0.10965,0 -0.198437,-0.088857 -0.198437,-0.1983767 z"
         id="path72-3-6-5"
         style="color:#e5e9ef;fill:#d3dae3;fill-opacity:1;stroke-width:0.00236209"
         class="ColorScheme-Text" />
      <path
         d="m 10.715625,5.5562519 c 0,-0.1096488 0.0888,-0.1984394 0.198439,-0.1984394 0.109547,0 0.198436,0.088789 0.198436,0.1984394 0,0.1095554 -0.0889,0.1984356 -0.198436,0.1984356 -0.10965,0 -0.198439,-0.08888 -0.198439,-0.1984356 z"
         id="path72-3-6-6-6"
         style="color:#e5e9ef;fill:#d3dae3;fill-opacity:1;stroke-width:0.00236246"
         class="ColorScheme-Text" />
      <path
         d="m 11.535833,5.5562519 c 0,-0.1096488 0.08879,-0.1984394 0.198435,-0.1984394 0.109548,0 0.19844,0.088789 0.19844,0.1984394 0,0.1095554 -0.08891,0.1984356 -0.19844,0.1984356 -0.109648,0 -0.198435,-0.08888 -0.198435,-0.1984356 z"
         id="path72-3-6-7-2"
         style="color:#e5e9ef;fill:#d3dae3;fill-opacity:1;stroke-width:0.00236246"
         class="ColorScheme-Text" />
    </g>
  </g>
</svg>
