<?xml version="1.0" encoding="UTF-8" standalone="no"?>
<svg
   width="32"
   height="32"
   version="1"
   id="svg14"
   sodipodi:docname="antimicro.svg"
   inkscape:version="1.3.2 (091e20ef0f, 2023-11-25)"
   xmlns:inkscape="http://www.inkscape.org/namespaces/inkscape"
   xmlns:sodipodi="http://sodipodi.sourceforge.net/DTD/sodipodi-0.dtd"
   xmlns="http://www.w3.org/2000/svg"
   xmlns:svg="http://www.w3.org/2000/svg">
  <style
     id="current-color-scheme"
     type="text/css">.ColorScheme-Text { color:#eceff4; }
</style>
  <g
     id="22-22-antimicro"
     transform="translate(37.999998,10)"
     style="fill:#d3dae3;fill-opacity:1">
    <rect
       style="opacity:0.00100002;fill:#d3dae3;fill-opacity:1"
       width="22"
       height="22"
       x="0"
       y="0"
       id="rect9" />
    <path
       d="m 21.831457,15.213374 c -0.130587,0.468443 -0.473623,0.739726 -0.929823,0.60564 -0.456376,-0.133926 -0.454451,-0.622351 -0.324038,-1.090971 0.146704,-0.526356 0.134654,-1.080809 -0.03387,-1.603199 L 18.608864,7.1317539 C 18.248511,6.0150999 16.971069,4.855464 15.825358,4.855464 H 5.9103268 c -1.1458894,0 -2.1573837,1.1596359 -2.5179176,2.2762899 L 1.3910888,13.124845 c -0.2235775,0.692842 -0.038048,1.573825 0.2815405,2.232714 0.319065,0.658372 1.196044,1.419279 1.8665923,1.647639 0.6685374,0.227497 1.6513262,0.03285 2.2854473,-0.29968 0.6352962,-0.333149 1.1089161,-1.17139 1.3333302,-1.866305 l 0.126824,-0.394177 c 0.358525,-1.110443 1.0996189,-1.584312 2.2389655,-1.584312 h 2.9534094 c 1.13952,0 1.880025,0.473869 2.238535,1.584312 l 0.127488,0.394177 c 0.361036,1.116256 1.661297,2.305575 2.783181,2.30541 0.215349,0 0.431191,-0.02773 0.641344,-0.08192 0.46041,-0.118254 0.927017,-0.103656 1.042307,0.368866 0.115306,0.472771 -0.164477,0.815746 -0.624871,0.934158 C 18.338574,18.454777 17.982404,18.5 17.626569,18.5 c -0.911077,0 -1.788913,-0.293688 -2.538677,-0.849518 -0.758499,-0.562371 -1.315404,-1.342432 -1.610328,-2.256048 l -0.127217,-0.394153 c -0.12505,-0.387252 -0.475836,-0.64733 -0.87297,-0.64733 H 9.5239609 c -0.3972896,0 -0.7480894,0.260078 -0.8731374,0.647185 L 8.5235966,15.394461 C 8.1561797,16.532478 7.3810673,17.459544 6.3407489,18.005034 5.2939005,18.55397 4.1070525,18.648415 2.9984275,18.270961 1.8901404,17.893692 0.99065404,17.08985 0.46596293,16.007503 -0.05720662,14.92843 -0.14297823,13.707502 0.22460015,12.569482 L 2.1593655,6.57637 C 2.7533773,4.7362566 4.420934,3.5 6.3088671,3.5 h 9.3834419 c 1.887943,0 3.555655,1.2362566 4.149661,3.076436 l 1.934786,5.993103 c 0.277767,0.860709 0.296743,1.774846 0.05461,2.643835 z M 15.082186,6.676573 c -0.474501,0 -0.859203,0.3950309 -0.859203,0.8824278 0,0.4872232 0.384702,0.8822517 0.859203,0.8822517 0.474679,0 0.859372,-0.3950285 0.859372,-0.8822517 0,-0.4873969 -0.384693,-0.8824278 -0.859372,-0.8824278 z m 0,5.294222 c 0.474679,0 0.859372,-0.395013 0.859372,-0.882428 0,-0.48723 -0.384693,-0.882256 -0.859371,-0.882256 -0.474501,0 -0.859202,0.395026 -0.859202,0.882256 0,0.487229 0.384701,0.882428 0.859201,0.882428 z M 13.363621,8.4412525 c -0.47451,0 -0.859215,0.3950354 -0.859215,0.8824308 0,0.4874116 0.384705,0.8824277 0.859215,0.8824277 0.474663,0 0.859362,-0.3950161 0.859362,-0.8824277 0,-0.4873954 -0.384699,-0.8824308 -0.859362,-0.8824308 z m 3.437311,1.7648585 c 0.474508,0 0.859208,-0.3950161 0.859208,-0.8824277 0,-0.4873954 -0.3847,-0.8824308 -0.859208,-0.8824308 -0.474661,0 -0.859375,0.3950354 -0.859375,0.8824308 0,0.4872175 0.384714,0.8824277 0.859375,0.8824277 z m -9.8821185,1.764684 c 0.4746715,0 0.8593817,-0.395013 0.8593817,-0.882428 v -0.882256 h 0.8592022 c 0.47467,0 0.8593695,-0.3950161 0.8593695,-0.8824277 0,-0.4873954 -0.3846995,-0.8824308 -0.8593695,-0.8824308 H 7.7781952 V 7.5590008 c 0,-0.4873969 -0.3847093,-0.8824278 -0.8593817,-0.8824278 -0.4744924,0 -0.8592009,0.3950309 -0.8592009,0.8824278 V 8.4412525 H 5.2002404 c -0.4745036,0 -0.8593706,0.3950354 -0.8593706,0.8824308 0,0.4874116 0.384867,0.8824277 0.8593706,0.8824277 h 0.8593722 v 0.882256 c 0,0.487229 0.3847085,0.882428 0.8592009,0.882428 z"
       id="path2-36-7"
       style="stroke-width:0.0435423;fill-opacity:1;fill:#d3dae3"
       sodipodi:nodetypes="cccccsscccccccsscsccccscccssccsccccssccccsssssssssssssssssssssscssscssscssscss"
       class="ColorScheme-Text" />
    <ellipse
       cx="20.852835"
       cy="17.189526"
       id="circle4-5-5"
       style="stroke-width:0.0453126;fill-opacity:1;fill:#d3dae3"
       rx="0.67075753"
       ry="0.68875307"
       class="ColorScheme-Text" />
  </g>
  <sodipodi:namedview
     id="namedview16"
     pagecolor="#201933"
     bordercolor="#000000"
     borderopacity="1"
     inkscape:showpageshadow="true"
     inkscape:pageopacity="0"
     inkscape:pagecheckerboard="true"
     inkscape:deskcolor="#201933"
     showgrid="true"
     inkscape:zoom="10.429825"
     inkscape:cx="21.956265"
     inkscape:cy="18.456686"
     inkscape:window-width="1920"
     inkscape:window-height="994"
     inkscape:window-x="0"
     inkscape:window-y="0"
     inkscape:window-maximized="1"
     inkscape:current-layer="svg14">
    <inkscape:grid
       type="xygrid"
       id="grid1266"
       originx="1.0058058e-06"
       originy="0"
       spacingy="1"
       spacingx="1"
       units="px"
       visible="true" />
  </sodipodi:namedview>
  <defs
     id="defs5">
    <style
       type="text/css"
       id="style646" />
  </defs>
  <g
     id="antimicro"
     style="fill:#d3dae3;fill-opacity:1">
    <rect
       style="opacity:0.00100002;fill:#d3dae3;fill-opacity:1"
       width="32"
       height="32"
       x="0"
       y="0"
       id="rect4" />
    <path
       d="m 31.754841,22.179525 c -0.189935,0.687049 -0.688899,1.084931 -1.352467,0.888272 -0.663822,-0.196424 -0.661023,-0.91278 -0.471329,-1.600085 0.213387,-0.771983 0.195851,-1.585175 -0.0493,-2.351336 L 27.067363,10.32653 C 26.543201,8.688789 24.685106,6.988 23.018608,6.988 H 8.5968462 c -1.6667473,0 -3.1380114,1.700789 -3.6624246,3.33853 l -2.9110102,8.789846 c -0.3252033,1.016165 -0.055342,2.308247 0.4095113,3.274624 0.4640955,0.965598 1.7397014,2.081587 2.7150438,2.416525 0.9724182,0.33366 2.4019285,0.04807 3.3242866,-0.439525 0.9240677,-0.48862 1.6129689,-1.71805 1.9393889,-2.737244 l 0.184469,-0.578118 C 11.117603,19.423993 12.195556,18.729 13.852785,18.729 h 4.29588 c 1.65748,0 2.734574,0.694993 3.256041,2.323638 l 0.185441,0.578118 c 0.525144,1.637164 2.416432,3.381489 4.048262,3.381244 0.313233,0 0.627191,-0.04068 0.932846,-0.12 0.669687,-0.17341 1.348401,-0.15211 1.516113,0.541 0.167733,0.693383 -0.239254,1.19642 -0.908927,1.370085 C 26.6743,26.933772 26.156232,27 25.638654,27 24.313449,27 23.036604,26.569269 21.946031,25.754051 20.842754,24.92925 20.032713,23.785177 19.60374,22.445206 L 19.418688,21.867089 C 19.236799,21.299102 18.726562,20.917664 18.148916,20.917664 H 13.85303 c -0.577873,0 -1.088128,0.381438 -1.270016,0.949186 l -0.185058,0.578356 c -0.534424,1.669087 -1.66186,3.028766 -3.1750501,3.828819 C 7.7002185,27.079112 5.9738945,27.217647 4.3613478,26.664058 2.7492953,26.110725 1.4409496,24.931772 0.6777632,23.344335 -0.08321075,21.76169 -0.20796784,19.971012 0.32669203,18.301925 L 3.140895,9.51209 C 4.0049118,6.813168 6.4304478,5 9.1765316,5 H 22.825179 c 2.746093,0 5.171855,1.813168 6.035872,4.51209 l 2.814211,8.789835 c 0.404043,1.262373 0.431627,2.603091 0.07952,3.8776 z M 21.93773,9.658946 c -0.690192,0 -1.249752,0.579364 -1.249752,1.294218 0,0.714606 0.55956,1.293966 1.249752,1.293966 0.690431,0 1.24999,-0.57936 1.24999,-1.293966 0,-0.714854 -0.559559,-1.294218 -1.24999,-1.294218 z m 0,7.764818 c 0.690431,0 1.24999,-0.579356 1.24999,-1.294218 0,-0.714607 -0.559559,-1.293963 -1.249989,-1.293963 -0.690192,0 -1.249751,0.579356 -1.249751,1.293963 0,0.714606 0.559559,1.294218 1.24975,1.294218 z M 19.437983,12.24713 c -0.690188,0 -1.249761,0.579373 -1.249761,1.294235 0,0.714842 0.559573,1.294218 1.249761,1.294218 0.690421,0 1.249995,-0.579376 1.249995,-1.294218 0,-0.714862 -0.559573,-1.294235 -1.249995,-1.294235 z m 4.999728,2.588453 c 0.69019,0 1.249771,-0.579376 1.249771,-1.294218 0,-0.714862 -0.559581,-1.294235 -1.249771,-1.294235 -0.690409,0 -1.249992,0.579373 -1.249992,1.294235 0,0.714586 0.559583,1.294218 1.249992,1.294218 z m -14.373984,2.588181 c 0.690431,0 1.25001,-0.579356 1.25001,-1.294218 v -1.293963 h 1.249749 c 0.690428,0 1.249995,-0.579376 1.249995,-1.294218 0,-0.714862 -0.559567,-1.294235 -1.249995,-1.294235 h -1.249749 v -1.293966 c 0,-0.714854 -0.559578,-1.294218 -1.25001,-1.294218 -0.690171,0 -1.2497472,0.579364 -1.2497472,1.294218 V 12.24713 H 7.563985 c -0.6901868,0 -1.2499931,0.579373 -1.2499931,1.294235 0,0.714842 0.5598063,1.294218 1.2499931,1.294218 h 1.2499948 v 1.293963 c 0,0.714606 0.5595762,1.294218 1.2497472,1.294218 z"
       id="path2-36"
       style="stroke-width:0.0635967;fill-opacity:1;fill:#d3dae3"
       sodipodi:nodetypes="cccccsscccccccsscsccccscccssccsccccssccccsssssssssssssssssssssscssscssscssscss"
       class="ColorScheme-Text" />
    <ellipse
       cx="30.331392"
       cy="25.077869"
       id="circle4-5"
       style="stroke-width:0.066184;fill-opacity:1;fill:#d3dae3"
       rx="0.97564775"
       ry="1.0101659"
       class="ColorScheme-Text" />
  </g>
</svg>
