<?xml version="1.0" encoding="UTF-8" standalone="no"?>
<svg
   width="32"
   height="32"
   version="1.1"
   id="svg12"
   sodipodi:docname="applications.svg"
   inkscape:version="1.3 (0e150ed6c4, 2023-07-21)"
   xmlns:inkscape="http://www.inkscape.org/namespaces/inkscape"
   xmlns:sodipodi="http://sodipodi.sourceforge.net/DTD/sodipodi-0.dtd"
   xmlns:xlink="http://www.w3.org/1999/xlink"
   xmlns="http://www.w3.org/2000/svg"
   xmlns:svg="http://www.w3.org/2000/svg"
   xmlns:rdf="http://www.w3.org/1999/02/22-rdf-syntax-ns#"
   xmlns:cc="http://creativecommons.org/ns#"
   xmlns:dc="http://purl.org/dc/elements/1.1/">
  <metadata
     id="metadata18">
    <rdf:RDF>
      <cc:Work
         rdf:about="">
        <dc:format>image/svg+xml</dc:format>
        <dc:type
           rdf:resource="http://purl.org/dc/dcmitype/StillImage" />
      </cc:Work>
    </rdf:RDF>
  </metadata>
  <defs
     id="defs16">
    <linearGradient
       id="linearGradient4"
       inkscape:collect="always">
      <stop
         style="stop-color:#00ccff;stop-opacity:1;"
         offset="0"
         id="stop3" />
      <stop
         style="stop-color:#bc5fd3;stop-opacity:1;"
         offset="1"
         id="stop4" />
    </linearGradient>
    <linearGradient
       id="linearGradient5"
       inkscape:collect="always">
      <stop
         style="stop-color:#ffd42a;stop-opacity:1"
         offset="0"
         id="stop5" />
      <stop
         style="stop-color:#ff33ff;stop-opacity:1;"
         offset="1"
         id="stop6" />
    </linearGradient>
    <linearGradient
       inkscape:collect="always"
       xlink:href="#linearGradient5"
       id="linearGradient2"
       gradientUnits="userSpaceOnUse"
       x1="3.0439084"
       y1="17.07095"
       x2="32"
       y2="16" />
    <linearGradient
       inkscape:collect="always"
       xlink:href="#linearGradient5"
       id="linearGradient6"
       gradientUnits="userSpaceOnUse"
       x1="0"
       y1="11"
       x2="22"
       y2="11"
       gradientTransform="translate(32,9.9999997)" />
    <linearGradient
       inkscape:collect="always"
       xlink:href="#linearGradient4"
       id="linearGradient14"
       gradientUnits="userSpaceOnUse"
       x1="1.0132771"
       y1="11.47594"
       x2="12.837758"
       y2="11.421055"
       gradientTransform="rotate(180,27.014752,16.000002)" />
    <linearGradient
       inkscape:collect="always"
       xlink:href="#linearGradient4"
       id="linearGradient15"
       x1="8.999999"
       y1="14.5"
       x2="23"
       y2="14.5"
       gradientUnits="userSpaceOnUse"
       gradientTransform="matrix(0.92857117,0,0,0.92857119,1.145273,1.535717)" />
    <linearGradient
       inkscape:collect="always"
       xlink:href="#linearGradient4"
       id="linearGradient16"
       gradientUnits="userSpaceOnUse"
       x1="8.999999"
       y1="14.5"
       x2="23"
       y2="14.5"
       gradientTransform="matrix(0.78533976,0,0,0.78571381,30.434652,8.607148)" />
    <linearGradient
       inkscape:collect="always"
       xlink:href="#linearGradient4"
       id="linearGradient7"
       gradientUnits="userSpaceOnUse"
       gradientTransform="matrix(0.99856723,0,0,1.0000508,0.0042807,-0.00147041)"
       x1="3.0439084"
       y1="17.07095"
       x2="28.994448"
       y2="17.04047" />
  </defs>
  <sodipodi:namedview
     pagecolor="#201933"
     bordercolor="#000000"
     borderopacity="1"
     objecttolerance="10"
     gridtolerance="10"
     guidetolerance="10"
     inkscape:pageopacity="0"
     inkscape:pageshadow="2"
     inkscape:window-width="1920"
     inkscape:window-height="994"
     id="namedview14"
     showgrid="true"
     inkscape:zoom="8.0406611"
     inkscape:cx="21.14254"
     inkscape:cy="20.707253"
     inkscape:window-x="0"
     inkscape:window-y="0"
     inkscape:window-maximized="1"
     inkscape:current-layer="svg12"
     inkscape:document-rotation="0"
     showguides="true"
     inkscape:lockguides="false"
     inkscape:showpageshadow="2"
     inkscape:pagecheckerboard="true"
     inkscape:deskcolor="#201933">
    <inkscape:grid
       type="xygrid"
       id="grid942"
       originx="0"
       originy="-3e-07"
       spacingy="1"
       spacingx="1"
       units="px"
       visible="true" />
  </sodipodi:namedview>
  <g
     id="22-22-applications-other">
    <path
       style="clip-rule:evenodd;fill:url(#linearGradient6);fill-opacity:0;fill-rule:evenodd;stroke-width:0.688964;stroke-linejoin:round;stroke-miterlimit:1.41421"
       d="M 32,9.9999997 V 32 H 54 V 9.9999997 Z"
       id="rect817-5"
       inkscape:connector-curvature="0" />
    <path
       d="m 43.017383,11.000074 c 0,0 0.229402,0.0101 0.65924,0.02873 0.107331,0.0078 0.22811,0.0038 0.358974,0.02198 0.130865,0.0191 0.27389,0.03979 0.428545,0.06234 0.154146,0.02503 0.321993,0.04109 0.497082,0.07838 0.174316,0.04188 0.359496,0.08639 0.555014,0.133451 0.775105,0.204316 1.713407,0.529408 2.677055,1.126063 0.961573,0.590706 1.969961,1.419864 2.826794,2.555235 0.845194,1.135635 1.538831,2.572568 1.85125,4.22468 0.04604,0.20509 0.05615,0.416126 0.0856,0.627425 l 0.03721,0.319403 0.01838,0.16087 0.0037,0.185433 c 0.0028,0.411479 0.03831,0.795024 -0.0199,1.27581 -0.02325,0.228366 -0.03208,0.470181 -0.07162,0.694673 -0.04219,0.223969 -0.08456,0.448975 -0.126984,0.675275 -0.03417,0.22992 -0.112248,0.448201 -0.175094,0.673724 l -0.10109,0.33751 c -0.03104,0.114055 -0.07108,0.225006 -0.118707,0.333112 -0.32406,0.892781 -0.815194,1.737199 -1.397623,2.534805 -0.155175,0.191643 -0.313457,0.382768 -0.474839,0.57286 -0.154921,0.196556 -0.347595,0.357422 -0.521913,0.538202 l -0.269747,0.264318 c -0.09156,0.08664 -0.193195,0.161641 -0.28992,0.243109 -0.197077,0.158538 -0.392596,0.321732 -0.600015,0.469149 -0.832534,0.590441 -1.767477,1.048729 -2.753105,1.378219 -0.991309,0.322756 -2.036678,0.453621 -3.078173,0.485173 l -0.237457,-0.01035 -0.171728,-0.0098 -0.343716,-0.01966 -0.171729,-0.0098 c -0.05534,-0.0023 -0.113797,-0.0059 -0.18647,-0.01836 l -0.410714,-0.06078 -0.409923,-0.0644 -0.204316,-0.03363 -0.189838,-0.04837 c -0.252772,-0.06418 -0.502864,-0.136854 -0.752955,-0.206425 -0.985366,-0.331043 -1.922373,-0.785709 -2.754899,-1.377189 -0.207934,-0.146642 -0.402167,-0.312164 -0.601308,-0.467858 -0.09673,-0.08147 -0.198624,-0.156728 -0.290177,-0.243367 l -0.270045,-0.264579 c -0.174579,-0.18104 -0.367259,-0.341905 -0.522174,-0.53872 -0.159055,-0.191385 -0.317853,-0.382252 -0.476133,-0.572342 -0.581907,-0.798899 -1.07511,-1.6428 -1.398911,-2.536616 -0.320442,-0.890712 -0.539242,-1.798235 -0.591227,-2.695157 -0.0564,-0.444837 -0.02583,-0.888896 -0.02279,-1.321327 l 0.0053,-0.19371 0.01837,-0.150258 0.03675,-0.299236 c 0.02919,-0.202758 0.03749,-0.387937 0.08351,-0.601306 0.04573,-0.210783 0.09129,-0.42027 0.136296,-0.628207 0.02457,-0.102417 0.04188,-0.207679 0.07269,-0.305436 l 0.09543,-0.290183 c 0.06361,-0.191384 0.126469,-0.381213 0.189058,-0.569492 0.07604,-0.183373 0.159055,-0.361824 0.237161,-0.5395 0.141209,-0.361562 0.343973,-0.686913 0.522687,-1.012009 0.08433,-0.165521 0.195781,-0.313457 0.298713,-0.4632 0.102674,-0.149483 0.204058,-0.297419 0.304663,-0.443804 0.857606,-1.135374 1.86677,-1.964273 2.828864,-2.554463 0.963904,-0.596652 1.90246,-0.920969 2.677567,-1.125543 0.195525,-0.04683 0.3807,-0.09129 0.555014,-0.133193 0.175092,-0.03721 0.342681,-0.05325 0.496823,-0.07839 0.154402,-0.02252 0.297423,-0.04316 0.428291,-0.06235 0.13112,-0.01839 0.252158,-0.01449 0.35923,-0.02198 0.430355,-0.01891 0.659757,-0.02899 0.659757,-0.02899 z m 0,0 c 0,0 -0.229144,0.01315 -0.658725,0.03771 -0.107071,0.0094 -0.227852,0.0069 -0.358458,0.02692 -0.130605,0.02097 -0.272849,0.04345 -0.426733,0.06802 -0.153364,0.02715 -0.32044,0.04523 -0.494237,0.08484 -0.172245,0.04731 -0.355093,0.0975 -0.548545,0.150522 -0.762434,0.233024 -1.683146,0.590186 -2.581622,1.246582 -0.901311,0.639323 -1.800299,1.539089 -2.479458,2.696188 -0.324578,0.585792 -0.624066,1.214515 -0.817259,1.900653 -0.04757,0.171467 -0.09957,0.342417 -0.144317,0.516215 -0.03154,0.177165 -0.06306,0.355614 -0.09516,0.535361 l -0.04838,0.268713 c -0.01498,0.08971 -0.01498,0.178456 -0.02325,0.267425 -0.01343,0.176639 -0.02712,0.354574 -0.04086,0.533806 -0.01552,0.176381 0.0033,0.390784 0.0031,0.586562 l 0.0062,0.30156 0.0034,0.151556 c -5.18e-4,0.03566 7.76e-4,-0.02712 0.0022,-0.01427 l 0.0028,0.01757 0.0049,0.03513 0.0096,0.07036 c 0.05406,0.375009 0.07782,0.754157 0.183107,1.124516 0.146123,0.750533 0.455184,1.470034 0.801485,2.161086 0.09622,0.168108 0.192937,0.336992 0.289923,0.506651 0.09802,0.167849 0.224229,0.32018 0.331301,0.482857 l 0.166556,0.240782 0.190351,0.224488 c 0.129831,0.147159 0.248282,0.30337 0.385353,0.444063 0.53872,0.574153 1.168217,1.056751 1.829789,1.483486 l 0.517514,0.287335 c 0.167847,0.104485 0.360524,0.161124 0.536649,0.248799 l 0.268972,0.123107 c 0.0908,0.03828 0.18673,0.06414 0.279578,0.09724 0.188021,0.06 0.371646,0.13371 0.561996,0.185177 0.192679,0.04449 0.385614,0.08586 0.57674,0.13552 l 0.143277,0.03621 0.135265,0.0181 0.270006,0.03931 0.269489,0.04319 c 0.0401,0.0096 0.09621,0.01242 0.155695,0.01423 l 0.171985,0.0075 0.343975,0.015 0.171986,0.0075 0.08584,0.0039 0.04295,0.0026 0.02148,0.0013 c -0.02198,-2.58e-4 0.07962,0.0026 -0.04396,-5.17e-4 0.793983,-0.01164 1.580987,-0.118193 2.34549,-0.320439 0.19061,-0.05147 0.374233,-0.125434 0.562255,-0.185436 0.09287,-0.0331 0.188798,-0.05923 0.279574,-0.0975 l 0.269234,-0.12259 c 0.177677,-0.08483 0.369578,-0.143797 0.537684,-0.247764 l 0.517684,-0.287564 c 0.664673,-0.42389 1.291326,-0.910626 1.832891,-1.48271 0.137073,-0.140952 0.255525,-0.297163 0.385357,-0.44458 l 0.190348,-0.224746 0.166556,-0.241042 c 0.107846,-0.162417 0.234315,-0.314749 0.332337,-0.483115 0.09699,-0.16966 0.19371,-0.338801 0.289919,-0.507168 0.107332,-0.164746 0.164229,-0.350699 0.251384,-0.524238 0.07757,-0.177157 0.172249,-0.349406 0.225006,-0.534581 0.06289,-0.183108 0.125179,-0.36544 0.187249,-0.547 0.06052,-0.181817 0.08793,-0.357166 0.135263,-0.536396 0.103708,-0.334405 0.132934,-0.774065 0.186211,-1.170029 l 0.0096,-0.07551 0.0048,-0.03771 0.0028,-0.01892 c 0.0016,-0.01346 -0.0012,0.04964 0,0.01448 l 0.0034,-0.140952 0.0072,-0.281385 c 0,-0.186988 0.02021,-0.375787 0.0049,-0.560189 -0.06237,-1.485552 -0.498374,-2.892742 -1.174944,-4.049325 -0.679687,-1.157165 -1.579711,-2.056669 -2.481547,-2.69522 C 47.191804,11.95716 46.270577,11.60051 45.5084,11.36749 45.314947,11.31449 45.132096,11.264297 44.959852,11.21723 44.785795,11.17769 44.618983,11.15957 44.465615,11.13268 44.311731,11.10812 44.169229,11.08536 44.03888,11.06466 43.908274,11.04445 43.787237,11.04685 43.680167,11.03771 43.250325,11.01313 43.021185,11 43.021185,11 Z"
       id="path2-3-5-3"
       style="fill:url(#linearGradient14);fill-opacity:1;stroke-width:0.258632" />
    <path
       d="m 39.96207,14.500002 a 2.4593528,2.4605257 0 0 1 2.459351,2.460531 v 2.46052 H 39.96207 a 2.4593545,2.460527 0 1 1 0,-4.921051 z m 1.302004,3.763155 v -1.302624 a 1.3020099,1.302631 0 1 0 -1.302004,1.302624 z m -1.302004,2.315792 h 2.459351 v 2.46052 a 2.4593528,2.4605257 0 1 1 -2.459351,-2.46052 z m 0,1.157887 a 1.3020099,1.302631 0 1 0 1.302004,1.302631 v -1.30262 z m 6.076044,-7.236834 a 2.4593545,2.460527 0 1 1 0,4.921051 H 43.57876 v -2.460519 a 2.4593528,2.4605257 0 0 1 2.459354,-2.460532 z m 0,3.763155 A 1.3020099,1.302631 0 1 0 44.73611,16.960533 v 1.302625 z m -2.459354,2.315792 h 2.459354 a 2.4593528,2.4605257 0 1 1 -2.459354,2.46052 z m 1.157339,1.157887 v 1.302631 a 1.3020099,1.302631 0 1 0 1.302009,-1.302631 z"
       id="path2-7"
       style="fill:url(#linearGradient16);fill-opacity:1;stroke-width:0.578814" />
  </g>
  <g
     id="applications-other">
    <path
       style="clip-rule:evenodd;fill:url(#linearGradient2);fill-opacity:0;fill-rule:evenodd;stroke-width:1.00213;stroke-linejoin:round;stroke-miterlimit:1.41421"
       d="M 0,0 V 32 H 32 V 0 Z"
       id="rect817"
       inkscape:connector-curvature="0" />
    <path
       d="m 12.410306,8.500001 a 2.9078929,2.9078944 0 0 1 2.907895,2.907894 v 2.907896 h -2.907895 a 2.9078946,2.907896 0 1 1 0,-5.81579 z m 1.539473,4.447368 v -1.539472 a 1.5394728,1.5394735 0 1 0 -1.539473,1.539472 z m -1.539473,2.736842 h 2.907895 v 2.907895 a 2.9078929,2.9078944 0 1 1 -2.907895,-2.907895 z m 0,1.368411 a 1.5394728,1.5394735 0 1 0 1.539473,1.539471 v -1.539461 z m 7.184209,-8.552621 a 2.9078946,2.907896 0 1 1 0,5.81579 h -2.907896 v -2.907896 a 2.9078929,2.9078944 0 0 1 2.907896,-2.907894 z m 0,4.447368 a 1.5394728,1.5394735 0 1 0 -1.53947,-1.539472 v 1.539472 z m -2.907896,2.736842 h 2.907896 a 2.9078929,2.9078944 0 1 1 -2.907896,2.907895 z m 1.368412,1.368411 v 1.539471 a 1.5394728,1.5394735 0 1 0 1.539472,-1.539471 z"
       id="path2"
       style="fill:url(#linearGradient15);fill-opacity:1;stroke-width:0.684212" />
    <path
       d="m 16.003458,3 c 0,0 0.297793,0.013131 0.855772,0.037402 0.139333,0.010841 0.296115,0.0054 0.465993,0.028581 0.169878,0.024801 0.355535,0.051723 0.556303,0.081084 0.200096,0.032511 0.417974,0.053403 0.645271,0.1019421 0.226276,0.054443 0.466664,0.1123087 0.720473,0.1734908 1.006177,0.2656055 2.224201,0.688226 3.475128,1.4638773 1.248241,0.7679141 2.55725,1.8458177 3.669522,3.3217967 1.097156,1.4763161 1.997577,3.3443321 2.403135,5.4920731 0.05975,0.26661 0.07284,0.540958 0.111154,0.81565 l 0.04834,0.415223 0.02381,0.20913 0.0047,0.241059 c 0.0028,0.534919 0.04969,1.03353 -0.02586,1.658554 -0.03021,0.296877 -0.04162,0.611236 -0.09301,0.90307 -0.05471,0.291159 -0.109739,0.583668 -0.164839,0.877852 -0.04431,0.298901 -0.145706,0.582662 -0.227286,0.875846 l -0.131216,0.438752 c -0.04032,0.14827 -0.09225,0.292509 -0.154084,0.433053 -0.420675,1.160603 -1.058227,2.258346 -1.814288,3.295235 -0.201434,0.249132 -0.406901,0.4976 -0.616395,0.744714 -0.201105,0.255525 -0.451224,0.464646 -0.677502,0.699663 l -0.350165,0.343606 c -0.118894,0.112637 -0.250791,0.210142 -0.376356,0.316045 -0.255827,0.206108 -0.509631,0.418267 -0.778884,0.609905 -1.080733,0.767562 -2.294396,1.363347 -3.573856,1.791671 C 18.712475,28.788861 17.355474,28.958979 16.003484,29 L 15.695238,28.98657 15.472321,28.97431 15.026126,28.94869 14.80321,28.93644 c -0.07185,-0.0023 -0.147721,-0.0078 -0.242066,-0.02383 L 14.027994,28.8336 13.495859,28.7499 13.230638,28.70615 12.984209,28.6433 C 12.656417,28.55988 12.331773,28.465375 12.00712,28.374924 10.728051,27.944569 9.5117,27.353505 8.4309817,26.584576 8.1610787,26.393942 7.9089407,26.178769 7.6504317,25.976363 7.5248627,25.870471 7.3925947,25.772619 7.2737477,25.659978 l -0.35055,-0.343943 c -0.226624,-0.235362 -0.476745,-0.444483 -0.677843,-0.700341 -0.206473,-0.248803 -0.412611,-0.496924 -0.618079,-0.744037 -0.755383,-1.038576 -1.395619,-2.135639 -1.815952,-3.297601 -0.415971,-1.157918 -0.699999,-2.337702 -0.767482,-3.503695 -0.07321,-0.578286 -0.03352,-1.155558 -0.02959,-1.717716 l 0.0069,-0.251835 0.02385,-0.19533 0.04771,-0.389005 c 0.03784,-0.263589 0.04859,-0.504321 0.108343,-0.781693 0.05937,-0.274018 0.118503,-0.546356 0.176928,-0.816668 0.0319,-0.133141 0.05435,-0.269989 0.09435,-0.397063 l 0.123849,-0.37726 c 0.0826,-0.249064 0.1642,-0.495843 0.245448,-0.740612 0.09869,-0.238392 0.206449,-0.470379 0.307841,-0.701351 0.183282,-0.470035 0.446493,-0.892981 0.678486,-1.315613 0.109478,-0.2151713 0.254155,-0.407492 0.387775,-0.6021549 0.133282,-0.1943279 0.264891,-0.3866457 0.395487,-0.5769453 1.113275,-1.475983 2.423288,-2.5535506 3.6722018,-3.3207936 1.2512635,-0.7756464 2.4696155,-1.1972577 3.4758045,-1.4632033 0.253808,-0.060933 0.494185,-0.118677 0.720476,-0.1731498 0.227279,-0.048302 0.444831,-0.069154 0.644935,-0.1019512 0.200432,-0.029331 0.386094,-0.056062 0.555963,-0.081114 0.17022,-0.023951 0.327343,-0.018881 0.466323,-0.028581 0.558661,-0.024631 0.85645,-0.037701 0.85645,-0.037701 z m 0,0.099685 c 0,0 -0.297452,0.017101 -0.855099,0.049002 -0.138996,0.012201 -0.295776,0.0094 -0.465321,0.035002 -0.169539,0.027321 -0.354197,0.057023 -0.553951,0.089004 -0.19909,0.035262 -0.415968,0.058443 -0.64158,0.1100055 -0.22359,0.061463 -0.460948,0.1270815 -0.712082,0.19601 -0.989729,0.3029264 -2.184922,0.6668638 -3.351246,1.5201731 -1.1700093,0.8311202 -2.3370023,2.0008136 -3.2186313,3.505039 -0.421341,0.7615264 -0.810112,1.5788704 -1.0609,2.4708424 -0.06176,0.222913 -0.129253,0.44514 -0.187339,0.671075 -0.04093,0.230319 -0.08186,0.462298 -0.123533,0.695974 l -0.06281,0.349329 c -0.01945,0.116629 -0.01945,0.232001 -0.03018,0.347651 -0.01742,0.22964 -0.0352,0.460947 -0.05303,0.693948 -0.02015,0.229295 0.0043,0.50802 0.0041,0.762533 l 0.008,0.392033 0.0044,0.197024 c -6.72e-4,0.04639 9.98e-4,-0.03533 0.0028,-0.01852 l 0.0036,0.02289 0.0063,0.04573 0.01248,0.09143 c 0.07018,0.487544 0.101026,0.980429 0.237704,1.461898 0.189691,0.975692 0.59089,1.911044 1.040431,2.809409 0.124902,0.218535 0.250454,0.438092 0.376354,0.658644 0.127236,0.2182 0.291071,0.416236 0.430063,0.627709 l 0.216236,0.313033 0.247099,0.291835 c 0.168582,0.19131 0.322344,0.394383 0.500278,0.57729 0.699324,0.746391 1.5164885,1.373767 2.3752863,1.928526 l 0.671798,0.373525 c 0.217885,0.135839 0.468006,0.209468 0.696636,0.323441 l 0.34916,0.160045 c 0.117848,0.04974 0.242396,0.08336 0.362924,0.126407 0.244075,0.078 0.48244,0.173818 0.729536,0.240733 0.250122,0.05778 0.500573,0.111619 0.748676,0.176165 l 0.185985,0.04703 0.175599,0.02351 0.350499,0.05115 0.349826,0.05622 c 0.05203,0.01208 0.124882,0.01606 0.202108,0.01844 l 0.22326,0.0091 0.446519,0.0195 0.223261,0.0091 0.111454,0.0044 0.05572,0.0028 0.02786,0.0013 c -0.02854,-3.35e-4 0.103394,0.0027 -0.05708,-6.7e-4 1.03069,-0.01521 2.052315,-0.153652 3.044728,-0.416571 0.247434,-0.06695 0.485798,-0.163064 0.729873,-0.241064 0.120525,-0.04307 0.245082,-0.07705 0.362922,-0.126753 l 0.349465,-0.159565 c 0.23065,-0.110273 0.479758,-0.186937 0.697984,-0.322093 l 0.672017,-0.373683 c 0.862821,-0.551056 1.676289,-1.18381 2.379312,-1.927518 0.177927,-0.183237 0.331688,-0.386311 0.500226,-0.577953 l 0.247097,-0.292167 0.216216,-0.313354 c 0.139992,-0.211143 0.304161,-0.409177 0.431411,-0.628051 0.125877,-0.220558 0.251459,-0.440441 0.376351,-0.659315 0.13933,-0.21417 0.213185,-0.455909 0.326327,-0.681509 0.100721,-0.230301 0.223595,-0.454226 0.292084,-0.694952 0.08158,-0.238041 0.1625,-0.47507 0.243067,-0.711101 0.07859,-0.236362 0.114159,-0.464315 0.175583,-0.697315 0.134633,-0.434726 0.172571,-1.006281 0.241725,-1.521032 l 0.01203,-0.09822 0.0058,-0.04906 0.0028,-0.02462 c 0.0016,-0.01755 -0.0012,0.06456 0,0.01877 l 0.0038,-0.183238 0.0091,-0.365799 c 0,-0.243081 0.02617,-0.488521 0.0059,-0.728244 C 27.253195,11.93224 26.687198,10.10289 25.80893,8.5993362 24.926821,7.0952299 23.758482,5.9258775 22.587789,5.0957634 21.421138,4.2427901 20.225273,3.8796366 19.235877,3.5767093 18.984754,3.5077953 18.747393,3.4418864 18.52379,3.3806993 18.297848,3.3293373 18.081306,3.3056863 17.882216,3.2706938 17.682452,3.2387228 17.497465,3.2096308 17.328264,3.1826888 17.158722,3.1564278 17.001603,3.1595478 16.862608,3.1476868 16.305051,3.1158248 16.096309,3.0986838 16.096309,3.0986838 Z"
       id="path2-3-5-3-3-9"
       style="fill:url(#linearGradient7);fill-opacity:1;stroke-width:0.335972"
       sodipodi:nodetypes="cccccccccccccccccccccccccccccccccccccccccccccccccccccccccccccccccccccccccccccccccccccccccccccccccccccccccccccccccccccccccccccccccccccccccccccccccc" />
  </g>
</svg>
