<?xml version="1.0" encoding="UTF-8" standalone="no"?>
<svg
   width="32"
   height="32"
   version="1.1"
   id="svg12"
   sodipodi:docname="bookmarks.svg"
   inkscape:version="1.3 (0e150ed6c4, 2023-07-21)"
   xmlns:inkscape="http://www.inkscape.org/namespaces/inkscape"
   xmlns:sodipodi="http://sodipodi.sourceforge.net/DTD/sodipodi-0.dtd"
   xmlns:xlink="http://www.w3.org/1999/xlink"
   xmlns="http://www.w3.org/2000/svg"
   xmlns:svg="http://www.w3.org/2000/svg"
   xmlns:rdf="http://www.w3.org/1999/02/22-rdf-syntax-ns#"
   xmlns:cc="http://creativecommons.org/ns#"
   xmlns:dc="http://purl.org/dc/elements/1.1/">
  <g
     id="22-22-bookmarks"
     transform="translate(32,10)"
     style="fill:url(#linearGradient4)">
    <rect
       y="0"
       x="0"
       height="22"
       width="22"
       id="rect820-6"
       style="clip-rule:evenodd;fill:url(#linearGradient4);fill-opacity:0;fill-rule:evenodd;stroke-width:0.6875;stroke-linejoin:round;stroke-miterlimit:1.41421" />
    <path
       d="m 14.367437,8.58182 c 0.76039,0.775868 0.759632,2.024462 0,2.80113 l -3.365364,3.44184 C 9.8789883,13.678816 8.7558983,12.532877 7.6328313,11.386934 c -0.760459,-0.775851 -0.760459,-2.025266 0,-2.801127 0.76043,-0.775936 1.984835,-0.775953 2.7452717,0 l 0.620068,0.632701 0.623933,-0.636688 c 0.760454,-0.775934 1.984841,-0.775934 2.745333,0 z"
       style="color:#000000;fill:url(#linearGradient8);fill-opacity:1;stroke-width:0.131245;enable-background:accumulate"
       stroke="none"
       marker="none"
       visibility="visible"
       display="inline"
       overflow="visible"
       id="path2-3-36" />
    <path
       d="m 11.011193,19.999658 c 0,0 -0.206458,-0.0089 -0.593312,-0.02579 -0.09659,-0.0063 -0.205292,-0.0027 -0.323074,-0.01978 -0.117774,-0.01729 -0.2464927,-0.03584 -0.3856757,-0.05605 -0.138731,-0.02262 -0.289789,-0.03707 -0.447378,-0.07049 -0.156875,-0.03771 -0.323529,-0.07774 -0.499504,-0.120116 -0.697584,-0.183924 -1.54205,-0.476514 -2.409318,-1.013492 -0.865407,-0.531641 -1.772947,-1.277876 -2.544087,-2.299707 -0.760669,-1.022055 -1.384933,-2.315281 -1.666109,-3.802166 -0.04151,-0.184578 -0.05059,-0.374513 -0.07707,-0.564683 l -0.03345,-0.287459 -0.01657,-0.144775 -0.0038,-0.16689 c -0.0022,-0.370325 -0.03448,-0.715508 0.0179,-1.148213 0.02092,-0.205531 0.0289,-0.423166 0.06442,-0.625207 0.03799,-0.201569 0.07611,-0.404076 0.114283,-0.607735 0.03079,-0.206928 0.10101,-0.403376 0.157567,-0.606345 l 0.091,-0.303764 c 0.0279,-0.102644 0.06394,-0.2025 0.106827,-0.299792 0.291655,-0.803495 0.733667,-1.56346 1.257849,-2.281295 0.139656,-0.172477 0.282116,-0.344485 0.427357,-0.515575 0.139413,-0.176894 0.312829,-0.321676 0.469703,-0.484381 L 4.9615343,4.31808 c 0.0824,-0.07797 0.173872,-0.145477 0.260926,-0.218802 0.17736,-0.14268 0.353326,-0.289551 0.540007,-0.422224 C 6.5117183,3.145651 7.3531593,2.733202 8.2402123,2.436657 9.1323903,2.14618 10.073214,2.028394 11.010538,2 l 0.213682,0.0094 0.154555,0.009 0.309336,0.01767 0.154556,0.0089 c 0.04976,0.0022 0.10242,0.0057 0.167817,0.01655 l 0.369638,0.05477 0.368922,0.058 0.18388,0.03023 0.170845,0.04355 c 0.227415,0.05779 0.452493,0.123129 0.677575,0.185744 0.886818,0.29793 1.730112,0.707127 2.479382,1.239455 0.187137,0.131976 0.361937,0.28094 0.541169,0.421066 0.08705,0.07331 0.178766,0.141053 0.261163,0.219031 l 0.243002,0.238115 c 0.157107,0.162933 0.330525,0.307706 0.46994,0.484838 0.14315,0.172244 0.286067,0.344023 0.428513,0.515104 0.523716,0.719 0.967596,1.478517 1.259013,2.282936 0.288395,0.801628 0.485312,1.61839 0.532104,2.425604 0.05074,0.400355 0.02321,0.800012 0.02048,1.189185 l -0.0049,0.174342 -0.01653,0.135235 -0.03304,0.269299 c -0.0263,0.182493 -0.0337,0.349148 -0.0752,0.541178 -0.04117,0.189702 -0.08218,0.378241 -0.122667,0.565377 -0.0221,0.09217 -0.0377,0.186907 -0.06542,0.274892 l -0.08588,0.261158 c -0.05727,0.172244 -0.113821,0.343093 -0.170146,0.512541 -0.0684,0.165025 -0.143154,0.325631 -0.213441,0.485541 -0.12709,0.325406 -0.309578,0.618214 -0.470417,0.910798 -0.07585,0.148963 -0.176195,0.282106 -0.268838,0.416876 -0.09239,0.134536 -0.183646,0.267678 -0.274193,0.399421 -0.77184,1.021826 -1.680078,1.767824 -2.545947,2.298987 -0.867469,0.536975 -1.712162,0.828863 -2.409749,1.012978 -0.175967,0.04205 -0.342624,0.08215 -0.499505,0.119872 -0.157581,0.03357 -0.308413,0.048 -0.447134,0.07048 -0.138965,0.02022 -0.267677,0.03894 -0.385455,0.05604 -0.118012,0.01647 -0.226944,0.013 -0.323308,0.01978 -0.387511,0.01698 -0.593975,0.02609 -0.593975,0.02609 z m 0,0 c 0,0 0.206225,-0.01193 0.592846,-0.03402 0.09636,-0.0081 0.205061,-0.0056 0.322607,-0.02421 0.117545,-0.01878 0.245574,-0.03914 0.384054,-0.06123 0.138035,-0.02451 0.288393,-0.04078 0.44481,-0.07632 0.155027,-0.04264 0.319586,-0.08776 0.493688,-0.13547 0.686184,-0.209719 1.514818,-0.531163 2.323432,-1.121915 0.81118,-0.575378 1.620262,-1.385163 2.231483,-2.426537 0.29212,-0.527201 0.561663,-1.09305 0.73554,-1.710568 0.04286,-0.154316 0.08961,-0.308177 0.129872,-0.464594 0.02838,-0.159443 0.05681,-0.320048 0.08567,-0.481818 l 0.04354,-0.241836 c 0.01349,-0.08078 0.01349,-0.160603 0.02096,-0.240676 0.01211,-0.158979 0.02439,-0.319116 0.03673,-0.480419 0.01397,-0.158745 -0.0027,-0.351705 -0.0021,-0.527904 l -0.0055,-0.271405 -0.0027,-0.136396 c 4.71e-4,-0.03215 -6.93e-4,0.02449 -0.0018,0.01281 l -0.0021,-0.01586 -0.0043,-0.0317 -0.0083,-0.06327 C 18.780535,11.128841 18.759185,10.787608 18.664413,10.454295 18.532896,9.778817 18.254754,9.131276 17.943079,8.509338 17.856499,8.358044 17.769438,8.20605 17.682154,8.053356 17.593854,7.902297 17.480274,7.765202 17.383915,7.618792 L 17.233236,7.402127 17.061925,7.200092 C 16.945005,7.067653 16.838392,6.927069 16.71503,6.800444 16.230184,6.283713 15.663649,5.849378 15.068244,5.465327 L 14.602481,5.206722 C 14.451384,5.112702 14.277982,5.061725 14.119468,4.982813 L 13.877394,4.872033 C 13.795704,4.837563 13.709336,4.814263 13.625778,4.784503 13.456563,4.730503 13.291305,4.664175 13.119987,4.61785 12.946573,4.57775 12.77294,4.54061 12.600925,4.495889 l -0.128947,-0.03261 -0.121741,-0.01634 -0.243002,-0.03531 -0.242534,-0.03883 c -0.0361,-0.0086 -0.08659,-0.0112 -0.140129,-0.01282 l -0.154777,-0.0072 -0.309571,-0.01348 -0.15479,-0.0072 -0.07725,-0.0038 -0.03862,-0.0026 -0.01931,-0.0018 c 0.0198,2.34e-4 -0.07171,-0.0026 0.0396,4.67e-4 -0.714584,0.01046 -1.4228787,0.106369 -2.1109227,0.288388 -0.171553,0.04629 -0.336807,0.112892 -0.506027,0.166892 -0.08355,0.02975 -0.169917,0.05324 -0.251616,0.08775 l -0.242308,0.110318 c -0.159918,0.07633 -0.332627,0.129412 -0.483926,0.222981 l -0.465988,0.258822 c -0.598196,0.381495 -1.162182,0.819555 -1.64958,1.33443 -0.123367,0.126844 -0.229975,0.267432 -0.346819,0.400103 l -0.17131,0.202275 -0.149902,0.216932 c -0.09706,0.146172 -0.210883,0.283273 -0.2991,0.434805 -0.08728,0.152689 -0.174337,0.304918 -0.260927,0.456446 -0.0966,0.148273 -0.147799,0.315619 -0.226244,0.471809 -0.06981,0.159442 -0.155018,0.314458 -0.202503,0.481117 -0.05662,0.16479 -0.112657,0.32889 -0.168521,0.492292 -0.05453,0.163633 -0.07912,0.321444 -0.121733,0.482747 -0.09334,0.300963 -0.119644,0.696657 -0.167591,1.053016 l -0.0083,0.06802 -0.0045,0.034 -0.0022,0.017 c -0.0018,0.01213 6.92e-4,-0.04474 0,-0.013 l -0.0028,0.12685 -0.0067,0.253245 c 0,0.168289 -0.01818,0.338207 -0.0044,0.504166 0.05609,1.336986 0.448533,2.603441 1.057436,3.644355 0.6117,1.041369 1.421712,1.850922 2.233347,2.425609 0.808855,0.590512 1.637946,0.911494 2.323905,1.121214 0.174101,0.04771 0.338661,0.09287 0.493682,0.135237 0.156654,0.03566 0.306783,0.05197 0.444808,0.07612 0.138493,0.02208 0.2667477,0.04264 0.3840537,0.06123 0.117547,0.01816 0.226483,0.01605 0.322844,0.02414 0.386849,0.02209 0.593074,0.034 0.593074,0.034 z"
       id="path2-3-3-7"
       style="fill:url(#linearGradient7);fill-opacity:1;stroke-width:0.232762" />
  </g>
  <metadata
     id="metadata18">
    <rdf:RDF>
      <cc:Work
         rdf:about="">
        <dc:format>image/svg+xml</dc:format>
        <dc:type
           rdf:resource="http://purl.org/dc/dcmitype/StillImage" />
      </cc:Work>
    </rdf:RDF>
  </metadata>
  <defs
     id="defs16">
    <linearGradient
       id="linearGradient10"
       inkscape:collect="always">
      <stop
         style="stop-color:#00ccff;stop-opacity:1;"
         offset="0"
         id="stop7" />
      <stop
         style="stop-color:#bc5fd3;stop-opacity:1;"
         offset="1"
         id="stop8" />
    </linearGradient>
    <linearGradient
       id="linearGradient6"
       inkscape:collect="always">
      <stop
         style="stop-color:#2a7fff;stop-opacity:1;"
         offset="0"
         id="stop5" />
      <stop
         style="stop-color:#e580ff;stop-opacity:1"
         offset="1"
         id="stop6" />
    </linearGradient>
    <linearGradient
       id="linearGradient1"
       inkscape:collect="always">
      <stop
         style="stop-color:#c83771;stop-opacity:1"
         offset="0"
         id="stop1" />
      <stop
         style="stop-color:#e580ff;stop-opacity:1"
         offset="1"
         id="stop2" />
    </linearGradient>
    <linearGradient
       inkscape:collect="always"
       xlink:href="#linearGradient6"
       id="linearGradient2"
       x1="0"
       y1="16"
       x2="32"
       y2="16"
       gradientUnits="userSpaceOnUse" />
    <linearGradient
       inkscape:collect="always"
       xlink:href="#linearGradient1"
       id="linearGradient4"
       x1="0"
       y1="11"
       x2="22"
       y2="11"
       gradientUnits="userSpaceOnUse" />
    <linearGradient
       inkscape:collect="always"
       xlink:href="#linearGradient10"
       id="linearGradient3"
       gradientUnits="userSpaceOnUse"
       x1="29.023672"
       y1="16.648476"
       x2="11.136323"
       y2="16.559168" />
    <linearGradient
       inkscape:collect="always"
       xlink:href="#linearGradient10"
       id="linearGradient7"
       gradientUnits="userSpaceOnUse"
       x1="18.664413"
       y1="10.454295"
       x2="8.4892387"
       y2="9.8789816" />
    <linearGradient
       inkscape:collect="always"
       xlink:href="#linearGradient10"
       id="linearGradient8"
       gradientUnits="userSpaceOnUse"
       x1="3.3524272"
       y1="10.432473"
       x2="18.664413"
       y2="10.454295" />
    <linearGradient
       inkscape:collect="always"
       xlink:href="#linearGradient10"
       id="linearGradient9"
       gradientUnits="userSpaceOnUse"
       x1="6.5222931"
       y1="16.101912"
       x2="25.579618"
       y2="15.898089" />
  </defs>
  <sodipodi:namedview
     pagecolor="#201933"
     bordercolor="#000000"
     borderopacity="1"
     objecttolerance="10"
     gridtolerance="10"
     guidetolerance="10"
     inkscape:pageopacity="0"
     inkscape:pageshadow="2"
     inkscape:window-width="1920"
     inkscape:window-height="994"
     id="namedview14"
     showgrid="true"
     inkscape:zoom="9.8125"
     inkscape:cx="30.471338"
     inkscape:cy="15.031847"
     inkscape:window-x="0"
     inkscape:window-y="0"
     inkscape:window-maximized="1"
     inkscape:current-layer="svg12"
     inkscape:document-rotation="0"
     inkscape:lockguides="false"
     inkscape:showpageshadow="2"
     inkscape:pagecheckerboard="true"
     inkscape:deskcolor="#201933">
    <inkscape:grid
       type="xygrid"
       id="grid857"
       originx="0"
       originy="0"
       spacingy="1"
       spacingx="1"
       units="px"
       visible="true" />
  </sodipodi:namedview>
  <g
     id="g997" />
  <g
     id="g999"
     transform="translate(32,10)" />
  <g
     id="bookmarks"
     style="fill:url(#linearGradient2)">
    <rect
       y="0"
       x="0"
       height="32"
       width="32"
       id="rect820"
       style="clip-rule:evenodd;fill:url(#linearGradient2);fill-opacity:0;fill-rule:evenodd;stroke-linejoin:round;stroke-miterlimit:1.41421" />
    <path
       d="m 20.864206,12.507276 c 1.098353,1.120719 1.097259,2.924266 0,4.046127 l -4.861143,4.971614 c -1.622253,-1.65532 -3.244517,-3.310585 -4.86674,-4.96585 -1.098457,-1.120699 -1.098457,-2.925425 0,-4.046127 1.098411,-1.120815 2.86702,-1.120835 3.965442,0 l 0.895664,0.913916 0.901247,-0.91968 c 1.098451,-1.1208 2.867033,-1.1208 3.96553,0 z"
       style="color:#000000;fill:url(#linearGradient9);fill-opacity:1;stroke-width:0.189581;enable-background:accumulate"
       stroke="none"
       marker="none"
       visibility="visible"
       display="inline"
       overflow="visible"
       id="path2-3" />
    <path
       d="m 16.016236,28.999916 c 0,0 -0.29822,-0.01311 -0.857012,-0.03726 -0.139518,-0.0091 -0.296538,-0.0043 -0.46667,-0.02858 -0.170124,-0.02495 -0.35605,-0.0518 -0.557096,-0.081 -0.200392,-0.03268 -0.418588,-0.05353 -0.646218,-0.10185 -0.226601,-0.0545 -0.467329,-0.112316 -0.721516,-0.173507 -1.007636,-0.265671 -2.227433,-0.688303 -3.48017,-1.46395 C 8.0375038,26.345834 6.7265994,25.267924 5.6127159,23.791933 4.5139595,22.315611 3.6122301,20.447592 3.2060837,18.29984 3.1461752,18.033227 3.1330667,17.758877 3.0947938,17.484181 l -0.04833,-0.415227 -0.02394,-0.209121 -0.0054,-0.241063 c -0.0032,-0.53493 -0.049839,-1.033528 0.025899,-1.658554 0.03022,-0.296878 0.041701,-0.611241 0.09306,-0.903085 0.05482,-0.291155 0.1099367,-0.583677 0.1650783,-0.877853 0.044418,-0.298902 0.1459165,-0.582661 0.2276085,-0.875845 L 3.660218,11.864666 C 3.700524,11.716399 3.7526435,11.57216 3.8145285,11.431623 4.2358114,10.271003 4.8742851,9.17326 5.6314427,8.1363738 5.8331723,7.8872351 6.0389465,7.6387758 6.2487439,7.3916523 6.4501269,7.1361312 6.700612,6.9269971 6.9272132,6.6919829 L 7.2778982,6.3483784 C 7.3969219,6.2357433 7.5290529,6.1382397 7.6547989,6.0323283 7.91099,5.8262302 8.1651671,5.6140794 8.4348168,5.4224345 9.517092,4.6548513 10.732514,4.0590838 12.013833,3.6307395 13.302547,3.2111462 14.661532,3.0410133 16.015461,3 l 0.308657,0.01349 0.223247,0.01276 0.446831,0.02551 0.223243,0.01276 c 0.07189,0.0032 0.14794,0.0083 0.242413,0.02391 l 0.533919,0.07909 0.532899,0.08376 0.265608,0.04367 0.24678,0.06291 c 0.328489,0.0834 0.653609,0.1778569 0.978728,0.2682992 1.280983,0.4303555 2.49909,1.0214216 3.581375,1.7903472 0.27031,0.1906373 0.522803,0.4058103 0.781698,0.6082205 0.12575,0.1058833 0.258217,0.2037403 0.37724,0.3163754 l 0.351007,0.3439471 c 0.226941,0.2353552 0.477428,0.4444755 0.678818,0.7003335 0.206768,0.2488023 0.413207,0.4969297 0.618963,0.7440518 0.756493,1.0385683 1.39766,2.1356593 1.8186,3.2976163 0.416572,1.157916 0.701009,2.3377 0.768595,3.503694 0.07331,0.578298 0.0336,1.15558 0.02959,1.71773 l -0.0071,0.251832 -0.0239,0.195337 -0.04771,0.388998 c -0.03798,0.263596 -0.04869,0.50433 -0.1086,0.78171 -0.0595,0.274017 -0.118689,0.546345 -0.177189,0.816667 -0.03191,0.133141 -0.0545,0.269976 -0.09451,0.397068 l -0.124069,0.377236 c -0.0827,0.248801 -0.16441,0.495582 -0.24577,0.74034 -0.0988,0.23838 -0.206778,0.470364 -0.308309,0.701355 -0.183576,0.470032 -0.447169,0.89298 -0.679495,1.315612 -0.109612,0.215168 -0.254508,0.407488 -0.38833,0.602162 -0.13348,0.194326 -0.26527,0.386646 -0.39606,0.576946 -1.114894,1.475989 -2.426811,2.553553 -3.677526,3.320799 -1.253025,0.775639 -2.473152,1.197261 -3.480789,1.46321 -0.254178,0.06079 -0.494907,0.118675 -0.721517,0.173151 -0.227619,0.04849 -0.445489,0.06933 -0.645867,0.10184 -0.20073,0.02921 -0.38665,0.05622 -0.556777,0.08099 -0.170462,0.02383 -0.327812,0.01878 -0.467009,0.02858 C 16.313349,28.986858 16.015122,29 16.015122,29 Z m 0,0 c 0,0 0.297885,-0.01722 0.856344,-0.04911 0.139189,-0.01186 0.296206,-0.0082 0.465995,-0.03499 0.169788,-0.02714 0.354722,-0.05654 0.554753,-0.08843 0.199383,-0.03537 0.416575,-0.05891 0.642515,-0.110276 0.22393,-0.06158 0.461627,-0.126762 0.713111,-0.195684 0.991164,-0.302929 2.188099,-0.767245 3.356105,-1.620562 1.171723,-0.831116 2.340412,-2.000813 3.223297,-3.505043 0.421958,-0.761521 0.811298,-1.578868 1.062458,-2.470855 0.0619,-0.222904 0.129442,-0.445146 0.187598,-0.671084 0.041,-0.230311 0.08207,-0.462296 0.123731,-0.695969 l 0.0629,-0.34932 c 0.01952,-0.116672 0.01952,-0.23199 0.03029,-0.347645 0.01749,-0.229648 0.03524,-0.460955 0.05305,-0.69395 0.0202,-0.2293 -0.004,-0.508023 -0.003,-0.762539 l -0.0081,-0.392031 -0.004,-0.197027 c 6.78e-4,-0.04643 -0.001,0.03537 -0.002,0.01847 l -0.003,-0.0229 -0.006,-0.04579 -0.01209,-0.09141 c -0.0709,-0.487471 -0.101791,-0.980368 -0.238644,-1.46183 -0.189972,-0.975705 -0.59174,-1.911047 -1.041938,-2.809416 -0.125067,-0.218542 -0.250818,-0.438091 -0.376896,-0.658655 -0.127531,-0.218197 -0.291608,-0.416225 -0.430797,-0.627707 l -0.21765,-0.312944 -0.247451,-0.291833 C 24.58793,10.320088 24.433934,10.117014 24.255741,9.934116 23.555398,9.187715 22.73706,8.5603343 21.87702,8.005583 L 21.204244,7.6320386 C 20.98604,7.4962135 20.735568,7.4225804 20.506601,7.3085974 L 20.157043,7.1485652 C 20.039029,7.0987752 19.914287,7.0651709 19.793591,7.022144 19.549166,6.9441439 19.310459,6.8483277 19.062996,6.7814149 18.812505,6.7235322 18.561697,6.6697907 18.313232,6.6052448 L 18.126971,6.5581537 17.951118,6.5346102 17.600113,6.4835889 17.24978,6.4274902 c -0.0521,-0.012397 -0.125069,-0.016181 -0.202409,-0.01851 l -0.223571,-0.010616 -0.447163,-0.01949 -0.22359,-0.010616 -0.111629,-0.0054 -0.05575,-0.00361 -0.02789,-0.00189 c 0.0286,3.369e-4 -0.103549,-0.00361 0.0572,6.738e-4 -1.032187,0.01509 -2.055293,0.1536503 -3.049147,0.4165723 -0.247799,0.06685 -0.486505,0.1630623 -0.730935,0.2410646 -0.120695,0.042991 -0.245438,0.07692 -0.363451,0.1267533 l -0.350007,0.159347 C 11.290446,7.4120377 11.040974,7.4886971 10.822426,7.6238576 L 10.149323,7.9977195 C 9.285253,8.5487739 8.4705969,9.181532 7.7665673,9.92525 7.5883675,10.108472 7.4343791,10.311547 7.2656,10.503189 l -0.247451,0.292174 -0.2165272,0.313351 c -0.1402015,0.211141 -0.3046094,0.409177 -0.4320389,0.628058 -0.1260796,0.220552 -0.2518208,0.440443 -0.3769007,0.65932 -0.1395289,0.214175 -0.2134872,0.455899 -0.3267985,0.681509 -0.1008294,0.23031 -0.2239174,0.454225 -0.2925065,0.694957 -0.081757,0.238033 -0.162732,0.47507 -0.243421,0.711098 -0.07876,0.236357 -0.114309,0.464313 -0.1758403,0.697311 -0.1348178,0.434728 -0.172819,1.00629 -0.2420775,1.521041 l -0.01202,0.09822 -0.00658,0.04911 -0.0032,0.02451 c -0.0022,0.01753 9.998e-4,-0.06459 0,-0.01879 l -0.00439,0.183233 -0.0098,0.365803 c 0,0.243086 -0.02622,0.488523 -0.00644,0.728245 0.081039,1.931229 0.6478892,3.760579 1.5274244,5.264137 0.8835781,1.504222 2.0536115,2.673588 3.2259872,3.503703 1.16836,0.852975 2.365953,1.31662 3.356791,1.619553 0.251485,0.06893 0.489183,0.13415 0.713107,0.195341 0.226279,0.05148 0.443137,0.07502 0.642509,0.109946 0.200045,0.03188 0.38531,0.06158 0.554752,0.08843 0.169792,0.0262 0.327148,0.02322 0.466334,0.03489 0.55879,0.03189 0.856675,0.04911 0.856675,0.04911 z"
       id="path2-3-3"
       style="fill:url(#linearGradient3);fill-opacity:1;stroke-width:0.336215" />
  </g>
</svg>
