<?xml version="1.0" encoding="UTF-8" standalone="no"?>
<svg
   sodipodi:docname="cantata.svg"
   inkscape:version="1.3 (0e150ed6c4, 2023-07-21)"
   viewBox="0 0 32 32"
   id="svg2"
   version="1.1"
   width="32"
   height="32"
   xmlns:inkscape="http://www.inkscape.org/namespaces/inkscape"
   xmlns:sodipodi="http://sodipodi.sourceforge.net/DTD/sodipodi-0.dtd"
   xmlns="http://www.w3.org/2000/svg"
   xmlns:svg="http://www.w3.org/2000/svg"
   xmlns:rdf="http://www.w3.org/1999/02/22-rdf-syntax-ns#"
   xmlns:cc="http://creativecommons.org/ns#"
   xmlns:dc="http://purl.org/dc/elements/1.1/">
  <sodipodi:namedview
     inkscape:document-rotation="0"
     inkscape:lockguides="true"
     inkscape:current-layer="svg2"
     inkscape:window-maximized="1"
     inkscape:window-y="0"
     inkscape:window-x="0"
     inkscape:cy="30.875"
     inkscape:cx="8.75"
     inkscape:zoom="8"
     showgrid="true"
     id="namedview14"
     inkscape:window-height="993"
     inkscape:window-width="1920"
     inkscape:pageshadow="2"
     inkscape:pageopacity="0"
     guidetolerance="10"
     gridtolerance="10"
     objecttolerance="10"
     borderopacity="1"
     bordercolor="#000000"
     pagecolor="#201933"
     inkscape:pagecheckerboard="true"
     inkscape:showpageshadow="true"
     inkscape:deskcolor="#201933">
    <inkscape:grid
       type="xygrid"
       id="grid1388"
       originx="0"
       originy="0"
       spacingy="1"
       spacingx="1"
       units="px"
       visible="true" />
  </sodipodi:namedview>
  <metadata
     id="metadata20">
    <rdf:RDF>
      <cc:Work
         rdf:about="">
        <dc:format>image/svg+xml</dc:format>
        <dc:type
           rdf:resource="http://purl.org/dc/dcmitype/StillImage" />
      </cc:Work>
    </rdf:RDF>
  </metadata>
  <defs
     id="defs3051">
    <style
       type="text/css"
       id="current-color-scheme">.ColorScheme-Text { color:#d1d5e9; }&#10;</style>
    <linearGradient
       id="oomox"
       x1="0"
       x2="0"
       y1="0"
       y2="16"
       gradientUnits="userSpaceOnUse"
       gradientTransform="matrix(1.5000001,0,0,1.5000001,25.843999,4.0940002)">
      <stop
         offset="0%"
         style="stop-color:#303b3d; stop-opacity:1"
         id="stop18" />
      <stop
         offset="100%"
         style="stop-color:#bc985d; stop-opacity:1"
         id="stop20" />
    </linearGradient>
  </defs>
  <g
     id="cantata">
    <path
       style="fill:none"
       d="M 0,0 V 32 H 32 V 0 Z"
       id="path18" />
    <path
       style="fill:none;fill-opacity:1;stroke:#d3dae3;stroke-width:1.60678;stroke-linecap:round;stroke-miterlimit:4;stroke-dasharray:none;stroke-opacity:1;stop-color:#31363b"
       sodipodi:type="arc"
       sodipodi:cx="15.952855"
       sodipodi:cy="-16.000519"
       sodipodi:rx="11.245025"
       sodipodi:ry="11.196738"
       sodipodi:start="4.0504389"
       sodipodi:end="3.011132"
       sodipodi:open="true"
       sodipodi:arc-type="arc"
       d="M 9.0410306,-24.832451 A 11.245025,11.196738 0 0 1 22.749411,-24.9207 11.245025,11.196738 0 0 1 26.356928,-11.752009 11.245025,11.196738 0 0 1 14.502185,-4.8973419 11.245025,11.196738 0 0 1 4.8033898,-14.543925"
       id="path7-3-36-5"
       class="ColorScheme-Text "
       transform="rotate(90)" />
    <path
       d="M 15.962275,19.500006 Z M 17.116362,5.6665313 c 0,-0.748834 0.690457,-1.290542 1.401084,-1.141875 l 0.133334,0.03608 3.447083,1.149293 c 0.604624,0.201665 0.93137,0.855206 0.729833,1.459874 -0.187085,0.561499 -0.76421,0.883333 -1.329792,0.765 l -0.129997,-0.0352 -1.943175,-0.647874 v 8.7858297 c 0,1.912207 -1.550079,3.462294 -3.462293,3.462294 -1.91239,5.3e-5 -3.462468,-1.550022 -3.462468,-3.462248 0,-1.912248 1.550087,-3.462293 3.462294,-3.462293 0.323754,0 0.637044,0.04455 0.934294,0.1275 l 0.219998,0.06961 z"
       style="fill:#d3dae3;fill-opacity:1;fill-rule:nonzero;stroke:none;stroke-width:1.15417"
       sodipodi:nodetypes="cccccccccccccscccccccssssccs"
       id="path1415-7-3"
       class="ColorScheme-Text " />
  </g>
  <g
     id="22-22-cantata"
     transform="translate(-22,10)">
    <path
       style="fill:none"
       d="M 0,0 V 22 H 22 V 0 Z"
       id="path11" />
    <path
       style="fill:none;fill-opacity:1;stroke:#d3dae3;stroke-width:1.07124;stroke-linecap:round;stroke-miterlimit:4;stroke-dasharray:none;stroke-opacity:1;stop-color:#31363b"
       sodipodi:type="arc"
       sodipodi:cx="10.968341"
       sodipodi:cy="-11.000616"
       sodipodi:rx="7.4964247"
       sodipodi:ry="7.464735"
       sodipodi:start="4.0504389"
       sodipodi:end="3.011132"
       sodipodi:open="true"
       sodipodi:arc-type="arc"
       d="m 6.3606167,-16.888763 a 7.4964247,7.464735 0 0 1 9.1386053,-0.05883 7.4964247,7.464735 0 0 1 2.404928,8.7794127 7.4964247,7.464735 0 0 1 -7.902889,4.569927 7.4964247,7.464735 0 0 1 -6.4656407,-6.4312647"
       id="path7-3-3-5-2-3"
       class="ColorScheme-Text "
       transform="rotate(90)" />
    <path
       d="m 10.97513,13.333038 z m 0.769408,-9.2220144 c 0,-0.499204 0.460325,-0.860332 0.934082,-0.761214 l 0.08889,0.02408 2.298124,0.766176 c 0.403096,0.13444 0.620937,0.570121 0.486573,0.973211 -0.124735,0.374322 -0.509494,0.588874 -0.886561,0.509988 l -0.08669,-0.02341 -1.295504,-0.431898 v 5.8570154 c 0,1.27476 -1.033412,2.30812 -2.308263,2.30812 -1.2749762,3.3e-5 -2.3084032,-1.033307 -2.3084032,-2.30809 0,-1.2747864 1.033436,-2.3081164 2.3082842,-2.3081164 0.215843,0 0.424701,0.02964 0.622889,0.08503 l 0.146665,0.04641 z"
       style="fill:#d3dae3;fill-opacity:1;fill-rule:nonzero;stroke:none;stroke-width:0.769422"
       sodipodi:nodetypes="cccccccccccccscccccccssssccs"
       id="path1415-6-6-9-6"
       class="ColorScheme-Text " />
  </g>
</svg>
