<?xml version="1.0" encoding="UTF-8" standalone="no"?>
<svg
   width="32"
   height="32"
   version="1.1"
   id="svg12"
   sodipodi:docname="choqok.svg"
   inkscape:version="1.3 (0e150ed6c4, 2023-07-21)"
   xmlns:inkscape="http://www.inkscape.org/namespaces/inkscape"
   xmlns:sodipodi="http://sodipodi.sourceforge.net/DTD/sodipodi-0.dtd"
   xmlns="http://www.w3.org/2000/svg"
   xmlns:svg="http://www.w3.org/2000/svg"
   xmlns:rdf="http://www.w3.org/1999/02/22-rdf-syntax-ns#"
   xmlns:cc="http://creativecommons.org/ns#"
   xmlns:dc="http://purl.org/dc/elements/1.1/">
  <style
     id="current-color-scheme"
     type="text/css">.ColorScheme-Text { color:#d1d5e9; }&#10;</style>
  <metadata
     id="metadata18">
    <rdf:RDF>
      <cc:Work
         rdf:about="">
        <dc:format>image/svg+xml</dc:format>
        <dc:type
           rdf:resource="http://purl.org/dc/dcmitype/StillImage" />
      </cc:Work>
    </rdf:RDF>
  </metadata>
  <defs
     id="defs16">
    <linearGradient
       id="oomox"
       x1="0"
       x2="0"
       y1="4.426218"
       y2="16.600946"
       gradientTransform="matrix(1.7114077,0,0,0.99090516,5.5319556,2.8240382)"
       gradientUnits="userSpaceOnUse">
      <stop
         offset="0%"
         style="stop-color:#303b3d; stop-opacity:1"
         id="stop18" />
      <stop
         offset="100%"
         style="stop-color:#bc985d; stop-opacity:1"
         id="stop20" />
    </linearGradient>
    <linearGradient
       id="oomox-3"
       x1="0"
       x2="0"
       y1="4.426218"
       y2="16.600946"
       gradientTransform="matrix(1.1155928,0,0,0.64592825,4.2500004,2.3909811)"
       gradientUnits="userSpaceOnUse">
      <stop
         offset="0%"
         style="stop-color:#303b3d; stop-opacity:1"
         id="stop18-6" />
      <stop
         offset="100%"
         style="stop-color:#bc985d; stop-opacity:1"
         id="stop20-7" />
    </linearGradient>
  </defs>
  <sodipodi:namedview
     pagecolor="#201933"
     bordercolor="#000000"
     borderopacity="1"
     objecttolerance="10"
     gridtolerance="10"
     guidetolerance="10"
     inkscape:pageopacity="0"
     inkscape:pageshadow="2"
     inkscape:window-width="1920"
     inkscape:window-height="994"
     id="namedview14"
     showgrid="true"
     inkscape:zoom="9.8125"
     inkscape:cx="23.541401"
     inkscape:cy="24.917197"
     inkscape:window-x="0"
     inkscape:window-y="0"
     inkscape:window-maximized="1"
     inkscape:current-layer="svg12"
     inkscape:document-rotation="0"
     inkscape:lockguides="false"
     inkscape:showpageshadow="true"
     inkscape:pagecheckerboard="true"
     inkscape:deskcolor="#201933">
    <inkscape:grid
       id="grid1"
       units="px"
       originx="0"
       originy="0"
       spacingx="1"
       spacingy="1"
       empcolor="#0099e5"
       empopacity="0.30196078"
       color="#0099e5"
       opacity="0.14902"
       empspacing="5"
       dotted="false"
       gridanglex="30"
       gridanglez="30"
       visible="true" />
  </sodipodi:namedview>
  <g
     id="choqok"
     style="fill:#d3dae3;fill-opacity:1">
    <rect
       style="opacity:0.00100002;fill:#d3dae3;fill-opacity:1"
       width="32"
       height="32"
       x="1.9836044e-09"
       y="-1.033535e-09"
       id="rect7" />
    <path
       style="color:#d1d5e9;fill:#d3dae3;fill-opacity:1;stroke-width:1.5"
       d="m 16,4.000001 c -6.636,0 -12,5.364 -12,11.999999 0,6.636001 5.364,12.000001 12,12.000001 6.636,0 12,-5.364 12,-12.000001 C 28,9.364001 22.636,4.000001 16,4.000001 Z m 0,1.5 c 5.80498,0 10.5,4.695 10.5,10.499999 0,5.804981 -4.69502,10.500001 -10.5,10.500001 C 10.19498,26.500001 5.5,21.804981 5.5,16 5.5,10.195001 10.19498,5.500001 16,5.500001 Z m 1.12498,8.578498 v 0 0 0 0 0 c 0,0 -0.05091,0.012 0,0 z m -1.171491,6.750005 z"
       id="path58-3"
       sodipodi:nodetypes="ssssssssssccccccccccccccccc"
       class="ColorScheme-Text" />
    <path
       inkscape:connector-curvature="0"
       style="opacity:0.01;fill:#d3dae3;fill-rule:evenodd;stroke-width:0.393474;fill-opacity:1"
       id="path4779"
       d="m 19.958319,15.866905 3.958334,3.911269 v -3.911269 z" />
    <path
       inkscape:connector-curvature="0"
       style="opacity:0.01;fill:#d3dae3;fill-rule:evenodd;stroke-width:0.393474;fill-opacity:1"
       id="path4769"
       d="m 12.140611,13.862378 3.958334,3.91127 -4.453128,3.764596 -3.5624971,-3.520143 z" />
    <path
       inkscape:connector-curvature="0"
       style="fill:#d3dae3;fill-opacity:1;fill-rule:evenodd;stroke-width:0.393474"
       id="path4411-1"
       d="m 12.833317,20.1693 c 3.1203,2.939314 6.009792,2.831207 7.416531,1.154082 1.406737,-1.677117 0.354154,-3.109717 0.354154,-3.109717 z" />
    <path
       inkscape:connector-curvature="0"
       style="color:#000000;fill:#d3dae3;fill-opacity:1;stroke-width:1.1804;stroke-linecap:round;stroke-linejoin:round"
       id="path4170"
       d="m 9.8645698,12.737889 c -0.6691444,0 -1.2847641,0.02205 -1.7812499,0.391126 v 4.885651 c 0.4964858,0.369077 1.1121055,0.590127 1.7812499,0.590127 1.6395922,0 3.3769532,-0.72666 3.3769532,-2.346762 0,-1.620101 -1.737361,-3.520142 -3.3769532,-3.520142 z" />
    <path
       inkscape:connector-curvature="0"
       style="color:#000000;fill:#d3dae3;fill-opacity:1;stroke-width:1.1804;stroke-linecap:round;stroke-linejoin:round"
       id="path4170-8"
       d="m 20.354152,11.564508 c -0.844109,1.019507 -1.382227,2.254925 -0.982422,3.458195 0.559269,1.68322 2.488625,1.893447 4.07255,1.3796 0.166744,-0.0541 0.323071,-0.124911 0.472373,-0.205493 v -4.632302 z" />
    <ellipse
       cx="10.656246"
       cy="15.671336"
       style="color:#000000;fill:#000000;fill-opacity:1;stroke-width:1.1804;stroke-linecap:round;stroke-linejoin:round"
       id="path4267"
       rx="1.3854166"
       ry="1.3689443" />
    <ellipse
       cx="20.947914"
       cy="14.10683"
       style="color:#000000;fill:#000000;fill-opacity:1;stroke-width:1.1804;stroke-linecap:round;stroke-linejoin:round"
       id="path4267-9"
       rx="1.3854166"
       ry="1.3689443" />
    <path
       inkscape:connector-curvature="0"
       style="fill:#010202;fill-rule:evenodd;stroke-width:0.393474;fill-opacity:1"
       id="path4411"
       d="m 13.229153,20.171905 c 2.371104,2.414061 5.495242,2.292182 6.564218,0.91476 1.068976,-1.37742 0.269118,-2.554016 0.269118,-2.554016 z" />
    <path
       inkscape:connector-curvature="0"
       style="fill:#d3dae3;fill-opacity:1;fill-rule:evenodd;stroke-width:0.393474"
       id="path4411-4"
       d="m 18.949146,20.892591 c -0.815503,0.02863 -1.796549,0.279636 -2.70307,0.736548 1.284241,0.368383 2.165146,0.167839 2.866925,-0.264715 0.254401,-0.156808 0.441398,-0.27089 0.502221,-0.438536 -0.204143,-0.02988 -0.427456,-0.04168 -0.666076,-0.03328 z" />
    <path
       inkscape:connector-curvature="0"
       style="fill:#d3dae3;fill-opacity:1;fill-rule:evenodd;stroke-width:0.393474"
       id="path4284"
       d="m 12.833317,20.1693 c 0,0 0.566711,-1.689241 3.535129,-2.451071 2.968426,-0.761817 4.380661,0.495436 4.380661,0.495436 0.39529,1.137452 -3.429441,2.904759 -3.429441,2.904759 0,0 -4.234898,0.225243 -4.486349,-0.949124 z" />
    <path
       inkscape:connector-curvature="0"
       style="fill:#d3dae3;fill-opacity:1;fill-rule:evenodd;stroke-width:0.393474"
       id="path4413"
       d="M 23.916653,11.564508 C 23.916653,10.391127 22.036444,10 22.036444,10 c 0,0 -0.233263,0.49594 0,0.782254 C 21.145818,10 20.354152,10.391127 20.354152,10.391127 c 0,0 0.199561,0.513312 0.494792,0.782254 -0.474791,-0.224843 -0.989584,0 -0.989584,0 0,0 0.268755,0.391127 0.494792,0.391127 z" />
    <path
       inkscape:transform-center-x="-1.8441222"
       inkscape:transform-center-y="-0.86942074"
       inkscape:connector-curvature="0"
       style="fill:#d3dae3;fill-opacity:1;fill-rule:evenodd;stroke-width:0.399595"
       id="path4415-0"
       d="m 23.916697,16.258023 c 0,0 1.684428,-0.192181 1.508671,-0.598709 -0.175754,-0.406522 -1.508671,0.598709 -1.508671,0.598709 z" />
    <path
       inkscape:transform-center-x="-1.0865895"
       inkscape:transform-center-y="-1.7200032"
       inkscape:connector-curvature="0"
       style="fill:#d3dae3;fill-opacity:1;fill-rule:evenodd;stroke-width:0.399595"
       id="path4415-4-9"
       d="m 23.916689,16.258023 c 0,0 1.21423,-1.134894 0.816489,-1.354911 -0.397743,-0.220005 -0.816489,1.354911 -0.816489,1.354911 z" />
    <path
       inkscape:transform-center-x="-1.9189885"
       inkscape:transform-center-y="0.65739618"
       inkscape:connector-curvature="0"
       style="fill:#d3dae3;fill-opacity:1;fill-rule:evenodd;stroke-width:0.399595"
       id="path4415-4-3-1"
       d="m 23.916693,16.258035 c 0,0 1.458463,0.829947 1.577338,0.404925 0.118877,-0.425021 -1.577338,-0.404925 -1.577338,-0.404925 z" />
    <path
       inkscape:transform-center-x="1.9189971"
       inkscape:transform-center-y="0.65739374"
       inkscape:connector-curvature="0"
       style="fill:#d3dae3;fill-opacity:1;fill-rule:evenodd;stroke-width:0.3996"
       id="path4415"
       d="m 8.0833331,17.822543 c 0,0 -1.4584893,0.829946 -1.5773645,0.404921 -0.1188752,-0.425021 1.5773645,-0.404921 1.5773645,-0.404921 z" />
    <path
       inkscape:transform-center-x="1.8441244"
       inkscape:transform-center-y="-0.86941514"
       inkscape:connector-curvature="0"
       style="fill:#d3dae3;fill-opacity:1;fill-rule:evenodd;stroke-width:0.3996"
       id="path4415-4"
       d="m 8.083337,17.822535 c 0,0 -1.6844612,-0.192185 -1.5087083,-0.598713 0.1757569,-0.406522 1.5087083,0.598713 1.5087083,0.598713 z" />
    <path
       inkscape:transform-center-x="1.2801083"
       inkscape:transform-center-y="1.591366"
       inkscape:connector-curvature="0"
       style="fill:#d3dae3;fill-opacity:1;fill-rule:evenodd;stroke-width:0.3996"
       id="path4415-4-3"
       d="m 8.0833413,17.822551 c 0,0 -0.6297389,1.509069 -0.9941174,1.241205 -0.3643743,-0.267859 0.9941174,-1.241205 0.9941174,-1.241205 z" />
  </g>
  <g
     id="22-22-choqok"
     style="fill:#d3dae3;fill-opacity:1">
    <rect
       style="opacity:0.00100002;fill:#d3dae3;fill-opacity:1"
       width="22"
       height="22"
       x="32"
       y="10"
       id="rect2" />
    <path
       sodipodi:nodetypes="cscscsssss"
       inkscape:connector-curvature="0"
       style="color:#d1d5e9;fill:#d3dae3;fill-opacity:1;stroke:none"
       d="m 43,13 c -4.418246,-1.1e-4 -8,3.581644 -8,8 0,4.418357 3.581754,8.000111 8,8.000001 4.418246,1.1e-4 8,-3.581644 8,-8.000001 0,-4.418356 -3.581754,-8.00011 -8,-8 z m 0,1.4 c 3.865993,0 6.6,2.8696 6.6,6.735594 C 49.6,25.001587 46.865993,27.6 43,27.6 c -3.865993,0 -6.6,-2.734006 -6.6,-6.6 0,-3.865993 2.734007,-6.6 6.6,-6.6 z"
       class="ColorScheme-Text"
       id="path7" />
    <path
       inkscape:connector-curvature="0"
       style="opacity:0.01;fill:#d3dae3;fill-rule:evenodd;stroke-width:0.251825;fill-opacity:1"
       id="path4779-7"
       d="m 45.613312,20.754815 2.533338,2.503211 v -2.503211 z" />
    <path
       inkscape:connector-curvature="0"
       style="opacity:0.01;fill:#d3dae3;fill-rule:evenodd;stroke-width:0.251825;fill-opacity:1"
       id="path4769-5"
       d="m 40.609985,19.471923 2.533326,2.503209 -2.850003,2.409344 -2.28,-2.252889 z" />
    <path
       inkscape:connector-curvature="0"
       style="fill:#d3dae3;fill-opacity:1;fill-rule:evenodd;stroke-width:0.251825"
       id="path4411-1-3"
       d="m 41.053308,23.508346 c 1.997,1.881168 3.846277,1.811979 4.746591,0.738619 0.900312,-1.073357 0.226656,-1.990223 0.226656,-1.990223 z" />
    <path
       inkscape:connector-curvature="0"
       style="color:#000000;fill:#d3dae3;fill-opacity:1;stroke-width:0.755457;stroke-linecap:round;stroke-linejoin:round"
       id="path4170-5"
       d="m 39.153308,18.752249 c -0.428245,0 -0.82224,0.01416 -1.14,0.25032 v 3.126815 c 0.31776,0.23621 0.711755,0.37768 1.14,0.37768 1.049346,0 2.161258,-0.465056 2.161258,-1.501929 0,-1.03686 -1.111912,-2.252886 -2.161258,-2.252886 z" />
    <path
       inkscape:connector-curvature="0"
       style="color:#000000;fill:#d3dae3;fill-opacity:1;stroke-width:0.755457;stroke-linecap:round;stroke-linejoin:round"
       id="path4170-8-6"
       d="m 45.86665,18.001288 c -0.540229,0.652481 -0.884625,1.443146 -0.628745,2.213247 0.357929,1.077251 1.59272,1.211799 2.606425,0.882938 0.106684,-0.03458 0.206771,-0.07993 0.30232,-0.131514 v -2.964671 z" />
    <ellipse
       cx="39.659973"
       cy="20.629662"
       style="color:#000000;fill:#000000;fill-opacity:1;stroke-width:0.755457;stroke-linecap:round;stroke-linejoin:round"
       id="path4267-2"
       rx="0.88666683"
       ry="0.8761245" />
    <ellipse
       cx="46.246647"
       cy="19.628376"
       style="color:#000000;fill:#000000;fill-opacity:1;stroke-width:0.755457;stroke-linecap:round;stroke-linejoin:round"
       id="path4267-9-9"
       rx="0.88666683"
       ry="0.8761245" />
    <path
       inkscape:connector-curvature="0"
       style="fill:#000000;fill-rule:evenodd;stroke-width:0.251825;fill-opacity:1"
       id="path4411-12"
       d="m 41.306651,23.510015 c 1.517509,1.545006 3.516954,1.467004 4.2011,0.585448 0.684148,-0.881547 0.172237,-1.634572 0.172237,-1.634572 z" />
    <path
       inkscape:connector-curvature="0"
       style="fill:#d3dae3;fill-opacity:1;fill-rule:evenodd;stroke-width:0.251825"
       id="path4411-4-7"
       d="m 44.967445,23.971261 c -0.52192,0.01833 -1.149786,0.178968 -1.72996,0.471388 0.821907,0.235761 1.385693,0.107398 1.83483,-0.169423 0.162815,-0.100293 0.282492,-0.173368 0.321424,-0.280657 -0.13065,-0.01913 -0.273574,-0.02665 -0.426294,-0.02135 z" />
    <path
       inkscape:connector-curvature="0"
       style="fill:#d3dae3;fill-opacity:1;fill-rule:evenodd;stroke-width:0.251825"
       id="path4284-0"
       d="m 41.053308,23.508346 c 0,0 0.362703,-1.081106 2.262485,-1.568676 1.899799,-0.48757 2.803632,0.317072 2.803632,0.317072 0.25298,0.727971 -2.194847,1.859044 -2.194847,1.859044 0,0 -2.710333,0.144159 -2.87127,-0.60744 z" />
    <path
       inkscape:connector-curvature="0"
       style="fill:#d3dae3;fill-opacity:1;fill-rule:evenodd;stroke-width:0.251825"
       id="path4413-9"
       d="M 48.14665,18.001288 C 48.14665,17.250322 46.943313,17 46.943313,17 c 0,0 -0.14928,0.317393 0,0.500644 C 46.373313,17 45.86665,17.250322 45.86665,17.250322 c 0,0 0.127725,0.328511 0.316663,0.500644 -0.303863,-0.143905 -0.633328,0 -0.633328,0 0,0 0.172003,0.250322 0.316665,0.250322 z" />
    <path
       inkscape:transform-center-x="-1.1802357"
       inkscape:transform-center-y="-0.55643276"
       inkscape:connector-curvature="0"
       style="fill:#d3dae3;fill-opacity:1;fill-rule:evenodd;stroke-width:0.255745"
       id="path4415-0-3"
       d="m 48.146678,21.005132 c 0,0 1.078036,-0.122988 0.96555,-0.383176 -0.112504,-0.260171 -0.96555,0.383176 -0.96555,0.383176 z" />
    <path
       inkscape:transform-center-x="-0.69541729"
       inkscape:transform-center-y="-1.1008034"
       inkscape:connector-curvature="0"
       style="fill:#d3dae3;fill-opacity:1;fill-rule:evenodd;stroke-width:0.255745"
       id="path4415-4-9-6"
       d="m 48.146675,21.005132 c 0,0 0.777109,-0.726328 0.522555,-0.86714 -0.254555,-0.140802 -0.522555,0.86714 -0.522555,0.86714 z" />
    <path
       inkscape:transform-center-x="-1.2281492"
       inkscape:transform-center-y="0.42073185"
       inkscape:connector-curvature="0"
       style="fill:#d3dae3;fill-opacity:1;fill-rule:evenodd;stroke-width:0.255745"
       id="path4415-4-3-1-0"
       d="m 48.146675,21.005138 c 0,0 0.933415,0.531172 1.009495,0.259159 0.07609,-0.272018 -1.009495,-0.259159 -1.009495,-0.259159 z" />
    <path
       inkscape:transform-center-x="1.2281532"
       inkscape:transform-center-y="0.42073133"
       inkscape:connector-curvature="0"
       style="fill:#d3dae3;fill-opacity:1;fill-rule:evenodd;stroke-width:0.255746"
       id="path4415-6"
       d="m 38.013331,22.006425 c 0,0 -0.933431,0.531167 -1.009511,0.259157 -0.07608,-0.272023 1.009511,-0.259157 1.009511,-0.259157 z" />
    <path
       inkscape:transform-center-x="1.1802373"
       inkscape:transform-center-y="-0.55642911"
       inkscape:connector-curvature="0"
       style="fill:#d3dae3;fill-opacity:1;fill-rule:evenodd;stroke-width:0.255746"
       id="path4415-4-2"
       d="m 38.013334,22.006418 c 0,0 -1.078059,-0.122992 -0.965577,-0.383172 0.112504,-0.260178 0.965577,0.383172 0.965577,0.383172 z" />
    <path
       inkscape:transform-center-x="0.8192655"
       inkscape:transform-center-y="1.0184737"
       inkscape:connector-curvature="0"
       style="fill:#d3dae3;fill-opacity:1;fill-rule:evenodd;stroke-width:0.255746"
       id="path4415-4-3-6"
       d="m 38.013338,22.006431 c 0,0 -0.403036,0.965805 -0.636238,0.794374 -0.2332,-0.171436 0.636238,-0.794374 0.636238,-0.794374 z" />
  </g>
</svg>
