<?xml version="1.0" encoding="UTF-8" standalone="no"?>
<svg
   width="32"
   height="32"
   version="1.1"
   id="svg22"
   sodipodi:docname="computer.svg"
   inkscape:version="1.3 (0e150ed6c4, 2023-07-21)"
   xmlns:inkscape="http://www.inkscape.org/namespaces/inkscape"
   xmlns:sodipodi="http://sodipodi.sourceforge.net/DTD/sodipodi-0.dtd"
   xmlns:xlink="http://www.w3.org/1999/xlink"
   xmlns="http://www.w3.org/2000/svg"
   xmlns:svg="http://www.w3.org/2000/svg"
   xmlns:rdf="http://www.w3.org/1999/02/22-rdf-syntax-ns#"
   xmlns:cc="http://creativecommons.org/ns#"
   xmlns:dc="http://purl.org/dc/elements/1.1/">
  <metadata
     id="metadata28">
    <rdf:RDF>
      <cc:Work
         rdf:about="">
        <dc:format>image/svg+xml</dc:format>
        <dc:type
           rdf:resource="http://purl.org/dc/dcmitype/StillImage" />
      </cc:Work>
    </rdf:RDF>
  </metadata>
  <defs
     id="defs26">
    <linearGradient
       id="linearGradient2"
       inkscape:collect="always">
      <stop
         style="stop-color:#00ccff;stop-opacity:1"
         offset="0"
         id="stop2" />
      <stop
         style="stop-color:#8d5fd3;stop-opacity:1"
         offset="1"
         id="stop3" />
    </linearGradient>
    <linearGradient
       inkscape:collect="always"
       xlink:href="#linearGradient2"
       id="linearGradient3"
       x1="-32"
       y1="37.999996"
       x2="0"
       y2="37.999996"
       gradientUnits="userSpaceOnUse" />
    <linearGradient
       inkscape:collect="always"
       xlink:href="#linearGradient2"
       id="linearGradient1"
       gradientUnits="userSpaceOnUse"
       x1="-25.004694"
       y1="38.123566"
       x2="-7.2116022"
       y2="38.123566"
       gradientTransform="matrix(0.89922536,0,0,0.94002965,-1.5151442,1.1627103)" />
    <linearGradient
       inkscape:collect="always"
       xlink:href="#linearGradient2"
       id="linearGradient4"
       gradientUnits="userSpaceOnUse"
       x1="-32"
       y1="37.999996"
       x2="0"
       y2="37.999996" />
    <linearGradient
       inkscape:collect="always"
       xlink:href="#linearGradient2"
       id="linearGradient5"
       gradientUnits="userSpaceOnUse"
       x1="-21.1196"
       y1="43.644981"
       x2="-12.119599"
       y2="43.644981"
       gradientTransform="matrix(1,0,0,1.091717,0.1195995,-4.6479775)" />
    <linearGradient
       inkscape:collect="always"
       xlink:href="#linearGradient2"
       id="linearGradient6"
       gradientUnits="userSpaceOnUse"
       x1="-29"
       y1="37.999992"
       x2="-2"
       y2="37.999992" />
    <linearGradient
       inkscape:collect="always"
       xlink:href="#linearGradient2"
       id="linearGradient8"
       x1="-31"
       y1="10.999997"
       x2="-10.970731"
       y2="10.999997"
       gradientUnits="userSpaceOnUse" />
    <linearGradient
       inkscape:collect="always"
       xlink:href="#linearGradient2"
       id="linearGradient10"
       x1="-27"
       y1="9.000001"
       x2="-15"
       y2="9.000001"
       gradientUnits="userSpaceOnUse" />
    <linearGradient
       inkscape:collect="always"
       xlink:href="#linearGradient2"
       id="linearGradient12"
       x1="-23.663803"
       y1="14.499996"
       x2="-18.520151"
       y2="14.499996"
       gradientUnits="userSpaceOnUse" />
    <linearGradient
       inkscape:collect="always"
       xlink:href="#linearGradient2"
       id="linearGradient1-2"
       gradientUnits="userSpaceOnUse"
       x1="-25.004694"
       y1="38.123566"
       x2="-7.2116022"
       y2="38.123566"
       gradientTransform="matrix(0.89922536,0,0,0.94002965,30.484855,-20.837282)" />
    <linearGradient
       inkscape:collect="always"
       xlink:href="#linearGradient2"
       id="linearGradient5-7"
       gradientUnits="userSpaceOnUse"
       x1="-21.1196"
       y1="43.644981"
       x2="-12.119599"
       y2="43.644981"
       gradientTransform="matrix(1,0,0,1.091717,32.119599,-26.647969)" />
    <linearGradient
       inkscape:collect="always"
       xlink:href="#linearGradient2"
       id="linearGradient6-6"
       gradientUnits="userSpaceOnUse"
       x1="-29"
       y1="37.999992"
       x2="-2"
       y2="37.999992"
       gradientTransform="translate(31.999999,-21.999992)" />
    <linearGradient
       inkscape:collect="always"
       xlink:href="#linearGradient2"
       id="linearGradient10-3"
       x1="-27"
       y1="9.000001"
       x2="-15"
       y2="9.000001"
       gradientUnits="userSpaceOnUse"
       gradientTransform="translate(32)" />
    <linearGradient
       inkscape:collect="always"
       xlink:href="#linearGradient2"
       id="linearGradient12-4"
       x1="-23.663803"
       y1="14.499996"
       x2="-18.520151"
       y2="14.499996"
       gradientUnits="userSpaceOnUse"
       gradientTransform="translate(32)" />
    <linearGradient
       inkscape:collect="always"
       xlink:href="#linearGradient2"
       id="linearGradient8-8"
       x1="-31"
       y1="10.999997"
       x2="-10.970731"
       y2="10.999997"
       gradientUnits="userSpaceOnUse"
       gradientTransform="translate(32)" />
  </defs>
  <sodipodi:namedview
     pagecolor="#201933"
     bordercolor="#000000"
     borderopacity="1"
     objecttolerance="10"
     gridtolerance="10"
     guidetolerance="10"
     inkscape:pageopacity="0"
     inkscape:pageshadow="2"
     inkscape:window-width="1920"
     inkscape:window-height="994"
     id="namedview24"
     showgrid="true"
     inkscape:zoom="6.9737508"
     inkscape:cx="23.875244"
     inkscape:cy="-6.524466"
     inkscape:window-x="0"
     inkscape:window-y="0"
     inkscape:window-maximized="1"
     inkscape:current-layer="svg22"
     inkscape:document-rotation="0"
     inkscape:lockguides="false"
     inkscape:showpageshadow="2"
     inkscape:pagecheckerboard="true"
     inkscape:deskcolor="#201933">
    <inkscape:grid
       type="xygrid"
       id="grid870"
       originx="0"
       originy="-7.6293945e-06"
       spacingy="1"
       spacingx="1"
       units="px"
       visible="true" />
  </sodipodi:namedview>
  <g
     id="computer"
     style="fill:url(#linearGradient3);fill-opacity:1"
     transform="translate(32,-21.999996)">
    <rect
       style="opacity:0.00100002;fill:url(#linearGradient4);fill-opacity:1"
       width="32"
       height="32"
       x="-32"
       y="21.999996"
       id="rect12" />
    <path
       class="st3"
       d="m -8,39.234832 c 0,0.968686 -0.7619057,1.76516 -1.6885517,1.76516 H -22.311454 C -23.238097,40.999992 -24,40.203518 -24,39.234832 v -7.469667 c 0,-0.968698 0.761903,-1.765173 1.688546,-1.765173 H -9.6885517 C -8.7619057,29.999992 -8,30.796467 -8,31.765165 Z m -1.4620394,-0.08613 V 31.76515 c 0,-0.215263 -0.1441393,-0.365953 -0.3500604,-0.365953 H -22.290864 c -0.205921,0 -0.350062,0.172211 -0.350062,0.365953 v 7.383564 c 0,0.215256 0.164737,0.365947 0.350062,0.365947 h 12.4787642 c 0.2059211,0.02154 0.3500604,-0.150691 0.3500604,-0.365947 z"
       id="path4-3"
       style="fill:url(#linearGradient1);fill-opacity:1;stroke-width:0.210547" />
    <path
       class="st3"
       d="m -19.343361,43.149988 c 0,-0.624993 0.480896,-1.149996 1.053387,-1.149996 h 4.579947 c 0.572493,0 1.053383,0.525003 1.053383,1.149996 v 0.850004 h -6.686717 z"
       id="path6"
       style="fill:url(#linearGradient5);fill-opacity:1;stroke-width:0.239273" />
    <path
       d="m -15.978245,25.000095 c 0,0 0.29822,0.01311 0.857012,0.0373 0.139523,0.0095 0.296543,0.0043 0.466668,0.02858 0.170127,0.02491 0.356053,0.0518 0.557102,0.081 0.200388,0.03264 0.418588,0.05349 0.646212,0.10185 0.226606,0.05449 0.467331,0.112304 0.721518,0.173499 1.007638,0.265651 2.227431,0.68828 3.4801657,1.463929 1.250049,0.767928 2.560952,1.845834 3.674835,3.321824 1.098756,1.476324 2.000485,3.344339 2.406631,5.492088 0.05991,0.266614 0.07302,0.540963 0.111289,0.815656 l 0.04833,0.415226 0.02394,0.209125 0.0054,0.241063 c 0.0032,0.534926 0.04984,1.03353 -0.02589,1.658552 -0.03022,0.296878 -0.04171,0.611241 -0.09306,0.903081 -0.05482,0.291161 -0.109937,0.583678 -0.165078,0.877856 -0.04442,0.298898 -0.145917,0.582661 -0.227609,0.875841 l -0.131447,0.438762 c -0.04031,0.148271 -0.09243,0.292506 -0.154315,0.433041 -0.421282,1.160618 -1.059756,2.258361 -1.816912,3.295249 -0.20173,0.249138 -0.407504,0.497597 -0.617301,0.744721 -0.201383,0.25552 -0.451868,0.464654 -0.678469,0.699668 l -0.350685,0.343604 c -0.119023,0.112635 -0.251154,0.210139 -0.3769,0.31605 -0.256191,0.206098 -0.510368,0.418248 -0.780017,0.609893 -1.082273,0.767583 -2.2976967,1.36335 -3.5790097,1.791694 -1.288716,0.419593 -2.6477,0.589725 -4.001631,0.630739 l -0.308651,-0.01349 -0.223251,-0.01276 -0.446829,-0.02551 -0.223245,-0.01276 c -0.07185,-0.0032 -0.14794,-0.0083 -0.242411,-0.02391 l -0.533922,-0.07909 -0.532895,-0.08376 -0.265603,-0.04367 -0.246781,-0.06291 c -0.328492,-0.0834 -0.653608,-0.177856 -0.97873,-0.268299 -1.280983,-0.430355 -2.499089,-1.02142 -3.581369,-1.790345 -0.270313,-0.190638 -0.52281,-0.405811 -0.781701,-0.608221 -0.125747,-0.105883 -0.258217,-0.20374 -0.37724,-0.316375 l -0.351007,-0.343947 c -0.226941,-0.235355 -0.47743,-0.444475 -0.678818,-0.700332 -0.206767,-0.248803 -0.413206,-0.49693 -0.618965,-0.744052 -0.756489,-1.038566 -1.397656,-2.13565 -1.818595,-3.297606 -0.416576,-1.157918 -0.701012,-2.337702 -0.768595,-3.503698 -0.07334,-0.578292 -0.0336,-1.155575 -0.02963,-1.717725 l 0.0075,-0.251829 0.0239,-0.19534 0.04775,-0.388998 c 0.03792,-0.263596 0.04866,-0.50433 0.108599,-0.781706 0.0595,-0.274017 0.11869,-0.546348 0.17719,-0.816666 0.03195,-0.133145 0.0545,-0.269979 0.09455,-0.397072 l 0.124069,-0.377236 c 0.0827,-0.248797 0.164411,-0.49558 0.24577,-0.740342 0.0988,-0.238376 0.206779,-0.470364 0.30831,-0.701351 0.183576,-0.470028 0.447168,-0.892982 0.679494,-1.315611 0.109613,-0.215171 0.254509,-0.407487 0.388331,-0.602162 0.133478,-0.194327 0.265268,-0.386645 0.396059,-0.576945 1.114893,-1.475984 2.426808,-2.55355 3.677523,-3.320796 1.253024,-0.775642 2.473148,-1.19726 3.480786,-1.463209 0.254178,-0.06083 0.494906,-0.118679 0.721516,-0.173151 0.227618,-0.04845 0.445487,-0.06929 0.645868,-0.10184 0.20073,-0.02923 0.386648,-0.05618 0.556775,-0.08099 0.170463,-0.02383 0.327811,-0.01879 0.467009,-0.02858 0.559593,-0.02461 0.857823,-0.03771 0.857823,-0.03771 z m 0,0 c 0,0 -0.297882,0.01718 -0.856341,0.04911 -0.139191,0.01182 -0.29621,0.0086 -0.465998,0.03499 -0.169788,0.02718 -0.354715,0.0565 -0.55475,0.08843 -0.199383,0.03533 -0.416575,0.05887 -0.642515,0.110276 -0.223926,0.06154 -0.461622,0.126758 -0.71311,0.19568 -0.991162,0.302933 -2.188093,0.767245 -3.356102,1.620561 -1.171719,0.831118 -2.340406,2.000815 -3.223297,3.505044 -0.421957,0.761525 -0.811291,1.578866 -1.062451,2.470853 -0.0619,0.222904 -0.129442,0.445146 -0.187603,0.671084 -0.04098,0.230307 -0.08203,0.462295 -0.123729,0.695965 l -0.0629,0.349324 c -0.01952,0.11667 -0.01952,0.23199 -0.03025,0.347647 -0.01745,0.229641 -0.03524,0.460952 -0.0531,0.693949 -0.0202,0.2293 0.004,0.508023 0.003,0.762535 l 0.0085,0.392031 0.004,0.197027 c -6.77e-4,0.04643 0.001,-0.03533 0.002,-0.01847 l 0.003,0.0229 0.006,0.04575 0.01205,0.09141 c 0.07061,0.487505 0.101505,0.980398 0.238355,1.46186 0.190081,0.975697 0.59185,1.911042 1.042051,2.809413 0.125066,0.21854 0.250817,0.438091 0.376893,0.658649 0.127423,0.218201 0.2915,0.416234 0.43069,0.627711 l 0.217589,0.312936 0.247447,0.291837 c 0.168884,0.191308 0.322882,0.394382 0.501074,0.577282 0.700343,0.746397 1.518683,1.373777 2.378719,1.928528 l 0.672772,0.373544 c 0.218208,0.135825 0.468684,0.209458 0.697647,0.323441 l 0.34956,0.160032 c 0.118014,0.04979 0.242753,0.08339 0.363452,0.126421 0.244425,0.078 0.483134,0.173816 0.730594,0.240729 0.250485,0.05788 0.501299,0.111624 0.749761,0.17617 l 0.186264,0.04709 0.175846,0.02354 0.351005,0.05102 0.350336,0.0561 c 0.0521,0.01239 0.125069,0.01619 0.202405,0.01851 l 0.223571,0.01062 0.447169,0.01949 0.22359,0.01062 0.111623,0.0054 0.05579,0.0037 0.02785,0.0018 c -0.0286,-3.37e-4 0.103542,0.0037 -0.0572,-6.74e-4 1.032187,-0.01509 2.055292,-0.15365 3.049142,-0.416572 0.247799,-0.06685 0.486504,-0.163062 0.730933,-0.241065 0.120699,-0.043 0.245438,-0.07692 0.363451,-0.126753 l 0.350015,-0.15934 c 0.230985,-0.110272 0.48046,-0.186931 0.699004,-0.322092 l 0.673106,-0.373861 c 0.8640737,-0.551051 1.6787297,-1.183808 2.3827587,-1.927523 0.178199,-0.183223 0.332187,-0.386302 0.500967,-0.577944 l 0.247449,-0.292172 0.216527,-0.313354 c 0.140201,-0.21114 0.30461,-0.409174 0.432039,-0.628055 0.126079,-0.22055 0.25182,-0.440442 0.3769,-0.65932 0.139529,-0.214171 0.213487,-0.455897 0.326798,-0.681507 0.100828,-0.23031 0.223917,-0.454225 0.292507,-0.694957 0.08176,-0.238036 0.162731,-0.475069 0.243421,-0.711097 0.07876,-0.236357 0.114308,-0.464309 0.17584,-0.697311 0.134817,-0.434728 0.172819,-1.006288 0.242077,-1.521039 l 0.01202,-0.0982 0.0065,-0.04911 0.0032,-0.02454 c 0.0022,-0.01749 -0.001,0.06459 0,0.01881 l 0.0044,-0.18324 0.0098,-0.365799 c 0,-0.243085 0.02622,-0.488522 0.0065,-0.728244 -0.08103,-1.931227 -0.647888,-3.760577 -1.527423,-5.264134 -0.883577,-1.504224 -2.05361,-2.673586 -3.225985,-3.503696 -1.1683547,-0.852981 -2.3659507,-1.31662 -3.3567877,-1.619552 -0.251484,-0.06894 -0.489186,-0.134149 -0.713109,-0.195344 -0.226276,-0.05148 -0.443134,-0.07502 -0.642502,-0.109946 -0.200048,-0.0319 -0.38531,-0.06154 -0.554759,-0.08843 -0.169792,-0.0262 -0.32714,-0.02322 -0.46633,-0.03493 -0.55879,-0.0319 -0.856675,-0.04911 -0.856675,-0.04911 z"
       id="path2-3-3"
       style="fill:url(#linearGradient6);fill-opacity:1;stroke-width:0.336215" />
  </g>
  <g
     id="22-22-computer"
     transform="translate(32,-21.999996)">
    <rect
       style="opacity:0.00100002"
       width="22"
       height="22"
       x="-32"
       y="-1.1368684e-13"
       id="rect7" />
    <path
       class="st3"
       d="m -15,11.71624 c 0,0.704502 -0.571426,1.283761 -1.266409,1.283761 h -9.46718 C -26.428576,13.000001 -27,12.420742 -27,11.71624 V 6.2837575 C -27,5.5792578 -26.428576,5 -25.733589,5 h 9.46718 C -15.571426,5 -15,5.5792578 -15,6.2837575 Z m -1.096528,-0.0626 V 6.2838074 c 0,-0.1565598 -0.108105,-0.2661482 -0.26254,-0.2661482 h -9.359083 c -0.15444,0 -0.262548,0.1252458 -0.262548,0.2661482 V 11.65367 c 0,0.156552 0.123557,0.266142 0.262548,0.266142 h 9.359083 c 0.154435,0.01569 0.26254,-0.10959 0.26254,-0.266142 z"
       id="path4-3-3"
       style="fill:url(#linearGradient10);fill-opacity:1;stroke-width:0.155496" />
    <path
       class="st3"
       d="M -23.663803,14.574994 C -23.663803,14.2625 -23.293884,14 -22.853503,14 h 3.523051 c 0.440379,0 0.8103,0.2625 0.8103,0.574994 v 0.424998 h -5.143651 z"
       id="path6-6"
       style="fill:url(#linearGradient12);fill-opacity:1;stroke-width:0.14839" />
    <path
       d="m -20.983236,0.99999695 c 0,0 0.229401,0.01008 0.659243,0.02869 0.107326,0.0073 0.22811,0.0033 0.358979,0.02198 0.130864,0.01917 0.273883,0.03984 0.428538,0.06231 0.154144,0.02511 0.32199,0.04115 0.497088,0.07835 0.174312,0.04192 0.359486,0.08639 0.555018,0.133461 0.775109,0.204352 1.713414,0.529452 2.677058,1.126108 0.961581,0.590717 1.969971,1.419878 2.826807,2.5552599 0.8452,1.135638 1.538842,2.572578 1.851263,4.2246921 0.04611,0.205093 0.05622,0.416133 0.08565,0.627436 l 0.03718,0.319406 0.0184,0.160866 0.0041,0.185434 c 0.0025,0.411481 0.03832,0.795027 -0.0199,1.275818 -0.02326,0.228369 -0.0321,0.470184 -0.07159,0.694676 -0.04222,0.223976 -0.08455,0.448981 -0.126983,0.675275 -0.0342,0.229922 -0.112241,0.448202 -0.175081,0.673728 l -0.101115,0.337512 c -0.031,0.114057 -0.07109,0.225003 -0.118703,0.333108 -0.324064,0.892787 -0.815199,1.737211 -1.39763,2.53482 -0.155177,0.191642 -0.313466,0.382765 -0.474849,0.572866 -0.154908,0.196554 -0.347591,0.357424 -0.5219,0.538211 l -0.269761,0.264309 c -0.09158,0.08663 -0.193197,0.161642 -0.289925,0.243115 -0.19707,0.158536 -0.392592,0.321728 -0.600011,0.469147 -0.832521,0.590453 -1.76747,1.048739 -2.753096,1.37824 -0.99132,0.322757 -2.036698,0.453631 -3.078184,0.485182 l -0.237424,-0.01036 -0.171734,-0.0095 -0.343715,-0.01964 -0.171728,-0.0095 c -0.05528,-0.0025 -0.113802,-0.0063 -0.186471,-0.01838 l -0.410715,-0.06084 -0.409917,-0.06443 -0.204312,-0.0336 -0.189828,-0.04838 c -0.252693,-0.0642 -0.502779,-0.136812 -0.752879,-0.206387 -0.985372,-0.331039 -1.92238,-0.785708 -2.754908,-1.377193 -0.207935,-0.146643 -0.402167,-0.312159 -0.601309,-0.467856 -0.09669,-0.08148 -0.198632,-0.15673 -0.290185,-0.243373 l -0.270008,-0.264577 c -0.174571,-0.181042 -0.367259,-0.341902 -0.52217,-0.538717 -0.159053,-0.191386 -0.317853,-0.382255 -0.47613,-0.572346 -0.581916,-0.798904 -1.075124,-1.642817 -1.398925,-2.536634 -0.320447,-0.890713 -0.539246,-1.798242 -0.59123,-2.695164 -0.05641,-0.44484 -0.02581,-0.888909 -0.02277,-1.321332 l 0.0056,-0.193715 0.01837,-0.150264 0.03673,-0.299228 c 0.0292,-0.202768 0.03744,-0.387951 0.08357,-0.601314 0.04574,-0.210781 0.09131,-0.420272 0.136301,-0.628208 0.02456,-0.102421 0.0419,-0.207677 0.07273,-0.305444 l 0.09545,-0.290181 c 0.06363,-0.191382 0.126468,-0.381218 0.189052,-0.569495 0.076,-0.183369 0.15906,-0.361821 0.237162,-0.539504 0.141214,-0.36156 0.343978,-0.686911 0.522691,-1.012013 0.08429,-0.165515 0.195775,-0.313452 0.298717,-0.463204 0.102671,-0.149483 0.204053,-0.297419 0.304661,-0.443806 0.857614,-1.135375 1.866782,-1.964275 2.828877,-2.554467 0.963866,-0.596649 1.902429,-0.920972 2.677539,-1.12555 0.19552,-0.04679 0.380697,-0.09129 0.555015,-0.133193 0.175089,-0.03727 0.342682,-0.0533 0.496821,-0.07834 0.154408,-0.02248 0.297424,-0.04322 0.428289,-0.0623 0.131127,-0.01833 0.252163,-0.01445 0.359242,-0.02198 0.430372,-0.01904 0.659782,-0.02913 0.659782,-0.02913 z m 0,0 c 0,0 -0.229141,0.0132198 -0.658727,0.0377799 -0.107069,0.0091 -0.227854,0.0066 -0.358459,0.02692 -0.130606,0.02091 -0.272861,0.04346 -0.426736,0.06802 -0.153374,0.02718 -0.320443,0.04528 -0.494244,0.08483 -0.172249,0.04734 -0.355094,0.09751 -0.54855,0.150524 -0.762434,0.233026 -1.683152,0.590191 -2.581625,1.2465906 -0.901326,0.6393239 -1.800318,1.5390945 -2.47947,2.6961984 -0.324583,0.58579 -0.624071,1.214519 -0.817272,1.9006621 -0.04763,0.1714669 -0.09959,0.342421 -0.144313,0.5162199 -0.03155,0.177161 -0.06311,0.3556162 -0.09521,0.5353598 l -0.04837,0.268715 c -0.01503,0.08977 -0.01503,0.1784529 -0.02328,0.2674269 -0.01344,0.1766419 -0.02712,0.354576 -0.04084,0.5338081 -0.01555,0.176385 0.003,0.390788 0.0024,0.5865639 l 0.0065,0.3015655 0.0031,0.151554 c -5.2e-4,0.03573 7.68e-4,-0.02719 0.002,-0.01425 l 0.0024,0.01764 0.0046,0.0352 0.0089,0.07031 c 0.05432,0.375005 0.0781,0.754154 0.183352,1.124509 0.146219,0.75054 0.455273,1.470038 0.801583,2.161095 0.0962,0.168108 0.192935,0.336996 0.289918,0.506653 0.09802,0.167851 0.224234,0.320187 0.3313,0.482859 l 0.167379,0.240721 0.190344,0.224485 c 0.129913,0.147165 0.248371,0.303378 0.385445,0.444072 0.538728,0.574151 1.16822,1.056752 1.829789,1.483483 l 0.517673,0.287348 c 0.167852,0.104486 0.360526,0.161124 0.536654,0.248803 l 0.269123,0.1231 c 0.09075,0.03828 0.186733,0.06419 0.279579,0.09728 0.188022,0.06 0.371647,0.1337 0.561999,0.185177 0.192683,0.04453 0.385614,0.08585 0.576742,0.135512 l 0.14328,0.03625 0.135269,0.01814 0.270006,0.03927 0.269491,0.04318 c 0.0401,0.0092 0.09621,0.01242 0.155693,0.01425 l 0.171981,0.0078 0.343974,0.01497 0.171993,0.0078 0.08584,0.0041 0.04295,0.003 0.02144,0.0018 c -0.022,-2.62e-4 0.07966,0.0029 -0.044,-5.19e-4 0.79399,-0.01163 1.580997,-0.118193 2.345498,-0.32044 0.190618,-0.05145 0.374237,-0.125435 0.562261,-0.185437 0.09281,-0.03308 0.1888,-0.05919 0.279577,-0.09752 l 0.269243,-0.12257 c 0.177684,-0.08478 0.369588,-0.143795 0.537698,-0.247764 l 0.517754,-0.287658 c 0.664672,-0.423888 1.291337,-0.910627 1.832896,-1.482717 0.13708,-0.140941 0.255532,-0.297157 0.385361,-0.444574 l 0.190348,-0.224749 0.166557,-0.241041 c 0.107849,-0.162416 0.234317,-0.314754 0.33234,-0.483123 0.09699,-0.169656 0.193708,-0.338802 0.289924,-0.507169 0.107331,-0.164751 0.164223,-0.350693 0.251384,-0.52424 0.07758,-0.177162 0.172248,-0.349406 0.225005,-0.534587 0.06291,-0.183102 0.125183,-0.365437 0.18725,-0.546998 0.06056,-0.181812 0.08792,-0.357159 0.135264,-0.536393 0.103705,-0.334409 0.132936,-0.774071 0.186215,-1.170035 l 0.0089,-0.07557 0.0048,-0.03774 0.0025,-0.01891 c 0.0021,-0.01347 -7.66e-4,0.0497 0,0.01448 l 0.0031,-0.140954 0.0072,-0.2813842 c 0,-0.18699 0.02022,-0.375789 0.0047,-0.560192 -0.06232,-1.485564 -0.498377,-2.892762 -1.174941,-4.049349 -0.679678,-1.1571 -1.579707,-2.056613 -2.481538,-2.695162 -0.898738,-0.656142 -1.81997,-1.012788 -2.582153,-1.245814 -0.193453,-0.05303 -0.376301,-0.103192 -0.548552,-0.150266 -0.174054,-0.0396 -0.340872,-0.05771 -0.494234,-0.08458 -0.153884,-0.02454 -0.296392,-0.04734 -0.426739,-0.06803 -0.130608,-0.02016 -0.251647,-0.01786 -0.358714,-0.02687 -0.429843,-0.02454 -0.658983,-0.03777 -0.658983,-0.03777 z"
       id="path2-3-3-7"
       style="fill:url(#linearGradient8);fill-opacity:1;stroke-width:0.25863" />
  </g>
  <g
     id="computer-laptop"
     transform="translate(32)">
    <rect
       style="opacity:0.00100002"
       width="32"
       height="32"
       x="0"
       y="9.2651362e-08"
       id="rect17" />
    <path
       class="st3"
       d="M 23.999999,17.23484 C 23.999999,18.203526 23.238094,19 22.311448,19 H 9.6885454 c -0.926643,0 -1.688546,-0.796474 -1.688546,-1.76516 V 9.7651729 C 7.9999994,8.796475 8.7619024,8 9.6885454,8 H 22.311448 c 0.926646,0 1.688551,0.796475 1.688551,1.7651729 z M 22.53796,17.14871 V 9.7651579 C 22.53796,9.549895 22.393821,9.399205 22.1879,9.399205 H 9.709135 c -0.2059206,0 -0.3500616,0.172211 -0.3500616,0.3659529 v 7.3835641 c 0,0.215256 0.164737,0.365947 0.3500616,0.365947 H 22.1879 c 0.205921,0.02154 0.35006,-0.150691 0.35006,-0.365947 z"
       id="path4-3-1"
       style="fill:url(#linearGradient1-2);fill-opacity:1;stroke-width:0.210547" />
    <path
       class="st3"
       d="M 12.656638,21.149996 C 12.656638,20.525003 13.137534,20 13.710025,20 h 4.579947 c 0.572493,0 1.053383,0.525003 1.053383,1.149996 V 22 h -6.686717 z"
       id="path6-2"
       style="fill:url(#linearGradient5-7);fill-opacity:1;stroke-width:0.239273" />
    <path
       d="m 16.021754,3.000103 c 0,0 0.29822,0.01311 0.857012,0.0373 0.139523,0.0095 0.296543,0.0043 0.466668,0.02858 0.170127,0.02491 0.356053,0.0518 0.557102,0.081 0.200388,0.03264 0.418588,0.05349 0.646212,0.10185 0.226606,0.05449 0.467331,0.112304 0.721518,0.173499 1.007638,0.265651 2.227431,0.68828 3.480166,1.463929 1.250049,0.767928 2.560952,1.845834 3.674835,3.321824 1.098756,1.476324 2.000485,3.344339 2.406631,5.492088 0.05991,0.266614 0.07302,0.540963 0.111289,0.815656 l 0.04833,0.415226 0.02394,0.209125 0.0054,0.241063 c 0.0032,0.534926 0.04984,1.03353 -0.02589,1.658552 -0.03022,0.296878 -0.04171,0.611241 -0.09306,0.903081 -0.05482,0.291161 -0.109937,0.583678 -0.165078,0.877856 -0.04442,0.298898 -0.145917,0.582661 -0.227609,0.875841 l -0.131447,0.438762 c -0.04031,0.148271 -0.09243,0.292506 -0.154315,0.433041 -0.421282,1.160618 -1.059756,2.258361 -1.816912,3.295249 -0.20173,0.249138 -0.407504,0.497597 -0.617301,0.744721 -0.201383,0.25552 -0.451868,0.464654 -0.678469,0.699668 l -0.350685,0.343604 c -0.119023,0.112635 -0.251154,0.210139 -0.3769,0.31605 -0.256191,0.206098 -0.510368,0.418248 -0.780017,0.609893 -1.082273,0.767583 -2.297697,1.36335 -3.57901,1.791694 -1.288716,0.419593 -2.6477,0.589725 -4.001631,0.630739 l -0.308651,-0.01349 -0.223251,-0.01276 -0.446829,-0.02551 -0.223245,-0.01276 c -0.07185,-0.0032 -0.14794,-0.0083 -0.242411,-0.02391 l -0.533922,-0.07909 -0.532895,-0.08376 -0.265603,-0.04367 -0.246781,-0.06291 c -0.328492,-0.0834 -0.653608,-0.177856 -0.97873,-0.268299 -1.280983,-0.430355 -2.4990886,-1.02142 -3.5813686,-1.790345 -0.270313,-0.190638 -0.52281,-0.405811 -0.781701,-0.608221 -0.125747,-0.105883 -0.258217,-0.20374 -0.37724,-0.316375 l -0.351007,-0.343947 c -0.226941,-0.235355 -0.47743,-0.444475 -0.678818,-0.700332 -0.206767,-0.248803 -0.413206,-0.49693 -0.618965,-0.744052 -0.756489,-1.038566 -1.397656,-2.13565 -1.818595,-3.297606 -0.416576,-1.157918 -0.701012,-2.337702 -0.768595,-3.503698 -0.07334,-0.578292 -0.0336,-1.155575 -0.02963,-1.717725 l 0.0075,-0.251829 0.0239,-0.19534 0.04775,-0.388998 c 0.03792,-0.263596 0.04866,-0.50433 0.108599,-0.781706 0.0595,-0.274017 0.11869,-0.546348 0.17719,-0.816666 0.03195,-0.133145 0.0545,-0.269979 0.09455,-0.397072 l 0.124069,-0.377236 c 0.0827,-0.248797 0.164411,-0.49558 0.24577,-0.740342 0.0988,-0.238376 0.206779,-0.470364 0.30831,-0.701351 0.183576,-0.470028 0.447168,-0.892982 0.679494,-1.315611 C 4.9410404,9.170212 5.0859364,8.977896 5.2197584,8.783221 5.3532364,8.588894 5.4850264,8.396576 5.6158174,8.206276 6.7307104,6.730292 8.0426254,5.652726 9.2933404,4.88548 10.546364,4.109838 11.766488,3.68822 12.774126,3.422271 13.028304,3.361441 13.269032,3.303592 13.495642,3.24912 13.72326,3.20067 13.941129,3.17983 14.14151,3.14728 14.34224,3.11805 14.528158,3.0911 14.698285,3.06629 14.868748,3.04246 15.026096,3.0475 15.165294,3.03771 15.724887,3.0131 16.023117,3 16.023117,3 Z m 0,0 c 0,0 -0.297882,0.01718 -0.856341,0.04911 -0.139191,0.01182 -0.29621,0.0086 -0.465998,0.03499 -0.169788,0.02718 -0.354715,0.0565 -0.55475,0.08843 -0.199383,0.03533 -0.416575,0.05887 -0.642515,0.110276 -0.223926,0.06154 -0.461622,0.126758 -0.71311,0.19568 -0.991162,0.302933 -2.188093,0.767245 -3.3561016,1.620561 -1.171719,0.831118 -2.340406,2.000815 -3.223297,3.505044 -0.421957,0.761525 -0.811291,1.578866 -1.062451,2.470853 -0.0619,0.222904 -0.129442,0.445146 -0.187603,0.671084 -0.04098,0.230307 -0.08203,0.462295 -0.123729,0.695965 l -0.0629,0.349324 c -0.01952,0.11667 -0.01952,0.23199 -0.03025,0.347647 -0.01745,0.229641 -0.03524,0.460952 -0.0531,0.693949 -0.0202,0.2293 0.004,0.508023 0.003,0.762535 l 0.0085,0.392031 0.004,0.197027 c -6.77e-4,0.04643 10e-4,-0.03533 0.002,-0.01847 l 0.003,0.0229 0.006,0.04575 0.01205,0.09141 c 0.07061,0.487505 0.101505,0.980398 0.238355,1.46186 0.190081,0.975697 0.59185,1.911042 1.042051,2.809413 0.125066,0.21854 0.250817,0.438091 0.376893,0.658649 0.127423,0.218201 0.2915,0.416234 0.43069,0.627711 l 0.217589,0.312936 0.247447,0.291837 c 0.168884,0.191308 0.322882,0.394382 0.501074,0.577282 0.700343,0.746397 1.518683,1.373777 2.3787186,1.928528 l 0.672772,0.373544 c 0.218208,0.135825 0.468684,0.209458 0.697647,0.323441 l 0.34956,0.160032 c 0.118014,0.04979 0.242753,0.08339 0.363452,0.126421 0.244425,0.078 0.483134,0.173816 0.730594,0.240729 0.250485,0.05788 0.501299,0.111624 0.749761,0.17617 l 0.186264,0.04709 0.175846,0.02354 0.351005,0.05102 0.350336,0.0561 c 0.0521,0.01239 0.125069,0.01619 0.202405,0.01851 l 0.223571,0.01062 0.447169,0.01949 0.22359,0.01062 0.111623,0.0054 0.05579,0.0037 0.02785,0.0018 c -0.0286,-3.37e-4 0.103542,0.0037 -0.0572,-6.74e-4 1.032187,-0.01509 2.055292,-0.15365 3.049142,-0.416572 0.247799,-0.06685 0.486504,-0.163062 0.730933,-0.241065 0.120699,-0.043 0.245438,-0.07692 0.363451,-0.126753 l 0.350015,-0.15934 c 0.230985,-0.110272 0.48046,-0.186931 0.699004,-0.322092 l 0.673106,-0.373861 c 0.864074,-0.551051 1.67873,-1.183808 2.382759,-1.927523 0.178199,-0.183223 0.332187,-0.386302 0.500967,-0.577944 l 0.247449,-0.292172 0.216527,-0.313354 c 0.140201,-0.21114 0.30461,-0.409174 0.432039,-0.628055 0.126079,-0.22055 0.25182,-0.440442 0.3769,-0.65932 0.139529,-0.214171 0.213487,-0.455897 0.326798,-0.681507 0.100828,-0.23031 0.223917,-0.454225 0.292507,-0.694957 0.08176,-0.238036 0.162731,-0.475069 0.243421,-0.711097 0.07876,-0.236357 0.114308,-0.464309 0.17584,-0.697311 0.134817,-0.434728 0.172819,-1.006288 0.242077,-1.521039 l 0.01202,-0.0982 0.0065,-0.04911 0.0032,-0.02454 c 0.0022,-0.01749 -0.001,0.06459 0,0.01881 l 0.0044,-0.18324 0.0098,-0.365799 c 0,-0.243085 0.02622,-0.488522 0.0065,-0.728244 C 27.287336,11.936456 26.720478,10.107106 25.840943,8.603549 24.957366,7.099325 23.787333,5.929963 22.614958,5.099853 21.446603,4.246872 20.249007,3.783233 19.25817,3.480301 19.006686,3.411361 18.768984,3.346152 18.545061,3.284957 18.318785,3.233477 18.101927,3.209937 17.902559,3.175011 c -0.200048,-0.0319 -0.38531,-0.06154 -0.554759,-0.08843 -0.169792,-0.0262 -0.32714,-0.02322 -0.46633,-0.03493 -0.55879,-0.0319 -0.856675,-0.04911 -0.856675,-0.04911 z"
       id="path2-3-3-9"
       style="fill:url(#linearGradient6-6);fill-opacity:1;stroke-width:0.336215" />
  </g>
  <g
     id="22-22-computer-laptop"
     transform="translate(32,-21.999996)">
    <rect
       style="opacity:0.00100002"
       width="22"
       height="22"
       x="0"
       y="2.6757812e-06"
       id="rect2" />
    <path
       class="st3"
       d="m 17,11.71624 c 0,0.704502 -0.571426,1.283761 -1.266409,1.283761 H 6.2664107 c -0.694987,0 -1.266411,-0.579259 -1.266411,-1.283761 V 6.283757 C 4.9999997,5.579258 5.5714237,5 6.2664107,5 H 15.733591 C 16.428574,5 17,5.579258 17,6.283757 Z m -1.096528,-0.0626 V 6.283807 c 0,-0.156559 -0.108105,-0.266148 -0.26254,-0.266148 H 6.2818487 c -0.15444,0 -0.262548,0.125246 -0.262548,0.266148 v 5.369863 c 0,0.156552 0.123557,0.266142 0.262548,0.266142 h 9.3590833 c 0.154435,0.01569 0.26254,-0.10959 0.26254,-0.266142 z"
       id="path4-3-3-5"
       style="fill:url(#linearGradient10-3);fill-opacity:1;stroke-width:0.155496" />
    <path
       class="st3"
       d="M 8.3361967,14.574994 C 8.3361967,14.2625 8.7061157,14 9.1464967,14 h 3.5230513 c 0.440379,0 0.8103,0.2625 0.8103,0.574994 v 0.424998 H 8.3361967 Z"
       id="path6-6-0"
       style="fill:url(#linearGradient12-4);fill-opacity:1;stroke-width:0.14839" />
    <path
       d="m 11.016764,0.999997 c 0,0 0.229401,0.01008 0.659243,0.02869 0.107326,0.0073 0.22811,0.0033 0.358979,0.02198 0.130864,0.01917 0.273883,0.03984 0.428538,0.06231 0.154144,0.02511 0.32199,0.04115 0.497088,0.07835 0.174312,0.04192 0.359486,0.08639 0.555018,0.133461 0.775109,0.204352 1.713414,0.529452 2.677058,1.126108 0.961581,0.590717 1.969971,1.419878 2.826807,2.55526 0.8452,1.135638 1.538842,2.572578 1.851263,4.224692 0.04611,0.205093 0.05622,0.416133 0.08565,0.627436 l 0.03718,0.319406 0.0184,0.160866 0.0041,0.185434 c 0.0025,0.411481 0.03832,0.795027 -0.0199,1.275818 -0.02326,0.228369 -0.0321,0.470184 -0.07159,0.694676 -0.04222,0.223976 -0.08455,0.448981 -0.126983,0.675275 -0.0342,0.229922 -0.112241,0.448202 -0.175081,0.673728 l -0.101115,0.337512 c -0.031,0.114057 -0.07109,0.225003 -0.118703,0.333108 -0.324064,0.892787 -0.815199,1.737211 -1.39763,2.53482 -0.155177,0.191642 -0.313466,0.382765 -0.474849,0.572866 -0.154908,0.196554 -0.347591,0.357424 -0.5219,0.538211 l -0.269761,0.264309 c -0.09158,0.08663 -0.193197,0.161642 -0.289925,0.243115 -0.19707,0.158536 -0.392592,0.321728 -0.600011,0.469147 -0.832521,0.590453 -1.76747,1.048739 -2.753096,1.37824 -0.99132,0.322757 -2.036698,0.453631 -3.078184,0.485182 l -0.237424,-0.01036 -0.171734,-0.0095 -0.343715,-0.01964 -0.171728,-0.0095 c -0.05528,-0.0025 -0.113802,-0.0063 -0.186471,-0.01838 l -0.4107153,-0.06084 -0.409917,-0.06443 -0.204312,-0.0336 -0.189828,-0.04838 c -0.252693,-0.0642 -0.502779,-0.136812 -0.752879,-0.206387 -0.985372,-0.331039 -1.92238,-0.785708 -2.754908,-1.377193 -0.207935,-0.146643 -0.402167,-0.312159 -0.601309,-0.467856 -0.09669,-0.08148 -0.198632,-0.15673 -0.290185,-0.243373 l -0.270008,-0.264577 c -0.174571,-0.181042 -0.367259,-0.341902 -0.52217,-0.538717 -0.159053,-0.191386 -0.317853,-0.382255 -0.47613,-0.572346 -0.581916,-0.798904 -1.075124,-1.642817 -1.398925,-2.536634 -0.320447,-0.890713 -0.539246,-1.798242 -0.59123,-2.695164 -0.05641,-0.44484 -0.02581,-0.888909 -0.02277,-1.321332 l 0.0056,-0.193715 0.01837,-0.150264 0.03673,-0.299228 c 0.0292,-0.202768 0.03744,-0.387951 0.08357,-0.601314 0.04574,-0.210781 0.09131,-0.420272 0.136301,-0.628208 0.02456,-0.102421 0.0419,-0.207677 0.07273,-0.305444 l 0.09545,-0.290181 c 0.06363,-0.191382 0.126468,-0.381218 0.189052,-0.569495 0.076,-0.183369 0.15906,-0.361821 0.237162,-0.539504 0.141214,-0.36156 0.343978,-0.686911 0.522691,-1.012013 0.08429,-0.165515 0.195775,-0.313452 0.298717,-0.463204 0.102671,-0.149483 0.204053,-0.297419 0.304661,-0.443806 0.857614,-1.135375 1.866782,-1.964275 2.828877,-2.554467 0.963866,-0.596649 1.902429,-0.920972 2.677539,-1.12555 0.19552,-0.04679 0.380697,-0.09129 0.555015,-0.133193 0.175089,-0.03727 0.342682,-0.0533 0.496821,-0.07834 0.1544083,-0.02248 0.2974243,-0.04322 0.4282893,-0.0623 0.131127,-0.01833 0.252163,-0.01445 0.359242,-0.02198 0.430372,-0.01904 0.659782,-0.02913 0.659782,-0.02913 z m 0,0 c 0,0 -0.229141,0.01322 -0.658727,0.03778 -0.107069,0.0091 -0.227854,0.0066 -0.358459,0.02692 -0.130606,0.02091 -0.272861,0.04346 -0.4267363,0.06802 -0.153374,0.02718 -0.320443,0.04528 -0.494244,0.08483 -0.172249,0.04734 -0.355094,0.09751 -0.54855,0.150524 -0.762434,0.233026 -1.683152,0.590191 -2.581625,1.24659 -0.901326,0.639324 -1.800318,1.539095 -2.47947,2.696199 -0.324583,0.58579 -0.624071,1.214519 -0.817272,1.900662 -0.04763,0.171467 -0.09959,0.342421 -0.144313,0.51622 -0.03155,0.177161 -0.06311,0.355616 -0.09521,0.535359 l -0.04837,0.268715 c -0.01503,0.08977 -0.01503,0.178453 -0.02328,0.267427 -0.01344,0.176642 -0.02712,0.354576 -0.04084,0.533808 -0.01555,0.176385 0.003,0.390788 0.0024,0.586564 l 0.0065,0.301566 0.0031,0.151554 c -5.2e-4,0.03573 7.68e-4,-0.02719 0.002,-0.01425 l 0.0024,0.01764 0.0046,0.0352 0.0089,0.07031 c 0.05432,0.375005 0.0781,0.754154 0.183352,1.124509 0.146219,0.75054 0.455273,1.470038 0.801583,2.161095 0.0962,0.168108 0.192935,0.336996 0.289918,0.506653 0.09802,0.167851 0.224234,0.320187 0.3313,0.482859 l 0.167379,0.240721 0.190344,0.224485 c 0.129913,0.147165 0.248371,0.303378 0.385445,0.444072 0.538728,0.574151 1.16822,1.056752 1.829789,1.483483 l 0.517673,0.287348 c 0.167852,0.104486 0.360526,0.161124 0.536654,0.248803 l 0.269123,0.1231 c 0.09075,0.03828 0.186733,0.06419 0.279579,0.09728 0.188022,0.06 0.371647,0.1337 0.561999,0.185177 0.192683,0.04453 0.385614,0.08585 0.576742,0.135512 l 0.14328,0.03625 0.135269,0.01814 0.2700063,0.03927 0.269491,0.04318 c 0.0401,0.0092 0.09621,0.01242 0.155693,0.01425 l 0.171981,0.0078 0.343974,0.01497 0.171993,0.0078 0.08584,0.0041 0.04295,0.003 0.02144,0.0018 c -0.022,-2.62e-4 0.07966,0.0029 -0.044,-5.19e-4 0.79399,-0.01163 1.580997,-0.118193 2.345498,-0.32044 0.190618,-0.05145 0.374237,-0.125435 0.562261,-0.185437 0.09281,-0.03308 0.1888,-0.05919 0.279577,-0.09752 l 0.269243,-0.12257 c 0.177684,-0.08478 0.369588,-0.143795 0.537698,-0.247764 l 0.517754,-0.287658 c 0.664672,-0.423888 1.291337,-0.910627 1.832896,-1.482717 0.13708,-0.140941 0.255532,-0.297157 0.385361,-0.444574 l 0.190348,-0.224749 0.166557,-0.241041 c 0.107849,-0.162416 0.234317,-0.314754 0.33234,-0.483123 0.09699,-0.169656 0.193708,-0.338802 0.289924,-0.507169 0.107331,-0.164751 0.164223,-0.350693 0.251384,-0.52424 0.07758,-0.177162 0.172248,-0.349406 0.225005,-0.534587 0.06291,-0.183102 0.125183,-0.365437 0.18725,-0.546998 0.06056,-0.181812 0.08792,-0.357159 0.135264,-0.536393 0.103705,-0.334409 0.132936,-0.774071 0.186215,-1.170035 l 0.0089,-0.07557 0.0048,-0.03774 0.0025,-0.01891 c 0.0021,-0.01347 -7.66e-4,0.0497 0,0.01448 l 0.0031,-0.140954 0.0072,-0.281384 c 0,-0.18699 0.02022,-0.375789 0.0047,-0.560192 C 19.68182,7.873924 19.245763,6.466726 18.569199,5.310139 17.889521,4.153039 16.989492,3.253526 16.087661,2.614977 15.188923,1.958835 14.267691,1.602189 13.505508,1.369163 13.312055,1.316133 13.129207,1.265971 12.956956,1.218897 12.782902,1.179297 12.616084,1.161187 12.462722,1.134317 12.308838,1.109777 12.16633,1.086977 12.035983,1.066287 11.905375,1.046127 11.784336,1.048427 11.677269,1.039417 11.247426,1.014877 11.018286,1.001647 11.018286,1.001647 Z"
       id="path2-3-3-7-3"
       style="fill:url(#linearGradient8-8);fill-opacity:1;stroke-width:0.25863" />
  </g>
</svg>
