<?xml version="1.0" encoding="UTF-8" standalone="no"?>
<svg
   width="32"
   height="32"
   version="1.1"
   id="svg12"
   sodipodi:docname="compass.svg"
   inkscape:version="1.3 (0e150ed6c4, 2023-07-21)"
   xmlns:inkscape="http://www.inkscape.org/namespaces/inkscape"
   xmlns:sodipodi="http://sodipodi.sourceforge.net/DTD/sodipodi-0.dtd"
   xmlns:xlink="http://www.w3.org/1999/xlink"
   xmlns="http://www.w3.org/2000/svg"
   xmlns:svg="http://www.w3.org/2000/svg"
   xmlns:rdf="http://www.w3.org/1999/02/22-rdf-syntax-ns#"
   xmlns:cc="http://creativecommons.org/ns#"
   xmlns:dc="http://purl.org/dc/elements/1.1/">
  <g
     id="22-22-compass"
     transform="translate(32,9.9999997)"
     style="fill:url(#linearGradient9)">
    <path
       style="clip-rule:evenodd;fill:url(#linearGradient9);fill-opacity:0;fill-rule:evenodd;stroke-width:0.688964;stroke-linejoin:round;stroke-miterlimit:1.41421"
       d="M 0,0 V 22 H 22 V 0 Z"
       id="rect817-5"
       inkscape:connector-curvature="0" />
    <path
       d="m 10.83317,9.333313 c -0.353366,0.162135 -0.434348,0.593263 -0.162145,0.865467 0.21725,0.217252 0.534777,0.217252 0.752029,0 0.272203,-0.272204 0.191212,-0.703332 -0.162126,-0.865467 -0.168398,-0.07444 -0.259193,-0.07444 -0.427758,0 z"
       id="path20-3"
       style="fill:url(#linearGradient9);fill-opacity:1;stroke-width:0.00169069" />
    <path
       d="m 10.946613,14.779255 c -0.233329,0.07455 -0.353366,0.233331 -0.353366,0.457002 0,0.278795 0.126478,0.389033 0.606135,0.518723 0.145894,0.03895 0.288425,0.09724 0.317669,0.129666 0.07135,0.081 0.03894,0.181585 -0.08102,0.243132 -0.246324,0.126454 -0.58346,-0.01303 -0.58346,-0.239921 0,-0.05835 -0.01945,-0.0682 -0.162146,-0.0682 h -0.162117 v 0.113457 c 0,0.149117 0.06474,0.272364 0.207445,0.39867 0.12967,0.113441 0.278802,0.152331 0.544584,0.145898 0.362995,-0.0091 0.628938,-0.255964 0.599689,-0.557593 -0.026,-0.259344 -0.184796,-0.389035 -0.596481,-0.495886 -0.317689,-0.08099 -0.366381,-0.10702 -0.366381,-0.204232 0,-0.103802 0.08438,-0.145919 0.288434,-0.145919 0.181583,0 0.295024,0.07455 0.295024,0.191225 0,0.09076 0.04865,0.110239 0.194438,0.08424 0.119879,-0.01945 0.129685,-0.02926 0.129685,-0.126478 0,-0.13288 -0.113445,-0.30466 -0.252766,-0.385646 -0.119706,-0.07122 -0.482863,-0.103634 -0.625392,-0.0582 z"
       id="path22-6"
       style="fill:url(#linearGradient9);fill-opacity:1;stroke-width:0.00169069" />
    <path
       d="m 11.016803,1.0001081 c 0,0 0.229399,0.01 0.65923,0.02877 0.107348,0.0081 0.228116,0.0041 0.358974,0.02198 0.130859,0.019139 0.273876,0.03977 0.428544,0.06242 0.154129,0.02501 0.32199,0.04105 0.49707,0.07841 0.174323,0.041861 0.359502,0.08641 0.555009,0.1334502 0.775108,0.2043153 1.71339,0.5294062 2.677024,1.1260464 0.961569,0.5907044 1.969948,1.4198531 2.826771,2.5552195 0.845186,1.1356165 1.538812,2.5725294 1.85123,4.2246298 0.04604,0.205088 0.05615,0.41613 0.08562,0.627417 l 0.03725,0.319401 0.01837,0.160874 0.0036,0.185431 c 0.0027,0.41147 0.03832,0.795014 -0.0199,1.275799 -0.02328,0.228369 -0.03208,0.47018 -0.07164,0.694661 -0.04219,0.223972 -0.08452,0.448976 -0.12698,0.675259 -0.03417,0.229927 -0.112243,0.448196 -0.175089,0.673727 l -0.101188,0.33751 c -0.03107,0.114049 -0.07115,0.225004 -0.118708,0.333098 -0.324055,0.892771 -0.815186,1.737184 -1.397601,2.534782 -0.15518,0.191635 -0.313455,0.382761 -0.47484,0.572849 -0.154916,0.196557 -0.34759,0.357422 -0.521903,0.538198 l -0.269727,0.264316 c -0.09157,0.08659 -0.193192,0.161639 -0.289917,0.243104 -0.197072,0.158537 -0.39259,0.32173 -0.600011,0.469148 -0.832506,0.590436 -1.767438,1.048728 -2.753056,1.378211 C 13.103877,20.837586 12.058519,20.968446 11.017033,21 l -0.237421,-0.0105 -0.171724,-0.0099 -0.343707,-0.01966 -0.171734,-0.0091 c -0.05537,-0.0024 -0.113792,-0.0056 -0.186462,-0.01835 L 9.495367,20.87151 9.0854488,20.80711 8.8811324,20.77348 8.6913015,20.72512 C 8.4387389,20.660481 8.1886414,20.587831 7.9385588,20.518261 6.9531888,20.187223 6.0161936,19.732568 5.1836799,19.141081 4.9757435,18.994445 4.78152,18.828934 4.5823796,18.673229 4.4856133,18.591829 4.383754,18.516516 4.292204,18.429867 L 4.0222034,18.16529 C 3.8476262,17.984255 3.6549467,17.823396 3.5000373,17.626583 3.3409799,17.435199 3.1821836,17.244342 3.0239064,17.054238 2.4420061,16.255361 1.9488061,15.411454 1.6250084,14.517651 1.3045657,13.626959 1.0857719,12.719434 1.0337871,11.822533 0.97735465,11.37769 1.0079769,10.933637 1.0109548,10.501214 l 0.00549,-0.193699 0.0184,-0.15027 0.03678,-0.299233 c 0.029147,-0.202755 0.037454,-0.387933 0.083464,-0.601294 0.045709,-0.210784 0.091249,-0.4202663 0.1362929,-0.6282016 0.02459,-0.102434 0.041865,-0.2076785 0.072725,-0.3054357 L 1.4595059,8.0329021 C 1.523076,7.8415207 1.5859673,7.6516932 1.6485553,7.4634128 1.7245995,7.2800456 1.8076078,7.101594 1.8857137,6.9239217 2.0269201,6.562362 2.2296816,6.2370131 2.4083938,5.9119236 2.4927381,5.7463992 2.6041742,5.598469 2.7071057,5.4487277 2.8097838,5.2992433 2.911157,5.1513138 3.0117632,5.0049288 3.8693601,3.8695663 4.8785182,3.0406733 5.8406023,2.450492 6.8044974,1.8538408 7.7430434,1.529533 8.5181431,1.3249587 8.7136605,1.2781245 8.8988369,1.2336924 9.0731518,1.1917665 c 0.1750872,-0.03718 0.3426752,-0.05322 0.4968172,-0.07841 0.154401,-0.022559 0.297421,-0.043147 0.42828,-0.0624 0.13113,-0.0184 0.252158,-0.014494 0.359225,-0.02198 C 10.787622,1.010056 11.017024,1 11.017024,1 Z m 0,0 c 0,0 -0.229145,0.013129 -0.658726,0.03769 -0.107061,0.0098 -0.227845,0.00729 -0.358448,0.026949 -0.130603,0.02098 -0.272842,0.04344 -0.426735,0.06802 C 9.419541,1.1598631 9.252462,1.1779741 9.0786668,1.2176081 8.906425,1.2648859 8.7235775,1.3150758 8.5301252,1.3681305 7.7676994,1.6011511 6.8470005,1.9583191 5.9485314,2.6147066 5.0472267,3.2540219 4.1482478,4.1537736 3.4691002,5.3108654 3.1445266,5.8966477 2.8450389,6.5253599 2.6518456,7.2114983 2.6043132,7.3829607 2.5523131,7.553914 2.507533,7.7277086 2.476033,7.904867 2.444465,8.0833202 2.412411,8.2630596 L 2.363999,8.5317741 C 2.349019,8.6214561 2.349019,8.7102324 2.340789,8.7991879 2.327379,8.9758391 2.313681,9.153764 2.299918,9.33299 c -0.01549,0.176385 0.0037,0.390784 0.00339,0.586567 l 0.0064,0.301559 0.0037,0.151545 c -5.2e-4,0.03568 7.747e-4,-0.02723 0.0024,-0.01426 l 0.00291,0.01761 0.00519,0.03516 0.0099,0.07035 c 0.054061,0.375004 0.0778,0.754151 0.1831071,1.124508 0.146123,0.750527 0.45518,1.470017 0.8014773,2.161059 0.09623,0.168118 0.1929351,0.33699 0.2899195,0.506649 0.09802,0.167858 0.2242269,0.320177 0.3312955,0.482861 l 0.1665583,0.240781 0.1903455,0.224476 c 0.129829,0.147164 0.2482795,0.303371 0.3853527,0.444059 0.538711,0.574142 1.1682036,1.056737 1.8297683,1.483474 l 0.5175087,0.287324 c 0.1678455,0.104465 0.3605228,0.161121 0.5366453,0.248796 l 0.2689672,0.123113 c 0.09083,0.03831 0.1867277,0.06417 0.279575,0.09727 0.1880184,0.06 0.371643,0.133711 0.5619921,0.18518 0.1926757,0.04448 0.3856065,0.08584 0.5767325,0.135517 l 0.143278,0.03625 0.135262,0.01812 0.270002,0.03932 0.269479,0.04316 c 0.0401,0.01035 0.09622,0.01241 0.155702,0.01426 l 0.171991,0.0074 0.343968,0.01498 0.171986,0.0074 0.08584,0.004 0.04286,0.003 0.0215,0.0016 c -0.02198,-2.53e-4 0.07964,0.003 -0.04396,-5.18e-4 0.793978,-0.01163 1.580973,-0.118191 2.345461,-0.320431 0.190606,-0.05147 0.374228,-0.125433 0.562244,-0.185432 0.0929,-0.0331 0.188799,-0.05924 0.279577,-0.0975 l 0.269153,-0.122539 c 0.17767,-0.08482 0.369576,-0.143794 0.537677,-0.247762 l 0.517767,-0.287335 c 0.664674,-0.423882 1.291319,-0.910614 1.832885,-1.482691 0.137062,-0.140951 0.255508,-0.297161 0.385337,-0.444576 l 0.190351,-0.224747 0.166558,-0.241037 c 0.107845,-0.162412 0.234303,-0.314741 0.332339,-0.483108 0.09689,-0.169662 0.193698,-0.338798 0.289907,-0.507164 0.107348,-0.164741 0.164226,-0.350697 0.251383,-0.52423 0.0776,-0.177157 0.172242,-0.349399 0.225002,-0.53458 0.06294,-0.183107 0.125178,-0.365433 0.187244,-0.546988 0.06047,-0.181815 0.08792,-0.357162 0.135269,-0.536389 0.103704,-0.334401 0.132925,-0.774061 0.186209,-1.170015 l 0.01045,-0.07555 0.0046,-0.03772 0.0027,-0.01891 c 0.0016,-0.01346 -0.0012,0.04965 0,0.01449 l 0.0033,-0.140949 0.0069,-0.281386 c 0,-0.186983 0.0202,-0.37578 0.0046,-0.560179 C 19.687408,7.8752479 19.251406,6.4680726 18.574841,5.3115054 17.895163,4.1543489 16.99515,3.2548527 16.09333,2.6163076 15.194603,1.9601781 14.273384,1.6035342 13.511212,1.3705158 c -0.193442,-0.053 -0.376288,-0.1031683 -0.548545,-0.1502635 -0.174052,-0.039523 -0.340863,-0.057612 -0.494232,-0.084568 -0.153871,-0.02459 -0.296383,-0.047286 -0.426715,-0.06802 -0.130605,-0.02022 -0.251656,-0.01779 -0.358719,-0.026944 -0.429833,-0.0246 -0.65898,-0.0377 -0.65898,-0.0377 z"
       id="path2-3-5-7"
       style="fill:url(#linearGradient14);fill-opacity:1;stroke-width:0.258629" />
    <path
       d="m 10.486228,3.1679556 c -0.01291,0.01 -0.02265,0.3890219 -0.02265,0.842813 v 0.8201716 h 0.162131 0.162143 l 0.0065,-0.5283581 0.01045,-0.525134 0.353361,0.525134 0.353356,0.5283581 h 0.158928 0.155549 V 3.9881164 3.1452976 H 11.663747 11.501602 V 3.6866578 4.2312369 L 11.138631,3.6866578 10.778854,3.1452976 H 10.64269 c -0.07455,0 -0.145894,0.0099 -0.155702,0.022711 z"
       id="path6-5"
       style="fill:url(#linearGradient9);fill-opacity:1;stroke-width:0.00169069" />
    <path
       d="m 6.0389817,4.8275562 c -0.01,0.0194 -0.01,0.055 0.0037,0.07461 0.077682,0.132887 3.7894063,5.8185888 3.8184863,5.8510408 0.02926,0.03251 0.09075,-0.0092 0.275588,-0.197813 l 0.239905,-0.242955 -0.0682,-0.162149 c -0.233322,-0.538136 0.152335,-1.134457 0.732581,-1.137666 0.10702,0 0.236706,0.02578 0.333925,0.07129 l 0.162123,0.06822 0.243129,-0.2399169 c 0.187982,-0.1847986 0.230071,-0.2463347 0.197618,-0.2755868 -0.0519,-0.051889 -5.812157,-3.802244 -5.8704972,-3.825063 -0.02578,-0.01 -0.05501,-0.0037 -0.068,0.016118 z"
       id="path8-3"
       style="fill:url(#linearGradient18);fill-opacity:1;stroke-width:0.00169069" />
    <path
       d="M 10.534928,5.8714015 C 10.142667,5.9201165 9.565634,6.0982891 9.241525,6.2668603 l -0.08424,0.045472 0.155541,0.1070214 0.15555,0.1070101 0.197812,-0.07461 c 0.424701,-0.1621338 0.768258,-0.2301 1.205812,-0.249541 0.521931,-0.022719 0.85246,0.022719 1.309629,0.171776 0.5997,0.2010268 1.063302,0.4926684 1.494416,0.9432484 0.664445,0.6969068 1.004798,1.5495413 1.001582,2.5186478 -0.0033,0.447366 -0.06152,0.777908 -0.213867,1.222061 l -0.119885,0.343542 0.107062,0.158762 0.11023,0.155547 0.09075,-0.201022 c 0.4959,-1.102172 0.499108,-2.291762 0.0105,-3.367899 C 14.292474,7.3397345 13.530809,6.577896 12.720449,6.2084751 12.049233,5.9038016 11.245309,5.7773393 10.535377,5.8713456 Z"
       id="path10-5"
       style="fill:url(#linearGradient16);fill-opacity:1;stroke-width:0.00169069" />
    <path
       d="M 7.4067678,8.2118585 C 7.2608532,8.5521951 7.137773,8.9995602 7.0922861,9.369155 c -0.1102325,0.917382 0.116668,1.867054 0.6385861,2.654764 0.5964905,0.894708 1.5461598,1.517075 2.6353208,1.724514 0.272202,0.0519 1.089158,0.0519 1.361365,0 0.278794,-0.0519 0.781272,-0.210653 1.021017,-0.32089 l 0.19122,-0.09075 -0.155554,-0.110246 -0.158761,-0.106989 -0.343538,0.119873 c -0.444155,0.152336 -0.774691,0.210647 -1.222063,0.214036 -1.776423,0.0034 -3.2674575,-1.238278 -3.5947901,-2.998476 -0.042112,-0.223699 -0.051884,-0.398688 -0.038948,-0.761844 0.016328,-0.499274 0.0746,-0.7877109 0.2399135,-1.2090284 0.094,-0.2367039 0.087568,-0.2625694 -0.068221,-0.4603877 l -0.07129,-0.090828 z"
       id="path12-6"
       style="fill:url(#linearGradient15);fill-opacity:1;stroke-width:0.00169069" />
    <path
       d="m 11.957999,9.090179 -0.239919,0.243134 0.0682,0.162135 c 0.142704,0.330707 0.05509,0.716358 -0.217083,0.949827 -0.233481,0.197663 -0.602903,0.243143 -0.888136,0.107052 l -0.126456,-0.05833 -0.239914,0.239899 c -0.188014,0.184792 -0.230103,0.24634 -0.197824,0.275583 0.09726,0.09076 5.841263,3.815276 5.886735,3.818658 0.02902,0 0.04865,-0.01944 0.04865,-0.04865 -0.0033,-0.04549 -3.727853,-5.7927214 -3.818476,-5.8867204 -0.02945,-0.032717 -0.09092,0.010101 -0.275759,0.1974724 z"
       id="path14-2"
       style="fill:url(#linearGradient17);fill-opacity:1;stroke-width:0.00169069" />
    <path
       d="m 16.492829,9.758012 v 0.842818 h 0.632162 0.632158 V 10.438686 10.276559 H 17.287133 16.817118 V 10.08213 9.887684 h 0.421316 0.421326 V 9.725558 9.563416 H 17.238434 16.817118 V 9.385045 9.206843 h 0.45377 0.453785 V 9.060932 8.9150272 h -0.615914 -0.61593 z"
       id="path16-9"
       style="fill:url(#linearGradient9);fill-opacity:1;stroke-width:0.00169069" />
    <path
       d="m 4.3371062,8.9670971 c 0,0.038949 0.4213276,1.6078729 0.4409348,1.6369479 0.0099,0.01629 0.08097,0.02926 0.1587645,0.02926 h 0.1426901 l 0.048711,-0.171782 c 0.02578,-0.09077 0.09719,-0.346931 0.1555362,-0.564028 0.05838,-0.220457 0.1134521,-0.398664 0.1232603,-0.398664 0.016319,0 0.1070113,0.320903 0.298246,1.030828 0.02919,0.103812 0.03563,0.107021 0.1781971,0.09726 L 6.0357789,10.6164 6.2400194,9.870792 C 6.5220284,8.8302552 6.5122213,8.9470912 6.3176924,8.9470912 6.1296875,8.9470912 6.1717911,8.8693862 5.993583,9.572643 5.941701,9.783355 5.8931207,9.961729 5.8865626,9.971367 5.8766626,9.977967 5.8088796,9.750892 5.7310243,9.465669 L 5.591711,8.9437303 l -0.1815912,0.01 -0.1783614,0.01 L 5.0826351,9.498668 C 4.9982361,9.790448 4.9238799,10.007712 4.9172799,9.985049 4.9073799,9.959259 4.8490589,9.712671 4.7876068,9.443687 L 4.6773618,8.9478221 H 4.5087994 c -0.094,0 -0.1717742,0.0099 -0.1717742,0.01939 z"
       id="path18-1"
       style="fill:url(#linearGradient9);fill-opacity:1;stroke-width:0.00169069" />
  </g>
  <metadata
     id="metadata18">
    <rdf:RDF>
      <cc:Work
         rdf:about="">
        <dc:format>image/svg+xml</dc:format>
        <dc:type
           rdf:resource="http://purl.org/dc/dcmitype/StillImage" />
      </cc:Work>
    </rdf:RDF>
  </metadata>
  <defs
     id="defs16">
    <linearGradient
       id="linearGradient10"
       inkscape:collect="always">
      <stop
         style="stop-color:#bc5fd3;stop-opacity:1;"
         offset="0"
         id="stop9" />
      <stop
         style="stop-color:#00ccff;stop-opacity:1;"
         offset="1"
         id="stop10" />
    </linearGradient>
    <linearGradient
       id="linearGradient6"
       inkscape:collect="always">
      <stop
         style="stop-color:#bc5fd3;stop-opacity:1;"
         offset="0"
         id="stop1" />
      <stop
         style="stop-color:#2a7fff;stop-opacity:1;"
         offset="1"
         id="stop2" />
    </linearGradient>
    <linearGradient
       id="linearGradient5"
       inkscape:collect="always">
      <stop
         style="stop-color:#6d55aa;stop-opacity:1;"
         offset="0"
         id="stop3" />
      <stop
         style="stop-color:#2a7fff;stop-opacity:1;"
         offset="1"
         id="stop4" />
    </linearGradient>
    <linearGradient
       inkscape:collect="always"
       xlink:href="#linearGradient6"
       id="linearGradient2"
       x1="4.7037368"
       y1="15.085993"
       x2="28.944054"
       y2="14.515776"
       gradientUnits="userSpaceOnUse" />
    <linearGradient
       inkscape:collect="always"
       xlink:href="#linearGradient10"
       id="linearGradient3"
       gradientUnits="userSpaceOnUse"
       x1="3.0143242"
       y1="15.351603"
       x2="29.020622"
       y2="15.3812" />
    <linearGradient
       inkscape:collect="always"
       xlink:href="#linearGradient5"
       id="linearGradient9"
       gradientUnits="userSpaceOnUse"
       x1="0"
       y1="11"
       x2="22"
       y2="11" />
    <linearGradient
       inkscape:collect="always"
       xlink:href="#linearGradient10"
       id="linearGradient11"
       gradientUnits="userSpaceOnUse"
       x1="4.7037368"
       y1="15.085993"
       x2="28.944054"
       y2="14.515776" />
    <linearGradient
       inkscape:collect="always"
       xlink:href="#linearGradient10"
       id="linearGradient12"
       gradientUnits="userSpaceOnUse"
       x1="4.7037368"
       y1="15.085993"
       x2="28.944054"
       y2="14.515776" />
    <linearGradient
       inkscape:collect="always"
       xlink:href="#linearGradient10"
       id="linearGradient13"
       gradientUnits="userSpaceOnUse"
       x1="4.7037368"
       y1="15.085993"
       x2="28.944054"
       y2="14.515776" />
    <linearGradient
       inkscape:collect="always"
       xlink:href="#linearGradient10"
       id="linearGradient14"
       gradientUnits="userSpaceOnUse"
       x1="0"
       y1="11"
       x2="22"
       y2="11" />
    <linearGradient
       inkscape:collect="always"
       xlink:href="#linearGradient10"
       id="linearGradient15"
       gradientUnits="userSpaceOnUse"
       x1="0"
       y1="11"
       x2="22"
       y2="11" />
    <linearGradient
       inkscape:collect="always"
       xlink:href="#linearGradient10"
       id="linearGradient16"
       gradientUnits="userSpaceOnUse"
       x1="0"
       y1="11"
       x2="22"
       y2="11" />
    <linearGradient
       inkscape:collect="always"
       xlink:href="#linearGradient10"
       id="linearGradient17"
       gradientUnits="userSpaceOnUse"
       x1="0"
       y1="11"
       x2="22"
       y2="11" />
    <linearGradient
       inkscape:collect="always"
       xlink:href="#linearGradient10"
       id="linearGradient18"
       gradientUnits="userSpaceOnUse"
       x1="0"
       y1="11"
       x2="22"
       y2="11" />
    <linearGradient
       inkscape:collect="always"
       xlink:href="#linearGradient10"
       id="linearGradient19"
       gradientUnits="userSpaceOnUse"
       x1="4.7037368"
       y1="15.085993"
       x2="28.944054"
       y2="14.515776" />
  </defs>
  <sodipodi:namedview
     pagecolor="#201933"
     bordercolor="#000000"
     borderopacity="1"
     objecttolerance="10"
     gridtolerance="10"
     guidetolerance="10"
     inkscape:pageopacity="0"
     inkscape:pageshadow="2"
     inkscape:window-width="1920"
     inkscape:window-height="994"
     id="namedview14"
     showgrid="true"
     inkscape:zoom="8.0000001"
     inkscape:cx="23.625"
     inkscape:cy="15.3125"
     inkscape:window-x="0"
     inkscape:window-y="0"
     inkscape:window-maximized="1"
     inkscape:current-layer="svg12"
     inkscape:document-rotation="0"
     inkscape:lockguides="true"
     inkscape:pagecheckerboard="true"
     inkscape:showpageshadow="true"
     inkscape:deskcolor="#201933">
    <inkscape:grid
       type="xygrid"
       id="grid880"
       originx="32"
       originy="9.9999997"
       spacingy="1"
       spacingx="1"
       units="px"
       visible="true" />
  </sodipodi:namedview>
  <g
     id="compass"
     style="fill:url(#linearGradient2)">
    <path
       d="m 15.783831,13.833328 c -0.45938,0.210783 -0.564654,0.771256 -0.210784,1.125126 0.28243,0.282437 0.69522,0.282437 0.97765,0 0.35387,-0.35387 0.24858,-0.914343 -0.210784,-1.125126 -0.21892,-0.0967 -0.33695,-0.0967 -0.556082,0 z"
       id="path20"
       style="fill:url(#linearGradient2);fill-opacity:1;stroke-width:0.00219795" />
    <path
       d="m 15.931317,20.913171 c -0.30333,0.09692 -0.45938,0.303316 -0.45938,0.59411 0,0.36244 0.164406,0.50575 0.787974,0.674326 0.189676,0.05059 0.374966,0.126387 0.412986,0.168593 0.09274,0.1053 0.05056,0.23606 -0.10532,0.316057 -0.320244,0.164413 -0.758516,-0.01686 -0.758516,-0.311887 0,-0.0758 -0.02524,-0.0886 -0.210784,-0.0886 h -0.210785 v 0.147486 c 0,0.193863 0.08416,0.354084 0.269689,0.518277 0.168591,0.147486 0.362455,0.198033 0.707967,0.18968 0.4719,-0.0126 0.817644,-0.332767 0.779624,-0.72488 -0.0338,-0.337177 -0.24024,-0.505753 -0.775452,-0.644665 -0.412988,-0.105289 -0.476294,-0.139135 -0.476294,-0.265515 0,-0.134957 0.109682,-0.189683 0.374976,-0.189683 0.236054,0 0.38354,0.09696 0.38354,0.24859 0,0.11803 0.06326,0.143306 0.25277,0.10946 0.155828,-0.02524 0.168583,-0.03804 0.168583,-0.1644 0,-0.172774 -0.147493,-0.396084 -0.328599,-0.501364 -0.155614,-0.0925 -0.627738,-0.13473 -0.81302,-0.0756 z"
       id="path22"
       style="fill:url(#linearGradient2);fill-opacity:1;stroke-width:0.00219795" />
    <path
       style="clip-rule:evenodd;fill:url(#linearGradient2);fill-opacity:0;fill-rule:evenodd;stroke-width:1.00213;stroke-linejoin:round;stroke-miterlimit:1.41421"
       d="M 0,0 V 32 H 32 V 0 Z"
       id="rect817"
       inkscape:connector-curvature="0" />
    <path
       d="m 16.022564,3.0000076 c 0,0 0.298224,0.013106 0.857012,0.037324 0.13953,0.0098 0.296546,0.0048 0.466672,0.02858 0.170119,0.024884 0.356051,0.05177 0.55711,0.081024 0.200384,0.032606 0.418591,0.053464 0.646207,0.101879 0.226612,0.054471 0.467339,0.112297 0.72152,0.1734876 1.007645,0.2656112 2.227436,0.688236 3.480182,1.4638886 1.250056,0.7679187 2.560961,1.8458307 3.67485,3.3218224 1.098758,1.4763278 2.000495,3.3443498 2.406649,5.4921038 0.05984,0.266623 0.07295,0.540972 0.111287,0.815659 l 0.04843,0.415227 0.02384,0.209134 0.0043,0.241063 c 0.0028,0.53492 0.04973,1.033528 -0.0259,1.658557 -0.03027,0.296882 -0.04168,0.611244 -0.09317,0.903077 -0.05479,0.291167 -0.109942,0.583675 -0.165081,0.877868 -0.04437,0.298892 -0.14592,0.582664 -0.227621,0.87584 l -0.13131,0.438763 c -0.04036,0.148272 -0.09248,0.292508 -0.154324,0.43305 -0.421279,1.160622 -1.059757,2.258368 -1.816915,3.295259 -0.201732,0.249139 -0.407494,0.497605 -0.617294,0.744721 -0.201398,0.255529 -0.451876,0.464649 -0.678488,0.699667 l -0.350673,0.343615 c -0.119019,0.112636 -0.251154,0.210138 -0.376897,0.31604 -0.2562,0.206106 -0.510377,0.418259 -0.780025,0.609901 -1.082285,0.767579 -2.297708,1.36336 -3.579032,1.791697 C 18.735223,28.788858 17.376236,28.958977 16.02229,29 L 15.713643,28.98659 15.490395,28.9738 15.04356,28.94821 14.820313,28.93542 c -0.07196,-0.0028 -0.147935,-0.0077 -0.242413,-0.02383 l -0.533892,-0.079 -0.532904,-0.08368 -0.265613,-0.04375 -0.246785,-0.06284 C 12.670392,28.558895 12.345274,28.464415 12.020147,28.37397 10.739177,27.943609 9.521063,27.352541 8.4387808,26.583609 8.1685293,26.39297 7.91603,26.177789 7.657143,25.97539 7.5313984,25.869483 7.3989284,25.771635 7.2799071,25.659007 L 6.9288968,25.315054 C 6.7019506,25.079706 6.4514693,24.87058 6.2500753,24.614721 6.0433014,24.365918 5.8368635,24.117789 5.6310995,23.870673 4.8746113,22.832097 4.2334448,21.735024 3.8125019,20.573055 3.395929,19.415122 3.1114891,18.235336 3.0439101,17.069342 2.9706115,16.491047 3.0102941,15.913762 3.0143241,15.351603 l 0.00704,-0.251821 0.02387,-0.195343 0.047744,-0.389007 c 0.03799,-0.26359 0.048749,-0.504324 0.1085976,-0.781699 0.05951,-0.274019 0.1186847,-0.546359 0.1771869,-0.81667 0.03194,-0.133148 0.054472,-0.269988 0.094476,-0.397076 L 3.5973054,12.142751 C 3.6800166,11.893956 3.7617155,11.647169 3.8430801,11.402405 3.9419214,11.164024 4.0498539,10.932039 4.1513912,10.701053 4.3349593,10.231025 4.598554,9.808065 4.8308798,9.385438 4.9404837,9.170262 5.0853933,8.977944 5.2192076,8.7832744 5.3526855,8.5889402 5.4844825,8.3966256 5.6152711,8.206326 6.7301662,6.7303338 8.0420846,5.6527587 9.292811,4.8855124 c 1.253084,-0.775652 2.473211,-1.1972688 3.480857,-1.4632166 0.254181,-0.06085 0.494914,-0.1186843 0.72152,-0.1731513 0.227623,-0.04841 0.445492,-0.069256 0.64587,-0.101879 0.200722,-0.029251 0.386654,-0.05615 0.55678,-0.081034 0.170463,-0.02387 0.327808,-0.018826 0.467008,-0.02858 C 15.724309,3.013108 16.022534,3 16.022534,3 Z m 0,0 c 0,0 -0.297894,0.01715 -0.856353,0.04909 -0.139186,0.01176 -0.296202,0.00876 -0.465991,0.034969 -0.169788,0.027238 -0.354709,0.056482 -0.554763,0.08842 -0.199374,0.03531 -0.41657,0.058836 -0.642507,0.1102802 -0.223923,0.061524 -0.46163,0.1267528 -0.713121,0.1956768 C 11.798665,3.7813755 10.601731,4.2456903 9.433712,5.0990088 8.2619965,5.9301368 7.0933071,7.0998348 6.2104014,8.6040691 5.7884485,9.365599 5.3991092,10.182943 5.147956,11.074926 c -0.06186,0.222918 -0.1294444,0.445156 -0.1876094,0.671094 -0.041015,0.230305 -0.08204,0.462296 -0.1237279,0.695964 l -0.06288,0.349332 c -0.0195,0.116666 -0.0195,0.231985 -0.030256,0.347646 -0.017482,0.229632 -0.03531,0.460955 -0.053126,0.693951 -0.020174,0.229301 0.00366,0.508025 0.00336,0.762543 l 0.008,0.392027 0.00404,0.19702 c -6.73e-4,0.04643 0.00101,-0.03531 0.0024,-0.01847 l 0.003,0.0229 0.00606,0.04575 0.012103,0.09142 c 0.07026,0.487514 0.101203,0.980412 0.2380408,1.461872 0.1899626,0.975701 0.5917426,1.91106 1.0419367,2.809426 0.1250731,0.218543 0.2508178,0.438091 0.3768991,0.658649 0.1274259,0.218207 0.2915002,0.416238 0.4306944,0.627718 l 0.2165234,0.313019 0.2474561,0.291835 c 0.1687801,0.191311 0.3227684,0.394385 0.5009625,0.577284 0.7003402,0.7464 1.5186903,1.37378 2.3787393,1.928544 l 0.672765,0.37353 c 0.218206,0.135837 0.468694,0.209464 0.697654,0.32344 l 0.349664,0.160043 c 0.118009,0.04973 0.242751,0.08337 0.363447,0.126419 0.244435,0.078 0.483148,0.173827 0.730601,0.240728 0.250487,0.05781 0.501303,0.111623 0.749769,0.176184 l 0.186263,0.04705 0.175841,0.02352 0.35101,0.05111 0.350335,0.05616 c 0.0521,0.01248 0.125072,0.0161 0.202408,0.01847 l 0.223585,0.0096 0.447164,0.0195 0.223585,0.0096 0.111626,0.0047 0.05578,0.0031 0.02793,0.0016 c -0.02858,-3.36e-4 0.103575,0.0031 -0.05716,-6.73e-4 1.032182,-0.01517 2.055293,-0.153651 3.049148,-0.416572 0.247791,-0.06692 0.486508,-0.163065 0.730937,-0.241069 0.120703,-0.04304 0.245439,-0.07701 0.363451,-0.126753 l 0.350005,-0.15925 c 0.230979,-0.110279 0.480456,-0.186937 0.698992,-0.322096 l 0.673109,-0.373873 c 0.864076,-0.55106 1.678732,-1.183819 2.38277,-1.927531 0.178197,-0.183238 0.332179,-0.386313 0.500958,-0.577957 l 0.247464,-0.292071 0.216528,-0.313357 c 0.140197,-0.211142 0.304607,-0.409175 0.432035,-0.628051 0.126079,-0.22056 0.251825,-0.440446 0.376897,-0.659322 0.139531,-0.214168 0.213496,-0.455908 0.326804,-0.681512 0.100902,-0.230308 0.223917,-0.454228 0.292508,-0.69496 0.08168,-0.238041 0.162732,-0.475073 0.243423,-0.711099 0.07867,-0.236361 0.114315,-0.464315 0.175842,-0.697313 0.134819,-0.434728 0.172813,-1.006297 0.242075,-1.521044 l 0.01211,-0.0982 0.0056,-0.04911 0.0028,-0.02455 c 0.0016,-0.01749 -0.0012,0.06459 0,0.01882 l 0.0037,-0.183239 0.009,-0.365803 c 0,-0.243085 0.02621,-0.488524 0.0056,-0.728247 -0.08,-1.930724 -0.646873,-3.760081 -1.526417,-5.2636434 C 24.955143,7.0968083 23.785104,5.9274455 22.612719,5.0973266 21.444365,4.2443441 20.246758,3.7807016 19.25593,3.4777708 19.004439,3.4088486 18.766725,3.3436188 18.542809,3.2824282 18.316534,3.2309916 18.099676,3.2074515 17.900302,3.172485 17.700248,3.1405483 17.514997,3.1109517 17.345538,3.0840638 17.175749,3.0578361 17.018404,3.0608714 16.87921,3.0490928 16.320414,3.0171552 16.022529,3.0000052 16.022529,3.0000052 Z"
       id="path2-3-5"
       style="fill:url(#linearGradient3);fill-opacity:1;stroke-width:0.336214" />
    <path
       d="m 15.332807,5.8182463 c -0.01689,0.012566 -0.02946,0.5057437 -0.02946,1.0956828 v 1.0662271 h 0.210782 0.210784 l 0.0086,-0.6868653 0.0126,-0.6826837 0.459377,0.6826837 0.459367,0.6868653 h 0.206613 0.202214 V 6.8844738 5.7887903 H 16.862969 16.65218 V 6.492578 7.2005356 L 16.180263,6.492578 15.712548,5.7887903 h -0.176941 c -0.09694,0 -0.189684,0.012566 -0.202434,0.029466 z"
       id="path6"
       style="fill:url(#linearGradient2);fill-opacity:1;stroke-width:0.00219795" />
    <path
       d="m 9.551295,7.9757579 c -0.0126,0.02524 -0.0126,0.071606 0.004,0.09696 0.101094,0.1727589 4.926293,7.5642761 4.964089,7.6064661 0.03804,0.04221 0.11803,-0.0128 0.35827,-0.25716 l 0.311892,-0.31585 -0.0886,-0.210776 c -0.303324,-0.69961 0.198035,-1.474833 0.952368,-1.479003 0.139132,0 0.307722,0.0336 0.434106,0.09274 l 0.210779,0.0886 0.316064,-0.311893 c 0.244411,-0.24024 0.299141,-0.320245 0.256944,-0.35827 -0.0675,-0.0675 -7.555922,-4.9429847 -7.631756,-4.9726573 -0.0336,-0.01278 -0.07161,-0.00434 -0.0884,0.020907 z"
       id="path8"
       style="fill:url(#linearGradient19);fill-opacity:1;stroke-width:0.00219795" />
    <path
       d="m 15.396103,9.332785 c -0.509926,0.06328 -1.260086,0.294958 -1.681445,0.514092 l -0.109444,0.05919 0.202203,0.139134 0.202214,0.13913 0.257166,-0.09696 c 0.552127,-0.210783 0.99875,-0.299138 1.56758,-0.324413 0.678514,-0.02946 1.108216,0.02946 1.70254,0.22332 0.779613,0.26133 1.382309,0.640477 1.942776,1.226235 0.863797,0.905998 1.306249,2.014433 1.302069,3.274296 -0.004,0.58159 -0.07998,1.011282 -0.278036,1.588685 l -0.155836,0.446624 0.139136,0.2064 0.1433,0.202203 0.11804,-0.261333 c 0.644656,-1.432845 0.648826,-2.979337 0.0126,-4.378328 C 20.280489,11.241739 19.290303,10.251339 18.236824,9.771083 17.364232,9.374997 16.319093,9.210593 15.396169,9.332804 Z"
       id="path10"
       style="fill:url(#linearGradient13);fill-opacity:1;stroke-width:0.00219795" />
    <path
       d="m 11.329444,12.375411 c -0.189692,0.442454 -0.3497,1.024033 -0.408826,1.504513 -0.143306,1.19261 0.15166,2.427205 0.83017,3.451239 0.775446,1.163153 2.010039,1.972226 3.425963,2.241913 0.35387,0.0675 1.415929,0.0675 1.769799,0 0.36244,-0.0675 1.015677,-0.273867 1.32734,-0.417174 l 0.248596,-0.11803 -0.202219,-0.14331 -0.206384,-0.13913 -0.446623,0.155831 c -0.57741,0.198049 -1.007103,0.273873 -1.588693,0.278266 -2.30939,0.004 -4.247765,-1.609786 -4.673299,-3.898075 -0.0547,-0.290793 -0.0675,-0.518283 -0.05058,-0.990406 0.0211,-0.649063 0.09694,-1.024033 0.311894,-1.571757 0.1222,-0.307716 0.11385,-0.34135 -0.0886,-0.598509 l -0.09274,-0.11803 z"
       id="path12"
       style="fill:url(#linearGradient12);fill-opacity:1;stroke-width:0.00219795" />
    <path
       d="m 17.246137,13.517255 -0.3119,0.316073 0.0886,0.210783 c 0.185513,0.429923 0.07161,0.931273 -0.282217,1.234807 -0.303543,0.256946 -0.783793,0.316072 -1.154583,0.13913 l -0.164406,-0.0758 -0.311894,0.311896 c -0.24441,0.240228 -0.299143,0.32023 -0.25716,0.358257 0.12638,0.11804 7.593732,4.959918 7.652858,4.964314 0.03779,0 0.06326,-0.02524 0.06326,-0.06326 -0.004,-0.05916 -4.846276,-7.530657 -4.964086,-7.652857 -0.03824,-0.04246 -0.11826,0.01239 -0.358489,0.256711 z"
       id="path14"
       style="fill:url(#linearGradient11);fill-opacity:1;stroke-width:0.00219795" />
    <path
       d="m 23.141502,14.385445 v 1.095685 h 0.821813 0.82182 v -0.210782 -0.210784 h -0.61103 -0.611036 v -0.25276 -0.252766 h 0.547733 0.547723 v -0.210784 -0.210789 h -0.547723 -0.547733 v -0.231884 -0.23167 h 0.58993 0.58993 v -0.189683 -0.189683 h -0.800714 -0.800713 z"
       id="path16"
       style="fill:url(#linearGradient2);fill-opacity:1;stroke-width:0.00219795" />
    <path
       d="m 7.3388249,13.357248 c 0,0.05057 0.547733,2.090256 0.5732239,2.128063 0.012566,0.0211 0.1053,0.03804 0.2063959,0.03804 h 0.1855 l 0.063266,-0.223319 c 0.03358,-0.11803 0.1263819,-0.45103 0.2022039,-0.733246 0.075834,-0.286607 0.1474854,-0.518277 0.160236,-0.518277 0.021125,0 0.1391326,0.417183 0.3877244,1.340107 0.03802,0.13495 0.04637,0.13912 0.23166,0.12638 l 0.198034,-0.0128 0.26551,-0.9693 c 0.366626,-1.352846 0.353876,-1.200962 0.101096,-1.200962 -0.24441,0 -0.189683,-0.101094 -0.421353,0.813236 -0.0675,0.273866 -0.13055,0.505756 -0.13913,0.518293 -0.01259,0.0086 -0.101086,-0.286624 -0.202207,-0.657414 L 8.9698695,13.32754 8.7338,13.34034 8.5019238,13.35292 8.3080615,14.048354 c -0.1096857,0.379138 -0.2063943,0.661578 -0.2149743,0.632128 -0.012567,-0.0336 -0.088618,-0.3541 -0.1685779,-0.70379 L 7.7811935,13.332023 H 7.5620569 c -0.1222,0 -0.2233073,0.0126 -0.2233073,0.02524 z"
       id="path18"
       style="fill:url(#linearGradient2);fill-opacity:1;stroke-width:0.00219795" />
  </g>
</svg>
