<?xml version="1.0" encoding="UTF-8" standalone="no"?>
<svg
   inkscape:version="1.3 (0e150ed6c4, 2023-07-21)"
   sodipodi:docname="configure.svg"
   viewBox="0 0 22 22"
   version="1.1"
   height="22"
   width="22"
   id="svg"
   xmlns:inkscape="http://www.inkscape.org/namespaces/inkscape"
   xmlns:sodipodi="http://sodipodi.sourceforge.net/DTD/sodipodi-0.dtd"
   xmlns="http://www.w3.org/2000/svg"
   xmlns:svg="http://www.w3.org/2000/svg"
   xmlns:rdf="http://www.w3.org/1999/02/22-rdf-syntax-ns#"
   xmlns:cc="http://creativecommons.org/ns#"
   xmlns:dc="http://purl.org/dc/elements/1.1/">
  <sodipodi:namedview
     inkscape:bbox-nodes="true"
     inkscape:snap-bbox="true"
     inkscape:current-layer="svg"
     inkscape:window-maximized="1"
     inkscape:window-y="0"
     inkscape:window-x="0"
     inkscape:cy="5.2767175"
     inkscape:cx="-1.6332697"
     inkscape:zoom="7.9594937"
     showgrid="true"
     id="namedview15"
     inkscape:window-height="993"
     inkscape:window-width="1920"
     inkscape:pageshadow="2"
     inkscape:pageopacity="0"
     guidetolerance="10"
     gridtolerance="10"
     objecttolerance="10"
     borderopacity="1"
     bordercolor="#000000"
     pagecolor="#201933"
     inkscape:pagecheckerboard="true"
     inkscape:snap-center="true"
     inkscape:snap-object-midpoints="true"
     inkscape:snap-nodes="true"
     inkscape:showpageshadow="true"
     inkscape:deskcolor="#201933">
    <inkscape:grid
       id="grid1"
       units="px"
       originx="-32"
       originy="-10"
       spacingx="1"
       spacingy="1"
       empcolor="#0099e5"
       empopacity="0.30196078"
       color="#0099e5"
       opacity="0.14902"
       empspacing="5"
       dotted="false"
       gridanglex="30"
       gridanglez="30"
       visible="true" />
  </sodipodi:namedview>
  <metadata
     id="metadata23">
    <rdf:RDF>
      <cc:Work
         rdf:about="">
        <dc:format>image/svg+xml</dc:format>
        <dc:type
           rdf:resource="http://purl.org/dc/dcmitype/StillImage" />
      </cc:Work>
    </rdf:RDF>
  </metadata>
  <defs
     id="defs3">
    <style
       type="text/css"
       id="current-color-scheme">.ColorScheme-Text { color:#333333; }&#10;.ColorScheme-Highlight { color:#5294e2; }&#10;.ColorScheme-ButtonBackground { color:#f5f5f5; }&#10;</style>
  </defs>
  <g
     id="configure"
     transform="translate(-32,-10)">
    <rect
       style="opacity:0.003;fill:#000000;fill-opacity:1;stroke-width:1.45455"
       x="0"
       y="0"
       width="32"
       height="32"
       fill="none"
       id="rect15-0" />
    <path
       id="path1458"
       d="M 16.000002,12 C 13.802708,12 12,13.802704 12,16 c 0,2.197295 1.802708,4 4.000002,4 C 18.197297,20 20,18.197295 20,16 20,13.802704 18.197297,12 16.000002,12 Z m 0,1.999999 L 16,14 v 0 0 z"
       style="color:#333333;fill:#d3dae3;fill-opacity:1;stroke-width:1.00002"
       sodipodi:nodetypes="sssssccccc" />
    <path
       d="m 23.547602,19.059837 a 1.6829099,1.6829099 0 0 0 0.336581,1.856301 l 0.06119,0.06119 a 2.0398909,2.0398909 0 0 1 0,2.886443 2.0398909,2.0398909 0 0 1 -2.886451,0 l -0.06119,-0.06119 a 1.6829099,1.6829099 0 0 0 -1.8563,-0.336581 1.6829099,1.6829099 0 0 0 -1.019946,1.540115 v 0.173394 a 2.0398909,2.0398909 0 0 1 -2.03989,2.039889 2.0398909,2.0398909 0 0 1 -2.039891,-2.039889 V 25.0877 a 1.6829099,1.6829099 0 0 0 -1.101541,-1.540117 1.6829099,1.6829099 0 0 0 -1.856301,0.336583 l -0.0612,0.0612 a 2.0398909,2.0398909 0 0 1 -2.8864457,0 2.0398909,2.0398909 0 0 1 0,-2.886443 l 0.061199,-0.0612 A 1.6829099,1.6829099 0 0 0 8.5339974,19.14143 1.6829099,1.6829099 0 0 0 6.993879,18.121484 H 6.8204887 A 2.0398909,2.0398909 0 0 1 4.7805981,16.081595 2.0398909,2.0398909 0 0 1 6.8204887,14.041703 h 0.091799 A 1.6829099,1.6829099 0 0 0 8.4524043,12.940163 1.6829099,1.6829099 0 0 0 8.1158221,11.08386 l -0.061199,-0.0612 a 2.0398909,2.0398909 0 0 1 0,-2.8864458 2.0398909,2.0398909 0 0 1 2.8864449,0 l 0.0612,0.061199 a 1.6829099,1.6829099 0 0 0 1.856302,0.3365823 h 0.08159 A 1.6829099,1.6829099 0 0 0 13.9601,6.993884 V 6.8204894 a 2.0398909,2.0398909 0 0 1 2.039891,-2.0398906 2.0398909,2.0398909 0 0 1 2.03989,2.0398906 v 0.091799 a 1.6829099,1.6829099 0 0 0 1.019951,1.5401112 1.6829099,1.6829099 0 0 0 1.856301,-0.3365813 l 0.06121,-0.061199 a 2.0398909,2.0398909 0 0 1 2.886444,0 2.0398909,2.0398909 0 0 1 0,2.8864467 l -0.06119,0.0612 a 1.6829099,1.6829099 0 0 0 -0.336581,1.856301 v 0.08159 a 1.6829099,1.6829099 0 0 0 1.540124,1.019945 h 0.173392 a 2.0398909,2.0398909 0 0 1 2.039891,2.03989 2.0398909,2.0398909 0 0 1 -2.039891,2.03989 h -0.09181 a 1.6829099,1.6829099 0 0 0 -1.540116,1.019947 z"
       id="path1"
       style="fill:none;fill-opacity:1;stroke:#d3dae3;stroke-width:1.5612;stroke-opacity:1" />
  </g>
  <g
     id="22-22-configure">
    <rect
       id="rect5384"
       fill="none"
       height="22"
       width="22"
       y="0"
       x="0" />
    <path
       id="path1458-6"
       d="m 11.000009,7.999979 c -1.647965,0 -2.9999887,1.352023 -2.9999887,2.999991 0,1.647945 1.3520237,2.99997 2.9999887,2.99997 1.647971,0 2.999992,-1.352025 2.999992,-2.99997 0,-1.647968 -1.352021,-2.999991 -2.999992,-2.999991 z m 0,1.499992 h -2e-6 v 0 0 z"
       style="color:#333333;fill:#d3dae3;fill-opacity:1;stroke-width:0.750016"
       sodipodi:nodetypes="sssssccccc" />
    <path
       d="m 16.660683,13.294828 a 1.2621781,1.2621751 0 0 0 0.252441,1.392217 l 0.04585,0.04593 a 1.5299119,1.5299083 0 0 1 0,2.164814 1.5299119,1.5299083 0 0 1 -2.164826,0 l -0.04596,-0.04587 a 1.2621781,1.2621751 0 0 0 -1.392211,-0.252444 1.2621781,1.2621751 0 0 0 -0.76495,1.155085 v 0.130042 a 1.5299119,1.5299083 0 0 1 -1.529936,1.529913 1.5299119,1.5299083 0 0 1 -1.529903,-1.529901 v -0.06885 A 1.2621781,1.2621751 0 0 0 8.7050392,16.66066 1.2621781,1.2621751 0 0 0 7.3128193,16.913101 l -0.0459,0.04591 a 1.5299119,1.5299083 0 0 1 -2.1648256,0 1.5299119,1.5299083 0 0 1 0,-2.164822 l 0.0459,-0.0459 A 1.2621781,1.2621751 0 0 0 5.4004287,13.356051 1.2621781,1.2621751 0 0 0 4.2453445,12.591096 H 4.1153962 A 1.5299119,1.5299083 0 0 1 2.5854843,11.061182 1.5299119,1.5299083 0 0 1 4.1153962,9.531264 h 0.068849 A 1.2621781,1.2621751 0 0 0 5.339328,8.7051136 1.2621781,1.2621751 0 0 0 5.0868916,7.312896 l -0.0459,-0.0459 a 1.5299119,1.5299083 0 0 1 0,-2.1648205 1.5299119,1.5299083 0 0 1 2.1648245,0 l 0.0459,0.0459 A 1.2621781,1.2621751 0 0 0 8.6439376,5.400513 h 0.06119 A 1.2621781,1.2621751 0 0 0 9.470079,4.2454351 V 4.1153913 a 1.5299119,1.5299083 0 0 1 1.529908,-1.529907 1.5299119,1.5299083 0 0 1 1.529913,1.529907 v 0.068839 a 1.2621781,1.2621751 0 0 0 0.764959,1.155071 1.2621781,1.2621751 0 0 0 1.392221,-0.2524342 l 0.04583,-0.04592 a 1.5299119,1.5299083 0 0 1 2.164828,0 1.5299119,1.5299083 0 0 1 0,2.1648328 l -0.04591,0.045819 a 1.2621781,1.2621751 0 0 0 -0.25242,1.3922129 v 0.06119 A 1.2621781,1.2621751 0 0 0 17.75449,9.46996 h 0.130035 a 1.5299119,1.5299083 0 0 1 1.529921,1.529891 1.5299119,1.5299083 0 0 1 -1.529921,1.529919 h -0.06878 a 1.2621781,1.2621751 0 0 0 -1.155082,0.764963 z"
       id="path1-1"
       style="fill:none;fill-opacity:1;stroke:#d3dae3;stroke-width:1.17097;stroke-opacity:1" />
  </g>
  <g
     id="16-16-configure"
     transform="translate(22,6)">
    <rect
       style="stroke-width:0.727273"
       x="0"
       y="0"
       width="16"
       height="16"
       fill="none"
       id="rect15-2" />
    <path
       id="path1458-2"
       d="m 8,5.666682 c -1.281747,0 -2.33332,1.051563 -2.33332,2.333327 0,1.281742 1.051573,2.333309 2.33332,2.333309 1.281752,0 2.33332,-1.051567 2.33332,-2.333309 C 10.33332,6.718245 9.281752,5.666682 8,5.666682 Z m 0,1.166654 z"
       style="color:#333333;fill:#d3dae3;fill-opacity:1;stroke-width:0.583341"
       sodipodi:nodetypes="sssssccccc" />
    <path
       d="m 12.402747,9.784902 a 0.9816923,0.9816923 0 0 0 0.196332,1.082828 l 0.03569,0.03571 a 1.1899299,1.1899299 0 0 1 0,1.683748 1.1899299,1.1899299 0 0 1 -1.683748,0 l -0.03571,-0.0357 A 0.9816923,0.9816923 0 0 0 9.832483,12.355164 0.9816923,0.9816923 0 0 0 9.237515,13.253552 v 0.101145 A 1.1899299,1.1899299 0 0 1 8.047583,14.544624 1.1899299,1.1899299 0 0 1 6.857657,13.354697 v -0.05356 a 0.9816923,0.9816923 0 0 0 -0.64257,-0.898394 0.9816923,0.9816923 0 0 0 -1.082831,0.196334 l -0.03571,0.03568 a 1.1899299,1.1899299 0 0 1 -1.683751,0 1.1899299,1.1899299 0 0 1 0,-1.683755 l 0.03571,-0.03573 A 0.9816923,0.9816923 0 0 0 3.64483,9.832446 0.9816923,0.9816923 0 0 0 2.746441,9.23748 H 2.645298 A 1.1899299,1.1899299 0 0 1 1.455369,8.047545 1.1899299,1.1899299 0 0 1 2.645298,6.857623 h 0.05359 A 0.9816923,0.9816923 0 0 0 3.59728,6.215052 0.9816923,0.9816923 0 0 0 3.400949,5.132226 l -0.03569,-0.03569 a 1.1899299,1.1899299 0 0 1 0,-1.683755 1.1899299,1.1899299 0 0 1 1.683745,0 l 0.03571,0.03569 a 0.9816923,0.9816923 0 0 0 1.082833,0.196327 h 0.04759 A 0.9816923,0.9816923 0 0 0 6.810101,2.746414 V 2.645269 a 1.1899299,1.1899299 0 0 1 1.189926,-1.189928 1.1899299,1.1899299 0 0 1 1.18993,1.189928 v 0.05358 a 0.9816923,0.9816923 0 0 0 0.59497,0.898389 0.9816923,0.9816923 0 0 0 1.082826,-0.196328 l 0.03571,-0.0357 a 1.1899299,1.1899299 0 0 1 1.683754,0 1.1899299,1.1899299 0 0 1 0,1.683756 l -0.03571,0.03572 a 0.9816923,0.9816923 0 0 0 -0.196333,1.082833 v 0.04759 a 0.9816923,0.9816923 0 0 0 0.898399,0.594969 h 0.101138 a 1.1899299,1.1899299 0 0 1 1.189936,1.189929 1.1899299,1.1899299 0 0 1 -1.189936,1.189931 h -0.05356 A 0.9816923,0.9816923 0 0 0 12.402753,9.7849 Z"
       id="path1-9"
       style="fill:none;fill-opacity:1;stroke:#d3dae3;stroke-width:0.910695;stroke-opacity:1" />
  </g>
</svg>
