<?xml version="1.0" encoding="UTF-8" standalone="no"?>
<svg
   width="32"
   height="32"
   version="1.1"
   id="svg78"
   sodipodi:docname="disk.svg"
   inkscape:version="1.3 (0e150ed6c4, 2023-07-21)"
   xmlns:inkscape="http://www.inkscape.org/namespaces/inkscape"
   xmlns:sodipodi="http://sodipodi.sourceforge.net/DTD/sodipodi-0.dtd"
   xmlns="http://www.w3.org/2000/svg"
   xmlns:svg="http://www.w3.org/2000/svg">
  <sodipodi:namedview
     id="namedview80"
     pagecolor="#201933"
     bordercolor="#000000"
     borderopacity="1"
     inkscape:pageshadow="2"
     inkscape:pageopacity="0"
     inkscape:pagecheckerboard="true"
     showgrid="true"
     inkscape:zoom="5.7435476"
     inkscape:cx="77.217085"
     inkscape:cy="12.100535"
     inkscape:window-width="1920"
     inkscape:window-height="994"
     inkscape:window-x="0"
     inkscape:window-y="0"
     inkscape:window-maximized="1"
     inkscape:current-layer="svg78"
     inkscape:lockguides="true"
     inkscape:showpageshadow="true"
     inkscape:deskcolor="#201933">
    <inkscape:grid
       id="grid1"
       units="px"
       originx="32"
       originy="0"
       spacingx="1"
       spacingy="1"
       empcolor="#0099e5"
       empopacity="0.30196078"
       color="#0099e5"
       opacity="0.14902"
       empspacing="5"
       dotted="false"
       gridanglex="30"
       gridanglez="30"
       visible="true" />
  </sodipodi:namedview>
  <defs
     id="l4k1">
    <style
       id="current-color-scheme"
       type="text/css">.ColorScheme-Background { color:#181818; }&#10;.ColorScheme-ButtonBackground { color:#343434; }&#10;.ColorScheme-Highlight { color:#4285f4; }&#10;.ColorScheme-Text { &#10;    color:#d1d5e9;&#10;}&#10;.ColorScheme-ViewBackground { color:#242424; }&#10;.ColorScheme-NegativeText { color:#f44336; }&#10;.ColorScheme-PositiveText { color:#4caf50; }&#10;.ColorScheme-NeutralText { color:#ff9800; }&#10;</style>
  </defs>
  <g
     transform="matrix(1.5,0,0,1.5,132,4.0003)"
     id="g75" />
  <g
     id="disk-quota">
    <rect
       style="opacity:0.00100002;fill:#bac8df;fill-opacity:1"
       width="32"
       height="32"
       x="0"
       y="0"
       id="rect41" />
    <path
       d="m 27.984327,23.628518 0.01,-0.0013 -2.290928,-17.467419 -0.0028,-0.01926 A 2.5469196,2.5469196 0 0 0 24.838507,4.607687 2.547,2.547 0 0 0 23.188212,4 H 9.481426 A 2.5468661,2.5468661 0 0 0 7.831158,4.607687 2.5469732,2.5469732 0 0 0 6.969622,6.137232 L 4.08464,23.158589 c -0.02022,0.09712 -0.03694,0.195536 -0.05001,0.295072 l -0.0252,0.148714 0.0084,0.0014 A 4.0611696,4.0611696 0 0 0 4,23.982143 C 4,26.201152 5.798848,28 8.017857,28 H 23.98214 c 2.219009,0 4.017857,-1.798848 4.017857,-4.017857 0,-0.119197 -0.0055,-0.23708 -0.01567,-0.353625 z M 8.290452,6.358777 8.291363,6.353177 C 8.385863,5.765659 8.886354,5.339258 9.481426,5.339258 h 13.706786 c 0.592151,0 1.09066,0.422276 1.188643,1.005321 l 1.878723,14.324626 C 25.609051,20.22467 24.826051,19.964286 23.98214,19.964286 H 8.017854 c -0.785705,0 -1.518616,0.22575 -2.137768,0.615616 z M 23.98214,26.660714 H 8.017854 c -1.476964,0 -2.678571,-1.201607 -2.678571,-2.678571 0,-0.113304 0.0072,-0.224973 0.02087,-0.334607 l 0.0382,-0.225375 c 0.258188,-1.209054 1.334545,-2.11859 2.619509,-2.11859 h 15.964287 c 1.476963,0 2.67857,1.201608 2.67857,2.678572 0,1.476964 -1.201606,2.678571 -2.67857,2.678571 z"
       id="path1"
       style="overflow:hidden;fill:#d3dae3;fill-opacity:1;stroke-width:0.0267857" />
    <path
       d="M 23.5,24 M 22,24 a 1.5,1.5 0 1 0 3,0 1.5,1.5 0 1 0 -3,0 z"
       id="path2"
       style="overflow:hidden;fill:#d3dae3;fill-opacity:1;stroke-width:0.06" />
    <path
       id="path9-8"
       d="m 16.155271,8.808222 a 4.9998828,3.9999062 0 0 0 -4.903488,3.999903 4.9998828,3.9999062 0 0 0 4.999886,3.999911 4.9998828,3.9999062 0 0 0 4.99988,-3.999911 h -1.66663 a 3.3332558,2.6666048 0 0 1 -3.33325,2.666614 3.3332558,2.6666048 0 0 1 -3.333254,-2.666614 3.3332558,2.6666048 0 0 1 3.312456,-2.6666 3.3332558,2.6666048 0 0 1 0.0208,0 V 8.808222 a 4.9998828,3.9999062 0 0 0 -0.09641,0 z"
       style="color:#363636;fill:#d3dae3;fill-opacity:1;stroke-width:1.3333" />
    <ellipse
       id="ellipse13"
       ry="1.3333026"
       rx="1.666628"
       cy="12.808146"
       cx="16.261906"
       style="color:#363636;fill:#d3dae3;fill-opacity:1;stroke-width:1.3333" />
  </g>
  <g
     id="disk-quota-low"
     transform="translate(128)">
    <rect
       style="opacity:0.00100002"
       width="32"
       height="32"
       x="-96"
       y="0"
       id="rect48" />
    <path
       d="m -68.015673,23.628518 0.01,-0.0013 -2.290928,-17.467419 -0.0028,-0.01926 A 2.5469196,2.5469196 0 0 0 -71.161493,4.607687 2.547,2.547 0 0 0 -72.811788,4 h -13.706786 a 2.5468661,2.5468661 0 0 0 -1.650268,0.607687 2.5469732,2.5469732 0 0 0 -0.861536,1.529545 l -2.884982,17.021357 c -0.02022,0.09712 -0.03694,0.195536 -0.05001,0.295072 l -0.0252,0.148714 0.0084,0.0014 A 4.0611696,4.0611696 0 0 0 -92,23.982143 C -92,26.201152 -90.201152,28 -87.982143,28 h 15.964283 c 2.219009,0 4.017857,-1.798848 4.017857,-4.017857 0,-0.119197 -0.0055,-0.23708 -0.01567,-0.353625 z m -19.693875,-17.269741 9.11e-4,-0.0056 c 0.0945,-0.587518 0.594991,-1.013919 1.190063,-1.013919 h 13.706786 c 0.592151,0 1.09066,0.422276 1.188643,1.005321 l 1.878723,14.324626 c -0.646527,-0.444535 -1.429527,-0.704919 -2.273438,-0.704919 h -15.964286 c -0.785705,0 -1.518616,0.22575 -2.137768,0.615616 z m 15.691688,20.301937 h -15.964286 c -1.476964,0 -2.678571,-1.201607 -2.678571,-2.678571 0,-0.113304 0.0072,-0.224973 0.02087,-0.334607 l 0.0382,-0.225375 c 0.258188,-1.209054 1.334545,-2.11859 2.619509,-2.11859 h 15.964287 c 1.476963,0 2.67857,1.201608 2.67857,2.678572 0,1.476964 -1.201606,2.678571 -2.67857,2.678571 z"
       id="path1-2"
       style="overflow:hidden;fill:#d3dae3;fill-opacity:1;stroke-width:0.0267857" />
    <path
       d="m -72.5,24 m -1.5,0 a 1.5,1.5 0 1 0 3,0 1.5,1.5 0 1 0 -3,0 z"
       id="path2-8"
       style="overflow:hidden;fill:#00aad4;fill-opacity:1;stroke-width:0.06" />
    <path
       id="path9-8-9"
       d="m -79.844729,8.808222 a 4.9998828,3.9999062 0 0 0 -4.903488,3.999903 4.9998828,3.9999062 0 0 0 4.999886,3.999911 4.9998828,3.9999062 0 0 0 4.99988,-3.999911 h -1.66663 a 3.3332558,2.6666048 0 0 1 -3.33325,2.666614 3.3332558,2.6666048 0 0 1 -3.333254,-2.666614 3.3332558,2.6666048 0 0 1 3.312456,-2.6666 3.3332558,2.6666048 0 0 1 0.0208,0 V 8.808222 a 4.9998828,3.9999062 0 0 0 -0.09641,0 z"
       style="color:#363636;fill:#00aad4;fill-opacity:1;stroke-width:1.3333" />
    <ellipse
       id="ellipse13-7"
       ry="1.3333026"
       rx="1.666628"
       cy="12.808148"
       cx="-79.738098"
       style="color:#363636;fill:#d3dae3;fill-opacity:1;stroke-width:1.3333" />
  </g>
  <g
     id="disk-quota-high"
     transform="translate(128)">
    <rect
       style="opacity:0.00100002"
       width="32"
       height="32"
       x="-64"
       y="0"
       id="rect55" />
    <path
       d="m -36.015673,23.628518 0.01,-0.0013 -2.290928,-17.467419 -0.0028,-0.01926 A 2.5469196,2.5469196 0 0 0 -39.161493,4.607687 2.547,2.547 0 0 0 -40.811788,4 h -13.706786 a 2.5468661,2.5468661 0 0 0 -1.650268,0.607687 2.5469732,2.5469732 0 0 0 -0.861536,1.529545 l -2.884982,17.021357 c -0.02022,0.09712 -0.03694,0.195536 -0.05001,0.295072 l -0.0252,0.148714 0.0084,0.0014 A 4.0611696,4.0611696 0 0 0 -60,23.982143 C -60,26.201152 -58.201152,28 -55.982143,28 h 15.964283 c 2.219009,0 4.017857,-1.798848 4.017857,-4.017857 0,-0.119197 -0.0055,-0.23708 -0.01567,-0.353625 z m -19.693875,-17.269741 9.11e-4,-0.0056 c 0.0945,-0.587518 0.594991,-1.013919 1.190063,-1.013919 h 13.706786 c 0.592151,0 1.09066,0.422276 1.188643,1.005321 l 1.878723,14.324626 c -0.646527,-0.444535 -1.429527,-0.704919 -2.273438,-0.704919 h -15.964286 c -0.785705,0 -1.518616,0.22575 -2.137768,0.615616 z m 15.691688,20.301937 h -15.964286 c -1.476964,0 -2.678571,-1.201607 -2.678571,-2.678571 0,-0.113304 0.0072,-0.224973 0.02087,-0.334607 l 0.0382,-0.225375 c 0.258188,-1.209054 1.334545,-2.11859 2.619509,-2.11859 h 15.964287 c 1.476963,0 2.67857,1.201608 2.67857,2.678572 0,1.476964 -1.201606,2.678571 -2.67857,2.678571 z"
       id="path1-3"
       style="overflow:hidden;fill:#d3dae3;fill-opacity:1;stroke-width:0.0267857" />
    <path
       d="m -40.5,24 m -1.5,0 a 1.5,1.5 0 1 0 3,0 1.5,1.5 0 1 0 -3,0 z"
       id="path2-6"
       style="overflow:hidden;fill:#ff9955;fill-opacity:1;stroke-width:0.06" />
    <path
       id="path9-8-1"
       d="m -47.844729,8.808222 a 4.9998828,3.9999062 0 0 0 -4.903488,3.999903 4.9998828,3.9999062 0 0 0 4.999886,3.999911 4.9998828,3.9999062 0 0 0 4.99988,-3.999911 h -1.66663 a 3.3332558,2.6666048 0 0 1 -3.33325,2.666614 3.3332558,2.6666048 0 0 1 -3.333254,-2.666614 3.3332558,2.6666048 0 0 1 3.312456,-2.6666 3.3332558,2.6666048 0 0 1 0.0208,0 V 8.808222 a 4.9998828,3.9999062 0 0 0 -0.09641,0 z"
       style="color:#363636;fill:#ff9955;fill-opacity:1;stroke-width:1.3333" />
    <ellipse
       id="ellipse13-2"
       ry="1.3333026"
       rx="1.666628"
       cy="12.808149"
       cx="-47.738098"
       style="color:#363636;fill:#d3dae3;fill-opacity:1;stroke-width:1.3333" />
  </g>
  <g
     id="disk-quota-critical"
     transform="translate(128)">
    <rect
       style="opacity:0.00100002"
       width="32"
       height="32"
       x="-32"
       y="0"
       id="rect64" />
    <path
       d="m -4.015671,23.62852 0.01,-0.0013 -2.29093,-17.4674191 -0.003,-0.01926 a 2.5469196,2.5469196 0 0 0 -0.86189,-1.532852 2.547,2.547 0 0 0 -1.6503,-0.607687 h -13.70678 a 2.5468661,2.5468661 0 0 0 -1.65027,0.607687 2.5469732,2.5469732 0 0 0 -0.86154,1.529545 L -27.91536,23.158591 c -0.02022,0.09712 -0.03694,0.195536 -0.05001,0.295072 l -0.0252,0.148714 0.0084,0.0014 A 4.0611696,4.0611696 0 0 0 -28,23.982145 c 0,2.219009 1.798849,4.017857 4.017859,4.017857 h 15.96428 c 2.21901,0 4.01786,-1.798848 4.01786,-4.017857 0,-0.119197 -0.006,-0.23708 -0.0157,-0.353625 z m -19.69388,-17.2697411 9.1e-4,-0.0056 c 0.0945,-0.587518 0.595,-1.013919 1.19007,-1.013919 h 13.70678 c 0.59215,0 1.09066,0.422276 1.18865,1.005321 l 1.87872,14.3246261 c -0.64653,-0.444535 -1.42953,-0.704919 -2.27344,-0.704919 h -15.96428 c -0.78571,0 -1.51862,0.22575 -2.13777,0.615616 z m 15.69169,20.3019371 h -15.96428 c -1.47697,0 -2.67858,-1.201607 -2.67858,-2.678571 0,-0.113304 0.007,-0.224973 0.0209,-0.334607 l 0.0382,-0.225375 c 0.25819,-1.209054 1.33455,-2.11859 2.61951,-2.11859 h 15.96429 c 1.47696,0 2.67857,1.201608 2.67857,2.678572 0,1.476964 -1.20161,2.678571 -2.67857,2.678571 z"
       id="path1-9"
       style="overflow:hidden;fill:#d3dae3;fill-opacity:1;stroke-width:0.0267857" />
    <path
       d="m -8.500001,24.000002 m -1.5,0 a 1.5,1.5 0 1 0 3,0 1.5,1.5 0 1 0 -3,0 z"
       id="path2-3"
       style="overflow:hidden;fill:#da4453;fill-opacity:1;stroke-width:0.06" />
    <path
       id="path9-8-19"
       d="m -15.844731,8.8082239 a 4.9998828,3.9999062 0 0 0 -4.90349,3.9999031 4.9998828,3.9999062 0 0 0 4.99989,3.999911 4.9998828,3.9999062 0 0 0 4.99988,-3.999911 h -1.66663 a 3.3332558,2.6666048 0 0 1 -3.33325,2.666614 3.3332558,2.6666048 0 0 1 -3.33325,-2.666614 3.3332558,2.6666048 0 0 1 3.31245,-2.6666 3.3332558,2.6666048 0 0 1 0.0208,0 V 8.8082239 a 4.9998828,3.9999062 0 0 0 -0.0964,0 z"
       style="color:#363636;fill:#da4453;fill-opacity:1;stroke-width:1.3333" />
    <ellipse
       id="ellipse13-4"
       ry="1.3333026"
       rx="1.666628"
       cy="12.808149"
       cx="-15.738087"
       style="color:#363636;fill:#da4453;fill-opacity:1;stroke-width:1.3333" />
  </g>
  <g
     id="disk-quota-missing"
     transform="translate(128)">
    <rect
       style="opacity:0.00100002;fill:#bac8df;fill-opacity:0.5"
       width="32"
       height="32"
       x="0"
       y="0"
       id="rect71" />
    <path
       d="m 27.98469,23.628518 0.01,-0.0013 -2.29093,-17.467419 -0.003,-0.01926 A 2.5469196,2.5469196 0 0 0 24.83887,4.607687 2.547,2.547 0 0 0 23.18857,4 H 9.48179 A 2.5468661,2.5468661 0 0 0 7.83152,4.607687 2.5469732,2.5469732 0 0 0 6.96998,6.137232 L 4.085,23.158589 c -0.0202,0.09712 -0.0369,0.195536 -0.05,0.295072 l -0.0252,0.148714 0.008,0.0014 A 4.0611696,4.0611696 0 0 0 4,23.982143 C 4,26.201152 5.79885,28 8.01786,28 H 23.98214 C 26.20115,28 28,26.201152 28,23.982143 28,23.862946 27.995,23.745063 27.9843,23.628518 Z M 8.29081,6.358777 l 9.1e-4,-0.0056 c 0.0945,-0.587518 0.595,-1.013919 1.19007,-1.013919 h 13.70678 c 0.59215,0 1.09066,0.422276 1.18865,1.005321 l 1.87872,14.324626 C 25.60941,20.22467 24.82641,19.964286 23.9825,19.964286 H 8.01822 c -0.78571,0 -1.51862,0.22575 -2.13777,0.615616 z M 23.9825,26.660714 H 8.01822 c -1.47697,0 -2.67858,-1.201607 -2.67858,-2.678571 0,-0.113304 0.007,-0.224973 0.0209,-0.334607 l 0.0382,-0.225375 c 0.25819,-1.209054 1.33455,-2.11859 2.61951,-2.11859 h 15.96429 c 1.47696,0 2.67857,1.201608 2.67857,2.678572 0,1.476964 -1.20161,2.678571 -2.67857,2.678571 z"
       id="path1-7"
       style="overflow:hidden;fill:#d3dae3;fill-opacity:0.5;stroke-width:0.0267857" />
    <path
       d="m 23.50036,24 m -1.5,0 a 1.5,1.5 0 1 0 3,0 1.5,1.5 0 1 0 -3,0 z"
       id="path2-84"
       style="overflow:hidden;fill:#d3dae3;fill-opacity:0.5;stroke-width:0.06" />
    <path
       id="path9-8-5"
       d="m 16.15563,8.808222 a 4.9998828,3.9999062 0 0 0 -4.90349,3.999903 4.9998828,3.9999062 0 0 0 4.99989,3.999911 4.9998828,3.9999062 0 0 0 4.99988,-3.999911 h -1.66663 a 3.3332558,2.6666048 0 0 1 -3.33325,2.666614 3.3332558,2.6666048 0 0 1 -3.33325,-2.666614 3.3332558,2.6666048 0 0 1 3.31245,-2.6666 3.3332558,2.6666048 0 0 1 0.0208,0 V 8.808222 a 4.9998828,3.9999062 0 0 0 -0.0964,0 z"
       style="color:#363636;fill:#d3dae3;fill-opacity:0.5;stroke-width:1.3333" />
    <ellipse
       id="ellipse13-0"
       ry="1.3333026"
       rx="1.666628"
       cy="12.80815"
       cx="16.262259"
       style="color:#363636;fill:#d3dae3;fill-opacity:0.5;stroke-width:1.3333" />
  </g>
  <g
     id="22-22-disk-quota"
     transform="translate(128,-22)">
    <g
       id="g1">
      <rect
         style="opacity:0.00100002;fill:#bac8df;fill-opacity:1"
         width="22"
         height="22"
         x="-128"
         y="0"
         id="rect4" />
      <path
         d="m -109.01071,16.085679 0.007,-8.67e-4 -1.52729,-11.644946 -0.002,-0.01284 A 1.6979464,1.6979464 0 0 0 -111.10759,3.405125 1.698,1.698 0 0 0 -112.20779,3 h -9.13786 a 1.6979107,1.6979107 0 0 0 -1.10017,0.405125 1.6979821,1.6979821 0 0 0 -0.57436,1.019696 l -1.92332,11.347572 c -0.0135,0.06475 -0.0246,0.130357 -0.0333,0.196714 l -0.0168,0.09914 0.005,9.33e-4 A 2.7074464,2.7074464 0 0 0 -125,16.321429 C -125,17.800768 -123.80077,19 -122.32143,19 h 10.64285 c 1.47934,0 2.67858,-1.199232 2.67858,-2.678571 0,-0.07946 -0.003,-0.158054 -0.0105,-0.23575 z m -13.12925,-11.513161 6.1e-4,-0.0037 c 0.063,-0.391679 0.39665,-0.675946 0.79337,-0.675946 h 9.13786 c 0.39476,0 0.7271,0.281517 0.79243,0.670214 l 1.25248,9.54975 c -0.43102,-0.296356 -0.95302,-0.469946 -1.51563,-0.469946 h -10.64285 c -0.5238,0 -1.01241,0.1505 -1.42518,0.410411 z m 10.46112,13.534625 h -10.64285 c -0.98464,0 -1.78572,-0.801072 -1.78572,-1.785714 0,-0.07554 0.005,-0.149982 0.0139,-0.223072 l 0.0255,-0.15025 c 0.17213,-0.806036 0.8897,-1.412393 1.74634,-1.412393 h 10.64286 c 0.98464,0 1.78571,0.801072 1.78571,1.785715 0,0.984642 -0.80107,1.785714 -1.78571,1.785714 z"
         id="path1-6"
         style="overflow:hidden;fill:#d3dae3;fill-opacity:1;stroke-width:0.0178571" />
      <path
         d="m -112.00026,16.333333 m -1,0 a 1,1 0 1 0 2,0 1,1 0 1 0 -2,0 z"
         id="path2-1"
         style="overflow:hidden;fill:#d3dae3;fill-opacity:1;stroke-width:0.04" />
      <path
         id="path9-8-0"
         d="m -116.89675,6.205481 a 3.3332552,2.6666041 0 0 0 -3.26899,2.666602 3.3332552,2.6666041 0 0 0 3.33326,2.666608 3.3332552,2.6666041 0 0 0 3.33325,-2.666608 h -1.11109 a 2.2221705,1.7777365 0 0 1 -2.22216,1.777743 2.2221705,1.7777365 0 0 1 -2.22218,-1.777743 2.2221705,1.7777365 0 0 1 2.20831,-1.777733 2.2221705,1.7777365 0 0 1 0.0139,0 V 6.205481 a 3.3332552,2.6666041 0 0 0 -0.0643,0 z"
         style="color:#363636;fill:#d3dae3;fill-opacity:1;stroke-width:0.888867" />
      <ellipse
         id="ellipse13-6"
         ry="0.88886839"
         rx="1.1110853"
         cy="8.8720989"
         cx="-116.82568"
         style="color:#363636;fill:#d3dae3;fill-opacity:1;stroke-width:0.888867" />
    </g>
  </g>
  <g
     id="22-22-disk-quota-low"
     transform="translate(128,-22)">
    <rect
       style="opacity:0.00100002"
       width="22"
       height="22"
       x="-96"
       y="0"
       id="rect11" />
    <path
       d="m -77.010443,16.085681 0.0067,-8.67e-4 -1.527287,-11.6449457 -0.002,-0.01284 a 1.6979464,1.6979464 0 0 0 -0.574593,-1.021901 1.698,1.698 0 0 0 -1.1002,-0.405125 h -9.137854 a 1.6979107,1.6979107 0 0 0 -1.100179,0.405125 1.6979821,1.6979821 0 0 0 -0.57436,1.019696 l -1.92332,11.3475717 c -0.0135,0.06475 -0.0246,0.130357 -0.0333,0.196714 l -0.0168,0.09914 0.005,9.33e-4 a 2.7074464,2.7074464 0 0 0 -0.01136,0.252249 c 0,1.479339 1.19923,2.678571 2.67857,2.678571 h 10.642856 c 1.47934,0 2.678574,-1.199232 2.678574,-2.678571 0,-0.07946 -0.0033,-0.158054 -0.01047,-0.23575 z m -13.129253,-11.5131607 6.1e-4,-0.0037 c 0.063,-0.391679 0.396656,-0.675946 0.793376,-0.675946 h 9.137854 c 0.394766,0 0.727106,0.281517 0.792433,0.670214 l 1.25248,9.5497497 c -0.43102,-0.296356 -0.95302,-0.469946 -1.515627,-0.469946 h -10.642856 c -0.5238,0 -1.01241,0.1505 -1.42518,0.410411 z M -79.67857,18.107145 h -10.642856 c -0.98464,0 -1.78572,-0.801072 -1.78572,-1.785714 0,-0.07554 0.005,-0.149982 0.0139,-0.223072 l 0.0255,-0.15025 c 0.17213,-0.806036 0.8897,-1.412393 1.74634,-1.412393 h 10.642863 c 0.98464,0 1.785713,0.801072 1.785713,1.785715 0,0.984642 -0.801073,1.785714 -1.785713,1.785714 z"
       id="path1-6-3"
       style="overflow:hidden;fill:#d3dae3;fill-opacity:1;stroke-width:0.0178571" />
    <path
       d="m -79.999996,16.333335 m -1,0 a 1,1 0 1 0 2,0 1,1 0 1 0 -2,0 z"
       id="path2-1-2"
       style="overflow:hidden;fill:#00aad4;fill-opacity:1;stroke-width:0.04" />
    <path
       id="path9-8-0-0"
       d="m -84.896483,6.2054833 a 3.3332552,2.6666041 0 0 0 -3.268993,2.666602 3.3332552,2.6666041 0 0 0 3.33326,2.6666077 3.3332552,2.6666041 0 0 0 3.333253,-2.6666077 h -1.111087 a 2.2221705,1.7777365 0 0 1 -2.222166,1.7777427 2.2221705,1.7777365 0 0 1 -2.222174,-1.7777427 2.2221705,1.7777365 0 0 1 2.208307,-1.777733 2.2221705,1.7777365 0 0 1 0.01387,0 v -0.888869 a 3.3332552,2.6666041 0 0 0 -0.06427,0 z"
       style="color:#363636;fill:#00aad4;fill-opacity:1;stroke-width:0.888867" />
    <ellipse
       id="ellipse13-6-6"
       ry="0.88886839"
       rx="1.1110853"
       cy="8.8720989"
       cx="-84.825394"
       style="color:#363636;fill:#d3dae3;fill-opacity:1;stroke-width:0.888867" />
  </g>
  <g
     id="22-22-disk-quota-high"
     transform="translate(128,-22)">
    <rect
       style="opacity:0.00100002"
       width="22"
       height="22"
       x="-64"
       y="0"
       id="rect18" />
    <path
       d="m -45.010443,16.085681 0.0067,-8.67e-4 -1.527287,-11.644946 -0.002,-0.01284 a 1.6979464,1.6979464 0 0 0 -0.574593,-1.021901 1.698,1.698 0 0 0 -1.1002,-0.405125 h -9.137854 a 1.6979107,1.6979107 0 0 0 -1.100179,0.405125 1.6979821,1.6979821 0 0 0 -0.57436,1.019696 l -1.92332,11.347572 c -0.0135,0.06475 -0.0246,0.130357 -0.0333,0.196714 l -0.0168,0.09914 0.005,9.33e-4 a 2.7074464,2.7074464 0 0 0 -0.01136,0.252249 c 0,1.479339 1.19923,2.678571 2.67857,2.678571 h 10.642856 c 1.47934,0 2.678574,-1.199232 2.678574,-2.678571 0,-0.07946 -0.0033,-0.158054 -0.01047,-0.23575 z M -58.139696,4.57252 l 6.1e-4,-0.0037 c 0.063,-0.391679 0.396656,-0.675946 0.793376,-0.675946 h 9.137854 c 0.394766,0 0.727106,0.281517 0.792433,0.670214 l 1.25248,9.54975 c -0.43102,-0.296356 -0.95302,-0.469946 -1.515627,-0.469946 h -10.642856 c -0.5238,0 -1.01241,0.1505 -1.42518,0.410411 z m 10.461126,13.534625 h -10.642856 c -0.98464,0 -1.78572,-0.801072 -1.78572,-1.785714 0,-0.07554 0.005,-0.149982 0.0139,-0.223072 l 0.0255,-0.15025 c 0.17213,-0.806036 0.8897,-1.412393 1.74634,-1.412393 h 10.642863 c 0.98464,0 1.785713,0.801072 1.785713,1.785715 0,0.984642 -0.801073,1.785714 -1.785713,1.785714 z"
       id="path1-6-1"
       style="overflow:hidden;fill:#d3dae3;fill-opacity:1;stroke-width:0.0178571" />
    <path
       d="m -47.999996,16.333335 m -1,0 a 1,1 0 1 0 2,0 1,1 0 1 0 -2,0 z"
       id="path2-1-5"
       style="overflow:hidden;fill:#ff9955;fill-opacity:1;stroke-width:0.04" />
    <path
       id="path9-8-0-5"
       d="m -52.896483,6.205483 a 3.3332552,2.6666041 0 0 0 -3.268993,2.666602 3.3332552,2.6666041 0 0 0 3.33326,2.666608 3.3332552,2.6666041 0 0 0 3.333253,-2.666608 h -1.111087 a 2.2221705,1.7777365 0 0 1 -2.222166,1.777743 2.2221705,1.7777365 0 0 1 -2.222174,-1.777743 2.2221705,1.7777365 0 0 1 2.208307,-1.777733 2.2221705,1.7777365 0 0 1 0.01387,0 V 6.205483 a 3.3332552,2.6666041 0 0 0 -0.06427,0 z"
       style="color:#363636;fill:#ff9955;fill-opacity:1;stroke-width:0.888867" />
    <ellipse
       id="ellipse13-6-4"
       ry="0.88886839"
       rx="1.1110853"
       cy="8.8720999"
       cx="-52.825401"
       style="color:#363636;fill:#d3dae3;fill-opacity:1;stroke-width:0.888867" />
  </g>
  <g
     id="22-22-disk-quota-critical"
     transform="translate(128,-22)">
    <rect
       style="opacity:0.00100002"
       width="22"
       height="22"
       x="-32"
       y="0"
       id="rect27" />
    <path
       d="m -13.010746,16.085679 0.007,-8.67e-4 -1.52729,-11.644946 -0.002,-0.01284 A 1.6979464,1.6979464 0 0 0 -15.107626,3.405125 1.698,1.698 0 0 0 -16.207826,3 h -9.13785 a 1.6979107,1.6979107 0 0 0 -1.100184,0.405125 1.6979821,1.6979821 0 0 0 -0.57436,1.019696 l -1.92332,11.347572 c -0.0135,0.06475 -0.0246,0.130357 -0.0333,0.196714 l -0.0168,0.09914 0.005,9.33e-4 A 2.7074464,2.7074464 0 0 0 -29,16.321429 C -29,17.800768 -27.80077,19 -26.32143,19 h 10.642854 c 1.47934,0 2.67858,-1.199232 2.67858,-2.678571 0,-0.07946 -0.003,-0.158054 -0.0105,-0.23575 z M -26.14,4.572518 l 6.1e-4,-0.0037 c 0.063,-0.391679 0.396656,-0.675946 0.793374,-0.675946 h 9.13786 c 0.39476,0 0.7271,0.281517 0.79243,0.670214 l 1.25248,9.54975 c -0.43102,-0.296356 -0.95302,-0.469946 -1.51563,-0.469946 H -26.32173 c -0.5238,0 -1.01241,0.1505 -1.42518,0.410411 z m 10.461124,13.534625 H -26.32173 c -0.98464,0 -1.78572,-0.801072 -1.78572,-1.785714 0,-0.07554 0.005,-0.149982 0.0139,-0.223072 l 0.0255,-0.15025 c 0.17213,-0.806036 0.8897,-1.412393 1.74634,-1.412393 h 10.642864 c 0.98464,0 1.78571,0.801072 1.78571,1.785715 0,0.984642 -0.80107,1.785714 -1.78571,1.785714 z"
       id="path1-6-7"
       style="overflow:hidden;fill:#d3dae3;fill-opacity:1;stroke-width:0.0178571" />
    <path
       d="m -16.000296,16.333333 m -1,0 a 1,1 0 1 0 2,0 1,1 0 1 0 -2,0 z"
       id="path2-1-6"
       style="overflow:hidden;fill:#da4453;fill-opacity:1;stroke-width:0.04" />
    <path
       id="path9-8-0-56"
       d="m -20.896786,6.205481 a 3.3332552,2.6666041 0 0 0 -3.26899,2.666602 3.3332552,2.6666041 0 0 0 3.33326,2.666608 3.3332552,2.6666041 0 0 0 3.33325,-2.666608 h -1.11109 a 2.2221705,1.7777365 0 0 1 -2.22216,1.777743 2.2221705,1.7777365 0 0 1 -2.22218,-1.777743 2.2221705,1.7777365 0 0 1 2.20831,-1.777733 2.2221705,1.7777365 0 0 1 0.0139,0 V 6.205481 a 3.3332552,2.6666041 0 0 0 -0.0643,0 z"
       style="color:#363636;fill:#da4453;fill-opacity:1;stroke-width:0.888867" />
    <ellipse
       id="ellipse13-6-9"
       ry="0.88886839"
       rx="1.1110853"
       cy="8.8720951"
       cx="-20.825699"
       style="color:#363636;fill:#da4453;fill-opacity:1;stroke-width:0.888867" />
  </g>
  <g
     id="22-22-disk-quota-missing"
     transform="translate(128,-22)">
    <rect
       style="opacity:0.00100002;fill:#bac8df;fill-opacity:0.5"
       width="22"
       height="22"
       x="0"
       y="0"
       id="rect34" />
    <path
       d="m 18.989301,16.085679 0.007,-8.67e-4 -1.52729,-11.644946 -0.002,-0.01284 A 1.6979464,1.6979464 0 0 0 16.892421,3.405125 1.698,1.698 0 0 0 15.792221,3 H 6.6543615 a 1.6979107,1.6979107 0 0 0 -1.10018,0.405125 1.6979821,1.6979821 0 0 0 -0.57436,1.019696 l -1.92332,11.347572 c -0.0135,0.06475 -0.0246,0.130357 -0.0333,0.196714 l -0.0168,0.09914 0.005,9.33e-4 a 2.7074464,2.7074464 0 0 0 -0.0114,0.252249 c 0,1.479339 1.19923,2.678571 2.67857,2.678571 H 16.321431 c 1.47934,0 2.67857,-1.199232 2.67857,-2.678571 0,-0.07946 -0.003,-0.158054 -0.0105,-0.23575 z M 5.8600415,4.572518 l 6.1e-4,-0.0037 c 0.063,-0.391679 0.39666,-0.675946 0.79338,-0.675946 h 9.1378495 c 0.39477,0 0.72711,0.281517 0.79244,0.670214 l 1.25248,9.54975 C 17.405781,13.81648 16.883781,13.64289 16.321171,13.64289 H 5.6783115 c -0.5238,0 -1.01241,0.1505 -1.42518,0.410411 z M 16.321171,18.107143 H 5.6783115 c -0.98464,0 -1.78572,-0.801072 -1.78572,-1.785714 0,-0.07554 0.005,-0.149982 0.0139,-0.223072 l 0.0255,-0.15025 c 0.17213,-0.806036 0.8897,-1.412393 1.74634,-1.412393 H 16.321201 c 0.98464,0 1.78571,0.801072 1.78571,1.785715 0,0.984642 -0.80107,1.785714 -1.78571,1.785714 z"
       id="path1-6-37"
       style="overflow:hidden;fill:#d3dae3;fill-opacity:0.5;stroke-width:0.0178571" />
    <path
       d="m 15.999741,16.333333 m -1,0 a 1,1 0 1 0 2,0 1,1 0 1 0 -2,0 z"
       id="path2-1-4"
       style="overflow:hidden;fill:#d3dae3;fill-opacity:0.5;stroke-width:0.04" />
    <path
       id="path9-8-0-52"
       d="m 11.103261,6.205481 a 3.3332552,2.6666041 0 0 0 -3.2689995,2.666602 3.3332552,2.6666041 0 0 0 3.3332595,2.666608 3.3332552,2.6666041 0 0 0 3.33326,-2.666608 h -1.11109 a 2.2221705,1.7777365 0 0 1 -2.22217,1.777743 2.2221705,1.7777365 0 0 1 -2.2221695,-1.777743 2.2221705,1.7777365 0 0 1 2.2083095,-1.777733 2.2221705,1.7777365 0 0 1 0.0139,0 V 6.205481 a 3.3332552,2.6666041 0 0 0 -0.0643,0 z"
       style="color:#363636;fill:#d3dae3;fill-opacity:0.5;stroke-width:0.888867" />
    <ellipse
       id="ellipse13-6-5"
       ry="0.88886839"
       rx="1.1110853"
       cy="8.872098"
       cx="11.17435"
       style="color:#363636;fill:#d3dae3;fill-opacity:0.5;stroke-width:0.888867" />
  </g>
</svg>
