<?xml version="1.0" encoding="UTF-8" standalone="no"?>
<svg
   id="svg3869"
   version="1.1"
   viewBox="0 0 22 22"
   sodipodi:docname="distribute.svg"
   inkscape:version="1.3 (0e150ed6c4, 2023-07-21)"
   xmlns:inkscape="http://www.inkscape.org/namespaces/inkscape"
   xmlns:sodipodi="http://sodipodi.sourceforge.net/DTD/sodipodi-0.dtd"
   xmlns="http://www.w3.org/2000/svg"
   xmlns:svg="http://www.w3.org/2000/svg">
  <defs
     id="defs12" />
  <sodipodi:namedview
     id="namedview10"
     pagecolor="#201933"
     bordercolor="#000000"
     borderopacity="1"
     inkscape:pageshadow="2"
     inkscape:pageopacity="0"
     inkscape:pagecheckerboard="true"
     showgrid="true"
     inkscape:zoom="14.208213"
     inkscape:cx="12.739111"
     inkscape:cy="10.310938"
     inkscape:window-width="1920"
     inkscape:window-height="994"
     inkscape:window-x="0"
     inkscape:window-y="0"
     inkscape:window-maximized="1"
     inkscape:current-layer="svg3869"
     inkscape:lockguides="false"
     inkscape:showpageshadow="true"
     inkscape:deskcolor="#201933">
    <inkscape:grid
       id="grid1"
       units="px"
       originx="0"
       originy="0"
       spacingx="1"
       spacingy="1"
       empcolor="#0099e5"
       empopacity="0.30196078"
       color="#0099e5"
       opacity="0.14902"
       empspacing="5"
       dotted="false"
       gridanglex="30"
       gridanglez="30"
       visible="true" />
  </sodipodi:namedview>
  <style
     type="text/css"
     id="current-color-scheme">&#10;.ColorScheme-Text { &#10;    color:#d6dbf1;&#10;}&#10;</style>
  <g
     id="distribute-horizontal-x">
    <path
       id="rect4178"
       d="m 0,-2e-5 h 22 v 22 H 0 Z"
       fill="none" />
    <path
       class="ColorScheme-Text "
       style="fill-opacity:1;fill:#d3dae3"
       d="m 3,8 v 6 c 0,0.56242 0.516361,1 0.976279,1 H 7 c 0.483744,0 1,-0.332405 1,-1 V 8 C 8,7.509899 7.641214,7 7.004782,7 H 3.95718 C 3.44931,7.00221 3,7.451547 3,8 Z m 11,0 v 6 c 0,0.568979 0.482781,1 1.024566,1 H 18 c 0.474173,-0.03995 1,-0.373506 1,-1 V 8 C 19,7.497635 18.611808,7 18.031605,7 H 14.998443 C 14.451526,7 14,7.479335 14,8 Z M 4,8 h 3 v 6 H 4 Z m 11,0 h 3 v 6 H 15 Z M 9,9 v 4 c 0,0.403013 1,0.457521 1,0 v -1 h 2 v 1 c 0,0.482751 1,0.489437 1,0 V 9 C 13,8.600065 12,8.618397 12,9 v 1 H 10 V 9 C 10,8.595529 9,8.592711 9,9 Z"
       id="rect4109-3"
       sodipodi:nodetypes="ccccccccccccccccccccccccccccccccccccccccc" />
  </g>
</svg>
