<?xml version="1.0" encoding="UTF-8" standalone="no"?>
<svg
   width="32"
   height="32"
   version="1.1"
   id="svg12"
   sodipodi:docname="drive.svg"
   inkscape:version="1.3 (0e150ed6c4, 2023-07-21)"
   xmlns:inkscape="http://www.inkscape.org/namespaces/inkscape"
   xmlns:sodipodi="http://sodipodi.sourceforge.net/DTD/sodipodi-0.dtd"
   xmlns="http://www.w3.org/2000/svg"
   xmlns:svg="http://www.w3.org/2000/svg"
   xmlns:rdf="http://www.w3.org/1999/02/22-rdf-syntax-ns#"
   xmlns:cc="http://creativecommons.org/ns#"
   xmlns:dc="http://purl.org/dc/elements/1.1/">
  <style
     id="current-color-scheme"
     type="text/css">&#10;.ColorScheme-Text { &#10;    color:#d1d5e9;&#10;}&#10;</style>
  <metadata
     id="metadata18">
    <rdf:RDF>
      <cc:Work
         rdf:about="">
        <dc:format>image/svg+xml</dc:format>
        <dc:type
           rdf:resource="http://purl.org/dc/dcmitype/StillImage" />
      </cc:Work>
    </rdf:RDF>
  </metadata>
  <defs
     id="defs16" />
  <sodipodi:namedview
     pagecolor="#201933"
     bordercolor="#000000"
     borderopacity="1"
     objecttolerance="10"
     gridtolerance="10"
     guidetolerance="10"
     inkscape:pageopacity="0"
     inkscape:pageshadow="2"
     inkscape:window-width="1920"
     inkscape:window-height="994"
     id="namedview14"
     showgrid="true"
     inkscape:zoom="11.371212"
     inkscape:cx="27.789474"
     inkscape:cy="22.029314"
     inkscape:window-x="0"
     inkscape:window-y="0"
     inkscape:window-maximized="1"
     inkscape:current-layer="svg12"
     inkscape:document-rotation="0"
     inkscape:lockguides="false"
     inkscape:showpageshadow="true"
     inkscape:pagecheckerboard="true"
     inkscape:deskcolor="#201933">
    <inkscape:grid
       id="grid1"
       units="px"
       originx="0"
       originy="1.7763568e-15"
       spacingx="1"
       spacingy="1"
       empcolor="#0099e5"
       empopacity="0.30196078"
       color="#0099e5"
       opacity="0.14902"
       empspacing="5"
       dotted="false"
       gridanglex="30"
       gridanglez="30"
       visible="true" />
  </sodipodi:namedview>
  <g
     id="drive-harddisk">
    <rect
       style="opacity:0.00100002;fill:#d3dae3;fill-opacity:1"
       width="32"
       height="32"
       x="0"
       y="4.6325681e-08"
       id="rect7" />
    <path
       d="m 27.984327,23.628518 0.01,-0.0013 -2.290928,-17.467419 -0.0028,-0.01926 A 2.5469196,2.5469196 0 0 0 24.838506,4.607687 2.547,2.547 0 0 0 23.188211,4 H 9.481426 A 2.5468661,2.5468661 0 0 0 7.831158,4.607687 2.5469732,2.5469732 0 0 0 6.969622,6.137232 L 4.08464,23.158589 c -0.02022,0.09712 -0.03694,0.195536 -0.05001,0.295072 l -0.0252,0.148714 0.0084,0.0014 A 4.0611696,4.0611696 0 0 0 4,23.982143 C 4,26.201152 5.798848,28 8.017857,28 H 23.98214 c 2.219009,0 4.017857,-1.798848 4.017857,-4.017857 0,-0.119197 -0.0055,-0.23708 -0.01567,-0.353625 z M 8.290452,6.358777 8.291363,6.353177 C 8.385863,5.765659 8.886354,5.339258 9.481426,5.339258 h 13.706785 c 0.592152,0 1.090661,0.422276 1.188643,1.005321 l 1.878723,14.324626 C 25.609051,20.22467 24.826051,19.964286 23.98214,19.964286 H 8.017854 c -0.785705,0 -1.518616,0.22575 -2.137768,0.615616 z M 23.98214,26.660714 H 8.017854 c -1.476964,0 -2.678571,-1.201607 -2.678571,-2.678571 0,-0.113304 0.0072,-0.224973 0.02087,-0.334607 l 0.0382,-0.225375 c 0.258188,-1.209054 1.334545,-2.11859 2.619509,-2.11859 h 15.964286 c 1.476964,0 2.678571,1.201608 2.678571,2.678572 0,1.476964 -1.201607,2.678571 -2.678571,2.678571 z"
       id="path1"
       style="overflow:hidden;fill:#d3dae3;fill-opacity:1;stroke-width:0.0267857" />
    <path
       d="M 23.5,24 M 22,24 a 1.5,1.5 0 1 0 3,0 1.5,1.5 0 1 0 -3,0 z"
       id="path2"
       style="overflow:hidden;fill:#d3dae3;fill-opacity:1;stroke-width:0.06" />
    <path
       id="path9-8"
       d="m 16.155272,8.808222 a 4.9998828,3.9999062 0 0 0 -4.903489,3.999903 4.9998828,3.9999062 0 0 0 4.999886,3.999911 4.9998828,3.9999062 0 0 0 4.99988,-3.999911 h -1.666631 a 3.3332558,2.6666048 0 0 1 -3.333249,2.666614 3.3332558,2.6666048 0 0 1 -3.333255,-2.666614 3.3332558,2.6666048 0 0 1 3.312457,-2.6666 3.3332558,2.6666048 0 0 1 0.0208,0 V 8.808222 a 4.9998828,3.9999062 0 0 0 -0.09641,0 z"
       style="color:#363636;fill:#d3dae3;fill-opacity:1;stroke-width:1.3333" />
    <ellipse
       id="ellipse13"
       ry="1.3333026"
       rx="1.666628"
       cy="12.808146"
       cx="16.261902"
       style="color:#363636;fill:#d3dae3;fill-opacity:1;stroke-width:1.3333" />
    <path
       d="M 8.5838228,25 H 19.916175 C 20.197808,25 20.6,24.551997 20.6,23.999999 20.6,23.447999 20.197808,23 19.916175,23 H 8.5838228 C 8.3021897,23 7.9,23.447999 7.9,23.999999 7.9,24.551997 8.3021897,25 8.5838228,25 Z"
       id="path2653-4"
       style="fill:#d3dae3;fill-opacity:1;stroke-width:0.357143"
       sodipodi:nodetypes="sssssss" />
  </g>
  <g
     id="22-22-drive-harddisk"
     transform="translate(32,10.000001)">
    <rect
       style="opacity:0.00100002;fill:#d3dae3;fill-opacity:1"
       width="22"
       height="22"
       x="0"
       y="-4.6325681e-08"
       id="rect2" />
    <path
       d="m 18.989099,16.08576 0.0066,-0.0013 -1.527242,-11.644614 -0.0018,-0.01286 A 1.6978981,1.6978981 0 0 0 16.891936,3.405113 1.6979519,1.6979519 0 0 0 15.791768,3 H 6.654187 A 1.6978626,1.6978626 0 0 0 5.554036,3.405113 1.6979342,1.6979342 0 0 0 4.979693,4.424784 L 3.056425,15.772032 c -0.01345,0.06477 -0.02461,0.130356 -0.03335,0.196709 l -0.01682,0.09913 0.0057,0.0014 A 2.7073696,2.7073696 0 0 0 3,16.321502 c 0,1.479297 1.199202,2.678499 2.678499,2.678499 h 10.64255 c 1.479298,0 2.678497,-1.199202 2.678497,-2.678499 0,-0.07947 -0.0037,-0.158042 -0.01045,-0.235742 z M 5.860218,4.57293 5.860824,4.56913 c 0.063,-0.391668 0.396652,-0.675926 0.793363,-0.675926 h 9.13759 c 0.39476,0 0.727088,0.28151 0.792409,0.670194 l 1.252446,9.54948 C 17.405626,13.816539 16.883641,13.642952 16.321049,13.642952 H 5.678497 c -0.523791,0 -1.012383,0.150499 -1.425144,0.410399 z M 16.321049,18.107169 H 5.678497 c -0.984617,0 -1.785668,-0.80105 -1.785668,-1.785667 0,-0.0755 0.0047,-0.149976 0.01393,-0.223068 l 0.02545,-0.150241 c 0.172124,-0.806008 0.889672,-1.41235 1.746291,-1.41235 h 10.642555 c 0.984615,0 1.785664,0.80105 1.785664,1.785659 0,0.984617 -0.801049,1.785667 -1.785664,1.785667 z"
       id="path1-2"
       style="overflow:hidden;fill:#d3dae3;fill-opacity:1;stroke-width:0.0178572" />
    <path
       d="m 15.999633,16.501187 m -0.999971,0 a 0.99997174,0.99997174 0 1 0 1.999942,0 0.99997174,0.99997174 0 1 0 -1.999942,0 z"
       id="path2-2"
       style="overflow:hidden;fill:#d3dae3;fill-opacity:1;stroke-width:0.0399987" />
    <path
       id="path9-8-8"
       d="m 11.103282,6.205849 a 3.3331611,2.6665287 0 0 0 -3.268897,2.666516 3.3331611,2.6665287 0 0 0 3.333159,2.666534 3.3331611,2.6665287 0 0 0 3.33316,-2.666534 h -1.111053 a 2.2221078,1.7776861 0 0 1 -2.222107,1.777703 2.2221078,1.7776861 0 0 1 -2.222102,-1.777703 2.2221078,1.7776861 0 0 1 2.208239,-1.777678 2.2221078,1.7776861 0 0 1 0.01387,0 V 6.205849 a 3.3331611,2.6665287 0 0 0 -0.06426,0 z"
       style="color:#363636;fill:#d3dae3;fill-opacity:1;stroke-width:0.8888" />
    <ellipse
       id="ellipse13-9"
       ry="0.88884372"
       rx="1.1110539"
       cy="8.8723736"
       cx="11.174371"
       style="color:#363636;fill:#d3dae3;fill-opacity:1;stroke-width:0.8888" />
    <path
       d="m 6.0557005,16.999999 h 7.5529965 c 0.187711,0 0.455774,-0.223995 0.455774,-0.499995 0,-0.276 -0.268063,-0.500005 -0.455774,-0.500005 H 6.0557005 c -0.1877152,0 -0.4557765,0.224005 -0.4557765,0.500005 0,0.276 0.2680613,0.499995 0.4557765,0.499995 z"
       id="path2653-4-7"
       style="fill:#d3dae3;fill-opacity:1;stroke-width:0.206176"
       sodipodi:nodetypes="sssssss" />
  </g>
</svg>
