<?xml version="1.0" encoding="UTF-8" standalone="no"?>
<svg
   width="32"
   height="32"
   version="1.1"
   id="svg16"
   sodipodi:docname="dropbox.svg"
   inkscape:version="1.3.2 (091e20ef0f, 2023-11-25)"
   xmlns:inkscape="http://www.inkscape.org/namespaces/inkscape"
   xmlns:sodipodi="http://sodipodi.sourceforge.net/DTD/sodipodi-0.dtd"
   xmlns="http://www.w3.org/2000/svg"
   xmlns:svg="http://www.w3.org/2000/svg"
   xmlns:rdf="http://www.w3.org/1999/02/22-rdf-syntax-ns#"
   xmlns:cc="http://creativecommons.org/ns#"
   xmlns:dc="http://purl.org/dc/elements/1.1/">
  <style
     id="current-color-scheme"
     type="text/css">
.ColorScheme-Text { 
    color:#d6dbf1;
}
</style>
  <metadata
     id="metadata22">
    <rdf:RDF>
      <cc:Work
         rdf:about="">
        <dc:format>image/svg+xml</dc:format>
        <dc:type
           rdf:resource="http://purl.org/dc/dcmitype/StillImage" />
      </cc:Work>
    </rdf:RDF>
  </metadata>
  <defs
     id="defs20">
    <linearGradient
       id="oomox"
       x1="131.53468"
       x2="131.53468"
       y1="146.39674"
       y2="160.8511"
       gradientTransform="scale(1.0377491,0.96362406)"
       gradientUnits="userSpaceOnUse">
      <stop
         offset="0%"
         style="stop-color:#303b3d; stop-opacity:1"
         id="stop18" />
      <stop
         offset="100%"
         style="stop-color:#bc985d; stop-opacity:1"
         id="stop20" />
    </linearGradient>
  </defs>
  <sodipodi:namedview
     pagecolor="#201933"
     bordercolor="#000000"
     borderopacity="1"
     objecttolerance="10"
     gridtolerance="10"
     guidetolerance="10"
     inkscape:pageopacity="0"
     inkscape:pageshadow="2"
     inkscape:window-width="1920"
     inkscape:window-height="994"
     id="namedview18"
     showgrid="true"
     inkscape:zoom="6.9384855"
     inkscape:cx="31.923393"
     inkscape:cy="30.338033"
     inkscape:window-x="0"
     inkscape:window-y="0"
     inkscape:window-maximized="1"
     inkscape:current-layer="svg16"
     inkscape:document-rotation="0"
     inkscape:showpageshadow="true"
     inkscape:pagecheckerboard="true"
     inkscape:deskcolor="#201933">
    <inkscape:grid
       type="xygrid"
       id="grid876"
       originx="0"
       originy="0"
       spacingy="1"
       spacingx="1"
       units="px"
       visible="true" />
  </sodipodi:namedview>
  <g
     id="dropbox"
     style="fill:#d3dae3;fill-opacity:1">
    <rect
       style="opacity:0.00100002;fill:#d3dae3;fill-opacity:1"
       width="32"
       height="32"
       x="0"
       y="0"
       id="rect9" />
    <path
       style="fill:#d3dae3;fill-opacity:1;stroke-width:0.519811"
       d="M 9.1658165,4.3142701 3.867898,7.7736154 C 3.1469195,8.2445646 3.106894,9.0627479 3.7795301,9.6007528 l 3.0341395,2.4301182 c 0.6721163,0.538525 1.811543,0.60818 2.5439574,0.155424 l 5.32079,-3.2857283 C 15.411351,8.4483307 15.46905,7.6337862 14.80785,7.0817464 L 11.668189,4.4608569 C 11.007509,3.909337 9.886795,3.8438407 9.1658165,4.3142701 Z"
       id="path190" />
    <path
       style="fill:#d3dae3;fill-opacity:1;stroke-width:0.519811"
       d="m 3.867898,18.23742 5.2979185,3.458826 c 0.7209785,0.470949 1.8416925,0.404933 2.5028925,-0.146587 L 14.80837,18.92877 c 0.6612,-0.55204 0.602981,-1.366065 -0.129953,-1.818821 L 9.357627,13.824221 C 8.6246928,13.371985 7.4857859,13.44112 6.8136696,13.979645 L 3.7795301,16.409763 C 3.106894,16.948808 3.1469195,17.766471 3.867898,18.23742 Z"
       id="path192" />
    <path
       style="fill:#d3dae3;fill-opacity:1;stroke-width:0.519811"
       d="m 17.202622,18.92877 3.140181,2.620889 c 0.6612,0.55204 1.781913,0.617536 2.502892,0.146587 l 5.297399,-3.458826 c 0.720978,-0.470949 0.761004,-1.289132 0.08837,-1.827137 l -3.03414,-2.430119 C 24.525206,13.44164 23.386299,13.371985 22.653365,13.824741 l -5.32079,3.285728 c -0.732935,0.452236 -0.791154,1.266261 -0.129953,1.818301 z"
       id="path194" />
    <path
       style="fill:#d3dae3;fill-opacity:1;stroke-width:0.519811"
       d="M 28.143613,7.7736154 22.845695,4.3142701 C 22.124716,3.8433209 21.004003,3.909337 20.342803,4.4608569 l -3.140181,2.6208895 c -0.661201,0.5520398 -0.602982,1.3660645 0.129433,1.8183005 l 5.32079,3.2857281 c 0.732934,0.452236 1.871841,0.383101 2.543957,-0.155423 l 3.03414,-2.4301191 c 0.673156,-0.5380048 0.63365,-1.3556683 -0.08733,-1.8266175 z"
       id="path196" />
    <path
       style="fill:#d3dae3;fill-opacity:1;stroke-width:0.519811"
       d="m 14.821885,19.91901 -3.150057,2.614132 c -0.66276,0.549961 -1.7314924,0.648725 -2.3874944,0.2204 -0.6560021,-0.428324 -1.1877693,-0.38622 -1.1877693,0.09409 0,0.480306 0.5988229,1.228315 1.337475,1.671194 l 5.2506157,3.149018 c 0.738652,0.442879 1.936298,0.442879 2.67495,0 l 5.251135,-3.149018 c 0.738652,-0.442879 1.337475,-1.191408 1.337475,-1.671194 0,-0.479786 -0.531767,-0.52189 -1.187249,-0.09409 -0.656002,0.428325 -1.724735,0.329561 -2.387494,-0.2204 L 17.222894,19.91901 c -0.663799,-0.54996 -1.738249,-0.54996 -2.401009,0 z"
       id="path198" />
  </g>
  <g
     id="22-22-dropbox"
     transform="translate(32,10)"
     style="fill:#d3dae3;fill-opacity:1">
    <rect
       style="opacity:0.00100002;fill:#d3dae3;fill-opacity:1"
       width="22"
       height="22"
       x="0"
       y="0"
       id="rect2" />
    <path
       style="fill:#d3dae3;fill-opacity:1;stroke-width:0.346541"
       d="m 6.4605445,3.2095124 -3.5319461,2.30623 c -0.480652,0.313967 -0.507335,0.859422 -0.05891,1.218092 l 2.02276,1.620079 c 0.448077,0.359016 1.2076951,0.405453 1.6959711,0.103616 l 3.5471925,-2.190486 c 0.488623,-0.30149 0.527089,-0.84452 0.08629,-1.212547 L 8.1287955,3.3072374 c -0.440454,-0.36768 -1.187596,-0.411344 -1.668248,-0.09773 z"
       id="path190-3" />
    <path
       style="fill:#d3dae3;fill-opacity:1;stroke-width:0.346541"
       d="m 2.9285984,12.491611 3.5319461,2.305884 c 0.480652,0.313966 1.227795,0.269955 1.668595,-0.09773 l 2.0931065,-1.747259 c 0.4408,-0.368027 0.401987,-0.91071 -0.08664,-1.212547 L 6.5884175,9.549474 C 6.0997955,9.2479834 5.3405244,9.2940734 4.8924464,9.65309 l -2.02276,1.620079 c -0.448423,0.359363 -0.42174,0.904471 0.05891,1.218437 z"
       id="path192-6" />
    <path
       style="fill:#d3dae3;fill-opacity:1;stroke-width:0.346541"
       d="m 11.818413,12.952511 2.093454,1.747259 c 0.4408,0.368027 1.187942,0.411691 1.668595,0.09773 l 3.531599,-2.305883 c 0.480652,-0.313966 0.507336,-0.859422 0.05891,-1.218091 l -2.02276,-1.62008 C 16.700133,9.2944304 15.940861,9.2479934 15.452239,9.549831 l -3.547193,2.190485 c -0.488624,0.301491 -0.527436,0.844174 -0.08664,1.212201 z"
       id="path194-7" />
    <path
       style="fill:#d3dae3;fill-opacity:1;stroke-width:0.346541"
       d="m 19.112407,5.5157424 -3.531945,-2.30623 c -0.480653,-0.313966 -1.227795,-0.269955 -1.668595,0.09773 l -2.093454,1.747259 c -0.4408,0.368027 -0.401988,0.91071 0.08629,1.212201 l 3.547193,2.190485 c 0.488623,0.30149 1.247894,0.2554 1.695971,-0.103615 l 2.02276,-1.62008 c 0.448771,-0.35867 0.422433,-0.903778 -0.05822,-1.217745 z"
       id="path196-5" />
    <path
       style="fill:#d3dae3;fill-opacity:1;stroke-width:0.346541"
       d="m 10.231256,13.612671 -2.1000375,1.742755 c -0.44184,0.36664 -1.154328,0.432483 -1.591663,0.146933 -0.437334,-0.285549 -0.791846,-0.25748 -0.791846,0.06273 0,0.320204 0.399215,0.818876 0.89165,1.114129 l 3.5004095,2.099345 c 0.492435,0.295253 1.290865,0.295253 1.7833,0 l 3.500756,-2.099345 c 0.492435,-0.295253 0.89165,-0.794272 0.89165,-1.114129 0,-0.319857 -0.354511,-0.347927 -0.791499,-0.06273 -0.437335,0.28555 -1.149824,0.219707 -1.591663,-0.146933 l -2.100385,-1.742755 c -0.442533,-0.36664 -1.158832,-0.36664 -1.600672,0 z"
       id="path198-3" />
  </g>
</svg>
