<?xml version="1.0" encoding="UTF-8" standalone="no"?>
<svg
   inkscape:version="1.3 (0e150ed6c4, 2023-07-21)"
   sodipodi:docname="edit.svg"
   viewBox="0 0 32 32"
   version="1.1"
   height="32"
   width="32"
   id="svg"
   xmlns:inkscape="http://www.inkscape.org/namespaces/inkscape"
   xmlns:sodipodi="http://sodipodi.sourceforge.net/DTD/sodipodi-0.dtd"
   xmlns="http://www.w3.org/2000/svg"
   xmlns:svg="http://www.w3.org/2000/svg"
   xmlns:rdf="http://www.w3.org/1999/02/22-rdf-syntax-ns#"
   xmlns:cc="http://creativecommons.org/ns#"
   xmlns:dc="http://purl.org/dc/elements/1.1/">
  <style
     id="current-color-scheme"
     type="text/css">.ColorScheme-Text { color:#d6dbf1; }&#10;</style>
  <metadata
     id="metadata60">
    <rdf:RDF>
      <cc:Work
         rdf:about="">
        <dc:format>image/svg+xml</dc:format>
        <dc:type
           rdf:resource="http://purl.org/dc/dcmitype/StillImage" />
      </cc:Work>
    </rdf:RDF>
  </metadata>
  <sodipodi:namedview
     inkscape:document-rotation="0"
     inkscape:lockguides="false"
     inkscape:current-layer="svg"
     inkscape:window-maximized="1"
     inkscape:window-y="0"
     inkscape:window-x="0"
     inkscape:cy="17.314017"
     inkscape:cx="35.772762"
     inkscape:zoom="10.482836"
     showgrid="true"
     id="namedview58"
     inkscape:window-height="994"
     inkscape:window-width="1920"
     inkscape:pageshadow="2"
     inkscape:pageopacity="0"
     guidetolerance="10"
     gridtolerance="10"
     objecttolerance="10"
     borderopacity="1"
     bordercolor="#000000"
     pagecolor="#201933"
     inkscape:showpageshadow="true"
     inkscape:pagecheckerboard="true"
     inkscape:deskcolor="#201933">
    <inkscape:grid
       id="grid1"
       units="px"
       originx="0"
       originy="0"
       spacingx="1"
       spacingy="1"
       empcolor="#0099e5"
       empopacity="0.30196078"
       color="#0099e5"
       opacity="0.14902"
       empspacing="5"
       dotted="false"
       gridanglex="30"
       gridanglez="30"
       visible="true" />
  </sodipodi:namedview>
  <defs
     id="defs4">
    <linearGradient
       id="linearGradient5606"
       inkscape:swatch="solid">
      <stop
         style="stop-color:#000000"
         offset="0"
         id="stop5608" />
    </linearGradient>
  </defs>
  <rect
     id="rect16"
     y="13.77"
     x="-38.330002"
     height="22"
     width="22"
     style="fill:#d3dae3;fill-opacity:0" />
  <g
     id="g44"
     transform="matrix(1.7493122,0,0,1.7499488,-69.71355,-1326.9605)"
     style="opacity:0.2" />
  <g
     id="edit-delete"
     style="fill:#d3dae3;fill-opacity:1">
    <rect
       id="rect36"
       style="opacity:0.00100002;fill:#d3dae3;fill-opacity:1"
       y="0"
       x="0"
       height="32"
       width="32" />
    <path
       d="m 16.000059,18.697508 6.743635,6.743799 c 0.74494,0.744917 1.95279,0.744917 2.69768,0 0.74496,-0.744916 0.74496,-1.952583 0,-2.697501 l -6.74386,-6.743797 6.74387,-6.7438041 c 0.74496,-0.7448941 0.74496,-1.9526132 0,-2.6975282 -0.7449,-0.744893 -1.95273,-0.744893 -2.69767,0 L 16.000059,13.302492 9.256198,6.5586697 c -0.744915,-0.744893 -1.952644,-0.744893 -2.697529,0 -0.744892,0.744915 -0.744892,1.9526131 0,2.6975282 l 6.743812,6.7438111 -6.743805,6.743803 c -0.744893,0.744917 -0.744893,1.952584 0,2.697501 0.744885,0.744916 1.952613,0.744916 2.697528,0 z"
       style="fill-rule:evenodd;stroke:none;stroke-width:1.27158;fill:#d3dae3;fill-opacity:1"
       id="path2830" />
  </g>
  <g
     id="22-22-edit-delete"
     transform="translate(32,9.9999999)"
     style="fill:#d3dae3;fill-opacity:1">
    <rect
       id="rect18"
       y="0"
       x="0"
       height="22"
       width="22"
       style="opacity:0.00100002;fill:#d3dae3;fill-opacity:1" />
    <path
       d="m 11.000083,13.158002 5.39484,5.395043 c 0.59602,0.595934 1.56229,0.595934 2.158169,0 0.59602,-0.595933 0.59602,-1.562066 0,-2.158 L 13.158003,11.00001 18.553102,5.6049671 c 0.59602,-0.595924 0.59602,-1.562093 0,-2.158018 -0.59589,-0.595923 -1.56214,-0.595923 -2.15817,0 L 11.000083,8.8419993 5.6050225,3.4469423 c -0.59602,-0.5959231 -1.56221,-0.5959231 -2.15803,0 -0.59599,0.5959249 -0.59599,1.5620919 0,2.1580179 L 8.842023,11.00001 3.4469925,16.395049 c -0.59599,0.595934 -0.59599,1.562067 0,2.158001 0.59583,0.595933 1.56202,0.595933 2.15803,0 z"
       style="fill-rule:evenodd;stroke:none;stroke-width:1.01722;fill:#d3dae3;fill-opacity:1"
       id="path2834" />
  </g>
  <g
     id="16-16-edit-delete"
     transform="translate(54,15.893175)"
     style="fill:#d3dae3;fill-opacity:1">
    <rect
       id="rect27"
       y="1.2512207e-07"
       x="0"
       height="16"
       width="16"
       style="opacity:0.00100002;fill:#d3dae3;fill-opacity:1;stroke-width:1" />
    <path
       d="m 8.000063,9.6185025 4.04613,4.0462825 c 0.44701,0.44695 1.171719,0.44695 1.61863,0 0.447009,-0.44695 0.447009,-1.17155 0,-1.6185 l -4.04632,-4.0462765 4.04632,-4.046283 c 0.447019,-0.446943 0.447019,-1.17157 0,-1.618513 -0.44691,-0.446943 -1.1716,-0.446943 -1.61862,0 l -4.04614,4.046287 -4.0463005,-4.046293 c -0.44701,-0.446942 -1.17165,-0.446942 -1.61852,0 -0.44699,0.446944 -0.44699,1.171569 0,1.618514 l 4.04627,4.046288 -4.04627,4.0462795 c -0.44699,0.44695 -0.44699,1.17155 0,1.6185 0.44687,0.44695 1.17152,0.44695 1.61852,0 z"
       style="fill-rule:evenodd;stroke:none;stroke-width:0.762915;fill:#d3dae3;fill-opacity:1"
       id="path2838" />
  </g>
</svg>
