<?xml version="1.0" encoding="UTF-8" standalone="no"?>
<svg
   width="32"
   height="32"
   version="1.1"
   id="svg32"
   sodipodi:docname="kalarm.svg"
   inkscape:version="1.3 (0e150ed6c4, 2023-07-21)"
   xmlns:inkscape="http://www.inkscape.org/namespaces/inkscape"
   xmlns:sodipodi="http://sodipodi.sourceforge.net/DTD/sodipodi-0.dtd"
   xmlns="http://www.w3.org/2000/svg"
   xmlns:svg="http://www.w3.org/2000/svg"
   xmlns:rdf="http://www.w3.org/1999/02/22-rdf-syntax-ns#"
   xmlns:cc="http://creativecommons.org/ns#"
   xmlns:dc="http://purl.org/dc/elements/1.1/">
  <g
     id="kalarm"
     transform="translate(-32)">
    <rect
       style="opacity:0.00100002;fill:#d3dae3;fill-opacity:1"
       width="32"
       height="32"
       x="0"
       y="0"
       id="rect17" />
    <path
       d="m 25.736297,22.800818 c -1.525714,-1.14613 -2.4,-2.894701 -2.4,-4.802455 v -3.999181 c 0,-3.350208 -2.257961,-6.1836757 -5.333883,-7.055507 V 6.000818 C 18.002414,4.898779 17.106089,4 16.001609,4 14.89957,4 14.000791,4.896325 14.000791,6.000818 v 0.942857 c -3.075922,0.8718313 -5.3338839,3.705299 -5.3338839,7.055507 v 3.999181 c 0,1.905312 -0.874285,3.653884 -2.4,4.802455 -0.230194,0.171429 -0.323259,0.470208 -0.232649,0.744494 0.09065,0.271831 0.345312,0.455506 0.631831,0.455506 h 6.0661299 c -0.04402,0.217961 -0.06857,0.440819 -0.06857,0.666117 0,1.83674 1.496325,3.333065 3.333065,3.333065 1.836727,0 3.333052,-1.496325 3.333052,-3.333065 0,-0.222857 -0.02208,-0.448156 -0.0661,-0.666117 h 6.066116 c 0.286533,0 0.541221,-0.183675 0.631845,-0.455506 0.09792,-0.271845 0.0027,-0.573065 -0.225312,-0.744494 z m -10.398363,-16.8 c 0,-0.367351 0.298779,-0.66613 0.666116,-0.66613 0.367351,0 0.666131,0.298779 0.666131,0.66613 v 0.697961 c -0.220416,-0.01961 -0.440819,-0.03182 -0.666131,-0.03182 -0.225298,0 -0.445714,0.0096 -0.666116,0.03182 z m 2.666935,18.663676 c 0,1.102039 -0.896325,2.000818 -2.000819,2.000818 -1.102039,0 -2.000818,-0.896338 -2.000818,-2.000818 0,-0.227753 0.03922,-0.453065 0.115063,-0.666131 h 3.771428 c 0.07598,0.213066 0.115063,0.438378 0.115063,0.666131 z M 8.3289461,22.666117 c 0.340416,-0.411429 0.636741,-0.862039 0.879196,-1.334688 0.531428,-1.038364 0.7983629,-2.157546 0.7983629,-3.333066 v -3.999181 c 0,-3.308572 2.691429,-6.0000003 6,-6.0000003 3.306117,0 6,2.6914283 6,6.0000003 v 3.999181 c 0,1.173066 0.26939,2.294702 0.798364,3.330611 0.242454,0.475104 0.538779,0.923273 0.87674,1.334701 H 8.3289461 Z"
       id="path4-3"
       style="fill:#d3dae3;fill-opacity:1;stroke-width:0.0244897" />
  </g>
  <style
     id="current-color-scheme"
     type="text/css">.ColorScheme-NegativeText { color:#bf616a; }&#10;.ColorScheme-Text { color:#d6dbf1; }&#10;</style>
  <metadata
     id="metadata38">
    <rdf:RDF>
      <cc:Work
         rdf:about="">
        <dc:format>image/svg+xml</dc:format>
        <dc:type
           rdf:resource="http://purl.org/dc/dcmitype/StillImage" />
      </cc:Work>
    </rdf:RDF>
  </metadata>
  <defs
     id="defs36" />
  <sodipodi:namedview
     pagecolor="#201933"
     bordercolor="#000000"
     borderopacity="1"
     objecttolerance="10"
     gridtolerance="10"
     guidetolerance="10"
     inkscape:pageopacity="0"
     inkscape:pageshadow="2"
     inkscape:window-width="1920"
     inkscape:window-height="994"
     id="namedview34"
     showgrid="true"
     inkscape:zoom="5.6568543"
     inkscape:cx="30.935921"
     inkscape:cy="21.655145"
     inkscape:window-x="0"
     inkscape:window-y="0"
     inkscape:window-maximized="1"
     inkscape:current-layer="svg32"
     inkscape:document-rotation="0"
     inkscape:lockguides="true"
     showguides="true"
     inkscape:pagecheckerboard="true"
     inkscape:showpageshadow="true"
     inkscape:deskcolor="#201933">
    <inkscape:grid
       id="grid1"
       units="px"
       originx="0"
       originy="0"
       spacingx="1"
       spacingy="1"
       empcolor="#0099e5"
       empopacity="0.30196078"
       color="#0099e5"
       opacity="0.14902"
       empspacing="5"
       dotted="false"
       gridanglex="30"
       gridanglez="30"
       visible="true" />
  </sodipodi:namedview>
  <g
     id="kalarm-disabled">
    <rect
       style="opacity:0.00100002"
       width="32"
       height="32"
       x="0"
       y="0"
       id="rect22" />
    <path
       d="M 13.960435,20.3668 C 13.126658,20.3658 12.450998,19.690139 12.45,18.856362 v -6.645925 c 0,-2.013916 3.020875,-2.013916 3.020875,0 v 6.645925 c -9.99e-4,0.833779 -0.676661,1.509441 -1.51044,1.510438 z m 0,-9.062625 z"
       id="path8-5"
       style="fill:#00aad4;fill-opacity:1;stroke-width:0.302089"
       sodipodi:nodetypes="ccsscccccccc"
       class="ColorScheme-NegativeText" />
    <path
       d="m 18.18966,20.3668 c -0.833776,-0.001 -1.509434,-0.676662 -1.510432,-1.510438 v -6.645925 c 0.0023,-2.011598 3.018558,-2.011598 3.020873,0 v 6.645925 c -9.99e-4,0.833779 -0.676662,1.509441 -1.510441,1.510438 z m 0,-9.062625 z"
       id="path10"
       style="fill:#00aad4;fill-opacity:1;stroke-width:0.302089"
       sodipodi:nodetypes="cccccccccccc"
       class="ColorScheme-NegativeText" />
    <path
       d="m 25.736297,22.800818 c -1.525714,-1.14613 -2.4,-2.894701 -2.4,-4.802455 v -3.999181 c 0,-3.350208 -2.257961,-6.1836757 -5.333883,-7.055507 V 6.000818 C 18.002414,4.898779 17.106089,4 16.001609,4 14.89957,4 14.000791,4.896325 14.000791,6.000818 v 0.942857 c -3.075922,0.8718313 -5.3338839,3.705299 -5.3338839,7.055507 v 3.999181 c 0,1.905312 -0.874285,3.653884 -2.4,4.802455 -0.230194,0.171429 -0.323259,0.470208 -0.232649,0.744494 0.09065,0.271831 0.345312,0.455506 0.631831,0.455506 h 6.0661299 c -0.04402,0.217961 -0.06857,0.440819 -0.06857,0.666117 0,1.83674 1.496325,3.333065 3.333065,3.333065 1.836727,0 3.333052,-1.496325 3.333052,-3.333065 0,-0.222857 -0.02208,-0.448156 -0.0661,-0.666117 h 6.066116 c 0.286533,0 0.541221,-0.183675 0.631845,-0.455506 0.09792,-0.271845 0.0027,-0.573065 -0.225312,-0.744494 z m -10.398363,-16.8 c 0,-0.367351 0.298779,-0.66613 0.666116,-0.66613 0.367351,0 0.666131,0.298779 0.666131,0.66613 v 0.697961 c -0.220416,-0.01961 -0.440819,-0.03182 -0.666131,-0.03182 -0.225298,0 -0.445714,0.0096 -0.666116,0.03182 z m 2.666935,18.663676 c 0,1.102039 -0.896325,2.000818 -2.000819,2.000818 -1.102039,0 -2.000818,-0.896338 -2.000818,-2.000818 0,-0.227753 0.03922,-0.453065 0.115063,-0.666131 h 3.771428 c 0.07598,0.213066 0.115063,0.438378 0.115063,0.666131 z M 8.3289461,22.666117 c 0.340416,-0.411429 0.636741,-0.862039 0.879196,-1.334688 0.531428,-1.038364 0.7983629,-2.157546 0.7983629,-3.333066 v -3.999181 c 0,-3.308572 2.691429,-6.0000003 6,-6.0000003 3.306117,0 6,2.6914283 6,6.0000003 v 3.999181 c 0,1.173066 0.26939,2.294702 0.798364,3.330611 0.242454,0.475104 0.538779,0.923273 0.87674,1.334701 H 8.3289461 Z"
       id="path4-3-3"
       style="fill:#d3dae3;fill-opacity:1;stroke-width:0.0244897" />
  </g>
  <g
     id="klarm-partdisabled"
     transform="translate(32,-22)">
    <rect
       style="opacity:0.00100002"
       width="32"
       height="32"
       x="0"
       y="22"
       id="rect27" />
    <path
       d="m 19.393881,41.967 h -6.820762 c -0.565054,2e-6 -1.023121,-0.458065 -1.023119,-1.023119 v -6.820762 c -2e-6,-0.565054 0.458065,-1.023121 1.023119,-1.023119 h 6.820762 c 0.565054,-2e-6 1.023121,0.458065 1.023119,1.023119 v 6.820762 c 2e-6,0.565054 -0.458065,1.023121 -1.023119,1.023119 z m -6.820762,-8.18492 c -0.18835,10e-7 -0.341037,0.152689 -0.341037,0.341039 v 6.820762 c 0,0.18835 0.152687,0.341037 0.341037,0.341038 h 6.820762 c 0.18835,0 0.341038,-0.152688 0.341038,-0.341038 z"
       id="path8"
       style="fill:#00aad4;fill-opacity:1;stroke-width:0.341042"
       sodipodi:nodetypes="ccccccccccscccsccc"
       class="ColorScheme-NegativeText" />
    <path
       d="m 25.736297,44.800818 c -1.525714,-1.14613 -2.4,-2.894701 -2.4,-4.802455 v -3.999181 c 0,-3.350208 -2.257961,-6.183676 -5.333883,-7.055507 V 28.000818 C 18.002414,26.898779 17.106089,26 16.001609,26 c -1.102039,0 -2.000818,0.896325 -2.000818,2.000818 v 0.942857 c -3.075922,0.871831 -5.3338839,3.705299 -5.3338839,7.055507 v 3.999181 c 0,1.905312 -0.874285,3.653884 -2.4,4.802455 -0.230194,0.171429 -0.323259,0.470208 -0.232649,0.744494 0.09065,0.271831 0.345312,0.455506 0.631831,0.455506 h 6.0661299 c -0.04402,0.217961 -0.06857,0.440819 -0.06857,0.666117 0,1.83674 1.496325,3.333065 3.333065,3.333065 1.836727,0 3.333052,-1.496325 3.333052,-3.333065 0,-0.222857 -0.02208,-0.448156 -0.0661,-0.666117 h 6.066116 c 0.286533,0 0.541221,-0.183675 0.631845,-0.455506 0.09792,-0.271845 0.0027,-0.573065 -0.225312,-0.744494 z m -10.398363,-16.8 c 0,-0.367351 0.298779,-0.66613 0.666116,-0.66613 0.367351,0 0.666131,0.298779 0.666131,0.66613 v 0.697961 c -0.220416,-0.01961 -0.440819,-0.03182 -0.666131,-0.03182 -0.225298,0 -0.445714,0.0096 -0.666116,0.03182 z m 2.666935,18.663676 c 0,1.102039 -0.896325,2.000818 -2.000819,2.000818 -1.102039,0 -2.000818,-0.896338 -2.000818,-2.000818 0,-0.227753 0.03922,-0.453065 0.115063,-0.666131 h 3.771428 c 0.07598,0.213066 0.115063,0.438378 0.115063,0.666131 z M 8.3289461,44.666117 c 0.340416,-0.411429 0.6367411,-0.862039 0.879196,-1.334688 0.531428,-1.038364 0.7983629,-2.157546 0.7983629,-3.333066 v -3.999181 c 0,-3.308572 2.691429,-6 6,-6 3.306117,0 6,2.691428 6,6 v 3.999181 c 0,1.173066 0.26939,2.294702 0.798364,3.330611 0.242454,0.475104 0.538779,0.923273 0.87674,1.334701 H 8.3289461 Z"
       id="path4-3-6"
       style="fill:#d3dae3;fill-opacity:1;stroke-width:0.0244897" />
  </g>
  <g
     id="22-22-kalarm"
     transform="translate(-32,-22)">
    <rect
       style="opacity:0.00100002;fill:#d3dae3;fill-opacity:1"
       width="22"
       height="22"
       x="0"
       y="0"
       id="rect2" />
    <path
       d="M 17.815482,15.533628 C 16.747474,14.769555 16.135469,13.603865 16.135469,12.332056 V 9.6659876 c 0,-2.2334272 -1.580579,-4.1223678 -3.733735,-4.703577 V 4.3338522 C 12.401734,3.5991739 11.774301,3 11.001164,3 10.229732,3 9.6005835,3.597538 9.6005835,4.3338522 V 4.9624106 C 7.4474264,5.5436198 5.8668446,7.4325604 5.8668446,9.6659876 v 2.6660684 c 0,1.270181 -0.6120029,2.435873 -1.6800085,3.201572 -0.1611366,0.114283 -0.2262828,0.313465 -0.1628553,0.49632 0.063453,0.181216 0.2417198,0.303663 0.4422841,0.303663 h 4.2463129 c -0.030813,0.145306 -0.048,0.293873 -0.048,0.444069 0,1.224469 1.0474326,2.221999 2.3331572,2.221999 1.285717,0 2.333154,-0.99753 2.333154,-2.221999 0,-0.148569 -0.01545,-0.298763 -0.04627,-0.444069 h 4.246303 c 0.200578,0 0.378861,-0.122447 0.442296,-0.303663 0.06855,-0.181228 0.0018,-0.382037 -0.157718,-0.49632 z M 10.536586,4.3338522 c 0,-0.2448961 0.209147,-0.4440781 0.466289,-0.4440781 0.257144,0 0.466288,0.199182 0.466288,0.4440781 v 0.4652976 c -0.154291,-0.01307 -0.308573,-0.02121 -0.466288,-0.02121 -0.157713,0 -0.312007,0.0064 -0.466289,0.02121 z M 12.40345,16.776053 c 0,0.734678 -0.627429,1.333852 -1.400575,1.333852 -0.771433,0 -1.4005831,-0.597547 -1.4005831,-1.333852 0,-0.151833 0.027457,-0.302038 0.080544,-0.444079 h 2.6400151 c 0.05318,0.142041 0.08052,0.292246 0.08052,0.444079 z M 5.6302707,15.44383 C 5.8685631,15.169547 6.0759919,14.869146 6.2457113,14.554053 6.6177124,13.861824 6.8045678,13.115719 6.8045678,12.332056 V 9.6659876 c 0,-2.2056705 1.88401,-3.9999201 4.2000212,-3.9999201 2.314294,0 4.200023,1.7942496 4.200023,3.9999201 v 2.6660684 c 0,0.782026 0.188574,1.529768 0.558858,2.220361 0.169719,0.316729 0.377146,0.615504 0.613719,0.889783 H 5.6302707 Z"
       id="path4-3-7"
       style="fill:#d3dae3;fill-opacity:1;stroke-width:0.0167295" />
  </g>
  <g
     id="22-22-kalarm-disabled"
     transform="translate(0,-22)">
    <rect
       style="opacity:0.00100002"
       width="22"
       height="22"
       x="0"
       y="0"
       id="rect7" />
    <path
       d="M 9.835366,13.665027 C 9.346634,13.664441 8.950585,13.268392 8.95,12.77966 V 8.8840488 c 0.0018,-1.1787317 1.768977,-1.1787317 1.770731,0 V 12.77966 c -5.85e-4,0.488731 -0.396634,0.884781 -0.885365,0.885367 z m 0,-5.3121992 z"
       id="path8-5-9"
       style="fill:#00aad4;fill-opacity:1;stroke-width:0.177075"
       sodipodi:nodetypes="cccccccccccc"
       class="ColorScheme-NegativeText" />
    <path
       d="M 12.314363,13.665027 C 11.825632,13.66444 11.429585,13.268391 11.429,12.77966 V 8.8840488 c 0.0018,-1.1787317 1.768977,-1.1787317 1.770731,0 V 12.77966 c -5.85e-4,0.488732 -0.396635,0.884782 -0.885368,0.885367 z m 0,-5.3121992 z"
       id="path10-1"
       style="fill:#00aad4;fill-opacity:1;stroke-width:0.177075"
       sodipodi:nodetypes="cccccccccccc"
       class="ColorScheme-NegativeText" />
    <path
       d="M 17.815482,15.533628 C 16.747474,14.769555 16.135469,13.603865 16.135469,12.332056 V 9.6659876 c 0,-2.2334272 -1.580579,-4.1223678 -3.733735,-4.703577 V 4.3338522 C 12.401734,3.5991739 11.774301,3 11.001164,3 10.229732,3 9.6005835,3.597538 9.6005835,4.3338522 V 4.9624106 C 7.4474264,5.5436198 5.8668446,7.4325604 5.8668446,9.6659876 v 2.6660684 c 0,1.270181 -0.6120029,2.435873 -1.6800085,3.201572 -0.1611366,0.114283 -0.2262828,0.313465 -0.1628553,0.49632 0.063453,0.181216 0.2417198,0.303663 0.4422841,0.303663 h 4.2463129 c -0.030813,0.145306 -0.048,0.293873 -0.048,0.444069 0,1.224469 1.0474326,2.221999 2.3331572,2.221999 1.285717,0 2.333154,-0.99753 2.333154,-2.221999 0,-0.148569 -0.01545,-0.298763 -0.04627,-0.444069 h 4.246303 c 0.200578,0 0.378861,-0.122447 0.442296,-0.303663 0.06855,-0.181228 0.0018,-0.382037 -0.157718,-0.49632 z M 10.536586,4.3338522 c 0,-0.2448961 0.209147,-0.4440781 0.466289,-0.4440781 0.257144,0 0.466288,0.199182 0.466288,0.4440781 v 0.4652976 c -0.154291,-0.01307 -0.308573,-0.02121 -0.466288,-0.02121 -0.157713,0 -0.312007,0.0064 -0.466289,0.02121 z M 12.40345,16.776053 c 0,0.734678 -0.627429,1.333852 -1.400575,1.333852 -0.771433,0 -1.4005831,-0.597547 -1.4005831,-1.333852 0,-0.151833 0.027457,-0.302038 0.080544,-0.444079 h 2.6400151 c 0.05318,0.142041 0.08052,0.292246 0.08052,0.444079 z M 5.6302707,15.44383 C 5.8685631,15.169547 6.0759919,14.869146 6.2457113,14.554053 6.6177124,13.861824 6.8045678,13.115719 6.8045678,12.332056 V 9.6659876 c 0,-2.2056705 1.88401,-3.9999201 4.2000212,-3.9999201 2.314294,0 4.200023,1.7942496 4.200023,3.9999201 v 2.6660684 c 0,0.782026 0.188574,1.529768 0.558858,2.220361 0.169719,0.316729 0.377146,0.615504 0.613719,0.889783 H 5.6302707 Z"
       id="path4-3-7-5"
       style="fill:#d3dae3;fill-opacity:1;stroke-width:0.0167295" />
  </g>
  <g
     id="22-22-klarm-partdisabled"
     transform="translate(32,-22)">
    <rect
       style="opacity:0.00100002"
       width="22"
       height="22"
       x="0"
       y="0"
       id="rect12" />
    <path
       d="M 13.211344,13.565 H 8.853656 C 8.492651,13.565001 8.199999,13.272349 8.2,12.911344 V 8.553653 C 8.2,8.1926494 8.492652,7.8999986 8.853656,7.9 h 4.357688 C 13.572348,7.8999986 13.865,8.1926494 13.865,8.553653 v 4.357691 c 10e-7,0.361005 -0.292651,0.653657 -0.653656,0.653656 z M 8.853656,8.33577 c -0.120332,2.6e-6 -0.217879,0.097551 -0.21788,0.217883 v 4.357691 c 10e-7,0.120332 0.09755,0.21788 0.21788,0.217883 h 4.357688 c 0.120331,-4e-6 0.217877,-0.09755 0.217878,-0.217883 z"
       id="path8-0"
       style="fill:#00aad4;fill-opacity:1;stroke-width:0.217892"
       sodipodi:nodetypes="cccsccsccccccccccc"
       class="ColorScheme-NegativeText" />
    <path
       d="M 17.815482,15.533628 C 16.747474,14.769555 16.135469,13.603865 16.135469,12.332056 V 9.665988 c 0,-2.2334276 -1.580579,-4.1223682 -3.733735,-4.7035774 V 4.3338522 C 12.401734,3.5991739 11.774301,3 11.001165,3 10.229732,3 9.6005835,3.597538 9.6005835,4.3338522 V 4.9624106 C 7.4474264,5.5436198 5.8668446,7.4325604 5.8668446,9.665988 v 2.666068 c 0,1.270181 -0.6120029,2.435873 -1.6800085,3.201572 -0.1611366,0.114283 -0.2262828,0.313465 -0.1628553,0.49632 0.063453,0.181216 0.2417198,0.303663 0.4422841,0.303663 h 4.2463129 c -0.030813,0.145306 -0.048,0.293873 -0.048,0.444069 0,1.224469 1.0474332,2.221999 2.3331582,2.221999 1.285717,0 2.333154,-0.99753 2.333154,-2.221999 0,-0.148569 -0.01545,-0.298763 -0.04627,-0.444069 h 4.246303 c 0.200578,0 0.378861,-0.122447 0.442295,-0.303663 0.06855,-0.181228 0.0018,-0.382037 -0.157718,-0.49632 z M 10.536587,4.3338522 c 0,-0.2448961 0.209146,-0.4440781 0.466289,-0.4440781 0.257144,0 0.466287,0.199182 0.466287,0.4440781 v 0.4652976 c -0.154291,-0.01307 -0.308572,-0.02121 -0.466287,-0.02121 -0.157714,0 -0.312008,0.0064 -0.466289,0.02121 z m 1.866864,12.4422008 c 0,0.734678 -0.627429,1.333852 -1.400575,1.333852 -0.771434,0 -1.4005845,-0.597547 -1.4005845,-1.333852 0,-0.151833 0.02746,-0.302038 0.08054,-0.444079 h 2.6400165 c 0.05318,0.142041 0.08052,0.292246 0.08052,0.444079 z M 5.6302707,15.44383 C 5.8685631,15.169547 6.0759919,14.869146 6.2457113,14.554053 6.6177124,13.861824 6.8045678,13.115719 6.8045678,12.332056 V 9.665988 c 0,-2.2056709 1.88401,-3.9999205 4.2000222,-3.9999205 2.314294,0 4.200022,1.7942496 4.200022,3.9999205 v 2.666068 c 0,0.782026 0.188574,1.529768 0.558858,2.220361 0.169719,0.316729 0.377146,0.615504 0.613719,0.889783 H 5.6302707 Z"
       id="path4-3-7-5-3"
       style="fill:#d3dae3;fill-opacity:1;stroke-width:0.0167295" />
  </g>
</svg>
