<?xml version="1.0" encoding="UTF-8" standalone="no"?>
<svg
   sodipodi:docname="kdeconnect.svg"
   height="31.999973"
   width="32.000015"
   inkscape:version="1.3 (0e150ed6c4, 2023-07-21)"
   version="1.1"
   id="svg"
   viewBox="0 0 32.000012 31.999973"
   xmlns:inkscape="http://www.inkscape.org/namespaces/inkscape"
   xmlns:sodipodi="http://sodipodi.sourceforge.net/DTD/sodipodi-0.dtd"
   xmlns="http://www.w3.org/2000/svg"
   xmlns:svg="http://www.w3.org/2000/svg"
   xmlns:rdf="http://www.w3.org/1999/02/22-rdf-syntax-ns#"
   xmlns:cc="http://creativecommons.org/ns#"
   xmlns:dc="http://purl.org/dc/elements/1.1/">
  <defs
     id="defs81">
    <style
       type="text/css"
       id="current-color-scheme" />
    <style
       id="current-color-scheme-9"
       type="text/css" />
    <linearGradient
       id="oomox"
       x1="448.98987"
       x2="448.98987"
       y1="94.879333"
       y2="107.52991"
       gradientTransform="matrix(1.1859917,0,0,1.8971464,-523.99826,-176)"
       gradientUnits="userSpaceOnUse">
      <stop
         offset="0%"
         style="stop-color:#303b3d; stop-opacity:1"
         id="stop18" />
      <stop
         offset="100%"
         style="stop-color:#bc985d; stop-opacity:1"
         id="stop20" />
    </linearGradient>
    <linearGradient
       id="oomox-3"
       x1="0"
       x2="0"
       y1="0"
       y2="1">
      <stop
         offset="0%"
         style="stop-color:#303b3d; stop-opacity:1"
         id="stop18-6" />
      <stop
         offset="100%"
         style="stop-color:#bc985d; stop-opacity:1"
         id="stop20-7" />
    </linearGradient>
  </defs>
  <metadata
     id="metadata34">
    <rdf:RDF>
      <cc:Work
         rdf:about="">
        <dc:format>image/svg+xml</dc:format>
        <dc:type
           rdf:resource="http://purl.org/dc/dcmitype/StillImage" />
      </cc:Work>
    </rdf:RDF>
  </metadata>
  <sodipodi:namedview
     inkscape:document-rotation="0"
     fit-margin-bottom="0"
     fit-margin-right="0"
     fit-margin-left="0"
     fit-margin-top="0"
     inkscape:snap-bbox-midpoints="true"
     inkscape:snap-bbox="true"
     inkscape:guide-bbox="true"
     showguides="true"
     borderlayer="true"
     inkscape:current-layer="svg"
     inkscape:window-maximized="1"
     inkscape:window-y="0"
     inkscape:window-x="0"
     inkscape:cy="20.692961"
     inkscape:cx="22.486643"
     inkscape:zoom="11.429007"
     showgrid="true"
     id="namedview32"
     inkscape:window-height="994"
     inkscape:window-width="1920"
     inkscape:pageshadow="2"
     inkscape:pageopacity="0.11372549"
     guidetolerance="10"
     gridtolerance="10"
     objecttolerance="10"
     borderopacity="1"
     bordercolor="#000000"
     pagecolor="#201933"
     inkscape:lockguides="false"
     inkscape:showpageshadow="true"
     inkscape:pagecheckerboard="true"
     inkscape:deskcolor="#201933">
    <inkscape:grid
       id="grid1"
       units="px"
       originx="0"
       originy="0"
       spacingx="0.9999999"
       spacingy="0.99999999"
       empcolor="#0099e5"
       empopacity="0.30196078"
       color="#0099e5"
       opacity="0.14901961"
       empspacing="5"
       dotted="false"
       gridanglex="30"
       gridanglez="30"
       visible="true" />
  </sodipodi:namedview>
  <g
     id="22-22-kdeconnect"
     transform="translate(34,9.9999999)">
    <g
       id="g5438">
      <rect
         style="fill:#000000;fill-opacity:0;stroke:none"
         id="rect3841"
         width="22"
         height="22"
         x="-1.607666e-08"
         y="3.334961e-07"
         ry="0" />
      <rect
         x="8.6999998"
         y="3"
         width="4.6999998"
         height="1.6"
         id="rect14-0-8-3-3"
         style="fill:#d3dae3;fill-opacity:1;stroke-width:1.29089"
         ry="0.80000001"
         rx="0.93999916" />
      <path
         d="M 15.775515,2.9999998 H 6.2245031 c -0.673471,0 -1.224503,0.6 -1.224503,1.333333 V 17.666665 C 5.0000001,18.4 5.5510321,19 6.2245031,19 H 15.775515 C 16.448979,19 17,18.4 17,17.666665 V 4.3333328 c 0,-0.733333 -0.551021,-1.333333 -1.224485,-1.333333 z m 0.224487,14.9999992 v 0 H 6.0000021 v 0 -13.9999992 0 h 9.9999999 v 0 z"
         id="path2-7-6"
         style="fill:#d3dae3;fill-opacity:1;stroke-width:0.319438"
         sodipodi:nodetypes="sssssssssccccccccc" />
    </g>
  </g>
  <g
     id="kdeconnect">
    <rect
       width="32.000015"
       height="31.999973"
       rx="0"
       ry="0"
       x="-3.9756776e-09"
       y="1.0478516e-07"
       id="rect3860"
       style="opacity:0.01;fill:#d3dae3;fill-opacity:1;stroke:none" />
    <rect
       x="13.300003"
       y="4"
       width="5.3333321"
       height="1.8333333"
       id="rect14-0-8-3"
       style="fill:#d3dae3;fill-opacity:1;stroke-width:1.47196"
       ry="0.91666663"
       rx="1.0666654" />
    <path
       d="M 22.367352,4.0000002 H 9.6326691 C 8.73471,4.0000002 8,4.9000002 8,5.9999992 V 25.999998 C 8,27.1 8.73471,28 9.6326691,28 H 22.367352 C 23.265309,28 24,27.1 24,25.999998 V 5.9999992 c 0,-1.099999 -0.734691,-1.999999 -1.632648,-1.999999 z M 23,25.999998 c 0,0.549994 -0.183686,0.999994 -0.632648,0.999994 H 9.6326691 c -0.448999,0 -0.632669,-0.45 -0.632669,-0.999994 V 5.9999992 c 0,-0.549999 0.184066,-0.999999 0.63307,-0.999999 H 22.367352 c 0.448962,0 0.632648,0.45 0.632648,0.999999 z"
       id="path2-3"
       style="fill:#d3dae3;fill-opacity:1;stroke-width:0.451752"
       sodipodi:nodetypes="ssssssssssssssssss" />
    <path
       d="M 9.0000001,24 H 23 v 0 -1 H 9.0000001 v 0 z"
       id="path2653-4"
       style="fill:#d3dae3;fill-opacity:1;stroke-width:0.256777"
       sodipodi:nodetypes="ccccccc" />
    <rect
       x="13.300003"
       y="26"
       width="5.3333321"
       height="1.8333333"
       id="rect14-0-8-3-36"
       style="fill:#d3dae3;fill-opacity:1;stroke-width:1.47196"
       ry="0.91666663"
       rx="1.0666654" />
  </g>
</svg>
