<?xml version="1.0" encoding="UTF-8" standalone="no"?>
<svg
   id="svg3287"
   version="1.1"
   inkscape:version="1.3 (0e150ed6c4, 2023-07-21)"
   width="32.000004"
   height="32"
   sodipodi:docname="knotes.svg"
   viewBox="0 0 32.000004 32"
   xmlns:inkscape="http://www.inkscape.org/namespaces/inkscape"
   xmlns:sodipodi="http://sodipodi.sourceforge.net/DTD/sodipodi-0.dtd"
   xmlns="http://www.w3.org/2000/svg"
   xmlns:svg="http://www.w3.org/2000/svg"
   xmlns:rdf="http://www.w3.org/1999/02/22-rdf-syntax-ns#"
   xmlns:cc="http://creativecommons.org/ns#"
   xmlns:dc="http://purl.org/dc/elements/1.1/">
  <metadata
     id="metadata4159">
    <rdf:RDF>
      <cc:Work
         rdf:about="">
        <dc:format>image/svg+xml</dc:format>
        <dc:type
           rdf:resource="http://purl.org/dc/dcmitype/StillImage" />
      </cc:Work>
    </rdf:RDF>
  </metadata>
  <defs
     id="defs3287">
    <style
       type="text/css"
       id="current-color-scheme" />
    <linearGradient
       id="oomox"
       x1="33"
       x2="33"
       y1="81"
       y2="95"
       gradientUnits="userSpaceOnUse">
      <stop
         offset="0%"
         style="stop-color:#303b3d; stop-opacity:1"
         id="stop18" />
      <stop
         offset="100%"
         style="stop-color:#bc985d; stop-opacity:1"
         id="stop20" />
    </linearGradient>
  </defs>
  <sodipodi:namedview
     pagecolor="#201933"
     bordercolor="#000000"
     borderopacity="1"
     objecttolerance="10"
     gridtolerance="10000"
     guidetolerance="10"
     inkscape:pageopacity="0"
     inkscape:pageshadow="2"
     inkscape:window-width="1920"
     inkscape:window-height="994"
     id="namedview4155"
     inkscape:document-units="px"
     showgrid="true"
     inkscape:showpageshadow="true"
     borderlayer="true"
     inkscape:zoom="11.429007"
     inkscape:cx="22.04916"
     inkscape:cy="13.868221"
     inkscape:window-x="0"
     inkscape:window-y="0"
     inkscape:window-maximized="1"
     inkscape:current-layer="svg3287"
     fit-margin-top="0"
     fit-margin-left="0"
     fit-margin-right="0"
     fit-margin-bottom="0"
     inkscape:snap-bbox="true"
     inkscape:bbox-nodes="true"
     inkscape:document-rotation="0"
     showguides="false"
     inkscape:lockguides="false"
     inkscape:pagecheckerboard="true"
     inkscape:deskcolor="#201933">
    <sodipodi:guide
       position="2.0000002,19.999999"
       orientation="28,0"
       id="guide4186"
       inkscape:locked="false" />
    <sodipodi:guide
       position="2.0000002,-8.000001"
       orientation="0,28.000004"
       id="guide4188"
       inkscape:locked="false" />
    <sodipodi:guide
       position="30.000004,-8.000001"
       orientation="-28,0"
       id="guide4190"
       inkscape:locked="false" />
    <sodipodi:guide
       position="30.000004,19.999999"
       orientation="0,-28.000004"
       id="guide4192"
       inkscape:locked="false" />
    <sodipodi:guide
       position="2.268062e-07,21.999999"
       orientation="32,0"
       id="guide4194"
       inkscape:locked="false" />
    <sodipodi:guide
       position="2.268062e-07,-10.000001"
       orientation="0,32.000004"
       id="guide4196"
       inkscape:locked="false" />
    <sodipodi:guide
       position="32.000004,-10.000001"
       orientation="-32,0"
       id="guide4198"
       inkscape:locked="false" />
    <sodipodi:guide
       position="32.000004,21.999999"
       orientation="0,-32.000004"
       id="guide4200"
       inkscape:locked="false" />
    <inkscape:grid
       id="grid1"
       units="px"
       originx="0"
       originy="0"
       spacingx="1"
       spacingy="1"
       empcolor="#0099e5"
       empopacity="0.30196078"
       color="#0099e5"
       opacity="0.14901961"
       empspacing="5"
       dotted="false"
       gridanglex="30"
       gridanglez="30"
       visible="true" />
  </sodipodi:namedview>
  <inkscape:clipboard
     style="opacity:0.01000001;fill:#00000f;fill-opacity:0;stroke-width:1;stroke-linecap:butt;stroke-linejoin:miter;stroke-miterlimit:4;stroke-dasharray:none;stroke-dashoffset:0;stroke-opacity:1;stroke:none"
     min="0,0"
     max="22,22" />
  <g
     id="knotes"
     transform="translate(31.999853,10)">
    <rect
       y="-10"
       x="-31.999853"
       height="32"
       width="32.000004"
       id="rect4230"
       style="fill:none;fill-opacity:1;stroke:none" />
    <path
       d="m -9.738984,4.000004 c 0,0 0.288142,-2e-5 0,0 h -8.347825 c -0.69518,-4.71e-4 -0.69518,-1.000471 0,-1 h 8.347825 v 0 c 0.739131,-4e-6 0.739131,0.999996 0,1 z m 0,3.999996 h -8.347825 c -0.69518,4.71e-4 -0.69518,1.000471 0,1 h 8.347825 c 0.69518,-4.71e-4 0.69518,-1.000471 0,-1 z M -3.999853,-4.434781 V 16.434781 C -4.00084,17.298818 -4.701035,17.999013 -5.565072,18 h -20.869562 c -0.864037,-9.87e-4 -1.564231,-0.701182 -1.565219,-1.565219 V -4.434781 c 9.88e-4,-0.8640372 0.701182,-1.5642315 1.565219,-1.565219 h 20.869562 c 0.864037,9.875e-4 1.564232,0.7011818 1.565219,1.565219 z M -26.434634,17 h 4.434781 V -5 h -4.434781 c -0.288013,3.282e-4 -0.564891,0.2772055 -0.565219,0.565219 v 20.869562 c 3.28e-4,0.288014 0.277206,0.564891 0.565219,0.565219 z M -4.999853,-4.434781 C -5.000181,-4.7227945 -5.277058,-4.9996718 -5.565072,-5 h -15.434781 v 22 h 15.434781 c 0.288014,-3.28e-4 0.564891,-0.277205 0.565219,-0.565219 z"
       id="path1"
       style="fill:#d3dae3;fill-opacity:1;stroke-width:0.130435"
       sodipodi:nodetypes="ccccccccccccccccccccccccccccccccccc" />
    <path
       d="M -24.449953,6.47e-4 C -25.139248,6.47e-4 -25.7,0.649272 -25.7,1.446468 v 1.186144 0.927874 6.132901 c 0,0.02762 0.005,0.05355 0.01464,0.07728 3.26e-4,0.0011 1.76e-4,0.0024 5.44e-4,0.0032 l 1.085015,2.714915 c 0.02696,0.06753 0.08549,0.110811 0.149802,0.110811 0.06434,0 0.122807,-0.04328 0.149795,-0.110816 l 0.557826,-1.395894 c 4.5e-4,-0.0013 0.0012,-0.0023 0.0017,-0.0032 3.6e-4,-0.0011 2.29e-4,-0.0023 5.73e-4,-0.0031 l 0.524898,-1.313464 c 3.61e-4,-0.0011 1.94e-4,-0.0024 5.47e-4,-0.0032 0.0091,-0.02363 0.01463,-0.04966 0.01463,-0.07728 V 3.559834 2.631965 1.44582 C -23.199861,0.6486241 -23.760618,0 -24.449824,0 Z m -1.35e-4,9.448902 v 0 -5.51186 0 z m 0.475451,1.314385 c -0.305464,-0.117466 -0.648251,-0.116766 -0.950642,9.1e-5 l -0.351607,-0.879753 h 1.653799 z m -0.475451,-1.314385 v -5.51186 0 z m 0.920032,-6.074853 h -1.839886 v 0 z m -0.919897,8.578669 -0.335279,-0.838907 c 0.214603,-0.07415 0.453287,-0.07465 0.670505,4.8e-5 z m 0.919897,-9.59049 h -1.839886 V 1.446468 c 0,-0.5867373 0.412731,-1.0640482 0.919989,-1.0640482 0.507256,0 0.919897,0.4773109 0.919897,1.0640482 z"
       id="path12-5-3"
       style="color:#eff0f1;fill:#d3dae3;fill-opacity:1;stroke-width:0.177494"
       sodipodi:nodetypes="csccscccsccccccsccsccccccccccccccccccccccccssccss"
       class="ColorScheme-Text" />
  </g>
  <g
     id="22-22-knotes"
     transform="translate(31.999853,10)">
    <rect
       style="fill:none;fill-opacity:1;stroke:none;stroke-width:0.1;stroke-linecap:square;stroke-linejoin:miter;stroke-miterlimit:4;stroke-dasharray:none;stroke-dashoffset:0;stroke-opacity:1"
       id="rect4148"
       width="22"
       height="22"
       x="1.3415527e-07"
       y="0" />
    <path
       d="m 15.173909,9.666668 c 0,0 0.192093,-1.7e-5 0,0 H 9.6087001 c -0.463459,-3.11e-4 -0.463459,-0.666975 0,-0.666664 h 5.5652089 v 0 c 0.492755,-4e-6 0.492755,0.66666 0,0.666664 z m 0,2.666668 H 9.6087001 c -0.463459,3.11e-4 -0.463459,0.666975 0,0.666664 h 5.5652089 c 0.463453,-3.11e-4 0.463453,-0.666978 0,-0.666664 z M 19,4.043481 V 17.956519 C 18.999336,18.532551 18.532551,18.999336 17.956519,19 H 4.0434798 C 3.4674533,18.999336 3.0006587,18.532551 3,17.956519 V 4.043481 C 3.0006587,3.467449 3.4674533,3.000665 4.0434798,3 H 17.956519 C 18.532551,3.000665 18.999336,3.467449 19,4.043481 Z M 5.0001469,18 H 7 L 7.0001469,4 h -2 c -1,0 -1,0 -1,1 v 12 c 0,1 0,1 1,1 z M 18.000147,5 c 0,-1 0,-1 -1,-1 H 8.0001469 v 14 h 9.0000001 c 1,0 1,0 1,-1 z"
       id="path1-5"
       style="fill:#d3dae3;fill-opacity:1;stroke-width:0.08696"
       sodipodi:nodetypes="ccccccccccccccccccccccccccccccccccc" />
    <path
       d="M 5.5499405,7.0004113 C 5.1364106,7.0004113 4.8,7.4122448 4.8,7.9184131 v 0.7531227 0.589137 3.8939852 c 0,0.0175 0.00327,0.03399 0.00877,0.04911 1.942e-4,0.0011 1.068e-4,0.0019 3.268e-4,0.0021 L 5.4600272,14.92966 C 5.4762282,14.9725 5.5113012,15 5.5498972,15 c 0.038616,0 0.073689,-0.02753 0.089868,-0.07035 l 0.3346471,-0.886328 c 2.721e-4,-0.0013 0.001,-0.0018 0.00127,-0.0021 2.159e-4,-0.0011 1.37e-4,-0.0018 3.445e-4,-0.0021 l 0.314895,-0.833963 c 2.158e-4,-0.0011 1.141e-4,-0.0019 3.249e-4,-0.0022 0.00554,-0.01496 0.00876,-0.03156 0.00876,-0.04911 V 9.2602601 8.6711251 7.9180031 C 6.2999045,7.4118332 5.9634916,7 5.5500169,7 Z m -8.07e-5,5.9994237 v 0 -3.4996628 0 z m 0.2852333,0.834548 c -0.1832558,-0.07459 -0.3889046,-0.07411 -0.5703177,5.7e-5 L 5.0538387,13.275857 h 0.99216 z M 5.5498598,12.999835 v -3.4996628 0 z M 6.1018127,9.1427073 h -1.103804 v 0 z M 5.5499405,14.589595 5.3487974,14.056944 c 0.1287462,-0.04705 0.2719376,-0.04742 0.4022525,3e-5 z M 6.1018127,8.500271 H 4.9980087 V 7.9184131 c 0,-0.3725412 0.2476137,-0.6756019 0.5519318,-0.6756019 0.3043163,0 0.5518722,0.3030607 0.5518722,0.6756019 z"
       id="path12-5-3-8"
       style="color:#eff0f1;fill:#d3dae3;fill-opacity:1;stroke-width:0.10955"
       sodipodi:nodetypes="csccscccsccccccsccsccccccccccccccccccccccccssccss"
       class="ColorScheme-Text" />
  </g>
</svg>
