<?xml version="1.0" encoding="UTF-8" standalone="no"?>
<svg
   width="32"
   height="32"
   version="1.1"
   id="svg12"
   sodipodi:docname="konv_message.svg"
   inkscape:version="1.3 (0e150ed6c4, 2023-07-21)"
   xmlns:inkscape="http://www.inkscape.org/namespaces/inkscape"
   xmlns:sodipodi="http://sodipodi.sourceforge.net/DTD/sodipodi-0.dtd"
   xmlns="http://www.w3.org/2000/svg"
   xmlns:svg="http://www.w3.org/2000/svg"
   xmlns:rdf="http://www.w3.org/1999/02/22-rdf-syntax-ns#"
   xmlns:cc="http://creativecommons.org/ns#"
   xmlns:dc="http://purl.org/dc/elements/1.1/">
  <g
     id="22-22-konv_message"
     style="fill:#556fa6;fill-opacity:1">
    <rect
       style="opacity:0.00100002;fill:#556fa6;fill-opacity:1"
       width="22"
       height="22"
       x="32"
       y="10"
       id="rect2" />
    <path
       d="m 43.000001,28.999999 c -0.309459,3.92e-4 -0.608075,-0.114176 -0.838115,-0.321554 L 40.364,26.979 C 40.077339,26.686676 39.586706,26.003245 39.17768,26 H 35.515335 C 34.126153,25.999995 33.000001,25.38905 33,23.997295 l 0.0065,-8.477292 c 0,-1.391577 1.125874,-2.519745 2.514878,-2.520003 h 14.963287 c 1.389183,4e-6 2.515337,1.128246 2.515337,2.520003 v 8.478299 C 53.000001,25.390057 51.873847,26 50.484665,26 h -3.671411 c -0.40135,-0.0018 -0.886255,0.676881 -1.168254,0.963 l -1.806883,1.71343 c -0.229741,0.20811 -0.528389,0.323408 -0.838116,0.323569 z M 35.521378,14 C 34.68787,14.000005 34,14.683945 34,15.518997 v 8.478298 C 34.000001,24.83235 34.681376,25 35.514887,25 h 3.661346 c 0.667184,-0.0018 1.30735,0.773227 1.777846,1.247148 l 1.87544,1.680338 c 0.09508,0.08629 0.239968,0.08629 0.335044,0 l 1.885503,-1.695458 C 45.520286,25.769552 46.152873,25.000101 46.811812,25 h 3.671394 C 51.316717,25 51.999999,24.833357 52,23.998302 V 15.518997 C 52,14.683955 51.316741,14.00002 50.483243,14 Z"
       id="path1899-7"
       style="fill:#7966b3;fill-opacity:1;stroke-width:1.00714"
       sodipodi:nodetypes="cccccccccssscccccccsccccccscscc" />
    <path
       d="m 36.529333,18 h 10.274668 c 0.255341,0 0.529333,-0.224002 0.529333,-0.500001 C 47.333334,17.223998 47.059342,17 46.804001,17 H 36.529333 C 36.273992,17 36,17.223998 36,17.499999 36,17.775998 36.273992,18 36.529333,18 Z"
       id="path2653-0"
       style="fill:#7966b3;fill-opacity:1;stroke-width:0.24047"
       sodipodi:nodetypes="sssssss" />
    <path
       d="m 36.559138,21.000001 h 7.548389 c 0.308648,0 0.559141,-0.223999 0.559141,-0.499999 C 44.666668,20.224004 44.416173,20 44.107527,20 H 36.559138 C 36.250491,20 36,20.224004 36,20.500002 c 0,0.276 0.250491,0.499999 0.559138,0.499999 z"
       id="path2655-9"
       style="fill:#7966b3;fill-opacity:1;stroke-width:0.264367" />
  </g>
  <style
     id="current-color-scheme"
     type="text/css">.ColorScheme-Highlight { color:#7580bc; }&#10;</style>
  <metadata
     id="metadata18">
    <rdf:RDF>
      <cc:Work
         rdf:about="">
        <dc:format>image/svg+xml</dc:format>
        <dc:type
           rdf:resource="http://purl.org/dc/dcmitype/StillImage" />
      </cc:Work>
    </rdf:RDF>
  </metadata>
  <defs
     id="defs16" />
  <sodipodi:namedview
     pagecolor="#201933"
     bordercolor="#000000"
     borderopacity="1"
     objecttolerance="10"
     gridtolerance="10"
     guidetolerance="10"
     inkscape:pageopacity="0"
     inkscape:pageshadow="2"
     inkscape:window-width="1920"
     inkscape:window-height="994"
     id="namedview14"
     showgrid="true"
     inkscape:zoom="9.8623729"
     inkscape:cx="16.223276"
     inkscape:cy="23.878635"
     inkscape:window-x="0"
     inkscape:window-y="0"
     inkscape:window-maximized="1"
     inkscape:current-layer="svg12"
     inkscape:document-rotation="0"
     inkscape:pagecheckerboard="true"
     inkscape:showpageshadow="true"
     inkscape:lockguides="false"
     inkscape:deskcolor="#201933">
    <inkscape:grid
       type="xygrid"
       id="grid896"
       originx="0"
       originy="0"
       spacingy="1"
       spacingx="1"
       units="px"
       visible="true" />
  </sodipodi:namedview>
  <g
     id="konv_message"
     style="fill:#556fa6;fill-opacity:1">
    <rect
       style="opacity:0.00100002;fill:#556fa6;fill-opacity:1"
       width="32"
       height="32"
       x="0"
       y="0"
       id="rect7" />
    <path
       d="m 16,27.999997 c -0.464187,5.87e-4 -0.912109,-0.171264 -1.257168,-0.482329 L 11.896469,24.968434 C 11.466477,24.529948 10.613538,24.004868 10,24 H 5 C 2.9162212,24 1.0000001,22.583572 0.99999998,20.495934 L 1.0090552,7.7800032 C 1.0090553,5.6923651 2.6982918,4 4.7820707,4 H 27.226985 c 2.083779,-3e-7 3.773016,1.6923649 3.773016,3.7800032 V 20.497446 C 31.000001,22.585084 29.083779,24 27,24 h -5 c -0.602029,-0.0027 -1.459884,0.515061 -1.882885,0.944242 l -2.859946,2.570402 C 16.912559,27.826808 16.464588,27.999755 16,27.999997 Z M 4.9,5 C 2.9,5 2.0000001,6.7474171 2,8 v 12 c 0,2 1.6497326,3 2.9,3 H 10 c 1.000777,-0.0026 2.226037,0.760116 2.931779,1.471 l 2.813161,2.52 c 0.142614,0.129431 0.359951,0.129431 0.502565,0 l 2.828253,-2.543 C 19.781087,23.754284 21.011591,23.000152 22,23 h 5.1 C 28.350268,23 30,22 30,20 V 8 C 30,6.7474192 29,5 27,5 Z"
       id="path1899"
       style="fill:#7966b3;fill-opacity:1;stroke-width:1.5106"
       sodipodi:nodetypes="ccccsccsssssccccsccsccccccssscs" />
    <path
       d="M 5.794,11 H 21.206 C 21.58902,11 22,10.551997 22,9.9999991 22,9.4479991 21.58902,9 21.206,9 H 5.794 C 5.4109794,9 5.000001,9.4479991 5.000001,9.9999991 5.000001,10.551997 5.4109794,11 5.794,11 Z"
       id="path2653"
       style="fill:#7966b3;fill-opacity:1;stroke-width:0.416497"
       sodipodi:nodetypes="sssssss" />
    <path
       d="M 5.8387103,16 H 17.161288 C 17.624259,16 18,15.552001 18,15.000001 18,14.448003 17.624259,14 17.161288,14 H 5.8387103 C 5.3757424,14 5.000001,14.448003 5.000001,15.000001 5.000001,15.552001 5.3757424,16 5.8387103,16 Z"
       id="path2655"
       style="fill:#7966b3;fill-opacity:1;stroke-width:0.457905" />
  </g>
</svg>
