<?xml version="1.0" encoding="UTF-8" standalone="no"?>
<svg
   sodipodi:docname="phone.svg"
   inkscape:version="1.3 (0e150ed6c4, 2023-07-21)"
   id="svg"
   viewBox="0 0 32.000015 31.999973"
   height="31.999973"
   width="32.000015"
   version="1.1"
   xmlns:inkscape="http://www.inkscape.org/namespaces/inkscape"
   xmlns:sodipodi="http://sodipodi.sourceforge.net/DTD/sodipodi-0.dtd"
   xmlns="http://www.w3.org/2000/svg"
   xmlns:svg="http://www.w3.org/2000/svg"
   xmlns:rdf="http://www.w3.org/1999/02/22-rdf-syntax-ns#"
   xmlns:cc="http://creativecommons.org/ns#"
   xmlns:dc="http://purl.org/dc/elements/1.1/">
  <style
     id="current-color-scheme"
     type="text/css">.ColorScheme-Text { color:#d6dbf1; }&#10;</style>
  <sodipodi:namedview
     inkscape:document-rotation="0"
     fit-margin-bottom="0"
     fit-margin-right="0"
     fit-margin-left="0"
     fit-margin-top="0"
     inkscape:snap-bbox-midpoints="true"
     inkscape:snap-bbox="true"
     inkscape:current-layer="svg"
     inkscape:window-maximized="1"
     inkscape:window-y="0"
     inkscape:window-x="0"
     inkscape:cy="27.0625"
     inkscape:cx="-7.625"
     inkscape:zoom="8"
     showgrid="true"
     id="namedview10"
     inkscape:window-height="994"
     inkscape:window-width="1920"
     inkscape:pageshadow="2"
     inkscape:pageopacity="0"
     guidetolerance="10"
     gridtolerance="10"
     objecttolerance="10"
     borderopacity="1"
     bordercolor="#000000"
     pagecolor="#201933"
     showguides="false"
     inkscape:lockguides="false"
     inkscape:pagecheckerboard="true"
     inkscape:showpageshadow="true"
     inkscape:deskcolor="#201933">
    <inkscape:grid
       id="grid1"
       units="px"
       originx="0"
       originy="0"
       spacingx="0.99999999"
       spacingy="0.99999999"
       empcolor="#0099e5"
       empopacity="0.30196078"
       color="#0099e5"
       opacity="0.14902"
       empspacing="5"
       dotted="false"
       gridanglex="30"
       gridanglez="30"
       visible="true" />
  </sodipodi:namedview>
  <defs
     id="defs81">
    <style
       id="style5"
       type="text/css" />
  </defs>
  <metadata
     id="metadata34">
    <rdf:RDF>
      <cc:Work
         rdf:about="">
        <dc:format>image/svg+xml</dc:format>
        <dc:type
           rdf:resource="http://purl.org/dc/dcmitype/StillImage" />
      </cc:Work>
    </rdf:RDF>
  </metadata>
  <g
     id="22-22-phone-battery"
     transform="translate(7.061994,73.5)">
    <rect
       y="-34.5"
       x="-2.999994"
       height="22"
       width="22"
       id="rect3054"
       style="fill:#000000;fill-opacity:0;stroke:none" />
    <path
       style="fill:#00aad4;fill-opacity:1;fill-rule:evenodd;stroke:none;stroke-width:0.716481"
       d="M 8.6666971,-27.5 6.000006,-23.681851 H 7.3333138 V -20.5 l 2.6666922,-3.81822 H 8.6666971 Z"
       id="path3072"
       inkscape:connector-curvature="0"
       sodipodi:nodetypes="ccccccc" />
    <path
       d="M 11.558006,-31.5 H 4.3180054 c -0.7599984,0 -1.3799984,0.522655 -1.3799984,1.16333 v 13.67334 c 0,0.640674 0.62,1.163329 1.3799984,1.163329 h 7.2400006 c 0.76,0 1.380001,-0.522655 1.380001,-1.163329 v -13.67334 c 0,-0.640675 -0.620001,-1.16333 -1.380001,-1.16333 z m -2.619999,0 v 0 0 z m -1.0200031,14.988408 c -0.4,0 -0.7200001,-0.269757 -0.7200001,-0.606954 0,-0.337197 0.3200001,-0.606955 0.7200001,-0.606955 0.4,0 0.7199993,0.269758 0.7199993,0.606955 -0.02,0.337197 -0.3399993,0.606954 -0.7199993,0.606954 z M 11.938007,-18.5 h -8 v -11 h 8 z"
       id="path10-2-6"
       style="fill:#d3dae3;fill-opacity:1;stroke-width:0.183629"
       class="ColorScheme-Text"
       sodipodi:nodetypes="ssssssssscsccsccssscsccccc" />
  </g>
  <g
     id="22-22-phone"
     transform="translate(7.999996,73.5)">
    <rect
       style="fill:#000000;fill-opacity:0;stroke:none"
       id="rect3841"
       width="22"
       height="22"
       x="-54.999996"
       y="-34.5" />
    <path
       d="m -40.379996,-31.5 h -7.240001 c -0.759999,0 -1.379999,0.522655 -1.379999,1.16333 v 13.67334 c 0,0.640674 0.62,1.163329 1.379999,1.163329 h 7.240001 c 0.759999,0 1.38,-0.522655 1.38,-1.163329 v -13.67334 c 0,-0.640675 -0.620001,-1.16333 -1.38,-1.16333 z m -1.619999,0 z m -2.020001,14.988408 c -0.4,0 -0.72,-0.269757 -0.72,-0.606954 0,-0.337197 0.32,-0.606955 0.72,-0.606955 0.4,0 0.719999,0.269758 0.719999,0.606955 -0.02,0.337197 -0.339999,0.606954 -0.719999,0.606954 z M -39.999995,-18.5 h -8 v -11 h 8 z"
       id="path10-2-6-9"
       style="fill:#d3dae3;fill-opacity:1;stroke-width:0.18363"
       class="ColorScheme-Text"
       sodipodi:nodetypes="sssssssssscccscsssscsccccc" />
  </g>
  <g
     id="phone"
     transform="translate(-52)"
     style="fill:#d3dae3;fill-opacity:1">
    <rect
       width="32.000015"
       height="31.999973"
       rx="0"
       ry="0"
       x="-2.9711913e-07"
       y="-3.8330079e-08"
       id="rect3860"
       style="opacity:0.01;fill:#d3dae3;fill-opacity:1;stroke:none" />
    <path
       d="m 9,6.7034602 c -0.1766622,0 -0.3,0.1234107 -0.3,0.2755833 v 0.5410951 c 0,0.1544591 0.1246643,0.2755833 0.3,0.2755833 v 0.8189556 c -0.1766622,0 -0.3,0.1211295 -0.3,0.2706351 V 9.982518 c 0,0.147221 0.1246643,0.270446 0.3,0.270446 v 0.546018 c -0.1766622,0 -0.3,0.121128 -0.3,0.270636 v 1.097011 c 0,0.14741 0.1246643,0.270636 0.3,0.270636 v 14.19776 C 9,27.388063 9.7298584,28 10.608057,28 H 21.40959 C 22.287394,28 23,27.388843 23,26.635025 V 5.3378954 C 23,4.5850536 22.288011,4 21.40959,4 h -0.316321 c 0,-0.1517918 -0.141626,-0.3 -0.316312,-0.3 h -2.545152 c -0.17156,0 -0.31631,0.1491589 -0.31631,0.3 H 10.60836 C 9.7305664,4 9,4.5840786 9,5.3378954 Z m 5.896493,19.7949558 c 0,-0.527736 0.499192,-0.955522 1.112341,-0.955522 0.61421,0 1.112098,0.428901 1.112098,0.955522 0,0.527733 -0.499193,0.955716 -1.112098,0.955716 -0.614454,0 -1.112341,-0.428901 -1.112341,-0.955716 z M 10,6 H 22 V 25 H 10 Z m 8,-2 z"
       fill-rule="evenodd"
       id="path76"
       style="fill:#d3dae3;fill-opacity:1;stroke-width:0.0525992"
       class="ColorScheme-Text"
       sodipodi:nodetypes="cssccssccsscsssssscsscsccsssssccccccscccsc" />
  </g>
  <g
     id="phone-battery"
     style="fill:#d3dae3;fill-opacity:1">
    <rect
       style="opacity:0.01;fill:#d3dae3;fill-opacity:1;stroke:none"
       id="rect3038"
       y="0"
       x="0"
       ry="0"
       rx="0"
       height="31.999973"
       width="32.000015" />
    <path
       sodipodi:nodetypes="ccccccc"
       inkscape:connector-curvature="0"
       id="path4444"
       d="M 17.163559,9.55 12.8,16.0954 h 2.181719 V 21.55 l 4.36356,-6.54552 h -2.18172 z"
       style="fill:#00aad4;fill-opacity:1;fill-rule:evenodd;stroke:none" />
    <path
       d="m 9,6.70346 c -0.176662,0 -0.3,0.123411 -0.3,0.275584 v 0.541095 c 0,0.154459 0.124664,0.275583 0.3,0.275583 v 0.818956 c -0.176662,0 -0.3,0.121129 -0.3,0.270635 v 1.097205 c 0,0.147221 0.124664,0.270446 0.3,0.270446 v 0.546018 c -0.176662,0 -0.3,0.121128 -0.3,0.270636 v 1.097011 c 0,0.14741 0.124664,0.270636 0.3,0.270636 v 14.19776 C 9,27.388063 9.729858,28 10.608057,28 H 21.40959 c 0.877803,0 1.590409,-0.611157 1.590409,-1.364975 V 5.337895 C 22.999999,4.585054 22.28801,4 21.40959,4 h -0.316322 c 0,-0.151792 -0.141625,-0.3 -0.316311,-0.3 h -2.545152 c -0.17156,0 -0.316311,0.149159 -0.316311,0.3 H 10.608359 C 9.730566,4 9,4.584079 9,5.337895 Z m 5.896492,19.794956 c 0,-0.527736 0.499193,-0.955522 1.112342,-0.955522 0.61421,0 1.112097,0.428901 1.112097,0.955522 0,0.527733 -0.499193,0.955716 -1.112097,0.955716 -0.614455,0 -1.112342,-0.428901 -1.112342,-0.955716 z M 9.999999,6 h 12 v 19 h -12 z m 8,-2 z"
       fill-rule="evenodd"
       id="path76-36"
       style="fill:#d3dae3;fill-opacity:1;stroke-width:0.0525992"
       sodipodi:nodetypes="cssccssccsscsssssscsscsccsssssccccccscccsc"
       class="ColorScheme-Text" />
  </g>
</svg>
