<?xml version="1.0" encoding="UTF-8" standalone="no"?>
<svg
   width="64"
   height="32"
   viewBox="0 0 64 32"
   version="1.1"
   id="svg867"
   inkscape:version="1.3 (0e150ed6c4, 2023-07-21)"
   sodipodi:docname="redshift.svg"
   xmlns:inkscape="http://www.inkscape.org/namespaces/inkscape"
   xmlns:sodipodi="http://sodipodi.sourceforge.net/DTD/sodipodi-0.dtd"
   xmlns="http://www.w3.org/2000/svg"
   xmlns:svg="http://www.w3.org/2000/svg"
   xmlns:rdf="http://www.w3.org/1999/02/22-rdf-syntax-ns#"
   xmlns:cc="http://creativecommons.org/ns#"
   xmlns:dc="http://purl.org/dc/elements/1.1/">
  <defs
     id="defs3871">
    <style
       type="text/css"
       id="current-color-scheme">&#10;      .ColorScheme-Text {&#10;        color:#31363b;&#10;      }&#10;      </style>
  </defs>
  <sodipodi:namedview
     inkscape:object-paths="true"
     guideopacity="0.62745098"
     guidecolor="#0000ff"
     inkscape:bbox-nodes="true"
     inkscape:snap-intersection-paths="true"
     inkscape:snap-bbox="true"
     id="base"
     pagecolor="#201933"
     bordercolor="#000000"
     borderopacity="1"
     inkscape:pageopacity="0.0"
     inkscape:pageshadow="2"
     inkscape:zoom="7.2548505"
     inkscape:cx="13.646043"
     inkscape:cy="29.842104"
     inkscape:document-units="px"
     inkscape:current-layer="layer1"
     inkscape:document-rotation="0"
     showgrid="true"
     inkscape:window-width="1920"
     inkscape:window-height="994"
     inkscape:window-x="0"
     inkscape:window-y="0"
     inkscape:window-maximized="1"
     units="px"
     inkscape:snap-bbox-edge-midpoints="false"
     inkscape:lockguides="false"
     inkscape:pagecheckerboard="true"
     inkscape:showpageshadow="2"
     inkscape:deskcolor="#201933">
    <inkscape:grid
       id="grid1"
       units="px"
       originx="-44"
       originy="10"
       spacingx="1"
       spacingy="1"
       empcolor="#0099e5"
       empopacity="0.30196078"
       color="#0099e5"
       opacity="0.14902"
       empspacing="5"
       dotted="false"
       gridanglex="30"
       gridanglez="30"
       visible="true" />
  </sodipodi:namedview>
  <metadata
     id="metadata864">
    <rdf:RDF>
      <cc:Work
         rdf:about="">
        <dc:format>image/svg+xml</dc:format>
        <dc:type
           rdf:resource="http://purl.org/dc/dcmitype/StillImage" />
      </cc:Work>
    </rdf:RDF>
  </metadata>
  <g
     inkscape:label="Layer 1"
     inkscape:groupmode="layer"
     id="layer1">
    <g
       id="redshift-status-off">
      <rect
         style="opacity:0.003;fill:#d3dae3;fill-opacity:1;stroke-width:1"
         id="rect1033"
         width="32"
         height="32"
         x="32"
         y="0" />
      <path
         d="M 48,23.24575 45,23.2 v 1.919996 h 4.999998 v 1.919997 H 45 v 0.365942 c 0,0.327328 0.224499,0.594063 0.499992,0.594063 h 5.000004 C 50.775499,28.000001 51,27.733266 51,27.40594 v -4.205934 c -3,0.04574 -3,0.04574 -3,0.04574 z"
         id="path14-36"
         style="fill:#d3dae3;fill-opacity:1;stroke-width:0.545007"
         sodipodi:nodetypes="ccccccssssccc" />
      <path
         d="m 41.9,18 1.3,-1.2 C 41.844664,15.321632 41.379276,14.295619 41.385832,12.125 41.404703,8.7186672 44.27836,5.7887663 47.83465,5.700191 H 48 c 1.734582,-0.00607 3.400342,0.6773363 4.629917,1.8995138 V 7.5 l 1.157482,-1.1391089 v 0 C 48.567375,1.2496713 39.505733,5 39.524491,12 39.454461,14.436714 39.982046,16.476621 41.9,18 Z"
         id="path2-8"
         style="fill:#d3dae3;fill-opacity:1;stroke-width:0.826323"
         sodipodi:nodetypes="ccccccccccc" />
      <path
         d="M 60.25,6.1 59.1,5 55.440944,8.8755122 54.200792,10.114325 44.692912,19.6119 43.122051,21.181059 37.5,26.797015 l 1.157487,1.156227 5.291332,-5.285603 c 0.447176,0.357472 0.998406,0.560335 1.570868,0.578111 h 4.960625 c 1.389553,0.04875 2.529121,-1.089576 2.480321,-2.477624 v -1.651757 c 2.081856,-1.559704 3.307081,-4.007502 3.30708,-6.607005 0.0046,-0.641517 -0.07885,-1.280637 -0.248027,-1.899512 z m -8.612204,11.942738 -0.330709,0.165173 v 2.560215 c 0.05688,0.477684 -0.348573,0.8827 -0.826775,0.82588 h -5.374018 l 9.507876,-9.580164 v 0.495522 c 0.02052,2.23155 -1.102183,4.318774 -2.976374,5.533374 z"
         id="path3"
         style="fill:#d3dae3;fill-opacity:1;stroke-width:0.826323"
         sodipodi:nodetypes="cccccccccccccccccccccccc" />
    </g>
    <g
       id="22-22-redshift-status-off">
      <rect
         style="opacity:0.003;fill:#d3dae3;fill-opacity:1"
         id="rect1467-9-7-9-9-4-67"
         width="22"
         height="22"
         x="-22"
         y="10" />
      <path
         d="m -12.590911,25.799997 c -0.108179,0 -0.213816,0.01848 -0.318178,3e-6 v 1.279997 h 3.1818192 v 1.279998 h -3.1818192 v 0.243964 c 0,0.218209 0.142863,0.396041 0.318178,0.396041 h 3.181822 c 0.1753203,0 0.3181849,-0.177832 0.3181849,-0.396041 v -2.803956 c -0.104362,0.01848 -0.21,-6e-6 -0.3181849,-6e-6 z"
         id="path14-36-9"
         style="fill:#d3dae3;fill-opacity:1;stroke-width:0.354976"
         sodipodi:nodetypes="scccccsssscss" />
      <path
         d="m -14.362203,22.887748 0.771653,-0.770833 a 4.5196879,4.5147912 0 0 1 -1.818895,-3.63384 4.4094507,4.4046737 0 0 1 4.299216,-4.349615 h 0.110234 a 4.3543325,4.3496147 0 0 1 3.086612,1.266335 l 0.4960683,0.550578 0.7716487,-0.770809 -0.496062,-0.605644 a 5.5118141,5.5058423 0 0 0 -9.370073,3.909155 5.4566962,5.4507829 0 0 0 2.149598,4.404673 z"
         id="path2-8-7"
         style="fill:#d3dae3;fill-opacity:1;stroke-width:0.550883" />
      <path
         d="m -2.1,13.7 -0.8,-0.7 -3.1393634,3.250326 -0.8267689,0.825888 -6.3385907,6.331707 -1.04724,1.046116 L -18,28.198 l 0.771647,0.770833 3.527568,-3.52375 c 0.298118,0.238314 0.665604,0.373556 1.047246,0.385407 h 3.3070854 c 0.9263632,0.0325 1.6860728,-0.726375 1.6535485,-1.651736 v -1.101189 c 1.3879031,-1.039802 2.2047198,-2.671665 2.2047212,-4.404666 0.00307,-0.427676 -0.052568,-0.853754 -0.165352,-1.266335 z m -6.4747972,8.661831 -0.2204727,0.110098 v 1.706825 c 0.03792,0.318455 -0.2323831,0.588465 -0.5511837,0.550585 h -3.5826804 l 6.3385872,-6.386784 v 0.330344 c 0.013688,1.487706 -0.7347847,2.879196 -1.9842504,3.688932 z"
         id="path3-3"
         style="fill:#d3dae3;fill-opacity:1;stroke-width:0.550883"
         sodipodi:nodetypes="cccccccccccccccccccccccc" />
    </g>
    <g
       id="22-22-redshift-status-on">
      <rect
         y="10"
         x="-44"
         height="22"
         width="22"
         id="rect1467-9-7-9-9-4"
         style="opacity:0.003;fill:#d3dae3;fill-opacity:1" />
      <path
         d="m -34.700671,25.799998 c -0.113335,0 -0.224,0.01855 -0.333335,3e-6 v 1.279997 h 3.333335 v 1.280001 h -3.333335 v 0.243959 c 0,0.218213 0.149661,0.396042 0.333335,0.396042 h 3.333345 c 0.183668,0 0.333321,-0.177829 0.333321,-0.396041 v -2.803955 c -0.109321,0.01854 -0.22,-6e-6 -0.333321,-6e-6 z"
         id="path14-1"
         style="fill:#d3dae3;fill-opacity:1;stroke-width:0.363331"
         sodipodi:nodetypes="scccccsssscss" />
      <path
         d="m -31.381418,19.859341 c -1.535102,0 -2.778704,-1.24428 -2.778704,-2.778765 0,-0.505332 0.145038,-0.972765 0.380804,-1.380576 C -35.058787,16.06915 -36,17.235017 -36,18.63331 c 0,1.693242 1.372559,3.06669 3.06588,3.06669 1.398267,0 2.565196,-0.94209 2.93412,-2.220824 -0.408777,0.235222 -0.875979,0.380165 -1.381418,0.380165"
         fill-opacity="1"
         fill-rule="nonzero"
         stroke="none"
         id="path1-9"
         style="fill:#d3dae3;fill-opacity:1;stroke-width:0.115155" />
      <path
         d="m -29.150005,14.586726 a 5.5000057,5.5506358 0 0 0 -9.35,3.940948 5.6100044,5.6616468 0 0 0 2.2,4.496022 v 1.110127 a 1.5950009,1.6096849 0 0 0 1.649999,1.665178 h 3.300001 a 1.5950009,1.6096849 0 0 0 1.650008,-1.665178 v -1.110127 a 5.5000057,5.5506358 0 0 0 2.200002,-4.440525 5.6100044,5.6616468 0 0 0 -1.65001,-3.996445 z m -1.429995,7.715385 -0.219995,0.11101 v 1.720702 a 0.49500048,0.49955725 0 0 1 -0.55001,0.555057 h -3.300001 a 0.49500048,0.49955725 0 0 1 -0.55,-0.555057 v -1.720702 l -0.219993,-0.11101 a 4.5100043,4.5515206 0 0 1 -1.980005,-3.774437 4.4000043,4.4405079 0 0 1 4.289999,-4.385005 h 0.11001 a 4.3450038,4.3850022 0 0 1 3.079996,1.276648 4.4000043,4.4405079 0 0 1 1.320003,3.163854 4.3450038,4.3850022 0 0 1 -1.980004,3.71894 z"
         id="path1-6-3"
         style="fill:#d3dae3;fill-opacity:1;stroke-width:0.552532" />
      <path
         d="m -32,17 v 0 0 0 0 m 0.29978,-2 c 0,1.104613 -0.89537,1.999998 -1.99978,1.999998 1.10441,0 1.99978,0.895389 1.99978,2.000002 0,-1.104613 0.895809,-2.000002 1.999809,-2.000002 -1.104,-1.37e-4 -1.999809,-0.895593 -1.999809,-1.999998 z"
         id="path6-7-9"
         style="fill:#ffff00;fill-opacity:1;stroke-width:0.204521"
         sodipodi:nodetypes="cccccccccc" />
    </g>
    <g
       id="redshift-status-on">
      <rect
         y="0"
         x="3.5527137e-15"
         height="32"
         width="32"
         id="rect910"
         style="opacity:0.003;fill:#d3dae3;fill-opacity:1;stroke-width:1" />
      <path
         d="m 13.499999,23.200004 c -0.17,0 -0.335999,0.02789 -0.499999,3e-6 v 1.919996 h 4.999999 v 1.92 H 13 v 0.365937 c 0,0.327326 0.224496,0.594063 0.499999,0.594063 h 5.000004 C 18.775503,28.000003 19,27.733266 19,27.405942 V 23.20001 c -0.163997,0.02787 -0.329999,-6e-6 -0.499997,-6e-6 z"
         id="path14"
         style="fill:#d3dae3;fill-opacity:1;stroke-width:0.545005"
         sodipodi:nodetypes="scccccsssscss" />
      <path
         d="m 18.697639,14.432232 c -2.558499,0 -4.631183,-2.073801 -4.631183,-4.6312674 0,-0.8422301 0.241736,-1.6212781 0.634675,-2.3009646 C 12.568687,8.1152462 11,10.058365 11,12.38885 11,15.210919 13.2876,17.5 16.109796,17.5 18.440238,17.5 20.385122,15.929847 21,13.798625 c -0.681297,0.392041 -1.459971,0.633607 -2.302361,0.633607"
         fill-opacity="1"
         fill-rule="nonzero"
         stroke="none"
         id="path1"
         style="fill:#d3dae3;fill-opacity:1;stroke-width:0.191923" />
      <path
         d="M 21.826005,6.3801035 C 16.617166,1.2272915 7.7297104,5 7.801,12 c -1.606e-4,2.643855 1.2197753,5.428496 3.299997,7.035546 v 1.665188 c -0.0487,1.399339 1.088429,2.546927 2.475004,2.49778 h 4.949996 c 1.386575,0.04915 2.523699,-1.098441 2.475004,-2.49778 V 19.035546 C 23.0784,17.463153 24.301002,14.995437 24.301,12.374783 24.295539,10.124554 23.405379,7.9684994 21.826005,6.3801035 Z M 19.680997,17.953172 19.351003,18.11969 v 2.581044 c 0.05676,0.481568 -0.347831,0.889874 -0.825006,0.832591 h -4.949996 c -0.477174,0.05728 -0.88176,-0.351024 -0.825005,-0.832591 V 18.11969 L 12.421003,17.953172 C 10.560674,16.680931 9.4477746,14.267911 9.4510001,12 9.4942695,8.4178158 12.337329,5.8033243 15.885999,5.7140283 h 0.165005 c 1.730865,-0.00612 3.393056,0.6828475 4.619995,1.9149677 1.263716,1.2500867 1.977091,2.959947 1.980001,4.745787 0.02048,2.249706 -1.099826,4.35391 -2.970003,5.578389 z"
         id="path1-6"
         style="fill:#d3dae3;fill-opacity:1;stroke-width:0.828794"
         sodipodi:nodetypes="cccccccccccccccccccccccc" />
      <path
         d="m 18,10 v 0 0 0 0 m -3.1e-5,-3.5 c 0,1.933071 -1.56706,3.499999 -3.499969,3.499999 1.932909,0 3.499969,1.566928 3.499969,3.500001 0,-1.933073 1.567834,-3.500001 3.500031,-3.500001 C 19.567803,9.999761 17.999969,8.432706 17.999969,6.5 Z"
         id="path6-7-9-9"
         style="fill:#ffff00;fill-opacity:1;stroke-width:0.357929"
         sodipodi:nodetypes="cccccccccc" />
    </g>
  </g>
</svg>
