<?xml version="1.0" encoding="UTF-8" standalone="no"?>
<svg
   version="1.1"
   width="32"
   height="32"
   id="svg3013"
   inkscape:version="1.3 (0e150ed6c4, 2023-07-21)"
   sodipodi:docname="skype.svg"
   xmlns:inkscape="http://www.inkscape.org/namespaces/inkscape"
   xmlns:sodipodi="http://sodipodi.sourceforge.net/DTD/sodipodi-0.dtd"
   xmlns:xlink="http://www.w3.org/1999/xlink"
   xmlns="http://www.w3.org/2000/svg"
   xmlns:svg="http://www.w3.org/2000/svg"
   xmlns:rdf="http://www.w3.org/1999/02/22-rdf-syntax-ns#"
   xmlns:cc="http://creativecommons.org/ns#"
   xmlns:dc="http://purl.org/dc/elements/1.1/">
  <sodipodi:namedview
     pagecolor="#201933"
     bordercolor="#000000"
     borderopacity="1"
     objecttolerance="10"
     gridtolerance="10"
     guidetolerance="10"
     inkscape:pageopacity="0"
     inkscape:pageshadow="2"
     inkscape:window-width="1920"
     inkscape:window-height="994"
     id="namedview66"
     showgrid="true"
     inkscape:zoom="9.9335449"
     inkscape:cx="21.945841"
     inkscape:cy="16.258043"
     inkscape:window-x="0"
     inkscape:window-y="0"
     inkscape:window-maximized="1"
     inkscape:current-layer="layer1"
     inkscape:lockguides="true"
     inkscape:document-rotation="0"
     inkscape:showpageshadow="true"
     inkscape:pagecheckerboard="true"
     inkscape:deskcolor="#201933">
    <inkscape:grid
       id="grid1"
       units="px"
       originx="0"
       originy="-1.315155e-05"
       spacingx="1"
       spacingy="1"
       empcolor="#0099e5"
       empopacity="0.30196078"
       color="#0099e5"
       opacity="0.14901961"
       empspacing="5"
       dotted="false"
       gridanglex="30"
       gridanglez="30"
       visible="true" />
  </sodipodi:namedview>
  <defs
     id="defs3015">
    <linearGradient
       id="linearGradient5009">
      <stop
         id="stop5011"
         style="stop-color:#000000;stop-opacity:1"
         offset="0" />
      <stop
         id="stop5013"
         style="stop-color:#000000;stop-opacity:0"
         offset="1" />
    </linearGradient>
    <linearGradient
       id="linearGradient4249">
      <stop
         id="stop4251"
         style="stop-color:#ffffff;stop-opacity:1"
         offset="0" />
      <stop
         id="stop4253"
         style="stop-color:#ffffff;stop-opacity:0.78431374"
         offset="0.47000003" />
      <stop
         id="stop4255"
         style="stop-color:#ffffff;stop-opacity:0.51724136"
         offset="0.75125003" />
      <stop
         id="stop4257"
         style="stop-color:#ffffff;stop-opacity:1"
         offset="1" />
    </linearGradient>
    <linearGradient
       id="linearGradient3289">
      <stop
         id="stop3291"
         style="stop-color:#ffffff;stop-opacity:1"
         offset="0" />
      <stop
         id="stop3294"
         style="stop-color:#ffffff;stop-opacity:1"
         offset="1" />
    </linearGradient>
    <linearGradient
       id="linearGradient2916">
      <stop
         id="stop2918"
         style="stop-color:#ffffff;stop-opacity:1"
         offset="0" />
      <stop
         id="stop2920"
         style="stop-color:#ffffff;stop-opacity:0"
         offset="1" />
    </linearGradient>
    <linearGradient
       id="linearGradient3140">
      <stop
         id="stop3142"
         style="stop-color:#ffffff;stop-opacity:1"
         offset="0" />
      <stop
         id="stop3144"
         style="stop-color:#ffffff;stop-opacity:0"
         offset="1" />
    </linearGradient>
    <linearGradient
       id="linearGradient2895">
      <stop
         id="stop2897"
         style="stop-color:#ffffff;stop-opacity:1"
         offset="0" />
      <stop
         id="stop2899"
         style="stop-color:#ffffff;stop-opacity:0"
         offset="1" />
    </linearGradient>
    <linearGradient
       x1="38.875084"
       y1="67.528122"
       x2="90.409752"
       y2="67.528122"
       id="linearGradient6228"
       xlink:href="#linearGradient2916"
       gradientUnits="userSpaceOnUse"
       gradientTransform="matrix(0.511504,0,0,1.80649,68.030435,-6.0981568)" />
    <linearGradient
       x1="38.875084"
       y1="67.528122"
       x2="90.409752"
       y2="67.528122"
       id="linearGradient6233"
       xlink:href="#linearGradient2916"
       gradientUnits="userSpaceOnUse"
       gradientTransform="matrix(0.511504,0,0,0.96108,67.773305,4.8320565)" />
    <linearGradient
       x1="11.543377"
       y1="3.4375"
       x2="10.88339"
       y2="5.9006019"
       id="linearGradient6238"
       xlink:href="#linearGradient2895"
       gradientUnits="userSpaceOnUse"
       gradientTransform="matrix(5.467529,0,0,5.820575,24.290213,-2.0656323)" />
    <linearGradient
       x1="38.875084"
       y1="67.528122"
       x2="90.409752"
       y2="67.528122"
       id="linearGradient6243"
       xlink:href="#linearGradient2916"
       gradientUnits="userSpaceOnUse"
       gradientTransform="matrix(0.511504,0,0,0.77135,67.773305,6.6291413)" />
    <radialGradient
       cx="68.000046"
       cy="-117.34602"
       r="27.999956"
       fx="68.000046"
       fy="-117.34602"
       id="radialGradient9168"
       xlink:href="#linearGradient3140"
       gradientUnits="userSpaceOnUse"
       gradientTransform="matrix(0.990365,0,0,1.664158,16.251985,75.514833)" />
    <linearGradient
       x1="18.01074"
       y1="65.760353"
       x2="72.498932"
       y2="65.760353"
       id="linearGradient2867"
       xlink:href="#linearGradient3289"
       gradientUnits="userSpaceOnUse"
       gradientTransform="matrix(1.017716,0,0,0.960169,5.524222,-18.774756)" />
    <linearGradient
       id="linearGradient4046-1-38">
      <stop
         id="stop4048-6-5"
         style="stop-color:#ffffff;stop-opacity:0"
         offset="0" />
      <stop
         id="stop4051-4-0"
         style="stop-color:#ffffff;stop-opacity:0.72661871"
         offset="1" />
    </linearGradient>
    <linearGradient
       id="linearGradient16006-3-9">
      <stop
         id="stop16008-5-6"
         style="stop-color:#ffffff;stop-opacity:0.58823532"
         offset="0" />
      <stop
         id="stop16016-1-7"
         style="stop-color:#ffffff;stop-opacity:0.8705036"
         offset="0.25" />
      <stop
         id="stop16014-1-2"
         style="stop-color:#ffffff;stop-opacity:0.58823532"
         offset="0.5" />
      <stop
         id="stop3998"
         style="stop-color:#ffffff;stop-opacity:0.8561151"
         offset="0.75" />
      <stop
         id="stop16010-4-1"
         style="stop-color:#ffffff;stop-opacity:0.58823532"
         offset="1" />
    </linearGradient>
    <linearGradient
       id="linearGradient4124">
      <stop
         id="stop4126"
         style="stop-color:#ffffff;stop-opacity:0.70503598"
         offset="0" />
      <stop
         id="stop4128"
         style="stop-color:#ffffff;stop-opacity:0.6978417"
         offset="0.185378" />
      <stop
         id="stop4130"
         style="stop-color:#ffffff;stop-opacity:0.80575538"
         offset="0.44680852" />
      <stop
         id="stop4132"
         style="stop-color:#ffffff;stop-opacity:0.77697843"
         offset="0.76861703" />
      <stop
         id="stop4134"
         style="stop-color:#ffffff;stop-opacity:0.74100721"
         offset="1" />
    </linearGradient>
    <linearGradient
       x1="3.0267859"
       y1="1040.4602"
       x2="21.776787"
       y2="1040.4602"
       id="linearGradient4717"
       xlink:href="#linearGradient4124"
       gradientUnits="userSpaceOnUse" />
    <linearGradient
       x1="12.580358"
       y1="1031.4336"
       x2="12.580358"
       y2="1049.4011"
       id="linearGradient4727"
       xlink:href="#linearGradient4124"
       gradientUnits="userSpaceOnUse" />
    <linearGradient
       x1="12"
       y1="1031.3356"
       x2="12.178572"
       y2="1049.2603"
       id="linearGradient4929"
       xlink:href="#linearGradient4249"
       gradientUnits="userSpaceOnUse" />
    <linearGradient
       x1="12"
       y1="1031.3356"
       x2="12.178572"
       y2="1049.2603"
       id="linearGradient4991"
       xlink:href="#linearGradient4249"
       gradientUnits="userSpaceOnUse"
       gradientTransform="translate(24)" />
    <linearGradient
       x1="12"
       y1="1031.3356"
       x2="12.178572"
       y2="1049.2603"
       id="linearGradient4993"
       xlink:href="#linearGradient4249"
       gradientUnits="userSpaceOnUse"
       gradientTransform="translate(24)" />
    <linearGradient
       x1="12"
       y1="1031.3356"
       x2="12.178572"
       y2="1049.2603"
       id="linearGradient4995"
       xlink:href="#linearGradient4249"
       gradientUnits="userSpaceOnUse"
       gradientTransform="translate(24)" />
    <linearGradient
       x1="12"
       y1="1031.3356"
       x2="12.178572"
       y2="1049.2603"
       id="linearGradient4997"
       xlink:href="#linearGradient4249"
       gradientUnits="userSpaceOnUse"
       gradientTransform="translate(24)" />
    <linearGradient
       x1="12"
       y1="1031.3356"
       x2="12.178572"
       y2="1049.2603"
       id="linearGradient4999"
       xlink:href="#linearGradient4249"
       gradientUnits="userSpaceOnUse"
       gradientTransform="translate(24)" />
    <linearGradient
       x1="12"
       y1="1031.3356"
       x2="12.178572"
       y2="1049.2603"
       id="linearGradient5001"
       xlink:href="#linearGradient4249"
       gradientUnits="userSpaceOnUse"
       gradientTransform="translate(24)" />
    <linearGradient
       x1="12"
       y1="1031.3356"
       x2="12.178572"
       y2="1049.2603"
       id="linearGradient5003"
       xlink:href="#linearGradient4249"
       gradientUnits="userSpaceOnUse"
       gradientTransform="translate(24)" />
    <linearGradient
       x1="12"
       y1="1031.3356"
       x2="12.178572"
       y2="1049.2603"
       id="linearGradient5005"
       xlink:href="#linearGradient4249"
       gradientUnits="userSpaceOnUse"
       gradientTransform="translate(24)" />
    <linearGradient
       x1="4.2426405"
       y1="11.71402"
       x2="19.975765"
       y2="11.71402"
       id="linearGradient5015"
       xlink:href="#linearGradient5009"
       gradientUnits="userSpaceOnUse"
       gradientTransform="translate(0,1028.3622)" />
    <radialGradient
       cx="12.00001"
       cy="11.987168"
       r="9.5000095"
       fx="12.00001"
       fy="11.987168"
       id="radialGradient3937"
       xlink:href="#linearGradient2895"
       gradientUnits="userSpaceOnUse"
       gradientTransform="matrix(2.7550036,0,0,2.7527275,-51.060066,1026.252)" />
    <radialGradient
       cx="12.00001"
       cy="11.987168"
       r="9.5000095"
       fx="12.00001"
       fy="11.987168"
       id="radialGradient3937-3"
       xlink:href="#linearGradient2916"
       gradientUnits="userSpaceOnUse"
       gradientTransform="matrix(2.7829443,0,0,2.7832618,-24.893828,1059.9327)" />
  </defs>
  <metadata
     id="metadata3018">
    <rdf:RDF>
      <cc:Work
         rdf:about="">
        <dc:format>image/svg+xml</dc:format>
        <dc:type
           rdf:resource="http://purl.org/dc/dcmitype/StillImage" />
      </cc:Work>
    </rdf:RDF>
  </metadata>
  <g
     transform="translate(0,-1028.3622)"
     id="layer1">
    <g
       id="skype">
      <rect
         width="32"
         height="32"
         x="0"
         y="1028.3622"
         id="rect5017"
         style="opacity:0;fill:#000000;fill-opacity:0.392157;stroke:none;stroke-width:1.33333" />
      <path
         style="color:#d5c289;fill:#d3dae3;fill-opacity:1;stroke-width:1.5"
         class="ColorScheme-Text"
         d="m 16,1032.3622 c -6.636,0 -12,5.364 -12,12 0,6.636 5.364,12 12,12 6.636,0 12,-5.364 12,-12 0,-6.636 -5.364,-12 -12,-12 z m 0,1.5 c 5.80498,0 10.5,4.695 10.5,10.5 0,5.805 -4.69502,10.5 -10.5,10.5 -5.80502,0 -10.5,-4.695 -10.5,-10.5 0,-5.805 4.69498,-10.5 10.5,-10.5 z m 1.12498,8.5785 v 0 0 0 0 0 c 0,0 -0.05091,0.012 0,0 z m -1.171491,6.75 z"
         id="path58"
         sodipodi:nodetypes="ssssssssssccccccccccccccccc" />
      <path
         d="m 22.604612,1045.87 a 6.710633,6.7099794 0 0 0 0.148088,-1.418 6.6339994,6.6333533 0 0 0 -6.678635,-6.5959 6.3803099,6.3796884 0 0 0 -1.137527,0.1 A 3.8751563,3.8747789 0 0 0 9,1041.1878 a 3.8004334,3.8000633 0 0 0 0.5275094,1.9296 7.0142432,7.01356 0 0 0 -0.1320649,1.3186 6.5376453,6.5370085 0 0 0 6.6786205,6.4807 5.9970284,5.9964443 0 0 0 1.219959,-0.1169 3.9058462,3.9054659 0 0 0 1.83078,0.5614 3.8033456,3.8029752 0 0 0 3.479808,-5.4907 z m -3.496639,1.286 a 2.5421863,2.5419387 0 0 1 -1.137489,0.8571 4.4380276,4.4375953 0 0 1 -1.764343,0.3138 4.3520621,4.3516383 0 0 1 -2.028481,-0.4288 2.6132687,2.6130141 0 0 1 -0.92381,-0.8241 1.8019164,1.8017409 0 0 1 -0.345822,-0.989 0.61632679,0.61626676 0 0 1 0.21454,-0.4796 0.76310519,0.76303086 0 0 1 0.543536,-0.1974 0.66107368,0.6610093 0 0 1 0.445928,0.1492 1.255181,1.2550587 0 0 1 0.312976,0.4608 2.3786977,2.378466 0 0 0 0.346651,0.6106 1.2528288,1.2527068 0 0 0 0.510711,0.3959 2.1101814,2.1099759 0 0 0 0.874161,0.1645 2.0453222,2.0451229 0 0 0 1.203977,-0.3132 0.93257927,0.93248843 0 0 0 0.461882,-0.7908 0.79455117,0.79447377 0 0 0 -0.247348,-0.6105 1.5295356,1.5293866 0 0 0 -0.643647,-0.3639 c -0.26333,-0.085 -0.626809,-0.1646 -1.071853,-0.2626 a 9.7941909,9.7932368 0 0 1 -1.500164,-0.4454 2.3438495,2.3436211 0 0 1 -0.95662,-0.7091 1.7321147,1.731946 0 0 1 -0.346609,-1.1043 1.8407341,1.8405548 0 0 1 0.379465,-1.1217 2.3882321,2.3879995 0 0 1 1.07186,-0.7581 4.6567005,4.656247 0 0 1 1.665853,-0.2641 4.4823897,4.4819532 0 0 1 1.319249,0.1814 2.8506892,2.8504115 0 0 1 0.922953,0.4618 2.041241,2.0410422 0 0 1 0.544394,0.6096 1.2620484,1.2619255 0 0 1 0.164881,0.6101 0.67336649,0.67330091 0 0 1 -0.21453,0.4942 0.6938848,0.69381722 0 0 1 -0.527553,0.2148 0.681494,0.68142763 0 0 1 -0.445054,-0.1326 1.6676336,1.6674711 0 0 1 -0.329815,-0.4279 2.0561101,2.0559098 0 0 0 -0.544338,-0.6765 1.6634055,1.6632434 0 0 0 -1.022256,-0.247 1.892082,1.8918977 0 0 0 -1.055875,0.2641 0.75295454,0.7528812 0 0 0 -0.395446,0.6266 0.67052426,0.67045896 0 0 0 0.132074,0.3954 0.99302084,0.99292415 0 0 0 0.379456,0.28 1.8849695,1.8847859 0 0 0 0.477863,0.1819 c 0.164928,0.051 0.429131,0.116 0.807722,0.1978 0.461885,0.1 0.890991,0.2146 1.270409,0.3296 a 3.8012455,3.8008753 0 0 1 0.972648,0.4454 1.9999661,1.9997713 0 0 1 0.626765,0.6598 1.9800076,1.9798148 0 0 1 0.230561,0.9727 2.0233338,2.0231367 0 0 1 -0.379462,1.2695 z"
         id="path1"
         style="fill:#d3dae3;fill-opacity:1;stroke-width:0.700005" />
    </g>
    <g
       id="22-22-skype">
      <rect
         style="opacity:0.00100002"
         width="22"
         height="22"
         x="32"
         y="1038.4521"
         id="rect7" />
      <path
         d="m 46.774106,1050.3129 a 3.8346629,3.8324833 0 0 0 0.08461,-0.8092 3.7908722,3.7887172 0 0 0 -3.816374,-3.7674 3.6459062,3.6438335 0 0 0 -0.650021,0.055 2.2143842,2.2131253 0 0 0 -3.392321,1.8453 2.1716848,2.1704506 0 0 0 0.301436,1.1023 4.0081554,4.0058766 0 0 0 -0.07546,0.753 3.7358125,3.7336887 0 0 0 3.816372,3.7017 3.4268873,3.4249394 0 0 0 0.697117,-0.063 2.2319215,2.2306524 0 0 0 1.046168,0.3211 2.173349,2.1721139 0 0 0 1.988469,-3.136 z m -1.998088,0.7349 a 1.452684,1.4518579 0 0 1 -0.649996,0.4892 2.536026,2.5345844 0 0 1 -1.0082,0.1799 2.4869026,2.4854891 0 0 1 -1.159137,-0.2453 1.4933023,1.4924533 0 0 1 -0.527891,-0.4709 1.0296708,1.0290852 0 0 1 -0.197617,-0.5644 0.35218817,0.35198794 0 0 1 0.122597,-0.2743 0.43606188,0.435814 0 0 1 0.310592,-0.113 0.37775793,0.37754318 0 0 1 0.254819,0.087 0.71724916,0.71684163 0 0 1 0.178846,0.2633 1.3592613,1.3584886 0 0 0 0.198083,0.3485 0.71590513,0.71549826 0 0 0 0.291836,0.2264 1.2058229,1.2051373 0 0 0 0.499526,0.094 1.1687605,1.1680959 0 0 0 0.687988,-0.1788 0.53290463,0.5326017 0 0 0 0.263935,-0.4514 0.4540311,0.45377298 0 0 0 -0.141345,-0.3489 0.87402402,0.873527 0 0 0 -0.367797,-0.2078 c -0.150475,-0.046 -0.358177,-0.095 -0.612491,-0.1505 a 5.5967032,5.5935218 0 0 1 -0.857243,-0.2542 1.3393481,1.3385865 0 0 1 -0.546637,-0.4046 0.98978403,0.98922114 0 0 1 -0.198065,-0.6307 1.0518522,1.0512543 0 0 1 0.216836,-0.6408 1.3647096,1.3639338 0 0 1 0.612495,-0.433 2.6609826,2.6594701 0 0 1 0.951922,-0.1509 2.561376,2.5599198 0 0 1 0.753855,0.1038 1.6289721,1.6280459 0 0 1 0.527409,0.2638 1.1664283,1.1657651 0 0 1 0.311082,0.3476 0.72117342,0.7207635 0 0 1 0.09421,0.3487 0.38478242,0.38456367 0 0 1 -0.122589,0.2823 0.39650723,0.39628183 0 0 1 -0.301461,0.1226 0.38942674,0.38920535 0 0 1 -0.25432,-0.075 0.95293742,0.95239566 0 0 1 -0.188466,-0.2447 1.174925,1.174257 0 0 0 -0.311048,-0.3864 0.95052111,0.94998091 0 0 0 -0.584151,-0.1412 1.0811941,1.0805795 0 0 0 -0.603362,0.1508 0.43026147,0.4300169 0 0 0 -0.225969,0.3582 0.38315829,0.38294049 0 0 0 0.0755,0.2254 0.56744279,0.56712023 0 0 0 0.216835,0.1599 1.0771297,1.0765175 0 0 0 0.273064,0.1039 c 0.09424,0.035 0.245217,0.062 0.461563,0.1131 0.263927,0.055 0.509137,0.123 0.725947,0.1889 a 2.1721488,2.1709146 0 0 1 0.555798,0.2543 1.1428423,1.1421926 0 0 1 0.358157,0.3768 1.1314373,1.1307944 0 0 1 0.131745,0.5553 1.1561954,1.1555383 0 0 1 -0.216836,0.725 z"
         id="path1-3"
         style="fill:#d3dae3;fill-opacity:1;stroke-width:0.399913" />
      <path
         d="m 43,1041.4521 c -2.1217,0 -4.1567,0.8429 -5.6568,2.3432 -1.5003,1.5003 -2.3432,3.5351 -2.3432,5.6568 0,2.1217 0.8429,4.1567 2.3432,5.6569 1.5003,1.5002 3.5351,2.3431 5.6568,2.3431 2.1217,0 4.1567,-0.8429 5.6568,-2.3431 1.5003,-1.5004 2.3432,-3.5352 2.3432,-5.6569 0,-2.1209 -0.8462,-4.1545 -2.346,-5.654 -1.4997,-1.4998 -3.5333,-2.3434 -5.654,-2.346 z m 0,14.746 c -1.736,0 -3.600499,-0.89 -4.827999,-2.1175 -1.2275,-1.2276 -1.917,-2.8924 -1.917,-4.6283 0,-1.7359 0.6895,-3.4008 1.917,-4.6283 1.2276,-1.2275 3.092099,-2.1169 4.827999,-2.1169 1.7359,0 3.600501,0.8894 4.828001,2.1169 1.2275,1.2275 1.917,2.8924 1.917,4.6283 0,1.7354 -0.692,3.399 -1.919,4.6264 -1.2271,1.227 -3.090701,2.1175 -4.826201,2.1194 z"
         id="path2"
         style="fill:#d3dae3;fill-opacity:1;stroke-width:0.0311689"
         sodipodi:nodetypes="ccscscsccccssscsccc" />
    </g>
  </g>
</svg>
