<?xml version="1.0" encoding="UTF-8" standalone="no"?>
<svg
   id="svg12"
   width="32"
   height="32"
   version="1.1"
   sodipodi:docname="start.svg"
   inkscape:version="1.3 (0e150ed6c4, 2023-07-21)"
   xmlns:inkscape="http://www.inkscape.org/namespaces/inkscape"
   xmlns:sodipodi="http://sodipodi.sourceforge.net/DTD/sodipodi-0.dtd"
   xmlns:xlink="http://www.w3.org/1999/xlink"
   xmlns="http://www.w3.org/2000/svg"
   xmlns:svg="http://www.w3.org/2000/svg"
   xmlns:rdf="http://www.w3.org/1999/02/22-rdf-syntax-ns#"
   xmlns:cc="http://creativecommons.org/ns#"
   xmlns:dc="http://purl.org/dc/elements/1.1/">
  <metadata
     id="metadata19">
    <rdf:RDF>
      <cc:Work
         rdf:about="">
        <dc:format>image/svg+xml</dc:format>
        <dc:type
           rdf:resource="http://purl.org/dc/dcmitype/StillImage" />
      </cc:Work>
    </rdf:RDF>
  </metadata>
  <defs
     id="defs17">
    <linearGradient
       inkscape:collect="always"
       id="linearGradient985">
      <stop
         style="stop-color:#4e51ac;stop-opacity:1"
         offset="0"
         id="stop980" />
      <stop
         style="stop-color:#4e9fac;stop-opacity:1"
         offset="1"
         id="stop982" />
    </linearGradient>
    <linearGradient
       inkscape:collect="always"
       xlink:href="#linearGradient985"
       id="linearGradient11"
       gradientUnits="userSpaceOnUse"
       x1="0"
       y1="16"
       x2="32"
       y2="16"
       gradientTransform="scale(0.6875)" />
    <linearGradient
       inkscape:collect="always"
       xlink:href="#linearGradient985"
       id="linearGradient14"
       gradientUnits="userSpaceOnUse"
       gradientTransform="scale(0.5)"
       x1="0"
       y1="16"
       x2="32"
       y2="16" />
    <linearGradient
       inkscape:collect="always"
       xlink:href="#linearGradient1-8"
       id="linearGradient2-2"
       x1="17"
       y1="5"
       x2="0"
       y2="5"
       gradientUnits="userSpaceOnUse" />
    <linearGradient
       id="linearGradient1-8"
       inkscape:collect="always">
      <stop
         style="stop-color:#7137c8;stop-opacity:1"
         offset="0"
         id="stop1-9" />
      <stop
         style="stop-color:#00ccff;stop-opacity:1"
         offset="1"
         id="stop2-7" />
    </linearGradient>
    <linearGradient
       inkscape:collect="always"
       xlink:href="#linearGradient1-8"
       id="linearGradient3"
       gradientUnits="userSpaceOnUse"
       x1="17"
       y1="5"
       x2="0"
       y2="5"
       gradientTransform="matrix(0.68750153,0,0,0.68181689,-2.4931244e-5,0.09091686)" />
    <linearGradient
       inkscape:collect="always"
       xlink:href="#linearGradient1-8"
       id="linearGradient1"
       gradientUnits="userSpaceOnUse"
       gradientTransform="matrix(0.50000131,0,0,0.49999979,-1.759e-5,1.7195058e-5)"
       x1="17"
       y1="5"
       x2="0"
       y2="5" />
  </defs>
  <sodipodi:namedview
     pagecolor="#201933"
     bordercolor="#000000"
     borderopacity="1"
     objecttolerance="10"
     gridtolerance="10"
     guidetolerance="10"
     inkscape:pageopacity="0"
     inkscape:pageshadow="2"
     inkscape:window-width="1920"
     inkscape:window-height="994"
     id="namedview15"
     showgrid="true"
     inkscape:zoom="10.299092"
     inkscape:cx="-3.0099741"
     inkscape:cy="21.603846"
     inkscape:window-x="0"
     inkscape:window-y="0"
     inkscape:window-maximized="1"
     inkscape:current-layer="svg12"
     inkscape:document-rotation="0"
     inkscape:pagecheckerboard="true"
     inkscape:showpageshadow="true"
     inkscape:deskcolor="#201933"
     labelstyle="default">
    <inkscape:grid
       id="grid1"
       units="px"
       originx="4.3239652e-09"
       originy="-4.6325683e-08"
       spacingx="1"
       spacingy="1"
       empcolor="#0099e5"
       empopacity="0.30196078"
       color="#0099e5"
       opacity="0.14901961"
       empspacing="5"
       dotted="false"
       gridanglex="30"
       gridanglez="30"
       visible="true" />
  </sodipodi:namedview>
  <g
     id="start-here-kde">
    <g
       id="g1">
      <rect
         id="rect7"
         style="opacity:0.00100002;fill:#000000;fill-opacity:1"
         width="32"
         height="32"
         x="0"
         y="0" />
      <path
         d="m 12.227682,10.405379 z m -0.11562,16.427471 c 0.16107,-0.298967 1.38612,-2.544336 1.6301,-2.987757 0.68058,-1.236935 1.23642,-2.270668 1.23642,-2.299424 0,-0.01759 -0.19473,-0.39122 -0.43272,-0.830269 -0.23799,-0.439053 -0.4632,-0.854689 -0.50046,-0.923641 -0.52606,-0.973429 -1.06507,-1.9442 -1.07413,-1.934503 -0.007,0.0068 -0.21607,0.38839 -0.46612,0.848046 -0.25005,0.459655 -0.70563,1.296439 -1.01239,1.859514 -0.30676,0.563083 -0.60688,1.117801 -0.66692,1.232718 -0.0601,0.114913 -0.27924,0.519201 -0.4871,0.898415 l -0.377941,0.689484 -1.9942996,0.01084 c -1.86672,0.0098 -1.99261,0.0061 -1.96774,-0.06059 0.027,-0.07263 0.57529,-1.086113 1.54417,-2.854484 0.9697,-1.769869 3.4238806,-6.269446 3.9241106,-7.194582 0.26932,-0.49811 0.50203,-0.897792 0.51711,-0.88818 0.0151,0.0096 0.0636,0.08808 0.10789,0.174383 0.0638,0.124343 0.87197,1.606595 1.40707,2.58055 0.0505,0.09193 0.17298,0.31758 0.27216,0.501442 0.0992,0.183863 0.39573,0.729182 0.65899,1.211821 0.26325,0.482639 0.52453,0.962143 0.58059,1.065566 0.0561,0.103422 0.4563,0.836782 0.88941,1.629691 0.4331,0.792907 0.87468,1.601481 0.9813,1.796834 0.10661,0.195355 0.39956,0.731272 0.651,1.190925 0.25143,0.45966 0.5703,1.042583 0.70859,1.2954 0.50935,0.931158 0.83186,1.523559 1.26261,2.319168 l 0.44116,0.814845 2.01554,0.01084 c 1.10855,0.0057 2.01555,0.0024 2.01555,-0.0075 0,-0.0099 -0.43908,-0.82366 -0.97573,-1.807675 -0.53665,-0.984014 -1.10876,-2.03357 -1.27136,-2.332346 -0.1626,-0.298776 -0.54151,-0.994529 -0.84204,-1.546116 -0.30052,-0.551587 -0.59677,-1.096906 -0.65831,-1.21182 -0.0615,-0.114913 -0.1534,-0.28415 -0.20412,-0.376082 -0.0507,-0.09194 -0.47033,-0.8629 -0.93247,-1.713263 -0.46214,-0.850385 -0.9546,-1.752982 -1.09436,-2.005794 -0.13975,-0.25281 -0.54503,-0.995572 -0.90064,-1.650582 -0.3556,-0.655009 -0.69252,-1.275545 -0.7487,-1.378967 -0.0562,-0.103422 -0.36171,-0.667546 -0.67894,-1.253607 -0.31724,-0.586061 -0.65502,-1.206597 -0.75064,-1.378968 -0.0956,-0.17237 -0.47049,-0.858721 -0.83306,-1.525222 -0.36257,-0.6665003 -0.9002,-1.6537157 -1.19475,-2.1938107 -0.29455,-0.5400957 -0.60453,-1.1136215 -0.68886,-1.2745006 -0.23644,-0.4511168 -0.20652,-0.4542807 -0.47723,0.050462 -0.13303,0.2480383 -0.39751,0.7330393 -0.58773,1.0777808 -0.19023,0.3447419 -0.39106,0.7114218 -0.44629,0.8148445 -0.12624,0.2363944 -1.1960806,2.202145 -2.0354206,3.739927 -0.35123,0.643519 -0.80186,1.470899 -1.00139,1.838624 -0.32972,0.607665 -0.82857,1.524684 -1.87536,3.447419 -0.53592,0.984369 -1.43548,2.637411 -1.9783797,3.635463 -0.25628,0.471145 -0.58409,1.072877 -0.72845,1.337179 -0.14438,0.264302 -0.43032,0.790816 -0.63545,1.170033 -0.71675,1.325077 -1.51247005,2.78527 -1.95835005,3.593674 -0.24719,0.448164 -0.46168,0.847814 -0.47666,0.888109 -0.0258,0.06968 0.26986,0.07273 6.00235975,0.06269 l 6.0295906,-0.0106 z m 19.88793,0.135812 c -3.7e-4,-0.01725 -0.0883,-0.191174 -0.19532,-0.386529 -0.71019,-1.296368 -0.98599,-1.800912 -1.519,-2.778828 -0.66138,-1.213433 -0.72696,-1.334081 -0.9199,-1.692372 -0.10519,-0.195353 -0.30913,-0.571433 -0.45319,-0.83574 -0.14407,-0.264299 -0.44028,-0.80962 -0.65825,-1.211817 -0.21797,-0.402199 -0.51038,-0.938116 -0.6498,-1.190927 -0.25259,-0.458024 -0.37829,-0.689818 -0.58921,-1.08646 -0.0611,-0.114913 -0.26598,-0.490996 -0.45528,-0.835737 -0.18929,-0.344742 -0.64054,-1.172123 -1.00277,-1.838624 -0.36223,-0.666501 -0.73626,-1.35285 -0.83116,-1.525221 -0.0949,-0.172371 -0.60213,-1.103175 -1.12716,-2.068452 -3.6655,-6.7390433 -3.58458,-6.5950458 -3.64686,-6.4903284 -0.0317,0.053314 -0.11778,0.2097579 -0.19129,0.3476547 -0.0735,0.1378968 -0.50734,0.9370716 -0.96407,1.7759435 -1.65553,3.0406742 -1.7917,3.2947942 -1.7917,3.3435502 0,0.04553 0.37259,0.736597 1.54858,2.87225 0.24362,0.442419 0.44845,0.804398 0.45519,0.804398 0.007,0 0.1269,-0.211546 0.26703,-0.470103 0.14013,-0.258556 0.34309,-0.627004 0.45103,-0.818772 0.10794,-0.191769 0.19625,-0.363403 0.19625,-0.381412 0,-0.01801 0.0235,-0.05285 0.0522,-0.07743 0.0405,-0.03466 0.10586,0.05568 0.29109,0.402305 0.13137,0.245848 0.59328,1.095738 1.02646,1.888644 1.14682,2.099203 1.83058,3.353106 2.26729,4.157797 0.21204,0.390708 0.45406,0.832604 0.53782,0.981991 0.13038,0.232544 0.66831,1.218474 1.00318,1.838627 0.0558,0.103423 0.11468,0.206844 0.13075,0.229825 0.0161,0.023 0.0982,0.173419 0.18255,0.334297 0.0843,0.160877 0.54901,1.016465 1.03263,1.901301 0.48362,0.884838 1.02994,1.886159 1.21404,2.225154 l 0.33473,0.616355 h 2.00242 c 1.10134,0 2.0021,-0.01407 2.00169,-0.03133 z"
         id="path1"
         sodipodi:nodetypes="cccccccccssssccsssscsssssssssssssssccssssssssssssssssssssssssssscscsssssssssssssssssssssssssssssscsc"
         style="fill:url(#linearGradient2-2);fill-opacity:1" />
    </g>
  </g>
  <g
     id="22-22-start-here-kde"
     transform="translate(-22,10)">
    <rect
       id="rect7-1"
       style="opacity:0.00100002;fill:url(#linearGradient11);stroke-width:0.6875"
       width="22"
       height="22"
       x="9.2651371e-09"
       y="4.1088867e-07" />
    <path
       d="M 8.406521,7.1854752 Z M 8.327021,18.386 c 0.110729,-0.203838 0.952962,-1.734773 1.120688,-2.03711 0.467912,-0.843355 0.850053,-1.548168 0.850053,-1.567773 0,-0.01198 -0.133883,-0.266745 -0.297499,-0.566099 C 9.83665,13.915669 9.681809,13.632282 9.656194,13.585266 9.294523,12.921566 8.923951,12.259679 8.917726,12.266284 c -0.0047,0.0045 -0.148546,0.264816 -0.320458,0.578222 -0.171906,0.3134 -0.485124,0.883937 -0.696015,1.267848 -0.210907,0.383915 -0.417234,0.762132 -0.458515,0.840488 -0.04136,0.07831 -0.191968,0.353996 -0.334883,0.612548 l -0.259834,0.470106 -1.37108,0.0074 c -1.283372,0.0064 -1.36992,0.0038 -1.352816,-0.04125 0.01854,-0.04954 0.395501,-0.740533 1.061608,-1.946238 0.66667,-1.206723 2.353921,-4.2746129 2.697831,-4.9053858 0.185166,-0.3396165 0.345151,-0.6121254 0.35552,-0.605575 0.01042,0.00615 0.0437,0.06 0.0742,0.1189006 0.0438,0.084764 0.599477,1.0953981 0.967368,1.7594622 0.03473,0.06271 0.118918,0.216527 0.187106,0.341893 0.0682,0.125353 0.272059,0.497164 0.453055,0.826237 0.180986,0.329063 0.360621,0.656003 0.39915,0.726516 0.03857,0.07047 0.31371,0.570537 0.611482,1.111154 0.297755,0.540615 0.601342,1.091911 0.674635,1.225112 0.07327,0.13319 0.2747,0.498594 0.447573,0.811989 0.172853,0.313409 0.392085,0.710851 0.487152,0.883226 0.350183,0.634879 0.571905,1.038791 0.868049,1.581249 l 0.303287,0.555574 1.385701,0.0074 c 0.762122,0.0035 1.385696,0.0024 1.385696,-0.005 0,-0.0065 -0.301882,-0.561585 -0.670831,-1.232504 -0.368943,-0.670918 -0.762262,-1.386519 -0.874063,-1.590232 -0.111777,-0.203698 -0.372281,-0.678076 -0.578896,-1.05416 -0.206608,-0.376076 -0.41028,-0.747884 -0.452586,-0.826238 -0.04224,-0.07831 -0.105473,-0.193741 -0.140332,-0.256417 -0.03488,-0.06273 -0.323359,-0.58834 -0.641072,-1.168127 -0.317724,-0.579888 -0.656291,-1.195293 -0.752381,-1.367665 -0.09609,-0.17241 -0.374702,-0.678839 -0.619181,-1.1254362 C 11.509715,9.4207863 11.278077,8.9976938 11.239461,8.9271788 11.200801,8.8567063 10.990787,8.4720355 10.772689,8.072451 10.55459,7.6727674 10.322365,7.2496789 10.256619,7.1321527 10.190929,7.0146266 9.933162,6.5466584 9.683893,6.0922321 9.434628,5.6377989 9.064998,4.964699 8.862507,4.5964562 8.659998,4.2282064 8.446882,3.8371658 8.388911,3.7274763 8.226356,3.4198908 8.246926,3.4177388 8.060816,3.7618993 7.969336,3.9310172 7.787528,4.2616933 7.656748,4.4967475 7.525961,4.7317948 7.387893,4.9818043 7.349928,5.0523194 7.263138,5.2134996 6.527612,6.553781 5.950571,7.6022632 5.709099,8.0410261 5.399288,8.6051507 5.262107,8.8558683 5.035429,9.2701839 4.692469,9.8954279 3.972802,11.206378 3.604355,11.877541 2.985905,13.004607 2.612662,13.685097 2.436465,14.006338 2.2111026,14.416602 2.1118491,14.596814 2.0125931,14.777018 1.8160021,15.136 1.6749753,15.394557 1.1822146,16.297951 0.63515657,17.293538 0.32861247,17.844716 0.15866987,18.150284 0.01120777,18.422776 9.0876864e-4,18.450255 -0.01683023,18.497789 0.18643867,18.499861 4.127533,18.493019 l 4.145358,-0.0071 z m 13.672976,0.0926 c -2.55e-4,-0.01174 -0.06073,-0.130351 -0.13428,-0.263545 -0.488256,-0.883882 -0.677866,-1.22789 -1.044311,-1.894648 -0.45471,-0.827336 -0.49979,-0.909594 -0.63243,-1.153888 -0.07233,-0.133191 -0.212529,-0.389619 -0.311574,-0.569822 -0.09904,-0.180196 -0.302692,-0.552016 -0.45254,-0.826228 -0.14986,-0.27423 -0.350893,-0.639622 -0.446745,-0.811998 -0.173653,-0.312293 -0.260068,-0.470331 -0.405087,-0.740768 -0.04203,-0.07832 -0.182854,-0.334776 -0.313,-0.569828 -0.130137,-0.235043 -0.440369,-0.799172 -0.689406,-1.2536 C 17.321583,9.9398466 17.064443,9.4718792 16.999204,9.3543472 16.933954,9.236828 16.58524,8.6021953 16.224278,7.9440486 13.704245,3.3492616 13.759863,3.4474411 13.717054,3.5188349 c -0.02174,0.036346 -0.08101,0.1430175 -0.131515,0.2370386 -0.0505,0.094026 -0.348784,0.6389121 -0.662795,1.2108664 -1.138184,2.0731809 -1.231795,2.2464443 -1.231795,2.2796891 0,0.031011 0.25616,0.5022286 1.064651,1.9583443 0.167492,0.301647 0.308312,0.5484542 0.312939,0.5484542 0.0047,0 0.0873,-0.1442374 0.183583,-0.3205256 0.09636,-0.1762932 0.235884,-0.4274977 0.310091,-0.5582516 0.07425,-0.1307528 0.134921,-0.2477682 0.134921,-0.2600469 0,-0.012317 0.01616,-0.036059 0.03587,-0.05276 0.02784,-0.023653 0.07283,0.037934 0.200125,0.274296 0.09034,0.1676166 0.407881,0.7470912 0.705693,1.2877056 0.788453,1.431272 1.258532,2.286209 1.558765,2.83486 0.145786,0.266393 0.312175,0.567684 0.369753,0.669535 0.08967,0.15855 0.459467,0.830771 0.689696,1.253603 0.03831,0.07048 0.07885,0.141039 0.0899,0.156702 0.0111,0.01564 0.06754,0.118237 0.125505,0.227934 0.05796,0.109684 0.377446,0.693043 0.709936,1.296335 0.332493,0.603298 0.708081,1.286008 0.834661,1.517144 L 19.247164,18.5 h 1.37666 c 0.757178,0 1.376445,-0.0092 1.376159,-0.02137 z"
       id="path1-9"
       sodipodi:nodetypes="cccccccccssssccsssscsssssssssssssssccssssssssssssssssssssssssssscscsssssssssssssssssssssssssssssscsc"
       style="fill:url(#linearGradient3);fill-opacity:1;stroke-width:0.684652" />
  </g>
  <g
     id="16-16-start-here-kde"
     transform="translate(-38,15.999999)">
    <rect
       id="rect7-1-2"
       style="opacity:0.00100002;fill:url(#linearGradient14);stroke-width:0.5"
       width="16"
       height="16"
       x="-2.3706055e-07"
       y="-1.7333984e-07" />
    <path
       d="m 6.1138363,5.2027009 z m -0.057818,8.2137331 c 0.080529,-0.149481 0.6930634,-1.272169 0.8150461,-1.493884 0.3402995,-0.618458 0.6182203,-1.135322 0.6182203,-1.149704 0,-0.0085 -0.09737,-0.195609 -0.2163628,-0.415141 C 7.1539308,10.138183 7.0413194,9.9303674 7.0226895,9.8958882 6.7596561,9.4091746 6.4901495,8.9237899 6.4856222,8.9286348 6.4821721,8.9320286 6.3775887,9.1228347 6.2525618,9.3526635 6.1275391,9.5824934 5.8997444,10.000882 5.746369,10.282425 c -0.1533879,0.281533 -0.3034428,0.558896 -0.3334655,0.616354 -0.03008,0.05747 -0.1396133,0.259597 -0.2435518,0.449207 l -0.1889701,0.344745 -0.9971494,0.0055 c -0.9333621,0.0054 -0.9963065,0.0028 -0.9838672,-0.03028 0.013481,-0.03639 0.2876375,-0.543107 0.7720795,-1.42729 C 4.2562952,9.3556777 5.4833879,7.1058896 5.7335035,6.6433212 5.8681698,6.3942704 5.9845231,6.1944293 5.9920641,6.1992323 c 0.00754,0.00489 0.031784,0.044 0.053961,0.087201 0.031854,0.06215 0.4359838,0.8032894 0.7035407,1.2902711 0.025256,0.04596 0.08648,0.1587859 0.1360768,0.2507248 0.049598,0.09192 0.1978618,0.3645856 0.3294953,0.6059053 0.1316261,0.2413169 0.2622701,0.4810698 0.2902911,0.5327788 0.028056,0.051671 0.2281523,0.4183952 0.4447147,0.8148493 0.2165489,0.3964524 0.437339,0.8007364 0.4906435,0.8984174 0.05329,0.09767 0.1997816,0.365636 0.3255077,0.595458 0.1257113,0.229837 0.2851532,0.52129 0.354292,0.647705 0.2546789,0.465575 0.4159323,0.761779 0.6313082,1.159583 l 0.2205729,0.40742 1.007787,0.0054 c 0.55427,0.0029 1.00778,0.0022 1.00778,-0.0041 0,-0.0056 -0.219554,-0.411829 -0.487877,-0.903839 -0.268327,-0.491693 -0.554373,-1.016466 -0.635684,-1.165858 -0.08129,-0.149299 -0.270751,-0.49718 -0.421016,-0.77297 C 10.293197,10.372389 10.145072,10.09973 10.114304,10.042267 10.083585,9.9848099 10.037594,9.9001931 10.012245,9.8542288 9.986872,9.8082581 9.7770746,9.4227786 9.5460104,8.9976019 9.3149381,8.5723502 9.0687076,8.1210516 8.9988241,7.9946445 8.9289425,7.8682098 8.7263136,7.496829 8.5485105,7.1693243 8.3707052,6.8418216 8.2022418,6.5315538 8.174157,6.4798419 8.1460392,6.4281698 7.9933042,6.146068 7.8346873,5.8530404 7.6760694,5.5599385 7.5071783,5.2496726 7.459363,5.1634888 7.4115902,5.0772851 7.2241207,4.7341261 7.0428347,4.4008775 6.8615507,4.0676269 6.5927294,3.5740172 6.445463,3.3039732 6.2981836,3.0339223 6.1431904,2.7471608 6.1010291,2.6667187 5.9828065,2.4411582 5.9977666,2.4395799 5.862414,2.691945 5.7958872,2.8159657 5.6636594,3.0584605 5.5685464,3.2308346 5.4734285,3.4032031 5.373016,3.5865414 5.3454052,3.6382525 5.2822873,3.756455 4.7473571,4.7393271 4.3276909,5.5082174 4.1520748,5.8299764 3.926757,6.2436678 3.8269887,6.4275278 3.6621327,6.7313597 3.4127067,7.1898702 2.8893123,8.1512356 2.6213508,8.6434251 2.1715691,9.4699415 1.9001187,9.9689671 1.7719762,10.204547 1.6080756,10.505408 1.5358911,10.637558 1.4637101,10.769711 1.3207298,11.032968 1.2181654,11.222574 0.85979331,11.885063 0.46193212,12.615162 0.2389915,13.019356 0.11539749,13.24344 0.00815232,13.443271 6.6095294e-4,13.463425 -0.01224052,13.498242 0.13559307,13.499836 3.0018442,13.494764 l 3.014806,-0.0056 z M 16,13.484324 c -1.8e-4,-0.0083 -0.04417,-0.09559 -0.09766,-0.193268 -0.355095,-0.648177 -0.492992,-0.900451 -0.759498,-1.389406 -0.330697,-0.606714 -0.363485,-0.667036 -0.459947,-0.846186 -0.05262,-0.09767 -0.154569,-0.285719 -0.2266,-0.417867 C 14.38426,10.50545 14.23616,10.232786 14.127179,10.031694 14.018191,9.8306002 13.871982,9.5626433 13.802271,9.4362365 13.675981,9.2072205 13.613133,9.0913269 13.507667,8.8930068 13.477093,8.8355319 13.374683,8.6475011 13.280023,8.4751294 13.185382,8.3027664 12.959758,7.8890719 12.778639,7.555821 12.597523,7.2225773 12.41051,6.8793975 12.363064,6.7932087 12.315609,6.7070147 12.062,6.241628 11.79948,5.7589886 9.966728,2.3894749 10.007178,2.461467 9.976043,2.5138215 9.960233,2.5405061 9.917123,2.6187057 9.880396,2.6876526 9.843668,2.7565945 9.6267341,3.1561906 9.3983627,3.5756251 8.5705923,5.0959608 8.5025117,5.2230178 8.5025117,5.2473976 c 0,0.022721 0.1862982,0.368306 0.7742923,1.43612 0.1218124,0.221208 0.2242268,0.4022029 0.2275916,0.4022029 0.00347,0 0.063491,-0.105775 0.1335153,-0.2350498 0.070086,-0.1292833 0.1715522,-0.3134988 0.2255204,-0.4093881 0.054,-0.095883 0.098122,-0.1816977 0.098122,-0.1906986 0,-0.00909 0.01175,-0.026454 0.02609,-0.03872 0.02024,-0.017326 0.05296,0.02782 0.1455457,0.2011467 0.0657,0.12292 0.29664,0.5478688 0.51323,0.9443192 0.573418,1.0496042 0.915292,1.6765559 1.133648,2.0789013 0.106025,0.195354 0.227037,0.4163035 0.268911,0.4909956 0.0652,0.1162702 0.334157,0.6092292 0.501597,0.9193022 0.02786,0.05168 0.05731,0.103431 0.06537,0.114921 0.0079,0.0115 0.04912,0.08668 0.09126,0.167148 0.04213,0.08047 0.274508,0.508241 0.516314,0.950653 0.241813,0.442419 0.51497,0.943074 0.607032,1.112576 L 13.99791,13.5 h 1.001212 c 0.550673,0 1.001046,-0.0062 1.000834,-0.0157 z"
       id="path1-9-3"
       sodipodi:nodetypes="cccccccccssssccsssscsssssssssssssssccssssssssssssssssssssssssssscscsssssssssssssssssssssssssssssscsc"
       style="fill:url(#linearGradient1);fill-opacity:1;stroke-width:0.500004" />
  </g>
</svg>
