<?xml version="1.0" encoding="UTF-8" standalone="no"?>
<svg
   width="32"
   height="32"
   x="0"
   y="0"
   version="1.1"
   xml:space="preserve"
   id="svg16"
   sodipodi:docname="thunderbird.svg"
   inkscape:version="1.3 (0e150ed6c4, 2023-07-21)"
   xmlns:inkscape="http://www.inkscape.org/namespaces/inkscape"
   xmlns:sodipodi="http://sodipodi.sourceforge.net/DTD/sodipodi-0.dtd"
   xmlns="http://www.w3.org/2000/svg"
   xmlns:svg="http://www.w3.org/2000/svg"
   xmlns:rdf="http://www.w3.org/1999/02/22-rdf-syntax-ns#"
   xmlns:cc="http://creativecommons.org/ns#"
   xmlns:dc="http://purl.org/dc/elements/1.1/"><metadata
   id="metadata22"><rdf:RDF><cc:Work
       rdf:about=""><dc:format>image/svg+xml</dc:format><dc:type
         rdf:resource="http://purl.org/dc/dcmitype/StillImage" /></cc:Work></rdf:RDF></metadata><defs
   id="defs20">&#10;  </defs><sodipodi:namedview
   pagecolor="#201933"
   bordercolor="#000000"
   borderopacity="1"
   objecttolerance="10"
   gridtolerance="10"
   guidetolerance="10"
   inkscape:pageopacity="0"
   inkscape:pageshadow="2"
   inkscape:window-width="1920"
   inkscape:window-height="994"
   id="namedview18"
   showgrid="true"
   inkscape:zoom="9.8125"
   inkscape:cx="39.33758"
   inkscape:cy="25.528662"
   inkscape:window-x="0"
   inkscape:window-y="0"
   inkscape:window-maximized="1"
   inkscape:current-layer="svg16"
   inkscape:document-rotation="0"
   inkscape:showpageshadow="true"
   inkscape:pagecheckerboard="true"
   inkscape:deskcolor="#201933"><inkscape:grid
     type="xygrid"
     id="grid2023"
     originx="0"
     originy="0"
     spacingy="1"
     spacingx="1"
     units="px"
     visible="true" /></sodipodi:namedview>&#10;  <g
   id="thunderbird"
   style="fill:#d3dae3;fill-opacity:1"><rect
     style="opacity:0.00100002;fill:#d3dae3;fill-opacity:1"
     width="32"
     height="32"
     x="0"
     y="0"
     id="rect9" /><path
     d="M 13.029387,4.5240372 C 12.309646,4.8982325 11.695455,5.3779759 11.091059,6.0497163 10.659312,6.519914 10.294667,6.7981148 9.48848,7.2396516 6.868616,8.6982341 5.49648,10.262365 4.728741,12.670888 c -0.297545,0.921288 -0.383748,3.694454 -0.153548,4.989938 0.594845,3.43536 2.638967,6.342979 5.364135,7.638462 0.489296,0.230441 0.60464,0.24954 0.623742,0.134446 0.03845,-0.182451 0.191996,-0.182451 0.652394,0.0095 0.412645,0.163099 0.383747,0.134446 -0.239995,-0.345297 -0.527744,-0.403048 -0.911736,-0.930788 -1.141935,-1.573639 -0.403095,-1.074588 -0.374196,-1.122585 0.287993,-0.575737 0.652396,0.556638 1.89988,1.093932 1.89988,0.825285 0,-0.03844 -0.105548,-0.22065 -0.239995,-0.403093 -0.287994,-0.383749 -0.297545,-0.479743 -0.0671,-0.479743 0.201546,0 7.321809,2.389416 7.44646,2.504518 0.220893,0.191997 -0.796393,1.122831 -2.341421,2.139876 -0.623743,0.412647 -0.76774,0.546848 -0.642844,0.594845 0.355093,0.134446 2.466072,-0.249547 3.291361,-0.594845 0.767739,-0.326443 0.614191,-0.048 -0.249547,0.441292 l -0.527255,0.2973 0.431747,-0.0671 c 1.237689,-0.182444 2.44697,-0.729292 3.33936,-1.50658 0.345544,-0.297545 0.671741,-0.508641 0.748393,-0.479744 0.297545,0.115094 2.178323,-2.14943 2.773169,-3.329811 0.518193,-1.045936 0.949939,-2.475873 1.266586,-4.174205 0.1822,-1.026836 0.211098,-4.155099 0.03845,-5.133937 -0.373953,-2.082322 -1.650335,-4.2990849 -3.214466,-5.5945689 -1.045939,-0.8541916 -3.32981,-1.9096808 -4.836392,-2.2167716 -1.324381,-0.2782008 -4.16465,-0.2782008 -5.345034,0 l -0.287993,0.067097 0.326197,-0.355096 C 14.401277,4.9939825 14.228628,4.9459852 13.604886,5.3872855 12.808494,5.9439241 12.501398,6.1261225 12.434052,6.0590259 12.357402,5.9821309 12.817799,5.3872855 13.431991,4.773096 13.854187,4.3508952 13.892634,4.274 13.71974,4.274 13.605131,4.2747902 13.298034,4.3895917 13.029387,4.5240372 Z M 8.749393,11.039661 c 0.153549,0.07665 0.326198,0.268647 0.383746,0.441292 0.211098,0.594845 0.08645,1.813678 -0.182199,1.813678 -0.05755,0 -0.383747,-0.431746 -0.729291,-0.969285 -0.566193,-0.863737 -0.623742,-0.988385 -0.527744,-1.199489 0.0769,-0.182198 0.172894,-0.230196 0.441542,-0.230196 0.191751,0 0.46995,0.06734 0.613946,0.144 z m 2.965164,0.345542 c 0.03845,0.451091 -0.182446,0.681294 -0.594846,0.642843 -0.239995,-0.0191 -0.307095,-0.07665 -0.326197,-0.278201 -0.03845,-0.355096 0.316646,-0.777289 0.642844,-0.738837 0.211098,0.02865 0.249546,0.07665 0.278199,0.374195 z M 8.28875,13.035538 c 0.316647,0.47019 0.614192,1.045935 0.671741,1.276376 0.08645,0.316652 0.172649,0.460644 0.335748,0.518195 0.239995,0.096 0.518194,0.460644 1.938327,2.54297 0.71019,1.03639 0.89239,1.247486 1.074835,1.218588 0.115101,-0.0096 1.516133,-0.537539 3.109161,-1.161282 3.579356,-1.410585 4.491093,-1.746329 4.826841,-1.765681 l 0.268648,-0.0191 -0.0096,1.103486 c 0,0.901944 -0.0382,1.209035 -0.220649,1.679232 -0.374196,1.017038 -0.374196,0.949942 0.048,0.767743 0.489541,-0.20155 1.103488,-0.681294 1.42993,-1.122838 0.153548,-0.191997 0.316647,-0.335744 0.364646,-0.297546 0.249546,0.153546 -0.326197,2.638965 -1.055489,4.49085 -0.182445,0.470189 -0.556641,1.266585 -0.825289,1.746574 -0.575743,1.074833 -0.489541,1.055489 -2.235873,0.499095 C 15.6877,23.78291 7.175956,20.942395 6.926409,20.817748 6.724863,20.721748 6.619314,20.529748 6.427563,19.89646 6.139569,18.994516 5.928472,17.891029 5.822923,16.844849 l -0.0671,-0.719746 0.537295,0.499096 c 0.297545,0.278193 0.614191,0.508641 0.71974,0.508641 0.172649,0 0.163099,-0.03845 -0.05755,-0.700393 -0.412646,-1.189937 -0.297545,-3.281815 0.239995,-4.318197 0.134201,-0.268648 0.143996,-0.268648 0.335748,-0.096 0.105304,0.09625 0.450603,0.556891 0.757699,1.01729 z m 6.784513,-0.89239 c 1.525683,0.172644 4.452645,0.786842 4.634845,0.969285 0.191996,0.191997 0.690843,1.698576 0.604396,1.832777 -0.02865,0.03845 -0.191996,0.153546 -0.355095,0.239994 -0.594845,0.3071 -7.600008,3.070712 -7.705557,3.032268 -0.105549,-0.03845 -2.130325,-3.051612 -2.38942,-3.560008 -0.201547,-0.412647 -0.153548,-0.518195 0.316645,-0.767743 0.211098,-0.105548 0.585294,-0.355095 0.844392,-0.547092 0.53754,-0.412639 0.911736,-0.604636 1.813677,-0.940388 1.055733,-0.383749 1.103732,-0.393295 2.236117,-0.259093 z"
     id="path4-3"
     style="fill:#d3dae3;fill-opacity:1;stroke-width:0.00244893"
     inkscape:connector-curvature="0" /></g><g
   id="22-22-thunderbird"
   style="fill:#d3dae3;fill-opacity:1"><g
     id="g912"
     style="fill:#d3dae3;fill-opacity:1"><rect
       style="opacity:0.00100002;fill:#d3dae3;fill-opacity:1"
       width="22"
       height="22"
       x="32"
       y="10"
       id="rect2" /><path
       d="m 41.160589,13.317754 c -0.47983,0.249466 -0.889288,0.569296 -1.292217,1.017118 -0.28783,0.313468 -0.530932,0.498939 -1.068393,0.793294 -1.746577,0.972385 -2.661325,2.01513 -3.17315,3.620821 -0.198371,0.614189 -0.25583,2.462962 -0.10237,3.32662 0.396568,2.290239 1.759313,4.228649 3.57609,5.092303 0.326189,0.153627 0.403092,0.16636 0.415833,0.08963 0.02565,-0.121634 0.127998,-0.121634 0.434926,0.0063 0.275091,0.108733 0.255833,0.08963 -0.159995,-0.230197 -0.351832,-0.268699 -0.607832,-0.620525 -0.761291,-1.049092 -0.268736,-0.716391 -0.249464,-0.748389 0.191995,-0.383824 0.434923,0.371092 1.266582,0.729287 1.266582,0.55019 0,-0.02563 -0.07035,-0.1471 -0.159998,-0.268728 -0.192,-0.255834 -0.198364,-0.31983 -0.0447,-0.31983 0.13436,0 4.881194,1.592943 4.964296,1.669678 0.147268,0.127997 -0.530925,0.748553 -1.560939,1.426582 -0.415823,0.275097 -0.511822,0.364565 -0.428562,0.396563 0.23673,0.08963 1.644041,-0.166365 2.194238,-0.396563 0.511827,-0.217628 0.409457,-0.032 -0.166365,0.294195 l -0.351507,0.198201 0.287832,-0.04473 c 0.825121,-0.121629 1.631315,-0.486194 2.226238,-1.004386 0.230359,-0.198363 0.447825,-0.339094 0.498932,-0.319829 0.198358,0.07673 1.452212,-1.432952 1.848768,-2.219872 0.345472,-0.69729 0.633298,-1.650583 0.844401,-2.782798 0.121457,-0.684562 0.140721,-2.770066 0.02565,-3.422626 -0.249296,-1.388213 -1.100218,-2.866048 -2.14297,-3.729702 -0.697298,-0.569463 -2.219874,-1.273119 -3.224261,-1.477853 -0.882918,-0.185463 -2.776435,-0.185463 -3.563353,0 l -0.191994,0.0447 0.217461,-0.236739 c 0.313466,-0.326201 0.198366,-0.358199 -0.217461,-0.06399 -0.530925,0.371093 -0.735661,0.49256 -0.780555,0.447825 -0.05105,-0.0513 0.255826,-0.447825 0.665296,-0.857289 0.281459,-0.28146 0.307088,-0.332726 0.191831,-0.332726 -0.07639,5.28e-4 -0.281146,0.07707 -0.460237,0.16669 z M 38.307262,17.6615 c 0.102354,0.05105 0.217461,0.179098 0.255832,0.294196 0.140723,0.396559 0.05765,1.209118 -0.121477,1.209118 -0.03835,0 -0.255829,-0.28783 -0.486185,-0.646193 -0.37746,-0.575818 -0.41583,-0.658919 -0.35183,-0.799653 0.0513,-0.121468 0.115257,-0.153468 0.29436,-0.153468 0.127831,0 0.313304,0.04494 0.4093,0.096 z m 1.976768,0.230362 c 0.02565,0.300721 -0.121628,0.454195 -0.396555,0.428555 -0.159996,-0.0127 -0.204739,-0.05105 -0.217471,-0.185458 -0.02565,-0.236736 0.211094,-0.518194 0.428561,-0.49256 0.140735,0.01905 0.166362,0.05105 0.185465,0.249463 z m -2.283867,1.100226 c 0.211102,0.313449 0.409453,0.697285 0.447825,0.850913 0.05765,0.211102 0.115106,0.307097 0.22383,0.345459 0.16,0.064 0.345464,0.307103 1.292221,1.695314 0.473463,0.690928 0.594926,0.831657 0.716557,0.812396 0.07672,-0.0065 1.010753,-0.358358 2.072773,-0.774189 2.386237,-0.940393 2.99406,-1.164218 3.217891,-1.17712 l 0.179096,-0.0127 -0.0067,0.735656 c 0,0.601297 -0.02541,0.80602 -0.147098,1.119484 -0.249466,0.678029 -0.249466,0.633293 0.032,0.511831 0.326359,-0.134369 0.735656,-0.454196 0.953285,-0.748555 0.102365,-0.127999 0.211096,-0.223833 0.243095,-0.198365 0.166366,0.102364 -0.217462,1.759308 -0.703658,2.993895 -0.121628,0.313459 -0.371093,0.844389 -0.550191,1.164381 -0.383828,0.716555 -0.32636,0.703659 -1.490581,0.33273 -1.548029,-0.486193 -7.22252,-2.379867 -7.388883,-2.462964 -0.134366,-0.064 -0.204731,-0.191999 -0.332568,-0.614193 -0.191995,-0.601297 -0.332725,-1.336953 -0.403091,-2.034405 l -0.0447,-0.479827 0.358194,0.332723 c 0.198366,0.185466 0.40946,0.339096 0.479826,0.339096 0.1151,0 0.108733,-0.02565 -0.03835,-0.46693 -0.275094,-0.793287 -0.198364,-2.187868 0.159998,-2.878793 0.08945,-0.179099 0.096,-0.179099 0.223832,-0.064 0.07015,0.06421 0.300401,0.371263 0.50513,0.678192 z m 4.523001,-0.594928 c 1.017122,0.115093 2.968432,0.524558 3.089901,0.646182 0.127995,0.127999 0.460552,1.132393 0.402925,1.221858 -0.01905,0.02565 -0.127998,0.102366 -0.236726,0.159995 -0.396567,0.204736 -5.066668,2.04714 -5.137035,2.021509 -0.07035,-0.02564 -1.420212,-2.034409 -1.592947,-2.373336 -0.134364,-0.275096 -0.102365,-0.345467 0.211102,-0.511834 0.140729,-0.07035 0.390187,-0.236722 0.562928,-0.36472 0.358358,-0.275096 0.607822,-0.403093 1.209117,-0.626926 0.703817,-0.255833 0.735816,-0.262195 1.490735,-0.172728 z"
       id="path4-3-6"
       style="fill:#d3dae3;fill-opacity:1;stroke-width:0.00163263"
       inkscape:connector-curvature="0" /></g></g></svg>
