<?xml version="1.0" encoding="UTF-8" standalone="no"?>
<svg
   width="32"
   height="32"
   version="1.1"
   id="svg22"
   sodipodi:docname="touchpad.svg"
   inkscape:version="1.3 (0e150ed6c4, 2023-07-21)"
   xmlns:inkscape="http://www.inkscape.org/namespaces/inkscape"
   xmlns:sodipodi="http://sodipodi.sourceforge.net/DTD/sodipodi-0.dtd"
   xmlns:xlink="http://www.w3.org/1999/xlink"
   xmlns="http://www.w3.org/2000/svg"
   xmlns:svg="http://www.w3.org/2000/svg"
   xmlns:rdf="http://www.w3.org/1999/02/22-rdf-syntax-ns#"
   xmlns:cc="http://creativecommons.org/ns#"
   xmlns:dc="http://purl.org/dc/elements/1.1/">
  <g
     id="touchpad_disabled"
     transform="translate(32)"
     style="fill:#d3dae3;fill-opacity:1">
    <rect
       style="opacity:0.00100002;fill:#d3dae3;fill-opacity:1"
       width="32"
       height="32"
       x="0"
       y="0"
       id="rect17" />
    <path
       style="opacity:0.4;fill:#d3dae3;fill-opacity:1;stroke-width:1.71429"
       class="ColorScheme-Text"
       d="m 5,21 v 2 h 22 v -2 z"
       fill-rule="evenodd"
       id="path60-6-5-7"
       sodipodi:nodetypes="ccccc" />
    <path
       style="opacity:0.4;fill:#d3dae3;fill-opacity:1;stroke-width:1.71429"
       class="ColorScheme-Text"
       d="m 15.0005,23 v 4 h 2 v -4 z"
       fill-rule="evenodd"
       id="path62-7-6-5"
       sodipodi:nodetypes="ccccc" />
    <path
       style="opacity:0.4;fill:#d3dae3;fill-opacity:1;fill-rule:nonzero;stroke:none;stroke-width:21.9153;stroke-miterlimit:4;stroke-dasharray:none;stroke-opacity:1"
       d="m 16.011845,6.000113 c -1.38589,-0.0063 -2.57415,0.250886 -3.654713,0.791923 -0.359744,0.180103 -0.415734,0.243279 -0.392446,0.437723 0.04763,0.396847 0.252471,0.43537 0.859334,0.163009 1.128225,-0.50631 1.677185,-0.614283 3.100275,-0.615828 1.63328,-0.0013 2.23475,0.138572 3.57422,0.832177 0.23015,0.119011 0.95872,0.681415 1.23067,0.379358 0.26932,-0.269303 0.127,-0.492207 -0.56652,-0.886513 -1.36777,-0.777621 -2.56283,-1.094328 -4.15082,-1.101849 z m -0.0423,1.603974 C 14.140975,7.602687 12.313537,8.325148 10.973491,9.7725663 10.455075,10.332501 9.8505,11.250254 9.8505,11.477165 c 0,0.264574 0.109036,0.410561 0.306911,0.410561 0.155075,0 0.31283,-0.167287 0.688279,-0.731549 0.839681,-1.2619807 1.928268,-2.099167 3.330715,-2.561942 1.08764,-0.354985 2.3613,-0.313897 3.58528,0 1.58038,0.519476 2.93617,1.676708 3.67889,3.140531 0.16165,0.318513 0.25827,0.415582 0.41657,0.415582 0.27263,0 0.43271,-0.202875 0.35824,-0.454828 -0.1201,-0.406374 -0.76073,-1.391011 -1.24575,-1.9149087 -1.34194,-1.4494483 -3.17154,-2.1751443 -5.0001,-2.1765243 z m 0.0865,1.592896 c -0.38974,-0.0076 -0.78519,0.03006 -1.18035,0.112618 -1.877704,0.3924913 -3.447164,1.913202 -3.949554,3.826785 -0.266607,1.015487 -0.144016,2.674175 0.295843,4.000874 0.131429,0.39648 0.194943,0.47917 0.383376,0.501125 0.433283,0.05035 0.475608,-0.155815 0.216347,-1.052551 -0.741872,-2.565782 -0.10325,-4.748679 1.736818,-5.938924 1.81913,-1.1767627 4.32103,-0.8285017 5.74471,0.798971 0.89214,1.019859 1.38147,2.744921 0.99216,3.497748 -0.25718,0.497336 -0.88333,0.796233 -1.39768,0.667148 -0.37589,-0.09427 -0.82144,-0.556256 -0.87848,-0.910664 -0.20126,-1.250649 -0.48536,-1.740085 -1.20448,-2.0749 -0.61343,-0.285623 -1.12473,-0.277738 -1.72673,0.02724 -0.56091,0.284107 -0.99067,0.857552 -1.07771,1.437934 -0.0315,0.209152 -0.0175,0.661751 0.0313,1.005252 0.30345,2.139693 1.83432,3.83236 3.93646,4.353066 0.26437,0.06538 0.69662,0.111764 0.96098,0.102577 l 0.48099,-0.0158 c 0.2717,-0.137886 0.28658,-0.45533 0,-0.611806 l -0.68021,-0.10371 c -0.85617,-0.130518 -1.2107,-0.243262 -1.7992,-0.574566 -1.27976,-0.720443 -2.19664,-2.282207 -2.19664,-3.741256 0,-0.642983 0.24342,-1.018571 0.81103,-1.253796 0.41013,-0.169983 0.416,-0.169983 0.82613,0 0.51905,0.215109 0.76888,0.575102 0.83318,1.19845 0.11808,1.144 0.91195,1.896794 2.00043,1.896794 0.87357,0 1.60888,-0.566883 1.86964,-1.440961 0.25521,-0.855423 -0.0875,-2.292197 -0.80701,-3.385048 -0.95372,-1.448319 -2.53238,-2.293093 -4.22127,-2.322432 z m -0.0564,1.657307 c -0.54393,0.0077 -1.10329,0.107263 -1.56172,0.285787 -0.70683,0.346171 -1.380354,1.037504 -1.728738,1.773012 -0.265107,0.559657 -0.280912,0.646814 -0.280753,1.596931 1.96e-4,1.168948 0.141577,1.78992 0.645013,2.839665 0.433748,0.904527 1.034648,1.693428 1.702598,2.233885 0.57895,0.468467 0.64046,0.491203 0.88147,0.314964 0.24675,-0.180419 0.10907,-0.490228 -0.38942,-0.872433 -0.54054,-0.414406 -1.12437,-1.164014 -1.51844,-1.950121 -0.647273,-1.291202 -0.810348,-2.887038 -0.388413,-3.800636 0.306223,-0.663047 0.773153,-1.157646 1.368503,-1.450005 0.71529,-0.351274 1.76011,-0.351274 2.47541,0 0.85374,0.41924 1.39962,1.182653 1.59289,2.229851 0.11534,0.625104 0.29001,0.832884 0.55647,0.661112 0.1234,-0.0795 0.15033,-0.212204 0.13896,-0.688275 -0.0279,-1.157265 -0.83874,-2.319192 -2.0236,-2.901045 -0.39773,-0.193531 -0.92619,-0.279561 -1.47013,-0.272692 z"
       id="path20-9-5" />
    <path
       style="opacity:0.4;fill:#d3dae3;fill-opacity:1;fill-rule:nonzero;stroke:none;stroke-width:21.9153;stroke-miterlimit:4;stroke-dasharray:none;stroke-opacity:1"
       d="m 18.414865,17.886053 c -1.49338,-0.325757 -2.64443,-1.641506 -2.77366,-3.17051 -0.0408,-0.483243 -0.0266,-0.547108 0.14069,-0.636685 0.31875,-0.170583 0.50297,0.0096 0.56672,0.550928 0.1603,1.36396 1.16266,2.39265 2.51109,2.577052 0.65971,0.09016 0.87189,0.343513 0.55402,0.661392 -0.15918,0.15918 -0.33641,0.162289 -0.99878,0.01781 z"
       id="path22-1-6" />
    <path
       d="m 26.0005,4 h -20 C 4.65356,4 3.99997,4.8999997 4,5.9999987 l 5e-4,19.9999973 C 4.00052,27.1 4.65356,28 6.0005,28 h 20 c 1.34694,0 2,-0.9 2,-2.000004 V 5.9999987 C 28.0005,4.8999997 27.34744,4 26.0005,4 Z m 1,21.999996 c 0,1.000004 -0.7366,0.999996 -1.44898,0.999996 H 6.4495 c -0.6735,0 -1.449,8e-6 -1.449,-0.999996 V 5.9999987 c 0,-0.999999 0.57575,-0.999999 1.24925,-0.999999 h 19.5015 c 0.67344,0 1.24925,0 1.24925,0.999999 z"
       id="path2-53-2-3-2-1"
       style="opacity:0.4;fill:#d3dae3;fill-opacity:1;stroke-width:0.553282"
       sodipodi:nodetypes="ssssssssssssssssss" />
  </g>
  <g
     id="22-22-touchpad_enabled"
     transform="translate(0,-22.000015)"
     style="fill:#d3dae3;fill-opacity:1">
    <rect
       style="opacity:0.00100002;fill:#d3dae3;fill-opacity:1"
       width="22"
       height="22"
       x="0"
       y="-2.5878907e-07"
       id="rect2" />
    <path
       style="fill:#d3dae3;fill-opacity:1;stroke-width:1.14286"
       class="ColorScheme-Text"
       d="m 3,15.000015 v 1 h 16 v -1 z"
       fill-rule="evenodd"
       id="path60-6-5-2"
       sodipodi:nodetypes="ccccc" />
    <path
       style="fill:#d3dae3;fill-opacity:1;stroke-width:1.14286"
       class="ColorScheme-Text"
       d="m 10,16.000015 v 2 h 2 v -2 z"
       fill-rule="evenodd"
       id="path62-7-6-9"
       sodipodi:nodetypes="ccccc" />
    <path
       d="M 17.567,3 H 4.433 C 3.535041,3 3,3.6 3,4.333333 V 17.666665 C 3,18.4 3.535041,19 4.433,19 H 17.567 C 18.46496,19 19,18.4 19,17.666665 V 4.333333 C 19,3.6 18.46496,3 17.567,3 Z M 18,17.366668 C 18,17.733331 17.816313,18 17.367351,18 H 4.63267 C 4.183671,18 4,17.733663 4,17.367 V 4.633 C 4,4.266334 4.183671,4 4.63267,4 H 17.367351 C 17.816313,4 18,4.266334 18,4.633 Z"
       id="path2-53-2-1"
       style="fill:#d3dae3;fill-opacity:1;stroke-width:0.368855"
       sodipodi:nodetypes="ssssssssssssssssss" />
    <path
       style="fill:#d3dae3;fill-opacity:1;fill-rule:nonzero;stroke:none;stroke-width:14.6102;stroke-miterlimit:4;stroke-dasharray:none;stroke-opacity:1"
       d="m 11.007566,4.333409 c -0.923927,-0.0042 -1.7161,0.167257 -2.436475,0.527948 -0.23983,0.120069 -0.277156,0.162186 -0.261631,0.291816 0.03175,0.264564 0.168314,0.290246 0.572889,0.108672 0.75215,-0.33754 1.118124,-0.409522 2.06685,-0.410552 1.088854,-8.66e-4 1.489834,0.09238 2.382814,0.554785 0.153433,0.07934 0.639146,0.454277 0.820446,0.252905 0.179547,-0.179535 0.08467,-0.328138 -0.37768,-0.591008 C 12.862933,4.549561 12.066226,4.338423 11.007566,4.333409 Z m -0.0282,1.069316 C 9.760319,5.401791 8.542027,5.883432 7.648663,6.848377 c -0.34561,0.3732903 -0.74866,0.9851263 -0.74866,1.1364003 0,0.176382 0.07269,0.273707 0.204607,0.273707 0.103383,0 0.208553,-0.111525 0.458853,-0.487699 C 8.12325,6.929464 8.848975,6.37134 9.783939,6.062823 c 0.725094,-0.236656 1.5742,-0.209264 2.390187,0 1.053587,0.346318 1.957447,1.1178063 2.452593,2.0936883 0.107767,0.212342 0.17218,0.277054 0.277714,0.277054 0.181753,0 0.288473,-0.13525 0.238826,-0.303218 -0.08007,-0.270916 -0.507153,-0.927341 -0.8305,-1.2766063 -0.894626,-0.966299 -2.11436,-1.450096 -3.3334,-1.451016 z m 0.05767,1.06193 c -0.259827,-0.0051 -0.52346,0.02004 -0.7869,0.07508 C 8.998333,6.801396 7.952026,7.8152033 7.6171,9.0909253 7.439362,9.7679163 7.52109,10.873708 7.814328,11.758174 c 0.08762,0.26432 0.129962,0.319447 0.255584,0.334084 0.288856,0.03357 0.317072,-0.103877 0.144232,-0.701701 C 7.719562,9.6800363 8.145314,8.2247713 9.372022,7.4312743 10.584776,6.646766 12.252709,6.87894 13.201829,7.9639223 c 0.59476,0.679906 0.92098,1.829947 0.66144,2.3318317 -0.171453,0.331557 -0.588887,0.530822 -0.931787,0.444765 -0.250593,-0.06285 -0.547626,-0.370837 -0.585653,-0.607109 -0.134173,-0.8337657 -0.323573,-1.1600567 -0.802987,-1.3832667 -0.408953,-0.190415 -0.74982,-0.185159 -1.151153,0.01816 -0.37394,0.189405 -0.660447,0.571701 -0.718473,0.958623 -0.021,0.139434 -0.01167,0.4411667 0.02087,0.6701677 0.2023,1.426462 1.22288,2.554906 2.624307,2.902044 0.176247,0.04359 0.464413,0.07451 0.640653,0.06838 l 0.32066,-0.01053 c 0.181134,-0.09192 0.191054,-0.303553 0,-0.407871 l -0.453473,-0.06914 c -0.57078,-0.08701 -0.807133,-0.162174 -1.199467,-0.383044 -0.853173,-0.480295 -1.464426,-1.521471 -1.464426,-2.49417 0,-0.4286557 0.16228,-0.6790477 0.540686,-0.8358637 0.27342,-0.113322 0.277334,-0.113322 0.550754,0 0.346033,0.143406 0.512586,0.383401 0.555453,0.798966 0.07872,0.7626667 0.607967,1.2645297 1.33362,1.2645297 0.58238,0 1.072587,-0.377922 1.246427,-0.960641 C 14.55942,9.6994723 14.33095,8.7416233 13.851273,8.0130553 13.21546,7.0475093 12.16302,6.484327 11.037093,6.464767 Z m -0.0376,1.1048723 c -0.36262,0.0051 -0.735527,0.07151 -1.041147,0.190524 -0.47122,0.230781 -0.920236,0.69167 -1.152492,1.182008 -0.176738,0.373105 -0.187275,0.43121 -0.187169,1.0646207 1.31e-4,0.779299 0.09439,1.19328 0.430009,1.89311 0.289165,0.603018 0.689765,1.128952 1.135065,1.489257 0.385967,0.312311 0.426974,0.327468 0.587647,0.209976 0.1645,-0.12028 0.07271,-0.326819 -0.259613,-0.581622 C 10.151376,12.74113 9.762156,12.241391 9.499442,11.71732 9.067927,10.856519 8.95921,9.7926283 9.2405,9.1835633 c 0.204149,-0.442032 0.515436,-0.771764 0.912336,-0.96667 0.47686,-0.234183 1.173406,-0.234183 1.650273,0 0.56916,0.279493 0.93308,0.788435 1.061927,1.486567 0.07689,0.4167357 0.19334,0.5552557 0.37098,0.4407407 0.08227,-0.053 0.10022,-0.141469 0.09264,-0.4588497 -0.0186,-0.77151 -0.55916,-1.546128 -1.349067,-1.93403 -0.265153,-0.12902 -0.61746,-0.186374 -0.980087,-0.181794 z"
       id="path20-9-2" />
    <path
       style="fill:#d3dae3;fill-opacity:1;fill-rule:nonzero;stroke:none;stroke-width:14.6102;stroke-miterlimit:4;stroke-dasharray:none;stroke-opacity:1"
       d="m 12.609579,12.257369 c -0.995586,-0.217172 -1.762953,-1.094338 -1.849106,-2.113674 -0.0272,-0.3221617 -0.01773,-0.3647377 0.09379,-0.4244557 0.2125,-0.113722 0.335313,0.0064 0.377813,0.3672847 0.106867,0.909307 0.775107,1.5951 1.67406,1.718035 0.439807,0.06011 0.58126,0.229008 0.369347,0.440928 -0.10612,0.10612 -0.224273,0.108192 -0.665853,0.01187 z"
       id="path22-1-7" />
  </g>
  <g
     id="touchpad_enabled"
     transform="translate(0,-22.000015)"
     style="fill:#d3dae3;fill-opacity:1">
    <rect
       style="opacity:0.00100002;fill:#d3dae3;fill-opacity:1"
       width="32"
       height="32"
       x="0"
       y="22.000015"
       id="rect12" />
    <path
       style="fill:#d3dae3;fill-opacity:1;stroke-width:1.71429"
       class="ColorScheme-Text"
       d="m 4,43.000015 v 2 h 24 v -2 z"
       fill-rule="evenodd"
       id="path60-6-5"
       sodipodi:nodetypes="ccccc" />
    <path
       style="fill:#d3dae3;fill-opacity:1;stroke-width:1.71429"
       class="ColorScheme-Text"
       d="m 15,45.000015 v 4 h 2 v -4 z"
       fill-rule="evenodd"
       id="path62-7-6"
       sodipodi:nodetypes="ccccc" />
    <path
       d="M 26,26.000015 H 6 c -1.346939,0 -2.0005299,0.9 -2.0005025,1.999999 L 3.999996,48.000012 C 4.0000234,49.100015 4.653061,50.000015 6,50.000015 h 20 c 1.34694,0 1.999996,-0.9 1.999996,-2.000003 V 28.000014 c 0,-1.099999 -0.653056,-1.999999 -1.999996,-1.999999 z m 1,21.999997 c 0,1.000003 -0.7366,0.999995 -1.448977,0.999995 H 6.449001 C 5.775503,49.000007 5,49.000015 5,48.000012 V 28.000014 C 5,27.000015 5.5757515,27.000015 6.2492495,27.000015 H 25.750752 c 0.673443,0 1.249248,0 1.249248,0.999999 z"
       id="path2-53-2"
       style="fill:#d3dae3;fill-opacity:1;stroke-width:0.553282"
       sodipodi:nodetypes="ssssssssssssssssss" />
    <path
       style="fill:#d3dae3;fill-opacity:1;fill-rule:nonzero;stroke:none;stroke-width:21.9153;stroke-miterlimit:4;stroke-dasharray:none;stroke-opacity:1"
       d="m 16.011345,28.000128 c -1.38589,-0.0063 -2.57415,0.250886 -3.654713,0.791923 -0.359744,0.180103 -0.415734,0.243279 -0.392446,0.437723 0.04763,0.396847 0.252471,0.43537 0.859334,0.163009 1.128225,-0.50631 1.677185,-0.614283 3.100275,-0.615828 1.63328,-0.0013 2.23475,0.138572 3.57422,0.832177 0.23015,0.119011 0.95872,0.681415 1.23067,0.379358 0.26932,-0.269303 0.127,-0.492207 -0.56652,-0.886513 -1.36777,-0.777621 -2.56283,-1.094328 -4.15082,-1.101849 z m -0.0423,1.603974 c -1.82857,-0.0014 -3.656008,0.721061 -4.996054,2.168479 C 10.454575,32.332516 9.85,33.250269 9.85,33.47718 c 0,0.264574 0.109036,0.410561 0.306911,0.410561 0.155075,0 0.31283,-0.167287 0.688279,-0.731549 0.839681,-1.261981 1.928268,-2.099167 3.330715,-2.561942 1.08764,-0.354985 2.3613,-0.313897 3.58528,0 1.58038,0.519476 2.93617,1.676708 3.67889,3.140531 0.16165,0.318513 0.25827,0.415582 0.41657,0.415582 0.27263,0 0.43271,-0.202875 0.35824,-0.454828 -0.1201,-0.406374 -0.76073,-1.391011 -1.24575,-1.914909 -1.34194,-1.449448 -3.17154,-2.175144 -5.0001,-2.176524 z m 0.0865,1.592896 c -0.38974,-0.0076 -0.78519,0.03006 -1.18035,0.112618 -1.877704,0.392491 -3.447164,1.913202 -3.949554,3.826785 -0.266607,1.015487 -0.144016,2.674175 0.295843,4.000874 0.131429,0.39648 0.194943,0.47917 0.383376,0.501125 0.433283,0.05035 0.475608,-0.155815 0.216347,-1.052551 -0.741872,-2.565782 -0.10325,-4.748679 1.736818,-5.938924 1.81913,-1.176763 4.32103,-0.828502 5.74471,0.798971 0.89214,1.019859 1.38147,2.744921 0.99216,3.497748 -0.25718,0.497336 -0.88333,0.796233 -1.39768,0.667148 -0.37589,-0.09427 -0.82144,-0.556256 -0.87848,-0.910664 -0.20126,-1.250649 -0.48536,-1.740085 -1.20448,-2.0749 -0.61343,-0.285623 -1.12473,-0.277738 -1.72673,0.02724 -0.56091,0.284107 -0.99067,0.857552 -1.07771,1.437934 -0.0315,0.209152 -0.0175,0.661751 0.0313,1.005252 0.30345,2.139693 1.83432,3.83236 3.93646,4.353066 0.26437,0.06538 0.69662,0.111764 0.96098,0.102577 l 0.48099,-0.0158 c 0.2717,-0.137886 0.28658,-0.45533 0,-0.611806 l -0.68021,-0.10371 c -0.85617,-0.130518 -1.2107,-0.243262 -1.7992,-0.574566 -1.27976,-0.720443 -2.19664,-2.282207 -2.19664,-3.741256 0,-0.642983 0.24342,-1.018571 0.81103,-1.253796 0.41013,-0.169983 0.416,-0.169983 0.82613,0 0.51905,0.215109 0.76888,0.575102 0.83318,1.19845 0.11808,1.144 0.91195,1.896794 2.00043,1.896794 0.87357,0 1.60888,-0.566883 1.86964,-1.440961 0.25521,-0.855423 -0.0875,-2.292197 -0.80701,-3.385048 -0.95372,-1.448319 -2.53238,-2.293093 -4.22127,-2.322432 z m -0.0564,1.657307 c -0.54393,0.0077 -1.10329,0.107263 -1.56172,0.285787 -0.70683,0.346171 -1.380354,1.037504 -1.728738,1.773012 -0.265107,0.559657 -0.280912,0.646814 -0.280753,1.596931 1.96e-4,1.168948 0.141577,1.78992 0.645013,2.839665 0.433748,0.904527 1.034648,1.693428 1.702598,2.233885 0.57895,0.468467 0.64046,0.491203 0.88147,0.314964 0.24675,-0.180419 0.10907,-0.490228 -0.38942,-0.872433 -0.54054,-0.414406 -1.12437,-1.164014 -1.51844,-1.950121 -0.647273,-1.291202 -0.810348,-2.887038 -0.388413,-3.800636 0.306223,-0.663047 0.773153,-1.157646 1.368503,-1.450005 0.71529,-0.351274 1.76011,-0.351274 2.47541,0 0.85374,0.41924 1.39962,1.182653 1.59289,2.229851 0.11534,0.625104 0.29001,0.832884 0.55647,0.661112 0.1234,-0.0795 0.15033,-0.212204 0.13896,-0.688275 -0.0279,-1.157265 -0.83874,-2.319192 -2.0236,-2.901045 -0.39773,-0.193531 -0.92619,-0.279561 -1.47013,-0.272692 z"
       id="path20-9" />
    <path
       style="fill:#d3dae3;fill-opacity:1;fill-rule:nonzero;stroke:none;stroke-width:21.9153;stroke-miterlimit:4;stroke-dasharray:none;stroke-opacity:1"
       d="m 18.414365,39.886068 c -1.49338,-0.325757 -2.64443,-1.641506 -2.77366,-3.17051 -0.0408,-0.483243 -0.0266,-0.547108 0.14069,-0.636685 0.31875,-0.170583 0.50297,0.0096 0.56672,0.550928 0.1603,1.36396 1.16266,2.39265 2.51109,2.577052 0.65971,0.09016 0.87189,0.343513 0.55402,0.661392 -0.15918,0.15918 -0.33641,0.162289 -0.99878,0.01781 z"
       id="path22-1" />
  </g>
  <metadata
     id="metadata28">
    <rdf:RDF>
      <cc:Work
         rdf:about="">
        <dc:format>image/svg+xml</dc:format>
        <dc:type
           rdf:resource="http://purl.org/dc/dcmitype/StillImage" />
      </cc:Work>
    </rdf:RDF>
  </metadata>
  <defs
     id="defs26">
    <linearGradient
       gradientTransform="matrix(0.35000018,0,0,0.35000018,-127.12577,-169.60226)"
       xlink:href="#linearGradient4177"
       id="linearGradient4205"
       x1="388.73499"
       y1="503.991"
       x2="428.40799"
       y2="543.93201"
       gradientUnits="userSpaceOnUse" />
    <linearGradient
       id="linearGradient4177">
      <stop
         offset="0"
         style="stop-color:#3f3f3f;stop-opacity:1;"
         id="stop3" />
      <stop
         style="stop-color:#de7d9c;stop-opacity:1"
         offset=".11"
         id="stop5" />
      <stop
         offset=".449"
         style="stop-color:#cc3d8a;stop-opacity:1"
         id="stop7" />
      <stop
         style="stop-color:#5f2b76;stop-opacity:1"
         offset=".934"
         id="stop9" />
      <stop
         offset="1"
         style="stop-color:#3f3f3f;stop-opacity:0;"
         id="stop11" />
    </linearGradient>
    <linearGradient
       id="oomox"
       x1="0"
       x2="0"
       y1="0"
       y2="1">
      <stop
         offset="0%"
         style="stop-color:#303b3d; stop-opacity:1"
         id="stop18" />
      <stop
         offset="100%"
         style="stop-color:#bc985d; stop-opacity:1"
         id="stop20" />
    </linearGradient>
  </defs>
  <sodipodi:namedview
     pagecolor="#201933"
     bordercolor="#000000"
     borderopacity="1"
     objecttolerance="10"
     gridtolerance="10"
     guidetolerance="10"
     inkscape:pageopacity="0"
     inkscape:pageshadow="2"
     inkscape:window-width="1920"
     inkscape:window-height="994"
     id="namedview24"
     showgrid="true"
     inkscape:zoom="9.8125003"
     inkscape:cx="31.796177"
     inkscape:cy="6.5732482"
     inkscape:window-x="0"
     inkscape:window-y="0"
     inkscape:window-maximized="1"
     inkscape:current-layer="svg22"
     inkscape:document-rotation="0"
     inkscape:lockguides="false"
     inkscape:pagecheckerboard="true"
     inkscape:showpageshadow="true"
     inkscape:deskcolor="#201933">
    <inkscape:grid
       id="grid1"
       units="px"
       originx="0"
       originy="0"
       spacingx="1"
       spacingy="1"
       empcolor="#0099e5"
       empopacity="0.30196078"
       color="#0099e5"
       opacity="0.14901961"
       empspacing="5"
       dotted="false"
       gridanglex="30"
       gridanglez="30"
       visible="true" />
  </sodipodi:namedview>
  <g
     id="22-22-touchpad_disabled"
     transform="translate(32,-22.000015)"
     style="fill:#d3dae3;fill-opacity:1">
    <rect
       style="opacity:0.00100002;fill:#d3dae3;fill-opacity:1"
       width="22"
       height="22"
       x="0"
       y="-2.5878907e-07"
       id="rect7" />
    <path
       style="opacity:0.4;fill:#d3dae3;fill-opacity:1;stroke-width:1.14286"
       class="ColorScheme-Text"
       d="m 4,15.000015 v 1 h 14 v -1 z"
       fill-rule="evenodd"
       id="path60-6-5-2-9"
       sodipodi:nodetypes="ccccc" />
    <path
       style="opacity:0.4;fill:#d3dae3;fill-opacity:1;stroke-width:1.14286"
       class="ColorScheme-Text"
       d="m 10,16.000015 v 2 h 2 v -2 z"
       fill-rule="evenodd"
       id="path62-7-6-9-3"
       sodipodi:nodetypes="ccccc" />
    <path
       style="opacity:0.4;fill:#d3dae3;fill-opacity:1;fill-rule:nonzero;stroke:none;stroke-width:14.6102;stroke-miterlimit:4;stroke-dasharray:none;stroke-opacity:1"
       d="m 11.007566,4.333409 c -0.923927,-0.0042 -1.7161,0.167257 -2.436475,0.527948 -0.23983,0.120069 -0.277156,0.162186 -0.261631,0.291816 0.03175,0.264564 0.168314,0.290246 0.572889,0.108672 0.75215,-0.33754 1.118124,-0.409522 2.06685,-0.410552 1.088854,-8.66e-4 1.489834,0.09238 2.382814,0.554785 0.153433,0.07934 0.639146,0.454277 0.820446,0.252905 0.179547,-0.179535 0.08467,-0.328138 -0.37768,-0.591008 C 12.862933,4.549561 12.066226,4.338423 11.007566,4.333409 Z m -0.0282,1.069316 C 9.760319,5.401791 8.542027,5.883432 7.648663,6.848377 c -0.34561,0.3732903 -0.74866,0.9851263 -0.74866,1.1364003 0,0.176382 0.07269,0.273707 0.204607,0.273707 0.103383,0 0.208553,-0.111525 0.458853,-0.487699 C 8.12325,6.929464 8.848975,6.37134 9.783939,6.062823 c 0.725094,-0.236656 1.5742,-0.209264 2.390187,0 1.053587,0.346318 1.957447,1.1178063 2.452593,2.0936883 0.107767,0.212342 0.17218,0.277054 0.277714,0.277054 0.181753,0 0.288473,-0.13525 0.238826,-0.303218 -0.08007,-0.270916 -0.507153,-0.927341 -0.8305,-1.2766063 -0.894626,-0.966299 -2.11436,-1.450096 -3.3334,-1.451016 z m 0.05767,1.06193 c -0.259827,-0.0051 -0.52346,0.02004 -0.7869,0.07508 C 8.998333,6.801396 7.952026,7.8152033 7.6171,9.0909253 7.439362,9.7679163 7.52109,10.873708 7.814328,11.758174 c 0.08762,0.26432 0.129962,0.319447 0.255584,0.334084 0.288856,0.03357 0.317072,-0.103877 0.144232,-0.701701 C 7.719562,9.6800363 8.145314,8.2247713 9.372022,7.4312743 10.584776,6.646766 12.252709,6.87894 13.201829,7.9639223 c 0.59476,0.679906 0.92098,1.829947 0.66144,2.3318317 -0.171453,0.331557 -0.588887,0.530822 -0.931787,0.444765 -0.250593,-0.06285 -0.547626,-0.370837 -0.585653,-0.607109 -0.134173,-0.8337657 -0.323573,-1.1600567 -0.802987,-1.3832667 -0.408953,-0.190415 -0.74982,-0.185159 -1.151153,0.01816 -0.37394,0.189405 -0.660447,0.571701 -0.718473,0.958623 -0.021,0.139434 -0.01167,0.4411667 0.02087,0.6701677 0.2023,1.426462 1.22288,2.554906 2.624307,2.902044 0.176247,0.04359 0.464413,0.07451 0.640653,0.06838 l 0.32066,-0.01053 c 0.181134,-0.09192 0.191054,-0.303553 0,-0.407871 l -0.453473,-0.06914 c -0.57078,-0.08701 -0.807133,-0.162174 -1.199467,-0.383044 -0.853173,-0.480295 -1.464426,-1.521471 -1.464426,-2.49417 0,-0.4286557 0.16228,-0.6790477 0.540686,-0.8358637 0.27342,-0.113322 0.277334,-0.113322 0.550754,0 0.346033,0.143406 0.512586,0.383401 0.555453,0.7989657 0.07872,0.762667 0.607967,1.26453 1.33362,1.26453 0.58238,0 1.072587,-0.377922 1.246427,-0.960641 C 14.55942,9.6994723 14.33095,8.7416233 13.851273,8.0130553 13.21546,7.0475093 12.16302,6.484327 11.037093,6.464767 Z m -0.0376,1.1048723 c -0.36262,0.0051 -0.735527,0.07151 -1.041147,0.190524 -0.47122,0.230781 -0.920236,0.69167 -1.152492,1.182008 -0.176738,0.373105 -0.187275,0.43121 -0.187169,1.0646207 1.31e-4,0.779299 0.09439,1.19328 0.430009,1.89311 0.289165,0.603018 0.689765,1.128952 1.135065,1.489257 0.385967,0.312311 0.426974,0.327468 0.587647,0.209976 0.1645,-0.12028 0.07271,-0.326819 -0.259613,-0.581622 C 10.151376,12.74113 9.762156,12.241391 9.499442,11.71732 9.067927,10.856519 8.95921,9.7926283 9.2405,9.1835633 c 0.204149,-0.442032 0.515436,-0.771764 0.912336,-0.96667 0.47686,-0.234183 1.173406,-0.234183 1.650273,0 0.56916,0.279493 0.93308,0.788435 1.061927,1.486567 0.07689,0.4167357 0.19334,0.5552557 0.37098,0.4407407 0.08227,-0.053 0.10022,-0.141469 0.09264,-0.4588497 -0.0186,-0.77151 -0.55916,-1.546128 -1.349067,-1.93403 -0.265153,-0.12902 -0.61746,-0.186374 -0.980087,-0.181794 z"
       id="path20-9-2-0" />
    <path
       style="opacity:0.4;fill:#d3dae3;fill-opacity:1;fill-rule:nonzero;stroke:none;stroke-width:14.6102;stroke-miterlimit:4;stroke-dasharray:none;stroke-opacity:1"
       d="m 12.609579,12.257369 c -0.995586,-0.217172 -1.762953,-1.094338 -1.849106,-2.113674 -0.0272,-0.3221617 -0.01773,-0.3647377 0.09379,-0.4244557 0.2125,-0.113722 0.335313,0.0064 0.377813,0.3672847 0.106867,0.909307 0.775107,1.5951 1.67406,1.718035 0.439807,0.06011 0.58126,0.229008 0.369347,0.440928 -0.10612,0.10612 -0.224273,0.108192 -0.665853,0.01187 z"
       id="path22-1-7-6" />
    <path
       d="M 17.567,3.000015 H 4.433 c -0.897959,0 -1.433,0.6 -1.433,1.333333 V 17.66668 c 0,0.733335 0.535041,1.333335 1.433,1.333335 h 13.134 c 0.89796,0 1.433,-0.6 1.433,-1.333335 V 4.333348 C 19,3.600015 18.46496,3.000015 17.567,3.000015 Z M 18,17.366683 c 0,0.366663 -0.183687,0.633332 -0.632649,0.633332 H 4.63267 C 4.183671,18.000015 4,17.733678 4,17.367015 v -12.734 c 0,-0.366666 0.183671,-0.633 0.63267,-0.633 H 17.367351 C 17.816313,4.000015 18,4.266334 18,4.633 Z"
       id="path2-53-2-1-2-7-0-9-3"
       style="opacity:0.4;fill:#d3dae3;fill-opacity:1;stroke-width:0.368855"
       sodipodi:nodetypes="ssssssssssssssssss" />
  </g>
</svg>
