<?xml version="1.0" encoding="UTF-8" standalone="no"?>
<svg
   width="32"
   height="32"
   version="1.1"
   id="svg12"
   sodipodi:docname="video.svg"
   inkscape:version="1.3 (0e150ed6c4, 2023-07-21)"
   xmlns:inkscape="http://www.inkscape.org/namespaces/inkscape"
   xmlns:sodipodi="http://sodipodi.sourceforge.net/DTD/sodipodi-0.dtd"
   xmlns="http://www.w3.org/2000/svg"
   xmlns:svg="http://www.w3.org/2000/svg"
   xmlns:rdf="http://www.w3.org/1999/02/22-rdf-syntax-ns#"
   xmlns:cc="http://creativecommons.org/ns#"
   xmlns:dc="http://purl.org/dc/elements/1.1/">
  <metadata
     id="metadata18">
    <rdf:RDF>
      <cc:Work
         rdf:about="">
        <dc:format>image/svg+xml</dc:format>
        <dc:type
           rdf:resource="http://purl.org/dc/dcmitype/StillImage" />
      </cc:Work>
    </rdf:RDF>
  </metadata>
  <defs
     id="defs16" />
  <sodipodi:namedview
     pagecolor="#201933"
     bordercolor="#000000"
     borderopacity="1"
     objecttolerance="10"
     gridtolerance="10"
     guidetolerance="10"
     inkscape:pageopacity="0"
     inkscape:pageshadow="2"
     inkscape:window-width="1920"
     inkscape:window-height="994"
     id="namedview14"
     showgrid="true"
     inkscape:zoom="13.876971"
     inkscape:cx="24.284839"
     inkscape:cy="16.538191"
     inkscape:window-x="0"
     inkscape:window-y="0"
     inkscape:window-maximized="1"
     inkscape:current-layer="svg12"
     inkscape:document-rotation="0"
     inkscape:lockguides="true"
     inkscape:pagecheckerboard="true"
     inkscape:showpageshadow="2"
     inkscape:deskcolor="#201933">
    <inkscape:grid
       type="xygrid"
       id="grid3840"
       originx="32"
       originy="10.000003"
       spacingy="1"
       spacingx="1"
       units="px"
       visible="true" />
  </sodipodi:namedview>
  <g
     id="video-display-brightness"
     transform="translate(32,10.000003)"
     style="fill:#d3dae3;fill-opacity:1">
    <rect
       style="opacity:0.00100002;fill:#d3dae3;fill-opacity:1"
       width="32"
       height="32"
       x="-32"
       y="-10.000003"
       id="rect7" />
    <path
       d="m -12.896433,2.9791297 a 0.76471095,0.76693863 0 0 1 0,-0.9052928 l 0.681223,-0.9292308 a 0.76471095,0.76693863 0 0 0 -0.699972,-1.21617 l -1.141113,0.1247795 a 0.76471095,0.76693863 0 0 1 -0.785131,-0.4560613 l -0.463249,-1.0539001 a 0.76471095,0.76693863 0 0 0 -1.399992,0 l -0.463249,1.0539001 a 0.76471095,0.76693863 0 0 1 -0.781772,0.4526493 l -1.141101,-0.1247951 a 0.76471095,0.76693863 0 0 0 -0.699983,1.2161699 l 0.681272,0.9292207 a 0.76471095,0.76693863 0 0 1 0,0.9052872 l -0.681272,0.9292086 a 0.76471095,0.76693863 0 0 0 0.699983,1.21617 l 1.141101,-0.1246301 a 0.76471095,0.76693863 0 0 1 0.781772,0.4526555 l 0.463249,1.0539 a 0.76471095,0.76693863 0 0 0 1.399992,0 l 0.463249,-1.0539 a 0.76471095,0.76693863 0 0 1 0.781723,-0.4526555 l 1.141112,0.1246301 a 0.76471095,0.76693863 0 0 0 0.699972,-1.21617 z m -3.104854,1.5253372 a 1.972239,1.9779843 0 1 1 1.96715,-1.9780018 1.972239,1.9779843 0 0 1 -1.96715,1.9780018 z m 2.127244,-5.07821234 -0.534813,-0.30916684 0.633608,-1.10341822 0.534765,0.3091591 z M -19.729472,2.1763241 V 2.7946504 L -21,2.7839733 V 2.1655024 Z m 7.449554,0.7174047 0.0094,-0.6183602 L -11,2.2966146 -11.009373,2.91495 Z m -5.27975,-3.78347815 -0.538183,0.30406743 -0.628447,-1.11028878 0.538174,-0.3040323 z m -0.599482,6.47713465 0.533059,0.3143119 -0.643785,1.0982998 -0.531355,-0.3142866 z m 3.828675,0.2886836 0.527957,-0.321121 0.659126,1.0880373 -0.528005,0.3211291 z"
       id="path4"
       style="fill:#d3dae3;fill-opacity:1;stroke-width:0.170566" />
    <path
       d="M -3.6519407,-6.0000029 H -28.348058 c -0.91077,0 -1.651942,0.6220882 -1.651942,1.5099999 v 17.643 c 0,0.946836 0.489162,1.847 1.651942,1.847 h 9.089644 c -0.283623,0.895651 -0.950823,2.014291 -2.295686,2.014291 v 0.985709 h 11.108201 v -0.985709 c -1.344863,0 -2.012063,-1.11864 -2.295686,-2.014291 H -3.752 c 1.413091,0 1.752,-0.900164 1.752,-1.847 V -4.3898714 c 0,-0.8879117 -0.7411714,-1.6101315 -1.6519407,-1.6101315 z M -2.961,13.052809 c 0.00297,0.156166 -0.1386982,0.947188 -0.791,0.947188 H -28.348058 C -29,13.999997 -29,13.209003 -29,13.052809 V 10.999997 H -3 Z M -3,9.999997 h -26 v -14.09 c 0,-0.9100001 0.591428,-0.882823 0.752,-0.883 l 24.496,-0.027 c 0.1602148,-1.766e-4 0.752,-10e-8 0.752,1.01 z"
       id="path2"
       style="fill-opacity:1;fill:#d3dae3;"
       sodipodi:nodetypes="sssssccccccsssssscsccscccsssc" />
  </g>
  <g
     id="22-22-video-display-brightness"
     transform="translate(32,10.000003)"
     style="fill:#d3dae3;fill-opacity:1">
    <g
       id="g893"
       style="fill:#d3dae3;fill-opacity:1">
      <rect
         style="opacity:0.00100002;fill:#d3dae3;fill-opacity:1"
         width="22"
         height="22"
         x="0"
         y="-1.3897704e-07"
         id="rect2" />
      <path
         d="m 12.862008,8.7661797 a 0.45881443,0.42607703 0 0 1 0,-0.5029417 l 0.408731,-0.5162333 a 0.45881443,0.42607703 0 0 0 -0.419977,-0.67565 L 12.166114,7.140644 A 0.45881443,0.42607703 0 0 1 11.695045,6.8872827 l -0.277944,-0.5855 a 0.45881443,0.42607703 0 0 0 -0.839971,0 l -0.277944,0.5855 A 0.45881443,0.42607703 0 0 1 9.830142,7.138762 l -0.6846401,-0.0693 a 0.45881443,0.42607703 0 0 0 -0.4199837,0.67565 l 0.4087469,0.516229 a 0.45881443,0.42607703 0 0 1 0,0.50294 L 8.7255182,9.2805082 A 0.45881443,0.42607703 0 0 0 9.1455019,9.9561576 L 9.830142,9.8869309 a 0.45881443,0.42607703 0 0 1 0.469044,0.2514741 l 0.277944,0.585501 a 0.45881443,0.42607703 0 0 0 0.839971,0 l 0.277944,-0.585501 A 0.45881443,0.42607703 0 0 1 12.16407,9.8869309 l 0.684647,0.069236 A 0.45881443,0.42607703 0 0 0 13.268693,9.2805098 Z M 10.99915,9.6135884 A 1.1833122,1.0988803 0 1 1 12.179405,8.514703 1.1833122,1.0988803 0 0 1 10.99915,9.6135884 Z M 12.27546,6.7923647 11.954586,6.620606 12.334732,6.007591 12.655587,6.179348 Z M 8.7623029,8.320176 V 8.663692 L 8,8.657317 V 8.3137247 Z M 13.231912,8.718733 13.237712,8.375207 14,8.3870895 13.994217,8.7306108 Z M 10.064148,6.616808 9.7412443,6.785728 9.3641828,6.168907 9.6870835,5.999997 Z m -0.3596846,3.598407 0.3198316,0.174613 -0.3862613,0.610169 -0.3188108,-0.174604 z m 2.2971416,0.160377 0.316769,-0.178401 0.395464,0.604467 -0.316789,0.178406 z"
         id="path4-5"
         style="fill:#d3dae3;fill-opacity:1;stroke-width:0.0984728" />
      <path
         d="M 18.938051,2.999997 H 3.0619676 C 2.4764676,2.999997 2,3.481711 2,4.073658 v 11.828339 c 0,0.591942 0.4764676,1.098 1.0619676,1.098 h 5.8433446 c -0.1823353,0.597101 -0.6112455,1.34286 -1.4757979,1.34286 v 0.65714 h 7.1409797 v -0.65714 c -0.864552,0 -1.293466,-0.745759 -1.475789,-1.34286 h 5.843346 C 19.52354,16.999997 20,16.493939 20,15.901997 V 4.07341 C 20,3.481479 19.52354,2.999997 18.938051,2.999997 Z M 19,15.701872 c 0,0.104129 0,0.298125 -0.262,0.298125 H 3.3 C 3,15.999997 3,15.80583 3,15.701708 v -1.701711 h 16 z m 0,-2.701875 H 3 v -8.627 c 0,-0.104115 0,-0.373 0.262,-0.373 h 15.476 c 0.262,0 0.262,0.268859 0.262,0.373 z"
         id="path2-3"
         style="fill-opacity:1;fill:#d3dae3;"
         sodipodi:nodetypes="sssssccccccssssssssccsccssssc" />
    </g>
  </g>
</svg>
