<?xml version="1.0" encoding="UTF-8" standalone="no"?>
<svg
   inkscape:version="1.3 (0e150ed6c4, 2023-07-21)"
   sodipodi:docname="view.svg"
   id="svg873"
   version="1.1"
   height="32"
   width="32"
   xmlns:inkscape="http://www.inkscape.org/namespaces/inkscape"
   xmlns:sodipodi="http://sodipodi.sourceforge.net/DTD/sodipodi-0.dtd"
   xmlns:xlink="http://www.w3.org/1999/xlink"
   xmlns="http://www.w3.org/2000/svg"
   xmlns:svg="http://www.w3.org/2000/svg"
   xmlns:rdf="http://www.w3.org/1999/02/22-rdf-syntax-ns#"
   xmlns:cc="http://creativecommons.org/ns#"
   xmlns:dc="http://purl.org/dc/elements/1.1/">
  <metadata
     id="metadata879">
    <rdf:RDF>
      <cc:Work
         rdf:about="">
        <dc:format>image/svg+xml</dc:format>
        <dc:type
           rdf:resource="http://purl.org/dc/dcmitype/StillImage" />
      </cc:Work>
    </rdf:RDF>
  </metadata>
  <defs
     id="defs877">
    <linearGradient
       id="linearGradient4"
       inkscape:collect="always">
      <stop
         style="stop-color:#bc5fd3;stop-opacity:1"
         offset="0"
         id="stop3" />
      <stop
         style="stop-color:#00ccff;stop-opacity:1;"
         offset="1"
         id="stop4" />
    </linearGradient>
    <linearGradient
       id="linearGradient1"
       inkscape:collect="always">
      <stop
         style="stop-color:#bc5fd3;stop-opacity:1"
         offset="0"
         id="stop1" />
      <stop
         style="stop-color:#ffcc00;stop-opacity:1"
         offset="1"
         id="stop2" />
    </linearGradient>
    <linearGradient
       id="_lgradient_0"
       x1="0"
       y1="0.5"
       x2="1"
       y2="0.5"
       gradientTransform="matrix(27.999994,0,0,27.999998,1.9766191,1.9139856)"
       gradientUnits="userSpaceOnUse">
      <stop
         offset="0%"
         stop-opacity="1"
         style="stop-color:rgb(105,227,255)"
         id="stop33" />
      <stop
         offset="100%"
         stop-opacity="1"
         style="stop-color:rgb(0,255,194)"
         id="stop35" />
    </linearGradient>
    <linearGradient
       inkscape:collect="always"
       xlink:href="#linearGradient1"
       id="linearGradient2"
       x1="0"
       y1="16"
       x2="32"
       y2="16"
       gradientUnits="userSpaceOnUse" />
    <linearGradient
       inkscape:collect="always"
       xlink:href="#linearGradient4"
       id="linearGradient3"
       gradientUnits="userSpaceOnUse"
       x1="3.0143237"
       y1="15.351601"
       x2="29.020657"
       y2="15.381193" />
    <linearGradient
       inkscape:collect="always"
       xlink:href="#linearGradient4"
       id="linearGradient5"
       gradientUnits="userSpaceOnUse"
       x1="0"
       y1="16"
       x2="32"
       y2="16"
       gradientTransform="matrix(0.99861908,0,0,1.0361061,0.07956102,-0.38055847)" />
    <linearGradient
       inkscape:collect="always"
       xlink:href="#linearGradient4"
       id="linearGradient16"
       x1="139.99995"
       y1="209.99937"
       x2="159.99998"
       y2="209.99937"
       gradientUnits="userSpaceOnUse"
       gradientTransform="matrix(0.7500012,0,0,0.74994121,-104.50024,-149.48723)" />
    <linearGradient
       inkscape:collect="always"
       xlink:href="#linearGradient1"
       id="linearGradient6"
       gradientUnits="userSpaceOnUse"
       x1="0"
       y1="16"
       x2="32"
       y2="16" />
    <linearGradient
       inkscape:collect="always"
       xlink:href="#linearGradient1"
       id="linearGradient7"
       gradientUnits="userSpaceOnUse"
       x1="0"
       y1="16"
       x2="32"
       y2="16" />
  </defs>
  <sodipodi:namedview
     showguides="false"
     inkscape:current-layer="svg873"
     inkscape:window-maximized="1"
     inkscape:window-y="0"
     inkscape:window-x="0"
     inkscape:cy="24.119406"
     inkscape:cx="20.166133"
     inkscape:zoom="11.256496"
     showgrid="true"
     id="namedview875"
     inkscape:window-height="994"
     inkscape:window-width="1920"
     inkscape:pageshadow="2"
     inkscape:pageopacity="0"
     guidetolerance="10"
     gridtolerance="10"
     objecttolerance="10"
     borderopacity="1"
     inkscape:document-rotation="0"
     bordercolor="#000000"
     pagecolor="#201933"
     inkscape:lockguides="false"
     inkscape:showpageshadow="2"
     inkscape:pagecheckerboard="true"
     inkscape:deskcolor="#201933">
    <inkscape:grid
       id="grid842"
       type="xygrid"
       originx="-1.6293945e-06"
       originy="0"
       spacingy="1"
       spacingx="1"
       units="px"
       visible="true" />
  </sodipodi:namedview>
  <g
     id="g841"
     transform="rotate(-90,7.013822,-29.986072)">
    <g
       transform="translate(-485.03396,-41.017475)"
       id="layer12-0">
      <path
         id="path838"
         style="fill:#eff0f1;fill-opacity:1"
         d="m 499.06185,49.01758 c 0,3.31371 -2.68629,6 -6,6 -3.28006,0 -5.94034,-2.63316 -5.99414,-5.90039 a 1,1 0 0 1 -0.006,-0.09961 1,1 0 0 1 1,-1 1,1 0 0 1 1,1 c 0,2.20914 1.79086,4 4,4 2.20914,0 4,-1.79086 4,-4 0,-2.20914 -1.79086,-4 -4,-4 v 2 l -4,-3 4,-3 v 2 c 3.31371,0 6,2.68629 6,6 z" />
    </g>
  </g>
  <g
     id="view-history"
     style="fill:url(#linearGradient2)">
    <g
       id="g848"
       style="fill:url(#linearGradient7)">
      <rect
         ry="0.91472864"
         y="0"
         x="0"
         height="32"
         width="32"
         id="rect817-5"
         style="clip-rule:evenodd;fill:url(#linearGradient6);fill-opacity:0;fill-rule:evenodd;stroke-width:1.04154;stroke-linejoin:round;stroke-miterlimit:1.41421;stroke-dasharray:none" />
      <path
         d="m 16.022565,3 c 0,0 0.298224,0.013107 0.857012,0.037314 0.139534,0.0098 0.29655,0.00475 0.466672,0.02858 0.170119,0.024883 0.356054,0.051775 0.557114,0.081032 0.200383,0.032607 0.418591,0.053463 0.646204,0.101876 0.226615,0.054468 0.467349,0.1122963 0.72152,0.1734885 1.007648,0.2656117 2.227436,0.6882364 3.480185,1.4638889 1.250057,0.7679197 2.560968,1.8458316 3.674851,3.321825 1.098758,1.4763286 2.000495,3.3443526 2.406646,5.4921026 0.05984,0.266623 0.07295,0.540975 0.111287,0.815665 l 0.04846,0.415227 0.02384,0.209131 0.0043,0.241063 c 0.0028,0.534924 0.04973,1.033529 -0.0259,1.658558 -0.0303,0.296882 -0.04168,0.611244 -0.09317,0.90308 -0.05479,0.291167 -0.109942,0.583675 -0.165081,0.877866 -0.04437,0.298894 -0.145919,0.582664 -0.227619,0.875842 l -0.131462,0.438763 c -0.04038,0.148275 -0.09251,0.292508 -0.154323,0.433053 -0.42128,1.160622 -1.059758,2.258368 -1.816918,3.29526 -0.20173,0.249137 -0.407495,0.497605 -0.617293,0.744719 -0.201396,0.255528 -0.451876,0.464649 -0.678488,0.699667 l -0.350673,0.343618 c -0.11902,0.112632 -0.251154,0.210134 -0.3769,0.316037 -0.256197,0.206106 -0.510377,0.418259 -0.780022,0.609901 -1.082286,0.767586 -2.297707,1.363364 -3.579033,1.791698 C 18.735138,28.788858 17.376148,28.958984 16.022205,29 l -0.308602,-0.01342 -0.223247,-0.01279 -0.446835,-0.02558 -0.223248,-0.01279 c -0.07199,-0.0028 -0.147935,-0.0074 -0.242412,-0.02383 L 14.043949,28.83263 13.511042,28.74895 13.245433,28.7052 12.99865,28.64236 C 12.670437,28.558908 12.345322,28.464421 12.020192,28.373983 10.739243,27.943605 9.52113,27.35254 8.4388494,26.58361 8.1685306,26.392973 7.9160316,26.177795 7.6571449,25.975392 7.5313996,25.869487 7.39893,25.771644 7.2799095,25.65901 L 6.9288981,25.315058 C 6.7019521,25.079709 6.4514703,24.870585 6.2500761,24.614726 6.0433029,24.365923 5.8368654,24.117795 5.6311008,23.870676 4.8746121,22.832101 4.2334458,21.735026 3.8125025,20.573059 3.3959297,19.415122 3.1114901,18.235339 3.0439109,17.069341 2.9706157,16.491049 3.0102892,15.913764 3.0143237,15.351601 l 0.00709,-0.251818 0.023875,-0.195349 0.047747,-0.389004 c 0.03799,-0.263593 0.048752,-0.504321 0.1085981,-0.781696 0.059513,-0.274019 0.1186846,-0.546362 0.1771864,-0.81667 0.031944,-0.133148 0.054464,-0.269991 0.094473,-0.397082 l 0.1240403,-0.377231 c 0.082708,-0.248795 0.1644107,-0.495588 0.2457747,-0.74035 0.098848,-0.23838 0.2067738,-0.470366 0.3083109,-0.701349 C 4.3349955,10.231024 4.5985892,9.808061 4.8309154,9.385432 4.9405107,9.170256 5.0854202,8.9779395 5.2192349,8.7832692 5.3527129,8.5889361 5.4845097,8.3966198 5.6152984,8.2063211 6.7301945,6.7303283 8.0421128,5.6527524 9.292838,4.8855051 c 1.253087,-0.7756523 2.473219,-1.1972684 3.480855,-1.4632162 0.254187,-0.060854 0.494917,-0.118685 0.72152,-0.1731524 0.227626,-0.048411 0.445495,-0.069256 0.645879,-0.101876 0.200722,-0.029251 0.386648,-0.056149 0.556777,-0.081032 0.17046,-0.023875 0.327812,-0.018824 0.467002,-0.02858 C 15.72434,3.0131095 16.022565,2.9999885 16.022565,3 Z m 0,0 c 0,0 -0.297894,0.017148 -0.856353,0.049092 -0.139186,0.011762 -0.296202,0.0087 -0.465991,0.03497 C 14.530433,3.111299 14.345515,3.140543 14.145457,3.172485 13.946081,3.207792 13.728888,3.23132 13.50295,3.2827637 13.279031,3.3442907 13.041324,3.4095149 12.78983,3.4784394 11.798665,3.78137 10.601734,4.2456854 9.433715,5.0990043 8.2619991,5.9301314 7.0933089,7.0998306 6.2104029,8.6040659 5.7884504,9.365597 5.3991114,10.182943 5.1479568,11.074926 c -0.061865,0.222915 -0.129444,0.445156 -0.1876092,0.671094 -0.041019,0.2303 -0.08204,0.462297 -0.1237283,0.69596 l -0.062876,0.349334 c -0.019501,0.11667 -0.019501,0.231986 -0.030255,0.347646 -0.01748,0.229633 -0.035307,0.460956 -0.053119,0.693951 -0.020178,0.229302 0.00364,0.508026 0.00333,0.762544 l 0.00805,0.39203 0.00409,0.19702 c -6.725e-4,0.04643 0.001,-0.03535 0.00237,-0.01847 l 0.00299,0.0229 0.00602,0.04578 0.012107,0.09142 c 0.070265,0.487514 0.1011989,0.980413 0.238042,1.461877 0.1899625,0.975699 0.5917418,1.911057 1.0419363,2.809424 0.1250732,0.218546 0.250818,0.438091 0.3768994,0.658652 0.1274262,0.218208 0.2915003,0.416237 0.4306942,0.627719 l 0.2165236,0.313019 0.2474558,0.291831 c 0.1687812,0.191312 0.3227683,0.394386 0.5009636,0.577287 0.7003398,0.746403 1.5186938,1.373784 2.3787408,1.928543 l 0.672766,0.373534 c 0.218213,0.135833 0.46869,0.209465 0.697658,0.32344 l 0.349663,0.160041 c 0.118008,0.04973 0.242745,0.08337 0.363446,0.126419 0.244436,0.078 0.48315,0.173825 0.7306,0.240731 0.250486,0.05778 0.501303,0.111621 0.749765,0.176179 l 0.186267,0.04705 0.175844,0.02352 0.35101,0.05114 0.350332,0.0562 c 0.0521,0.01248 0.125074,0.0161 0.202407,0.01847 l 0.223586,0.0093 0.447171,0.01951 0.223584,0.0093 0.111622,0.0047 0.05581,0.0031 0.02794,0.0016 c -0.02858,-3.37e-4 0.103571,0.0031 -0.05716,-6.72e-4 1.032187,-0.01517 2.055295,-0.153651 3.049159,-0.416574 0.247791,-0.06693 0.486504,-0.163065 0.730933,-0.241068 0.120697,-0.04305 0.245439,-0.07704 0.363451,-0.126752 l 0.349997,-0.159243 c 0.230982,-0.110278 0.480456,-0.186937 0.698995,-0.322096 l 0.673103,-0.373872 c 0.864083,-0.55106 1.678736,-1.183822 2.382773,-1.927535 0.178192,-0.183235 0.332183,-0.386311 0.500964,-0.577955 l 0.247455,-0.292172 0.216522,-0.313354 c 0.140205,-0.211148 0.304617,-0.409178 0.432041,-0.628055 0.126083,-0.220557 0.251828,-0.440445 0.376899,-0.659322 0.139528,-0.214169 0.213495,-0.455909 0.326803,-0.681513 0.100904,-0.230307 0.22392,-0.454229 0.29251,-0.69496 0.08169,-0.238042 0.162729,-0.475073 0.243423,-0.711099 0.07863,-0.236361 0.11431,-0.464316 0.175838,-0.697312 0.134823,-0.434731 0.172819,-1.006298 0.242075,-1.521048 l 0.01214,-0.09819 0.0056,-0.04911 0.0028,-0.02453 c 0.0016,-0.01752 -0.0012,0.06459 0,0.01878 l 0.0037,-0.183234 0.0087,-0.365805 c 0,-0.243085 0.02621,-0.488524 0.0056,-0.728248 C 27.284759,11.9337 26.717897,10.104338 25.838353,8.6007746 24.955175,7.0968046 23.785142,5.9274418 22.612753,5.097322 21.444396,4.2443388 20.246795,3.7806964 19.255961,3.4777649 19.004473,3.4088403 18.766764,3.343614 18.54284,3.2824218 18.316571,3.2309814 18.099713,3.2074463 17.900333,3.1724797 17.700289,3.1405381 17.515027,3.1109519 17.345577,3.0840543 17.175779,3.0578284 17.018434,3.0608561 16.879244,3.0490888 16.320448,3.017149 16.022565,3.000001 16.022565,3 Z"
         id="path2-3"
         style="fill:url(#linearGradient3);fill-opacity:1;stroke-width:0.336214" />
      <path
         d="M 23.175,10.931904 H 22.491009 V 9 H 17.703011 L 16.069003,10.22222 14.435001,9 H 9.6470019 v 1.931904 H 8.925 L 8.962999,20 H 23.175 Z m -7.865986,7.609321 -1.026013,-0.709688 h -3.23 v -7.096771 h 2.963997 l 1.292016,0.985668 z m 5.889985,-0.709688 h -3.230003 l -1.025989,0.709688 V 11.68101 l 1.291996,-0.985665 h 2.963996 z"
         id="path14"
         style="fill:url(#linearGradient5);fill-opacity:1;stroke-width:0.387073" />
    </g>
  </g>
  <g
     id="view-refresh"
     transform="translate(32.000006,16)">
    <path
       id="path836"
       style="opacity:0.00100002"
       d="M 6e-6,16 V 0 h 16 v 16 z" />
    <path
       d="m 13.250024,5.0007 2.24999,2.999777 h -1.49998 C 14.000034,11.313856 11.313725,14 8.0000594,14 6.5563574,14 5.2317634,13.490159 4.2631754,12.590377 l 0.896066,-1.151976 c 0.749827,0.673609 1.749995,1.061689 2.840811,1.061689 2.4852516,0 4.4999956,-2.014581 4.4999956,-4.499613 h -1.500044 c 0,0 2.250014,-2.999777 2.250014,-2.999777 z m -10.4107706,5.879537 -8e-6,-1.3e-5 -0.08922,0.118992 L 0.49997437,7.999523 H 1.9999574 C 1.9999574,4.686009 4.6862654,2 7.9999924,2 9.4436514,2 10.768244,2.50982 11.73685,3.409593 L 10.840781,4.561582 C 10.09093,3.887957 9.0907814,3.499904 7.9999924,3.499904 c -2.423111,0 -4.398915,1.914862 -4.500062,4.499613 h 1.500044 l -1.181881,1.575712 6e-6,6e-6 -0.978835,1.305008 z"
       id="path1-2"
       style="fill:url(#linearGradient16);fill-rule:evenodd;stroke:none;stroke-width:0.749972" />
  </g>
</svg>
