<?xml version="1.0" encoding="UTF-8" standalone="no"?>
<svg
   id="svg18"
   width="32"
   height="32"
   version="1"
   sodipodi:docname="yakuake.svg"
   inkscape:version="1.3 (0e150ed6c4, 2023-07-21)"
   xmlns:inkscape="http://www.inkscape.org/namespaces/inkscape"
   xmlns:sodipodi="http://sodipodi.sourceforge.net/DTD/sodipodi-0.dtd"
   xmlns="http://www.w3.org/2000/svg"
   xmlns:svg="http://www.w3.org/2000/svg">
  <style
     id="current-color-scheme"
     type="text/css">.ColorScheme-Text { color:#eceff4; }&#10;</style>
  <sodipodi:namedview
     id="namedview14"
     pagecolor="#201933"
     bordercolor="#000000"
     borderopacity="1"
     inkscape:pageshadow="2"
     inkscape:pageopacity="0.0"
     inkscape:pagecheckerboard="true"
     showgrid="true"
     inkscape:zoom="9.7681464"
     inkscape:cx="29.790708"
     inkscape:cy="10.544478"
     inkscape:window-width="1920"
     inkscape:window-height="993"
     inkscape:window-x="0"
     inkscape:window-y="0"
     inkscape:window-maximized="1"
     inkscape:current-layer="svg18"
     inkscape:lockguides="true"
     inkscape:showpageshadow="2"
     inkscape:deskcolor="#201933"
     labelstyle="below">
    <inkscape:grid
       type="xygrid"
       id="grid865"
       originx="0"
       originy="0"
       spacingy="1"
       spacingx="1"
       units="px"
       visible="true" />
  </sodipodi:namedview>
  <defs
     id="1987">
    <style
       id="style9"
       type="text/css" />
  </defs>
  <g
     id="yakuake">
    <rect
       id="rect11"
       width="32"
       height="32"
       opacity="0.00100002"
       x="0"
       y="0" />
    <path
       d="M 10.071005,10 9,11.125949 13.283955,15.62968 9,20.133413 l 1.071005,1.125949 5.355067,-5.629796 -5.355067,-5.629795 z m 5.355067,10.407266 v 1.592505 H 23 v -1.592505 z"
       id="path7"
       style="fill:#d3dae3;fill-opacity:1;stroke-width:1.55313"
       class="ColorScheme-Text" />
    <path
       d="m 18.37752,10.870899 0.558222,0.600995 c 0.0777,0.08367 0.115496,0.182852 0.114199,0.298439 -0.0014,0.115601 -0.04174,0.214232 -0.120926,0.295492 l -3.62171,3.717981 c -0.07958,0.0817 -0.173932,0.121421 -0.283875,0.120052 -0.109959,-0.0014 -0.203358,-0.04345 -0.281075,-0.12712 L 14.18413,15.175739 c -0.0777,-0.08367 -0.115497,-0.182851 -0.114193,-0.298436 0.0014,-0.115602 0.04174,-0.214229 0.120914,-0.295494 l 3.62129,-3.71754 c 0.07958,-0.0817 0.173931,-0.121421 0.283869,-0.120051 0.110395,0.0011 0.203791,0.04303 0.28151,0.126681 z"
       id="path6"
       style="fill:#d3dae3;fill-opacity:0.6;stroke-width:0.00613215"
       class="ColorScheme-Text" />
    <path
       d="M 24.485297,7.514746 C 22.218817,5.248193 19.2051,4 16,4 12.7949,4 9.78117,5.248193 7.5149,7.514746 5.24821,9.781298 4,12.794773 4,16 4,19.205227 5.24821,22.218695 7.5149,24.485253 9.78117,26.751662 12.7949,28 16,28 c 3.2053,0 6.218817,-1.248338 8.485297,-3.514747 2.26634,-2.266558 3.5147,-5.280026 3.5147,-8.485253 0,-3.205227 -1.24836,-6.218849 -3.5147,-8.485254 z M 23.115,23.81465 C 20.905477,25.688857 19.123498,26.574873 16,26.552 12.684023,26.52772 11.454045,25.904686 8.885,23.814 6.79759,21.726745 5.448,18.951956 5.448,16 5.448,13.047903 6.840416,9.909571 8.885,8.185 11.178791,6.169405 13.090681,5.470038 16,5.448 c 2.951865,-0.02236 4.927587,0.91947 7.115,2.737205 2.08737,2.087403 3.437,4.862698 3.437,7.814795 0,2.951956 -1.34963,5.727395 -3.437,7.81465 z"
       id="path2-36-912"
       style="fill:#d3dae3;fill-opacity:1;stroke-width:0.0374999"
       sodipodi:nodetypes="cscscscsccscscscsc" />
  </g>
  <g
     id="22-22-yakuake"
     transform="translate(32,10)">
    <rect
       id="rect2"
       width="22"
       height="22"
       opacity="0.00100002"
       x="0"
       y="0" />
    <path
       d="M 6.7650026,7 6,7.7506206 9.0599697,10.753063 6,13.755506 6.7650026,14.506128 10.590053,10.752987 6.7650026,6.999847 Z m 3.8250504,6.938071 v 1.061655 H 16 v -1.061655 z"
       id="path7-36-3"
       style="fill:#d3dae3;fill-opacity:1;stroke-width:1.07176"
       class="ColorScheme-Text " />
    <path
       d="m 12.698226,7.5805902 0.398735,0.4006569 c 0.0555,0.05578 0.08249,0.1219001 0.08156,0.198957 -9.5e-4,0.077068 -0.02982,0.1428188 -0.08637,0.196991 l -2.586937,2.4786179 c -0.05685,0.05446 -0.124235,0.08094 -0.202768,0.08003 -0.07854,-9.34e-4 -0.145255,-0.02898 -0.200766,-0.08475 L 9.7029583,10.450434 c -0.055512,-0.05578 -0.0825,-0.1219 -0.081562,-0.198955 9.509e-4,-0.07706 0.02982,-0.142817 0.086372,-0.196994 L 12.294386,7.5761702 c 0.05685,-0.054469 0.124237,-0.080949 0.202766,-0.080028 0.07886,7.33e-4 0.145562,0.02869 0.201074,0.084448 z"
       id="path6-5-7"
       style="fill:#d3dae3;fill-opacity:0.6;stroke-width:0.00423156"
       class="ColorScheme-Text " />
    <path
       d="M 16.65688,5.343156 C 15.145874,3.832116 13.13672,3 11,3 8.86328,3 6.854124,3.832116 5.34328,5.343156 3.83213,6.854195 3,8.863173 3,11 c 0,2.136827 0.83213,4.145799 2.34328,5.656849 1.510844,1.51091 3.52,2.34315 5.65672,2.34315 2.13688,0 4.145874,-0.83224 5.65688,-2.34315 1.51088,-1.51105 2.343117,-3.520022 2.343117,-5.656849 0,-2.136827 -0.832237,-4.145889 -2.343117,-5.656844 z M 15.743321,16.209769 C 14.27032,17.459239 13.08232,18.049909 11,18.034659 8.78936,18.018359 7.96936,17.603119 6.256679,16.209339 4.865047,14.817839 3.965343,12.967958 3.965343,11 3.965343,9.03192 4.893616,6.939724 6.256679,5.79 7.785848,4.446283 9.060442,3.980037 11,3.965343 12.96792,3.950353 14.285044,4.57832 15.743321,5.790148 17.134924,7.181728 18.034657,9.03192 18.034657,11 c 0,1.967958 -0.899733,3.818279 -2.291336,5.209769 z"
       id="path2-36-912-3-36-3"
       style="fill:#d3dae3;fill-opacity:1;stroke-width:0.0249998"
       sodipodi:nodetypes="cscscscsccscscscsc" />
  </g>
</svg>
