<?xml version="1.0" encoding="UTF-8" standalone="no"?>
<svg
   width="55.987476"
   height="46"
   id="svg7229"
   version="1.0"
   sodipodi:docname="zoom.svg"
   inkscape:version="1.3 (0e150ed6c4, 2023-07-21)"
   xmlns:inkscape="http://www.inkscape.org/namespaces/inkscape"
   xmlns:sodipodi="http://sodipodi.sourceforge.net/DTD/sodipodi-0.dtd"
   xmlns="http://www.w3.org/2000/svg"
   xmlns:svg="http://www.w3.org/2000/svg"
   xmlns:rdf="http://www.w3.org/1999/02/22-rdf-syntax-ns#"
   xmlns:cc="http://creativecommons.org/ns#"
   xmlns:dc="http://purl.org/dc/elements/1.1/">
  <sodipodi:namedview
     pagecolor="#201933"
     bordercolor="#000000"
     borderopacity="1"
     objecttolerance="10"
     gridtolerance="10"
     guidetolerance="10"
     inkscape:pageopacity="0"
     inkscape:pageshadow="2"
     inkscape:window-width="1920"
     inkscape:window-height="993"
     id="namedview19"
     showgrid="true"
     inkscape:zoom="4.3430225"
     inkscape:cx="43.287825"
     inkscape:cy="25.327983"
     inkscape:window-x="0"
     inkscape:window-y="0"
     inkscape:window-maximized="1"
     inkscape:current-layer="layer1"
     inkscape:lockguides="true"
     inkscape:showpageshadow="true"
     inkscape:pagecheckerboard="true"
     inkscape:deskcolor="#201933">
    <inkscape:grid
       id="grid1"
       units="px"
       originx="-24"
       originy="-25.999996"
       spacingx="1"
       spacingy="1"
       empcolor="#0099e5"
       empopacity="0.30196078"
       color="#0099e5"
       opacity="0.14901961"
       empspacing="5"
       dotted="false"
       gridanglex="30"
       gridanglez="30"
       visible="true" />
  </sodipodi:namedview>
  <defs
     id="defs7231">
    <style
       id="current-color-scheme"
       type="text/css" />
  </defs>
  <metadata
     id="metadata7234">
    <rdf:RDF>
      <cc:Work
         rdf:about="">
        <dc:format>image/svg+xml</dc:format>
        <dc:type
           rdf:resource="http://purl.org/dc/dcmitype/StillImage" />
      </cc:Work>
    </rdf:RDF>
  </metadata>
  <g
     id="layer1"
     transform="translate(-218.53572,-341.50504)">
    <g
       id="16-16-zoom-fit-width"
       transform="matrix(0.72727273,0,0,0.72727273,30.509752,97.501373)">
      <rect
         y="335.50504"
         x="258.53571"
         height="22"
         width="22"
         id="rect3791"
         style="fill:#ffffff;fill-opacity:0;stroke:none" />
      <path
         id="rect2996"
         d="m 259.91072,336.88004 v 19.25 h 1.39219 v -9.625 -9.625 z m 1.39219,9.625 2.75859,2.8875 v -1.49531 h 2.73281 v 1.39218 h 5.48282 v -1.39218 h 2.77578 v 1.49531 l 2.75859,-2.8875 -2.75859,-2.8875 v 1.53828 h -2.77578 v -1.39219 h -5.48282 v 1.39219 h -2.73281 v -1.53828 z m 16.50859,0 v 9.625 h 1.34922 v -19.25 h -1.34922 z m -9.625,-1.34922 h 2.74141 v 2.74141 h -2.74141 z"
         style="fill:#d3dae3;fill-opacity:1"
         class="ColorScheme-Text" />
    </g>
    <g
       id="zoom-fit-width"
       transform="translate(-39.999986,30)">
      <rect
         style="fill:#ffffff;fill-opacity:0;stroke:none"
         id="rect3805"
         width="22"
         height="22"
         x="258.53571"
         y="335.50504" />
      <path
         style="fill:#d3dae3;fill-opacity:1"
         d="m 45,10 v 20 h 1 V 20 10 Z m 1,10 3,3 v -2 h 4 v 1 h 4 v -1 h 4 v 2 l 3,-3 -3,-3 v 2 h -4 v -1 h -4 v 1 h -4 v -2 z m 18,0 v 10 h 1 V 10 H 64 Z M 54,19 h 2 v 2 h -2 z"
         transform="translate(214.53572,326.50504)"
         id="path3807"
         class="ColorScheme-Text" />
    </g>
    <g
       transform="matrix(0,0.72727273,-0.72727273,0,512.52687,153.47907)"
       id="16-16-zoom-fit-height">
      <rect
         style="fill:#ffffff;fill-opacity:0;stroke:none"
         id="rect3811"
         width="22"
         height="22"
         x="258.53571"
         y="335.50504" />
      <path
         class="ColorScheme-Text"
         style="fill:#d3dae3;fill-opacity:1"
         d="m 259.91072,336.88004 v 19.25 h 1.39219 v -9.625 -9.625 z m 1.39219,9.625 2.75859,2.8875 v -1.49531 h 2.73281 v 1.39218 h 5.48282 v -1.39218 h 2.77578 v 1.49531 l 2.75859,-2.8875 -2.75859,-2.8875 v 1.53828 h -2.77578 v -1.39219 h -5.48282 v 1.39219 h -2.73281 v -1.53828 z m 16.50859,0 v 9.625 h 1.34922 v -19.25 h -1.34922 z m -9.625,-1.34922 h 2.74141 v 2.74141 h -2.74141 z"
         id="path3813" />
    </g>
    <g
       transform="rotate(90,251.52945,358.49878)"
       id="g3815">
      <rect
         y="335.50504"
         x="258.53571"
         height="22"
         width="22"
         id="rect3817"
         style="fill:#ffffff;fill-opacity:0;stroke:none" />
      <path
         class="ColorScheme-Text"
         id="zoom-fit-height"
         transform="translate(214.53572,326.50504)"
         d="m 45,10 v 20 h 1 V 20 10 Z m 1,10 3,3 v -2 h 4 v 1 h 4 v -1 h 4 v 2 l 3,-3 -3,-3 v 2 h -4 v -1 h -4 v 1 h -4 v -2 z m 18,0 v 10 h 1 V 10 H 64 Z M 54,19 h 2 v 2 h -2 z"
         style="fill:#d3dae3;fill-opacity:1" />
    </g>
  </g>
</svg>
