<?xml version="1.0" encoding="UTF-8" standalone="no"?>
<svg
   width="64"
   version="1.1"
   height="64"
   id="svg17"
   sodipodi:docname="folder-network.svg"
   inkscape:version="1.3 (0e150ed6c4, 2023-07-21)"
   xmlns:inkscape="http://www.inkscape.org/namespaces/inkscape"
   xmlns:sodipodi="http://sodipodi.sourceforge.net/DTD/sodipodi-0.dtd"
   xmlns:xlink="http://www.w3.org/1999/xlink"
   xmlns="http://www.w3.org/2000/svg"
   xmlns:svg="http://www.w3.org/2000/svg"
   xmlns:rdf="http://www.w3.org/1999/02/22-rdf-syntax-ns#"
   xmlns:cc="http://creativecommons.org/ns#"
   xmlns:dc="http://purl.org/dc/elements/1.1/">
  <sodipodi:namedview
     pagecolor="#ffffff"
     bordercolor="#666666"
     borderopacity="1"
     objecttolerance="10"
     gridtolerance="10"
     guidetolerance="10"
     inkscape:pageopacity="0"
     inkscape:pageshadow="2"
     inkscape:window-width="1920"
     inkscape:window-height="993"
     id="namedview19"
     showgrid="true"
     inkscape:zoom="8"
     inkscape:cx="28.4375"
     inkscape:cy="30.75"
     inkscape:window-x="0"
     inkscape:window-y="0"
     inkscape:window-maximized="1"
     inkscape:current-layer="layer1"
     inkscape:document-rotation="0"
     inkscape:lockguides="false"
     inkscape:pagecheckerboard="0"
     inkscape:showpageshadow="2"
     inkscape:deskcolor="#d1d1d1">
    <inkscape:grid
       type="xygrid"
       id="grid896"
       originx="0"
       originy="0"
       spacingy="1"
       spacingx="1"
       units="px"
       visible="true" />
  </sodipodi:namedview>
  <defs
     id="defs5455">
    <linearGradient
       inkscape:collect="always"
       xlink:href="#linearGradient3"
       id="linearGradient1493"
       gradientUnits="userSpaceOnUse"
       x1="30.564449"
       y1="1017.235"
       x2="8.6650352"
       y2="1002.36"
       gradientTransform="matrix(0.98463176,0,0,1.0000147,0.03074227,-0.01475258)" />
    <linearGradient
       inkscape:collect="always"
       xlink:href="#linearGradient3"
       id="linearGradient2"
       x1="2.0000021"
       y1="1025.9854"
       x2="62.001003"
       y2="1025.9854"
       gradientUnits="userSpaceOnUse" />
    <linearGradient
       inkscape:collect="always"
       id="linearGradient3">
      <stop
         style="stop-color:#2a7fff;stop-opacity:1"
         offset="0"
         id="stop1" />
      <stop
         style="stop-color:#80b3ff;stop-opacity:1"
         offset="1"
         id="stop2" />
    </linearGradient>
  </defs>
  <metadata
     id="metadata5458">
    <rdf:RDF>
      <cc:Work
         rdf:about="">
        <dc:format>image/svg+xml</dc:format>
        <dc:type
           rdf:resource="http://purl.org/dc/dcmitype/StillImage" />
      </cc:Work>
    </rdf:RDF>
  </metadata>
  <g
     inkscape:label="Capa 1"
     inkscape:groupmode="layer"
     id="layer1"
     transform="translate(-384.57143,-483.798)">
    <g
       transform="matrix(1.0666489,0,0,1.1428404,382.43813,-653.73954)"
       id="g19">
      <rect
         width="60.000999"
         height="22.750345"
         x="2.0000021"
         y="1002.36"
         rx="7.5001268"
         ry="7.0001144"
         style="opacity:1;fill:url(#linearGradient1493);fill-opacity:1;stroke:none;stroke-width:0.992297"
         id="rect11" />
      <path
         d="m 9.5001275,1002.36 c -4.6875786,0 -7.5001312,3.7112 -7.5001254,6.7376 l 5e-7,0.2623 c -5e-7,-2.6248 2.9090002,-5 6.5220005,-5 H 55.479001 c 3.613001,0 6.522002,2.3813 6.522,5 v -0.2623 c 0,-2.9902 -2.812546,-6.7376 -7.500121,-6.7376 z"
         style="opacity:0.2;fill:#ffffff;fill-opacity:1;stroke:none;stroke-width:1"
         id="path13"
         sodipodi:nodetypes="sscsscsss" />
      <path
         d="M 8.5221093,1013.3214 H 18.957282 c 14.348239,-1.3346 11.861149,-6.5863 20.992301,-6.5863 h 15.361992 c 3.613049,0 6.689428,1.4161 6.689428,5.1146 v 26.3858 c 0,3.5001 -2.812548,6.1252 -6.562611,6.1252 H 8.5626114 c -3.7500625,0 -6.5626089,-2.6251 -6.5626093,-6.1252 l -1.8e-6,-19.2404 c -4e-7,-4.0049 2.609044,-5.6737 6.522109,-5.6737 z"
         style="opacity:1;fill:url(#linearGradient2);fill-opacity:1;stroke:none;stroke-width:1.00063"
         id="path15"
         sodipodi:nodetypes="scsssssssss" />
    </g>
    <path
       d="m 438.69339,517.87354 -0.53085,0.54415 c -0.87843,0.90121 -2.30357,0.90121 -3.18276,0 l -0.53012,-0.54415 c -3.80923,-3.90463 -9.9852,-3.90463 -13.79449,0 -0.58541,0.60118 -0.58541,1.57528 0,2.17534 l 0.53082,0.54412 c 0.29306,0.30003 0.76785,0.30003 1.06098,0 0.0479,-0.0485 0.36818,-0.37775 0.53039,-0.54412 2.6373,-2.70301 6.91311,-2.70301 9.55003,0 1.17229,1.20165 1.17229,2.76459 0,3.96583 l -0.53081,0.54413 c -0.87593,0.89786 -2.29483,0.89972 -3.17329,0.01 h -0.017 c -0.25314,-0.23657 -0.59822,-0.38534 -1.03001,-0.38534 -0.82903,0 -1.50051,0.68949 -1.50051,1.5385 0,0.10515 0.0104,0.20804 0.03,0.30751 0.004,0.0117 0.009,0.0232 0.0104,0.0351 0.0134,0.0596 0.0331,0.1175 0.0529,0.17456 0.0732,0.18029 0.17984,0.34997 0.32315,0.49683 0.034,0.0348 0.0506,0.0791 0.0769,0.11908 0.26669,0.24972 0.61838,0.40558 1.00735,0.40558 0.41496,0 0.75085,0.34396 0.75085,0.76902 0,0.42398 -0.33589,0.76831 -0.75085,0.76831 -1.45363,0 -2.66621,-1.06042 -2.94167,-2.46636 -0.2213,-0.99695 0.0386,-2.08257 0.7964,-2.85913 1.17151,-1.20059 3.07195,-1.20059 4.24391,0 0.29306,0.30118 0.76786,0.30118 1.06168,0 l 0.52974,-0.54304 c 0.58648,-0.60119 0.58648,-1.19003 0,-1.79122 -2.05045,-2.10215 -5.37595,-2.10215 -7.42744,0 l -0.53009,0.5437 c -0.87929,0.90166 -2.30435,0.90166 -3.18283,0 l -0.5308,-0.54369 c -1.09912,-1.12577 -1.16722,-2.90801 -0.20622,-4.11678 0.0708,-0.0762 0.13293,-0.15809 0.20622,-0.23326 4.39462,-4.50502 11.52091,-4.50502 15.91555,0 0.0732,0.075 0.46013,0.4672 0.53083,0.54412 0.29307,0.30004 0.76789,0.30004 1.06095,0 l 0.53084,-0.54412 c 0.58539,-0.60115 0.58539,-1.57522 0,-2.17532 -5.29804,-5.43071 -13.72926,-5.68941 -19.32881,-0.7822 l -0.01,-0.01 c -0.13223,0.12053 -0.30552,0.19635 -0.49744,0.19635 -0.41361,0 -0.75027,-0.34395 -0.75027,-0.769 0,-0.28245 0.15055,-0.52611 0.37071,-0.65981 6.19007,-5.34584 15.44556,-5.0394 21.27442,0.93613 1.17237,1.20093 1.17237,3.14871 0,4.35001 z m -22.37175,-1.38157 c -0.41466,0 -0.75021,-0.34429 -0.75021,-0.7694 0,-0.42469 0.33555,-0.76904 0.75021,-0.76904 0.41481,0 0.75036,0.34435 0.75036,0.76904 0,0.42511 -0.33555,0.7694 -0.75036,0.7694 z"
       id="path2"
       style="fill:#d5e5ff;fill-opacity:1;stroke-width:0.0474754" />
  </g>
</svg>
