<?xml version="1.0" encoding="UTF-8" standalone="no"?>
<svg
   width="64"
   version="1.1"
   height="64"
   id="svg15"
   sodipodi:docname="folder-comic.svg"
   inkscape:version="1.3 (0e150ed6c4, 2023-07-21)"
   xmlns:inkscape="http://www.inkscape.org/namespaces/inkscape"
   xmlns:sodipodi="http://sodipodi.sourceforge.net/DTD/sodipodi-0.dtd"
   xmlns:xlink="http://www.w3.org/1999/xlink"
   xmlns="http://www.w3.org/2000/svg"
   xmlns:svg="http://www.w3.org/2000/svg"
   xmlns:rdf="http://www.w3.org/1999/02/22-rdf-syntax-ns#"
   xmlns:cc="http://creativecommons.org/ns#"
   xmlns:dc="http://purl.org/dc/elements/1.1/">
  <sodipodi:namedview
     pagecolor="#ffffff"
     bordercolor="#666666"
     borderopacity="1"
     objecttolerance="10"
     gridtolerance="10"
     guidetolerance="10"
     inkscape:pageopacity="0"
     inkscape:pageshadow="2"
     inkscape:window-width="1920"
     inkscape:window-height="993"
     id="namedview17"
     showgrid="true"
     inkscape:zoom="6.9384852"
     inkscape:cx="31.058652"
     inkscape:cy="43.237103"
     inkscape:window-x="0"
     inkscape:window-y="0"
     inkscape:window-maximized="1"
     inkscape:current-layer="layer1"
     inkscape:pagecheckerboard="0"
     inkscape:showpageshadow="2"
     inkscape:deskcolor="#d1d1d1">
    <inkscape:grid
       type="xygrid"
       id="grid840"
       originx="0"
       originy="0"
       spacingy="1"
       spacingx="1"
       units="px"
       visible="true" />
  </sodipodi:namedview>
  <defs
     id="defs5455">
    <linearGradient
       id="linearGradient4194">
      <stop
         style="stop-color:#b5006a"
         id="stop4196" />
      <stop
         offset="1"
         style="stop-color:#c70073"
         id="stop4198" />
    </linearGradient>
    <linearGradient
       inkscape:collect="always"
       xlink:href="#linearGradient3"
       id="linearGradient1493"
       gradientUnits="userSpaceOnUse"
       x1="30.564449"
       y1="1017.235"
       x2="8.6650352"
       y2="1002.36"
       gradientTransform="matrix(0.98463176,0,0,1.0000147,0.03074227,-0.01475258)" />
    <linearGradient
       inkscape:collect="always"
       xlink:href="#linearGradient3"
       id="linearGradient2"
       x1="2.0000021"
       y1="1025.9854"
       x2="62.001003"
       y2="1025.9854"
       gradientUnits="userSpaceOnUse" />
    <linearGradient
       inkscape:collect="always"
       id="linearGradient3">
      <stop
         style="stop-color:#008080;stop-opacity:1"
         offset="0"
         id="stop1" />
      <stop
         style="stop-color:#00cdcd;stop-opacity:1;"
         offset="1"
         id="stop2" />
    </linearGradient>
  </defs>
  <metadata
     id="metadata5458">
    <rdf:RDF>
      <cc:Work
         rdf:about="">
        <dc:format>image/svg+xml</dc:format>
        <dc:type
           rdf:resource="http://purl.org/dc/dcmitype/StillImage" />
      </cc:Work>
    </rdf:RDF>
  </metadata>
  <g
     inkscape:label="Capa 1"
     inkscape:groupmode="layer"
     id="layer1"
     transform="translate(-384.57143,-483.798)">
    <g
       transform="matrix(1.0666489,0,0,1.1428404,382.43813,-653.73949)"
       id="g19">
      <rect
         width="60.000999"
         height="22.750345"
         x="2.0000021"
         y="1002.36"
         rx="7.5001268"
         ry="7.0001144"
         style="opacity:1;fill:url(#linearGradient1493);fill-opacity:1;stroke:none;stroke-width:0.992297"
         id="rect11" />
      <path
         d="m 9.5001275,1002.36 c -4.6875786,0 -7.5001312,3.7112 -7.5001254,6.7376 l 5e-7,0.2623 c -5e-7,-2.6248 2.9090002,-5 6.5220005,-5 H 55.479001 c 3.613001,0 6.522002,2.3813 6.522,5 v -0.2623 c 0,-2.9902 -2.812546,-6.7376 -7.500121,-6.7376 z"
         style="opacity:0.2;fill:#ffffff;fill-opacity:1;stroke:none;stroke-width:1"
         id="path13"
         sodipodi:nodetypes="sscsscsss" />
      <path
         d="M 8.5221093,1013.3214 H 18.957282 c 14.348239,-1.3346 11.861149,-6.5863 20.992301,-6.5863 h 15.361992 c 3.613049,0 6.689428,1.4161 6.689428,5.1146 v 26.3858 c 0,3.5001 -2.812548,6.1252 -6.562611,6.1252 H 8.5626114 c -3.7500625,0 -6.5626089,-2.6251 -6.5626093,-6.1252 l -1.8e-6,-19.2404 c -4e-7,-4.0049 2.609044,-5.6737 6.522109,-5.6737 z"
         style="opacity:1;fill:url(#linearGradient2);fill-opacity:1;stroke:none;stroke-width:1.00063"
         id="path15"
         sodipodi:nodetypes="scsssssssss" />
    </g>
    <path
       fill-rule="evenodd"
       clip-rule="evenodd"
       d="m 437.46247,520.22761 c -0.3883,0 -0.70351,0.31982 -0.70351,0.71359 v 0.3575 c 0,0.98635 -0.78724,1.78569 -1.75748,1.78569 -0.38414,0 -0.73918,-0.12482 -1.02825,-0.33726 -7.2e-4,0 0,0 -7.2e-4,0 l -1.67264,-1.27406 c -0.0195,-0.0153 -0.0349,-0.0276 -0.0547,-0.043 -0.67564,-0.52106 -1.11136,-1.34631 -1.11136,-2.27504 v -1.42789 c 0,-0.98629 -0.78687,-1.78641 -1.75787,-1.78641 h -9.14034 c -0.97096,0 -1.75855,0.80012 -1.75855,1.78641 v 5.00007 c 0,0.78197 0.49819,1.43874 1.18796,1.68112 0.0282,0.066 0.0956,0.10468 0.21855,0.10468 0.52061,0 1.40656,0.79901 1.40656,1.78538 v 0.71462 c 0,0.19667 0.15727,0.35675 0.35122,0.35675 0.0745,0 0.14317,-0.0239 0.20049,-0.0642 8.3e-4,0 0,7.7e-4 0,7.7e-4 l 2.95692,-2.2528 c 0.44152,-0.33969 0.99183,-0.54093 1.58925,-0.54093 h 2.63644 c 0.38826,0 0.7031,0.31951 0.7031,0.71434 0,0.3937 -0.31484,0.71353 -0.7031,0.71353 h -2.46115 c -0.40199,0 -0.77334,0.13705 -1.06875,0.36905 l -2.824,2.15149 h -7.4e-4 c -0.28945,0.21206 -0.64443,0.33699 -1.02841,0.33699 -0.97092,0 -1.75777,-0.79902 -1.75777,-1.78536 v -0.35786 c 0,-0.39381 -0.31471,-0.71431 -0.70315,-0.71431 -0.0774,0 -0.094,-0.0461 -0.0738,-0.1137 -1.17465,-0.34243 -2.03524,-1.43937 -2.03524,-2.74313 v -5.71431 c 0,-1.57827 1.25887,-2.85683 2.81224,-2.85683 h 9.84392 c 1.5533,0 2.81294,1.27861 2.81294,2.85683 v 1.78541 c 0,0.46833 0.22141,0.88417 0.56371,1.14466 l 1.69637,1.29254 c 8.3e-4,0 -6.8e-4,-7.1e-4 0,-7.1e-4 0.0566,0.0401 0.12638,0.0637 0.20084,0.0637 0.19397,0 0.35123,-0.1598 0.35123,-0.35681 v -0.71435 c 0,-0.9863 0.88573,-1.78567 1.4063,-1.78567 0.67812,0 1.40591,-0.79904 1.40591,-1.78539 v -5.00003 c 0,-0.98673 -0.78657,-1.78567 -1.75753,-1.78567 h -9.14084 c -0.97101,0 -1.75775,0.79894 -1.75775,1.78567 v 0.35681 c 0,0.3944 -0.31465,0.71422 -0.70327,0.71422 -0.38847,0 -0.7032,-0.31982 -0.7032,-0.71422 v -0.71465 c 0,-1.57783 1.25958,-2.85684 2.81297,-2.85684 h 9.84366 c 1.55359,0 2.8125,1.27901 2.8125,2.85684 v 5.71468 c 0,1.57784 -1.11264,2.85756 -2.10901,2.85756 z m -5.62543,2.85678 c 0.38796,0 0.70349,0.31983 0.70349,0.71433 0,0.39484 -0.31553,0.71468 -0.70349,0.71468 -0.38829,0 -0.70314,-0.31984 -0.70314,-0.71468 0,-0.3945 0.31485,-0.71433 0.70314,-0.71433 z"
       id="path1947"
       style="fill:#ebffff;fill-opacity:1;stroke-width:0.0442931" />
  </g>
</svg>
