<?xml version="1.0" encoding="UTF-8" standalone="no"?>
<svg
   width="64"
   version="1.1"
   height="64"
   id="svg15"
   sodipodi:docname="folder-sign.svg"
   inkscape:version="1.3 (0e150ed6c4, 2023-07-21)"
   xmlns:inkscape="http://www.inkscape.org/namespaces/inkscape"
   xmlns:sodipodi="http://sodipodi.sourceforge.net/DTD/sodipodi-0.dtd"
   xmlns:xlink="http://www.w3.org/1999/xlink"
   xmlns="http://www.w3.org/2000/svg"
   xmlns:svg="http://www.w3.org/2000/svg"
   xmlns:rdf="http://www.w3.org/1999/02/22-rdf-syntax-ns#"
   xmlns:cc="http://creativecommons.org/ns#"
   xmlns:dc="http://purl.org/dc/elements/1.1/">
  <sodipodi:namedview
     pagecolor="#ffffff"
     bordercolor="#666666"
     borderopacity="1"
     objecttolerance="10"
     gridtolerance="10"
     guidetolerance="10"
     inkscape:pageopacity="0"
     inkscape:pageshadow="2"
     inkscape:window-width="1920"
     inkscape:window-height="993"
     id="namedview17"
     showgrid="true"
     inkscape:zoom="9.8125"
     inkscape:cx="20.585987"
     inkscape:cy="36.484076"
     inkscape:window-x="0"
     inkscape:window-y="0"
     inkscape:window-maximized="1"
     inkscape:current-layer="layer1"
     inkscape:document-rotation="0"
     inkscape:pagecheckerboard="0"
     inkscape:lockguides="true"
     inkscape:showpageshadow="2"
     inkscape:deskcolor="#d1d1d1">
    <inkscape:grid
       type="xygrid"
       id="grid850"
       originx="0"
       originy="0"
       spacingy="1"
       spacingx="1"
       units="px"
       visible="true" />
  </sodipodi:namedview>
  <defs
     id="defs5455">
    <linearGradient
       inkscape:collect="always"
       xlink:href="#linearGradient17"
       id="linearGradient1493-2"
       gradientUnits="userSpaceOnUse"
       x1="30.564449"
       y1="1017.235"
       x2="8.6650352"
       y2="1002.36"
       gradientTransform="matrix(1.0502564,0,0,1.1428572,382.47065,-653.75632)" />
    <linearGradient
       inkscape:collect="always"
       id="linearGradient17">
      <stop
         style="stop-color:#ab37c8;stop-opacity:1"
         offset="0"
         id="stop16" />
      <stop
         style="stop-color:#cd87de;stop-opacity:1"
         offset="1"
         id="stop17" />
    </linearGradient>
    <linearGradient
       inkscape:collect="always"
       xlink:href="#linearGradient17"
       id="linearGradient2"
       x1="2.0000021"
       y1="1025.9854"
       x2="62.001003"
       y2="1025.9854"
       gradientUnits="userSpaceOnUse"
       gradientTransform="matrix(1.0666489,0,0,1.1428404,382.43786,-653.73946)" />
  </defs>
  <metadata
     id="metadata5458">
    <rdf:RDF>
      <cc:Work
         rdf:about="">
        <dc:format>image/svg+xml</dc:format>
        <dc:type
           rdf:resource="http://purl.org/dc/dcmitype/StillImage" />
      </cc:Work>
    </rdf:RDF>
  </metadata>
  <g
     inkscape:label="Capa 1"
     inkscape:groupmode="layer"
     id="layer1"
     transform="translate(-384.57143,-483.798)">
    <rect
       width="64"
       height="26.000013"
       x="384.57117"
       y="491.798"
       rx="8.0000019"
       ry="8.0000134"
       style="fill:url(#linearGradient1493-2);fill-opacity:1;stroke:none;stroke-width:1.09558"
       id="rect11-8" />
    <path
       d="m 392.57116,491.79804 c -5,0 -8.00001,4.24131 -8,7.7 v 0.29977 c 0,-2.99973 3.10288,-5.7142 6.95669,-5.7142 h 50.08663 c 3.8538,0 6.95668,2.72145 6.95668,5.7142 v -0.29977 c 0,-3.41732 -3,-7.7 -8,-7.7 z"
       style="opacity:0.2;fill:#ffffff;fill-opacity:1;stroke:none;stroke-width:1.10409"
       id="path13-9"
       sodipodi:nodetypes="sscsscsss" />
    <path
       d="m 391.52796,504.32517 h 11.13066 c 15.30454,-1.52523 12.65169,-7.52709 22.39142,-7.52709 h 16.38585 c 3.85386,0 7.13527,1.61838 7.13527,5.84518 v 30.15475 c 0,4.00006 -3,7.00013 -7,7.00013 h -50 c -4,0 -7,-3.00007 -7,-7.00013 v -21.9887 c 0,-4.57696 2.78293,-6.48414 6.9568,-6.48414 z"
       style="fill:url(#linearGradient2);fill-opacity:1;stroke:none;stroke-width:1.10478"
       id="path15-7"
       sodipodi:nodetypes="scsssssssss" />
    <path
       d="m 426.08691,521.9543 c 0.0853,0.062 0.18472,0.0909 0.28324,0.0909 0.14653,0 0.2906,-0.0647 0.38409,-0.18941 0.84845,-1.12264 1.80388,-2.1789 2.83988,-3.13989 0.19104,-0.17736 0.19917,-0.47259 0.0191,-0.65979 -0.18151,-0.18686 -0.48329,-0.19466 -0.67467,-0.0184 -1.07622,0.99829 -2.06887,2.09604 -2.95052,3.26243 -0.15689,0.20738 -0.11159,0.49951 0.10052,0.65283 z"
       id="path79-2"
       style="fill:#eed7f4;fill-opacity:1;stroke-width:0.0421313" />
    <path
       d="m 430.23657,517.99004 c 0.10888,0 0.21962,-0.0377 0.30964,-0.11147 0.3242,-0.27081 0.66129,-0.53753 1.00158,-0.79255 l 2.50432,-1.87746 c 0.20903,-0.15674 0.24863,-0.44988 0.0874,-0.65426 -0.16003,-0.2044 -0.45984,-0.24283 -0.66894,-0.0857 l -2.50438,1.87739 c -0.35363,0.26531 -0.70377,0.54236 -1.04062,0.82376 -0.20038,0.16724 -0.224,0.46203 -0.0521,0.65799 0.0933,0.10737 0.22799,0.16353 0.36279,0.16353 z"
       id="path81-8"
       style="fill:#eed7f4;fill-opacity:1;stroke-width:0.0421313" />
    <path
       d="m 420.04309,528.76588 h 1.7783 7.6e-4 9.6e-4 2.55429 c 0.26338,0 0.47711,-0.20918 0.47711,-0.46664 0,-0.25762 -0.21389,-0.46652 -0.47711,-0.46652 h -1.68919 l 0.8651,-1.34062 c 0.0788,-0.0485 0.16343,-0.10779 0.27076,-0.18611 0.49807,-0.36054 1.53472,-1.11116 3.01425,-1.77351 1.31226,-0.63245 4.20534,-1.67791 4.23447,-1.68847 0.1574,-0.0573 0.27293,-0.19064 0.30373,-0.35206 0.0298,-0.16142 -0.0269,-0.32676 -0.15313,-0.43567 l -0.18688,-0.16128 c 2.07646,-0.098 2.27617,-0.21234 2.37337,-0.26834 0.47961,-0.28531 0.8732,-0.53204 1.23852,-0.77665 1.61724,-1.08255 2.86941,-2.50891 3.72164,-4.23882 0.009,-0.0274 0.0236,-0.057 0.0335,-0.0867 0.003,-0.0157 0.003,-0.0293 0.005,-0.0446 9.8e-4,-0.009 0.004,-0.0265 0.004,-0.0415 0,-9.8e-4 -2.4e-4,-9.8e-4 0,-9.8e-4 9.8e-4,-0.0228 -5.5e-4,-0.0462 -0.002,-0.07 -7e-4,-0.005 0,-0.0161 -9.9e-4,-0.022 -0.002,-0.0196 -0.006,-0.0377 -0.009,-0.056 -0.005,-0.0274 -0.0191,-0.0554 -0.0298,-0.0808 -0.004,-0.007 -0.006,-0.0224 -0.0163,-0.0347 -0.004,-0.007 -0.009,-0.0189 -0.0204,-0.0269 -0.017,-0.0225 -0.0356,-0.0441 -0.0564,-0.0645 -0.0156,-0.0155 -0.0286,-0.0285 -0.045,-0.0419 -0.003,-0.002 -0.007,-0.005 -0.017,-0.007 -0.021,-0.009 -0.0422,-0.0276 -0.0647,-0.04 -6.3e-4,-1.6e-4 -9.8e-4,-9.6e-4 -9.8e-4,-9.9e-4 -0.005,-0.002 -0.0179,-0.004 -0.024,-0.006 -0.0204,-0.005 -0.0409,-0.0172 -0.0623,-0.0216 -0.0191,-0.003 -0.0364,-0.005 -0.0551,-0.006 -0.008,-9.8e-4 -0.0229,-0.004 -0.0367,-0.004 l -0.44848,-0.0273 1.30218,-0.73867 c 0.007,-0.004 0.02,-0.009 0.0286,-0.0209 0.005,-0.004 0.0175,-0.007 0.0235,-0.0181 0.0362,-0.0271 0.066,-0.0583 0.0923,-0.0913 0.002,-0.003 0.004,-0.006 0.006,-0.009 0.0241,-0.0374 0.0442,-0.0768 0.0591,-0.11815 9.9e-4,-0.002 0.002,-0.004 0.003,-0.007 10e-4,-0.002 10e-4,-0.005 0.002,-0.008 1.4e-4,-4.6e-4 1.4e-4,-9.7e-4 5.3e-4,-10e-4 0.1618,-0.53767 0.28442,-1.08862 0.36258,-1.62779 0.36418,-2.17445 0.04,-4.21634 -0.067,-4.8871 -0.006,-0.0552 -0.0167,-0.098 -0.0204,-0.12768 0,-0.002 1.8e-4,-0.005 1.8e-4,-0.008 0,-0.0189 -0.002,-0.0354 -0.004,-0.0532 -7.4e-4,-0.005 -9.8e-4,-0.009 -9.8e-4,-0.0199 -0.002,-0.0228 -0.006,-0.046 -0.0181,-0.0688 -9.9e-4,-0.004 -0.002,-0.008 -0.004,-0.0192 -0.005,-0.0211 -0.0187,-0.0415 -0.028,-0.0616 -0.003,-0.005 -0.005,-0.0155 -0.008,-0.0216 -0.007,-0.0178 -0.0221,-0.0337 -0.0362,-0.0481 -0.005,-0.006 -0.009,-0.0186 -0.0215,-0.025 -0.008,-0.009 -0.0252,-0.0242 -0.0412,-0.0372 -0.006,-0.005 -0.02,-0.0176 -0.029,-0.0231 -0.0158,-0.007 -0.0304,-0.0203 -0.0468,-0.0281 -0.005,-0.004 -0.0161,-0.007 -0.0232,-0.0162 -0.003,-0.002 -0.005,-0.002 -0.008,-0.003 -0.006,-0.002 -0.0195,-0.005 -0.0272,-0.007 -0.23332,-0.0931 -0.40211,10e-4 -0.853,0.26299 -0.49806,0.28821 -1.42524,0.82491 -2.78075,1.42953 -0.51957,0.25136 -1.29199,0.56332 -2.10921,0.89327 -0.99111,0.4002 -2.01608,0.81361 -2.86573,1.22424 -0.13241,0.0634 -0.37622,0.1801 -0.89847,1.56261 l -0.0417,-0.18075 c -0.0346,-0.14722 -0.13722,-0.26948 -0.27967,-0.32876 -0.14218,-0.0594 -0.30417,-0.0461 -0.43586,0.0333 -0.0368,0.0216 -0.89804,0.53917 -1.33435,0.83135 -1.13583,0.75982 -2.1018,1.70199 -2.86914,2.79842 -0.0718,0.10314 -0.22305,0.31571 -0.14443,2.07014 l -0.14503,-0.18347 c -0.10739,-0.13627 -0.28287,-0.20465 -0.45625,-0.17556 -0.17375,0.0277 -0.31711,0.14769 -0.3736,0.31084 -0.0248,0.0761 -0.63823,1.85011 -0.77273,2.76645 -0.3611,2.15779 -0.0414,4.19921 0.0645,4.87043 0.002,0.0178 0.003,0.0288 0.005,0.0437 l -1.16426,1.80311 h -1.51661 c -0.26326,0 -0.47706,0.20902 -0.47706,0.46659 0,0.25738 0.2138,0.46654 0.47706,0.46654 z m 3.5518,-7.50944 c 0.0665,-0.46107 0.28006,-1.19619 0.45897,-1.76904 l 0.54196,0.68774 c 0.12872,0.16374 0.35215,0.22493 0.5493,0.1507 0.19706,-0.0752 0.32088,-0.26624 0.30437,-0.47177 -0.0993,-1.22679 -0.15799,-2.70651 -0.0879,-3.04309 0.69658,-0.98345 1.56812,-1.82877 2.59104,-2.51298 0.18936,-0.12652 0.47213,-0.3038 0.72517,-0.45956 l 0.26907,1.18598 c 0.0457,0.20667 0.23046,0.35669 0.44715,0.36517 0.21638,0.006 0.41155,-0.12681 0.4749,-0.32973 0.33776,-1.07787 0.81444,-2.36002 1.01538,-2.64026 0.81118,-0.38827 1.79553,-0.78556 2.74846,-1.17026 0.83301,-0.33631 1.61988,-0.65396 2.15493,-0.91323 1.2435,-0.55457 2.1371,-1.05458 2.67958,-1.36677 0.12159,0.86809 0.28071,2.47315 -2.9e-4,4.15232 -0.0649,0.44887 -0.16339,0.89919 -0.28867,1.34187 l -2.49637,1.41625 c -0.0797,0.0441 -0.13859,0.10883 -0.1792,0.18275 -0.002,0.003 -0.004,0.006 -0.006,0.009 -0.006,0.0198 -0.0168,0.0402 -0.0225,0.0602 -0.002,0.006 -0.005,0.0183 -0.007,0.0259 -0.005,0.0287 -0.009,0.0609 -0.0161,0.0904 0,1.3e-4 -1.9e-4,5.9e-4 -1.9e-4,9.6e-4 -4.7e-4,0.005 9.4e-4,0.008 5.7e-4,0.0195 -3.8e-4,0.0232 -3.8e-4,0.0477 0.002,0.0726 9.9e-4,0.0151 0.004,0.0284 0.007,0.043 0.002,0.016 0.004,0.0294 0.007,0.0442 0.005,0.0224 0.0199,0.0437 0.0307,0.065 0.002,0.004 0.003,0.008 0.005,0.018 1.5e-4,1.7e-4 1.5e-4,5.4e-4 4.6e-4,6.8e-4 0.02,0.0331 0.0432,0.0618 0.0696,0.0869 0.005,0.005 0.0168,0.0158 0.0236,0.022 0.021,0.0192 0.0429,0.0351 0.0658,0.0485 0.006,0.004 0.0174,0.007 0.0242,0.016 0.0326,0.018 0.0657,0.0312 0.1039,0.0412 0.002,10e-4 0.005,10e-4 0.007,0.002 0.0256,0.004 0.0532,0.008 0.0827,0.009 l 1.28476,0.0792 c -0.75882,1.30362 -1.78704,2.39597 -3.06596,3.25222 -0.34221,0.22914 -0.71198,0.46123 -1.15542,0.72587 -0.31075,0.0717 -1.84817,0.16094 -3.14077,0.20322 -0.19538,0.005 -0.36702,0.12836 -0.43305,0.30876 -0.0654,0.17984 -0.009,0.38098 0.13269,0.50779 l 0.48331,0.41747 c -0.96575,0.35951 -2.63165,0.99587 -3.5679,1.44746 -0.54956,0.24593 -1.03733,0.5027 -1.4664,0.74962 l 0.74892,-1.08796 c 0.11649,-0.18178 0.23601,-0.36213 0.3578,-0.54033 0.14653,-0.21433 0.0865,-0.50425 -0.13158,-0.64725 -0.2192,-0.14323 -0.51561,-0.0846 -0.66184,0.12874 -0.12691,0.18551 -0.25034,0.37287 -0.36366,0.54931 l -1.38333,2.01137 c -0.0952,-0.91207 -0.16039,-2.23371 0.0665,-3.5977 z"
       id="path83-9"
       style="fill:#eed7f4;fill-opacity:1;stroke-width:0.0421313" />
    <path
       d="m 425.76909,527.83262 c -0.26344,0 -0.47708,0.20909 -0.47708,0.46657 0,0.2576 0.21379,0.46661 0.47708,0.46661 h 3.90581 c 0.2634,0 0.47707,-0.20916 0.47707,-0.46661 0,-0.25764 -0.21382,-0.46657 -0.47707,-0.46657 z"
       id="path85-7"
       style="fill:#eed7f4;fill-opacity:1;stroke-width:0.0421313" />
  </g>
</svg>
