<?xml version="1.0" encoding="UTF-8" standalone="no"?>
<svg
   width="64"
   version="1.1"
   height="64"
   id="svg15"
   sodipodi:docname="folder-android.svg"
   inkscape:version="1.3 (0e150ed6c4, 2023-07-21)"
   xmlns:inkscape="http://www.inkscape.org/namespaces/inkscape"
   xmlns:sodipodi="http://sodipodi.sourceforge.net/DTD/sodipodi-0.dtd"
   xmlns:xlink="http://www.w3.org/1999/xlink"
   xmlns="http://www.w3.org/2000/svg"
   xmlns:svg="http://www.w3.org/2000/svg"
   xmlns:rdf="http://www.w3.org/1999/02/22-rdf-syntax-ns#"
   xmlns:cc="http://creativecommons.org/ns#"
   xmlns:dc="http://purl.org/dc/elements/1.1/">
  <sodipodi:namedview
     pagecolor="#ffffff"
     bordercolor="#666666"
     borderopacity="1"
     objecttolerance="10"
     gridtolerance="10"
     guidetolerance="10"
     inkscape:pageopacity="0"
     inkscape:pageshadow="2"
     inkscape:window-width="1920"
     inkscape:window-height="993"
     id="namedview17"
     showgrid="true"
     inkscape:zoom="4.90625"
     inkscape:cx="33.732484"
     inkscape:cy="15.286624"
     inkscape:window-x="0"
     inkscape:window-y="0"
     inkscape:window-maximized="1"
     inkscape:current-layer="layer1"
     inkscape:document-rotation="0"
     inkscape:pagecheckerboard="0"
     inkscape:showpageshadow="2"
     inkscape:deskcolor="#d1d1d1">
    <inkscape:grid
       type="xygrid"
       id="grid850"
       originx="0"
       originy="0"
       spacingy="1"
       spacingx="1"
       units="px"
       visible="true" />
  </sodipodi:namedview>
  <defs
     id="defs5455">
    <linearGradient
       inkscape:collect="always"
       xlink:href="#linearGradient17"
       id="linearGradient1493"
       gradientUnits="userSpaceOnUse"
       x1="30.564449"
       y1="1017.235"
       x2="8.6650352"
       y2="1002.36"
       gradientTransform="matrix(0.98463176,0,0,1.0000147,0.03074227,-0.01475258)" />
    <linearGradient
       inkscape:collect="always"
       xlink:href="#linearGradient17"
       id="linearGradient2"
       x1="2.0000021"
       y1="1025.9854"
       x2="62.001003"
       y2="1025.9854"
       gradientUnits="userSpaceOnUse" />
    <linearGradient
       inkscape:collect="always"
       id="linearGradient17">
      <stop
         style="stop-color:#839e2d;stop-opacity:1;"
         offset="0"
         id="stop16" />
      <stop
         style="stop-color:#aecc4f;stop-opacity:1;"
         offset="1"
         id="stop17" />
    </linearGradient>
  </defs>
  <metadata
     id="metadata5458">
    <rdf:RDF>
      <cc:Work
         rdf:about="">
        <dc:format>image/svg+xml</dc:format>
        <dc:type
           rdf:resource="http://purl.org/dc/dcmitype/StillImage" />
      </cc:Work>
    </rdf:RDF>
  </metadata>
  <g
     inkscape:label="Capa 1"
     inkscape:groupmode="layer"
     id="layer1"
     transform="translate(-384.57143,-483.798)">
    <g
       transform="matrix(0.74351172,0,0,0.74285356,332.49565,-244.90835)"
       id="g4" />
    <g
       transform="matrix(1.0666489,0,0,1.1428404,382.43813,-653.73949)"
       id="g19">
      <rect
         width="60.000999"
         height="22.750345"
         x="2.0000021"
         y="1002.36"
         rx="7.5001268"
         ry="7.0001144"
         style="opacity:1;fill:url(#linearGradient1493);fill-opacity:1;stroke:none;stroke-width:0.992297"
         id="rect11" />
      <path
         d="m 9.5001275,1002.36 c -4.6875786,0 -7.5001312,3.7112 -7.5001254,6.7376 l 5e-7,0.2623 c -5e-7,-2.6248 2.9090002,-5 6.5220005,-5 H 55.479001 c 3.613001,0 6.522002,2.3813 6.522,5 v -0.2623 c 0,-2.9902 -2.812546,-6.7376 -7.500121,-6.7376 z"
         style="opacity:0.2;fill:#ffffff;fill-opacity:1;stroke:none;stroke-width:1"
         id="path13"
         sodipodi:nodetypes="sscsscsss" />
      <path
         d="M 8.5221093,1013.3214 H 18.957282 c 14.348239,-1.3346 11.861149,-6.5863 20.992301,-6.5863 h 15.361992 c 3.613049,0 6.689428,1.4161 6.689428,5.1146 v 26.3858 c 0,3.5001 -2.812548,6.1252 -6.562611,6.1252 H 8.5626114 c -3.7500625,0 -6.5626089,-2.6251 -6.5626093,-6.1252 l -1.8e-6,-19.2404 c -4e-7,-4.0049 2.609044,-5.6737 6.522109,-5.6737 z"
         style="opacity:1;fill:url(#linearGradient2);fill-opacity:1;stroke:none;stroke-width:1.00063"
         id="path15"
         sodipodi:nodetypes="scsssssssss" />
    </g>
    <path
       clip-rule="evenodd"
       d="m 433.71312,513.17247 c 0,0.34552 -0.28479,0.62517 -0.63491,0.62517 -0.35078,0 -0.63467,-0.27965 -0.63467,-0.62517 0,-0.3455 0.28389,-0.625 0.63467,-0.625 0.35012,0 0.63491,0.2795 0.63491,0.625 z m -3.80838,0 c 0,0.34552 -0.28391,0.62517 -0.63469,0.62517 -0.35015,0 -0.63399,-0.27965 -0.63399,-0.62517 0,-0.3455 0.28384,-0.625 0.63399,-0.625 0.35078,0 0.63469,0.2795 0.63469,0.625 z m 8.962,8.82551 -5.8e-4,-6.7e-4 c -0.11529,0.11351 -0.2746,0.18439 -0.45028,0.18439 -0.35239,0 -0.63775,-0.2811 -0.63775,-0.62806 0,-0.18554 0.0845,-0.35097 0.21511,-0.46601 0.0994,-0.11083 0.16202,-0.25514 0.16202,-0.41476 v -3.75071 c 0,-0.34472 -0.2838,-0.62506 -0.63465,-0.62506 -0.35012,0 -0.6346,0.28034 -0.6346,0.62506 v 3.75071 1.7602 0.11417 c 0,0.81725 -0.40006,1.53959 -1.01552,1.99581 -0.003,0.003 -0.004,0.008 -0.008,0.01 -0.14993,0.11409 -0.24755,0.2936 -0.24755,0.49535 v 1.8752 c 0,1.03491 -0.85249,1.8744 -1.90329,1.8744 -1.05175,0 -1.90415,-0.83949 -1.90415,-1.8744 v -0.0308 -1.37519 c 0,-0.25902 -0.2126,-0.46867 -0.47604,-0.46867 h -0.31729 c -0.26275,0 -0.47594,0.20965 -0.47594,0.46867 v 1.37519 0.0308 c 0,1.03491 -0.85284,1.8744 -1.90365,1.8744 -1.05174,0 -1.90415,-0.83949 -1.90415,-1.8744 v -1.8752 c 0,-0.20175 -0.0967,-0.38127 -0.24763,-0.49535 -0.003,-0.003 -0.005,-0.008 -0.008,-0.01 -0.61548,-0.45622 -1.01524,-1.17856 -1.01524,-1.99581 v -0.11417 c -0.19957,0.0697 -0.41137,0.11417 -0.63453,0.11417 -1.05116,0 -1.9036,-0.83948 -1.9036,-1.87437 v -3.75071 c 0,-0.99156 0.78551,-1.79523 1.77538,-1.86184 0.0418,-0.01 0.0845,-0.0118 0.12824,-0.0118 h 0.63454 1.26927 3.09387 1.34861 2.53883 c 0.70065,0 1.26925,-0.56 1.26925,-1.25009 0,-0.26569 -0.0865,-0.51026 -0.22898,-0.71199 -0.80903,-1.08347 -2.10898,-1.78833 -3.57905,-1.78833 -1.75548,0 -3.27169,1.0034 -3.99247,2.45886 l -0.002,-7e-4 c -0.10372,0.20881 -0.32006,0.35461 -0.57231,0.35461 -0.35328,0 -0.63964,-0.28241 -0.63964,-0.63005 0,-0.15412 0.0578,-0.29367 0.15185,-0.40283 0.46859,-0.88576 1.16896,-1.63352 2.0213,-2.16482 l -0.69001,-1.17716 c -0.17516,-0.29916 -0.0714,-0.68109 0.23236,-0.85421 0.30331,-0.17242 0.69171,-0.0699 0.86707,0.22914 l 0.73623,1.2557 c 0.59058,-0.2046 1.22464,-0.3181 1.88721,-0.3181 0.66154,0 1.29488,0.11694 1.88557,0.32095 l 0.73783,-1.2586 c 0.17565,-0.29937 0.56339,-0.40156 0.86738,-0.22913 0.30307,0.17316 0.40685,0.55506 0.23214,0.8542 l -0.69259,1.18077 c 0.6092,0.37914 1.14498,0.86194 1.5704,1.43307 0.29682,0.41 0.47602,0.9074 0.47602,1.44858 0,1.38043 -1.13639,2.49944 -2.53786,2.49944 h -6.34668 -0.63471 -1.90382 c -0.35027,0 -0.63506,0.28036 -0.63506,0.62505 v 3.75066 c 0,0.34461 0.28479,0.62507 0.63506,0.62507 0.35072,0 0.63455,-0.28046 0.63455,-0.62507 v -2.50049 c 0,-0.34475 0.28384,-0.6251 0.63473,-0.6251 0.35069,0 0.63454,0.28035 0.63454,0.6251 v 4.37487 c 0,0.46812 0.26401,0.87094 0.65043,1.08547 0.37151,0.21942 0.61883,0.61681 0.61883,1.07306 v 2.21699 c 0,0.34494 0.28413,0.62444 0.63499,0.62444 0.35009,0 0.6339,-0.2795 0.6339,-0.62444 v -1.56271 c 0,-0.86339 0.71087,-1.56247 1.58696,-1.56247 h 0.63466 c 0.87672,0 1.58658,0.69908 1.58658,1.56247 v 1.56271 c 0,0.34494 0.28414,0.62444 0.63499,0.62444 0.34977,0 0.63455,-0.2795 0.63455,-0.62444 v -2.21699 c 0,-0.45625 0.24703,-0.85364 0.61913,-1.07306 0.38547,-0.21453 0.64949,-0.61735 0.64949,-1.08547 v -1.87443 -3.12554 -0.62512 c 0,-1.03504 0.85254,-1.87436 1.90433,-1.87436 1.05169,0 1.90411,0.83936 1.90411,1.87438 v 3.75069 c 0,0.51787 -0.21349,0.986 -0.55803,1.32515 z"
       fill-rule="evenodd"
       id="path2"
       style="fill:#ecf4d7;fill-opacity:1;stroke-width:0.0393626" />
  </g>
</svg>
