<?xml version="1.0" encoding="UTF-8" standalone="no"?>
<svg
   width="64"
   version="1.1"
   height="64"
   id="svg2"
   inkscape:version="1.3 (0e150ed6c4, 2023-07-21)"
   sodipodi:docname="folder-gdrive.svg"
   xmlns:inkscape="http://www.inkscape.org/namespaces/inkscape"
   xmlns:sodipodi="http://sodipodi.sourceforge.net/DTD/sodipodi-0.dtd"
   xmlns:xlink="http://www.w3.org/1999/xlink"
   xmlns="http://www.w3.org/2000/svg"
   xmlns:svg="http://www.w3.org/2000/svg"
   xmlns:rdf="http://www.w3.org/1999/02/22-rdf-syntax-ns#"
   xmlns:cc="http://creativecommons.org/ns#"
   xmlns:dc="http://purl.org/dc/elements/1.1/">
  <sodipodi:namedview
     pagecolor="#ffffff"
     bordercolor="#666666"
     borderopacity="1"
     objecttolerance="10"
     gridtolerance="10"
     guidetolerance="10"
     inkscape:pageopacity="0"
     inkscape:pageshadow="2"
     inkscape:window-width="1920"
     inkscape:window-height="993"
     id="namedview45"
     showgrid="true"
     inkscape:zoom="7.375"
     inkscape:cx="18.237288"
     inkscape:cy="29.016949"
     inkscape:window-x="0"
     inkscape:window-y="0"
     inkscape:window-maximized="1"
     inkscape:current-layer="layer1"
     inkscape:document-rotation="0"
     inkscape:pagecheckerboard="0"
     inkscape:showpageshadow="2"
     inkscape:deskcolor="#d1d1d1">
    <inkscape:grid
       type="xygrid"
       id="grid868"
       originx="0"
       originy="0"
       spacingy="1"
       spacingx="1"
       units="px"
       visible="true" />
  </sodipodi:namedview>
  <defs
     id="defs5455">
    <linearGradient
       inkscape:collect="always"
       xlink:href="#linearGradient3"
       id="linearGradient1493"
       gradientUnits="userSpaceOnUse"
       x1="7.1731339"
       y1="1002.36"
       x2="32.535458"
       y2="1017.235"
       gradientTransform="matrix(0.98463176,0,0,1.0000147,0.03074227,-0.01475258)" />
    <linearGradient
       inkscape:collect="always"
       id="linearGradient3">
      <stop
         style="stop-color:#e680ff;stop-opacity:1;"
         offset="0"
         id="stop1" />
      <stop
         style="stop-color:#7037c8;stop-opacity:1;"
         offset="1"
         id="stop2" />
    </linearGradient>
    <linearGradient
       inkscape:collect="always"
       xlink:href="#linearGradient4"
       id="linearGradient2"
       x1="2.0000021"
       y1="1025.9854"
       x2="62.001003"
       y2="1025.9854"
       gradientUnits="userSpaceOnUse" />
    <linearGradient
       inkscape:collect="always"
       id="linearGradient4">
      <stop
         style="stop-color:#dd55ff;stop-opacity:1"
         offset="0"
         id="stop3" />
      <stop
         style="stop-color:#7f4bce;stop-opacity:1;"
         offset="1"
         id="stop4" />
    </linearGradient>
  </defs>
  <metadata
     id="metadata5458">
    <rdf:RDF>
      <cc:Work
         rdf:about="">
        <dc:format>image/svg+xml</dc:format>
        <dc:type
           rdf:resource="http://purl.org/dc/dcmitype/StillImage" />
      </cc:Work>
    </rdf:RDF>
  </metadata>
  <g
     inkscape:label="Capa 1"
     inkscape:groupmode="layer"
     id="layer1"
     transform="translate(-384.57143,-483.798)">
    <g
       transform="matrix(1.0666489,0,0,1.1428404,382.43813,-653.73954)"
       id="g19">
      <rect
         width="60.000999"
         height="22.750345"
         x="2.0000021"
         y="1002.36"
         rx="7.5001268"
         ry="7.0001144"
         style="opacity:1;fill:url(#linearGradient1493);fill-opacity:1;stroke:none;stroke-width:0.992297"
         id="rect11" />
      <path
         d="m 9.5001275,1002.36 c -4.6875786,0 -7.5001312,3.7112 -7.5001254,6.7376 l 5e-7,0.2623 c -5e-7,-2.6248 2.9090002,-5 6.5220005,-5 H 55.479001 c 3.613001,0 6.522002,2.3813 6.522,5 v -0.2623 c 0,-2.9902 -2.812546,-6.7376 -7.500121,-6.7376 z"
         style="opacity:0.2;fill:#ffffff;fill-opacity:1;stroke:none;stroke-width:1"
         id="path13"
         sodipodi:nodetypes="sscsscsss" />
      <path
         d="M 8.5221093,1013.3214 H 18.957282 c 14.348239,-1.3346 11.861149,-6.5863 20.992301,-6.5863 h 15.361992 c 3.613049,0 6.689428,1.4161 6.689428,5.1146 v 26.3858 c 0,3.5001 -2.812548,6.1252 -6.562611,6.1252 H 8.5626114 c -3.7500625,0 -6.5626089,-2.6251 -6.5626093,-6.1252 l -1.8e-6,-19.2404 c -4e-7,-4.0049 2.609044,-5.6737 6.522109,-5.6737 z"
         style="opacity:1;fill:url(#linearGradient2);fill-opacity:1;stroke:none;stroke-width:1.00063"
         id="path15"
         sodipodi:nodetypes="scsssssssss" />
    </g>
    <polygon
       points="36.23,10 65.446,59.543 95.899,59.543 66.683,10 "
       id="polygon2-6"
       transform="matrix(0.2531934,0,0,0.2531934,419.00093,506.26607)"
       style="fill:#e5d5ff;fill-opacity:1" />
    <polygon
       points="37.854,63.021 22.782,88.991 80.827,88.991 95.899,63.021 "
       id="polygon4-4"
       transform="matrix(0.2531934,0,0,0.2531934,419.00093,506.26607)"
       style="fill:#e5d5ff;fill-opacity:1" />
    <polygon
       points="33.281,12.033 4,61.631 19.458,87.678 48.739,38.08 "
       id="polygon6-9"
       transform="matrix(0.2531934,0,0,0.2531934,419.00093,506.26607)"
       style="fill:#e5d5ff;fill-opacity:1" />
  </g>
</svg>
