<?xml version="1.0" encoding="UTF-8" standalone="no"?>
<svg
   width="64"
   version="1.1"
   height="64"
   id="svg17"
   sodipodi:docname="folder-chart.svg"
   inkscape:version="1.3 (0e150ed6c4, 2023-07-21)"
   xmlns:inkscape="http://www.inkscape.org/namespaces/inkscape"
   xmlns:sodipodi="http://sodipodi.sourceforge.net/DTD/sodipodi-0.dtd"
   xmlns:xlink="http://www.w3.org/1999/xlink"
   xmlns="http://www.w3.org/2000/svg"
   xmlns:svg="http://www.w3.org/2000/svg"
   xmlns:rdf="http://www.w3.org/1999/02/22-rdf-syntax-ns#"
   xmlns:cc="http://creativecommons.org/ns#"
   xmlns:dc="http://purl.org/dc/elements/1.1/">
  <sodipodi:namedview
     pagecolor="#ffffff"
     bordercolor="#666666"
     borderopacity="1"
     objecttolerance="10"
     gridtolerance="10"
     guidetolerance="10"
     inkscape:pageopacity="0"
     inkscape:pageshadow="2"
     inkscape:window-width="1920"
     inkscape:window-height="993"
     id="namedview19"
     showgrid="true"
     inkscape:zoom="6.9384855"
     inkscape:cx="23.275973"
     inkscape:cy="28.536487"
     inkscape:window-x="0"
     inkscape:window-y="0"
     inkscape:window-maximized="1"
     inkscape:current-layer="layer1"
     inkscape:document-rotation="0"
     inkscape:pagecheckerboard="0"
     inkscape:lockguides="true"
     inkscape:showpageshadow="2"
     inkscape:deskcolor="#d1d1d1">
    <inkscape:grid
       type="xygrid"
       id="grid941"
       originx="0"
       originy="0"
       spacingy="1"
       spacingx="1"
       units="px"
       visible="true" />
  </sodipodi:namedview>
  <defs
     id="defs5455">
    <linearGradient
       inkscape:collect="always"
       xlink:href="#linearGradient3"
       id="linearGradient1493"
       gradientUnits="userSpaceOnUse"
       x1="30.564449"
       y1="1017.235"
       x2="8.6650352"
       y2="1002.36"
       gradientTransform="matrix(0.98463176,0,0,1.0000147,0.03074227,-0.01475258)" />
    <linearGradient
       inkscape:collect="always"
       xlink:href="#linearGradient3"
       id="linearGradient2"
       x1="2.0000021"
       y1="1025.9854"
       x2="62.001003"
       y2="1025.9854"
       gradientUnits="userSpaceOnUse" />
    <linearGradient
       inkscape:collect="always"
       id="linearGradient3">
      <stop
         style="stop-color:#ff9955;stop-opacity:1"
         offset="0"
         id="stop1" />
      <stop
         style="stop-color:#ffccaa;stop-opacity:1"
         offset="1"
         id="stop2" />
    </linearGradient>
  </defs>
  <metadata
     id="metadata5458">
    <rdf:RDF>
      <cc:Work
         rdf:about="">
        <dc:format>image/svg+xml</dc:format>
        <dc:type
           rdf:resource="http://purl.org/dc/dcmitype/StillImage" />
      </cc:Work>
    </rdf:RDF>
  </metadata>
  <g
     inkscape:label="Capa 1"
     inkscape:groupmode="layer"
     id="layer1"
     transform="translate(-384.57143,-483.798)">
    <g
       inkscape:label="Capa 1"
       id="layer1-9" />
    <g
       transform="matrix(1.0666489,0,0,1.1428404,382.43813,-653.73954)"
       id="g19">
      <rect
         width="60.000999"
         height="22.750345"
         x="2.0000021"
         y="1002.36"
         rx="7.5001268"
         ry="7.0001144"
         style="opacity:1;fill:url(#linearGradient1493);fill-opacity:1;stroke:none;stroke-width:0.992297"
         id="rect11" />
      <path
         d="m 9.5001275,1002.36 c -4.6875786,0 -7.5001312,3.7112 -7.5001254,6.7376 l 5e-7,0.2623 c -5e-7,-2.6248 2.9090002,-5 6.5220005,-5 H 55.479001 c 3.613001,0 6.522002,2.3813 6.522,5 v -0.2623 c 0,-2.9902 -2.812546,-6.7376 -7.500121,-6.7376 z"
         style="opacity:0.2;fill:#ffffff;fill-opacity:1;stroke:none;stroke-width:1"
         id="path13"
         sodipodi:nodetypes="sscsscsss" />
      <path
         d="M 8.5221093,1013.3214 H 18.957282 c 14.348239,-1.3346 11.861149,-6.5863 20.992301,-6.5863 h 15.361992 c 3.613049,0 6.689428,1.4161 6.689428,5.1146 v 26.3858 c 0,3.5001 -2.812548,6.1252 -6.562611,6.1252 H 8.5626114 c -3.7500625,0 -6.5626089,-2.6251 -6.5626093,-6.1252 l -1.8e-6,-19.2404 c -4e-7,-4.0049 2.609044,-5.6737 6.522109,-5.6737 z"
         style="opacity:1;fill:url(#linearGradient2);fill-opacity:1;stroke:none;stroke-width:1.00063"
         id="path15"
         sodipodi:nodetypes="scsssssssss" />
    </g>
    <path
       d="m 438.91523,524.798 c -0.36242,0 -0.65627,-0.29851 -0.65627,-0.6667 v -10.6666 c 0,-0.36819 -0.29385,-0.6667 -0.65628,-0.6667 h -1.31248 c -0.36244,0 -0.65627,0.29851 -0.65627,0.6667 v 13.6666 c 0,0.9206 -0.73445,1.6667 -1.64057,1.6667 h -0.65627 c -0.90624,0 -1.64067,-0.7461 -1.64067,-1.6667 v -7 c 0,-0.3682 -0.29373,-0.6666 -0.65619,-0.6666 h -1.31255 c -0.36246,0 -0.6562,0.2984 -0.6562,0.6666 v 7 c 0,0.9206 -0.73444,1.6667 -1.64066,1.6667 h -0.65628 c -0.90613,0 -1.64056,-0.7461 -1.64056,-1.6667 v -4.3333 c 0,-0.3682 -0.29384,-0.6667 -0.6563,-0.6667 h -1.31247 c -0.36243,0 -0.65628,0.2985 -0.65628,0.6667 v 4.6667 c 0,0.7363 -0.58766,1.3333 -1.31247,1.3333 -1.44969,0 -2.62503,-1.194 -2.62503,-2.6667 v -12 -4.6666 c 0,-0.36819 0.29385,-0.6667 0.65628,-0.6667 0.36245,0 0.65619,0.29851 0.65619,0.6667 v 2.35971 2.30689 12 c 0,0.73634 0.50567,1.3334 0.98437,1.3334 0.18137,0 0.32819,-0.14916 0.32819,-0.3334 v -4.6666 c 0,-0.9206 0.73444,-1.6667 1.64058,-1.6667 h 1.96873 c 0.90624,0 1.64067,0.7461 1.64067,1.6667 v 4.3333 c 0,0.3682 0.29384,0.6667 0.65627,0.6667 0.36246,0 0.6562,-0.2985 0.6562,-0.6667 v -7 c 0,-0.9206 0.73444,-1.6667 1.64066,-1.6667 h 1.96875 c 0.90623,0 1.64066,0.7461 1.64066,1.6667 v 7 c 0,0.3682 0.29374,0.6667 0.6562,0.6667 0.36243,0 0.65627,-0.2985 0.65627,-0.6667 v -13.6667 c 0,-0.9205 0.73445,-1.6666 1.64067,-1.6666 h 1.96875 c 0.90612,0 1.64056,0.7461 1.64056,1.6666 v 11 c 0,0.36819 -0.29374,0.6667 -0.6562,0.6667 z m 0,1.3333 c 0.36246,0 0.6562,0.2985 0.6562,0.6667 0,0.3682 -0.29374,0.6667 -0.6562,0.6667 -0.36242,0 -0.65627,-0.2985 -0.65627,-0.6667 0,-0.3682 0.29385,-0.6667 0.65627,-0.6667 z"
       id="path2"
       style="fill:#fff9f5;fill-opacity:1;stroke-width:0.0413402" />
  </g>
</svg>
