<?xml version="1.0" encoding="UTF-8" standalone="no"?>
<svg
   width="64"
   version="1.1"
   height="64"
   id="svg15"
   sodipodi:docname="folder-table.svg"
   inkscape:version="1.3 (0e150ed6c4, 2023-07-21)"
   xmlns:inkscape="http://www.inkscape.org/namespaces/inkscape"
   xmlns:sodipodi="http://sodipodi.sourceforge.net/DTD/sodipodi-0.dtd"
   xmlns:xlink="http://www.w3.org/1999/xlink"
   xmlns="http://www.w3.org/2000/svg"
   xmlns:svg="http://www.w3.org/2000/svg"
   xmlns:rdf="http://www.w3.org/1999/02/22-rdf-syntax-ns#"
   xmlns:cc="http://creativecommons.org/ns#"
   xmlns:dc="http://purl.org/dc/elements/1.1/">
  <sodipodi:namedview
     pagecolor="#ffffff"
     bordercolor="#666666"
     borderopacity="1"
     objecttolerance="10"
     gridtolerance="10"
     guidetolerance="10"
     inkscape:pageopacity="0"
     inkscape:pageshadow="2"
     inkscape:window-width="1920"
     inkscape:window-height="993"
     id="namedview17"
     showgrid="true"
     inkscape:zoom="9.8125"
     inkscape:cx="32"
     inkscape:cy="32"
     inkscape:window-x="0"
     inkscape:window-y="0"
     inkscape:window-maximized="1"
     inkscape:current-layer="layer1"
     inkscape:document-rotation="0"
     inkscape:pagecheckerboard="0"
     inkscape:showpageshadow="2"
     inkscape:deskcolor="#d1d1d1">
    <inkscape:grid
       type="xygrid"
       id="grid850"
       originx="0"
       originy="0"
       spacingy="1"
       spacingx="1"
       units="px"
       visible="true" />
  </sodipodi:namedview>
  <defs
     id="defs5455">
    <linearGradient
       inkscape:collect="always"
       xlink:href="#linearGradient3"
       id="linearGradient1493"
       gradientUnits="userSpaceOnUse"
       x1="30.564449"
       y1="1017.235"
       x2="8.6650352"
       y2="1002.36"
       gradientTransform="matrix(0.98463176,0,0,1.0000147,0.03074227,-0.01475258)" />
    <linearGradient
       inkscape:collect="always"
       id="linearGradient3">
      <stop
         style="stop-color:#2a7fff;stop-opacity:1"
         offset="0"
         id="stop1" />
      <stop
         style="stop-color:#80b3ff;stop-opacity:1"
         offset="1"
         id="stop2" />
    </linearGradient>
    <linearGradient
       inkscape:collect="always"
       xlink:href="#linearGradient3"
       id="linearGradient2"
       x1="2.0000021"
       y1="1025.9854"
       x2="62.001003"
       y2="1025.9854"
       gradientUnits="userSpaceOnUse" />
  </defs>
  <metadata
     id="metadata5458">
    <rdf:RDF>
      <cc:Work
         rdf:about="">
        <dc:format>image/svg+xml</dc:format>
        <dc:type
           rdf:resource="http://purl.org/dc/dcmitype/StillImage" />
      </cc:Work>
    </rdf:RDF>
  </metadata>
  <g
     inkscape:label="Capa 1"
     inkscape:groupmode="layer"
     id="layer1"
     transform="translate(-384.57143,-483.798)">
    <g
       transform="matrix(1.0666489,0,0,1.1428404,382.43813,-653.73949)"
       id="g19">
      <rect
         width="60.000999"
         height="22.750345"
         x="2.0000021"
         y="1002.36"
         rx="7.5001268"
         ry="7.0001144"
         style="opacity:1;fill:url(#linearGradient1493);fill-opacity:1;stroke:none;stroke-width:0.992297"
         id="rect11" />
      <path
         d="m 9.5001275,1002.36 c -4.6875786,0 -7.5001312,3.7112 -7.5001254,6.7376 l 5e-7,0.2623 c -5e-7,-2.6248 2.9090002,-5 6.5220005,-5 H 55.479001 c 3.613001,0 6.522002,2.3813 6.522,5 v -0.2623 c 0,-2.9902 -2.812546,-6.7376 -7.500121,-6.7376 z"
         style="opacity:0.2;fill:#ffffff;fill-opacity:1;stroke:none;stroke-width:1"
         id="path13"
         sodipodi:nodetypes="sscsscsss" />
      <path
         d="M 8.5221093,1013.3214 H 18.957282 c 14.348239,-1.3346 11.861149,-6.5863 20.992301,-6.5863 h 15.361992 c 3.613049,0 6.689428,1.4161 6.689428,5.1146 v 26.3858 c 0,3.5001 -2.812548,6.1252 -6.562611,6.1252 H 8.5626114 c -3.7500625,0 -6.5626089,-2.6251 -6.5626093,-6.1252 l -1.8e-6,-19.2404 c -4e-7,-4.0049 2.609044,-5.6737 6.522109,-5.6737 z"
         style="opacity:1;fill:url(#linearGradient2);fill-opacity:1;stroke:none;stroke-width:1.00063"
         id="path15"
         sodipodi:nodetypes="scsssssssss" />
    </g>
    <path
       fill-rule="evenodd"
       clip-rule="evenodd"
       d="m 436.71495,528.798 h -10.71494 c -0.39391,0 -0.71358,-0.32055 -0.71358,-0.71435 0,-0.39468 0.31967,-0.71465 0.71358,-0.71465 h 10.71494 c 0.78899,0 1.42865,-0.63959 1.42865,-1.42849 v -14.28567 c 0,-0.78902 -0.63966,-1.42826 -1.42865,-1.42826 h -14.28603 c -0.78869,0 -1.42869,0.63924 -1.42869,1.42826 v 13.57141 c 0,0.39475 -0.31956,0.71426 -0.71429,0.71426 -0.39412,0 -0.71451,-0.31951 -0.71451,-0.71426 v -13.57141 c 0,-1.57784 1.27978,-2.85684 2.85749,-2.85684 h 14.28603 c 1.57748,0 2.85648,1.279 2.85648,2.85684 v 14.28567 c 0,1.57787 -1.279,2.85749 -2.85648,2.85749 z m -13.57157,-1.429 c 0.39392,0 0.71435,0.31997 0.71435,0.71465 0,0.3938 -0.32043,0.71435 -0.71435,0.71435 -0.39488,0 -0.71446,-0.32055 -0.71446,-0.71435 0,-0.39468 0.31958,-0.71465 0.71446,-0.71465 z"
       id="path2"
       style="fill:#d5e5ff;fill-opacity:1;stroke-width:0.0446434" />
    <path
       fill-rule="evenodd"
       clip-rule="evenodd"
       d="m 434.65937,525.52754 h -2.93491 c -0.23129,0 -0.41943,-0.18792 -0.41943,-0.41919 0,-0.23176 0.18814,-0.41935 0.41943,-0.41935 h 2.72532 c 0.57888,0 1.04816,-0.46919 1.04816,-1.04804 v -2.72532 c 0,-0.23174 0.1875,-0.41966 0.4192,-0.41966 0.23178,0 0.41929,0.18792 0.41929,0.41966 v 2.93488 c 0,0.9262 -0.75086,1.67702 -1.67706,1.67702 z m -11.32026,-9.22368 c 0.23179,0 0.41934,0.18753 0.41934,0.41919 0,0.23124 -0.18755,0.41892 -0.41934,0.41892 -0.23158,0 -0.41917,-0.18768 -0.41917,-0.41892 0,-0.23166 0.18759,-0.41919 0.41917,-0.41919 z m 12.98177,1.89548 c -0.006,0.0452 -0.0121,0.0897 -0.0226,0.13358 -0.005,0.0216 -0.0102,0.0416 -0.0156,0.0626 -0.01,0.0361 -0.0186,0.073 -0.0301,0.10898 -0.006,0.0153 -0.0111,0.0305 -0.0164,0.047 -0.0149,0.0411 -0.0301,0.0818 -0.0494,0.1206 -0.005,0.0102 -0.0101,0.0201 -0.0145,0.0299 -0.0205,0.0431 -0.0429,0.0849 -0.0663,0.12529 -0.006,0.01 -0.01,0.0163 -0.0151,0.0252 -0.0259,0.0421 -0.0526,0.083 -0.0827,0.1223 -0.005,0.006 -0.01,0.0108 -0.012,0.0165 -0.0315,0.0417 -0.0649,0.0823 -0.10015,0.11997 -0.003,0.004 -0.007,0.009 -0.01,0.0101 -0.0377,0.0416 -0.0784,0.0807 -0.12078,0.11795 -0.2956,0.26 -0.68211,0.41932 -1.10677,0.41932 v 0.0216 c -0.0682,-0.0132 -0.138,-0.0216 -0.2096,-0.0216 h -2.93476 c -0.57894,0 -1.04818,0.46914 -1.04818,1.04811 v 2.93478 c 0,0.0716 0.01,0.14209 0.0218,0.2097 h -0.0218 c 0,0.42455 -0.15907,0.81112 -0.4193,1.10669 -0.0369,0.0426 -0.0762,0.0831 -0.1179,0.1208 -0.003,0.003 -0.007,0.006 -0.0102,0.01 -0.038,0.0349 -0.0786,0.0687 -0.12013,0.0999 -0.006,0.005 -0.0112,0.01 -0.0164,0.0121 -0.0397,0.0292 -0.0805,0.0562 -0.12228,0.0828 -0.01,0.006 -0.0161,0.0103 -0.0252,0.0149 -0.0405,0.0241 -0.0831,0.0459 -0.12531,0.0661 -0.0108,0.006 -0.0201,0.0104 -0.0297,0.0147 -0.0389,0.0181 -0.0794,0.0333 -0.12055,0.049 -0.0152,0.006 -0.0304,0.0114 -0.047,0.0165 -0.0353,0.0113 -0.072,0.0216 -0.10891,0.0304 -0.0212,0.006 -0.0411,0.011 -0.0627,0.0156 -0.0437,0.01 -0.0888,0.016 -0.13335,0.0225 -0.012,0.002 -0.0244,0.005 -0.0364,0.006 -0.0596,0.009 -0.1205,0.0103 -0.18186,0.0103 h -4.19231 c -0.92625,-9e-5 -1.67728,-0.75097 -1.67728,-1.67713 v -4.19265 c 0,-0.92628 0.75103,-1.67716 1.67728,-1.67716 h 0.41938 2.72481 c 0.57915,0 1.0482,-0.46926 1.0482,-1.04817 v -2.93487 c 0,-0.57891 -0.46905,-1.04815 -1.0482,-1.04815 h -2.93464 c -0.57898,0 -1.04806,0.46924 -1.04806,1.04815 v 1.04819 c 0,0.23151 -0.18764,0.41926 -0.41946,0.41926 -0.23164,0 -0.41921,-0.18775 -0.41921,-0.41926 v -1.25761 c 3e-5,-0.92638 0.75106,-1.67729 1.67722,-1.67729 h 3.35422 c 0.0616,0 0.12146,0.003 0.18103,0.01 0.0136,8.2e-4 0.0275,0.006 0.0411,0.009 0.0445,0.006 0.0879,0.012 0.13075,0.022 0.02,0.005 0.0385,0.0102 0.0584,0.0147 0.0374,0.01 0.075,0.0186 0.1117,0.0307 0.0147,0.006 0.0299,0.0111 0.0459,0.0162 0.041,0.0149 0.0827,0.0307 0.12177,0.0497 0.0109,0.006 0.0217,0.01 0.0315,0.0148 0.0421,0.0199 0.0835,0.0421 0.12315,0.0658 0.01,0.006 0.0165,0.0104 0.0255,0.0152 0.0421,0.0259 0.0831,0.0524 0.12233,0.0827 0.006,0.005 0.0109,0.01 0.0165,0.012 0.0417,0.0313 0.0822,0.0653 0.12006,0.0998 0.003,0.003 0.007,0.007 0.01,0.01 0.0417,0.038 0.0805,0.0784 0.11779,0.12099 0.26022,0.2956 0.41937,0.68211 0.41937,1.10669 h 0.0217 c -0.0136,0.068 -0.0217,0.13776 -0.0217,0.2094 v 3.14427 c 0,0.9264 -0.75103,1.67729 -1.67685,1.67729 h -3.14474 c -0.57894,0 -1.04807,0.46932 -1.04807,1.04829 v 3.7733 c 0,0.57896 0.4691,1.0482 1.04807,1.0482 h 3.77359 c 0.57892,0 1.04806,-0.46924 1.04806,-1.0482 v -3.14515 c 0,-0.92612 0.75094,-1.67674 1.67686,-1.67674 h 3.14467 c 0.57897,0 1.04821,-0.469 1.04821,-1.04795 v -3.77359 c 0,-0.57894 -0.46924,-1.04816 -1.04821,-1.04816 h -3.56356 c -0.23152,0 -0.41945,-0.18752 -0.41945,-0.41928 0,-0.23173 0.18793,-0.41925 0.41945,-0.41925 h 3.77316 c 0.92614,0 1.67708,0.75091 1.67708,1.67723 v 4.19247 c 0,0.0615 -0.004,0.12221 -0.0104,0.1818 -8.6e-4,0.0125 -0.004,0.0248 -0.006,0.0364 z"
       id="path2-3-3"
       style="fill:#d5e5ff;fill-opacity:1;stroke-width:0.0262042" />
  </g>
</svg>
