<?xml version="1.0" encoding="UTF-8" standalone="no"?>
<svg
   width="48"
   height="48"
   version="1.1"
   viewBox="0 0 12.69975 12.69975"
   id="svg62"
   sodipodi:docname="akregator.svg"
   inkscape:version="1.2.1 (9c6d41e410, 2022-07-14)"
   xmlns:inkscape="http://www.inkscape.org/namespaces/inkscape"
   xmlns:sodipodi="http://sodipodi.sourceforge.net/DTD/sodipodi-0.dtd"
   xmlns="http://www.w3.org/2000/svg"
   xmlns:svg="http://www.w3.org/2000/svg"
   xmlns:rdf="http://www.w3.org/1999/02/22-rdf-syntax-ns#"
   xmlns:cc="http://creativecommons.org/ns#"
   xmlns:dc="http://purl.org/dc/elements/1.1/">
  <sodipodi:namedview
     id="namedview64"
     pagecolor="#ffffff"
     bordercolor="#666666"
     borderopacity="1.0"
     inkscape:showpageshadow="2"
     inkscape:pageopacity="0.0"
     inkscape:pagecheckerboard="0"
     inkscape:deskcolor="#d1d1d1"
     showgrid="true"
     inkscape:zoom="10.429825"
     inkscape:cx="21.380992"
     inkscape:cy="33.749368"
     inkscape:window-width="1920"
     inkscape:window-height="1011"
     inkscape:window-x="0"
     inkscape:window-y="0"
     inkscape:window-maximized="1"
     inkscape:current-layer="svg62">
    <inkscape:grid
       type="xygrid"
       id="grid293"
       originx="0"
       originy="0" />
  </sodipodi:namedview>
  <defs
     id="defs18">
    <filter
       id="filter1272-6"
       x="-0.094272248"
       y="-0.09046597"
       width="1.1885445"
       height="1.1809319"
       color-interpolation-filters="sRGB">
      <feGaussianBlur
         stdDeviation="0.39771105"
         id="feGaussianBlur2" />
    </filter>
    <filter
       id="filter1066-1"
       x="-0.063922505"
       y="-0.056531058"
       width="1.127845"
       height="1.1130621"
       color-interpolation-filters="sRGB">
      <feGaussianBlur
         stdDeviation="0.22705935"
         id="feGaussianBlur5" />
    </filter>
    <linearGradient
       id="linearGradient5352"
       x1="12.189"
       x2="13.579"
       y1="11.042"
       y2="12.031"
       gradientTransform="translate(-0.56907,-0.14784)"
       gradientUnits="userSpaceOnUse">
      <stop
         stop-color="#fee2a2"
         offset="0"
         id="stop8" />
      <stop
         stop-color="#f0a602"
         offset="1"
         id="stop10" />
    </linearGradient>
    <linearGradient
       id="linearGradient6573"
       x1="121.63"
       x2="121.63"
       y1="9.125"
       y2="6.4109001"
       gradientTransform="matrix(1.9521,0,0,1.9521,-237.5,-7.2503)"
       gradientUnits="userSpaceOnUse">
      <stop
         stop-color="#fe650b"
         offset="0"
         id="stop13" />
      <stop
         stop-color="#fe8e00"
         offset="1"
         id="stop15" />
    </linearGradient>
  </defs>
  <metadata
     id="metadata20">
    <rdf:RDF>
      <cc:Work
         rdf:about="">
        <dc:format>image/svg+xml</dc:format>
        <dc:type
           rdf:resource="http://purl.org/dc/dcmitype/StillImage" />
      </cc:Work>
    </rdf:RDF>
  </metadata>
  <g
     transform="matrix(0.69266723,0,0,0.69440765,0.90532308,0.57346132)"
     id="g60">
    <circle
       cx="7.8442001"
       cy="8.3600998"
       r="7.9375"
       color="#000000"
       stroke-width="0.26458"
       id="circle22"
       style="fill:#ff9955;fill-opacity:1" />
    <path
       d="m 7.7764,0.31721 a 7.9375,7.9833 0 0 0 -7.9375,7.9835 7.9375,7.9833 0 0 0 5.5383,7.6068 l 0.53279,-0.06029 c 3.7573,-1.0394 9.0461,-4.2556 9.2554,-10.46 a 7.9375,7.9833 0 0 0 -7.3888,-5.0697 z m 7.4067,5.1176 0.44545,3.9648 a 7.9375,7.9833 0 0 0 5.02e-4,-0.00209 l -0.44439,-3.9579 a 7.9375,7.9833 0 0 0 -0.0015,-0.00468 z"
       color="#000000"
       stroke-width="0.26535"
       id="path26"
       style="fill:#464e53;fill-opacity:1" />
    <path
       transform="matrix(1.0996,0,0,1.0321,-48.296,-4.3362)"
       d="m 57.818,9.8288 c 0,0 0.05354,3.0782 -2.6636,4.5408 -2.2449,1.2084 0.9386,2.689 -5.8599,5.0989 8.8505,-2.5748 8.5235,-9.6396 8.5235,-9.6396 z"
       filter="url(#filter1066-1)"
       opacity="0.3"
       id="path28" />
    <path
       d="m 15.183,5.4349 0.44545,3.9645 a 7.9375,7.9833 0 0 0 5.29e-4,-0.00206 l -0.44442,-3.9579 a 7.9375,7.9833 0 0 0 -10e-4,-0.00465 h -5.29e-4 z"
       color="#000000"
       stroke-width="0.26535"
       id="path40" />
    <g
       fill="#cdcdcd"
       id="g52">
      <rect
         transform="rotate(-15)"
         x="5.6771998"
         y="4.6571002"
         width="4.2094998"
         height="0.51449001"
         ry="0.20928"
         style="paint-order:stroke fill markers"
         id="rect42" />
      <rect
         transform="rotate(-15)"
         x="5.6771998"
         y="5.7621999"
         width="4.2094998"
         height="0.51449001"
         ry="0.20928"
         style="paint-order:stroke fill markers"
         id="rect44" />
      <rect
         transform="rotate(-15)"
         x="5.6771998"
         y="6.8671999"
         width="3.0353"
         height="0.51449001"
         ry="0.20928"
         style="paint-order:stroke fill markers"
         id="rect46" />
    </g>
    <circle
       transform="rotate(-30)"
       cx="-0.0077883"
       cy="7.9102998"
       r="2.648"
       fill="url(#linearGradient6573)"
       stroke-width="1.9522"
       style="fill:url(#linearGradient6573);paint-order:stroke fill markers"
       id="circle54" />
    <path
       d="M 1.8076,6.8562 C 1.9396,6.62757 2.09626,6.42453 2.27758,6.2471 2.4589,6.06968 2.65699,5.91997 2.87181,5.798 3.08664,5.67601 3.31348,5.58302 3.55232,5.519 3.79116,5.455008 4.0341,5.422125 4.28114,5.420347 c 0.24704,-0.00175 0.49345,0.028855 0.73917,0.09185 0.24574,0.062987 0.48292,0.16049 0.71157,0.2925 0.072202,0.041685 0.11909,0.10285 0.14072,0.18352 0.02163,0.080677 0.011573,0.15709 -0.03011,0.22929 C 5.800803,6.289712 5.73964,6.336627 5.65896,6.358247 5.578299,6.37985 5.50187,6.36982 5.42967,6.328137 5.24916,6.223917 5.06156,6.147047 4.8669,6.097477 4.67225,6.047934 4.47759,6.023804 4.28296,6.025095 4.08834,6.0263915 3.89693,6.052225 3.70868,6.102679 3.52045,6.153119 3.34176,6.226419 3.17255,6.322619 3.00337,6.418811 2.84687,6.537029 2.70305,6.677289 2.55923,6.817539 2.43521,6.977909 2.33099,7.158409 2.289308,7.230606 2.22813,7.277519 2.14746,7.299129 2.066789,7.320743 1.99036,7.310707 1.91816,7.269025 1.84596,7.22734 1.79905,7.166165 1.77744,7.085495 1.755827,7.004834 1.765861,6.928405 1.807547,6.856205 Z M 2.79733,7.42762 C 2.9166,7.22105 3.06824,7.0499 3.25225,6.91412 3.43626,6.77836 3.63502,6.68187 3.84854,6.62467 4.06208,6.567451 4.28246,6.551621 4.50968,6.577196 4.73694,6.602773 4.95384,6.675185 5.1604,6.794456 5.232599,6.836141 5.27949,6.897306 5.30112,6.977976 5.322736,7.058645 5.312693,7.135066 5.270997,7.207286 5.229315,7.279483 5.168157,7.326396 5.087477,7.348006 5.006811,7.36962 4.930377,7.35959 4.858177,7.317902 4.723797,7.240316 4.582697,7.192942 4.434817,7.175772 4.286967,7.158598 4.143427,7.16866 4.004257,7.205956 c -0.1392,0.037293 -0.26853,0.10034 -0.38796,0.18914 -0.11945,0.088805 -0.21797,0.20039 -0.29554,0.33475 -0.041682,0.072197 -0.10285,0.11911 -0.18353,0.14072 C 3.056553,7.892177 2.980117,7.882144 2.907927,7.840459 2.835727,7.798774 2.788817,7.737599 2.767207,7.656929 2.745583,7.576255 2.755616,7.499819 2.797301,7.427619 Z m 1.6527,0.31239 C 4.502179,7.77012 4.544809,7.807426 4.57793,7.85196 4.611066,7.896495 4.634606,7.944847 4.648597,7.99705 4.662567,8.049236 4.66607,8.10341 4.659075,8.15953 4.652075,8.215653 4.634088,8.26878 4.60514,8.31892 4.575036,8.371061 4.537724,8.413699 4.49321,8.44683 4.448688,8.479959 4.400304,8.503496 4.34813,8.517492 4.295933,8.53148 4.24227,8.535261 4.18715,8.528837 4.132024,8.5224109 4.0784,8.504152 4.02625,8.474042 3.976127,8.445102 3.933982,8.408076 3.89987,8.362972 3.865726,8.317855 3.841675,8.269206 3.8277,8.217012 3.813714,8.164815 3.809936,8.111162 3.816352,8.056032 3.822782,8.000914 3.841035,7.947282 3.871142,7.895132 3.90009,7.844993 3.937121,7.802861 3.982222,7.768732 4.027331,7.734611 4.07598,7.710553 4.128172,7.696567 4.180358,7.682576 4.234532,7.679089 4.290662,7.686089 c 0.056115,0.007 0.10924,0.024963 0.15938,0.053909 z"
       stroke-width="0.13791"
       id="path56" />
    <path
       d="m 8.2186015,10.45177 c 0.132,-0.22864 0.28866,-0.43167 0.46998,-0.6090995 0.18132,-0.17742 0.37941,-0.32713 0.59423,-0.4491 0.21483,-0.12199 0.44167,-0.21498 0.68051,-0.279 0.2388395,-0.06399 0.4817795,-0.09688 0.7288195,-0.09865 0.24704,-0.0017 0.49345,0.02886 0.73917,0.09185 0.24574,0.06299 0.48292,0.16049 0.71157,0.2925 0.0722,0.04169 0.11909,0.10285 0.14072,0.18352 0.02163,0.08068 0.01157,0.15709 -0.03011,0.22929 -0.04169,0.0722 -0.10285,0.11912 -0.18353,0.14074 -0.08066,0.0216 -0.15709,0.01157 -0.22929,-0.03011 -0.18051,-0.10422 -0.36811,-0.18109 -0.56277,-0.23066 -0.19465,-0.04954 -0.38931,-0.07367 -0.58394,-0.07238 -0.19462,0.0013 -0.38603,0.02713 -0.57428,0.07758 -0.1882295,0.05044 -0.3669195,0.12374 -0.5361295,0.21994 -0.16918,0.096189 -0.32568,0.2144095 -0.4695,0.3546695 -0.14382,0.14025 -0.26784,0.30062 -0.37206,0.48112 -0.041683,0.0722 -0.10286,0.11911 -0.18353,0.14072 -0.080672,0.02161 -0.1571,0.01158 -0.2293,-0.03011 -0.072199,-0.04168 -0.11911,-0.10286 -0.14072,-0.18353 -0.021614,-0.08066 -0.011578,-0.15709 0.030104,-0.22929 z m 0.98973,0.57142 c 0.11927,-0.20657 0.27091,-0.37772 0.45492,-0.5135 0.18401,-0.13576 0.3827695,-0.23225 0.5962895,-0.28945 0.21354,-0.05722 0.43392,-0.07305 0.66114,-0.04747 0.22726,0.02558 0.44416,0.09799 0.65072,0.21726 0.0722,0.04168 0.11909,0.10285 0.14072,0.18352 0.02162,0.08067 0.01157,0.15709 -0.03012,0.22931 -0.04168,0.0722 -0.10284,0.11911 -0.18352,0.14072 -0.08067,0.02161 -0.1571,0.01158 -0.2293,-0.0301 -0.13438,-0.07759 -0.27548,-0.12496 -0.42336,-0.14214 -0.14785,-0.01717 -0.29139,-0.0071 -0.43056,0.03018 -0.1392,0.03729 -0.26853,0.10035 -0.38796,0.18914 -0.1194495,0.0888 -0.2179695,0.20039 -0.2955395,0.33475 -0.041683,0.0722 -0.10285,0.11911 -0.18353,0.14072 -0.080674,0.02161 -0.15711,0.01158 -0.2293,-0.03011 -0.072202,-0.04169 -0.11911,-0.10286 -0.14072,-0.18353 -0.021624,-0.08067 -0.011591,-0.15711 0.030094,-0.22931 z m 1.6526995,0.31239 c 0.05215,0.03011 0.09478,0.06742 0.1279,0.11195 0.03314,0.04453 0.05668,0.09289 0.07067,0.14509 0.01397,0.05219 0.01747,0.10636 0.01048,0.16248 -0.007,0.05612 -0.02499,0.10925 -0.05394,0.15939 -0.0301,0.05214 -0.06742,0.09478 -0.11193,0.12791 -0.04452,0.03313 -0.09291,0.05667 -0.14508,0.07066 -0.0522,0.01399 -0.10586,0.01777 -0.16098,0.01135 -0.05513,-0.0064 -0.10875,-0.02469 -0.1609,-0.0548 -0.05012,-0.02894 -0.09227,-0.06597 -0.12638,-0.11107 -0.03415,-0.04512 -0.0582,-0.09377 -0.07217,-0.14596 -0.01399,-0.0522 -0.01776,-0.10585 -0.01135,-0.16098 0.0064,-0.05512 0.02468,-0.10875 0.05479,-0.1609 0.02895,-0.05014 0.06598,-0.09227 0.11108,-0.1264 0.04511,-0.03412 0.09376,-0.05818 0.14595,-0.07217 0.05219,-0.01399 0.10636,-0.01748 0.16249,-0.01048 0.05612,0.007 0.10924,0.02496 0.15938,0.05391 z"
       stroke-width="0.13791"
       id="path58"
       style="fill:#f9f9f9" />
  </g>
</svg>
