<?xml version="1.0" encoding="UTF-8" standalone="no"?>
<svg
   width="16"
   height="16"
   version="1.1"
   id="svg3"
   sodipodi:docname="applications-education-symbolic.svg"
   inkscape:version="1.4 (unknown)"
   xmlns:inkscape="http://www.inkscape.org/namespaces/inkscape"
   xmlns:sodipodi="http://sodipodi.sourceforge.net/DTD/sodipodi-0.dtd"
   xmlns="http://www.w3.org/2000/svg"
   xmlns:svg="http://www.w3.org/2000/svg">
  <defs
     id="defs3" />
  <sodipodi:namedview
     id="namedview3"
     pagecolor="#ffffff"
     bordercolor="#000000"
     borderopacity="0.25"
     inkscape:showpageshadow="2"
     inkscape:pageopacity="0.0"
     inkscape:pagecheckerboard="0"
     inkscape:deskcolor="#d1d1d1"
     inkscape:zoom="48.4375"
     inkscape:cx="8"
     inkscape:cy="8"
     inkscape:window-width="1920"
     inkscape:window-height="998"
     inkscape:window-x="0"
     inkscape:window-y="0"
     inkscape:window-maximized="1"
     inkscape:current-layer="svg3" />
  <path
     style="fill:#1e2431;fill-opacity:1"
     d="M 1,5 7,1.2502939 C 7,1.2502939 7.402263,1 8,1 8.597737,1 9,1.2504075 9,1.2504075 L 15,5 c 0,0 1,0.4387547 1,0.9414634 C 16,6.4441721 15,7 15,7 L 13,8.2510718 9,10.754327 C 9,10.754327 8.6011799,11 8,11 7.3988201,11 7,10.751262 7,10.751262 L 3,8.2466627 2,7.626462 1,7 C 1,7 0,6.4971845 0,6 0,5.502439 1,5 1,5 Z"
     id="path1" />
  <path
     style="fill:#1e2431;fill-opacity:1"
     d="m 8,14 c 2.558444,0 5,-0.415177 5,-2 V 9.2519531 L 9,11.75491 C 9,11.75491 8.5975333,12 8,12 7.4024667,12 7,11.749445 7,11.749445 L 3,9.25 V 12 c 0,1.586851 2.4494837,2 5,2 z"
     id="path2" />
  <path
     style="fill:#1e2431;fill-opacity:1"
     d="M 1,8 2,8.6347656 V 14.5 C 2,14.777344 1.7773437,15 1.5,15 1.2167969,15 1,14.777344 1,14.496094 Z"
     id="path3" />
</svg>
