<?xml version="1.0" encoding="UTF-8" standalone="no"?>
<svg
   width="64"
   version="1.1"
   height="64"
   id="svg15"
   sodipodi:docname="folder-appimage.svg"
   inkscape:version="1.3 (0e150ed6c4, 2023-07-21)"
   xmlns:inkscape="http://www.inkscape.org/namespaces/inkscape"
   xmlns:sodipodi="http://sodipodi.sourceforge.net/DTD/sodipodi-0.dtd"
   xmlns:xlink="http://www.w3.org/1999/xlink"
   xmlns="http://www.w3.org/2000/svg"
   xmlns:svg="http://www.w3.org/2000/svg"
   xmlns:rdf="http://www.w3.org/1999/02/22-rdf-syntax-ns#"
   xmlns:cc="http://creativecommons.org/ns#"
   xmlns:dc="http://purl.org/dc/elements/1.1/">
  <sodipodi:namedview
     pagecolor="#ffffff"
     bordercolor="#666666"
     borderopacity="1"
     objecttolerance="10"
     gridtolerance="10"
     guidetolerance="10"
     inkscape:pageopacity="0"
     inkscape:pageshadow="2"
     inkscape:window-width="1920"
     inkscape:window-height="993"
     id="namedview17"
     showgrid="true"
     inkscape:zoom="6.9384853"
     inkscape:cx="20.969995"
     inkscape:cy="41.939989"
     inkscape:window-x="0"
     inkscape:window-y="0"
     inkscape:window-maximized="1"
     inkscape:current-layer="layer1"
     inkscape:document-rotation="0"
     inkscape:pagecheckerboard="0"
     inkscape:showpageshadow="2"
     inkscape:deskcolor="#d1d1d1">
    <inkscape:grid
       type="xygrid"
       id="grid850"
       originx="0"
       originy="0"
       spacingy="1"
       spacingx="1"
       units="px"
       visible="true" />
  </sodipodi:namedview>
  <defs
     id="defs5455">
    <linearGradient
       id="linearGradient1"
       inkscape:collect="always">
      <stop
         style="stop-color:#278c76;stop-opacity:1;"
         offset="0"
         id="stop3" />
      <stop
         style="stop-color:#00e5b8;stop-opacity:1;"
         offset="1"
         id="stop4" />
    </linearGradient>
    <linearGradient
       inkscape:collect="always"
       xlink:href="#linearGradient1"
       id="linearGradient1493"
       gradientUnits="userSpaceOnUse"
       x1="30.564449"
       y1="1017.235"
       x2="8.6650352"
       y2="1002.36"
       gradientTransform="matrix(0.98463176,0,0,1.0000147,0.03074227,-0.01475258)" />
    <linearGradient
       inkscape:collect="always"
       xlink:href="#linearGradient1"
       id="linearGradient4"
       x1="2.0000003"
       y1="1025.5479"
       x2="62.001003"
       y2="1025.5479"
       gradientUnits="userSpaceOnUse" />
  </defs>
  <metadata
     id="metadata5458">
    <rdf:RDF>
      <cc:Work
         rdf:about="">
        <dc:format>image/svg+xml</dc:format>
        <dc:type
           rdf:resource="http://purl.org/dc/dcmitype/StillImage" />
      </cc:Work>
    </rdf:RDF>
  </metadata>
  <g
     inkscape:label="Capa 1"
     inkscape:groupmode="layer"
     id="layer1"
     transform="translate(-384.57143,-483.798)">
    <g
       transform="matrix(1.0666489,0,0,1.1428404,382.43813,-653.73954)"
       id="g19">
      <rect
         width="60.000999"
         height="22.750345"
         x="2.0000021"
         y="1002.36"
         rx="7.5001268"
         ry="7.0001144"
         style="opacity:1;fill:url(#linearGradient1493);fill-opacity:1;stroke:none;stroke-width:0.992297"
         id="rect11" />
      <path
         d="m 9.5001275,1002.36 c -4.6875786,0 -7.5001312,3.7112 -7.5001254,6.7376 l 5e-7,0.2623 c -5e-7,-2.6248 2.9090002,-5 6.5220005,-5 H 55.479001 c 3.613001,0 6.522002,2.3813 6.522,5 v -0.2623 c 0,-2.9902 -2.812546,-6.7376 -7.500121,-6.7376 z"
         style="opacity:0.2;fill:#ffffff;fill-opacity:1;stroke:none;stroke-width:1"
         id="path13"
         sodipodi:nodetypes="sscsscsss" />
      <path
         d="M 8.5221093,1013.3214 H 18.957282 c 14.348239,-1.3346 11.861149,-6.5863 20.992301,-6.5863 h 15.361992 c 3.613049,0 6.689428,1.4161 6.689428,5.1146 v 26.3858 c 0,3.5001 -2.812548,6.1252 -6.562611,6.1252 H 8.5626114 c -3.7500625,0 -6.5626089,-2.6251 -6.5626093,-6.1252 l -1.8e-6,-19.2404 c -4e-7,-4.0049 2.609044,-5.6737 6.522109,-5.6737 z"
         style="opacity:1;fill:url(#linearGradient4);fill-opacity:1;stroke:none;stroke-width:1.00063"
         id="path15"
         sodipodi:nodetypes="scsssssssss" />
    </g>
    <path
       fill-rule="evenodd"
       clip-rule="evenodd"
       d="m 437.38394,516.32104 c 0.0101,0 0.0167,-0.006 0.027,-0.007 1.26817,0.12488 2.26094,1.18974 2.26094,2.48557 0,1.2985 -0.99399,2.36554 -2.26709,2.48815 -0.002,0.007 -0.007,0.0109 -0.0101,0.0166 -0.01,-6.1e-4 -0.0162,-0.007 -0.027,-0.007 -0.32012,0 -0.67673,0.0564 -0.8092,0.37543 -0.13253,0.31924 0.0548,0.59759 0.30047,0.84113 0.01,0.01 0.0199,0.0116 0.0299,0.0194 0.80224,0.98157 0.7568,2.42094 -0.16256,3.33588 -0.91854,0.91434 -2.36614,0.96079 -3.35282,0.16304 -0.0144,0.01 -0.0303,0.0107 -0.0455,0.0172 -0.008,-0.01 -0.01,-0.0165 -0.0162,-0.0253 -0.22725,-0.22528 -0.51834,-0.43644 -0.83877,-0.3034 -0.32107,0.13184 -0.38488,0.46023 -0.38488,0.80576 0,0.0304 0.0101,0.0591 0.0185,0.0875 -0.15786,1.23056 -1.20656,2.184 -2.48642,2.184 -1.30283,0 -2.37346,-0.98702 -2.50016,-2.25061 -0.0136,-0.006 -0.0259,-0.0124 -0.0398,-0.0172 6.1e-4,-0.007 0.004,-0.011 0.004,-0.0172 0,-0.31863 -0.0563,-0.67269 -0.37697,-0.8045 -0.32048,-0.13255 -0.60053,0.0546 -0.84552,0.29906 -0.0145,0.0142 -0.0224,0.0326 -0.0319,0.0503 -0.98543,0.76787 -2.40792,0.71477 -3.31447,-0.18799 -0.92068,-0.9162 -0.96575,-2.35862 -0.15973,-3.34073 -0.01,-0.0166 -0.0129,-0.035 -0.0206,-0.0534 0.22636,-0.22528 0.43762,-0.51522 0.30485,-0.83386 -0.13307,-0.31857 -0.46371,-0.38328 -0.81054,-0.38328 -0.0232,0 -0.0431,0.01 -0.0645,0.0138 -1.23577,-0.15618 -2.19349,-1.20175 -2.19349,-2.47401 0,-1.30136 0.99857,-2.36869 2.27501,-2.48799 0.004,-0.0112 0.0109,-0.0216 0.0149,-0.0318 0.31558,-0.003 0.6606,-0.062 0.79058,-0.37486 0.13253,-0.31804 -0.0538,-0.59508 -0.29862,-0.83862 -0.80388,-0.98097 -0.75882,-2.42209 0.16129,-3.33775 0.92334,-0.9196 2.38175,-0.96201 3.36844,-0.14984 0.0102,-0.006 0.0213,-0.009 0.0314,-0.0113 0.22444,0.22006 0.51032,0.41967 0.82407,0.29063 0.32044,-0.13216 0.38485,-0.46147 0.38485,-0.80637 0,-8.4e-4 -5.5e-4,-0.002 -5.5e-4,-0.004 0.12716,-1.26272 1.1951,-2.24848 2.49728,-2.24848 1.30988,0 2.38366,0.99686 2.50088,2.26944 0.003,9.1e-4 0.005,0.004 0.008,0.004 0,0.0746 0.005,0.15173 0.0132,0.22706 h -0.01 c 0,0.34487 -0.28089,0.62537 -0.62802,0.62537 -0.34632,0 -0.62754,-0.2805 -0.62754,-0.62537 0,-0.69071 -0.56278,-1.25012 -1.25657,-1.25012 -0.69408,0 -1.25624,0.55941 -1.25624,1.25012 v 0.62537 l -0.005,0.006 c 0.0113,0.41325 -0.25277,0.79903 -0.66951,0.9223 -0.0102,0.004 -0.021,0.004 -0.0304,0.007 l -0.009,0.01 c -0.29378,0.0983 -0.57907,0.21546 -0.85257,0.35339 l -0.0177,-0.003 c -0.0104,0.007 -0.0192,0.0142 -0.03,0.0205 -0.40633,0.21886 -0.90195,0.10932 -1.18101,-0.23742 l -0.39168,-0.38943 c -0.49105,-0.48833 -1.28655,-0.48833 -1.77671,0 -0.49036,0.48835 -0.49036,1.28005 0,1.76773 l 0.44407,0.44223 0.003,0.0184 c 0.29382,0.28561 0.37846,0.73734 0.17326,1.11452 -0.004,0.007 -0.0102,0.01 -0.011,0.0157 l 0.004,0.0213 c -0.13677,0.27258 -0.25642,0.55639 -0.35452,0.84931 l -0.0188,0.0144 c -0.004,0.0109 -0.004,0.022 -0.008,0.0326 -0.13338,0.44616 -0.57105,0.71599 -1.01944,0.66038 h -0.5314 c -0.69402,0 -1.25654,0.56007 -1.25654,1.25012 0,0.68991 0.56252,1.25027 1.25654,1.25027 h 0.62753 l 0.0185,0.0138 c 0.40641,-5.6e-4 0.78264,0.25883 0.90475,0.66594 8.1e-4,0.004 8.1e-4,0.009 0.002,0.0111 l 0.0238,0.0166 c 0.0987,0.29232 0.21712,0.57618 0.35514,0.84839 l -0.007,0.0374 c 0.005,0.009 0.0101,0.0124 0.0132,0.0202 0.21981,0.40405 0.10978,0.8973 -0.23865,1.17504 l -0.38158,0.38027 c -0.49036,0.4877 -0.49036,1.2794 0,1.76773 0.49013,0.4877 1.28574,0.4877 1.7767,0 l 0.4444,-0.4419 0.0181,-0.004 c 0.28646,-0.28442 0.73539,-0.36441 1.10989,-0.16298 0.003,8.3e-4 0.005,0.004 0.008,0.006 l 0.0405,-0.007 c 0.27392,0.13612 0.55911,0.25514 0.85357,0.3528 l 0.0254,0.0326 c 0.005,0.002 0.0101,0.002 0.0125,0.004 0.41036,0.12087 0.67069,0.49688 0.66949,0.90277 l 0.005,0.006 v 0.62556 c 0,0.69041 0.56214,1.25011 1.25623,1.25011 0.69373,0 1.2565,-0.5597 1.2565,-1.25011 v -0.62561 l 0.005,-0.006 c -8e-4,-0.40594 0.25917,-0.78134 0.66955,-0.90276 0.005,-0.002 0.0102,-0.002 0.0129,-0.004 l 0.0251,-0.0318 c 0.2938,-0.0982 0.57872,-0.21547 0.85255,-0.35341 l 0.0416,0.007 c 0.003,-0.002 0.005,-0.004 0.008,-0.006 0.37453,-0.20142 0.82353,-0.12146 1.10995,0.16297 l 0.0185,0.004 0.44434,0.4419 c 0.49014,0.48769 1.28571,0.48769 1.77674,0 0.4904,-0.48833 0.4904,-1.28003 0,-1.76775 l -0.38187,-0.38025 c -0.34839,-0.27774 -0.45823,-0.77099 -0.23832,-1.17509 0.005,-0.009 0.01,-0.0131 0.0128,-0.0202 l -0.007,-0.0418 c 0.13678,-0.27219 0.25736,-0.55234 0.35458,-0.84411 l 0.025,-0.018 c 8.2e-4,-0.004 0.002,-0.008 0.003,-0.0104 0.12172,-0.40715 0.49776,-0.66595 0.9041,-0.66595 l 0.0181,-0.0138 h 0.62834 c 0.69406,0 1.25622,-0.56037 1.25622,-1.25028 0,-0.69005 -0.56216,-1.25011 -1.25622,-1.25011 h -0.53172 c -0.44906,0.0554 -0.88605,-0.21423 -1.01917,-0.66042 -0.004,-0.0109 -0.005,-0.023 -0.008,-0.0336 l -0.0185,-0.0135 c -0.0985,-0.29235 -0.21718,-0.5762 -0.35482,-0.84783 l 0.004,-0.0223 c -0.004,-0.007 -0.01,-0.0108 -0.0109,-0.0161 -0.20521,-0.37724 -0.12052,-0.82897 0.17298,-1.11457 l 0.003,-0.0184 0.4444,-0.44224 c 0.49038,-0.48768 0.49038,-1.27938 0,-1.76772 -0.2331,-0.23128 -0.57415,-0.36346 -0.87928,-0.37537 -0.34717,0 -0.62843,-0.27959 -0.62843,-0.62509 0,-0.3455 0.28126,-0.62503 0.62843,-0.62503 0.0453,0 0.0889,0.005 0.13129,0.0135 0.59072,0.0381 1.18632,0.27989 1.63593,0.72791 0.92276,0.91807 0.96665,2.36593 0.1546,3.34776 0.004,0.007 0.005,0.0127 0.009,0.0191 -0.004,0.003 -0.008,0.004 -0.0101,0.008 -0.2267,0.22584 -0.43859,0.51578 -0.30579,0.83532 0.13237,0.31896 0.46324,0.38308 0.80981,0.38308 z m -4.30746,-3.14606 c -0.34722,0 -0.62814,-0.28016 -0.62814,-0.62537 0,-0.34453 0.28092,-0.62446 0.62814,-0.62446 0.34625,0 0.62745,0.27993 0.62745,0.62446 0,0.34521 -0.2812,0.62537 -0.62745,0.62537 z m -5.65324,7.18831 c 0.34721,0 0.62846,0.27958 0.62846,0.62505 0,0.34545 -0.28125,0.62502 -0.62846,0.62502 -0.34689,0 -0.62811,-0.27957 -0.62811,-0.62502 0,-0.34547 0.28122,-0.62505 0.62811,-0.62505 z m -1.56998,-1.56281 c 0,-2.07112 1.68742,-3.75031 3.76833,-3.75031 2.08125,0 3.7686,1.67919 3.7686,3.75031 0,2.07124 -1.68735,3.75049 -3.7686,3.75049 -0.3469,0 -0.62814,-0.2802 -0.62814,-0.62513 0,-0.3448 0.28124,-0.62561 0.62814,-0.62561 1.38783,0 2.51219,-1.11889 2.51219,-2.49975 0,-1.38077 -1.12439,-2.49988 -2.51219,-2.49988 -1.38746,0 -2.51271,1.11908 -2.51271,2.49988 0,0.34564 -0.28122,0.62518 -0.62753,0.62518 -0.34714,0 -0.62809,-0.27954 -0.62809,-0.62518 z"
       id="path2"
       style="fill:#ccfff5;fill-opacity:1;stroke-width:0.039162" />
  </g>
</svg>
