<?xml version="1.0" encoding="UTF-8" standalone="no"?>
<svg
   width="64"
   version="1.1"
   height="64"
   id="svg15"
   sodipodi:docname="folder-docker.svg"
   inkscape:version="1.3 (0e150ed6c4, 2023-07-21)"
   xmlns:inkscape="http://www.inkscape.org/namespaces/inkscape"
   xmlns:sodipodi="http://sodipodi.sourceforge.net/DTD/sodipodi-0.dtd"
   xmlns:xlink="http://www.w3.org/1999/xlink"
   xmlns="http://www.w3.org/2000/svg"
   xmlns:svg="http://www.w3.org/2000/svg"
   xmlns:rdf="http://www.w3.org/1999/02/22-rdf-syntax-ns#"
   xmlns:cc="http://creativecommons.org/ns#"
   xmlns:dc="http://purl.org/dc/elements/1.1/">
  <sodipodi:namedview
     pagecolor="#ffffff"
     bordercolor="#666666"
     borderopacity="1"
     objecttolerance="10"
     gridtolerance="10"
     guidetolerance="10"
     inkscape:pageopacity="0"
     inkscape:pageshadow="2"
     inkscape:window-width="1920"
     inkscape:window-height="993"
     id="namedview17"
     showgrid="true"
     inkscape:zoom="6.9384853"
     inkscape:cx="25.293705"
     inkscape:cy="27.095251"
     inkscape:window-x="0"
     inkscape:window-y="0"
     inkscape:window-maximized="1"
     inkscape:current-layer="layer1"
     inkscape:document-rotation="0"
     inkscape:pagecheckerboard="0"
     inkscape:showpageshadow="2"
     inkscape:deskcolor="#d1d1d1">
    <inkscape:grid
       type="xygrid"
       id="grid850"
       originx="0"
       originy="0"
       spacingy="1"
       spacingx="1"
       units="px"
       visible="true" />
  </sodipodi:namedview>
  <defs
     id="defs5455">
    <linearGradient
       inkscape:collect="always"
       xlink:href="#linearGradient3"
       id="linearGradient1493"
       gradientUnits="userSpaceOnUse"
       x1="30.564449"
       y1="1017.235"
       x2="8.6650352"
       y2="1002.36"
       gradientTransform="matrix(0.98463176,0,0,1.0000147,0.03074227,-0.01475258)" />
    <linearGradient
       inkscape:collect="always"
       xlink:href="#linearGradient3"
       id="linearGradient2"
       x1="2.0000021"
       y1="1025.9854"
       x2="62.001003"
       y2="1025.9854"
       gradientUnits="userSpaceOnUse" />
    <linearGradient
       inkscape:collect="always"
       id="linearGradient3">
      <stop
         style="stop-color:#3771c8;stop-opacity:1"
         offset="0"
         id="stop1" />
      <stop
         style="stop-color:#87aade;stop-opacity:1"
         offset="1"
         id="stop2" />
    </linearGradient>
  </defs>
  <metadata
     id="metadata5458">
    <rdf:RDF>
      <cc:Work
         rdf:about="">
        <dc:format>image/svg+xml</dc:format>
        <dc:type
           rdf:resource="http://purl.org/dc/dcmitype/StillImage" />
      </cc:Work>
    </rdf:RDF>
  </metadata>
  <g
     inkscape:label="Capa 1"
     inkscape:groupmode="layer"
     id="layer1"
     transform="translate(-384.57143,-483.798)">
    <g
       transform="matrix(1.0666489,0,0,1.1428404,382.43813,-653.73954)"
       id="g19">
      <rect
         width="60.000999"
         height="22.750345"
         x="2.0000021"
         y="1002.36"
         rx="7.5001268"
         ry="7.0001144"
         style="opacity:1;fill:url(#linearGradient1493);fill-opacity:1;stroke:none;stroke-width:0.992297"
         id="rect11" />
      <path
         d="m 9.5001275,1002.36 c -4.6875786,0 -7.5001312,3.7112 -7.5001254,6.7376 l 5e-7,0.2623 c -5e-7,-2.6248 2.9090002,-5 6.5220005,-5 H 55.479001 c 3.613001,0 6.522002,2.3813 6.522,5 v -0.2623 c 0,-2.9902 -2.812546,-6.7376 -7.500121,-6.7376 z"
         style="opacity:0.2;fill:#ffffff;fill-opacity:1;stroke:none;stroke-width:1"
         id="path13"
         sodipodi:nodetypes="sscsscsss" />
      <path
         d="M 8.5221093,1013.3214 H 18.957282 c 14.348239,-1.3346 11.861149,-6.5863 20.992301,-6.5863 h 15.361992 c 3.613049,0 6.689428,1.4161 6.689428,5.1146 v 26.3858 c 0,3.5001 -2.812548,6.1252 -6.562611,6.1252 H 8.5626114 c -3.7500625,0 -6.5626089,-2.6251 -6.5626093,-6.1252 l -1.8e-6,-19.2404 c -4e-7,-4.0049 2.609044,-5.6737 6.522109,-5.6737 z"
         style="opacity:1;fill:url(#linearGradient2);fill-opacity:1;stroke:none;stroke-width:1.00063"
         id="path15"
         sodipodi:nodetypes="scsssssssss" />
    </g>
    <path
       d="m 423.96495,528.798 c -4.56042,0 -7.39352,-3.5124 -7.39352,-9.16673 0,-0.4602 0.36777,-0.83327 0.82143,-0.83327 h 13.26047 c -0.0777,-0.3203 -0.11632,-0.6385 -0.11632,-0.95263 0,-2.12274 1.7817,-3.76587 1.85788,-3.83497 0.31122,-0.28333 0.78459,-0.28333 1.09584,0 0.0758,0.0688 1.85803,1.71223 1.85803,3.83497 0,0.0821 -0.003,0.164 -0.01,0.24613 2.1805,-0.1345 3.95264,1.79704 4.02328,1.8768 0.27919,0.31663 0.27919,0.79497 0,1.1116 -0.0683,0.0763 -1.68713,1.88483 -3.78098,1.88483 -0.53345,0 -1.07413,-0.11527 -1.61651,-0.34356 -1.59728,3.47983 -5.8624,6.17683 -10.00158,6.17683 z m -5.72209,-8.33327 c 0.15365,2.27897 1.05697,6.66654 5.72209,6.66654 3.76681,0 7.79071,-2.71427 8.78626,-5.92727 0.0768,-0.247 0.26232,-0.4439 0.50131,-0.533 0.24222,-0.0895 0.50634,-0.0593 0.72296,0.0792 0.5646,0.36321 1.10544,0.5476 1.60758,0.5476 0.7509,0 1.4562,-0.4097 1.93517,-0.77481 -0.47742,-0.36404 -1.18188,-0.77299 -1.93517,-0.77299 -0.32243,0 -0.66265,0.0807 -1.03956,0.2462 -0.30903,0.13633 -0.66919,0.0664 -0.90736,-0.17528 -0.23824,-0.24185 -0.30725,-0.60629 -0.17328,-0.92048 0.16365,-0.38303 0.24293,-0.72791 0.24293,-1.05517 0,-0.76127 -0.40433,-1.47654 -0.76362,-1.96235 -0.35956,0.48442 -0.76228,1.19849 -0.76228,1.96225 0,0.43217 0.1333,0.89843 0.39628,1.38566 0.13973,0.25824 0.13397,0.57161 -0.0131,0.82507 -0.14757,0.25309 -0.41633,0.40863 -0.70664,0.40863 z"
       id="path2"
       style="fill:#d7e3f4;fill-opacity:1;stroke-width:0.827389" />
    <path
       d="m 428.89394,517.96473 h -2.46449 c -0.45366,0 -0.82144,-0.37327 -0.82144,-0.83346 v -2.5 c 0,-0.4602 0.36778,-0.83327 0.82144,-0.83327 h 2.46449 c 0.45409,0 0.82144,0.37307 0.82144,0.83327 v 2.5 c 0,0.46019 -0.36735,0.83346 -0.82144,0.83346 z m -1.64305,-1.66673 h 0.82161 v -0.83327 h -0.82161 z"
       id="path4"
       style="fill:#d7e3f4;fill-opacity:1;stroke-width:0.827389" />
    <path
       d="m 421.50044,517.96473 h -2.46451 c -0.45367,0 -0.82143,-0.37327 -0.82143,-0.83346 v -2.5 c 0,-0.4602 0.36776,-0.83327 0.82143,-0.83327 h 2.46451 c 0.45367,0 0.82143,0.37307 0.82143,0.83327 v 2.5 c 0,0.46019 -0.36776,0.83346 -0.82143,0.83346 z m -1.64307,-1.66673 h 0.82162 v -0.83327 h -0.82162 z"
       id="path6"
       style="fill:#d7e3f4;fill-opacity:1;stroke-width:0.827389" />
    <path
       d="m 423.96495,515.46473 h -2.46451 c -0.45367,0 -0.82145,-0.37327 -0.82145,-0.83346 v -2.5 c 0,-0.4602 0.36778,-0.83327 0.82145,-0.83327 h 2.46451 c 0.45366,0 0.82144,0.37307 0.82144,0.83327 v 2.5 c 0,0.46019 -0.36778,0.83346 -0.82144,0.83346 z m -1.64308,-1.66673 h 0.82164 v -0.83327 h -0.82164 z"
       id="path8"
       style="fill:#d7e3f4;fill-opacity:1;stroke-width:0.827389" />
    <path
       d="m 423.96495,517.96473 h -2.46451 c -0.45367,0 -0.82145,-0.37327 -0.82145,-0.83346 v -2.5 c 0,-0.4602 0.36778,-0.83327 0.82145,-0.83327 h 2.46451 c 0.45366,0 0.82144,0.37307 0.82144,0.83327 v 2.5 c 0,0.46019 -0.36778,0.83346 -0.82144,0.83346 z m -1.64308,-1.66673 h 0.82164 v -0.83327 h -0.82164 z"
       id="path10"
       style="fill:#d7e3f4;fill-opacity:1;stroke-width:0.827389" />
    <path
       d="m 426.42945,512.96473 h -2.4645 c -0.45367,0 -0.82144,-0.37327 -0.82144,-0.83346 v -2.5 c 0,-0.4602 0.36777,-0.83327 0.82144,-0.83327 h 2.4645 c 0.45365,0 0.82144,0.37307 0.82144,0.83327 v 2.5 c 0,0.46019 -0.36779,0.83346 -0.82144,0.83346 z m -1.64306,-1.66673 h 0.82162 v -0.83327 h -0.82162 z"
       id="path12"
       style="fill:#d7e3f4;fill-opacity:1;stroke-width:0.827389" />
    <path
       d="m 426.42945,515.46473 h -2.4645 c -0.45367,0 -0.82144,-0.37327 -0.82144,-0.83346 v -2.5 c 0,-0.4602 0.36777,-0.83327 0.82144,-0.83327 h 2.4645 c 0.45365,0 0.82144,0.37307 0.82144,0.83327 v 2.5 c 0,0.46019 -0.36779,0.83346 -0.82144,0.83346 z m -1.64306,-1.66673 h 0.82162 v -0.83327 h -0.82162 z"
       id="path14"
       style="fill:#d7e3f4;fill-opacity:1;stroke-width:0.827389" />
    <path
       d="m 426.42945,517.96473 h -2.4645 c -0.45367,0 -0.82144,-0.37327 -0.82144,-0.83346 v -2.5 c 0,-0.4602 0.36777,-0.83327 0.82144,-0.83327 h 2.4645 c 0.45365,0 0.82144,0.37307 0.82144,0.83327 v 2.5 c 0,0.46019 -0.36779,0.83346 -0.82144,0.83346 z m -1.64306,-1.66673 h 0.82162 v -0.83327 h -0.82162 z"
       id="path16"
       style="fill:#d7e3f4;fill-opacity:1;stroke-width:0.827389" />
    <ellipse
       cx="421.08966"
       cy="522.54828"
       id="circle18"
       style="fill:#d7e3f4;fill-opacity:1;stroke-width:0.827389"
       rx="1.2322502"
       ry="1.249999" />
  </g>
</svg>
