<svg xmlns="http://www.w3.org/2000/svg" height="64" width="64">
    <path d="M11.67 56.08c0 1.71 1.71 3.42 3.417 3.42h33.996c1.709 0 3.417-1.71 3.417-3.42V27.017c0-1.71 0-1.71-1.708-3.42L35.417 8.21C34.51 7.524 33.708 6.5 32 6.5H14.917c-1.709 0-3.417 1.71-3.417 3.42z" fill="#323232" stroke="#323232"/>
    <path fill="#807F7F" d="M15 59h34v1H15z"/>
        <g
      transform="scale(2 2) translate(8 11)"
     id="g2522">     <path fill="#FF19C5" color="#807F7F" d="M5 2a1 1 0 0 0-1 1 1 1 0 0 0 1 1 1 1 0 0 0 1-1 1 1 0 0 0-1-1m5 0L8.06 3.563l2.596 3.218-2.437 2.438L10 11l4-4zM3.5 6A1.5 1.5 0 0 0 2 7.5 1.5 1.5 0 0 0 3.5 9 1.5 1.5 0 0 0 5 7.5 1.5 1.5 0 0 0 3.5 6m3 5A1.5 1.5 0 0 0 5 12.5 1.5 1.5 0 0 0 6.5 14 1.5 1.5 0 0 0 8 12.5 1.5 1.5 0 0 0 6.5 11"/>
    </g>
</svg>
