<svg xmlns="http://www.w3.org/2000/svg" height="64" width="64">
    <path d="M11.67 56.08c0 1.71 1.71 3.42 3.417 3.42h33.996c1.709 0 3.417-1.71 3.417-3.42V27.017c0-1.71 0-1.71-1.708-3.42L35.417 8.21C34.51 7.524 33.708 6.5 32 6.5H14.917c-1.709 0-3.417 1.71-3.417 3.42z" fill="#323232" stroke="#323232"/>
    <path fill="#807F7F" d="M15 59h34v1H15z"/>
        <g
      transform="scale(2 2) translate(8 11)"
     id="g2522">     <path fill="#FE8C19" color="#807F7F" d="M7.5 2v1.125c-.843.078-1.507.291-2 .688-.542.432-.813 1.072-.813 1.906 0 1.165.697 1.921 2.125 2.281l.688.188v3.688c-.887-.079-1.719-.273-2.5-.656l-.344.906c.318.195.752.379 1.281.531.465.129.988.186 1.563.219v1.125h1v-1.125c.85-.068 1.533-.327 2.031-.781.534-.483.812-1.183.813-2.094 0-.737-.2-1.289-.594-1.688-.394-.403-.987-.693-1.75-.875l-.5-.125v-3.25c.386.029.787.083 1.156.188.424.114.742.262 1 .406l.313-.906c-.64-.399-1.461-.637-2.469-.688V2h-.75zm-.219 2.094c.065-.011.149.008.219 0v2.969L7.219 7c-.47-.114-.825-.284-1.063-.5-.233-.22-.344-.515-.344-.875 0-.856.483-1.366 1.469-1.531M8.5 8.407l.188.063c.576.144.971.34 1.188.594.22.25.312.593.313 1 0 1.133-.563 1.735-1.688 1.844z"/>
    </g>
</svg>
