<?xml version="1.0" encoding="UTF-8" standalone="no"?>
<svg
   height="64"
   width="64"
   version="1.1"
   id="svg3"
   sodipodi:docname="application-x-root.svg"
   inkscape:version="1.3.2 (091e20ef0f, 2023-11-25)"
   xmlns:inkscape="http://www.inkscape.org/namespaces/inkscape"
   xmlns:sodipodi="http://sodipodi.sourceforge.net/DTD/sodipodi-0.dtd"
   xmlns="http://www.w3.org/2000/svg"
   xmlns:svg="http://www.w3.org/2000/svg">
  <defs
     id="defs3" />
  <sodipodi:namedview
     id="namedview3"
     pagecolor="#ffffff"
     bordercolor="#000000"
     borderopacity="0.25"
     inkscape:showpageshadow="2"
     inkscape:pageopacity="0.0"
     inkscape:pagecheckerboard="0"
     inkscape:deskcolor="#d1d1d1"
     inkscape:zoom="11.984375"
     inkscape:cx="31.958279"
     inkscape:cy="32"
     inkscape:window-width="1920"
     inkscape:window-height="994"
     inkscape:window-x="0"
     inkscape:window-y="0"
     inkscape:window-maximized="1"
     inkscape:current-layer="svg3" />
  <path
     d="M11.67 56.08c0 1.71 1.71 3.42 3.417 3.42h33.996c1.709 0 3.417-1.71 3.417-3.42V27.017c0-1.71 0-1.71-1.708-3.42L35.417 8.21C34.51 7.524 33.708 6.5 32 6.5H14.917c-1.709 0-3.417 1.71-3.417 3.42z"
     fill="#323232"
     stroke="#323232"
     id="path1" />
  <path
     fill="#19FEFE"
     d="M15 59h34v1H15z"
     id="path2" />
  <g
     transform="matrix(5.7492128,0,0,5.7492128,15.006469,20.012917)"
     id="g2522">
    <path
       d="M 2.303,0.53 1.889,2.963 1.471,2.079 0.265,2.77 A 2.176,2.185 0 0 0 0.297,2.866 L 1.348,2.38 1.988,3.704 2.478,0.67 3.968,0.642 A 2.176,2.185 0 0 0 3.893,0.555 Z"
       fill="#19fefe"
       id="path3" />
  </g>
</svg>
