<svg xmlns="http://www.w3.org/2000/svg" height="64" width="64">
    <path d="M11.67 56.08c0 1.71 1.71 3.42 3.417 3.42h33.996c1.709 0 3.417-1.71 3.417-3.42V27.017c0-1.71 0-1.71-1.708-3.42L35.417 8.21C34.51 7.524 33.708 6.5 32 6.5H14.917c-1.709 0-3.417 1.71-3.417 3.42z" fill="#323232" stroke="#323232"/>
    <path fill="#807F7F" d="M15 59h34v1H15z"/>
        <g
      transform="scale(2 2) translate(8 11)"
     id="g2522">     <path fill="#807F7F" d="M2 2v12h12V2zm1 1h10v10H3zm1 1v2h8V4zm0 3v1h3V7zm5 0v1h3V7zM4 9v1h3V9zm5 0v1h3V9zm-5 2v1h3v-1zm5 0v1h3v-1z"/>
    </g>
</svg>
