<svg xmlns="http://www.w3.org/2000/svg" height="64" width="64">
    <path d="M11.67 56.08c0 1.71 1.71 3.42 3.417 3.42h33.996c1.709 0 3.417-1.71 3.417-3.42V27.017c0-1.71 0-1.71-1.708-3.42L35.417 8.21C34.51 7.524 33.708 6.5 32 6.5H14.917c-1.709 0-3.417 1.71-3.417 3.42z" fill="#323232" stroke="#323232"/>
    <path fill="#FE8C19" d="M15 59h34v1H15z"/>
        <g
      transform="scale(2 2) translate(8 11)"
     id="g2522">     <g fill="#FE8C19">
        <path d="M7 2c-1.108 0-2 .892-2 2h3v1H4c-1.108 0-2 .892-2 2v2c0 1.108.892 2 2 2v-1c0-.889.39-1.676 1-2.225l.002-.002a3.02 3.02 0 0 1 .426-.32s.003 0 .004-.002c.149-.093.305-.172.47-.238.03-.012.062-.02.092-.03.14-.05.285-.096.434-.126.186-.036.377-.057.574-.057h4V4c0-1.108-.892-2-2-2zm0 .5a.499.499 0 1 1 0 1 .499.499 0 1 1 0-1zM12 8l-1.5 1.5.707.707.793-.793V13h-1v1h3v-1h-1V8z"/>
        <path d="M8 8a1.79 1.79 0 0 0-1.475.8C6.173 9.324 6 10.045 6 11c0 .956.173 1.677.525 2.2.353.521.917.8 1.475.8a1.79 1.79 0 0 0 1.475-.8c.352-.523.525-1.244.525-2.2 0-.956-.173-1.677-.525-2.2A1.79 1.79 0 0 0 8 8zm0 1c.27 0 .456.078.646.36.035.05.066.12.098.189l-1.73 1.73C7.009 11.186 7 11.102 7 11c0-.83.163-1.359.354-1.64.19-.282.375-.36.646-.36zm.986 1.72c.005.094.014.178.014.28 0 .83-.163 1.359-.354 1.64-.19.282-.375.36-.646.36-.27 0-.456-.078-.646-.36-.035-.05-.066-.12-.098-.189z"/>
    </g>
    </g>
</svg>
