<svg xmlns="http://www.w3.org/2000/svg" height="64" width="64">
    <path d="M11.67 56.08c0 1.71 1.71 3.42 3.417 3.42h33.996c1.709 0 3.417-1.71 3.417-3.42V27.017c0-1.71 0-1.71-1.708-3.42L35.417 8.21C34.51 7.524 33.708 6.5 32 6.5H14.917c-1.709 0-3.417 1.71-3.417 3.42z" fill="#323232" stroke="#323232"/>
    <path fill="#FF19C5" d="M15 59h34v1H15z"/>
        <g
      transform="scale(2 2) translate(8 11)"
     id="g2522">     <path fill="#FF19C5" d="M6.751 12.58c-.979 0-1.646-.489-1.468-1.735.222-1.557 1.157-2.069 4.115-2.491.022 0 .934-.156.934-.156l-.378 2.758c-.801 1-2.246 1.623-3.203 1.623m3.047-.133l.044 1.29h1.268l1.157-8.341c.356-2.535-1.09-3.27-3.114-3.27-1.446 0-2.869.423-3.714.912l.245 1.379a7.949 7.949 0 0 1 3.292-.756c1.401 0 1.913.689 1.735 2.024l-.2 1.268-1.045.133c-2.691.423-5.316.845-5.738 3.825-.311 2.135.956 3.092 2.647 3.092 1.068 0 2.38-.4 3.425-1.557"/>
    </g>
</svg>
