<?xml version="1.0" encoding="UTF-8" standalone="no"?>
<svg
   height="64"
   width="64"
   version="1.1"
   id="svg3"
   sodipodi:docname="application-x-labplot2.svg"
   inkscape:version="1.3.2 (091e20ef0f, 2023-11-25)"
   xmlns:inkscape="http://www.inkscape.org/namespaces/inkscape"
   xmlns:sodipodi="http://sodipodi.sourceforge.net/DTD/sodipodi-0.dtd"
   xmlns="http://www.w3.org/2000/svg"
   xmlns:svg="http://www.w3.org/2000/svg">
  <defs
     id="defs3" />
  <sodipodi:namedview
     id="namedview3"
     pagecolor="#ffffff"
     bordercolor="#000000"
     borderopacity="0.25"
     inkscape:showpageshadow="2"
     inkscape:pageopacity="0.0"
     inkscape:pagecheckerboard="0"
     inkscape:deskcolor="#d1d1d1"
     inkscape:zoom="11.984375"
     inkscape:cx="31.958279"
     inkscape:cy="32"
     inkscape:window-width="1920"
     inkscape:window-height="994"
     inkscape:window-x="0"
     inkscape:window-y="0"
     inkscape:window-maximized="1"
     inkscape:current-layer="svg3" />
  <path
     d="M11.67 56.08c0 1.71 1.71 3.42 3.417 3.42h33.996c1.709 0 3.417-1.71 3.417-3.42V27.017c0-1.71 0-1.71-1.708-3.42L35.417 8.21C34.51 7.524 33.708 6.5 32 6.5H14.917c-1.709 0-3.417 1.71-3.417 3.42z"
     fill="#323232"
     stroke="#323232"
     id="path1" />
  <path
     d="M15 59h34v1H15z"
     id="path2"
     style="fill:#bfbfbf;fill-opacity:1" />
  <path
     d="m 21.083442,37.185751 c 7.043,0 8.346,8.962 11.453,8.99 3.107,0.024 4.507,-9.011 11.547,-9.011"
     id="path17"
     inkscape:connector-curvature="0"
     style="fill:none;stroke:#1d99f3" />
  <path
     d="m 21.083442,36.217751 c 7.043,0 8.475,-6.101 11.485,-6.095 2.99,0.007 4.475,7.042 11.515,7.042"
     id="path19"
     inkscape:connector-curvature="0"
     style="fill:none;stroke:#da4453" />
  <path
     d="m 21.083442,36.217751 c 7.043,0 7.47,-10.014 11.47,-10.014 4,0 4.49,10.96 11.53,10.96"
     id="path21"
     inkscape:connector-curvature="0"
     style="fill:none;stroke:#d6d6d6" />
  <g
     id="g29"
     style="fill:#d6d6d6"
     transform="translate(0.08344198,5.672751)">
    <path
       d="m 20,20 h 1 v 23 h -1 z"
       id="path23"
       inkscape:connector-curvature="0"
       style="color:#000000" />
    <path
       d="m 20,31 h 24 v 1 H 20 Z"
       id="path25"
       inkscape:connector-curvature="0" />
    <path
       d="m 26,30 h 1 v 3 h -1 z m 6,0 h 1 v 3 h -1 z m 6,0 h 1 v 3 h -1 z"
       id="path27"
       inkscape:connector-curvature="0" />
  </g>
</svg>
