<svg xmlns="http://www.w3.org/2000/svg" height="64" width="64">
    <path d="M11.67 56.08c0 1.71 1.71 3.42 3.417 3.42h33.996c1.709 0 3.417-1.71 3.417-3.42V27.017c0-1.71 0-1.71-1.708-3.42L35.417 8.21C34.51 7.524 33.708 6.5 32 6.5H14.917c-1.709 0-3.417 1.71-3.417 3.42z" fill="#323232" stroke="#323232"/>
    <path fill="#807F7F" d="M15 59h34v1H15z"/>
        <g
      transform="scale(2 2) translate(8 11)"
     id="g2522">     <path fill="#19FEC5" color="#807F7F" d="M7.5 3a5.5 5.5 0 1 0 0 11 5.5 5.5 0 1 0 0-11m0 1C9.985 4 12 6.01 12 8.5c0 2.485-2.01 4.5-4.5 4.5C5.015 13 3 10.99 3 8.5 3 6.015 5.01 4 7.5 4M7 5v1h1V5zm0 2v5h1V7z"/>
    </g>
</svg>
