<svg xmlns="http://www.w3.org/2000/svg" height="64" width="64">
    <path d="M11.67 56.08c0 1.71 1.71 3.42 3.417 3.42h33.996c1.709 0 3.417-1.71 3.417-3.42V27.017c0-1.71 0-1.71-1.708-3.42L35.417 8.21C34.51 7.524 33.708 6.5 32 6.5H14.917c-1.709 0-3.417 1.71-3.417 3.42z" fill="#323232" stroke="#323232"/>
    <path fill="#FE8C19" d="M15 59h34v1H15z"/>
        <g
      transform="scale(2 2) translate(8 11)"
     id="g2522">     <path fill="#FE8C19" d="M7.38 1.954a.5.5 0 0 0-.345.146.5.5 0 0 0 0 .707l3.205 3.205a4 4 0 0 0-.24-.01H2.5a.5.5 0 0 0-.5.5.5.5 0 0 0 .5.5h4.793L2.147 12.15a.5.5 0 0 0 0 .707.5.5 0 0 0 .707 0l3.164-3.164a4 4 0 0 0-.018.31 4 4 0 0 0 4 4 4 4 0 0 0 4-4 4 4 0 0 0-.96-2.595l.005-.01-.135-.135a4 4 0 0 0-.203-.204L7.742 2.093a.5.5 0 0 0-.361-.146zM10 7.004a3 3 0 0 1 1.996.764l.227.227a3 3 0 0 1 .777 2.01 3 3 0 0 1-3 3 3 3 0 0 1-3-3 3 3 0 0 1 3-3m0 2a1 1 0 0 0-1 1 1 1 0 0 0 1 1 1 1 0 0 0 1-1 1 1 0 0 0-1-1"/>
    </g>
</svg>
