<svg xmlns="http://www.w3.org/2000/svg" height="64" width="64">
    <path d="M11.67 56.08c0 1.71 1.71 3.42 3.417 3.42h33.996c1.709 0 3.417-1.71 3.417-3.42V27.017c0-1.71 0-1.71-1.708-3.42L35.417 8.21C34.51 7.524 33.708 6.5 32 6.5H14.917c-1.709 0-3.417 1.71-3.417 3.42z" fill="#323232" stroke="#323232"/>
    <path fill="#807F7F" d="M15 59h34v1H15z"/>
        <g
      transform="scale(2 2) translate(8 11)"
     id="g2522">     <path fill="#807F7F" d="M2.093 1.66c-.03 0-.053 0-.068.018-.479.479 6.067 6.488 6.067 6.488l2.453 2.334c-.791 1.845 1.688 1.875 2.223 2.811.235.41-.051.967-.478.996.849.28 1.992-1.35 1.648-2.27-.41-1.099-.826-1.575-1.606-1.909-.322-.138-1.141-.149-1.427.012L8.632 7.627S3.023 1.74 2.094 1.659m1.034 5.834c-.217.001-.284.315-.284.745.041.85.579 3.33 3.25 5.137 2.249 1.522 6.365.972 6.298.108-.905-1.124-2.419-.423-2.439-3.114-.88.01-1.828-.131-1.793.24.148 1.552-2.313.433-3.267-1.15-.958-1.451-1.486-1.966-1.765-1.965m3.507 1.915c-.146 0-.263.048-.319.144-.111.192.069.505.403.698.334.193.695.193.806.001.111-.192-.07-.505-.404-.697-.167-.096-.486.001-.486-.145"/>
    </g>
</svg>
