<svg xmlns="http://www.w3.org/2000/svg" height="64" width="64">
    <path d="M11.67 56.08c0 1.71 1.71 3.42 3.417 3.42h33.996c1.709 0 3.417-1.71 3.417-3.42V27.017c0-1.71 0-1.71-1.708-3.42L35.417 8.21C34.51 7.524 33.708 6.5 32 6.5H14.917c-1.709 0-3.417 1.71-3.417 3.42z" fill="#323232" stroke="#323232"/>
    <path fill="#198CFE" d="M15 59h34v1H15z"/>
        <g
      transform="scale(2 2) translate(8 11)"
     id="g2522">     <path fill="#198CFE" d="M11.689 2.189L10.068 3.81H5.101a1.5 1.5 0 0 0-1.412-1 1.5 1.5 0 0 0-1.5 1.5 1.5 1.5 0 0 0 1 1.412v7.088h3v1h3v-1h3V5.931l1.62-1.62zm0 1.414l.707.707-.707.707-.707-.707zm-8 .207a.5.5 0 0 1 .5.5.5.5 0 0 1-.5.5.5.5 0 0 1-.5-.5.5.5 0 0 1 .5-.5m1.412 1h4.967l1.121 1.121v5.879h-2v-1h-3v1h-2V5.722a1.5 1.5 0 0 0 .912-.912m2.088 7h1v1h-1z"/>
    </g>
</svg>
