<svg xmlns="http://www.w3.org/2000/svg" height="64" width="64">
    <path d="M11.67 56.08c0 1.71 1.71 3.42 3.417 3.42h33.996c1.709 0 3.417-1.71 3.417-3.42V27.017c0-1.71 0-1.71-1.708-3.42L35.417 8.21C34.51 7.524 33.708 6.5 32 6.5H14.917c-1.709 0-3.417 1.71-3.417 3.42z" fill="#323232" stroke="#323232"/>
    <path fill="#807F7F" d="M15 59h34v1H15z"/>
        <g
      transform="scale(2 2) translate(8 11)"
     id="g2522">     <path color="#807F7F" d="M2 2.5v11h12v-11zm1 2h10v8H3zm2 1v2.552h2.508V5.5zm3.514 0v2.552H11V5.5zM5 8.948V11.5h2.508V8.948zm3.514 0V11.5H11V8.948z" fill="#807F7F"/>
    </g>
</svg>
