<?xml version="1.0" encoding="UTF-8" standalone="no"?>
<svg
   height="64"
   width="64"
   version="1.1"
   id="svg3"
   sodipodi:docname="application-x-accountwizard-package.svg"
   inkscape:version="1.3.2 (091e20ef0f, 2023-11-25)"
   xmlns:inkscape="http://www.inkscape.org/namespaces/inkscape"
   xmlns:sodipodi="http://sodipodi.sourceforge.net/DTD/sodipodi-0.dtd"
   xmlns:xlink="http://www.w3.org/1999/xlink"
   xmlns="http://www.w3.org/2000/svg"
   xmlns:svg="http://www.w3.org/2000/svg">
  <defs
     id="defs3">
    <linearGradient
       id="linearGradient3"
       inkscape:collect="always">
      <stop
         style="stop-color:#d4b2ff;stop-opacity:0.10196079;"
         offset="0"
         id="stop3" />
      <stop
         style="stop-color:#70a9ff;stop-opacity:0.80000001;"
         offset="1"
         id="stop4" />
    </linearGradient>
    <linearGradient
       inkscape:collect="always"
       xlink:href="#linearGradient3"
       id="linearGradient4"
       x1="17.007172"
       y1="11.471969"
       x2="49.579529"
       y2="55.112125"
       gradientUnits="userSpaceOnUse" />
  </defs>
  <sodipodi:namedview
     id="namedview3"
     pagecolor="#ffffff"
     bordercolor="#000000"
     borderopacity="0.25"
     inkscape:showpageshadow="2"
     inkscape:pageopacity="0.0"
     inkscape:pagecheckerboard="0"
     inkscape:deskcolor="#d1d1d1"
     inkscape:zoom="11.984375"
     inkscape:cx="31.958279"
     inkscape:cy="32"
     inkscape:window-width="1920"
     inkscape:window-height="994"
     inkscape:window-x="0"
     inkscape:window-y="0"
     inkscape:window-maximized="1"
     inkscape:current-layer="svg3" />
  <path
     d="M11.67 56.08c0 1.71 1.71 3.42 3.417 3.42h33.996c1.709 0 3.417-1.71 3.417-3.42V27.017c0-1.71 0-1.71-1.708-3.42L35.417 8.21C34.51 7.524 33.708 6.5 32 6.5H14.917c-1.709 0-3.417 1.71-3.417 3.42z"
     id="path1"
     style="fill:url(#linearGradient4)" />
  <path
     d="M15 59h34v1H15z"
     id="path2"
     style="fill:#cdcbcb;fill-opacity:1" />
  <g
     transform="scale(2 2) translate(8 11)"
     id="g2522">
    <path
       d="M8 2a6 6 0 1 0 0 12A6 6 0 0 0 8 2m0 1a5 5 0 1 1-.001 10.001A5 5 0 0 1 8 3m0 2a3 3 0 0 0-3 3 3 3 0 0 0 3 3 3 3 0 0 0 2.396-1.201l-.799-.6a2 2 0 0 1-1.597.8 2 2 0 0 1-2-2 2 2 0 0 1 2-2 2 2 0 0 1 1.6.801l.796-.6A3 3 0 0 0 8 5"
       id="path3"
       style="fill:#cdcbcb;fill-opacity:1" />
  </g>
</svg>
