<svg xmlns="http://www.w3.org/2000/svg" height="64" width="64">
    <path d="M11.67 56.08c0 1.71 1.71 3.42 3.417 3.42h33.996c1.709 0 3.417-1.71 3.417-3.42V27.017c0-1.71 0-1.71-1.708-3.42L35.417 8.21C34.51 7.524 33.708 6.5 32 6.5H14.917c-1.709 0-3.417 1.71-3.417 3.42z" fill="#323232" stroke="#323232"/>
    <path fill="#807F7F" d="M15 59h34v1H15z"/>
        <g
      transform="scale(2 2) translate(8 11)"
     id="g2522">     <g fill="#807F7F">
        <path d="M2 2v12h12V2zm1 3h10v8c-3.551-.037-6.45-.077-10 0z"/>
        <path d="M8.338 10.19L7.306 9.17l.012-.012a7.109 7.109 0 0 0 1.507-2.652h1.19v-.813H7.172v-.812H6.36v.812H3.517v.808h4.537a6.38 6.38 0 0 1-1.288 2.177 6.294 6.294 0 0 1-.938-1.361h-.812a7.131 7.131 0 0 0 1.211 1.852l-2.068 2.039.577.577 2.031-2.031 1.263 1.263zm2.287-2.06h-.812l-1.828 4.875h.812l.455-1.219h1.93l.459 1.219h.812zm-1.064 2.843l.658-1.759.658 1.759z"/>
    </g>
    </g>
</svg>
