<svg xmlns="http://www.w3.org/2000/svg" height="64" width="64">
    <path d="M11.67 56.08c0 1.71 1.71 3.42 3.417 3.42h33.996c1.709 0 3.417-1.71 3.417-3.42V27.017c0-1.71 0-1.71-1.708-3.42L35.417 8.21C34.51 7.524 33.708 6.5 32 6.5H14.917c-1.709 0-3.417 1.71-3.417 3.42z" fill="#323232" stroke="#323232"/>
    <path fill="#807F7F" d="M15 59h34v1H15z"/>
        <g
      transform="scale(2 2) translate(8 11)"
     id="g2522">     <path d="M12 4.293L8.293 8 12 11.707l.354-.353L15.707 8z" fill="#FE8C19"/>
    <path d="M4 2v12h3.5a.5.5 0 0 0 .5-.5v-8a.5.5 0 0 0-.5-.5H5V2zm1 4h2v7H5zM1.5 2a.5.5 0 0 0-.5.5V5H0v1h1v8h1V6h1V5H2V3h1V2z" fill="currentColor" color="#807F7F"/>
    </g>
</svg>
