<svg xmlns="http://www.w3.org/2000/svg" height="64" width="64">
    <path d="M11.67 56.08c0 1.71 1.71 3.42 3.417 3.42h33.996c1.709 0 3.417-1.71 3.417-3.42V27.017c0-1.71 0-1.71-1.708-3.42L35.417 8.21C34.51 7.524 33.708 6.5 32 6.5H14.917c-1.709 0-3.417 1.71-3.417 3.42z" fill="#323232" stroke="#323232"/>
    <path fill="#FE1919" d="M15 59h34v1H15z"/>
        <g
      transform="scale(2 2) translate(8 11)"
     id="g2522">     <path fill="#FE1919" d="M12.299 4.46l-2.991.492c.043 1.86-1.94 3.153-3.8-.352l-3.519.493c.548 1.895 2.514 2.128 3.825 3.124-.656.935-3.634.372-3.555 3.289l2.991-.493c-.043-1.86 3.408-3.426 5.269.078l3.519-.493c-.549-1.899-2.638-2.08-3.95-3.083.65-1.358 2.8-.137 2.211-3.057"/>
    </g>
</svg>
