<svg xmlns="http://www.w3.org/2000/svg" height="64" width="64">
    <path d="M11.67 56.08c0 1.71 1.71 3.42 3.417 3.42h33.996c1.709 0 3.417-1.71 3.417-3.42V27.017c0-1.71 0-1.71-1.708-3.42L35.417 8.21C34.51 7.524 33.708 6.5 32 6.5H14.917c-1.709 0-3.417 1.71-3.417 3.42z" fill="#323232" stroke="#323232"/>
    <path fill="#19C5FF" d="M15 59h34v1H15z"/>
        <g
      transform="scale(2 2) translate(8 11)"
     id="g2522">     <path fill="#19C5FF" d="M2 2v1h12V2zm4.268 2l.018.486L9.716 9l-3.715 4.445V14h8v-2.777h-.572c0 .555.15.9-.338 1.232-.534.365-1.238.434-1.857.434H8.287L11.144 9 8.287 4.555h1.68c1.191 0 2.886-.107 3.357 1.285.081.238.085.688.105.938h.572V4.001zM2 5v1h4V5zm0 2v1h5V7zm0 3v1h5v-1zm0 2v1h4v-1z"/>
    </g>
</svg>
