<svg xmlns="http://www.w3.org/2000/svg" height="64" width="64">
    <path d="M11.67 56.08c0 1.71 1.71 3.42 3.417 3.42h33.996c1.709 0 3.417-1.71 3.417-3.42V27.017c0-1.71 0-1.71-1.708-3.42L35.417 8.21C34.51 7.524 33.708 6.5 32 6.5H14.917c-1.709 0-3.417 1.71-3.417 3.42z" fill="#323232" stroke="#323232"/>
    <path fill="#807F7F" d="M15 59h34v1H15z"/>
        <g
      transform="scale(2 2) translate(8 11)"
     id="g2522">     <path fill="#198CFE" color="#807F7F" d="M9.09 2L5.944 13.74l.967.26 3.146-11.74zM5.285 4L2.324 7.145 2 7.493l.324.346 2.943 3.162.715-.695-2.621-2.813L6 4.696zM12 4c-1.108 0-2 .892-2 2v1h1V6c0-.554.446-1 1-1s1 .446 1 1v1c-1.108 0-2 .892-2 2h1c0-.554.446-1 1-1h1V6c0-1.108-.892-2-2-2m-.5 6a.5.5 0 0 0-.5.5.5.5 0 0 0 .5.5.5.5 0 0 0 .5-.5.5.5 0 0 0-.5-.5"/>
    </g>
</svg>
