<svg xmlns="http://www.w3.org/2000/svg" height="64" width="64">
    <path d="M11.67 56.08c0 1.71 1.71 3.42 3.417 3.42h33.996c1.709 0 3.417-1.71 3.417-3.42V27.017c0-1.71 0-1.71-1.708-3.42L35.417 8.21C34.51 7.524 33.708 6.5 32 6.5H14.917c-1.709 0-3.417 1.71-3.417 3.42z" fill="#323232" stroke="#323232"/>
    <path fill="#FF19C5" d="M15 59h34v1H15z"/>
        <g
      transform="scale(2 2) translate(8 11)"
     id="g2522">     <path fill="#FF19C5" d="M8 2a6 2 0 0 0-6 2v4a6 2 0 0 0 5 1.97V12H5v-1H2v3h3v-1h6v1h3v-3h-3v1H9V9.971A6 2 0 0 0 14 8V4a6 2 0 0 0-6-2m0 1a5 1 0 0 1 5 1 5 1 0 0 1-5 1 5 1 0 0 1-5-1 5 1 0 0 1 5-1M3 5.102A6 2 0 0 0 8 6a6 2 0 0 0 5-.896V8a5 1 0 0 1-5 1 5 1 0 0 1-5-1V6.896zM3 12h1v1H3zm9 0h1v1h-1z"/>
    </g>
</svg>
