<svg xmlns="http://www.w3.org/2000/svg" height="64" width="64">
    <path d="M11.67 56.08c0 1.71 1.71 3.42 3.417 3.42h33.996c1.709 0 3.417-1.71 3.417-3.42V27.017c0-1.71 0-1.71-1.708-3.42L35.417 8.21C34.51 7.524 33.708 6.5 32 6.5H14.917c-1.709 0-3.417 1.71-3.417 3.42z" fill="#323232" stroke="#323232"/>
    <path fill="#FE8C19" d="M15 59h34v1H15z"/>
        <g
      transform="scale(2 2) translate(8 11)"
     id="g2522">     <path d="M7 2c-1.108 0-2 .892-2 2h3v1H4c-1.108 0-2 .892-2 2v2c0 1.108.892 2 2 2v-1c0-.889.39-1.676 1-2.225l.002-.002a3.02 3.02 0 0 1 .426-.32l.004-.002a2.97 2.97 0 0 1 .471-.238c.03-.012.062-.019.092-.029.14-.051.283-.097.432-.127.186-.036.377-.057.574-.057h4V4c0-1.108-.892-2-2-2zm0 .5a.499.499 0 1 1 0 1 .499.499 0 1 1 0-1M12 5v1c0 .889-.392 1.678-1 2.227a3.02 3.02 0 0 1-.426.32l-.004.002a2.97 2.97 0 0 1-.471.238c-.03.012-.062.019-.092.029-.14.051-.283.097-.432.127A3.011 3.011 0 0 1 9.001 9h-4v3c0 1.108.892 2 2 2h2c1.108 0 2-.892 2-2h-3v-1h4c1.108 0 2-.892 2-2V7c0-1.108-.892-2-2-2m-3 7.5a.499.499 0 1 1 0 1 .499.499 0 1 1 0-1" fill="#FE8C19"/>
    </g>
</svg>
