<svg xmlns="http://www.w3.org/2000/svg" height="64" width="64">
    <path d="M11.67 56.08c0 1.71 1.71 3.42 3.417 3.42h33.996c1.709 0 3.417-1.71 3.417-3.42V27.017c0-1.71 0-1.71-1.708-3.42L35.417 8.21C34.51 7.524 33.708 6.5 32 6.5H14.917c-1.709 0-3.417 1.71-3.417 3.42z" fill="#323232" stroke="#323232"/>
    <path fill="#FE1919" d="M15 59h34v1H15z"/>
        <g
      transform="scale(2 2) translate(8 11)"
     id="g2522">     <path color="#807F7F" d="M2 2v12h12V2H3zm1 1h1.912A1.5 1.5 0 0 1 3 4.912zm2.947 0h7.05v10h-10v-.783l1.326-1.299 1.408-1.404.564.418L7.397 11l2.6-2.398 4 3.891-1-2.492-3-3-2.6 2.6-1.6-1.6-2.801 2.801V5.948a2.5 2.5 0 0 0 2.947-2.947" fill="#FE1919"/>
    </g>
</svg>
