<svg xmlns="http://www.w3.org/2000/svg" height="64" width="64">
    <path d="M11.67 56.08c0 1.71 1.71 3.42 3.417 3.42h33.996c1.709 0 3.417-1.71 3.417-3.42V27.017c0-1.71 0-1.71-1.708-3.42L35.417 8.21C34.51 7.524 33.708 6.5 32 6.5H14.917c-1.709 0-3.417 1.71-3.417 3.42z" fill="#323232" stroke="#323232"/>
    <path fill="#FE1952" d="M15 59h34v1H15z"/>
        <g
      transform="scale(2 2) translate(8 11)"
     id="g2522">     <path color="#807F7F" d="M13 2.01v2.414c-2.511.042-3.128 2.393-3.128 2.393H12v2.414H8.83C7.064 14.461 3 13.995 3 13.995v-2.414s2.579.459 3.894-4.15C8.539 1.665 13 2.01 13 2.01" fill="#FE1952"/>
    </g>
</svg>
