<svg xmlns="http://www.w3.org/2000/svg" height="64" width="64">
    <path d="M11.67 56.08c0 1.71 1.71 3.42 3.417 3.42h33.996c1.709 0 3.417-1.71 3.417-3.42V27.017c0-1.71 0-1.71-1.708-3.42L35.417 8.21C34.51 7.524 33.708 6.5 32 6.5H14.917c-1.709 0-3.417 1.71-3.417 3.42z" fill="#323232" stroke="#323232"/>
    <path fill="#198CFE" d="M15 59h34v1H15z"/>
        <g
      transform="scale(2 2) translate(8 11)"
     id="g2522">     <g fill="#198CFE">
        <path d="M8 2v1H7v1h1v1h1V4h1V3H9V2zm4 0v1h-1v1h1v1h1V4h1V3h-1V2z"/>
        <path d="M6 6a4 4 0 0 0-4 4 4 4 0 0 0 4 4 4 4 0 0 0 2.826-1.174l-.707-.707A3 3 0 0 1 6 13a3 3 0 0 1-3-3 3 3 0 0 1 3-3 3 3 0 0 1 2.12.88l.706-.706A4 4 0 0 0 6 6z" fill-rule="evenodd"/>
    </g>
    </g>
</svg>
