<svg xmlns="http://www.w3.org/2000/svg" height="64" width="64">
    <path d="M11.67 56.08c0 1.71 1.71 3.42 3.417 3.42h33.996c1.709 0 3.417-1.71 3.417-3.42V27.017c0-1.71 0-1.71-1.708-3.42L35.417 8.21C34.51 7.524 33.708 6.5 32 6.5H14.917c-1.709 0-3.417 1.71-3.417 3.42z" fill="#323232" stroke="#323232"/>
    <path fill="#19FEFE" d="M15 59h34v1H15z"/>
        <g
      transform="scale(2 2) translate(8 11)"
     id="g2522">     <path fill="#19FEFE" d="M2 2v8.992l-1 1V12h1v2h12v-2.998h1v-.01l-1-1V2zm1 1h10v5.992L9.006 5H9v.002h-.006L6.498 7.494 6.004 7h-.008L3 9.994zm2 1c-.554 0-1 .446-1 1s.446 1 1 1 1-.446 1-1-.446-1-1-1m4 2.41l4 3.998V11h-2.992L7.207 8.203zm-3 2L8.59 11H3.408zM3 12h6.59l.002.002H11V12h2v1H3z"/>
    </g>
</svg>
