<svg xmlns="http://www.w3.org/2000/svg" height="64" width="64">
    <path d="M11.67 56.08c0 1.71 1.71 3.42 3.417 3.42h33.996c1.709 0 3.417-1.71 3.417-3.42V27.017c0-1.71 0-1.71-1.708-3.42L35.417 8.21C34.51 7.524 33.708 6.5 32 6.5H14.917c-1.709 0-3.417 1.71-3.417 3.42z" fill="#323232" stroke="#323232"/>
    <path fill="#19FE8C" d="M15 59h34v1H15z"/>
        <g
      transform="scale(2 2) translate(8 11)"
     id="g2522">     <path color="#807F7F" d="M4 2v3h1v1.65a1.5 1.5 0 0 0-1 1.412 1.5 1.5 0 0 0 1 1.412V11H4v3h3V12.19A7 6 0 0 0 12 14v-1a6 5 0 0 1-5.77-3.631A1.5 1.5 0 0 0 7 8.061a1.5 1.5 0 0 0-.799-1.322A6 5 0 0 1 12 2.999v-1a7 6 0 0 0-5 1.803V1.999zm1 1h1v1H5zm0 9h1v1H5z" fill="#19FE8C"/>
    </g>
</svg>
