<svg xmlns="http://www.w3.org/2000/svg" height="64" width="64">
    <path d="M11.67 56.08c0 1.71 1.71 3.42 3.417 3.42h33.996c1.709 0 3.417-1.71 3.417-3.42V27.017c0-1.71 0-1.71-1.708-3.42L35.417 8.21C34.51 7.524 33.708 6.5 32 6.5H14.917c-1.709 0-3.417 1.71-3.417 3.42z" fill="#323232" stroke="#323232"/>
    <path fill="#198CFE" d="M15 59h34v1H15z"/>
        <g
      transform="scale(2 2) translate(8 11)"
     id="g2522">     <path fill="#198CFE" d="M5 2C3.338 2 2 3.338 2 5v1l5 8V8h4c1.662 0 3-1.338 3-3s-1.338-3-3-3zm6 1a2 2 0 1 1 .001 3.999A2 2 0 0 1 11 3"/>
    </g>
</svg>
