<svg xmlns="http://www.w3.org/2000/svg" height="64" width="64">
    <path d="M11.67 56.08c0 1.71 1.71 3.42 3.417 3.42h33.996c1.709 0 3.417-1.71 3.417-3.42V27.017c0-1.71 0-1.71-1.708-3.42L35.417 8.21C34.51 7.524 33.708 6.5 32 6.5H14.917c-1.709 0-3.417 1.71-3.417 3.42z" fill="#323232" stroke="#323232"/>
    <path fill="#807F7F" d="M15 59h34v1H15z"/>
        <g
      transform="scale(2 2) translate(8 11)"
     id="g2522">     <path fill="#807F7F" fill-rule="evenodd" d="M7 2v2h2V2zm-.131 2.357l-1.98.531.818.818L7 5.358v-1zm2.131 0v1l3.057.82L9 6.995v7h.131l4.861-1.303.008.002v-7.04l-.008.002-4.861-1.303zm-5.689.953L2 5.662V13l6 1V7l-4.391-.732.52-.139zM13 6.962v4.432l-3-.805V7.767zm-3 4.664l2.057.551L10 12.73z"/>
    </g>
</svg>
