<svg xmlns="http://www.w3.org/2000/svg" height="64" width="64">
    <path d="M11.67 56.08c0 1.71 1.71 3.42 3.417 3.42h33.996c1.709 0 3.417-1.71 3.417-3.42V27.017c0-1.71 0-1.71-1.708-3.42L35.417 8.21C34.51 7.524 33.708 6.5 32 6.5H14.917c-1.709 0-3.417 1.71-3.417 3.42z" fill="#323232" stroke="#323232"/>
    <path fill="#807F7F" d="M15 59h34v1H15z"/>
        <g
      transform="scale(2 2) translate(8 11)"
     id="g2522">     <path fill="#FE1952" color="#807F7F" d="M2 3v10h5.9v-1H3v-.063l3.906-3.344.75.75.244.266V8.213L7.687 8H6.109L3 10.656V4.687l2.328 2.328.344-1.031L3.688 4h2.646l.332-1H2.687zm6 0v1h4.313l-1.617 1.617-.688 2.063L13 4.688v5.969l-3.102-2.65-.332.994L13 11.939v.063H8.566l-.332 1H14v-10h-.688z"/>
    </g>
</svg>
