<svg xmlns="http://www.w3.org/2000/svg" height="64" width="64">
    <path d="M11.67 56.08c0 1.71 1.71 3.42 3.417 3.42h33.996c1.709 0 3.417-1.71 3.417-3.42V27.017c0-1.71 0-1.71-1.708-3.42L35.417 8.21C34.51 7.524 33.708 6.5 32 6.5H14.917c-1.709 0-3.417 1.71-3.417 3.42z" fill="#323232" stroke="#323232"/>
    <path fill="#807F7F" d="M15 59h34v1H15z"/>
        <g
      transform="scale(2 2) translate(8 11)"
     id="g2522">     <path fill="#19C5FF" color="#807F7F" d="M2 3v10h12V3H2.687zm1.688 1h8.625L8 8.313 6.937 7.25zM3 4.688l3.219 3.219L3 10.657zm10 0v5.969l-3.219-2.75zM6.906 8.594l.75.75.344.375.344-.375.75-.75L13 11.938V12H3v-.062z"/>
    </g>
</svg>
