<svg xmlns="http://www.w3.org/2000/svg" height="64" width="64">
    <path d="M11.67 56.08c0 1.71 1.71 3.42 3.417 3.42h33.996c1.709 0 3.417-1.71 3.417-3.42V27.017c0-1.71 0-1.71-1.708-3.42L35.417 8.21C34.51 7.524 33.708 6.5 32 6.5H14.917c-1.709 0-3.417 1.71-3.417 3.42z" fill="#323232" stroke="#323232"/>
    <path fill="#FE1952" d="M15 59h34v1H15z"/>
        <g
      transform="scale(2 2) translate(8 11)"
     id="g2522">     <defs>
        <linearGradient id="c" x1="13.945" x2="1.994" gradientUnits="userSpaceOnUse">
            <stop stop-color="#8CFF19"/>
            <stop offset="1" stop-color="#8CFF19"/>
        </linearGradient>
        <linearGradient id="b" y1="1.991" x1="7.97" y2="13.942" x2="1.994" gradientUnits="userSpaceOnUse">
            <stop stop-color="#198CFE"/>
            <stop offset="1" stop-color="#19C5FF"/>
        </linearGradient>
        <linearGradient id="a" y1="13.942" x1="13.945" y2="1.991" x2="7.97" gradientUnits="userSpaceOnUse">
            <stop stop-color="#FE1952"/>
            <stop offset="1" stop-color="#FE1952"/>
        </linearGradient>
    </defs>
    <g fill-rule="evenodd">
        <path fill="url(#a)" d="M7.97 1.991l.878 9.948 5.098 2z"/>
        <path fill="url(#b)" d="M7.97 1.991L1.995 13.942l6.512-5.876z"/>
        <path fill="url(#c)" d="M5.619 10.671l-3.624 3.27h11.95zm-3.614 3.25l-.022.02h.012z"/>
    </g>
    </g>
</svg>
