<svg xmlns="http://www.w3.org/2000/svg" height="64" width="64">
    <path d="M11.67 56.08c0 1.71 1.71 3.42 3.417 3.42h33.996c1.709 0 3.417-1.71 3.417-3.42V27.017c0-1.71 0-1.71-1.708-3.42L35.417 8.21C34.51 7.524 33.708 6.5 32 6.5H14.917c-1.709 0-3.417 1.71-3.417 3.42z" fill="#323232" stroke="#323232"/>
    <path fill="#807F7F" d="M15 59h34v1H15z"/>
        <g
      transform="scale(2 2) translate(8 11)"
     id="g2522">     <path fill="#807F7F" d="M2 2v12h7v-1H6v-3h3V9H6V6h4v2h1V6h2v2h1V2H3zm1 1h10v2H3zm0 3h2v3H3zm8.5 3c-.831 0-1.5.638-1.5 1.43 0 .763.623 1.376 1.412 1.42.057.262.087.528.088.795A3.77 3.77 0 0 1 11.242 14c1.1-.734 1.756-1.933 1.758-3.213v-.357C13 9.638 12.331 9 11.5 9M3 10h2v3H3z"/>
    </g>
</svg>
