<svg xmlns="http://www.w3.org/2000/svg" height="64" width="64">
    <path d="M11.67 56.08c0 1.71 1.71 3.42 3.417 3.42h33.996c1.709 0 3.417-1.71 3.417-3.42V27.017c0-1.71 0-1.71-1.708-3.42L35.417 8.21C34.51 7.524 33.708 6.5 32 6.5H14.917c-1.709 0-3.417 1.71-3.417 3.42z" fill="#323232" stroke="#323232"/>
    <path fill="#807F7F" d="M15 59h34v1H15z"/>
        <g
      transform="scale(2 2) translate(8 11)"
     id="g2522">     <path fill="#807F7F" d="M8.488 10.16L7.102 8.79l.016-.016a9.56 9.56 0 0 0 2.024-3.563h1.599V4.12H6.922V3.029H5.831V4.12H2.012v1.086h6.095a8.579 8.579 0 0 1-1.73 2.925 8.528 8.528 0 0 1-1.26-1.828H4.026c.398.889.944 1.73 1.626 2.488L2.875 11.53l.775.775 2.728-2.728 1.697 1.697zm3.072-2.766h-1.091l-2.455 6.547h1.091l.611-1.637h2.592l.617 1.637h1.091zm-1.43 3.819l.884-2.362.884 2.362z"/>
    </g>
</svg>
