<svg xmlns="http://www.w3.org/2000/svg" height="64" width="64">
    <path d="M11.67 56.08c0 1.71 1.71 3.42 3.417 3.42h33.996c1.709 0 3.417-1.71 3.417-3.42V27.017c0-1.71 0-1.71-1.708-3.42L35.417 8.21C34.51 7.524 33.708 6.5 32 6.5H14.917c-1.709 0-3.417 1.71-3.417 3.42z" fill="#323232" stroke="#323232"/>
    <path fill="#19FE8C" d="M15 59h34v1H15z"/>
        <g
      transform="scale(2 2) translate(8 11)"
     id="g2522">     <path fill="#19FE8C" d="M3 3c-.554 0-1 .446-1 1v8c0 .554.446 1 1 1h10c.554 0 1-.446 1-1V4c0-.554-.446-1-1-1zm5.5 1a.499.499 0 1 1 0 1 .499.499 0 1 1 0-1m2 0a.499.499 0 1 1 0 1 .499.499 0 1 1 0-1m2 0a.499.499 0 1 1 0 1 .499.499 0 1 1 0-1M3 6h10v6H3z"/>
    </g>
</svg>
