<svg xmlns="http://www.w3.org/2000/svg" height="64" width="64">
    <path d="M11.67 56.08c0 1.71 1.71 3.42 3.417 3.42h33.996c1.709 0 3.417-1.71 3.417-3.42V27.017c0-1.71 0-1.71-1.708-3.42L35.417 8.21C34.51 7.524 33.708 6.5 32 6.5H14.917c-1.709 0-3.417 1.71-3.417 3.42z" fill="#323232" stroke="#323232"/>
    <path fill="#19C5FF" d="M15 59h34v1H15z"/>
        <g
      transform="scale(2 2) translate(8 11)"
     id="g2522">     <path d="M13.5 13.998L9.82 14 7.31 10.394s-.403-.675-.652-.871c-.207-.164-.295-.222-.5-.222h-.465v4.694l-3.194.001V2h6.956s2.819.506 2.876 3.222C12.396 8.25 9.608 9.14 9.608 9.14c.382.153 3.458 4.156 3.892 4.855M7.985 4.602L5.726 4.6v2.04l2.259-.001s1.047-.003 1.047-1.037c0-1.056-1.047-1-1.047-1" fill="#19C5FF" fill-rule="evenodd"/>
    </g>
</svg>
