<svg xmlns="http://www.w3.org/2000/svg" height="64" width="64">
    <path d="M11.67 56.08c0 1.71 1.71 3.42 3.417 3.42h33.996c1.709 0 3.417-1.71 3.417-3.42V27.017c0-1.71 0-1.71-1.708-3.42L35.417 8.21C34.51 7.524 33.708 6.5 32 6.5H14.917c-1.709 0-3.417 1.71-3.417 3.42z" fill="#323232" stroke="#323232"/>
    <path fill="#807F7F" d="M15 59h34v1H15z"/>
        <g
      transform="scale(2 2) translate(8 11)"
     id="g2522">     <path fill="#198CFE" color="#807F7F" d="M12.5 2A1.5 1.5 0 0 0 11 3.5 1.5 1.5 0 0 0 12.5 5 1.5 1.5 0 0 0 14 3.5 1.5 1.5 0 0 0 12.5 2m-5 1A5.5 5.5 0 0 0 2 8.5 5.5 5.5 0 0 0 7.5 14 5.5 5.5 0 0 0 13 8.5a5.5 5.5 0 0 0-1.283-3.523A2 2 0 0 1 12 6a2 2 0 0 1-2 2 2 2 0 0 1-2-2 2 2 0 0 1 2-2 2 2 0 0 1 1.053.303A5.5 5.5 0 0 0 7.5 3"/>
    </g>
</svg>
