<svg xmlns="http://www.w3.org/2000/svg" height="64" width="64">
    <path d="M11.67 56.08c0 1.71 1.71 3.42 3.417 3.42h33.996c1.709 0 3.417-1.71 3.417-3.42V27.017c0-1.71 0-1.71-1.708-3.42L35.417 8.21C34.51 7.524 33.708 6.5 32 6.5H14.917c-1.709 0-3.417 1.71-3.417 3.42z" fill="#323232" stroke="#323232"/>
    <path fill="#FE1919" d="M15 59h34v1H15z"/>
        <g
      transform="scale(2 2) translate(8 11)"
     id="g2522">     <path fill="#FE1919" d="M1.837 2.069v12h12v-12zm1 1h10v10h-10zm1 2v2h2v-2zm6 0v2h2v-2zm-4 4v1h4v-1zm4 1v1h1v-1zm1 1v1h1v-1zm-5-1h-1v1h1zm-1 1h-1v1h1z"/>
    </g>
</svg>
