<svg xmlns="http://www.w3.org/2000/svg" height="64" width="64">
    <path d="M11.67 56.08c0 1.71 1.71 3.42 3.417 3.42h33.996c1.709 0 3.417-1.71 3.417-3.42V27.017c0-1.71 0-1.71-1.708-3.42L35.417 8.21C34.51 7.524 33.708 6.5 32 6.5H14.917c-1.709 0-3.417 1.71-3.417 3.42z" fill="#323232" stroke="#323232"/>
    <path fill="#FF19C5" d="M15 59h34v1H15z"/>
        <g
      transform="scale(2 2) translate(8 11)"
     id="g2522">     <path d="M5 2v12h1v-3.5C6 9.115 7.115 8 8.5 8S11 9.115 11 10.5V14h1v-3.5C12 8.561 10.439 7 8.5 7c-.983 0-1.865.404-2.5 1.053v-6.05z" fill="#FF19C5"/>
    </g>
</svg>
