<svg xmlns="http://www.w3.org/2000/svg" height="64" width="64">
    <path d="M11.67 56.08c0 1.71 1.71 3.42 3.417 3.42h33.996c1.709 0 3.417-1.71 3.417-3.42V27.017c0-1.71 0-1.71-1.708-3.42L35.417 8.21C34.51 7.524 33.708 6.5 32 6.5H14.917c-1.709 0-3.417 1.71-3.417 3.42z" fill="#323232" stroke="#323232"/>
    <path fill="#198CFE" d="M15 59h34v1H15z"/>
        <g
      transform="scale(2 2) translate(8 11)"
     id="g2522">     <path fill="#198CFE" d="M2 3v2.22h2v5.554H2v2.21c2.112.009 3.879.011 6 .011v-2.221H6V9.072l2.488.019c.164.001.875.053 1.102 1.092.071.319.228 1.357.334 1.691.107.373.54 1.122 1 1.122.992-.008 2.151.004 3.073.004v-2.651a.96.96 0 0 1-.445.159c-.362.047-.763-.173-.812-.425-.213-1.371-.569-1.664-1.13-2.169.697-.505 1.422-1.251 1.422-2.249 0-1.077-.647-1.757-1.088-2.089-.619-.465-1.303-.57-1.488-.57-2.828.016-5.662 0-8.459 0zm4 2.22h3c.121 0 1 .303 1 .929 0 .52-.672.801-1.134.801L6 6.931z"/>
    </g>
</svg>
