<?xml version="1.0" encoding="UTF-8" standalone="no"?>
<svg
   height="64"
   width="64"
   version="1.1"
   id="svg3"
   sodipodi:docname="text-x-sass.svg"
   inkscape:version="1.3.2 (091e20ef0f, 2023-11-25)"
   xmlns:inkscape="http://www.inkscape.org/namespaces/inkscape"
   xmlns:sodipodi="http://sodipodi.sourceforge.net/DTD/sodipodi-0.dtd"
   xmlns:xlink="http://www.w3.org/1999/xlink"
   xmlns="http://www.w3.org/2000/svg"
   xmlns:svg="http://www.w3.org/2000/svg">
  <defs
     id="defs3">
    <linearGradient
       id="linearGradient3"
       inkscape:collect="always">
      <stop
         style="stop-color:#ff55dd;stop-opacity:0.19879518;"
         offset="0"
         id="stop3" />
      <stop
         style="stop-color:#70a9ff;stop-opacity:0.80000001;"
         offset="1"
         id="stop4" />
    </linearGradient>
    <linearGradient
       inkscape:collect="always"
       xlink:href="#linearGradient3"
       id="linearGradient4"
       x1="17.841591"
       y1="10.720991"
       x2="50.831161"
       y2="56.697521"
       gradientUnits="userSpaceOnUse" />
  </defs>
  <sodipodi:namedview
     id="namedview3"
     pagecolor="#ffffff"
     bordercolor="#000000"
     borderopacity="0.25"
     inkscape:showpageshadow="2"
     inkscape:pageopacity="0.0"
     inkscape:pagecheckerboard="0"
     inkscape:deskcolor="#d1d1d1"
     inkscape:zoom="11.984375"
     inkscape:cx="31.958279"
     inkscape:cy="32"
     inkscape:window-width="1920"
     inkscape:window-height="994"
     inkscape:window-x="0"
     inkscape:window-y="0"
     inkscape:window-maximized="1"
     inkscape:current-layer="svg3" />
  <path
     d="M11.67 56.08c0 1.71 1.71 3.42 3.417 3.42h33.996c1.709 0 3.417-1.71 3.417-3.42V27.017c0-1.71 0-1.71-1.708-3.42L35.417 8.21C34.51 7.524 33.708 6.5 32 6.5H14.917c-1.709 0-3.417 1.71-3.417 3.42z"
     id="path1"
     style="fill:url(#linearGradient4)" />
  <path
     fill="#FF19C5"
     d="M15 59h34v1H15z"
     id="path2" />
  <path
     d="m 42.103471,37.316047 a 6.11,6.11 0 0 0 -2.538,0.563 c -0.262,-0.495 -0.525,-0.928 -0.569,-1.25 -0.049,-0.376 -0.11,-0.605 -0.049,-1.054 0.06,-0.448 0.334,-1.084 0.334,-1.136 -0.006,-0.047 -0.06,-0.276 -0.624,-0.281 -0.563,-0.012 -1.05,0.104 -1.105,0.245 a 5.78,5.78 0 0 0 -0.235,0.797 c -0.098,0.49 -1.126,2.226 -1.712,3.138 -0.191,-0.355 -0.355,-0.668 -0.388,-0.918 -0.05,-0.375 -0.11,-0.604 -0.05,-1.052 0.061,-0.449 0.334,-1.084 0.334,-1.137 -0.005,-0.047 -0.06,-0.276 -0.623,-0.28 -0.563,-0.013 -1.05,0.104 -1.105,0.244 -0.055,0.14 -0.115,0.474 -0.235,0.797 -0.115,0.324 -1.482,3.221 -1.838,3.977 -0.18,0.386 -0.339,0.693 -0.454,0.902 -0.115,0.208 -0.005,0.015 -0.016,0.036 l -0.153,0.276 v 0.012 c -0.077,0.13 -0.159,0.256 -0.197,0.256 -0.027,0 -0.082,-0.35 0.01,-0.83 0.203,-1.005 0.695,-2.574 0.69,-2.63 0,-0.028 0.093,-0.303 -0.317,-0.444 -0.4,-0.14 -0.542,0.094 -0.574,0.094 -0.033,0 -0.06,0.083 -0.06,0.083 0,0 0.442,-1.766 -0.848,-1.766 -0.81,0 -1.926,0.839 -2.478,1.605 -0.35,0.182 -1.094,0.568 -1.881,0.98 -0.301,0.156 -0.613,0.323 -0.908,0.474 l -0.06,-0.063 c -1.565,-1.59 -4.458,-2.715 -4.338,-4.852 0.044,-0.777 0.329,-2.825 5.557,-5.306 4.283,-2.032 7.712,-1.475 8.308,-0.234 0.848,1.772 -1.832,5.065 -6.284,5.54 -1.696,0.182 -2.587,-0.443 -2.811,-0.678 -0.236,-0.245 -0.268,-0.255 -0.356,-0.208 -0.142,0.073 -0.055,0.291 0,0.422 0.131,0.328 0.678,0.912 1.608,1.204 0.815,0.255 2.806,0.396 5.212,-0.49 2.697,-0.996 4.802,-3.758 4.184,-6.067 -0.629,-2.35 -4.72,-3.121 -8.586,-1.813 -2.303,0.781 -4.797,2 -6.59,3.601 -2.134,1.897 -2.473,3.554 -2.33,4.242 0.497,2.455 4.046,4.055 5.468,5.238 l -0.196,0.105 c -0.711,0.333 -3.419,1.683 -4.097,3.11 -0.766,1.616 0.12,2.779 0.711,2.935 1.827,0.485 3.697,-0.386 4.71,-1.819 1.005,-1.433 0.885,-3.294 0.42,-4.143 l -0.016,-0.032 0.558,-0.312 c 0.36,-0.204 0.716,-0.391 1.028,-0.553 -0.175,0.453 -0.3,0.99 -0.367,1.772 -0.076,0.917 0.318,2.106 0.837,2.575 0.23,0.203 0.503,0.208 0.673,0.208 0.602,0 0.875,-0.474 1.176,-1.042 0.372,-0.693 0.7,-1.496 0.7,-1.496 0,0 -0.41,2.173 0.71,2.173 0.411,0 0.821,-0.505 1.007,-0.766 v 0.012 l 0.033,-0.052 c 0.044,-0.062 0.066,-0.1 0.066,-0.1 v -0.012 c 0.164,-0.27 0.53,-0.89 1.077,-1.918 0.706,-1.323 1.384,-2.98 1.384,-2.98 0,0 0.066,0.406 0.268,1.073 0.12,0.396 0.383,0.829 0.585,1.25 -0.164,0.22 -0.262,0.345 -0.262,0.345 l 0.005,0.012 c -0.131,0.166 -0.279,0.344 -0.432,0.52 -0.558,0.637 -1.225,1.361 -1.313,1.57 -0.104,0.245 -0.082,0.427 0.12,0.573 0.148,0.104 0.41,0.125 0.69,0.104 a 3.206,3.206 0 0 0 1.028,-0.224 c 0.273,-0.093 0.585,-0.234 0.886,-0.443 0.547,-0.386 0.88,-0.933 0.848,-1.662 -0.017,-0.402 -0.153,-0.798 -0.323,-1.173 a 21.739,21.739 0 0 0 1.68,-2.736 c 0,0 0.065,0.406 0.267,1.073 0.104,0.34 0.312,0.71 0.498,1.074 -0.81,0.63 -1.318,1.36 -1.493,1.84 -0.323,0.886 -0.071,1.287 0.404,1.38 0.214,0.043 0.52,-0.051 0.75,-0.145 a 3.46,3.46 0 0 0 0.946,-0.464 c 0.547,-0.386 1.072,-0.922 1.044,-1.647 a 3.033,3.033 0 0 0 -0.235,-0.974 c 0.69,-0.271 1.58,-0.428 2.713,-0.297 2.434,0.27 2.915,1.72 2.822,2.324 -0.093,0.605 -0.601,0.938 -0.771,1.042 -0.17,0.099 -0.224,0.136 -0.208,0.209 0.022,0.11 0.099,0.104 0.246,0.084 0.203,-0.032 1.28,-0.496 1.324,-1.61 0.065,-1.434 -1.362,-2.998 -3.894,-2.982 z m -18.77,6.03 c -0.805,0.84 -1.937,1.157 -2.418,0.886 -0.52,-0.287 -0.317,-1.522 0.673,-2.413 0.601,-0.542 1.383,-1.042 1.897,-1.35 0.115,-0.068 0.29,-0.167 0.498,-0.286 a 0.709,0.709 0 0 1 0.055,-0.032 c 0.038,-0.02 0.082,-0.047 0.126,-0.073 0.366,1.272 0.016,2.387 -0.832,3.268 z m 5.879,-3.81 c -0.28,0.652 -0.87,2.325 -1.225,2.231 -0.307,-0.079 -0.493,-1.345 -0.06,-2.596 0.218,-0.63 0.683,-1.38 0.957,-1.672 0.443,-0.47 0.924,-0.626 1.044,-0.433 0.142,0.25 -0.541,2.064 -0.716,2.47 z m 4.851,2.21 c -0.12,0.057 -0.23,0.1 -0.279,0.068 -0.038,-0.022 0.05,-0.1 0.05,-0.1 0,0 0.606,-0.62 0.847,-0.906 0.137,-0.167 0.3,-0.36 0.476,-0.579 v 0.062 c 0,0.75 -0.755,1.25 -1.094,1.454 z m 3.74,-0.813 c -0.087,-0.062 -0.076,-0.255 0.22,-0.86 0.115,-0.24 0.377,-0.64 0.831,-1.021 0.055,0.156 0.088,0.307 0.082,0.448 -0.005,0.938 -0.705,1.287 -1.132,1.433 z"
     id="path17"
     inkscape:connector-curvature="0"
     style="opacity:0.75;fill:#ffffff" />
</svg>
