<svg xmlns="http://www.w3.org/2000/svg" height="64" width="64">
    <path d="M11.67 56.08c0 1.71 1.71 3.42 3.417 3.42h33.996c1.709 0 3.417-1.71 3.417-3.42V27.017c0-1.71 0-1.71-1.708-3.42L35.417 8.21C34.51 7.524 33.708 6.5 32 6.5H14.917c-1.709 0-3.417 1.71-3.417 3.42z" fill="#323232" stroke="#323232"/>
    <path fill="#FF19C5" d="M15 59h34v1H15z"/>
        <g
      transform="scale(2 2) translate(8 11)"
     id="g2522">     <path fill="#FF19C5" d="M8 2C6.338 2 5 3.338 5 5h2v1H5v2h2v1H5.182a2.984 2.984 0 0 0 5.636 0H9V8h2V6H9V5h2c0-1.662-1.338-3-3-3M3.1 9A4.984 4.984 0 0 0 7 12.893V13l-1 1h4l-1-1v-.107A4.982 4.982 0 0 0 12.9 9h-1.039A3.982 3.982 0 0 1 8 12a3.98 3.98 0 0 1-3.861-3z"/>
    </g>
</svg>
