<?xml version="1.0" encoding="UTF-8" standalone="no"?>
<svg
   width="64"
   version="1.1"
   height="64"
   id="svg15"
   sodipodi:docname="folder-design.svg"
   inkscape:version="1.3 (0e150ed6c4, 2023-07-21)"
   xmlns:inkscape="http://www.inkscape.org/namespaces/inkscape"
   xmlns:sodipodi="http://sodipodi.sourceforge.net/DTD/sodipodi-0.dtd"
   xmlns:xlink="http://www.w3.org/1999/xlink"
   xmlns="http://www.w3.org/2000/svg"
   xmlns:svg="http://www.w3.org/2000/svg"
   xmlns:rdf="http://www.w3.org/1999/02/22-rdf-syntax-ns#"
   xmlns:cc="http://creativecommons.org/ns#"
   xmlns:dc="http://purl.org/dc/elements/1.1/">
  <sodipodi:namedview
     pagecolor="#ffffff"
     bordercolor="#666666"
     borderopacity="1"
     objecttolerance="10"
     gridtolerance="10"
     guidetolerance="10"
     inkscape:pageopacity="0"
     inkscape:pageshadow="2"
     inkscape:window-width="1920"
     inkscape:window-height="993"
     id="namedview17"
     showgrid="true"
     inkscape:zoom="9.8125"
     inkscape:cx="30.929936"
     inkscape:cy="32"
     inkscape:window-x="0"
     inkscape:window-y="0"
     inkscape:window-maximized="1"
     inkscape:current-layer="layer1"
     inkscape:document-rotation="0"
     inkscape:pagecheckerboard="0"
     inkscape:showpageshadow="2"
     inkscape:deskcolor="#d1d1d1">
    <inkscape:grid
       type="xygrid"
       id="grid850"
       originx="0"
       originy="0"
       spacingy="1"
       spacingx="1"
       units="px"
       visible="true" />
  </sodipodi:namedview>
  <defs
     id="defs5455">
    <linearGradient
       inkscape:collect="always"
       xlink:href="#linearGradient3"
       id="linearGradient1493"
       gradientUnits="userSpaceOnUse"
       x1="30.564449"
       y1="1017.235"
       x2="8.6650352"
       y2="1002.36"
       gradientTransform="matrix(0.98463176,0,0,1.0000147,0.03074227,-0.01475258)" />
    <linearGradient
       inkscape:collect="always"
       xlink:href="#linearGradient3"
       id="linearGradient2"
       x1="2.0000021"
       y1="1025.9854"
       x2="62.001003"
       y2="1025.9854"
       gradientUnits="userSpaceOnUse" />
    <linearGradient
       inkscape:collect="always"
       id="linearGradient3">
      <stop
         style="stop-color:#800080;stop-opacity:1"
         offset="0"
         id="stop1" />
      <stop
         style="stop-color:#b200b2;stop-opacity:1;"
         offset="1"
         id="stop2" />
    </linearGradient>
  </defs>
  <metadata
     id="metadata5458">
    <rdf:RDF>
      <cc:Work
         rdf:about="">
        <dc:format>image/svg+xml</dc:format>
        <dc:type
           rdf:resource="http://purl.org/dc/dcmitype/StillImage" />
      </cc:Work>
    </rdf:RDF>
  </metadata>
  <g
     inkscape:label="Capa 1"
     inkscape:groupmode="layer"
     id="layer1"
     transform="translate(-384.57143,-483.798)">
    <g
       transform="matrix(1.0666489,0,0,1.1428404,382.43813,-653.73952)"
       id="g19">
      <rect
         width="60.000999"
         height="22.750345"
         x="2.0000021"
         y="1002.36"
         rx="7.5001268"
         ry="7.0001144"
         style="opacity:1;fill:url(#linearGradient1493);fill-opacity:1;stroke:none;stroke-width:0.992297"
         id="rect11" />
      <path
         d="m 9.5001275,1002.36 c -4.6875786,0 -7.5001312,3.7112 -7.5001254,6.7376 l 5e-7,0.2623 c -5e-7,-2.6248 2.9090002,-5 6.5220005,-5 H 55.479001 c 3.613001,0 6.522002,2.3813 6.522,5 v -0.2623 c 0,-2.9902 -2.812546,-6.7376 -7.500121,-6.7376 z"
         style="opacity:0.2;fill:#ffffff;fill-opacity:1;stroke:none;stroke-width:1"
         id="path13"
         sodipodi:nodetypes="sscsscsss" />
      <path
         d="M 8.5221093,1013.3214 H 18.957282 c 14.348239,-1.3346 11.861149,-6.5863 20.992301,-6.5863 h 15.361992 c 3.613049,0 6.689428,1.4161 6.689428,5.1146 v 26.3858 c 0,3.5001 -2.812548,6.1252 -6.562611,6.1252 H 8.5626114 c -3.7500625,0 -6.5626089,-2.6251 -6.5626093,-6.1252 l -1.8e-6,-19.2404 c -4e-7,-4.0049 2.609044,-5.6737 6.522109,-5.6737 z"
         style="opacity:1;fill:url(#linearGradient2);fill-opacity:1;stroke:none;stroke-width:1.00063"
         id="path15"
         sodipodi:nodetypes="scsssssssss" />
    </g>
    <polygon
       points="13.218,52.276 13.375,52.437 11.391,54.384 14.769,57.761 17.876,54.654 18.034,54.813 14.927,57.92 18.268,61.26 20.214,59.427 20.369,59.59 18.427,61.419 21.309,64.302 25.666,55.216 14.468,44.018 7.746,50.739 11.232,54.226 "
       id="polygon2"
       transform="matrix(0.24850012,0,0,0.2447632,418.14655,507.53698)"
       style="fill:#ffe6ff;fill-opacity:1" />
    <polygon
       points="54.012,82.949 54.17,82.79 57.187,85.806 60.57,82.422 58.675,80.563 58.832,80.402 60.729,82.263 64.219,78.771 61.175,75.728 61.333,75.568 64.378,78.613 67.763,75.229 65.838,73.34 65.995,73.181 67.922,75.07 71.233,71.758 68.161,68.687 68.32,68.527 71.392,71.6 74.832,68.16 72.872,66.309 73.026,66.146 74.991,68.002 77.241,65.751 72.862,56.688 50,79.55 27.985,57.534 23.604,66.597 25.465,68.457 27.492,66.545 27.644,66.707 25.624,68.616 29.067,72.06 32.162,68.964 32.32,69.122 29.225,72.218 32.549,75.542 34.542,73.587 34.698,73.747 32.708,75.7 36.073,79.066 39.136,76.006 39.294,76.164 36.232,79.226 39.722,82.715 41.692,80.783 41.848,80.942 39.88,82.873 43.266,86.258 46.362,83.161 46.521,83.32 43.424,86.416 46.829,89.82 48.756,87.93 48.914,88.089 46.987,89.979 50,92.992 53.463,89.529 51.654,87.753 51.811,87.594 53.621,89.371 57.028,85.964 "
       id="polygon4"
       transform="matrix(0.24850012,0,0,0.2447632,418.14655,507.53698)"
       style="fill:#ffe6ff;fill-opacity:1" />
    <polygon
       points="75.173,54.376 79.534,63.458 82.023,60.968 80.149,59.203 80.304,59.039 82.184,60.81 85.522,57.47 82.478,54.425 82.637,54.267 85.682,57.312 89.065,53.926 87.142,52.038 87.298,51.878 89.224,53.768 92.253,50.739 85.532,44.018 "
       id="polygon6"
       transform="matrix(0.24850012,0,0,0.2447632,418.14655,507.53698)"
       style="fill:#ffe6ff;fill-opacity:1" />
    <path
       d="m 438.22039,525.29716 c 0.43355,0 1.13038,0.85326 1.13038,0.85326 l -1.48182,-3.04018 -0.48627,0.47903 z"
       id="path8"
       style="fill:#ffe6ff;fill-opacity:1;stroke-width:0.246617" />
    <path
       d="m 432.22329,511.5283 c -0.2602,0.59622 -0.86201,1.01477 -1.56128,1.01477 -0.0163,0 -0.0338,-7.5e-4 -0.0513,-9.1e-4 l 2.22203,3.92364 c 0.0134,-0.005 0.0275,-0.009 0.0408,-0.0109 0.006,-9.1e-4 0.0104,-0.002 0.0151,-0.003 0.0103,-0.002 0.0164,-0.004 0.0264,-0.005 0.007,-8.7e-4 0.0127,-0.002 0.0197,-0.002 0.008,-7.9e-4 0.0141,-0.002 0.0214,-0.002 0.008,-4.5e-4 0.0134,-4.5e-4 0.0202,-7.4e-4 0.008,-2.8e-4 0.0141,-4.8e-4 0.0208,-4.8e-4 0.002,0 0.004,0 0.006,0 0.0244,2e-4 0.0484,0.002 0.0723,0.005 8.6e-4,0 0.002,0 0.003,2.8e-4 0.0247,0.003 0.0482,0.008 0.0723,0.0124 0.002,4.3e-4 0.005,8.7e-4 0.008,0.002 0.0233,0.006 0.0469,0.0119 0.0695,0.0202 0.004,8.5e-4 0.007,0.002 0.0104,0.004 0.023,0.009 0.0461,0.0163 0.0686,0.0272 0.004,0.002 0.007,0.003 0.0104,0.005 0.0228,0.0109 0.0455,0.0216 0.068,0.0331 0.004,0.002 0.007,0.004 0.0102,0.006 0.023,0.0123 0.0461,0.026 0.0684,0.0393 0.003,0.002 0.006,0.004 0.009,0.006 0.0233,0.0144 0.0463,0.0305 0.0691,0.0469 0.002,0.002 0.004,0.003 0.006,0.005 0.0239,0.0164 0.0475,0.0343 0.071,0.0533 0,0 0,2.3e-4 2.4e-4,2.3e-4 0.025,0.0194 0.0489,0.0393 0.0733,0.0604 0,2.3e-4 2.4e-4,2.3e-4 5e-4,5e-4 0.0239,0.0199 0.0466,0.041 0.0695,0.0626 0.002,0.002 0.004,0.003 0.006,0.005 0.0219,0.0208 0.0438,0.0424 0.0657,0.064 0.002,0.003 0.005,0.005 0.007,0.008 0.0214,0.0216 0.0422,0.0435 0.063,0.0662 0.002,0.002 0.005,0.006 0.008,0.008 0.0205,0.0222 0.0407,0.0452 0.0608,0.0683 0.003,0.002 0.005,0.006 0.008,0.008 0.0202,0.0236 0.0399,0.047 0.0597,0.071 0.002,0.002 0.004,0.005 0.006,0.007 0.02,0.025 0.0396,0.0488 0.0593,0.0734 7.4e-4,7.2e-4 0.002,0.002 0.003,0.003 0.041,0.0517 0.0802,0.10329 0.11878,0.15448 2.3e-4,2.4e-4 2.3e-4,2.4e-4 4.8e-4,4.8e-4 0.018,0.0255 0.0363,0.0505 0.0546,0.0741 9e-4,0.002 0.002,0.004 0.004,0.005 0.0163,0.0241 0.0335,0.048 0.0502,0.0715 0.002,0.002 0.004,0.005 0.005,0.008 0.0153,0.0233 0.0317,0.0466 0.0469,0.0686 0.002,0.002 0.004,0.005 0.006,0.008 0.0147,0.0225 0.0296,0.0449 0.0435,0.0665 0.002,0.002 0.003,0.005 0.005,0.008 0.0141,0.0219 0.0278,0.0432 0.0405,0.064 8.6e-4,0.002 0.002,0.004 0.003,0.005 0.0133,0.0213 0.0268,0.0418 0.0382,0.0618 7.6e-4,5e-4 9.2e-4,8.8e-4 0.002,0.002 0.0262,0.0416 0.0491,0.08 0.0699,0.11554 2.3e-4,2.3e-4 2.3e-4,7.3e-4 4.8e-4,8.7e-4 0.0102,0.0163 0.0191,0.0328 0.0286,0.0482 5.1e-4,0.002 0.002,0.003 0.002,0.005 0.0102,0.0141 0.0157,0.0283 0.0236,0.0404 8.8e-4,0.002 0.002,0.004 0.003,0.005 0.008,0.0118 0.0133,0.0239 0.0191,0.0332 5.1e-4,0.002 0.002,0.003 0.002,0.005 0.006,0.0104 0.011,0.0191 0.015,0.0277 4.9e-4,8.8e-4 8.8e-4,0.002 0.002,0.004 0.005,0.009 0.009,0.0144 0.0109,0.0202 0,2.4e-4 2.4e-4,4.6e-4 4.7e-4,8.6e-4 0.003,0.006 0.006,0.0101 0.008,0.0124 2e-4,4.7e-4 2e-4,7.2e-4 4.8e-4,0.002 9e-4,0.002 0.002,0.004 0.002,0.004 l 3.52175,7.18039 c 0.43367,0 1.13041,0.85323 1.13041,0.85323 z"
       id="path10"
       style="fill:#ffe6ff;fill-opacity:1;stroke-width:0.246617" />
    <path
       d="m 430.66201,509.298 c -0.88014,0 -1.59617,0.7051 -1.59617,1.57207 0,0.27174 0.0707,0.52745 0.19433,0.75077 0.24897,0.44938 0.71444,0.76633 1.25738,0.81482 0.0216,0.002 0.043,0.004 0.0646,0.006 0.0267,9.3e-4 0.053,0.002 0.0796,0.002 0.67437,0 1.25171,-0.41417 1.48523,-0.99765 0.0722,-0.17822 0.11111,-0.37181 0.11111,-0.57447 -2.8e-4,-0.86715 -0.7167,-1.57233 -1.59655,-1.57233 z m 0,2.63679 c -0.59688,0 -1.081,-0.47681 -1.081,-1.06472 0,-0.58792 0.4839,-1.06473 1.081,-1.06473 0.59715,0 1.08125,0.47681 1.08125,1.06473 0,0.58791 -0.4841,1.06472 -1.08125,1.06472 z"
       id="path12"
       style="fill:#ffe6ff;fill-opacity:1;stroke-width:0.246617" />
    <path
       d="m 429.16199,511.6533 -4.59568,9.43955 -2.46214,5.05757 c 0,0 0.69703,-0.85326 1.13018,-0.85326 l 1.90603,-3.88513 1.61637,-3.29543 c 0,0 0.8753,-1.67545 1.69806,-1.67545 0.0555,0 0.11182,0.009 0.16705,0.0247 l 2.03464,-3.63059 -0.17537,-0.3047 c -0.57181,-0.0598 -1.06039,-0.39829 -1.31914,-0.87681 z"
       id="path14"
       style="fill:#ffe6ff;fill-opacity:1;stroke-width:0.246617" />
  </g>
</svg>
