<?xml version="1.0" encoding="UTF-8" standalone="no"?>
<svg
   width="64"
   version="1.1"
   height="64"
   id="svg15"
   sodipodi:docname="folder-build.svg"
   inkscape:version="1.3 (0e150ed6c4, 2023-07-21)"
   xmlns:inkscape="http://www.inkscape.org/namespaces/inkscape"
   xmlns:sodipodi="http://sodipodi.sourceforge.net/DTD/sodipodi-0.dtd"
   xmlns:xlink="http://www.w3.org/1999/xlink"
   xmlns="http://www.w3.org/2000/svg"
   xmlns:svg="http://www.w3.org/2000/svg"
   xmlns:rdf="http://www.w3.org/1999/02/22-rdf-syntax-ns#"
   xmlns:cc="http://creativecommons.org/ns#"
   xmlns:dc="http://purl.org/dc/elements/1.1/">
  <sodipodi:namedview
     pagecolor="#ffffff"
     bordercolor="#666666"
     borderopacity="1"
     objecttolerance="10"
     gridtolerance="10"
     guidetolerance="10"
     inkscape:pageopacity="0"
     inkscape:pageshadow="2"
     inkscape:window-width="1920"
     inkscape:window-height="993"
     id="namedview17"
     showgrid="true"
     inkscape:zoom="4.90625"
     inkscape:cx="-10.292994"
     inkscape:cy="17.121019"
     inkscape:window-x="0"
     inkscape:window-y="0"
     inkscape:window-maximized="1"
     inkscape:current-layer="layer1"
     inkscape:document-rotation="0"
     inkscape:pagecheckerboard="0"
     inkscape:showpageshadow="2"
     inkscape:deskcolor="#d1d1d1">
    <inkscape:grid
       type="xygrid"
       id="grid850"
       originx="0"
       originy="0"
       spacingy="1"
       spacingx="1"
       units="px"
       visible="true" />
  </sodipodi:namedview>
  <defs
     id="defs5455">
    <linearGradient
       inkscape:collect="always"
       xlink:href="#linearGradient3"
       id="linearGradient1493"
       gradientUnits="userSpaceOnUse"
       x1="30.564449"
       y1="1017.235"
       x2="8.6650352"
       y2="1002.36"
       gradientTransform="matrix(0.98463176,0,0,1.0000147,0.03074227,-0.01475258)" />
    <linearGradient
       inkscape:collect="always"
       xlink:href="#linearGradient3"
       id="linearGradient2"
       x1="2.0000021"
       y1="1025.9854"
       x2="62.001003"
       y2="1025.9854"
       gradientUnits="userSpaceOnUse" />
    <linearGradient
       inkscape:collect="always"
       id="linearGradient3">
      <stop
         style="stop-color:#00aad4;stop-opacity:1"
         offset="0"
         id="stop1" />
      <stop
         style="stop-color:#2ad4ff;stop-opacity:1"
         offset="1"
         id="stop2" />
    </linearGradient>
  </defs>
  <metadata
     id="metadata5458">
    <rdf:RDF>
      <cc:Work
         rdf:about="">
        <dc:format>image/svg+xml</dc:format>
        <dc:type
           rdf:resource="http://purl.org/dc/dcmitype/StillImage" />
      </cc:Work>
    </rdf:RDF>
  </metadata>
  <g
     inkscape:label="Capa 1"
     inkscape:groupmode="layer"
     id="layer1"
     transform="translate(-384.57143,-483.798)">
    <g
       transform="matrix(1.0666489,0,0,1.1428404,382.43813,-653.73954)"
       id="g19">
      <rect
         width="60.000999"
         height="22.750345"
         x="2.0000021"
         y="1002.36"
         rx="7.5001268"
         ry="7.0001144"
         style="opacity:1;fill:url(#linearGradient1493);fill-opacity:1;stroke:none;stroke-width:0.992297"
         id="rect11" />
      <path
         d="m 9.5001275,1002.36 c -4.6875786,0 -7.5001312,3.7112 -7.5001254,6.7376 l 5e-7,0.2623 c -5e-7,-2.6248 2.9090002,-5 6.5220005,-5 H 55.479001 c 3.613001,0 6.522002,2.3813 6.522,5 v -0.2623 c 0,-2.9902 -2.812546,-6.7376 -7.500121,-6.7376 z"
         style="opacity:0.2;fill:#ffffff;fill-opacity:1;stroke:none;stroke-width:1"
         id="path13"
         sodipodi:nodetypes="sscsscsss" />
      <path
         d="M 8.5221093,1013.3214 H 18.957282 c 14.348239,-1.3346 11.861149,-6.5863 20.992301,-6.5863 h 15.361992 c 3.613049,0 6.689428,1.4161 6.689428,5.1146 v 26.3858 c 0,3.5001 -2.812548,6.1252 -6.562611,6.1252 H 8.5626114 c -3.7500625,0 -6.5626089,-2.6251 -6.5626093,-6.1252 l -1.8e-6,-19.2404 c -4e-7,-4.0049 2.609044,-5.6737 6.522109,-5.6737 z"
         style="opacity:1;fill:url(#linearGradient2);fill-opacity:1;stroke:none;stroke-width:1.00063"
         id="path15"
         sodipodi:nodetypes="scsssssssss" />
    </g>
    <path
       fill-rule="evenodd"
       clip-rule="evenodd"
       d="m 424.28812,516.26889 c 0.006,0 0.01,-0.003 0.0143,-0.004 0.69167,0.0685 1.23312,0.64957 1.23312,1.35717 0,0.70898 -0.54213,1.29159 -1.23646,1.35852 -9.5e-4,0.004 -0.004,0.007 -0.005,0.01 -0.006,-3.3e-4 -0.01,-0.003 -0.0143,-0.003 -0.17458,0 -0.36912,0.0309 -0.44138,0.20492 -0.0718,0.1743 0.0301,0.32628 0.1639,0.4593 0.005,0.005 0.011,0.007 0.0156,0.0105 0.43757,0.53591 0.41277,1.32183 -0.0891,1.82143 -0.50099,0.49922 -1.29049,0.52455 -1.82861,0.0891 -0.009,0.005 -0.0164,0.007 -0.0249,0.01 -0.004,-0.005 -0.005,-0.01 -0.0101,-0.0134 -0.12397,-0.12297 -0.2827,-0.2383 -0.45751,-0.16563 -0.17509,0.0715 -0.20989,0.25128 -0.20989,0.43991 0,0.0167 0.005,0.0319 0.0104,0.048 -0.0864,0.67193 -0.65799,1.19255 -1.356,1.19255 -0.71057,0 -1.29454,-0.53896 -1.36363,-1.22886 -0.008,-0.003 -0.0138,-0.008 -0.0219,-0.0101 3.4e-4,-0.004 0.002,-0.007 0.002,-0.01 0,-0.17395 -0.0306,-0.36725 -0.20561,-0.43925 -0.17479,-0.0719 -0.32754,0.03 -0.46113,0.16329 -0.009,0.009 -0.0117,0.0178 -0.0175,0.0277 -0.53745,0.41933 -1.31325,0.39029 -1.80771,-0.10257 -0.50216,-0.50028 -0.52672,-1.28786 -0.0875,-1.82412 -0.005,-0.01 -0.008,-0.0192 -0.0111,-0.0297 0.12348,-0.12293 0.23869,-0.28129 0.16629,-0.45524 -0.0722,-0.17395 -0.25293,-0.20931 -0.44207,-0.20931 -0.012,0 -0.0236,0.005 -0.0346,0.008 -0.67389,-0.0856 -1.1963,-0.6562 -1.1963,-1.35088 0,-0.71054 0.54466,-1.29331 1.24082,-1.35844 0.002,-0.007 0.006,-0.0116 0.009,-0.0174 0.17211,-0.002 0.36026,-0.0334 0.43123,-0.20464 0.0717,-0.17365 -0.0296,-0.32499 -0.16294,-0.45794 -0.43843,-0.53555 -0.41383,-1.3225 0.0884,-1.82242 0.50362,-0.50212 1.29905,-0.52525 1.83717,-0.082 0.006,-0.003 0.0109,-0.004 0.0171,-0.007 0.12245,0.12016 0.27842,0.22919 0.4495,0.1587 0.17479,-0.0717 0.20993,-0.25195 0.20993,-0.4403 0,-6.8e-4 -3.4e-4,-9.2e-4 -3.4e-4,-0.002 0.0696,-0.6894 0.6518,-1.22764 1.36208,-1.22764 0.71442,0 1.30005,0.54425 1.36391,1.23913 0.002,5.1e-4 0.003,0.002 0.004,0.002 0,0.0409 0.002,0.0831 0.008,0.12396 h -0.005 c 0,0.1883 -0.15323,0.3415 -0.34257,0.3415 -0.18883,0 -0.34223,-0.1532 -0.34223,-0.3415 0,-0.3771 -0.30695,-0.68255 -0.68533,-0.68255 -0.37854,0 -0.68511,0.30545 -0.68511,0.68255 v 0.3415 l -0.002,0.003 c 0.007,0.22564 -0.13789,0.43631 -0.36516,0.50362 -0.006,0.002 -0.0116,0.002 -0.0164,0.004 l -0.004,0.006 c -0.16027,0.0534 -0.31584,0.11764 -0.4651,0.19293 l -0.0103,-0.002 c -0.006,0.003 -0.0103,0.009 -0.0161,0.0111 -0.2216,0.11947 -0.49192,0.0597 -0.64413,-0.12971 l -0.21359,-0.21259 c -0.26781,-0.26664 -0.70175,-0.26664 -0.96903,0 -0.26742,0.26659 -0.26742,0.69888 0,0.96518 l 0.24222,0.24144 0.002,0.0105 c 0.16024,0.15599 0.20642,0.40265 0.0945,0.60861 -0.002,0.003 -0.005,0.006 -0.007,0.01 l 0.002,0.0113 c -0.0744,0.14888 -0.13984,0.30385 -0.1934,0.46384 l -0.0104,0.009 c -0.002,0.007 -0.002,0.0115 -0.004,0.0178 -0.0723,0.24364 -0.31144,0.39096 -0.556,0.3606 h -0.28984 c -0.37859,0 -0.68532,0.3058 -0.68532,0.68262 0,0.37665 0.30673,0.68262 0.68532,0.68262 h 0.34219 l 0.0102,0.008 c 0.22167,-3.5e-4 0.42687,0.14131 0.49342,0.36362 7.1e-4,0.002 7.1e-4,0.004 9.3e-4,0.007 l 0.0123,0.01 c 0.0536,0.15966 0.11842,0.31465 0.19367,0.46327 l -0.003,0.0207 c 0.003,0.004 0.006,0.008 0.008,0.0109 0.11993,0.22065 0.0599,0.48993 -0.13012,0.64159 l -0.20814,0.20764 c -0.26744,0.26628 -0.26744,0.69857 0,0.9652 0.26729,0.26631 0.70124,0.26631 0.96904,0 l 0.24237,-0.24129 0.0102,-0.002 c 0.1562,-0.15532 0.40108,-0.19898 0.60528,-0.0891 0.002,6.6e-4 0.002,0.002 0.004,0.003 l 0.0223,-0.004 c 0.14941,0.0741 0.30495,0.13931 0.46553,0.19267 l 0.0134,0.0178 c 0.002,6.4e-4 0.005,6.4e-4 0.008,0.002 0.2238,0.0663 0.3658,0.2713 0.36512,0.49291 l 0.002,0.003 v 0.34158 c 0,0.37694 0.30661,0.68258 0.68517,0.68258 0.37834,0 0.68528,-0.30564 0.68528,-0.68258 v -0.34198 l 0.002,-0.003 c -6.2e-4,-0.22167 0.14136,-0.42663 0.36518,-0.49293 0.003,-9.2e-4 0.005,-9.2e-4 0.008,-0.002 l 0.0132,-0.0174 c 0.16025,-0.0534 0.31566,-0.11768 0.46498,-0.19299 l 0.0228,0.004 c 9.4e-4,-6.6e-4 0.002,-0.002 0.004,-0.003 0.20427,-0.10999 0.44916,-0.0667 0.60538,0.0893 l 0.0104,0.002 0.24236,0.24127 c 0.2673,0.26631 0.70125,0.26631 0.969,0 0.26749,-0.26664 0.26749,-0.6989 0,-0.96519 l -0.20823,-0.20766 c -0.19002,-0.15164 -0.24991,-0.42093 -0.12994,-0.64158 0.002,-0.004 0.005,-0.008 0.008,-0.0108 l -0.004,-0.0229 c 0.0744,-0.14863 0.14035,-0.30161 0.19334,-0.46091 l 0.0131,-0.01 c 5e-4,-0.002 8.1e-4,-0.004 8.9e-4,-0.006 0.0667,-0.2223 0.27149,-0.36363 0.49312,-0.36363 l 0.0104,-0.008 h 0.34269 c 0.37857,0 0.68516,-0.30597 0.68516,-0.6827 0,-0.37675 -0.30659,-0.68253 -0.68516,-0.68253 h -0.28999 c -0.24491,0.0301 -0.48325,-0.11703 -0.55588,-0.36065 -0.002,-0.007 -0.002,-0.012 -0.004,-0.0183 l -0.0102,-0.008 c -0.0534,-0.15965 -0.11842,-0.31465 -0.19352,-0.46294 l 0.002,-0.0118 c -0.002,-0.004 -0.005,-0.006 -0.007,-0.0101 -0.11188,-0.20598 -0.066,-0.4526 0.0943,-0.60858 l 0.002,-0.0102 0.24238,-0.24151 c 0.26748,-0.26627 0.26748,-0.69854 0,-0.96517 -0.12711,-0.1263 -0.31312,-0.19847 -0.47956,-0.205 -0.18932,0 -0.34274,-0.1526 -0.34274,-0.34127 0,-0.18867 0.15342,-0.34128 0.34274,-0.34128 0.0249,0 0.0487,0.003 0.0714,0.008 0.32214,0.0211 0.64701,0.15281 0.89222,0.3974 0.50328,0.50132 0.52721,1.29184 0.0847,1.82795 0.002,0.003 0.002,0.008 0.004,0.0107 -0.002,0.002 -0.004,0.002 -0.006,0.004 -0.12361,0.12329 -0.2392,0.28163 -0.16677,0.45611 0.0717,0.17412 0.25268,0.20912 0.44166,0.20912 z m -2.34928,-1.71776 c -0.18935,0 -0.34259,-0.15297 -0.34259,-0.34148 0,-0.18814 0.15324,-0.34094 0.34259,-0.34094 0.18882,0 0.34223,0.1528 0.34223,0.34094 0,0.18851 -0.15341,0.34148 -0.34223,0.34148 z m -3.44877,6.11828 0.0262,-6.6e-4 v 0 z m 0.49131,0.19199 v 0 l 0.0208,0.0196 -0.0208,-0.0196 v 0 0 0 0 0 l 0.0208,0.0196 z"
       id="path2"
       sodipodi:nodetypes="scsccsccccccccscsccscccccccscsccccccccscsccccsssscccccccccccccccccccccsssccccccccccccccccccccccsssccccccccccccccccccccccsssccccccccccccssccccccsssssscccccccccccccccc"
       style="fill:#f5fbfc;fill-opacity:1;stroke-width:0.0213706" />
    <path
       fill-rule="evenodd"
       clip-rule="evenodd"
       d="m 439.26815,512.90428 c 0.006,0 0.01,-0.003 0.0143,-0.004 0.69162,0.0682 1.23311,0.64956 1.23311,1.3571 0,0.70898 -0.54213,1.29161 -1.23651,1.35861 -9e-4,0.004 -0.004,0.007 -0.005,0.01 -0.006,-3.4e-4 -0.0101,-0.003 -0.0142,-0.003 -0.17459,0 -0.36912,0.0311 -0.44137,0.20497 -0.0718,0.17433 0.03,0.32632 0.16389,0.45927 0.005,0.005 0.0109,0.007 0.0155,0.0104 0.43754,0.53594 0.41281,1.32185 -0.089,1.82148 -0.50097,0.49921 -1.2905,0.52458 -1.8286,0.0891 -0.009,0.005 -0.0164,0.007 -0.0251,0.01 -0.004,-0.005 -0.005,-0.01 -0.01,-0.0134 -0.12395,-0.12302 -0.28266,-0.2383 -0.45749,-0.16566 -0.17507,0.0716 -0.20984,0.25132 -0.20984,0.43991 0,0.0167 0.005,0.0319 0.0104,0.0481 -0.0865,0.67189 -0.65803,1.1925 -1.35608,1.1925 -0.71057,0 -1.29448,-0.5389 -1.36356,-1.22879 -0.008,-0.003 -0.0138,-0.008 -0.0219,-0.0101 3.3e-4,-0.004 0.002,-0.007 0.002,-0.01 0,-0.17394 -0.0308,-0.36728 -0.20556,-0.43928 -0.17482,-0.0719 -0.32755,0.0298 -0.46115,0.16334 -0.009,0.009 -0.0118,0.0178 -0.0175,0.0277 -0.53745,0.41923 -1.31324,0.39023 -1.80768,-0.10267 -0.50214,-0.50027 -0.52679,-1.28783 -0.0875,-1.82412 -0.005,-0.01 -0.008,-0.0192 -0.011,-0.0291 0.12344,-0.12304 0.23867,-0.28135 0.16625,-0.45534 -0.0722,-0.17394 -0.25289,-0.20924 -0.44212,-0.20924 -0.012,0 -0.0236,0.005 -0.0346,0.008 -0.67395,-0.0856 -1.19631,-0.65621 -1.19631,-1.3508 0,-0.71059 0.54462,-1.29338 1.24078,-1.35853 0.002,-0.007 0.006,-0.0111 0.009,-0.0174 0.17213,-0.002 0.3603,-0.0334 0.43124,-0.20466 0.072,-0.17365 -0.0297,-0.32498 -0.16291,-0.45792 -0.43842,-0.53562 -0.41383,-1.32255 0.0884,-1.82248 0.50363,-0.50209 1.29903,-0.52524 1.83712,-0.082 0.006,-0.003 0.0112,-0.004 0.0171,-0.007 0.12244,0.12018 0.27834,0.22917 0.44947,0.15868 0.17478,-0.0717 0.20994,-0.25197 0.20994,-0.44031 0,-6.1e-4 -3.4e-4,-8.7e-4 -3.4e-4,-0.002 0.0694,-0.68937 0.65181,-1.22764 1.36204,-1.22764 0.71443,0 1.30006,0.54428 1.36394,1.23914 0.002,5e-4 0.003,0.002 0.004,0.002 0,0.041 0.002,0.0831 0.008,0.12398 h -0.005 c 0,0.18834 -0.15319,0.34149 -0.34259,0.34149 -0.18884,0 -0.34222,-0.15315 -0.34222,-0.34149 0,-0.37709 -0.30696,-0.68254 -0.68532,-0.68254 -0.37856,0 -0.68516,0.30545 -0.68516,0.68254 v 0.34149 l -0.002,0.003 c 0.007,0.22565 -0.13782,0.43626 -0.36514,0.50364 -0.006,0.002 -0.0111,0.002 -0.0164,0.004 l -0.004,0.006 c -0.16024,0.0534 -0.31579,0.11764 -0.46501,0.19294 l -0.0101,-0.002 c -0.006,0.003 -0.0103,0.009 -0.0161,0.0111 -0.22163,0.11948 -0.49195,0.0596 -0.64414,-0.12965 l -0.21362,-0.21266 c -0.26778,-0.26665 -0.70169,-0.26665 -0.969,0 -0.26743,0.26665 -0.26743,0.6989 0,0.96521 l 0.24218,0.24147 0.002,0.0103 c 0.16025,0.15597 0.20642,0.40262 0.0945,0.60858 -0.002,0.003 -0.005,0.006 -0.007,0.01 l 0.002,0.0111 c -0.0744,0.14882 -0.13988,0.30381 -0.1934,0.46379 l -0.0104,0.009 c -0.002,0.007 -0.002,0.0115 -0.004,0.0178 -0.0723,0.24364 -0.31145,0.39093 -0.55599,0.36062 h -0.28984 c -0.37853,0 -0.68528,0.3058 -0.68528,0.68257 0,0.37671 0.30675,0.68269 0.68528,0.68269 h 0.34226 l 0.0104,0.008 c 0.22161,-3.4e-4 0.42684,0.14134 0.49341,0.36363 7e-4,0.002 7e-4,0.004 9.2e-4,0.007 l 0.0123,0.0101 c 0.0536,0.15965 0.11843,0.31462 0.19374,0.46327 l -0.003,0.0207 c 0.003,0.004 0.006,0.008 0.008,0.011 0.11997,0.22065 0.0599,0.48995 -0.13013,0.64158 l -0.20808,0.20765 c -0.26743,0.26626 -0.26743,0.69855 0,0.9652 0.26731,0.26631 0.7012,0.26631 0.96902,0 l 0.24236,-0.24129 0.01,-0.002 c 0.15623,-0.1553 0.40112,-0.19896 0.60532,-0.0893 0.002,6.7e-4 0.002,0.002 0.004,0.003 l 0.0223,-0.004 c 0.1494,0.074 0.30493,0.13932 0.46549,0.19263 l 0.0134,0.0178 c 0.002,6.5e-4 0.005,6.5e-4 0.008,0.002 0.22378,0.0662 0.3658,0.27134 0.36514,0.49294 l 0.002,0.003 v 0.34161 c 0,0.37698 0.30658,0.68258 0.68515,0.68258 0.37837,0 0.6853,-0.3056 0.6853,-0.68258 V 518.017 l 0.002,-0.003 c -6.6e-4,-0.22163 0.14137,-0.42661 0.36517,-0.49294 0.003,-8.8e-4 0.005,-8.8e-4 0.008,-0.002 l 0.0132,-0.0174 c 0.16027,-0.0534 0.31567,-0.11766 0.46498,-0.19298 l 0.0228,0.004 c 9.4e-4,-6.7e-4 0.002,-0.002 0.004,-0.003 0.20425,-0.10999 0.44916,-0.0667 0.60538,0.0891 l 0.0102,0.002 0.24238,0.24128 c 0.26727,0.2663 0.7012,0.2663 0.96897,0 0.26749,-0.26665 0.26749,-0.69893 0,-0.96522 l -0.20823,-0.20765 c -0.19002,-0.15162 -0.24992,-0.42092 -0.12996,-0.64156 0.002,-0.004 0.005,-0.008 0.008,-0.0105 l -0.004,-0.0229 c 0.0743,-0.14866 0.14035,-0.30163 0.19334,-0.46095 l 0.0131,-0.0102 c 5e-4,-0.002 8e-4,-0.004 8.9e-4,-0.006 0.0667,-0.22231 0.27149,-0.36359 0.49313,-0.36359 l 0.0104,-0.008 h 0.34269 c 0.37854,0 0.68516,-0.30599 0.68516,-0.68269 0,-0.37681 -0.30662,-0.6826 -0.68516,-0.6826 h -0.29003 c -0.24489,0.03 -0.48323,-0.11696 -0.55583,-0.36058 -0.002,-0.007 -0.002,-0.012 -0.004,-0.0183 l -0.0102,-0.008 c -0.0534,-0.15964 -0.11843,-0.31463 -0.19354,-0.46295 l 0.002,-0.0116 c -0.002,-0.004 -0.005,-0.006 -0.007,-0.01 -0.11193,-0.20597 -0.066,-0.45262 0.0943,-0.6086 l 0.002,-0.0104 0.24237,-0.24145 c 0.26745,-0.26633 0.26745,-0.69858 0,-0.96527 -0.12714,-0.12622 -0.31314,-0.1984 -0.47956,-0.20492 -0.18937,0 -0.34275,-0.15263 -0.34275,-0.34129 0,-0.18865 0.15338,-0.3413 0.34275,-0.3413 0.0249,0 0.0487,0.003 0.0715,0.008 0.32214,0.0211 0.64699,0.15283 0.89222,0.39749 0.50326,0.50125 0.5272,1.29185 0.0847,1.82795 0.002,0.003 0.002,0.008 0.004,0.0102 -0.002,0.002 -0.004,0.002 -0.006,0.004 -0.12359,0.12327 -0.2392,0.28161 -0.16676,0.45609 0.0717,0.17413 0.25267,0.20912 0.44166,0.20912 z m -2.3493,-1.71778 c -0.18935,0 -0.34257,-0.15302 -0.34257,-0.3415 0,-0.18812 0.15322,-0.34093 0.34257,-0.34093 0.18885,0 0.34224,0.15281 0.34224,0.34093 0,0.18848 -0.15339,0.3415 -0.34224,0.3415 z m -3.44877,6.11827 0.026,-6.1e-4 v 0 z m 0.4913,0.19196 v 0 l 0.0208,0.0196 -0.0208,-0.0196 v 0 0 0 0 0 l 0.0208,0.0196 z"
       id="path2-36"
       sodipodi:nodetypes="scsccsccccccccscsccscccccccscsccccccccscsccccsssscccccccccccccccccccccsssccccccccccccccccccccccsssccccccccccccccccccccccsssccccccccccccssccccccsssssscccccccccccccccc"
       style="fill:#f5fbfc;fill-opacity:1;stroke-width:0.0213706" />
    <path
       fill-rule="evenodd"
       clip-rule="evenodd"
       d="m 433.43987,521.98254 c 0.006,0 0.01,-0.003 0.0143,-0.004 0.69167,0.0685 1.23313,0.64958 1.23313,1.35719 0,0.70896 -0.54213,1.29157 -1.23648,1.35852 -9.4e-4,0.004 -0.004,0.007 -0.005,0.01 -0.006,-3.2e-4 -0.01,-0.003 -0.0143,-0.003 -0.17457,0 -0.36911,0.0308 -0.44137,0.20496 -0.0718,0.17428 0.0299,0.32627 0.16395,0.45927 0.005,0.005 0.0105,0.007 0.0155,0.0105 0.43756,0.53591 0.41277,1.32183 -0.0889,1.82141 -0.50099,0.49922 -1.2905,0.52458 -1.82864,0.0891 -0.009,0.005 -0.0164,0.007 -0.0251,0.0101 -0.004,-0.005 -0.005,-0.0101 -0.01,-0.0134 -0.12393,-0.12298 -0.28267,-0.23832 -0.45748,-0.16567 -0.17511,0.0715 -0.20993,0.25131 -0.20993,0.43993 0,0.0167 0.005,0.0319 0.0104,0.0481 -0.0864,0.67192 -0.65799,1.19252 -1.35599,1.19252 -0.71058,0 -1.29451,-0.53897 -1.36364,-1.22887 -0.008,-0.003 -0.0138,-0.008 -0.0219,-0.01 3.5e-4,-0.004 0.002,-0.007 0.002,-0.0101 0,-0.17396 -0.0303,-0.36725 -0.2056,-0.43925 -0.17482,-0.0719 -0.32754,0.0298 -0.46114,0.16327 -0.009,0.009 -0.0115,0.0178 -0.0175,0.0277 -0.53746,0.41928 -1.3133,0.39025 -1.80775,-0.10261 -0.50216,-0.50027 -0.52672,-1.28783 -0.0875,-1.82412 -0.005,-0.01 -0.008,-0.0192 -0.011,-0.0296 0.1235,-0.12295 0.2387,-0.2813 0.16635,-0.45526 -0.0722,-0.17394 -0.25292,-0.20927 -0.44209,-0.20927 -0.012,0 -0.0236,0.005 -0.0348,0.008 -0.6739,-0.0857 -1.1963,-0.65623 -1.1963,-1.35088 0,-0.71056 0.54466,-1.29332 1.24083,-1.35846 0.002,-0.007 0.006,-0.0115 0.009,-0.0174 0.17213,-0.002 0.36028,-0.0334 0.43127,-0.20466 0.0718,-0.17367 -0.0297,-0.325 -0.16295,-0.45792 -0.43842,-0.53557 -0.41386,-1.32254 0.0884,-1.82243 0.50361,-0.50212 1.29903,-0.52529 1.83715,-0.082 0.006,-0.003 0.0111,-0.004 0.0171,-0.007 0.12245,0.12015 0.27837,0.22916 0.44949,0.15871 0.17479,-0.0717 0.20992,-0.25197 0.20992,-0.44032 0,-6.9e-4 -3.6e-4,-8.9e-4 -3.6e-4,-0.002 0.0696,-0.68941 0.65185,-1.22767 1.36209,-1.22767 0.71441,0 1.30004,0.54427 1.36389,1.23916 0.002,5.1e-4 0.003,0.002 0.004,0.002 0,0.041 0.002,0.0831 0.008,0.12396 h -0.005 c 0,0.18831 -0.15322,0.3415 -0.34256,0.3415 -0.18885,0 -0.34223,-0.15319 -0.34223,-0.3415 0,-0.37708 -0.30693,-0.68255 -0.68532,-0.68255 -0.37853,0 -0.68515,0.30547 -0.68515,0.68255 v 0.3415 l -0.002,0.003 c 0.007,0.22563 -0.13785,0.4363 -0.36515,0.50361 -0.006,0.002 -0.0112,0.002 -0.0164,0.004 l -0.004,0.006 c -0.16021,0.0534 -0.31579,0.11765 -0.46503,0.19291 l -0.0101,-0.002 c -0.006,0.003 -0.0105,0.009 -0.0161,0.0112 -0.22162,0.11948 -0.49191,0.0596 -0.64415,-0.12967 l -0.21359,-0.21262 c -0.26783,-0.26665 -0.70173,-0.26665 -0.96902,0 -0.26744,0.2666 -0.26744,0.69887 0,0.96519 l 0.2422,0.24145 0.002,0.0102 c 0.16023,0.15597 0.20641,0.40266 0.0945,0.60861 -0.002,0.003 -0.005,0.006 -0.007,0.01 l 0.002,0.0114 c -0.0744,0.1488 -0.13982,0.30381 -0.1934,0.46379 l -0.0102,0.009 c -0.002,0.007 -0.002,0.0115 -0.004,0.0178 -0.0723,0.24364 -0.31144,0.39091 -0.556,0.36056 h -0.28982 c -0.37855,0 -0.68531,0.30583 -0.68531,0.68259 0,0.37672 0.30676,0.68268 0.68531,0.68268 h 0.3422 l 0.0102,0.008 c 0.22165,-3.5e-4 0.4269,0.14131 0.49344,0.36362 6.7e-4,0.002 6.7e-4,0.004 9.2e-4,0.007 l 0.0123,0.01 c 0.0536,0.15964 0.11841,0.31464 0.19367,0.46325 l -0.003,0.0207 c 0.003,0.004 0.006,0.008 0.008,0.011 0.11993,0.22067 0.0599,0.48996 -0.13011,0.6416 l -0.20812,0.20761 c -0.26744,0.26631 -0.26744,0.69861 0,0.96521 0.26726,0.26631 0.7012,0.26631 0.96903,0 l 0.24237,-0.24127 0.01,-0.002 c 0.15622,-0.15533 0.40109,-0.19898 0.60533,-0.0894 0.002,6.8e-4 0.002,0.002 0.004,0.003 l 0.0223,-0.004 c 0.14939,0.0741 0.30495,0.1393 0.46553,0.19264 l 0.0134,0.0178 c 0.002,6.3e-4 0.005,6.3e-4 0.008,0.002 0.22385,0.0663 0.36585,0.27129 0.36515,0.4929 l 0.002,0.003 v 0.34158 c 0,0.37695 0.30663,0.68261 0.68515,0.68261 0.37838,0 0.68531,-0.30566 0.68531,-0.68261 v -0.34181 l 0.002,-0.003 c -6.4e-4,-0.22164 0.14137,-0.4266 0.3652,-0.4929 0.003,-9.4e-4 0.005,-9.4e-4 0.008,-0.002 l 0.0132,-0.0174 c 0.16025,-0.0534 0.31565,-0.11766 0.465,-0.19298 l 0.0228,0.004 c 9.1e-4,-6.6e-4 0.002,-0.002 0.004,-0.003 0.20425,-0.10998 0.44912,-0.0666 0.60533,0.0894 l 0.0104,0.002 0.24236,0.24126 c 0.26731,0.26631 0.70124,0.26631 0.96902,0 0.26747,-0.2666 0.26747,-0.69889 0,-0.96521 l -0.20826,-0.20762 c -0.19001,-0.15164 -0.24989,-0.42092 -0.12995,-0.6416 0.002,-0.004 0.005,-0.008 0.008,-0.0109 l -0.004,-0.0229 c 0.0743,-0.14859 0.14036,-0.30159 0.19336,-0.46089 l 0.0131,-0.0102 c 4.9e-4,-0.002 8.3e-4,-0.004 9.2e-4,-0.006 0.0667,-0.22235 0.27146,-0.36363 0.49311,-0.36363 l 0.0106,-0.008 h 0.3427 c 0.37854,0 0.68516,-0.30598 0.68516,-0.68265 0,-0.37681 -0.30662,-0.68258 -0.68516,-0.68258 h -0.29002 c -0.24489,0.03 -0.48324,-0.11699 -0.55584,-0.36066 -0.002,-0.007 -0.002,-0.012 -0.004,-0.0183 l -0.0102,-0.008 c -0.0534,-0.15961 -0.11843,-0.31456 -0.19356,-0.46289 l 0.002,-0.0115 c -0.002,-0.004 -0.005,-0.006 -0.007,-0.0101 -0.11191,-0.20596 -0.0661,-0.45255 0.0943,-0.60854 l 0.002,-0.0105 0.24239,-0.24146 c 0.26745,-0.26628 0.26745,-0.69858 0,-0.96522 -0.12715,-0.12633 -0.31315,-0.19848 -0.47956,-0.20494 -0.18937,0 -0.34276,-0.15268 -0.34276,-0.34134 0,-0.18859 0.15339,-0.34126 0.34276,-0.34126 0.0249,0 0.0487,0.003 0.0713,0.008 0.32216,0.0211 0.64705,0.15285 0.89223,0.39748 0.50329,0.50127 0.5272,1.29182 0.0847,1.82794 0.002,0.003 0.002,0.008 0.004,0.0105 -0.002,0.002 -0.004,0.002 -0.006,0.004 -0.12361,0.12334 -0.23922,0.28167 -0.16679,0.45611 0.0718,0.17412 0.25269,0.20916 0.44166,0.20916 z m -2.34926,-1.71777 c -0.18939,0 -0.34261,-0.15297 -0.34261,-0.34145 0,-0.18815 0.15322,-0.34094 0.34261,-0.34094 0.18884,0 0.34221,0.15279 0.34221,0.34094 0,0.18848 -0.15337,0.34145 -0.34221,0.34145 z m -3.44877,6.11829 0.026,-6.8e-4 v 0 z m 0.49125,0.19199 v 0 l 0.0208,0.0196 -0.0208,-0.0196 v 0 0 0 0 0 l 0.0208,0.0196 z"
       id="path2-7"
       sodipodi:nodetypes="scsccsccccccccscsccscccccccscsccccccccscsccccsssscccccccccccccccccccccsssccccccccccccccccccccccsssccccccccccccccccccccccsssccccccccccccssccccccsssssscccccccccccccccc"
       style="fill:#f5fbfc;fill-opacity:1;stroke-width:0.0213706" />
  </g>
</svg>
