<?xml version="1.0" encoding="UTF-8" standalone="no"?>
<svg
   width="48"
   height="48"
   version="1.1"
   id="svg31"
   sodipodi:docname="libreoffice-draw.svg"
   inkscape:version="1.2.1 (9c6d41e410, 2022-07-14)"
   xmlns:inkscape="http://www.inkscape.org/namespaces/inkscape"
   xmlns:sodipodi="http://sodipodi.sourceforge.net/DTD/sodipodi-0.dtd"
   xmlns="http://www.w3.org/2000/svg"
   xmlns:svg="http://www.w3.org/2000/svg">
  <sodipodi:namedview
     id="namedview33"
     pagecolor="#ffffff"
     bordercolor="#666666"
     borderopacity="1.0"
     inkscape:showpageshadow="2"
     inkscape:pageopacity="0.0"
     inkscape:pagecheckerboard="0"
     inkscape:deskcolor="#d1d1d1"
     showgrid="false"
     inkscape:zoom="4.9166667"
     inkscape:cx="24"
     inkscape:cy="24"
     inkscape:window-width="1920"
     inkscape:window-height="1009"
     inkscape:window-x="0"
     inkscape:window-y="0"
     inkscape:window-maximized="1"
     inkscape:current-layer="svg31" />
  <defs
     id="defs17">
    <linearGradient
       id="a"
       y1="785.71"
       y2="727.71"
       gradientUnits="userSpaceOnUse"
       x2="0"
       gradientTransform="matrix(.72727 0 0 .68966.727 1.931)">
      <stop
         stop-color="#f39c12"
         id="stop2" />
      <stop
         offset="1"
         stop-color="#f5ab35"
         id="stop4" />
    </linearGradient>
    <linearGradient
       id="b"
       y1="531.8"
       y2="515.8"
       x2="0"
       gradientUnits="userSpaceOnUse">
      <stop
         stop-color="#f7bb5d"
         id="stop7" />
      <stop
         offset="1"
         stop-color="#fce3bc"
         id="stop9" />
    </linearGradient>
    <linearGradient
       id="c"
       y1="16"
       x1="16"
       y2="32"
       x2="32"
       gradientUnits="userSpaceOnUse">
      <stop
         stop-color="#383e51"
         id="stop12" />
      <stop
         offset="1"
         stop-color="#655c6f"
         stop-opacity="0"
         id="stop14" />
    </linearGradient>
    <filter
       id="filter1127"
       x="-0.061878592"
       y="-0.058231784"
       width="1.1237572"
       height="1.1164636"
       color-interpolation-filters="sRGB">
      <feGaussianBlur
         stdDeviation="0.48526995"
         id="feGaussianBlur244" />
    </filter>
    <linearGradient
       id="a-6"
       x1="32"
       x2="32"
       y1="8"
       y2="56"
       gradientTransform="matrix(0.53524886,0,0,0.53524886,16.14968,16.149682)"
       gradientUnits="userSpaceOnUse">
      <stop
         stop-color="#bc3b22"
         offset="0"
         id="stop222" />
      <stop
         stop-color="#e05d3e"
         offset="1"
         id="stop224" />
    </linearGradient>
    <filter
       id="g"
       x="-0.036000001"
       y="-0.036000001"
       width="1.072"
       height="1.072"
       color-interpolation-filters="sRGB">
      <feGaussianBlur
         stdDeviation="0.72"
         id="feGaussianBlur232" />
    </filter>
    <linearGradient
       id="d"
       x1="32"
       x2="32"
       y1="2"
       y2="62"
       gradientUnits="userSpaceOnUse"
       gradientTransform="matrix(0.71366514,0,0,0.71366514,-83.499291,-3.3305228)">
      <stop
         stop-opacity="0"
         offset="0"
         id="stop227" />
      <stop
         offset="1"
         id="stop229" />
    </linearGradient>
    <linearGradient
       id="c-7"
       x1="32"
       x2="32"
       y1="2"
       y2="62"
       gradientUnits="userSpaceOnUse"
       gradientTransform="matrix(0.71366514,0,0,0.71366514,1.1627119,1.1627145)">
      <stop
         stop-color="#e36f49"
         offset="0"
         id="stop235" />
      <stop
         stop-color="#e6653c"
         offset=".515"
         id="stop237" />
      <stop
         stop-color="#c84b2b"
         offset=".515"
         id="stop239" />
      <stop
         stop-color="#d33f24"
         offset="1"
         id="stop241" />
    </linearGradient>
    <linearGradient
       id="b-36"
       x1="32"
       x2="32"
       y1="2"
       y2="62"
       gradientUnits="userSpaceOnUse"
       gradientTransform="matrix(0.71366514,0,0,0.71366514,1.1627119,1.1627145)">
      <stop
         stop-color="#f49e7a"
         offset="0"
         id="stop213" />
      <stop
         stop-color="#fe9a69"
         offset=".515"
         id="stop215" />
      <stop
         stop-color="#c84b2b"
         offset=".515"
         id="stop217" />
      <stop
         stop-color="#d33f24"
         offset="1"
         id="stop219" />
    </linearGradient>
    <filter
       id="e"
       x="-0.035999999"
       y="-0.035999999"
       width="1.072"
       height="1.072"
       color-interpolation-filters="sRGB">
      <feGaussianBlur
         stdDeviation="0.9"
         id="feGaussianBlur210" />
    </filter>
  </defs>
  <circle
     cx="96.948952"
     cy="-16.745966"
     r="30"
     filter="url(#e)"
     opacity="0.25"
     style="fill-rule:evenodd;paint-order:stroke fill markers"
     id="circle252"
     transform="matrix(0.71366514,0,0,0.71366514,-45.189089,35.951011)" />
  <circle
     cx="24"
     cy="24"
     r="21.409954"
     style="fill:url(#b-36);fill-rule:evenodd;stroke-width:0.713665;paint-order:stroke fill markers"
     id="circle254" />
  <path
     d="M 23.999996,2.5900445 A 21.409954,21.409954 0 0 0 2.5900419,23.999998 21.409954,21.409954 0 0 0 23.999996,45.409953 Z"
     style="fill:url(#c-7);fill-rule:evenodd;stroke-width:0.713665;paint-order:stroke fill markers"
     id="path256" />
  <circle
     transform="matrix(0.53524885,0,0,0.53524885,16.149679,16.149682)"
     cx="32"
     cy="32"
     r="24"
     filter="url(#g)"
     opacity="0.15"
     style="fill-rule:evenodd;paint-order:stroke fill markers"
     id="circle262" />
  <circle
     cx="33.277641"
     cy="33.277645"
     r="12.845972"
     style="fill:url(#a-6);fill-rule:evenodd;stroke-width:0.713665;paint-order:stroke fill markers"
     id="circle264" />
  <path
     d="m 107.32595,-9.847966 v 12.204 h 1.8486 q 3.1615,0 4.8226,-1.5673 1.6745,-1.5673 1.6745,-4.5546 0,-2.9739 -1.6611,-4.5278 -1.6611,-1.5539 -4.836,-1.5539 z m -5.1575,-3.8982 h 5.4388 q 4.5546,0 6.7784,0.6564 2.2371,0.64301 3.8313,2.1969 1.4066,1.353 2.0898,3.1213 0.6832,1.7683 0.6832,4.0054 0,2.2639 -0.6832,4.0456 -0.6832,1.7683 -2.0898,3.1213 -1.6075,1.5539 -3.858,2.2103 -2.2505,0.64301 -6.7516,0.64301 h -5.4388 z"
     stroke-width="0.68587"
     id="path268"
     style="font-variant-ligatures:normal;font-variant-caps:normal;font-variant-numeric:normal;font-feature-settings:normal;opacity:0.25;filter:url(#filter1127)"
     transform="matrix(0.71366514,0,0,0.71366514,-45.189089,35.951011)" />
  <path
     d="m 31.4057,28.922861 v 8.709569 h 1.319281 q 2.256252,0 3.441721,-1.118527 1.195033,-1.118527 1.195033,-3.250459 0,-2.122369 -1.185469,-3.231333 -1.18547,-1.108965 -3.451285,-1.108965 z m -3.680728,-2.782009 h 3.881482 q 3.250459,0 4.837511,0.468449 1.59654,0.458894 2.73426,1.567851 1.00384,0.965589 1.49142,2.227563 0.48757,1.261974 0.48757,2.858515 0,1.615666 -0.48757,2.887203 -0.48758,1.261974 -1.49142,2.227563 -1.14722,1.108965 -2.75332,1.577415 -1.606102,0.458894 -4.81838,0.458894 h -3.881482 z"
     fill="#ffffff"
     stroke-width="0.489482"
     id="path272"
     style="font-variant-ligatures:normal;font-variant-caps:normal;font-variant-numeric:normal;font-feature-settings:normal" />
</svg>
