<?xml version="1.0" encoding="UTF-8" standalone="no"?>
<svg
   viewBox="0 0 22 22"
   width="22"
   height="22"
   version="1.1"
   id="svg5"
   sodipodi:docname="audio-on.svg"
   inkscape:version="1.4.2 (unknown)"
   xmlns:inkscape="http://www.inkscape.org/namespaces/inkscape"
   xmlns:sodipodi="http://sodipodi.sourceforge.net/DTD/sodipodi-0.dtd"
   xmlns="http://www.w3.org/2000/svg"
   xmlns:svg="http://www.w3.org/2000/svg">
  <defs
     id="defs5" />
  <sodipodi:namedview
     id="namedview5"
     pagecolor="#ffffff"
     bordercolor="#999999"
     borderopacity="1"
     inkscape:showpageshadow="2"
     inkscape:pageopacity="0"
     inkscape:pagecheckerboard="0"
     inkscape:deskcolor="#d1d1d1"
     inkscape:zoom="15.875"
     inkscape:cx="10.80315"
     inkscape:cy="8.976378"
     inkscape:window-width="1920"
     inkscape:window-height="994"
     inkscape:window-x="0"
     inkscape:window-y="0"
     inkscape:window-maximized="1"
     inkscape:current-layer="svg5"
     showgrid="true">
    <inkscape:grid
       id="grid1"
       units="px"
       originx="0"
       originy="0"
       spacingx="1"
       spacingy="1"
       empcolor="#0099e5"
       empopacity="0.30196078"
       color="#0099e5"
       opacity="0.14902"
       empspacing="5"
       dotted="false"
       gridanglex="30"
       gridanglez="30"
       visible="true" />
  </sodipodi:namedview>
  <style
     id="current-color-scheme"
     type="text/css">.ColorScheme-Text { color:#d3dae3; }
</style>
  <g
     id="g1"
     transform="translate(-0.900006,-19.976791)">
    <path
       d="m 14.9,24.013808 c 0,-0.958748 -1.176456,-1.367133 -1.920462,-0.730102 l -4.146054,3.54947 c -0.126734,0.108504 -0.290409,0.167601 -0.46,0.167601 H 4.976925 C 3.82987,27.000777 2.9,27.897023 2.9,29.001562 v 3.998035 c 0,1.104503 0.92987,2.001116 2.076925,2.001116 h 3.396512 c 0.169603,0 0.333301,0.05871 0.46004,0.167239 l 4.145971,3.54986 c 0.744095,0.637173 1.920555,0.282996 1.920555,-0.717004 z m -5.146519,3.516 4.146522,-3.529 v 14 l -4.146475,-3.529 c -0.380217,-0.325592 -0.87131,-0.471 -1.380091,-0.471 L 8.373,27.976791 v 0 0 0.02402 h 4.84e-4 c 0.508744,0 0.999793,-0.145506 1.379997,-0.471 z"
       id="path2057-3"
       style="stroke-width:0.905853;fill-opacity:1;fill:currentColor;"
       sodipodi:nodetypes="sccssssssccssccccsccccsc"
       class="ColorScheme-Text" />
    <path
       d="m 18.275045,25.793183 c 0.301444,-0.21035 0.726891,-0.150642 0.950253,0.133346 C 20.340319,27.344621 21,29.100686 21,31 c 0,1.899316 -0.659681,3.65538 -1.774702,5.073491 -0.223363,0.284028 -0.648809,0.34367 -0.950253,0.133348 C 17.97351,35.996527 17.910194,35.595777 18.133478,35.31175 19.081104,34.106596 19.641332,32.615883 19.641332,31 c 0,-1.615798 -0.560226,-3.106548 -1.507854,-4.311739 -0.223284,-0.283989 -0.159968,-0.684731 0.141567,-0.895078 z"
       id="path2059-6"
       style="fill:#00d455;fill-opacity:1;stroke-width:0.879133" />
    <path
       d="m 16.64946,27.90408 c 0.323713,-0.168241 0.7283,-0.0527 0.90357,0.258103 0.476589,0.845191 0.74697,1.813025 0.74697,2.839599 0,1.026573 -0.27038,1.994448 -0.74697,2.839633 -0.17527,0.310737 -0.579857,0.426345 -0.90357,0.258094 -0.323789,-0.168252 -0.444221,-0.556631 -0.268954,-0.867369 0.373747,-0.662766 0.586267,-1.421779 0.586267,-2.230358 0,-0.80858 -0.212519,-1.567593 -0.586267,-2.230336 -0.175267,-0.310785 -0.05486,-0.699121 0.268954,-0.867366 z"
       id="path2061-7"
       style="fill:#00d455;fill-opacity:1;stroke-width:0.87086" />
    <path
       d="m 4.4000008,30.976782 c 0,0.828834 -0.6711735,1.500009 -1.4999978,1.500009 -0.828126,1e-6 -1.499997,-0.671175 -1.499997,-1.500009 0,-0.828126 0.671871,-1.499991 1.499997,-1.499991 0.8288243,0 1.4999978,0.671865 1.4999978,1.499991 z"
       id="path72-3-7-3"
       style="stroke-width:0.0178575;fill-opacity:1;fill:currentColor;"
       class="ColorScheme-Text" />
    <path
       d="m 15.899995,30.976782 c 0,0.828834 -0.671174,1.500009 -1.499998,1.500009 -0.499994,0 -0.499994,-1.500009 -0.499994,-1.500009 0,0 0,-1.499991 0.499994,-1.499991 0.828824,0 1.499998,0.671865 1.499998,1.499991 z"
       id="path72-3-7-3-6"
       style="stroke-width:0.0178575;fill-opacity:1;fill:currentColor;"
       sodipodi:nodetypes="sscss"
       class="ColorScheme-Text" />
  </g>
</svg>
