<?xml version="1.0" encoding="UTF-8" standalone="no"?>
<svg
   viewBox="0 0 22 22"
   width="22"
   height="22"
   version="1.1"
   id="svg5"
   sodipodi:docname="audio-volume-medium.svg"
   inkscape:version="1.4.2 (unknown)"
   xmlns:inkscape="http://www.inkscape.org/namespaces/inkscape"
   xmlns:sodipodi="http://sodipodi.sourceforge.net/DTD/sodipodi-0.dtd"
   xmlns="http://www.w3.org/2000/svg"
   xmlns:svg="http://www.w3.org/2000/svg">
  <defs
     id="defs5" />
  <sodipodi:namedview
     id="namedview5"
     pagecolor="#ffffff"
     bordercolor="#999999"
     borderopacity="1"
     inkscape:showpageshadow="2"
     inkscape:pageopacity="0"
     inkscape:pagecheckerboard="0"
     inkscape:deskcolor="#d1d1d1"
     inkscape:zoom="7.9375"
     inkscape:cx="10.708661"
     inkscape:cy="11.527559"
     inkscape:window-width="1920"
     inkscape:window-height="998"
     inkscape:window-x="0"
     inkscape:window-y="0"
     inkscape:window-maximized="1"
     inkscape:current-layer="svg5" />
  <style
     id="current-color-scheme"
     type="text/css">.ColorScheme-Text { color: #fcfcfc; }
</style>
  <g
     id="g2"
     transform="translate(6.399994,-30.866142)">
    <path
       d="m 7.6,34.903159 c 0,-0.958748 -1.176456,-1.367133 -1.920462,-0.730102 l -4.146054,3.54947 c -0.126734,0.108504 -0.290409,0.167601 -0.46,0.167601 H -2.323075 C -3.47013,37.890128 -4.4,38.786374 -4.4,39.890913 v 3.998035 c 0,1.104503 0.92987,2.001116 2.076925,2.001116 h 3.396512 c 0.169603,0 0.333301,0.05871 0.46004,0.167239 l 4.145971,3.54986 c 0.744095,0.637173 1.920555,0.282996 1.920555,-0.717004 z m -5.146519,3.516 4.146522,-3.529 v 14 l -4.146475,-3.529 c -0.380217,-0.325592 -0.87131,-0.471 -1.380091,-0.471 L 1.073,38.866142 v 0 0 0.02402 h 4.84e-4 c 0.508744,0 0.999793,-0.145506 1.379997,-0.471 z"
       id="path2057-3-7"
       style="fill:currentColor;fill-opacity:1;stroke-width:0.905853"
       sodipodi:nodetypes="sccssssssccssccccsccccsc"
       class="ColorScheme-Text " />
    <path
       d="m 10.975045,36.682534 c 0.301444,-0.21035 0.726891,-0.150642 0.950253,0.133346 1.115021,1.418092 1.774702,3.174157 1.774702,5.073471 0,1.899316 -0.659681,3.65538 -1.774702,5.073491 -0.223363,0.284028 -0.648809,0.34367 -0.950253,0.133348 -0.301535,-0.210312 -0.364851,-0.611062 -0.141567,-0.895089 0.947626,-1.205154 1.507854,-2.695867 1.507854,-4.31175 0,-1.615798 -0.560226,-3.106548 -1.507854,-4.311739 -0.223284,-0.283989 -0.159968,-0.684731 0.141567,-0.895078 z"
       id="path2059-6-5"
       style="fill:currentColor;fill-opacity:0.501961;stroke-width:0.879133"
       class="ColorScheme-Text" />
    <path
       d="m 9.34946,38.793431 c 0.323713,-0.168241 0.7283,-0.0527 0.90357,0.258103 C 10.729619,39.896725 11,40.864559 11,41.891133 c 0,1.026573 -0.27038,1.994448 -0.74697,2.839633 -0.17527,0.310737 -0.579857,0.426345 -0.90357,0.258094 -0.323789,-0.168252 -0.444221,-0.556631 -0.268954,-0.867369 0.373747,-0.662766 0.586267,-1.421779 0.586267,-2.230358 0,-0.80858 -0.212519,-1.567593 -0.586267,-2.230336 -0.175267,-0.310785 -0.05486,-0.699121 0.268954,-0.867366 z"
       id="path2061-7-35"
       style="fill:currentColor;fill-opacity:1;stroke-width:0.87086"
       class="ColorScheme-Text" />
    <path
       d="m -2.899999,41.866133 c 0,0.828834 -0.671174,1.500009 -1.499998,1.500009 -0.828126,10e-7 -1.499997,-0.671175 -1.499997,-1.500009 0,-0.828126 0.671871,-1.499991 1.499997,-1.499991 0.828824,0 1.499998,0.671865 1.499998,1.499991 z"
       id="path72-3-7-3-62"
       style="fill:currentColor;fill-opacity:1;stroke-width:0.0178575"
       class="ColorScheme-Text" />
    <path
       d="m 8.599995,41.866133 c 0,0.828834 -0.671174,1.500009 -1.499998,1.500009 -0.499994,0 -0.499994,-1.500009 -0.499994,-1.500009 0,0 0,-1.499991 0.499994,-1.499991 0.828824,0 1.499998,0.671865 1.499998,1.499991 z"
       id="path72-3-7-3-6-9"
       style="fill:currentColor;fill-opacity:1;stroke-width:0.0178575"
       sodipodi:nodetypes="sscss"
       class="ColorScheme-Text" />
  </g>
</svg>
