<?xml version="1.0" encoding="UTF-8" standalone="no"?>
<svg
   viewBox="0 0 22 22"
   version="1.1"
   id="svg6"
   sodipodi:docname="folder-Peace.svg"
   inkscape:version="1.1.2 (0a00cf5339, 2022-02-04)"
   xmlns:inkscape="http://www.inkscape.org/namespaces/inkscape"
   xmlns:sodipodi="http://sodipodi.sourceforge.net/DTD/sodipodi-0.dtd"
   xmlns="http://www.w3.org/2000/svg"
   xmlns:svg="http://www.w3.org/2000/svg"
   xmlns:rdf="http://www.w3.org/1999/02/22-rdf-syntax-ns#"
   xmlns:cc="http://creativecommons.org/ns#"
   xmlns:dc="http://purl.org/dc/elements/1.1/">
  <metadata
     id="metadata10">
    <rdf:RDF>
      <cc:Work
         rdf:about="">
        <dc:format>image/svg+xml</dc:format>
        <dc:type
           rdf:resource="http://purl.org/dc/dcmitype/StillImage" />
      </cc:Work>
    </rdf:RDF>
  </metadata>
  <sodipodi:namedview
     pagecolor="#ffffff"
     bordercolor="#666666"
     borderopacity="1"
     objecttolerance="10"
     gridtolerance="10"
     guidetolerance="10"
     inkscape:pageopacity="0"
     inkscape:pageshadow="2"
     inkscape:window-width="1920"
     inkscape:window-height="1013"
     id="namedview8"
     showgrid="false"
     inkscape:zoom="28.545455"
     inkscape:cx="5.3773884"
     inkscape:cy="11"
     inkscape:window-x="0"
     inkscape:window-y="0"
     inkscape:window-maximized="1"
     inkscape:current-layer="svg6"
     inkscape:pagecheckerboard="0" />
  <defs
     id="defs3051">
    <style
       type="text/css"
       id="current-color-scheme">
      .ColorScheme-Text {
        color:#eff0f1
      }
      </style>
  </defs>
  <path
     d="m 11,3 c -4.4,0 -8,3.6 -8,8 0,4.4 3.6,8 8,8 4.399999,0 7.999999,-3.6 7.999999,-8 0,-4.4 -3.6,-8 -7.999999,-8 z m -0.571434,1.2 v 1.0857133 c 0,0.3428533 0.22858,0.5714267 0.571434,0.5714267 0.342853,0 0.571434,-0.2285734 0.571434,-0.5714267 V 4.2 c 3.485713,0.2857133 6.285712,3.25714 6.285712,6.799673 0,1.428573 -0.457147,2.742853 -1.14286,3.828567 L 11.571434,10.713953 V 6.9996733 c 0,-0.3428667 -0.228581,-0.5714267 -0.571434,-0.5714267 -0.342854,0 -0.571434,0.22856 -0.571434,0.5714267 V 10.713953 L 5.285713,14.82824 c -0.74286,-1.085714 -1.14286,-2.399994 -1.14286,-3.828567 0,-3.5999997 2.8,-6.5142863 6.285713,-6.799673 z m -4.399999,11.486033 4.4,-3.542853 v 5.657147 c -1.71428,-0.11428 -3.257134,-0.91428 -4.4,-2.114294 z m 5.542867,2.114294 V 12.14318 l 4.399999,3.542853 c -1.142866,1.2 -2.68572,2 -4.399999,2.114294 z"
     id="path47"
     style="fill:#eff0f1;fill-opacity:1;stroke-width:0.0653061" />
</svg>
