<?xml version="1.0" encoding="UTF-8" standalone="no"?>
<svg
   height="48"
   width="48"
   version="1.1"
   id="svg12"
   sodipodi:docname="gucharmap.svg"
   inkscape:version="1.2.1 (9c6d41e410, 2022-07-14)"
   xmlns:inkscape="http://www.inkscape.org/namespaces/inkscape"
   xmlns:sodipodi="http://sodipodi.sourceforge.net/DTD/sodipodi-0.dtd"
   xmlns:xlink="http://www.w3.org/1999/xlink"
   xmlns="http://www.w3.org/2000/svg"
   xmlns:svg="http://www.w3.org/2000/svg">
  <defs
     id="defs16">
    <linearGradient
       inkscape:collect="always"
       id="linearGradient811">
      <stop
         style="stop-color:#aa87de;stop-opacity:1;"
         offset="0"
         id="stop807" />
      <stop
         style="stop-color:#5599ff;stop-opacity:1"
         offset="1"
         id="stop809" />
    </linearGradient>
    <linearGradient
       inkscape:collect="always"
       xlink:href="#linearGradient811"
       id="linearGradient813"
       x1="3"
       y1="24"
       x2="63.290558"
       y2="23.403431"
       gradientUnits="userSpaceOnUse" />
  </defs>
  <sodipodi:namedview
     id="namedview14"
     pagecolor="#ffffff"
     bordercolor="#666666"
     borderopacity="1.0"
     inkscape:pageshadow="2"
     inkscape:pageopacity="0.0"
     inkscape:pagecheckerboard="0"
     showgrid="false"
     inkscape:zoom="5.7894368"
     inkscape:cx="21.418318"
     inkscape:cy="9.0682396"
     inkscape:window-width="1920"
     inkscape:window-height="1002"
     inkscape:window-x="0"
     inkscape:window-y="0"
     inkscape:window-maximized="1"
     inkscape:current-layer="svg12"
     inkscape:showpageshadow="2"
     inkscape:deskcolor="#d1d1d1" />
  <path
     id="path2"
     style="fill:url(#linearGradient813);fill-opacity:1;stroke-width:1.06559"
     d="M 24.047314,3 A 21.046349,21.000852 0 0 0 3,24.000001 21.046349,21.000852 0 0 0 24.047314,45 21.046349,21.000852 0 0 0 45.092814,24.000001 21.046349,21.000852 0 0 0 24.047314,3 Z" />
  <path
     d="m 24.228425,19.836147 a 2.0864388,2.081928 0 0 0 -2.086438,2.081927 2.0864388,2.081928 0 0 0 0.15576,0.787954 c 0.09072,0.06346 0.171534,0.139529 0.257183,0.209635 0.05254,0.06646 0.100556,0.136176 0.157569,0.198794 0.09675,0.106297 0.222664,0.183789 0.32419,0.28555 0.133105,0.13339 0.249926,0.282163 0.369478,0.428308 a 2.0864388,2.081928 0 0 0 0.822258,0.171686 2.0864388,2.081928 0 0 0 2.086437,-2.081927 2.0864388,2.081928 0 0 0 -2.086437,-2.081927 z"
     fill="#a77777"
     id="path4"
     style="stroke-width:0.926306" />
  <g
     fill="#ffffff"
     stroke-width="0.714879"
     id="g10"
     transform="matrix(0.92730607,0,0,0.92530129,1.973081,1.7927709)">
    <path
       d="m 18.816406,8.9042969 c -0.633668,0 -1.144531,0.5108626 -1.144531,1.1445311 v 17.728516 c 0,0.633668 0.510863,1.144531 1.144531,1.144531 H 19.8125 c -0.446498,-0.130412 -0.665847,-0.160836 -0.732422,-0.744141 -0.0112,-0.0981 0.06769,-0.186557 0.101563,-0.279296 0.0046,-0.0059 0.0078,-0.0084 0.01367,-0.01758 0.03153,-0.08835 0.0721,-0.182716 0.08398,-0.199218 0.0076,-0.01051 -0.0019,0.0514 0.002,0.03906 0.01778,-0.0558 0.02756,-0.112922 0.04102,-0.169922 0.0152,-0.04575 0.02383,-0.09532 0.04492,-0.138672 0.0048,-0.0098 0.02824,-0.0047 0.0293,-0.01563 0.02879,-0.292948 -0.05742,-0.594154 0.0039,-0.886718 0.04199,-0.201152 0.06542,-0.424042 0.232421,-0.576172 0.25211,-0.229651 0.516638,-0.183449 0.798829,-0.115235 0.01416,0.0076 0.04112,0.0179 0.06445,0.02734 0.01285,0.0024 0.03312,0.0063 0.04297,0.0078 0.04111,0.0062 0.07848,0.02975 0.117188,0.04492 0.449189,0.175985 0.239054,0.08362 0.724609,0.347656 0.113503,0.06596 0.229634,0.125457 0.34375,0.189453 0.006,-0.0015 0.01001,-0.0062 0.01563,-0.0078 0.05301,-0.01539 0.102633,-0.01416 0.154297,-0.02344 -0.03906,-0.05088 -0.07812,-0.101468 -0.117187,-0.152344 -0.256771,-0.309806 -0.525825,-0.610997 -0.771485,-0.929687 -0.494843,-0.64195 -0.661646,-0.932284 -1.064453,-1.566407 -0.08679,-0.20926 -0.349592,-0.656896 -0.123047,-0.919921 -0.367275,-0.515059 -0.115214,-0.977067 0.304688,-0.904297 0.150445,0.02607 0.32067,0.121151 0.488281,0.30664 0.36356,0.402336 0.717125,0.821735 0.996094,1.289063 0.05282,0.08848 0.09826,0.181291 0.144531,0.273437 0.85929,0.61099 1.853593,1.025567 2.636719,1.742188 0.180957,0.165589 0.343968,0.377676 0.498047,0.572265 0.02266,0.09051 0.01561,0.06041 0.03125,0.119141 0.09685,0.02903 0.177717,0.07075 0.177734,0.132813 2.8e-5,0.101735 -0.01348,0.194279 -0.03516,0.279296 0.0289,0.03958 0.04868,0.0846 0.07617,0.125 0.0017,-0.0051 0.0022,-0.01055 0.0039,-0.01563 1.74e-4,-5.12e-4 0.0023,0.02496 0.002,0.02734 0.158917,0.234931 0.307403,0.47529 0.4375,0.728516 0.04778,0.09613 0.09251,0.186702 0.138672,0.277343 0.584246,0.115523 1.114919,0.407866 1.560547,0.798829 0.100089,0.10886 0.196798,0.221089 0.292969,0.333984 h 8.972656 c 0.633669,0 1.144531,-0.510863 1.144531,-1.144531 v -17.72849 c 0,-0.6336685 -0.510862,-1.1445311 -1.144531,-1.1445311 z m 8.88086,5.7539061 h 1.396484 v 1.460938 h -1.396484 z m 2.833984,0 h 1.398438 v 1.460938 H 30.53125 Z m -0.5,2.929688 c 1.037647,7e-6 1.857485,0.352434 2.458984,1.05664 0.606053,0.699359 0.910157,1.651636 0.910157,2.857422 v 0.650391 h -5.828125 c 0.05512,0.916403 0.316803,1.615399 0.785156,2.097656 0.472907,0.477496 1.130506,0.716797 1.970703,0.716797 0.486682,0 0.957518,-0.0621 1.412109,-0.1875 0.459124,-0.125404 0.913337,-0.313645 1.363282,-0.564453 v 1.257812 c -0.454556,0.202576 -0.920899,0.358735 -1.398438,0.464844 -0.47751,0.106109 -0.961789,0.158203 -1.453125,0.158203 -1.230521,0 -2.204969,-0.37646 -2.925781,-1.128906 C 26.609863,24.214029 26.25,23.196556 26.25,21.914062 c -7e-6,-1.326385 0.340017,-2.377795 1.019531,-3.154296 0.684118,-0.781363 1.604687,-1.171875 2.761719,-1.171875 z m 0.01367,1.128906 c -0.70708,7e-6 -1.274175,0.209301 -1.701172,0.628906 -0.422408,0.41962 -0.664234,1.009495 -0.728516,1.771485 l 4.517578,-0.0059 c -0.0092,-0.728319 -0.204856,-1.310066 -0.585937,-1.74414 -0.376498,-0.434075 -0.877506,-0.650384 -1.501953,-0.650391 z m -7.085938,7.027344 c 0.06408,0.140089 0.111042,0.287923 0.175782,0.427734 0.07056,0.152372 0.150203,0.300627 0.228515,0.449219 0.181188,0.105447 0.351642,0.249311 0.511719,0.382812 0.0021,-0.0105 -0.0047,-0.03263 0.0059,-0.03125 0.05554,0.0073 0.111896,0.04091 0.167969,0.06836 -0.247193,-0.152768 -0.310345,-0.401303 -0.199219,-0.59961 -0.03172,-0.03772 -0.07361,-0.09429 -0.0918,-0.111328 -0.26988,-0.252917 -0.521098,-0.415982 -0.798828,-0.585937 z M 19.90625,26.625 c -0.01962,0.0094 0.06848,0.07369 0.134766,0.125 0.0074,0.0059 0.02369,0.01141 0.02148,0.01758 0.04477,-0.006 0.08795,-0.01573 0.130859,-0.02539 -0.103111,-0.04266 -0.275963,-0.1225 -0.287109,-0.117188 z m 2.191406,1.146484 c -0.134633,0.01823 -0.229909,0.03221 -0.455078,0.04687 -0.427666,-0.04205 -0.833995,0.135092 -1.259766,0.08203 -0.02511,-0.0026 -0.064,-0.02407 -0.09961,-0.03906 -7.02e-4,0.0021 -0.0012,0.0037 -0.002,0.0059 -0.02396,0.07618 -0.03111,0.08502 -0.04687,0.130859 0.0072,0.0021 0.01425,0.004 0.02148,0.0059 0.04495,0.01131 0.09106,0.01543 0.136719,0.02344 0.175519,0.02516 0.35915,-0.0408 0.533203,-0.02344 0.107152,0.01069 0.212139,0.03754 0.316407,0.06445 0.261813,0.06757 0.06177,0.05449 0.220703,0.05859 0.188021,-0.01997 0.374866,-0.03381 0.564453,-0.0293 0.153916,0.133058 0.31571,0.0915 0.480468,0.136719 0.178588,0.04902 0.368602,0.110628 0.544922,0.167969 0.04006,0.0051 0.0722,0.02638 0.109375,0.03711 -0.0099,-0.07026 -0.01786,-0.151624 -0.03516,-0.1875 -0.0037,-0.0076 -0.0098,-0.01397 -0.01367,-0.02148 -0.09392,-0.03624 -0.188708,-0.07174 -0.28125,-0.111328 -0.250387,-0.107119 -0.492156,-0.227724 -0.734375,-0.347657 z m 3.007813,0.958985 c 0.01346,0.06412 0.03132,0.12726 0.04492,0.191406 h 0.123047 c -0.02908,-0.03304 -0.06403,-0.06437 -0.0918,-0.09766 -0.02577,-0.03089 -0.03937,-0.06115 -0.0625,-0.0918 -0.0046,-5.84e-4 -0.0091,-0.0014 -0.01367,-0.002 z"
       fill-opacity="0.355372"
       id="path6" />
    <path
       d="m 10.238281,17.482422 c -0.6336685,0 -1.144531,0.510862 -1.144531,1.144531 v 17.728516 c 0,0.633668 0.5108625,1.144531 1.144531,1.144531 h 17.728516 c 0.633669,0 1.144531,-0.510863 1.144531,-1.144531 V 18.626953 c 0,-0.633669 -0.510862,-1.144531 -1.144531,-1.144531 z m 9.740235,5.753906 h 1.339843 l 1.917969,2.566406 H 22.197266 Z M 22.25,26.605469 c 1.101771,7e-6 1.924656,0.288849 2.46875,0.865234 0.543766,0.576031 0.816085,1.449139 0.816406,2.619141 v 0.002 4.382812 h -1.25 v -1.166015 c -0.285658,0.46658 -0.64212,0.811041 -1.068359,1.035156 -0.426211,0.219568 -0.947799,0.330078 -1.564453,0.330078 -0.779862,0 -1.400755,-0.219067 -1.863282,-0.658203 -0.458237,-0.443225 -0.6875,-1.036729 -0.6875,-1.777344 0,-0.864574 0.286148,-1.515928 0.857422,-1.955078 0.575835,-0.439176 1.432226,-0.65825 2.570313,-0.65825 h 1.755859 V 29.5 c -6e-6,-0.580932 -0.191399,-1.028131 -0.572265,-1.34375 -0.376334,-0.320194 -0.907158,-0.480462 -1.591797,-0.480469 -0.435276,7e-6 -0.858856,0.053 -1.271485,0.158203 -0.412606,0.105216 -0.808565,0.262239 -1.189453,0.472657 v -1.166016 c 0.457945,-0.178391 0.901317,-0.311515 1.332032,-0.398437 0.430743,-0.09148 0.849759,-0.136712 1.257812,-0.136719 z m 0.789062,4.005859 c -1.011124,7e-6 -1.711667,0.118276 -2.101562,0.351563 -0.389938,0.233293 -0.583984,0.630699 -0.583984,1.193359 0,0.448286 0.145363,0.805021 0.435546,1.070312 0.294717,0.260738 0.693991,0.390625 1.197266,0.390626 0.693719,0 1.248812,-0.246203 1.666016,-0.740235 0.421664,-0.498599 0.632805,-1.161049 0.632812,-1.984375 v -0.28125 z"
       id="path8" />
  </g>
</svg>
