<?xml version="1.0" encoding="UTF-8" standalone="no"?>
<svg
   height="48"
   width="48"
   version="1.1"
   id="svg857"
   sodipodi:docname="org.opensuse.opensuse_welcome.svg"
   inkscape:version="1.2.1 (9c6d41e410, 2022-07-14)"
   xmlns:inkscape="http://www.inkscape.org/namespaces/inkscape"
   xmlns:sodipodi="http://sodipodi.sourceforge.net/DTD/sodipodi-0.dtd"
   xmlns:xlink="http://www.w3.org/1999/xlink"
   xmlns="http://www.w3.org/2000/svg"
   xmlns:svg="http://www.w3.org/2000/svg">
  <defs
     id="defs861">
    <linearGradient
       gradientTransform="matrix(1.0499563,0,0,1.0498968,-452.98214,-525.93407)"
       gradientUnits="userSpaceOnUse"
       x2="426.69501"
       y2="499.92099"
       y1="547.67499"
       id="a-6"
       x1="389.32001">
      <stop
         stop-color="#18222a"
         style="stop-color:#1e2b35;stop-opacity:1"
         id="stop216" />
      <stop
         stop-color="#566069"
         offset="1"
         style="stop-color:#6d7983;stop-opacity:1"
         id="stop218" />
    </linearGradient>
    <linearGradient
       id="d-3"
       gradientUnits="userSpaceOnUse"
       x1="10"
       x2="30"
       y1="10"
       y2="30"
       gradientTransform="matrix(0.82164929,0,0,0.77777884,-9.1358737,-31.887605)">
      <stop
         offset="0"
         id="stop232" />
      <stop
         offset="1"
         stop-opacity="0"
         id="stop234" />
    </linearGradient>
    <linearGradient
       id="e-6"
       gradientUnits="userSpaceOnUse"
       x1="10"
       x2="22"
       y1="10"
       y2="22"
       gradientTransform="matrix(0.82164929,0,0,0.77777884,-9.1358737,-31.887605)">
      <stop
         offset="0"
         stop-color="#171e25"
         id="stop219" />
      <stop
         offset="1"
         stop-opacity="0"
         id="stop221" />
    </linearGradient>
    <linearGradient
       id="b-7">
      <stop
         offset="0"
         stop-color="#292c2f"
         id="stop237" />
      <stop
         offset="1"
         stop-opacity="0"
         id="stop239" />
    </linearGradient>
    <linearGradient
       id="a-5"
       gradientUnits="userSpaceOnUse"
       x1="567.30701"
       x2="567.30701"
       y1="691.461"
       y2="39.515999">
      <stop
         offset="0"
         stop-color="#73ba25"
         id="stop242" />
      <stop
         offset="1"
         stop-color="#96cb5c"
         id="stop244" />
    </linearGradient>
    <linearGradient
       id="linearGradient1777"
       gradientTransform="matrix(0.5357143,0,0,0.49999999,-251.26766,-266.79828)"
       gradientUnits="userSpaceOnUse"
       x1="409.57101"
       x2="409.57101"
       y1="543.79797"
       y2="503.798">
      <stop
         offset="0"
         stop-color="#73ba25"
         id="stop840-3" />
      <stop
         offset="1"
         stop-color="#96cb5c"
         id="stop842-5" />
    </linearGradient>
    <linearGradient
       id="linearGradient1781"
       gradientTransform="matrix(0.71428568,0,0,0.79999998,-43.819118,-16.498295)"
       gradientUnits="userSpaceOnUse"
       x1="4"
       x2="4"
       y1="27"
       y2="2">
      <stop
         offset="0"
         stop-color="#173f4f"
         id="stop825-6" />
      <stop
         offset="1"
         stop-color="#516f7b"
         id="stop827-2" />
    </linearGradient>
    <linearGradient
       id="linearGradient1785"
       gradientUnits="userSpaceOnUse"
       x1="17"
       x2="17"
       y1="30"
       y2="27"
       gradientTransform="matrix(0.71428568,0,0,0.71428568,-43.819118,-16.326863)">
      <stop
         offset="0"
         stop-color="#292c2f"
         stop-opacity=".6"
         id="stop820-9" />
      <stop
         offset="1"
         stop-color="#292c2f"
         stop-opacity=".4"
         id="stop822-1" />
    </linearGradient>
    <linearGradient
       id="linearGradient1789"
       gradientUnits="userSpaceOnUse"
       x1="17"
       x2="28"
       y1="14"
       y2="25"
       gradientTransform="matrix(0.71428568,0,0,0.71428568,-43.819118,-16.326863)">
      <stop
         offset="0"
         stop-color="#292c2f"
         id="stop835-2" />
      <stop
         offset="1"
         stop-opacity="0"
         id="stop837-7" />
    </linearGradient>
    <linearGradient
       id="linearGradient1793"
       gradientUnits="userSpaceOnUse"
       x1="17"
       x2="17"
       y1="22"
       y2="6"
       gradientTransform="matrix(0.71428568,0,0,0.71428568,-43.819118,-16.326863)">
      <stop
         offset="0"
         stop-color="#eff0f1"
         id="stop830-0" />
      <stop
         offset="1"
         stop-color="#fcfcfc"
         id="stop832-9" />
    </linearGradient>
    <linearGradient
       inkscape:collect="always"
       xlink:href="#linearGradient22063-0"
       id="linearGradient22065-6"
       x1="-13.999999"
       y1="6"
       x2="-13.999999"
       y2="-9.999999"
       gradientUnits="userSpaceOnUse"
       gradientTransform="matrix(1.6312504,0,0,1.6312504,46.387503,28.012502)" />
    <linearGradient
       inkscape:collect="always"
       id="linearGradient22063-0">
      <stop
         style="stop-color:#a3be8c;stop-opacity:1;"
         offset="0"
         id="stop22059-6" />
      <stop
         style="stop-color:#8fbcbb;stop-opacity:1;"
         offset="1"
         id="stop22061-2" />
    </linearGradient>
    <linearGradient
       inkscape:collect="always"
       xlink:href="#lg0"
       id="linearGradient4339"
       gradientUnits="userSpaceOnUse"
       gradientTransform="matrix(0.25096139,0,0,0.23527638,7.4884693,8.9216871)"
       x1="108"
       y1="106"
       x2="116"
       y2="106" />
    <linearGradient
       id="lg0"
       x1="108"
       y1="106"
       x2="116"
       y2="106"
       gradientUnits="userSpaceOnUse"
       gradientTransform="matrix(0.5,0,0,0.5,-120.56875,4.3749999)">
      <stop
         offset="0"
         stop-color="#e8e7e4"
         id="stop3771" />
      <stop
         offset="0.5"
         stop-color="#ffffff"
         id="stop3773" />
      <stop
         offset="1"
         stop-color="#c2bfba"
         id="stop3775" />
    </linearGradient>
  </defs>
  <sodipodi:namedview
     id="namedview859"
     pagecolor="#ffffff"
     bordercolor="#666666"
     borderopacity="1.0"
     inkscape:showpageshadow="2"
     inkscape:pageopacity="0.0"
     inkscape:pagecheckerboard="0"
     inkscape:deskcolor="#d1d1d1"
     showgrid="true"
     inkscape:zoom="7.375"
     inkscape:cx="-15.457627"
     inkscape:cy="25.559322"
     inkscape:window-width="1920"
     inkscape:window-height="1000"
     inkscape:window-x="0"
     inkscape:window-y="0"
     inkscape:window-maximized="1"
     inkscape:current-layer="svg857">
    <inkscape:grid
       type="xygrid"
       id="grid291"
       originx="0"
       originy="0" />
  </sodipodi:namedview>
  <linearGradient
     id="c"
     gradientUnits="userSpaceOnUse"
     x1="17"
     x2="17"
     y1="30"
     y2="27"
     gradientTransform="matrix(0.71428568,0,0,0.71428568,-43.819118,-16.326863)">
    <stop
       offset="0"
       stop-color="#292c2f"
       stop-opacity=".6"
       id="stop820" />
    <stop
       offset="1"
       stop-color="#292c2f"
       stop-opacity=".4"
       id="stop822" />
  </linearGradient>
  <linearGradient
     id="b"
     gradientTransform="matrix(0.71428568,0,0,0.79999998,-43.819118,-16.498295)"
     gradientUnits="userSpaceOnUse"
     x1="4"
     x2="4"
     y1="27"
     y2="2">
    <stop
       offset="0"
       stop-color="#173f4f"
       id="stop825" />
    <stop
       offset="1"
       stop-color="#516f7b"
       id="stop827" />
  </linearGradient>
  <linearGradient
     id="e"
     gradientUnits="userSpaceOnUse"
     x1="17"
     x2="17"
     y1="22"
     y2="6"
     gradientTransform="matrix(0.71428568,0,0,0.71428568,-43.819118,-16.326863)">
    <stop
       offset="0"
       stop-color="#eff0f1"
       id="stop830" />
    <stop
       offset="1"
       stop-color="#fcfcfc"
       id="stop832" />
  </linearGradient>
  <linearGradient
     id="d"
     gradientUnits="userSpaceOnUse"
     x1="17"
     x2="28"
     y1="14"
     y2="25"
     gradientTransform="matrix(0.71428568,0,0,0.71428568,-43.819118,-16.326863)">
    <stop
       offset="0"
       stop-color="#292c2f"
       id="stop835" />
    <stop
       offset="1"
       stop-opacity="0"
       id="stop837" />
  </linearGradient>
  <linearGradient
     id="a"
     gradientTransform="matrix(0.5357143,0,0,0.49999999,-251.26766,-266.79828)"
     gradientUnits="userSpaceOnUse"
     x1="409.57101"
     x2="409.57101"
     y1="543.79797"
     y2="503.798">
    <stop
       offset="0"
       stop-color="#73ba25"
       id="stop840" />
    <stop
       offset="1"
       stop-color="#96cb5c"
       id="stop842" />
  </linearGradient>
  <rect
     width="41.998257"
     x="-44.999386"
     y="3.0039372"
     rx="20.999128"
     height="41.995876"
     transform="scale(-1,1)"
     style="display:inline;fill:url(#a-6);stroke-width:2.93979;stroke-opacity:0.55"
     id="rect223"
     ry="20.997938" />
  <path
     style="display:inline;opacity:0.3;fill:#000000;fill-opacity:1;stroke-width:2.93979;stroke-opacity:0.55"
     d="M 3.0126,23.476972 C 3.0087,23.651995 3,23.826025 3,24.002051 3,35.634994 12.365634,45 23.999063,45 35.63251,45 44.998282,35.634994 44.998282,24.002051 c 0,-0.176026 -0.008,-0.349053 -0.0126,-0.525079 -0.277299,11.388209 -9.533691,20.472969 -20.986605,20.472969 -11.457113,0 -20.70931,-9.084759 -20.986468,-20.472969"
     id="path225" />
  <path
     d="M 3.0126,24.523028 C 3.0087,24.348005 3,24.174977 3,23.997949 3,12.365105 12.365634,3 23.999063,3 c 11.633447,0 20.999219,9.365105 20.999219,20.997949 0,0.176026 -0.008,0.350053 -0.0126,0.525079 C 44.708383,13.134822 35.451991,4.0500585 23.999077,4.0500585 c -11.457113,0 -20.70931,9.0847635 -20.986468,20.4729695"
     style="display:inline;opacity:0.3;fill:#ffffff;fill-opacity:1;stroke-width:2.93979;stroke-opacity:0.55"
     id="path229" />
  <path
     d="M 10.5,14.758595 C 10.5,13.069436 11.96067,11.7 13.762499,11.7 H 33.3375 c 1.801878,0 3.262501,1.369436 3.262501,3.058595 V 33.11016 c 0,1.689163 -1.460623,3.058596 -3.262501,3.058596 H 13.762499 C 11.96067,36.168756 10.5,34.799323 10.5,33.11016 Z"
     id="path738-9"
     style="fill:url(#linearGradient22065-6);fill-opacity:1;stroke-width:1.63125" />
  <path
     d="m 12.507697,20.214952 c -1.11226,0 -2.00769,0.839469 -2.00769,1.88221 L 10.5,34.65 c 0,0.449995 0.495,1.800001 1.844994,1.800001 h 22.247313 c 1.112262,0 2.007694,-1.075719 2.007694,-2.118459 v -12.23438 c 0,-1.042741 -0.895432,-1.88221 -2.007694,-1.88221 z"
     id="path3780-8"
     style="fill:#19557b;fill-opacity:1;stroke-width:0.242997"
     sodipodi:nodetypes="ssccsssss" />
  <path
     fill="url(#lg0)"
     d="m 36.600001,32.449327 c 0,1.042748 -0.895432,1.882215 -2.007694,1.882215 H 11.00193 c -0.05193,0.768453 0.398075,1.668464 1.298067,1.668464 h 22.29231 c 1.112262,0 2.007694,-1.096281 2.007694,-2.139024 z"
     id="path3784-2"
     style="fill:url(#linearGradient4339);stroke-width:0.242997"
     sodipodi:nodetypes="csccssc" />
  <path
     fill="#73ba25"
     d="m 10.5,14.850002 7e-6,19.01098 h 24.0923 c 1.112262,0 2.007694,-0.839459 2.007694,-1.882221 V 14.850002 c 0,-1.800008 -1.35,-3.150002 -3.149998,-3.150002 H 13.599734 C 11.849994,11.7 10.5,13.049994 10.5,14.850002 Z"
     id="path3786-6"
     style="stroke-width:0.242997"
     sodipodi:nodetypes="ccsssscc" />
  <rect
     fill="#19557b"
     width="1.8519235"
     height="19.010986"
     x="10.500006"
     y="14.849986"
     id="rect3790-4"
     style="stroke-width:0.225294"
     ry="0" />
  <path
     fill="#5f991f"
     d="m 24.553846,15.274157 a 8.030721,7.528821 0 0 0 -6.322247,2.900702 c 0.979529,0.245346 1.672826,0.45619 1.880466,0.521589 0.0031,-0.11943 0.0244,-1.187613 0.0244,-1.187613 0,0 0.0023,-0.02447 0.01665,-0.0372 0.01795,-0.01642 0.04383,-0.0114 0.04383,-0.0114 0.257628,0.03494 5.756697,0.799155 8.074587,2.065438 0.286245,0.156984 0.427538,0.323909 0.60408,0.493128 0.640733,0.621254 1.487364,3.204497 1.578293,3.737195 0.0031,0.02093 -0.02402,0.04368 -0.0358,0.05226 h -2.58e-4 c -0.06582,0.04817 -0.137505,0.09822 -0.20931,0.142995 -0.548468,0.344977 -1.811999,1.174179 -3.43308,1.038799 -1.456148,-0.12078 -3.358577,-0.903831 -5.652032,-2.320513 0.225494,0.494955 0.447669,0.991449 0.669968,1.487668 0.332128,0.161717 3.537873,1.693164 5.120049,1.663248 1.274343,-0.02487 2.637274,-0.607606 3.182524,-0.915274 0,0 0.11979,-0.06768 0.171963,-0.02988 0.05705,0.04128 0.04127,0.10458 0.02775,0.169239 -0.0336,0.146745 -0.109905,0.414453 -0.16183,0.54153 l -0.04383,0.10359 c -0.0624,0.156762 -0.122325,0.302485 -0.237849,0.392224 -0.321204,0.273815 -0.833868,0.491672 -1.637169,0.818979 -1.241676,0.509196 -3.256184,0.833034 -5.126535,0.821888 -0.669891,-0.0144 -1.317089,-0.0837 -1.885388,-0.145905 -1.166281,-0.123465 -2.115234,-0.223593 -2.693872,0.168762 a 8.030721,7.528821 0 0 0 6.044718,2.5863 8.030721,7.528821 0 0 0 8.030754,-7.52885 8.030721,7.528821 0 0 0 -8.030751,-7.528838 z m 1.791238,4.368441 c -0.628572,-0.01872 -1.227958,0.189167 -1.687485,0.591378 -0.459312,0.400877 -0.72216,0.947408 -0.745456,1.536317 -0.04337,1.214884 0.974007,2.238546 2.268756,2.283306 0.63144,0.01986 1.229526,-0.188216 1.689052,-0.592827 0.458144,-0.399641 0.720995,-0.94619 0.745434,-1.5351 0.04446,-1.213802 -0.97416,-2.239622 -2.270301,-2.283074 z m -0.01973,0.649746 c 0.905831,0.03009 1.615017,0.743508 1.584524,1.59248 -0.01395,0.409417 -0.198218,0.788944 -0.518235,1.070397 -0.320486,0.280152 -0.739356,0.425829 -1.178858,0.413377 -0.903729,-0.03126 -1.612953,-0.745468 -1.582444,-1.594651 0.01335,-0.410957 0.20116,-0.790517 0.519802,-1.070666 0.318597,-0.280152 0.735468,-0.425803 1.175211,-0.410937 z m 0.268457,0.772035 c -0.402479,0 -0.727547,0.203063 -0.727547,0.455694 0,0.250245 0.325068,0.454479 0.727547,0.454479 0.402231,0 0.728577,-0.204246 0.728577,-0.454479 0,-0.252631 -0.326123,-0.455694 -0.728577,-0.455694 z"
     id="path3792-9"
     style="stroke-width:0.242997" />
  <path
     fill="#ffffff"
     d="m 24.553849,15.509462 a 8.030721,7.528821 0 0 0 -6.322241,2.900694 c 0.97952,0.245346 1.672821,0.456197 1.880462,0.521597 0.0032,-0.119415 0.02441,-1.187613 0.02441,-1.187613 0,0 0.0023,-0.02447 0.01664,-0.0372 0.01792,-0.01642 0.04383,-0.0114 0.04383,-0.0114 0.257626,0.03492 5.756695,0.799155 8.074579,2.065441 0.286247,0.15698 0.427541,0.323912 0.604086,0.493131 0.640725,0.62126 1.487358,3.204491 1.57829,3.737183 0.0032,0.02098 -0.02401,0.04368 -0.03574,0.05227 h -2.6e-4 c -0.06583,0.04817 -0.137505,0.09822 -0.209313,0.142965 -0.548464,0.344979 -1.811994,1.174188 -3.433078,1.038804 -1.456158,-0.120765 -3.358586,-0.90383 -5.652035,-2.320523 0.225494,0.494969 0.447677,0.991457 0.669962,1.487676 0.332131,0.161721 3.537874,1.693164 5.120052,1.66325 1.274346,-0.02487 2.637273,-0.607617 3.182523,-0.915275 0,0 0.119805,-0.06768 0.171963,-0.02989 0.05703,0.04131 0.04126,0.10458 0.02775,0.169247 -0.03358,0.146745 -0.10989,0.414442 -0.161831,0.541528 l -0.04383,0.10359 c -0.06239,0.156761 -0.122355,0.302484 -0.237843,0.392222 -0.32121,0.273817 -0.833877,0.491659 -1.637178,0.818977 -1.241674,0.50921 -3.256182,0.833043 -5.126536,0.821904 -0.669893,-0.01455 -1.317092,-0.0837 -1.885388,-0.145905 -1.166283,-0.123435 -2.115237,-0.223558 -2.693865,0.168788 a 8.030721,7.528821 0 0 0 6.044657,2.586258 8.030721,7.528821 0 0 0 8.030748,-7.528842 8.030721,7.528821 0 0 0 -8.030751,-7.528847 z m 1.791246,4.368441 c -0.62858,-0.01882 -1.227963,0.189165 -1.687491,0.591374 -0.459309,0.400876 -0.722157,0.94741 -0.745439,1.536319 -0.04343,1.214886 0.973989,2.238545 2.268743,2.2833 0.631438,0.01985 1.22952,-0.188212 1.689051,-0.592828 0.458143,-0.399632 0.720996,-0.946191 0.745441,-1.535099 0.04446,-1.2138 -0.974157,-2.239618 -2.270305,-2.283066 z m -0.01973,0.649733 c 0.905826,0.03009 1.61502,0.743521 1.584519,1.592493 -0.0141,0.40941 -0.198215,0.788938 -0.518229,1.070394 -0.320492,0.28015 -0.739355,0.425829 -1.178859,0.413382 -0.903725,-0.03128 -1.612947,-0.745473 -1.582442,-1.59467 0.01335,-0.410944 0.201156,-0.790501 0.519789,-1.070653 0.318614,-0.280154 0.735485,-0.425793 1.175222,-0.410946 z m 0.26845,0.77205 c -0.402475,0 -0.727542,0.20305 -0.727542,0.455688 0,0.250249 0.325067,0.454474 0.727542,0.454474 0.402245,0 0.728586,-0.204235 0.728586,-0.454474 0,-0.252638 -0.326121,-0.455688 -0.728586,-0.455688 z"
     id="path3794-5"
     style="stroke-width:0.242997" />
</svg>
