<?xml version="1.0" encoding="UTF-8" standalone="no"?>
<svg
   height="32"
   width="32"
   version="1.1"
   id="svg49"
   sodipodi:docname="pattern-xfce.svg"
   inkscape:version="1.2.1 (9c6d41e410, 2022-07-14)"
   xmlns:inkscape="http://www.inkscape.org/namespaces/inkscape"
   xmlns:sodipodi="http://sodipodi.sourceforge.net/DTD/sodipodi-0.dtd"
   xmlns:xlink="http://www.w3.org/1999/xlink"
   xmlns="http://www.w3.org/2000/svg"
   xmlns:svg="http://www.w3.org/2000/svg">
  <defs
     id="defs53">
    <linearGradient
       id="linearGradient1732"
       gradientTransform="translate(32.031 -.14) scale(.98049)"
       gradientUnits="userSpaceOnUse"
       x1="-17.37"
       x2="-17.37"
       y1="24.62"
       y2="20.54">
      <stop
         offset="0"
         stop-color="#172525"
         id="stop1728"
         style="stop-color:#ffffff;stop-opacity:1;" />
      <stop
         offset="1"
         stop-color="#292c2f"
         id="stop1730" />
    </linearGradient>
    <linearGradient
       inkscape:collect="always"
       xlink:href="#linearGradient847"
       id="linearGradient849"
       x1="40.37009"
       y1="48"
       x2="10"
       y2="0"
       gradientUnits="userSpaceOnUse"
       gradientTransform="matrix(0.66666691,0,0,0.66666691,-1.4474121e-7,-1.4366486e-6)" />
    <linearGradient
       inkscape:collect="always"
       id="linearGradient847">
      <stop
         style="stop-color:#1e2b35;stop-opacity:1;"
         offset="0"
         id="stop843" />
      <stop
         style="stop-color:#6d7983;stop-opacity:1;"
         offset="1"
         id="stop845" />
    </linearGradient>
    <linearGradient
       id="b-3"
       y1="44"
       y2="12"
       x2="14"
       gradientUnits="userSpaceOnUse"
       x1="36">
      <stop
         stop-color="#536161"
         style="stop-color:#bfc9c9;stop-opacity:1"
         id="stop4368" />
      <stop
         offset="1"
         stop-color="#f4f5f5"
         style="stop-color:#fbfbfb;stop-opacity:1"
         id="stop4370" />
    </linearGradient>
    <linearGradient
       id="c-6"
       y1="527.01398"
       x1="406.50101"
       y2="539.82501"
       x2="419.974"
       gradientUnits="userSpaceOnUse"
       gradientTransform="translate(-384.57,-499.8)">
      <stop
         stop-color="#292c2f"
         id="stop4373" />
      <stop
         offset="1"
         stop-opacity="0"
         id="stop4375" />
    </linearGradient>
    <linearGradient
       id="linearGradient885"
       gradientUnits="userSpaceOnUse"
       x1="14"
       x2="20.740999"
       xlink:href="#a"
       y1="6.4559999"
       y2="13.197"
       gradientTransform="translate(50.19662,-25.416805)" />
    <linearGradient
       id="linearGradient889">
      <stop
         offset="0"
         stop-color="#292c2f"
         id="stop2-7" />
      <stop
         offset="1"
         stop-opacity="0"
         id="stop4-5" />
    </linearGradient>
    <linearGradient
       id="linearGradient891"
       gradientUnits="userSpaceOnUse"
       x1="8.6680002"
       x2="12.782"
       xlink:href="#a"
       y1="8.3280001"
       y2="12.442"
       gradientTransform="translate(50.19662,-25.416805)" />
    <linearGradient
       id="linearGradient893"
       gradientUnits="userSpaceOnUse"
       x1="24.408001"
       x2="30"
       xlink:href="#a"
       y1="9.4899998"
       y2="15.082"
       gradientTransform="translate(50.19662,-25.416805)" />
    <linearGradient
       id="linearGradient897"
       gradientUnits="userSpaceOnUse"
       x1="4"
       x2="4"
       y1="26"
       y2="6"
       gradientTransform="translate(50.19662,-25.416805)">
      <stop
         offset="0"
         stop-color="#eff0f1"
         id="stop19-3" />
      <stop
         offset="1"
         stop-color="#fcfcfc"
         id="stop21-5" />
    </linearGradient>
    <linearGradient
       id="linearGradient899"
       gradientUnits="userSpaceOnUse"
       x1="24"
       x2="24"
       xlink:href="#b"
       y1="14"
       y2="9"
       gradientTransform="translate(50.19662,-25.416805)" />
    <linearGradient
       id="linearGradient903"
       gradientTransform="matrix(0.98049,0,0,0.98049,32.031,-0.14)"
       gradientUnits="userSpaceOnUse"
       x1="-17.370001"
       x2="-17.370001"
       y1="24.620001"
       y2="20.540001">
      <stop
         offset="0"
         stop-color="#172525"
         id="stop24-6" />
      <stop
         offset="1"
         stop-color="#292c2f"
         id="stop26-2" />
    </linearGradient>
    <linearGradient
       id="linearGradient905"
       gradientTransform="matrix(0.98049,0,0,0.98049,82.22762,-25.556805)"
       gradientUnits="userSpaceOnUse"
       x1="-12.271"
       x2="-12.271"
       xlink:href="#b"
       y1="24.620001"
       y2="20.540001" />
    <linearGradient
       inkscape:collect="always"
       xlink:href="#a"
       id="linearGradient914"
       gradientUnits="userSpaceOnUse"
       gradientTransform="matrix(0.92999974,0,0,0.92999976,1.0356502,0.72140555)"
       x1="14"
       y1="6.456"
       x2="20.741"
       y2="13.197" />
    <linearGradient
       inkscape:collect="always"
       xlink:href="#a"
       id="linearGradient916"
       gradientUnits="userSpaceOnUse"
       gradientTransform="matrix(0.92999974,0,0,0.92999976,1.0356502,0.72140555)"
       x1="8.668"
       y1="8.328"
       x2="12.782"
       y2="12.442" />
    <linearGradient
       inkscape:collect="always"
       xlink:href="#a"
       id="linearGradient918"
       gradientUnits="userSpaceOnUse"
       gradientTransform="matrix(0.92999974,0,0,0.92999976,1.0356502,0.72140555)"
       x1="24.408"
       y1="9.49"
       x2="30"
       y2="15.082" />
    <linearGradient
       inkscape:collect="always"
       xlink:href="#h"
       id="linearGradient920"
       gradientUnits="userSpaceOnUse"
       gradientTransform="matrix(0.92999974,0,0,0.92999976,1.0356502,0.72140555)"
       x1="4"
       y1="26"
       x2="4"
       y2="6" />
    <linearGradient
       inkscape:collect="always"
       xlink:href="#b"
       id="linearGradient924"
       gradientUnits="userSpaceOnUse"
       gradientTransform="matrix(0.91185547,0,0,0.91185549,30.824471,0.59120555)"
       x1="-12.271"
       y1="24.62"
       x2="-12.271"
       y2="20.54" />
  </defs>
  <sodipodi:namedview
     id="namedview51"
     pagecolor="#ffffff"
     bordercolor="#666666"
     borderopacity="1.0"
     inkscape:showpageshadow="2"
     inkscape:pageopacity="0.0"
     inkscape:pagecheckerboard="0"
     inkscape:deskcolor="#d1d1d1"
     showgrid="false"
     inkscape:zoom="7.375"
     inkscape:cx="16"
     inkscape:cy="16.067797"
     inkscape:window-width="1920"
     inkscape:window-height="1000"
     inkscape:window-x="0"
     inkscape:window-y="0"
     inkscape:window-maximized="1"
     inkscape:current-layer="svg49" />
  <linearGradient
     id="a">
    <stop
       offset="0"
       stop-color="#292c2f"
       id="stop2" />
    <stop
       offset="1"
       stop-opacity="0"
       id="stop4" />
  </linearGradient>
  <linearGradient
     id="d"
     gradientUnits="userSpaceOnUse"
     x1="7"
     x2="13"
     xlink:href="#a"
     y1="24"
     y2="30" />
  <linearGradient
     id="f"
     gradientUnits="userSpaceOnUse"
     x1="8.668"
     x2="12.782"
     xlink:href="#a"
     y1="8.328"
     y2="12.442"
     gradientTransform="translate(50.19662,-25.416805)" />
  <linearGradient
     id="e"
     gradientUnits="userSpaceOnUse"
     x1="14"
     x2="20.741"
     xlink:href="#a"
     y1="6.456"
     y2="13.197"
     gradientTransform="translate(50.19662,-25.416805)" />
  <linearGradient
     id="g"
     gradientUnits="userSpaceOnUse"
     x1="24.408"
     x2="30"
     xlink:href="#a"
     y1="9.49"
     y2="15.082"
     gradientTransform="translate(50.19662,-25.416805)" />
  <linearGradient
     id="j"
     gradientUnits="userSpaceOnUse"
     x1="15.388"
     x2="19.555"
     xlink:href="#a"
     y1="21.833"
     y2="26" />
  <linearGradient
     id="c"
     gradientUnits="userSpaceOnUse"
     x1="2"
     x2="2"
     y1="30"
     y2="2">
    <stop
       offset="0"
       stop-color="#34749e"
       id="stop12" />
    <stop
       offset="1"
       stop-color="#62afe8"
       id="stop14" />
  </linearGradient>
  <linearGradient
     id="k"
     gradientTransform="matrix(0.98049,0,0,0.98049,82.22762,-25.556805)"
     gradientUnits="userSpaceOnUse"
     x1="-12.271"
     x2="-12.271"
     xlink:href="#b"
     y1="24.62"
     y2="20.54" />
  <linearGradient
     id="i"
     gradientUnits="userSpaceOnUse"
     x1="24"
     x2="24"
     xlink:href="#b"
     y1="14"
     y2="9"
     gradientTransform="translate(50.19662,-25.416805)" />
  <linearGradient
     id="h"
     gradientUnits="userSpaceOnUse"
     x1="4"
     x2="4"
     y1="26"
     y2="6"
     gradientTransform="translate(50.19662,-25.416805)">
    <stop
       offset="0"
       stop-color="#eff0f1"
       id="stop19" />
    <stop
       offset="1"
       stop-color="#fcfcfc"
       id="stop21" />
  </linearGradient>
  <linearGradient
     id="b"
     gradientTransform="translate(32.031 -.14) scale(.98049)"
     gradientUnits="userSpaceOnUse"
     x1="-17.37"
     x2="-17.37"
     y1="24.62"
     y2="20.54">
    <stop
       offset="0"
       stop-color="#172525"
       id="stop24" />
    <stop
       offset="1"
       stop-color="#292c2f"
       id="stop26" />
  </linearGradient>
  <rect
     width="28"
     height="28"
     x="2"
     y="2"
     ry="14"
     rx="14"
     id="rect16"
     style="fill:url(#linearGradient849);fill-opacity:1;stroke-width:0.666667" />
  <path
     d="m 14.055647,6.725484 7.015918,7.015919 h -7.015918 z"
     fill="url(#e)"
     opacity="0.2"
     id="path35-9"
     style="fill:url(#linearGradient914);stroke-width:0.93" />
  <path
     d="m 9.096888,8.4664436 3.098762,3.0987574 v 1.246201 H 9.4056477 Z"
     fill="url(#f)"
     opacity="0.2"
     id="path37-1"
     style="fill:url(#linearGradient916);stroke-width:0.93" />
  <path
     d="m 23.735081,9.5471035 1.850704,1.8506975 0.799795,-1.320598 2.550063,2.551919 v 6.830848 l -5.870161,-5.870158 z"
     fill="url(#g)"
     opacity="0.2"
     id="path39-2"
     style="fill:url(#linearGradient918);stroke-width:0.93" />
  <path
     d="m 13.023346,6.3014041 c -0.304111,0.00744 -0.541262,0.09951 -0.625892,0.09951 -1.939976,0.2724896 -1.359655,2.9936691 -0.536605,5.5446549 0.06973,0.652863 -0.608219,0.379442 -1.050901,-0.304108 C 9.3210181,7.9921435 8.6616484,8.1102536 8.2459386,8.0033035 7.8478985,7.920534 6.4640589,8.6487238 6.494749,10.123704 c 0.00558,0.425011 0.5328896,2.422648 0.5375396,3.04296 -1.7483996,3.002037 -2.4598495,5.972454 -0.2697,9.045175 2.2096796,2.926707 8.7847804,3.024358 9.9602954,2.334302 0.44919,-0.314341 7.159138,-3.620489 8.70573,-4.902961 2.305468,-1.906496 -0.05952,-4.307762 -0.616589,-4.64256 -4.775551,-3.123871 -9.657118,-2.473799 -9.722218,-2.96856 -0.03348,-0.572879 -0.01302,-2.1641067 -0.09579,-2.7295463 C 14.669454,6.6715438 13.68923,6.2865241 13.023351,6.3014041 Z"
     fill="url(#h)"
     fill-rule="evenodd"
     id="path41-7"
     style="fill:url(#linearGradient920);stroke-width:0.93" />
  <path
     d="m 23.735081,9.5471035 a 0.14600999,0.14600999 0 0 0 -0.09022,0.00744 c -0.0465,0.02046 -0.06138,0.04278 -0.0744,0.06138 a 0.53660988,0.53660989 0 0 0 -0.06045,0.1255498 c -0.0372,0.09858 -0.07626,0.2371502 -0.11997,0.4092007 a 17.893197,17.893197 0 0 0 -0.26504,1.294557 c -0.08184,0.481738 -0.1488,0.97464 -0.17298,1.362451 a 3.1089891,3.1089892 0 0 0 0,0.493832 0.73562983,0.73562985 0 0 0 0.0372,0.17856 c 0.0186,0.05022 0.05022,0.102298 0.11067,0.135778 0.0279,0.0186 0.06416,0.03348 0.10137,0.03071 a 0.18227996,0.18227996 0 0 0 0.09951,-0.03999 0.35804991,0.35804992 0 0 0 0.09858,-0.13206 c 0.05022,-0.101371 0.093,-0.238081 0.137641,-0.409199 0.08928,-0.341311 0.174837,-0.812822 0.241797,-1.296424 0.06696,-0.483599 0.117181,-0.980218 0.132991,-1.373605 a 3.9906292,3.9906293 0 0 0 -0.0057,-0.4994115 0.97277962,0.97277964 0 0 0 -0.02976,-0.1767 0.25481995,0.25481996 0 0 0 -0.0837,-0.1357798 0.13019996,0.13019996 0 0 0 -0.05766,-0.03627 z m 2.537971,0.4873195 a 0.23807992,0.23807993 0 0 0 -0.09857,0.0186 0.55334984,0.55334985 0 0 0 -0.150661,0.09765 2.7546592,2.7546593 0 0 0 -0.335731,0.366419 c -0.249241,0.312482 -0.544979,0.749577 -0.81561,1.206209 -0.270631,0.456628 -0.517082,0.93093 -0.666812,1.324321 -0.0744,0.196231 -0.126481,0.372002 -0.143221,0.522659 -0.01674,0.15159 -0.003,0.30132 0.118111,0.3906 0.066,0.05022 0.15624,0.03629 0.20832,0.0093 a 0.53288987,0.53288988 0 0 0 0.139501,-0.11067 c 0.09114,-0.093 0.190651,-0.227851 0.300391,-0.394317 0.219481,-0.33201 0.478951,-0.789572 0.7254,-1.258294 0.24459,-0.469647 0.477091,-0.948599 0.640771,-1.320596 0.08184,-0.186001 0.145074,-0.345961 0.185994,-0.466862 0.02139,-0.06046 0.0372,-0.1116 0.0465,-0.156239 a 0.3068999,0.30689991 0 0 0 0.0077,-0.06882 c -9.3e-4,-0.02604 0,-0.06696 -0.0465,-0.113459 l -0.003,-0.0028 -0.0057,-0.0038 a 0.17948997,0.17948997 0 0 0 -0.106943,-0.04004 z"
     id="path43-0"
     style="fill:#ffffff;stroke-width:0.93;fill-opacity:1" />
  <path
     d="m 16.989794,22.917709 c -0.303178,-0.183211 2.059024,-2.936938 2.638409,-2.638407 0.8463,0.84072 -2.678399,2.704437 -2.638409,2.638407 z m -1.643306,-1.891617 c -0.05394,-0.189721 3.385199,-2.270133 3.882751,-1.792113 0.896516,0.325501 -3.850201,2.033914 -3.882751,1.792113 z"
     fill="url(#k)"
     id="path47-9"
     style="fill:url(#linearGradient924);stroke-width:0.93" />
</svg>
