<?xml version="1.0" encoding="UTF-8" standalone="no"?>
<svg
   version="1"
   viewBox="0 0 32 32"
   width="32"
   height="32"
   id="svg53"
   sodipodi:docname="pattern-sway-openSUSE.svg"
   inkscape:version="1.2.1 (9c6d41e410, 2022-07-14)"
   xmlns:inkscape="http://www.inkscape.org/namespaces/inkscape"
   xmlns:sodipodi="http://sodipodi.sourceforge.net/DTD/sodipodi-0.dtd"
   xmlns="http://www.w3.org/2000/svg"
   xmlns:svg="http://www.w3.org/2000/svg">
  <sodipodi:namedview
     id="namedview55"
     pagecolor="#ffffff"
     bordercolor="#666666"
     borderopacity="1.0"
     inkscape:showpageshadow="2"
     inkscape:pageopacity="0.0"
     inkscape:pagecheckerboard="0"
     inkscape:deskcolor="#d1d1d1"
     showgrid="false"
     inkscape:zoom="7.375"
     inkscape:cx="16"
     inkscape:cy="26.915254"
     inkscape:window-width="1920"
     inkscape:window-height="1000"
     inkscape:window-x="0"
     inkscape:window-y="0"
     inkscape:window-maximized="1"
     inkscape:current-layer="svg53" />
  <defs
     id="defs13">
    <linearGradient
       id="a"
       x1="-50.45"
       x2="-50.45"
       y1="-.040987"
       y2="-22.041"
       gradientUnits="userSpaceOnUse">
      <stop
         stop-color="#26a269"
         offset="0"
         id="stop2" />
      <stop
         stop-color="#26a269"
         offset=".071429"
         id="stop4" />
      <stop
         stop-color="#57e389"
         offset=".21429"
         id="stop6" />
      <stop
         stop-color="#26a269"
         offset=".46429"
         id="stop8" />
      <stop
         stop-color="#26a269"
         offset="1"
         id="stop10" />
    </linearGradient>
  </defs>
  <g
     transform="matrix(1.2727273,0,0,1.2288248,1.9477989,-31.994233)"
     stroke-width="0.55"
     id="g19">
    <rect
       transform="matrix(0,-1,-1,0,0,0)"
       x="-50.450001"
       y="-22.041"
       width="22"
       height="22"
       rx="11"
       ry="11"
       fill="url(#a)"
       id="rect15"
       style="fill:url(#a)" />
    <rect
       transform="matrix(0,-1,-1,0,0,0)"
       x="-49.664001"
       y="-22.041"
       width="22"
       height="22"
       rx="11"
       ry="11"
       fill="#33d17a"
       id="rect17" />
  </g>
  <g
     fill="#070c0f"
     stroke-width="0.075822"
     id="g45"
     transform="matrix(1.0000214,0,0,0.96552579,-2.7001498,0.06894754)">
    <path
       d="m 23.151,19.503 -7.568,0.67584 -7.5663,-0.6753 7.5663,2.881 z M 7,19.70987 v 1.0148 l 8.5828,3.2758 8.5758,-3.2758 v -1.0116 l -8.4772,3.227 a 0.27729,0.27729 0 0 1 -0.19712,0 z"
       id="path21" />
    <path
       d="M 15.583,22.681 7,19.4131 c 0,0 0.56866,-0.21988 0.67481,-0.25779 0.508,-0.18956 1.0463,-0.34878 1.5392,-0.56108 1.0236,-0.45493 2.1458,-0.74305 3.2679,-0.75822 0.64448,-0.0075 1.2435,0.18955 1.8728,0.09098 0.72789,-0.12131 1.4254,-0.39427 2.1533,-0.53833 1.3193,-0.25021 2.6007,0.09098 3.8214,0.57624 1.2511,0.49284 2.4718,0.93261 3.7304,1.4103 0.03791,0.01516 0.06824,0.02274 0.10615,0.03791 z"
       id="path23"
       style="fill:#000000;fill-opacity:1" />
    <path
       d="m 9.813,19.58 c -0.10615,-2.3808 2.305,-3.6622 4.0868,-4.6403 1.5543,-0.8492 3.4954,-1.9562 3.0935,-4.0261 -0.08341,-0.43218 -0.74305,-0.25021 -0.65965,0.18197 0.18197,0.94777 -0.35636,1.6681 -1.0767,2.214 -0.8492,0.64448 -1.8273,1.0994 -2.7523,1.6226 -1.706,0.97052 -3.4726,2.5021 -3.3816,4.6479 0.022748,0.43976 0.70514,0.43976 0.68998,0 z"
       id="path25" />
    <path
       d="m 12.8,15.675 c 2.3656,0.49284 4.8602,-0.2123 6.6116,-1.8804 0.31845,-0.30328 -0.16681,-0.78855 -0.48526,-0.48526 -1.5619,1.5013 -3.8214,2.1533 -5.9444,1.706 -0.4246,-0.08341 -0.61416,0.56866 -0.18197,0.65965 z"
       id="path27" />
    <path
       d="m 12.8,10.708 c 0.62174,0.15164 1.6757,-0.56866 2.1458,-0.79613 0.60657,-0.2957 1.2359,-0.52317 1.85,-0.79613 0.23505,-0.10615 1.0008,-0.34878 1.0084,-0.68998 0.01516,-0.4246 -0.79613,-0.44735 -1.0615,-0.41702 -0.53833,0.053073 -1.0615,0.21988 -1.5771,0.37153 -0.53075,0.15923 -1.0463,0.37153 -1.5392,0.6369 -0.37153,0.19714 -0.87953,0.54592 -1.0994,0.90986 -0.13648,0.21988 -0.1289,0.54592 0.08341,0.69756 0.05307,0.03791 0.11373,0.06823 0.18955,0.0834 z"
       id="path29" />
    <path
       d="m 16.607,9.5559 c 0.10615,-0.060659 0.2123,-0.11373 0.31845,-0.16681 0.87953,-0.41702 1.8955,-0.75822 2.8964,-0.83404 0.87195,-0.068235 1.8349,-0.22746 2.6993,0.00753 0.44735,0.12131 0.94019,0.5535 0.70514,0.97052 -0.17439,0.31087 -0.88711,0.72789 -1.198,0.95535 -1.1449,0.81129 -2.7447,1.1677 -4.2081,1.2435 -1.0615,0.06066 -2.8054,-0.54592 -1.8349,-1.6908 0.15922,-0.19714 0.38669,-0.34878 0.62174,-0.48526 z"
       id="path31" />
    <path
       d="m 22.445,10.511 c 0.24263,0.0076 0.52317,0.06823 0.6369,0.28812 0.09098,0.18197 0.02274,0.40185 -0.10615,0.5535 -0.13648,0.15164 -0.31845,0.23505 -0.508,0.31087 -0.94019,0.39427 -1.9486,0.62932 -2.9646,0.69756 -0.28054,0.01516 -0.57624,0.02274 -0.8492,-0.06824 -0.27296,-0.09098 -0.51559,-0.2957 -0.59141,-0.56866 -0.16681,-0.62932 1.2131,-0.83404 1.5847,-0.90228 0.37153,-0.06825 0.74305,-0.11373 1.1146,-0.1289 0.56108,-0.03791 1.107,-0.20472 1.6832,-0.18197 z"
       id="path33" />
    <path
       d="m 22.316,14.636 c -0.37152,-0.91744 -2.6083,0.09099 -3.1163,0.41702 -0.18955,0.12132 -0.38669,0.30329 -0.34878,0.52317 0.03791,0.23505 0.31845,0.3412 0.56108,0.37153 0.58383,0.07582 3.3362,-0.22746 2.904,-1.3117 z"
       id="path35" />
    <path
       d="m 15.287,11.664 c -0.09098,0.60657 -0.90986,1.2738 -1.4558,1.4634 -0.53075,0.18956 -1.4179,-0.20472 -1.0918,-0.8492 0.28812,-0.56108 1.7136,-1.5619 2.3353,-1.1525 0.18197,0.11373 0.24263,0.3412 0.2123,0.53834 z"
       id="path37" />
    <path
       d="m 16.864,14.681 c 0.87195,0.10615 1.7666,-0.0075 2.5855,-0.31845 0.18197,-0.06824 0.37153,-0.15923 0.44735,-0.3412 0.05307,-0.13648 0.01516,-0.30329 -0.09098,-0.40186 -0.10615,-0.09857 -0.27296,-0.1289 -0.40186,-0.06824 -0.24263,-0.26538 -0.66723,-0.24263 -1.0236,-0.17439 -0.56108,0.11374 -1.1146,0.31845 -1.6226,0.58383 -0.18197,0.09857 -0.38669,0.26538 -0.33362,0.46251 0.05307,0.17439 0.25779,0.23505 0.43977,0.2578 z"
       id="path39" />
    <path
       d="m 17.873,13.976 c 1.1525,0.25779 2.4187,-0.07582 3.4044,-0.71272 0.1289,-0.08341 0.27296,-0.2123 0.25021,-0.37153 -0.03033,-0.18955 -0.27296,-0.25021 -0.4701,-0.24263 -1.1222,0.01516 -2.2595,0.2957 -3.2376,0.86436 -0.11373,0.06066 -0.23505,0.16681 -0.20472,0.28812 0.03791,0.10615 0.15923,0.15164 0.25779,0.17439 z"
       id="path41" />
    <path
       d="m 12.103,12.445 c 0.10615,-0.1289 0.19714,-0.28812 0.15164,-0.43977 -0.2123,-0.84162 -1.3572,0.25021 -1.6302,0.50042 -0.34878,0.31845 -0.33362,0.59899 0.23505,0.59899 0.46251,-0.0075 0.95535,-0.31845 1.2435,-0.65965 z"
       id="path43" />
  </g>
  <circle
     cx="71.133"
     cy="-62.203"
     r="0"
     fill="#3d3846"
     opacity=".3"
     id="circle49" />
  <path
     d="M 22.042553,19.442 A 3.7999698,3.7999553 0 0 0 19.051,20.906013 c 0.463492,0.123831 0.791533,0.230252 0.88979,0.263261 0.0017,-0.0603 0.01155,-0.599415 0.01155,-0.599415 0,0 0.0012,-0.01236 0.0079,-0.01876 0.0086,-0.0083 0.02076,-0.0057 0.02076,-0.0057 0.121901,0.01768 2.723923,0.403349 3.820707,1.042491 0.135445,0.07926 0.202298,0.163484 0.285839,0.248892 0.303176,0.313564 0.703806,1.617368 0.7468,1.886244 0.0019,0.01053 -0.01133,0.02203 -0.01695,0.02635 h -1.22e-4 c -0.03114,0.02429 -0.06504,0.0496 -0.09905,0.07215 -0.259517,0.174113 -0.857379,0.592632 -1.624432,0.524308 -0.68899,-0.06094 -1.589203,-0.456181 -2.674418,-1.171198 0.106698,0.249814 0.211825,0.5004 0.317008,0.75087 0.157159,0.08165 1.674051,0.854554 2.422702,0.839465 0.602999,-0.01254 1.24791,-0.306678 1.50587,-0.461958 0,0 0.05667,-0.03412 0.08138,-0.01508 0.02698,0.02086 0.01949,0.0528 0.01314,0.08544 -0.01585,0.07405 -0.05204,0.209182 -0.07657,0.273322 l -0.02077,0.05226 c -0.02952,0.07913 -0.05788,0.152669 -0.112543,0.197963 -0.151984,0.138194 -0.394562,0.248153 -0.774648,0.413353 -0.587531,0.257004 -1.540724,0.420455 -2.425737,0.414832 -0.316979,-0.0068 -0.623195,-0.04224 -0.892129,-0.07363 -0.551861,-0.0623 -1.000856,-0.112852 -1.274668,0.08518 a 3.7999698,3.7999553 0 0 0 2.86023,1.305348 3.7999698,3.7999553 0 0 0 3.799959,-3.79996 3.7999698,3.7999553 0 0 0 -3.79997,-3.799955 z m 0.847556,2.204844 c -0.297426,-0.0096 -0.581069,0.09547 -0.798486,0.298479 -0.217332,0.202333 -0.341702,0.478175 -0.352716,0.775405 -0.02057,0.613153 0.460864,1.129839 1.073492,1.152423 0.298775,0.01004 0.581774,-0.095 0.799238,-0.299216 0.216782,-0.201701 0.341155,-0.477556 0.352724,-0.774809 0.02104,-0.612608 -0.460946,-1.130379 -1.074252,-1.152309 z m -0.0094,0.327935 c 0.428614,0.01521 0.764173,0.375267 0.749733,0.803744 -0.0066,0.206642 -0.0938,0.398198 -0.245213,0.540249 -0.151644,0.1414 -0.349848,0.214925 -0.557782,0.208642 -0.427624,-0.01575 -0.763194,-0.376248 -0.748754,-0.80483 0.0064,-0.207413 0.09519,-0.398986 0.245948,-0.540387 0.150763,-0.141398 0.348016,-0.214904 0.556102,-0.207408 z m 0.127027,0.389663 c -0.190447,0 -0.344257,0.102491 -0.344257,0.230002 0,0.126304 0.153817,0.229381 0.344257,0.229381 0.190328,0 0.344748,-0.10309 0.344748,-0.229381 0,-0.127511 -0.15431,-0.230002 -0.344748,-0.230002 z"
     id="path51"
     style="stroke-width:0.54285;fill:#f9f9fa;fill-opacity:1" />
</svg>
