<?xml version="1.0" encoding="UTF-8" standalone="no"?>
<svg
   height="48"
   width="48"
   version="1.1"
   id="svg16"
   sodipodi:docname="pattern-basis-devel.svg"
   inkscape:version="1.2.1 (9c6d41e410, 2022-07-14)"
   xmlns:inkscape="http://www.inkscape.org/namespaces/inkscape"
   xmlns:sodipodi="http://sodipodi.sourceforge.net/DTD/sodipodi-0.dtd"
   xmlns="http://www.w3.org/2000/svg"
   xmlns:svg="http://www.w3.org/2000/svg">
  <defs
     id="defs20" />
  <sodipodi:namedview
     id="namedview18"
     pagecolor="#ffffff"
     bordercolor="#666666"
     borderopacity="1.0"
     inkscape:showpageshadow="2"
     inkscape:pageopacity="0.0"
     inkscape:pagecheckerboard="0"
     inkscape:deskcolor="#d1d1d1"
     showgrid="false"
     inkscape:zoom="7.375"
     inkscape:cx="16"
     inkscape:cy="16.067797"
     inkscape:window-width="1920"
     inkscape:window-height="1000"
     inkscape:window-x="0"
     inkscape:window-y="0"
     inkscape:window-maximized="1"
     inkscape:current-layer="svg16" />
  <linearGradient
     id="b"
     gradientUnits="userSpaceOnUse"
     x1="66"
     x2="66"
     y1="63"
     y2="41"
     gradientTransform="matrix(1.5,0,0,1.5,-75,-54)">
    <stop
       offset="0"
       stop-color="#c0392b"
       id="stop2" />
    <stop
       offset="1"
       stop-color="#e74c3c"
       id="stop4" />
  </linearGradient>
  <linearGradient
     id="a"
     gradientUnits="userSpaceOnUse"
     x1="66"
     x2="66"
     y1="66"
     y2="38"
     gradientTransform="matrix(1.5,0,0,1.5,-75,-54)">
    <stop
       offset="0"
       stop-color="#afb0b3"
       id="stop7" />
    <stop
       offset="1"
       stop-color="#bdc3c7"
       id="stop9" />
  </linearGradient>
  <path
     d="M 24,3 A 21,21 0 0 0 19.5,3.504 V 6.5925 A 18,18 0 0 0 14.874,8.508 L 12.6945,6.3285 a 21,21 0 0 0 -6.381,6.351 L 8.508,14.874 A 18,18 0 0 0 6.585,19.5 H 3.51 A 21,21 0 0 0 3,24 21,21 0 0 0 3.504,28.5 h 3.0885 a 18,18 0 0 0 1.9155,4.626 l -2.1795,2.1795 a 21,21 0 0 0 6.351,6.381 L 14.874,39.492 A 18,18 0 0 0 19.5,41.415 V 44.49 A 21,21 0 0 0 24,45 21,21 0 0 0 28.5,44.496 v -3.0885 a 18,18 0 0 0 4.626,-1.9155 l 2.1795,2.1795 a 21,21 0 0 0 6.381,-6.351 L 39.492,33.126 A 18,18 0 0 0 41.415,28.5 H 44.49 A 21,21 0 0 0 45,24 21,21 0 0 0 44.496,19.5 H 41.4075 A 18,18 0 0 0 39.492,14.874 l 2.1795,-2.1795 a 21,21 0 0 0 -6.351,-6.381 L 33.126,8.508 A 18,18 0 0 0 28.5,6.585 V 3.51 A 21,21 0 0 0 24,3 Z m 11.3205,3.3135 a 21,21 0 0 0 -6.759,-2.7855 21,21 0 0 1 6.759,2.7855 z M 44.496,19.5 a 21,21 0 0 0 -2.757,-6.69 21,21 0 0 1 2.757,6.69 z m -2.8095,15.8205 a 21,21 0 0 0 2.7855,-6.759 21,21 0 0 1 -2.7855,6.759 z M 28.5,44.496 a 21,21 0 0 0 6.69,-2.757 21,21 0 0 1 -6.69,2.757 z M 12.6795,41.6865 a 21,21 0 0 0 6.759,2.7855 21,21 0 0 1 -6.759,-2.7855 z M 3.504,28.5 A 21,21 0 0 0 6.261,35.19 21,21 0 0 1 3.504,28.5 Z M 6.3135,12.6795 a 21,21 0 0 0 -2.7855,6.759 21,21 0 0 1 2.7855,-6.759 z M 19.5,3.504 A 21,21 0 0 0 12.81,6.261 21,21 0 0 1 19.5,3.504 Z"
     fill="url(#a)"
     id="path12"
     style="fill:url(#a);stroke-width:1.5" />
  <path
     d="M 24,7.5 A 16.5,16.5 0 0 0 12.705,12 H 27 V 7.785 A 16.5,16.5 0 0 0 24,7.5 Z m 6,1.131 V 12 h 5.31 A 16.5,16.5 0 0 0 30,8.631 Z M 10.1775,15 a 16.5,16.5 0 0 0 -2.595,7.5 H 18 V 15 Z M 21,15 v 7.5 H 40.425 A 16.5,16.5 0 0 0 37.8105,15 Z M 7.575,25.5 A 16.5,16.5 0 0 0 10.1895,33 H 27 V 25.5 Z M 30,25.5 V 33 h 7.8225 a 16.5,16.5 0 0 0 2.595,-7.5 z M 12.69,36 A 16.5,16.5 0 0 0 18,39.369 V 36 Z M 21,36 v 4.215 A 16.5,16.5 0 0 0 24,40.5 16.5,16.5 0 0 0 35.295,36 Z"
     fill="url(#b)"
     id="path14"
     style="fill:url(#b);stroke-width:1.5" />
</svg>
