<?xml version="1.0" encoding="UTF-8" standalone="no"?>
<svg
   height="32"
   width="32"
   version="1.1"
   id="svg276"
   sodipodi:docname="pattern-e17.svg"
   inkscape:version="1.2.1 (9c6d41e410, 2022-07-14)"
   xmlns:inkscape="http://www.inkscape.org/namespaces/inkscape"
   xmlns:sodipodi="http://sodipodi.sourceforge.net/DTD/sodipodi-0.dtd"
   xmlns:xlink="http://www.w3.org/1999/xlink"
   xmlns="http://www.w3.org/2000/svg"
   xmlns:svg="http://www.w3.org/2000/svg">
  <defs
     id="defs280">
    <linearGradient
       gradientTransform="matrix(0.69997081,0,0,0.69993114,-301.98864,-350.62269)"
       gradientUnits="userSpaceOnUse"
       x2="426.69501"
       y2="499.92099"
       y1="547.67499"
       id="a-6"
       x1="389.32001">
      <stop
         stop-color="#18222a"
         style="stop-color:#1e2b35;stop-opacity:1"
         id="stop216" />
      <stop
         stop-color="#566069"
         offset="1"
         style="stop-color:#6d7983;stop-opacity:1"
         id="stop218" />
    </linearGradient>
    <linearGradient
       id="e-3"
       x1="8.4461002"
       x2="24.603001"
       y1="6.2688999"
       y2="24.570999"
       gradientUnits="userSpaceOnUse"
       gradientTransform="translate(0.254427,-38.49298)">
      <stop
         stop-opacity=".2088"
         offset="0"
         id="stop4" />
      <stop
         stop-opacity="0"
         offset="1"
         id="stop6" />
    </linearGradient>
    <linearGradient
       id="d-6"
       x1="7.8488002"
       x2="14.108"
       y1="3.5121"
       y2="14.183"
       gradientUnits="userSpaceOnUse"
       gradientTransform="translate(0.254427,-38.49298)">
      <stop
         stop-opacity=".2088"
         offset="0"
         id="stop14" />
      <stop
         stop-opacity="0"
         offset="1"
         id="stop16" />
    </linearGradient>
    <linearGradient
       id="linearGradient1139"
       gradientUnits="userSpaceOnUse"
       x1="10"
       x2="30"
       y1="10"
       y2="30"
       gradientTransform="matrix(0.82164929,0,0,0.77777884,-9.1358737,-31.887605)">
      <stop
         offset="0"
         id="stop232-7" />
      <stop
         offset="1"
         stop-opacity="0"
         id="stop234-5" />
    </linearGradient>
    <linearGradient
       id="linearGradient1143"
       gradientUnits="userSpaceOnUse"
       x1="10"
       x2="22"
       y1="10"
       y2="22"
       gradientTransform="matrix(0.82164929,0,0,0.77777884,-9.1358737,-31.887605)">
      <stop
         offset="0"
         stop-color="#171e25"
         id="stop219-3" />
      <stop
         offset="1"
         stop-opacity="0"
         id="stop221-5" />
    </linearGradient>
    <linearGradient
       id="linearGradient1145"
       gradientUnits="userSpaceOnUse"
       x1="16"
       x2="17.993"
       xlink:href="#b"
       y1="3"
       y2="4.993"
       gradientTransform="matrix(0.82164929,0,0,0.77777884,-9.1358737,-31.887605)" />
    <linearGradient
       id="linearGradient1149">
      <stop
         offset="0"
         stop-color="#292c2f"
         id="stop237-6" />
      <stop
         offset="1"
         stop-opacity="0"
         id="stop239-2" />
    </linearGradient>
    <linearGradient
       id="linearGradient1151"
       gradientUnits="userSpaceOnUse"
       x1="13.277"
       x2="15.44"
       xlink:href="#b"
       y1="3.2809999"
       y2="5.4439998"
       gradientTransform="matrix(0.82164929,0,0,0.77777884,-9.1358737,-31.887605)" />
    <linearGradient
       id="linearGradient1153"
       gradientUnits="userSpaceOnUse"
       x1="18.694"
       x2="20.542999"
       xlink:href="#b"
       y1="3.3150001"
       y2="5.1479998"
       gradientTransform="matrix(0.82164929,0,0,0.77777884,-9.1358737,-31.887605)" />
    <linearGradient
       id="linearGradient1155"
       gradientUnits="userSpaceOnUse"
       x1="10.753"
       x2="13.038"
       xlink:href="#b"
       y1="4.0830002"
       y2="6.368"
       gradientTransform="matrix(0.82164929,0,0,0.77777884,-9.1358737,-31.887605)" />
    <linearGradient
       id="linearGradient1157"
       gradientUnits="userSpaceOnUse"
       x1="21.214001"
       x2="23.052999"
       xlink:href="#b"
       y1="4.1149998"
       y2="5.9429998"
       gradientTransform="matrix(0.82164929,0,0,0.77777884,-9.1358737,-31.887605)" />
    <linearGradient
       id="linearGradient1159"
       gradientUnits="userSpaceOnUse"
       x1="23.558001"
       x2="25.417999"
       xlink:href="#b"
       y1="5.454"
       y2="7.3140001"
       gradientTransform="matrix(0.82164929,0,0,0.77777884,-9.1358737,-31.887605)" />
    <linearGradient
       id="linearGradient1161"
       gradientUnits="userSpaceOnUse"
       x1="26.400999"
       x2="26.400999"
       xlink:href="#a"
       y1="29"
       y2="3"
       gradientTransform="matrix(0.82164929,0,0,0.77777884,-9.1358737,-31.887605)" />
    <linearGradient
       id="linearGradient1165"
       gradientUnits="userSpaceOnUse"
       x1="567.30701"
       x2="567.30701"
       y1="691.461"
       y2="39.515999">
      <stop
         offset="0"
         stop-color="#73ba25"
         id="stop242-9" />
      <stop
         offset="1"
         stop-color="#96cb5c"
         id="stop244-1" />
    </linearGradient>
    <linearGradient
       id="linearGradient1167"
       gradientUnits="userSpaceOnUse"
       x1="26"
       x2="26"
       xlink:href="#a"
       y1="29"
       y2="3"
       gradientTransform="matrix(0.82164929,0,0,0.77777884,-9.1358737,-31.887605)" />
    <linearGradient
       inkscape:collect="always"
       xlink:href="#d"
       id="linearGradient1180"
       gradientUnits="userSpaceOnUse"
       gradientTransform="matrix(0.82164929,0,0,0.77777884,2.8543669,3.555536)"
       x1="10"
       y1="10"
       x2="30"
       y2="30" />
    <linearGradient
       inkscape:collect="always"
       xlink:href="#e"
       id="linearGradient1182"
       gradientUnits="userSpaceOnUse"
       gradientTransform="matrix(0.82164929,0,0,0.77777884,2.8543669,3.555536)"
       x1="10"
       y1="10"
       x2="22"
       y2="22" />
    <linearGradient
       inkscape:collect="always"
       xlink:href="#b"
       id="linearGradient1184"
       gradientUnits="userSpaceOnUse"
       gradientTransform="matrix(0.82164929,0,0,0.77777884,2.8543669,3.555536)"
       x1="16"
       y1="3"
       x2="17.993"
       y2="4.993" />
    <linearGradient
       inkscape:collect="always"
       xlink:href="#b"
       id="linearGradient1186"
       gradientUnits="userSpaceOnUse"
       gradientTransform="matrix(0.82164929,0,0,0.77777884,2.8543669,3.555536)"
       x1="13.277"
       y1="3.281"
       x2="15.44"
       y2="5.444" />
    <linearGradient
       inkscape:collect="always"
       xlink:href="#b"
       id="linearGradient1188"
       gradientUnits="userSpaceOnUse"
       gradientTransform="matrix(0.82164929,0,0,0.77777884,2.8543669,3.555536)"
       x1="18.694"
       y1="3.315"
       x2="20.543"
       y2="5.148" />
    <linearGradient
       inkscape:collect="always"
       xlink:href="#b"
       id="linearGradient1190"
       gradientUnits="userSpaceOnUse"
       gradientTransform="matrix(0.82164929,0,0,0.77777884,2.8543669,3.555536)"
       x1="10.753"
       y1="4.083"
       x2="13.038"
       y2="6.368" />
    <linearGradient
       inkscape:collect="always"
       xlink:href="#b"
       id="linearGradient1192"
       gradientUnits="userSpaceOnUse"
       gradientTransform="matrix(0.82164929,0,0,0.77777884,2.8543669,3.555536)"
       x1="21.214"
       y1="4.115"
       x2="23.053"
       y2="5.943" />
    <linearGradient
       inkscape:collect="always"
       xlink:href="#b"
       id="linearGradient1194"
       gradientUnits="userSpaceOnUse"
       gradientTransform="matrix(0.82164929,0,0,0.77777884,2.8543669,3.555536)"
       x1="23.558"
       y1="5.454"
       x2="25.418"
       y2="7.314" />
    <linearGradient
       inkscape:collect="always"
       xlink:href="#a"
       id="linearGradient1196"
       gradientUnits="userSpaceOnUse"
       gradientTransform="matrix(0.82164929,0,0,0.77777884,2.8543669,3.555536)"
       x1="26.401"
       y1="29"
       x2="26.401"
       y2="3" />
    <linearGradient
       inkscape:collect="always"
       xlink:href="#a"
       id="linearGradient1198"
       gradientUnits="userSpaceOnUse"
       gradientTransform="matrix(0.82164929,0,0,0.77777884,2.8543669,3.555536)"
       x1="26"
       y1="29"
       x2="26"
       y2="3" />
  </defs>
  <sodipodi:namedview
     id="namedview278"
     pagecolor="#ffffff"
     bordercolor="#666666"
     borderopacity="1.0"
     inkscape:showpageshadow="2"
     inkscape:pageopacity="0.0"
     inkscape:pagecheckerboard="0"
     inkscape:deskcolor="#d1d1d1"
     showgrid="false"
     inkscape:zoom="7.375"
     inkscape:cx="16"
     inkscape:cy="16.067797"
     inkscape:window-width="1920"
     inkscape:window-height="1000"
     inkscape:window-x="0"
     inkscape:window-y="0"
     inkscape:window-maximized="1"
     inkscape:current-layer="svg276" />
  <linearGradient
     id="e"
     gradientUnits="userSpaceOnUse"
     x1="10"
     x2="22"
     y1="10"
     y2="22"
     gradientTransform="matrix(0.82164929,0,0,0.77777884,-9.1358737,-31.887605)">
    <stop
       offset="0"
       stop-color="#171e25"
       id="stop219" />
    <stop
       offset="1"
       stop-opacity="0"
       id="stop221" />
  </linearGradient>
  <linearGradient
     id="m"
     gradientUnits="userSpaceOnUse"
     x1="26"
     x2="26"
     xlink:href="#a"
     y1="29"
     y2="3"
     gradientTransform="matrix(0.82164929,0,0,0.77777884,-9.1358737,-31.887605)" />
  <linearGradient
     id="k"
     gradientUnits="userSpaceOnUse"
     x1="23.558"
     x2="25.418"
     xlink:href="#b"
     y1="5.454"
     y2="7.314"
     gradientTransform="matrix(0.82164929,0,0,0.77777884,-9.1358737,-31.887605)" />
  <linearGradient
     id="j"
     gradientUnits="userSpaceOnUse"
     x1="21.214"
     x2="23.053"
     xlink:href="#b"
     y1="4.115"
     y2="5.943"
     gradientTransform="matrix(0.82164929,0,0,0.77777884,-9.1358737,-31.887605)" />
  <linearGradient
     id="h"
     gradientUnits="userSpaceOnUse"
     x1="18.694"
     x2="20.543"
     xlink:href="#b"
     y1="3.315"
     y2="5.148"
     gradientTransform="matrix(0.82164929,0,0,0.77777884,-9.1358737,-31.887605)" />
  <linearGradient
     id="f"
     gradientUnits="userSpaceOnUse"
     x1="16"
     x2="17.993"
     xlink:href="#b"
     y1="3"
     y2="4.993"
     gradientTransform="matrix(0.82164929,0,0,0.77777884,-9.1358737,-31.887605)" />
  <linearGradient
     id="i"
     gradientUnits="userSpaceOnUse"
     x1="10.753"
     x2="13.038"
     xlink:href="#b"
     y1="4.083"
     y2="6.368"
     gradientTransform="matrix(0.82164929,0,0,0.77777884,-9.1358737,-31.887605)" />
  <linearGradient
     id="g"
     gradientUnits="userSpaceOnUse"
     x1="13.277"
     x2="15.44"
     xlink:href="#b"
     y1="3.281"
     y2="5.444"
     gradientTransform="matrix(0.82164929,0,0,0.77777884,-9.1358737,-31.887605)" />
  <linearGradient
     id="l"
     gradientUnits="userSpaceOnUse"
     x1="26.401"
     x2="26.401"
     xlink:href="#a"
     y1="29"
     y2="3"
     gradientTransform="matrix(0.82164929,0,0,0.77777884,-9.1358737,-31.887605)" />
  <linearGradient
     id="d"
     gradientUnits="userSpaceOnUse"
     x1="10"
     x2="30"
     y1="10"
     y2="30"
     gradientTransform="matrix(0.82164929,0,0,0.77777884,-9.1358737,-31.887605)">
    <stop
       offset="0"
       id="stop232" />
    <stop
       offset="1"
       stop-opacity="0"
       id="stop234" />
  </linearGradient>
  <linearGradient
     id="b">
    <stop
       offset="0"
       stop-color="#292c2f"
       id="stop237" />
    <stop
       offset="1"
       stop-opacity="0"
       id="stop239" />
  </linearGradient>
  <linearGradient
     id="a"
     gradientUnits="userSpaceOnUse"
     x1="567.307"
     x2="567.307"
     y1="691.461"
     y2="39.516">
    <stop
       offset="0"
       stop-color="#73ba25"
       id="stop242" />
    <stop
       offset="1"
       stop-color="#96cb5c"
       id="stop244" />
  </linearGradient>
  <linearGradient
     id="c"
     gradientUnits="userSpaceOnUse"
     x1="2"
     x2="2"
     y1="30"
     y2="2"
     gradientTransform="translate(-61.204205,-21.327331)">
    <stop
       offset="0"
       stop-color="#171e25"
       id="stop247" />
    <stop
       offset="1"
       stop-color="#333c45"
       id="stop249" />
  </linearGradient>
  <rect
     width="27.998837"
     x="-30.000172"
     y="2.0026248"
     rx="13.999418"
     height="27.99725"
     transform="scale(-1,1)"
     style="display:inline;fill:url(#a-6);stroke-width:1.95986;stroke-opacity:0.55"
     id="rect223"
     ry="13.998625" />
  <path
     style="display:inline;opacity:0.3;fill:#000000;fill-opacity:1;stroke-width:1.95986;stroke-opacity:0.55"
     d="m 2.008973,15.651314 c -0.0026,0.116682 -0.0084,0.232702 -0.0084,0.350053 0,7.755295 6.243756,13.998632 13.999375,13.998632 7.755631,0 13.999479,-6.243337 13.999479,-13.998632 0,-0.117351 -0.0053,-0.232702 -0.0084,-0.350053 -0.184866,7.592139 -6.355794,13.648646 -13.99107,13.648646 -7.638075,0 -13.806206,-6.056506 -13.990978,-13.648646"
     id="path225" />
  <path
     d="m 2.008973,16.348685 c -0.0026,-0.116682 -0.0084,-0.232034 -0.0084,-0.350053 C 2.000573,8.243403 8.244329,2 15.999948,2 c 7.755631,0 13.999479,6.243403 13.999479,13.998632 0,0.117351 -0.0053,0.233369 -0.0084,0.350053 C 29.806161,8.756548 23.635233,2.700039 15.999957,2.700039 c -7.638075,0 -13.806206,6.056509 -13.990978,13.648646"
     style="display:inline;opacity:0.3;fill:#ffffff;fill-opacity:1;stroke-width:1.95986;stroke-opacity:0.55"
     id="path229" />
  <path
     d="m 15.970354,8.3287621 a 8.0932442,7.6611217 0 0 0 -5.278275,1.8612329 c -0.390283,0.311107 -0.7452351,0.659556 -1.0591051,1.03989 -0.123248,0.149335 -0.230062,0.272217 -0.2391,0.272217 l 0.520104,0.492341 C 13.09376,7.547878 22.573948,9.777765 22.490145,13.62077 c 0.90545,4.712567 -0.737845,8.601465 -5.667741,8.601465 -1.986747,0.0026 -4.573299,0.14155 -5.980784,-1.186119 l 2.199555,2.084451 a 8.1343272,7.7000108 0 0 0 1.199608,0.36711 c 0.825756,0.175003 1.847889,0.222445 2.726231,0.126002 a 8.0168313,7.5887885 0 0 0 4.377748,-1.837895 c 0.464231,-0.385 0.711543,-0.630003 1.027064,-1.011886 0.121603,-0.147783 0.22842,-0.267558 0.237455,-0.267558 0.0084,0 0.0053,0.03111 -0.0084,0.06842 -0.06083,0.181221 0.0057,0.532778 0.151185,0.803442 0.156111,0.290113 0.559539,0.807335 0.988444,1.26778 0.0863,0.09257 0.156934,0.180445 0.156934,0.19522 0,0.01479 -0.09286,-0.03655 -0.205415,-0.113555 -0.972009,-0.668888 -1.557025,-0.949666 -1.986748,-0.949666 -0.224309,0 -0.284289,0.03964 -0.317155,0.206885 -0.07395,0.36945 0.137215,0.962117 0.673751,1.895451 0.110103,0.19211 0.18898,0.348445 0.17501,0.347667 -0.01474,0 -0.181582,-0.161 -0.370562,-0.35778 -0.719764,-0.748999 -1.289989,-1.13089 -1.691774,-1.13089 -0.09285,0 -0.117497,0.01789 -0.170083,0.116668 -0.09038,0.171111 -0.109279,0.268335 -0.106814,0.571668 8.22e-4,0.329777 0.08301,0.722556 0.281825,1.35489 0.08217,0.262113 0.142147,0.483778 0.134752,0.490778 -0.0084,0.0078 -0.13886,-0.186665 -0.291687,-0.431668 -0.547972,-0.872656 -1.017133,-1.354878 -1.395092,-1.433435 -0.119961,-0.02491 -0.150362,-0.0017 -0.272787,0.215445 -0.111745,0.199113 -0.160222,0.409889 -0.180764,0.797224 -0.01725,0.317334 0.02958,1.21489 0.07395,1.413224 0.0082,0.03889 0.0033,0.07 -0.0115,0.07 -0.01479,0 -0.0682,-0.122889 -0.119139,-0.272223 -0.166804,-0.489993 -0.408369,-1.042218 -0.564482,-1.294218 -0.170903,-0.276111 -0.443691,-0.548335 -0.599804,-0.599669 -0.09696,-0.03188 -0.113387,-0.02567 -0.252246,0.09567 -0.304832,0.266003 -0.494633,0.82367 -0.619523,1.816895 -0.03287,0.259001 -0.06984,0.470556 -0.08052,0.470556 -0.01068,0 -0.04519,-0.205333 -0.07723,-0.457334 -0.129765,-1.039124 -0.359005,-1.672236 -0.685199,-1.89157 l -0.101064,-0.06767 -0.12982,0.06767 c -0.333547,0.17734 -0.681926,0.733451 -1.004834,1.604564 l -0.182406,0.492334 c -0.04355,0.115112 -0.04108,-0.03111 0.0066,-0.510224 0.09613,-0.978445 -0.0066,-1.683892 -0.279361,-1.917223 -0.06081,-0.05212 -0.08463,-0.05443 -0.197196,-0.02336 -0.371385,0.105782 -0.799464,0.56078 -1.363937,1.454448 -0.143789,0.225556 -0.264571,0.399 -0.270323,0.384224 -0.0049,-0.01557 0.05752,-0.239558 0.138037,-0.497002 0.292507,-0.928667 0.353309,-1.52911 0.18898,-1.87289 -0.06738,-0.14311 -0.07313,-0.147 -0.209521,-0.146224 -0.407538,0.0027 -0.933393,0.370223 -1.826526,1.279447 -0.1133881,0.115888 -0.2136291,0.204554 -0.2218451,0.197557 -0.0074,-0.0079 0.07066,-0.157891 0.173368,-0.334447 0.5587211,-0.955888 0.7739931,-1.577332 0.6680001,-1.936669 -0.04766,-0.162554 -0.101063,-0.184329 -0.402608,-0.160998 -0.3779581,0.02878 -0.8947761,0.273776 -1.6564441,0.787111 -0.238279,0.160221 -0.43794,0.284666 -0.447799,0.280002 l 4.2742531,4.046007 h 15.11017 V 12.581652 L 23.883738,9.1555321 c 0.0053,0.008 -0.0986,0.13456 -0.234164,0.2838949 -0.843008,0.931002 -1.128131,1.42878 -1.08458,1.885335 0.01643,0.185109 0.01476,0.190554 -0.03782,0.127554 l -0.26128,-0.315783 C 22.019396,10.837869 21.404798,10.267757 21.006302,9.9667551 19.861746,9.103427 18.289931,8.5060891 16.803568,8.367646 16.524207,8.3412261 16.247311,8.328756 15.970415,8.328756 Z m -7.8508581,14.5149169 0.01972,-0.02336 -0.02136,0.02179 z m 1.275199,-11.341577 c -0.0017,0 0.0025,-0.0124 0.0017,-0.01556 l -0.0066,0.01091 z m 1.3664041,9.452353 v 0.0049 l 0.04684,0.04438 c -0.01644,-0.01558 -0.0304,-0.0334 -0.04684,-0.04903 z"
     opacity="0.2"
     id="path256-2"
     style="fill:url(#linearGradient1180);stroke-width:0.799411" />
  <path
     d="m 23.395595,16.000002 a 7.3948424,7.0000098 0 0 1 -7.39484,7.000008 7.3948424,7.0000098 0 0 1 -7.3948431,-7.000008 7.3948424,7.0000098 0 0 1 7.3948431,-7.000012 7.3948424,7.0000098 0 0 1 7.39484,7.000012 z"
     fill="url(#e)"
     opacity="0.2"
     id="path258-7"
     style="fill:url(#linearGradient1182);stroke-width:0.799411" />
  <path
     d="m 16.000755,5.888875 v 0.04665 c 0.0025,0.03658 0.0304,0.259 0.06573,0.514897 0.122427,0.869551 0.299082,1.403105 0.55708,1.6815531 0.166793,0.18044 0.20952,0.190554 0.375492,0.09878 0.215273,-0.119778 0.429724,-0.395107 0.639244,-0.791777 z"
     fill="url(#f)"
     opacity="0.2"
     id="path260-0"
     style="fill:url(#linearGradient1184);stroke-width:0.799411" />
  <path
     d="m 13.763405,6.107432 c 0.01644,0.0033 0.08381,0.162555 0.15447,0.360888 0.188157,0.525776 0.386996,0.974559 0.542287,1.222672 0.15858,0.252 0.440405,0.5296631 0.585014,0.577889 0.09285,0.03111 0.110923,0.02487 0.232527,-0.0879 0.09942,-0.09102 0.184872,-0.2294421 0.262928,-0.3912251 z"
     fill="url(#g)"
     opacity="0.2"
     id="path262-9"
     style="fill:url(#linearGradient1186);stroke-width:0.799411" />
  <path
     d="m 18.222495,6.129214 a 0.53489369,0.50633408 0 0 1 -0.0066,0.115104 c -0.153648,1.244444 -0.0682,2.05956 0.239922,2.324004 0.06081,0.05211 0.08299,0.05289 0.197196,0.021 0.305654,-0.08634 0.657319,-0.427004 1.080467,-1.0297821 z"
     fill="url(#h)"
     opacity="0.2"
     id="path264-3"
     style="fill:url(#linearGradient1188);stroke-width:0.799411" />
  <path
     d="m 11.689562,6.731212 0.0066,0.01631 c 0.01561,0.0049 0.135572,0.179669 0.283469,0.416888 0.152826,0.244221 0.348379,0.535892 0.435474,0.646335 0.442047,0.56856 0.972011,0.92556 1.115798,0.754447 0.01397,-0.01788 0.02301,-0.03887 0.03615,-0.0568 z"
     fill="url(#i)"
     opacity="0.2"
     id="path266-6"
     style="fill:url(#linearGradient1190);stroke-width:0.799411" />
  <path
     d="m 20.288124,6.751435 -0.0035,0.0049 c 0.0043,0.01943 -0.05589,0.241112 -0.137217,0.500111 -0.292506,0.933335 -0.353308,1.520558 -0.188979,1.8651131 0.0674,0.142334 0.07228,0.147 0.209522,0.1462229 0.376314,-0.0026 0.854516,-0.3282229 1.626862,-1.0888919 z"
     fill="url(#j)"
     opacity="0.2"
     id="path268-0"
     style="fill:url(#linearGradient1192);stroke-width:0.799411" />
  <path
     d="m 22.210777,7.79754 c 0.0036,0.0148 -0.08221,0.180451 -0.19966,0.385778 -0.542282,0.942673 -0.729621,1.491781 -0.635952,1.861224 0.046,0.181225 0.09203,0.201452 0.405072,0.177341 0.377957,-0.02877 0.892309,-0.2737839 1.654802,-0.786341 0.162688,-0.109664 0.225133,-0.1438849 0.304007,-0.191331 z"
     fill="url(#k)"
     opacity="0.2"
     id="path270-6"
     style="fill:url(#linearGradient1194);stroke-width:0.799411" />
  <path
     d="m 9.4004479,11.433661 c 0.06081,-0.181222 -0.0057,-0.532782 -0.151185,-0.803448 -0.156113,-0.290108 -0.558721,-0.8073299 -0.987621,-1.2677749 -0.0871,-0.09333 -0.157757,-0.181227 -0.157757,-0.196002 0,-0.0148 0.115031,0.0506 0.254711,0.145443 0.99173,0.673558 1.506905,0.9177789 1.9374491,0.9177789 0.22431,0 0.28429,-0.03887 0.317156,-0.205335 0.07395,-0.36944 -0.137216,-0.962886 -0.6737521,-1.896225 -0.110101,-0.192107 -0.188158,-0.348443 -0.172546,-0.348443 0.01396,0 0.180762,0.161 0.3697411,0.357781 0.684435,0.714001 1.217685,1.082663 1.622758,1.12233 l 0.172546,0.01634 0.07477,-0.135326 c 0.0608,-0.110444 0.07806,-0.199112 0.08874,-0.463556 0.01561,-0.394339 -0.05176,-0.752899 -0.27361,-1.457561 -0.08216,-0.259779 -0.142145,-0.478332 -0.133928,-0.48534 0.0082,-0.008 0.13968,0.185895 0.292507,0.430118 0.152826,0.244224 0.348379,0.535112 0.434652,0.645558 0.442047,0.568552 0.972011,0.927884 1.114978,0.755223 0.188979,-0.227117 0.272787,-0.507897 0.298258,-0.994002 0.01644,-0.335223 -0.03287,-1.26778 -0.07642,-1.412446 -0.0091,-0.03037 -0.0041,-0.0544 0.01068,-0.0544 0.01479,0 0.08545,0.163335 0.156113,0.364002 0.188157,0.525777 0.386996,0.974558 0.542289,1.221887 0.158577,0.252 0.440404,0.531227 0.584191,0.578672 0.09285,0.03111 0.110102,0.02487 0.232528,-0.0879 0.307296,-0.282327 0.506958,-0.88433 0.62774,-1.890003 a 2.6210614,2.4811147 0 0 1 0.06573,-0.373327 c 0.02465,-0.03888 0.02793,-0.03888 0.02875,0.0049 0,0.02803 0.03122,0.264442 0.06738,0.527335 0.121605,0.869556 0.29826,1.403888 0.55708,1.682331 0.166794,0.179671 0.20952,0.191337 0.374671,0.09956 0.341806,-0.189775 0.681147,-0.735 1.004055,-1.615444 0.190622,-0.517222 0.243209,-0.609 0.213629,-0.372556 -0.153649,1.244446 -0.06984,2.059558 0.238279,2.324001 0.06081,0.05211 0.08463,0.0544 0.197195,0.02256 0.373851,-0.105778 0.806859,-0.56778 1.365578,-1.454445 0.142971,-0.226336 0.262929,-0.399 0.268679,-0.383446 0.0058,0.0148 -0.0575,0.24111 -0.139676,0.503218 -0.292511,0.933338 -0.351668,1.521339 -0.18898,1.865116 0.06818,0.143111 0.07397,0.147779 0.211164,0.147 0.409179,-0.0026 0.921892,-0.361667 1.82571,-1.280223 0.115033,-0.11589 0.213627,-0.204558 0.221841,-0.197555 0.0068,0.0073 -0.08545,0.184332 -0.205415,0.393555 -0.542284,0.942668 -0.729623,1.49178 -0.635953,1.861224 0.04598,0.181224 0.09203,0.202224 0.404255,0.178115 0.377956,-0.02877 0.893956,-0.273781 1.655624,-0.786336 0.240738,-0.162559 0.443688,-0.290111 0.450264,-0.283116 0.0067,0.0063 -0.09861,0.134558 -0.235811,0.285447 -0.842195,0.931007 -1.128954,1.428777 -1.085399,1.885333 0.01729,0.184339 0.01563,0.189782 -0.03695,0.127559 -0.0296,-0.0358 -0.147893,-0.177336 -0.260455,-0.315001 C 22.020182,10.83817 21.40394,10.2665 21.005442,9.966282 19.860886,9.102945 18.290715,8.505614 16.803529,8.367171 a 8.1072127,7.6743445 0 0 0 -6.110605,1.823106 7.3718362,6.9782319 0 0 0 -1.0599271,1.039116 2.9497206,2.7922259 0 0 1 -0.239922,0.272224 c -0.0082,0 -0.0057,-0.03111 0.0074,-0.06842 z m 6.5230731,14.220131 c -0.129822,-1.03989 -0.359883,-1.672224 -0.685257,-1.89156 l -0.101062,-0.06845 -0.129821,0.06921 c -0.333589,0.176559 -0.681968,0.731893 -1.004056,1.603783 l -0.183227,0.493112 c -0.04355,0.115111 -0.04108,-0.03111 0.0057,-0.511002 0.09696,-0.977665 -0.0057,-1.683891 -0.279361,-1.918 -0.06081,-0.05212 -0.08381,-0.05443 -0.197196,-0.02335 -0.371385,0.105777 -0.798643,0.562333 -1.363937,1.455224 -0.142967,0.225557 -0.264571,0.399001 -0.270323,0.384224 -0.0049,-0.01557 0.05751,-0.238779 0.138037,-0.496224 0.293329,-0.928669 0.354131,-1.529113 0.190623,-1.873669 -0.06738,-0.142334 -0.07395,-0.147 -0.210342,-0.146223 -0.407538,0.0026 -0.933394,0.371002 -1.826526,1.280223 -0.1142091,0.115891 -0.2136301,0.204558 -0.2218461,0.19678 -0.0074,-0.0072 0.07066,-0.15789 0.17419,-0.334447 0.5587211,-0.955889 0.7731721,-1.577332 0.6671781,-1.936669 -0.04848,-0.163328 -0.101063,-0.183551 -0.403428,-0.160999 -0.3779601,0.02879 -0.8939551,0.273779 -1.6564461,0.786335 -0.240743,0.162558 -0.443691,0.290111 -0.449442,0.283891 -0.0066,-0.0063 0.107636,-0.143113 0.25389,-0.303336 0.501205,-0.553777 0.762491,-0.906889 0.95147,-1.285662 0.09696,-0.19445 0.108457,-0.245777 0.108457,-0.490001 0,-0.248892 0.005,-0.268333 0.0493,-0.213893 l 0.255533,0.30878 c 0.246494,0.298668 0.8627311,0.869557 1.2612311,1.170557 0.875057,0.659555 2.113282,1.215663 3.243871,1.45522 a 8.6273158,8.1666769 0 0 0 2.727057,0.126779 8.0135446,7.5856776 0 0 0 4.376105,-1.83867 c 0.465056,-0.385001 0.712367,-0.628443 1.027888,-1.011106 a 2.8922052,2.7377817 0 0 1 0.236636,-0.267559 c 0.0084,0 0.0057,0.03037 -0.0067,0.06766 -0.06084,0.181226 0.0053,0.532779 0.150364,0.803451 0.156116,0.290109 0.55954,0.807328 0.98844,1.267775 0.08629,0.09256 0.156938,0.180444 0.156938,0.19522 0,0.01479 -0.09201,-0.03655 -0.204591,-0.114332 -0.972011,-0.668889 -1.557848,-0.94889 -1.986749,-0.94889 -0.225132,0 -0.285114,0.03889 -0.31798,0.20611 -0.07395,0.369444 0.137217,0.962891 0.673756,1.896224 0.110102,0.191333 0.18898,0.348446 0.17419,0.348446 -0.01396,0 -0.180763,-0.161779 -0.369742,-0.358558 -0.719768,-0.748998 -1.289992,-1.130111 -1.6926,-1.130111 -0.09285,0 -0.117496,0.01711 -0.170081,0.116666 -0.09038,0.169556 -0.108457,0.267556 -0.106815,0.570891 0.0017,0.329776 0.08381,0.723333 0.282648,1.355667 0.08217,0.262112 0.142967,0.482224 0.135571,0.490001 -0.0084,0.0078 -0.139679,-0.186666 -0.293327,-0.430889 -0.547229,-0.872663 -1.017212,-1.355664 -1.394349,-1.43422 -0.120783,-0.02489 -0.151184,-0.0017 -0.272788,0.216224 -0.111744,0.198333 -0.160221,0.40911 -0.180762,0.796444 -0.01726,0.317335 0.02958,1.215669 0.07395,1.413225 0.0082,0.03889 0.0033,0.07 -0.0115,0.07 -0.01478,0 -0.0682,-0.122112 -0.119139,-0.272223 -0.167649,-0.489214 -0.408392,-1.042216 -0.564505,-1.294217 -0.170903,-0.276109 -0.443691,-0.548333 -0.600626,-0.599668 -0.09696,-0.03188 -0.112565,-0.02645 -0.251424,0.09489 -0.304832,0.266002 -0.495455,0.824448 -0.620345,1.817672 -0.03287,0.259001 -0.0682,0.470557 -0.0797,0.470557 -0.01068,0 -0.04519,-0.206112 -0.07724,-0.457334 z"
     fill="url(#l)"
     id="path272-2"
     style="fill:url(#linearGradient1196);stroke-width:0.799411" />
  <path
     d="m 16.000755,8.99999 a 7.3948424,7.0000098 0 0 0 -7.3948431,7.000012 7.3948424,7.0000098 0 0 0 7.3948431,7.000008 7.3948424,7.0000098 0 0 0 7.39484,-7.000008 7.3948424,7.0000098 0 0 0 -7.39484,-7.000012 z m 0,0.875005 a 6.4704879,6.1250085 0 0 1 6.470486,6.125007 6.4704879,6.1250085 0 0 1 -6.470486,6.125011 6.4704879,6.1250085 0 0 1 -4.869915,-2.103895 c 0.465875,-0.31889 1.230009,-0.238001 2.169976,-0.137664 0.457658,0.0506 0.979406,0.107326 1.51923,0.118999 1.506903,0.0094 3.130482,-0.254335 4.13043,-0.668889 0.64746,-0.266006 1.059929,-0.443334 1.318748,-0.665785 0.09367,-0.0731 0.142141,-0.192104 0.192265,-0.318884 l 0.03531,-0.0848 c 0.04107,-0.10344 0.102704,-0.321221 0.129825,-0.441001 0.01153,-0.05211 0.02467,-0.10344 -0.02219,-0.13766 -0.04108,-0.03037 -0.138042,0.02487 -0.138042,0.02487 -0.439578,0.250449 -1.538126,0.724114 -2.564366,0.744335 -1.2752,0.02411 -3.857644,-1.221107 -4.124679,-1.353336 -0.179941,-0.403667 -0.359061,-0.80733 -0.540645,-1.210224 1.848711,1.15267 3.381085,1.789668 4.55358,1.888453 1.306423,0.109664 2.32527,-0.564674 2.766492,-0.845449 0.0575,-0.03658 0.11503,-0.0778 0.168437,-0.116668 0.0099,-0.0073 0.03284,-0.02487 0.02959,-0.042 -0.07395,-0.433222 -0.755919,-2.535562 -1.271913,-3.04111 -0.142145,-0.136894 -0.256354,-0.272229 -0.486416,-0.400565 -1.867608,-1.030551 -6.298762,-1.651995 -6.505818,-1.680003 0,0 -0.02136,-0.0049 -0.03533,0.0086 -0.0115,0.0109 -0.01397,0.03111 -0.01397,0.03111 0,0 -0.01643,0.86878 -0.01972,0.966002 a 26.879434,25.444256 0 0 0 -1.515121,-0.424667 6.4704879,6.1250085 0 0 1 5.094225,-2.3597809 z m 1.348327,3.552892 0.09531,7.77e-4 a 1.9021182,1.8005584 0 0 1 1.828991,1.857338 1.8897934,1.7888914 0 0 1 -0.600625,1.249112 c -0.369742,0.328999 -0.852051,0.497776 -1.361473,0.48222 a 1.9021182,1.8005584 0 0 1 -1.82735,-1.857333 c 0.0189,-0.479115 0.230062,-0.924001 0.599804,-1.249892 0.347558,-0.30722 0.793713,-0.474442 1.265343,-0.482222 z m 0.01315,0.528883 a 1.302314,1.2327796 0 0 0 -0.880807,0.334453 c -0.257177,0.228666 -0.408361,0.536663 -0.419042,0.871108 a 1.3269635,1.256113 0 0 0 1.2752,1.298119 c 0.353309,0.0101 0.691828,-0.108891 0.949827,-0.33678 a 1.3253203,1.2545576 0 0 0 -0.925178,-2.1669 z m 0.281826,0.628453 c 0.324552,0 0.58748,0.165666 0.58748,0.370997 0,0.203781 -0.262928,0.36945 -0.58748,0.36945 -0.32373,0 -0.585836,-0.165669 -0.585836,-0.36945 0,-0.205331 0.262106,-0.370997 0.585836,-0.370997 z"
     fill="url(#m)"
     id="path274-6"
     style="fill:url(#linearGradient1198);stroke-width:0.799411" />
</svg>
