<?xml version="1.0" encoding="UTF-8" standalone="no"?>
<svg
   height="32"
   width="32"
   version="1.1"
   id="svg255"
   sodipodi:docname="pattern-gnome-wayland.svg"
   inkscape:version="1.2.1 (9c6d41e410, 2022-07-14)"
   xmlns:inkscape="http://www.inkscape.org/namespaces/inkscape"
   xmlns:sodipodi="http://sodipodi.sourceforge.net/DTD/sodipodi-0.dtd"
   xmlns:xlink="http://www.w3.org/1999/xlink"
   xmlns="http://www.w3.org/2000/svg"
   xmlns:svg="http://www.w3.org/2000/svg">
  <defs
     id="defs259">
    <linearGradient
       inkscape:collect="always"
       xlink:href="#b"
       id="linearGradient1332"
       x1="-69.728821"
       y1="3.118638"
       x2="-41.730228"
       y2="3.118638"
       gradientUnits="userSpaceOnUse"
       gradientTransform="translate(39.729528,12.881362)" />
    <linearGradient
       id="linearGradient649"
       gradientUnits="userSpaceOnUse"
       x1="2"
       x2="2"
       y1="30"
       y2="2">
      <stop
         offset="0"
         stop-color="#997657"
         id="stop12" />
      <stop
         offset="1"
         stop-color="#d4ba94"
         id="stop14" />
    </linearGradient>
    <linearGradient
       inkscape:collect="always"
       xlink:href="#b"
       id="linearGradient1334"
       x1="41.728806"
       y1="9.9436464"
       x2="69.727402"
       y2="9.9436464"
       gradientUnits="userSpaceOnUse"
       gradientTransform="translate(-39.729528,12.881362)" />
    <linearGradient
       inkscape:collect="always"
       xlink:href="#a"
       id="linearGradient1548"
       gradientUnits="userSpaceOnUse"
       gradientTransform="translate(-0.25157976,-0.13381357)"
       x1="25"
       y1="6"
       x2="25"
       y2="12" />
    <linearGradient
       id="linearGradient655"
       gradientUnits="userSpaceOnUse"
       x1="25"
       x2="25"
       y1="6"
       y2="26">
      <stop
         offset="0"
         id="stop2" />
      <stop
         offset="1"
         stop-color="#292c2f"
         id="stop4" />
    </linearGradient>
    <linearGradient
       inkscape:collect="always"
       xlink:href="#a"
       id="linearGradient1550"
       gradientUnits="userSpaceOnUse"
       gradientTransform="translate(-0.25157976,-0.13381357)"
       x1="18"
       y1="7"
       x2="18"
       y2="11" />
    <linearGradient
       inkscape:collect="always"
       xlink:href="#a"
       id="linearGradient1552"
       gradientUnits="userSpaceOnUse"
       gradientTransform="translate(-0.25157976,-0.13381357)"
       x1="7"
       y1="11"
       x2="7"
       y2="14" />
    <linearGradient
       inkscape:collect="always"
       xlink:href="#a"
       id="linearGradient1554"
       gradientUnits="userSpaceOnUse"
       gradientTransform="translate(-0.25157976,-0.13381357)"
       x1="14"
       y1="8"
       x2="14"
       y2="12" />
    <linearGradient
       inkscape:collect="always"
       xlink:href="#a"
       id="linearGradient1556"
       gradientUnits="userSpaceOnUse"
       gradientTransform="translate(-0.25157976,-0.13381357)"
       x1="23"
       y1="26"
       x2="23"
       y2="13" />
  </defs>
  <sodipodi:namedview
     id="namedview257"
     pagecolor="#ffffff"
     bordercolor="#666666"
     borderopacity="1.0"
     inkscape:showpageshadow="2"
     inkscape:pageopacity="0.0"
     inkscape:pagecheckerboard="0"
     inkscape:deskcolor="#d1d1d1"
     showgrid="false"
     inkscape:zoom="7.375"
     inkscape:cx="16"
     inkscape:cy="16.067797"
     inkscape:window-width="1920"
     inkscape:window-height="1000"
     inkscape:window-x="0"
     inkscape:window-y="0"
     inkscape:window-maximized="1"
     inkscape:current-layer="svg255" />
  <linearGradient
     id="a"
     gradientUnits="userSpaceOnUse"
     x1="25"
     x2="25"
     y1="6"
     y2="26">
    <stop
       offset="0"
       id="stop222" />
    <stop
       offset="1"
       stop-color="#292c2f"
       id="stop224" />
  </linearGradient>
  <linearGradient
     id="g"
     gradientUnits="userSpaceOnUse"
     x1="23"
     x2="23"
     xlink:href="#a"
     y1="26"
     y2="13" />
  <linearGradient
     id="e"
     gradientUnits="userSpaceOnUse"
     x1="7"
     x2="7"
     xlink:href="#a"
     y1="11"
     y2="14" />
  <linearGradient
     id="d"
     gradientUnits="userSpaceOnUse"
     x1="18"
     x2="18"
     xlink:href="#a"
     y1="7"
     y2="11" />
  <linearGradient
     id="c"
     gradientUnits="userSpaceOnUse"
     x1="25"
     x2="25"
     xlink:href="#a"
     y1="6"
     y2="12" />
  <linearGradient
     id="f"
     gradientUnits="userSpaceOnUse"
     x1="14"
     x2="14"
     xlink:href="#a"
     y1="8"
     y2="12" />
  <linearGradient
     id="b"
     gradientUnits="userSpaceOnUse"
     x1="2"
     x2="2"
     y1="30"
     y2="2">
    <stop
       offset="0"
       stop-color="#997657"
       id="stop232" />
    <stop
       offset="1"
       stop-color="#d4ba94"
       id="stop234" />
  </linearGradient>
  <rect
     width="27.998592"
     x="-29.999296"
     y="2.0000057"
     stroke-opacity="0.55"
     rx="13.999296"
     height="27.999989"
     stroke-width="1.95995"
     transform="scale(-1,1)"
     id="rect20"
     style="fill:url(#linearGradient1332);fill-opacity:1" />
  <path
     fill="#99a1a7"
     d="m 2.0076782,15.65001 c -0.0028,0.116902 -0.0084,0.2324 -0.0084,0.35 0,7.755998 6.243686,13.999996 13.9992968,13.999996 7.755611,0 13.999298,-6.243998 13.999298,-13.999996 0,-0.1176 -0.0053,-0.233098 -0.0084,-0.35 -0.184791,7.5929 -6.355681,13.649996 -13.990898,13.649996 -7.6380168,0 -13.8061068,-6.057096 -13.9908978,-13.649996"
     id="path24-6"
     style="fill:url(#linearGradient1334);fill-opacity:1;stroke-width:1.95995;stroke-opacity:0.55" />
  <path
     d="m 22.168421,5.8661864 c -4.16,0 -4.941,5.9259996 -2.6,5.9259996 2.34,0 6.761,-5.9259996 2.6,-5.9259996 z"
     fill="url(#c)"
     id="path21-5"
     style="fill:url(#linearGradient1548)" />
  <path
     d="m 15.259421,11.058186 c 1.247,0.076 2.614,-4.7559996 0.272,-4.4519996 -2.342,0.304 -1.518,4.3759996 -0.272,4.4519996 z"
     fill="url(#d)"
     id="path23-3"
     style="fill:url(#linearGradient1550)" />
  <path
     d="m 9.5484212,14.060186 c 0.8859998,-0.39 0.114,-4.2059996 -1.393001,-3.165 -1.507,1.04 0.507,3.555 1.393001,3.165 z"
     fill="url(#e)"
     id="path25-5"
     style="fill:url(#linearGradient1552)" />
  <path
     d="m 12.045421,12.063186 c 1.056,-0.215 1.113,-4.5429996 -0.768,-3.7669996 -1.8819998,0.777 -0.286,3.9819996 0.768,3.7669996 z"
     fill="url(#f)"
     id="path27-6"
     style="fill:url(#linearGradient1554)" />
  <path
     d="m 17.555421,21.748186 c 0.187,1.43 -1.049,2.136 -2.26,1.215 -3.853,-2.934 6.381,-4.398 5.707,-8.407 -0.56,-3.327 -10.77,-2.303 -11.9320008,2.903 -0.786,3.522 3.2400008,8.407 7.4400008,8.407 2.067,0 4.45,-1.866 4.897,-4.23 0.34,-1.803 -4.008,-1.08 -3.852,0.112 z"
     fill="url(#g)"
     id="path29-2"
     style="fill:url(#linearGradient1556)" />
  <rect
     fill="#eff0f1"
     height="8.5999975"
     rx="4.2999988"
     width="8.5999975"
     x="17.133757"
     y="16.899193"
     id="rect251-3"
     style="stroke-width:0.5375"
     ry="4.2999988" />
  <path
     d="m 23.992257,17.974193 c 0.132222,0 0.206936,0.09998 0.222522,0.300462 l -0.111262,0.943313 h 0.04086 l 0.0876,-0.06988 h 0.02365 v 0.0215 c -0.12093,0.08815 -0.238113,0.330561 -0.35152,0.726161 a 4.5628368,4.5628368 0 0 1 -0.21715,0.943314 2.8734749,2.8734749 0 0 0 -0.13438,0.825061 l -0.17038,0.496113 c 0,0.04192 0.0645,0.08385 0.1935,0.125775 -0.0231,0.09783 -0.05861,0.146737 -0.105359,0.146737 v 0.02795 h 0.04084 v 0.02096 c 0,0.05106 -0.06608,0.07686 -0.198883,0.07686 l 0.0231,0.02795 v 0.09783 h -0.04085 c 0.02688,0.09783 0.086,0.146737 0.175764,0.146737 v 0.04838 h -0.175753 v 0.02849 c 0.05861,0 0.0876,0.04193 0.0876,0.125775 l -0.246183,0.09783 0.02369,0.02795 v 0.02096 c 0,0.03225 -0.029,0.04837 -0.08759,0.04837 v 0.02849 c 0.07419,0 0.111258,0.01612 0.111258,0.04838 -0.105889,0.04246 -0.244558,0.249938 -0.416024,0.622425 -0.1763,0.330563 -0.328415,0.496113 -0.456876,0.496113 h -0.0473 c -0.09783,-0.07471 -0.177385,-0.321426 -0.240271,-0.740676 -0.249939,-0.63855 -0.375177,-1.013187 -0.375177,-1.124987 0,-0.289175 -0.0801,-0.596625 -0.240262,-0.92235 a 2.5982749,2.5982749 0 0 1 -0.08815,-0.545563 l -0.10535,-0.02795 c -0.265524,0.479989 -0.404199,0.855164 -0.416024,1.125526 a 2.4402499,2.4402499 0 0 0 -0.175764,0.572975 c 0.160179,0.05106 0.240264,0.09998 0.240264,0.146738 v 0.02795 c -0.125235,-0.01881 -0.21285,-0.05375 -0.263375,-0.104813 -0.05539,0.125775 -0.127389,0.47515 -0.21715,1.048125 -0.07038,0.265525 -0.15856,0.398287 -0.263375,0.398287 a 1.68775,1.68775 0 0 1 -0.744989,-0.572973 c -0.0312,0 -0.0817,-0.132762 -0.152112,-0.398287 -0.043,0 -0.07259,-0.132763 -0.08813,-0.398288 -0.148342,-0.377325 -0.249931,-0.808399 -0.304756,-1.292687 v -0.727774 h -0.02308 l -0.10535,0.02795 v -0.02795 c 0,-0.03225 0.0349,-0.04837 0.10535,-0.04837 l -0.02366,-0.41925 v -0.32895 l -0.16986,-1.048123 v -0.4472 c 0.0742,-0.279499 0.203179,-0.419249 0.386999,-0.419249 0,0 0.01611,-0.0011 0.0699,0.06987 l -0.0699,-0.02096 c 0.28488,0.372488 0.453119,0.686924 0.503637,0.943313 h 0.199413 v 0.04891 h -0.152116 v 0.0559 c 0.05861,0.214463 0.10159,0.321425 0.129,0.321425 h 0.0468 l 0.10535,-0.02795 0.02367,0.02795 0.0231,-0.02795 0.02363,0.02795 v 0.0215 a 0.40957499,0.40957499 0 0 0 -0.158561,0.23005 h -0.0172 v 0.04891 h 0.04085 c 0.05481,0.7783 0.155876,1.3674 0.304761,1.768375 l 0.08812,0.06987 h 0.04679 c 0.05861,0 0.181673,-0.272513 0.36926,-0.818075 0.12094,-0.246713 0.20909,-0.463326 0.263377,-0.649838 L 20.81571,20.1887 c 0.120958,-0.181675 0.246196,-0.272512 0.375196,-0.272512 h 0.04087 c 0.0817,0 0.140824,0.0516 0.175761,0.153725 0.109113,0.153725 0.197263,0.384312 0.263376,0.691762 l 0.328413,0.727237 a 0.26337499,0.26337499 0 0 1 0.0645,0.174688 c 0.120937,0.274662 0.230587,0.456337 0.327874,0.545025 h 0.07095 c 0.0817,0 0.19135,-0.340238 0.327876,-1.020712 0.02364,0 0.08812,-0.181675 0.1935,-0.545025 v -0.02795 l -0.369263,-0.04838 -0.0876,0.02741 h -0.1118 v -0.0559 l 0.223061,-0.02096 h 0.433765 c 0.1677,-0.600925 0.3225,-1.0664 0.46225,-1.3975 0.0473,-0.679938 0.1118,-1.020175 0.1935,-1.020175 z m -2.232777,0.600925 h 0.0645 v 0.0215 c 0,0.03225 -0.0215,0.04838 -0.0645,0.04838 l -0.02308,0.02795 v 0.02795 l -0.0645,-0.02795 v -0.04838 z m -0.327873,0.272512 v 0.02795 c 0,0.03763 -0.09406,0.07686 -0.28165,0.118788 v -0.04838 l 0.129,-0.06987 0.02365,0.02043 h 0.0172 l 0.1118,-0.04837 M 20.79843,19.09919 v 0.0215 c -0.0822,0.07418 -0.215,0.1419 -0.398282,0.2021 v -0.04838 c 0.03119,0 0.0468,-0.0258 0.0468,-0.0774 z m 1.1137,0.244563 0.02309,0.02795 v 0.0215 l -0.04089,0.05536 h -0.02365 l -0.0468,-0.0559 v -0.02096 z m 0.8084,0.02795 h 0.02364 v 0.0215 l -0.04084,0.05536 h -0.02365 v -0.02795 l 0.04085,-0.04837 m -0.369263,0.349375 0.08813,0.06987 c -0.01611,0.05106 -0.05913,0.07632 -0.129,0.07632 l -0.04681,-0.07686 c 0,-0.02311 0.02902,-0.04622 0.0876,-0.06987 m 0.52783,0.321426 0.0172,0.02795 v 0.0215 l -0.0172,0.02741 h -0.0478 v -0.02795 z m -0.832592,0.251549 v 0.0215 l -0.111258,0.104275 h -0.0645 v -0.02795 c 0,-0.04193 0.05912,-0.07418 0.175758,-0.09783 m -0.767531,2.138713 h 0.02365 v 0.04838 l -0.175766,0.10535 -0.02364,-0.02795 v -0.04891 z m -0.0645,0.649838 h 0.01769 l 0.06988,0.07686 -0.02308,0.02096 h -0.02367 l -0.04084,-0.06988 z"
     fill="#232629"
     id="path253-6"
     style="stroke-width:0.5375" />
</svg>
