<?xml version="1.0" encoding="UTF-8" standalone="no"?>
<svg
   height="32"
   width="32"
   version="1.1"
   id="svg4327"
   sodipodi:docname="pattern-qt-devel.svg"
   inkscape:version="1.2.1 (9c6d41e410, 2022-07-14)"
   xmlns:inkscape="http://www.inkscape.org/namespaces/inkscape"
   xmlns:sodipodi="http://sodipodi.sourceforge.net/DTD/sodipodi-0.dtd"
   xmlns:xlink="http://www.w3.org/1999/xlink"
   xmlns="http://www.w3.org/2000/svg"
   xmlns:svg="http://www.w3.org/2000/svg">
  <defs
     id="defs4331">
    <linearGradient
       inkscape:collect="always"
       xlink:href="#linearGradient2509"
       id="linearGradient2511"
       x1="2"
       y1="16"
       x2="29.645189"
       y2="19.158459"
       gradientUnits="userSpaceOnUse" />
    <linearGradient
       inkscape:collect="always"
       id="linearGradient2509">
      <stop
         style="stop-color:#88c0d0;stop-opacity:1;"
         offset="0"
         id="stop2505" />
      <stop
         style="stop-color:#adc596;stop-opacity:1;"
         offset="1"
         id="stop2507" />
    </linearGradient>
    <linearGradient
       id="h-3"
       gradientUnits="userSpaceOnUse"
       x1="18"
       x2="30"
       y1="18"
       y2="30"
       gradientTransform="translate(32.050847,-13.779661)">
      <stop
         offset="0"
         stop-color="#292c2f"
         id="stop13" />
      <stop
         offset="1"
         stop-opacity="0"
         id="stop15" />
    </linearGradient>
    <linearGradient
       id="linearGradient4762"
       gradientUnits="userSpaceOnUse"
       x1="8"
       x2="21"
       xlink:href="#a"
       y1="10"
       y2="23"
       gradientTransform="translate(-43.686416,-28.566873)" />
    <linearGradient
       id="linearGradient4766"
       gradientTransform="translate(1.01,-1.022)"
       gradientUnits="userSpaceOnUse"
       x1="-14.65"
       x2="-6.4299998"
       y1="9.1780005"
       y2="17.521999">
      <stop
         offset="0"
         stop-color="#292c2f"
         id="stop4312-8" />
      <stop
         offset="1"
         stop-opacity="0"
         id="stop4314-4" />
    </linearGradient>
    <linearGradient
       id="linearGradient4768"
       gradientUnits="userSpaceOnUse"
       x1="20"
       x2="29"
       xlink:href="#a"
       y1="12"
       y2="21"
       gradientTransform="translate(-43.686416,-28.566873)" />
    <linearGradient
       inkscape:collect="always"
       xlink:href="#a"
       id="linearGradient4774"
       gradientUnits="userSpaceOnUse"
       gradientTransform="translate(-0.1385,-1.1864998)"
       x1="8"
       y1="10"
       x2="21"
       y2="23" />
    <linearGradient
       inkscape:collect="always"
       xlink:href="#a"
       id="linearGradient4776"
       gradientUnits="userSpaceOnUse"
       gradientTransform="translate(-0.1385,-1.1864998)"
       x1="20"
       y1="12"
       x2="29"
       y2="21" />
  </defs>
  <sodipodi:namedview
     id="namedview4329"
     pagecolor="#ffffff"
     bordercolor="#666666"
     borderopacity="1.0"
     inkscape:showpageshadow="2"
     inkscape:pageopacity="0.0"
     inkscape:pagecheckerboard="0"
     inkscape:deskcolor="#d1d1d1"
     showgrid="false"
     inkscape:zoom="7.375"
     inkscape:cx="16"
     inkscape:cy="16.067797"
     inkscape:window-width="1920"
     inkscape:window-height="1000"
     inkscape:window-x="0"
     inkscape:window-y="0"
     inkscape:window-maximized="1"
     inkscape:current-layer="svg4327" />
  <linearGradient
     id="b"
     gradientUnits="userSpaceOnUse"
     x1="32"
     x2="32"
     y1="28"
     y2="4"
     gradientTransform="translate(-43.686416,-28.566873)">
    <stop
       offset="0"
       stop-color="#17a81a"
       id="stop4305" />
    <stop
       offset="1"
       stop-color="#41cd52"
       id="stop4307" />
  </linearGradient>
  <linearGradient
     id="d"
     gradientUnits="userSpaceOnUse"
     x1="20"
     x2="29"
     xlink:href="#a"
     y1="12"
     y2="21"
     gradientTransform="translate(-43.686416,-28.566873)" />
  <linearGradient
     id="c"
     gradientUnits="userSpaceOnUse"
     x1="8"
     x2="21"
     xlink:href="#a"
     y1="10"
     y2="23"
     gradientTransform="translate(-43.686416,-28.566873)" />
  <linearGradient
     id="a"
     gradientTransform="translate(1.01 -1.022)"
     gradientUnits="userSpaceOnUse"
     x1="-14.65"
     x2="-6.43"
     y1="9.178"
     y2="17.522">
    <stop
       offset="0"
       stop-color="#292c2f"
       id="stop4312" />
    <stop
       offset="1"
       stop-opacity="0"
       id="stop4314" />
  </linearGradient>
  <rect
     width="28"
     height="28"
     x="2"
     y="2"
     ry="14"
     rx="14"
     id="rect16"
     style="fill:url(#linearGradient2511);fill-opacity:1" />
  <path
     d="m 7.6395,20.7435 5.07,5.07 h 13.301 l -4.414,-4.414 v -6.067 l -2.202,-2.202 v -1.437 l -3.415,-3.4149998 -4.118,-0.465 -4,1 z"
     opacity="0.2"
     id="path4321-5"
     style="fill:url(#linearGradient4774)" />
  <path
     d="m 19.3945,13.1305 2.202,2.202 v 6.067 l 4.414,4.414 h 1.851 l 4,-4 v -4.963 l -8.797,-8.7969998 z"
     opacity="0.2"
     id="path4323-0"
     style="fill:url(#linearGradient4776)" />
  <path
     d="m 11.8585,22.0485 q -3.328,0 -4.65,-1.792 -1.302,-1.792 -1.302,-5.654 0,-3.882 1.323,-5.7599998 1.344,-1.877 4.63,-1.877 3.285,0 4.607,1.877 1.323,1.8559998 1.323,5.7389998 0,2.56 -0.555,4.139 -0.533,1.578 -1.77,2.41 l 1.792,2.88 -2.198,1.024 -1.898,-3.114 q -0.406,0.128 -1.302,0.128 z m -2.773,-3.307 q 0.725,1.237 2.773,1.237 2.048,0 2.752,-1.216 0.726,-1.237 0.726,-4.16 0,-2.922 -0.747,-4.245 -0.725,-1.3229998 -2.73,-1.3229998 -2.006,0 -2.753,1.3229998 -0.746,1.323 -0.746,4.224 0,2.901 0.725,4.16 z m 16.923,-5.611 h -2.944 v 4.694 q 0,1.301 0.192,1.728 0.192,0.426 0.981,0.426 l 1.75,-0.064 0.106,1.856 q -1.43,0.278 -2.176,0.278 -1.813,0 -2.496,-0.832 -0.661,-0.832 -0.661,-3.136 v -4.95 h -1.366 v -1.984 h 1.367 V 8.0535002 h 2.304 V 11.1465 h 2.944 z"
     fill="#fcfcfc"
     id="path4325-3" />
</svg>
