<?xml version="1.0" encoding="UTF-8" standalone="no"?>
<svg
   width="48"
   height="48"
   version="1.1"
   id="svg340"
   sodipodi:docname="syncplay.svg"
   inkscape:version="1.3 (0e150ed6c4, 2023-07-21)"
   xmlns:inkscape="http://www.inkscape.org/namespaces/inkscape"
   xmlns:sodipodi="http://sodipodi.sourceforge.net/DTD/sodipodi-0.dtd"
   xmlns:xlink="http://www.w3.org/1999/xlink"
   xmlns="http://www.w3.org/2000/svg"
   xmlns:svg="http://www.w3.org/2000/svg">
  <sodipodi:namedview
     id="namedview342"
     pagecolor="#ffffff"
     bordercolor="#666666"
     borderopacity="1.0"
     inkscape:showpageshadow="2"
     inkscape:pageopacity="0.0"
     inkscape:pagecheckerboard="0"
     inkscape:deskcolor="#d1d1d1"
     showgrid="false"
     inkscape:zoom="4.9166667"
     inkscape:cx="-11.186441"
     inkscape:cy="43.423729"
     inkscape:window-width="1920"
     inkscape:window-height="996"
     inkscape:window-x="0"
     inkscape:window-y="0"
     inkscape:window-maximized="1"
     inkscape:current-layer="svg340" />
  <defs
     id="defs328">
    <linearGradient
       id="linearGradient4166">
      <stop
         style="stop-color:#f11c1c;stop-opacity:1"
         offset="0"
         id="stop308" />
      <stop
         style="stop-color:#e05e4c;stop-opacity:1"
         offset="1"
         id="stop310" />
    </linearGradient>
    <linearGradient
       gradientUnits="userSpaceOnUse"
       x2="0"
       y2="503.79999"
       y1="544.79999"
       id="linearGradient4173">
      <stop
         offset="0"
         stop-color="#44484c"
         id="stop313" />
      <stop
         stop-color="#1d1e1e"
         offset="1"
         id="stop315" />
    </linearGradient>
    <linearGradient
       id="linearGradient4282">
      <stop
         style="stop-color:#000000;stop-opacity:1;"
         offset="0"
         id="stop318" />
      <stop
         style="stop-color:#000000;stop-opacity:0;"
         offset="1"
         id="stop320" />
    </linearGradient>
    <linearGradient
       xlink:href="#linearGradient4166"
       id="linearGradient4193"
       gradientUnits="userSpaceOnUse"
       gradientTransform="matrix(0.81996377,0,0,0.81996377,-327.51864,-457.5126)"
       y1="544.79999"
       x2="0"
       y2="503.79999" />
    <linearGradient
       xlink:href="#linearGradient4173"
       id="linearGradient4246"
       gradientUnits="userSpaceOnUse"
       gradientTransform="matrix(-0.4099819,-0.71010945,0.71010945,-0.4099819,-197.32874,477.96518)"
       y1="532.20502"
       x2="386.827"
       y2="524.41803"
       x1="428.02899" />
    <linearGradient
       xlink:href="#linearGradient4166"
       id="linearGradient4248"
       gradientUnits="userSpaceOnUse"
       gradientTransform="matrix(-0.4099819,-0.71010945,0.71010945,-0.4099819,-197.40962,478.00714)"
       y1="544.79999"
       x2="0"
       y2="503.79999" />
    <linearGradient
       xlink:href="#linearGradient4282"
       id="linearGradient4288"
       x1="7.6690001"
       y1="14.513"
       x2="42.223999"
       y2="34.463001"
       gradientUnits="userSpaceOnUse"
       gradientTransform="matrix(0.81996377,0,0,0.81996377,-12.189277,-47.603698)" />
    <linearGradient
       xlink:href="#linearGradient4166"
       id="linearGradient4172"
       x1="18.437"
       y1="38.558998"
       x2="13.059"
       y2="31.145"
       gradientUnits="userSpaceOnUse"
       gradientTransform="matrix(0.81996377,0,0,0.81996377,-12.189277,-47.603698)" />
    <linearGradient
       xlink:href="#linearGradient4159"
       id="linearGradient4165"
       x1="36.771"
       y1="43.737"
       x2="23.828873"
       y2="14.117395"
       gradientUnits="userSpaceOnUse"
       gradientTransform="matrix(1.0500005,0,0,1.0500005,70.293923,17.840346)" />
    <linearGradient
       id="linearGradient4159">
      <stop
         style="stop-color:#e14253;stop-opacity:1;"
         offset="0"
         id="stop1151" />
      <stop
         style="stop-color:#ed8895;stop-opacity:1;"
         offset="1"
         id="stop1153" />
    </linearGradient>
    <linearGradient
       xlink:href="#linearGradient4282"
       id="linearGradient4182"
       x1="15.422"
       y1="13.478"
       x2="35.019001"
       y2="33.075001"
       gradientUnits="userSpaceOnUse"
       gradientTransform="matrix(1.0500005,0,0,1.0500005,-1.2314985,-1.2105025)" />
    <linearGradient
       xlink:href="#linearGradient4144"
       id="linearGradient4150"
       x1="14.023"
       y1="8.1289997"
       x2="27.879"
       y2="34.944"
       gradientUnits="userSpaceOnUse"
       gradientTransform="matrix(1.0500005,0,0,1.0500005,-1.2314985,-1.2105025)" />
    <linearGradient
       id="linearGradient4144">
      <stop
         style="stop-color:#ffffff;stop-opacity:1;"
         offset="0"
         id="stop1141" />
      <stop
         style="stop-color:#eea9a9;stop-opacity:1"
         offset="1"
         id="stop1143" />
    </linearGradient>
    <linearGradient
       gradientUnits="userSpaceOnUse"
       x2="0"
       y2="503.79999"
       y1="544.79999"
       id="linearGradient4173-3">
      <stop
         offset="0"
         stop-color="#44484c"
         id="stop313-6" />
      <stop
         stop-color="#1d1e1e"
         offset="1"
         id="stop315-7" />
    </linearGradient>
    <linearGradient
       xlink:href="#linearGradient4166"
       id="linearGradient4248-5"
       gradientUnits="userSpaceOnUse"
       gradientTransform="matrix(-0.4099819,-0.71010945,0.71010945,-0.4099819,-109.47482,548.87728)"
       y1="544.79999"
       x2="0"
       y2="503.79999" />
    <linearGradient
       xlink:href="#linearGradient4166"
       id="linearGradient4193-6"
       gradientUnits="userSpaceOnUse"
       gradientTransform="matrix(0.81996377,0,0,0.81996377,-239.58384,-386.64246)"
       y1="544.79999"
       x2="0"
       y2="503.79999" />
    <linearGradient
       gradientTransform="matrix(1.049963,0,0,1.0499041,-540.64586,-491.42928)"
       gradientUnits="userSpaceOnUse"
       x2="426.69501"
       y2="499.92099"
       y1="547.67499"
       id="a-6"
       x1="389.32001">
      <stop
         stop-color="#18222a"
         style="stop-color:#1e2b35;stop-opacity:1"
         id="stop216-3" />
      <stop
         stop-color="#566069"
         offset="1"
         style="stop-color:#6d7983;stop-opacity:1"
         id="stop218" />
    </linearGradient>
    <linearGradient
       id="linearGradient1274-7"
       x1="37.594002"
       x2="24.587999"
       y1="22.559999"
       y2="46.263"
       gradientUnits="userSpaceOnUse">
      <stop
         stop-color="#f00"
         offset="0"
         id="stop10-5" />
      <stop
         stop-color="#ff7864"
         offset="1"
         id="stop12-3" />
    </linearGradient>
    <linearGradient
       id="linearGradient1672-5"
       x1="40.223999"
       x2="35.202999"
       y1="17.995001"
       y2="26.733"
       gradientUnits="userSpaceOnUse">
      <stop
         stop-color="#389700"
         offset="0"
         id="stop15-6" />
      <stop
         stop-color="#34d710"
         offset="1"
         id="stop17-2" />
    </linearGradient>
    <linearGradient
       gradientUnits="userSpaceOnUse"
       x2="0"
       y2="503.79999"
       y1="544.79999"
       id="linearGradient4173-7">
      <stop
         offset="0"
         stop-color="#44484c"
         id="stop313-5" />
      <stop
         stop-color="#1d1e1e"
         offset="1"
         id="stop315-3" />
    </linearGradient>
    <linearGradient
       xlink:href="#linearGradient4166"
       id="linearGradient4248-5-5"
       gradientUnits="userSpaceOnUse"
       gradientTransform="matrix(-0.4099819,-0.71010945,0.71010945,-0.4099819,-177.00024,533.82644)"
       y1="544.79999"
       x2="0"
       y2="503.79999" />
    <linearGradient
       xlink:href="#linearGradient4166"
       id="linearGradient4193-6-9"
       gradientUnits="userSpaceOnUse"
       gradientTransform="matrix(0.81996377,0,0,0.81996377,-307.10926,-401.6933)"
       y1="544.79999"
       x2="0"
       y2="503.79999" />
    <linearGradient
       inkscape:collect="always"
       xlink:href="#linearGradient4159"
       id="linearGradient973"
       gradientUnits="userSpaceOnUse"
       gradientTransform="matrix(1.0500005,0,0,1.0500005,-1.2314969,-1.210503)"
       x1="36.771"
       y1="43.737"
       x2="23.828873"
       y2="14.117395" />
  </defs>
  <rect
     style="fill:url(#linearGradient973);fill-opacity:1;stroke-width:1.05"
     rx="21"
     y="3"
     x="3"
     height="42"
     width="42"
     id="rect1161-7" />
  <path
     style="opacity:0.2;stroke-width:0.526333"
     d="m 36.469999,9.5967238 c -0.621057,-0.00248 -1.795379,0.1211402 -3.112725,0.3145632 -0.08384,0.01231 -0.16138,0.03927 -0.242608,0.05757 -1.538315,0.228818 -3.203088,0.525439 -4.447073,0.845 -0.36554,0.09391 -0.727829,0.190946 -1.085553,0.291949 -0.26718,0.07546 -0.512528,0.161207 -0.770984,0.240553 -0.238267,0.07185 -0.474724,0.144957 -0.709313,0.219986 -0.153634,0.0508 -0.310081,0.09989 -0.460539,0.152145 -1.116895,0.370978 -2.191705,0.777736 -3.219649,1.219198 v -0.0068 c -0.05541,0.02374 -0.107352,0.05001 -0.162427,0.07399 -0.09065,0.03949 -0.185585,0.07521 -0.275501,0.115139 -0.130674,0.05812 -0.245365,0.12004 -0.372133,0.178873 -6.679694,3.062499 -11.314367,7.615206 -13.1417915,13.115147 -0.4802228,1.445319 -0.7830841,3.175762 -0.8778917,4.638277 -0.00784,0.04317 -0.024208,0.08775 -0.026761,0.129521 -0.00523,0.09658 0.00168,0.171554 -0.00168,0.265222 -0.00168,0.04864 -0.00884,0.104367 -0.010266,0.152144 l 0.010266,-0.0047 c -0.020873,0.764417 0.013249,1.444898 0.1459748,1.881218 0.4636257,1.523763 1.4837293,2.688557 3.0921784,3.571221 0.04149,0.02478 0.06298,0.05177 0.108975,0.07613 0.465582,0.246682 0.97906,0.470865 1.54403,0.672305 1.37551,0.49042 3.377486,0.877216 5.43806,1.097885 0.08917,0.0151 0.15477,0.03916 0.256992,0.04942 0.415898,0.04174 0.833435,0.0771 1.247979,0.102795 1.353064,0.08376 4.639088,-0.04999 5.72177,-0.232318 3.892141,-0.655316 7.040802,-2.408491 9.02571,-5.026854 1.453175,-1.916912 2.360884,-4.519844 1.778403,-5.100876 -0.207069,-0.206567 -0.436819,-0.125154 -0.80181,0.285779 -0.776927,0.874734 -2.293051,1.851153 -3.676067,2.428106 -0.89498,0.360677 -2.559431,0.64516 -3.488466,0.518107 l 0.271385,-0.94575 0.612685,-0.828553 c 0.210151,-0.01175 0.743776,-0.02833 0.969894,-0.04939 1.719694,-0.160436 3.720171,-1.84018 4.745162,-3.273113 1.186202,-1.658251 2.015216,-4.091286 2.049844,-6.011665 0.01549,-0.857336 -0.01788,-1.098968 -0.174813,-1.256206 -0.04548,-0.04567 -0.08241,-0.07723 -0.119196,-0.09251 -0.110613,-0.04578 -0.221834,0.06573 -0.56953,0.462591 -1.751739,1.944677 -4.386996,3.871328 -6.494806,5.012467 l -1.079371,-0.672159 0.372137,-0.96631 c 0.96242,-0.562102 2.222497,-1.342659 3.118915,-1.955232 0.04434,-0.03064 0.08563,-0.06535 0.129518,-0.09666 0.002,-0.0029 0.002,-0.006 0.002,-0.0085 2.975043,-2.124664 4.795427,-5.820986 5.189244,-10.580047 0.06626,-0.799649 0.05006,-0.9619958 -0.100699,-1.0197618 -0.07329,-0.02804 -0.213135,-0.040292 -0.409164,-0.041116 z"
     id="path1" />
  <path
     style="fill:#d81b60;stroke-width:0.526333"
     d="m 36.469032,9.0702757 c -0.621055,-0.00245 -1.794223,0.1218776 -3.111531,0.3152975 -1.593151,0.233926 -2.687388,1.6009828 -3.980676,1.9332078 -10.485218,2.6935 -17.588197,7.296651 -20.0043798,14.568465 -0.8072681,2.429583 -0.5177049,5.156778 -0.1146584,6.481407 0.6074606,1.996449 3.5595612,3.069037 6.1646212,3.997832 1.433597,0.511132 0.574626,1.83494 2.726707,2.051012 0.415899,0.04171 0.833413,0.07592 1.247961,0.10155 1.35306,0.08375 4.639634,-0.04948 5.72232,-0.231712 3.892132,-0.65532 7.040387,-2.408732 9.025321,-5.027106 1.453185,-1.916897 2.361313,-4.51946 1.778865,-5.100497 -0.207083,-0.206564 -0.438101,-0.124532 -0.803058,0.286399 -0.776944,0.874735 -2.292341,1.85127 -3.675365,2.428231 -0.894976,0.360677 -2.242921,0.643911 -3.171955,0.516852 l 0.271468,-0.944488 0.611933,-0.828281 c 0.210162,-0.01176 0.428001,-0.02811 0.65412,-0.04921 1.719705,-0.16043 3.719154,-1.840393 4.744156,-3.273321 1.186206,-1.658252 2.016293,-4.09113 2.050899,-6.01151 0.01556,-0.857337 -0.01872,-1.099179 -0.175601,-1.256417 -0.04558,-0.04567 -0.08257,-0.07834 -0.119475,-0.09356 -0.110542,-0.04579 -0.220745,0.06661 -0.568448,0.463425 -1.751749,1.944676 -4.386539,3.870466 -6.494359,5.011608 l -1.080596,-0.672031 0.373742,-0.965378 c 0.962418,-0.562095 2.22173,-1.344023 3.118149,-1.956596 3.056748,-2.107936 4.920895,-5.852559 5.320757,-10.684572 0.06626,-0.7996577 0.05006,-0.961186 -0.10072,-1.0189431 -0.0733,-0.028041 -0.21418,-0.040897 -0.410205,-0.041749 z"
     id="path2" />
  <path
     style="fill:#fd5450;stroke-width:0.526333"
     d="M 33.772987,9.3379689 C 32.07689,9.5720542 30.0865,9.921671 28.666729,10.286396 c -0.365543,0.0939 -0.727215,0.191384 -1.084939,0.292383 -9.902935,2.796053 -13.748151,8.290172 -16.080057,15.308467 -0.807261,2.429583 -1.8081713,5.802024 -1.405142,7.126649 0.475713,1.563465 -0.8686286,2.693675 0.812549,3.584436 0.465577,0.246688 0.98011,0.470063 1.545071,0.671493 1.574366,0.561323 3.963632,1.001093 6.329579,1.193095 5.22794,-3.84334 9.031866,-8.788783 11.627588,-14.73562 -0.391579,0.242745 -0.781945,0.475176 -1.164309,0.682185 l -1.079384,-0.672101 0.372743,-0.965704 c 0.962399,-0.562105 2.22198,-1.343575 3.118378,-1.956141 0.04436,-0.03063 0.08566,-0.06512 0.129536,-0.09645 1.25592,-3.665742 1.925705,-7.506664 1.984645,-11.3811369 z"
     id="path3" />
  <path
     style="fill:#ff9e21;stroke-width:0.526333"
     d="m 28.045,10.460533 c -2.166002,0.588054 -4.191393,1.303309 -6.060544,2.133963 -6.887348,3.060763 -8.297998,7.172224 -10.160096,12.776558 -0.491549,1.479386 -4.1709265,3.80062 -4.2582687,5.285275 -0.056049,0.953581 -0.014477,1.774986 0.1431062,2.293039 0.501968,1.649782 1.6472392,2.884669 3.4958055,3.789397 C 21.376002,31.913967 27.910518,21.717085 28.045,10.460533 Z"
     id="path4" />
  <path
     style="fill:#fdd835;stroke-width:0.526333"
     d="m 22.422069,12.404883 c -7.119631,3.059569 -12.051906,7.760771 -13.9529805,13.482363 -0.5398719,1.62484 -0.87126,3.630846 -0.9153221,5.185412 A 22.106006,22.106006 0 0 0 22.422069,12.404883 Z"
     id="path5" />
  <path
     style="opacity:0.2;stroke-width:0.526333"
     d="m 21.227016,19.07139 a 8.4212717,8.4212717 0 0 0 -8.421339,8.421343 8.4212717,8.4212717 0 0 0 8.421339,8.421332 8.4212717,8.4212717 0 0 0 8.421338,-8.421332 8.4212717,8.4212717 0 0 0 -8.421338,-8.421343 z m 0,1.579002 a 6.8423358,6.8423358 0 0 1 6.842336,6.842341 6.8423358,6.8423358 0 0 1 -6.842336,6.842332 6.8423358,6.8423358 0 0 1 -6.842331,-6.842332 6.8423358,6.8423358 0 0 1 6.842331,-6.842341 z"
     id="path6" />
  <path
     style="fill:#ffffff;stroke-width:0.526333"
     d="m 21.227016,18.54506 a 8.4212717,8.4212717 0 0 0 -8.421339,8.421333 8.4212717,8.4212717 0 0 0 8.421339,8.421336 8.4212717,8.4212717 0 0 0 8.421338,-8.421336 8.4212717,8.4212717 0 0 0 -8.421338,-8.421333 z m 0,1.578998 a 6.8423358,6.8423358 0 0 1 6.842336,6.842335 6.8423358,6.8423358 0 0 1 -6.842336,6.842339 6.8423358,6.8423358 0 0 1 -6.842331,-6.842339 6.8423358,6.8423358 0 0 1 6.842331,-6.842335 z"
     id="path7" />
  <path
     style="opacity:0.2;stroke-width:0.526333"
     d="m 18.742991,23.282313 a 0.65857553,0.66785263 0 0 0 -0.673943,0.666737 v 3.543437 3.543438 a 0.65857553,0.66785263 0 0 0 0.987771,0.578054 l 3.026056,-1.771719 3.026051,-1.771718 a 0.65857553,0.66785263 0 0 0 0,-1.156102 l -3.026051,-1.771719 -3.026056,-1.771722 a 0.65857553,0.66785263 0 0 0 -0.313828,-0.08866 z"
     id="path8" />
  <path
     style="fill:#ffffff;stroke-width:0.526333"
     d="m 18.742991,22.754977 a 0.65857553,0.66785263 0 0 0 -0.673943,0.666744 v 3.543437 3.54344 a 0.65857553,0.66785263 0 0 0 0.987771,0.578052 l 3.026056,-1.771719 3.026051,-1.771723 a 0.65857553,0.66785263 0 0 0 0,-1.156095 L 22.082875,24.61539 19.056819,22.84367 a 0.65857553,0.66785263 0 0 0 -0.313828,-0.08868 z"
     id="path9" />
  <path
     style="opacity:0.2;fill:#ffffff;stroke-width:0.526333"
     d="m 36.469087,9.0700346 c -0.621057,-0.00242 -1.794393,0.122168 -3.111724,0.3155984 -0.103547,0.015198 -0.204774,0.035434 -0.304292,0.059646 -1.519403,0.2277142 -3.161089,0.526118 -4.386451,0.840897 -0.365547,0.0939 -0.726808,0.191976 -1.084531,0.292978 -0.287589,0.08119 -0.553145,0.172311 -0.83062,0.258029 -0.200809,0.06086 -0.400118,0.12295 -0.598297,0.186067 -0.177187,0.05829 -0.357457,0.114564 -0.53045,0.17476 -1.110612,0.369444 -2.178593,0.773848 -3.201167,1.213037 a 22.106006,22.106006 0 0 0 0.002,-0.0066 c -0.05531,0.02374 -0.107448,0.05006 -0.162429,0.07401 -0.09065,0.03949 -0.185581,0.07521 -0.275502,0.115136 -0.129243,0.05748 -0.243626,0.117607 -0.369047,0.175787 -6.682441,3.0624 -11.318184,7.615881 -13.1460556,13.11718 -0.4805209,1.446204 -0.7833121,3.178347 -0.8779093,4.641404 -0.00784,0.04258 -0.023248,0.08618 -0.025698,0.127472 -0.020872,0.355814 -0.023592,0.683878 -0.01649,0.994067 0.00354,-0.153358 0.00706,-0.304924 0.01649,-0.46671 0.00258,-0.04123 0.017811,-0.08497 0.025698,-0.127471 0.094558,-1.46293 0.3973494,-3.195075 0.8778703,-4.641277 1.8278586,-5.501299 6.4635816,-10.054776 13.1459906,-13.117206 0.125421,-0.05826 0.239804,-0.118353 0.369046,-0.175792 0.08991,-0.03998 0.184865,-0.07576 0.275506,-0.115137 0.05504,-0.02387 0.107179,-0.05025 0.162418,-0.07399 a 22.106006,22.106006 0 0 1 -0.002,0.0068 c 1.022586,-0.439164 2.090556,-0.84357 3.201177,-1.21302 0.172989,-0.06019 0.353267,-0.116458 0.530443,-0.174753 0.198183,-0.06316 0.397492,-0.125206 0.598297,-0.186069 0.277483,-0.08572 0.543026,-0.176827 0.830624,-0.258033 0.357715,-0.100992 0.718991,-0.199068 1.084535,-0.292972 1.22536,-0.314784 2.867037,-0.613187 4.38645,-0.840901 0.09952,-0.02421 0.20075,-0.04441 0.304281,-0.05965 1.317369,-0.193426 2.490696,-0.3182657 3.111752,-0.3155931 0.196023,0.0015 0.336992,0.014136 0.410195,0.042189 0.06626,0.02537 0.102589,0.08161 0.121299,0.1922331 0.03398,-0.5222037 0.0067,-0.6706838 -0.121299,-0.7195979 -0.0733,-0.028041 -0.214172,-0.041304 -0.410195,-0.04219 z m -0.244626,9.8615484 c -0.094,0.03097 -0.221385,0.169068 -0.482135,0.466717 -1.441948,1.600721 -3.479057,3.18082 -5.331201,4.32889 -0.391582,0.242737 -0.78133,0.47558 -1.163696,0.682586 l -0.914906,-0.570541 -0.164486,0.425593 1.079392,0.672306 c 0.382366,-0.207004 0.772114,-0.439847 1.163696,-0.682592 1.852144,-1.148053 3.889253,-2.728153 5.331201,-4.328881 0.347675,-0.396861 0.457891,-0.509363 0.568432,-0.46363 0.03696,0.01527 0.07373,0.04782 0.119256,0.09357 0.115991,0.11633 0.164398,0.282332 0.175818,0.70623 0.01427,-0.835484 -0.02066,-1.07802 -0.175818,-1.233597 -0.0452,-0.04568 -0.08241,-0.07834 -0.119256,-0.09355 -0.02742,-0.01138 -0.05494,-0.01346 -0.0863,-0.0034 z m -0.549994,9.11935 c -0.150256,0.0099 -0.325959,0.137913 -0.554086,0.394747 -0.776942,0.874738 -2.292065,1.852198 -3.675095,2.429153 -0.849732,0.342439 -2.104153,0.60949 -3.024359,0.527363 l -0.14803,0.516053 c 0.929033,0.12706 2.277422,-0.155379 3.172389,-0.516053 1.383021,-0.57696 2.898153,-1.55442 3.675095,-2.429154 0.364977,-0.410932 0.595779,-0.492344 0.80286,-0.285779 0.08006,0.07986 0.129037,0.201192 0.155227,0.350544 0.04353,-0.403484 0.003,-0.71964 -0.155227,-0.877909 -0.07758,-0.07741 -0.158651,-0.114688 -0.248774,-0.108965 z"
     id="path10" />
</svg>
