<?xml version="1.0" encoding="UTF-8" standalone="no"?>
<svg
   width="48"
   height="48"
   version="1.1"
   id="svg30"
   sodipodi:docname="teamviewer.svg"
   inkscape:version="1.2.1 (9c6d41e410, 2022-07-14)"
   xmlns:inkscape="http://www.inkscape.org/namespaces/inkscape"
   xmlns:sodipodi="http://sodipodi.sourceforge.net/DTD/sodipodi-0.dtd"
   xmlns:xlink="http://www.w3.org/1999/xlink"
   xmlns="http://www.w3.org/2000/svg"
   xmlns:svg="http://www.w3.org/2000/svg">
  <sodipodi:namedview
     id="namedview32"
     pagecolor="#ffffff"
     bordercolor="#666666"
     borderopacity="1.0"
     inkscape:showpageshadow="2"
     inkscape:pageopacity="0.0"
     inkscape:pagecheckerboard="0"
     inkscape:deskcolor="#d1d1d1"
     showgrid="false"
     inkscape:zoom="4.9166667"
     inkscape:cx="24"
     inkscape:cy="24"
     inkscape:window-width="1920"
     inkscape:window-height="1011"
     inkscape:window-x="0"
     inkscape:window-y="0"
     inkscape:window-maximized="1"
     inkscape:current-layer="svg30" />
  <defs
     id="defs20">
    <linearGradient
       id="linearGradient4179">
      <stop
         style="stop-color:#000000;stop-opacity:1;"
         offset="0"
         id="stop2" />
      <stop
         style="stop-color:#000000;stop-opacity:0;"
         offset="1"
         id="stop4" />
    </linearGradient>
    <linearGradient
       id="linearGradient4165">
      <stop
         style="stop-color:#ffffff;stop-opacity:1;"
         offset="0"
         id="stop7" />
      <stop
         style="stop-color:#7cafec;stop-opacity:1"
         offset="1"
         id="stop9" />
    </linearGradient>
    <linearGradient
       gradientTransform="matrix(1.0499996,0,0,1.049334,-404.99978,-525.65226)"
       xlink:href="#1"
       id="0"
       x1="417.634"
       y1="540.799"
       x2="399.646"
       y2="500.893"
       gradientUnits="userSpaceOnUse" />
    <linearGradient
       id="1">
      <stop
         stop-color="#105be2"
         style="stop-color:#2579b0;stop-opacity:1"
         id="stop13" />
      <stop
         offset="1"
         stop-color="#26dbfc"
         style="stop-color:#7cbfec;stop-opacity:1"
         id="stop15" />
    </linearGradient>
    <linearGradient
       xlink:href="#linearGradient4165"
       id="linearGradient4171"
       x1="19"
       y1="12"
       x2="29"
       y2="36"
       gradientUnits="userSpaceOnUse"
       gradientTransform="matrix(1.0499996,0,0,1.049334,-1.199998,-1.1973363)" />
    <linearGradient
       xlink:href="#linearGradient4179"
       id="linearGradient4185"
       x1="20"
       y1="16"
       x2="36"
       y2="32"
       gradientUnits="userSpaceOnUse"
       gradientTransform="matrix(1.0499996,0,0,1.049334,-1.199998,-1.1973363)" />
  </defs>
  <rect
     height="41.973373"
     rx="21"
     y="3"
     x="3.000001"
     width="42"
     style="opacity:1;fill:url(#0);stroke-width:2.93909;stroke-opacity:0.550265"
     id="rect22" />
  <path
     style="opacity:0.3;fill:url(#linearGradient4185);fill-opacity:1;stroke:none;stroke-width:2.09934;stroke-linecap:round;stroke-linejoin:round;stroke-miterlimit:4;stroke-dasharray:none;stroke-opacity:1"
     d="m 20.493156,12.273897 -8.746578,11.362323 2.300974,9.706332 11.66279,11.657447 C 36.019982,44.14338 44.162926,35.909692 44.874885,25.564778 L 33.287977,13.985214 Z"
     id="path24" />
  <path
     style="fill:url(#linearGradient4171);fill-opacity:1;stroke-width:1.0497"
     d="m 23.99999,10.345339 c -7.546152,0 -13.64999,6.100677 -13.64999,13.641339 0,7.540511 6.103838,13.64134 13.64999,13.64134 7.546183,0 13.649993,-6.100829 13.649993,-13.64134 0,-7.540662 -6.10381,-13.641339 -13.649993,-13.641339 z m -3.149999,9.444003 v 2.098665 h 6.3 v -2.098665 l 3.750878,2.098665 3.599114,2.098671 -3.599114,2.098665 -3.750878,2.098671 v -2.098671 h -6.3 v 2.098671 l -3.750878,-2.098671 -3.59912,-2.098665 3.59912,-2.098671 z"
     id="path26" />
  <path
     style="opacity:0.15;fill:#000000;fill-opacity:1;stroke-width:2.93909;stroke-opacity:0.550265"
     d="M 3.0123052,23.462009 C 3.0080291,23.637102 3,23.810524 3,23.986678 c 0,11.62661 9.366008,20.98668 20.99999,20.98668 11.633986,0 20.999993,-9.36007 20.999993,-20.98668 0,-0.176154 -0.0077,-0.349576 -0.01232,-0.524669 -0.277397,11.381676 -9.529638,20.462009 -20.987687,20.462009 -11.458054,0 -20.7102947,-9.080333 -20.9876854,-20.462009 z"
     id="path28" />
</svg>
