<?xml version="1.0" encoding="UTF-8" standalone="no"?>
<svg
   width="48"
   height="48"
   version="1.1"
   id="svg5258"
   sodipodi:docname="umbrello.svg"
   inkscape:version="1.2.1 (9c6d41e410, 2022-07-14)"
   xmlns:inkscape="http://www.inkscape.org/namespaces/inkscape"
   xmlns:sodipodi="http://sodipodi.sourceforge.net/DTD/sodipodi-0.dtd"
   xmlns:xlink="http://www.w3.org/1999/xlink"
   xmlns="http://www.w3.org/2000/svg"
   xmlns:svg="http://www.w3.org/2000/svg">
  <sodipodi:namedview
     id="namedview5260"
     pagecolor="#ffffff"
     bordercolor="#666666"
     borderopacity="1.0"
     inkscape:showpageshadow="2"
     inkscape:pageopacity="0.0"
     inkscape:pagecheckerboard="0"
     inkscape:deskcolor="#d1d1d1"
     showgrid="false"
     inkscape:zoom="4.9166667"
     inkscape:cx="24"
     inkscape:cy="24"
     inkscape:window-width="1920"
     inkscape:window-height="1009"
     inkscape:window-x="0"
     inkscape:window-y="0"
     inkscape:window-maximized="1"
     inkscape:current-layer="svg5258" />
  <defs
     id="defs5236">
    <linearGradient
       id="a"
       y1="42"
       x1="19.01"
       y2="26"
       gradientUnits="userSpaceOnUse"
       x2="3.01">
      <stop
         stop-color="#cd1f03"
         id="stop5215" />
      <stop
         offset="1"
         stop-color="#d94460"
         id="stop5217" />
    </linearGradient>
    <linearGradient
       xlink:href="#a"
       id="b"
       y1="42.557"
       x1="20.01"
       y2="26.557"
       gradientUnits="userSpaceOnUse"
       x2="4.01"
       gradientTransform="translate(57.469693,-35.655593)" />
    <linearGradient
       id="c"
       y1="24.505"
       x1="49.38"
       y2="5.01"
       gradientUnits="userSpaceOnUse"
       x2="21.01">
      <stop
         stop-color="#b21b03"
         id="stop5221" />
      <stop
         offset="1"
         stop-color="#d94460"
         id="stop5223" />
    </linearGradient>
    <linearGradient
       id="d"
       y1="-12.559"
       x1="11.37"
       y2="25.998"
       x2="47.999"
       gradientUnits="userSpaceOnUse"
       gradientTransform="translate(-84.892803,-7.2437729)">
      <stop
         stop-opacity=".188"
         id="stop5226" />
      <stop
         offset="1"
         stop-opacity="0"
         id="stop5228" />
    </linearGradient>
    <linearGradient
       id="e"
       y1="20.02"
       x1="2.188"
       y2="48.46"
       x2="31.688"
       gradientUnits="userSpaceOnUse"
       gradientTransform="translate(1,0.002)">
      <stop
         stop-opacity=".145"
         id="stop5231" />
      <stop
         offset="1"
         stop-opacity="0"
         id="stop5233" />
    </linearGradient>
    <linearGradient
       xlink:href="#linearGradient4160"
       id="linearGradient4166"
       x1="32.249001"
       y1="42.036999"
       x2="16.546"
       y2="4.902"
       gradientUnits="userSpaceOnUse"
       gradientTransform="matrix(1.0500003,0,0,1.0500003,-1.1999993,-1.1999992)" />
    <linearGradient
       id="linearGradient4160">
      <stop
         style="stop-color:#ffb5ff;stop-opacity:1;"
         offset="0"
         id="stop12" />
      <stop
         style="stop-color:#ffb380;stop-opacity:1"
         offset="1"
         id="stop14" />
    </linearGradient>
    <linearGradient
       inkscape:collect="always"
       xlink:href="#a"
       id="linearGradient5751"
       gradientUnits="userSpaceOnUse"
       gradientTransform="translate(1.180769,-5.2604046)"
       x1="20.01"
       y1="42.557"
       x2="4.01"
       y2="26.557" />
  </defs>
  <rect
     style="fill:url(#linearGradient4166);fill-opacity:1;stroke-width:1.05"
     rx="21"
     y="3"
     x="3"
     height="42"
     width="42"
     id="rect23" />
  <path
     style="fill:#2c2e31;fill-opacity:0.235294;stroke-width:1.05"
     d="m 3.0122657,23.474957 c -0.0042,0.174859 -0.01228,0.34906 -0.01228,0.524999 0,11.634004 9.3660013,21.000004 21.0000023,21.000004 11.634002,0 21.000002,-9.366 21.000002,-21.000004 0,-0.17594 -0.008,-0.35014 -0.0123,-0.524999 -0.27791,11.388431 -9.52997,20.475004 -20.987696,20.475004 -11.457728,0 -20.7097933,-9.086573 -20.9876963,-20.475004 z"
     id="path25" />
  <path
     fill="#d5363e"
     d="m 31.537651,10.567957 c -1.381,0 -2.5,1.119 -2.5,2.5 0,1.208 0.861,2.204 2,2.438 v 0.031 l -2.938,2.844 0.688,0.719 2.25,-2.188 v 1.625 l -2.156,4.5 0.906,0.438 1.75,-3.688 1.75,3.688 0.906,-0.438 -2.156,-4.5 v -1.625 l 2.25,2.188 0.688,-0.719 -2.938,-2.875 c 1.139,-0.233 2,-1.229 2,-2.438 0,-1.381 -1.119,-2.5 -2.5,-2.5 m 0,1 c 0.828,0 1.5,0.672 1.5,1.5 0,0.828 -0.672,1.5 -1.5,1.5 -0.828,0 -1.5,-0.672 -1.5,-1.5 0,-0.828 0.672,-1.5 1.5,-1.5"
     id="path5250-1" />
  <path
     fill="url(#b)"
     d="m 16.179769,23.293595 -0.004,0.455 c -1.26,0.095 -2.462,0.39 -3.548,1 -1.849,0.988 -3.1039999,3.854 -3.1729999,5.848 0.004,0.182 -0.039,0.386 0.035,0.554001 0.176,0.227 0.5959999,0.295 0.7819999,0.042 0.479,-0.553001 1.221,-0.940001 1.999,-0.901001 0.727,-0.037 1.399,0.357 1.823,0.885001 0.153,0.2 0.479,0.253 0.679,0.087 0.241,-0.226001 0.454,-0.487001 0.75,-0.660001 0.211,-0.132 0.446,-0.225 0.694,-0.27 0.043,1.737001 -0.002,2.503001 0.007,4.240001 0.015,0.287 -0.059,0.572 -0.261,0.792 -0.358,0.454 -1.062,0.622 -1.604,0.359 -0.428,-0.192 -0.709,-0.612 -0.732,-1.051 -0.021,-0.217 -0.175,-0.44 -0.428,-0.455 -0.284,-0.036 -0.535,0.215 -0.496,0.476 -0.017,0.952 0.792,1.812 1.779,1.992 1.06,0.222 2.223,-0.4 2.558,-1.36 0.19,-0.517 0.088,-1.072 0.12,-1.608 0.008,-1.454 -0.022,-1.937 0.023,-3.391001 0.582,0.112 1.053,0.499 1.414,0.918001 0.205,0.184 0.564,0.143 0.717,-0.081 0.342,-0.419001 0.831,-0.754001 1.394,-0.843001 0.727,-0.139 1.469,0.129 2.02,0.568 0.215,0.135 0.375,0.358001 0.617,0.452001 0.312,0.092 0.691,-0.175 0.611,-0.492001 0.01,-1.853 -0.985,-4.638 -2.579,-5.728 -1.105,-0.767 -2.451,-1.201 -3.818,-1.334 -0.127,-0.022 -0.256,-0.014 -0.368,-0.045 l -0.009,-0.452 c 0.005,-0.69 -0.979,-0.68 -1,0 m 4.86,2.943 c 0.619,0.472 1.452,2.099 1.656,3.208 -0.61,-0.359 -1.113,-0.358 -1.843,-0.29 -0.727,0.048 -1.413,0.636 -1.934,1.105 -0.627,-0.568 -1.498,-1.17 -2.381,-1.108 -0.771,0.019 -1.502,0.353 -2.056,0.841 -0.841,-0.777 -2.161,-1.06 -3.287,-0.696 -0.245,0.074 -0.502,0.108 -0.525,-0.101 0.308,-1.457 2.035,-3.202 2.697,-3.58 0.692,-0.356 2.164,-0.91 3.385,-0.866 1.596,-0.084 3.588,0.845 4.288,1.489"
     id="path5254-9"
     style="fill:url(#linearGradient5751)" />
  <path
     d="m 34.988449,31.238775 -3.337925,-3.33523 c -0.03133,-0.0313 -0.0737,-0.0487 -0.118125,-0.0487 -0.04434,0 -0.08677,0.0177 -0.11811,0.049 l -3.327934,3.3349 c -0.04772,0.0477 -0.06175,0.11929 -0.03596,0.18161 0.02608,0.0623 0.08677,0.10261 0.154143,0.10261 h 1.835127 v 4.1653 c 0,0.092 0.07471,0.16662 0.166831,0.16662 h 2.669292 c 0.09211,0 0.166836,-0.0746 0.166836,-0.16662 v -4.16531 h 1.828114 c 0.06739,0 0.128135,-0.0407 0.154155,-0.10295 0.02608,-0.0623 0.0113,-0.13361 -0.03632,-0.18127 z"
     id="path2-7"
     style="fill:#d5363e;fill-opacity:1;stroke-width:0.0156303" />
  <path
     d="m 13.255329,15.085225 3.337974,3.33522 c 0.03131,0.0313 0.07372,0.0487 0.118123,0.0487 0.04434,0 0.08677,-0.0177 0.118113,-0.049 l 3.327981,-3.33489 c 0.04772,-0.0477 0.06175,-0.11929 0.03612,-0.18163 -0.02608,-0.0623 -0.08677,-0.1026 -0.15416,-0.1026 h -1.835158 v -4.16529 c 0,-0.092 -0.07471,-0.16662 -0.166837,-0.16662 h -2.669326 c -0.09211,0 -0.166838,0.0746 -0.166838,0.16662 v 4.16531 h -1.828132 c -0.06739,0 -0.128131,0.0407 -0.154161,0.10294 -0.02608,0.0623 -0.0113,0.13361 0.03632,0.18127 z"
     id="path2-7-5"
     style="fill:#d5363e;fill-opacity:1;stroke-width:0.0156304" />
</svg>
