<?xml version="1.0" encoding="UTF-8" standalone="no"?>
<svg
   width="48"
   height="48"
   version="1.1"
   id="svg33"
   sodipodi:docname="viber.svg"
   inkscape:version="1.2.1 (9c6d41e410, 2022-07-14)"
   xmlns:inkscape="http://www.inkscape.org/namespaces/inkscape"
   xmlns:sodipodi="http://sodipodi.sourceforge.net/DTD/sodipodi-0.dtd"
   xmlns:xlink="http://www.w3.org/1999/xlink"
   xmlns="http://www.w3.org/2000/svg"
   xmlns:svg="http://www.w3.org/2000/svg">
  <sodipodi:namedview
     id="namedview35"
     pagecolor="#ffffff"
     bordercolor="#666666"
     borderopacity="1.0"
     inkscape:showpageshadow="2"
     inkscape:pageopacity="0.0"
     inkscape:pagecheckerboard="0"
     inkscape:deskcolor="#d1d1d1"
     showgrid="false"
     inkscape:zoom="4.9166667"
     inkscape:cx="24"
     inkscape:cy="24"
     inkscape:window-width="1920"
     inkscape:window-height="1009"
     inkscape:window-x="0"
     inkscape:window-y="0"
     inkscape:window-maximized="1"
     inkscape:current-layer="svg33" />
  <defs
     id="defs21">
    <linearGradient
       inkscape:collect="always"
       id="linearGradient1383">
      <stop
         style="stop-color:#000000;stop-opacity:1;"
         offset="0"
         id="stop1379" />
      <stop
         style="stop-color:#000000;stop-opacity:0;"
         offset="1"
         id="stop1381" />
    </linearGradient>
    <linearGradient
       id="linearGradient4146">
      <stop
         style="stop-color:#ffffff;stop-opacity:1;"
         offset="0"
         id="stop2" />
      <stop
         style="stop-color:#cbb0ea;stop-opacity:1"
         offset="1"
         id="stop4" />
    </linearGradient>
    <linearGradient
       id="linearGradient4221">
      <stop
         style="stop-color:#000000;stop-opacity:1;"
         offset="0"
         id="stop7" />
      <stop
         style="stop-color:#000000;stop-opacity:0;"
         offset="1"
         id="stop9" />
    </linearGradient>
    <linearGradient
       id="linearGradient4167">
      <stop
         style="stop-color:#7d519e;stop-opacity:1;"
         offset="0"
         id="stop12" />
      <stop
         style="stop-color:#a987c2;stop-opacity:1"
         offset="1"
         id="stop14" />
    </linearGradient>
    <linearGradient
       xlink:href="#linearGradient4167"
       id="linearGradient4183"
       x1="24.112"
       y1="36.417"
       x2="17.358"
       y2="8.984"
       gradientUnits="userSpaceOnUse"
       gradientTransform="translate(-38,-47.920867)" />
    <linearGradient
       xlink:href="#linearGradient4221"
       id="linearGradient4227"
       x1="24.935"
       y1="10.262"
       x2="39.71"
       y2="25.036"
       gradientUnits="userSpaceOnUse"
       gradientTransform="translate(-80.238312,-4.564453)" />
    <linearGradient
       xlink:href="#linearGradient4221"
       id="linearGradient4235"
       x1="15.063"
       y1="12.237"
       x2="35.919"
       y2="33.093"
       gradientUnits="userSpaceOnUse"
       gradientTransform="translate(-80.238312,-4.564453)" />
    <linearGradient
       xlink:href="#linearGradient4146"
       id="linearGradient4152"
       x1="15.588"
       y1="8.79"
       x2="28.731"
       y2="31.554"
       gradientUnits="userSpaceOnUse"
       gradientTransform="translate(-80.238312,-4.564453)" />
    <linearGradient
       inkscape:collect="always"
       xlink:href="#linearGradient1383"
       id="linearGradient1385"
       x1="3.0000047"
       y1="34.230998"
       x2="44.999984"
       y2="34.230998"
       gradientUnits="userSpaceOnUse" />
    <linearGradient
       inkscape:collect="always"
       xlink:href="#linearGradient4167"
       id="linearGradient1387"
       gradientUnits="userSpaceOnUse"
       gradientTransform="translate(-3.0004882e-7,0.01331347)"
       x1="3"
       y1="44.973358"
       x2="45"
       y2="3" />
    <linearGradient
       inkscape:collect="always"
       xlink:href="#linearGradient4221"
       id="linearGradient1495"
       gradientUnits="userSpaceOnUse"
       gradientTransform="translate(-1.1230526,3.4958395)"
       x1="15.063"
       y1="12.237"
       x2="35.919"
       y2="33.093" />
    <linearGradient
       inkscape:collect="always"
       xlink:href="#linearGradient4221"
       id="linearGradient1497"
       gradientUnits="userSpaceOnUse"
       gradientTransform="translate(-1.1230526,4.0958395)"
       x1="24.935"
       y1="10.262"
       x2="39.71"
       y2="25.036" />
    <linearGradient
       inkscape:collect="always"
       xlink:href="#linearGradient4146"
       id="linearGradient1499"
       gradientUnits="userSpaceOnUse"
       gradientTransform="translate(-1.1230526,3.4958395)"
       x1="15.588"
       y1="8.79"
       x2="28.731"
       y2="31.554" />
  </defs>
  <rect
     height="41.973373"
     rx="21"
     y="3.0133133"
     x="3"
     width="42"
     id="rect22"
     style="fill:url(#linearGradient1387);fill-opacity:1.0" />
  <path
     style="opacity:0.15;fill:url(#linearGradient1385);fill-opacity:1.0;stroke-width:2.93909;stroke-opacity:0.550265"
     d="m 3.0123047,23.475323 c -0.0043,0.175093 -0.0123,0.348515 -0.0123,0.524669 0,11.62661 9.3660083,20.98668 20.9999903,20.98668 11.633986,0 20.999989,-9.36007 20.999989,-20.98668 0,-0.176154 -0.008,-0.349576 -0.0123,-0.524669 -0.27739,11.381676 -9.529634,20.462009 -20.987683,20.462009 -11.458054,0 -20.7102953,-9.080333 -20.9876853,-20.462009 z"
     id="path28" />
  <path
     style="opacity:0.2;fill:url(#linearGradient1495);fill-opacity:1;stroke:none;stroke-width:2;stroke-linecap:round;stroke-linejoin:round;stroke-miterlimit:4;stroke-dasharray:none;stroke-opacity:1"
     d="m 15.134759,15.609121 -1.664062,7.105468 3.908203,6.230469 10.550781,10.550781 h 3.947266 c 2.328101,0 4.458484,-0.79473 6.154297,-2.119141 L 16.587885,15.93334 Z"
     id="path25-3" />
  <path
     style="opacity:0.2;fill:url(#linearGradient1497);fill-opacity:1;stroke:none;stroke-width:2;stroke-linecap:round;stroke-linejoin:round;stroke-miterlimit:4;stroke-dasharray:none;stroke-opacity:1"
     d="m 26.457025,14.660293 -2.414062,0.421875 0.05664,0.449219 3.363282,3.36328 -3.462891,-0.02539 0.06641,0.615234 16.146485,16.146484 c 1.051098,-1.583455 1.664062,-3.484126 1.664062,-5.535156 V 27.213027 L 31.144525,16.478652 Z"
     id="path27-5" />
  <path
     style="fill:url(#linearGradient1499);fill-opacity:1"
     d="m 24.765573,13.496 c -0.48314,0 -0.88408,0.38589 -0.88867,0.85352 -0.0028,0.46975 0.39819,0.86478 0.88477,0.86719 2.0999,0.01577 3.8265,0.67944 5.2188,1.988299 1.3759,1.296701 2.0931,3.0932 2.1113,5.4375 v 0.002 c 0.005,0.46636 0.40622,0.85152 0.89062,0.85152 5.1e-5,0 0.0092,-0.0018 0.0098,-0.002 0.4855,-0.0045 0.88869,-0.3959 0.88477,-0.86524 v -0.002 c -0.0113,-1.3664 -0.23344,-2.6227 -0.668,-3.7284 -0.4398,-1.117101 -1.1083,-2.1056 -1.9805,-2.9277 -1.7225,-1.619901 -3.9228,-2.456701 -6.4551,-2.4746 h -0.0078 z m -9.0195,2.0215 c -0.3388,-0.05759 -0.7058,0.0054 -1.0723,0.18164 h -0.0293 l -0.04102,0.02344 c -0.67914,0.38604 -1.3158,0.90359 -1.9121,1.5527 l -0.04687,0.05078 v 0.04687 c -0.41259,0.51439 -0.6853,1.0321 -0.74805,1.5508 -0.02002,0.0879 -0.01953,0.16714 -0.01953,0.25196 0,0.235959 0.03468,0.47576 0.10742,0.71094 l 0.01953,0.06641 0.04102,0.02344 c 0.23553,0.80809 0.77,2.0657 1.9395,4.1953 0.77892,1.4115 1.5748,2.5906 2.3652,3.584 0.41639,0.5221 0.88808,1.0657 1.4355,1.6133 0.0065,0.0065 0.02959,0.03008 0.05469,0.05273 0.0087,0.0087 0.02087,0.02673 0.05078,0.05664 l 0.05469,0.05469 h 0.0039 c 0.01927,0.01927 0.03227,0.03326 0.03516,0.03711 l 0.0098,0.01172 0.0098,0.0098 c 0.54744,0.54148 1.0874,1.015999 1.6152,1.429699 0.99189,0.79051 2.1707,1.5927 3.582,2.373 2.132,1.1762 3.4013,1.7078 4.2051,1.9395 l 0.0293,0.03516 0.04883,0.01758 c 0.2277,0.07591 0.46464,0.11096 0.69922,0.10742 0.09514,0.0052 0.17939,-0.0015 0.25976,-0.01953 0.55048,-0.06436 1.0955,-0.325 1.6348,-0.77734 l 0.0059,-0.0078 0.0059,-0.0039 c 0.0083,-0.0083 0.0034,-0.0043 0.0078,-0.0098 0.0048,-0.0043 0.0069,-0.0093 0.01172,-0.01367 0.63825,-0.58251 1.1534,-1.2161 1.541,-1.8945 l 0.02539,-0.04297 v -0.04102 c 0.35599,-0.74129 0.21499,-1.4981 -0.36328,-1.9805 -0.01417,-0.01215 -0.29201,-0.2444 -0.63672,-0.52539 -0.35253,-0.28727 -0.77061,-0.62493 -1.0529,-0.83206 -0.53408,-0.39509 -1.3596,-0.90615 -1.8301,-1.168 h -0.002 c -0.90375,-0.50613 -1.8481,-0.21199 -2.2637,0.32617 l -0.72852,0.91211 c -0.29381,0.3702 -0.8809,0.33489 -0.89648,0.33398 -4.9414,-1.2713 -6.2699,-6.24 -6.2793,-6.2754 -8.81e-4,-0.01555 -0.0364,-0.60368 0.33398,-0.90234 l 0.9082,-0.72656 c 0.53945,-0.41319 0.84274,-1.3574 0.33398,-2.2637 -0.2654,-0.46852 -0.77867,-1.3002 -1.168,-1.8301 h -0.002 c -0.2087,-0.28127 -0.54533,-0.70183 -0.83203,-1.0547 -0.14335,-0.17643 -0.27386,-0.33792 -0.36914,-0.45312 -0.04764,-0.05761 -0.08595,-0.10414 -0.11328,-0.13672 -0.01367,-0.01629 -0.02518,-0.02775 -0.0332,-0.03711 -0.004,-0.0047 -0.0063,-0.0078 -0.0098,-0.01172 -0.25169,-0.29887 -0.57248,-0.48096 -0.92578,-0.54102 z m 9.0723,1.980499 c -0.47653,-0.0336 -0.90471,0.32346 -0.93945,0.7832 -0.03478,0.46025 0.3365,0.870741 0.8125,0.9043 1.1771,0.08319 1.9714,0.42925 2.5684,1.060501 v 0.002 c 0.60928,0.643 0.88651,1.377301 0.86328,2.3809 v 0.0039 c -0.0104,0.46178 0.37701,0.85312 0.85547,0.86324 h 0.02147 c 0.47147,0 0.86451,-0.37219 0.875,-0.82812 0.03225,-1.3793 -0.41702,-2.6101 -1.3223,-3.5645 -0.90942,-0.95914 -2.1978,-1.4963 -3.7344,-1.6055 z"
     id="path29-6" />
</svg>
