<?xml version="1.0" encoding="UTF-8" standalone="no"?>
<svg
   id="svg4306"
   width="22"
   height="22"
   version="1.1"
   style="enable-background:new"
   sodipodi:docname="restore.svg"
   inkscape:version="1.3.2 (091e20ef0f, 2023-11-25)"
   xmlns:inkscape="http://www.inkscape.org/namespaces/inkscape"
   xmlns:sodipodi="http://sodipodi.sourceforge.net/DTD/sodipodi-0.dtd"
   xmlns="http://www.w3.org/2000/svg"
   xmlns:svg="http://www.w3.org/2000/svg"
   xmlns:rdf="http://www.w3.org/1999/02/22-rdf-syntax-ns#"
   xmlns:cc="http://creativecommons.org/ns#"
   xmlns:dc="http://purl.org/dc/elements/1.1/">
  <g
     id="pressed-inactive-center"
     transform="translate(0,22)">
    <rect
       style="opacity:0.00100002;fill:#000000;fill-opacity:1;fill-rule:nonzero;stroke:none;stroke-width:2;stroke-linecap:round;stroke-linejoin:round;stroke-miterlimit:4;stroke-dasharray:none;stroke-opacity:1"
       y="0"
       x="0"
       height="22"
       width="22"
       id="rect4266-3-6-5" />
    <path
       id="path839-3-36-3"
       style="fill:#2b4254;fill-opacity:1;stroke-width:1.125;enable-background:new"
       d="M 11,2 C 6.02953,2 2,6.029441 2,10.999998 2,15.970557 6.02953,20 11,20 15.970479,20 19.999999,15.970557 19.999999,10.999998 19.999999,6.029441 15.970479,2 11,2 Z m 0,1.125 c 4.349189,0 7.874999,3.525746 7.874999,7.874998 0,4.349234 -3.52581,7.875002 -7.874999,7.875002 -4.3492,0 -7.875,-3.525768 -7.875,-7.875002 C 3.125,6.650746 6.6508,3.125 11,3.125 Z m 0,0 z"
       sodipodi:nodetypes="ssssssssssccccc" />
    <rect
       style="fill:#a3be8c;fill-opacity:1;stroke:none;stroke-width:0.39374;enable-background:new"
       id="center-3-35-5-7-6"
       width="15.749992"
       height="15.749992"
       x="3.1250026"
       y="3.125001"
       ry="7.8749838"
       rx="7.8749962" />
    <path
       d="m 10.995258,6 c -0.0094,1.19e-4 -0.01862,0.0011 -0.02782,0.0023 -0.06398,0.0068 -0.12351,0.03393 -0.169,0.07655 L 7.0852608,9.54354 c -0.0543,0.0498 -0.08502,0.117908 -0.08524,0.189059 -2.59e-4,0.07109 0.02993,0.1393205 0.08383,0.189597 0.05394,0.05024 0.127067,0.07819 0.203292,0.07779 h 7.4252122 c 0.07627,7.94e-4 0.149563,-0.02736 0.203611,-0.07761 0.05402,-0.05027 0.08431,-0.118502 0.08405,-0.189723 -1.89e-4,-0.0711 -0.03092,-0.139258 -0.08523,-0.189175 l -3.71382,-3.464847 c -0.05451,-0.05088 -0.128736,-0.07905 -0.205782,-0.07808 z"
       fill-rule="evenodd"
       id="path2-6"
       style="fill:#fefefe;fill-opacity:1;stroke-width:0.0157624;enable-background:new" />
    <path
       d="m 11.004725,15.999997 c 0.0094,-1.18e-4 0.01862,-0.0012 0.02785,-0.0023 0.06397,-0.0066 0.123505,-0.0339 0.169004,-0.07656 l 3.713158,-3.464643 c 0.0543,-0.0498 0.08503,-0.117906 0.08526,-0.18905 2.53e-4,-0.07109 -0.02993,-0.139327 -0.08385,-0.189596 -0.05393,-0.05023 -0.127076,-0.07821 -0.203293,-0.07781 H 7.2876678 c -0.07627,-7.93e-4 -0.149568,0.02737 -0.203616,0.07761 -0.05403,0.05025 -0.08432,0.118508 -0.08405,0.189722 1.85e-4,0.07111 0.03092,0.139257 0.0852,0.189173 l 3.7138122,3.464741 c 0.05451,0.05089 0.128732,0.07904 0.205776,0.07809 z"
       fill-rule="evenodd"
       id="path2-3-7"
       style="fill:#fefefe;fill-opacity:1;stroke-width:0.0157622;enable-background:new" />
  </g>
  <g
     id="pressed-center"
     transform="translate(0,22)">
    <rect
       id="rect4266-3-6"
       width="22"
       height="22"
       x="0"
       y="-22"
       style="opacity:0.00100002;fill:#000000;fill-opacity:1;fill-rule:nonzero;stroke:none;stroke-width:2;stroke-linecap:round;stroke-linejoin:round;stroke-miterlimit:4;stroke-dasharray:none;stroke-opacity:1" />
    <path
       id="path839-3-36-6"
       style="fill:#2b4254;fill-opacity:1;stroke-width:1.125;enable-background:new"
       d="m 11,-20.000001 c -4.97047,0 -9,4.029441 -9,8.999998 0,4.970559 4.02953,9.000002 9,9.000002 4.970481,0 9.000001,-4.029443 9.000001,-9.000002 0,-4.970557 -4.02952,-8.999998 -9.000001,-8.999998 z m 0,1.125 c 4.349191,0 7.875001,3.525746 7.875001,7.874998 0,4.349234 -3.52581,7.875002 -7.875001,7.875002 -4.3492,0 -7.875,-3.525768 -7.875,-7.875002 0,-4.349252 3.5258,-7.874998 7.875,-7.874998 z m 0,0 z"
       sodipodi:nodetypes="ssssssssssccccc" />
    <rect
       style="fill:#a3be8c;fill-opacity:1;stroke:none;stroke-width:0.39374;enable-background:new"
       id="center-3-35-5-7-2"
       width="15.749992"
       height="15.749992"
       x="3.125"
       y="-18.875"
       ry="7.8749838"
       rx="7.8749962" />
    <path
       d="m 10.995509,-15.999985 c -0.0094,1.19e-4 -0.01862,0.0011 -0.02782,0.0023 -0.06398,0.0068 -0.12351,0.03393 -0.169,0.07655 l -3.713177,3.46469 c -0.0543,0.0498 -0.08502,0.117908 -0.08524,0.189059 -2.59e-4,0.07109 0.02993,0.13932 0.08383,0.189596 0.05394,0.05024 0.127067,0.07819 0.203292,0.07779 h 7.425212 c 0.07627,7.93e-4 0.149563,-0.02736 0.203611,-0.07761 0.05402,-0.05027 0.08431,-0.118502 0.08405,-0.189723 -1.89e-4,-0.0711 -0.03092,-0.139258 -0.08523,-0.189175 l -3.71382,-3.464847 c -0.05451,-0.05088 -0.128736,-0.07905 -0.205782,-0.07808 z"
       fill-rule="evenodd"
       id="path2-6-5"
       style="fill:#fefefe;fill-opacity:1;stroke-width:0.0157624;enable-background:new" />
    <path
       d="m 11.004976,-5.999987 c 0.0094,-1.18e-4 0.01862,-0.0012 0.02785,-0.0023 0.06397,-0.0066 0.123505,-0.0339 0.169004,-0.07656 l 3.713158,-3.464643 c 0.0543,-0.0498 0.08503,-0.117907 0.08526,-0.18905 2.53e-4,-0.07109 -0.02993,-0.139327 -0.08385,-0.189597 -0.05393,-0.05023 -0.127076,-0.07821 -0.203293,-0.07781 H 7.287919 c -0.07627,-7.93e-4 -0.149568,0.02737 -0.203616,0.07761 -0.05403,0.05025 -0.08432,0.118508 -0.08405,0.189722 1.85e-4,0.07111 0.03092,0.139258 0.0852,0.189174 l 3.713812,3.46474 c 0.05451,0.05089 0.128732,0.07904 0.205776,0.07809 z"
       fill-rule="evenodd"
       id="path2-3-7-3"
       style="fill:#fefefe;fill-opacity:1;stroke-width:0.0157622;enable-background:new" />
  </g>
  <g
     id="hover-center"
     transform="translate(0,22)">
    <rect
       style="opacity:0.00100002;fill:#000000;fill-opacity:1;fill-rule:nonzero;stroke:none;stroke-width:2;stroke-linecap:round;stroke-linejoin:round;stroke-miterlimit:4;stroke-dasharray:none;stroke-opacity:1"
       y="-22"
       x="-22"
       height="22"
       width="22"
       id="rect4266-3" />
    <path
       id="path839-3-36-7"
       style="fill:#2b4254;fill-opacity:1;stroke-width:1.125;enable-background:new"
       d="m -11,-20 c -4.97047,0 -9,4.029441 -9,8.999998 C -20,-6.029443 -15.97047,-2 -11,-2 c 4.970481,0 9.000001,-4.029443 9.000001,-9.000002 C -1.999999,-15.970559 -6.029519,-20 -11,-20 Z m 0,1.125 c 4.349191,0 7.875001,3.525746 7.875001,7.874998 0,4.349234 -3.52581,7.875002 -7.875001,7.875002 -4.3492,0 -7.875,-3.525768 -7.875,-7.875002 0,-4.349252 3.5258,-7.874998 7.875,-7.874998 z m 0,0 z"
       sodipodi:nodetypes="ssssssssssccccc" />
    <rect
       style="fill:#a3be8c;fill-opacity:0.75;stroke:none;stroke-width:0.39374;enable-background:new"
       id="center-3-35-5-7-5"
       width="15.749992"
       height="15.749992"
       x="-18.874998"
       y="-18.875"
       ry="7.8749838"
       rx="7.8749962" />
    <path
       d="m -11.004742,-16 c -0.0094,1.19e-4 -0.01862,0.0011 -0.02782,0.0023 -0.06398,0.0068 -0.12351,0.03393 -0.169,0.07655 l -3.713177,3.46469 c -0.0543,0.0498 -0.08502,0.117908 -0.08524,0.189059 -2.59e-4,0.07109 0.02993,0.13932 0.08383,0.189596 0.05394,0.05024 0.127067,0.07819 0.203292,0.07779 h 7.4252119 c 0.076269,7.93e-4 0.1495631,-0.02736 0.2036114,-0.07761 0.05402,-0.05027 0.08431,-0.118502 0.08405,-0.189723 -1.892e-4,-0.0711 -0.030921,-0.139258 -0.085231,-0.189175 l -3.7138203,-3.464847 c -0.05451,-0.05088 -0.128736,-0.07905 -0.205782,-0.07808 z"
       fill-rule="evenodd"
       id="path2"
       style="fill:#fefefe;fill-opacity:0.8;stroke-width:0.0157624;enable-background:new" />
    <path
       d="m -10.995275,-6.0000022 c 0.0094,-1.179e-4 0.01862,-0.00121 0.02785,-0.00232 0.06397,-0.00662 0.123505,-0.033896 0.169004,-0.076562 l 3.7131584,-3.4646428 c 0.0543,-0.049801 0.08503,-0.1179067 0.08526,-0.1890502 2.53e-4,-0.071085 -0.02993,-0.1393268 -0.08385,-0.1895965 -0.05393,-0.05023 -0.127076,-0.07821 -0.203293,-0.07781 h -7.4251864 c -0.07627,-7.933e-4 -0.149568,0.02737 -0.203616,0.07761 -0.05403,0.050252 -0.08432,0.1185077 -0.08405,0.1897218 1.85e-4,0.071107 0.03092,0.1392574 0.0852,0.1891734 l 3.713812,3.4647407 c 0.05451,0.05089 0.128732,0.079037 0.205776,0.07809 z"
       fill-rule="evenodd"
       id="path2-3"
       style="fill:#fefefe;fill-opacity:0.8;stroke-width:0.0157622;enable-background:new" />
  </g>
  <metadata
     id="metadata28">
    <rdf:RDF>
      <cc:Work
         rdf:about="">
        <dc:format>image/svg+xml</dc:format>
        <dc:type
           rdf:resource="http://purl.org/dc/dcmitype/StillImage" />
      </cc:Work>
    </rdf:RDF>
  </metadata>
  <defs
     id="defs26" />
  <sodipodi:namedview
     inkscape:document-rotation="0"
     pagecolor="#2e3238"
     bordercolor="#000000"
     borderopacity="1"
     objecttolerance="10"
     gridtolerance="10"
     guidetolerance="10"
     inkscape:pageopacity="1"
     inkscape:pageshadow="2"
     inkscape:window-width="1920"
     inkscape:window-height="994"
     id="namedview24"
     showgrid="true"
     inkscape:zoom="8.0406607"
     inkscape:cx="-4.9747155"
     inkscape:cy="23.567715"
     inkscape:window-x="0"
     inkscape:window-y="0"
     inkscape:window-maximized="1"
     inkscape:current-layer="svg4306"
     inkscape:snap-bbox="true"
     inkscape:bbox-nodes="true"
     inkscape:lockguides="false"
     inkscape:pagecheckerboard="true"
     inkscape:showpageshadow="2"
     inkscape:deskcolor="#2e3238">
    <inkscape:grid
       type="xygrid"
       id="grid853"
       originx="-44"
       originy="0"
       spacingy="1"
       spacingx="1"
       units="px"
       visible="true" />
  </sodipodi:namedview>
  <style
     type="text/css"
     id="current-color-scheme" />
  <g
     id="active-center"
     transform="translate(-44)">
    <rect
       id="rect4266"
       width="22"
       height="22"
       x="0"
       y="0"
       style="opacity:0.00100002;fill:#000000;fill-opacity:1;fill-rule:nonzero;stroke:none;stroke-width:2;stroke-linecap:round;stroke-linejoin:round;stroke-miterlimit:4;stroke-dasharray:none;stroke-opacity:1" />
    <path
       id="path839-3-36"
       style="fill:#2b4254;fill-opacity:1;stroke-width:1.125;enable-background:new"
       d="M 11,2 C 6.02953,2 2,6.029441 2,10.999998 2,15.970557 6.02953,20 11,20 15.970481,20 20.000001,15.970557 20.000001,10.999998 20.000001,6.029441 15.970481,2 11,2 Z m 0,1.125 c 4.349191,0 7.875001,3.525746 7.875001,7.874998 0,4.349234 -3.52581,7.875002 -7.875001,7.875002 -4.3492,0 -7.875,-3.525768 -7.875,-7.875002 C 3.125,6.650746 6.6508,3.125 11,3.125 Z m 0,0 z"
       sodipodi:nodetypes="ssssssssssccccc" />
    <rect
       style="fill:#a3be8c;fill-opacity:1;stroke:none;stroke-width:0.39374;enable-background:new"
       id="center-3-35-5-7"
       width="15.749992"
       height="15.749992"
       x="3.1250012"
       y="3.1250002"
       ry="7.8749838"
       rx="7.8749962" />
  </g>
  <g
     id="inactive-center"
     transform="translate(-44,22)">
    <rect
       style="opacity:0.00100002;fill:#000000;fill-opacity:1;fill-rule:nonzero;stroke:none;stroke-width:2;stroke-linecap:round;stroke-linejoin:round;stroke-miterlimit:4;stroke-dasharray:none;stroke-opacity:1"
       y="0"
       x="0"
       height="22"
       width="22"
       id="rect4266-9" />
    <path
       id="path839-3-36-5"
       style="fill:#2b4254;fill-opacity:1;stroke-width:1.125;enable-background:new"
       d="M 11,2 C 6.02953,2 2,6.029441 2,10.999998 2,15.970557 6.02953,20 11,20 15.970481,20 20.000001,15.970557 20.000001,10.999998 20.000001,6.029441 15.970481,2 11,2 Z m 0,1.125 c 4.349191,0 7.875001,3.525746 7.875001,7.874998 0,4.349234 -3.52581,7.875002 -7.875001,7.875002 -4.3492,0 -7.875,-3.525768 -7.875,-7.875002 C 3.125,6.650746 6.6508,3.125 11,3.125 Z m 0,0 z"
       sodipodi:nodetypes="ssssssssssccccc" />
    <rect
       style="fill:#a3be8c;fill-opacity:0.6;stroke:none;stroke-width:0.39374;enable-background:new"
       id="center-3-35-5-7-62"
       width="15.749992"
       height="15.749992"
       x="3.125"
       y="3.125"
       ry="7.8749838"
       rx="7.8749962" />
  </g>
  <g
     id="hover-inactive-center"
     transform="translate(0,22)">
    <rect
       id="rect4266-3-67"
       width="22"
       height="22"
       x="-22"
       y="0"
       style="opacity:0.00100002;fill:#000000;fill-opacity:1;fill-rule:nonzero;stroke:none;stroke-width:2;stroke-linecap:round;stroke-linejoin:round;stroke-miterlimit:4;stroke-dasharray:none;stroke-opacity:1" />
    <path
       id="path839-3-36-70"
       style="fill:#2b4254;fill-opacity:1;stroke-width:1.125;enable-background:new"
       d="m -11,2 c -4.97047,0 -9,4.029441 -9,8.999998 C -20,15.970557 -15.97047,20 -11,20 -6.02952,20 -2,15.970557 -2,10.999998 -2,6.029441 -6.02952,2 -11,2 Z m 0,1.125 c 4.34919,0 7.875,3.525746 7.875,7.874998 0,4.349234 -3.52581,7.875002 -7.875,7.875002 -4.3492,0 -7.875,-3.525768 -7.875,-7.875002 C -18.875,6.650746 -15.3492,3.125 -11,3.125 Z m 0,0 z"
       sodipodi:nodetypes="ssssssssssccccc" />
    <rect
       style="fill:#a3be8c;fill-opacity:0.75;stroke:none;stroke-width:0.39374;enable-background:new"
       id="center-3-35-5-7-9"
       width="15.749992"
       height="15.749992"
       x="-18.875002"
       y="3.1249998"
       ry="7.8749838"
       rx="7.8749962" />
    <path
       d="m -11.004491,6.000015 c -0.0094,1.19e-4 -0.01862,0.0011 -0.02782,0.0023 -0.06398,0.0068 -0.12351,0.03393 -0.169,0.07655 l -3.713177,3.46469 c -0.0543,0.0498 -0.08502,0.117908 -0.08524,0.189059 -2.59e-4,0.07109 0.02993,0.13932 0.08383,0.189596 0.05394,0.05024 0.127067,0.07819 0.203292,0.07779 h 7.425212 c 0.07627,7.93e-4 0.149563,-0.02736 0.203611,-0.07761 0.05402,-0.05027 0.08431,-0.118502 0.08405,-0.189723 -1.89e-4,-0.0711 -0.03092,-0.139258 -0.08523,-0.189175 l -3.71382,-3.464847 c -0.05451,-0.05088 -0.128736,-0.07905 -0.205782,-0.07808 z"
       fill-rule="evenodd"
       id="path2-6-56"
       style="fill:#fefefe;fill-opacity:0.8;stroke-width:0.0157624;enable-background:new" />
    <path
       d="m -10.995024,16.000013 c 0.0094,-1.18e-4 0.01862,-0.0012 0.02785,-0.0023 0.06397,-0.0066 0.123505,-0.0339 0.169004,-0.07656 l 3.713158,-3.464643 c 0.0543,-0.0498 0.08503,-0.117907 0.08526,-0.18905 2.53e-4,-0.07109 -0.02993,-0.139327 -0.08385,-0.189597 -0.05393,-0.05023 -0.127076,-0.07821 -0.203293,-0.07781 h -7.425186 c -0.07627,-7.93e-4 -0.149568,0.02737 -0.203616,0.07761 -0.05403,0.05025 -0.08432,0.118508 -0.08405,0.189722 1.85e-4,0.07111 0.03092,0.139258 0.0852,0.189173 l 3.713812,3.464741 c 0.05451,0.05089 0.128732,0.07904 0.205776,0.07809 z"
       fill-rule="evenodd"
       id="path2-3-7-2"
       style="fill:#fefefe;fill-opacity:0.8;stroke-width:0.0157622;enable-background:new" />
  </g>
</svg>
