<?xml version="1.0" encoding="UTF-8" standalone="no"?>
<svg
   width="22"
   height="22"
   version="1.1"
   id="svg1"
   sodipodi:docname="applications-all-symbolic.svg"
   inkscape:version="1.3.2 (091e20ef0f, 2023-11-25)"
   xmlns:inkscape="http://www.inkscape.org/namespaces/inkscape"
   xmlns:sodipodi="http://sodipodi.sourceforge.net/DTD/sodipodi-0.dtd"
   xmlns:xlink="http://www.w3.org/1999/xlink"
   xmlns="http://www.w3.org/2000/svg"
   xmlns:svg="http://www.w3.org/2000/svg">
  <defs
     id="defs1">
    <linearGradient
       inkscape:collect="always"
       xlink:href="#linearGradient5"
       id="linearGradient6"
       gradientUnits="userSpaceOnUse"
       x1="0"
       y1="11"
       x2="22"
       y2="11"
       gradientTransform="translate(32,9.9999997)" />
    <linearGradient
       id="linearGradient5"
       inkscape:collect="always">
      <stop
         style="stop-color:#ffd42a;stop-opacity:1"
         offset="0"
         id="stop5" />
      <stop
         style="stop-color:#ff33ff;stop-opacity:1;"
         offset="1"
         id="stop6" />
    </linearGradient>
    <linearGradient
       inkscape:collect="always"
       xlink:href="#linearGradient4"
       id="linearGradient14"
       gradientUnits="userSpaceOnUse"
       x1="1.0132771"
       y1="11.47594"
       x2="12.837758"
       y2="11.421055"
       gradientTransform="rotate(180,27.014752,16.000002)" />
    <linearGradient
       id="linearGradient4"
       inkscape:collect="always">
      <stop
         style="stop-color:#00ccff;stop-opacity:1;"
         offset="0"
         id="stop3" />
      <stop
         style="stop-color:#bc5fd3;stop-opacity:1;"
         offset="1"
         id="stop4" />
    </linearGradient>
    <linearGradient
       inkscape:collect="always"
       xlink:href="#linearGradient4"
       id="linearGradient16"
       gradientUnits="userSpaceOnUse"
       x1="8.999999"
       y1="14.5"
       x2="23"
       y2="14.5"
       gradientTransform="matrix(0.78533976,0,0,0.78571381,30.434652,8.607148)" />
  </defs>
  <sodipodi:namedview
     id="namedview1"
     pagecolor="#ffffff"
     bordercolor="#999999"
     borderopacity="1"
     inkscape:showpageshadow="2"
     inkscape:pageopacity="0"
     inkscape:pagecheckerboard="0"
     inkscape:deskcolor="#d1d1d1"
     inkscape:zoom="12.245804"
     inkscape:cx="11.350827"
     inkscape:cy="10.697542"
     inkscape:window-width="1920"
     inkscape:window-height="994"
     inkscape:window-x="0"
     inkscape:window-y="0"
     inkscape:window-maximized="1"
     inkscape:current-layer="svg1" />
  <style
     type="text/css"
     id="current-color-scheme">.ColorScheme-Text{color:#31363b;}.ColorScheme-Background{color:#E9E8E8;}.ColorScheme-ViewText{color:#31363b;}.ColorScheme-ViewBackground{color:#ffffff;}.ColorScheme-ViewHover{color:#000000;}.ColorScheme-ViewFocus{color:#5a5a5a;}.ColorScheme-ButtonText{color:#31363b;}.ColorScheme-ButtonBackground{color:#E9E8E8;}.ColorScheme-ButtonHover{color:#1489ff;}.ColorScheme-ButtonFocus { color: #2B74C7; } </style>
  <g
     id="22-22-applications-other"
     transform="translate(-32,-9.9999997)">
    <path
       style="clip-rule:evenodd;fill:url(#linearGradient6);fill-opacity:0;fill-rule:evenodd;stroke-width:0.688964;stroke-linejoin:round;stroke-miterlimit:1.41421"
       d="M 32,9.9999997 V 32 H 54 V 9.9999997 Z"
       id="rect817-5"
       inkscape:connector-curvature="0" />
    <path
       d="m 43.017383,11.000074 c 0,0 0.229402,0.0101 0.65924,0.02873 0.107331,0.0078 0.22811,0.0038 0.358974,0.02198 0.130865,0.0191 0.27389,0.03979 0.428545,0.06234 0.154146,0.02503 0.321993,0.04109 0.497082,0.07838 0.174316,0.04188 0.359496,0.08639 0.555014,0.133451 0.775105,0.204316 1.713407,0.529408 2.677055,1.126063 0.961573,0.590706 1.969961,1.419864 2.826794,2.555235 0.845194,1.135635 1.538831,2.572568 1.85125,4.22468 0.04604,0.20509 0.05615,0.416126 0.0856,0.627425 l 0.03721,0.319403 0.01838,0.16087 0.0037,0.185433 c 0.0028,0.411479 0.03831,0.795024 -0.0199,1.27581 -0.02325,0.228366 -0.03208,0.470181 -0.07162,0.694673 -0.04219,0.223969 -0.08456,0.448975 -0.126984,0.675275 -0.03417,0.22992 -0.112248,0.448201 -0.175094,0.673724 l -0.10109,0.33751 c -0.03104,0.114055 -0.07108,0.225006 -0.118707,0.333112 -0.32406,0.892781 -0.815194,1.737199 -1.397623,2.534805 -0.155175,0.191643 -0.313457,0.382768 -0.474839,0.57286 -0.154921,0.196556 -0.347595,0.357422 -0.521913,0.538202 l -0.269747,0.264318 c -0.09156,0.08664 -0.193195,0.161641 -0.28992,0.243109 -0.197077,0.158538 -0.392596,0.321732 -0.600015,0.469149 -0.832534,0.590441 -1.767477,1.048729 -2.753105,1.378219 -0.991309,0.322756 -2.036678,0.453621 -3.078173,0.485173 l -0.237457,-0.01035 -0.171728,-0.0098 -0.343716,-0.01966 -0.171729,-0.0098 c -0.05534,-0.0023 -0.113797,-0.0059 -0.18647,-0.01836 l -0.410714,-0.06078 -0.409923,-0.0644 -0.204316,-0.03363 -0.189838,-0.04837 c -0.252772,-0.06418 -0.502864,-0.136854 -0.752955,-0.206425 -0.985366,-0.331043 -1.922373,-0.785709 -2.754899,-1.377189 -0.207934,-0.146642 -0.402167,-0.312164 -0.601308,-0.467858 -0.09673,-0.08147 -0.198624,-0.156728 -0.290177,-0.243367 l -0.270045,-0.264579 c -0.174579,-0.18104 -0.367259,-0.341905 -0.522174,-0.53872 -0.159055,-0.191385 -0.317853,-0.382252 -0.476133,-0.572342 -0.581907,-0.798899 -1.07511,-1.6428 -1.398911,-2.536616 -0.320442,-0.890712 -0.539242,-1.798235 -0.591227,-2.695157 -0.0564,-0.444837 -0.02583,-0.888896 -0.02279,-1.321327 l 0.0053,-0.19371 0.01837,-0.150258 0.03675,-0.299236 c 0.02919,-0.202758 0.03749,-0.387937 0.08351,-0.601306 0.04573,-0.210783 0.09129,-0.42027 0.136296,-0.628207 0.02457,-0.102417 0.04188,-0.207679 0.07269,-0.305436 l 0.09543,-0.290183 c 0.06361,-0.191384 0.126469,-0.381213 0.189058,-0.569492 0.07604,-0.183373 0.159055,-0.361824 0.237161,-0.5395 0.141209,-0.361562 0.343973,-0.686913 0.522687,-1.012009 0.08433,-0.165521 0.195781,-0.313457 0.298713,-0.4632 0.102674,-0.149483 0.204058,-0.297419 0.304663,-0.443804 0.857606,-1.135374 1.86677,-1.964273 2.828864,-2.554463 0.963904,-0.596652 1.90246,-0.920969 2.677567,-1.125543 0.195525,-0.04683 0.3807,-0.09129 0.555014,-0.133193 0.175092,-0.03721 0.342681,-0.05325 0.496823,-0.07839 0.154402,-0.02252 0.297423,-0.04316 0.428291,-0.06235 0.13112,-0.01839 0.252158,-0.01449 0.35923,-0.02198 0.430355,-0.01891 0.659757,-0.02899 0.659757,-0.02899 z m 0,0 c 0,0 -0.229144,0.01315 -0.658725,0.03771 -0.107071,0.0094 -0.227852,0.0069 -0.358458,0.02692 -0.130605,0.02097 -0.272849,0.04345 -0.426733,0.06802 -0.153364,0.02715 -0.32044,0.04523 -0.494237,0.08484 -0.172245,0.04731 -0.355093,0.0975 -0.548545,0.150522 -0.762434,0.233024 -1.683146,0.590186 -2.581622,1.246582 -0.901311,0.639323 -1.800299,1.539089 -2.479458,2.696188 -0.324578,0.585792 -0.624066,1.214515 -0.817259,1.900653 -0.04757,0.171467 -0.09957,0.342417 -0.144317,0.516215 -0.03154,0.177165 -0.06306,0.355614 -0.09516,0.535361 l -0.04838,0.268713 c -0.01498,0.08971 -0.01498,0.178456 -0.02325,0.267425 -0.01343,0.176639 -0.02712,0.354574 -0.04086,0.533806 -0.01552,0.176381 0.0033,0.390784 0.0031,0.586562 l 0.0062,0.30156 0.0034,0.151556 c -5.18e-4,0.03566 7.76e-4,-0.02712 0.0022,-0.01427 l 0.0028,0.01757 0.0049,0.03513 0.0096,0.07036 c 0.05406,0.375009 0.07782,0.754157 0.183107,1.124516 0.146123,0.750533 0.455184,1.470034 0.801485,2.161086 0.09622,0.168108 0.192937,0.336992 0.289923,0.506651 0.09802,0.167849 0.224229,0.32018 0.331301,0.482857 l 0.166556,0.240782 0.190351,0.224488 c 0.129831,0.147159 0.248282,0.30337 0.385353,0.444063 0.53872,0.574153 1.168217,1.056751 1.829789,1.483486 l 0.517514,0.287335 c 0.167847,0.104485 0.360524,0.161124 0.536649,0.248799 l 0.268972,0.123107 c 0.0908,0.03828 0.18673,0.06414 0.279578,0.09724 0.188021,0.06 0.371646,0.13371 0.561996,0.185177 0.192679,0.04449 0.385614,0.08586 0.57674,0.13552 l 0.143277,0.03621 0.135265,0.0181 0.270006,0.03931 0.269489,0.04319 c 0.0401,0.0096 0.09621,0.01242 0.155695,0.01423 l 0.171985,0.0075 0.343975,0.015 0.171986,0.0075 0.08584,0.0039 0.04295,0.0026 0.02148,0.0013 c -0.02198,-2.58e-4 0.07962,0.0026 -0.04396,-5.17e-4 0.793983,-0.01164 1.580987,-0.118193 2.34549,-0.320439 0.19061,-0.05147 0.374233,-0.125434 0.562255,-0.185436 0.09287,-0.0331 0.188798,-0.05923 0.279574,-0.0975 l 0.269234,-0.12259 c 0.177677,-0.08483 0.369578,-0.143797 0.537684,-0.247764 l 0.517684,-0.287564 c 0.664673,-0.42389 1.291326,-0.910626 1.832891,-1.48271 0.137073,-0.140952 0.255525,-0.297163 0.385357,-0.44458 l 0.190348,-0.224746 0.166556,-0.241042 c 0.107846,-0.162417 0.234315,-0.314749 0.332337,-0.483115 0.09699,-0.16966 0.19371,-0.338801 0.289919,-0.507168 0.107332,-0.164746 0.164229,-0.350699 0.251384,-0.524238 0.07757,-0.177157 0.172249,-0.349406 0.225006,-0.534581 0.06289,-0.183108 0.125179,-0.36544 0.187249,-0.547 0.06052,-0.181817 0.08793,-0.357166 0.135263,-0.536396 0.103708,-0.334405 0.132934,-0.774065 0.186211,-1.170029 l 0.0096,-0.07551 0.0048,-0.03771 0.0028,-0.01892 c 0.0016,-0.01346 -0.0012,0.04964 0,0.01448 l 0.0034,-0.140952 0.0072,-0.281385 c 0,-0.186988 0.02021,-0.375787 0.0049,-0.560189 -0.06237,-1.485552 -0.498374,-2.892742 -1.174944,-4.049325 -0.679687,-1.157165 -1.579711,-2.056669 -2.481547,-2.69522 C 47.191804,11.95716 46.270577,11.60051 45.5084,11.36749 45.314947,11.31449 45.132096,11.264297 44.959852,11.21723 44.785795,11.17769 44.618983,11.15957 44.465615,11.13268 44.311731,11.10812 44.169229,11.08536 44.03888,11.06466 43.908274,11.04445 43.787237,11.04685 43.680167,11.03771 43.250325,11.01313 43.021185,11 43.021185,11 Z"
       id="path2-3-5-3"
       style="fill:url(#linearGradient14);fill-opacity:1;stroke-width:0.258632" />
    <path
       d="m 39.96207,14.500002 a 2.4593528,2.4605257 0 0 1 2.459351,2.460531 v 2.46052 H 39.96207 a 2.4593545,2.460527 0 1 1 0,-4.921051 z m 1.302004,3.763155 v -1.302624 a 1.3020099,1.302631 0 1 0 -1.302004,1.302624 z m -1.302004,2.315792 h 2.459351 v 2.46052 a 2.4593528,2.4605257 0 1 1 -2.459351,-2.46052 z m 0,1.157887 a 1.3020099,1.302631 0 1 0 1.302004,1.302631 v -1.30262 z m 6.076044,-7.236834 a 2.4593545,2.460527 0 1 1 0,4.921051 H 43.57876 v -2.460519 a 2.4593528,2.4605257 0 0 1 2.459354,-2.460532 z m 0,3.763155 A 1.3020099,1.302631 0 1 0 44.73611,16.960533 v 1.302625 z m -2.459354,2.315792 h 2.459354 a 2.4593528,2.4605257 0 1 1 -2.459354,2.46052 z m 1.157339,1.157887 v 1.302631 a 1.3020099,1.302631 0 1 0 1.302009,-1.302631 z"
       id="path2-7"
       style="fill:url(#linearGradient16);fill-opacity:1;stroke-width:0.578814" />
  </g>
</svg>
