<?xml version="1.0" encoding="UTF-8" standalone="no"?>
<svg
   height="64"
   viewBox="0 0 64 64"
   width="64"
   version="1.1"
   id="svg63"
   sodipodi:docname="media-default-track.svg"
   inkscape:version="1.2.1 (9c6d41e410, 2022-07-14)"
   xmlns:inkscape="http://www.inkscape.org/namespaces/inkscape"
   xmlns:sodipodi="http://sodipodi.sourceforge.net/DTD/sodipodi-0.dtd"
   xmlns="http://www.w3.org/2000/svg"
   xmlns:svg="http://www.w3.org/2000/svg">
  <defs
     id="defs67">
    <linearGradient
       id="linearGradient1978"
       x1="-59.235001"
       x2="-59.235001"
       y1="0.70410001"
       y2="-11.929"
       gradientTransform="matrix(3.5734363,0,0,3.5734363,243.05231,55.409692)"
       gradientUnits="userSpaceOnUse">
      <stop
         stop-color="#0fd3cd"
         offset="0"
         id="stop585" />
      <stop
         stop-color="#52ffb9"
         offset="1"
         id="stop587" />
    </linearGradient>
    <linearGradient
       id="linearGradient1988"
       x1="-59.235001"
       x2="-59.235001"
       y1="0.70410001"
       y2="-11.929"
       gradientTransform="matrix(2.9920036,0,0,2.9920036,208.68719,51.60008)"
       gradientUnits="userSpaceOnUse">
      <stop
         stop-color="#00a0a2"
         offset="0"
         id="stop590" />
      <stop
         stop-color="#2fde8b"
         offset="1"
         id="stop592" />
    </linearGradient>
    <filter
       id="filter1877"
       x="-0.027478284"
       y="-0.021303294"
       width="1.0549566"
       height="1.0426066"
       color-interpolation-filters="sRGB">
      <feGaussianBlur
         stdDeviation="0.072702461"
         id="feGaussianBlur595" />
    </filter>
    <linearGradient
       id="k"
       x1="430.56"
       x2="433.31"
       y1="536.57001"
       y2="524.16998"
       gradientTransform="matrix(1.7273301,0,0,1.7273301,-713.56664,-884.65397)"
       gradientUnits="userSpaceOnUse">
      <stop
         stop-color="#c4e7f9"
         offset="0"
         id="stop598" />
      <stop
         stop-color="#edfafd"
         offset="1"
         id="stop600" />
    </linearGradient>
  </defs>
  <sodipodi:namedview
     id="namedview65"
     pagecolor="#ffffff"
     bordercolor="#666666"
     borderopacity="1.0"
     inkscape:showpageshadow="2"
     inkscape:pageopacity="0.0"
     inkscape:pagecheckerboard="0"
     inkscape:deskcolor="#d1d1d1"
     showgrid="false"
     inkscape:zoom="3.6875"
     inkscape:cx="32"
     inkscape:cy="32"
     inkscape:window-width="1920"
     inkscape:window-height="1009"
     inkscape:window-x="0"
     inkscape:window-y="0"
     inkscape:window-maximized="1"
     inkscape:current-layer="svg63" />
  <radialGradient
     id="a"
     cx="18.520836"
     cy="280.06671"
     gradientTransform="matrix(1.924123 0 0 1.9685039 .927271 -519.31368)"
     gradientUnits="userSpaceOnUse"
     r="12.699996">
    <stop
       offset="0"
       stop-color="#313437"
       id="stop2" />
    <stop
       offset=".97916687"
       stop-color="#313437"
       stop-opacity=".498039"
       id="stop4" />
    <stop
       offset="1"
       stop-color="#313437"
       stop-opacity="0"
       id="stop6" />
  </radialGradient>
  <linearGradient
     id="b"
     gradientTransform="matrix(1.924123 0 0 1.9685039 .927275 -519.3123)"
     gradientUnits="userSpaceOnUse"
     x1="19.049999"
     x2="19.049999"
     y1="292.50208"
     y2="267.63126">
    <stop
       offset="0"
       stop-color="#c6cdd1"
       id="stop9" />
    <stop
       offset="1"
       stop-color="#e0e5e7"
       id="stop11" />
  </linearGradient>
  <linearGradient
     id="c"
     gradientTransform="matrix(1.924123,0,0,1.9685039,-99.377166,-517.74981)"
     gradientUnits="userSpaceOnUse"
     x1="6.614583"
     x2="6.614583"
     y1="292.76672"
     y2="267.36673">
    <stop
       offset="0"
       stop-color="#42a603"
       id="stop14" />
    <stop
       offset="1"
       stop-color="#78da06"
       id="stop16" />
  </linearGradient>
  <linearGradient
     id="d"
     gradientTransform="matrix(1.27402,-0.19577,0.10158,1,-658.73461,-482.99268)"
     gradientUnits="userSpaceOnUse"
     x1="23.707218"
     x2="37.84013"
     y1="27.76189"
     y2="40.735416">
    <stop
       offset="0"
       stop-color="#ffc35a"
       id="stop19" />
    <stop
       offset="1"
       stop-color="#faae2a"
       id="stop21" />
  </linearGradient>
  <linearGradient
     id="e"
     gradientUnits="userSpaceOnUse"
     x1="19.027754"
     x2="32.370899"
     y1="25.424726"
     y2="42.685452"
     gradientTransform="translate(-1.804287,-68.588379)">
    <stop
       offset="0"
       stop-color="#292c2f"
       id="stop24" />
    <stop
       offset="1"
       stop-opacity="0"
       id="stop26" />
  </linearGradient>
  <path
     d="m 57.99949,31.999737 c 0,3.116873 -0.54862,6.105208 -1.55475,8.87512 -0.69935,1.925017 -1.61939,3.745082 -2.73162,5.428453 -0.46586,0.707775 -0.96674,1.391311 -1.49845,2.048182 -1.70218,2.102264 -3.7251,3.932778 -5.9958,5.418626 -0.83625,0.547594 -1.70542,1.048511 -2.60528,1.497345 C 40.1191,57.016281 36.17453,58 31.99967,58 27.82483,58 23.88026,57.016281 20.38577,55.267397 19.48584,54.818465 18.61562,54.317582 17.77937,53.770052 15.47968,52.264158 13.43255,50.404621 11.71675,48.267569 11.18406,47.605358 10.68415,46.915566 10.21829,46.201403 9.13581,44.545941 8.23912,42.759649 7.55362,40.871876 6.54766,38.103078 6,35.115857 6,32.000033 6,17.640446 17.64045,6 32.00004,6 c 7.20812,0 13.73033,2.933205 18.44009,7.670326 1.35728,1.364647 2.56394,2.880204 3.5908,4.518469 0.97105,1.54304 1.78283,3.196372 2.41424,4.93579 1.00622,2.769814 1.5548,5.758313 1.5548,8.87512 z"
     fill="url(#linearGradient1978)"
     stroke-width="0.101565"
     id="path605"
     style="fill:url(#linearGradient1978)" />
  <path
     d="m 53.7411,32.000065 c 0,2.609732 -0.45938,5.111695 -1.30175,7.430874 -0.58559,1.611797 -1.3559,3.135609 -2.28714,4.545002 -0.39007,0.592603 -0.80946,1.164929 -1.25466,1.714915 -1.42518,1.760218 -3.11887,3.293038 -5.0203,4.537141 -0.70018,0.458496 -1.42793,0.877914 -2.18137,1.2537 -2.92584,1.46426 -6.2287,2.287929 -9.7245,2.287929 -3.49548,0 -6.79835,-0.823669 -9.72451,-2.287962 -0.7535,-0.375884 -1.48211,-0.795269 -2.18228,-1.2537 -1.92551,-1.260841 -3.63962,-2.817738 -5.076,-4.60724 -0.44602,-0.554441 -0.86455,-1.132041 -1.25465,-1.729984 -0.90631,-1.386102 -1.6571,-2.881646 -2.2311,-4.462127 -0.84224,-2.318295 -1.30083,-4.819503 -1.30083,-7.428253 0,-12.023046 9.74645,-21.769495 21.7695,-21.769495 6.03511,0 11.49598,2.455938 15.4399,6.422292 1.13643,1.142622 2.14678,2.411521 3.00665,3.783408 0.81305,1.291959 1.49272,2.676293 2.02142,4.132593 0.84247,2.319115 1.30178,4.821143 1.30178,7.430875 z"
     fill="url(#linearGradient1988)"
     stroke-width="0.0850366"
     id="path607"
     style="fill:url(#linearGradient1988)" />
  <g
     fill="#ffffff"
     stroke-width="1.0909"
     id="g615"
     transform="matrix(3.2756772,0,0,3.2756772,4.26527,4.2665445)">
    <path
       d="M 2.1817,6.3603 C 2.09653,6.61366 1.99823,6.861 1.94381,7.12697 1.93511,7.169764 1.93821,7.216356 1.93028,7.25945 h 13.057 C 14.93052,6.95054 14.84449,6.65271 14.74657,6.36031 Z"
       opacity="0.25"
       id="path609" />
    <path
       d="M 1.8413,8.18 C 1.8371,8.277051 1.81255,8.36829 1.81255,8.46637 c 0,0.2092 0.03521,0.40909 0.05412,0.61334 h 13.184 C 15.0696,8.87538 15.10422,8.67564 15.10422,8.46637 h 5.66e-4 c 0,-0.097714 -0.02119,-0.18969 -0.02536,-0.28637 z"
       opacity="0.25"
       id="path611" />
    <path
       d="m 2.0137,9.9996 c 0.05888,0.24781 0.11148,0.49831 0.19731,0.73454 0.02123,0.05846 0.0595,0.10749 0.0823,0.16517 h 12.332 c 0.02278,-0.0576 0.06167,-0.10624 0.08286,-0.16461 0.08585,-0.23636 0.13838,-0.48714 0.19731,-0.7351 z"
       opacity="0.25"
       id="path613" />
  </g>
  <path
     transform="matrix(3.6550006,0,0,3.6477942,247.43517,54.7218)"
     d="m -60.157,-9.1368 c -0.27072,0.07597 -0.48865,0.37808 -0.48865,0.67158 v 4.6529 c -0.27453,-0.1505 -0.62705,-0.21136 -0.99256,-0.1119 -0.65954,0.17943 -1.0729,0.75934 -0.93147,1.2951 0.14138,0.53575 0.79112,0.83498 1.4507,0.65552 0.52617,-0.14314 0.8889,-0.54821 0.94674,-0.97531 l 0.01541,-4.397 3.4205,-0.95936 v 3.4697 c -0.2745,-0.15051 -0.62705,-0.21137 -0.99256,-0.11194 -0.65954,0.17944 -1.0728,0.75936 -0.93147,1.2951 0.14139,0.53577 0.79112,0.83498 1.4507,0.65554 0.52619,-0.14314 0.8889,-0.54818 0.94674,-0.97531 l 0.01548,-5.7241 c 0,-0.22008 -0.12991,-0.38472 -0.3054,-0.4157 l -3.6038,0.97531 z"
     filter="url(#filter1877)"
     image-rendering="optimizeSpeed"
     opacity="0.35"
     stroke-width="0.26458"
     id="path617" />
  <path
     d="m 27.35749,21.30891 c -0.96741,0.271475 -1.74617,1.351053 -1.74617,2.399859 v 16.626682 c -0.981,-0.5378 -2.24072,-0.755272 -3.5469,-0.399861 -2.35682,0.64118 -3.83386,2.713439 -3.32842,4.627876 0.50521,1.914437 2.82701,2.983749 5.18409,2.34247 1.88024,-0.511497 3.17643,-1.958986 3.38312,-3.485321 l 0.055,-15.712441 12.22287,-3.428323 v 12.398766 c -0.9809,-0.537834 -2.24073,-0.755306 -3.5469,-0.400026 -2.35682,0.641214 -3.83353,2.713571 -3.32842,4.627876 0.50524,1.914536 2.827,2.983749 5.18409,2.342536 1.8803,-0.511498 3.17642,-1.958888 3.38311,-3.485321 l 0.0553,-20.454638 c 0,-0.786458 -0.46423,-1.374769 -1.09133,-1.485487 l -12.878,3.485321 z"
     fill="url(#k)"
     image-rendering="optimizeSpeed"
     stroke-width="0.945462"
     id="path619"
     style="fill:url(#k)" />
  <path
     d="m 27.35749,21.30891 c -0.96741,0.271475 -1.74617,1.351053 -1.74617,2.399859 v 16.626682 c -0.981,-0.5378 -2.24072,-0.755272 -3.5469,-0.399861 -2.35682,0.64118 -3.83386,2.713439 -3.32842,4.627876 0.50521,1.914437 2.82701,2.983749 5.18409,2.34247 1.88024,-0.511497 3.17643,-1.958986 3.38312,-3.485321 l 0.055,-15.712441 12.22287,-3.428323 v 12.398766 c -0.9809,-0.537834 -2.24073,-0.755306 -3.5469,-0.400026 -2.35682,0.641214 -3.83353,2.713571 -3.32842,4.627876 0.50524,1.914536 2.827,2.983749 5.18409,2.342536 1.8803,-0.511498 3.17642,-1.958888 3.38311,-3.485321 l 0.0553,-20.454638 c 0,-0.786458 -0.46423,-1.374769 -1.09133,-1.485487 l -12.878,3.485321 z"
     fill="none"
     image-rendering="optimizeSpeed"
     stroke="#40efc4"
     stroke-width="0.283634"
     id="path621" />
</svg>
