<?xml version="1.0" encoding="UTF-8" standalone="no"?>
<svg
   width="32"
   height="32"
   version="1.1"
   id="svg15"
   sodipodi:docname="dialog-warning.svg"
   inkscape:version="1.2.1 (9c6d41e410, 2022-07-14)"
   xmlns:inkscape="http://www.inkscape.org/namespaces/inkscape"
   xmlns:sodipodi="http://sodipodi.sourceforge.net/DTD/sodipodi-0.dtd"
   xmlns:xlink="http://www.w3.org/1999/xlink"
   xmlns="http://www.w3.org/2000/svg"
   xmlns:svg="http://www.w3.org/2000/svg">
  <sodipodi:namedview
     id="namedview17"
     pagecolor="#ffffff"
     bordercolor="#666666"
     borderopacity="1.0"
     inkscape:showpageshadow="2"
     inkscape:pageopacity="0.0"
     inkscape:pagecheckerboard="0"
     inkscape:deskcolor="#d1d1d1"
     showgrid="false"
     inkscape:zoom="7.375"
     inkscape:cx="16.067797"
     inkscape:cy="16.067797"
     inkscape:window-width="1920"
     inkscape:window-height="1002"
     inkscape:window-x="0"
     inkscape:window-y="0"
     inkscape:window-maximized="1"
     inkscape:current-layer="svg15" />
  <defs
     id="defs7">
    <linearGradient
       inkscape:collect="always"
       id="linearGradient820">
      <stop
         style="stop-color:#d08770;stop-opacity:1;"
         offset="0"
         id="stop816" />
      <stop
         style="stop-color:#ebcb8b;stop-opacity:1;"
         offset="1"
         id="stop818" />
    </linearGradient>
    <linearGradient
       id="b"
       x1="44.424"
       x2="44.424"
       y1="60.535"
       y2="-5.497"
       gradientTransform="translate(-6.723 1.226) scale(.50174)"
       gradientUnits="userSpaceOnUse">
      <stop
         stop-color="#634215"
         offset="0"
         id="stop2" />
      <stop
         stop-color="#93700d"
         offset="1"
         id="stop4" />
    </linearGradient>
    <linearGradient
       inkscape:collect="always"
       xlink:href="#linearGradient820"
       id="linearGradient822"
       x1="15.991707"
       y1="29.99984"
       x2="16"
       y2="0"
       gradientUnits="userSpaceOnUse" />
  </defs>
  <path
     d="M0 0h32v32H0z"
     fill="none"
     id="path9" />
  <path
     d="m30.786 27.037-13.021-24c-0.37345-0.66681-1.051-1.037-1.8052-1.037-0.75517 0-1.4348 0.44489-1.8145 1.1107l-12.924 24c-0.30414 0.59319-0.30828 1.4073 0.066207 2.0004 0.37448 0.59215 0.97655 0.88874 1.7317 0.88874h25.945c0.7531 0 1.4338-0.37022 1.7379-0.96341 0.37966-0.59215 0.38276-1.3326 0.08379-1.9994z"
     stroke-width="1.0358"
     id="path11"
     style="fill-opacity:1;fill:url(#linearGradient822)" />
  <path
     transform="translate(.004)"
     d="M14.416 9.516c.375 3.666.805 7.307 1.125 10.987h1.02c.265-3.534.692-7.047 1-10.578.158-.835-.272-1.828-1.154-2.03-.873-.256-1.847.376-1.963 1.278-.02.113-.028.228-.028.343zm-.111 14.905c-.04 1.092 1.161 1.947 2.186 1.601.993-.253 1.516-1.501 1.007-2.389-.455-.917-1.791-1.219-2.56-.517-.388.32-.646.796-.633 1.305z"
     fill="#ffffff"
     font-family="Georgia"
     font-size="62.458"
     font-weight="400"
     overflow="visible"
     id="path13" />
</svg>
