<?xml version="1.0" encoding="UTF-8" standalone="no"?>
<svg
   width="22"
   version="1.1"
   height="22"
   id="svg57"
   sodipodi:docname="preferences-desktop-multimedia.svg"
   inkscape:version="1.2.1 (9c6d41e410, 2022-07-14)"
   xmlns:inkscape="http://www.inkscape.org/namespaces/inkscape"
   xmlns:sodipodi="http://sodipodi.sourceforge.net/DTD/sodipodi-0.dtd"
   xmlns:xlink="http://www.w3.org/1999/xlink"
   xmlns="http://www.w3.org/2000/svg"
   xmlns:svg="http://www.w3.org/2000/svg">
  <sodipodi:namedview
     id="namedview59"
     pagecolor="#ffffff"
     bordercolor="#666666"
     borderopacity="1.0"
     inkscape:showpageshadow="2"
     inkscape:pageopacity="0.0"
     inkscape:pagecheckerboard="0"
     inkscape:deskcolor="#d1d1d1"
     showgrid="false"
     inkscape:zoom="6.9532167"
     inkscape:cx="27.756937"
     inkscape:cy="22.939023"
     inkscape:window-width="1920"
     inkscape:window-height="1000"
     inkscape:window-x="0"
     inkscape:window-y="0"
     inkscape:window-maximized="1"
     inkscape:current-layer="svg57">
    <inkscape:grid
       type="xygrid"
       id="grid1672"
       originx="0"
       originy="0" />
  </sodipodi:namedview>
  <defs
     id="defs27">
    <linearGradient
       id="linearGradient4213">
      <stop
         style="stop-color:#ee6406"
         id="stop2" />
      <stop
         offset="1"
         style="stop-color:#ffce0d"
         id="stop4" />
    </linearGradient>
    <linearGradient
       id="linearGradient4391">
      <stop
         stop-color="#21c9fb"
         id="stop7" />
      <stop
         offset="1"
         stop-color="#197cf1"
         id="stop9" />
    </linearGradient>
    <linearGradient
       id="linearGradient4159">
      <stop
         style="stop-color:#2a2c2f"
         id="stop12" />
      <stop
         offset="1"
         style="stop-color:#424649"
         id="stop14" />
    </linearGradient>
    <linearGradient
       xlink:href="#linearGradient4159"
       id="linearGradient4250"
       y1="536.79797"
       y2="503.798"
       x2="0"
       gradientUnits="userSpaceOnUse"
       gradientTransform="translate(-466.62689,-528.78761)" />
    <linearGradient
       xlink:href="#linearGradient4303"
       id="linearGradient4272"
       y1="547.79797"
       y2="536.79797"
       x2="0"
       gradientUnits="userSpaceOnUse"
       gradientTransform="matrix(1,0,0,0.54545455,-466.62689,-284.78852)" />
    <linearGradient
       id="linearGradient4303">
      <stop
         style="stop-color:#c6cdd1"
         id="stop19" />
      <stop
         offset="1"
         style="stop-color:#e0e5e7"
         id="stop21" />
    </linearGradient>
    <linearGradient
       xlink:href="#linearGradient4391"
       id="linearGradient4397"
       y1="535.79797"
       y2="505.798"
       x2="0"
       gradientUnits="userSpaceOnUse"
       gradientTransform="translate(-466.62689,-528.78761)" />
    <linearGradient
       xlink:href="#linearGradient4213"
       id="linearGradient4219"
       y1="21"
       x1="33"
       y2="12"
       x2="24"
       gradientUnits="userSpaceOnUse"
       gradientTransform="translate(-82.05546,-28.98961)" />
    <linearGradient
       xlink:href="#linearGradient4213"
       id="linearGradient4234"
       x1="428.57101"
       x2="388.57101"
       gradientUnits="userSpaceOnUse"
       gradientTransform="matrix(0.46842108,0,0,1,-123.45583,-524.298)" />
    <linearGradient
       id="a"
       gradientUnits="userSpaceOnUse"
       x1="-20"
       x2="-20"
       xlink:href="#b"
       y1="44"
       y2="4"
       gradientTransform="matrix(0.44999991,0,0,0.44999991,0.1999994,0.20000211)" />
    <linearGradient
       id="b"
       gradientUnits="userSpaceOnUse"
       x2="0"
       y1="543.79999"
       y2="503.79999">
      <stop
         offset="0"
         stop-color="#197cf1"
         id="stop3" />
      <stop
         offset="1"
         stop-color="#20bcfa"
         id="stop5" />
    </linearGradient>
    <linearGradient
       id="c"
       gradientUnits="userSpaceOnUse"
       x1="19"
       x2="44"
       y1="19"
       y2="44"
       gradientTransform="matrix(1.0499999,0,0,1.0499999,-1.200002,-1.1999953)">
      <stop
         offset="0"
         stop-color="#292c2f"
         id="stop8" />
      <stop
         offset="1"
         stop-color="#292c2f"
         stop-opacity="0"
         id="stop10" />
    </linearGradient>
    <linearGradient
       inkscape:collect="always"
       xlink:href="#linearGradient4213"
       id="linearGradient1666"
       gradientUnits="userSpaceOnUse"
       gradientTransform="matrix(0.78673487,0,0,0.78673487,-7.945919,-5.5857153)"
       x1="33"
       y1="21"
       x2="24"
       y2="12" />
    <linearGradient
       xlink:href="#linearGradient4213"
       id="linearGradient4234-9"
       x1="428.57101"
       x2="388.57101"
       gradientUnits="userSpaceOnUse"
       gradientTransform="matrix(0.25488729,0,0,0.42857138,-93.256229,-211.12769)" />
  </defs>
  <circle
     cx="10.999998"
     cy="10.999995"
     fill="url(#a)"
     r="8.9999952"
     id="circle13"
     style="fill:url(#a);stroke-width:0.45" />
  <path
     d="M 2.0054,10.775001 C 2.0036,10.850151 2,10.924401 2,11.000001 2,15.986 6.014,20 11.000001,20 15.986,20 20,15.986 20,11.000001 c 0,-0.0756 -0.0034,-0.149853 -0.0054,-0.225 C 19.8758,15.656154 15.9086,19.55 11.000001,19.55 6.0895995,19.55 2.1242,15.656154 2.0054,10.775001"
     fill="#0c69cf"
     stroke-opacity="0.55"
     stroke-width="1.26"
     id="path15" />
  <path
     d="m 10.935713,5.4285708 c -3.0509536,0 -5.507142,2.4561884 -5.507142,5.5071422 0,3.050954 2.4561884,5.507142 5.507142,5.507142 3.050954,0 5.507142,-2.456188 5.507142,-5.507142 0,-3.0509538 -2.456188,-5.5071422 -5.507142,-5.5071422 z m 0,0.7867418 c 2.615101,0 4.720401,2.1052994 4.720401,4.7204004 0,2.615101 -2.1053,4.720401 -4.720401,4.720401 -2.6151008,0 -4.7204002,-2.1053 -4.7204002,-4.720401 0,-2.615101 2.1052994,-4.7204004 4.7204002,-4.7204004 z"
     id="path41-7-1"
     style="fill:#ffffff;fill-opacity:0.72306;stroke-width:0.428571" />
  <rect
     width="3.9336708"
     x="8.9677601"
     y="8.9704466"
     rx="1.9668354"
     height="3.9336708"
     style="opacity:0.8;stroke-width:0.0786733"
     id="rect43-5-2" />
  <path
     style="opacity:0.85;fill:url(#linearGradient1666);stroke-width:0.0786733"
     d="m 10.935713,5.4285708 v 0.7867418 c 2.615101,0 4.720401,2.1052994 4.720401,4.7204004 h 0.786741 c 0,-3.0509538 -2.456188,-5.5071422 -5.507142,-5.5071422 z"
     id="path47-3-7" />
  <path
     style="fill:#ffffff;fill-rule:evenodd;stroke-width:0.786733"
     d="M 12.115815,10.935735 10.148971,9.7556388 v 2.3602062 z"
     id="path49-5-0" />
  <path
     style="fill:url(#linearGradient4234-9);stroke-width:0.0330511"
     d="m 6.1680182,17.42857 c -0.070604,0 -0.1274473,0.09557 -0.1274473,0.214285 0,0.118715 0.056843,0.214286 0.1274473,0.214286 H 12.412759 V 17.42857 Z"
     id="path45-0" />
  <path
     d="m 12.412759,17.42857 v 0.428571 h 3.186078 c 0.0706,0 0.127447,-0.09557 0.127447,-0.214286 0,-0.118714 -0.05684,-0.214285 -0.127447,-0.214285 z"
     id="path51-6"
     style="fill:#dbdbdb;fill-opacity:1;stroke-width:0.428571" />
  <rect
     width="0.50977463"
     x="12.157509"
     y="17.215136"
     rx="0.25488731"
     height="0.85714275"
     style="fill:#ffffff;stroke-width:0.0330511"
     id="rect53-2" />
</svg>
