<?xml version="1.0" encoding="UTF-8" standalone="no"?>
<svg
   width="22"
   height="22"
   version="1.1"
   id="svg15747"
   sodipodi:docname="preferences-desktop-search.svg"
   inkscape:version="1.2.1 (9c6d41e410, 2022-07-14)"
   xmlns:inkscape="http://www.inkscape.org/namespaces/inkscape"
   xmlns:sodipodi="http://sodipodi.sourceforge.net/DTD/sodipodi-0.dtd"
   xmlns:xlink="http://www.w3.org/1999/xlink"
   xmlns="http://www.w3.org/2000/svg"
   xmlns:svg="http://www.w3.org/2000/svg">
  <sodipodi:namedview
     id="namedview15749"
     pagecolor="#ffffff"
     bordercolor="#666666"
     borderopacity="1.0"
     inkscape:showpageshadow="2"
     inkscape:pageopacity="0.0"
     inkscape:pagecheckerboard="0"
     inkscape:deskcolor="#d1d1d1"
     showgrid="false"
     inkscape:zoom="4.9166667"
     inkscape:cx="24"
     inkscape:cy="24.101695"
     inkscape:window-width="1920"
     inkscape:window-height="1000"
     inkscape:window-x="0"
     inkscape:window-y="0"
     inkscape:window-maximized="1"
     inkscape:current-layer="svg15747" />
  <defs
     id="defs15711">
    <linearGradient
       id="a"
       y1="536.79999"
       y2="503.79999"
       x2="0"
       gradientUnits="userSpaceOnUse">
      <stop
         stop-color="#2a2c2f"
         id="stop15681" />
      <stop
         offset="1"
         stop-color="#424649"
         id="stop15683" />
    </linearGradient>
    <linearGradient
       id="b"
       y1="547.79999"
       y2="536.79999"
       x2="0"
       gradientUnits="userSpaceOnUse"
       gradientTransform="matrix(1,0,0,0.54545,0,244)">
      <stop
         stop-color="#c6cdd1"
         id="stop15686" />
      <stop
         offset="1"
         stop-color="#e0e5e7"
         id="stop15688" />
    </linearGradient>
    <linearGradient
       id="c"
       y1="5.342"
       x1="42.799"
       y2="31.357"
       x2="11.999"
       gradientUnits="userSpaceOnUse">
      <stop
         stop-color="#1abc9c"
         id="stop15691" />
      <stop
         offset="1"
         stop-color="#2980b9"
         id="stop15693" />
    </linearGradient>
    <linearGradient
       id="d"
       y1="22.346001"
       x1="29.855"
       y2="28.506001"
       x2="54.32"
       gradientUnits="userSpaceOnUse">
      <stop
         stop-color="#cc4a5e"
         id="stop15696" />
      <stop
         offset="1"
         stop-color="#aa478a"
         id="stop15698" />
    </linearGradient>
    <linearGradient
       id="e"
       y1="41.220001"
       x1="24.392"
       y2="25.343"
       x2="20.643"
       gradientUnits="userSpaceOnUse">
      <stop
         stop-color="#334545"
         id="stop15701" />
      <stop
         offset="1"
         stop-color="#536161"
         id="stop15703" />
    </linearGradient>
    <linearGradient
       xlink:href="#e"
       id="f"
       y1="568.79999"
       x1="431.57001"
       y2="562.79999"
       x2="439.57001"
       gradientUnits="userSpaceOnUse"
       gradientTransform="matrix(-1,0,0,1,839.14,-40)" />
    <linearGradient
       xlink:href="#e"
       id="g"
       y1="40.898998"
       x1="56.029999"
       y2="32.474998"
       x2="40.646999"
       gradientUnits="userSpaceOnUse" />
    <linearGradient
       xlink:href="#e"
       id="h"
       y1="32.150002"
       x1="60.895"
       y2="27.059999"
       x2="53.41"
       gradientUnits="userSpaceOnUse" />
    <linearGradient
       xlink:href="#e"
       id="i"
       y1="36.527"
       x1="33.32"
       y2="31.348"
       x2="24.780001"
       gradientUnits="userSpaceOnUse" />
    <linearGradient
       xlink:href="#e"
       id="j"
       y1="36.764999"
       x1="34"
       y2="49.570999"
       x2="40.25"
       gradientUnits="userSpaceOnUse" />
    <linearGradient
       id="linearGradient2163-3"
       x1="-177.09"
       x2="-177.09"
       y1="-1.3372"
       y2="-15.638"
       gradientTransform="matrix(1.2369415,0,0,1.2369415,230.53326,21.22803)"
       gradientUnits="userSpaceOnUse">
      <stop
         stop-color="#78b4dc"
         offset="0"
         id="stop288" />
      <stop
         stop-color="#0096f0"
         offset="1"
         id="stop290" />
    </linearGradient>
    <linearGradient
       id="linearGradient80038"
       x1="33.014"
       x2="34.219002"
       y1="10.136"
       y2="9.4466"
       gradientTransform="matrix(1.1160888,-0.20003187,0.20003187,1.1160888,-24.395575,11.610511)"
       gradientUnits="userSpaceOnUse">
      <stop
         stop-color="#3c292c"
         offset="0"
         id="stop236" />
      <stop
         stop-color="#c2bbc2"
         offset=".1557"
         id="stop238" />
      <stop
         stop-color="#50393c"
         offset=".42952"
         id="stop240" />
      <stop
         stop-color="#dddee3"
         offset=".60187"
         id="stop242" />
      <stop
         stop-color="#6a5a5b"
         offset=".88993"
         id="stop244" />
      <stop
         stop-color="#806e74"
         offset="1"
         id="stop246" />
    </linearGradient>
    <linearGradient
       id="linearGradient126082"
       x1="33.173"
       x2="34.636002"
       y1="10.722"
       y2="9.8470001"
       gradientTransform="matrix(1.1160888,-0.20003187,0.20003187,1.1160888,-24.395575,11.610511)"
       gradientUnits="userSpaceOnUse">
      <stop
         stop-color="#533c3c"
         offset="0"
         id="stop249" />
      <stop
         stop-color="#c2bac0"
         offset=".079999"
         id="stop251" />
      <stop
         stop-color="#432c2d"
         offset=".46848"
         id="stop253" />
      <stop
         stop-color="#cecbd2"
         offset=".60206"
         id="stop255" />
      <stop
         stop-color="#675556"
         offset=".91407"
         id="stop257" />
      <stop
         stop-color="#8a7b84"
         offset="1"
         id="stop259" />
    </linearGradient>
    <linearGradient
       id="linearGradient1902"
       x1="32"
       x2="32"
       y1="2.0005"
       y2="61.905998"
       gradientUnits="userSpaceOnUse"
       gradientTransform="matrix(0.29999999,0,0,0.29999999,1.4002952,1.4000004)">
      <stop
         stop-color="#f5f5f5"
         offset="0"
         id="stop311" />
      <stop
         stop-color="#dcdcdc"
         offset="1"
         id="stop313" />
    </linearGradient>
    <linearGradient
       id="linearGradient181487"
       x1="33.624001"
       x2="35.493"
       y1="12.027"
       y2="10.924"
       gradientTransform="matrix(1.11609,-0.200043,0.200043,1.11609,-24.397007,11.611101)"
       gradientUnits="userSpaceOnUse">
      <stop
         stop-color="#542a2e"
         offset="0"
         id="stop262" />
      <stop
         stop-color="#482a2d"
         offset=".063817"
         id="stop264" />
      <stop
         stop-color="#341e21"
         offset=".19594"
         id="stop266" />
      <stop
         stop-color="#664748"
         offset=".53477"
         id="stop268" />
      <stop
         stop-color="#d2cad1"
         offset=".66939"
         id="stop270" />
      <stop
         stop-color="#55363a"
         offset=".95152"
         id="stop272" />
      <stop
         stop-color="#70494f"
         offset="1"
         id="stop274" />
    </linearGradient>
    <linearGradient
       id="linearGradient2181"
       x1="32.855"
       x2="32.855"
       y1="1.7684"
       y2="10.314"
       gradientTransform="matrix(1.1160888,-0.20003187,0.20003187,1.1160888,-26.11416,11.918542)"
       gradientUnits="userSpaceOnUse">
      <stop
         stop-color="#f6ffff"
         offset="0"
         id="stop219" />
      <stop
         stop-color="#583e3f"
         offset="1"
         id="stop221" />
    </linearGradient>
    <linearGradient
       id="linearGradient27086"
       x1="32.855"
       x2="32.855"
       y1="1.7684"
       y2="10.314"
       gradientTransform="matrix(1.0993234,-0.19703303,0.19703303,1.0993234,-25.545051,11.921318)"
       gradientUnits="userSpaceOnUse">
      <stop
         stop-color="#f4fbfb"
         offset="0"
         id="stop224" />
      <stop
         stop-color="#565050"
         offset=".49983"
         id="stop226" />
      <stop
         stop-color="#c2b4b2"
         offset="1"
         id="stop228" />
    </linearGradient>
    <radialGradient
       id="radialGradient1539"
       cx="33.299"
       cy="5.9839001"
       r="3.2704"
       gradientTransform="matrix(1.1338725,0,0,1.1338725,-28.293774,7.1800292)"
       gradientUnits="userSpaceOnUse">
      <stop
         stop-color="#fff"
         stop-opacity=".204"
         offset="0"
         id="stop212" />
      <stop
         stop-color="#fff"
         stop-opacity=".204"
         offset=".7"
         id="stop214" />
      <stop
         stop-color="#191919"
         offset="1"
         id="stop216" />
    </radialGradient>
    <linearGradient
       id="linearGradient59103"
       x1="31.417999"
       x2="31.417999"
       y1="9.3065004"
       y2="2.6166"
       gradientTransform="matrix(1.1338725,0,0,1.1338725,-26.089524,7.1248099)"
       gradientUnits="userSpaceOnUse">
      <stop
         stop-color="#f3f7f6"
         offset="0"
         id="stop231" />
      <stop
         stop-color="#605e5d"
         offset="1"
         id="stop233" />
    </linearGradient>
    <linearGradient
       inkscape:collect="always"
       xlink:href="#linearGradient997"
       id="linearGradient1092"
       gradientUnits="userSpaceOnUse"
       gradientTransform="translate(237.02,-44.947)"
       x1="-228.53999"
       y1="49.422001"
       x2="-228.53999"
       y2="52.341999" />
    <linearGradient
       id="linearGradient997"
       x1="-228.53999"
       x2="-228.53999"
       y1="49.422001"
       y2="52.341999"
       gradientTransform="translate(237.02,-44.947)"
       gradientUnits="userSpaceOnUse">
      <stop
         stop-color="#fff"
         offset="0"
         id="stop283" />
      <stop
         stop-color="#fff"
         stop-opacity="0"
         offset="1"
         id="stop285" />
    </linearGradient>
    <filter
       id="filter1229"
       x="-0.069095556"
       y="-0.10709949"
       width="1.1381911"
       height="1.214199"
       color-interpolation-filters="sRGB">
      <feGaussianBlur
         stdDeviation="0.1347133"
         id="feGaussianBlur277" />
    </filter>
    <filter
       id="filter16134"
       x="-0.069095559"
       y="-0.10709949"
       width="1.1381911"
       height="1.2141989"
       color-interpolation-filters="sRGB">
      <feGaussianBlur
         stdDeviation="0.1347133"
         id="feGaussianBlur16132" />
    </filter>
    <linearGradient
       inkscape:collect="always"
       xlink:href="#linearGradient997"
       id="linearGradient16487"
       gradientUnits="userSpaceOnUse"
       gradientTransform="translate(237.02,-44.947)"
       x1="-228.53999"
       y1="49.422001"
       x2="-228.53999"
       y2="52.341999" />
  </defs>
  <path
     d="m 11.000227,2.0000793 a 8.9999999,8.9999999 0 0 0 -9,9.0000007 8.9999999,8.9999999 0 0 0 6.5907475,8.661879 h 4.8468515 a 8.9999999,8.9999999 0 0 0 6.561947,-8.6502 v -0.02812 A 8.9999999,8.9999999 0 0 0 11.00034,2.0001886 Z"
     fill="url(#linearGradient2163-3)"
     stroke-width="1.23694"
     id="path328"
     style="fill:url(#linearGradient2163-3)" />
  <path
     d="m 14.267481,16.085917 0.453628,0.512681 1.194761,-1.022707 -0.489537,-0.528827 z"
     fill="url(#linearGradient80038)"
     id="path346"
     style="fill:url(#linearGradient80038);stroke-width:1.13387" />
  <path
     d="m 14.563422,16.717485 0.384314,0.432981 1.473921,-1.255197 -0.386786,-0.443424 z"
     fill="url(#linearGradient126082)"
     id="path348"
     style="fill:url(#linearGradient126082);stroke-width:1.13387" />
  <path
     d="M 11.000295,2 A 8.9999999,8.9999999 0 0 0 2.0002951,11.000001 8.9999999,8.9999999 0 0 0 11.000295,20 a 8.9999999,8.9999999 0 0 0 9,-8.999999 8.9999999,8.9999999 0 0 0 -9,-9.000001 z m 0,1.2 a 7.7999999,7.7999999 0 0 1 7.8,7.800001 7.7999999,7.7999999 0 0 1 -7.8,7.8 7.7999999,7.7999999 0 0 1 -7.7999999,-7.8 A 7.7999999,7.7999999 0 0 1 11.000295,3.2 Z"
     fill="url(#linearGradient1902)"
     stroke-linecap="round"
     stroke-linejoin="round"
     stroke-opacity="0.3"
     stroke-width="0.296928"
     id="path350"
     style="fill:url(#linearGradient1902)" />
  <path
     d="m 15.794895,18.614301 a 8.9999999,8.9999999 0 0 0 0.257226,-0.168165 8.9999999,8.9999999 0 0 0 0.257814,-0.181641 8.9999999,8.9999999 0 0 0 0.251367,-0.191016 8.9999999,8.9999999 0 0 0 0.244335,-0.199218 8.9999999,8.9999999 0 0 0 0.237306,-0.207423 8.9999999,8.9999999 0 0 0 0.230275,-0.21621 8.9999999,8.9999999 0 0 0 0.222071,-0.223827 8.9999999,8.9999999 0 0 0 0.213868,-0.231444 c -0.524402,-0.62211 -1.002541,-1.1877 -1.002541,-1.1877 0,0 -0.119142,-0.06124 -0.191016,0.0012 -0.07188,0.06245 -1.68048,1.41915 -1.68048,1.41915 0,0 -0.122412,0.121686 0.0123,0.271874 0.06668,0.07435 0.4974,0.582451 0.94746,1.11444 z"
     fill="url(#linearGradient181487)"
     id="path352"
     style="fill:url(#linearGradient181487);stroke-width:0.300001" />
  <path
     d="m 10.922217,7.293303 a 4.8594372,4.8594372 0 0 0 -3.9262606,5.640336 4.8594372,4.8594372 0 0 0 5.6409016,3.926147 4.8594372,4.8594372 0 0 0 3.925581,-5.640789 4.8594372,4.8594372 0 0 0 -5.640222,-3.925694 z m 0.203019,1.1327271 a 3.7082166,3.7082166 0 0 1 4.303841,2.9960319 3.7082166,3.7082166 0 0 1 -2.995352,4.304294 3.7082166,3.7082166 0 0 1 -4.3044068,-2.995919 3.7082166,3.7082166 0 0 1 2.9959178,-4.3044069 z"
     fill="url(#linearGradient2181)"
     id="path354"
     style="fill:url(#linearGradient2181);stroke-width:1.13387" />
  <path
     d="M 10.935143,7.3648504 A 4.7864164,4.7864164 0 0 0 7.0681839,12.920713 4.7864164,4.7864164 0 0 0 12.624046,16.787672 4.7864164,4.7864164 0 0 0 16.490438,11.231923 4.7864164,4.7864164 0 0 0 10.935143,7.3648504 Z M 11.12535,8.4260529 A 3.7082166,3.7082166 0 0 1 15.42919,11.422085 3.7082166,3.7082166 0 0 1 12.433839,15.726379 3.7082166,3.7082166 0 0 1 8.1294318,12.73046 3.7082166,3.7082166 0 0 1 11.12535,8.4260529 Z"
     fill="url(#linearGradient27086)"
     id="path356"
     style="fill:url(#linearGradient27086);stroke-width:1.13387" />
  <circle
     transform="rotate(-10.161)"
     cx="9.4639549"
     cy="13.965011"
     r="3.7082167"
     fill="url(#radialGradient1539)"
     opacity="0.302"
     id="circle358"
     style="fill:url(#radialGradient1539);stroke-width:1.13387" />
  <circle
     transform="rotate(-10.161)"
     cx="9.4639549"
     cy="13.893575"
     r="3.7573135"
     fill="none"
     stroke="url(#linearGradient59103)"
     stroke-linecap="round"
     stroke-linejoin="round"
     stroke-width="0.121585"
     id="circle360"
     style="stroke:url(#linearGradient59103)" />
  <ellipse
     transform="matrix(1.1265477,0,0,1.250548,2.3046263,2.7504423)"
     cx="8.4666004"
     cy="6.4478998"
     rx="2.3396001"
     ry="1.5094"
     fill="url(#linearGradient1541)"
     filter="url(#filter1229)"
     opacity="0.4"
     id="ellipse362"
     style="fill:url(#linearGradient16487)" />
  <ellipse
     transform="matrix(1.1265477,0,0,1.250548,2.3046263,2.7504423)"
     cx="8.4666004"
     cy="6.4478998"
     rx="2.3396001"
     ry="1.5094"
     fill="url(#linearGradient1541)"
     filter="url(#filter1229)"
     opacity="0.4"
     id="ellipse364"
     style="fill:url(#linearGradient1092)" />
</svg>
