<?xml version="1.0" encoding="UTF-8" standalone="no"?>
<svg
   height="22"
   viewBox="0 0 22 22"
   width="22"
   version="1.1"
   id="svg44"
   sodipodi:docname="preferences-smart-status.svg"
   inkscape:version="1.2.1 (9c6d41e410, 2022-07-14)"
   xmlns:inkscape="http://www.inkscape.org/namespaces/inkscape"
   xmlns:sodipodi="http://sodipodi.sourceforge.net/DTD/sodipodi-0.dtd"
   xmlns:xlink="http://www.w3.org/1999/xlink"
   xmlns="http://www.w3.org/2000/svg"
   xmlns:svg="http://www.w3.org/2000/svg">
  <defs
     id="defs48">
    <linearGradient
       gradientTransform="matrix(0.44998122,0,0,0.44995572,-194.84983,-224.68401)"
       gradientUnits="userSpaceOnUse"
       x2="426.69501"
       y2="499.92099"
       y1="547.67499"
       id="a-6"
       x1="389.32001">
      <stop
         stop-color="#18222a"
         style="stop-color:#1e2b35;stop-opacity:1"
         id="stop216" />
      <stop
         stop-color="#566069"
         offset="1"
         style="stop-color:#6d7983;stop-opacity:1"
         id="stop218" />
    </linearGradient>
    <linearGradient
       inkscape:collect="always"
       xlink:href="#a-3"
       id="linearGradient2704"
       gradientUnits="userSpaceOnUse"
       gradientTransform="matrix(0.46977697,0,0,0.46977697,3.3813685,3.346584)"
       x1="-421.44699"
       y1="-504.20401"
       x2="-410.44699"
       y2="-493.20401" />
    <linearGradient
       id="a-3">
      <stop
         offset="0"
         stop-color="#292c2f"
         id="stop8" />
      <stop
         offset="1"
         stop-opacity="0"
         id="stop10" />
    </linearGradient>
    <linearGradient
       inkscape:collect="always"
       xlink:href="#d-6"
       id="linearGradient2706"
       gradientUnits="userSpaceOnUse"
       gradientTransform="matrix(0.24510141,0,0,0.25295608,3.0544045,2.768759)"
       x1="1.3329999"
       y1="48.714001"
       x2="1.3329999"
       y2="9.7139997" />
    <linearGradient
       id="d-6"
       gradientTransform="matrix(0.52174,0,0,0.53846,45.597466,-33.196963)"
       gradientUnits="userSpaceOnUse"
       x1="1.3329999"
       x2="1.3329999"
       y1="48.714001"
       y2="9.7139997">
      <stop
         offset="0"
         stop-color="#eef1f2"
         id="stop19-7" />
      <stop
         offset="1"
         stop-color="#f9fafb"
         id="stop21" />
    </linearGradient>
    <linearGradient
       id="f"
       gradientUnits="userSpaceOnUse"
       x1="-11.306"
       x2="-11.306"
       y1="23.620001"
       y2="7.6199999"
       gradientTransform="translate(46.293466,-31.966963)">
      <stop
         offset="0"
         stop-color="#3e3e3e"
         id="stop2-5" />
      <stop
         offset="1"
         stop-color="#5c5c5c"
         id="stop4-3" />
    </linearGradient>
    <linearGradient
       id="linearGradient972"
       gradientUnits="userSpaceOnUse"
       x1="6"
       x2="20"
       y1="5"
       y2="16"
       gradientTransform="matrix(0.38666491,0,0,0.38666491,-14.932957,-19.595831)">
      <stop
         offset="0"
         stop-color="#31363b"
         id="stop7-5" />
      <stop
         offset="1"
         stop-color="#232629"
         id="stop9-6" />
    </linearGradient>
    <linearGradient
       id="linearGradient976"
       gradientUnits="userSpaceOnUse"
       x1="7"
       x2="14"
       y1="7"
       y2="14"
       gradientTransform="matrix(0.38666491,0,0,0.38666491,-14.932957,-19.595831)">
      <stop
         offset="0"
         stop-color="#292c2f"
         id="stop12-2" />
      <stop
         offset="1"
         stop-opacity="0"
         id="stop14-9" />
    </linearGradient>
    <linearGradient
       inkscape:collect="always"
       xlink:href="#b"
       id="linearGradient984"
       gradientUnits="userSpaceOnUse"
       gradientTransform="matrix(0.38666491,0,0,0.38666491,5.9738347,6.9401696)"
       x1="6"
       y1="5"
       x2="20"
       y2="16" />
    <linearGradient
       inkscape:collect="always"
       xlink:href="#c"
       id="linearGradient986"
       gradientUnits="userSpaceOnUse"
       gradientTransform="matrix(0.38666491,0,0,0.38666491,5.9738347,6.9401696)"
       x1="7"
       y1="7"
       x2="14"
       y2="14" />
  </defs>
  <sodipodi:namedview
     id="namedview46"
     pagecolor="#ffffff"
     bordercolor="#666666"
     borderopacity="1.0"
     inkscape:showpageshadow="2"
     inkscape:pageopacity="0.0"
     inkscape:pagecheckerboard="0"
     inkscape:deskcolor="#d1d1d1"
     showgrid="false"
     inkscape:zoom="10.727273"
     inkscape:cx="11"
     inkscape:cy="11.13983"
     inkscape:window-width="1920"
     inkscape:window-height="1000"
     inkscape:window-x="0"
     inkscape:window-y="0"
     inkscape:window-maximized="1"
     inkscape:current-layer="svg44" />
  <linearGradient
     id="a"
     gradientTransform="matrix(0.33540428,0,0,0.34615286,26.069175,-22.911745)"
     gradientUnits="userSpaceOnUse"
     x1="3"
     x2="3"
     y1="17"
     y2="3">
    <stop
       offset="0"
       stop-color="#eef1f2"
       id="stop2" />
    <stop
       offset="1"
       stop-color="#f9fafb"
       id="stop4" />
  </linearGradient>
  <linearGradient
     id="b"
     gradientUnits="userSpaceOnUse"
     x1="6"
     x2="20"
     y1="5"
     y2="16"
     gradientTransform="matrix(0.38666491,0,0,0.38666491,-14.932957,-19.595831)">
    <stop
       offset="0"
       stop-color="#31363b"
       id="stop7" />
    <stop
       offset="1"
       stop-color="#232629"
       id="stop9" />
  </linearGradient>
  <linearGradient
     id="c"
     gradientUnits="userSpaceOnUse"
     x1="7"
     x2="14"
     y1="7"
     y2="14"
     gradientTransform="matrix(0.38666491,0,0,0.38666491,-14.932957,-19.595831)">
    <stop
       offset="0"
       stop-color="#292c2f"
       id="stop12" />
    <stop
       offset="1"
       stop-opacity="0"
       id="stop14" />
  </linearGradient>
  <linearGradient
     id="d"
     gradientTransform="matrix(0.36685,0,0,0.34615286,-95.904468,-195.91939)"
     gradientUnits="userSpaceOnUse"
     x1="388.423"
     x2="388.423"
     y1="557.79797"
     y2="505.798">
    <stop
       offset="0"
       stop-color="#7f8c8d"
       id="stop17" />
    <stop
       offset="1"
       stop-color="#afb0b3"
       id="stop19" />
  </linearGradient>
  <rect
     width="17.999252"
     x="-20.000105"
     y="2.0036879"
     rx="8.9996262"
     height="17.998232"
     transform="scale(-1,1)"
     style="display:inline;fill:url(#a-6);stroke-width:1.25991;stroke-opacity:0.55"
     id="rect223"
     ry="8.9991159" />
  <path
     style="display:inline;opacity:0.3;fill:#000000;fill-opacity:1;stroke-width:1.25991;stroke-opacity:0.55"
     d="m 2.0057685,10.777845 c -0.0017,0.07501 -0.0054,0.149594 -0.0054,0.225034 0,4.985547 4.013843,8.999121 8.9995975,8.999121 4.985763,0 8.999665,-4.013574 8.999665,-8.999121 0,-0.07544 -0.0034,-0.149594 -0.0054,-0.225034 -0.118842,4.880661 -4.085867,8.77413 -8.994259,8.77413 -4.9101905,0 -8.8754175,-3.893469 -8.9941995,-8.77413"
     id="path225" />
  <path
     d="m 2.0057685,11.226155 c -0.0017,-0.07501 -0.0054,-0.149165 -0.0054,-0.225034 0,-4.985505 4.013843,-8.999121 8.9995975,-8.999121 4.985763,0 8.999665,4.013616 8.999665,8.999121 0,0.07544 -0.0034,0.150023 -0.0054,0.225034 -0.118842,-4.88066 -4.085867,-8.77413 -8.994259,-8.77413 -4.9101905,0 -8.8754175,3.89347 -8.9941995,8.77413"
     style="display:inline;opacity:0.3;fill:#ffffff;fill-opacity:1;stroke-width:1.25991;stroke-opacity:0.55"
     id="path229" />
  <path
     sodipodi:nodetypes="ccc"
     id="path5098-0"
     d="M 18.751274,12.200521 V 11.937574 Z"
     style="fill:#ffffff;fill-opacity:0.756881;fill-rule:nonzero;stroke:none;stroke-width:0.0470435;stroke-linecap:round;stroke-linejoin:round;stroke-miterlimit:4;stroke-dasharray:none;stroke-dashoffset:4;stroke-opacity:1" />
  <path
     d="m 6.6698055,16.030562 h 8.4559865 v 1.409329 H 6.6698055 Z"
     fill="#292c2e"
     id="path26-6"
     style="stroke-width:0.469784" />
  <path
     d="m 7.6093595,16.500337 h 4.2279955 v 0.469778 H 7.6093595 Z m 4.6977705,0 h 1.879109 v 0.469778 H 12.30713 Z"
     fill="#f6b44d"
     id="path28-2"
     style="stroke-width:0.469784" />
  <path
     d="m 14.907344,5.913915 1.627778,1.626839 v 9.899137 H 9.9582435 l -3.758213,-3.758214 z"
     fill="url(#c)"
     opacity="0.2"
     id="path34-9"
     style="fill:url(#linearGradient2704);stroke-width:0.469784" />
  <path
     d="m 8.5489165,5.225691 a 2.3488845,2.3488845 0 0 0 -2.348886,2.348887 v 2.239893 a 1.4093308,1.4093308 0 0 1 0.467899,0.99452 0.93955371,0.93955371 0 0 1 0.0017,0.05403 0.93955371,0.93955371 0 0 1 -0.0047,0.09395 1.4093308,1.4093308 0 0 1 0,0.0022 1.4093308,1.4093308 0 0 1 -0.464899,0.951421 v 1.771059 l 1.409329,1.409328 h 6.5768795 l 1.409329,-1.409328 v -1.770122 a 1.4093308,1.4093308 0 0 1 -0.467897,-0.994518 0.93955371,0.93955371 0 0 1 -0.0017,-0.05402 0.93955371,0.93955371 0 0 1 0.0047,-0.09631 1.4093308,1.4093308 0 0 1 0.465077,-0.951296 V 7.57455 A 2.3488845,2.3488845 0 0 0 13.246716,5.225663 Z"
     id="path36-1"
     style="fill:url(#linearGradient2706);stroke-width:0.469784" />
  <path
     d="m 10.613814,9.2601586 h 2.31999 v 0.386665 h -2.31999 z"
     fill="#4d4d4d"
     id="path34-1"
     style="stroke-width:0.386664" />
  <path
     d="m 9.8404837,8.8734906 v 0.933434 L 11.377327,11.34377 c -0.07371,0.569626 -0.560475,1.009707 -1.150178,1.009707 -0.6406463,0 -1.1599933,-0.519348 -1.1599933,-1.159997 v -1.15395 -0.0062 h -0.773332 v 1.159996 c 0,1.067744 0.865579,1.933323 1.9333253,1.933323 1.011277,0 1.840818,-0.776401 1.925773,-1.765668 l 1.554212,-1.5542074 v -0.933423 h -0.77333 v 0.613226 L 11.773809,10.646571 10.613814,9.4865766 v -0.613226 z"
     fill="url(#b)"
     id="path36-2"
     style="fill:url(#linearGradient984);stroke-width:0.386664" />
  <path
     d="m 9.8404837,7.7134986 v 1.159992 h 0.3866653 v -0.773328 h 0.386665 v -0.386664 h -0.386665 z m 3.0933203,0 v 0.386664 h 0.386665 v 0.773328 h 0.386665 v -1.159992 h -0.386665 z m -4.2533123,1.159992 a 0.77332985,0.77332985 0 0 0 -0.773332,0.773333 0.77332985,0.77332985 0 0 0 0.773332,0.7733294 0.77332985,0.77332985 0 0 0 0.773327,-0.7733294 0.77332985,0.77332985 0 0 0 -0.773327,-0.773333 z m 0,0.386668 a 0.38666492,0.38666492 0 0 1 0.386664,0.386665 0.38666492,0.38666492 0 0 1 -0.386664,0.3866604 0.38666492,0.38666492 0 0 1 -0.386668,-0.3866604 0.38666492,0.38666492 0 0 1 0.386668,-0.386665 z"
     fill="#7f8c8d"
     id="path38-7"
     style="stroke-width:0.386664" />
  <path
     d="m 8.9674657,9.3877876 c 0.137146,0.151784 0.132693,0.386135 -0.01363,0.532421 -0.146283,0.1462784 -0.380635,0.1507344 -0.532418,0.01362 l 0.645697,0.6457024 v 0.613981 c 0,0.640647 0.519349,1.159994 1.1599963,1.159994 0.461313,0 0.859806,-0.26934 1.046714,-0.659294 z"
     fill="url(#c)"
     opacity="0.2"
     id="path40-0"
     style="fill:url(#linearGradient986);stroke-width:0.386664" />
  <path
     d="m 10.613814,7.3268336 v 0.773329 h 0.386665 a 0.38666492,0.38666492 0 0 0 0.386665,-0.386664 v -0.01662 a 0.38666492,0.38666492 0 0 0 -0.37005,-0.370049 z m 1.933325,0 a 0.38666492,0.38666492 0 0 0 -0.386665,0.386665 v 0.0166 a 0.38666492,0.38666492 0 0 0 0.370051,0.370052 h 0.403279 v -0.773332 z"
     id="path42-9"
     style="stroke-width:0.386664" />
</svg>
