<?xml version="1.0" encoding="UTF-8" standalone="no"?>
<svg
   height="22"
   width="22"
   version="1.1"
   id="svg279"
   sodipodi:docname="preferences-devices-tree.svg"
   inkscape:version="1.2.1 (9c6d41e410, 2022-07-14)"
   xmlns:inkscape="http://www.inkscape.org/namespaces/inkscape"
   xmlns:sodipodi="http://sodipodi.sourceforge.net/DTD/sodipodi-0.dtd"
   xmlns:xlink="http://www.w3.org/1999/xlink"
   xmlns="http://www.w3.org/2000/svg"
   xmlns:svg="http://www.w3.org/2000/svg">
  <defs
     id="defs283">
    <linearGradient
       id="a-3"
       x1="428.81601"
       x2="388.86499"
       y1="547.63397"
       y2="499.67899"
       gradientTransform="matrix(0.4500002,0,0,0.44685936,-172.85657,-223.00207)"
       gradientUnits="userSpaceOnUse">
      <stop
         stop-color="#bdc3c7"
         offset="0"
         id="stop2193" />
      <stop
         stop-color="#eff0f1"
         offset="1"
         id="stop2195" />
    </linearGradient>
    <linearGradient
       id="c-36"
       gradientUnits="userSpaceOnUse"
       x1="11.000006"
       x2="19.750025"
       y1="6.9999809"
       y2="15.74998"
       gradientTransform="matrix(0.85899609,0,0,0.85899609,30.443088,-6.5148203)">
      <stop
         offset="0"
         stop-color="#292c2f"
         id="stop188" />
      <stop
         offset="1"
         stop-opacity="0"
         id="stop190" />
    </linearGradient>
    <linearGradient
       id="linearGradient1104"
       gradientUnits="userSpaceOnUse"
       x1="5"
       x2="5"
       y1="18"
       y2="14"
       gradientTransform="translate(-28.733457,-19.255704)">
      <stop
         offset="0"
         stop-color="#208c4e"
         id="stop230-3" />
      <stop
         offset="1"
         stop-color="#6dbd7f"
         id="stop232-6" />
    </linearGradient>
    <linearGradient
       id="linearGradient1108"
       gradientUnits="userSpaceOnUse"
       x1="8"
       x2="8"
       y1="13"
       y2="9"
       gradientTransform="translate(-28.733457,-19.255704)">
      <stop
         offset="0"
         stop-color="#8e44ad"
         id="stop225-7" />
      <stop
         offset="1"
         stop-color="#b08bc4"
         id="stop227-5" />
    </linearGradient>
    <linearGradient
       id="linearGradient1112"
       gradientUnits="userSpaceOnUse"
       x1="11"
       x2="11"
       y1="7"
       y2="3"
       gradientTransform="translate(-28.733457,-19.255704)">
      <stop
         offset="0"
         stop-color="#da4453"
         id="stop220-3" />
      <stop
         offset="1"
         stop-color="#e4848f"
         id="stop222-5" />
    </linearGradient>
    <linearGradient
       inkscape:collect="always"
       xlink:href="#c"
       id="linearGradient1118"
       gradientUnits="userSpaceOnUse"
       gradientTransform="matrix(0.6333334,0,0,0.6333334,4.2349999,5.8927055)"
       x1="5"
       y1="18"
       x2="5"
       y2="14" />
    <linearGradient
       inkscape:collect="always"
       xlink:href="#b"
       id="linearGradient1120"
       gradientUnits="userSpaceOnUse"
       gradientTransform="matrix(0.6333334,0,0,0.6333334,4.2349999,5.8927055)"
       x1="8"
       y1="13"
       x2="8"
       y2="9" />
    <linearGradient
       inkscape:collect="always"
       xlink:href="#a"
       id="linearGradient1122"
       gradientUnits="userSpaceOnUse"
       gradientTransform="matrix(0.6333334,0,0,0.6333334,4.2349999,5.8927055)"
       x1="11"
       y1="7"
       x2="11"
       y2="3" />
  </defs>
  <sodipodi:namedview
     id="namedview281"
     pagecolor="#ffffff"
     bordercolor="#666666"
     borderopacity="1.0"
     inkscape:showpageshadow="2"
     inkscape:pageopacity="0.0"
     inkscape:pagecheckerboard="0"
     inkscape:deskcolor="#d1d1d1"
     showgrid="false"
     inkscape:zoom="10.727273"
     inkscape:cx="11"
     inkscape:cy="11.13983"
     inkscape:window-width="1920"
     inkscape:window-height="1000"
     inkscape:window-x="0"
     inkscape:window-y="0"
     inkscape:window-maximized="1"
     inkscape:current-layer="svg279" />
  <linearGradient
     id="a"
     gradientUnits="userSpaceOnUse"
     x1="11"
     x2="11"
     y1="7"
     y2="3"
     gradientTransform="translate(-28.733457,-19.255704)">
    <stop
       offset="0"
       stop-color="#da4453"
       id="stop220" />
    <stop
       offset="1"
       stop-color="#e4848f"
       id="stop222" />
  </linearGradient>
  <linearGradient
     id="b"
     gradientUnits="userSpaceOnUse"
     x1="8"
     x2="8"
     y1="13"
     y2="9"
     gradientTransform="translate(-28.733457,-19.255704)">
    <stop
       offset="0"
       stop-color="#8e44ad"
       id="stop225" />
    <stop
       offset="1"
       stop-color="#b08bc4"
       id="stop227" />
  </linearGradient>
  <linearGradient
     id="c"
     gradientUnits="userSpaceOnUse"
     x1="5"
     x2="5"
     y1="18"
     y2="14"
     gradientTransform="translate(-28.733457,-19.255704)">
    <stop
       offset="0"
       stop-color="#208c4e"
       id="stop230" />
    <stop
       offset="1"
       stop-color="#6dbd7f"
       id="stop232" />
  </linearGradient>
  <linearGradient
     id="d"
     gradientUnits="userSpaceOnUse"
     x1="11.428572"
     x2="16.571429"
     xlink:href="#j"
     y1="12.5"
     y2="17.642857" />
  <linearGradient
     id="e"
     gradientUnits="userSpaceOnUse"
     x1="5.428259"
     x2="10.571116"
     xlink:href="#j"
     y1="12.500328"
     y2="17.643185" />
  <linearGradient
     id="f"
     gradientUnits="userSpaceOnUse"
     x1="13.428572"
     x2="18.571429"
     xlink:href="#j"
     y1="17.500328"
     y2="22.643185" />
  <linearGradient
     id="g"
     gradientUnits="userSpaceOnUse"
     x1="7.428572"
     x2="12.571429"
     xlink:href="#j"
     y1="17.500328"
     y2="22.643185" />
  <linearGradient
     id="h"
     gradientUnits="userSpaceOnUse"
     x1="2.428259"
     x2="7.571116"
     xlink:href="#j"
     y1="17.500328"
     y2="22.643185" />
  <linearGradient
     id="i"
     gradientUnits="userSpaceOnUse"
     x1="7.785715"
     x2="7.785715"
     y1="13.571429"
     y2="2">
    <stop
       offset="0"
       stop-color="#c3c8cd"
       id="stop240" />
    <stop
       offset="1"
       stop-color="#e4e6e8"
       id="stop242" />
  </linearGradient>
  <linearGradient
     id="j">
    <stop
       offset="0"
       stop-color="#292c2f"
       id="stop245" />
    <stop
       offset="1"
       stop-opacity="0"
       id="stop247" />
  </linearGradient>
  <linearGradient
     id="k"
     gradientUnits="userSpaceOnUse"
     x1="8.428572"
     x2="13.571429"
     xlink:href="#j"
     y1="6.5"
     y2="11.642857" />
  <rect
     x="2.000001"
     y="2.1256697"
     width="17.999998"
     height="17.874367"
     rx="8.999999"
     ry="8.9371834"
     fill="#95a5a6"
     id="rect2220"
     style="stroke-width:0.448427" />
  <rect
     x="2.000001"
     y="2.1256697"
     width="17.999998"
     height="17.427511"
     rx="8.999999"
     ry="8.7137556"
     id="rect2222"
     style="fill:url(#a-3);stroke-width:0.448427" />
  <path
     d="m 10.979249,1.8000399 c -3.0706585,0 -6.1413186,1.7424183 -7.808249,4.3560463 L 15.335842,6.15625 c 0.01181,0 0.02172,0.00614 0.03345,0.00675 L 18.787506,6.15604 C 17.164445,3.5424182 14.488583,1.8 10.979304,1.8 Z"
     stroke-width="0.601083"
     id="path32"
     style="fill:#566069;fill-opacity:1"
     sodipodi:nodetypes="scsccss" />
  <rect
     width="1.2857143"
     x="15.292142"
     y="4.5189285"
     rx="0.64285713"
     height="1.2767406"
     id="rect25-8-7"
     style="stroke-width:0.0427073;fill:#ffffff"
     inkscape:transform-center-x="3.1311411"
     inkscape:transform-center-y="-2.5473106" />
  <rect
     width="15.300001"
     x="3.3714304"
     y="6.2627354"
     rx="0"
     height="0.42558017"
     id="rect27-9"
     style="fill:#3385ff;fill-opacity:1;stroke-width:0.0392763" />
  <path
     d="m 6.768333,14.759378 c -0.350866,0 -0.633333,0.282458 -0.633333,0.633327 v 1.266673 c 0,0.350859 0.282467,0.633327 0.633333,0.633327 H 8.035 c 0.3508673,0 0.6333332,-0.282468 0.6333332,-0.633327 v -1.266673 c 0,-0.350869 -0.2824659,-0.633327 -0.6333332,-0.633327 z m 3.166667,0 c -0.3508668,0 -0.6333327,0.282458 -0.6333327,0.633327 v 1.266673 c 0,0.350859 0.2824659,0.633327 0.6333327,0.633327 h 1.26667 c 0.35086,0 0.63333,-0.282468 0.63333,-0.633327 v -1.266673 c 0,-0.350869 -0.28247,-0.633327 -0.63333,-0.633327 z m 3.8,0 c -0.35087,0 -0.633327,0.282458 -0.633327,0.633327 v 1.266673 c 0,0.350859 0.282457,0.633327 0.633327,0.633327 h 1.266673 c 0.350859,0 0.633327,-0.282468 0.633327,-0.633327 v -1.266673 c 0,-0.350869 -0.282468,-0.633327 -0.633327,-0.633327 z"
     fill="url(#c)"
     id="path269-6"
     style="fill:url(#linearGradient1118);stroke-width:1.2667" />
  <path
     d="m 8.6683332,11.592705 c -0.3508659,0 -0.6333332,0.28247 -0.6333332,0.633331 v 1.266669 c 0,0.35087 0.2824673,0.63333 0.6333332,0.63333 H 9.935 c 0.350868,0 0.63333,-0.28246 0.63333,-0.63333 v -1.266669 c 0,-0.350861 -0.282462,-0.633331 -0.63333,-0.633331 z m 3.7999968,0 c -0.35086,0 -0.63333,0.28247 -0.63333,0.633331 v 1.266669 c 0,0.35087 0.28247,0.63333 0.63333,0.63333 H 13.735 c 0.350873,0 0.633332,-0.28246 0.633332,-0.63333 v -1.266669 c 0,-0.350861 -0.282459,-0.633331 -0.633332,-0.633331 z"
     fill="url(#b)"
     id="path271-2"
     style="fill:url(#linearGradient1120);stroke-width:1.2667" />
  <path
     d="m 10.56833,7.7927055 c -0.350862,0 -0.63333,0.282467 -0.63333,0.633333 v 1.266667 c 0,0.3508675 0.282468,0.6333335 0.63333,0.6333335 H 11.835 c 0.35087,0 0.63333,-0.282466 0.63333,-0.6333335 v -1.266667 c 0,-0.350866 -0.28246,-0.633333 -0.63333,-0.633333 z"
     fill="url(#a)"
     id="path273-9"
     style="fill:url(#linearGradient1122);stroke-width:1.2667" />
</svg>
