<?xml version="1.0" encoding="UTF-8" standalone="no"?>
<svg
   width="32"
   height="32"
   version="1.1"
   id="svg10"
   sodipodi:docname="dialog-question.svg"
   inkscape:version="1.2.1 (9c6d41e410, 2022-07-14)"
   xmlns:inkscape="http://www.inkscape.org/namespaces/inkscape"
   xmlns:sodipodi="http://sodipodi.sourceforge.net/DTD/sodipodi-0.dtd"
   xmlns:xlink="http://www.w3.org/1999/xlink"
   xmlns="http://www.w3.org/2000/svg"
   xmlns:svg="http://www.w3.org/2000/svg">
  <defs
     id="defs14">
    <linearGradient
       inkscape:collect="always"
       id="linearGradient879">
      <stop
         style="stop-color:#00d3d3;stop-opacity:1;"
         offset="0"
         id="stop875" />
      <stop
         style="stop-color:#2a7fff;stop-opacity:1"
         offset="1"
         id="stop877" />
    </linearGradient>
    <linearGradient
       inkscape:collect="always"
       xlink:href="#linearGradient879"
       id="linearGradient881"
       x1="5.8940458"
       y1="27.07947"
       x2="31"
       y2="1"
       gradientUnits="userSpaceOnUse" />
  </defs>
  <sodipodi:namedview
     id="namedview12"
     pagecolor="#ffffff"
     bordercolor="#666666"
     borderopacity="1.0"
     inkscape:showpageshadow="2"
     inkscape:pageopacity="0.0"
     inkscape:pagecheckerboard="0"
     inkscape:deskcolor="#d1d1d1"
     showgrid="false"
     inkscape:zoom="7.375"
     inkscape:cx="16.135593"
     inkscape:cy="16.135593"
     inkscape:window-width="1920"
     inkscape:window-height="1009"
     inkscape:window-x="0"
     inkscape:window-y="0"
     inkscape:window-maximized="1"
     inkscape:current-layer="svg10" />
  <path
     d="m16 1c-8.2768 0-15 6.7232-15 15 0 8.2768 6.7232 15 15 15 8.2768 0 15-6.7232 15-15 0-8.2768-6.7232-15-15-15z"
     color="#000000"
     opacity=".99"
     overflow="visible"
     stroke-width="1.0343"
     id="path2"
     style="fill-opacity:1;fill:url(#linearGradient881);opacity:1" />
  <path
     d="m16 6a6 6 0 0 0-6 6h2a4 4 0 0 1 3.9395-4 4 4 0 0 1 0.060547 0 4 4 0 0 1 4 4 4 4 0 0 1-4 4v2a6 6 0 0 0 6-6 6 6 0 0 0-6-6z"
     fill="#ffffff"
     stroke-linecap="round"
     stroke-linejoin="round"
     stroke-miterlimit="2"
     stroke-width="2.1818"
     id="path4" />
  <circle
     cx="16"
     cy="24"
     r="2"
     fill="#ffffff"
     stroke-linecap="round"
     stroke-linejoin="round"
     stroke-miterlimit="2"
     stroke-width="2"
     id="circle6" />
  <rect
     x="15"
     y="16"
     width="2"
     height="4"
     fill="#ffffff"
     stroke-linecap="round"
     stroke-linejoin="round"
     stroke-miterlimit="2"
     stroke-width="1.4142"
     id="rect8" />
</svg>
